# sdm_hand_1200_mixw0.3.obj  (1200 v, 1694 f)  units: metres
v -0.059176758 -0.005846387 0.021900922
v -0.069094315 0.004087776 0.014222741
v -0.068354376 0.004346595 0.013601856
v -0.068571724 0.005567660 0.015462436
v -0.063345835 0.020366503 0.027859384
v -0.062823243 0.021846386 0.029099079
v -0.059628095 0.022090085 0.033008493
v 0.018999999 -0.004534375 0.184715625
v -0.045000002 0.000000000 0.000000000
v -0.045000002 0.022000000 0.000000000
v -0.040974012 0.022000000 0.055202013
v -0.041066405 0.007176065 0.101000004
v -0.017196899 0.002830597 0.142257593
v -0.018948661 0.018876110 0.102038049
v -0.018500000 0.021000000 0.094999999
v -0.002500000 0.021000000 0.094999999
v -0.017250000 0.020437500 0.152218753
v 0.038250001 0.002500000 0.167999998
v 0.017912201 0.017700521 0.101637907
v 0.018500000 0.021000000 0.094999999
v 0.024000000 0.018625000 0.101000004
v 0.037000000 0.020250000 0.101250000
v 0.037000000 0.021000000 0.094999999
v 0.045000002 0.022000000 0.094999999
v 0.010506351 0.015788070 0.177299032
v 0.031401998 0.020064453 0.165739898
v -0.030781250 -0.003000000 0.020000000
v -0.036773200 -0.002058357 0.039555999
v 0.002499999 0.002000000 0.000000000
v -0.033000000 0.022000000 0.044999999
v -0.112615840 -0.007776443 0.056138598
v 0.026319010 0.018307109 0.160953194
v 0.031086451 0.002500000 0.166687595
v 0.037605027 0.018933347 0.150675055
v 0.025410645 0.019500000 0.154514772
v 0.036961790 0.017906250 0.121612862
v 0.001500000 0.019500000 0.196750004
v -0.015068063 0.020130271 0.185849410
v -0.042071476 -0.002026048 0.007589698
v 0.031029445 0.000000000 0.092281015
v 0.025000000 0.000000000 0.000000000
v 0.000000000 0.022000000 0.094999999
v -0.065958780 0.012967082 0.021660910
v 0.045000002 0.022000000 0.071249999
v -0.010500000 0.021000000 0.094999999
v 0.013750000 0.002000000 0.000000000
v -0.031179688 0.020250000 0.171499997
v 0.011000000 0.021000000 0.094999999
v -0.022500001 0.022000000 0.094999999
v 0.031000000 0.019500000 0.101499997
v -0.002000000 0.002500000 0.204140625
v -0.037999999 -0.003000000 0.033270762
v -0.037999999 -0.003000000 0.025308305
v -0.023250000 0.002500000 0.190550776
v 0.037500001 0.002266731 0.170648490
v 0.028000000 0.021000000 0.101499997
v -0.041499998 0.005309539 0.186330127
v 0.025583578 0.018880022 0.106369281
v -0.041499998 0.009344409 0.157306730
v -0.031593747 -0.004747662 0.195711841
v -0.117523493 -0.023660890 0.074216045
v -0.004000000 0.000000000 0.000000000
v -0.064652307 0.016666792 0.024760147
v -0.053541651 0.022052603 0.014239096
v -0.057012890 0.012919544 0.006996444
v -0.054979681 0.001857366 0.005812280
v 0.028949044 0.000000000 0.019182022
v 0.000281250 0.000000000 0.011249153
v 0.031000000 0.021000000 0.094999999
v -0.039428045 0.003070513 0.196459959
v -0.022500001 0.017076050 0.169637758
v -0.020500001 0.004011095 0.194701144
v 0.030240662 -0.003000000 0.023007778
v 0.022500001 0.022000000 0.094999999
v -0.057812476 0.022078904 0.021358644
v -0.006500000 0.021000000 0.094999999
v -0.059947888 0.022092055 0.024918418
v -0.014500000 0.021000000 0.094999999
v 0.033337310 0.019709672 0.034803799
v 0.022407994 0.022000000 0.072379938
v 0.030350227 0.019500000 0.130538510
v 0.007250000 0.021000000 0.094999999
v 0.034750000 0.019500000 0.101499997
v -0.011995118 0.003354854 0.109555705
v 0.045000002 0.022000000 0.083124999
v -0.029062100 0.010769138 0.030544282
v -0.011343750 0.016000001 0.097833335
v -0.017716518 0.016000001 0.148438985
v 0.036250000 0.021000000 0.139500007
v 0.033399305 0.021000000 0.137153277
v 0.033972705 0.022000000 0.077187499
v 0.032500000 0.016000001 0.138999999
v 0.033898391 0.018532573 0.179389924
v 0.027000000 0.002500000 0.118666668
v 0.024491381 0.022000000 0.083681682
v 0.020500001 0.002708920 0.186600658
v 0.035352678 0.000000000 0.087507813
v -0.131913983 -0.020511470 0.074102743
v -0.067293942 -0.000521468 0.039274994
v -0.036101066 0.002983143 0.034438719
v 0.023266693 0.004570294 0.105000004
v 0.014750000 0.021000000 0.094999999
v -0.030608925 0.009472200 0.186412214
v 0.025000000 0.016000001 0.136000000
v 0.003657073 0.007812500 0.123312928
v -0.022614438 -0.003000000 0.022386012
v -0.070163611 0.008346302 0.036128689
v -0.067265252 0.009267370 0.018561673
v 0.034000000 0.021000000 0.094999999
v -0.062683633 0.008633069 0.010299150
v -0.061667028 0.003101981 0.009707068
v -0.051893697 0.018730429 0.040825502
v -0.023200681 0.007138692 0.162824571
v -0.010687500 0.015655014 0.151999995
v 0.011413767 0.022000000 0.080249537
v -0.059295379 0.014706436 0.021134095
v 0.029362498 0.018227088 0.099691388
v -0.073396201 0.012841007 0.031104373
v -0.006000000 0.002500000 0.188999996
v -0.016191247 0.013515748 0.101106990
v -0.001918315 0.022000000 0.081724462
v -0.038333673 0.018866215 0.182902156
v 0.034651528 -0.003000000 0.039923803
v -0.065208991 0.009040579 0.045391701
v -0.008561379 0.019500000 0.192283864
v -0.039363075 0.014293674 0.119370797
v -0.016705555 0.000000000 0.088841235
v -0.018039754 0.003880655 0.186195086
v -0.028311553 0.018162047 0.114514743
v 0.001864195 0.010358571 0.187989301
v -0.122654539 -0.008790064 0.086859747
v 0.011676827 0.005129039 0.171718349
v -0.114548559 -0.014372721 0.076866424
v -0.030133273 0.021000000 0.175628095
v -0.133700183 -0.011364320 0.077679028
v -0.025117254 0.019908698 0.173082440
v 0.031000000 0.021000000 0.101499997
v 0.015094988 0.016000001 0.098109687
v 0.023561670 0.010683112 0.148857593
v -0.014847230 0.018439434 0.150712485
v 0.020171684 -0.001500000 0.018979377
v -0.022507137 0.002429364 0.031534201
v -0.063999071 0.018516648 0.026309765
v -0.065305543 0.014816937 0.023210529
v 0.032417402 0.015033618 0.101000004
v 0.036502411 0.017299329 0.134082085
v -0.117427698 -0.012378396 0.068941936
v 0.045000002 0.022000000 0.089062499
v 0.029906633 0.005219611 0.131223047
v 0.033508572 0.003476097 0.151499998
v 0.003000000 -0.004475616 0.196749488
v -0.126636237 -0.024598245 0.088307005
v 0.032329081 0.019500000 0.149725482
v -0.050624117 -0.003936217 0.014745310
v 0.006179534 0.008891649 0.085175792
v 0.010832421 0.019500000 0.183863479
v 0.024556512 0.002500000 0.167398950
v 0.025368702 0.000084961 0.167999998
v 0.037000000 0.017055864 0.099663997
v -0.095780022 -0.013083577 0.052002186
v -0.029430795 0.019500000 0.165864995
v -0.032144242 0.018425263 0.173138293
v -0.037223682 0.002500000 0.161062502
v 0.020328132 0.003812505 0.200000004
v -0.027539322 0.020250000 0.147363274
v -0.026851461 0.022000000 0.037499999
v -0.078421073 0.004392532 0.051669911
v -0.030939961 0.001851033 0.045210946
v -0.041499998 0.011304425 0.179578778
v -0.111631006 -0.012968027 0.084780297
v 0.020500001 0.009062270 0.111167814
v -0.019281249 0.002500000 0.192187497
v 0.018348786 0.015156247 0.084090466
v -0.030090846 0.022000000 0.057187499
v -0.018540971 0.005329876 0.157632236
v 0.036491626 0.021000000 0.133926816
v -0.057944725 0.011008542 0.014860290
v -0.096381530 0.004068013 0.051835525
v -0.001422772 0.003067434 0.187410403
v 0.023367296 0.015775128 0.123030155
v 0.029066426 0.009787697 0.165335352
v 0.004712217 0.017186392 0.084222864
v 0.023000000 0.006671207 0.172696523
v 0.029516000 0.022000000 0.060940191
v -0.074333233 0.001606586 0.021666937
v -0.137679720 -0.020439165 0.076446957
v 0.016891647 0.017524296 0.196176635
v -0.009500000 0.016000001 0.094999999
v -0.041066405 0.019096409 0.170573220
v -0.019998307 0.007275035 0.206702658
v 0.004241052 0.018613853 0.176262469
v 0.024499999 0.002500000 0.172062497
v 0.028984375 0.016000001 0.135492188
v 0.004184714 0.017509851 0.147160101
v 0.016625000 0.021000000 0.094999999
v -0.022651750 0.013648756 0.134301326
v 0.014329215 0.018558277 0.096345026
v -0.015896741 0.018164639 0.130987278
v 0.029450320 0.008348266 0.171092848
v -0.023360485 0.006555198 0.178331415
v -0.124901343 -0.017742964 0.070060531
v -0.067918488 0.007417515 0.017012054
v -0.118131316 -0.026188705 0.084354599
v -0.015982417 0.018507319 0.175449080
v -0.019473294 0.017840341 0.153924633
v -0.037752558 0.000660309 0.085689120
v -0.008500000 0.021000000 0.094999999
v -0.026336832 0.005799406 0.152006301
v 0.004683136 0.018829278 0.102173461
v 0.024486333 0.018531558 0.140286073
v -0.031925781 0.002500000 0.180999994
v 0.034162732 0.004516870 0.104743954
v 0.020500001 0.009028193 0.190777822
v 0.026892360 0.019750000 0.134682290
v 0.030700403 0.008367645 0.066077434
v -0.113914997 -0.021129348 0.070400968
v -0.022875001 0.002500000 0.195062495
v -0.080175413 -0.002970762 0.029336359
v -0.037356097 0.008117000 0.172000006
v -0.068442928 0.004677605 0.024908529
v -0.061806292 0.011368210 0.018555402
v -0.119942021 -0.005824873 0.067205505
v -0.056475156 0.003436174 0.017187513
v 0.013617792 0.019991332 0.144542248
v -0.023687501 0.013938743 0.194671625
v -0.023343750 0.002756725 0.182640619
v 0.037500001 -0.000517564 0.177636707
v -0.126106015 -0.019067828 0.091244280
v -0.020312500 0.014375000 -0.024899999
v -0.039500002 0.018500000 0.174447921
v -0.002342021 0.018114035 0.154040625
v 0.020100836 0.013545818 0.151570239
v -0.018999999 -0.002223547 0.191819486
v -0.004219930 0.017858343 0.180206822
v 0.025638981 0.013905324 0.157667266
v 0.035980903 0.021000000 0.098814100
v -0.008236090 0.002004987 0.202022567
v -0.013919728 0.002000000 -0.014763100
v -0.096772388 -0.005779257 0.070548348
v -0.036117354 0.020250000 0.177799959
v 0.018999999 0.000314950 0.191857126
v -0.110880460 -0.009198803 0.082225318
v 0.032215917 0.001561574 0.074656792
v 0.016301685 0.000513330 0.184000000
v -0.015918988 -0.005500000 0.204583394
v -0.116742607 -0.023267978 0.072207852
v -0.061100744 0.016535980 0.021532382
v -0.027375179 -0.003000000 0.045323253
v -0.039999999 0.002500000 0.183812494
v 0.023750000 0.002500000 0.180187494
v -0.000500000 0.005669868 0.196985011
v -0.009998985 0.005318831 0.208000004
v 0.034176592 0.014620789 0.096876722
v -0.008931720 0.014980640 0.181807493
v 0.007675553 0.022000000 0.071704715
v -0.065010702 0.003724288 0.011654462
v -0.065519004 0.006489832 0.011950503
v 0.001500000 0.003023203 0.193676471
v -0.043648090 0.022030577 0.018870024
v 0.033052008 0.021000000 0.097674371
v -0.125380042 -0.024233533 0.080433352
v 0.018999999 -0.002015830 0.190774431
v 0.030170405 -0.003000000 0.053745883
v 0.029246528 0.020250000 0.139226569
v -0.070485358 0.004685784 0.018877030
v -0.007607342 0.016835600 0.092723287
v -0.007706699 0.007329829 0.089552520
v -0.112325208 -0.016757312 0.075051674
v -0.004906774 0.016472856 0.091113535
v -0.003521670 0.001680234 0.195994587
v -0.116043420 -0.029031744 0.080249167
v 0.010312632 0.018811411 0.129127640
v -0.006331322 0.006560856 0.191396268
v -0.008443885 0.007140389 0.083192715
v -0.014425429 0.018418557 0.095846080
v 0.028000000 0.021000000 0.094999999
v -0.131819091 -0.011729177 0.089911399
v -0.039999999 0.000500000 0.195999995
v -0.066612016 0.011117226 0.020111291
v -0.026115787 0.000743794 0.195999995
v -0.018081685 0.012699786 0.087732225
v 0.009358507 0.021000000 0.097572114
v 0.031891722 0.000276062 0.065433961
v 0.007606200 0.006526948 0.191947013
v -0.035974824 0.018429127 0.173396164
v 0.041875085 0.003066375 0.029320775
v 0.016121910 0.003733118 0.181360949
v 0.019375000 0.002500000 0.193875002
v 0.023940195 0.018114302 0.177014622
v -0.005639888 0.019373179 0.186534636
v -0.002000000 -0.001792460 0.200363589
v 0.018999999 0.000046875 0.198015628
v 0.012570064 0.001939888 0.191328365
v 0.035794858 -0.001500000 0.069855969
v 0.024499999 0.000461685 0.170283671
v -0.001250000 0.002654733 0.198010519
v -0.123084322 -0.016013868 0.075888063
v 0.014152344 0.002500000 0.183625000
v -0.002160474 0.018295505 0.102259078
v -0.029534446 0.001006205 0.193991483
v 0.008921875 0.002500000 0.184000000
v -0.123257405 -0.013890927 0.063882346
v 0.003000000 -0.000395309 0.185065307
v 0.030508617 0.007927228 0.182999998
v -0.003937663 0.000945387 0.206000000
v 0.005262813 0.005656757 0.197907817
v 0.020500001 0.005854775 0.186371884
v -0.115514182 -0.027462578 0.083372633
v -0.025207148 -0.000082587 0.024649372
v 0.012999999 -0.005500000 0.184000000
v 0.017836404 -0.005500000 0.186152276
v -0.007020339 0.022000000 0.054931613
v 0.031396012 -0.003000000 0.029535143
v 0.030183156 0.019700638 0.091192483
v -0.015115657 0.000000000 0.018123351
v -0.061846297 0.015108179 0.027454501
v 0.006072164 0.005816614 0.185459104
v -0.116540885 -0.027186868 0.078010962
v -0.116228861 -0.024934718 0.079573390
v 0.025960388 0.001812174 0.179425262
v -0.114150070 -0.022160178 0.076767630
v -0.018349956 0.018000396 0.147187498
v -0.113722522 -0.026524740 0.076032475
v 0.019776154 -0.003000000 0.065013790
v -0.000500000 0.007789679 0.206733683
v 0.028419582 -0.005500000 0.169229396
v 0.030890692 0.010564276 0.003591223
v 0.017403179 0.001499659 0.185344393
v -0.023688121 0.004301478 0.197999999
v 0.014776025 0.007532669 0.073824323
v 0.035250963 0.019500000 0.143438369
v -0.064135537 -0.000879306 0.018061832
v -0.066614925 0.001604235 0.016142287
v -0.067854620 0.002846005 0.015182514
v 0.018999999 -0.002689646 0.187806893
v -0.030576476 0.009446206 0.192866895
v 0.018492187 0.002500000 0.199000003
v 0.033902575 0.008416032 0.088950909
v 0.045000002 0.008405688 0.074591072
v 0.017513827 0.005849728 0.138695464
v -0.015468261 0.022000000 0.027561407
v 0.025750000 0.017968750 0.132874999
v -0.012856102 0.004043924 0.204832329
v -0.030375153 0.002766233 0.171000005
v -0.039351506 0.018382902 0.102905843
v 0.037092982 0.006181132 0.182999998
v -0.038166929 0.019994501 0.100018332
v 0.016507781 0.009239972 0.201671262
v -0.115813625 -0.016387007 0.081511751
v 0.022873573 0.003829072 0.066988878
v -0.022500001 0.005563840 0.190295648
v -0.010375382 0.014643899 0.147427080
v 0.019436526 0.000141676 0.064177037
v -0.008375000 -0.005500000 0.188999996
v -0.059302421 0.014419853 0.024885502
v -0.126529978 -0.026811203 0.081773381
v -0.025992763 0.005107717 0.183845852
v 0.001500000 0.004703346 0.196527277
v 0.041218751 0.019750000 0.094999999
v -0.003529384 0.011688844 0.187789133
v -0.027391959 0.016000001 0.175181788
v -0.008008192 0.020046875 0.152323636
v -0.026293832 0.011858734 0.102506582
v -0.012145839 0.013449008 0.090995921
v -0.012500000 0.021000000 0.094999999
v -0.120346063 -0.015097375 0.085086380
v -0.031074713 0.008482384 0.094979642
v 0.010756957 0.018063329 0.094725667
v -0.034355790 0.002914441 0.178767497
v 0.012100697 0.000076363 0.186415284
v 0.010546875 0.009312500 -0.029177109
v -0.002000000 -0.004923563 0.205396809
v -0.114470213 -0.021012075 0.073699345
v 0.023622716 0.004488854 0.181868673
v 0.026235248 0.016539643 0.094999999
v 0.038050125 0.010717972 0.168370289
v -0.036714538 -0.001527746 0.191402795
v 0.037370998 0.017123423 0.108831363
v -0.060311584 0.009963568 0.036802569
v -0.007056015 0.015701738 0.208000004
v -0.025131049 0.019500000 0.152802241
v 0.013454445 0.017660365 0.092877925
v -0.018999999 -0.000857789 0.195991541
v 0.015878215 -0.005500000 0.196852148
v 0.000429524 0.019050172 0.091244738
v 0.036676181 -0.002515997 0.167999998
v -0.012974139 0.009146562 0.094999999
v -0.024000000 -0.001315330 0.182493009
v 0.024232774 0.005419892 0.058771667
v -0.117221425 -0.019995241 0.076903426
v 0.007265331 0.018474456 0.096470548
v 0.036209838 0.019079439 0.090744326
v -0.006055826 -0.000750000 0.085485696
v -0.130756640 -0.024301621 0.086741353
v -0.117634192 -0.023061584 0.082377572
v -0.122854730 -0.025816599 0.077524316
v -0.012843751 0.002500000 0.206000000
v -0.008065420 -0.003801296 0.188999996
v 0.010810570 -0.005500000 0.192912020
v 0.028147227 0.000345182 0.173832159
v -0.010748408 0.001445052 0.198679745
v -0.002000000 -0.000278366 0.196655690
v 0.004276210 0.001123235 0.184000000
v 0.015427055 0.001100988 0.197407508
v -0.003329824 0.019307375 0.146240397
v -0.018999999 0.000713067 0.202247682
v -0.054959803 0.017995385 0.021524111
v -0.031562577 -0.003000000 0.030962128
v -0.024562063 0.000873402 0.180999994
v -0.117435311 -0.014928708 0.089567643
v -0.010899509 0.003793562 0.197630004
v -0.116909679 -0.023057780 0.077260022
v 0.009850657 0.002518397 0.196716088
v 0.029455948 -0.003206252 0.180999994
v -0.015844360 0.017766250 0.092395732
v -0.035281251 0.019500000 0.171499997
v 0.030382870 0.000282900 0.046332247
v -0.011590375 0.019260114 0.092643136
v -0.115884306 -0.009618120 0.084994269
v -0.011062453 0.017857367 0.092848565
v 0.011704436 0.002747591 0.193000520
v -0.004409180 0.001407912 0.199233025
v -0.127253786 -0.020669886 0.085239665
v -0.125689551 -0.027653037 0.082424040
v 0.029406375 -0.003210572 0.167999998
v 0.035380534 0.004433489 0.165223871
v 0.018999999 0.000696335 0.194901405
v -0.039284072 -0.005500000 0.191804896
v -0.115741839 -0.024482186 0.074445415
v 0.011405859 0.018825487 0.090754283
v 0.011328374 0.016000001 0.096977165
v 0.017796875 0.017250001 0.094999999
v -0.007416001 0.004115834 0.202316732
v 0.018047183 -0.001218907 0.200000003
v 0.028084981 0.000700240 0.167999998
v -0.014417597 0.002616503 0.195403530
v -0.115343960 -0.023091815 0.084451559
v 0.015930026 0.003342108 0.092476953
v -0.034088787 0.012834005 0.178000003
v -0.114336901 -0.021378018 0.081086842
v 0.008199609 -0.001372376 0.184000000
v 0.016339673 0.002236851 0.195626570
v -0.016155162 0.004787174 0.208000004
v 0.005910148 0.002291181 0.188251385
v 0.009125000 0.021000000 0.094999999
v -0.024000000 0.002500000 0.185687494
v -0.006501012 0.002097400 0.196994643
v 0.003000000 -0.000460395 0.190205174
v 0.035498698 0.016000001 0.136126301
v 0.005843895 0.001878561 0.194860632
v 0.003106223 0.004998482 0.180999994
v -0.017830212 0.015167431 0.185050354
v -0.111325967 -0.023394283 0.083226536
v -0.009983357 0.002228441 0.200645822
v -0.035785656 0.005374728 0.193206812
v 0.031729678 -0.000525939 0.178344325
v -0.039999999 0.002500000 0.191312495
v 0.003000000 -0.002572124 0.192761705
v -0.059728858 0.018124437 0.031235309
v 0.007853333 -0.001171749 0.187575585
v -0.010737411 -0.001449237 0.191023692
v -0.003292801 0.006120142 0.126536421
v -0.119250133 -0.021594731 0.074516287
v -0.018999999 -0.003533310 0.195255898
v -0.007417154 0.002235129 0.192517929
v 0.004905109 0.000087234 0.189069229
v 0.012496247 0.002364260 0.196632095
v -0.114319650 -0.017116445 0.087226773
v -0.030042219 -0.003000000 0.039400222
v -0.115971101 -0.002036674 0.071422431
v 0.025767429 0.003712379 0.179155966
v 0.018999999 -0.001483543 0.194738087
v 0.018999999 0.000227644 0.186904087
v 0.011033564 -0.004078920 0.190088337
v -0.024000000 0.001262546 0.192128198
v 0.012941199 0.005801660 0.040781271
v -0.002000000 -0.002443620 0.204450359
v 0.012156250 0.000000000 0.085000001
v -0.117370677 -0.027221296 0.086082757
v -0.019432033 0.008667476 0.072906367
v 0.018999999 0.002500000 0.187625001
v 0.016030910 0.019586309 0.170624939
v -0.036187054 -0.003712900 0.183635778
v 0.027649476 0.016000001 0.098447939
v 0.037500001 0.002500000 0.176328120
v -0.013316515 -0.001189778 0.195657686
v 0.009964564 0.001873526 0.191069354
v -0.027995910 0.002205547 0.187709565
v 0.011933234 -0.000296460 0.184000000
v -0.004222399 0.000334590 0.188999996
v 0.006680635 -0.002214184 0.190334741
v 0.045000002 0.013745581 0.085350654
v 0.009402265 -0.001894653 0.190430116
v -0.012453125 0.002500000 0.188812497
v -0.125252699 -0.021712179 0.089115176
v -0.065260574 0.015097854 0.030809294
v -0.112714062 -0.017730054 0.090180245
v 0.024499999 0.002500000 0.178156245
v -0.067597697 0.018553998 0.031327013
v -0.030419283 0.002840836 0.114901208
v 0.008015880 0.003735470 0.190218453
v -0.111853577 -0.018243043 0.085213120
v -0.118529343 -0.028501724 0.080418797
v 0.014780888 -0.001200236 0.191399652
v -0.032185546 0.002500000 0.196249995
v -0.002000000 0.001103715 0.193445747
v -0.038231506 -0.005307875 0.195364455
v 0.012222358 -0.001741032 0.193095066
v -0.062681851 0.006671153 0.017276763
v -0.113016762 -0.016896147 0.077147246
v -0.039999999 -0.003838224 0.193817710
v 0.015548821 0.004589169 0.195962146
v -0.034515537 -0.000644298 0.183821059
v 0.007609577 0.001026850 0.186768988
v 0.033118906 0.019867188 0.158965757
v -0.122397911 -0.021496662 0.088869122
v -0.122678606 -0.031116987 0.086267096
v -0.040779942 0.015213026 0.197043465
v 0.018861517 0.000716273 0.184256255
v -0.121672718 -0.012542657 0.090925519
v -0.035796084 -0.005500000 0.192845026
v 0.010627375 0.002850826 0.066192414
v -0.039999999 0.002500000 0.186156244
v -0.111135854 -0.015447343 0.087531248
v 0.024499999 0.000184145 0.177579812
v -0.110205957 -0.027255714 0.076783886
v 0.026865736 -0.002474317 0.174199107
v -0.121387244 -0.024773472 0.086576928
v 0.027095319 0.001050071 0.180999994
v -0.035011723 0.020426809 0.095192651
v -0.031078701 0.018496927 0.176346583
v 0.030435716 0.000345817 0.170735607
v 0.034251907 -0.003094288 0.179051990
v -0.032096810 0.003909985 0.197999999
v -0.031525213 0.002043600 0.191156601
v 0.033187501 0.002500000 0.181687495
v 0.028009429 -0.000879813 0.177112821
v 0.026375000 0.002500000 0.180999994
v 0.015888205 0.002880041 0.190071509
v -0.034180366 -0.002202089 0.057071573
v 0.003082966 0.006976855 0.201759941
v 0.024499999 0.002500000 0.174499996
v 0.010102691 0.001001852 0.185219696
v -0.115629495 -0.018696308 0.084576012
v -0.020316370 -0.003000000 0.077519336
v 0.030000000 0.002500000 0.180999994
v -0.014166897 0.020812500 0.147615317
v -0.116308328 -0.012859115 0.086621993
v -0.002000000 -0.003579213 0.194771935
v 0.025789909 0.000742994 0.174314425
v -0.028504249 -0.004693692 0.181415086
v 0.029007465 -0.001792868 0.173013824
v -0.109593350 -0.023877512 0.078316892
v 0.005225796 -0.001174277 0.184000000
v -0.007586399 -0.000158231 0.193520338
v -0.112244427 -0.011437632 0.083211975
v -0.119715361 -0.028921295 0.086911791
v -0.124187956 -0.018763740 0.088110025
v -0.006022044 0.002947032 0.200760588
v 0.005031429 0.003760732 0.193088410
v -0.036733480 -0.005500000 0.187156982
v -0.124850509 -0.029473926 0.084244030
v -0.113648562 -0.024099468 0.079814106
v 0.033086204 0.004497046 0.175631424
v -0.125128846 -0.024687729 0.085503733
v -0.118565290 -0.021333181 0.084455171
v 0.032360474 0.002328316 0.178553717
v -0.030782960 -0.004753425 0.181722534
v -0.013208010 0.003015019 0.200724651
v -0.035108956 0.002138120 0.187430439
v -0.036238281 -0.003431297 0.192817490
v -0.030586764 -0.002208759 0.188823278
v 0.031139550 -0.000593533 0.174969291
v -0.125757438 -0.021736154 0.090547393
v 0.018169272 -0.001264667 0.184427083
v 0.028114419 0.004330929 0.177383813
v -0.028100550 -0.000897048 0.183638338
v 0.001500000 0.004907434 0.186782568
v -0.025876555 0.000720326 0.192379193
v -0.015920726 0.004335803 0.177776510
v -0.024000000 0.002500000 0.193187495
v -0.037460937 0.001193094 0.195999995
v -0.008458004 0.000614111 0.045607551
v -0.024710025 0.020437500 0.141691912
v -0.009355435 -0.002184286 0.194133548
v -0.034250523 0.019773438 0.141027523
v -0.124387041 -0.020325360 0.092768665
v -0.012361421 -0.003926473 0.193770840
v -0.067418277 -0.001219080 0.024476901
v -0.035511265 -0.005500000 0.183917242
v -0.039999999 0.000922273 0.192532509
v -0.012642586 -0.005500000 0.195560489
v -0.024000000 0.001173900 0.194714655
v -0.039999999 -0.002046424 0.181848521
v 0.030236279 0.004209286 0.179731189
v -0.030417980 -0.005500000 0.186547949
v -0.110074837 -0.012939937 0.066504556
v -0.041499998 0.003832937 0.192015368
v -0.119393019 -0.027104074 0.088846588
v -0.008548996 -0.002299236 0.203405532
v 0.002296875 0.002857612 0.198770432
v -0.003227313 -0.005500000 0.195681184
v -0.118814292 -0.016370725 0.091870354
v -0.033570705 -0.003176512 0.182716629
v 0.033551647 -0.005500000 0.174626356
v -0.034114676 -0.003710545 0.180999994
v 0.017772847 0.000889205 0.199881207
v 0.003000000 0.001115396 0.187058593
v -0.020524448 -0.003000000 0.031559111
v -0.018999999 -0.002869383 0.198154103
v 0.026708473 -0.000403816 0.170202092
v 0.004026436 -0.005180121 0.191267291
v -0.017092255 0.001557299 0.201080180
v -0.014340335 -0.003000000 0.052086286
v 0.030338964 0.003151342 0.171719348
v -0.086759046 0.008687621 0.048001963
v 0.037250001 0.002500000 0.180999994
v 0.013893538 0.002000000 -0.013548751
v -0.000494227 0.015882828 0.094999999
v -0.018999999 0.002500000 0.198031248
v -0.110003551 -0.017830853 0.088716491
v -0.010365731 -0.001388694 0.188999996
v 0.009928318 0.003413072 0.053378790
v 0.007217025 -0.003019043 0.193524231
v -0.009339844 0.021000000 0.097283652
v -0.036358121 -0.001464465 0.186716507
v -0.032721556 -0.005500000 0.183205819
v 0.018796874 0.002500000 0.184152343
v -0.118563060 -0.020253045 0.080386007
v -0.004106426 -0.003604447 0.192509090
v 0.003000000 0.002500000 0.189250001
v -0.033484597 -0.005500000 0.194466773
v -0.038054614 0.002198626 0.187136782
v -0.015046255 -0.001527887 0.191187845
v -0.024944835 -0.003374364 0.180999994
v -0.032259994 0.001108941 0.180999994
v 0.015320084 -0.005500000 0.191726703
v -0.007033555 -0.000449081 0.201914403
v -0.004282713 0.007314124 0.094687499
v 0.010156342 -0.003566959 0.184000000
v 0.006063322 -0.000072288 0.200000003
v 0.030801646 0.000582059 0.176198329
v -0.110758192 -0.025364392 0.079944206
v -0.025232075 -0.005364572 0.181806210
v -0.027370734 -0.000803536 0.193777354
v -0.004446585 -0.005415538 0.204711864
v 0.008224438 -0.005500000 0.191902435
v 0.037234150 0.000027867 0.168747869
v -0.018999999 -0.004497679 0.191911155
v -0.026437500 0.002500000 0.195999995
v -0.014321077 -0.004535862 0.205928060
v 0.037500001 -0.001223308 0.180347746
v -0.112348075 -0.020411384 0.076478811
v -0.014210674 -0.001926469 0.206000000
v 0.031571163 0.002387932 0.175239459
v -0.000500000 0.005371254 0.192500883
v 0.007204174 0.000176517 0.196344384
v -0.009001890 0.001161239 0.188999996
v -0.034109446 -0.002048312 0.189281199
v -0.026949463 0.002456631 0.190271243
v -0.012445980 0.001776854 0.193330937
v 0.003000000 -0.004471950 0.185983082
v 0.011213645 0.014957081 0.180999994
v -0.008174982 -0.003347241 0.199471360
v -0.009925462 0.001442698 0.203862680
v -0.039999999 0.000851441 0.187839838
v 0.008485110 0.001595585 0.198064320
v -0.120877282 -0.026546220 0.091485503
v -0.025296875 0.017157153 0.143369816
v 0.005782942 0.003943177 0.198155154
v -0.018344040 -0.004867497 0.206000000
v 0.005221314 -0.001267484 0.193907534
v -0.113443463 -0.015310549 0.081291192
v 0.031978557 -0.005322591 0.169155132
v -0.010642462 -0.005500000 0.204604738
v -0.015165115 0.002217376 0.201323004
v 0.014191727 -0.005500000 0.193743753
v -0.014730865 -0.005500000 0.201337432
v 0.025750000 0.016837114 0.099663997
v -0.014513839 0.003245937 0.202433424
v -0.009292649 -0.005203338 0.205717188
v 0.007179283 0.002485087 0.192199273
v 0.006739713 0.000091980 0.048305898
v -0.036692957 -0.001896662 0.195999995
v -0.127594721 -0.023028733 0.088221637
v -0.003803392 -0.004440544 0.189071261
v -0.037966944 -0.005500000 0.188998262
v -0.018712719 0.000028075 0.189150791
v -0.038310303 -0.003460190 0.183067017
v -0.039999999 -0.001039913 0.192475097
v -0.120166634 -0.023610231 0.084640876
v -0.123531882 -0.022590120 0.088703181
v -0.011659110 0.000977890 0.201204287
v -0.010408830 -0.003951186 0.188999996
v 0.033859262 -0.001234893 0.180999994
v 0.003000000 -0.002251565 0.184547069
v -0.121674365 -0.022189118 0.086745682
v 0.036884732 -0.005500000 0.179700690
v -0.036490068 0.000886566 0.188925383
v -0.116903380 -0.024768880 0.088652148
v -0.034130280 0.004030310 0.022427965
v 0.007600222 0.000450103 0.191846350
v -0.114277740 -0.014556713 0.087792511
v -0.000540584 0.001074489 0.033427297
v -0.027445077 -0.003184999 0.180999994
v 0.011594482 -0.005500000 0.185546890
v -0.059872624 0.019063309 0.026918776
v 0.016973262 0.019680989 0.180677990
v -0.034243038 -0.005500000 0.190040351
v -0.014618521 0.000746688 0.199265403
v 0.033391712 -0.002114919 0.174095929
v -0.028986801 0.000819995 0.188842633
v -0.122660458 -0.024743935 0.082388222
v -0.038776874 -0.005500000 0.184261560
v -0.031272815 -0.002016803 0.195999995
v -0.036485237 -0.001761231 0.180999994
v 0.003370429 -0.005353133 0.188723947
v -0.017652538 -0.005071350 0.190193154
v -0.008592142 -0.000980844 0.206000000
v -0.111887522 -0.017931006 0.078061636
v 0.013571090 -0.000788038 0.197457182
v -0.109640616 -0.017565210 0.080891877
v -0.024533796 0.000110107 0.195999995
v 0.036302443 0.000416583 0.180999994
v -0.008470157 -0.003000000 0.028222124
v -0.004500000 0.021000000 0.094999999
v -0.002260936 -0.002892813 0.190434807
v -0.119384511 -0.030585813 0.084143234
v -0.123027586 -0.028044080 0.086595960
v -0.015744637 0.005357365 0.190218994
v -0.015405913 0.000514396 0.203709153
v 0.037500001 0.001665039 0.176878298
v -0.034248819 0.000001141 0.192419235
v 0.018671559 -0.005166358 0.189160238
v -0.018087498 0.000191128 0.206000000
v 0.005942858 -0.000163807 0.185547820
v -0.006869220 -0.005500000 0.195884362
v -0.027815037 0.005074998 0.192970932
v 0.015903681 -0.002102731 0.184000000
v -0.005551812 -0.005500000 0.192395583
v -0.112860096 -0.015277835 0.084170954
v 0.012214840 0.000573160 0.189984164
v 0.006497332 -0.003384484 0.184000000
v -0.016872322 0.001121682 0.188999996
v -0.112861392 -0.028260346 0.078225003
v 0.029833800 -0.005500000 0.179444189
v -0.125071044 -0.025188273 0.089926372
v -0.025675681 -0.001453687 0.195999995
v 0.003000000 0.001949041 0.196206630
v -0.016539001 0.000719109 0.193631872
v -0.025608045 -0.002390174 0.192090164
v 0.025444776 -0.004911952 0.168825575
v 0.033543016 0.018340638 0.099712400
v 0.012577830 -0.003523943 0.184000000
v 0.007103796 -0.005500000 0.188658728
v -0.111061172 -0.019781487 0.087558810
v -0.006305707 0.000250000 0.012037520
v -0.085126842 -0.006189337 0.042545937
v -0.024000000 -0.000287699 0.194207000
v 0.027901729 0.001301711 0.175966152
v -0.009259252 -0.005500000 0.200604041
v -0.016500000 0.021000000 0.094999999
v -0.018500000 0.019109135 0.097730815
v 0.024499999 -0.001125274 0.173668096
v -0.109704808 -0.020928547 0.084322771
v 0.034127820 -0.000032516 0.172282665
v -0.115723089 -0.016916723 0.091219053
v -0.012624544 -0.005500000 0.202991963
v 0.032081755 -0.004833640 0.180999994
v -0.017476599 0.000138728 0.056755914
v -0.007953047 -0.003805303 0.206000000
v -0.110168399 -0.014369934 0.081594856
v -0.009617811 -0.005500000 0.196189459
v 0.018527611 0.004403965 0.027418940
v -0.119166902 -0.020237671 0.091146577
v 0.008658876 0.000476907 0.184000000
v -0.029662299 -0.005500000 0.192938132
v -0.017393661 -0.005244071 0.199356548
v 0.009772789 -0.005500000 0.189045369
v -0.111371832 -0.024376409 0.075989412
v 0.033547228 -0.003619995 0.176111433
v 0.030945167 -0.003965637 0.178607285
v -0.000897212 0.006602948 0.044640010
v -0.005098349 0.003693615 0.056309951
v 0.003000000 -0.002459600 0.195710963
v -0.034371168 -0.003311922 0.195999995
v -0.039999999 -0.000848450 0.187417281
v 0.012142633 0.004694346 0.192202002
v -0.006974609 -0.001452389 0.188999996
v 0.037500001 -0.003399458 0.177795836
v -0.015323091 0.005462725 0.197654914
v -0.124673161 -0.030932012 0.088006245
v -0.118932812 -0.022482918 0.094231089
v 0.014028432 0.004393501 0.186873472
v -0.001000539 0.000253951 0.065923076
v -0.122135100 -0.022040682 0.078732475
v -0.008301015 -0.005500000 0.191256171
v -0.124928945 -0.016279799 0.093331113
v 0.013222953 0.002905378 0.201000005
v -0.012222548 -0.005500000 0.199535778
v 0.026107136 0.003584300 0.047804462
v -0.018999999 0.001012471 0.198412380
v 0.015818432 -0.002152264 0.196463290
v 0.032542178 -0.002173298 0.171049490
v -0.016823731 0.005466410 0.204097280
v -0.030807704 -0.001375086 0.185262370
v -0.039999999 -0.003408000 0.186496927
v -0.016069773 -0.003752447 0.197179577
v -0.029506769 0.000253462 0.195999995
v -0.002339586 -0.005217937 0.192351725
v -0.017232277 -0.003111574 0.206000000
v 0.016340180 -0.003050447 0.193446150
v -0.027198349 -0.000458759 0.190132286
v -0.018999999 -0.003058685 0.201685125
v -0.036230995 -0.004158525 0.188289868
v -0.018999999 -0.003851719 0.204733347
v -0.093919512 -0.001567769 0.040729898
v 0.018278719 -0.005345441 0.196977281
v -0.024784420 -0.005500000 0.185114323
v -0.121547284 -0.016987742 0.088083094
v -0.114290594 -0.021661318 0.089297948
v -0.018710225 -0.002875000 0.188999996
v 0.030843949 -0.005500000 0.173241814
v -0.114560121 -0.019409066 0.092560086
v -0.002924339 -0.003000000 0.050636350
v -0.039615114 -0.004394806 0.181817587
v -0.107837080 -0.015876495 0.083745197
v -0.034805746 -0.002097732 0.194585535
v 0.008995404 0.015180927 0.094999999
v -0.108737992 -0.018409562 0.086333084
v -0.113555639 -0.011984430 0.081211278
v -0.028790737 -0.004787848 0.195687822
v 0.008146984 0.018839953 0.092995580
v -0.001776645 0.003874710 0.205534086
v -0.003818998 -0.001580881 0.192001681
v 0.041828126 0.000703418 0.078761351
v -0.031841833 -0.005500000 0.188766201
v -0.012407393 -0.003310885 0.190832913
v -0.126352399 -0.022612126 0.086868924
v 0.013141386 0.003365942 0.195196366
v 0.005437500 0.002500000 0.200000003
v -0.033575895 -0.003535209 0.185977571
v 0.011880061 -0.002047815 0.200000003
v 0.024499999 -0.004825547 0.173332079
v -0.107630877 -0.018277232 0.083547713
v -0.127088442 -0.027901169 0.086391248
v 0.017654931 -0.005500000 0.194194154
v -0.119745516 -0.018063596 0.088443236
v -0.108996678 -0.014098294 0.085019060
v 0.017782227 0.019133494 0.098381195
v -0.039999999 -0.003632486 0.189820778
v 0.039000001 0.006606946 0.125202825
v -0.025290417 -0.005370478 0.192790676
v -0.002000000 -0.003648232 0.197451937
v 0.006195312 0.002500000 0.182662107
v -0.012532147 0.000372403 0.069768046
v 0.005638933 0.001034954 0.184000000
v -0.015389591 -0.005500000 0.197068217
v -0.002358960 -0.004766254 0.201152580
v 0.003000000 -0.002757092 0.189097432
v 0.024499999 -0.005500000 0.180187494
v -0.016354595 -0.001501999 0.199882425
v 0.037081701 0.010239557 0.078685006
v 0.035325234 0.003673708 0.170518770
v 0.014862675 -0.003648444 0.200000003
v -0.116842129 -0.018765585 0.088940717
v 0.018674772 0.000452665 0.074214167
v -0.011072593 0.022000000 0.079326767
v 0.030426626 0.007228525 0.139327455
v -0.059033532 0.000176477 0.015753788
v -0.017835187 0.016162108 0.094999999
v 0.024388443 0.002351901 0.040606706
v -0.122150338 -0.022531244 0.094514731
v -0.004445577 -0.005500000 0.198530262
v 0.030246042 -0.005500000 0.176348574
v -0.032904925 0.000810598 0.185299363
v -0.014611293 -0.005500000 0.192492680
v -0.004302786 -0.002667012 0.206000000
v -0.119500526 -0.024352422 0.075874972
v -0.029338233 -0.001093403 0.180999994
v 0.018091253 -0.004717215 0.199771326
v -0.117966883 -0.016496413 0.077805271
v 0.003612276 -0.004887724 0.184000000
v 0.014047684 -0.005203211 0.199298147
v -0.008073713 -0.005500000 0.203861626
v 0.027389046 -0.002381127 0.167999998
v 0.024132126 0.000832420 0.068125392
v -0.020500001 0.003924626 0.202268409
v 0.035966048 -0.003223330 0.180999994
v -0.128635267 -0.026230238 0.085244350
v -0.012245793 -0.000474184 0.206000000
v 0.006784401 -0.003000000 0.066016616
v -0.013167769 -0.003293143 0.202403548
v -0.118588949 -0.024359292 0.088086800
v 0.026181165 -0.001812131 0.180999994
v 0.012237189 -0.005500000 0.188699930
v -0.007791332 -0.003000000 0.059360986
v -0.011052764 -0.005500000 0.191894137
v 0.010715248 -0.004745890 0.200000003
v 0.003000000 0.000929938 0.193307324
v 0.002062500 0.002682638 0.185769762
v -0.116953711 -0.010791425 0.065124898
v 0.041773438 0.000870368 0.054176582
v 0.004528915 -0.000518034 0.196930114
v -0.118310323 -0.018291817 0.093951209
v -0.024000000 -0.001335392 0.190251240
v -0.120050445 -0.020503806 0.095219275
v -0.014097019 -0.005465590 0.189802643
v -0.005515625 0.016000001 0.096177083
v 0.018999999 -0.003966495 0.194964108
v -0.028262401 -0.005500000 0.184581073
v -0.006937500 0.002500000 0.206000000
v -0.013887140 -0.000192343 0.201244858
v -0.026762171 -0.003103080 0.193913343
v 0.036156161 -0.005424302 0.176173824
v 0.005666114 -0.003000000 0.031874345
v -0.121380184 -0.017726196 0.094570090
v 0.006758189 0.020000000 -0.016125128
v -0.004070080 0.004260869 0.196618400
v 0.037500001 -0.002635078 0.173691668
v -0.032085488 -0.001035143 0.180999994
v 0.005759794 -0.003328314 0.200000003
v 0.010030657 -0.003789122 0.194633190
v -0.026779029 0.000159040 0.180999994
v -0.120186013 -0.004834824 0.081097585
v -0.008350839 0.015854978 0.090591609
v -0.029670208 0.003330690 0.186526917
v -0.123346810 -0.024293868 0.092354073
v -0.026351572 -0.005216167 0.195388812
v 0.003000000 -0.003000000 0.199479515
v 0.005590998 0.003038140 0.189936090
v -0.002000000 0.000331404 0.203164019
v 0.028041658 0.001918575 0.171338878
v -0.028033568 -0.005500000 0.189464835
v 0.026314023 -0.005500000 0.178217190
v -0.005713284 -0.005500000 0.201917222
v -0.121601001 -0.023436493 0.090163872
v -0.034843326 0.005450257 0.136481558
v -0.110962920 -0.012406426 0.079665566
v -0.002000000 -0.000640201 0.191062060
v -0.117254608 -0.021738576 0.087576924
v -0.018237688 -0.005267755 0.196849546
v 0.003922267 0.021000000 0.097735349
v 0.037500001 0.000343216 0.172874167
v 0.029504680 0.003678617 0.182749997
v -0.014716287 -0.003199433 0.199451090
v -0.033672360 -0.005500000 0.186676642
v -0.127670417 -0.028341931 0.084081435
v -0.037724553 0.000533237 0.180999994
v -0.108791052 -0.020262788 0.081185237
v 0.033424877 -0.003376690 0.167999998
v -0.120992813 -0.029484465 0.082630410
v -0.122276614 -0.027591471 0.080911833
v -0.030868177 0.003152772 0.190562552
v 0.007012089 -0.005421728 0.198509452
v 0.004632254 -0.003000000 0.047857052
v -0.029826854 -0.001546140 0.192544366
v -0.023106923 0.001960946 0.042097561
v -0.034164062 -0.000383870 0.018462885
v 0.012974339 0.002019667 0.186340539
v -0.016357296 -0.000940802 0.188999996
v 0.003000000 -0.005250000 0.199000003
v 0.018999999 -0.002727117 0.198068799
v -0.038051618 0.001407116 0.184540395
v -0.026917969 0.002500000 0.179849607
v 0.001031139 0.009517968 0.065458919
v 0.006165379 -0.005500000 0.193930167
v -0.031813005 -0.003074932 0.193028167
v -0.037117029 0.020625000 0.172623360
v -0.122363128 -0.029535447 0.089276153
v 0.010863962 -0.000614133 0.195989996
v 0.020266471 0.019527078 0.091928450
v 0.003434035 -0.004924775 0.194048552
v -0.025764076 -0.005500000 0.187995978
v 0.024499999 -0.003938062 0.177441451
v 0.004530548 -0.005500000 0.196629028
v 0.035275161 0.001856377 0.169772728
v 0.009690349 -0.005500000 0.197498951
v -0.025359565 0.000000000 0.016947415
v 0.032218646 0.000111957 0.167999998
v 0.027777869 -0.003227077 0.177829447
v -0.024000000 -0.003707079 0.193651168
v 0.028339623 -0.005500000 0.172902022
v 0.005623937 -0.005366452 0.185541316
v 0.008952704 -0.003406162 0.187848189
v 0.024796563 -0.002285610 0.168661839
v 0.029843226 0.000083151 0.030924337
v -0.113496895 -0.026971819 0.081401948
v -0.024000000 0.000799753 0.183865025
v -0.118342832 -0.020014014 0.095197195
v 0.032523246 0.001429492 0.172398473
v -0.011818677 -0.000190514 0.203392654
v -0.109100977 -0.022781232 0.080836671
v -0.013191570 -0.003039832 0.188999996
v -0.024518819 -0.003563731 0.195866746
v -0.026581129 -0.003470673 0.189820051
v 0.035427996 0.001341983 0.176851286
v -0.018999999 -0.001530765 0.205175293
v -0.107330187 -0.016194743 0.085903454
v 0.019818413 0.000000000 0.012792147
v 0.021215589 0.015348585 0.094999999
v 0.019693982 -0.002625000 0.083148757
v 0.035654807 -0.005500000 0.171736011
v -0.020234097 0.022000000 0.079698785
v -0.018751145 0.022000000 0.085098155
v -0.000053991 0.008074924 0.024777800
v -0.026172258 -0.002002513 0.187392717
v 0.024499999 -0.003361130 0.171140109
v 0.008463936 -0.005326284 0.185476088
v -0.018257430 -0.005427197 0.201936988
v -0.011366933 -0.001631839 0.197379355
v -0.011598411 0.003541244 0.186812990
v -0.122001782 -0.025895396 0.084198909
v 0.011813214 -0.005500000 0.197172165
v 0.026249377 -0.005500000 0.171748628
v 0.036481441 -0.005009468 0.168347003
v -0.003250000 0.020521775 0.097587893
v 0.018999999 -0.004976601 0.191517588
v 0.030545531 -0.000060840 0.180999994
v 0.037500000 0.019062500 0.138227265
v -0.022345542 0.018528651 0.095484374
v 0.011217410 0.000133531 0.200000003
v -0.012187159 -0.003000000 0.070429949
v -0.122974877 -0.021122303 0.085861124
v -0.113402539 -0.024523118 0.073508154
v -0.013981889 -0.000025461 0.188999996
v -0.001187623 0.011160257 0.091510229
v 0.023444936 -0.003000000 0.039276900
v -0.122078837 -0.016187717 0.093028047
v -0.001437500 0.002500000 0.192984372
v 0.024633981 -0.000293661 0.180425789
v -0.110561272 -0.020598635 0.078530185
v -0.024065941 -0.003816835 0.183915462
v -0.035282658 -0.003000000 0.033556885
v -0.122876680 -0.027708775 0.091490830
v 0.008846536 -0.002285530 0.200000003
v -0.114703509 -0.024782248 0.085793380
v -0.039693352 -0.005500000 0.186076568
v -0.049620418 -0.000086626 0.026082442
v -0.116136139 -0.021439225 0.091969103
v -0.015177128 0.019953447 0.092483398
v 0.015626703 -0.005088167 0.184585687
v -0.121680175 -0.019738279 0.096122819
v -0.033601888 0.003753358 0.186379282
v 0.042384533 0.007124490 0.094999999
v -0.017680147 -0.005500000 0.194617906
v -0.039107479 -0.002589192 0.195865613
v -0.040539061 0.002500000 0.179701170
v 0.031031330 -0.003335962 0.175665823
v 0.039000001 0.006110653 0.178583445
v -0.009238349 0.020250000 0.100896074
v -0.031793864 0.004446491 0.180852072
v 0.030062752 -0.003980483 0.173650153
v -0.024000000 0.001052190 0.188319215
v -0.121577441 -0.024736561 0.094065054
v 0.005229204 0.016000001 0.099520511
v 0.014571762 -0.003483246 0.187278266
v -0.024000000 -0.001721257 0.193289272
v 0.035062501 0.002500000 0.167999998
v -0.121098007 -0.014291258 0.090955674
v 0.026125000 0.019500000 0.101499997
v 0.042046876 0.001311745 0.041430664
v -0.004743492 -0.001526619 0.197875012
v -0.025541998 0.001777641 0.188485387
v -0.006696189 -0.003020374 0.192780545
v 0.026026446 0.021000000 0.098768400
v 0.024499999 -0.003268068 0.179774026
v -0.067380472 0.005421932 0.022070511
v -0.038226933 0.018626603 0.150557242
v -0.118954373 -0.025992403 0.077602469
v 0.015935992 0.019396098 0.089652838
v -0.018999999 -0.000877645 0.200846131
v -0.024000000 -0.003414472 0.187840177
v -0.126310783 -0.030150048 0.086380569
v -0.006591118 0.006631729 0.153271612
v -0.124300668 -0.028133484 0.089616745
v 0.015846344 -0.001176573 0.200000003
v 0.015076579 -0.005500000 0.188891467
v -0.016096963 -0.002790985 0.194402875
v -0.120328704 -0.020924386 0.097008641
v -0.024145035 -0.004865707 0.190493286
v -0.033017679 -0.000100729 0.195999995
v -0.043977682 0.001087609 0.044163672
v -0.010720888 -0.003247927 0.206000000
v -0.112481357 -0.022437726 0.085956510
v 0.037500001 0.001176190 0.178919423
v 0.030196787 0.001625507 0.178796399
v -0.061590797 0.019321034 0.025900053
v -0.122444117 -0.017637601 0.080808144
v -0.032623324 -0.003000000 0.022250814
v -0.002140523 -0.000281108 0.206000000
v 0.012096796 0.022000000 0.019138195
v -0.018999999 0.000851927 0.193886652
v -0.039999999 0.000431579 0.183274535
v 0.016040848 -0.003000000 0.053005926
v -0.068341977 0.012184577 0.023726763
v -0.012948647 0.019271532 0.090381107
v 0.016933831 0.001787242 0.189440277
v 0.005375000 0.021000000 0.094999999
v 0.012202984 0.000723640 0.059937443
v -0.018999999 0.002500000 0.202148437
v -0.124372973 -0.003648984 0.075613729
v 0.033829452 -0.005500000 0.178839380
v 0.003149125 0.000178571 0.199243306
v -0.062425187 0.009818554 0.016004817
v -0.061533108 0.009850690 0.025636136
v 0.038500001 0.015653554 0.141480630
v -0.036173206 0.019500000 0.165623844
v 0.043827452 0.016785907 0.048988075
v 0.009394659 0.005417828 0.202000007
v -0.033127423 0.013268730 0.145669681
v 0.028543054 0.005494657 0.078978707
v -0.017642935 0.003197429 0.203381593
v 0.039000001 0.010903670 0.154368361
v 0.004199947 -0.003000000 0.076568534
v -0.018312500 0.002500000 0.205734375
v -0.065876868 0.003816636 0.017944118
v 0.026264885 -0.004835187 0.180898431
v -0.123129983 -0.021561947 0.082707707
v 0.025734130 -0.005500000 0.175137500
v 0.006474609 0.018511306 0.090053819
v -0.037562499 0.002500000 0.180999994
v -0.018276275 0.006622210 0.049802309
v -0.010041030 -0.001166194 0.200098035
v -0.118925675 -0.024479955 0.091638070
v -0.030808223 0.019207049 0.100323477
v -0.002947221 0.004612770 0.170646430
v -0.117472236 -0.029274128 0.082572239
v 0.007293007 0.004487114 0.196298720
v 0.012883385 -0.002164469 0.187703734
v 0.016589092 -0.003000000 0.032640139
v -0.113317088 -0.022224271 0.074568276
v -0.028169511 -0.001937527 0.195999995
v -0.124168502 -0.017821889 0.094072694
v -0.028816964 0.001974545 0.184080378
v -0.036873655 -0.004975539 0.181383250
v -0.038227537 -0.003580032 0.185967659
v -0.024000000 -0.000675112 0.186215812
v -0.041435105 0.019700657 0.082302952
v -0.025985189 0.013879261 -0.005211235
v 0.013537130 0.001157237 0.193230533
v -0.015849506 0.001228168 0.206000000
v -0.066362688 0.006104734 0.015224273
v -0.019416798 0.015515960 0.200501648
v -0.059987870 0.015894987 0.016147729
v -0.002844937 0.016526307 0.087050760
v -0.069180988 0.016077989 0.037354377
v -0.058791834 0.022090901 0.027951212
v -0.000500000 0.012452884 0.199972837
v -0.061511615 0.002369462 0.014440270
v 0.025000000 0.006500000 -0.010725000
v 0.008601562 0.000000000 0.018074654
v -0.008944452 0.019302181 0.091591365
v -0.037999999 -0.003000000 0.027962457
v -0.022138486 0.019107948 0.092209103
v -0.003431908 0.019466865 0.093196674
v -0.023970903 0.022000000 0.091997899
v -0.010941565 0.021250000 0.004526230
v -0.044273781 0.006935883 0.058803587
v -0.033764294 -0.001104548 0.031070396
v -0.061042012 0.019593527 0.023232287
v -0.029859919 0.016119773 0.172000006
v 0.001976563 0.009292591 0.139847678
v -0.130071493 -0.027268999 0.082610585
v -0.010500000 0.000000000 0.092999999
v -0.039130638 0.014872251 0.174250005
v -0.029537594 0.007247888 0.178000003
v 0.037500001 -0.003501649 0.170514873
v -0.064797008 0.009259629 0.017430219
v 0.013593749 0.000000000 0.016138517
v -0.009504617 0.019133456 0.087587626
v -0.055948567 0.015569383 0.017664865
v -0.023565466 0.018087880 0.183038102
v 0.006600083 0.009529577 0.154962970
v -0.028856020 0.000390439 0.039710558
v 0.012497794 0.007192457 0.011920115
v 0.011733460 0.010628626 0.102052972
v -0.036390569 0.012271330 0.163776232
v 0.009156265 0.000000000 0.016156977
v 0.023274150 0.018206175 0.089529921
v -0.006203108 0.019619136 0.092108699
v -0.060149433 0.018775943 0.020657650
v -0.064023023 0.011560611 0.018400145
v -0.065491846 0.007249981 0.014741875
v -0.044005397 -0.002457975 0.016599168
v 0.029500000 0.021000000 0.094999999
v 0.004320728 0.020230892 0.092442263
v -0.039579031 0.022019620 0.033749999
v -0.046448965 0.022045915 0.031364970
v -0.044083974 0.009580623 0.014820992
v -0.062828565 0.014095956 0.020071562
v -0.035813431 -0.003000000 0.026635381
v -0.063818901 0.010497646 0.014788254
v -0.004684642 0.019801400 0.089911516
v 0.030868312 0.018455705 0.094818546
v 0.000477511 0.019613094 0.094999999
v 0.024507827 0.021512965 0.091255692
v -0.030591801 0.002676004 0.026488936
v -0.053717223 0.012063897 0.035873332
v -0.062320478 0.017669246 0.022586138
f 154 1 9
f 9 1 332
f 1039 1 154
f 332 1 1117
f 1 1039 1117
f 256 2 3
f 3 2 257
f 2 4 10
f 1117 4 2
f 66 9 2
f 9 334 2
f 10 65 2
f 65 110 2
f 111 66 2
f 110 257 2
f 256 111 2
f 2 334 1117
f 257 256 3
f 4 202 10
f 202 4 265
f 1117 265 4
f 5 6 10
f 5 459 6
f 10 143 5
f 143 499 5
f 499 459 5
f 459 7 6
f 7 1148 6
f 6 64 10
f 75 64 6
f 6 77 75
f 6 1148 77
f 7 11 30
f 112 11 7
f 30 1189 7
f 7 1199 112
f 459 1199 7
f 7 1189 1148
f 335 311 8
f 311 1042 8
f 8 575 335
f 739 575 8
f 1042 739 8
f 39 154 9
f 39 9 1140
f 1140 9 66
f 9 332 333
f 9 333 334
f 10 43 144
f 279 43 10
f 10 63 143
f 144 63 10
f 259 10 64
f 1140 65 10
f 108 10 202
f 108 279 10
f 10 259 1140
f 174 30 11
f 1199 11 112
f 1139 174 11
f 1159 1139 11
f 11 1199 1159
f 12 345 367
f 500 345 12
f 363 500 12
f 1126 363 12
f 1126 12 367
f 84 13 198
f 13 84 462
f 322 198 13
f 352 322 13
f 352 13 462
f 120 198 14
f 763 120 14
f 14 198 1051
f 1051 763 14
f 49 15 762
f 1021 15 49
f 763 762 15
f 871 763 15
f 15 1021 871
f 42 726 16
f 1196 42 16
f 726 1017 16
f 16 1017 1196
f 322 205 17
f 362 17 205
f 322 17 547
f 547 17 362
f 55 18 376
f 648 18 55
f 376 18 426
f 426 18 1059
f 648 1059 18
f 850 19 138
f 19 1177 138
f 272 171 19
f 171 1177 19
f 272 19 209
f 19 850 209
f 20 74 195
f 375 74 20
f 195 850 20
f 432 375 20
f 20 850 432
f 101 58 21
f 58 1061 21
f 679 101 21
f 1066 679 21
f 1061 1066 21
f 83 22 137
f 83 378 22
f 22 236 137
f 236 22 159
f 378 159 22
f 109 23 24
f 23 359 24
f 260 23 109
f 236 253 23
f 260 236 23
f 359 23 253
f 109 24 74
f 24 148 74
f 24 492 148
f 359 1045 24
f 1045 492 24
f 132 25 191
f 25 132 482
f 25 663 191
f 482 708 25
f 708 663 25
f 289 26 32
f 26 515 32
f 289 93 26
f 93 376 26
f 515 26 376
f 27 979 106
f 1090 27 106
f 959 979 27
f 1090 959 27
f 52 1034 28
f 1039 52 28
f 469 28 408
f 1034 408 28
f 469 540 28
f 1083 28 540
f 1039 28 1083
f 62 29 46
f 618 46 29
f 29 62 757
f 238 618 29
f 757 238 29
f 174 166 30
f 1188 30 166
f 30 1188 1189
f 597 31 160
f 817 160 31
f 178 31 470
f 178 817 31
f 222 470 31
f 902 222 31
f 31 597 902
f 35 235 32
f 35 32 515
f 181 183 32
f 376 181 32
f 183 289 32
f 376 32 235
f 33 157 181
f 435 157 33
f 181 426 33
f 426 1059 33
f 33 980 435
f 1059 980 33
f 34 153 35
f 34 35 515
f 153 34 331
f 331 34 1020
f 515 1114 34
f 34 1107 1020
f 1114 1107 34
f 35 153 139
f 35 139 235
f 36 58 180
f 58 36 378
f 81 146 36
f 180 81 36
f 212 36 94
f 36 852 94
f 852 36 146
f 36 212 378
f 191 130 37
f 130 541 37
f 187 156 37
f 156 191 37
f 541 187 37
f 125 290 38
f 1144 125 38
f 38 234 204
f 452 38 204
f 234 38 290
f 452 1144 38
f 1185 154 39
f 1140 959 39
f 1185 39 959
f 40 1002 97
f 97 1045 40
f 40 253 438
f 1045 253 40
f 40 438 1002
f 62 46 41
f 327 41 46
f 68 62 41
f 1000 68 41
f 327 1000 41
f 49 45 42
f 207 42 45
f 74 42 48
f 42 445 48
f 1005 49 42
f 74 115 42
f 42 207 76
f 42 76 726
f 82 445 42
f 42 1099 82
f 115 121 42
f 121 868 42
f 868 1005 42
f 1099 42 1196
f 1096 144 43
f 279 1096 43
f 91 85 44
f 492 44 85
f 184 91 44
f 44 1109 184
f 492 339 44
f 1109 44 339
f 365 45 49
f 625 207 45
f 365 625 45
f 46 1151 327
f 618 1151 46
f 136 47 134
f 969 134 47
f 136 161 47
f 416 47 161
f 969 47 416
f 102 74 48
f 48 850 102
f 445 282 48
f 282 850 48
f 365 49 78
f 78 49 762
f 1021 49 530
f 49 1157 530
f 1005 1157 49
f 83 137 50
f 378 83 50
f 50 137 1061
f 378 50 1061
f 834 51 296
f 296 51 932
f 51 912 305
f 51 305 1091
f 51 834 912
f 932 51 1091
f 1034 52 408
f 1154 408 52
f 52 1039 1154
f 53 1039 1090
f 1154 1039 53
f 1192 53 1090
f 1154 53 1192
f 54 351 217
f 54 217 581
f 446 351 54
f 54 1054 446
f 475 54 581
f 475 1054 54
f 485 55 376
f 55 485 944
f 944 648 55
f 137 56 1061
f 137 1066 56
f 56 1066 1061
f 57 122 169
f 122 57 518
f 57 169 1048
f 57 249 523
f 249 57 1048
f 523 457 57
f 457 598 57
f 518 57 598
f 101 180 58
f 378 1061 58
f 59 208 163
f 219 59 163
f 59 189 1069
f 59 1166 189
f 208 59 1111
f 219 1166 59
f 1111 59 1069
f 777 60 632
f 632 60 786
f 60 715 786
f 60 1133 715
f 777 832 60
f 832 1133 60
f 246 429 61
f 879 246 61
f 429 879 61
f 62 68 757
f 143 63 499
f 1096 63 144
f 1096 499 63
f 259 64 75
f 66 110 65
f 65 1140 66
f 111 110 66
f 67 73 141
f 286 73 67
f 67 141 327
f 67 327 286
f 757 68 1152
f 1000 1179 68
f 68 1179 1152
f 109 74 69
f 1186 69 74
f 260 109 69
f 69 1186 260
f 278 582 70
f 591 278 70
f 591 70 457
f 457 70 598
f 505 534 70
f 505 70 582
f 534 518 70
f 598 70 518
f 113 71 344
f 71 113 381
f 161 136 71
f 136 1162 71
f 161 71 381
f 71 1162 344
f 72 452 172
f 620 72 172
f 1144 452 72
f 620 888 72
f 888 1144 72
f 73 1131 141
f 73 286 313
f 73 313 1131
f 115 74 95
f 74 148 95
f 102 195 74
f 276 74 375
f 1186 74 276
f 77 1148 75
f 1148 259 75
f 207 625 76
f 76 625 1017
f 76 1017 726
f 1051 365 78
f 78 762 1051
f 255 184 79
f 1109 79 184
f 255 79 312
f 327 79 286
f 79 1109 286
f 312 79 1092
f 79 327 1092
f 95 91 80
f 80 91 184
f 115 95 80
f 80 255 115
f 255 80 184
f 81 214 146
f 342 81 180
f 214 81 342
f 282 445 82
f 82 1099 282
f 120 84 198
f 120 299 84
f 84 299 462
f 91 148 85
f 85 148 492
f 120 871 87
f 909 120 87
f 188 87 871
f 188 909 87
f 114 205 88
f 88 352 114
f 205 322 88
f 88 322 352
f 176 90 89
f 90 264 89
f 176 89 1020
f 89 264 1020
f 176 214 90
f 214 264 90
f 95 148 91
f 193 92 210
f 449 92 193
f 92 869 210
f 1107 92 449
f 1107 869 92
f 93 289 304
f 93 304 346
f 93 346 1050
f 376 93 1050
f 180 101 94
f 101 212 94
f 149 180 94
f 852 149 94
f 96 307 213
f 481 96 213
f 287 307 96
f 628 287 96
f 628 96 481
f 1002 836 97
f 1045 97 836
f 135 98 186
f 135 201 98
f 186 98 1164
f 98 201 396
f 98 396 1164
f 99 379 124
f 99 124 758
f 218 589 99
f 99 758 218
f 589 379 99
f 212 101 145
f 145 101 679
f 102 850 195
f 193 210 104
f 193 104 342
f 210 214 104
f 104 214 342
f 105 171 340
f 171 105 1177
f 105 272 209
f 1177 105 209
f 1163 272 105
f 340 1163 105
f 106 315 725
f 315 106 979
f 609 106 725
f 609 1090 106
f 202 265 108
f 265 1096 108
f 279 108 1096
f 257 110 111
f 256 257 111
f 208 113 163
f 113 344 163
f 113 208 381
f 205 114 175
f 114 1075 175
f 114 405 231
f 231 1075 114
f 352 405 114
f 115 255 121
f 218 118 185
f 118 265 185
f 218 616 118
f 118 1096 265
f 499 1096 118
f 118 1147 499
f 616 1147 118
f 490 119 179
f 179 119 1012
f 490 658 119
f 658 494 119
f 494 1012 119
f 299 120 909
f 120 763 871
f 121 255 312
f 312 868 121
f 1166 169 122
f 518 225 122
f 225 1173 122
f 240 230 122
f 122 230 1166
f 240 122 1173
f 903 263 123
f 263 1028 123
f 313 286 123
f 286 1062 123
f 123 1028 313
f 903 123 1062
f 124 616 167
f 758 124 167
f 379 1147 124
f 1147 616 124
f 125 360 290
f 1149 360 125
f 1144 380 125
f 380 1149 125
f 196 129 126
f 345 126 129
f 196 126 586
f 345 500 126
f 500 938 126
f 126 938 586
f 206 127 367
f 206 545 127
f 367 127 387
f 127 1165 387
f 127 545 393
f 393 1165 127
f 452 128 172
f 172 128 1012
f 452 1012 128
f 196 500 129
f 129 1126 345
f 129 500 363
f 1126 129 363
f 191 663 130
f 258 358 130
f 130 578 258
f 541 130 358
f 451 578 130
f 130 663 451
f 135 277 131
f 1102 135 131
f 131 277 520
f 419 131 520
f 419 925 131
f 131 925 1102
f 132 191 1174
f 132 232 482
f 1174 232 132
f 1173 136 134
f 240 134 969
f 240 1173 134
f 135 186 277
f 135 1102 201
f 1162 136 361
f 136 1173 361
f 236 260 137
f 1066 137 260
f 431 829 138
f 1056 431 138
f 138 829 432
f 432 850 138
f 1177 1056 138
f 235 139 150
f 150 139 869
f 210 139 153
f 139 210 869
f 141 1000 327
f 141 1131 916
f 916 1152 141
f 141 1170 1000
f 141 1152 1170
f 253 159 145
f 145 159 378
f 145 378 212
f 253 145 484
f 679 484 145
f 146 342 149
f 149 852 146
f 214 176 146
f 176 1020 146
f 146 193 342
f 449 193 146
f 146 1020 449
f 216 147 268
f 147 216 302
f 147 470 268
f 902 147 302
f 147 902 470
f 342 180 149
f 150 1114 235
f 1107 150 869
f 1114 150 1107
f 151 930 785
f 973 151 785
f 151 962 930
f 151 976 962
f 976 151 973
f 152 574 685
f 574 152 747
f 685 846 152
f 152 846 747
f 153 331 210
f 154 1185 1039
f 156 187 708
f 708 191 156
f 295 157 158
f 157 435 158
f 183 181 157
f 192 183 157
f 295 192 157
f 986 295 158
f 435 886 158
f 158 886 986
f 159 253 236
f 597 160 239
f 239 160 758
f 160 817 758
f 1069 161 381
f 416 161 1108
f 1069 1108 161
f 163 344 219
f 164 213 187
f 164 187 348
f 213 164 288
f 288 164 337
f 337 164 799
f 799 164 348
f 165 381 669
f 1069 381 165
f 586 165 584
f 584 165 669
f 165 586 1069
f 174 312 166
f 341 259 166
f 259 1188 166
f 166 312 341
f 616 758 167
f 439 369 169
f 369 1048 169
f 439 169 1166
f 703 524 170
f 849 170 524
f 548 170 556
f 170 548 703
f 170 772 556
f 849 772 170
f 171 272 340
f 172 1093 620
f 172 744 688
f 172 688 1093
f 172 1012 744
f 174 1139 312
f 204 205 175
f 204 175 580
f 175 1127 580
f 1075 1127 175
f 470 239 178
f 239 758 178
f 178 758 616
f 178 616 817
f 360 656 179
f 360 179 1012
f 490 179 940
f 179 506 940
f 1030 506 179
f 179 656 1030
f 426 181 376
f 192 542 183
f 374 183 250
f 498 250 183
f 289 183 374
f 183 542 498
f 589 218 185
f 185 265 589
f 186 394 277
f 394 186 1164
f 187 213 708
f 348 187 541
f 387 639 188
f 871 387 188
f 188 639 909
f 416 189 969
f 1108 189 416
f 189 1166 969
f 189 1108 1069
f 190 252 380
f 252 190 443
f 190 380 1144
f 443 190 1116
f 888 1116 190
f 888 190 1144
f 191 482 194
f 1174 191 194
f 708 482 191
f 295 764 192
f 525 542 192
f 764 525 192
f 194 224 272
f 194 482 224
f 1174 194 272
f 196 938 500
f 584 196 586
f 584 669 196
f 669 938 196
f 299 198 462
f 1051 198 299
f 322 547 198
f 405 462 198
f 198 547 405
f 200 351 226
f 965 200 226
f 200 1173 351
f 965 1167 200
f 1167 1173 200
f 201 216 246
f 216 201 302
f 302 201 222
f 1102 222 201
f 201 246 396
f 204 362 205
f 204 234 231
f 204 231 362
f 254 452 204
f 204 580 254
f 367 1139 206
f 545 206 540
f 1159 540 206
f 206 1139 1159
f 669 381 208
f 1111 669 208
f 282 209 850
f 282 943 209
f 209 943 1196
f 209 1056 1177
f 209 1196 1056
f 264 214 210
f 331 264 210
f 211 369 965
f 211 1122 369
f 211 636 949
f 965 636 211
f 949 1122 211
f 481 213 288
f 213 307 708
f 216 373 246
f 373 216 268
f 217 650 280
f 280 723 217
f 217 351 329
f 650 217 329
f 593 581 217
f 723 593 217
f 218 817 616
f 758 817 218
f 1162 219 344
f 219 1162 1166
f 379 220 496
f 379 589 220
f 1068 496 220
f 1068 220 589
f 222 902 302
f 1102 470 222
f 232 224 482
f 232 1174 224
f 272 224 340
f 224 1174 340
f 351 225 329
f 534 329 225
f 1173 225 351
f 518 534 225
f 446 226 351
f 409 965 226
f 989 409 226
f 446 989 226
f 227 652 790
f 227 1086 652
f 790 920 227
f 920 944 227
f 1086 227 944
f 277 685 228
f 277 228 798
f 587 228 574
f 685 574 228
f 798 228 587
f 229 371 238
f 1140 229 238
f 371 229 918
f 229 1140 918
f 230 240 969
f 1166 230 969
f 234 1127 231
f 405 362 231
f 1127 1075 231
f 464 383 233
f 383 1093 233
f 464 233 649
f 822 649 233
f 688 822 233
f 688 233 1093
f 360 254 234
f 254 1127 234
f 290 360 234
f 515 376 235
f 515 235 1114
f 371 618 238
f 1140 238 757
f 470 597 239
f 262 241 472
f 473 241 262
f 288 427 241
f 288 241 481
f 472 241 427
f 473 481 241
f 419 556 242
f 925 419 242
f 470 925 242
f 470 242 939
f 242 556 939
f 244 489 298
f 298 519 244
f 244 739 489
f 244 519 575
f 575 739 244
f 245 651 671
f 651 245 768
f 245 671 1010
f 245 678 768
f 678 245 1010
f 1132 246 373
f 246 879 396
f 1025 429 246
f 1132 1025 246
f 248 540 469
f 248 469 609
f 614 540 248
f 725 248 609
f 614 248 725
f 249 1094 523
f 1094 249 1048
f 538 374 250
f 525 250 498
f 525 1031 250
f 250 1031 538
f 251 296 656
f 296 251 834
f 656 360 251
f 1149 251 360
f 1149 834 251
f 380 252 834
f 397 252 443
f 252 397 912
f 912 834 252
f 253 1045 359
f 484 375 253
f 253 375 1001
f 1001 438 253
f 254 360 452
f 580 1127 254
f 601 358 258
f 258 578 901
f 601 258 749
f 258 631 900
f 258 901 631
f 258 900 749
f 341 1158 259
f 259 1158 1140
f 1148 1189 259
f 1189 1188 259
f 276 1066 260
f 260 1186 276
f 262 335 473
f 734 335 262
f 910 262 472
f 1018 734 262
f 910 1018 262
f 324 263 294
f 263 903 294
f 1095 263 324
f 263 1095 1028
f 264 331 1020
f 265 1068 589
f 1117 1068 265
f 1132 373 268
f 939 268 470
f 268 510 653
f 939 510 268
f 1132 268 653
f 271 988 308
f 308 1128 271
f 745 271 318
f 271 1070 318
f 503 1070 271
f 1128 503 271
f 745 988 271
f 1174 272 1163
f 375 1066 276
f 394 685 277
f 277 798 520
f 1047 582 278
f 591 1047 278
f 280 650 505
f 280 505 809
f 748 723 280
f 280 1133 748
f 1133 280 809
f 1099 943 282
f 1062 286 1109
f 287 298 301
f 287 628 298
f 287 301 855
f 287 708 307
f 451 663 287
f 855 451 287
f 287 663 708
f 427 288 337
f 304 289 374
f 402 291 854
f 932 291 402
f 859 291 477
f 291 932 477
f 859 854 291
f 427 337 292
f 607 292 337
f 427 292 472
f 607 434 292
f 963 292 434
f 472 292 963
f 294 1002 324
f 903 836 294
f 294 836 1002
f 986 764 295
f 506 296 402
f 296 932 402
f 506 1030 296
f 656 296 1030
f 301 298 489
f 628 519 298
f 299 909 1017
f 1051 299 1017
f 776 301 489
f 857 301 776
f 301 857 855
f 403 554 303
f 403 303 901
f 608 303 448
f 303 860 448
f 696 303 554
f 303 608 901
f 860 303 696
f 346 304 945
f 945 304 374
f 719 878 305
f 719 305 912
f 1091 305 878
f 479 308 1037
f 479 1128 308
f 988 1037 308
f 310 706 754
f 1042 706 310
f 1042 310 754
f 335 734 311
f 734 1078 311
f 1078 1042 311
f 341 312 1092
f 1004 868 312
f 1139 1004 312
f 313 1028 1131
f 725 315 757
f 757 315 979
f 459 496 316
f 1199 459 316
f 1106 316 496
f 1106 1199 316
f 323 318 429
f 745 318 323
f 1070 429 318
f 429 1025 323
f 323 526 745
f 526 323 780
f 1025 780 323
f 1095 324 892
f 1115 892 324
f 1002 1115 324
f 380 834 325
f 380 325 1149
f 325 834 1149
f 425 674 326
f 752 425 326
f 326 674 823
f 326 1015 752
f 983 326 823
f 983 1015 326
f 1151 918 327
f 327 918 1158
f 1092 327 1158
f 650 329 534
f 1117 333 332
f 333 1117 334
f 335 575 473
f 337 799 607
f 492 836 339
f 836 903 339
f 1109 339 903
f 340 1174 1163
f 341 1092 1158
f 345 347 367
f 347 345 1126
f 617 346 536
f 536 346 945
f 346 617 1050
f 530 367 347
f 1126 530 347
f 541 1110 348
f 1110 799 348
f 352 462 405
f 398 686 354
f 694 398 354
f 686 797 354
f 694 354 898
f 797 898 354
f 356 396 953
f 1164 396 356
f 948 356 424
f 424 356 953
f 356 948 1164
f 601 541 358
f 1012 452 360
f 361 439 1166
f 361 1173 439
f 361 1166 1162
f 547 362 405
f 625 365 1051
f 387 871 367
f 367 530 1139
f 1021 367 871
f 367 1021 1126
f 439 1167 369
f 965 369 1167
f 1048 369 1122
f 618 371 918
f 859 477 372
f 477 878 372
f 646 859 372
f 878 646 372
f 945 374 538
f 1001 375 432
f 679 375 484
f 679 1066 375
f 1050 485 376
f 1147 379 496
f 610 383 464
f 610 1072 383
f 802 383 1072
f 802 1093 383
f 384 677 847
f 1014 677 384
f 818 384 847
f 818 881 384
f 881 884 384
f 384 884 1014
f 386 980 648
f 648 1168 386
f 386 951 980
f 1016 951 386
f 1168 1016 386
f 1165 639 387
f 924 409 388
f 409 989 388
f 924 388 635
f 388 1033 635
f 1138 388 989
f 388 1138 1033
f 639 393 478
f 1115 478 393
f 1023 393 545
f 639 1165 393
f 1023 1115 393
f 890 685 394
f 1164 890 394
f 1070 396 879
f 953 396 1070
f 397 443 1116
f 397 891 912
f 891 397 1142
f 1116 1142 397
f 398 694 622
f 398 622 789
f 789 686 398
f 637 677 399
f 896 637 399
f 779 399 647
f 647 399 967
f 399 677 1014
f 896 399 779
f 978 967 399
f 978 399 1014
f 402 940 506
f 402 854 549
f 402 549 940
f 403 857 554
f 857 403 855
f 403 901 855
f 735 406 998
f 735 1116 406
f 406 802 1072
f 1101 802 406
f 998 406 1072
f 1116 1101 406
f 609 469 408
f 609 408 1090
f 408 1192 1090
f 1154 1192 408
f 924 965 409
f 548 410 703
f 410 548 1060
f 410 603 767
f 1029 603 410
f 703 410 767
f 1060 1029 410
f 414 769 695
f 695 1019 414
f 769 414 746
f 746 414 1118
f 895 414 1019
f 414 895 1118
f 548 419 520
f 556 419 548
f 562 948 424
f 562 424 953
f 886 435 425
f 980 425 435
f 951 674 425
f 886 425 752
f 980 951 425
f 507 511 428
f 507 428 521
f 428 511 851
f 687 521 428
f 428 851 687
f 1070 879 429
f 829 431 1056
f 432 829 438
f 432 438 1001
f 607 1077 434
f 881 963 434
f 1077 881 434
f 438 639 478
f 1002 438 478
f 639 438 829
f 439 1173 1167
f 489 640 441
f 441 776 489
f 743 554 441
f 554 776 441
f 441 640 743
f 446 1054 989
f 458 448 860
f 900 448 458
f 448 900 608
f 1020 1107 449
f 451 901 578
f 855 901 451
f 453 988 643
f 643 993 453
f 453 993 765
f 1085 453 765
f 988 453 1037
f 1085 1037 453
f 523 666 457
f 666 591 457
f 860 612 458
f 612 973 458
f 458 785 900
f 973 785 458
f 499 496 459
f 942 610 464
f 649 1046 464
f 464 1046 942
f 597 470 902
f 925 470 1102
f 910 472 963
f 473 628 481
f 575 519 473
f 519 628 473
f 475 581 593
f 475 593 759
f 759 906 475
f 1054 475 906
f 1091 878 477
f 932 1091 477
f 478 1115 1002
f 557 479 599
f 557 728 479
f 479 700 599
f 700 479 1037
f 479 728 1128
f 1050 617 485
f 617 1086 485
f 732 944 485
f 732 485 1086
f 489 754 640
f 739 754 489
f 789 658 490
f 727 789 490
f 727 490 940
f 492 1045 836
f 1026 494 658
f 1012 494 744
f 494 1026 744
f 499 1147 496
f 1106 496 1068
f 621 524 497
f 497 524 703
f 621 497 756
f 767 497 703
f 756 497 821
f 497 767 824
f 497 824 821
f 525 498 542
f 503 952 953
f 503 1128 952
f 503 953 1070
f 505 650 534
f 505 582 1082
f 809 505 1082
f 511 507 1047
f 632 507 521
f 786 507 632
f 684 507 786
f 507 684 1047
f 510 720 653
f 772 720 510
f 510 939 772
f 851 511 690
f 690 511 1047
f 557 517 728
f 517 557 970
f 517 562 952
f 517 1074 562
f 517 952 728
f 792 517 970
f 792 1074 517
f 1060 548 520
f 520 798 1060
f 521 709 632
f 687 709 521
f 787 666 523
f 523 1094 787
f 621 999 524
f 524 999 849
f 975 525 764
f 975 1067 525
f 1067 1031 525
f 553 643 526
f 780 553 526
f 526 643 745
f 546 538 529
f 538 1031 529
f 529 1019 546
f 895 1019 529
f 529 1031 895
f 530 1005 1004
f 530 1004 1139
f 530 1157 1005
f 1021 530 1126
f 546 536 945
f 546 1019 536
f 724 617 536
f 724 536 1019
f 945 538 546
f 545 540 1023
f 614 1023 540
f 1083 540 1159
f 601 841 541
f 541 841 1110
f 602 810 549
f 602 549 854
f 810 727 549
f 549 727 940
f 880 551 568
f 568 551 911
f 551 705 644
f 911 551 644
f 705 551 880
f 993 643 553
f 553 780 1032
f 993 553 1032
f 883 696 554
f 743 883 554
f 857 776 554
f 772 939 556
f 557 599 970
f 714 590 561
f 947 561 590
f 561 709 687
f 1038 561 687
f 947 709 561
f 1038 714 561
f 562 846 948
f 1074 846 562
f 562 953 952
f 627 568 596
f 911 596 568
f 568 627 606
f 606 921 568
f 568 921 880
f 747 587 574
f 1047 684 582
f 1082 582 684
f 586 938 669
f 669 1111 586
f 1069 586 1111
f 747 928 587
f 587 1134 798
f 873 587 928
f 587 873 1043
f 587 1043 1134
f 627 590 606
f 590 1136 606
f 627 947 590
f 714 1136 590
f 690 591 666
f 1047 591 690
f 592 773 800
f 592 898 773
f 858 592 800
f 858 1046 592
f 877 898 592
f 592 1046 877
f 723 759 593
f 826 594 716
f 716 594 949
f 807 787 594
f 594 787 1094
f 826 807 594
f 594 1094 949
f 947 627 596
f 837 596 934
f 837 947 596
f 911 974 596
f 934 596 974
f 599 668 970
f 599 1125 668
f 599 700 1125
f 1104 601 749
f 601 1104 841
f 737 740 602
f 737 602 874
f 740 810 602
f 874 602 854
f 767 603 905
f 905 603 917
f 603 1029 917
f 823 605 875
f 1003 605 823
f 875 605 1103
f 915 605 1003
f 1103 605 915
f 921 606 716
f 1136 716 606
f 1022 607 799
f 1077 607 1022
f 608 900 631
f 631 901 608
f 778 814 610
f 778 610 942
f 610 814 1072
f 755 647 612
f 612 647 967
f 717 755 612
f 717 612 860
f 612 967 973
f 614 725 916
f 897 614 825
f 614 916 825
f 614 897 1023
f 1086 617 724
f 1151 618 918
f 639 829 619
f 639 619 909
f 829 1196 619
f 1017 909 619
f 1017 619 1196
f 1093 802 620
f 620 802 1101
f 620 1101 888
f 756 830 621
f 830 999 621
f 658 789 622
f 1026 658 622
f 622 694 994
f 994 1026 622
f 1017 625 1051
f 709 837 632
f 837 777 632
f 705 635 644
f 635 1033 644
f 635 705 924
f 921 636 880
f 636 924 880
f 636 921 949
f 965 924 636
f 677 637 847
f 734 1018 637
f 734 637 1078
f 637 1018 847
f 637 896 1078
f 640 754 706
f 1009 640 706
f 1009 743 640
f 641 799 841
f 1022 799 641
f 841 1104 641
f 641 922 1036
f 922 641 1104
f 1036 1022 641
f 643 988 745
f 819 911 644
f 1033 819 644
f 646 771 681
f 885 646 681
f 771 646 878
f 936 859 646
f 885 936 646
f 755 779 647
f 944 1168 648
f 980 1059 648
f 649 822 718
f 649 718 1046
f 811 651 654
f 1084 654 651
f 651 811 671
f 675 651 768
f 675 1084 651
f 724 889 652
f 1086 724 652
f 652 889 790
f 720 1032 653
f 653 1032 780
f 780 1132 653
f 654 735 811
f 891 735 654
f 891 654 1084
f 860 696 662
f 696 883 662
f 662 717 860
f 717 662 984
f 883 984 662
f 787 690 666
f 970 668 1035
f 668 1055 1035
f 1125 1055 668
f 671 811 998
f 816 671 998
f 671 816 1010
f 674 1003 823
f 951 1016 674
f 674 1016 1003
f 681 675 885
f 681 1084 675
f 768 761 675
f 761 885 675
f 800 768 678
f 678 778 858
f 678 1010 778
f 678 858 800
f 771 1084 681
f 684 786 1082
f 890 846 685
f 727 686 789
f 727 810 686
f 740 797 686
f 740 686 810
f 1038 687 851
f 688 744 961
f 688 961 822
f 690 787 851
f 694 898 908
f 694 908 994
f 695 889 724
f 695 724 1019
f 695 769 889
f 769 698 889
f 769 1103 698
f 698 790 889
f 915 790 698
f 915 698 1103
f 1037 821 700
f 821 1040 700
f 1040 1125 700
f 880 924 705
f 706 896 779
f 779 1009 706
f 896 706 1078
f 1078 706 1042
f 837 709 947
f 826 714 807
f 807 714 1038
f 1136 714 826
f 786 715 1082
f 809 1082 715
f 809 715 1133
f 826 716 1136
f 716 949 921
f 755 717 984
f 718 822 961
f 908 877 718
f 718 877 1046
f 994 908 718
f 994 718 961
f 719 771 878
f 719 1084 771
f 891 719 912
f 719 891 1084
f 722 720 772
f 1032 720 722
f 772 827 722
f 827 845 722
f 950 722 845
f 722 950 1032
f 723 748 995
f 759 723 995
f 725 757 916
f 1128 728 952
f 732 1086 944
f 735 998 811
f 735 891 1142
f 735 1142 1116
f 740 737 773
f 737 874 773
f 739 1042 754
f 773 797 740
f 984 883 743
f 984 743 1009
f 961 744 1026
f 1103 769 746
f 875 746 935
f 875 1103 746
f 746 1118 935
f 747 846 1076
f 928 747 1035
f 1076 1035 747
f 995 748 1133
f 749 900 1104
f 844 1008 752
f 844 752 1015
f 752 986 886
f 986 752 1008
f 779 755 1009
f 984 1009 755
f 756 765 830
f 765 756 1085
f 756 821 1085
f 916 757 1152
f 979 1140 757
f 1058 906 759
f 759 995 1058
f 800 761 768
f 800 773 761
f 773 874 761
f 936 761 874
f 761 936 885
f 762 763 1051
f 764 844 975
f 844 764 1008
f 1008 764 986
f 765 845 830
f 765 950 845
f 950 765 993
f 767 905 824
f 849 827 772
f 797 773 898
f 832 777 853
f 934 777 837
f 777 934 853
f 1010 814 778
f 858 778 942
f 780 1025 1132
f 1104 900 785
f 1104 785 930
f 807 851 787
f 915 920 790
f 1076 792 970
f 1076 1074 792
f 873 1055 793
f 793 1080 873
f 793 1040 990
f 990 1080 793
f 1125 1040 793
f 793 1055 1125
f 1029 1060 798
f 1134 1029 798
f 799 1110 841
f 807 1038 851
f 816 998 814
f 1010 816 814
f 998 1072 814
f 847 910 818
f 881 818 963
f 818 910 963
f 819 974 911
f 819 1073 974
f 819 1033 1073
f 821 824 1040
f 1085 821 1037
f 983 823 875
f 905 1040 824
f 1095 897 825
f 956 825 916
f 825 956 1095
f 845 827 999
f 999 827 849
f 1196 829 1056
f 830 845 999
f 832 853 929
f 832 929 1133
f 865 843 884
f 865 1022 843
f 899 884 843
f 899 843 1036
f 1022 1036 843
f 844 1120 975
f 1120 844 1015
f 846 890 948
f 846 1074 1076
f 1018 910 847
f 995 929 853
f 974 853 934
f 974 1081 853
f 982 995 853
f 853 1081 982
f 854 859 874
f 858 942 1046
f 874 859 936
f 975 935 861
f 1118 861 935
f 1067 975 861
f 1118 1067 861
f 881 865 884
f 865 881 1077
f 865 1077 1022
f 1004 1005 868
f 928 1055 873
f 873 1080 1043
f 935 1120 875
f 983 875 1120
f 877 908 898
f 899 1014 884
f 888 1101 1116
f 948 890 1164
f 897 1095 892
f 897 892 1115
f 1031 1067 895
f 1118 895 1067
f 897 1115 1023
f 955 978 899
f 955 899 1036
f 978 1014 899
f 1109 903 1062
f 917 1043 905
f 1040 905 990
f 1043 990 905
f 906 1058 982
f 982 1081 906
f 1138 1054 906
f 1081 1073 906
f 1073 1138 906
f 920 915 1003
f 916 1095 956
f 1095 916 1131
f 917 1029 1134
f 1043 917 1134
f 918 1140 1158
f 920 1168 944
f 1168 920 1003
f 962 922 930
f 930 922 1104
f 955 922 962
f 922 955 1036
f 1055 928 1035
f 929 995 1133
f 1120 935 975
f 943 1099 1196
f 1094 1048 949
f 949 1048 1122
f 1032 950 993
f 976 955 962
f 976 967 955
f 955 967 978
f 979 959 1140
f 1090 1039 959
f 1185 959 1039
f 1026 994 961
f 976 973 967
f 970 1035 1076
f 1081 974 1073
f 982 1058 995
f 983 1120 1015
f 1054 1138 989
f 1080 990 1043
f 1170 1179 1000
f 1016 1168 1003
f 1095 1131 1028
f 1073 1033 1138
f 1039 1083 1199
f 1117 1039 1106
f 1039 1199 1106
f 1117 1106 1068
f 1199 1083 1159
f 1152 1179 1170
