# sdm_hand_1200_mixw3.obj  (1200 v, 1674 f)  units: metres
v -0.110148340 -0.027782766 0.076027557
v -0.059176758 -0.005846387 0.021900922
v -0.069094315 0.004087776 0.014222741
v -0.068354376 0.004346595 0.013601856
v -0.068571724 0.005567660 0.015462436
v -0.063345835 0.020366503 0.027859384
v -0.062823243 0.021846386 0.029099079
v -0.054884369 0.022074226 0.030631890
v -0.045000002 0.000000000 0.000000000
v -0.037999999 -0.001116713 0.020000000
v -0.045000002 0.022000000 0.000000000
v -0.041809856 0.003755155 0.092482207
v -0.038120754 0.011103736 0.149630904
v -0.039519532 0.013798341 0.140372299
v -0.024827010 0.017338513 0.105274970
v -0.025726479 0.019500000 0.147909188
v -0.037741163 0.018562861 0.172895457
v -0.037390627 0.021000000 0.178499997
v -0.002341181 0.011790043 0.176861461
v -0.005859915 0.003310908 0.107474229
v -0.000500000 0.002500000 0.186000004
v 0.037500324 0.004359301 0.166718776
v 0.018500000 0.021000000 0.094999999
v 0.037000000 0.021000000 0.094999999
v 0.045000002 0.022000000 0.094999999
v 0.024428777 0.018626338 0.131531152
v 0.004906250 0.019484375 0.149312500
v 0.031949776 0.016000001 0.161342074
v -0.032000000 0.002500000 0.139000002
v -0.037999999 -0.001116713 0.041233219
v 0.002499999 0.002000000 0.000000000
v 0.038649371 0.018306336 0.097020913
v -0.101519072 -0.005145210 0.045007126
v -0.075388714 0.014978036 0.037499535
v 0.025565195 0.018114302 0.176540357
v 0.023958578 0.019500000 0.107039041
v 0.001500000 0.018765334 0.170211223
v -0.013139104 0.019696058 0.187692915
v -0.016934097 0.020312500 0.181096775
v -0.017120118 0.002932979 0.119102580
v -0.034411638 0.019500000 0.133058873
v -0.026360416 0.019481531 0.098102520
v -0.042071476 -0.002026048 0.007589698
v 0.025000000 0.000000000 0.000000000
v 0.000000000 0.022000000 0.094999999
v -0.065958780 0.012967082 0.021660910
v -0.113210171 -0.018114842 0.090989849
v -0.010500000 0.021000000 0.094999999
v -0.037999999 -0.003000000 0.030616610
v 0.013750000 0.002000000 0.000000000
v 0.011000000 0.021000000 0.094999999
v 0.006292635 0.017664063 0.175449933
v -0.022500001 0.022000000 0.094999999
v -0.095569053 -0.000635347 0.042308103
v 0.011374999 0.000000000 0.020000000
v -0.001250000 0.002500000 0.204007812
v -0.037999999 -0.003000000 0.025308305
v 0.002625000 0.002500000 0.186875001
v -0.034423323 0.020060114 0.102480714
v 0.037500001 0.001903879 0.170178010
v 0.039000001 0.008950190 0.171038920
v 0.024499999 0.002500000 0.176937495
v 0.032181459 0.019216673 0.145957954
v -0.001332319 0.012811491 0.189886852
v 0.001500000 0.004566783 0.193033643
v -0.091344778 0.006869294 0.046561430
v 0.020500001 0.006929688 0.142728914
v 0.034562500 0.004458404 0.145063735
v -0.039433145 0.014187407 0.101000004
v -0.033980545 0.014558674 0.176470708
v -0.031500000 -0.005500000 0.195423687
v -0.117938755 -0.023566599 0.071858586
v -0.111751864 -0.009836801 0.082908313
v -0.004000000 0.000000000 0.000000000
v -0.064652307 0.016666792 0.024760147
v -0.053541651 0.022052603 0.014239096
v -0.057012890 0.012919544 0.006996444
v -0.054979681 0.001857366 0.005812280
v 0.006937499 -0.003000000 0.020000000
v -0.009703125 -0.003000000 0.020000000
v 0.000281250 0.000000000 0.011249153
v 0.029919765 0.022000000 0.007238298
v 0.031000000 0.021000000 0.094999999
v -0.135779778 -0.009702025 0.086840933
v -0.018522299 -0.001740535 0.205494336
v -0.002375000 0.006942634 0.207366844
v -0.030398896 0.003337116 0.178468752
v -0.093703314 -0.000954296 0.039485547
v 0.031766406 -0.003000000 0.024038080
v 0.022500001 0.022000000 0.094999999
v -0.057812476 0.022078904 0.021358644
v -0.006500000 0.021000000 0.094999999
v -0.014500000 0.021000000 0.094999999
v -0.018173983 0.009719822 0.187162157
v 0.023367025 0.022000000 0.067532052
v -0.002860171 0.006417871 0.186468707
v -0.026451195 0.011852161 0.196392422
v 0.007250000 0.021000000 0.094999999
v -0.031043012 0.011161351 0.094999999
v 0.045000002 0.022000000 0.083124999
v 0.003611406 0.018601645 0.131360015
v -0.029062100 0.010769138 0.030544282
v 0.035902063 0.019750000 0.135700762
v 0.033972705 0.022000000 0.077187499
v -0.087673838 0.005601869 0.048515333
v 0.017065194 0.019506555 0.181260971
v 0.032804036 0.016000001 0.136543620
v 0.030761645 0.005196126 0.102696408
v 0.035288628 0.018532573 0.178611802
v 0.024491381 0.022000000 0.083681682
v -0.002972974 0.019123288 0.102158327
v -0.090952374 0.001519264 0.061995702
v 0.010544991 0.020742188 0.176236928
v -0.078824223 -0.005644400 0.035413519
v -0.036101066 0.002983143 0.034438719
v 0.024145833 0.006229447 0.118704697
v -0.040066407 0.017910440 0.178000003
v 0.014750000 0.021000000 0.094999999
v 0.025312500 0.016546876 0.134500000
v -0.124036984 -0.018551897 0.088557404
v -0.067265252 0.009267370 0.018561673
v 0.034000000 0.021000000 0.094999999
v 0.037000001 0.005343651 0.120090949
v -0.062683633 0.008633069 0.010299150
v -0.061667028 0.003101981 0.009707068
v -0.074509461 0.003128550 0.022508993
v 0.024205323 0.017804449 0.151303795
v -0.025962859 0.012891527 0.170736887
v 0.026575643 0.008497808 0.158999994
v 0.011413767 0.022000000 0.080249537
v -0.022500001 0.005046998 0.189860451
v -0.037999999 0.000000000 0.078270623
v -0.059295379 0.014706436 0.021134095
v 0.027819358 0.014848050 0.138999999
v -0.087776762 0.001516939 0.052089149
v -0.004625000 0.002500000 0.188999996
v -0.023494031 0.015235925 0.179908712
v -0.031214644 0.016253766 0.098466494
v -0.001918315 0.022000000 0.081724462
v 0.014012418 -0.005500000 0.192656442
v -0.018903297 0.015409858 0.166419631
v -0.063257212 0.010667848 0.039260855
v -0.070691673 0.005651467 0.018309109
v -0.034526903 -0.003000000 0.063622787
v -0.009004422 0.006432078 0.203404911
v -0.037187465 0.018208371 0.082962131
v -0.022723812 0.022000000 0.056006535
v 0.009362594 0.016032053 0.088409593
v -0.132611072 -0.020165388 0.076415489
v -0.025145838 0.019250000 0.172417763
v -0.029278662 0.002248630 0.184311271
v 0.023000000 0.005044117 0.147078214
v -0.016546463 0.004919250 0.197359060
v 0.009775741 0.013174041 0.080342424
v -0.063999071 0.018516648 0.026309765
v -0.065305543 0.014816937 0.023210529
v 0.028879339 0.020093750 0.133544731
v 0.045000002 0.022000000 0.089062499
v -0.016070850 -0.003000000 0.045125565
v -0.118931437 -0.008380088 0.063570991
v -0.050624117 -0.003936217 0.014745310
v -0.032981467 -0.005500000 0.187239300
v -0.020500001 0.003413087 0.195724971
v -0.016244449 0.002205830 0.195547443
v -0.117275017 -0.010466731 0.086593547
v -0.091212375 -0.009536040 0.048243958
v -0.127579920 -0.014218441 0.094730443
v -0.122245584 -0.016474441 0.066834453
v -0.030883139 0.021000000 0.175688235
v -0.014787271 0.017064674 0.121764387
v 0.018265625 0.018859375 0.176656248
v -0.099834026 -0.012490173 0.064657368
v -0.109973687 0.002595689 0.065094289
v 0.020328132 0.003812505 0.200000004
v -0.063748231 0.006854356 0.015289810
v -0.033359690 0.004671702 0.044878348
v 0.004875085 0.004661891 0.151902591
v 0.018348786 0.015156247 0.084090466
v 0.001500000 0.005614885 0.185643802
v -0.057944725 0.011008542 0.014860290
v -0.125591184 -0.029321223 0.087583654
v -0.123242876 -0.019716390 0.079235169
v 0.001037828 0.013797239 0.087779492
v 0.019394516 0.012129328 0.200377775
v -0.003716709 0.018382622 0.151983835
v -0.020249154 0.011415826 0.205770484
v 0.016625000 0.021000000 0.094999999
v 0.014584307 0.019400632 0.170060001
v -0.067918488 0.007417515 0.017012054
v 0.018999999 -0.003568750 0.185431250
v -0.017020817 0.019376225 0.152512329
v -0.096303290 -0.003902668 0.040071082
v -0.008500000 0.021000000 0.094999999
v -0.023218768 0.019500000 0.134976725
v -0.066712182 0.003705004 0.016902095
v -0.031263202 0.002500000 0.159500001
v 0.031666177 0.015376759 0.087621008
v 0.003595596 0.018577494 0.096782459
v -0.032421875 0.002500000 0.180314368
v 0.013090739 0.016000001 0.178036545
v 0.014380270 0.018329116 0.092454876
v -0.013773731 0.012607688 0.082271062
v 0.024124999 0.002500000 0.173281246
v -0.126939596 -0.012579657 0.090392800
v -0.017565290 0.018275530 0.101682129
v -0.024656250 0.002500000 0.195531245
v -0.057524648 0.016661600 0.026971831
v -0.005506339 0.016943472 0.084729466
v -0.003786370 0.005043393 0.191794752
v -0.066307338 0.001497312 0.026530557
v -0.061806292 0.011368210 0.018555402
v 0.004658922 0.017616899 0.154683039
v -0.059486065 0.005645167 0.016287431
v -0.122568933 -0.015048967 0.091875263
v -0.022500001 0.003899691 0.184417425
v -0.014998686 0.003135283 0.195688204
v -0.020312500 0.014375000 -0.024899999
v -0.030192904 0.005172675 0.181322565
v 0.032461805 0.020250000 0.139224709
v -0.030437385 0.003744518 0.054145199
v 0.028045649 0.018684672 0.164893302
v 0.002402012 0.014391839 0.189234965
v 0.026455942 0.018905346 0.159401878
v 0.012241994 0.004682621 0.093381640
v -0.033640626 0.019500000 0.178499997
v -0.013919728 0.002000000 -0.014763100
v 0.023000000 0.004276583 0.175470125
v -0.036946273 0.004194257 0.113774176
v 0.014731809 0.020033721 0.148010036
v 0.024499999 0.000500000 0.167999998
v 0.004354062 0.022000000 0.029737294
v 0.041035157 0.001811310 0.072774930
v -0.061666294 0.016806013 0.028376772
v -0.074566249 0.004107882 0.048544552
v -0.015918988 -0.005500000 0.204583394
v -0.115265348 -0.024589245 0.086768792
v -0.015605235 0.019375790 0.146509767
v -0.014706985 0.004979177 0.201391826
v -0.006281250 0.020437500 0.179499999
v -0.116769059 -0.022032979 0.076933797
v -0.061100744 0.016535980 0.021532382
v 0.014402084 0.014528360 0.147382492
v -0.068244176 0.013059236 0.024732086
v 0.023750000 0.002500000 0.180187494
v -0.004113907 0.003053032 0.207782995
v -0.033234903 -0.003000000 0.078027692
v -0.007301946 0.017589171 0.183118726
v 0.004146712 0.022000000 0.075554338
v 0.002218750 0.009880547 0.171682589
v -0.093482238 -0.001189466 0.042531115
v -0.004580790 -0.000005698 0.196073532
v -0.009315698 -0.005500000 0.197581616
v 0.006040542 0.005868527 0.196132751
v -0.065010702 0.003724288 0.011654462
v -0.065519004 0.006489832 0.011950503
v -0.044656224 0.022032952 0.017478824
v 0.032878831 0.020718750 0.098779690
v -0.123993514 -0.023467589 0.079833491
v 0.018999999 -0.000916594 0.190714454
v 0.024625891 -0.003000000 0.077053262
v -0.035500000 -0.000558357 0.020000000
v -0.036749999 -0.003000000 0.020000000
v -0.099961264 0.003920402 0.053875630
v -0.125090271 -0.026550823 0.080250661
v -0.070168474 0.003333750 0.018802268
v 0.024062500 0.017733259 0.139274218
v -0.010204752 0.004201902 0.189776934
v -0.018999999 0.002500000 0.194046872
v 0.020500001 0.004465952 0.189778801
v -0.116043420 -0.029031744 0.080249167
v -0.125409910 -0.017096577 0.092895591
v -0.015311841 -0.001500000 0.082946009
v 0.014917719 0.018861480 0.119966747
v -0.007542238 0.006706579 0.075844865
v 0.028000000 0.021000000 0.094999999
v -0.012525035 0.009536415 0.192787090
v 0.039466819 0.015284444 0.086387675
v -0.066612016 0.011117226 0.020111291
v 0.037053126 -0.005500000 0.170843747
v 0.028379569 0.004027027 0.172600269
v -0.025662647 0.002983196 0.185196011
v -0.016731942 0.002469607 0.078462608
v -0.037694813 0.017250001 0.144364972
v -0.088576200 -0.000651990 0.035241455
v 0.040435832 0.001674435 0.019765271
v -0.040766647 0.005860183 0.195667721
v -0.020500001 0.003289937 0.204110916
v -0.018999999 -0.000411219 0.200804425
v -0.089766398 0.009827952 0.048350669
v -0.019781978 0.002641739 0.093110304
v -0.005399372 0.002053303 0.198611802
v -0.122366986 -0.020478161 0.091134087
v 0.044766128 0.003959512 0.038402895
v 0.013624878 0.002508275 0.193447523
v 0.024499999 0.000989559 0.169440733
v 0.045000002 0.016785907 0.064161576
v -0.116483859 -0.002600133 0.072501856
v 0.028638798 0.010947696 0.074228815
v 0.010343333 0.005348282 0.197636656
v -0.126511561 -0.022475134 0.086006512
v 0.014242588 -0.005078689 0.199298147
v -0.055692628 0.009997485 0.022503492
v -0.116785839 -0.019942596 0.077560613
v -0.090395183 -0.001427725 0.042935361
v -0.112444523 -0.016294486 0.077186551
v 0.003000000 0.000500000 0.184000000
v 0.030508617 0.007927228 0.182999998
v 0.002347545 0.003801181 0.199558599
v -0.094003339 -0.003996676 0.040625403
v -0.085670334 0.009977123 0.048462538
v -0.124147061 -0.019754658 0.084054204
v -0.012928308 0.020370386 0.099166684
v -0.005543030 0.002579728 0.192718273
v 0.012577830 -0.003523943 0.184000000
v -0.018999999 0.000826792 0.197424939
v -0.013637907 0.000250000 0.012075115
v -0.026166818 0.003961540 0.030256690
v -0.116540885 -0.027186868 0.078010962
v -0.018500000 0.017312501 0.183645479
v 0.018472385 0.014878806 0.090793366
v 0.028569926 0.001182390 0.170691949
v 0.027140692 0.009220526 0.001169348
v 0.018999999 0.002500000 0.187625001
v -0.064135537 -0.000879306 0.018061832
v -0.066614925 0.001604235 0.016142287
v -0.067854620 0.002846005 0.015182514
v -0.026201556 -0.003000000 0.061330349
v 0.023234148 0.006855528 0.055636540
v -0.013925943 0.014613552 0.179743764
v 0.010568018 0.007227861 0.192112001
v -0.019694421 0.000431205 0.068895986
v -0.033809040 -0.003000000 0.043842913
v 0.015787238 0.020625000 0.100207154
v 0.018999999 0.000098751 0.187649801
v -0.038437499 0.000000000 0.065179540
v 0.005250000 0.002500000 0.183148436
v -0.012294964 0.003381102 0.203935797
v 0.037092982 0.006181132 0.182999998
v -0.011211601 0.019500000 0.104297360
v -0.002000000 0.001107728 0.200538095
v -0.003835788 0.002894334 0.191273553
v -0.008740653 0.016000001 0.148631972
v 0.017551437 0.000943836 0.059861095
v -0.008375000 -0.005500000 0.188999996
v -0.004887502 0.001430138 0.192432732
v -0.117988864 -0.022206672 0.087898270
v 0.024499999 -0.000834508 0.170014679
v -0.118854348 -0.020640347 0.078858879
v -0.016579481 0.004575764 0.194068669
v -0.067678114 0.004734496 0.021565547
v 0.035209946 0.006793251 0.175488618
v -0.012500000 0.021000000 0.094999999
v -0.018312500 0.002500000 0.205734375
v 0.017796875 0.017250001 0.094999999
v 0.024203125 0.002767169 0.166148441
v -0.124501825 -0.023761655 0.083162621
v 0.010381734 0.016000001 0.096583610
v -0.006761353 0.002839353 0.201654925
v 0.013750258 0.016528363 0.189101658
v -0.028661859 -0.003000000 0.070326632
v -0.014285303 0.000140243 0.197893617
v -0.115889147 -0.020114847 0.079699659
v 0.009361868 -0.005500000 0.188913610
v -0.006379540 0.001711144 0.200809356
v -0.112164544 -0.022644555 0.085279697
v 0.018999999 0.002500000 0.191500001
v 0.010546875 0.009312500 -0.029177109
v -0.115090979 -0.027233896 0.083121873
v -0.002000000 0.001230757 0.191620698
v -0.120443810 -0.025047173 0.076194487
v 0.023622716 0.004488854 0.181868673
v 0.033210588 0.000000000 0.018364044
v -0.026734375 0.002500000 0.180999994
v 0.003000000 -0.000787488 0.185280318
v 0.039000001 0.003192554 0.173276126
v -0.122360334 -0.027014602 0.080258489
v -0.009396160 0.015701738 0.206479681
v -0.013066914 0.002573298 0.190932018
v -0.014965921 -0.000643442 0.191622583
v -0.116797564 -0.022120720 0.082029487
v -0.005227384 -0.001892351 0.188999996
v -0.018999999 -0.000857789 0.195991541
v 0.036629971 -0.004068386 0.168173501
v -0.032764008 -0.000739279 0.180999994
v -0.024194212 0.000405358 0.063183228
v -0.029981573 -0.000829122 0.183211262
v 0.033283190 0.002666772 0.177170675
v -0.126106015 -0.019067828 0.091244280
v 0.002566681 -0.002625000 0.081388590
v 0.018808389 0.000767384 0.029987543
v -0.039999999 -0.003046424 0.181848521
v 0.019388914 0.011084663 0.094999999
v -0.012057691 0.003816567 0.191038758
v 0.007483681 0.021000000 0.097436797
v 0.036209838 0.019079439 0.090744326
v -0.130756640 -0.024301621 0.086741353
v -0.005094457 0.001355577 0.195417034
v -0.023005975 0.000260648 0.079150976
v -0.007640625 0.002500000 0.206000000
v -0.002000000 -0.001261005 0.191523269
v -0.008065420 -0.003801296 0.188999996
v -0.123987072 -0.024830054 0.086257727
v -0.024248073 0.002818179 0.180292966
v -0.010417706 -0.000088218 0.197969043
v -0.020269279 0.019553572 0.094999999
v -0.010484087 0.004652478 0.192544959
v 0.004276210 0.001123235 0.184000000
v 0.009629478 -0.003000000 0.024938120
v -0.041499998 0.005127118 0.185507788
v -0.004285795 -0.005500000 0.200627835
v -0.054959803 0.017995385 0.021524111
v -0.040187499 0.002500000 0.188851557
v -0.008355494 0.000012218 0.188999996
v -0.012732725 0.004043314 0.196924253
v -0.018999999 0.001032597 0.192485736
v -0.009159272 0.006069711 0.190149844
v -0.114130516 -0.003362083 0.068615972
v -0.015844360 0.017766250 0.092395732
v -0.038904940 0.004177188 0.178664891
v -0.090718040 0.007939739 0.049974037
v -0.026552300 0.004894291 0.074858390
v 0.037500001 0.002500000 0.178562495
v -0.004661243 -0.000722869 0.197666030
v -0.113706787 -0.022524648 0.082066491
v 0.013687348 -0.000008711 0.200000003
v 0.037500001 0.002500000 0.174093746
v -0.012213778 0.018892588 0.094335918
v 0.033204706 -0.003000000 0.066633717
v -0.007709787 0.018047983 0.091642345
v -0.004506647 0.000802294 0.197309567
v -0.126883211 -0.028356770 0.084295215
v 0.029406375 -0.003210572 0.167999998
v 0.018999999 0.000408464 0.192509113
v -0.115502595 -0.022163600 0.073542963
v -0.007540735 -0.002805126 0.198715646
v 0.011405859 0.018825487 0.090754283
v 0.019495261 0.018287445 0.092433512
v 0.015934261 0.002862096 0.190950963
v 0.018999999 0.000807024 0.198328839
v -0.009152380 -0.005500000 0.202160294
v 0.023730823 -0.003000000 0.023399875
v 0.025597848 0.001268154 0.167999998
v 0.004952711 -0.001279188 0.194066050
v -0.114735230 -0.021203279 0.085127966
v -0.124718055 -0.026374539 0.083736604
v 0.007786456 -0.000481720 0.184000000
v -0.091989134 -0.000461497 0.046244319
v -0.119320720 -0.014924062 0.086110853
v 0.014671875 0.002500000 0.184000000
v 0.024499999 0.000871692 0.172082130
v -0.014451169 -0.003000000 0.069886230
v -0.116646168 -0.016217072 0.078036894
v 0.009125000 0.021000000 0.094999999
v -0.004436653 0.002418449 0.196391137
v -0.063952658 0.004544223 0.020540600
v -0.114858840 -0.022245482 0.077855510
v 0.032017906 -0.001511841 0.177711318
v -0.117881497 -0.017321589 0.084222973
v -0.040187499 0.002500000 0.183343744
v 0.027963484 -0.001465703 0.172397436
v -0.118756772 -0.020513197 0.074477179
v -0.092746979 0.002518707 0.042743725
v -0.007498054 0.001995096 0.192055492
v -0.002622087 0.000734383 0.089013553
v -0.007144529 0.003483678 0.191400478
v 0.017813049 -0.004773570 0.190830645
v 0.027001018 0.000412654 0.167999998
v 0.009231543 0.001289839 0.189977150
v -0.029122569 -0.003000000 0.034212202
v -0.123193483 -0.004028797 0.078890834
v 0.025767429 0.003712379 0.179155966
v 0.018999999 -0.001396291 0.196166760
v 0.036542775 0.019347921 0.166073584
v 0.011500405 0.002059882 0.186911246
v -0.026998209 0.016000001 0.175196436
v 0.006833189 0.017313960 0.202000007
v -0.009772903 0.005529189 0.199040204
v -0.116114366 -0.013980665 0.083274278
v 0.013232231 0.000540103 0.195709411
v -0.117097350 -0.028865098 0.083602934
v 0.035302652 0.017644811 0.130895030
v -0.034089375 0.004599680 0.192326055
v -0.030581959 0.009015482 0.067902603
v -0.027779545 0.018247461 0.156676391
v -0.110888162 -0.015125442 0.080422139
v 0.033236640 0.016000001 0.096626520
v 0.035826596 0.003030022 0.179804436
v -0.012531144 -0.001422735 0.194899608
v -0.124157339 -0.030806895 0.085543056
v 0.015189386 -0.000696068 0.191637134
v -0.111001063 -0.026721684 0.078501826
v -0.009380854 0.002997777 0.192709329
v 0.039844326 0.018087704 0.091207372
v 0.009926002 -0.001927341 0.190971345
v 0.030786264 0.003870279 0.165000007
v -0.009145612 0.002795807 0.196379464
v 0.011799937 0.003914733 0.189023120
v -0.011393749 0.002500000 0.188249998
v 0.018423576 -0.001719607 0.200000003
v -0.126124871 -0.022648684 0.089729111
v -0.001812500 0.002500000 0.198363279
v -0.111166085 -0.025511963 0.075761252
v -0.070960029 0.011068381 0.025664229
v -0.092238315 -0.001791356 0.038463859
v -0.065366068 0.019112641 0.028846560
v 0.036798946 -0.005500000 0.175738511
v -0.010773303 0.004483640 0.196773565
v -0.039999999 -0.001086671 0.185696797
v -0.018930819 -0.004378044 0.194403500
v -0.111654732 -0.018564542 0.084442873
v 0.016789313 0.002557678 0.043225179
v 0.016000000 0.000000000 0.085000001
v -0.035250667 0.000985051 0.192656486
v 0.036912814 0.018482444 0.158468544
v -0.056623035 0.002754111 0.014077678
v -0.015393315 0.002901755 0.193476243
v 0.037999999 0.000000000 0.031171875
v -0.039999999 -0.003538887 0.193953653
v -0.117277672 -0.025571914 0.080738579
v -0.020604280 -0.000101299 0.072769818
v 0.009960937 0.002500000 0.183625000
v -0.119783248 -0.027144659 0.079327382
v -0.113088909 -0.019679315 0.079936704
v -0.013883695 0.003254861 0.196656801
v -0.125288543 -0.026192375 0.087449146
v 0.028175464 -0.003738679 0.177723237
v -0.016872322 0.001121682 0.188999996
v -0.002812500 0.019703125 0.146614764
v -0.002000000 -0.001883458 0.197646085
v -0.012894398 0.002308667 0.195423205
v -0.040206600 0.014886280 0.193786611
v 0.018861517 0.000822560 0.184875000
v -0.117654575 -0.025223204 0.076136313
v -0.117370677 -0.027221296 0.086082757
v -0.035796084 -0.005500000 0.192845026
v 0.008774934 0.003358933 0.064117293
v -0.111964993 -0.016358919 0.088968962
v 0.013416286 -0.005500000 0.189548137
v 0.003000000 -0.004910064 0.186500000
v -0.039260857 -0.005084933 0.189108465
v -0.025873696 0.011227013 0.147138279
v -0.024152597 0.022000000 0.085158971
v -0.034818112 0.002912405 0.185225897
v 0.034177744 0.004175182 0.179891423
v 0.028243243 -0.001161395 0.178634528
v -0.122130850 -0.023080343 0.088191233
v 0.023750000 0.002664730 0.169876671
v -0.024266388 0.000262325 0.071107227
v -0.109702022 -0.017249918 0.089078644
v -0.016309446 -0.003000000 0.074247145
v 0.016331275 -0.002910942 0.184000000
v 0.012489402 0.004053424 0.110263513
v 0.005801951 -0.005500000 0.191121269
v -0.031992265 -0.003199392 0.183872092
v -0.008104252 0.004053471 0.196165678
v -0.014202945 0.002074615 0.197840475
v -0.036421063 -0.002230251 0.180999994
v -0.115160798 -0.019165243 0.083485231
v -0.030342827 -0.003103325 0.180999994
v -0.010351123 -0.002019315 0.188999996
v 0.030862889 -0.001181057 0.174475823
v 0.003000000 0.000169643 0.198049110
v -0.034818096 -0.001190491 0.184272396
v 0.016332075 0.004351130 0.186997535
v -0.111874578 -0.012584608 0.082743067
v -0.005998917 -0.002947831 0.206000000
v -0.005276519 0.000617954 0.200235072
v -0.015233683 0.000682256 0.069341012
v -0.036729914 -0.005500000 0.186781344
v -0.122371117 -0.027209065 0.084584551
v -0.014875000 0.002500000 0.188999996
v 0.031593751 0.002500000 0.181343745
v -0.040570534 0.002754806 0.196999997
v -0.013515956 0.003757284 0.193945448
v -0.011822837 0.000226829 0.191554242
v -0.027618104 0.001585654 0.188688420
v -0.025012239 0.019750001 0.143674476
v -0.009680824 0.000575717 0.193940549
v 0.034913828 0.003205118 0.174012737
v -0.019494629 0.000241801 0.027492653
v -0.031760157 -0.003781062 0.188819118
v 0.014396182 0.003790888 0.196987509
v -0.031360510 -0.001402548 0.187595253
v -0.089770533 0.004985323 0.042090536
v -0.005737858 -0.005500000 0.197198170
v -0.005958870 -0.005500000 0.195057373
v -0.126241871 -0.025128841 0.088555811
v -0.039449949 0.000883163 0.195999995
v -0.031575228 0.000924104 0.184486548
v -0.036901790 0.019968750 0.141151417
v -0.014120479 0.006967785 0.051850734
v -0.035819458 -0.005500000 0.184355594
v -0.110099658 -0.023139112 0.081972714
v -0.030017271 -0.001899825 0.191977682
v 0.015243543 -0.003267503 0.191157905
v 0.023000000 0.012959768 0.149068006
v 0.016548094 -0.003229215 0.193666889
v 0.027624871 0.002500000 0.167526390
v 0.030236279 0.004209286 0.179731189
v -0.114682671 -0.019110219 0.078076682
v -0.009250000 0.002500000 0.188999996
v 0.005939366 -0.003482439 0.186292065
v 0.019750000 0.002500000 0.196875002
v 0.016352008 0.018644874 0.093874563
v 0.016293280 -0.000480351 0.186921643
v -0.004464374 -0.003000000 0.068847910
v 0.034326753 -0.002249064 0.175296315
v -0.009250423 0.014682806 0.101000004
v -0.113443396 -0.028935319 0.078792437
v -0.009291553 -0.001801647 0.203980649
v -0.014836433 0.004256933 0.196870881
v -0.009038708 -0.005500000 0.193053394
v -0.030563721 0.000747736 0.070863169
v -0.119275568 -0.015910003 0.091514817
v 0.033551647 -0.005500000 0.174626356
v -0.007475399 0.000460420 0.203730950
v 0.017108242 0.000080424 0.200000003
v 0.003000000 0.001100411 0.186548277
v 0.026739884 0.000249350 0.170724280
v 0.014132577 -0.001500000 0.021945916
v 0.003000000 -0.004860243 0.191845681
v 0.035809856 0.002436542 0.177294561
v -0.013804724 0.005266954 0.032145446
v -0.016881035 0.001747851 0.201186040
v -0.005297233 -0.001459051 0.199784640
v 0.037250001 0.002500000 0.180999994
v 0.013893538 0.002000000 -0.013548751
v -0.016416423 0.003153703 0.197061188
v -0.110967612 -0.019636566 0.087625464
v 0.029340826 0.002525324 0.173548835
v -0.029021215 -0.005500000 0.181455994
v -0.007234951 0.000127940 0.206000000
v -0.116307531 -0.015019921 0.089201116
v -0.007109467 -0.002476922 0.191739947
v -0.024000000 0.002500000 0.191722651
v -0.032498380 -0.005028329 0.182102907
v 0.019006715 0.003678938 0.183345782
v -0.009048210 0.002000876 0.201752413
v -0.002000000 -0.003364376 0.191288215
v -0.024000000 -0.002294517 0.189969300
v -0.009460876 -0.003000000 0.027146005
v 0.003000000 0.000329640 0.190607017
v -0.034204531 -0.005500000 0.195344052
v -0.024000000 -0.001306958 0.184285994
v -0.037663499 0.001322183 0.186313679
v -0.005190208 -0.001605358 0.195591530
v 0.021455442 -0.003000000 0.042321937
v -0.016840418 -0.004505061 0.188999996
v 0.012898547 0.000129789 0.186749730
v 0.004891390 0.000930537 0.200000003
v -0.025957839 0.003351429 0.182285119
v -0.027219663 -0.001749054 0.187747051
v -0.010508801 -0.003104677 0.193155621
v -0.063597990 0.010922965 0.026052874
v -0.113741072 -0.021219267 0.089160090
v -0.121974467 -0.019270831 0.087210302
v -0.025541710 -0.004958290 0.180999994
v -0.007686698 -0.005261439 0.205621550
v 0.007119905 -0.002879509 0.190652139
v 0.026677062 -0.001056981 0.169679904
v 0.023927332 0.008031054 0.168638520
v -0.018999999 -0.002431736 0.191909281
v -0.024266898 0.000315225 0.195039516
v 0.037500001 -0.000888347 0.179738371
v -0.014210674 -0.001926469 0.206000000
v 0.026375000 0.002500000 0.180999994
v -0.010642462 -0.005500000 0.204604738
v -0.000875000 0.003492992 0.189895829
v 0.012396840 -0.002409792 0.193865091
v -0.034521305 -0.003810578 0.181243756
v -0.006578887 0.001694652 0.188999996
v -0.035734347 -0.002211330 0.187360578
v -0.005891159 0.003664192 0.186455081
v 0.008709050 -0.000587647 0.187782161
v 0.003000000 -0.003005818 0.189407443
v 0.004740157 0.017764260 0.181071310
v 0.027662711 0.002575128 0.178298633
v -0.002000000 -0.001560118 0.201901812
v -0.028095043 -0.005500000 0.184615769
v -0.036507667 -0.002493293 0.192151610
v 0.007328125 0.002500000 0.200000003
v 0.033762154 -0.001544967 0.180999994
v -0.120833386 -0.027232314 0.090541125
v -0.026481736 0.000979588 0.180999994
v -0.018344040 -0.004867497 0.206000000
v 0.029187393 -0.005500000 0.175759652
v 0.031730627 -0.005500000 0.171287305
v -0.010244831 -0.003845638 0.204335294
v -0.119164043 -0.013857995 0.089018221
v -0.005046887 -0.005500000 0.203615458
v 0.011648589 0.001013576 0.029012166
v -0.029097497 0.018174335 0.145531833
v -0.038681968 -0.005500000 0.195231998
v -0.031647627 -0.003099830 0.195999995
v 0.006778906 0.002591788 0.189611982
v 0.009661317 -0.003000000 0.050773145
v -0.119246260 -0.027693785 0.087894048
v -0.127479662 -0.020426831 0.091053976
v -0.036755329 0.000776876 0.180999994
v -0.018712719 0.000028075 0.189150791
v -0.038310303 -0.003460190 0.183067017
v -0.029531602 0.000542672 0.191487079
v -0.039999999 -0.000186185 0.193555103
v -0.011423740 -0.002111365 0.190636229
v -0.011522549 0.000913212 0.200950704
v -0.033310098 -0.002023228 0.191556698
v 0.036952440 -0.005167318 0.179373480
v -0.035191050 0.000509326 0.189748897
v -0.034130280 0.004030310 0.022427965
v -0.113601268 -0.013779412 0.086579445
v 0.010502639 -0.005500000 0.185060818
v -0.116266005 -0.018860414 0.088812751
v 0.005276949 -0.005500000 0.198714201
v 0.011939942 0.000394543 0.073233199
v -0.035223206 -0.005500000 0.189521277
v -0.031393091 -0.005500000 0.189730444
v -0.014783335 0.000255347 0.200625384
v 0.003000000 0.000949041 0.195700784
v -0.012807710 -0.003000000 0.061493593
v -0.006153004 -0.000596439 0.194474172
v -0.038194674 -0.004887724 0.181325803
v 0.002752499 -0.003000000 0.027749468
v -0.038776874 -0.005500000 0.184261560
v 0.003617370 -0.005353133 0.189158660
v -0.119886876 -0.024302677 0.086244220
v -0.018101470 -0.005355021 0.190790810
v 0.012627318 -0.000938289 0.197745025
v -0.016130865 -0.003502347 0.206000000
v -0.014653317 0.000221158 0.076058472
v 0.035716399 0.000514293 0.180999994
v 0.014762798 0.003785282 0.023040919
v -0.002042508 -0.003000000 0.024718334
v 0.036682212 0.003558457 0.177471074
v 0.028503830 0.000601024 0.175174166
v -0.010825870 0.002183884 0.198453630
v -0.004500000 0.021000000 0.094999999
v -0.119384511 -0.030585813 0.084143234
v -0.002000000 -0.003217048 0.194609594
v 0.004841962 -0.001880921 0.184073742
v -0.123389911 -0.029255640 0.087326211
v -0.012360043 0.001103020 0.203658686
v 0.037500001 0.001665039 0.176878298
v 0.018574459 -0.005333179 0.187830119
v -0.032449728 0.002311862 0.190904500
v -0.008032400 -0.002860704 0.195739913
v 0.014806080 -0.000029293 0.184000000
v 0.037500001 -0.001793449 0.176850905
v -0.109672559 -0.013231280 0.083715763
v 0.029361040 -0.005223113 0.179852443
v 0.032282277 0.002500000 0.166875190
v 0.024499999 0.002041739 0.178968745
v 0.004171113 0.001584935 0.197696429
v 0.007795411 0.000722573 0.195850328
v 0.018999999 -0.002497025 0.188204010
v 0.027476026 -0.005149419 0.167999998
v -0.111860587 -0.018648078 0.077794820
v 0.036090823 0.017776707 0.100561609
v 0.007723878 -0.005500000 0.187446490
v -0.089563451 0.006075063 0.047235869
v 0.018999999 -0.002753863 0.192237325
v -0.010179454 -0.002855610 0.202098641
v -0.121722823 -0.029927118 0.083466561
v -0.007603018 0.005223605 0.192559635
v 0.011904389 -0.005500000 0.196007290
v -0.016500000 0.021000000 0.094999999
v -0.111596012 -0.019898501 0.082492746
v 0.010113222 -0.005500000 0.192114565
v -0.039999999 -0.000156862 0.189339710
v 0.018278719 -0.005345441 0.196977281
v -0.011487512 -0.003463273 0.206000000
v -0.115723089 -0.016916723 0.091219053
v -0.118485681 -0.023683522 0.080394015
v 0.004877612 0.000671821 0.028658680
v -0.012624544 -0.005500000 0.202991963
v 0.033313212 -0.004284901 0.180999994
v -0.012279885 0.000301379 0.051153212
v -0.039999999 -0.002595106 0.190418637
v -0.029240259 -0.003000000 0.022128605
v -0.018893798 0.005839803 0.139700965
v -0.118996558 -0.021132701 0.091423935
v 0.032762029 -0.000235531 0.172298935
v -0.026580834 -0.005500000 0.192150977
v -0.011319978 -0.005500000 0.196110574
v -0.000780447 0.008010077 0.067267101
v 0.035767354 0.016663321 0.139113109
v 0.001886093 0.004342008 0.181374995
v 0.031684700 -0.005500000 0.178517998
v -0.010652981 -0.002890667 0.198255993
v -0.034371168 -0.003311922 0.195999995
v 0.037500001 -0.000589403 0.173799383
v -0.124398089 -0.031976003 0.087898871
v -0.024997098 -0.003051937 0.195933371
v -0.028565893 -0.001865889 0.195999995
v -0.016637017 -0.005500000 0.194014622
v 0.004508029 0.002071493 0.034086960
v -0.007598714 -0.005500000 0.200012465
v -0.022496059 -0.003000000 0.071962047
v -0.123202648 -0.014662619 0.093193675
v -0.110015289 -0.021614540 0.078757376
v -0.039842505 -0.004901887 0.182635179
v -0.020500001 0.006153284 0.200426900
v 0.015689440 -0.001258617 0.196242784
v -0.121295921 -0.025026743 0.083769997
v -0.013077073 0.005053003 0.208000004
v -0.039999999 -0.003408000 0.186496927
v -0.030417980 -0.005500000 0.186547949
v 0.031294472 0.004915594 0.094374999
v -0.028033568 -0.005500000 0.189464835
v -0.018999999 -0.002869383 0.198154103
v -0.002339586 -0.005217937 0.192351725
v -0.118811799 -0.019738151 0.086576924
v -0.026912035 -0.000520186 0.190030173
v -0.018999999 -0.002545700 0.200384473
v 0.031101802 0.001293604 0.167999998
v -0.036885347 -0.003430583 0.190072624
v -0.002500000 0.020375000 0.095812499
v -0.018848487 -0.004050962 0.203531447
v -0.005563714 0.005520669 0.195667803
v -0.003064708 -0.005119341 0.195895753
v 0.030051325 0.000132770 0.180999994
v 0.035098161 0.013110016 0.091803791
v -0.002363753 -0.004938613 0.202401182
v 0.026855566 0.000909203 0.180999994
v -0.119108035 -0.018430405 0.091696316
v -0.018710225 -0.002875000 0.188999996
v -0.016791209 -0.000463794 0.203418067
v 0.030550459 -0.005500000 0.174204423
v 0.005151773 -0.003000000 0.042392936
v 0.008648208 0.015686303 0.145490973
v -0.013612700 -0.005178603 0.205856120
v -0.107982703 -0.015576381 0.083696754
v 0.004253753 0.008774076 0.139347677
v -0.034805746 -0.002097732 0.194585535
v -0.108737992 -0.018409562 0.086333084
v 0.008146984 0.018839953 0.092995580
v -0.003649515 -0.005067108 0.189612606
v -0.000500000 0.005148125 0.200879122
v -0.013502293 -0.003045716 0.201996623
v -0.012327780 -0.005500000 0.193546153
v -0.012350760 -0.004008988 0.191202775
v -0.128006526 -0.024449751 0.086735858
v -0.002000000 -0.003956778 0.199848848
v 0.011880061 -0.002047815 0.200000003
v 0.025337507 -0.005162773 0.173078529
v -0.107661462 -0.018598464 0.083934889
v -0.127147650 -0.026801564 0.086779062
v 0.017495419 -0.005500000 0.193461898
v -0.087092216 0.002386317 0.043603741
v -0.016959265 0.018396597 0.139197109
v -0.113460995 -0.020489312 0.070958399
v -0.002858107 -0.004896723 0.205698405
v 0.018500000 0.018030121 0.097670891
v -0.024453368 -0.004962176 0.184196871
v -0.007326602 0.000257276 0.196670588
v -0.002580860 -0.005081671 0.198087579
v 0.024499999 -0.005025065 0.169651152
v -0.015389591 -0.005500000 0.197068217
v 0.003000000 -0.002561774 0.187339150
v -0.120770476 -0.030555633 0.086160100
v 0.034429411 -0.002964290 0.170330109
v 0.024499999 0.000602441 0.176246125
v -0.005295871 0.000437880 0.069419506
v 0.010306850 -0.001831842 0.197329832
v -0.008568612 0.000523514 0.034396349
v 0.018999999 -0.004246203 0.199363994
v 0.016162898 -0.002425557 0.200000003
v -0.119558824 -0.016269885 0.088957962
v -0.011072593 0.022000000 0.079326767
v 0.026538350 0.004966395 0.138999999
v -0.027016531 -0.004003221 0.191188092
v 0.039000001 0.017054660 0.142777964
v -0.000451258 0.000000000 0.018048160
v -0.059033532 0.000176477 0.015753788
v -0.019070650 0.014991389 0.096128604
v -0.024481253 -0.000504315 0.181324471
v 0.003306138 -0.004460780 0.184733082
v -0.110730368 -0.011698455 0.080918877
v -0.002130474 -0.002753112 0.204403531
v -0.026769691 0.001074295 0.185550257
v 0.029238546 0.013403719 0.151678414
v 0.026178388 -0.002356163 0.168131936
v 0.006374228 -0.001145044 0.200000003
v 0.037220608 -0.003164309 0.180161749
v 0.010156342 -0.003566959 0.184000000
v -0.128635267 -0.026230238 0.085244350
v 0.015206432 -0.005500000 0.196154295
v -0.011483569 -0.000299855 0.206000000
v -0.041174363 0.020138849 0.095198092
v -0.117647302 -0.024898794 0.089444954
v -0.013802896 -0.005500000 0.189546602
v 0.013907976 -0.005339557 0.184446183
v 0.012727636 -0.005500000 0.186484244
v 0.027337640 -0.002048365 0.175115454
v -0.000617281 -0.003000000 0.057399768
v 0.011301862 -0.000163974 0.184000000
v 0.018169272 -0.000980329 0.184469797
v -0.011576869 0.014866982 0.145999998
v -0.010600011 -0.005154521 0.190053173
v -0.118279694 -0.018451865 0.094129355
v -0.013664405 -0.003704948 0.196428692
v 0.003000000 -0.001337068 0.195480431
v -0.117055299 -0.020153051 0.094820415
v -0.024000000 0.000411938 0.190267672
v -0.032764663 -0.005500000 0.193589493
v -0.030971136 0.001098700 0.180999994
v -0.113620595 -0.018104857 0.087578217
v -0.014993860 -0.005500000 0.191770500
v 0.018999999 -0.003966495 0.194964108
v 0.024499999 -0.001685849 0.172982063
v -0.109468521 -0.017818339 0.080991454
v -0.036589396 -0.000159204 0.195999995
v -0.026642023 -0.003930691 0.193580964
v 0.034527842 -0.005500000 0.178846677
v -0.013937501 0.002500000 0.206000000
v 0.019111867 0.006274790 0.159775581
v 0.016874980 -0.005500000 0.198789812
v -0.012386457 0.003742379 0.186375003
v 0.006918664 -0.002896867 0.194248106
v -0.122094964 -0.021848246 0.094865434
v -0.028008487 -0.002152921 0.180999994
v 0.006758189 0.020000000 -0.016125128
v 0.037500001 -0.003878372 0.174609786
v 0.033953240 -0.005378644 0.168681040
v 0.037500001 -0.003501649 0.170514873
v 0.034941991 0.000308804 0.177995996
v -0.014291826 0.001792214 0.190978346
v -0.039256371 -0.000881438 0.180999994
v -0.032194018 0.000225371 0.195999995
v 0.010030657 -0.003789122 0.194633190
v 0.032073676 -0.002159871 0.171249505
v -0.016266231 0.002771510 0.203857908
v -0.026351572 -0.005216167 0.195388812
v -0.124237647 -0.023602261 0.091580714
v 0.003298251 -0.002000000 0.199739759
v 0.011218643 -0.005122945 0.199168522
v 0.003000000 0.002500000 0.193875002
v -0.003103163 0.001300357 0.206000000
v -0.065430351 0.016672324 0.031242316
v 0.028763056 0.006967015 0.131458602
v 0.007837105 -0.005343456 0.199302814
v 0.009387033 0.000866875 0.186305412
v 0.012020310 -0.000444065 0.190413173
v -0.025745544 0.018784075 0.179219061
v -0.014962207 0.004843147 0.190514322
v -0.009192291 -0.003000000 0.079879131
v -0.043906252 0.000000000 0.078130427
v 0.005759794 -0.003328314 0.200000003
v -0.029662299 -0.005500000 0.192938132
v -0.000525164 0.017626845 0.094999999
v -0.114111420 -0.015731869 0.082084398
v -0.003042466 0.000873593 0.188999996
v 0.026187949 0.020062500 0.140180374
v -0.018237688 -0.005267755 0.196849546
v 0.024499999 0.000812287 0.180039457
v -0.033799718 0.002574842 0.196499996
v 0.037500001 -0.001026962 0.170299324
v 0.029504680 0.003678617 0.182749997
v -0.005306232 0.002136387 0.194217000
v -0.015902578 -0.002475824 0.198868463
v 0.030818588 -0.005205860 0.168822042
v -0.128546175 -0.028354131 0.084465170
v -0.108218477 -0.021393195 0.081801776
v -0.029724227 0.003684503 0.189078533
v 0.005407159 0.019875000 0.101177253
v 0.035387193 -0.001500000 0.047960355
v -0.019131163 0.005423033 0.067950881
v -0.115633992 -0.023185234 0.089061486
v -0.027009588 0.002023660 0.038097280
v -0.015570721 -0.000958897 0.188999996
v 0.003000000 -0.005250000 0.199000003
v -0.036441466 0.001670915 0.183576876
v -0.024472417 -0.002896821 0.181513157
v -0.009406250 0.002500000 0.186375003
v 0.007771515 -0.005500000 0.194844065
v -0.122448752 -0.029939759 0.088863643
v 0.036333178 -0.005500000 0.172820967
v -0.110336343 -0.012290247 0.082261637
v 0.015976563 0.002500000 0.200000003
v -0.026723075 -0.005500000 0.187101243
v -0.039279184 -0.005188310 0.192402081
v 0.025407011 -0.004889813 0.177748508
v 0.004427588 -0.005212388 0.194843230
v -0.003745436 0.001921191 0.202991606
v 0.009690349 -0.005500000 0.197498951
v -0.024000000 0.000833961 0.182647936
v -0.025359565 0.000000000 0.016947415
v 0.032468803 -0.002290052 0.167999998
v -0.121805364 -0.024713317 0.080734978
v -0.029444782 0.006297966 0.185859354
v 0.024499999 -0.001700219 0.177540705
v -0.029133924 -0.004617685 0.195687822
v -0.012222548 -0.005500000 0.199535778
v 0.010274669 0.007520980 0.181185514
v 0.005668523 -0.005232903 0.185064791
v 0.008952704 -0.003406162 0.187848189
v 0.014333661 -0.003000000 0.064732694
v 0.028962228 0.000124992 0.025052531
v -0.113379905 -0.027219029 0.080930993
v -0.024000000 0.002500000 0.184281244
v -0.013772324 -0.001414712 0.204038036
v -0.110010486 -0.024324544 0.078684017
v -0.013088427 -0.003218743 0.188999996
v -0.114437610 -0.019136280 0.092754780
v 0.024499999 -0.003361130 0.171140109
v 0.036286731 0.001419679 0.176029313
v -0.108980061 -0.015132184 0.086246261
v 0.019818413 0.000000000 0.012792147
v -0.025570037 0.016777329 0.143367484
v 0.034616463 -0.005500000 0.171639665
v -0.013060824 -0.003528139 0.193973994
v 0.016022594 0.007106263 0.077068938
v -0.018751145 0.022000000 0.085098155
v -0.015129360 0.000241020 0.206000000
v 0.006548730 -0.001998168 0.197418743
v 0.015209861 0.008315845 0.172548556
v -0.000053991 0.008074924 0.024777800
v 0.034388875 -0.000565279 0.167999998
v -0.114111625 -0.012090746 0.084778740
v -0.031226433 0.021093750 0.097102561
v 0.007656328 -0.004493184 0.184074504
v -0.017015452 -0.005436018 0.200945243
v 0.006992079 0.020375000 0.144913193
v -0.121380184 -0.017726196 0.094570090
v -0.026259460 0.006841993 0.102046353
v -0.122319015 -0.022531115 0.083924350
v -0.011738636 -0.000813321 0.199238449
v 0.003000000 -0.004475616 0.196749488
v 0.008025570 -0.003000000 0.033093306
v 0.013795994 -0.003381577 0.196203094
v 0.027315941 -0.005500000 0.171176343
v -0.119048855 -0.022855072 0.093899478
v -0.004999113 0.016582934 0.096796629
v -0.023134247 0.017861211 0.091210963
v 0.009286437 0.000239269 0.200000003
v -0.113669077 -0.024571476 0.073678240
v -0.125178578 -0.029202107 0.084057842
v -0.024402539 -0.004713047 0.188585031
v -0.123198218 -0.016786932 0.094215231
v -0.001437500 0.002500000 0.192984372
v 0.025474564 -0.001605162 0.180557739
v -0.106716767 -0.016889622 0.085558645
v -0.113237515 -0.024994959 0.083624613
v -0.122247533 -0.027150761 0.092473229
v 0.008846536 -0.002285530 0.200000003
v -0.017051366 0.003739851 0.174536693
v -0.002521873 -0.002711598 0.189240385
v -0.039693352 -0.005500000 0.186076568
v 0.035260122 -0.002680558 0.178726947
v -0.116153457 -0.020968105 0.092601015
v -0.015177128 0.019953447 0.092483398
v 0.017908225 -0.005374305 0.184520890
v -0.121784053 -0.019501995 0.096097518
v 0.040732932 0.002704963 0.091747656
v -0.111915265 -0.022989505 0.075919912
v -0.002000000 0.000371760 0.205148588
v -0.063741643 0.003211144 0.016876879
v -0.039515075 -0.002407607 0.195731230
v 0.031031330 -0.003335962 0.175665823
v -0.024336361 0.013244325 0.136247344
v 0.039000001 0.006110653 0.178583445
v 0.030271502 -0.000750000 0.083533793
v -0.112838191 -0.022938312 0.078991552
v 0.005349640 0.003346443 0.046790287
v 0.030800197 -0.003816285 0.172611111
v -0.024125000 -0.004538778 0.194183176
v -0.120507522 -0.025219897 0.092390831
v -0.123772600 -0.027830166 0.090372512
v -0.012059169 0.003179197 0.199004992
v 0.035658866 0.007447651 0.157230441
v -0.024000000 -0.001721257 0.193289272
v 0.035062501 0.002500000 0.167999998
v -0.013075635 0.000145033 0.188999996
v -0.123722138 -0.017797142 0.091711889
v -0.024000000 -0.002494342 0.186844192
v 0.033810725 0.001360209 0.173152775
v -0.035130858 0.019775755 0.147949824
v 0.025237542 0.017972536 0.099721858
v 0.024499999 -0.003750000 0.180404296
v -0.018999999 0.000323891 0.205166842
v 0.015935992 0.019396098 0.089652838
v -0.016731106 -0.002253848 0.201873877
v -0.010873206 0.007311193 0.154194691
v -0.038770230 0.002117267 0.194764504
v 0.015808568 -0.005500000 0.188390585
v -0.015344822 -0.002453526 0.194625065
v -0.120328704 -0.020924386 0.097008641
v -0.024145035 -0.004865707 0.190493286
v -0.005377703 0.004132439 0.025708452
v 0.023300780 0.000000000 0.018367197
v -0.028514141 0.002268117 0.192060493
v -0.113270652 -0.027412483 0.076901732
v -0.009377156 -0.002553405 0.206000000
v 0.037500001 0.001176190 0.178919423
v -0.003186013 -0.003000000 0.034803162
v -0.061590797 0.019321034 0.025900053
v -0.026620896 0.000211770 0.195999995
v -0.037999999 -0.003000000 0.022654152
v -0.003361566 -0.000901393 0.206000000
v 0.021532210 0.007660660 0.026059580
v -0.109704808 -0.020928547 0.084322771
v 0.029488724 0.000188710 0.167999998
v -0.039999999 0.000353559 0.183107235
v 0.036968300 0.000298369 0.167999998
v -0.124433254 -0.019694489 0.092976572
v -0.012948647 0.019271532 0.090381107
v -0.117355882 -0.024926331 0.085334783
v 0.027593190 0.004523641 0.176915587
v 0.016113985 0.001526386 0.189169402
v 0.025616701 0.001277404 0.179502281
v 0.005375000 0.021000000 0.094999999
v -0.018387696 0.008811611 0.102252192
v -0.120751755 -0.023566515 0.090767156
v 0.003000000 0.001000000 0.200000003
v -0.048884787 0.010401209 0.013857225
v -0.062425187 0.009818554 0.016004817
v -0.058290797 0.005182930 0.027554394
v 0.037538403 0.019709672 0.034662052
v -0.094548693 0.003237388 0.046000759
v 0.016912739 0.017570490 0.101931521
v 0.037500001 -0.002500000 0.167999998
v -0.005830612 0.005335156 0.144999999
v 0.029201558 -0.002857504 0.180999994
v -0.036927052 -0.003418453 0.195999995
v 0.025840420 0.001243759 0.074179374
v -0.019375000 0.002616337 0.200688257
v -0.002000000 0.000096886 0.195678314
v 0.007097198 -0.005500000 0.196717977
v 0.003000000 -0.002809467 0.193849050
v -0.017046898 0.001259150 0.206000000
v 0.025382442 -0.005167593 0.180542963
v -0.113098439 -0.021295058 0.075216199
v -0.122737810 -0.021172870 0.083146304
v 0.025734130 -0.005500000 0.175137500
v 0.006474609 0.018511306 0.090053819
v 0.045000002 0.016729333 0.090252751
v 0.016452447 0.019298752 0.142255902
v -0.008400968 0.000397903 0.199647705
v -0.007195286 -0.005500000 0.191291445
v -0.114744295 -0.011404627 0.070892508
v -0.008622008 0.001528213 0.196996883
v -0.119225517 -0.029067126 0.081387215
v 0.012829240 -0.002161847 0.187665297
v -0.122126403 -0.023958472 0.093948308
v -0.114037269 -0.025891495 0.075409220
v -0.035596951 0.004087896 0.197999999
v 0.010698434 0.000518368 0.023252165
v -0.024000000 0.000447635 0.186240765
v -0.025985189 0.013879261 -0.005211235
v -0.015915922 0.000264427 0.194257247
v -0.111747169 -0.006100263 0.056134039
v -0.066362688 0.006104734 0.015224273
v -0.031621026 0.012385765 0.183717698
v -0.059987870 0.015894987 0.016147729
v 0.013263321 0.004040213 0.202000007
v -0.041066405 0.017264036 0.184372646
v -0.000500000 0.012870183 0.201129212
v -0.104742839 -0.001809417 0.070191154
v -0.061511615 0.002369462 0.014440270
v 0.025000000 0.006500000 -0.010725000
v -0.018192782 0.002795399 0.188480410
v 0.005828124 0.000000000 0.018074654
v -0.113110367 -0.014321963 0.062517653
v -0.037999999 -0.003000000 0.027962457
v -0.007740450 0.007252316 0.186000004
v -0.003950457 0.017649775 0.093015435
v -0.023970903 0.022000000 0.091997899
v -0.009894986 0.021250000 0.009620150
v -0.041541980 0.000178056 0.052962359
v -0.033764294 -0.001104548 0.031070396
v -0.061042012 0.019593527 0.023232287
v -0.131192806 -0.026873369 0.082610988
v 0.031812246 0.012314825 0.165000007
v -0.064797008 0.009259629 0.017430219
v 0.013593749 0.000000000 0.016138517
v -0.009504617 0.019133456 0.087587626
v -0.002236662 0.014604261 0.131935168
v -0.055948567 0.015569383 0.017664865
v 0.003778723 0.015411807 0.101033891
v 0.009156265 0.000000000 0.016156977
v 0.005660315 0.005349466 0.015992022
v 0.021168753 0.018397285 0.088781439
v -0.060149433 0.018775943 0.020657650
v -0.064023023 0.011560611 0.018400145
v -0.035813431 -0.003000000 0.026635381
v 0.026585547 0.016618654 0.094999999
v -0.033565509 0.000237282 0.022562290
v -0.065491846 0.007249981 0.014741875
v 0.029500000 0.021000000 0.094999999
v 0.004320728 0.020230892 0.092442263
v -0.039230846 0.008647402 0.013734114
v -0.032828125 -0.000209384 0.016925769
v -0.046606268 -0.003038860 0.020993263
v -0.062828565 0.014095956 0.020071562
v -0.033385531 -0.001373855 0.026985918
v -0.063818901 0.010497646 0.014788254
v -0.004684642 0.019801400 0.089911516
v 0.024507827 0.021512965 0.091255692
v -0.032741470 0.002212298 0.028261721
v -0.051116808 0.007902065 0.039631734
v -0.062320478 0.017669246 0.022586138
f 502 491 1
f 1 491 1091
f 502 1 1091
f 161 2 9
f 9 2 324
f 2 161 1192
f 324 2 455
f 2 1116 455
f 1192 1116 2
f 254 3 4
f 4 3 255
f 3 5 11
f 195 5 3
f 78 9 3
f 9 326 3
f 11 77 3
f 77 124 3
f 125 78 3
f 124 255 3
f 254 125 3
f 3 326 195
f 255 254 4
f 5 189 11
f 189 5 143
f 195 143 5
f 6 7 11
f 6 233 7
f 11 155 6
f 155 505 6
f 505 233 6
f 7 8 91
f 7 1199 8
f 7 76 11
f 91 76 7
f 233 1199 7
f 8 256 91
f 1167 8 147
f 8 1199 147
f 1167 256 8
f 43 161 9
f 43 9 1148
f 1148 9 78
f 9 324 325
f 9 325 326
f 10 49 30
f 30 1192 10
f 49 10 1163
f 57 10 1097
f 1163 10 57
f 262 10 261
f 261 10 1191
f 262 1097 10
f 1192 1191 10
f 11 46 156
f 278 46 11
f 11 75 155
f 156 75 11
f 256 11 76
f 1148 77 11
f 121 11 189
f 121 278 11
f 11 256 1148
f 12 290 99
f 99 888 12
f 290 12 132
f 12 946 132
f 888 146 12
f 946 12 146
f 13 196 17
f 1076 13 17
f 13 541 196
f 13 283 541
f 1076 283 13
f 29 14 228
f 29 1059 14
f 14 41 228
f 41 14 590
f 14 283 590
f 283 14 1059
f 15 59 41
f 1059 15 41
f 59 15 42
f 15 138 42
f 138 15 1024
f 15 228 1024
f 15 1059 228
f 484 541 16
f 1076 484 16
f 577 16 541
f 577 1076 16
f 17 117 18
f 169 17 18
f 70 117 17
f 70 17 475
f 17 196 128
f 128 475 17
f 17 169 150
f 17 150 484
f 484 1076 17
f 18 117 1155
f 169 18 225
f 225 18 1155
f 239 19 185
f 19 1082 185
f 239 247 19
f 247 329 19
f 1045 19 329
f 1082 19 1045
f 20 40 1111
f 20 1176 40
f 111 20 608
f 111 1176 20
f 608 20 1111
f 668 21 96
f 21 673 96
f 21 668 673
f 28 473 22
f 1172 28 22
f 60 22 375
f 60 1103 22
f 375 22 61
f 22 473 61
f 22 750 495
f 22 495 1172
f 22 1071 750
f 1103 1071 22
f 23 90 187
f 1185 90 23
f 187 333 23
f 23 333 354
f 354 1185 23
f 24 32 25
f 122 24 25
f 32 24 257
f 257 24 122
f 32 1135 25
f 122 25 90
f 25 158 90
f 25 1135 158
f 481 116 26
f 116 939 26
f 26 119 157
f 26 939 119
f 26 157 481
f 177 212 27
f 177 27 242
f 27 212 229
f 229 1022 27
f 242 27 829
f 27 1022 829
f 129 28 223
f 129 1069 28
f 223 28 221
f 221 28 1172
f 514 473 28
f 28 1069 514
f 228 1059 29
f 49 332 30
f 332 1168 30
f 1199 30 1168
f 30 1199 1192
f 74 31 50
f 627 50 31
f 31 74 316
f 316 226 31
f 226 627 31
f 32 257 757
f 486 32 757
f 807 32 486
f 1053 32 807
f 1053 1135 32
f 192 33 54
f 33 1118 54
f 166 172 33
f 33 309 166
f 172 1150 33
f 309 33 192
f 1118 33 263
f 1150 263 33
f 126 284 34
f 503 126 34
f 142 34 234
f 938 34 142
f 310 234 34
f 284 584 34
f 310 34 584
f 938 503 34
f 109 35 307
f 35 109 473
f 221 35 473
f 661 35 221
f 307 35 371
f 35 661 371
f 116 481 36
f 36 1077 116
f 757 257 36
f 257 1077 36
f 481 757 36
f 52 188 37
f 249 52 37
f 37 188 212
f 249 37 212
f 38 247 39
f 319 38 39
f 247 38 64
f 1156 64 38
f 319 94 38
f 801 38 94
f 186 377 38
f 38 801 186
f 377 1156 38
f 39 239 141
f 39 141 329
f 239 39 247
f 39 329 319
f 170 205 40
f 40 779 170
f 1111 40 205
f 779 40 1176
f 59 228 41
f 41 590 194
f 1059 41 194
f 1019 59 42
f 42 138 405
f 1019 42 405
f 1192 161 43
f 1148 1191 43
f 1192 43 1191
f 74 50 44
f 322 44 50
f 81 74 44
f 1007 81 44
f 322 1007 44
f 53 48 45
f 193 45 48
f 90 45 51
f 45 453 51
f 1012 53 45
f 90 130 45
f 45 193 92
f 45 92 736
f 98 453 45
f 45 1110 98
f 130 139 45
f 139 868 45
f 198 45 949
f 1110 45 198
f 45 736 816
f 949 45 816
f 868 1012 45
f 243 156 46
f 278 243 46
f 47 629 537
f 771 47 537
f 655 629 47
f 1003 655 47
f 771 1003 47
f 352 48 53
f 48 312 193
f 352 312 48
f 332 49 469
f 1163 469 49
f 50 1159 322
f 627 1159 50
f 118 90 51
f 333 118 51
f 394 333 51
f 51 453 394
f 188 52 113
f 676 113 52
f 171 200 52
f 1015 171 52
f 200 676 52
f 1015 52 249
f 352 53 93
f 93 53 765
f 53 405 765
f 405 53 1019
f 1012 1166 53
f 53 1166 1019
f 88 309 54
f 462 88 54
f 309 192 54
f 54 1118 462
f 620 1161 55
f 1174 620 55
f 1179 55 1161
f 55 1179 1174
f 56 245 399
f 245 56 837
f 501 56 340
f 1055 340 56
f 937 56 399
f 837 56 501
f 1055 56 937
f 778 57 1097
f 57 778 1184
f 1163 57 1184
f 58 179 786
f 936 179 58
f 618 642 58
f 618 58 786
f 936 58 642
f 59 138 69
f 228 59 69
f 138 59 1019
f 426 60 375
f 426 790 60
f 956 60 790
f 1103 60 956
f 61 473 109
f 61 109 1060
f 1060 375 61
f 62 227 203
f 861 62 203
f 62 751 227
f 751 62 861
f 514 68 63
f 871 63 68
f 514 63 127
f 63 952 127
f 785 219 63
f 219 952 63
f 785 63 871
f 64 668 96
f 64 96 1164
f 64 1164 247
f 837 668 64
f 837 64 1156
f 222 179 65
f 936 65 179
f 65 476 222
f 476 65 308
f 308 65 936
f 66 420 289
f 584 66 289
f 66 1118 420
f 462 66 584
f 66 462 1118
f 832 552 67
f 552 1136 67
f 832 67 829
f 67 1136 829
f 68 152 869
f 68 1069 152
f 514 1069 68
f 785 68 869
f 785 871 68
f 69 138 1024
f 1024 228 69
f 137 87 70
f 87 199 70
f 70 419 117
f 70 943 137
f 70 199 419
f 475 943 70
f 71 694 643
f 904 71 643
f 991 694 71
f 948 71 904
f 948 991 71
f 168 72 370
f 850 72 168
f 370 72 434
f 72 850 434
f 73 297 165
f 165 1018 73
f 73 1139 297
f 748 977 73
f 748 73 1018
f 977 877 73
f 877 1139 73
f 74 81 316
f 155 75 243
f 243 75 156
f 256 76 91
f 78 124 77
f 77 1148 78
f 125 124 78
f 620 408 79
f 408 732 79
f 620 79 1161
f 79 732 872
f 1161 79 872
f 80 641 316
f 872 80 316
f 732 641 80
f 732 80 872
f 316 81 872
f 1161 872 81
f 1007 1179 81
f 81 1179 1161
f 82 231 1117
f 82 1167 231
f 322 82 285
f 82 1117 285
f 82 322 1167
f 122 90 83
f 1188 83 90
f 257 122 83
f 1188 257 83
f 396 84 149
f 84 470 149
f 470 84 204
f 84 698 204
f 698 84 396
f 85 288 817
f 85 1079 288
f 665 85 728
f 1013 85 665
f 685 728 85
f 817 685 85
f 85 1013 1129
f 85 1129 1079
f 245 86 804
f 245 837 86
f 377 804 86
f 377 86 1156
f 86 837 1156
f 137 403 87
f 87 373 199
f 403 373 87
f 504 309 88
f 584 88 462
f 584 504 88
f 285 89 372
f 89 285 517
f 441 372 89
f 647 441 89
f 89 517 647
f 130 90 110
f 90 158 110
f 118 187 90
f 275 90 1185
f 1188 90 275
f 92 312 111
f 111 736 92
f 193 312 92
f 312 352 93
f 312 93 765
f 268 163 94
f 801 94 163
f 319 247 94
f 247 1164 94
f 268 94 1160
f 94 917 1160
f 1164 917 94
f 110 104 95
f 95 104 296
f 130 110 95
f 95 248 130
f 147 248 95
f 147 95 1117
f 296 1117 95
f 96 673 1164
f 131 97 206
f 943 97 131
f 97 955 206
f 286 97 531
f 1145 97 286
f 531 97 943
f 97 1145 955
f 453 98 394
f 98 1110 394
f 99 405 138
f 99 138 888
f 99 290 874
f 99 874 405
f 104 158 100
f 104 100 296
f 1135 100 158
f 232 296 100
f 232 100 1135
f 273 964 101
f 1136 273 101
f 101 552 832
f 101 1178 552
f 832 829 101
f 829 1022 101
f 964 1178 101
f 101 1022 1136
f 107 481 103
f 103 785 107
f 157 219 103
f 103 481 157
f 219 785 103
f 110 158 104
f 420 135 105
f 135 447 105
f 304 105 447
f 848 105 304
f 420 105 310
f 105 848 310
f 113 106 171
f 106 113 676
f 106 200 171
f 993 200 106
f 106 359 269
f 637 106 269
f 106 676 359
f 993 106 637
f 107 134 119
f 481 107 119
f 107 785 134
f 108 123 116
f 1077 108 116
f 123 108 757
f 1077 757 108
f 109 307 338
f 109 338 1060
f 339 170 111
f 170 1176 111
f 111 312 339
f 111 608 1032
f 736 111 816
f 111 1032 816
f 172 135 112
f 420 112 135
f 1157 172 112
f 112 420 263
f 263 1157 112
f 171 188 113
f 210 114 126
f 126 114 284
f 114 210 142
f 114 142 234
f 114 234 284
f 116 123 939
f 419 1155 117
f 333 187 118
f 134 266 119
f 119 266 157
f 939 481 119
f 189 143 121
f 503 121 143
f 278 121 243
f 503 243 121
f 123 757 481
f 123 481 939
f 255 124 125
f 254 255 125
f 143 265 126
f 503 143 126
f 265 210 126
f 514 127 223
f 127 596 223
f 952 596 127
f 128 150 475
f 150 128 484
f 196 484 128
f 596 152 129
f 129 152 1069
f 596 129 223
f 130 248 139
f 137 131 215
f 943 131 137
f 635 131 206
f 215 131 999
f 999 131 635
f 290 132 246
f 335 246 132
f 132 946 335
f 266 134 869
f 134 785 869
f 135 172 166
f 166 447 135
f 673 668 136
f 668 951 136
f 673 136 671
f 951 671 136
f 403 137 215
f 138 1019 888
f 139 248 147
f 147 868 139
f 466 140 538
f 466 847 140
f 538 140 767
f 764 767 140
f 764 140 886
f 847 886 140
f 191 141 185
f 185 141 239
f 191 1082 141
f 141 1045 329
f 1082 1045 141
f 938 142 210
f 265 143 195
f 144 246 335
f 360 246 144
f 144 332 327
f 327 360 144
f 144 1168 332
f 1168 144 335
f 146 542 147
f 1199 146 147
f 1166 542 146
f 888 1019 146
f 946 146 1168
f 146 1019 1166
f 1168 146 1199
f 147 1117 231
f 1167 147 231
f 542 868 147
f 149 168 370
f 470 168 149
f 149 370 264
f 1171 149 264
f 396 149 1171
f 943 150 169
f 475 150 943
f 596 266 152
f 266 869 152
f 243 505 155
f 952 219 157
f 157 266 952
f 332 159 327
f 719 327 159
f 469 159 332
f 159 469 641
f 1094 159 641
f 894 719 159
f 894 159 828
f 159 1094 828
f 168 470 160
f 1139 168 160
f 160 297 417
f 470 297 160
f 160 417 1150
f 1162 1139 160
f 1162 160 1150
f 162 569 592
f 715 569 162
f 162 592 636
f 162 636 806
f 715 162 716
f 162 806 716
f 1125 163 268
f 1125 801 163
f 470 204 165
f 204 798 165
f 297 470 165
f 798 689 165
f 165 689 1018
f 309 447 166
f 698 167 204
f 798 204 167
f 698 271 167
f 271 798 167
f 1139 850 168
f 943 169 225
f 170 339 205
f 170 779 849
f 1176 170 849
f 1015 188 171
f 172 1162 1150
f 1162 172 1157
f 263 1150 173
f 1157 263 173
f 417 173 1150
f 173 417 1157
f 269 184 174
f 184 1154 174
f 269 174 603
f 603 174 978
f 978 174 1154
f 212 177 1015
f 242 915 177
f 177 915 1015
f 676 179 222
f 786 179 676
f 181 846 431
f 181 431 1036
f 791 181 489
f 181 1036 489
f 587 846 181
f 181 1067 587
f 791 975 181
f 1067 181 975
f 269 359 184
f 359 476 184
f 184 476 1154
f 237 191 185
f 528 237 185
f 342 528 185
f 185 1082 342
f 353 186 287
f 186 801 287
f 353 804 186
f 186 804 377
f 212 188 229
f 229 188 915
f 1015 915 188
f 551 896 190
f 1051 551 190
f 754 743 190
f 743 1051 190
f 190 896 754
f 342 191 237
f 1082 191 342
f 590 577 194
f 577 1059 194
f 350 265 195
f 326 325 195
f 455 195 325
f 350 195 455
f 541 484 196
f 224 357 198
f 198 949 224
f 198 357 1178
f 198 964 394
f 1110 198 394
f 198 1178 964
f 905 199 373
f 199 459 419
f 699 459 199
f 905 699 199
f 993 676 200
f 227 547 203
f 547 450 203
f 861 203 450
f 339 312 205
f 874 205 312
f 205 874 608
f 205 608 1111
f 635 206 663
f 206 1096 663
f 955 1096 206
f 350 210 265
f 350 654 210
f 654 938 210
f 212 1015 249
f 614 689 214
f 614 214 1038
f 689 798 214
f 1038 214 798
f 403 215 999
f 217 367 226
f 1148 217 226
f 367 217 921
f 217 1148 921
f 473 223 221
f 1172 661 221
f 359 222 476
f 222 359 676
f 473 514 223
f 357 224 354
f 354 224 392
f 224 464 389
f 512 224 389
f 392 224 807
f 949 464 224
f 512 1061 224
f 224 1061 807
f 943 225 1155
f 1148 226 316
f 367 627 226
f 371 227 244
f 751 244 227
f 227 371 661
f 547 227 661
f 242 229 915
f 242 1136 229
f 229 1136 1022
f 230 347 295
f 295 547 230
f 881 347 230
f 442 467 230
f 547 442 230
f 467 881 230
f 260 428 232
f 232 1061 260
f 296 232 965
f 965 232 428
f 232 1053 1061
f 1053 232 1135
f 938 233 505
f 654 233 938
f 654 1199 233
f 848 284 234
f 310 848 234
f 728 685 235
f 685 817 235
f 830 728 235
f 774 830 235
f 235 1021 774
f 817 1021 235
f 655 236 365
f 236 1042 365
f 534 368 236
f 368 1042 236
f 889 534 236
f 236 655 967
f 889 236 967
f 897 342 237
f 1176 237 528
f 849 779 237
f 779 897 237
f 849 237 1176
f 242 829 1136
f 503 938 243
f 938 505 243
f 371 244 666
f 244 954 666
f 954 244 751
f 399 245 804
f 290 246 272
f 246 797 272
f 360 797 246
f 329 247 319
f 252 796 440
f 992 252 440
f 586 585 252
f 252 585 796
f 586 252 783
f 783 252 992
f 256 1167 1148
f 275 1077 257
f 257 1188 275
f 259 334 433
f 334 259 754
f 259 433 760
f 259 466 754
f 466 259 760
f 260 512 389
f 996 260 389
f 996 428 260
f 260 1061 512
f 262 261 778
f 778 261 1191
f 1097 262 778
f 1118 263 420
f 376 264 370
f 431 264 376
f 961 264 431
f 264 961 1171
f 596 952 266
f 415 315 268
f 1125 268 315
f 268 1160 415
f 366 323 269
f 323 637 269
f 366 269 603
f 522 318 270
f 1091 270 318
f 480 270 368
f 270 998 368
f 480 1141 270
f 1141 522 270
f 609 998 270
f 1091 609 270
f 388 271 698
f 1104 271 388
f 1104 798 271
f 290 272 464
f 945 464 272
f 550 272 797
f 550 945 272
f 273 552 1119
f 552 273 1136
f 273 1119 964
f 1185 1077 275
f 279 383 924
f 383 279 1009
f 924 976 279
f 976 1009 279
f 283 1008 541
f 590 283 1076
f 1008 283 1059
f 304 504 284
f 284 848 304
f 504 584 284
f 517 285 293
f 285 1117 293
f 372 322 285
f 409 412 286
f 286 531 409
f 286 412 573
f 573 1145 286
f 287 1125 353
f 287 801 1125
f 382 288 315
f 1125 315 288
f 382 809 288
f 813 288 809
f 817 288 813
f 288 1079 1125
f 420 310 289
f 584 289 310
f 1032 290 464
f 290 1032 874
f 293 296 965
f 296 293 1117
f 293 965 517
f 450 295 347
f 295 450 547
f 417 297 1139
f 301 425 843
f 301 866 425
f 886 301 764
f 935 764 301
f 301 843 935
f 301 916 866
f 301 886 916
f 447 309 304
f 504 304 309
f 305 434 850
f 1131 434 305
f 485 756 305
f 485 305 877
f 305 756 1131
f 305 850 1139
f 1139 877 305
f 618 306 374
f 306 739 374
f 407 739 306
f 407 306 786
f 306 618 786
f 338 307 957
f 957 307 371
f 476 308 1154
f 718 562 308
f 1113 308 562
f 308 1113 681
f 681 1154 308
f 718 308 936
f 312 765 405
f 312 405 874
f 746 551 314
f 551 891 314
f 884 314 711
f 711 314 891
f 314 895 746
f 314 884 895
f 382 315 415
f 316 641 986
f 986 1148 316
f 522 533 318
f 533 1144 318
f 1091 318 1144
f 372 1089 322
f 1159 921 322
f 322 921 1167
f 322 1089 1007
f 334 323 433
f 323 334 532
f 433 323 366
f 323 532 637
f 455 325 324
f 327 797 360
f 327 719 797
f 852 354 333
f 394 964 333
f 852 333 1119
f 964 1119 333
f 334 896 532
f 754 896 334
f 335 946 1168
f 407 336 446
f 407 786 336
f 336 521 446
f 521 336 993
f 336 786 993
f 572 626 338
f 957 572 338
f 338 626 1060
f 340 1126 501
f 529 340 678
f 529 1126 340
f 678 340 1055
f 528 342 897
f 401 836 344
f 898 401 344
f 836 1138 344
f 1138 898 344
f 347 909 450
f 881 1004 347
f 1004 909 347
f 455 654 350
f 914 804 353
f 914 353 1129
f 1079 353 1125
f 1079 1129 353
f 354 852 357
f 392 1185 354
f 598 355 495
f 355 661 495
f 598 547 355
f 547 661 355
f 357 852 1119
f 357 1119 1178
f 363 538 767
f 363 892 538
f 553 758 363
f 553 363 767
f 758 711 363
f 892 363 711
f 1042 593 365
f 365 593 1100
f 655 365 629
f 1100 629 365
f 433 366 603
f 627 367 921
f 534 480 368
f 998 1042 368
f 400 951 369
f 1126 400 369
f 369 951 668
f 369 668 1039
f 1126 369 1039
f 533 376 370
f 370 434 533
f 957 371 666
f 1089 372 441
f 684 373 403
f 905 373 684
f 618 374 642
f 374 858 642
f 739 858 374
f 375 422 426
f 1060 422 375
f 1036 431 376
f 533 522 376
f 1141 376 522
f 762 1036 376
f 762 376 1141
f 381 951 400
f 1046 381 400
f 401 413 381
f 381 836 401
f 671 381 413
f 381 671 951
f 836 381 1046
f 382 415 662
f 509 382 662
f 809 382 509
f 987 383 923
f 923 383 1009
f 1120 924 383
f 383 987 1017
f 1120 383 1017
f 384 670 557
f 557 699 384
f 384 559 670
f 384 905 559
f 699 905 384
f 500 388 698
f 500 1104 388
f 464 945 389
f 945 606 389
f 606 996 389
f 805 508 391
f 391 508 1102
f 721 391 557
f 391 927 557
f 721 800 391
f 800 805 391
f 927 391 1102
f 807 1185 392
f 698 396 841
f 885 841 396
f 1171 885 396
f 399 887 632
f 399 632 937
f 914 399 804
f 914 887 399
f 738 639 400
f 639 1046 400
f 738 400 1126
f 401 560 413
f 898 560 401
f 875 684 403
f 985 875 403
f 985 403 999
f 446 739 407
f 1028 408 620
f 408 722 732
f 1028 722 408
f 409 459 412
f 459 409 419
f 419 409 1155
f 409 531 1155
f 585 410 796
f 855 410 585
f 690 796 410
f 690 410 822
f 410 842 822
f 410 855 842
f 459 1102 412
f 703 573 412
f 768 703 412
f 412 1102 768
f 498 601 413
f 498 413 1072
f 413 560 1072
f 671 413 601
f 415 700 662
f 1160 700 415
f 417 1139 1162
f 1157 417 1162
f 422 742 426
f 1060 626 422
f 626 1093 422
f 742 422 1093
f 866 617 425
f 617 978 425
f 1034 843 425
f 1034 425 978
f 742 790 426
f 647 965 428
f 996 647 428
f 961 431 846
f 755 881 432
f 960 755 432
f 881 1101 432
f 987 960 432
f 987 432 1101
f 472 433 439
f 433 603 439
f 760 433 472
f 533 434 1035
f 434 1131 1035
f 439 499 472
f 439 617 499
f 978 439 603
f 978 617 439
f 658 667 440
f 658 440 690
f 774 440 667
f 796 690 440
f 992 440 774
f 441 647 620
f 441 620 1089
f 442 598 467
f 598 442 547
f 895 446 521
f 739 446 1020
f 895 884 446
f 1020 446 884
f 521 449 895
f 449 521 993
f 637 532 449
f 449 532 746
f 449 993 637
f 449 746 895
f 990 861 450
f 990 450 909
f 550 797 451
f 550 451 945
f 451 797 719
f 945 451 719
f 455 1116 654
f 1102 459 699
f 949 1032 464
f 466 538 1084
f 743 754 466
f 743 466 1084
f 908 466 760
f 466 908 847
f 1101 467 598
f 1101 881 467
f 469 778 641
f 1184 778 469
f 1163 1184 469
f 499 865 472
f 908 760 472
f 908 472 865
f 480 534 737
f 480 737 1141
f 748 910 485
f 748 485 977
f 910 756 485
f 485 877 977
f 1077 486 757
f 1185 807 486
f 1077 1185 486
f 762 859 489
f 762 489 1036
f 489 859 791
f 502 1001 491
f 609 491 998
f 1091 491 609
f 998 491 1001
f 750 598 495
f 495 661 1172
f 917 498 571
f 498 1072 571
f 973 601 498
f 917 973 498
f 617 866 499
f 866 865 499
f 587 500 698
f 933 500 587
f 1104 500 933
f 837 501 1039
f 1126 1039 501
f 1054 1001 502
f 1054 502 1035
f 1035 502 1144
f 502 1091 1144
f 615 506 913
f 506 615 976
f 913 506 707
f 707 506 922
f 922 506 976
f 768 508 805
f 1102 508 768
f 509 662 726
f 509 726 794
f 953 509 794
f 509 953 809
f 647 517 965
f 518 980 693
f 1057 518 693
f 518 703 777
f 703 518 1057
f 777 980 518
f 527 571 969
f 1160 571 527
f 700 527 969
f 1160 527 700
f 897 1121 528
f 1121 1176 528
f 842 529 678
f 819 738 529
f 738 1126 529
f 855 819 529
f 855 529 842
f 531 943 1155
f 532 896 746
f 1035 1144 533
f 697 859 534
f 534 889 697
f 534 859 737
f 904 643 535
f 643 1123 535
f 980 535 693
f 535 1123 693
f 535 715 904
f 715 535 980
f 537 629 549
f 549 1006 537
f 633 537 710
f 771 537 633
f 537 1006 710
f 892 1084 538
f 539 724 675
f 858 539 675
f 994 724 539
f 858 876 539
f 539 876 994
f 540 569 715
f 1047 569 540
f 980 540 715
f 540 777 768
f 768 805 540
f 540 980 777
f 805 1047 540
f 1008 577 541
f 542 1012 868
f 542 1166 1012
f 629 834 549
f 834 1006 549
f 896 551 746
f 551 1051 891
f 552 1178 1119
f 553 621 724
f 982 621 553
f 553 724 758
f 974 553 767
f 974 982 553
f 557 670 721
f 557 927 699
f 631 636 559
f 559 920 631
f 670 559 636
f 920 559 905
f 898 1002 560
f 560 1002 1072
f 718 901 562
f 934 562 901
f 1113 562 934
f 1092 566 632
f 632 566 1098
f 851 566 658
f 1092 658 566
f 851 878 566
f 566 878 1098
f 723 592 569
f 1047 723 569
f 1160 917 571
f 571 1072 969
f 730 626 572
f 572 666 823
f 957 666 572
f 820 730 572
f 823 820 572
f 588 573 703
f 588 955 573
f 573 955 1145
f 590 1076 577
f 577 1008 1059
f 586 819 585
f 855 585 819
f 612 586 783
f 612 1138 586
f 586 810 819
f 836 810 586
f 586 1138 836
f 841 587 698
f 846 587 841
f 1067 933 587
f 1057 588 703
f 588 911 955
f 588 1057 911
f 636 592 670
f 721 670 592
f 723 721 592
f 1001 962 593
f 593 962 1100
f 1042 1001 593
f 750 814 598
f 598 814 1101
f 601 973 671
f 894 606 719
f 606 945 719
f 894 996 606
f 1032 608 874
f 783 839 612
f 612 839 898
f 1138 612 898
f 689 614 633
f 633 614 771
f 771 614 899
f 1023 899 614
f 614 1038 1023
f 615 827 687
f 1009 615 687
f 827 615 787
f 787 615 913
f 1009 976 615
f 647 1028 620
f 620 1174 1089
f 621 675 724
f 675 621 1128
f 1128 621 982
f 1093 626 730
f 1159 627 921
f 629 1100 834
f 636 631 806
f 657 679 631
f 920 657 631
f 806 631 679
f 1092 632 887
f 937 632 1098
f 689 633 710
f 903 635 663
f 635 903 999
f 810 639 738
f 639 810 836
f 639 836 1046
f 903 1070 640
f 1074 903 640
f 1037 1074 640
f 1087 1037 640
f 640 1070 1065
f 1065 1087 640
f 732 1094 641
f 986 641 778
f 675 642 858
f 1128 642 675
f 901 718 642
f 718 936 642
f 901 642 1128
f 643 694 789
f 789 1123 643
f 853 972 644
f 1074 853 644
f 644 972 875
f 875 985 644
f 985 1147 644
f 1074 644 1147
f 696 828 647
f 647 996 696
f 828 1028 647
f 648 726 825
f 726 648 907
f 648 825 969
f 907 648 890
f 648 1002 890
f 1002 648 969
f 650 1034 681
f 681 1113 650
f 934 882 650
f 1034 650 882
f 650 1113 934
f 654 1116 1199
f 967 655 1049
f 655 1003 1049
f 657 853 679
f 972 853 657
f 920 972 657
f 667 658 770
f 690 851 658
f 658 1092 770
f 662 700 825
f 726 662 825
f 1070 663 792
f 663 1096 792
f 1070 903 663
f 730 682 664
f 664 682 883
f 1093 730 664
f 664 883 747
f 1093 664 747
f 665 728 830
f 665 830 770
f 887 665 770
f 887 1013 665
f 666 954 823
f 770 830 667
f 667 830 774
f 1039 668 837
f 973 673 671
f 973 1164 673
f 993 786 676
f 822 842 678
f 878 822 678
f 678 1055 878
f 979 806 679
f 853 979 679
f 681 1034 978
f 681 978 1154
f 682 730 820
f 775 883 682
f 1122 775 682
f 1122 682 820
f 889 683 697
f 697 683 975
f 683 889 1066
f 683 1067 975
f 683 1066 1043
f 683 1043 1067
f 875 920 684
f 905 684 920
f 749 686 787
f 686 749 981
f 686 827 787
f 686 1030 827
f 981 1133 686
f 1133 1030 686
f 827 1030 687
f 687 960 923
f 1009 687 923
f 1030 960 687
f 689 710 1018
f 690 822 851
f 1123 1057 693
f 789 694 928
f 793 928 694
f 991 793 694
f 894 828 696
f 996 894 696
f 859 697 975
f 699 927 1102
f 700 969 825
f 768 777 703
f 707 747 883
f 707 922 747
f 707 883 775
f 913 707 775
f 710 1006 748
f 710 748 1018
f 758 1020 711
f 711 1020 884
f 711 891 892
f 713 940 947
f 940 713 1127
f 713 947 970
f 982 713 970
f 982 1127 713
f 716 904 715
f 808 716 806
f 716 808 948
f 948 904 716
f 721 723 800
f 722 1094 732
f 1094 722 1028
f 805 800 723
f 1047 805 723
f 724 994 758
f 726 907 794
f 737 859 762
f 1141 737 762
f 810 738 819
f 739 876 858
f 994 876 739
f 1020 994 739
f 742 1093 790
f 743 1084 1051
f 922 790 747
f 1093 747 790
f 910 748 831
f 1006 831 748
f 787 775 749
f 775 1122 749
f 749 1130 981
f 1130 749 1122
f 814 750 1017
f 1017 750 1071
f 751 861 954
f 881 755 856
f 856 755 1030
f 755 960 1030
f 799 756 910
f 756 799 1131
f 994 1020 758
f 984 767 764
f 984 764 935
f 984 974 767
f 886 847 769
f 847 908 769
f 908 865 769
f 865 916 769
f 769 916 886
f 887 770 1092
f 899 1003 771
f 992 774 1021
f 787 913 775
f 778 1191 986
f 897 779 1121
f 1121 779 1176
f 782 948 808
f 1037 782 808
f 932 991 782
f 932 782 1065
f 782 991 948
f 1037 1087 782
f 782 1087 1065
f 857 839 783
f 992 857 783
f 1123 789 928
f 790 922 924
f 790 924 956
f 859 975 791
f 792 793 932
f 1096 793 792
f 792 932 1065
f 792 1065 1070
f 928 793 1096
f 932 793 991
f 857 794 839
f 839 794 907
f 857 953 794
f 1104 1038 798
f 910 962 799
f 1001 799 962
f 1054 799 1001
f 1131 799 1054
f 979 808 806
f 807 1061 1053
f 1037 808 979
f 813 809 1021
f 1021 809 953
f 813 1021 817
f 1101 814 1017
f 949 816 1032
f 1040 820 823
f 1040 1122 820
f 822 878 851
f 954 1040 823
f 1028 828 1094
f 910 831 845
f 845 831 1041
f 831 1006 1041
f 834 845 1041
f 1100 845 834
f 1041 1006 834
f 890 898 839
f 907 890 839
f 885 846 841
f 1044 935 843
f 843 1034 1044
f 844 1004 856
f 844 856 1030
f 909 844 981
f 844 909 1004
f 844 1133 981
f 1133 844 1030
f 910 845 962
f 845 1100 962
f 885 961 846
f 853 1037 979
f 1074 1037 853
f 881 856 1004
f 857 1021 953
f 992 1021 857
f 954 861 990
f 866 916 865
f 972 920 875
f 1055 1098 878
f 882 934 947
f 1044 882 947
f 1044 1034 882
f 961 885 1171
f 887 914 1013
f 889 967 1049
f 889 1049 1031
f 1031 1066 889
f 898 890 1002
f 891 1084 892
f 891 1051 1084
f 1003 899 902
f 899 1086 902
f 1052 899 1023
f 1086 899 1052
f 1027 934 901
f 901 1128 1027
f 1049 1003 902
f 1031 1049 902
f 902 1086 1031
f 999 903 1147
f 1074 1147 903
f 990 909 981
f 911 928 955
f 911 1123 928
f 1123 911 1057
f 914 1129 1013
f 917 1164 973
f 919 1104 933
f 1143 919 933
f 1086 1052 919
f 1104 919 1052
f 919 1143 1086
f 921 1148 1167
f 924 922 976
f 923 960 987
f 1120 956 924
f 955 928 1096
f 1143 933 1067
f 970 947 934
f 1027 970 934
f 940 984 935
f 940 935 1044
f 1055 937 1098
f 940 1044 947
f 984 940 1127
f 990 1040 954
f 1017 1103 956
f 956 1120 1017
f 1072 1002 969
f 1027 982 970
f 1127 982 974
f 1127 974 984
f 1078 990 981
f 981 1130 1078
f 982 1027 1128
f 999 1147 985
f 986 1191 1148
f 1017 987 1101
f 990 1078 1040
f 1001 1042 998
f 1089 1174 1007
f 1174 1179 1007
f 1071 1103 1017
f 1023 1038 1052
f 1031 1143 1066
f 1143 1031 1086
f 1054 1035 1131
f 1038 1104 1052
f 1130 1040 1078
f 1122 1040 1130
f 1066 1143 1043
f 1043 1143 1067
f 1199 1116 1192
