# sdm_hand_1200_q30g.obj  (1200 v, 1582 f)  units: metres
v -0.059176758 -0.005846387 0.021900922
v -0.069094315 0.004087776 0.014222741
v -0.068354376 0.004346595 0.013601856
v -0.068571724 0.005567660 0.015462436
v -0.063345835 0.020366503 0.027859384
v -0.062823243 0.021846386 0.029099079
v -0.045000002 0.000000000 0.000000000
v -0.037999999 -0.001116713 0.020000000
v -0.045000002 0.022000000 0.000000000
v -0.020265626 0.004229502 0.188994732
v -0.024598667 0.003580033 0.196814136
v -0.012811992 0.016345000 0.101544238
v -0.018500000 0.021000000 0.094999999
v -0.002500000 0.021000000 0.094999999
v -0.028082918 0.018783894 0.139414905
v -0.039184539 0.019694704 0.177056342
v -0.002797252 0.005260467 0.188070564
v 0.018999999 0.002500000 0.200000003
v 0.018500000 0.021000000 0.094999999
v 0.003740052 0.019355258 0.142492026
v 0.037000000 0.021000000 0.094999999
v 0.045000002 0.022000000 0.094999999
v 0.009047508 0.016166926 0.176213948
v 0.011985750 0.020625000 0.176092828
v -0.030367188 0.002500000 0.180624995
v -0.056041222 0.003032919 0.029339091
v -0.037999999 -0.001116713 0.041233219
v -0.111012904 -0.012230415 0.080332101
v -0.108638968 -0.022161341 0.080305244
v -0.121484394 -0.026398548 0.092460743
v 0.014567565 0.017026587 0.102110914
v -0.002687500 0.019411912 0.097464182
v -0.035265624 0.002500000 0.195999995
v -0.042071476 -0.002026048 0.007589698
v 0.025000000 0.000000000 0.000000000
v 0.000000000 0.022000000 0.094999999
v -0.065958780 0.012967082 0.021660910
v -0.010500000 0.021000000 0.094999999
v -0.037999999 -0.003000000 0.030616610
v 0.013750000 0.002000000 0.000000000
v -0.031423184 0.020007813 0.166688097
v 0.011000000 0.021000000 0.094999999
v -0.022500001 0.022000000 0.094999999
v 0.011374999 0.000000000 0.020000000
v -0.037999999 -0.003000000 0.025308305
v -0.015643367 0.018981619 0.182047197
v -0.035565747 0.020013901 0.143853169
v -0.000674635 0.007494179 0.199522908
v 0.025894533 -0.003000000 0.076808015
v 0.029814893 -0.003000000 0.084130496
v -0.029231551 0.009173027 0.177535252
v -0.032000000 -0.005500000 0.180999994
v -0.028000000 -0.005500000 0.180999994
v -0.024000000 -0.005500000 0.188499994
v -0.121521914 -0.029340697 0.082681829
v -0.004000000 0.000000000 0.000000000
v -0.064652307 0.016666792 0.024760147
v -0.053541651 0.022052603 0.014239096
v -0.057012890 0.012919544 0.006996444
v -0.054979681 0.001857366 0.005812280
v 0.036954002 -0.003000000 0.043400811
v 0.023300780 0.000000000 0.018367197
v 0.015812499 0.000000000 0.020000000
v -0.014706613 -0.003000000 0.022168159
v 0.000281250 0.000000000 0.011249153
v 0.031000000 0.021000000 0.094999999
v 0.022500001 0.022000000 0.094999999
v -0.034618083 0.013727273 0.000481510
v -0.057812476 0.022078904 0.021358644
v -0.006500000 0.021000000 0.094999999
v -0.059947888 0.022092055 0.024918418
v -0.014500000 0.021000000 0.094999999
v -0.004572786 0.012381152 0.140299191
v 0.007250000 0.021000000 0.094999999
v -0.014751570 0.022000000 0.016882584
v 0.003000000 -0.001499897 0.195160737
v -0.010847785 0.003742379 0.186527346
v 0.033972705 0.022000000 0.077187499
v 0.024491381 0.022000000 0.083681682
v -0.006687500 0.021000000 0.099367185
v 0.037225330 0.011785084 0.126294665
v -0.111576699 -0.015333492 0.076035609
v -0.036101066 0.002983143 0.034438719
v -0.031290738 0.009724809 0.186667461
v 0.036126783 0.015427571 0.164892542
v 0.014750000 0.021000000 0.094999999
v -0.012388181 0.018023452 0.141850328
v 0.026258523 0.011814326 0.128109961
v -0.067265252 0.009267370 0.018561673
v 0.034000000 0.021000000 0.094999999
v -0.062683633 0.008633069 0.010299150
v -0.061667028 0.003101981 0.009707068
v -0.083917010 -0.004084420 0.035792393
v 0.011413767 0.022000000 0.080249537
v -0.040529467 0.000673103 0.070145998
v -0.040579727 0.016085838 0.126460311
v -0.059295379 0.014706436 0.021134095
v -0.004625000 0.002500000 0.188999996
v -0.001918315 0.022000000 0.081724462
v 0.031477708 0.010414940 0.159092300
v -0.016879943 0.014384326 0.086864694
v -0.007630907 0.019059550 0.192007371
v -0.019739993 0.002963624 0.206527731
v -0.032324237 -0.003000000 0.061805805
v 0.019044303 0.017298055 0.095999529
v -0.134645004 -0.019639533 0.075429135
v -0.017143580 0.003797209 0.196519785
v -0.063999071 0.018516648 0.026309765
v -0.065305543 0.014816937 0.023210529
v 0.045000002 0.022000000 0.089062499
v -0.020500001 0.005650150 0.196690774
v -0.111045616 -0.025444959 0.080211220
v -0.050624117 -0.003936217 0.014745310
v 0.010631888 0.001670497 0.195254629
v -0.032981467 -0.005500000 0.187239300
v -0.002000000 0.002500000 0.200421874
v 0.025711038 -0.001010646 0.167999998
v -0.014932259 0.002036301 0.196616167
v 0.024617869 0.003085197 0.168355011
v 0.027092564 0.004734268 0.171044213
v -0.035157557 0.018880454 0.182958623
v -0.095249766 -0.006223068 0.063763225
v -0.113867424 -0.024057454 0.073148240
v -0.007470986 -0.003000000 0.082655209
v -0.133715749 -0.011702184 0.081366375
v 0.023535136 0.010053487 0.176825003
v 0.035671825 0.000625460 0.089565937
v -0.110977802 -0.012983932 0.084523927
v -0.022500001 0.008802971 0.186930634
v -0.057944725 0.011008542 0.014860290
v -0.027759257 0.017709801 0.101451697
v -0.017835187 0.016162108 0.094999999
v -0.015065219 0.021000000 0.099491373
v -0.091059450 -0.003338504 0.041321167
v 0.002049870 0.016699004 0.087023831
v -0.035989307 -0.005500000 0.193225267
v -0.016576624 -0.002236986 0.188999996
v -0.005564251 0.011014873 0.106568008
v 0.029426455 -0.001013430 0.180999994
v 0.026967339 0.000784555 0.037263560
v 0.014145046 0.018438283 0.142630176
v 0.016625000 0.021000000 0.094999999
v 0.017483390 0.018406842 0.153806934
v -0.110763317 -0.017287104 0.089570419
v -0.022930243 0.006085969 0.181007100
v -0.067918488 0.007417515 0.017012054
v 0.018999999 -0.003129198 0.186619071
v -0.018999999 0.000815752 0.195087722
v -0.094523360 -0.002577476 0.043011461
v -0.008500000 0.021000000 0.094999999
v -0.067332030 0.004325890 0.016422209
v 0.015302307 0.006811489 0.189452031
v -0.112986041 -0.018653390 0.074834012
v -0.028794967 0.005090734 0.182511327
v 0.018596333 0.012183030 0.187901865
v 0.011585212 0.002734428 0.193095447
v 0.010967448 0.015681749 0.145314459
v -0.116479653 -0.021608934 0.070707442
v -0.003744352 0.004159053 0.191063749
v -0.070578500 0.002974152 0.019908539
v -0.009690612 -0.002934777 0.192696818
v -0.061806292 0.011368210 0.018555402
v -0.001504053 0.017004623 0.094999999
v -0.123606455 -0.011671858 0.065996489
v -0.117523493 -0.023660890 0.074216045
v -0.056475156 0.003436174 0.017187513
v 0.006457481 0.014664179 0.156070722
v -0.030147687 0.007419346 0.094006571
v -0.015782610 0.000312500 0.012333242
v -0.022500001 0.003891300 0.190627987
v -0.018999999 0.000024457 0.199682023
v -0.007806439 -0.002796826 0.202830416
v -0.113512930 -0.022659707 0.078896631
v 0.014695462 0.000507091 0.184000000
v 0.024499999 0.000500000 0.167999998
v -0.129846377 -0.027813665 0.082338858
v -0.115694587 -0.024342627 0.087642299
v -0.014111705 0.015738781 0.091733954
v -0.115353146 -0.021352853 0.076207430
v -0.061100744 0.016535980 0.021532382
v -0.116550100 -0.024713485 0.075062248
v -0.068296463 0.011385828 0.022634539
v 0.024499999 0.002500000 0.179374994
v 0.031404815 0.013377157 0.101354817
v 0.012363390 0.019245108 0.120136774
v -0.024000000 0.002500000 0.187445307
v -0.036499999 -0.003000000 0.085000001
v -0.026853831 -0.002646169 0.195999995
v -0.029454327 0.000703930 0.180999994
v 0.013862853 0.003014333 0.196282641
v 0.002115734 0.003907384 0.076813964
v -0.009315698 -0.005500000 0.197581616
v -0.114645448 -0.012282498 0.064586581
v -0.065010702 0.003724288 0.011654462
v -0.065519004 0.006489832 0.011950503
v 0.001500000 0.003654868 0.193822166
v -0.126529978 -0.026811203 0.081773381
v -0.091002111 0.000362683 0.046035764
v -0.035500000 -0.000558357 0.020000000
v 0.028209767 0.019299690 0.135936497
v 0.017013711 0.010938894 0.172474359
v -0.114313498 -0.018722584 0.078164544
v 0.016644200 0.000528552 0.086662867
v -0.115420653 -0.019730028 0.073753208
v 0.001500000 0.003230552 0.187579049
v -0.121819945 -0.030774153 0.087232926
v -0.071772635 0.004829195 0.019162426
v -0.116390886 -0.028537719 0.079560306
v -0.016291922 0.017553999 0.097672205
v 0.028000000 0.021000000 0.094999999
v 0.015349535 -0.000083345 0.189958505
v -0.063503979 0.014641846 0.028992304
v 0.024499999 0.000989559 0.169440733
v -0.122755029 -0.019136143 0.085537086
v -0.066612016 0.011117226 0.020111291
v -0.026115787 0.000743794 0.195999995
v 0.037132683 -0.005500000 0.169768878
v 0.009358507 0.021000000 0.097572114
v 0.039121093 0.000041508 0.062612393
v -0.024937500 0.002500000 0.181703119
v -0.018999999 0.000500000 0.188999996
v -0.123212870 -0.025876295 0.076839070
v -0.041499998 0.005484164 0.192137982
v -0.040281249 0.002592100 0.183871546
v -0.017279765 -0.000498338 0.202128009
v 0.030524727 0.005209279 0.020281265
v -0.026522680 -0.001730357 0.187870034
v -0.004345483 0.001739316 0.197883563
v 0.008292477 -0.000276060 0.191677442
v 0.018999999 -0.000656250 0.197781253
v 0.014265625 0.002500000 0.184000000
v -0.001718750 0.002500000 0.194445310
v -0.115006322 -0.019245215 0.075975633
v -0.124831104 -0.017520360 0.079582402
v -0.118404722 -0.013477806 0.078946480
v -0.005055463 0.018291265 0.096020340
v -0.052179873 0.010251538 0.026328944
v -0.118252441 -0.021703415 0.079444131
v -0.116566347 -0.014820992 0.089072748
v 0.008695451 -0.005500000 0.186803168
v -0.111292970 -0.021466796 0.080143620
v 0.010905121 0.003032467 0.136090145
v -0.114470213 -0.021012075 0.073699345
v -0.024000000 0.000500000 0.180999994
v 0.018477360 -0.005500000 0.186500000
v 0.030183156 0.019700638 0.091192483
v -0.115439947 -0.027361329 0.077755127
v 0.026559814 0.002086567 0.178800331
v 0.001500000 0.005512730 0.190626249
v -0.114730496 -0.025047441 0.079014784
v -0.117533141 -0.021030843 0.075986926
v 0.024766354 0.020953125 0.003684089
v -0.123642181 -0.027328835 0.081173962
v -0.017126607 0.001528073 0.196153686
v -0.064135537 -0.000879306 0.018061832
v -0.066614925 0.001604235 0.016142287
v -0.067854620 0.002846005 0.015182514
v 0.019750000 0.002500000 0.197437503
v 0.009390927 -0.000080567 0.188593347
v 0.017299506 0.000778506 0.200000003
v -0.017589114 0.001031100 0.188999996
v 0.013559336 0.013045644 0.149412993
v 0.018999999 0.001160577 0.187866347
v 0.003933620 -0.003000000 0.064949742
v -0.010611883 0.014067875 0.081712697
v 0.005250000 0.002500000 0.183148436
v -0.115532572 -0.016374211 0.076461116
v -0.113235146 -0.021571007 0.088051521
v 0.011598436 -0.000603431 0.188885835
v -0.004931744 0.001459335 0.191360964
v -0.060798277 0.011868442 0.027352983
v -0.115695953 -0.029525768 0.080938028
v -0.015480468 -0.005362361 0.189204351
v -0.071333721 0.003536698 0.023403369
v -0.066184099 0.018146889 0.028653669
v -0.029533877 -0.000785737 0.183816937
v 0.043781159 0.015926117 0.090305022
v -0.038665360 0.005014641 0.178824476
v -0.126377517 -0.019836674 0.090600220
v 0.024499999 -0.001133689 0.170366634
v -0.002000000 0.000500000 0.206000000
v -0.067895519 0.003803182 0.020641408
v -0.115936570 -0.020739615 0.075502120
v -0.012500000 0.021000000 0.094999999
v 0.010756957 0.018063329 0.094725667
v 0.015697438 0.000895518 0.186257467
v -0.112164544 -0.022644555 0.085279697
v 0.019375000 0.002500000 0.188593751
v -0.115514182 -0.027462578 0.083372633
v -0.002000000 -0.001515212 0.193350004
v 0.007240350 0.002002470 0.195954206
v -0.002000000 0.001230757 0.191620698
v 0.023603794 0.003964095 0.181365572
v -0.120316951 -0.020497230 0.082945856
v 0.032217939 0.002135742 0.011882238
v -0.036714538 -0.001527746 0.191402795
v -0.023367185 0.000153078 0.087560390
v 0.027982912 0.016322738 0.096499980
v -0.028722780 0.001287518 0.183178762
v 0.012772234 0.015877019 0.091503523
v 0.024499999 0.002500000 0.175718746
v -0.018999999 -0.001146230 0.195572150
v 0.015878215 -0.005500000 0.196852148
v 0.035903821 -0.003636772 0.167999998
v -0.120925515 -0.016473349 0.084488699
v -0.116077067 -0.023344217 0.075126966
v 0.001252236 -0.003000000 0.081360070
v -0.005645993 0.019500000 0.120687501
v -0.058566684 0.011304596 0.019504683
v -0.008194754 -0.005500000 0.195466644
v 0.017443133 0.002017863 0.194582099
v 0.012071263 -0.002388133 0.189469707
v -0.039999999 -0.003110498 0.181520327
v 0.007265331 0.018474456 0.096470548
v -0.126406505 -0.029800881 0.085290256
v -0.119076646 -0.028740259 0.080934262
v -0.005643068 0.004314435 0.165812890
v 0.008496321 0.004762600 0.185550062
v -0.018124999 0.002500000 0.205734375
v -0.015502973 0.001329559 0.201131242
v 0.006463351 -0.000933297 0.188796151
v 0.003298251 -0.000250000 0.200000003
v 0.036209838 0.019079439 0.090744326
v -0.121992294 -0.015900285 0.089185567
v -0.027104447 -0.003000000 0.077684452
v -0.006741622 0.001503147 0.197431896
v 0.042094001 0.002733310 0.032556213
v -0.119307129 -0.023882185 0.082129624
v -0.121477560 -0.025043954 0.077533900
v -0.012843751 0.002500000 0.206000000
v 0.011905287 0.000645331 0.186805125
v -0.003947212 -0.001261341 0.193016796
v -0.010565745 -0.005500000 0.191106349
v 0.011653972 -0.005500000 0.192070078
v -0.123677323 -0.024691207 0.086283743
v -0.003666045 0.001443731 0.193014422
v -0.012027902 0.001155843 0.197898911
v -0.112861618 -0.016456807 0.077515280
v -0.020654230 0.019428572 0.094999999
v 0.004276210 0.001123235 0.184000000
v -0.041499998 0.003746953 0.186588926
v -0.010889519 0.002405594 0.199166233
v -0.031995084 0.004776635 0.186842669
v -0.029632549 -0.004371395 0.180999994
v -0.114933579 -0.024250886 0.073828582
v -0.054959803 0.017995385 0.021524111
v -0.125614597 -0.023404360 0.090022224
v 0.027134921 -0.005500000 0.172450493
v -0.025124126 0.001246804 0.180999994
v -0.009755442 -0.001215629 0.188999996
v -0.014808935 0.005572463 0.199574501
v -0.038369611 -0.003869612 0.195999995
v -0.016668818 -0.003003895 0.192917277
v 0.037500001 0.000711343 0.173010164
v 0.030783733 -0.003527734 0.180999994
v -0.004935022 -0.003543152 0.198377790
v -0.029958426 -0.001966246 0.180999994
v -0.092166971 0.005196624 0.050969614
v -0.004256982 -0.001140023 0.197971063
v -0.113706787 -0.022524648 0.082066491
v 0.014068654 0.000129428 0.200000003
v 0.031304690 -0.005500000 0.176937495
v -0.011590375 0.019260114 0.092643136
v -0.115446570 -0.014748868 0.081872182
v 0.034202319 -0.001390442 0.180999994
v -0.126525022 -0.028152705 0.083372709
v 0.012099127 -0.002747476 0.187072428
v 0.016889044 0.000839882 0.194375751
v -0.039279184 -0.005188310 0.192402081
v -0.003544865 0.000913868 0.188999996
v -0.115163938 -0.022912545 0.073939585
v -0.112611226 -0.018083733 0.080106112
v 0.011405859 0.018825487 0.090754283
v -0.065995219 0.009318428 0.025322597
v 0.009291941 0.016000001 0.097529599
v -0.003409804 0.001723089 0.190287943
v -0.006371687 0.002979289 0.197444745
v -0.007253577 -0.000212578 0.191501913
v -0.005737858 -0.005500000 0.197198170
v 0.018999999 0.000899357 0.199762411
v -0.063058931 0.013312015 0.021669265
v 0.010406250 0.002500000 0.200000003
v 0.025597848 0.001268154 0.167999998
v -0.006183788 0.004275228 0.208000004
v -0.010635870 0.000694785 0.068664150
v -0.033176630 0.002217394 0.193498763
v -0.113842962 -0.011875170 0.084710637
v 0.015810665 0.003916315 0.193897587
v -0.008692840 0.002706647 0.201887739
v 0.002625000 0.002500000 0.186875001
v -0.014600217 -0.003000000 0.067491328
v -0.123745613 -0.017135943 0.094862614
v 0.009125000 0.021000000 0.094999999
v 0.003000000 -0.001207926 0.191734494
v -0.121659031 -0.014244290 0.091741094
v -0.035965820 0.002500000 0.180368892
v -0.039999999 0.002500000 0.194124995
v 0.030199695 -0.000131917 0.171865963
v -0.011822491 -0.000964676 0.192597796
v -0.120432344 -0.018455958 0.074326255
v 0.018999999 -0.001842724 0.191631879
v -0.007041737 0.004420660 0.192047393
v 0.003000000 -0.001252625 0.189120714
v -0.118809593 -0.017716267 0.084819073
v 0.027764630 0.001155387 0.167999998
v 0.010151557 0.003853103 0.197022310
v 0.009546380 0.001517999 0.191350389
v -0.031869993 -0.003000000 0.032315977
v 0.018999999 -0.001483543 0.194738087
v 0.018999999 -0.000500000 0.187000001
v 0.011033564 -0.004078920 0.190088337
v 0.003000000 -0.003332721 0.194203249
v -0.010063518 -0.000635882 0.197578962
v 0.017609029 0.002107613 0.192314225
v -0.036133100 0.006279993 0.197959962
v -0.118829591 -0.020899433 0.083655672
v -0.034886957 -0.003149955 0.185208116
v 0.014394487 -0.005500000 0.198596292
v 0.018943359 0.002500000 0.185019043
v -0.016393798 0.004500498 0.139108076
v -0.111295791 -0.015789000 0.079659739
v 0.030379494 0.004446115 0.182874998
v -0.012753808 -0.002408747 0.196248547
v -0.024000000 0.001914192 0.194038035
v 0.017269531 0.020684751 0.099041063
v -0.007200884 -0.002428388 0.191490931
v -0.113361929 -0.015658954 0.088722253
v -0.109707150 -0.025362790 0.078588697
v -0.028408162 0.002098854 0.189069123
v 0.010571553 -0.000858983 0.186199268
v 0.011437870 -0.001433785 0.192095777
v 0.014362733 -0.002617500 0.190889436
v -0.122325013 -0.018993562 0.088550082
v -0.036554897 -0.003417448 0.189593556
v 0.018882674 0.008921246 0.031370297
v 0.009210224 -0.001883012 0.189976927
v 0.018999999 0.000692296 0.192012523
v -0.111898270 -0.015369016 0.083153024
v -0.034255675 -0.004847287 0.180999994
v -0.068399585 0.009944686 0.025089853
v 0.014364825 0.001592915 0.195846357
v -0.014996690 -0.001881616 0.206000000
v -0.009105469 -0.005384754 0.188999996
v -0.018999999 -0.004847702 0.192876770
v 0.012487981 -0.005500000 0.189703924
v -0.118187600 -0.026053833 0.081489941
v -0.008315141 -0.001905904 0.196610136
v -0.034884026 0.001816935 0.194545986
v -0.036965648 0.001966082 0.194459074
v -0.002000000 -0.001232176 0.191074662
v 0.027812412 0.001516510 0.170289536
v -0.062681851 0.006671153 0.017276763
v 0.016152928 -0.001862351 0.191884405
v -0.039999999 -0.003538887 0.193953653
v -0.113616936 -0.018193907 0.088123210
v -0.117446461 -0.025483417 0.079966129
v -0.009943510 0.003355095 0.203425093
v 0.016272969 0.000978162 0.191565475
v -0.118854466 -0.026971741 0.078729436
v -0.032592192 -0.000915546 0.183916287
v -0.030750022 0.004196728 0.193471897
v -0.115203138 -0.018044437 0.082035671
v -0.124275559 -0.026488145 0.087409271
v 0.015682069 -0.001391428 0.194985531
v -0.116927540 -0.005080081 0.066400241
v -0.004324148 0.019409394 0.149926523
v 0.010452139 -0.005500000 0.194272303
v 0.018861517 0.000822560 0.184875000
v -0.118759051 -0.025732923 0.077210377
v 0.029925789 -0.000465972 0.178670741
v 0.008980537 0.002784965 0.194217229
v -0.110205957 -0.027255714 0.076783886
v 0.026677033 -0.002144617 0.173842912
v 0.018359159 -0.004359632 0.184000000
v -0.108905222 -0.014389547 0.084780288
v 0.027095319 0.001050071 0.180999994
v -0.010037095 0.002233002 0.194862782
v 0.028121619 0.002829430 0.179116899
v -0.030265322 -0.003244292 0.183413381
v 0.009485371 0.000556086 0.184000000
v 0.018999999 -0.003652080 0.192919417
v -0.018235003 -0.003000000 0.077463526
v 0.017325130 -0.002355789 0.186323008
v 0.005052872 -0.005500000 0.190688901
v 0.030000000 0.002500000 0.180999994
v -0.032135344 -0.004063439 0.184504127
v 0.027441189 0.000887521 0.173403834
v -0.038814049 -0.001442307 0.180999994
v -0.121212877 -0.020903052 0.085372242
v -0.117533827 -0.019320551 0.086089594
v -0.034921258 -0.000565564 0.193736173
v 0.030862889 -0.001181057 0.174475823
v -0.028838939 -0.000126390 0.190689421
v -0.110101251 -0.023622198 0.077818029
v 0.004817302 -0.001946204 0.184000000
v 0.005269980 -0.002361534 0.191197910
v -0.111874578 -0.012584608 0.082743067
v 0.041007813 0.001905259 0.077043747
v -0.036985304 0.000781773 0.192277997
v -0.006162991 -0.000503228 0.200992522
v -0.091743441 0.001768659 0.041486429
v 0.028644938 -0.002372220 0.171098340
v -0.036911916 -0.005500000 0.187544917
v -0.119205173 -0.029629045 0.085337104
v 0.000244304 0.004927517 0.024430645
v 0.036562501 0.002500000 0.179906245
v 0.010510430 -0.001486648 0.196883027
v 0.037500001 -0.000874972 0.176710919
v 0.031926437 0.004900813 0.175174508
v -0.014083912 0.003015711 0.194460320
v -0.039999999 -0.001086671 0.185696797
v -0.128295742 -0.024580048 0.086940845
v -0.034529374 0.003648464 0.188138204
v -0.013040646 0.001239566 0.192342465
v -0.032939329 -0.004202177 0.187775180
v 0.015460938 0.002500000 0.200000003
v -0.028981049 0.000414398 0.187428131
v 0.028514816 0.004271114 0.177766137
v -0.026771681 0.001334933 0.191566905
v -0.016432673 0.015682243 0.154403476
v -0.087075162 0.003047596 0.045704406
v -0.005048520 -0.005500000 0.194230384
v -0.032339178 0.001649899 0.182466230
v -0.030494519 0.020464319 0.087309956
v -0.018406828 -0.004789230 0.189730465
v -0.006975130 -0.003917909 0.194853830
v -0.032052841 -0.001759007 0.195999995
v -0.010915675 0.022000000 0.041109730
v -0.034634629 -0.005500000 0.184237476
v -0.110099658 -0.023139112 0.081972714
v -0.039999999 0.000833961 0.194352053
v 0.012667929 -0.003000000 0.049587620
v 0.015630128 -0.004076828 0.190909965
v 0.024499999 0.002500000 0.172062497
v -0.010266049 -0.000966177 0.200366413
v 0.006426925 0.003900645 0.195996829
v -0.115767539 -0.020865409 0.080735329
v 0.026616643 -0.001153388 0.180999994
v -0.008625000 0.002500000 0.188999996
v -0.030829620 -0.005500000 0.185631782
v 0.005939366 -0.003482439 0.186292065
v -0.039999999 -0.003870825 0.187913629
v -0.114910182 -0.024006002 0.075738366
v 0.011138233 -0.001183330 0.184000000
v 0.012539418 0.001129585 0.190486936
v 0.003730665 0.011214634 0.198449709
v -0.108260248 -0.016086902 0.087082519
v -0.002000000 -0.003579213 0.194771935
v 0.035625001 0.000718750 0.180999994
v -0.007531250 0.002500000 0.206250000
v -0.119166122 -0.025885230 0.083867273
v 0.033551647 -0.005500000 0.174626356
v -0.033262042 -0.003093560 0.180999994
v 0.003000000 0.001162775 0.185500000
v -0.018999999 -0.002869383 0.198154103
v 0.026631815 -0.000177685 0.169774973
v 0.013800634 -0.000168408 0.023407761
v 0.003000000 -0.004860243 0.191845681
v 0.036317756 0.001745820 0.179866872
v 0.003000000 0.002500000 0.190500001
v -0.110765573 -0.019523161 0.087511223
v 0.030632620 0.002500000 0.167460996
v -0.034262886 0.016000001 0.143818717
v 0.006207665 -0.005500000 0.199368561
v 0.007170238 -0.002821158 0.193552829
v -0.029726455 -0.005500000 0.183215375
v -0.035150907 0.002386190 0.190796286
v -0.007381141 0.000040755 0.206000000
v 0.037500001 0.000500000 0.167999998
v -0.036660630 -0.003631865 0.181057441
v -0.036825806 -0.000947138 0.186249597
v -0.032721556 -0.005500000 0.183205819
v -0.008963259 0.001157799 0.200448682
v -0.018999999 0.002500000 0.202546874
v -0.010682598 0.000137356 0.028516679
v 0.003000000 0.001068017 0.188617185
v -0.034204531 -0.005500000 0.195344052
v -0.124406414 -0.030213692 0.088623577
v -0.024000000 -0.001306958 0.184285994
v -0.121996826 -0.026448340 0.088681474
v -0.024743272 -0.003666327 0.180999994
v -0.119351913 -0.016717069 0.087986739
v 0.005531873 -0.005500000 0.192866999
v -0.012916176 -0.000266275 0.188999996
v -0.005429965 -0.001964142 0.206000000
v -0.012194011 -0.005500000 0.189574197
v 0.035373196 0.000693475 0.167999998
v -0.124522604 -0.026769672 0.089920764
v -0.007647112 0.013629887 0.094999999
v 0.005964132 -0.000046712 0.197143161
v 0.003000000 0.001029835 0.194894931
v -0.013570923 0.002140213 0.191634334
v -0.114692952 -0.021601421 0.089895151
v -0.017596707 -0.005500000 0.198682390
v 0.037875001 0.002500000 0.174601558
v -0.121235867 -0.026488267 0.085676189
v -0.034796589 0.000313558 0.185763834
v -0.039999999 -0.002464699 0.183353434
v -0.123610542 -0.022445012 0.092810473
v 0.033846422 0.001098457 0.178023806
v 0.004292487 0.018744330 0.182323811
v 0.008224438 -0.005500000 0.191902435
v 0.037500001 0.001048593 0.169368076
v -0.018999999 -0.003277780 0.191343977
v 0.009098969 -0.005500000 0.189754678
v -0.027543580 0.016857531 0.146628850
v -0.012923643 -0.004857206 0.206000000
v 0.037500001 -0.001069174 0.180239519
v -0.016343774 0.000378195 0.188999996
v -0.029239642 -0.002719190 0.188817131
v 0.011810268 -0.003093096 0.196099635
v -0.035258948 -0.003990738 0.182802407
v -0.008270734 0.001441363 0.191044650
v -0.034599312 -0.002019552 0.188386068
v -0.027408022 0.003316224 0.189186542
v -0.008065420 -0.003801296 0.188999996
v 0.004559891 -0.000605337 0.192839336
v -0.027445077 -0.003184999 0.180999994
v 0.035401160 -0.000230580 0.176753274
v 0.003000000 -0.003297805 0.186402657
v 0.003000000 -0.004303849 0.189516452
v 0.035191545 -0.003766384 0.180999994
v 0.032107143 0.002578863 0.178681073
v -0.008192424 -0.003378431 0.199913901
v -0.002000000 0.000262331 0.202059527
v -0.111450359 -0.021354908 0.077155356
v -0.036300797 -0.003458840 0.192900426
v -0.121909130 -0.025345885 0.090639920
v -0.018344040 -0.004867497 0.206000000
v 0.029067493 -0.005500000 0.176077034
v 0.032323814 -0.005500000 0.170295405
v -0.010642462 -0.005500000 0.204604738
v 0.037500001 0.001566924 0.170468970
v -0.015997059 0.002409557 0.203011630
v 0.014516024 -0.005500000 0.192907574
v 0.029608896 0.003031502 0.174224460
v -0.005260883 -0.005500000 0.200613146
v -0.009292649 -0.005203338 0.205717188
v -0.126531208 -0.027975144 0.087024496
v 0.011648589 0.001013576 0.029012166
v 0.020331475 0.000240326 0.051055264
v -0.038681968 -0.005500000 0.195231998
v -0.030482628 -0.001988887 0.192018295
v 0.006464156 0.002892645 0.189971031
v -0.016147840 0.006326794 0.193629394
v -0.036692957 -0.001896662 0.195999995
v -0.005441522 -0.003938822 0.189142525
v -0.028689424 -0.005500000 0.186605057
v -0.018999999 -0.001005586 0.190554300
v -0.038310303 -0.003460190 0.183067017
v -0.123463720 -0.022422207 0.087051125
v -0.039999999 0.000553054 0.191682188
v -0.039999999 -0.001341929 0.193506311
v -0.119155502 -0.021062736 0.087988500
v 0.032182596 -0.001308779 0.178108100
v -0.112984542 -0.018578890 0.090848550
v -0.038877307 0.001378945 0.193314568
v 0.003000000 -0.001521091 0.185338842
v 0.036540296 -0.005500000 0.180635760
v -0.034130280 0.004030310 0.022427965
v 0.033136169 0.016833118 0.091338038
v 0.010705647 -0.005500000 0.185394047
v -0.059872624 0.019063309 0.026918776
v 0.005470569 -0.005500000 0.197719024
v -0.035270167 -0.005500000 0.190287468
v 0.005697475 -0.003000000 0.034536593
v -0.039999999 -0.001239809 0.188595514
v -0.031393091 -0.005500000 0.189730444
v 0.033391712 -0.002114919 0.174095929
v -0.005687819 -0.000940500 0.195569063
v -0.038775448 -0.004275449 0.180999994
v -0.012244213 0.001677712 0.199960802
v -0.038173371 -0.001023767 0.182707302
v 0.003370429 -0.005205032 0.187152994
v -0.017202940 -0.005500000 0.191120686
v -0.008800047 -0.002074229 0.206000000
v -0.024533796 0.000110107 0.195999995
v 0.036979886 0.000114417 0.180999994
v 0.005759190 0.000866345 0.186899382
v 0.009013549 0.007104941 0.019928353
v -0.040374999 0.002500000 0.189671870
v 0.027689012 0.001165929 0.176727228
v -0.004500000 0.021000000 0.094999999
v -0.003942283 -0.001253185 0.188999996
v -0.118276713 -0.029789013 0.082687504
v -0.026773057 -0.002255778 0.182671747
v -0.004187255 -0.003683554 0.193578063
v -0.029646171 0.009118780 0.030258820
v 0.003707138 0.000079394 0.184000000
v -0.004165381 -0.005500000 0.191165377
v -0.119768229 -0.028401266 0.087652900
v -0.115362760 -0.016917357 0.085240804
v -0.024000000 0.002500000 0.191781245
v -0.114044834 -0.013557443 0.086501453
v -0.033238789 0.000377639 0.190224522
v -0.123870949 -0.025430693 0.091255537
v 0.037500001 -0.003328617 0.179323505
v 0.030461111 0.001324217 0.179140461
v 0.018835779 -0.004142018 0.189851204
v -0.016474715 -0.005500000 0.202339763
v 0.008381335 0.000185237 0.195677527
v 0.011976505 -0.005500000 0.196457977
v -0.014902827 -0.000442828 0.200780101
v -0.032401582 0.001297472 0.186621491
v 0.007368067 -0.000862701 0.184000000
v 0.003000000 0.002500000 0.197250002
v -0.030644637 0.002243626 0.191842303
v -0.031144408 0.002815186 0.186061685
v 0.004778929 -0.001107068 0.186799752
v 0.015697053 -0.001686251 0.184000000
v -0.011998777 -0.003524364 0.188999996
v -0.014900186 -0.003693154 0.195481078
v -0.115044153 -0.017135007 0.091193426
v 0.006497332 -0.003384484 0.184000000
v 0.006338764 0.001900220 0.197597142
v -0.121854299 -0.026308825 0.079202651
v 0.036360489 0.018997034 0.100866194
v 0.004042575 0.001542395 0.198470923
v -0.026841903 0.006115177 0.189441002
v 0.016925374 -0.002918059 0.188283136
v 0.026389552 -0.004798839 0.167999998
v 0.031847245 -0.005500000 0.180591740
v -0.124230779 -0.029019238 0.083440001
v 0.034930437 -0.001991604 0.169828235
v -0.033310206 -0.001816250 0.192833048
v 0.007103796 -0.005500000 0.188658728
v -0.009530621 0.001292399 0.197443876
v -0.010331897 -0.003586005 0.202255609
v -0.037185909 0.016395560 0.098016711
v 0.005753688 0.001175880 0.191580334
v -0.001692061 0.017092321 0.176569730
v -0.016500000 0.021000000 0.094999999
v -0.039999999 0.001020101 0.188513166
v -0.118355002 -0.016765876 0.092148453
v 0.000640424 -0.003000000 0.030374876
v -0.012624544 -0.005500000 0.202991963
v -0.039999999 -0.002595106 0.190418637
v -0.007953047 -0.003805303 0.206000000
v -0.015500000 0.002500000 0.188999996
v 0.024499999 0.001113318 0.179279643
v -0.026580834 -0.005500000 0.192150977
v -0.123569191 -0.025375156 0.082668023
v -0.005726573 -0.005500000 0.204915824
v 0.018487541 0.001837586 0.027795491
v -0.005686501 0.015113601 0.150335720
v -0.029662299 -0.005500000 0.192938132
v -0.016602953 -0.001142374 0.194974322
v -0.015463156 -0.005500000 0.199958012
v 0.009632651 0.001193883 0.188948687
v 0.011216503 -0.005500000 0.188015998
v 0.001886093 0.004342008 0.181374995
v 0.003000000 0.000169643 0.198049110
v 0.018999999 -0.002559040 0.197345433
v -0.007778366 0.001093544 0.188999996
v -0.007667030 -0.001458378 0.188999996
v 0.037500001 -0.003470299 0.176268166
v -0.015825430 -0.005500000 0.205052360
v 0.026125001 -0.005500000 0.179374993
v -0.019057860 -0.003000000 0.039818705
v 0.037500001 -0.001651083 0.174012401
v -0.124841785 -0.031393093 0.086960708
v -0.024393819 -0.003757593 0.195254287
v -0.123000527 -0.009287838 0.087599815
v -0.016637017 -0.005500000 0.194014622
v -0.025678665 -0.000650370 0.182529966
v -0.118175526 -0.013512229 0.088188758
v -0.122289714 -0.029646209 0.089299057
v 0.015463834 0.006123382 0.108168919
v -0.007398845 -0.005500000 0.191674728
v -0.024000000 -0.005500000 0.185687494
v -0.123824319 -0.020939300 0.082330226
v -0.125035096 -0.016580400 0.093079300
v -0.124711012 -0.019906803 0.092557049
v -0.039999999 -0.004177398 0.182281603
v 0.012182467 -0.000563314 0.197785698
v -0.012222548 -0.005500000 0.199535778
v 0.015731642 0.022000000 0.063912444
v 0.014052193 0.003678492 0.022448137
v 0.018999999 -0.000299628 0.189237549
v 0.025597557 0.001687402 0.180181935
v -0.032854229 -0.002120998 0.189349772
v -0.031439444 -0.002016287 0.186001095
v 0.024499999 -0.000444986 0.179588469
v -0.030013267 -0.003844730 0.187140695
v -0.027585413 -0.005500000 0.189488572
v -0.016069773 -0.003752447 0.197179577
v 0.027566597 -0.001221441 0.176037796
v -0.002339586 -0.005217937 0.192351725
v 0.012577830 -0.003523943 0.184000000
v 0.032004106 0.000850740 0.180999994
v -0.015812172 -0.003547753 0.206000000
v 0.001667968 0.000000000 0.018495127
v 0.037500001 -0.000733277 0.170118941
v 0.008566146 0.002365406 0.197262320
v -0.018999999 -0.001660381 0.201084344
v 0.031975230 0.001063248 0.167999998
v -0.018924243 -0.003850141 0.203418697
v -0.003227313 -0.005500000 0.195681184
v -0.006173789 0.002864460 0.201622753
v 0.017024933 -0.003537823 0.194640839
v 0.008398661 -0.001588526 0.186297374
v -0.028368454 -0.002125523 0.185152973
v -0.002363753 -0.004938613 0.202401182
v -0.119041838 -0.018596452 0.090299656
v -0.018710225 -0.002875000 0.188999996
v -0.035562499 -0.001423828 0.180999994
v -0.040177086 0.013185557 0.153645972
v 0.032649363 0.001711624 0.170653259
v 0.029620406 -0.005500000 0.169030491
v -0.039685012 -0.005500000 0.182241189
v -0.034371168 -0.003311922 0.195999995
v 0.009535156 0.015321334 0.094999999
v 0.008146984 0.018839953 0.092995580
v -0.115958943 -0.018926452 0.089260561
v -0.002324491 -0.004009758 0.189240385
v -0.002580860 -0.005081671 0.198087579
v -0.002437500 0.002500000 0.205203125
v -0.036239316 -0.004731500 0.195999995
v -0.017944289 -0.002383859 0.205924258
v 0.038437499 -0.001500000 0.081777345
v -0.013145533 -0.002815846 0.202099014
v -0.012023697 -0.005500000 0.194702551
v -0.116900184 -0.023131398 0.083603735
v -0.123500577 -0.031141537 0.085665678
v -0.015859573 0.005950782 0.036125253
v -0.115347743 -0.011660154 0.071720133
v 0.004843750 0.002500000 0.200000003
v -0.108737992 -0.018409562 0.086333084
v -0.025844528 -0.001291672 0.184674123
v 0.011880061 -0.002047815 0.200000003
v 0.024499999 -0.004321961 0.172626810
v -0.107661462 -0.018598464 0.083934889
v 0.017495419 -0.005500000 0.193461898
v -0.121380184 -0.017726196 0.094570090
v -0.002989983 -0.004727799 0.205698405
v -0.039370358 -0.005192293 0.189832469
v -0.119268788 -0.018796015 0.094957133
v 0.003000000 0.002500000 0.193000002
v -0.010500000 0.016000001 0.094999999
v -0.036692709 -0.005500000 0.182185959
v -0.024000000 -0.004337205 0.193112066
v 0.012309864 0.003810465 0.191965031
v 0.025411868 -0.005262532 0.170161715
v 0.006538216 0.000876366 0.184000000
v -0.015389591 -0.005500000 0.197068217
v -0.002354167 -0.004882561 0.200294226
v -0.030218750 0.002500000 0.195999995
v 0.037500001 0.000989559 0.179559259
v -0.120681400 -0.031142544 0.085285688
v -0.120799922 -0.024387537 0.086794621
v -0.121576392 -0.027568851 0.080589655
v 0.018999999 -0.004357850 0.199522516
v 0.026007166 0.003191554 0.075312617
v -0.011072593 0.022000000 0.079326767
v -0.059033532 0.000176477 0.015753788
v -0.005315590 0.001839275 0.202245110
v -0.114366172 -0.023904342 0.086493507
v 0.016211430 -0.002368638 0.200000003
v 0.004761473 0.001501119 0.036413608
v -0.034388838 -0.000219860 0.195999995
v -0.117427301 -0.018944548 0.079640187
v 0.003612276 -0.004887724 0.184000000
v -0.041499998 0.006853391 0.183505930
v 0.014281778 -0.004277434 0.200000003
v -0.002130474 -0.002753112 0.204403531
v -0.115534010 -0.021445619 0.086617939
v -0.025543529 0.000799080 0.184631974
v 0.026506909 0.018351170 0.158560211
v 0.036562501 0.002500000 0.168609373
v 0.029072820 -0.002877459 0.167999998
v -0.016252485 -0.001372402 0.198066876
v 0.036941215 -0.003000000 0.180999994
v 0.010156342 -0.003566959 0.184000000
v -0.032022439 -0.004182856 0.195999995
v -0.111968705 -0.028030638 0.078058137
v -0.011319006 -0.000115775 0.206000000
v 0.033889877 -0.005500000 0.172632880
v -0.118588949 -0.024359292 0.088086800
v 0.014006425 -0.005500000 0.184989962
v 0.025745687 -0.002470875 0.180999994
v 0.006275077 -0.003362716 0.196987881
v 0.018169272 -0.000980329 0.184469797
v 0.028717333 -0.003715584 0.180999994
v -0.118097035 -0.022102107 0.090069253
v -0.027014433 -0.001943600 0.193956501
v -0.026437500 0.002500000 0.195999995
v 0.004034140 0.000880273 0.191551811
v -0.120880819 -0.015949690 0.092238882
v -0.017053916 0.002852641 0.199575637
v -0.117970767 -0.026396916 0.087924462
v 0.004749465 -0.001737802 0.195982636
v -0.116967482 -0.019040069 0.094009274
v -0.024000000 -0.000376267 0.190533179
v -0.032860374 -0.005500000 0.192904863
v 0.014201410 0.005676445 0.199122386
v -0.014000793 -0.005500000 0.191416360
v -0.007015625 0.016000001 0.097677084
v -0.039999999 -0.003979823 0.184701727
v 0.018999999 -0.004227261 0.195247792
v 0.024499999 -0.002333657 0.175265325
v -0.033480828 0.001093648 0.194395220
v -0.108819902 -0.018700078 0.081396891
v -0.038333538 0.000691480 0.195999995
v 0.014239079 0.000083236 0.196517146
v -0.007851985 -0.003000000 0.056969867
v 0.025667526 -0.003000000 0.030987508
v -0.026122870 -0.005500000 0.184179079
v -0.031296337 0.000615338 0.195999995
v 0.036672741 -0.005424302 0.176656144
v 0.008807982 -0.004873826 0.200000003
v -0.018999999 0.001074804 0.191233526
v 0.017170462 -0.005500000 0.199085294
v -0.123601885 -0.019463319 0.094063723
v -0.026106294 -0.000499452 0.180999994
v 0.037500001 -0.003619074 0.173370934
v -0.032703232 -0.000458456 0.180999994
v 0.033953240 -0.005378644 0.168681040
v 0.037500001 -0.003501649 0.170514873
v -0.014237552 0.001627938 0.190154529
v -0.039702829 0.000281038 0.181334595
v -0.033187499 0.002500000 0.195999995
v 0.010235520 -0.003648549 0.194276993
v -0.119678183 -0.023275100 0.094168912
v 0.015236941 0.002516206 0.194684739
v 0.032073676 -0.002159871 0.171249505
v -0.006720883 0.016549983 0.090216344
v 0.016957993 0.000049601 0.197067775
v 0.009351798 -0.005500000 0.197584959
v -0.030520255 0.001674574 0.189972372
v -0.121610306 -0.021105506 0.091805850
v -0.122679834 -0.025034968 0.092840012
v -0.025425786 -0.005358084 0.195694404
v 0.003000000 -0.002761263 0.198287744
v -0.123027695 -0.029589865 0.087042786
v -0.003791473 0.001032572 0.206000000
v -0.116303324 -0.019653653 0.091331160
v -0.018999999 0.002500000 0.199093748
v -0.039356826 -0.000990255 0.195999995
v 0.018999999 0.000824404 0.196339867
v 0.028910050 -0.003683289 0.178014527
v -0.110867454 -0.014973329 0.086852252
v 0.005759794 -0.003328314 0.200000003
v -0.013833324 0.000313427 0.055068558
v -0.007349762 -0.005500000 0.203133830
v -0.112484226 -0.014226040 0.080826984
v -0.002000000 -0.002425809 0.198204921
v -0.117929479 -0.023224040 0.085614452
v -0.002000000 0.000500000 0.188999996
v -0.018237688 -0.005267755 0.196849546
v 0.024499999 0.001500000 0.180999994
v -0.033804739 0.003036222 0.194313479
v 0.007128612 0.020497251 0.099486302
v 0.030716228 0.001069581 0.175368048
v 0.026812500 0.002500000 0.181374995
v -0.117788949 -0.020267384 0.095620110
v -0.005031185 0.002341615 0.193341658
v -0.014214320 -0.002602396 0.199093465
v 0.031197188 -0.004911719 0.167999998
v -0.128546175 -0.028354131 0.084465170
v -0.036142446 0.000889918 0.180999994
v 0.034670061 -0.004122938 0.172863939
v -0.108378972 -0.020923162 0.082617216
v 0.033424877 -0.003376690 0.167999998
v 0.024499999 -0.002786136 0.179143756
v 0.040618815 0.018505660 0.039175683
v 0.024499999 -0.005210386 0.178765620
v 0.003862826 -0.003000000 0.043879076
v -0.029251237 -0.003735371 0.195999995
v 0.011937845 0.002079760 0.186371374
v -0.113713537 -0.019847498 0.083661080
v 0.003000000 -0.005250000 0.199000003
v -0.109704808 -0.020928547 0.084322771
v -0.121438693 -0.022755709 0.080460766
v -0.024000000 -0.001313646 0.181905529
v 0.007771515 -0.005500000 0.194844065
v -0.030688800 -0.005500000 0.195406219
v 0.036333178 -0.005500000 0.172820967
v -0.110306558 -0.011597496 0.082585910
v 0.009808021 -0.000102301 0.200000003
v -0.018999999 -0.001209907 0.205251035
v -0.120923579 -0.024616716 0.094041728
v 0.013739341 -0.003406369 0.197336318
v 0.016238568 0.001728371 0.197761661
v 0.003650511 -0.005195283 0.195358809
v -0.027447899 -0.004002098 0.187542524
v 0.010628625 -0.002491720 0.187153014
v 0.036387223 0.001622561 0.169300433
v 0.010895758 -0.004745890 0.199584262
v -0.024000000 0.000833961 0.182647936
v 0.032462062 -0.000839335 0.167999998
v -0.124006127 -0.023227091 0.079068713
v 0.026503046 -0.005500000 0.177059387
v 0.018278719 -0.005345441 0.196977281
v -0.028155621 -0.005500000 0.195362547
v 0.005668523 -0.005232903 0.185064791
v 0.008952704 -0.003406162 0.187848189
v 0.024750791 -0.002971184 0.168527749
v -0.024000000 0.001200143 0.190002164
v -0.036979296 0.020122251 0.101204988
v -0.113548647 -0.028432517 0.079578918
v 0.029967568 0.002045040 0.172038447
v -0.013782481 -0.003016366 0.188999996
v -0.024837840 -0.001569824 0.195733498
v -0.114437610 -0.019136280 0.092754780
v -0.025296076 -0.005500000 0.181283517
v -0.026353039 -0.005500000 0.186797460
v -0.026652752 -0.003289435 0.191133592
v -0.107626967 -0.014912826 0.085414010
v 0.037500001 0.001513930 0.177578942
v 0.019818413 0.000000000 0.012792147
v -0.109955066 -0.013383721 0.082260205
v 0.005633699 -0.003369982 0.188677721
v 0.035343049 -0.005500000 0.170646450
v -0.012637536 -0.003807616 0.194078481
v -0.014508878 0.013225685 0.184087190
v -0.018751145 0.022000000 0.085098155
v -0.111435489 -0.025235075 0.075870443
v -0.024000000 -0.002792917 0.186517807
v 0.006063322 -0.000072288 0.200000003
v -0.035410072 0.021000000 0.096198465
v 0.024499999 -0.002903885 0.170358678
v -0.025335356 0.017108345 0.190343857
v 0.008232422 -0.005152569 0.184149008
v -0.018849241 -0.004988142 0.200482431
v -0.029102853 0.001610180 0.192649972
v -0.121314902 -0.023381603 0.083207874
v -0.013029132 -0.000240849 0.197710366
v 0.017634798 -0.001379444 0.200000003
v 0.012432800 0.000128552 0.039607926
v -0.126737269 -0.024664206 0.088159103
v -0.002000000 -0.002515304 0.201798492
v 0.003000000 -0.004329308 0.197935380
v -0.118283220 -0.022653410 0.093171457
v 0.018100523 -0.005238301 0.191202066
v 0.029945273 0.009069465 0.088041679
v -0.022427660 0.017437974 0.091860989
v -0.008440310 -0.003000000 0.073692571
v -0.113487461 -0.025440139 0.074638645
v -0.120979912 -0.027351554 0.090576111
v -0.014328047 -0.000437013 0.191142371
v 0.008846536 -0.002285530 0.200000003
v -0.123276855 -0.016425745 0.093817212
v -0.033805118 0.001978153 0.185192600
v 0.024499999 0.000560169 0.172606796
v 0.025035926 -0.001454666 0.180999994
v -0.110429885 -0.018651783 0.079498321
v -0.024065941 -0.004112880 0.183307612
v -0.106974875 -0.016846648 0.085149420
v -0.065170162 0.004132977 0.015161119
v 0.024499999 0.000602441 0.176246125
v -0.115538433 -0.024636016 0.082629587
v -0.109058750 -0.016215744 0.082147850
v -0.113496416 -0.025622124 0.083147588
v -0.039693352 -0.005500000 0.186076568
v -0.013862137 0.000692615 0.206000000
v -0.041414765 0.012910542 0.045023990
v -0.129568789 -0.021358824 0.089062836
v 0.033956969 -0.003324786 0.177103808
v -0.116228130 -0.021590416 0.091892309
v -0.015177128 0.019953447 0.092483398
v 0.016006244 -0.004470092 0.184520890
v -0.121501304 -0.019815459 0.096303816
v -0.018861638 -0.004516655 0.195238544
v -0.121940587 -0.022835241 0.088685548
v -0.017333663 -0.000191809 0.206000000
v -0.006753267 0.019875000 0.102195903
v -0.112942531 -0.022107571 0.075063303
v -0.016932556 0.000475328 0.192747569
v -0.002000000 0.000243520 0.204297176
v -0.039351738 -0.002748451 0.195731230
v 0.008921875 0.002500000 0.184000000
v -0.009882615 0.000352834 0.194321546
v 0.031031330 -0.003335962 0.175665823
v -0.034326798 0.007258343 0.123508344
v 0.012285844 0.004119698 0.187008971
v -0.002000000 -0.003364376 0.191288215
v 0.005830356 0.000224277 0.046036527
v 0.029845708 -0.003651822 0.172610834
v -0.007797563 0.000407181 0.203265428
v 0.003869925 0.017124113 0.100997413
v -0.002000000 0.000173791 0.196484624
v -0.004180578 0.000588636 0.088434768
v 0.014787805 -0.003812896 0.188248445
v -0.008543276 0.004120452 0.199161518
v -0.024000000 -0.001004478 0.193748136
v -0.014031642 0.001433135 0.188999996
v -0.122994427 -0.016587859 0.092297892
v -0.024000000 -0.003189431 0.189112800
v 0.034961747 0.000551213 0.172084650
v -0.026469574 0.001839506 0.186853646
v 0.026938083 0.020225810 0.099101882
v 0.025382442 -0.004730093 0.180800288
v -0.018999999 0.000872691 0.203339353
v 0.015935992 0.019396098 0.089652838
v 0.011863222 0.004510651 0.181538068
v -0.016513592 -0.002602243 0.201724840
v -0.039562499 0.002500000 0.195999995
v -0.037890580 -0.005500000 0.184367636
v -0.123147011 -0.028211456 0.090959117
v 0.015503220 -0.005500000 0.189137449
v -0.119110300 -0.020172861 0.077909953
v -0.119830417 -0.021323576 0.096566150
v -0.024290070 -0.005500000 0.190837799
v -0.112153012 -0.018705954 0.077422196
v -0.002206955 -0.003000000 0.022549571
v -0.028360400 0.002794848 0.191337735
v -0.033096888 0.001904932 0.195050894
v -0.010720888 -0.003247927 0.206000000
v 0.014112142 0.002377141 0.190321503
v 0.027880487 0.002489564 0.177004504
v -0.061590797 0.019321034 0.025900053
v 0.011247302 0.002059667 0.059433270
v -0.007498339 0.017781407 0.093537764
v 0.000390037 0.004234919 0.043457809
v -0.002281047 -0.001062216 0.206000000
v -0.039999999 0.000453838 0.183812045
v 0.036573862 -0.000904689 0.167999998
v -0.012948647 0.019271532 0.090381107
v -0.116547039 -0.026928439 0.085397806
v 0.016501022 0.001918390 0.188528192
v 0.026127097 0.000119606 0.179228528
v 0.005375000 0.021000000 0.094999999
v 0.024264063 -0.003000000 0.055991308
v 0.029073479 -0.005500000 0.179555478
v 0.033829452 -0.005500000 0.178839380
v -0.120557214 -0.023185529 0.091121776
v 0.003000000 0.001500000 0.200000003
v -0.048937102 0.010513844 0.015907870
v 0.030843949 -0.005500000 0.173241814
v -0.062425187 0.009818554 0.016004817
v 0.037696977 0.016446190 0.140893850
v 0.037500001 -0.002560617 0.168992083
v -0.018776901 0.006021358 0.204538575
v -0.018999999 0.002500000 0.194046872
v -0.009259252 -0.005500000 0.200604041
v -0.063327604 0.004405001 0.021227477
v -0.113977238 -0.022261883 0.073765862
v 0.029488724 0.000188710 0.167999998
v -0.112415543 -0.017787400 0.084885125
v 0.011251302 -0.003000000 0.025730028
v -0.034866813 0.001392303 0.195999995
v -0.124215551 -0.022796459 0.083580340
v 0.025734130 -0.005500000 0.175137500
v 0.006474609 0.018511306 0.090053819
v -0.007690485 -0.000143686 0.199213398
v -0.118472800 -0.024746594 0.090708130
v -0.071035509 0.014793580 0.031041272
v 0.013433937 -0.001792173 0.186329444
v -0.023446138 0.022000000 0.061139448
v -0.122147050 -0.023072181 0.094293157
v -0.028378017 -0.001587744 0.195999995
v -0.124479630 -0.017620182 0.093785988
v 0.010698434 0.000518368 0.023252165
v -0.028699689 0.002617609 0.185366076
v 0.001500000 0.009480905 0.186240007
v -0.015304313 0.001771900 0.194208971
v -0.038227537 -0.003580032 0.185967659
v -0.024000000 0.000447635 0.186240765
v -0.012755946 0.008848633 -0.012863070
v 0.012364207 -0.000078483 0.194123715
v -0.017046898 0.001259150 0.206000000
v -0.111458094 -0.006711579 0.057853570
v -0.066362688 0.006104734 0.015224273
v -0.059987870 0.015894987 0.016147729
v -0.065427688 0.014834008 0.031925903
v -0.059305400 0.019820157 0.032044184
v -0.061511615 0.002369462 0.014440270
v -0.017250000 0.002500000 0.188999996
v -0.008944452 0.019302181 0.091591365
v -0.037999999 -0.003000000 0.027962457
v -0.003431908 0.019466865 0.093196674
v -0.061042012 0.019593527 0.023232287
v -0.064797008 0.009259629 0.017430219
v 0.013593749 0.000000000 0.016138517
v -0.009504617 0.019133456 0.087587626
v -0.113462068 -0.006331765 0.077823371
v -0.027690898 0.016325882 0.096829382
v 0.012818134 0.002771070 0.019059678
v -0.055948567 0.015569383 0.017664865
v -0.035972738 -0.002941147 0.046105904
v 0.012497794 0.007192457 0.011920115
v 0.009156265 0.000000000 0.016156977
v 0.019997421 0.012903873 0.081782382
v -0.006203108 0.019619136 0.092108699
v -0.060149433 0.018775943 0.020657650
v -0.064023023 0.011560611 0.018400145
v -0.065491846 0.007249981 0.014741875
v -0.046606268 -0.003038860 0.020993263
v 0.029500000 0.021000000 0.094999999
v 0.004320728 0.020230892 0.092442263
v -0.047157956 0.022044242 0.024747169
v -0.039230846 0.008647402 0.013734114
v -0.032828125 -0.000209384 0.016925769
v -0.062828565 0.014095956 0.020071562
v -0.063818901 0.010497646 0.014788254
v -0.004684642 0.019801400 0.089911516
v 0.000966956 0.019924205 0.094999999
v 0.024507827 0.021512965 0.091255692
v -0.009277513 0.019579211 0.093143220
v -0.062320478 0.017669246 0.022586138
f 113 1 7
f 7 1 255
f 1188 1 113
f 255 1 1136
f 1188 1136 1
f 194 2 3
f 3 2 195
f 2 4 9
f 151 4 2
f 60 7 2
f 7 257 2
f 9 59 2
f 59 91 2
f 92 60 2
f 91 195 2
f 194 92 2
f 2 257 151
f 195 194 3
f 4 146 9
f 146 4 207
f 151 207 4
f 5 6 9
f 5 1166 6
f 9 108 5
f 108 275 5
f 275 1166 5
f 6 58 9
f 69 58 6
f 6 71 69
f 6 1166 71
f 34 7 68
f 34 113 7
f 68 7 60
f 7 255 256
f 7 256 257
f 8 39 27
f 27 1188 8
f 39 8 1170
f 45 8 408
f 1170 8 45
f 408 8 199
f 199 8 1193
f 1188 1193 8
f 9 37 109
f 215 37 9
f 9 57 108
f 109 57 9
f 1191 9 58
f 68 59 9
f 9 1191 68
f 89 9 146
f 89 215 9
f 111 1015 10
f 1134 111 10
f 10 261 221
f 911 10 221
f 1168 261 10
f 10 911 1134
f 1015 1168 10
f 11 693 170
f 11 170 1022
f 216 677 11
f 11 886 216
f 847 11 415
f 11 1022 415
f 677 424 11
f 424 693 11
f 847 886 11
f 138 87 12
f 87 308 12
f 133 209 12
f 1066 133 12
f 138 12 897
f 12 209 897
f 12 308 1066
f 339 13 43
f 43 13 732
f 132 209 13
f 13 339 132
f 13 209 133
f 732 13 133
f 14 32 163
f 683 32 14
f 36 683 14
f 1197 36 14
f 1197 14 163
f 15 96 47
f 47 606 15
f 96 15 131
f 15 1074 131
f 1074 15 606
f 121 41 16
f 807 16 41
f 16 51 278
f 16 807 51
f 121 16 863
f 863 16 278
f 17 102 48
f 232 17 48
f 539 77 17
f 77 1015 17
f 370 98 17
f 17 98 539
f 17 731 102
f 292 17 232
f 292 948 17
f 370 17 948
f 1015 731 17
f 380 258 18
f 258 895 18
f 516 380 18
f 18 895 516
f 105 67 19
f 19 67 142
f 19 425 105
f 142 425 19
f 167 141 20
f 141 185 20
f 157 167 20
f 242 157 20
f 185 242 20
f 90 21 22
f 21 277 22
f 90 717 21
f 717 277 21
f 90 22 67
f 22 110 67
f 277 110 22
f 24 143 23
f 601 24 23
f 143 167 23
f 23 201 155
f 155 1095 23
f 167 201 23
f 1095 601 23
f 201 143 24
f 201 24 155
f 24 601 155
f 25 51 220
f 396 51 25
f 220 189 25
f 189 396 25
f 1056 271 26
f 26 271 1136
f 1056 26 1188
f 26 1136 1188
f 39 408 27
f 1180 27 408
f 1180 1056 27
f 27 1056 1188
f 28 338 82
f 28 82 826
f 421 338 28
f 387 978 28
f 1176 387 28
f 28 1011 421
f 1176 28 826
f 28 978 1011
f 428 29 112
f 530 112 29
f 494 29 428
f 626 29 494
f 962 530 29
f 626 1046 29
f 962 29 902
f 902 29 1046
f 30 931 696
f 696 1099 30
f 30 981 931
f 1146 981 30
f 1099 1039 30
f 1039 1146 30
f 31 375 105
f 425 31 105
f 31 185 768
f 185 31 952
f 375 31 1080
f 952 31 425
f 1080 31 768
f 70 80 32
f 32 683 70
f 32 80 1066
f 32 138 897
f 1066 138 32
f 163 32 589
f 589 32 897
f 33 921 415
f 33 415 1097
f 1097 903 33
f 903 1141 33
f 921 33 908
f 33 1141 908
f 68 1193 34
f 1188 113 34
f 1188 34 1193
f 56 40 35
f 40 252 35
f 65 56 35
f 1010 65 35
f 252 295 35
f 295 1010 35
f 43 38 36
f 150 36 38
f 67 36 42
f 36 393 42
f 1016 43 36
f 67 94 36
f 36 150 70
f 36 70 683
f 74 393 36
f 36 1122 74
f 94 99 36
f 99 854 36
f 854 1016 36
f 1122 36 1197
f 182 109 37
f 215 182 37
f 284 38 43
f 38 133 150
f 284 133 38
f 39 1170 408
f 56 1159 40
f 252 40 1159
f 41 606 47
f 807 41 47
f 51 41 121
f 606 41 51
f 86 67 42
f 425 86 42
f 393 218 42
f 218 425 42
f 284 43 72
f 72 43 732
f 339 43 1177
f 1016 524 43
f 43 524 1177
f 44 63 1140
f 1174 63 44
f 1140 792 44
f 792 1182 44
f 44 1182 1174
f 408 1170 45
f 102 731 46
f 1015 102 46
f 731 520 46
f 520 1015 46
f 96 1074 47
f 807 47 563
f 1074 563 47
f 1133 48 102
f 48 116 232
f 48 817 116
f 384 817 48
f 384 48 1133
f 49 50 203
f 49 820 50
f 49 203 307
f 219 498 49
f 1123 219 49
f 264 49 307
f 264 1123 49
f 820 49 498
f 127 203 50
f 820 127 50
f 1022 51 121
f 220 51 145
f 51 1022 145
f 278 51 396
f 807 606 51
f 344 52 553
f 344 566 52
f 439 553 52
f 572 439 52
f 566 572 52
f 566 344 53
f 344 618 53
f 1005 566 53
f 618 1005 53
f 1006 770 54
f 770 1088 54
f 1006 54 785
f 785 54 1103
f 54 1088 1103
f 685 55 316
f 55 851 316
f 849 55 685
f 55 824 723
f 851 55 723
f 824 55 849
f 56 65 169
f 1159 56 169
f 108 57 275
f 182 57 109
f 182 275 57
f 1191 58 69
f 59 68 60
f 60 91 59
f 92 91 60
f 327 219 61
f 61 219 1123
f 906 327 61
f 1123 906 61
f 1140 63 62
f 63 1174 62
f 906 62 295
f 62 1010 295
f 62 906 1140
f 62 1174 1010
f 169 792 64
f 64 1193 169
f 64 759 408
f 408 1193 64
f 64 1105 759
f 792 1105 64
f 792 169 65
f 65 1182 792
f 1010 1182 65
f 90 67 66
f 1189 66 67
f 1091 90 66
f 66 1189 1091
f 94 67 79
f 67 110 79
f 86 142 67
f 67 105 298
f 210 67 298
f 1189 67 210
f 75 252 68
f 75 68 1191
f 68 1159 169
f 1193 68 169
f 1159 68 252
f 71 1191 69
f 150 80 70
f 1191 71 1166
f 133 284 72
f 72 732 133
f 87 73 308
f 87 466 73
f 73 138 308
f 73 420 138
f 420 73 520
f 466 745 73
f 73 745 520
f 218 393 74
f 74 1122 218
f 252 75 965
f 75 528 965
f 75 1191 528
f 412 76 394
f 591 394 76
f 76 412 933
f 752 591 76
f 76 933 752
f 77 539 754
f 584 77 754
f 584 1086 77
f 77 739 1015
f 77 1086 739
f 79 110 78
f 79 78 777
f 78 110 277
f 277 498 78
f 498 777 78
f 94 79 777
f 133 80 150
f 1066 80 133
f 81 100 88
f 81 88 184
f 1131 100 81
f 81 184 717
f 81 717 200
f 200 1131 81
f 82 338 153
f 82 153 826
f 869 100 85
f 1131 85 100
f 126 422 85
f 868 126 85
f 422 506 85
f 506 595 85
f 869 85 595
f 1131 868 85
f 425 142 86
f 138 420 87
f 87 420 520
f 520 466 87
f 100 200 88
f 184 88 1091
f 717 88 200
f 1091 88 717
f 146 207 89
f 207 182 89
f 215 89 182
f 90 1091 717
f 195 91 92
f 194 195 92
f 134 501 93
f 521 134 93
f 274 93 1147
f 93 274 1165
f 1147 93 501
f 521 93 1165
f 94 777 99
f 325 95 104
f 1180 104 95
f 95 187 168
f 168 524 95
f 187 95 325
f 95 524 1056
f 95 1056 1180
f 131 999 96
f 999 1074 96
f 370 754 98
f 754 539 98
f 777 854 99
f 562 119 100
f 119 868 100
f 868 200 100
f 869 562 100
f 1015 111 102
f 1133 102 111
f 103 574 319
f 1133 103 319
f 103 1133 574
f 104 391 325
f 391 104 905
f 759 905 104
f 759 104 1180
f 298 105 203
f 812 203 105
f 375 812 105
f 125 164 106
f 125 106 176
f 106 164 158
f 158 222 106
f 106 222 176
f 937 1133 111
f 937 111 1134
f 472 428 112
f 112 875 472
f 1053 112 530
f 1000 875 112
f 1000 112 1053
f 115 503 529
f 115 665 503
f 572 115 529
f 115 572 540
f 115 540 648
f 115 648 668
f 665 115 668
f 116 1081 232
f 625 116 817
f 1081 116 625
f 117 280 175
f 383 117 175
f 997 280 117
f 383 405 117
f 1138 117 405
f 870 997 117
f 1138 870 117
f 119 534 126
f 126 868 119
f 213 119 175
f 119 383 175
f 119 213 1044
f 383 119 405
f 405 119 562
f 534 119 1044
f 223 415 121
f 223 121 863
f 121 415 1022
f 198 122 149
f 1162 149 122
f 193 122 465
f 1162 122 193
f 198 358 122
f 465 122 358
f 345 158 123
f 1137 123 158
f 123 1038 345
f 1137 1038 123
f 307 203 124
f 124 203 1082
f 1037 307 124
f 1037 124 482
f 482 124 1082
f 125 1176 164
f 176 1057 125
f 1057 763 125
f 763 1176 125
f 183 293 126
f 183 126 301
f 126 293 422
f 534 301 126
f 203 127 298
f 277 298 127
f 277 127 498
f 498 127 820
f 128 387 694
f 128 978 387
f 475 128 941
f 475 1011 128
f 694 941 128
f 1011 978 128
f 145 129 170
f 145 1022 129
f 1022 170 129
f 1074 729 131
f 131 729 1177
f 131 1020 999
f 1020 131 1177
f 132 168 297
f 339 168 132
f 132 839 209
f 589 132 297
f 132 589 839
f 134 198 149
f 149 501 134
f 134 521 198
f 369 136 642
f 665 136 369
f 577 818 136
f 136 894 577
f 136 818 642
f 136 665 894
f 273 525 137
f 273 137 1002
f 525 805 137
f 137 609 584
f 137 584 1002
f 649 609 137
f 137 805 649
f 308 138 1066
f 365 139 355
f 139 883 355
f 365 790 139
f 476 538 139
f 790 476 139
f 538 883 139
f 157 141 143
f 141 167 143
f 242 141 157
f 768 185 141
f 242 768 141
f 262 157 143
f 143 201 262
f 144 427 656
f 941 427 144
f 144 828 547
f 144 547 941
f 656 561 144
f 828 144 561
f 145 170 186
f 220 145 186
f 147 245 474
f 245 147 699
f 410 779 147
f 147 882 410
f 474 882 147
f 779 699 147
f 171 148 302
f 148 171 937
f 649 302 148
f 148 911 649
f 911 148 1134
f 148 937 1134
f 149 358 501
f 358 149 1162
f 160 207 151
f 282 160 151
f 257 256 151
f 256 1136 151
f 282 151 1136
f 158 153 243
f 826 153 158
f 153 1067 243
f 1104 153 338
f 1104 1067 153
f 288 155 258
f 155 895 258
f 155 288 419
f 1095 155 419
f 546 155 601
f 155 546 895
f 157 262 167
f 826 158 164
f 329 158 165
f 345 165 158
f 158 329 222
f 1137 158 243
f 274 207 160
f 282 274 160
f 589 1082 163
f 163 1082 812
f 812 1197 163
f 826 164 193
f 193 164 1162
f 164 465 1162
f 164 1176 465
f 181 329 165
f 345 181 165
f 201 167 262
f 168 187 297
f 168 339 1177
f 168 1020 524
f 1020 168 729
f 168 1177 729
f 170 693 186
f 555 171 302
f 555 795 171
f 937 171 574
f 574 171 1093
f 795 1093 171
f 419 174 231
f 480 231 174
f 174 419 468
f 174 468 882
f 174 544 480
f 544 174 710
f 882 710 174
f 175 280 213
f 222 197 176
f 197 959 176
f 959 512 176
f 512 1057 176
f 268 593 177
f 177 857 268
f 593 1146 177
f 177 1119 857
f 890 1119 177
f 1146 890 177
f 247 469 181
f 247 181 1038
f 469 329 181
f 345 1038 181
f 207 1147 182
f 1147 275 182
f 740 293 183
f 740 183 301
f 298 717 184
f 1091 298 184
f 185 1080 242
f 1080 185 952
f 1158 220 186
f 693 998 186
f 186 998 1158
f 297 187 325
f 932 762 188
f 762 1003 188
f 968 932 188
f 968 188 1151
f 1003 1151 188
f 914 189 220
f 914 357 189
f 916 189 357
f 189 960 396
f 916 960 189
f 310 379 192
f 310 192 822
f 192 379 637
f 192 637 1135
f 822 192 776
f 1135 776 192
f 826 193 465
f 196 546 249
f 249 560 196
f 546 196 706
f 196 560 838
f 706 196 838
f 197 222 329
f 253 197 329
f 366 197 253
f 959 197 366
f 358 198 521
f 1193 408 199
f 1131 200 868
f 812 1082 203
f 560 249 205
f 1155 205 249
f 560 205 390
f 205 1155 390
f 504 691 206
f 504 206 849
f 761 206 578
f 767 578 206
f 206 691 767
f 761 824 206
f 206 824 849
f 274 1147 207
f 459 247 208
f 1000 208 247
f 272 685 208
f 1000 272 208
f 316 459 208
f 685 316 208
f 589 209 839
f 897 209 589
f 298 1091 210
f 1091 1189 210
f 374 271 212
f 1166 212 271
f 212 1165 374
f 1166 1165 212
f 1044 213 280
f 1003 677 216
f 216 886 847
f 216 847 908
f 908 1151 216
f 1151 1003 216
f 304 217 917
f 217 304 1132
f 217 1013 917
f 918 977 217
f 217 1132 918
f 217 977 1013
f 218 952 425
f 1122 952 218
f 219 327 965
f 965 498 219
f 244 349 220
f 989 244 220
f 220 349 914
f 1158 989 220
f 609 221 261
f 609 649 221
f 649 911 221
f 223 341 681
f 341 223 863
f 397 223 681
f 1097 223 397
f 415 223 1097
f 396 224 278
f 224 863 278
f 681 341 224
f 341 863 224
f 396 960 224
f 733 681 224
f 224 1116 733
f 224 960 920
f 1116 224 920
f 380 230 939
f 380 1028 230
f 753 409 230
f 409 939 230
f 1028 753 230
f 231 1095 419
f 1095 231 480
f 1081 292 232
f 427 694 239
f 427 239 734
f 766 239 694
f 888 734 239
f 766 888 239
f 605 726 240
f 750 605 240
f 240 662 750
f 240 1023 662
f 995 240 726
f 995 1023 240
f 242 1080 768
f 1137 243 1067
f 914 349 244
f 914 244 974
f 244 989 974
f 245 1061 474
f 699 1100 245
f 245 1100 1061
f 459 469 247
f 247 875 1000
f 875 247 1017
f 1038 1017 247
f 546 1155 249
f 252 327 295
f 327 252 965
f 716 253 329
f 723 366 253
f 851 253 716
f 253 851 723
f 1136 256 255
f 437 288 258
f 258 380 939
f 437 258 939
f 516 361 260
f 260 361 1028
f 260 380 516
f 1028 380 260
f 1168 609 261
f 288 263 419
f 263 288 437
f 263 410 468
f 779 410 263
f 419 263 468
f 263 437 779
f 1037 264 307
f 905 264 391
f 1037 391 264
f 264 905 532
f 1123 264 532
f 340 751 266
f 844 340 266
f 266 751 1095
f 1071 844 266
f 1095 1071 266
f 561 268 287
f 268 857 287
f 268 561 656
f 268 656 593
f 1136 271 374
f 271 1056 1166
f 685 272 289
f 272 1000 289
f 675 525 273
f 711 586 273
f 586 896 273
f 896 675 273
f 273 1002 711
f 282 374 274
f 374 1165 274
f 275 1147 1165
f 275 1165 1166
f 298 277 717
f 512 347 279
f 279 347 773
f 512 279 1057
f 279 773 772
f 1057 279 772
f 280 831 900
f 280 1021 831
f 900 1044 280
f 997 1021 280
f 817 935 281
f 1069 817 281
f 1115 281 935
f 1115 1069 281
f 1136 374 282
f 287 530 972
f 287 1053 530
f 561 287 972
f 857 1053 287
f 1119 685 289
f 289 1000 1053
f 289 1053 1119
f 1076 450 290
f 290 450 1081
f 548 1076 290
f 1081 548 290
f 450 948 292
f 1081 450 292
f 954 422 293
f 740 950 293
f 293 950 954
f 327 906 295
f 482 297 325
f 482 1082 297
f 589 297 1082
f 1044 301 534
f 740 301 1050
f 1044 1050 301
f 555 302 1063
f 302 649 604
f 604 1063 302
f 303 418 702
f 912 418 303
f 702 635 303
f 635 833 303
f 993 303 833
f 993 912 303
f 917 963 304
f 304 963 1117
f 1132 304 1117
f 769 310 333
f 310 822 333
f 379 310 798
f 522 310 769
f 310 522 798
f 313 488 570
f 313 598 488
f 671 313 570
f 313 774 598
f 671 810 313
f 810 774 313
f 366 315 639
f 366 723 315
f 315 761 639
f 723 761 315
f 316 851 459
f 317 466 731
f 317 745 466
f 745 317 520
f 317 1015 520
f 1015 317 731
f 1133 319 330
f 319 1161 330
f 1093 319 574
f 1093 1065 319
f 319 1065 1161
f 752 933 322
f 322 1127 752
f 322 933 942
f 322 942 1019
f 1019 1127 322
f 391 482 325
f 469 716 329
f 384 330 550
f 1133 330 384
f 550 330 876
f 330 1055 876
f 1161 1055 330
f 443 333 586
f 769 333 443
f 586 333 896
f 896 333 822
f 445 635 334
f 445 334 750
f 602 334 467
f 702 467 334
f 605 334 602
f 334 605 750
f 702 334 635
f 421 1104 338
f 340 689 751
f 340 844 689
f 344 553 357
f 357 618 344
f 512 1030 347
f 588 696 347
f 588 347 1030
f 599 347 696
f 599 773 347
f 348 1129 630
f 1143 348 630
f 843 809 348
f 348 809 1129
f 831 843 348
f 1143 831 348
f 616 443 350
f 443 711 350
f 711 584 350
f 350 584 754
f 616 350 755
f 755 350 754
f 818 352 642
f 352 1070 642
f 818 646 352
f 1070 352 646
f 760 354 508
f 1009 508 354
f 633 595 354
f 595 1009 354
f 354 793 633
f 760 793 354
f 622 365 355
f 355 722 622
f 1124 722 355
f 883 1124 355
f 916 357 553
f 357 914 618
f 465 358 1162
f 501 358 521
f 516 382 361
f 361 382 979
f 864 361 830
f 979 830 361
f 864 858 361
f 361 858 1028
f 362 552 1125
f 1129 552 362
f 630 362 1124
f 630 1129 362
f 362 722 1124
f 1125 722 362
f 678 549 365
f 549 790 365
f 678 365 608
f 872 608 365
f 622 872 365
f 959 366 639
f 454 369 642
f 454 737 369
f 369 836 665
f 836 369 737
f 684 754 370
f 948 684 370
f 1197 812 375
f 952 375 1080
f 952 1197 375
f 816 637 379
f 816 379 798
f 895 382 516
f 382 895 827
f 1019 382 827
f 979 382 1019
f 817 384 550
f 766 694 387
f 387 763 766
f 387 1176 763
f 554 576 390
f 554 390 751
f 576 560 390
f 751 390 1155
f 1037 482 391
f 1042 772 392
f 772 1152 392
f 834 1042 392
f 834 392 1062
f 392 913 1062
f 392 1152 913
f 403 394 576
f 403 621 394
f 394 558 412
f 558 394 621
f 591 576 394
f 763 395 766
f 763 772 395
f 888 766 395
f 1042 395 772
f 1042 888 395
f 652 531 397
f 531 1097 397
f 652 397 681
f 437 409 401
f 481 401 409
f 437 401 779
f 699 401 481
f 779 401 699
f 576 658 403
f 620 621 403
f 620 403 658
f 1138 405 562
f 408 759 1180
f 409 437 939
f 899 481 409
f 899 409 753
f 410 882 468
f 984 412 558
f 412 984 933
f 921 847 415
f 702 418 988
f 912 864 418
f 864 988 418
f 1052 421 1011
f 1052 1046 421
f 1046 1104 421
f 422 485 506
f 485 422 954
f 677 1085 424
f 998 693 424
f 424 893 998
f 1085 893 424
f 713 656 427
f 427 941 694
f 734 713 427
f 428 472 494
f 572 529 439
f 840 439 529
f 553 439 570
f 840 570 439
f 607 442 791
f 1108 442 607
f 791 442 819
f 819 442 1065
f 442 876 1055
f 442 1108 876
f 1055 1065 442
f 711 443 586
f 616 647 443
f 647 769 443
f 525 444 604
f 444 525 675
f 1063 604 444
f 444 675 764
f 764 1063 444
f 635 445 1100
f 1100 445 750
f 815 684 450
f 684 948 450
f 1076 815 450
f 1070 454 642
f 454 653 737
f 653 454 1070
f 716 469 459
f 716 459 851
f 1176 826 465
f 466 520 731
f 602 467 975
f 928 467 702
f 928 975 467
f 472 1017 494
f 875 1017 472
f 474 710 882
f 474 1061 710
f 547 475 941
f 1008 475 547
f 1008 1048 475
f 1052 1011 475
f 1048 1052 475
f 476 790 485
f 485 954 476
f 476 1045 538
f 476 950 783
f 783 1045 476
f 954 950 476
f 705 480 544
f 480 705 844
f 480 844 1071
f 480 1071 1095
f 1034 699 481
f 899 833 481
f 481 833 1034
f 583 558 484
f 484 558 621
f 484 602 583
f 726 602 484
f 621 674 484
f 674 726 484
f 485 790 506
f 488 806 570
f 598 1116 488
f 488 960 806
f 488 920 960
f 488 1116 920
f 626 494 1017
f 689 495 658
f 862 658 495
f 495 689 705
f 714 495 705
f 714 862 495
f 965 777 498
f 521 1147 501
f 529 503 1098
f 836 542 503
f 1054 503 542
f 665 836 503
f 1054 1098 503
f 849 685 504
f 504 685 1119
f 691 504 890
f 504 1119 890
f 549 678 506
f 790 549 506
f 1009 595 506
f 848 506 678
f 848 1009 506
f 608 697 508
f 1009 608 508
f 697 756 508
f 756 760 508
f 667 511 542
f 542 511 898
f 898 511 598
f 598 511 1116
f 733 511 667
f 733 1116 511
f 512 959 639
f 639 1030 512
f 521 1165 1147
f 522 769 690
f 690 788 522
f 522 788 798
f 524 1016 854
f 524 854 1149
f 1020 1177 524
f 524 1149 1056
f 604 805 525
f 811 527 860
f 874 527 811
f 527 908 860
f 968 527 874
f 1151 908 527
f 968 1151 527
f 965 528 777
f 777 528 1149
f 1149 528 1056
f 1056 528 1191
f 840 529 1098
f 530 962 972
f 652 653 531
f 938 531 653
f 938 903 531
f 1097 531 903
f 666 532 967
f 1140 532 666
f 905 967 532
f 1123 532 906
f 906 532 1140
f 880 883 538
f 538 1045 880
f 572 566 540
f 566 648 540
f 542 737 667
f 836 737 542
f 898 1054 542
f 873 705 544
f 710 789 544
f 544 789 873
f 1155 546 601
f 827 546 706
f 546 827 895
f 828 1048 547
f 1048 1008 547
f 798 788 548
f 788 1076 548
f 798 548 816
f 816 548 946
f 548 1081 946
f 876 568 550
f 568 935 550
f 817 550 935
f 552 877 977
f 1129 877 552
f 909 552 977
f 1125 552 909
f 570 806 553
f 916 553 806
f 576 554 658
f 554 689 658
f 689 554 751
f 1024 795 555
f 949 1024 555
f 949 555 1063
f 984 558 583
f 576 591 560
f 560 591 838
f 972 828 561
f 869 796 562
f 562 796 1138
f 606 807 563
f 563 1074 606
f 664 928 564
f 971 664 564
f 564 928 910
f 942 564 910
f 942 971 564
f 907 648 566
f 1005 907 566
f 585 568 676
f 935 568 585
f 876 676 568
f 587 869 569
f 569 1117 587
f 603 793 569
f 603 569 869
f 793 1117 569
f 671 570 840
f 937 574 1133
f 818 577 811
f 577 874 811
f 976 874 577
f 894 976 577
f 639 578 588
f 588 578 1099
f 639 761 578
f 1099 578 767
f 974 989 579
f 1047 974 579
f 989 1158 579
f 1018 1047 579
f 579 1158 1018
f 914 581 618
f 618 581 1005
f 914 974 581
f 974 1047 581
f 581 1047 1005
f 975 583 602
f 975 984 583
f 609 1086 584
f 711 1002 584
f 676 738 585
f 585 738 835
f 835 865 585
f 865 1115 585
f 585 1115 935
f 587 796 869
f 587 990 796
f 587 1117 990
f 639 588 1030
f 588 1099 696
f 591 752 706
f 591 706 838
f 656 1004 593
f 593 1004 1059
f 1059 1146 593
f 748 594 949
f 1024 594 748
f 594 1024 949
f 633 869 595
f 774 898 598
f 599 696 931
f 913 773 599
f 913 599 1062
f 599 931 1150
f 1150 1062 599
f 1095 1155 601
f 726 605 602
f 793 603 633
f 633 603 869
f 805 604 649
f 632 607 736
f 632 1108 607
f 607 757 736
f 757 607 791
f 848 678 608
f 608 872 697
f 1009 848 608
f 739 1086 609
f 1168 739 609
f 616 755 647
f 620 674 621
f 658 862 620
f 674 620 862
f 722 659 622
f 872 622 659
f 625 817 1069
f 865 1031 625
f 865 625 1069
f 625 1031 946
f 1081 625 946
f 1067 626 1017
f 1104 1046 626
f 1067 1104 626
f 791 629 757
f 629 797 757
f 791 819 629
f 819 797 629
f 630 1124 992
f 992 1143 630
f 958 631 809
f 631 1129 809
f 631 1013 877
f 631 877 1129
f 631 958 917
f 1013 631 917
f 638 632 944
f 638 1108 632
f 736 1135 632
f 944 632 1135
f 1034 833 635
f 635 1100 1034
f 743 637 803
f 944 637 743
f 846 803 637
f 637 816 846
f 944 1135 637
f 743 738 638
f 738 1108 638
f 944 743 638
f 646 818 811
f 646 811 860
f 860 903 646
f 938 646 903
f 646 938 1070
f 755 684 647
f 815 647 684
f 690 769 647
f 647 815 690
f 785 668 648
f 1006 785 648
f 907 1006 648
f 652 737 653
f 652 733 667
f 652 667 737
f 681 733 652
f 938 653 1070
f 656 713 1004
f 697 872 659
f 697 659 909
f 722 1125 659
f 909 659 1125
f 750 662 879
f 789 662 873
f 789 879 662
f 662 1023 873
f 975 928 664
f 984 664 971
f 664 984 975
f 668 894 665
f 967 735 666
f 735 1140 666
f 668 785 746
f 746 894 668
f 810 671 840
f 726 674 995
f 995 674 862
f 675 896 764
f 676 1108 738
f 876 1108 676
f 1003 1085 677
f 684 755 754
f 844 705 689
f 690 815 788
f 691 1039 767
f 890 1039 691
f 909 756 697
f 1100 699 1034
f 736 700 748
f 757 700 736
f 700 1024 748
f 757 797 700
f 797 1024 700
f 988 928 702
f 705 873 714
f 1127 706 752
f 706 1127 827
f 710 1061 789
f 713 734 892
f 892 1004 713
f 995 862 714
f 873 1023 714
f 714 1023 995
f 809 843 721
f 809 721 870
f 721 843 997
f 721 997 870
f 761 723 824
f 1020 729 999
f 1074 999 729
f 837 734 834
f 734 888 834
f 734 837 892
f 967 759 735
f 759 1105 735
f 1140 735 1105
f 776 736 748
f 776 1135 736
f 738 743 835
f 1168 1015 739
f 950 740 783
f 740 1050 783
f 741 746 785
f 741 994 746
f 785 1103 741
f 932 741 841
f 741 1103 841
f 994 741 932
f 743 803 835
f 894 746 976
f 994 976 746
f 748 845 776
f 845 748 949
f 750 879 1100
f 1095 751 1155
f 852 993 753
f 1028 852 753
f 993 899 753
f 915 760 756
f 909 915 756
f 966 992 758
f 1092 966 758
f 758 992 1124
f 758 1124 1092
f 759 967 905
f 760 918 793
f 915 918 760
f 762 932 841
f 841 1085 762
f 1085 1003 762
f 1057 772 763
f 845 764 822
f 822 764 896
f 845 949 764
f 949 1063 764
f 767 1039 1099
f 1006 907 770
f 907 1047 770
f 1047 1018 770
f 1018 1088 770
f 773 1152 772
f 913 1152 773
f 898 774 810
f 845 822 776
f 1149 854 777
f 900 964 783
f 783 1050 900
f 964 1045 783
f 815 1076 788
f 789 1061 879
f 792 1140 1105
f 793 918 1132
f 793 1132 1117
f 797 980 795
f 797 795 1024
f 795 980 1093
f 1138 796 990
f 980 797 819
f 803 865 835
f 803 846 1031
f 865 803 1031
f 960 916 806
f 870 958 809
f 840 1098 810
f 1098 898 810
f 846 816 946
f 1065 980 819
f 827 1127 1019
f 828 972 832
f 1048 828 832
f 864 830 988
f 1041 830 979
f 1041 988 830
f 831 1021 843
f 831 1143 900
f 962 902 832
f 902 1052 832
f 972 962 832
f 1048 832 1052
f 833 899 993
f 1062 837 834
f 888 1042 834
f 955 892 837
f 1102 955 837
f 1062 1102 837
f 1088 1085 841
f 1103 1088 841
f 843 1021 997
f 1031 846 946
f 921 908 847
f 858 912 852
f 858 852 1028
f 912 993 852
f 1119 1053 857
f 912 858 864
f 1141 903 860
f 908 1141 860
f 1069 1115 865
f 963 958 870
f 990 963 870
f 870 1138 990
f 976 968 874
f 1013 977 877
f 1100 879 1061
f 883 880 1092
f 880 1045 1092
f 1124 883 1092
f 890 1146 1039
f 892 955 1033
f 1059 1004 892
f 1033 1059 892
f 998 893 1158
f 1088 893 1085
f 1088 1158 893
f 898 1098 1054
f 900 966 964
f 900 1143 966
f 900 1050 1044
f 1052 902 1046
f 1047 907 1005
f 909 977 915
f 928 988 910
f 942 910 1041
f 910 988 1041
f 918 915 977
f 917 958 963
f 1033 923 981
f 1102 981 923
f 1033 1102 923
f 981 1150 931
f 994 932 968
f 971 942 933
f 1032 971 933
f 984 1032 933
f 1041 1019 942
f 952 1122 1197
f 955 1102 1033
f 1117 963 990
f 966 1092 964
f 1045 964 1092
f 1143 992 966
f 994 968 976
f 1032 984 971
f 1019 1041 979
f 980 1065 1093
f 981 1146 1033
f 1102 1150 981
f 1174 1182 1010
f 1017 1038 1067
f 1158 1088 1018
f 1146 1059 1033
f 1067 1038 1137
f 1055 1161 1065
f 1056 1191 1166
f 1150 1102 1062
