# sdm_hand_1200_q20.obj  (1200 v, 1636 f)  units: metres
v -0.059176758 -0.005846387 0.021900922
v -0.119587188 -0.020707579 0.097373281
v -0.069094315 0.004087776 0.014222741
v -0.068354376 0.004346595 0.013601856
v -0.068571724 0.005567660 0.015462436
v -0.063345835 0.020366503 0.027859384
v -0.062823243 0.021846386 0.029099079
v -0.062083300 0.022105206 0.028478192
v -0.024385890 -0.005435239 0.194623605
v -0.045000002 0.000000000 0.000000000
v -0.045000002 0.022000000 0.000000000
v -0.003918119 0.003518238 0.187683593
v -0.017468750 0.019820313 0.101077204
v -0.000546875 0.004291186 0.190345272
v 0.018500000 0.021000000 0.094999999
v 0.016070095 0.019621167 0.142089218
v 0.045000002 0.022000000 0.094999999
v 0.036299750 0.017939045 0.146860435
v 0.002499999 0.002000000 0.000000000
v 0.044452942 0.018527610 0.088765796
v -0.126590839 -0.020440767 0.090094172
v 0.031000000 0.002500000 0.167999998
v 0.034462529 0.009853174 0.124648810
v 0.006988162 0.017061993 0.191896333
v 0.012187500 0.002500000 0.183625000
v -0.033812509 0.003009830 0.197999999
v -0.042071476 -0.002026048 0.007589698
v 0.000000000 0.022000000 0.094999999
v -0.065958780 0.012967082 0.021660910
v -0.010500000 0.021000000 0.094999999
v 0.013750000 0.002000000 0.000000000
v 0.018999999 -0.004976601 0.191517588
v -0.018999999 -0.005035510 0.197196874
v 0.011000000 0.021000000 0.094999999
v -0.022500001 0.022000000 0.094999999
v -0.023475156 -0.002250000 0.021429274
v -0.017512782 0.002709842 0.189184582
v -0.038172427 0.014993192 0.136889375
v -0.041499998 0.002963928 0.193038595
v -0.028077476 0.012883518 0.169536513
v -0.024000000 -0.005500000 0.188499994
v -0.126410939 -0.029202720 0.086656106
v -0.064652307 0.016666792 0.024760147
v -0.053541651 0.022052603 0.014239096
v -0.057012890 0.012919544 0.006996444
v -0.054979681 0.001857366 0.005812280
v -0.001859375 0.000000000 0.005624577
v -0.031482847 -0.003000000 0.070495177
v -0.019373313 0.007177295 0.204125926
v -0.018999999 -0.001500000 0.206000000
v -0.093201130 -0.000574941 0.039327715
v 0.022500001 0.022000000 0.094999999
v -0.057812476 0.022078904 0.021358644
v -0.006500000 0.021000000 0.094999999
v -0.059947888 0.022092055 0.024918418
v -0.030535156 0.021000000 0.171499997
v -0.010589664 0.019886719 0.185495603
v -0.117022516 -0.021007730 0.080417521
v -0.024119154 0.004352138 0.195517374
v 0.007250000 0.021000000 0.094999999
v 0.024491381 0.022000000 0.083681682
v -0.113671251 -0.010943871 0.068795227
v -0.111525222 -0.021103798 0.086447374
v 0.018999999 -0.001095890 0.190159115
v -0.005376931 -0.001197733 0.206000000
v -0.037285059 -0.002089241 0.021433696
v 0.014750000 0.021000000 0.094999999
v 0.025920567 0.017507253 0.137297925
v -0.069554922 0.004050719 0.019914191
v -0.067265252 0.009267370 0.018561673
v -0.070791550 0.004791203 0.017325092
v 0.034000000 0.021000000 0.094999999
v -0.062683633 0.008633069 0.010299150
v -0.061667028 0.003101981 0.009707068
v 0.017893743 0.017784796 0.098528550
v -0.015958600 0.011963833 0.174360374
v 0.011413767 0.022000000 0.080249537
v -0.001918315 0.022000000 0.081724462
v -0.068102832 0.013250310 0.037109286
v -0.011094080 0.003213555 0.091820996
v 0.015500999 0.008923998 0.169573672
v -0.119435600 -0.017162127 0.085311788
v 0.012984074 0.004270539 0.193405712
v -0.119668768 -0.016940697 0.066811733
v -0.034754098 -0.003000000 0.056974774
v 0.006415787 0.016139254 0.163287400
v 0.037500001 -0.001574612 0.171842864
v -0.002182148 0.017165522 0.187147918
v -0.030798139 0.018577483 0.065134824
v 0.027736635 0.011260129 0.160409332
v -0.063999071 0.018516648 0.026309765
v -0.065305543 0.014816937 0.023210529
v 0.045000002 0.022000000 0.089062499
v 0.003368405 -0.005054969 0.197540384
v -0.110874095 -0.026270237 0.078921917
v -0.050624117 -0.003936217 0.014745310
v -0.032043122 -0.005500000 0.188769920
v 0.007705120 0.019449219 0.179493741
v -0.114338920 -0.022948787 0.082391274
v -0.039999999 -0.001000000 0.195999995
v 0.037215115 0.018463510 0.097704220
v -0.039500001 0.014034091 0.000000000
v 0.003000000 0.000941391 0.188553318
v 0.003432156 -0.005426567 0.188796687
v -0.039576907 0.017878690 0.147801855
v -0.008021029 -0.003000000 0.082137607
v 0.025375720 0.014005064 0.182035807
v -0.030800600 0.020054225 0.148107443
v 0.034252987 0.000625460 0.093753906
v 0.033401107 0.002356558 0.172814977
v 0.032633795 0.004385593 0.182624997
v -0.057944725 0.011008542 0.014860290
v -0.016810340 0.019020872 0.151258994
v -0.115532136 -0.029271012 0.081056041
v -0.036845859 -0.005500000 0.192893912
v -0.109686710 -0.012218381 0.083065796
v -0.065912331 0.004781953 0.018304252
v 0.033718750 0.019500000 0.101374999
v -0.109612001 -0.014267450 0.082300668
v 0.016625000 0.021000000 0.094999999
v -0.026319132 0.011760789 0.121848037
v -0.024000000 0.000500000 0.195999995
v -0.067918488 0.007417515 0.017012054
v 0.029418846 0.020026182 0.164842899
v -0.014146144 0.002617690 0.200218753
v -0.008500000 0.021000000 0.094999999
v 0.003500000 0.018478005 0.098564918
v 0.016887444 0.019305613 0.177221916
v -0.004406818 -0.001616981 0.202907939
v 0.018351748 0.005924528 0.184229495
v -0.018999999 0.002500000 0.200820311
v -0.039702829 -0.000875000 0.180999994
v -0.059329341 0.014815015 0.022650745
v -0.006648288 -0.002499621 0.192819339
v -0.061806292 0.011368210 0.018555402
v 0.007334362 0.015340809 0.147138189
v -0.013471318 -0.003435122 0.197830467
v -0.059124707 0.004784314 0.015759859
v 0.018999999 -0.002104666 0.187467105
v -0.018999999 -0.000734043 0.199579851
v -0.010456249 0.002500000 0.187265626
v 0.032127607 0.019627372 0.125424717
v 0.015694897 0.017426273 0.105240667
v -0.122001231 -0.031451416 0.085940406
v 0.030721302 0.021000000 0.098864615
v -0.035876421 0.018633306 0.174980862
v -0.015915566 -0.001662171 0.188999996
v 0.018999999 0.000882613 0.190863947
v -0.112219143 -0.018983885 0.086161804
v 0.024499999 0.000500000 0.167999998
v -0.035098142 0.016000001 0.144209887
v -0.112962661 -0.020503701 0.075707894
v -0.116484842 -0.025004500 0.087806693
v -0.014393862 0.004120640 0.198828880
v -0.001419337 0.013812977 0.172620383
v -0.061100744 0.016535980 0.021532382
v -0.022896886 -0.003000000 0.046017429
v 0.017405356 0.018464124 0.147113492
v 0.024499999 0.002500000 0.179374994
v 0.011304643 0.001918797 0.187583553
v -0.115546460 -0.022969358 0.072557118
v -0.113920268 -0.022726175 0.073640213
v -0.031586392 -0.003000000 0.082975142
v -0.004686559 0.000927517 0.190635958
v 0.009192758 0.022000000 0.069483671
v 0.009759150 0.005218187 0.181310573
v 0.015664063 0.002500000 0.200000003
v -0.065010702 0.003724288 0.011654462
v -0.065519004 0.006489832 0.011950503
v 0.012714533 0.000755120 0.189795948
v -0.003702333 0.003274713 0.190332745
v -0.027445077 -0.003184999 0.180999994
v -0.011029641 0.019014114 0.136959393
v 0.002250000 0.002500000 0.198250003
v -0.003400733 -0.000386459 0.192520249
v -0.109602206 -0.024222598 0.078162488
v -0.116209628 -0.028061022 0.078914842
v 0.016730173 0.002306302 0.185929683
v -0.125751855 -0.016625633 0.093489693
v -0.031611915 -0.003454149 0.195999995
v -0.039999999 0.000500000 0.180999994
v -0.039999999 0.000500000 0.195999995
v 0.024499999 0.000989559 0.169440733
v -0.066612016 0.011117226 0.020111291
v -0.028155462 0.005941698 0.063378792
v 0.018261044 0.016654418 0.161823361
v -0.116631568 -0.018686138 0.078676878
v 0.013519184 0.021000000 0.097444207
v -0.024475153 0.003204605 0.181614235
v -0.018999999 0.000500000 0.188999996
v -0.007025275 -0.003782713 0.199189167
v 0.016835972 -0.000215901 0.197082989
v -0.002000000 -0.002661521 0.199392135
v -0.127360494 -0.028652374 0.084321378
v 0.018999999 -0.000656250 0.197781253
v -0.040575576 0.000638569 0.051568948
v 0.025768323 0.000983672 0.169770289
v 0.002307976 0.014832196 0.087072410
v -0.000875000 0.002734910 0.197858934
v -0.034569492 0.000639126 0.180999994
v -0.031687438 -0.001011847 0.180999994
v 0.039472682 0.017461854 0.076775645
v 0.017375000 0.002500000 0.184000000
v 0.013690712 -0.005500000 0.184494981
v 0.013960999 -0.003316668 0.200000003
v -0.088985943 0.000850946 0.049272862
v -0.113792480 -0.019092851 0.075307074
v 0.003000000 0.000500000 0.184000000
v 0.028935684 0.003256437 0.175250501
v -0.060589226 0.017796614 0.032036232
v -0.003115565 0.010440477 0.198416132
v -0.122163017 -0.020440918 0.083210717
v -0.035684805 0.001918119 0.183639162
v -0.115550302 -0.021850274 0.074547762
v -0.024000000 0.000500000 0.180999994
v 0.018477360 -0.005500000 0.186500000
v 0.009772789 -0.005500000 0.189045369
v -0.026171556 0.000395767 0.180999994
v 0.018999999 -0.001483543 0.194738087
v 0.026098316 0.002141916 0.178029148
v -0.114621437 -0.025143229 0.078130671
v 0.024743102 0.000000000 0.003641480
v 0.005104552 0.001525083 0.185214577
v -0.113268669 -0.022555530 0.079477061
v -0.064135537 -0.000879306 0.018061832
v -0.066614925 0.001604235 0.016142287
v -0.067854620 0.002846005 0.015182514
v 0.009127440 0.004342330 0.194280242
v 0.018999999 0.002500000 0.198000003
v 0.017299506 0.000778506 0.200000003
v -0.017589114 0.001031100 0.188999996
v -0.114258384 -0.010441473 0.085291744
v 0.016401816 -0.000227051 0.186270323
v -0.121819150 -0.025119015 0.082520860
v 0.006734375 0.002500000 0.184000000
v 0.035384774 0.010796648 0.103436348
v -0.005217640 0.003230107 0.193649496
v 0.023000000 0.004786755 0.173811896
v -0.007062500 0.002500000 0.188999996
v -0.007031488 0.020976563 0.149609158
v -0.128287341 -0.027425898 0.083247983
v -0.117558725 -0.022683255 0.086821797
v 0.019675825 0.005021054 0.198083603
v -0.005803440 -0.005500000 0.196493181
v -0.002000000 0.000500000 0.206000000
v -0.116625036 -0.023326292 0.078959283
v -0.015480468 -0.005362361 0.188999996
v -0.068801665 0.012274995 0.024440342
v -0.006921874 0.001808071 0.191899940
v -0.002000000 0.001321759 0.199041048
v -0.018312500 0.002500000 0.205734375
v 0.009496690 -0.001997005 0.191146967
v -0.122461198 -0.014746917 0.084884483
v -0.125480855 -0.023858237 0.084155757
v -0.034500191 -0.005500000 0.186480290
v -0.012222548 -0.005500000 0.199535778
v 0.015146332 0.000419383 0.184000000
v 0.017687679 0.002257263 0.190233412
v -0.117722945 -0.029009761 0.084223819
v 0.037801526 0.003333316 0.166721103
v -0.116724737 -0.026033410 0.082196051
v -0.002000000 0.001345568 0.191053900
v -0.002695614 0.006361971 0.206991394
v 0.023832588 0.003303189 0.181137398
v -0.120553671 -0.020694341 0.082753506
v 0.016139833 -0.001382425 0.189680125
v -0.121676521 -0.027073894 0.080041009
v 0.018999999 0.000298713 0.199524819
v -0.036652580 -0.001516141 0.191222099
v -0.025631297 0.000764772 0.089062500
v -0.116384182 -0.019125341 0.082119291
v -0.028232130 0.001787572 0.185780337
v -0.018999999 -0.000857789 0.195991541
v -0.008065420 -0.003801296 0.188999996
v 0.001252236 -0.003000000 0.081360070
v -0.024000000 -0.000667652 0.182297901
v -0.058566684 0.011304596 0.019504683
v -0.039999999 -0.003110498 0.181520327
v 0.017995103 0.001916652 0.185123212
v -0.002000000 0.000686557 0.203205549
v -0.125600220 -0.029124141 0.084142511
v 0.003000000 -0.001252625 0.189120714
v -0.017755331 0.001694611 0.204814447
v 0.004172856 -0.000007763 0.200000003
v -0.006730640 0.000000000 0.011917611
v -0.002000000 -0.001624938 0.194307081
v 0.007188712 -0.001535764 0.194537877
v 0.005625000 0.000000000 0.085000001
v -0.121492315 -0.028897683 0.089237551
v -0.123152311 -0.025314498 0.080527171
v -0.068410561 0.005087587 0.018546041
v -0.114034207 -0.021797591 0.073891511
v -0.009596143 -0.003995160 0.190575107
v 0.028147227 0.000345182 0.173832159
v 0.018999999 0.000824404 0.196339867
v -0.003165340 0.001527927 0.191888159
v 0.004276210 0.001123235 0.184000000
v -0.040914688 0.007217232 0.189135459
v 0.003000000 -0.002937451 0.192488177
v -0.018999999 0.000782957 0.199784196
v -0.114804632 -0.024269820 0.073796827
v -0.051189734 0.022053153 0.020490744
v -0.126320124 -0.022619092 0.089508754
v -0.025124126 0.001246804 0.180999994
v -0.118732676 -0.015437646 0.090722088
v -0.030401628 -0.003457043 0.180999994
v -0.018999999 0.000662131 0.190851078
v -0.018999999 -0.001303260 0.190978245
v -0.008541455 0.000486584 0.197466168
v 0.012071077 0.002349705 0.195636388
v 0.030172738 -0.002717551 0.180999994
v -0.009548804 0.018004232 0.091246049
v -0.005131450 0.002186434 0.197018915
v -0.029300377 -0.001754755 0.182439544
v -0.036159723 -0.000119738 0.188736888
v 0.037500001 0.002500000 0.179374994
v -0.018081069 -0.002172234 0.188999996
v -0.112240443 -0.015967149 0.082143490
v -0.118619836 -0.018639798 0.082640249
v -0.037257095 0.019606383 0.094035768
v -0.004082780 -0.001794967 0.197701806
v -0.032106688 -0.000736800 0.182608736
v 0.013108037 -0.000444464 0.200000003
v 0.038250001 0.002661903 0.176120815
v 0.033660408 -0.002250000 0.062025782
v -0.117961074 -0.017532909 0.082002892
v 0.034096264 0.000766232 0.167999998
v -0.023625000 0.002500000 0.185687494
v -0.039999999 -0.004876621 0.192296140
v -0.125689551 -0.027653037 0.082424040
v 0.012207823 -0.002528940 0.189073739
v -0.011486393 0.002299730 0.191217500
v 0.029406375 -0.003210572 0.167999998
v 0.015975207 0.001034446 0.193792672
v -0.115163938 -0.022912545 0.073939585
v 0.018999999 0.001500000 0.200000003
v -0.120055763 -0.031030835 0.084622114
v -0.064942583 0.018132592 0.031199216
v -0.003409804 0.001723089 0.190287943
v -0.115514182 -0.027462578 0.083372633
v -0.017906186 -0.003000000 0.064632910
v 0.005720213 -0.003545956 0.186793091
v 0.017670790 -0.000718206 0.200000003
v 0.018999999 0.002500000 0.189875001
v 0.017972751 0.001350071 0.198818835
v -0.062336224 0.013720787 0.026292287
v -0.038536544 -0.003111623 0.195999995
v 0.025597848 0.001268154 0.167999998
v -0.032074759 0.002710675 0.192410566
v -0.128006526 -0.024449751 0.086735858
v -0.115134818 -0.022766289 0.086218317
v 0.018999999 0.001256671 0.193471893
v -0.025442757 0.000987916 0.195999995
v -0.034566852 0.000060280 0.195999995
v -0.114128018 -0.018787947 0.078918257
v -0.032074219 0.002500000 0.180999994
v -0.123745613 -0.017135943 0.094862614
v -0.006551365 -0.001799247 0.202466120
v 0.018999999 0.001160577 0.187866347
v 0.009125000 0.021000000 0.094999999
v 0.003000000 -0.000165541 0.191668921
v -0.024000000 0.001173900 0.194714655
v -0.111325967 -0.023394283 0.083226536
v 0.030000000 0.000852366 0.180999994
v -0.064725567 0.009716606 0.024197814
v -0.114533385 -0.022516328 0.077911218
v -0.110366128 -0.012982998 0.081937363
v -0.010544929 -0.001478170 0.191725471
v -0.105372032 -0.004033547 0.052192638
v -0.018999999 -0.003582238 0.194758020
v 0.016419099 -0.002267269 0.193305328
v 0.014446655 -0.003000000 0.074464688
v -0.009595767 -0.005500000 0.197381901
v 0.005854706 -0.000680778 0.190220157
v -0.014990715 0.006242749 0.079224202
v -0.116981834 -0.017430619 0.084106500
v 0.018835779 -0.003994938 0.189395928
v 0.026184860 -0.000251192 0.167999998
v 0.008327685 0.002220507 0.191179009
v -0.117488876 -0.018806549 0.081872479
v -0.037588974 -0.005500000 0.186757061
v -0.031949965 0.000518705 0.195999995
v -0.011181740 0.019293298 0.169415852
v -0.112384337 -0.018519805 0.090525002
v 0.011722039 -0.005500000 0.198337041
v 0.010805913 -0.003925289 0.190285294
v -0.024000000 0.001482869 0.193187495
v -0.010468651 0.000898001 0.193769030
v -0.010162265 0.005155694 0.200406406
v -0.123773650 -0.010203688 0.089019018
v -0.007191398 -0.002091351 0.188999996
v -0.124162458 -0.028204371 0.082438454
v -0.116070575 -0.022563903 0.083537536
v -0.124948233 -0.029888021 0.088113620
v -0.121956929 -0.017662389 0.090433146
v -0.117718664 -0.015439597 0.081308662
v 0.034683844 0.002912428 0.174666691
v -0.126970991 -0.025487021 0.087537570
v 0.005801951 -0.005500000 0.191121269
v -0.035278688 -0.005500000 0.183303088
v -0.036774400 0.000528183 0.180999994
v -0.032275203 -0.004556658 0.180999994
v -0.113358634 -0.013745834 0.086437079
v -0.013121416 -0.002770217 0.199683052
v -0.122772243 -0.028780151 0.086475447
v -0.113752790 -0.025349603 0.083831326
v 0.014739800 -0.002600067 0.191364250
v -0.004595139 -0.000125425 0.188999996
v -0.037857523 0.000874875 0.187300617
v -0.120262802 -0.029041811 0.081794260
v -0.119294877 -0.021993901 0.080141549
v -0.038060546 0.002500000 0.181003413
v -0.034255675 -0.004847287 0.180999994
v -0.110401420 -0.026822244 0.076126347
v -0.067109576 0.006143705 0.028098917
v 0.028620679 0.001716327 0.177335416
v -0.091983295 -0.002894894 0.038660271
v -0.065366068 0.019112641 0.028846560
v -0.011200738 0.004772253 0.197377968
v -0.115811447 -0.021573048 0.081979675
v -0.018999999 -0.004847702 0.192876770
v -0.110988901 -0.023798281 0.076686768
v -0.035783945 -0.003300017 0.187336879
v -0.007191457 -0.002023179 0.196351174
v 0.026859291 -0.001500000 0.082863488
v 0.014930295 -0.000476053 0.191919786
v -0.120782641 -0.023186204 0.079596569
v -0.035747578 0.001709522 0.194261853
v 0.013517130 -0.001877272 0.186367350
v -0.039528771 -0.005500000 0.195049543
v 0.028156250 0.002500000 0.167999998
v -0.062954332 0.002890523 0.021041007
v -0.032504401 0.000085589 0.187164462
v 0.030529212 -0.000160808 0.170251822
v 0.018999999 -0.000252713 0.192850306
v -0.039999999 -0.003582574 0.195007483
v -0.005280603 -0.003931161 0.192466602
v -0.009315318 -0.002537052 0.197168502
v -0.031675973 0.000664378 0.183449553
v 0.011153825 -0.003000000 0.045851933
v -0.018999999 -0.001904619 0.193443747
v 0.018999999 0.002500000 0.194875002
v -0.117777602 -0.026501366 0.077713978
v -0.033445788 -0.002010345 0.183160086
v -0.016544294 0.000007330 0.198569421
v -0.125355541 -0.026499919 0.089040556
v -0.017699755 0.002285032 0.190652338
v -0.113366281 -0.001259930 0.068585842
v -0.002000000 -0.001255651 0.197449936
v 0.037500001 -0.003619074 0.173370934
v 0.018861517 0.001010060 0.184437500
v -0.119444925 -0.025532027 0.077259685
v -0.121191849 -0.019650340 0.091260345
v 0.013416286 -0.005500000 0.189548137
v 0.018999999 -0.003887500 0.184612500
v 0.026826280 -0.003159963 0.174548437
v -0.037519006 -0.005500000 0.190106903
v -0.110016514 -0.014764505 0.086244257
v 0.006226572 -0.003442143 0.190569476
v -0.033127428 0.001803784 0.189609419
v 0.029230140 -0.001369768 0.178028636
v 0.029578125 0.002500000 0.181218744
v -0.040763626 0.001678686 0.077041033
v 0.024124999 0.002500000 0.171199216
v 0.014779870 0.000721388 0.186785688
v -0.110286920 -0.016786431 0.088771918
v 0.016675634 -0.001940049 0.184000000
v -0.014204085 -0.005500000 0.204383008
v -0.006677407 0.000562469 0.077570796
v -0.013662928 0.018464698 0.149074080
v -0.031167633 -0.003124164 0.184603963
v -0.015254592 0.002509965 0.197252752
v 0.032190937 0.001483352 0.171825360
v -0.114028523 -0.019183132 0.081904853
v -0.002000000 -0.003977362 0.195824285
v -0.010567314 -0.002373266 0.188999996
v -0.037652515 -0.002316814 0.187106409
v 0.029769847 -0.001253846 0.173166100
v -0.011400275 -0.001806750 0.197903213
v 0.003000000 -0.001156250 0.199281253
v 0.003754353 -0.001701117 0.184126051
v -0.011636556 0.002376490 0.192952182
v 0.033887417 -0.002682682 0.180999994
v 0.003000000 -0.003401432 0.189390997
v -0.111874578 -0.012584608 0.082743067
v -0.032829267 0.002906849 0.187355947
v 0.001500000 0.006485526 0.192259139
v 0.037500001 -0.000208338 0.177534727
v -0.039999999 -0.001864159 0.186353768
v 0.018841119 0.022000000 0.020725982
v -0.124728872 -0.024795099 0.085890254
v -0.009080825 0.000374648 0.188999996
v 0.009967167 -0.005500000 0.193753961
v -0.118428749 -0.020836642 0.083703891
v -0.009849357 -0.003702275 0.194333858
v -0.002325211 -0.005500000 0.194108003
v 0.005752416 0.001000468 0.200000003
v 0.014409342 0.002723126 0.195964030
v -0.114817930 -0.015688234 0.081913895
v -0.010612343 0.003706062 0.208000004
v 0.037500001 -0.000993022 0.174350094
v 0.005436785 0.003477962 0.194272485
v -0.024000000 0.002500000 0.191253901
v -0.119912807 -0.024770236 0.075866921
v -0.004479782 0.000764787 0.206000000
v 0.011370501 -0.001598432 0.192827949
v -0.073624574 -0.001165720 0.039961131
v -0.109385436 -0.022746715 0.080512055
v -0.130608888 -0.023283290 0.084996625
v 0.031829732 -0.001902683 0.178972686
v -0.110035555 -0.021635021 0.083835934
v 0.028986393 0.002984669 0.170905522
v -0.025763601 0.000434678 0.192715924
v -0.005818886 0.003650216 0.202353757
v -0.116017458 -0.019942780 0.078838594
v 0.027935228 -0.002947822 0.180999994
v -0.030414810 -0.005500000 0.186257554
v 0.028562500 -0.005500000 0.167999998
v -0.117573780 -0.019921181 0.086158565
v -0.118653922 -0.027976191 0.079843958
v -0.016206219 0.000144980 0.192011077
v -0.039999999 -0.004114053 0.187125584
v -0.115284234 -0.023444804 0.075458569
v 0.011138233 -0.001183330 0.184000000
v -0.118407045 -0.013350006 0.088697689
v -0.015577138 0.003570553 0.201414321
v -0.118172529 -0.026632421 0.087880369
v -0.128635267 -0.026230238 0.085244350
v 0.001500000 0.003914761 0.197754828
v -0.015466671 0.004371602 0.193610079
v -0.008551468 -0.005500000 0.193015366
v 0.035852362 -0.002031993 0.167999998
v -0.113860660 -0.018908021 0.071653170
v -0.033506635 -0.003307097 0.184368693
v 0.034386141 -0.005500000 0.174787395
v -0.004818991 -0.000195741 0.204036397
v -0.113677543 -0.020793272 0.089629191
v 0.003000000 0.001162775 0.185500000
v 0.003000000 -0.004860243 0.191845681
v -0.110884229 -0.013759020 0.080996427
v -0.003852453 -0.003089251 0.199791509
v 0.036125001 0.002500000 0.180999994
v 0.032329405 0.000879353 0.178175164
v -0.110896278 -0.018928439 0.088449512
v -0.013018707 -0.000647439 0.188999996
v 0.034893657 -0.000910003 0.180999994
v 0.028474951 0.002187398 0.173024761
v 0.032071116 -0.001775997 0.167999998
v 0.005398171 -0.005500000 0.199477986
v -0.029771312 -0.005500000 0.183570586
v -0.035410222 0.002506146 0.190410804
v -0.035420740 -0.000999876 0.185737014
v -0.032721556 -0.005500000 0.183205819
v -0.009118514 0.002286716 0.200145440
v -0.024000000 -0.003433454 0.192793757
v -0.034204531 -0.005500000 0.195344052
v -0.122498546 -0.030410567 0.088318821
v 0.034752411 0.001089809 0.174313763
v -0.122302985 -0.026409030 0.087764133
v -0.039999999 0.002500000 0.189144526
v -0.015921112 -0.005500000 0.202445121
v -0.024944835 -0.003374364 0.180999994
v -0.007374051 -0.000894854 0.200538437
v 0.017495419 -0.005500000 0.193461898
v -0.115655100 -0.014512718 0.088320613
v 0.033904304 0.001413540 0.171440393
v -0.012242649 -0.005500000 0.190636975
v 0.027141691 -0.000202578 0.169941398
v -0.014665846 -0.003092065 0.191953849
v -0.123313836 -0.024346166 0.088409755
v 0.016224272 0.001453136 0.191422874
v -0.017204274 -0.003785402 0.188999996
v 0.010284840 0.000741063 0.184000000
v 0.018357657 -0.005500000 0.184642342
v -0.026433916 0.001959006 0.194881269
v 0.032821803 -0.003308702 0.173292495
v 0.032379673 -0.000688043 0.173685048
v 0.010218112 -0.002643816 0.186564771
v 0.005952775 -0.000591246 0.197297951
v 0.003000000 0.001398082 0.196413258
v 0.017604053 -0.001594533 0.200000003
v 0.029930162 -0.005500000 0.170463158
v -0.013937500 0.002500000 0.188999996
v -0.038495684 -0.000930356 0.187309456
v -0.018298353 -0.004988142 0.199203587
v -0.029693676 -0.000752190 0.186745848
v 0.037500001 -0.000999244 0.180231899
v 0.010917160 0.006207849 0.076650617
v -0.119739175 -0.026391370 0.083777322
v -0.035698670 0.000506278 0.183692931
v 0.030145555 -0.000479124 0.176257602
v -0.014293751 -0.003766885 0.193865685
v -0.112202295 -0.027289174 0.076304171
v -0.025541710 -0.004958290 0.180999994
v -0.039999999 -0.001055787 0.183282878
v -0.006635566 -0.005500000 0.205745359
v 0.008224438 -0.005500000 0.191902435
v 0.037500001 0.001048593 0.169368076
v 0.018999999 -0.003250000 0.186250000
v -0.025144921 0.002084467 0.194353118
v -0.012923643 -0.004857206 0.206000000
v -0.111962575 -0.021332393 0.076554306
v -0.011295407 0.003047426 0.202606851
v 0.031537787 0.002250940 0.176270224
v -0.018393953 -0.005500000 0.203511913
v -0.032399202 -0.005500000 0.195299132
v 0.016008456 0.003046141 0.191965323
v -0.028734654 -0.002298748 0.187678432
v 0.012477048 -0.003353417 0.193871377
v -0.039999999 0.000833961 0.194352053
v -0.034599312 -0.002019552 0.188386068
v -0.005561682 -0.003982413 0.195234667
v -0.029132433 -0.005096846 0.181378914
v 0.006421490 -0.000874439 0.187134990
v 0.036119236 -0.004038285 0.180999994
v -0.030083335 -0.003500304 0.189513522
v -0.008920209 -0.003594798 0.200537654
v -0.020500001 0.004840008 0.193304549
v -0.002000000 -0.000315707 0.201115499
v -0.110390899 -0.020900485 0.078607399
v -0.034506738 -0.003794774 0.192481570
v 0.006496294 0.001662598 0.197010157
v -0.003103163 0.001300357 0.206000000
v -0.027315631 0.001137889 0.180999994
v 0.006146271 0.004941663 0.197853250
v -0.018344040 -0.004867497 0.206000000
v -0.012518908 -0.001788759 0.192831315
v 0.003000000 -0.000270257 0.194111205
v 0.029686506 -0.003786740 0.174535679
v -0.038201745 -0.002305710 0.188798065
v 0.032323814 -0.005500000 0.170295405
v 0.037500001 0.001194803 0.171513243
v 0.014516024 -0.005500000 0.192907574
v 0.029752079 -0.003722515 0.171176423
v -0.024393819 -0.003757593 0.195254287
v -0.116166748 -0.026598828 0.085333056
v -0.011797633 0.001396491 0.201797748
v 0.028782490 -0.003843511 0.177023406
v -0.127134977 -0.027635430 0.086446564
v -0.112617010 -0.026255233 0.081192571
v -0.119729835 -0.023920514 0.082467756
v -0.006234375 0.002500000 0.206000000
v -0.006467844 -0.004823097 0.188999996
v -0.028293437 -0.005500000 0.185763330
v 0.003000000 0.001260267 0.191759808
v 0.032723976 0.002871025 0.170843084
v -0.123625716 -0.022014515 0.086510291
v -0.039999999 -0.001652503 0.194309515
v -0.034243038 -0.005500000 0.190040351
v -0.010634276 -0.004809041 0.188999996
v 0.034619424 -0.001327156 0.178725433
v -0.036132064 0.000463762 0.192595776
v -0.116341928 -0.024178250 0.081398751
v -0.107796122 -0.017640179 0.083058808
v -0.002000000 -0.001366088 0.190037329
v 0.036540296 -0.005500000 0.180635760
v -0.012522994 0.000049164 0.191791858
v 0.007889241 0.000892302 0.190914467
v 0.013640905 -0.000440301 0.194938273
v -0.055500369 0.022076597 0.027424232
v -0.039999999 -0.001239809 0.188595514
v -0.011311616 -0.003000000 0.060841334
v -0.004534270 0.000664495 0.195296374
v -0.038775448 -0.004275449 0.180999994
v -0.037831032 -0.005500000 0.184353802
v -0.028692496 0.001495375 0.194597158
v -0.028158642 -0.001181828 0.190503920
v -0.011220792 0.003944177 0.193720968
v -0.037628099 -0.001384614 0.180999994
v 0.004254296 -0.005205032 0.186786861
v -0.118653011 -0.024111205 0.084771556
v -0.109450971 -0.017217346 0.081262896
v -0.016307947 -0.005500000 0.191460052
v -0.017674643 -0.003000000 0.076075044
v -0.111461665 -0.017660116 0.081378072
v 0.036302443 0.000416583 0.180999994
v -0.111082811 -0.012698948 0.084227995
v 0.005927854 -0.000260090 0.184000000
v 0.037500001 0.002500000 0.177749995
v 0.010502639 -0.005500000 0.185060818
v -0.037712349 0.001994162 0.191121035
v -0.118931435 -0.018329778 0.091627877
v -0.010080566 0.002065386 0.195978110
v -0.004500000 0.021000000 0.094999999
v -0.118678667 -0.030464814 0.082825181
v -0.027513061 -0.002061591 0.183765004
v 0.009808021 -0.000102301 0.200000003
v -0.028476185 0.001042291 0.187760155
v -0.114121269 -0.015939149 0.085917275
v -0.114427222 -0.018599857 0.092110047
v -0.032829790 0.000041771 0.191566948
v -0.124616544 -0.024534352 0.090740615
v -0.018999999 -0.004021752 0.202331383
v 0.037500001 -0.003961933 0.179525258
v -0.003787719 -0.005187836 0.189533484
v 0.011903777 -0.005500000 0.186793374
v 0.016626099 -0.005500000 0.190631411
v -0.038645979 -0.000176190 0.185562028
v -0.014902827 -0.000442828 0.200780101
v -0.007381141 0.000040755 0.206000000
v 0.003000000 -0.000790617 0.186130614
v -0.004779922 -0.005500000 0.192906073
v -0.015602565 -0.005500000 0.195428245
v 0.037500001 -0.002073849 0.177629303
v -0.112079401 -0.015448221 0.084162993
v -0.114702251 -0.016492213 0.090281963
v 0.011904389 -0.005500000 0.196007290
v -0.017994792 0.000433101 0.190016074
v -0.114183666 -0.027758424 0.077699578
v -0.004171991 -0.005500000 0.205312264
v -0.025747296 -0.000805791 0.195999995
v 0.025312499 -0.005500000 0.167999998
v 0.006269552 -0.005500000 0.194191709
v -0.125630222 -0.027644603 0.085649166
v 0.035128605 -0.000780067 0.170678020
v 0.034754509 0.018039844 0.099896237
v -0.032380603 -0.001791032 0.191408581
v -0.014429206 -0.001592286 0.196217309
v 0.004620829 -0.001290847 0.193894876
v 0.007103796 -0.005500000 0.188658728
v 0.037875001 0.002500000 0.171046872
v -0.018999999 -0.000895660 0.202328714
v -0.089541129 0.007036221 0.046265564
v 0.018999999 -0.002753863 0.192237325
v -0.010746057 -0.003232297 0.203650028
v -0.007057712 0.004037336 0.192408706
v -0.028734375 0.002500000 0.195999995
v -0.015161361 0.020081932 0.096324336
v 0.024499999 -0.001095694 0.170929998
v -0.039999999 0.001213193 0.184488435
v -0.039999999 0.000610459 0.187746048
v -0.121772109 -0.029716476 0.083235884
v -0.117017825 -0.017352438 0.092284978
v 0.031291595 -0.004819853 0.180795867
v 0.024499999 -0.002014816 0.174118810
v -0.039999999 -0.002355243 0.191409283
v -0.009798290 -0.005380719 0.205717188
v -0.003688616 0.017419922 0.147762559
v -0.026835937 -0.000052346 0.005657480
v -0.038262495 -0.002715965 0.193540048
v 0.016609791 -0.005500000 0.196470867
v -0.035289126 -0.001579074 0.194541117
v -0.124405761 -0.025629720 0.082678054
v -0.037333251 0.003590868 0.192298807
v 0.041062500 0.000735255 0.075478516
v -0.017589760 -0.003959259 0.199638768
v -0.119709519 -0.023341920 0.090401349
v 0.036341292 -0.005500000 0.171159808
v 0.033143785 -0.002513634 0.176142722
v 0.003000000 0.000370535 0.197691967
v 0.034502756 -0.005500000 0.179278216
v -0.000163811 -0.003000000 0.049684553
v -0.033603933 -0.001500605 0.195999995
v 0.013225202 0.001652511 0.193169161
v 0.018999999 -0.001961829 0.197409613
v -0.005915537 -0.000877672 0.191460301
v 0.037500001 -0.003500000 0.175312496
v -0.114959412 -0.020139045 0.085234461
v -0.124398089 -0.031976003 0.087898871
v -0.011269673 0.000729446 0.206000000
v 0.019093749 0.002500000 0.185875000
v 0.016714523 -0.005500000 0.185441216
v -0.006165974 -0.005500000 0.200099892
v 0.000388231 -0.003000000 0.070388279
v -0.085602082 0.000982967 0.031528024
v -0.008134449 -0.005500000 0.189744800
v -0.024000000 -0.004500000 0.186686614
v -0.123224182 -0.014791753 0.093054412
v -0.124014885 -0.019780575 0.090863174
v -0.112459713 -0.021815799 0.081342403
v -0.009201720 -0.001537616 0.203500537
v -0.039999999 -0.004177398 0.182281603
v -0.027340349 0.001898930 0.191063121
v -0.013341112 -0.005500000 0.201467140
v 0.034151097 -0.003669744 0.177343794
v 0.025597557 0.001687402 0.180181935
v 0.003000000 0.002500000 0.194500002
v -0.031991072 -0.001988295 0.188155821
v 0.032441108 -0.003557575 0.171543995
v -0.016257744 -0.005500000 0.197411403
v -0.030262800 -0.000698320 0.195999995
v -0.017147325 -0.003971784 0.204482576
v 0.037500001 -0.000508539 0.169794947
v 0.009137879 0.002747137 0.200750005
v -0.018999999 -0.002545700 0.200384473
v 0.031101802 0.001293604 0.167999998
v -0.037706521 -0.005500000 0.188338057
v -0.013773946 0.018303497 0.099235186
v -0.018999999 -0.004093435 0.204122116
v -0.003804204 -0.005500000 0.196396360
v 0.032023474 -0.005500000 0.176975951
v 0.008199609 -0.001372376 0.184000000
v -0.119934048 -0.016594155 0.087663040
v -0.018999999 -0.004098932 0.191367299
v -0.003418109 -0.005500000 0.201419369
v -0.036365156 -0.001952364 0.183578476
v -0.013894087 -0.001942641 0.206000000
v -0.035859374 0.002500000 0.195999995
v 0.011889408 -0.001627280 0.196568304
v -0.002000000 -0.005222057 0.203223459
v -0.112311195 -0.016282800 0.077029455
v 0.032293018 0.001675980 0.169382409
v -0.115145417 -0.023091658 0.088551486
v 0.027209768 -0.005500000 0.170672277
v -0.119370271 -0.020158611 0.089206182
v -0.011422401 -0.005500000 0.203877142
v -0.009102919 -0.001158626 0.194629789
v -0.039685012 -0.005500000 0.182241189
v 0.011653972 -0.005500000 0.192070078
v -0.107837080 -0.015876495 0.083745197
v -0.003746892 -0.004246037 0.201176761
v 0.003000000 -0.002618321 0.195688619
v -0.108737992 -0.018409562 0.086333084
v -0.028564864 -0.004075695 0.195999995
v -0.004039425 -0.003621783 0.188999996
v -0.036958814 -0.005115750 0.195617894
v -0.016944271 -0.002522449 0.205962129
v 0.013048783 -0.003713533 0.185877829
v -0.025610155 -0.005500000 0.189281432
v -0.015430735 -0.003040635 0.201532889
v -0.032296874 0.002500000 0.195999995
v 0.009857159 0.000391253 0.195205070
v -0.026782961 -0.003906980 0.190832145
v -0.002000000 -0.004935873 0.191690862
v -0.011224529 -0.005500000 0.194111584
v -0.012248449 -0.003495940 0.191488588
v -0.126193237 -0.022749118 0.087731336
v 0.005437500 0.002500000 0.200000003
v 0.009959892 -0.003853518 0.184000000
v -0.024000000 -0.000621132 0.184574145
v 0.015764351 -0.003980221 0.200000003
v 0.025325003 -0.005240182 0.173366727
v -0.107465633 -0.018914284 0.084036618
v -0.120493531 -0.017272165 0.093654325
v -0.017055206 0.010825102 0.139414992
v 0.031258532 -0.005500000 0.173503894
v -0.002653714 -0.004581664 0.205698405
v -0.108827781 -0.013640908 0.084401857
v -0.038060316 -0.003207622 0.183833808
v -0.039999999 -0.004884585 0.189985717
v -0.024000000 -0.002651705 0.183537418
v -0.002000000 -0.004663341 0.197612661
v 0.024697245 -0.004193097 0.170801880
v -0.027699882 0.018940916 0.133619066
v 0.003000000 -0.002561774 0.187339150
v 0.037500001 0.000989559 0.179559259
v -0.119301381 -0.024652579 0.087865771
v 0.034786964 -0.003732935 0.170649919
v -0.010871763 0.000498995 0.059873427
v 0.012412571 -0.003475969 0.184000000
v -0.116154158 -0.018786261 0.089342149
v -0.011072593 0.022000000 0.079326767
v -0.027874589 -0.005500000 0.192695704
v -0.121388622 -0.021951639 0.091293364
v 0.002195568 -0.000750000 0.018701016
v -0.059033532 0.000176477 0.015753788
v 0.024927908 -0.003000000 0.039728767
v -0.004706674 0.001736933 0.200642353
v -0.024700638 -0.001442073 0.181256575
v -0.030323636 -0.000310525 0.194438480
v -0.038194529 -0.005500000 0.191453170
v 0.005476788 -0.003647595 0.200000003
v 0.009732093 -0.001673486 0.196590766
v -0.003161721 -0.005500000 0.198562498
v 0.028925729 -0.005500000 0.175586854
v 0.024499999 0.000121741 0.180472192
v -0.113518672 -0.014650324 0.082699085
v 0.026898233 -0.003111456 0.167999998
v -0.115131224 -0.024724687 0.083906343
v -0.013366698 -0.005500000 0.193387614
v -0.028360191 -0.005500000 0.195106051
v -0.017792520 0.000305757 0.050378696
v -0.003043788 -0.002500000 0.206000000
v 0.017194553 -0.003368861 0.200000003
v 0.003306138 -0.004202321 0.184514025
v -0.119405111 -0.024650632 0.079476947
v -0.016156965 0.000583042 0.188999996
v 0.036798946 -0.005197207 0.174897623
v -0.002000000 -0.002424562 0.204883762
v -0.008073713 -0.005500000 0.203861626
v -0.025708170 0.000456609 0.185805617
v 0.013624531 0.006860450 0.130802271
v 0.011545102 -0.003385931 0.197351600
v 0.036941215 -0.003000000 0.180999994
v -0.126959556 -0.025581982 0.085594789
v -0.111968705 -0.028030638 0.078058137
v -0.011592489 -0.002396214 0.206000000
v 0.033889877 -0.005500000 0.172632880
v -0.006867241 0.022005439 0.035784713
v 0.018999999 -0.001012537 0.185433339
v -0.018999999 0.001487477 0.191615973
v -0.010565745 -0.005500000 0.191106349
v 0.011428080 -0.003963110 0.200000003
v -0.116267086 -0.022151921 0.091216142
v -0.027270841 -0.001946602 0.195999995
v 0.008096546 -0.005186913 0.199651408
v 0.004732571 0.001482293 0.191868942
v -0.116972799 -0.019233345 0.094511328
v 0.001781250 0.003120753 0.186051471
v -0.012677707 -0.005500000 0.196807020
v 0.033437500 0.002500000 0.167999998
v 0.026984387 -0.005500000 0.179015629
v -0.024000000 -0.001110193 0.190745555
v 0.026412288 -0.000933783 0.175830500
v -0.030285983 -0.005500000 0.191512139
v -0.120931493 -0.022183352 0.095703030
v 0.026855566 0.000909203 0.180999994
v -0.031089144 -0.004073332 0.192161361
v -0.030278751 0.000749081 0.180999994
v -0.113992075 -0.018214126 0.087817258
v -0.034268297 0.005940229 0.178609443
v -0.013609976 -0.005500000 0.190328248
v -0.039999999 -0.003676072 0.184399321
v 0.018999999 -0.004503415 0.194195311
v -0.027246639 -0.005500000 0.183238684
v -0.122672424 -0.021659892 0.094255760
v -0.008995150 0.003458904 0.203647505
v -0.108987971 -0.019720873 0.080771071
v -0.014504137 0.001337695 0.200592589
v 0.036297570 -0.005333659 0.176977218
v -0.120646376 -0.020240368 0.097262046
v -0.016247801 0.003006166 0.204187794
v 0.017170462 -0.005500000 0.199085294
v 0.001500000 0.003215696 0.195000002
v -0.024000000 0.001031090 0.184371701
v -0.028153182 -0.001310633 0.180999994
v -0.034282684 -0.001909532 0.180999994
v 0.033191853 -0.004364829 0.167999998
v 0.037500001 -0.003787855 0.170541764
v 0.034682647 -0.000428387 0.176487731
v 0.024499999 -0.003120268 0.177074146
v -0.029050956 -0.002471327 0.192731315
v -0.027248949 0.000923070 0.182487655
v -0.039999999 -0.003112042 0.189035559
v 0.007002132 -0.005500000 0.196720603
v 0.009209515 -0.002790385 0.200000003
v 0.032335370 -0.000911520 0.170747544
v -0.033287404 0.009099297 0.147000000
v 0.009266765 -0.003389138 0.194370141
v -0.110630397 -0.024665068 0.080683938
v -0.012843751 0.002500000 0.206000000
v -0.119268788 -0.018796015 0.094957133
v -0.122407476 -0.026362799 0.092611082
v 0.004184011 -0.002454308 0.198614385
v 0.032639423 0.004579356 0.171030588
v 0.005826864 0.003209968 0.191551885
v 0.007481610 0.001001334 0.186099157
v 0.010955439 -0.000610633 0.189005006
v 0.027277594 0.001754077 0.170032015
v -0.117568916 -0.020016182 0.091709285
v -0.015029453 -0.003893121 0.206000000
v -0.038218060 -0.000505346 0.195999995
v -0.028084935 -0.005500000 0.190051999
v 0.036034778 -0.003969663 0.167999998
v 0.005820157 -0.003399329 0.197803821
v -0.030288449 -0.005500000 0.194827098
v -0.006322001 -0.003432676 0.206000000
v -0.017136366 -0.005500000 0.193348830
v -0.033909650 -0.003725025 0.195999995
v -0.005471216 -0.005500000 0.203173759
v -0.123319359 -0.023432318 0.092745928
v 0.018999999 -0.003429576 0.195732906
v -0.112170059 -0.013299822 0.081470156
v 0.024499999 0.001500000 0.180999994
v -0.033580805 0.004248896 0.193308424
v 0.006299153 0.021000000 0.098548603
v 0.031249866 0.001153186 0.174313715
v 0.003248162 -0.004918816 0.194097101
v -0.015997788 -0.002456540 0.198409268
v 0.031197188 -0.004911719 0.167999998
v -0.128546175 -0.028354131 0.084465170
v -0.038278135 0.001195020 0.180999994
v -0.039999999 0.001124153 0.182338397
v -0.108218477 -0.021393195 0.081801776
v -0.039999999 0.000196878 0.191605073
v 0.024499999 -0.001826051 0.179276198
v 0.024499999 -0.005210386 0.178765620
v -0.029431637 -0.002751012 0.195999995
v -0.002000000 -0.003905392 0.194044268
v 0.003000000 -0.004000000 0.199739759
v 0.006088818 -0.005500000 0.185047625
v -0.110475058 -0.018827942 0.083281164
v 0.018999999 -0.004190986 0.199770316
v -0.038180020 0.001644088 0.183354786
v 0.018846688 -0.004396860 0.197504008
v -0.031627467 -0.003281082 0.193807256
v -0.117464873 -0.019303999 0.080514020
v -0.116362436 -0.020789708 0.093101756
v -0.123239118 -0.028716543 0.090424597
v 0.036750490 -0.005500000 0.173336644
v -0.110306558 -0.011597496 0.082585910
v -0.121202355 -0.024190992 0.094952619
v 0.014697243 -0.005500000 0.199298147
v 0.015485238 0.001920322 0.198549727
v -0.028702191 -0.005500000 0.187830577
v -0.006258104 0.020444725 0.099514723
v 0.036387223 0.001622561 0.169300433
v 0.009690349 -0.005500000 0.197498951
v -0.024000000 0.000833961 0.182647936
v 0.030891732 -0.000375261 0.180999994
v -0.126321228 -0.026939168 0.079720686
v 0.027404966 -0.002390862 0.177815725
v -0.015835897 -0.005500000 0.199734230
v 0.028339623 -0.005500000 0.172902022
v 0.005914938 -0.003908048 0.184000000
v 0.008695451 -0.005500000 0.186803168
v 0.024750791 -0.002971184 0.168527749
v -0.024000000 0.001200143 0.190002164
v -0.113653898 -0.027929715 0.080365399
v 0.014502447 -0.001852123 0.196812992
v -0.025543431 0.001652160 0.183399352
v -0.032730922 -0.005500000 0.192580718
v 0.030968397 0.001840860 0.171274469
v -0.012429162 -0.001972017 0.203088589
v -0.013398737 -0.003475983 0.188999996
v -0.024592152 -0.005500000 0.181567040
v -0.024000000 -0.003774609 0.189072231
v -0.107626967 -0.014912826 0.085414010
v 0.037500001 0.001099122 0.176740405
v -0.108260248 -0.016086902 0.087082519
v 0.019818413 0.000000000 0.012792147
v 0.007100413 -0.002329810 0.189260607
v -0.018999999 -0.002869383 0.198154103
v -0.018751145 0.022000000 0.085098155
v -0.015888719 0.000400103 0.206000000
v -0.112783412 -0.023630647 0.074618032
v -0.026710918 -0.003012760 0.186253309
v -0.114001790 -0.012052328 0.084686578
v 0.007075032 -0.002005618 0.200000003
v 0.008213540 -0.005500000 0.184298017
v -0.018698483 -0.005500000 0.201240078
v -0.121589366 -0.021727191 0.083663919
v -0.013135460 0.000026945 0.197087388
v -0.123156338 -0.026218225 0.085131952
v 0.003000000 0.002500000 0.189250001
v -0.032903670 0.014768917 0.096315486
v -0.119080672 -0.023187731 0.093510175
v 0.035891169 -0.005446026 0.168687524
v -0.002894980 0.018047944 0.095458086
v 0.033280822 0.001109589 0.180999994
v 0.034892950 0.013506213 0.137771988
v 0.009281162 -0.000407242 0.198087588
v -0.010449807 -0.003000000 0.071902067
v -0.007928642 0.014646211 0.151469422
v -0.120979912 -0.027351554 0.090576111
v 0.034300692 0.017570446 0.162431787
v -0.026351488 0.022000000 0.083942465
v -0.026054447 -0.005500000 0.186586238
v -0.122650824 -0.016437922 0.093567847
v -0.002000000 -0.003023850 0.202182372
v -0.002000000 0.002500000 0.193781247
v 0.024499999 0.000246918 0.173007150
v -0.024000000 -0.000001749 0.187952150
v 0.026003725 -0.001558079 0.180999994
v -0.110981961 -0.018957055 0.078713127
v -0.024262046 -0.004537086 0.184334416
v 0.028718388 0.014960889 0.102041881
v -0.106716767 -0.016889622 0.085558645
v -0.024000000 -0.004326566 0.182122491
v 0.024499999 -0.000229182 0.176018381
v -0.110582953 -0.016396657 0.083446010
v -0.002521873 -0.002711598 0.189240385
v -0.039693352 -0.005500000 0.185842193
v -0.122419527 -0.017901552 0.088364265
v -0.116937059 -0.021783290 0.076958921
v 0.016453473 -0.004146988 0.184000000
v -0.122612389 -0.019354610 0.095055292
v -0.018563542 -0.005500000 0.195574794
v -0.121553760 -0.022722032 0.087257782
v -0.018479497 0.000372153 0.206000000
v -0.002967974 0.000224848 0.205014994
v -0.063041187 0.003254094 0.015372937
v 0.039023563 0.001095206 0.029360086
v -0.028949604 0.000447259 0.190945743
v 0.013304823 0.002742227 0.189143525
v 0.013658119 0.003060665 0.046920102
v -0.007322521 0.000637673 0.202405604
v -0.112409864 -0.015721546 0.088395632
v -0.120748353 -0.025529374 0.092634585
v 0.024651288 0.014190863 0.002472022
v 0.005377754 0.016000001 0.098791018
v -0.016930189 -0.005500000 0.205036622
v -0.123718943 -0.026423052 0.091023021
v -0.019486015 0.000751449 0.079405201
v 0.014950442 -0.003644622 0.187299577
v 0.010971929 0.003754645 0.031142071
v -0.010925608 0.003334645 0.197726281
v 0.015685324 -0.000998070 0.200000003
v -0.024000000 -0.001234666 0.194172032
v 0.035875001 0.002500000 0.167999998
v -0.024000000 -0.002068772 0.187195258
v -0.111468548 -0.025895563 0.075240884
v 0.024640157 -0.004812282 0.180851069
v -0.018999999 0.000872691 0.203339353
v 0.009916500 0.003416171 0.187029156
v 0.015935992 0.019396098 0.089652838
v -0.018999999 -0.002609519 0.203098657
v -0.026012585 -0.001165682 0.188329818
v -0.124060684 -0.030540506 0.085184309
v -0.040171874 0.002500000 0.195062495
v 0.014895905 0.000476123 0.200000003
v 0.015808568 -0.005500000 0.188390585
v -0.119019355 -0.020253739 0.079077848
v -0.002000000 -0.003364376 0.191288215
v -0.016077420 -0.002943604 0.194954994
v -0.118742563 -0.021342555 0.095460774
v -0.025207847 -0.005500000 0.190916577
v -0.120548855 -0.020200949 0.086508973
v -0.111680299 -0.016761624 0.078796057
v -0.005761380 -0.002625000 0.024891326
v -0.033288858 0.001499290 0.194723057
v -0.009377156 -0.002553405 0.206000000
v -0.121077527 -0.016072739 0.086772965
v -0.113061951 -0.021064913 0.084081332
v 0.037500001 0.001654347 0.178725842
v 0.004610595 -0.003000000 0.029766052
v -0.061590797 0.019321034 0.025900053
v 0.029375584 0.000105171 0.179236097
v -0.027349077 0.000906613 0.195999995
v -0.002562094 -0.000624432 0.206000000
v -0.109374061 -0.020222073 0.084809607
v -0.018999999 -0.005500000 0.189531246
v 0.026827273 -0.005500000 0.176187498
v 0.012479513 0.000242452 0.198020128
v 0.037045974 -0.000116674 0.167999998
v -0.124542036 -0.020766542 0.092400040
v -0.010736863 -0.001787250 0.200369043
v 0.016422811 0.001012154 0.189257019
v -0.002000000 0.002500000 0.201152343
v 0.024499999 0.001113318 0.179279643
v 0.005375000 0.021000000 0.094999999
v 0.029242045 -0.005500000 0.179333311
v 0.027962262 -0.001619244 0.172445384
v -0.025675786 -0.005358084 0.195694404
v -0.017679173 0.013036188 0.107744577
v 0.003000000 0.001500000 0.200000003
v -0.062425187 0.009818554 0.016004817
v -0.119715361 -0.028921295 0.086911791
v 0.037500001 -0.003026136 0.168564802
v -0.119238939 -0.021577527 0.092766896
v -0.036530680 -0.001919527 0.195999995
v 0.024625726 -0.004670729 0.174705687
v -0.002000000 0.001195578 0.195744441
v -0.018999999 0.002500000 0.194046872
v -0.009617369 -0.005500000 0.201228712
v 0.026734375 -0.005500000 0.180796869
v -0.113734151 -0.022283307 0.075860625
v 0.029488724 0.000188710 0.167999998
v 0.020594567 -0.001500000 0.022758144
v -0.037681560 0.001234684 0.195999995
v 0.005824777 0.002935485 0.091900635
v 0.008702435 0.015180927 0.094999999
v -0.016948954 0.007058346 0.059337081
v -0.006799549 -0.005500000 0.191606654
v -0.113499105 -0.009325505 0.081998841
v -0.117959320 -0.024364118 0.090539746
v -0.035132755 -0.005500000 0.193556623
v -0.033787004 0.017141160 0.100531610
v -0.117737286 -0.029644739 0.081449382
v -0.018999999 0.000815752 0.195087722
v -0.011734235 0.016000001 0.097312594
v 0.038652442 0.007413790 0.176531884
v -0.121833477 -0.023347240 0.094552199
v -0.114037269 -0.025891495 0.075409220
v -0.124324472 -0.018622437 0.093553104
v -0.036767143 -0.004303702 0.181220346
v -0.015305522 0.001913904 0.193660560
v 0.035822751 0.013428065 0.048235585
v -0.113853247 -0.023735131 0.086049913
v -0.066362688 0.006104734 0.015224273
v -0.059987870 0.015894987 0.016147729
v -0.056869278 0.006870956 0.029952156
v -0.026307280 0.012532958 0.185625725
v -0.007336590 0.009937500 -0.019232487
v -0.014281206 0.010626952 0.187341474
v -0.017312500 0.007875000 0.000000000
v -0.061042012 0.019593527 0.023232287
v 0.005155700 0.014542096 0.105633652
v 0.004580769 0.019203298 0.144410362
v 0.001945201 0.006331719 0.200219345
v -0.064797008 0.009259629 0.017430219
v -0.029069934 0.020140625 0.101345502
v 0.013593749 0.000000000 0.016138517
v -0.006283755 0.006289918 0.125241733
v -0.012226691 0.018437414 0.087885255
v -0.055948567 0.015569383 0.017664865
v 0.009385965 0.006228459 0.016806369
v 0.009156265 0.000000000 0.016156977
v 0.030732103 0.009699341 0.094999999
v -0.025138841 0.017815906 0.097220119
v -0.060149433 0.018775943 0.020657650
v -0.064023023 0.011560611 0.018400145
v -0.065491846 0.007249981 0.014741875
v 0.004320728 0.020230892 0.092442263
v -0.035218203 0.008208757 0.018677750
v -0.062828565 0.014095956 0.020071562
v -0.063818901 0.010497646 0.014788254
v -0.004684642 0.019801400 0.089911516
v 0.024507827 0.021512965 0.091255692
v -0.062320478 0.017669246 0.022586138
f 96 1 10
f 10 1 225
f 1 96 66
f 66 1172 1
f 225 1 432
f 1 1172 432
f 921 906 2
f 906 1106 2
f 942 921 2
f 1106 942 2
f 168 3 4
f 4 3 169
f 3 5 11
f 117 5 3
f 46 10 3
f 10 227 3
f 11 45 3
f 45 73 3
f 74 46 3
f 73 169 3
f 168 74 3
f 3 227 117
f 169 168 4
f 5 123 11
f 117 71 5
f 123 5 71
f 6 7 11
f 6 210 7
f 11 91 6
f 91 418 6
f 418 210 6
f 7 8 55
f 210 8 7
f 7 44 11
f 53 44 7
f 7 55 53
f 660 55 8
f 660 8 210
f 635 9 555
f 9 1107 555
f 9 635 1134
f 853 1107 9
f 9 1134 853
f 27 96 10
f 27 10 739
f 102 10 46
f 102 739 10
f 10 225 226
f 10 226 227
f 11 29 92
f 184 29 11
f 11 43 91
f 92 43 11
f 889 11 44
f 102 45 11
f 70 11 123
f 70 184 11
f 11 889 102
f 12 88 14
f 262 12 14
f 12 1175 88
f 141 12 239
f 12 141 1175
f 12 408 239
f 262 408 12
f 13 173 996
f 1135 173 13
f 13 996 728
f 728 1135 13
f 211 14 88
f 211 199 14
f 199 1051 14
f 262 14 1143
f 1143 14 1051
f 75 52 15
f 15 52 120
f 15 188 75
f 120 188 15
f 16 882 143
f 1178 16 143
f 16 158 882
f 158 16 1179
f 16 1178 1179
f 17 20 93
f 101 20 17
f 72 17 52
f 17 93 52
f 72 101 17
f 18 68 124
f 18 142 68
f 1041 18 90
f 1046 90 18
f 124 1046 18
f 18 1041 142
f 47 19 31
f 1174 31 19
f 1176 19 47
f 1176 1174 19
f 202 93 20
f 1189 20 101
f 202 20 109
f 20 1189 109
f 179 509 21
f 1165 179 21
f 509 303 21
f 303 1126 21
f 1165 21 1126
f 431 90 22
f 90 901 22
f 786 431 22
f 786 22 901
f 23 1041 68
f 23 68 1057
f 142 23 236
f 142 1041 23
f 23 1057 236
f 98 24 128
f 98 166 24
f 130 128 24
f 243 130 24
f 166 899 24
f 243 24 784
f 24 899 487
f 487 1180 24
f 784 24 1180
f 25 166 130
f 130 203 25
f 235 166 25
f 25 203 257
f 25 573 235
f 25 257 573
f 59 298 26
f 821 59 26
f 26 298 1100
f 821 26 798
f 1100 798 26
f 66 96 27
f 66 27 739
f 35 30 28
f 126 28 30
f 52 28 34
f 28 360 34
f 1024 35 28
f 52 77 28
f 28 126 54
f 28 54 684
f 60 360 28
f 28 1131 60
f 77 78 28
f 78 852 28
f 28 684 1039
f 852 1024 28
f 1131 28 1039
f 248 92 29
f 184 248 29
f 728 30 35
f 30 996 126
f 728 996 30
f 47 31 222
f 31 1080 222
f 31 1174 1080
f 697 377 32
f 377 724 32
f 32 564 697
f 32 914 564
f 914 32 724
f 33 1023 370
f 33 370 1068
f 780 585 33
f 585 1023 33
f 33 1068 780
f 67 52 34
f 34 188 67
f 360 188 34
f 728 35 80
f 80 35 1190
f 1047 320 35
f 320 1190 35
f 1024 1047 35
f 66 36 157
f 739 36 66
f 36 1110 157
f 285 36 739
f 285 1110 36
f 141 583 37
f 1175 141 37
f 37 231 190
f 37 190 307
f 231 37 877
f 37 307 891
f 37 583 877
f 618 37 1144
f 1175 37 618
f 1144 37 891
f 105 108 38
f 151 105 38
f 844 38 108
f 38 121 151
f 121 38 1158
f 38 844 1158
f 39 298 560
f 1100 298 39
f 39 560 1100
f 40 108 56
f 1173 40 56
f 146 105 40
f 938 40 105
f 40 938 108
f 146 40 189
f 40 1173 189
f 1017 41 767
f 41 1048 767
f 1048 41 819
f 819 41 1107
f 41 1017 1107
f 281 42 194
f 42 639 194
f 1099 42 281
f 42 394 446
f 42 1099 394
f 639 42 446
f 91 43 248
f 248 43 92
f 302 44 53
f 889 44 302
f 46 73 45
f 45 102 46
f 74 73 46
f 1021 47 222
f 285 739 47
f 855 285 47
f 739 1176 47
f 47 1188 855
f 1021 1188 47
f 48 85 341
f 463 85 48
f 163 463 48
f 163 48 674
f 341 674 48
f 131 251 49
f 131 49 618
f 263 211 49
f 1175 49 211
f 49 251 500
f 263 49 500
f 49 1175 618
f 50 722 817
f 1070 722 50
f 1070 50 817
f 51 417 369
f 723 51 369
f 507 417 51
f 507 51 765
f 51 723 765
f 77 52 61
f 52 93 61
f 67 120 52
f 72 52 1057
f 75 1057 52
f 55 660 53
f 660 302 53
f 126 996 54
f 996 684 54
f 108 146 56
f 146 1173 56
f 76 57 383
f 57 76 1175
f 155 57 88
f 211 88 57
f 57 155 383
f 1175 211 57
f 353 122 59
f 122 362 59
f 298 59 1173
f 59 1119 353
f 387 59 362
f 503 59 387
f 59 503 1173
f 727 59 821
f 727 1119 59
f 966 360 60
f 60 1131 966
f 77 61 165
f 61 93 202
f 61 202 165
f 62 84 369
f 84 62 533
f 369 206 62
f 206 448 62
f 448 1155 62
f 62 801 533
f 1155 801 62
f 511 63 363
f 1169 363 63
f 1121 63 511
f 537 63 544
f 537 803 63
f 63 813 544
f 803 1169 63
f 63 1121 813
f 377 139 64
f 64 139 890
f 359 148 64
f 148 435 64
f 359 64 890
f 724 377 64
f 64 435 724
f 505 700 65
f 65 1120 505
f 700 1112 65
f 873 65 957
f 873 1120 65
f 1112 957 65
f 66 157 196
f 196 1172 66
f 67 188 120
f 68 90 124
f 68 1041 90
f 68 142 1057
f 69 71 117
f 69 248 71
f 365 69 117
f 69 415 248
f 365 415 69
f 123 248 70
f 184 70 248
f 123 71 248
f 145 101 72
f 145 72 1057
f 169 73 74
f 168 169 74
f 75 188 143
f 143 882 75
f 882 1178 75
f 75 1151 1057
f 1152 75 1081
f 75 1178 1081
f 75 1152 1151
f 76 155 88
f 76 88 1175
f 113 76 383
f 76 113 1044
f 76 1044 155
f 77 165 78
f 78 165 89
f 89 852 78
f 338 79 210
f 79 415 210
f 248 79 418
f 79 248 765
f 79 338 418
f 415 79 507
f 723 507 79
f 765 723 79
f 674 106 80
f 106 1151 80
f 80 270 674
f 270 80 1036
f 80 1161 728
f 80 1190 1036
f 1039 80 1151
f 80 1039 1161
f 81 98 86
f 81 86 136
f 98 81 166
f 81 128 166
f 186 128 81
f 136 158 81
f 81 158 186
f 504 84 161
f 84 533 161
f 84 448 369
f 84 509 448
f 1001 84 504
f 1001 509 84
f 85 196 157
f 341 85 157
f 85 463 196
f 98 128 86
f 186 86 128
f 136 86 1179
f 86 186 158
f 86 158 1179
f 501 450 87
f 450 929 87
f 501 87 632
f 632 87 783
f 783 87 1139
f 87 929 1139
f 889 89 165
f 196 89 210
f 89 196 463
f 89 889 210
f 89 463 320
f 1047 89 320
f 1047 852 89
f 107 90 238
f 1162 90 107
f 124 90 1162
f 238 90 464
f 90 1046 260
f 1090 90 260
f 464 90 431
f 901 90 1090
f 248 418 91
f 935 549 94
f 980 94 549
f 94 713 935
f 94 968 713
f 968 94 812
f 812 94 980
f 414 176 95
f 95 176 940
f 414 95 886
f 640 95 940
f 640 1009 95
f 1009 886 95
f 517 97 255
f 97 649 255
f 517 995 97
f 649 97 1012
f 97 995 905
f 905 1012 97
f 100 182 610
f 100 952 182
f 100 436 347
f 347 952 100
f 648 436 100
f 610 648 100
f 145 118 101
f 236 101 118
f 1057 101 236
f 1189 101 1057
f 102 1176 739
f 889 1176 102
f 282 361 103
f 103 701 282
f 645 103 361
f 538 701 103
f 899 538 103
f 103 645 1035
f 1035 899 103
f 539 104 399
f 720 399 104
f 484 104 539
f 484 670 104
f 670 720 104
f 105 146 108
f 151 938 105
f 1043 275 106
f 275 1151 106
f 1043 106 674
f 107 264 111
f 111 1162 107
f 264 107 238
f 108 938 844
f 202 109 745
f 109 425 745
f 109 1151 425
f 1189 1151 109
f 462 111 264
f 462 1040 111
f 111 1040 542
f 1162 111 542
f 240 173 113
f 173 835 113
f 240 113 383
f 835 1044 113
f 114 177 709
f 114 1159 177
f 340 259 114
f 259 1159 114
f 340 114 1009
f 1009 114 709
f 115 816 430
f 861 115 430
f 861 457 115
f 1157 115 457
f 816 115 1157
f 119 367 116
f 838 119 116
f 367 991 116
f 677 838 116
f 991 677 116
f 227 226 117
f 226 432 117
f 432 365 117
f 118 145 142
f 236 118 142
f 540 367 119
f 1109 540 119
f 672 119 810
f 672 1109 119
f 119 838 810
f 121 844 151
f 844 121 1182
f 1190 121 1158
f 121 1190 1182
f 353 711 122
f 122 1089 362
f 711 1089 122
f 124 1162 1046
f 127 966 1039
f 127 1178 966
f 127 1039 1081
f 1178 127 1081
f 130 166 128
f 130 761 203
f 442 130 243
f 130 442 344
f 344 761 130
f 1094 251 131
f 1094 131 300
f 1160 300 131
f 618 1144 131
f 1144 1160 131
f 132 595 181
f 972 132 181
f 278 595 132
f 669 278 132
f 669 132 401
f 132 972 401
f 136 882 158
f 136 1179 882
f 377 599 139
f 599 890 139
f 273 140 300
f 1023 140 273
f 140 722 300
f 785 722 140
f 785 140 1023
f 492 141 239
f 545 141 492
f 141 545 583
f 145 1057 142
f 188 966 143
f 966 1178 143
f 732 337 144
f 337 1138 144
f 144 557 759
f 1138 557 144
f 1099 732 144
f 1099 144 759
f 189 911 146
f 911 298 146
f 298 1173 146
f 572 317 147
f 317 877 147
f 877 545 147
f 545 1015 147
f 1015 572 147
f 359 344 148
f 148 344 442
f 352 435 148
f 442 352 148
f 183 464 150
f 150 729 183
f 348 378 150
f 464 348 150
f 378 729 150
f 938 151 844
f 207 152 533
f 207 801 152
f 152 292 533
f 292 152 1026
f 1026 152 602
f 1055 602 152
f 801 1109 152
f 152 1109 1055
f 153 527 636
f 153 1156 527
f 153 636 1169
f 1156 153 803
f 1169 803 153
f 1044 383 155
f 157 662 341
f 752 662 157
f 157 1116 752
f 157 1110 1116
f 264 238 159
f 238 464 159
f 1130 264 159
f 464 1130 159
f 162 301 161
f 162 161 533
f 301 504 161
f 292 162 533
f 292 1026 162
f 162 1026 301
f 463 163 270
f 674 270 163
f 1168 165 202
f 889 165 1168
f 235 899 166
f 336 167 230
f 167 1101 230
f 336 243 167
f 243 784 167
f 1101 167 784
f 594 172 562
f 859 562 172
f 594 613 172
f 172 613 926
f 172 926 859
f 240 738 173
f 173 738 1184
f 835 173 1135
f 996 173 1184
f 174 529 924
f 174 1180 529
f 174 580 750
f 580 174 777
f 1136 174 750
f 174 924 777
f 174 1136 1180
f 414 422 176
f 620 176 422
f 620 508 176
f 940 176 508
f 177 520 443
f 709 177 443
f 1159 520 177
f 1049 179 357
f 179 1165 357
f 390 509 179
f 179 768 390
f 1049 768 179
f 180 606 956
f 959 606 180
f 753 180 781
f 753 959 180
f 180 978 781
f 180 956 978
f 972 181 412
f 181 973 412
f 595 973 181
f 610 182 1100
f 952 1150 182
f 182 1150 1100
f 464 183 1052
f 1052 183 729
f 188 360 966
f 215 304 189
f 999 215 189
f 218 189 304
f 624 189 218
f 925 189 328
f 1173 328 189
f 189 624 356
f 356 911 189
f 925 999 189
f 877 190 231
f 308 307 190
f 877 308 190
f 193 449 619
f 193 842 449
f 619 1050 193
f 864 193 795
f 795 193 1050
f 842 193 864
f 971 241 194
f 194 241 1001
f 330 281 194
f 330 194 1001
f 639 971 194
f 219 295 195
f 755 219 195
f 268 195 295
f 268 581 195
f 581 755 195
f 1172 196 210
f 263 199 211
f 263 1129 199
f 1143 1051 199
f 1143 199 1129
f 200 909 201
f 201 927 200
f 356 200 401
f 909 200 356
f 401 200 927
f 402 201 306
f 201 926 306
f 927 201 402
f 909 926 201
f 1168 202 745
f 203 451 257
f 761 451 203
f 204 454 696
f 1102 454 204
f 680 204 696
f 850 204 680
f 1066 762 204
f 1102 204 762
f 1066 204 850
f 205 323 893
f 205 1088 323
f 831 205 993
f 831 1088 205
f 893 993 205
f 417 206 369
f 417 507 206
f 723 448 206
f 206 507 723
f 207 533 801
f 297 481 208
f 297 208 899
f 481 701 208
f 701 538 208
f 208 538 899
f 418 338 210
f 365 346 210
f 346 1172 210
f 365 210 415
f 210 889 660
f 859 215 276
f 215 999 276
f 859 304 215
f 599 377 216
f 1102 216 377
f 574 455 216
f 455 599 216
f 574 216 762
f 216 1102 762
f 454 217 696
f 454 809 217
f 720 217 597
f 217 809 597
f 680 696 217
f 217 1006 680
f 217 720 1006
f 859 218 304
f 926 624 218
f 859 926 218
f 219 435 295
f 724 435 219
f 914 724 219
f 962 219 755
f 219 962 914
f 1080 1021 222
f 432 226 225
f 336 229 243
f 229 442 243
f 336 295 229
f 442 229 295
f 336 230 268
f 343 268 230
f 1088 343 230
f 230 1101 1088
f 525 232 390
f 232 1155 390
f 1028 232 525
f 1028 1155 232
f 678 297 235
f 297 899 235
f 573 678 235
f 492 239 408
f 1044 240 383
f 240 1044 738
f 241 971 509
f 1001 241 509
f 531 244 373
f 373 244 763
f 702 244 531
f 244 702 790
f 244 864 763
f 864 244 790
f 245 1120 280
f 1129 245 280
f 623 505 245
f 1120 245 505
f 1129 623 245
f 567 912 247
f 1015 567 247
f 572 1015 247
f 572 247 1122
f 247 912 673
f 247 673 1122
f 248 415 765
f 280 619 250
f 1129 280 250
f 619 449 250
f 1143 250 449
f 250 1143 1129
f 500 251 941
f 251 1025 941
f 1070 1025 251
f 1094 1070 251
f 255 381 665
f 381 255 787
f 255 400 553
f 665 400 255
f 517 255 553
f 255 649 787
f 256 900 373
f 256 373 1145
f 1003 256 774
f 1145 774 256
f 900 256 780
f 256 1003 780
f 257 451 467
f 524 257 467
f 524 573 257
f 259 337 685
f 337 259 1138
f 340 636 259
f 259 636 527
f 1138 259 527
f 685 1159 259
f 598 260 721
f 598 1125 260
f 1162 721 260
f 1046 1162 260
f 1125 1090 260
f 655 408 262
f 262 1143 655
f 642 263 500
f 1129 263 642
f 264 964 462
f 1130 964 264
f 392 330 267
f 330 1001 267
f 267 732 392
f 267 520 410
f 732 267 410
f 452 443 267
f 443 520 267
f 452 267 504
f 267 1001 504
f 336 268 295
f 268 343 581
f 1036 463 270
f 300 1160 273
f 370 273 441
f 370 1023 273
f 273 1160 441
f 476 391 274
f 643 274 391
f 650 476 274
f 274 643 766
f 650 274 766
f 288 275 372
f 288 1151 275
f 275 764 372
f 1043 764 275
f 841 276 830
f 276 999 830
f 841 859 276
f 595 278 913
f 664 808 278
f 664 278 1166
f 278 669 1166
f 808 772 278
f 278 772 913
f 280 879 619
f 280 1120 879
f 330 392 281
f 392 1099 281
f 299 361 282
f 484 299 282
f 845 484 282
f 701 845 282
f 480 284 750
f 284 480 862
f 284 687 497
f 497 1136 284
f 284 1029 687
f 284 1136 750
f 1029 284 862
f 855 1110 285
f 449 475 286
f 286 1143 449
f 979 286 475
f 655 286 1104
f 286 655 1143
f 979 1104 286
f 425 288 372
f 425 1151 288
f 989 557 289
f 557 1138 289
f 289 1045 989
f 1138 1045 289
f 295 435 352
f 352 442 295
f 678 481 297
f 412 560 298
f 911 412 298
f 628 361 299
f 484 539 299
f 968 299 539
f 299 812 628
f 299 968 812
f 300 722 1094
f 443 504 301
f 443 301 1164
f 301 1026 1164
f 302 660 889
f 350 398 303
f 350 303 509
f 398 446 303
f 303 446 692
f 1126 303 692
f 565 525 305
f 768 305 525
f 706 565 305
f 733 706 305
f 305 834 733
f 305 768 1049
f 305 1049 834
f 402 306 613
f 926 613 306
f 1160 307 308
f 891 307 1160
f 317 794 308
f 308 877 317
f 794 441 308
f 441 1160 308
f 311 734 483
f 1000 311 483
f 516 734 311
f 516 311 1000
f 316 679 324
f 1162 316 324
f 542 846 316
f 542 316 1162
f 316 1115 679
f 846 1115 316
f 572 1122 317
f 1122 794 317
f 320 463 1036
f 320 1036 1158
f 1182 320 1158
f 1190 320 1182
f 687 893 323
f 323 1101 687
f 1088 1101 323
f 632 721 324
f 632 324 1019
f 679 1019 324
f 721 1162 324
f 372 325 425
f 372 440 325
f 325 745 425
f 325 440 857
f 325 1168 745
f 1168 325 857
f 532 548 327
f 532 327 1125
f 548 1148 327
f 786 901 327
f 786 327 1148
f 901 1090 327
f 1125 327 1090
f 503 1008 328
f 328 1173 503
f 1053 925 328
f 328 1008 1053
f 436 329 430
f 329 861 430
f 329 436 736
f 840 329 736
f 329 840 861
f 868 333 518
f 333 970 518
f 548 928 333
f 333 1148 548
f 868 1148 333
f 928 970 333
f 337 732 685
f 406 636 340
f 1009 406 340
f 1043 341 662
f 674 341 1043
f 1088 581 343
f 359 761 344
f 1172 346 365
f 347 436 430
f 816 347 430
f 347 816 1141
f 1141 952 347
f 348 431 378
f 348 464 431
f 350 639 398
f 528 350 509
f 528 639 350
f 1119 711 353
f 753 382 354
f 382 1150 354
f 753 354 1141
f 354 1150 1141
f 412 356 401
f 356 412 911
f 356 624 909
f 834 1049 357
f 834 357 1067
f 357 1165 1067
f 359 451 761
f 359 890 451
f 645 361 628
f 387 362 1089
f 363 406 940
f 1169 406 363
f 363 508 511
f 940 508 363
f 907 364 462
f 364 1000 462
f 1000 364 907
f 432 1172 365
f 540 1155 367
f 1155 991 367
f 448 723 369
f 370 794 421
f 421 1068 370
f 794 370 441
f 372 752 440
f 752 372 764
f 531 373 825
f 373 763 1145
f 825 373 900
f 1102 377 697
f 431 1148 378
f 378 1007 729
f 868 1007 378
f 1148 868 378
f 665 381 1063
f 787 1063 381
f 727 821 382
f 1119 727 382
f 753 781 382
f 382 781 1119
f 821 798 382
f 798 1150 382
f 466 384 544
f 1078 384 466
f 537 544 384
f 384 690 537
f 690 384 706
f 384 1078 706
f 707 993 385
f 998 707 385
f 385 993 893
f 893 998 385
f 387 1008 503
f 387 1089 1008
f 509 390 448
f 390 1155 448
f 525 390 768
f 391 492 408
f 815 391 408
f 391 476 492
f 643 391 815
f 732 1099 392
f 394 557 446
f 759 557 394
f 1099 759 394
f 398 639 446
f 713 539 399
f 597 713 399
f 720 597 399
f 553 400 413
f 400 1166 413
f 1166 400 665
f 972 412 401
f 927 669 401
f 402 553 413
f 413 927 402
f 553 402 550
f 550 402 613
f 403 458 677
f 458 403 1078
f 1028 565 403
f 403 565 1078
f 677 1028 403
f 636 406 1169
f 940 406 640
f 1009 640 406
f 408 655 1062
f 408 1062 815
f 520 1159 410
f 410 685 732
f 1159 685 410
f 730 560 412
f 973 730 412
f 1166 927 413
f 422 414 1092
f 593 414 886
f 414 593 1092
f 765 415 507
f 421 794 673
f 958 421 673
f 958 1068 421
f 620 422 602
f 602 422 1026
f 1092 1026 422
f 786 1148 431
f 736 436 648
f 752 1116 440
f 857 440 1149
f 1116 1149 440
f 443 452 504
f 709 443 1164
f 446 557 989
f 446 1083 692
f 989 1083 446
f 842 475 449
f 450 501 757
f 878 450 757
f 450 878 990
f 929 450 990
f 890 467 451
f 454 697 633
f 809 454 633
f 454 1102 697
f 467 890 455
f 455 1066 467
f 455 574 1066
f 455 890 599
f 787 649 457
f 649 1157 457
f 840 787 457
f 840 457 861
f 466 1020 458
f 466 458 1078
f 458 838 677
f 1018 838 458
f 1020 1018 458
f 462 964 907
f 1000 1040 462
f 1060 464 1052
f 1060 1130 464
f 813 466 544
f 466 813 1020
f 467 850 524
f 1066 850 467
f 561 774 468
f 468 1082 561
f 806 601 468
f 468 601 951
f 774 806 468
f 951 1082 468
f 475 842 496
f 475 496 979
f 492 476 545
f 476 1015 545
f 650 1015 476
f 812 480 750
f 980 480 812
f 980 862 480
f 1005 481 678
f 875 701 481
f 875 481 1005
f 483 884 546
f 546 1000 483
f 656 615 483
f 615 884 483
f 734 656 483
f 845 670 484
f 487 899 924
f 924 1180 487
f 501 488 704
f 488 501 1019
f 704 488 587
f 846 587 488
f 1019 846 488
f 489 913 522
f 489 522 934
f 489 730 595
f 913 489 595
f 731 489 661
f 661 489 934
f 731 730 489
f 1080 889 490
f 1168 490 889
f 490 1168 1080
f 493 713 597
f 493 597 809
f 707 493 809
f 998 493 707
f 935 713 493
f 998 935 493
f 496 790 702
f 702 824 496
f 842 790 496
f 824 979 496
f 687 784 497
f 497 784 828
f 828 1136 497
f 500 941 642
f 632 1019 501
f 757 501 704
f 623 642 505
f 505 642 700
f 508 974 511
f 918 508 620
f 974 508 918
f 971 528 509
f 511 974 1121
f 516 1132 734
f 1000 907 516
f 907 1054 516
f 1054 1093 516
f 1146 516 1093
f 1132 516 1146
f 553 550 517
f 644 517 550
f 517 644 995
f 582 804 518
f 970 582 518
f 804 712 518
f 712 868 518
f 787 934 522
f 522 1063 787
f 913 1063 522
f 792 573 524
f 829 792 524
f 850 829 524
f 565 1028 525
f 527 1045 1138
f 527 1156 1045
f 528 971 639
f 1180 924 529
f 702 531 1154
f 766 531 892
f 766 1154 531
f 531 825 892
f 532 928 548
f 1125 783 532
f 783 1139 532
f 954 928 532
f 954 532 1139
f 791 836 535
f 920 791 535
f 888 535 836
f 535 878 920
f 878 535 990
f 535 888 990
f 537 690 894
f 537 894 803
f 968 539 713
f 801 540 1109
f 540 801 1155
f 676 846 542
f 676 542 1040
f 583 545 877
f 676 546 587
f 587 546 884
f 546 676 1040
f 546 1040 1000
f 862 549 896
f 862 980 549
f 549 935 896
f 613 915 550
f 915 644 550
f 1089 635 555
f 1017 903 555
f 903 1089 555
f 1107 1017 555
f 606 959 556
f 606 556 1157
f 816 556 959
f 556 816 1157
f 730 731 560
f 560 731 975
f 975 1100 560
f 561 605 1031
f 1082 605 561
f 1003 774 561
f 561 1031 1003
f 594 562 1016
f 859 1059 562
f 562 1059 1016
f 697 564 633
f 633 564 741
f 564 914 741
f 706 1078 565
f 650 892 567
f 650 567 1015
f 567 825 870
f 892 825 567
f 567 870 912
f 792 678 573
f 762 1066 574
f 580 628 750
f 628 580 777
f 581 983 755
f 874 983 581
f 874 581 1088
f 836 582 631
f 970 631 582
f 1004 804 582
f 836 1004 582
f 693 785 585
f 585 1031 693
f 1003 585 780
f 585 785 1023
f 1003 1031 585
f 846 676 587
f 587 884 704
f 886 709 593
f 1164 593 709
f 593 1164 1092
f 594 915 613
f 594 1016 915
f 973 595 730
f 710 957 596
f 710 596 960
f 737 880 596
f 737 596 957
f 596 880 960
f 632 598 721
f 783 598 632
f 1125 598 783
f 806 737 601
f 737 887 601
f 797 601 887
f 601 797 951
f 620 602 1055
f 626 789 605
f 1082 626 605
f 605 789 1031
f 606 1012 956
f 1157 1012 606
f 648 610 975
f 1100 975 610
f 884 615 656
f 879 1050 619
f 918 620 1055
f 1129 642 623
f 624 926 909
f 817 789 626
f 626 951 817
f 1082 951 626
f 777 645 628
f 750 628 812
f 631 748 888
f 748 631 1038
f 631 888 836
f 970 928 631
f 631 928 1038
f 741 707 633
f 707 809 633
f 635 711 895
f 711 635 1089
f 635 895 1134
f 760 700 642
f 760 642 941
f 643 815 695
f 1154 643 695
f 766 643 1154
f 915 1048 644
f 644 1048 995
f 1035 645 777
f 975 736 648
f 1157 649 1012
f 650 766 892
f 810 654 672
f 654 833 672
f 810 1058 654
f 1058 833 654
f 1062 655 1104
f 694 884 656
f 694 656 920
f 734 751 656
f 656 751 920
f 661 975 731
f 934 736 661
f 661 736 975
f 662 752 764
f 1043 662 764
f 808 664 1166
f 808 665 1063
f 1166 665 808
f 669 927 1166
f 981 720 670
f 845 875 670
f 875 981 670
f 974 672 833
f 918 672 974
f 918 1055 672
f 1055 1109 672
f 673 870 703
f 673 703 958
f 1122 673 794
f 912 870 673
f 677 991 1155
f 677 1155 1028
f 1005 678 792
f 679 1115 1019
f 680 829 850
f 680 1030 829
f 1006 1030 680
f 1039 684 996
f 1101 784 687
f 936 893 687
f 687 1029 936
f 733 690 706
f 690 733 898
f 690 988 894
f 690 898 988
f 1083 961 692
f 961 1126 692
f 1097 785 693
f 1031 789 693
f 789 1097 693
f 884 694 704
f 920 704 694
f 702 695 824
f 695 702 1154
f 815 1062 695
f 695 1104 824
f 1062 1104 695
f 887 700 760
f 1112 700 887
f 845 701 875
f 780 703 900
f 1068 703 780
f 870 900 703
f 703 1068 958
f 920 757 704
f 741 993 707
f 709 886 1009
f 710 800 837
f 800 710 960
f 710 837 957
f 1119 895 711
f 843 712 804
f 843 1007 712
f 1007 868 712
f 981 1006 720
f 785 1097 722
f 1097 817 722
f 1070 1094 722
f 1161 1135 728
f 729 843 735
f 729 735 1052
f 1007 843 729
f 834 942 733
f 733 942 898
f 751 734 791
f 734 1132 791
f 1142 735 843
f 1060 735 931
f 735 1142 931
f 1060 1052 735
f 840 736 934
f 737 806 880
f 737 1112 887
f 1112 737 957
f 1044 1184 738
f 741 914 985
f 923 741 985
f 923 993 741
f 990 888 748
f 929 990 748
f 1038 929 748
f 791 920 751
f 1141 959 753
f 962 755 985
f 755 983 985
f 920 878 757
f 797 887 760
f 797 760 1025
f 760 941 1025
f 864 795 763
f 795 960 763
f 960 1145 763
f 767 1091 1017
f 767 1048 1056
f 1091 767 1056
f 913 772 808
f 806 774 1145
f 899 777 924
f 899 1035 777
f 978 895 781
f 895 1119 781
f 1180 828 784
f 840 934 787
f 789 817 1097
f 864 790 842
f 791 865 836
f 1132 865 791
f 1005 792 829
f 800 960 795
f 800 795 1050
f 817 951 797
f 817 797 1025
f 1100 1150 798
f 800 879 837
f 879 800 1050
f 803 894 1156
f 804 832 843
f 804 1004 832
f 1145 880 806
f 913 808 1063
f 810 838 1018
f 1058 810 1018
f 813 833 1058
f 1121 833 813
f 1058 1020 813
f 814 956 871
f 871 1134 814
f 895 978 814
f 1134 895 814
f 978 956 814
f 1141 816 959
f 1070 817 1025
f 819 953 995
f 819 1107 953
f 995 1048 819
f 824 1104 979
f 870 825 900
f 1180 1136 828
f 1030 1005 829
f 830 1091 841
f 925 830 999
f 830 925 1053
f 1091 830 1053
f 874 831 923
f 831 874 1088
f 923 831 993
f 832 1142 843
f 1004 865 832
f 1123 832 865
f 1142 832 1123
f 833 1121 974
f 834 1067 942
f 1044 835 1184
f 835 1135 1184
f 1004 836 865
f 879 873 837
f 873 957 837
f 859 841 1059
f 1056 1059 841
f 1091 1056 841
f 1158 844 1182
f 1115 846 1019
f 1047 1024 852
f 871 956 853
f 871 853 1134
f 853 905 953
f 853 956 905
f 953 1107 853
f 1116 1110 855
f 1149 1116 855
f 1188 1149 855
f 857 1149 1073
f 1168 857 1073
f 1029 862 896
f 865 1132 1123
f 907 964 866
f 1054 907 866
f 964 1130 866
f 976 1054 866
f 866 1130 976
f 1120 873 879
f 983 874 923
f 875 1005 981
f 1145 960 880
f 1178 882 1179
f 1080 1176 889
f 891 1160 1144
f 896 893 936
f 896 998 893
f 1037 894 988
f 1156 894 1037
f 896 935 998
f 896 936 1029
f 1106 898 942
f 1106 988 898
f 1123 902 977
f 977 902 1146
f 1123 1132 902
f 902 1132 1146
f 1008 903 1053
f 1089 903 1008
f 1017 1091 903
f 1091 1053 903
f 995 953 905
f 905 956 1012
f 916 906 1067
f 1163 906 916
f 921 1067 906
f 906 992 1037
f 906 1163 992
f 906 1037 1106
f 985 914 962
f 1016 1056 915
f 915 1056 1048
f 916 1126 961
f 961 1163 916
f 1067 1126 916
f 921 942 1067
f 983 923 985
f 954 1038 928
f 1038 1139 929
f 1060 931 976
f 1093 976 931
f 977 1093 931
f 931 1142 977
f 1079 961 943
f 961 1083 943
f 1045 943 989
f 943 1083 989
f 943 1045 1079
f 1141 1150 952
f 1038 954 1139
f 992 961 1079
f 961 992 1163
f 966 1131 1039
f 976 1093 1054
f 1130 1060 976
f 1093 977 1146
f 1142 1123 977
f 1005 1030 981
f 981 1030 1006
f 1037 988 1106
f 1037 992 1079
f 1039 996 1161
f 1161 996 1135
f 996 1184 1135
f 1056 1016 1059
f 1020 1058 1018
f 1080 1183 1021
f 1183 1188 1021
f 1026 1092 1164
f 1158 1036 1190
f 1079 1156 1037
f 1039 1152 1081
f 1152 1039 1151
f 1045 1156 1079
f 1151 1189 1057
f 1126 1067 1165
f 1080 1073 1149
f 1080 1168 1073
f 1149 1183 1080
f 1080 1174 1176
f 1149 1188 1183
