# sdm_hand_1200_palmar_mixw3.obj  (1200 v, 1642 f)  units: metres
v -0.059176758 -0.005846387 0.021900922
v -0.120026529 -0.020861253 0.097741932
v -0.069094315 0.004087776 0.014222741
v -0.068354376 0.004346595 0.013601856
v -0.062823243 0.021846386 0.029099079
v -0.062083300 0.022105206 0.028478192
v -0.059628095 0.022090085 0.033008493
v 0.037500001 -0.004858817 0.168580011
v -0.045000002 0.000000000 0.000000000
v -0.037999999 -0.001116713 0.020000000
v -0.045000002 0.022000000 0.000000000
v -0.045000002 0.022000000 0.050404027
v -0.036948022 0.022000000 0.059999999
v 0.005805569 0.020000000 -0.023337829
v -0.040070573 0.004010938 0.138193661
v -0.019500000 0.003977547 0.187119742
v -0.035656334 0.018863922 0.102000003
v -0.023944977 0.013893767 0.169382980
v 0.038000000 0.003125000 0.133000001
v -0.002389491 0.004521009 0.185016799
v 0.003437500 0.002500000 0.201000005
v -0.001701985 0.003880917 0.207500003
v 0.024000000 0.003750000 0.158999994
v 0.024315558 0.002500000 0.165131734
v 0.023250000 0.007000000 0.158208328
v 0.038250001 0.005625000 0.165000007
v 0.027275006 0.015730987 0.102518698
v 0.019027344 0.011068858 0.174454788
v -0.003698542 0.014796180 0.206963022
v 0.001500000 0.019500000 0.202000007
v 0.020500001 0.019500000 0.180999994
v 0.027000000 0.019500000 0.166000005
v -0.062785275 0.012083136 0.021882822
v -0.037999999 -0.001116713 0.041233219
v 0.002499999 0.002000000 0.000000000
v 0.002499999 0.020000000 0.000000000
v -0.033000000 0.022000000 0.029999999
v -0.033000000 0.022000000 0.044999999
v -0.053541651 0.022052603 0.014239096
v -0.054979681 0.001857366 0.005812280
v -0.061656147 -0.003362847 0.019981377
v -0.088028155 -0.010854378 0.045959627
v 0.023000000 0.011132766 0.165718082
v 0.002175781 0.006392062 0.183029078
v -0.017519516 0.003274265 0.208000004
v -0.005578125 0.002500000 0.207000002
v -0.026585807 0.003567166 0.146784505
v 0.025000000 0.000000000 0.000000000
v 0.025000000 0.022000000 0.000000000
v -0.037999999 -0.003000000 0.030616610
v 0.013750000 0.002000000 0.000000000
v -0.037999999 -0.003000000 0.035924914
v -0.037999999 -0.003000000 0.025308305
v 0.019850021 0.006169708 0.109576511
v -0.003550121 0.019500000 0.196035889
v -0.024476975 0.016041531 0.193994851
v -0.022500001 0.002500000 0.106000004
v 0.036703126 0.019500000 0.170000004
v 0.031000000 0.007500000 0.165000007
v -0.015750283 0.007790446 0.207680027
v -0.041129353 0.017090748 0.184058216
v -0.033000000 0.022000000 0.052499999
v -0.014741477 0.019500000 0.197244321
v -0.020500001 0.010944854 0.195374998
v -0.039840023 0.013381649 0.115622592
v 0.017359453 0.003848473 0.165007485
v 0.011769588 0.002500000 0.153272040
v -0.124077546 -0.025942574 0.077282692
v -0.004000000 0.000000000 0.000000000
v 0.011251670 -0.003000000 0.033391070
v 0.041631838 0.001165869 0.065789061
v 0.004731959 0.019500000 0.132872524
v -0.028017999 0.002780150 0.170957149
v -0.064391011 0.017406734 0.025379995
v -0.084972122 0.008472630 0.047805361
v 0.037130073 0.001449813 0.005982939
v 0.000281250 0.000000000 0.011249153
v -0.020500001 0.006615791 0.194312497
v -0.123868511 -0.012706417 0.092046637
v -0.057812476 0.022078904 0.021358644
v -0.011250000 0.020000000 0.000000000
v -0.045000002 0.011563837 0.057547724
v -0.018922640 0.022000000 0.062460370
v -0.040281249 0.011206856 0.172000006
v -0.032900218 0.002500000 0.112128437
v -0.016587281 0.022000000 0.022592150
v -0.004000000 0.022000000 0.000000000
v -0.110364428 -0.010717519 0.073380057
v -0.125416622 -0.013991435 0.063580515
v 0.008766217 0.004881058 0.185003944
v -0.110887110 0.003737379 0.067751253
v 0.039000001 0.013500000 0.165000007
v 0.000652769 0.022000000 0.018808773
v 0.029408535 0.002729492 0.141038128
v 0.036190626 0.000746719 0.180999994
v -0.065375231 0.000362465 0.017102059
v -0.058319930 0.010711830 0.036096263
v -0.008670954 0.020000000 -0.012942379
v 0.025000000 0.020000000 -0.014999999
v -0.120774272 -0.016668669 0.075280451
v -0.113658569 -0.015750861 0.062364357
v -0.042318707 0.014494061 0.014313571
v -0.052560485 0.022063603 0.028143588
v -0.126322155 -0.018631686 0.070649596
v -0.062683633 0.008633069 0.010299150
v -0.061667028 0.003101981 0.009707068
v 0.013750000 0.020000000 0.000000000
v -0.048898459 0.005054829 0.011751678
v 0.031000000 0.019500000 0.182999998
v -0.030077611 0.017990257 0.135065161
v -0.075633725 -0.002033123 0.028968942
v -0.025000000 0.011000000 -0.006300000
v 0.005500606 0.005062672 0.194636104
v -0.122036439 -0.000948256 0.076089977
v -0.019506617 0.015244149 0.169600531
v -0.001204817 0.005756551 0.154492039
v -0.038432995 0.002500000 0.098750002
v -0.051978652 0.020389013 0.041415646
v -0.020500001 0.003735734 0.196470485
v -0.116115169 -0.010144947 0.072242473
v -0.037250806 0.017591562 0.000437278
v -0.055282629 0.016017716 0.024962128
v -0.007185432 0.007187500 0.184705810
v 0.037426705 -0.002336722 0.169009007
v -0.022500001 0.009000000 0.107500004
v -0.022500001 0.005937500 0.102855773
v -0.113142001 -0.016192649 0.069019834
v -0.000500000 0.007110467 0.170716433
v -0.116210382 -0.018345719 0.077240839
v -0.041499998 0.006591026 0.184449101
v 0.002979254 0.022000000 0.039578092
v -0.067526547 0.008527429 0.017941826
v -0.005132115 0.018932937 0.092708028
v 0.023000000 0.005166609 0.173759863
v -0.003625000 0.013672619 0.186000004
v 0.014750000 0.002500000 0.149843756
v 0.039000001 0.010148191 0.170114845
v 0.029911758 0.015837490 0.138999999
v -0.114361433 -0.020621201 0.068761466
v -0.015544367 0.002000000 -0.007223680
v -0.007172174 0.022000000 0.010764578
v 0.004625000 0.002500000 0.200000003
v -0.002000000 0.000827630 0.200398993
v -0.022500001 0.006750000 0.113888893
v 0.023000000 0.011883603 0.178211723
v -0.007898405 0.006459951 0.192635602
v -0.006442019 0.005625170 0.197721638
v -0.060724318 0.004159411 0.015850981
v 0.030985619 0.017465486 0.119266655
v 0.018750000 0.002000000 -0.029999999
v 0.023000000 0.014182943 0.171044710
v -0.039398540 -0.002272146 0.195999995
v -0.006678774 0.001475292 0.196764310
v -0.091370359 -0.003254734 0.063633361
v -0.020500001 0.008727393 0.124546268
v -0.036654216 0.022000000 0.083058997
v -0.119845665 -0.007860736 0.084566291
v -0.120584932 -0.027063021 0.090439242
v -0.111569227 -0.007479017 0.066471491
v -0.061780053 0.000846791 0.025648581
v -0.024808106 0.008788737 0.101000004
v -0.038043877 0.003192091 0.173232092
v 0.017812500 0.006250000 0.149000004
v -0.058752417 0.012679150 0.022937654
v -0.014699947 0.002500000 0.181686133
v -0.018680641 0.004181336 0.143646176
v -0.005169875 0.001384337 0.200262319
v -0.091662742 0.004123579 0.055583079
v 0.009593750 0.007500000 0.149000004
v 0.033781250 0.018458333 0.158999994
v -0.008079272 0.000188736 0.206000000
v -0.069030785 0.013912440 0.039278223
v -0.064022796 -0.005099452 0.027017281
v -0.009263069 0.002500000 0.163270753
v -0.035176353 0.007323809 0.098722415
v -0.007452711 0.002450462 0.201940176
v -0.006250000 0.002000000 -0.029999999
v -0.117431399 -0.021544848 0.076991077
v -0.130600983 -0.027670041 0.082094788
v -0.028775978 0.020358493 0.092302316
v -0.023038061 0.005657000 0.055345099
v -0.008971853 -0.005500000 0.195110928
v 0.024499999 -0.000929884 0.180432437
v 0.034000366 0.005156681 0.167966025
v -0.003750000 0.002500000 0.206000000
v 0.036746928 0.005662568 0.170370655
v 0.010231905 0.007275850 0.073877251
v -0.006159457 0.009858782 0.190976703
v -0.008804980 0.014434439 0.123620380
v 0.001500000 0.004178047 0.194222796
v 0.028759189 0.006466990 0.152923909
v -0.119608953 -0.021622943 0.070242416
v -0.002000000 0.002500000 0.195109372
v -0.003567871 0.001757612 0.202896292
v -0.016267203 -0.000428879 0.199160567
v -0.127411900 -0.012032883 0.084858540
v -0.002500000 0.002500000 0.148999997
v 0.012218994 0.005342193 0.129606113
v -0.038156249 0.002500000 0.195999995
v -0.005241268 0.013403993 0.171364440
v -0.057356155 0.009944392 0.007196366
v 0.028177352 0.006162426 0.182999998
v 0.024886955 -0.005500000 0.172131503
v -0.003553067 0.002028945 0.196552741
v 0.025000000 0.013250000 0.000000000
v -0.116015218 -0.028195034 0.078992865
v -0.117248438 -0.012973207 0.083078769
v -0.026518016 0.004040273 0.139171691
v 0.027046704 0.022000000 0.035198859
v 0.017523610 0.005181577 0.044330758
v -0.117481583 -0.020178221 0.072611185
v -0.004147355 0.000651885 0.198183230
v -0.018174369 0.002500000 0.173091297
v -0.005809641 0.001836035 0.198032094
v 0.037503824 0.003625531 0.095778046
v -0.132312967 -0.025701699 0.084302966
v -0.008222297 0.005950216 0.195265024
v -0.101341711 -0.002726163 0.047747211
v -0.001199060 0.002000000 -0.009388095
v 0.031273798 0.005470435 0.168979405
v 0.024750000 0.005625000 0.137729166
v -0.015794770 0.015549274 0.187059454
v -0.134970922 -0.022760131 0.082361547
v -0.061185314 0.005540156 0.030243267
v -0.017166667 0.009936654 0.101990198
v -0.027098495 0.002500000 0.103516741
v -0.032349474 0.005755010 0.192051653
v -0.029810035 0.013323675 0.087487804
v -0.008264624 0.009771206 0.199427790
v -0.012180812 0.005416247 0.194610674
v -0.008125000 0.001875000 0.094999999
v -0.125018949 -0.027760626 0.082269784
v 0.023750000 0.002709700 0.178710772
v 0.036948458 0.003756941 0.169167661
v -0.002000000 0.000500000 0.206000000
v -0.009320189 0.004856448 0.191109853
v -0.000500000 0.005786566 0.196313230
v -0.120468559 -0.017672867 0.081169435
v -0.022656250 0.013250000 -0.029999999
v -0.116244436 -0.019302070 0.077043967
v -0.040656249 0.003381850 0.182178214
v -0.006283278 0.001391533 0.202409089
v 0.008159431 0.000679568 0.038035438
v -0.029874737 0.003250709 0.190361125
v -0.127154868 -0.027416434 0.080339345
v 0.016287499 0.002500000 0.147921881
v 0.026966082 -0.002172885 0.180999994
v 0.003748655 -0.003000000 0.067166150
v 0.014281130 0.016956310 0.153294439
v 0.008011105 0.014264810 0.182458044
v 0.016316080 0.007500000 0.145607143
v 0.018524923 -0.001125000 0.021776213
v -0.014011270 -0.003888284 0.189144992
v -0.054900437 -0.004891302 0.018323116
v -0.110364754 -0.011236375 0.080523522
v -0.132194007 -0.014828257 0.088977388
v -0.054645200 0.008759091 0.017523130
v -0.044449206 0.013525742 0.077003410
v -0.006350719 0.003416258 0.179393191
v -0.005084903 0.000767949 0.196892793
v -0.058509175 0.003827640 0.029276711
v 0.006375286 0.004717759 0.189050726
v 0.036621751 0.003879403 0.113419395
v -0.034497940 -0.000644191 0.009341895
v 0.035214418 -0.000707176 0.177399913
v -0.028250000 0.007500000 0.101000004
v -0.077621122 -0.000216214 0.051650626
v -0.116637834 -0.012974370 0.086898481
v -0.021280357 0.007085051 0.022004958
v -0.125876863 -0.023970193 0.082826829
v -0.028810990 0.022000000 0.039374999
v 0.001500000 0.006102681 0.189326488
v -0.113758848 -0.023525185 0.073907520
v 0.037410514 0.007895268 0.179142993
v -0.008997572 0.002341035 0.199834292
v -0.032512492 0.005460035 0.148979277
v 0.032058852 0.003237359 0.170869662
v 0.030991815 -0.005500000 0.174664412
v 0.018999999 -0.002539063 0.197309899
v 0.025235602 0.005640425 0.119611095
v -0.120928384 -0.024851862 0.077073087
v 0.035854086 0.006363288 0.139680752
v -0.125223009 -0.017875837 0.080203615
v -0.032056219 0.002500000 0.098253539
v 0.004814565 0.001336293 0.193243442
v -0.135287731 -0.015563600 0.075844751
v 0.015363953 0.000640419 0.052346898
v -0.003409181 0.001932608 0.193088236
v -0.035954279 0.001875000 0.096007347
v -0.023658594 -0.003000000 0.023598804
v -0.013015947 0.006296904 0.197389642
v -0.018857474 0.013342160 0.204643133
v 0.026443401 0.009418060 0.169700844
v 0.027996557 0.004927811 0.177429294
v -0.036609044 -0.005500000 0.184244313
v 0.037178019 -0.000628831 0.180426286
v -0.022968751 0.003110147 0.192633996
v -0.118498047 -0.022640520 0.079089341
v -0.058080772 -0.003159212 0.026317856
v -0.013321817 -0.002939840 0.196854220
v -0.008715927 -0.005354982 0.204626446
v 0.024048277 -0.003000000 0.049241198
v 0.002250000 0.002591675 0.197312502
v 0.016013704 -0.005306403 0.199643490
v -0.123263058 -0.020243697 0.089957949
v -0.005768807 0.001674026 0.191432267
v -0.018375001 0.013338874 0.145036117
v 0.037218750 0.006250000 0.133000001
v -0.005069911 0.006493750 0.149440885
v 0.007565796 0.016095134 0.012188962
v -0.120538046 -0.020483586 0.079302389
v 0.020500001 0.004815396 0.186851503
v -0.003204646 0.001559181 0.199960866
v -0.035396366 0.008640968 0.094999999
v 0.002500000 0.009562500 0.149262591
v -0.028367819 -0.003203180 0.192430042
v 0.013371766 0.007615018 0.189062584
v 0.031000000 0.007500000 0.158999994
v -0.031219660 -0.003000000 0.040915541
v -0.014542509 -0.003676301 0.193249511
v -0.004841966 0.001646931 0.204627014
v 0.026343928 0.004379287 0.134536253
v -0.034109808 0.006882503 0.184719173
v 0.029183594 0.007500000 0.137441406
v 0.011319874 -0.003578856 0.200000003
v -0.121065932 -0.017109994 0.084218046
v 0.006728968 0.010455755 0.201678827
v 0.011590960 0.002000000 -0.017707836
v -0.122813156 -0.021771808 0.083304291
v -0.005389569 0.003340097 0.197554318
v -0.128546878 -0.025975708 0.082081433
v -0.010860958 0.002290700 0.192121646
v -0.005601056 0.003575887 0.192260235
v -0.002000000 -0.001613183 0.199050389
v -0.114665519 -0.018976345 0.076827974
v -0.121414950 -0.021979892 0.076584728
v 0.037109376 0.002500000 0.178968745
v -0.014718585 -0.003323256 0.198489193
v -0.117628757 -0.021623717 0.079726666
v -0.006337768 0.004364585 0.203562782
v -0.002000000 0.000821673 0.196169152
v 0.015855333 0.009329681 0.181554753
v 0.016846961 0.018884722 0.191556085
v -0.003941523 -0.000163732 0.193322683
v -0.012781321 0.001174961 0.202817616
v 0.035300915 -0.003494104 0.167999998
v 0.035933594 0.011740749 0.102182556
v 0.029549185 0.002624141 0.181937496
v -0.127608898 -0.028466861 0.084204636
v -0.123797999 -0.028218028 0.085137686
v -0.024000000 0.001122101 0.188347710
v -0.007795931 0.001147166 0.201101290
v -0.012917326 -0.000945978 0.200923374
v -0.006897179 -0.002033841 0.206000000
v -0.060494435 0.008510633 0.018622752
v -0.029087390 0.005390914 0.061956015
v 0.027326795 0.002500000 0.165432333
v -0.002000000 0.000250248 0.191565020
v 0.017519283 0.016281472 0.104755385
v 0.034000000 0.007500000 0.158999994
v -0.114267098 -0.017941519 0.085512172
v -0.121751094 -0.014641299 0.091346347
v -0.115552691 -0.022889118 0.075157856
v -0.118747376 -0.017953597 0.082236660
v -0.022500001 0.005555962 0.184235611
v -0.025591267 -0.000827092 0.188717003
v -0.038364554 0.017302455 0.197385442
v -0.055683108 0.015999571 0.018101820
v 0.027266445 0.004363425 0.168382430
v -0.005980212 0.003128418 0.105546685
v 0.038250001 0.002500000 0.169218748
v 0.039000001 0.004826388 0.149729163
v -0.015246986 -0.005500000 0.196014578
v 0.008476563 0.002500000 0.200000003
v -0.119843939 -0.021366816 0.080331031
v -0.007420087 0.004335906 0.194691146
v 0.034984276 -0.002652300 0.177416935
v -0.024068373 0.016520759 0.111040774
v 0.015036701 0.003049944 0.174679700
v -0.125575743 -0.016647908 0.093690290
v -0.008297489 0.003971483 0.208000004
v 0.037500001 -0.001684683 0.178391002
v -0.036399513 0.005186504 0.187208165
v -0.035971852 0.004216797 0.101390402
v -0.118216159 -0.021285282 0.082799784
v -0.014816770 0.006999369 0.190636039
v -0.029368894 0.010743954 0.106219210
v -0.112512061 -0.016793423 0.076628253
v -0.003428972 0.007632849 0.035029912
v 0.008050193 0.001353203 0.191628856
v -0.061188334 -0.000838510 0.030978462
v 0.036510417 0.004140625 0.099479169
v 0.028091501 0.012917329 0.017239390
v -0.006670963 0.002500000 0.151657579
v 0.022468749 0.000000000 0.011278636
v -0.004370866 0.000909850 0.188999996
v -0.118601027 -0.021250657 0.075171239
v 0.004906250 0.007500000 0.146164067
v -0.008953251 0.000695104 0.188999996
v -0.123731069 -0.017110743 0.089224428
v -0.019447104 0.000000000 0.018987654
v -0.115388700 -0.018822786 0.082438569
v -0.006899711 -0.001714452 0.191538589
v -0.013405015 0.002891266 0.198902441
v -0.014979776 0.009321964 0.195087811
v -0.034812501 0.007500000 0.147000000
v -0.012510937 -0.000977510 0.206000000
v -0.005193547 -0.003000000 0.023101419
v -0.015632558 0.001435821 0.198126118
v 0.030531911 0.013816920 0.092889569
v -0.001972068 0.001235186 0.041253259
v -0.016146866 0.002801107 0.191639897
v 0.036997940 0.002949219 0.161966527
v -0.007937893 0.017112613 0.152999996
v -0.126517164 -0.029214496 0.085977120
v -0.127106070 -0.024260167 0.076550985
v 0.017602383 0.002288874 0.191074402
v -0.007632644 0.000983831 0.198855823
v -0.118723440 -0.025886686 0.077378919
v -0.111692442 -0.012810287 0.083912074
v -0.004444278 0.002859201 0.202981697
v -0.015899497 0.003061834 0.194569361
v -0.038449835 0.005302413 0.185342019
v -0.028756022 0.007500000 0.143778953
v 0.014520440 0.004257813 0.179169808
v -0.120122484 -0.018348051 0.089588863
v -0.062297471 0.005776353 0.040316042
v -0.041499998 0.007238365 0.192213664
v 0.006028737 0.000299094 0.190306327
v 0.032932387 -0.000600552 0.180999994
v 0.005287044 0.001470510 0.187584373
v -0.004614051 -0.000653018 0.199463243
v 0.016118313 0.005241742 0.148672145
v 0.015360928 0.019500000 0.140099629
v -0.026835331 0.005112322 0.193150724
v -0.118944821 -0.028515946 0.086440967
v -0.110607040 -0.015516248 0.080594258
v 0.016057051 0.004969765 0.146757650
v -0.028621477 0.000314237 0.044923032
v -0.034755437 0.003772519 0.191991753
v -0.111823467 -0.019622736 0.081933694
v -0.109481728 -0.015611156 0.087029509
v 0.030763037 0.002874512 0.176112595
v -0.022363315 0.007766811 0.032647616
v 0.025098717 -0.005500000 0.177601361
v 0.036241467 0.007970995 0.167806022
v -0.118519311 -0.020093371 0.078830118
v 0.031025248 -0.000855717 0.167999998
v -0.112081011 -0.019908865 0.084798846
v 0.002724110 -0.003000000 0.034878504
v -0.029751602 -0.005156594 0.195223999
v -0.032906296 0.004219834 0.182737916
v 0.029847316 0.000581903 0.180999994
v -0.019565146 0.002602793 0.038692542
v -0.007722928 -0.002606895 0.198523972
v -0.010596506 -0.001500263 0.188999996
v 0.039000001 0.004140000 0.168997247
v 0.029026757 0.011725871 0.165000007
v -0.056899461 0.005817474 0.034050346
v 0.032565618 -0.003514075 0.176471484
v -0.117075113 -0.023722627 0.090227628
v 0.028402668 0.002112684 0.169142572
v -0.039224840 0.000352767 0.195074209
v -0.033306558 -0.005500000 0.185913157
v -0.037011618 0.003545901 0.197999999
v -0.023116499 -0.003000000 0.046184019
v 0.018031249 0.000000000 0.014792630
v -0.018660516 -0.005500000 0.196038975
v -0.039999999 -0.002933339 0.193490816
v 0.007453843 0.006138058 0.021797937
v 0.002812500 0.002500000 0.192562502
v 0.032185994 -0.002110529 0.178454957
v 0.045000002 0.012633585 0.023780418
v -0.058859244 0.010654944 0.015336474
v -0.020117883 0.004541570 0.064630194
v -0.083943042 -0.009300258 0.049421723
v -0.009309474 0.001887286 0.194938207
v -0.111388035 -0.026540996 0.075067784
v -0.019845568 0.005373092 0.048246851
v 0.006615319 0.002794626 0.195133344
v -0.002000000 -0.002569379 0.202357255
v 0.037000001 0.019500000 0.144999998
v 0.008172573 -0.001411776 0.190141643
v -0.121025576 -0.021997135 0.081933910
v -0.036679011 0.004172436 0.036225967
v -0.014939561 -0.003000000 0.028814425
v 0.032776851 -0.004123685 0.171165445
v 0.002148789 0.000288960 0.036214259
v -0.034813327 0.000996209 0.184707126
v 0.027432338 0.003776182 0.173096219
v 0.019500000 0.003058984 0.149272540
v 0.007431771 0.000567210 0.200000003
v 0.016157158 0.004250171 0.193460057
v -0.022500001 0.006496126 0.190174361
v 0.011234375 0.007500000 0.146530278
v -0.036320363 -0.002812500 0.055876060
v -0.005101680 -0.003000000 0.047783686
v -0.001250000 0.002500000 0.202878906
v -0.115131461 -0.015028339 0.088715397
v -0.010747929 -0.002387406 0.194202947
v -0.032086040 0.018265200 0.161991706
v 0.003000000 -0.001369974 0.186639086
v 0.037096003 0.003658912 0.182671961
v -0.039500002 0.003750000 0.144229168
v -0.008476726 -0.005500000 0.201106705
v -0.011213570 0.001223329 0.206000000
v -0.115179703 -0.022481300 0.081258543
v 0.017176450 0.000460317 0.194464805
v -0.025978448 0.001197266 0.090084813
v -0.118298113 -0.018874763 0.087255305
v 0.020000001 0.003816156 0.182330257
v 0.001529296 0.000000000 0.018695185
v -0.023250000 0.002500000 0.189437495
v -0.028713500 0.000156618 0.062525867
v -0.115610352 -0.014741532 0.079587555
v 0.010281397 0.002304688 0.096560440
v 0.027398421 0.003632813 0.097740009
v 0.013874199 0.005904184 0.010404939
v -0.127299435 -0.021988247 0.089007277
v -0.028132038 0.007186537 0.197999999
v -0.118547550 -0.022640657 0.093529379
v 0.003629167 0.000145833 0.184000000
v 0.026944870 0.001530273 0.178789714
v -0.018999999 0.002500000 0.191124997
v -0.020208817 0.009243453 0.094999999
v -0.007290013 -0.001961094 0.195331134
v -0.025375459 0.000427258 0.195999995
v 0.034438313 0.001847919 0.175407387
v 0.003000000 0.000812865 0.189112632
v -0.118584392 -0.019390734 0.090589484
v -0.113627254 -0.027575409 0.080789392
v -0.117226287 -0.025166852 0.080153478
v -0.005632207 -0.004687236 0.189161402
v -0.123575766 -0.017744191 0.093906804
v 0.037500001 -0.003334639 0.180053432
v -0.027200890 -0.003000000 0.033185068
v -0.003813674 0.005296199 0.192599603
v -0.125286591 -0.026985045 0.085267976
v -0.124172401 -0.030035239 0.088976853
v -0.034722579 0.002643441 0.186169762
v 0.016165687 0.004402397 0.186772333
v 0.018999999 0.000864483 0.191061381
v -0.005355262 0.002821065 0.049305973
v -0.018036337 0.006406250 0.098631785
v -0.040374999 0.002500000 0.192484370
v -0.004988049 -0.005500000 0.196569659
v -0.010333936 -0.003475428 0.206000000
v -0.114064915 -0.025839361 0.075358639
v 0.025750000 0.006381498 0.163708339
v -0.027734375 0.002500000 0.195999995
v 0.003000000 -0.002226198 0.189731510
v -0.112600486 -0.014334382 0.086820063
v -0.018999999 -0.002837203 0.196633440
v -0.037952917 0.010401734 0.147000000
v 0.036412872 -0.005500000 0.179577105
v -0.022940700 0.001038445 0.053263621
v 0.024124999 0.002500000 0.172062497
v -0.030941867 0.000674646 0.187352522
v 0.038276633 0.009677423 0.157305401
v 0.035062501 0.002500000 0.167999998
v 0.009289278 0.003866487 0.202000007
v 0.017139914 0.001895232 0.195871956
v 0.035866603 -0.002267299 0.180999994
v -0.119158027 -0.016950548 0.086989401
v -0.010968926 -0.001253537 0.203360253
v -0.121719077 -0.024901565 0.087655303
v -0.030780238 0.002497523 0.187977494
v 0.005500000 -0.000000000 0.184000000
v -0.036907169 0.012074190 0.140547142
v -0.120853297 -0.024464631 0.094147718
v -0.005264215 0.002939592 0.204203393
v 0.012733123 -0.005500000 0.194470303
v -0.110960222 -0.019673910 0.078440210
v 0.029889032 0.000000000 0.017670357
v -0.024000000 -0.002509156 0.188279611
v -0.005332246 -0.005500000 0.199788217
v 0.003000000 -0.004083262 0.187416194
v -0.121979987 -0.030123402 0.088281597
v 0.033824373 0.004850504 0.164835983
v 0.007154655 0.003019348 0.197861935
v -0.120112600 -0.022683841 0.084359410
v -0.014652128 -0.000140538 0.188999996
v -0.013130209 0.003501554 0.193676504
v 0.018662216 0.002000000 -0.011853272
v -0.003283144 0.001711752 0.204684161
v 0.035630597 0.004120725 0.173387774
v -0.119723246 -0.016652218 0.092589552
v 0.007009229 -0.005500000 0.196858221
v -0.027914900 -0.000066301 0.191927533
v -0.119787308 -0.019094966 0.078724924
v 0.030035420 -0.001060318 0.176788240
v 0.007000000 0.002500000 0.184000000
v 0.037500001 -0.001266233 0.173981792
v -0.000810343 0.004661159 0.188490486
v 0.017696853 0.000922469 0.184169166
v 0.005596944 -0.002515887 0.193283277
v 0.003000000 0.000750000 0.186305556
v -0.116643839 -0.024153399 0.083178365
v 0.024499999 0.000734473 0.169936743
v 0.033053863 0.007767081 0.162807295
v -0.017406729 -0.001976632 0.205936395
v -0.024851562 0.004775000 0.098689456
v 0.011716735 -0.003124838 0.188321272
v 0.031870726 0.001948317 0.171468943
v -0.012193669 -0.000006249 0.048659271
v -0.018557583 0.005068555 0.151239746
v 0.010072646 0.000010175 0.189945411
v -0.002967790 -0.005161423 0.205759965
v -0.114490253 -0.018244766 0.088994191
v -0.002477106 -0.001215222 0.189622678
v -0.108841100 -0.018038017 0.086946975
v 0.015311889 -0.002579179 0.191503821
v -0.010755386 -0.004670565 0.188999996
v 0.033906044 -0.001874453 0.172132208
v -0.015125213 0.009784339 0.151999995
v 0.012283472 0.002996403 0.196146065
v 0.031091661 -0.002910270 0.180999994
v -0.121292206 -0.030745264 0.084926767
v 0.035781250 0.004096210 0.136476008
v 0.029410359 0.000819250 0.167999998
v -0.124992285 -0.026273345 0.080483104
v 0.033274665 -0.000594512 0.175467979
v -0.122839695 -0.020682259 0.094463945
v 0.014742940 0.002647663 0.192264095
v -0.007324827 0.001183498 0.070482208
v -0.117636487 -0.029150499 0.083930056
v 0.018999999 0.000059896 0.196108075
v -0.020500001 0.005791334 0.200413709
v -0.007969206 0.013643175 0.144343748
v -0.122730175 -0.023761685 0.080165983
v 0.037500001 0.000978501 0.179053575
v -0.015336371 -0.001769879 0.200958143
v -0.127092836 -0.026079684 0.087145306
v -0.021990889 0.021000000 0.002242483
v 0.036762071 0.004669579 0.167146535
v -0.122091486 -0.020340702 0.087240792
v -0.024000000 -0.002245261 0.183567692
v -0.055544406 0.001113433 0.013520526
v 0.032821700 -0.003005326 0.167999998
v -0.112242821 -0.019230410 0.077096543
v -0.024000000 0.002500000 0.185453119
v -0.030316840 0.000042549 0.195999995
v -0.116539033 -0.023036456 0.078212527
v 0.003000000 0.001019360 0.193468777
v -0.039973713 0.003203593 0.018722597
v -0.006726398 -0.001567639 0.188999996
v -0.015658852 -0.001854013 0.191114176
v -0.028112099 -0.002333722 0.184220633
v 0.012873414 -0.003851872 0.184000000
v 0.019836433 0.007177673 0.200434258
v -0.030911630 0.002741453 0.185103079
v 0.034115788 -0.002777672 0.175289630
v -0.039298867 -0.005500000 0.195316704
v -0.055881762 0.022007517 0.037438781
v -0.011654630 -0.003846007 0.192119555
v 0.031378317 0.009041097 0.167855345
v -0.006292897 -0.004932438 0.204588992
v 0.008148646 -0.003626324 0.198004419
v 0.005376896 0.000498205 0.196416748
v 0.030027814 0.002500000 0.167495172
v 0.010704476 0.000718287 0.197403596
v 0.014232240 -0.000655952 0.200000003
v -0.002000000 0.002500000 0.199890624
v -0.119022798 -0.018722117 0.084487380
v -0.030650807 0.002500000 0.179559807
v 0.017613408 -0.000977790 0.199640628
v -0.024000000 -0.003650369 0.194220805
v -0.041499998 0.003977526 0.194307405
v 0.024937499 0.002500000 0.167648437
v -0.058602264 0.005285227 0.027225842
v -0.037227201 -0.002446121 0.180999994
v -0.024000000 -0.003732766 0.190343940
v 0.009949979 -0.001246820 0.200000003
v 0.008020578 0.007187500 0.178420783
v -0.015756823 0.000694403 0.206000000
v 0.030871822 -0.005500000 0.170425126
v -0.095771402 -0.012570056 0.055251912
v -0.002000000 -0.002456846 0.194370348
v 0.037500001 -0.003783672 0.171478231
v -0.129499731 -0.026841686 0.085569839
v 0.035634252 -0.005500000 0.175891474
v -0.025357092 0.000576782 0.187814579
v -0.029960952 0.002353248 0.034152854
v 0.009701950 0.003578811 0.193762845
v -0.034938829 -0.005500000 0.193266143
v -0.018999999 -0.002127638 0.200269867
v 0.008178989 -0.005500000 0.199329794
v -0.008658972 0.002500000 0.155948887
v -0.024920255 -0.005262685 0.185741204
v -0.011056898 -0.005500000 0.203290868
v 0.013212501 0.002500000 0.147921881
v 0.034832703 -0.004096811 0.180999994
v 0.013379399 -0.003857803 0.200000003
v -0.024000000 0.000254488 0.192351978
v -0.115273178 -0.021674970 0.084657959
v -0.016396958 -0.004308999 0.189584483
v -0.124093563 -0.029101854 0.083480781
v 0.003000000 0.002500000 0.187500001
v 0.025950059 -0.000005462 0.180999994
v -0.119840503 -0.020531159 0.077141774
v -0.017643686 -0.005057601 0.205535608
v 0.028449534 -0.005500000 0.173606524
v -0.122499067 -0.022505131 0.090092141
v -0.029208794 -0.003000000 0.067255725
v 0.031015268 -0.001651424 0.174183060
v 0.033450855 0.002500000 0.165070321
v -0.117938918 -0.021341343 0.087111410
v -0.038071491 0.002090906 0.186463731
v 0.011068298 -0.001546196 0.196212222
v -0.006250000 0.002500000 0.188592433
v 0.032973078 -0.001797611 0.169657919
v -0.028758904 0.007179078 0.183864301
v -0.009222753 -0.000724233 0.201185665
v -0.112068762 -0.023097664 0.075691896
v -0.003543940 -0.003283877 0.188999996
v 0.034303253 -0.000134516 0.170127029
v 0.037500001 0.000995523 0.172915325
v -0.010384413 -0.005500000 0.197637146
v -0.109364542 -0.018349774 0.070028155
v -0.002926477 -0.005500000 0.202860378
v -0.018705034 0.000125000 0.206000000
v 0.003430804 -0.002496689 0.184283305
v -0.004063932 -0.005500000 0.191029422
v 0.018999999 -0.003552580 0.194403899
v 0.026176671 0.000000000 0.006187440
v -0.024869920 0.003560150 0.197826514
v -0.012834710 0.002500000 0.148259721
v -0.019237760 0.003955820 0.156155252
v -0.055750924 0.010300546 0.036673999
v -0.009202857 -0.003200603 0.191664131
v -0.024761960 -0.003319149 0.195746672
v -0.033273850 -0.001616215 0.185085736
v 0.003599508 -0.004891162 0.197644229
v -0.012262721 0.001029199 0.192798246
v -0.033269272 0.000487849 0.180999994
v 0.011130837 -0.001755210 0.184000000
v -0.110234147 -0.022417444 0.083080133
v -0.013345516 -0.005500000 0.202522143
v 0.003062117 -0.001796870 0.197812933
v -0.009030105 0.003527209 0.194515446
v 0.009019846 0.002843276 0.198008541
v -0.024000000 -0.000385985 0.186081419
v 0.015156251 0.002500000 0.200000003
v -0.010746906 -0.002826919 0.200006546
v -0.127976610 -0.021986497 0.079631024
v -0.015908537 0.001957550 0.200633727
v -0.036624999 -0.005203125 0.180999994
v 0.003826304 0.014070852 0.106743781
v -0.018999999 -0.003140425 0.203871600
v -0.029318357 0.001821667 0.184880835
v 0.018099942 0.003991241 0.143994287
v 0.018500000 0.007500000 0.146750005
v -0.028927245 -0.002214800 0.189256048
v 0.004636343 0.003993750 0.147572268
v -0.109878545 -0.020925750 0.084550797
v -0.008395708 0.000539991 0.203998837
v -0.018432112 0.002798380 0.104485796
v -0.122481285 -0.023661211 0.093649291
v 0.030109378 -0.003596922 0.175192030
v -0.009511258 0.002500000 0.098004518
v 0.018999999 0.002500000 0.193562502
v -0.123463521 -0.024728757 0.087017156
v 0.010709724 0.002500000 0.183525970
v -0.025547873 -0.001736736 0.187213347
v -0.120436391 -0.028630275 0.084711205
v 0.005788612 -0.003000000 0.046853199
v 0.002732814 0.000619064 0.026957736
v 0.004836895 -0.002016114 0.200000003
v -0.025297461 -0.005500000 0.188232623
v -0.018999999 -0.002039750 0.189274312
v 0.017520071 0.001721205 0.193293999
v 0.004000000 0.002500000 0.184500000
v -0.120135136 -0.024509319 0.079911646
v 0.019750000 0.002500000 0.188625001
v -0.037276534 -0.004296506 0.186333510
v 0.005373214 -0.002250000 0.184000000
v -0.018007841 -0.003000000 0.056611458
v 0.029846296 0.005885853 0.172412049
v 0.015669358 0.001326821 0.200000003
v -0.024000000 -0.002876578 0.192512224
v -0.011379687 -0.003000000 0.036875507
v -0.034432396 -0.005500000 0.181956012
v -0.025680935 -0.003042248 0.190287673
v -0.036556209 -0.005500000 0.187568363
v -0.018999999 0.000339498 0.204712506
v 0.024499999 -0.002901295 0.175266894
v -0.038710545 0.002968750 0.179045998
v 0.003678589 0.000806885 0.199411627
v 0.013976400 0.005658218 0.197212970
v -0.019750000 0.002845168 0.205486751
v 0.011547295 0.001354029 0.194324794
v -0.025739176 -0.005500000 0.193636319
v 0.006008513 -0.001615200 0.196554435
v -0.110628514 -0.024110101 0.076986277
v 0.027596987 0.009858139 0.158999994
v -0.038018470 0.001616536 0.189318393
v 0.011963092 -0.005500000 0.190662847
v -0.037212717 -0.005206162 0.195407607
v -0.002147540 -0.005128737 0.197118876
v 0.003439969 0.004067301 0.141259154
v -0.009662987 -0.005500000 0.191436553
v -0.034169929 -0.005500000 0.189558380
v -0.051085016 0.022055738 0.021576280
v -0.031723904 -0.003839760 0.195999995
v -0.027573538 0.002821858 0.184557603
v 0.006597067 0.006875000 0.098112523
v -0.011866827 0.000109500 0.197639093
v 0.014647663 0.000534265 0.191177711
v 0.006668805 0.001193925 0.186290368
v -0.035760557 -0.002692413 0.195999995
v 0.016632558 -0.005500000 0.193697403
v -0.117627403 -0.023818838 0.074145905
v -0.016836989 0.001392509 0.202065887
v 0.034786726 -0.005500000 0.173514193
v -0.117150246 -0.019136106 0.094168112
v -0.123151987 -0.027616847 0.091201053
v -0.032656959 -0.000583073 0.195999995
v -0.122380836 -0.027337827 0.080652981
v 0.003740893 -0.003759107 0.200000003
v -0.037360718 0.022013004 0.023876814
v -0.018999999 0.002500000 0.200156249
v -0.016274430 -0.005500000 0.201615456
v 0.028357174 0.002362013 0.170903657
v -0.036673248 -0.003192644 0.190214316
v -0.013804998 -0.001865447 0.203432924
v -0.111302074 -0.021645965 0.081236487
v 0.017819179 0.001525053 0.197043648
v 0.018999999 -0.000153937 0.187077678
v -0.036886235 0.000657132 0.183941534
v -0.035535442 0.002500000 0.180202612
v -0.024250000 0.002500000 0.180777340
v -0.039999999 -0.001232412 0.187991145
v -0.007222454 -0.005500000 0.191933740
v -0.121861127 -0.022276685 0.079229405
v -0.108447648 -0.020645791 0.081029445
v 0.027547463 0.000360792 0.174293908
v 0.028607525 -0.005500000 0.169073119
v -0.115618473 -0.028165344 0.082598091
v 0.024341527 0.003493806 0.157364216
v -0.039999999 -0.003418122 0.184320533
v 0.011921157 0.002690847 0.189594005
v 0.029657923 -0.004234702 0.180999994
v 0.025328562 -0.000151784 0.167999998
v 0.023589627 0.003899573 0.146017365
v -0.005676903 0.002789911 0.194604112
v -0.109044928 -0.018968362 0.081016880
v -0.112416145 -0.025012508 0.082540982
v 0.031936020 0.011227306 0.149538191
v -0.013429920 -0.005500000 0.191141306
v 0.037500001 0.000803414 0.176758397
v 0.015982526 -0.000856087 0.195460743
v -0.018999999 0.000490481 0.200001855
v 0.018999999 -0.002693537 0.199356182
v -0.030380272 -0.001169225 0.180999994
v -0.024612611 -0.005363111 0.191499115
v -0.031152111 0.004345582 0.185215544
v -0.120806620 -0.029071586 0.082059048
v 0.020276307 0.000806901 0.090251452
v 0.009341137 -0.005500000 0.192033542
v -0.018999999 -0.000411561 0.194122685
v -0.037827903 -0.002490119 0.187011641
v 0.037500001 0.000207086 0.168526143
v -0.118514333 -0.020596638 0.095537867
v 0.027670137 -0.005500000 0.177279683
v 0.035528016 -0.000663114 0.172801755
v 0.018999999 -0.003130324 0.187914643
v -0.038675839 0.003799441 0.187517912
v 0.005222060 -0.005500000 0.189077369
v 0.001500000 0.017063226 0.182211003
v 0.007092831 -0.005500000 0.187317709
v -0.119909086 -0.025430008 0.091679103
v -0.012190548 -0.005500000 0.194276017
v -0.122191453 -0.026190292 0.092940439
v 0.031995069 -0.005038643 0.168453116
v -0.112608264 -0.020871977 0.088146223
v 0.007060534 0.000963350 0.184000000
v -0.004127054 0.005887816 0.139435877
v 0.013538070 0.004619018 0.146309161
v -0.125033922 -0.022113790 0.091252226
v 0.032620678 -0.005500000 0.177706218
v 0.011496419 0.000614083 0.184000000
v -0.012093750 -0.005500000 0.206000000
v -0.113210742 -0.019171166 0.090621953
v 0.005362535 0.002189568 0.189080711
v 0.014439492 0.001490657 0.196825214
v 0.024499999 -0.000516551 0.174342934
v 0.027602907 -0.001761237 0.173476571
v -0.119843048 -0.022940645 0.088596580
v -0.121154267 -0.027071967 0.087671624
v -0.031615677 -0.005500000 0.183258467
v 0.009480286 -0.004719327 0.184360145
v -0.026762597 -0.004124655 0.188249489
v 0.013540645 -0.002905699 0.194574780
v -0.114984782 -0.025249957 0.085551558
v 0.006140018 -0.005225000 0.184607037
v 0.032834286 -0.001982985 0.180999994
v 0.024499999 0.000850011 0.178442547
v -0.031860916 0.001770552 0.192007409
v 0.031177413 0.000173285 0.173605007
v -0.027095910 -0.003066554 0.186232758
v -0.034270441 -0.000600233 0.035945014
v 0.015711247 -0.003041314 0.188395729
v -0.014578776 0.004220476 0.202918512
v -0.004447025 0.002578160 0.199318948
v -0.036893125 0.002551577 0.183428797
v 0.014810119 -0.001339258 0.184000000
v -0.039999999 0.000842975 0.186602965
v -0.034546979 0.003401434 0.187449596
v -0.110006894 -0.022178774 0.078532177
v 0.018999999 0.002500000 0.186000000
v 0.003000000 -0.005226019 0.189388742
v 0.018999999 -0.002649368 0.190024502
v 0.009348899 0.002398438 0.187988049
v 0.016124999 0.002500000 0.183602673
v 0.024499999 -0.002434835 0.178620281
v 0.007971584 -0.001099702 0.194062494
v 0.027503348 -0.001590067 0.167999998
v -0.009566010 0.002847457 0.196732724
v 0.010098787 0.007291236 0.095216145
v 0.015912516 -0.003555785 0.200000003
v -0.017988399 -0.005144590 0.198867435
v -0.035855997 0.001400703 0.192133607
v -0.002000000 0.000500065 0.203359464
v 0.024499999 -0.003866834 0.171398195
v -0.002815549 -0.001840020 0.205431008
v -0.010500001 0.002500000 0.206000000
v 0.018999999 -0.001462696 0.193055248
v 0.011351539 -0.003762614 0.196487890
v -0.115408671 -0.026847830 0.077128955
v 0.009242240 -0.005500000 0.189263428
v -0.028413074 -0.005500000 0.184121794
v -0.040749999 0.002876059 0.186716201
v 0.010265776 -0.005500000 0.186663566
v 0.029406161 -0.003321336 0.167999998
v -0.111085979 -0.016867764 0.088960043
v -0.038311362 -0.005425926 0.191932593
v -0.007869606 0.008249505 0.096250000
v 0.037500001 0.000660919 0.170451255
v -0.030858910 -0.005001396 0.180999994
v -0.014628239 0.002500000 0.188767872
v 0.007473238 -0.002560461 0.200000003
v -0.028638203 -0.005500000 0.191322427
v -0.028996663 -0.005500000 0.187022127
v -0.031321878 -0.001133383 0.191711189
v -0.039999999 -0.003177697 0.190509584
v -0.038778186 0.000593155 0.185689724
v 0.023000000 0.004595256 0.166937661
v 0.004874645 0.003884436 0.199131732
v -0.122231140 -0.025115323 0.080265234
v 0.003183767 -0.005077203 0.192980999
v -0.005215893 -0.000132510 0.202769127
v 0.003000000 -0.003650610 0.195419768
v 0.032876475 -0.003470817 0.173437779
v 0.017695406 -0.005500000 0.196311248
v 0.009603362 -0.005500000 0.194766001
v -0.114240912 -0.023427938 0.086948094
v 0.011024882 -0.005500000 0.197834088
v 0.003640435 -0.004852592 0.185436929
v -0.039999999 -0.003591572 0.187695757
v 0.014842278 -0.005500000 0.190041599
v 0.029616849 0.002500000 0.159046192
v -0.013727015 0.002117350 0.058264601
v -0.008529078 -0.004344719 0.189132204
v -0.039084683 -0.005500000 0.188668110
v 0.018671771 -0.005077018 0.198471715
v -0.109418168 -0.024079185 0.079876183
v 0.027966797 0.007187500 0.097388673
v 0.026191381 -0.000527931 0.177729753
v -0.026472692 -0.000074255 0.185196373
v 0.037131636 -0.004957869 0.177832482
v 0.025660247 -0.003236707 0.167999998
v 0.018219075 -0.004756175 0.184850589
v -0.028965403 -0.002999389 0.195999995
v -0.025697889 -0.005322857 0.195839667
v 0.033081016 -0.005332965 0.180226072
v -0.009157049 0.000000000 0.013029532
v 0.027808865 0.000202569 0.169585755
v -0.121747720 -0.026322119 0.083178133
v 0.025510674 -0.005126764 0.180913420
v 0.012943616 -0.005500000 0.186612197
v -0.033855468 0.002500000 0.195999995
v -0.109493251 -0.013892629 0.084423203
v -0.108547573 -0.016261172 0.082738110
v -0.016763654 -0.005500000 0.193479650
v -0.040989100 0.000849937 0.081820569
v -0.038873397 -0.005105903 0.181784542
v -0.117901778 -0.026373750 0.087865326
v -0.029463325 0.007522398 0.041729625
v -0.033232215 0.007795188 0.177244975
v 0.008385610 -0.001358442 0.197411047
v -0.039999999 0.000870124 0.183100109
v -0.030263912 -0.005500000 0.189288708
v -0.115103482 -0.025065222 0.079559422
v 0.006347689 0.002500000 0.181478150
v 0.024499999 -0.001580008 0.170917357
v 0.002622055 0.004915080 0.167049141
v 0.007326298 -0.001594806 0.186874270
v -0.026810517 0.011237662 0.147780787
v 0.024281250 0.016416578 0.148173395
v 0.035778472 -0.005500000 0.169288046
v -0.036121877 -0.000606562 0.188453193
v 0.014978946 -0.004464463 0.184392238
v -0.038946170 0.000630756 0.180999994
v -0.015034076 0.000447788 0.203589973
v 0.009386919 0.000621032 0.185754269
v 0.037500001 -0.003950153 0.174973081
v -0.016827971 0.006092188 0.181392746
v 0.012109947 0.001293386 0.200000003
v 0.029859465 -0.005500000 0.178547779
v -0.008429646 0.016243454 0.104511066
v -0.014218750 0.002500000 0.206000000
v 0.006628404 0.006590198 0.034397475
v 0.025191459 -0.005192714 0.175001257
v 0.018999999 -0.004877721 0.191593241
v -0.035628360 0.000155804 0.195999995
v 0.030411345 -0.003564211 0.171694340
v 0.007766297 -0.002317181 0.184000000
v -0.039606426 -0.002221694 0.181452189
v 0.022084010 0.004614676 0.027367756
v -0.081335045 -0.006921389 0.049130919
v -0.006972061 -0.003016388 0.202940866
v 0.009178081 0.009086656 0.143000007
v -0.025735257 -0.002512838 0.183729619
v 0.013188946 -0.005500000 0.198703121
v -0.124374633 -0.031631954 0.086856980
v -0.107037558 -0.015940870 0.085454257
v -0.038127577 0.003125000 0.147467112
v 0.016608592 -0.005500000 0.187944170
v -0.116130520 -0.019081903 0.079243744
v -0.111078015 -0.026422473 0.078988346
v -0.004303922 0.001058806 0.206000000
v -0.017375000 0.007500000 0.185250004
v -0.119304138 -0.030548788 0.083511186
v 0.011374999 -0.005500000 0.184229283
v -0.057260948 0.007924373 0.032838867
v -0.036728807 -0.003000000 0.022967641
v 0.018593749 0.002500000 0.198625003
v -0.025749019 -0.000636780 0.182780323
v 0.011890626 0.002500000 0.200000003
v -0.018609317 0.000431169 0.190186124
v 0.041062500 0.000000000 0.025908203
v -0.034242290 -0.004711876 0.195847051
v -0.029016173 0.004533312 0.186997101
v -0.127848000 -0.027272225 0.082879332
v 0.006250000 0.011000000 -0.029999999
v -0.004366490 0.005435286 0.098931485
v 0.014794622 -0.005500000 0.196874223
v -0.002265625 -0.005500000 0.189531246
v -0.125523628 -0.026196263 0.088966819
v 0.010623949 -0.002107558 0.192316672
v 0.004400942 -0.005500000 0.194970523
v 0.029441672 0.002500000 0.154508565
v -0.081307405 0.000330199 0.052855454
v 0.006436539 0.001675324 0.197120292
v 0.018649651 -0.001919662 0.184426265
v -0.014494053 -0.004659042 0.205618258
v 0.032491884 0.006107703 0.175708377
v -0.115105567 -0.021413041 0.090671837
v 0.015113484 0.002500000 0.099850125
v -0.060416452 -0.004604617 0.020941150
v 0.028386144 -0.002774560 0.178736922
v 0.037246393 -0.005500000 0.172109328
v -0.114852739 -0.019430156 0.092656861
v 0.014114570 0.005416888 0.149302663
v -0.002000000 -0.004514334 0.191138236
v -0.033971304 -0.002085517 0.180999994
v -0.032181806 -0.002479472 0.187682524
v 0.018128070 -0.005469291 0.189340831
v -0.057893077 0.016234405 0.032635237
v -0.024677079 -0.002006938 0.180999994
v -0.115229885 -0.024235145 0.073934698
v -0.112171498 -0.027926334 0.077152628
v -0.018894734 -0.003715735 0.191083108
v -0.121348671 -0.022179335 0.095616815
v -0.119787302 -0.022430455 0.091001454
v -0.014978777 -0.001500000 0.083708611
v 0.012564829 0.000523398 0.186594780
v 0.037500001 0.002271724 0.175109371
v -0.123084475 -0.024925039 0.084678141
v -0.085209540 -0.004099490 0.049451141
v 0.010588612 -0.001689510 0.187557131
v 0.007500685 0.002500000 0.177677644
v -0.115271786 -0.016903977 0.091013592
v -0.012689114 -0.005500000 0.199232448
v -0.003321184 -0.005351207 0.193605791
v -0.001835937 0.002500000 0.189597652
v 0.003000000 -0.000952471 0.192712893
v -0.027260955 -0.003229497 0.180999994
v -0.039999999 -0.001500000 0.185241106
v -0.038068218 0.003275934 0.153768368
v -0.027294763 0.005787422 0.174935226
v -0.024000000 0.000356083 0.181778038
v -0.018843102 -0.004923080 0.202714578
v 0.016698889 0.000400764 0.187333465
v -0.040690907 -0.000214607 0.047537861
v -0.022500001 0.013496799 0.103097147
v 0.039000001 0.006222733 0.167461935
v -0.013703767 0.000598175 0.032282199
v 0.031192945 0.000999682 0.179218194
v 0.024674589 -0.004680096 0.168565311
v -0.034561624 -0.001511940 0.193175967
v -0.027545521 0.000089494 0.188349864
v 0.006257665 0.000012465 0.187114027
v -0.014555192 -0.000700297 0.194711623
v -0.055802982 0.001565062 0.029011129
v -0.120347572 -0.019004676 0.095660979
v 0.038750001 0.017336280 0.003942276
v -0.024880117 -0.005175540 0.182324197
v -0.113513828 -0.020106895 0.073374686
v -0.118393619 -0.028842483 0.080768364
v -0.018999999 -0.004049965 0.194050845
v 0.010972472 0.002500000 0.142979395
v -0.037999999 -0.003000000 0.038579067
v 0.015766779 0.002697631 0.195302715
v 0.004416953 -0.004979324 0.199849418
v -0.027421868 0.000697402 0.180999994
v 0.034864158 0.000969383 0.179005110
v 0.017614143 0.002500000 0.097510693
v 0.017874406 0.004809734 0.099614587
v 0.018840473 0.000827904 0.199125003
v 0.005017660 -0.002729552 0.189762348
v 0.037875001 0.002591614 0.171891018
v -0.004585712 0.003064140 0.190548984
v 0.001736700 0.004598100 0.200625023
v -0.032095800 -0.005500000 0.193123110
v -0.039999999 -0.000046023 0.191044460
v 0.008733688 0.005068716 0.042773969
v -0.106438174 -0.015536095 0.070279401
v -0.017716149 0.007500000 0.149560762
v -0.024000000 0.000965152 0.184029605
v -0.034401442 0.001921309 0.022145849
v -0.042879293 0.009815255 0.094999999
v -0.002160397 -0.004238382 0.199792121
v -0.036730895 0.002776797 0.193656809
v -0.125843846 -0.023545685 0.086548671
v 0.012969560 0.004478835 0.191909413
v -0.025905254 -0.001364187 0.195737559
v -0.111375448 -0.008543476 0.080691094
v 0.001284712 0.000000000 0.089148253
v 0.035181116 -0.000078458 0.167999998
v 0.030310386 -0.000718928 0.170609772
v -0.038909669 -0.005282186 0.185941579
v -0.117837729 -0.024575094 0.086072104
v 0.006074736 -0.005500000 0.191966715
v -0.107401621 -0.018407532 0.083983628
v -0.035508867 0.002385704 0.188916580
v -0.034549878 -0.003729347 0.185962313
v -0.117659835 -0.018529150 0.076640241
v -0.037254302 0.001748140 0.027230382
v -0.030528354 -0.003648099 0.184474349
v -0.052088380 -0.002923193 0.010950461
v 0.020500001 0.005643569 0.192779525
v 0.025683497 0.003554688 0.102328784
v -0.040005939 0.002145625 0.094158593
v -0.071434512 0.003188170 0.022333024
v -0.058937715 -0.000384310 0.015951678
v -0.031051397 0.011510923 0.051134365
v -0.025359376 0.016803169 0.180474537
v 0.006630253 0.003420084 0.101463084
v 0.005736155 0.015069243 0.173462543
v 0.021514056 0.022000000 0.017079204
v -0.056055222 -0.000427566 0.021695138
v -0.036337811 0.000937511 0.040623119
v 0.039306938 0.016528237 0.057304135
v 0.028294772 0.007251665 0.143689927
v 0.013593749 0.000000000 0.015978271
v -0.114487850 -0.022072131 0.072350607
v -0.082796161 -0.010021320 0.041595120
v -0.037999999 -0.003000000 0.027962457
v -0.018999999 0.002500000 0.195242185
v -0.033350398 -0.000889589 0.020343591
v 0.001581757 0.011252421 0.142719093
v -0.024945145 0.004469139 0.104895571
v -0.040813185 0.001702034 0.058196203
v -0.046275724 -0.002669343 0.026275239
v -0.088148797 -0.001730541 0.034588657
v -0.049270826 0.022026301 0.007119548
v -0.132406840 -0.006091522 0.085354672
v -0.028559177 0.000269003 0.029054794
v -0.033284008 -0.000099846 0.042199292
v -0.051438965 0.016066394 0.032265128
v 0.009070928 0.000000000 0.016011828
v 0.024268287 0.022000000 0.010593561
v -0.037999999 -0.003000000 0.033270762
v -0.053006274 0.009449096 0.025660363
v -0.053911622 0.021923193 0.014549539
v -0.048978308 0.007878049 0.040399521
v -0.035460609 -0.003000000 0.026552327
v -0.039579031 0.022019620 0.033749999
v -0.042309364 0.012651275 0.028919873
v -0.038628833 0.022009689 0.011233816
v -0.002797103 0.010843600 0.008728103
v -0.046186745 0.022042104 0.031217678
v -0.045372946 0.017105266 0.037279505
v -0.052093907 0.015589062 0.013773573
v -0.052406390 0.013670497 0.038105240
v -0.057047159 0.013043888 0.007111371
v -0.052009670 0.018919261 0.033435562
v -0.055245252 0.011772491 0.033930822
v -0.035008326 -0.000587477 0.031530138
f 160 1 299
f 1060 1 160
f 299 1 254
f 1 1151 254
f 1060 1151 1
f 1074 863 2
f 863 1106 2
f 1106 1074 2
f 4 3 105
f 3 4 106
f 3 40 9
f 9 96 3
f 3 106 40
f 96 132 3
f 1197 105 3
f 3 132 1197
f 106 4 105
f 5 7 6
f 1186 5 6
f 5 1069 7
f 1069 5 74
f 5 1186 74
f 103 6 7
f 103 80 6
f 6 80 1186
f 13 7 12
f 654 12 7
f 13 38 7
f 38 103 7
f 7 1069 654
f 124 8 346
f 679 8 124
f 8 1000 346
f 8 679 1000
f 40 121 9
f 9 1151 96
f 9 121 264
f 9 264 1151
f 10 50 34
f 1175 10 34
f 10 1169 50
f 10 1036 53
f 10 53 1169
f 10 264 1171
f 1175 264 10
f 1171 1036 10
f 1191 121 11
f 11 121 1197
f 1186 1177 11
f 1177 1191 11
f 11 1197 1186
f 258 13 12
f 82 258 12
f 82 12 1187
f 118 12 654
f 118 1187 12
f 13 62 38
f 62 13 83
f 83 13 258
f 14 98 36
f 107 14 36
f 14 239 98
f 107 99 14
f 99 150 14
f 150 1045 14
f 1045 239 14
f 65 15 110
f 15 65 208
f 15 569 110
f 15 208 504
f 424 15 504
f 15 424 569
f 78 16 119
f 222 16 78
f 16 1170 119
f 165 940 16
f 165 16 1007
f 222 1032 16
f 940 524 16
f 524 1170 16
f 16 1032 1007
f 17 65 378
f 17 384 65
f 175 17 161
f 17 1096 161
f 384 17 175
f 378 1096 17
f 18 73 501
f 1091 73 18
f 84 18 501
f 84 1091 18
f 263 308 19
f 263 19 322
f 308 619 19
f 19 619 322
f 259 123 20
f 20 123 594
f 165 259 20
f 20 940 165
f 710 20 594
f 710 940 20
f 561 21 142
f 788 142 21
f 788 21 303
f 21 1124 303
f 1124 21 561
f 237 29 22
f 22 29 381
f 22 46 185
f 381 46 22
f 1031 22 185
f 498 22 235
f 1031 235 22
f 498 237 22
f 23 549 25
f 839 23 25
f 23 357 549
f 23 839 357
f 24 549 357
f 24 357 669
f 947 549 24
f 947 24 669
f 549 795 25
f 999 25 795
f 839 25 999
f 137 26 92
f 26 600 92
f 137 1097 26
f 457 413 26
f 26 413 600
f 26 1097 457
f 27 280 149
f 347 27 149
f 27 1153 280
f 1153 27 347
f 249 28 66
f 28 379 66
f 28 249 1160
f 28 425 379
f 1160 425 28
f 63 29 55
f 237 55 29
f 60 29 292
f 381 29 60
f 63 292 29
f 272 30 250
f 30 343 250
f 327 30 272
f 343 30 327
f 342 250 31
f 250 343 31
f 343 342 31
f 151 32 43
f 32 458 43
f 145 58 32
f 600 32 58
f 151 145 32
f 458 32 600
f 74 33 1069
f 1186 33 74
f 160 33 132
f 132 33 1197
f 670 33 160
f 1199 33 670
f 1069 33 1199
f 1186 1197 33
f 50 1184 34
f 52 1113 34
f 52 34 1184
f 34 496 1095
f 34 1113 496
f 34 1095 1175
f 69 35 51
f 35 584 51
f 35 69 140
f 35 140 219
f 219 584 35
f 36 81 87
f 81 36 98
f 87 107 36
f 86 37 271
f 86 820 37
f 37 1189 271
f 1189 37 820
f 62 271 38
f 38 1193 103
f 38 271 1189
f 38 1189 1193
f 803 39 80
f 39 1186 80
f 1191 39 803
f 1186 39 1177
f 39 1191 1177
f 201 40 106
f 201 121 40
f 41 160 96
f 41 96 1151
f 1060 160 41
f 1151 1060 41
f 168 42 218
f 1080 42 168
f 218 42 677
f 476 677 42
f 476 42 1020
f 42 1168 1020
f 42 1080 1168
f 151 43 134
f 134 43 947
f 43 458 549
f 43 549 947
f 250 342 44
f 869 250 44
f 44 772 272
f 272 869 44
f 44 342 674
f 674 1082 44
f 44 994 772
f 1082 994 44
f 60 45 381
f 45 60 790
f 45 1011 381
f 790 1011 45
f 46 506 171
f 171 1031 46
f 46 1031 185
f 926 46 381
f 926 506 46
f 47 998 73
f 47 73 1090
f 208 424 47
f 504 208 47
f 998 47 424
f 504 47 1027
f 47 1090 1027
f 69 51 48
f 51 205 48
f 77 69 48
f 76 48 205
f 76 725 48
f 1182 77 48
f 395 48 725
f 395 1166 48
f 1166 1182 48
f 107 87 49
f 87 1183 49
f 107 49 205
f 1107 205 49
f 1183 1107 49
f 50 536 1184
f 536 50 1188
f 1169 1188 50
f 584 205 51
f 536 319 52
f 319 1113 52
f 52 1184 536
f 53 1036 1188
f 53 1188 1169
f 72 434 54
f 54 748 72
f 434 198 54
f 54 198 1159
f 359 748 54
f 359 54 1119
f 1119 54 1059
f 1059 54 1159
f 63 55 222
f 135 222 55
f 237 135 55
f 367 56 61
f 1158 61 56
f 520 56 367
f 56 726 494
f 494 1158 56
f 520 726 56
f 85 57 144
f 226 57 85
f 126 125 57
f 125 144 57
f 57 602 126
f 226 602 57
f 58 137 92
f 600 58 92
f 58 145 109
f 274 58 109
f 274 137 58
f 458 59 549
f 600 59 458
f 59 600 549
f 628 60 292
f 628 790 60
f 428 61 130
f 989 130 61
f 428 367 61
f 61 1158 989
f 83 271 62
f 63 222 64
f 292 63 64
f 222 78 64
f 628 64 78
f 292 64 628
f 85 208 65
f 384 85 65
f 110 378 65
f 66 67 136
f 996 67 66
f 491 66 136
f 249 66 163
f 66 491 163
f 379 996 66
f 67 691 136
f 754 691 67
f 754 67 996
f 281 68 192
f 192 68 416
f 416 68 245
f 68 621 245
f 281 621 68
f 77 976 69
f 69 976 140
f 302 70 252
f 70 408 252
f 302 766 70
f 450 408 70
f 766 450 70
f 71 410 215
f 858 71 215
f 71 858 302
f 302 1041 71
f 410 71 1164
f 1041 1164 71
f 748 198 72
f 198 1172 72
f 72 1022 434
f 1172 1022 72
f 665 162 73
f 1090 73 162
f 998 501 73
f 831 665 73
f 1091 831 73
f 172 75 267
f 1176 75 172
f 75 1053 267
f 1053 75 1176
f 205 1107 76
f 473 1041 76
f 76 1107 473
f 574 725 76
f 1041 574 76
f 77 512 976
f 1182 512 77
f 628 78 119
f 157 79 362
f 157 1178 79
f 256 380 79
f 79 1178 256
f 362 79 380
f 103 803 80
f 81 634 87
f 112 81 98
f 81 112 634
f 82 1174 258
f 1174 82 1187
f 131 271 83
f 83 1164 131
f 133 83 180
f 133 1164 83
f 156 180 83
f 83 258 156
f 84 1090 162
f 84 162 1091
f 501 1090 84
f 144 208 85
f 384 226 85
f 86 131 93
f 86 93 141
f 271 131 86
f 634 86 141
f 634 1191 86
f 1191 820 86
f 141 93 87
f 93 1183 87
f 634 141 87
f 127 88 101
f 159 101 88
f 127 120 88
f 1138 88 120
f 154 159 88
f 1128 154 88
f 1128 88 255
f 88 1138 255
f 104 120 89
f 127 104 89
f 120 127 89
f 159 154 91
f 154 168 91
f 218 159 91
f 168 218 91
f 131 1161 93
f 1161 1183 93
f 94 221 322
f 94 844 221
f 282 372 94
f 619 282 94
f 619 94 322
f 94 372 1052
f 844 94 1052
f 296 95 430
f 296 631 95
f 337 348 95
f 631 337 95
f 453 95 348
f 453 430 95
f 96 160 132
f 224 172 97
f 172 427 97
f 1199 224 97
f 427 391 97
f 391 459 97
f 97 459 729
f 97 729 1199
f 98 239 112
f 107 205 99
f 584 150 99
f 205 584 99
f 127 101 139
f 101 719 139
f 218 101 159
f 218 677 101
f 101 677 1128
f 1128 719 101
f 803 103 820
f 1193 820 103
f 104 114 120
f 114 104 286
f 127 192 104
f 416 104 192
f 286 104 416
f 105 201 106
f 105 1197 201
f 145 274 109
f 144 110 208
f 144 378 110
f 569 208 110
f 1155 111 172
f 1176 172 111
f 111 173 427
f 1155 173 111
f 111 427 1168
f 1176 111 1168
f 121 112 264
f 121 634 112
f 239 140 112
f 140 976 112
f 112 976 264
f 120 114 1138
f 114 157 1138
f 1178 157 114
f 1178 114 286
f 200 615 115
f 115 1007 200
f 213 115 728
f 115 213 1007
f 728 115 615
f 174 116 128
f 116 200 128
f 688 116 174
f 309 116 197
f 116 394 197
f 116 414 200
f 414 116 309
f 116 688 394
f 175 117 384
f 117 175 1154
f 289 284 117
f 117 284 384
f 289 117 1154
f 654 1196 118
f 118 1196 1187
f 790 628 119
f 790 119 821
f 119 1170 821
f 201 1197 121
f 121 1191 634
f 123 222 135
f 135 594 123
f 222 123 1032
f 1007 123 259
f 123 1007 1032
f 346 1140 124
f 124 593 679
f 124 938 593
f 124 862 938
f 1140 862 124
f 1096 125 126
f 125 378 144
f 125 1096 378
f 602 161 126
f 161 1096 126
f 127 139 192
f 259 174 128
f 200 259 128
f 932 130 241
f 241 130 989
f 932 428 130
f 1161 131 209
f 209 131 1164
f 180 525 133
f 133 919 410
f 410 1164 133
f 525 937 133
f 133 937 919
f 134 145 151
f 134 233 145
f 557 233 134
f 947 557 134
f 594 135 237
f 491 136 246
f 136 691 246
f 274 1122 137
f 137 457 1097
f 1122 457 137
f 138 324 221
f 138 221 999
f 324 138 282
f 282 138 482
f 138 999 482
f 192 139 1167
f 139 719 1109
f 139 1109 1167
f 140 239 177
f 328 140 177
f 328 219 140
f 492 374 142
f 561 142 374
f 142 788 492
f 334 341 143
f 481 334 143
f 143 341 663
f 923 481 143
f 143 663 498
f 498 923 143
f 202 145 233
f 202 274 145
f 263 149 308
f 149 263 347
f 322 149 280
f 149 322 308
f 328 177 150
f 177 1045 150
f 584 328 150
f 463 469 152
f 810 463 152
f 469 653 152
f 653 798 152
f 810 152 798
f 154 1080 168
f 154 677 476
f 476 1020 154
f 1128 677 154
f 154 1020 1053
f 1080 154 1053
f 166 189 155
f 877 166 155
f 1010 155 189
f 370 155 225
f 155 1010 225
f 877 155 370
f 180 156 1132
f 258 1132 156
f 157 362 268
f 157 268 1138
f 158 578 436
f 436 987 158
f 158 816 578
f 158 873 816
f 873 158 871
f 987 871 158
f 224 160 173
f 160 299 173
f 160 224 670
f 266 175 161
f 602 266 161
f 665 787 162
f 787 1091 162
f 169 249 163
f 169 163 495
f 495 163 251
f 163 752 251
f 751 163 491
f 751 752 163
f 213 259 165
f 1007 213 165
f 166 307 189
f 1129 307 166
f 727 606 166
f 166 606 1129
f 166 877 727
f 315 249 169
f 315 169 398
f 169 495 398
f 559 482 170
f 482 999 170
f 795 559 170
f 999 795 170
f 354 171 547
f 171 354 1031
f 407 171 506
f 547 171 407
f 1155 172 224
f 427 172 267
f 1155 224 173
f 299 391 173
f 427 173 391
f 213 174 259
f 174 213 728
f 728 688 174
f 602 175 266
f 175 525 314
f 314 1154 175
f 525 175 602
f 239 1045 177
f 223 179 216
f 179 680 216
f 223 416 179
f 245 179 416
f 245 1044 179
f 179 1044 680
f 525 180 314
f 314 180 1132
f 718 182 546
f 833 546 182
f 182 718 872
f 182 801 833
f 872 801 182
f 247 699 183
f 183 915 247
f 897 183 699
f 183 897 915
f 307 629 189
f 877 370 189
f 370 1010 189
f 877 189 629
f 190 272 471
f 190 1124 272
f 471 303 190
f 1124 190 303
f 281 192 812
f 812 192 1167
f 663 193 237
f 237 193 1086
f 663 341 193
f 341 1086 193
f 309 197 877
f 394 727 197
f 197 727 877
f 434 751 198
f 198 748 1159
f 751 1112 198
f 800 198 1112
f 800 1172 198
f 545 463 199
f 463 1015 199
f 199 465 668
f 981 465 199
f 545 199 668
f 981 199 1015
f 1007 259 200
f 200 414 615
f 202 233 348
f 202 503 274
f 202 348 503
f 837 702 203
f 203 702 1013
f 1100 837 203
f 924 203 1013
f 924 1100 203
f 929 206 419
f 1110 419 206
f 838 206 531
f 531 206 1072
f 206 838 1110
f 206 929 1072
f 569 424 208
f 1107 209 473
f 473 209 1164
f 1107 1161 209
f 215 392 517
f 967 392 215
f 967 215 410
f 517 858 215
f 216 256 223
f 216 519 256
f 519 216 680
f 584 219 328
f 322 221 324
f 844 999 221
f 256 286 223
f 223 286 416
f 224 1199 670
f 225 757 370
f 757 225 544
f 544 225 937
f 225 1046 937
f 1010 1046 225
f 284 226 384
f 284 602 226
f 231 760 509
f 231 509 1076
f 1046 760 231
f 1046 231 919
f 1139 919 231
f 1076 1139 231
f 349 232 697
f 349 1044 232
f 621 818 232
f 232 1044 621
f 232 818 697
f 233 897 348
f 557 886 233
f 897 233 886
f 498 235 923
f 925 923 235
f 1031 925 235
f 237 498 663
f 1086 594 237
f 241 989 787
f 787 1003 241
f 241 991 932
f 1003 991 241
f 1044 245 621
f 246 751 491
f 691 751 246
f 453 699 247
f 247 842 453
f 979 842 247
f 979 247 915
f 302 248 766
f 302 1139 248
f 248 777 766
f 1076 777 248
f 248 1139 1076
f 249 315 996
f 1160 249 996
f 250 869 272
f 1022 495 251
f 751 251 752
f 251 751 1022
f 574 302 252
f 512 252 408
f 574 252 467
f 252 1166 467
f 1182 252 512
f 1166 252 1182
f 253 582 456
f 456 613 253
f 253 696 582
f 613 849 253
f 253 849 696
f 299 254 1175
f 254 1151 1175
f 255 268 420
f 268 255 1138
f 255 437 388
f 388 1128 255
f 437 255 420
f 1178 286 256
f 380 256 519
f 1132 258 985
f 258 1174 985
f 322 280 263
f 280 1153 263
f 392 347 263
f 392 263 1153
f 264 976 401
f 1171 264 401
f 1175 1151 264
f 427 267 1168
f 1053 1020 267
f 1020 1168 267
f 499 268 362
f 268 499 420
f 1124 327 272
f 272 698 471
f 772 698 272
f 548 273 714
f 273 548 1071
f 714 273 640
f 640 273 1167
f 273 1071 1167
f 503 337 274
f 274 337 1078
f 1078 1122 274
f 702 676 278
f 814 278 676
f 278 864 702
f 278 814 880
f 1009 864 278
f 880 1009 278
f 666 279 627
f 627 279 927
f 666 853 279
f 724 927 279
f 965 724 279
f 853 965 279
f 281 812 419
f 818 281 419
f 818 621 281
f 619 324 282
f 559 372 282
f 559 282 482
f 284 289 509
f 602 284 509
f 509 289 1154
f 290 401 408
f 290 1171 401
f 290 408 486
f 486 536 290
f 536 1188 290
f 1036 1171 290
f 1188 1036 290
f 464 295 782
f 295 464 784
f 295 986 782
f 295 784 1142
f 986 295 1142
f 535 382 296
f 296 382 631
f 563 296 430
f 563 535 296
f 513 494 297
f 726 297 494
f 694 513 297
f 550 527 297
f 297 527 694
f 550 297 726
f 459 391 299
f 459 299 1105
f 1175 1105 299
f 657 301 505
f 690 505 301
f 657 547 301
f 547 690 301
f 1041 302 574
f 858 1139 302
f 644 303 471
f 644 788 303
f 304 920 693
f 1024 304 693
f 965 920 304
f 954 965 304
f 1047 954 304
f 304 1024 1047
f 309 629 307
f 309 307 1129
f 322 324 308
f 324 619 308
f 615 414 309
f 309 1129 615
f 629 309 877
f 342 312 511
f 342 1152 312
f 511 312 910
f 910 312 774
f 312 1152 774
f 314 1132 1154
f 315 398 754
f 315 754 996
f 600 360 318
f 360 795 318
f 318 795 600
f 496 319 466
f 319 536 466
f 1113 319 496
f 662 673 325
f 693 662 325
f 673 941 325
f 687 325 941
f 325 687 957
f 693 325 1024
f 1024 325 957
f 343 327 650
f 561 650 327
f 327 1124 561
f 341 334 678
f 481 1133 334
f 799 678 334
f 799 334 1133
f 348 337 503
f 631 850 337
f 850 1078 337
f 678 358 341
f 341 358 1086
f 343 1152 342
f 425 342 511
f 425 674 342
f 343 650 1152
f 346 1000 639
f 1140 346 639
f 967 347 392
f 967 1153 347
f 453 348 699
f 348 897 699
f 349 415 633
f 697 415 349
f 633 680 349
f 680 1044 349
f 351 641 513
f 351 513 694
f 694 575 351
f 575 742 351
f 1130 641 351
f 1130 351 742
f 354 547 657
f 608 354 657
f 608 925 354
f 925 1031 354
f 357 660 669
f 660 357 706
f 706 357 961
f 961 357 839
f 678 610 358
f 1086 358 610
f 748 359 1159
f 1159 359 1119
f 360 600 559
f 559 795 360
f 534 362 380
f 587 499 362
f 587 362 534
f 365 494 513
f 365 1158 494
f 365 513 641
f 365 641 831
f 365 831 1091
f 365 1091 1158
f 367 428 465
f 520 367 465
f 757 760 370
f 370 760 1046
f 1010 370 1046
f 413 457 371
f 413 371 560
f 1122 371 457
f 1140 560 371
f 938 862 371
f 862 1140 371
f 1122 938 371
f 559 413 372
f 413 1052 372
f 468 373 921
f 468 984 373
f 872 718 373
f 718 1084 373
f 849 872 373
f 984 849 373
f 921 373 1084
f 1008 374 492
f 374 1039 561
f 374 1008 1039
f 1082 379 425
f 1082 996 379
f 519 534 380
f 381 1011 926
f 535 970 382
f 593 631 382
f 382 1006 593
f 382 970 1006
f 437 640 388
f 388 640 1109
f 1109 719 388
f 388 719 1128
f 1153 517 392
f 606 394 688
f 606 727 394
f 574 467 395
f 467 1166 395
f 725 574 395
f 396 646 399
f 710 396 399
f 610 646 396
f 396 1086 610
f 396 710 1086
f 398 495 1022
f 754 398 800
f 398 1022 800
f 456 582 399
f 646 456 399
f 582 940 399
f 710 399 940
f 408 401 976
f 424 554 406
f 424 406 998
f 998 406 554
f 675 407 506
f 1056 547 407
f 675 601 407
f 1056 407 601
f 408 450 781
f 486 408 781
f 408 976 512
f 919 858 410
f 858 967 410
f 600 413 559
f 413 560 706
f 961 413 706
f 1052 413 961
f 539 415 1025
f 539 1049 415
f 415 1049 633
f 1025 415 697
f 419 548 929
f 1071 548 419
f 1071 419 812
f 1110 818 419
f 420 982 437
f 499 552 420
f 982 420 552
f 504 554 424
f 914 425 511
f 1160 674 425
f 425 914 763
f 425 763 994
f 425 994 1082
f 668 465 428
f 428 545 668
f 545 428 932
f 453 617 430
f 430 896 563
f 430 617 896
f 751 434 1022
f 618 436 578
f 1033 436 618
f 626 987 436
f 626 436 1033
f 437 573 640
f 437 846 573
f 983 846 437
f 983 437 982
f 935 442 552
f 442 982 552
f 442 935 611
f 1026 442 611
f 442 1026 982
f 864 979 445
f 1013 864 445
f 979 915 445
f 915 1013 445
f 917 620 448
f 1140 448 620
f 639 934 448
f 448 1140 639
f 448 934 917
f 766 781 450
f 942 792 451
f 792 974 451
f 804 451 973
f 451 804 1125
f 942 451 1125
f 451 974 973
f 453 842 617
f 456 963 613
f 963 456 646
f 1199 729 459
f 459 1105 1199
f 461 521 871
f 1058 521 461
f 871 987 461
f 987 956 461
f 956 1058 461
f 1126 469 463
f 1126 463 545
f 810 1015 463
f 782 890 464
f 784 464 802
f 992 802 464
f 943 464 890
f 943 992 464
f 726 520 465
f 550 726 465
f 465 981 550
f 496 466 704
f 466 497 777
f 497 466 781
f 536 781 466
f 777 704 466
f 553 468 921
f 1111 468 553
f 468 1111 984
f 469 936 653
f 936 469 945
f 469 1126 945
f 644 471 529
f 698 529 471
f 1041 473 1164
f 548 714 478
f 1072 548 478
f 714 794 478
f 794 1072 478
f 720 481 608
f 608 481 925
f 481 720 1133
f 925 481 923
f 781 536 486
f 673 492 941
f 673 1008 492
f 788 768 492
f 492 768 941
f 1174 496 704
f 1095 496 1174
f 766 777 497
f 781 766 497
f 499 935 552
f 499 587 1083
f 935 499 883
f 499 1083 883
f 554 501 998
f 1090 501 554
f 502 597 522
f 722 502 522
f 551 529 502
f 502 529 597
f 502 577 551
f 958 577 502
f 958 502 722
f 1027 554 504
f 505 546 576
f 505 718 546
f 576 657 505
f 505 690 1084
f 1084 718 505
f 1011 675 506
f 1011 506 926
f 544 525 509
f 525 602 509
f 760 544 509
f 704 509 985
f 509 704 1076
f 985 509 1154
f 910 595 511
f 595 914 511
f 516 806 919
f 1159 806 516
f 1059 516 858
f 516 1139 858
f 919 1139 516
f 1059 1159 516
f 517 967 858
f 517 1153 967
f 879 534 519
f 633 519 680
f 879 519 633
f 521 570 871
f 1074 570 521
f 863 521 815
f 815 521 1063
f 863 1074 521
f 521 1058 1063
f 568 776 522
f 522 876 568
f 597 772 522
f 722 522 776
f 772 876 522
f 524 940 1040
f 524 1040 1170
f 544 937 525
f 550 642 527
f 1137 527 642
f 1137 694 527
f 529 551 1087
f 529 698 597
f 1087 644 529
f 847 838 531
f 531 1030 847
f 1072 1030 531
f 646 715 533
f 646 533 963
f 715 1048 533
f 723 833 533
f 1048 723 533
f 833 963 533
f 534 1106 587
f 623 534 879
f 534 623 1106
f 692 555 535
f 555 970 535
f 692 535 563
f 816 539 578
f 1025 578 539
f 539 816 1049
f 761 627 542
f 927 542 627
f 761 542 774
f 774 542 828
f 828 542 912
f 542 927 912
f 757 544 760
f 1126 545 932
f 546 799 576
f 1085 799 546
f 833 1085 546
f 547 882 690
f 547 1056 882
f 1072 929 548
f 600 795 549
f 642 550 981
f 577 911 551
f 911 950 551
f 950 1087 551
f 553 686 852
f 921 686 553
f 860 553 852
f 860 1111 553
f 554 1027 1090
f 880 681 555
f 681 970 555
f 975 555 692
f 555 975 880
f 669 599 557
f 599 886 557
f 557 947 669
f 660 706 560
f 1140 660 560
f 650 561 743
f 1039 743 561
f 896 692 563
f 776 568 1017
f 876 1017 568
f 873 570 758
f 570 1074 758
f 570 873 871
f 572 859 797
f 960 572 797
f 572 960 811
f 1047 572 811
f 955 859 572
f 955 572 957
f 957 572 1024
f 572 1047 1024
f 640 573 714
f 573 909 714
f 573 846 835
f 909 573 835
f 689 637 575
f 742 575 637
f 672 769 575
f 672 575 780
f 689 575 769
f 575 694 780
f 657 576 720
f 720 576 1133
f 576 799 1133
f 911 577 958
f 578 1025 618
f 696 770 582
f 770 1040 582
f 940 582 1040
f 1083 587 815
f 587 1106 815
f 588 957 687
f 588 687 1115
f 588 733 1051
f 588 1115 733
f 955 957 588
f 1144 955 588
f 1051 1144 588
f 876 592 763
f 592 994 763
f 592 876 772
f 994 592 772
f 593 850 631
f 679 593 1006
f 593 717 850
f 593 938 717
f 1086 710 594
f 595 910 828
f 828 1055 595
f 595 906 881
f 881 914 595
f 595 1055 906
f 698 772 597
f 599 669 843
f 843 995 599
f 995 886 599
f 675 721 601
f 701 601 749
f 601 701 1056
f 721 785 601
f 785 749 601
f 728 615 606
f 1129 606 615
f 688 728 606
f 657 720 608
f 610 715 646
f 678 1065 610
f 610 1065 715
f 755 611 875
f 755 1145 611
f 611 935 875
f 1145 1026 611
f 801 849 613
f 613 963 801
f 896 617 692
f 617 975 692
f 617 842 975
f 618 697 857
f 618 1025 697
f 857 1033 618
f 660 620 669
f 620 660 1140
f 620 843 669
f 917 843 620
f 758 623 879
f 1074 623 758
f 1074 1106 623
f 626 838 894
f 838 626 1110
f 987 626 894
f 626 1033 1110
f 627 1120 666
f 627 761 1037
f 627 1037 1120
f 633 1049 879
f 689 1108 637
f 1130 742 637
f 637 1070 1092
f 1070 637 1108
f 637 1092 1130
f 874 934 639
f 639 1000 874
f 640 1167 1109
f 641 1130 831
f 804 642 817
f 973 642 804
f 642 1015 817
f 642 973 1137
f 1015 642 981
f 788 644 739
f 644 1087 739
f 736 649 891
f 649 736 906
f 649 1034 891
f 649 906 1002
f 649 1002 980
f 1034 649 980
f 650 743 1037
f 650 1037 1152
f 936 798 653
f 1199 654 1069
f 1199 1196 654
f 662 666 779
f 666 662 920
f 662 1008 673
f 693 920 662
f 662 779 1008
f 735 830 665
f 735 665 1116
f 665 830 787
f 1116 665 831
f 779 666 1120
f 853 666 920
f 974 667 731
f 667 1137 731
f 855 780 667
f 667 780 1137
f 855 667 792
f 974 792 667
f 735 671 1003
f 671 735 1066
f 671 747 986
f 747 671 1066
f 986 1018 671
f 1003 671 1018
f 672 855 769
f 780 855 672
f 996 1082 674
f 674 1160 996
f 721 675 790
f 790 675 1011
f 837 676 702
f 676 874 814
f 874 676 837
f 678 799 1085
f 1085 1065 678
f 1062 1000 679
f 1062 679 1006
f 814 681 880
f 814 1006 681
f 1006 970 681
f 798 936 685
f 1042 798 685
f 936 802 685
f 802 1125 685
f 1042 685 1125
f 785 686 749
f 1093 749 686
f 785 852 686
f 921 1093 686
f 1115 687 941
f 769 943 689
f 931 689 943
f 931 1108 689
f 882 738 690
f 690 738 1084
f 691 1112 751
f 1112 691 754
f 1137 780 694
f 1073 770 696
f 696 849 984
f 1073 696 984
f 818 857 697
f 749 1093 701
f 701 822 1056
f 1093 822 701
f 1013 702 864
f 1076 704 777
f 1174 704 985
f 794 714 909
f 715 1065 1048
f 717 1078 850
f 717 938 1122
f 717 1122 1078
f 785 721 790
f 776 958 722
f 833 723 1085
f 1065 723 1048
f 723 1065 1085
f 811 724 954
f 1014 724 811
f 1014 927 724
f 965 954 724
f 973 974 731
f 1137 973 731
f 733 819 739
f 733 739 952
f 1115 819 733
f 1051 733 952
f 1003 830 735
f 735 854 1066
f 735 1116 854
f 881 906 736
f 1017 881 736
f 891 1017 736
f 737 835 755
f 737 755 956
f 737 966 835
f 956 847 737
f 737 847 966
f 738 1056 822
f 822 1084 738
f 1056 738 882
f 768 788 739
f 819 768 739
f 739 1087 952
f 779 743 1008
f 779 1037 743
f 1008 743 1039
f 986 747 782
f 782 747 1066
f 754 800 1112
f 1145 755 835
f 875 956 755
f 879 873 758
f 774 1152 761
f 761 1152 1037
f 881 876 763
f 763 914 881
f 768 819 941
f 769 855 942
f 942 943 769
f 1040 770 1073
f 910 774 828
f 895 958 776
f 776 1017 895
f 779 1120 1037
f 939 890 782
f 1066 939 782
f 784 802 964
f 784 964 1142
f 852 785 790
f 786 915 886
f 886 924 786
f 1013 915 786
f 924 1013 786
f 830 1003 787
f 787 989 1091
f 821 852 790
f 942 855 792
f 966 794 909
f 794 966 1030
f 1072 794 1030
f 859 930 797
f 930 933 797
f 933 980 797
f 960 797 980
f 798 1042 810
f 800 1022 1172
f 801 963 833
f 801 872 849
f 964 802 936
f 802 992 1125
f 1191 803 820
f 804 817 1042
f 1042 1125 804
f 806 1119 919
f 1159 1119 806
f 1015 810 817
f 817 810 1042
f 954 1047 811
f 960 1068 811
f 1068 1014 811
f 1071 812 1167
f 1000 814 874
f 1000 1062 814
f 814 1062 1006
f 815 1106 863
f 1063 1083 815
f 873 879 816
f 816 879 1049
f 857 818 1110
f 941 819 1115
f 820 1193 1189
f 821 1170 852
f 921 1084 822
f 1093 921 822
f 828 912 866
f 828 866 1055
f 831 1092 1116
f 831 1130 1092
f 840 959 832
f 832 1089 840
f 991 832 907
f 1126 907 832
f 832 959 945
f 1126 832 945
f 991 1089 832
f 846 1145 835
f 835 966 909
f 934 874 837
f 837 971 934
f 837 1100 971
f 838 847 894
f 844 839 999
f 839 844 1052
f 961 839 1052
f 840 1142 959
f 840 1018 986
f 1142 840 986
f 1089 1018 840
f 842 1009 975
f 842 979 1009
f 917 971 843
f 971 995 843
f 846 983 1145
f 956 894 847
f 847 1030 966
f 860 852 1170
f 920 965 853
f 854 939 1066
f 939 854 1088
f 1116 1088 854
f 1033 857 1110
f 919 1118 858
f 858 1118 1059
f 1144 930 859
f 955 1144 859
f 860 1040 1073
f 1170 1040 860
f 860 1073 1111
f 1009 979 864
f 1068 866 912
f 866 972 1055
f 972 866 1068
f 930 868 870
f 958 870 868
f 868 950 911
f 868 911 958
f 1144 868 930
f 950 868 1144
f 933 870 895
f 870 958 895
f 870 933 930
f 875 935 883
f 875 883 1058
f 1058 956 875
f 881 1017 876
f 1009 880 975
f 883 1063 1058
f 1063 883 1083
f 886 915 897
f 995 924 886
f 931 890 939
f 931 943 890
f 891 933 895
f 895 1017 891
f 891 1034 933
f 894 956 987
f 906 972 1002
f 1055 972 906
f 932 991 907
f 907 1126 932
f 927 1014 912
f 1014 1068 912
f 971 917 934
f 937 1046 919
f 1119 1118 919
f 995 1100 924
f 931 939 1088
f 1088 1108 931
f 933 1034 980
f 945 964 936
f 992 943 942
f 942 1125 992
f 945 959 964
f 1051 952 950
f 952 1087 950
f 1144 1051 950
f 959 1142 964
f 960 980 1028
f 1068 960 1028
f 1100 995 971
f 1002 972 1028
f 1028 972 1068
f 980 1002 1028
f 1026 983 982
f 1026 1145 983
f 1111 1073 984
f 1132 985 1154
f 1091 989 1158
f 991 1003 1018
f 1018 1089 991
f 1168 1080 1053
f 1168 1053 1176
f 1118 1119 1059
f 1070 1108 1088
f 1088 1116 1070
f 1116 1092 1070
f 1095 1174 1187
f 1175 1095 1187
f 1175 1187 1105
f 1187 1199 1105
f 1107 1183 1161
f 1196 1199 1187
