# sdm_hand_1200.obj  (1200 v, 1648 f)  units: metres
v -0.119587188 -0.020707579 0.097373281
v -0.024000000 -0.005500000 0.195999995
v 0.024499999 -0.005500000 0.180999994
v -0.039999999 0.002500000 0.195062495
v -0.001812500 0.003045731 0.188389443
v -0.034720742 0.019560365 0.146105132
v -0.025144530 0.018113060 0.096248758
v -0.002141377 0.017708856 0.102035883
v -0.031026583 0.019826854 0.140692324
v -0.005444787 0.020625000 0.151688026
v 0.020500001 0.005522989 0.141371389
v 0.025984375 0.019000000 0.134098957
v -0.033355585 0.003515868 0.178633835
v -0.004658349 0.011313160 0.165080079
v -0.111889113 -0.016264288 0.076508222
v -0.108522977 -0.020792051 0.080878703
v -0.122130939 -0.015249387 0.067493817
v 0.029339186 0.019875000 0.168663454
v 0.011819066 0.009362807 0.143000007
v -0.010500000 0.002500000 0.188999996
v -0.002875000 0.019736726 0.098096016
v -0.028365728 0.019500000 0.131929434
v 0.020681205 0.009475321 0.010945022
v 0.008539062 0.019500000 0.149437498
v -0.119871865 -0.012932437 0.090631676
v 0.017608662 0.003762965 0.199133188
v -0.024000000 0.002500000 0.184749994
v 0.014244223 0.019500000 0.101704366
v 0.030639433 0.006065773 0.150713724
v 0.001597037 -0.003000000 0.081735374
v -0.032000000 -0.005500000 0.180999994
v -0.031761219 -0.004841428 0.195711841
v -0.126399819 -0.029617646 0.086496395
v -0.064399177 0.017383611 0.025360624
v -0.002000000 0.000121150 0.192705078
v 0.031069490 -0.005500000 0.180183485
v 0.003000000 -0.001142652 0.194535757
v 0.005316106 0.015807389 0.130629876
v -0.017358259 0.016000001 0.148761157
v -0.065565661 0.019590046 0.029722040
v 0.033873767 0.004494048 0.119493003
v -0.005450383 0.020625000 0.101809933
v -0.017985548 0.008684470 0.167237441
v 0.018999999 -0.001500000 0.191000001
v -0.027381196 0.018323668 0.189670498
v -0.001812968 0.012651580 0.135288714
v -0.033367146 0.020906250 0.175161763
v -0.030062702 0.015397891 0.003859319
v 0.027209746 0.018266611 0.137346385
v -0.116212927 -0.006754179 0.069391522
v -0.004625000 0.002500000 0.188999996
v -0.039500002 0.016000001 0.098000002
v 0.031842698 -0.003000000 0.028558865
v 0.037308450 0.016543960 0.130469163
v -0.041006889 0.014961881 0.115673996
v -0.070077814 0.012717204 0.035662575
v -0.007659854 0.003878655 0.207500003
v -0.031465133 -0.002953125 0.067009591
v -0.002776812 0.000644508 0.206000000
v 0.034491640 0.018318351 0.109131412
v 0.013211681 0.016000001 0.097543426
v 0.023562500 0.002664730 0.169876671
v 0.003000000 -0.004890567 0.195968869
v -0.124972199 -0.024297522 0.087311222
v 0.029343271 0.021000000 0.137652199
v 0.026937499 0.002500000 0.167999998
v 0.028213112 0.000014277 0.167999998
v 0.005318097 0.000716278 0.188949847
v -0.119623949 -0.028978794 0.081449727
v -0.113867424 -0.024057454 0.073148240
v 0.006996411 0.021000000 0.146583480
v -0.024000000 -0.005500000 0.184749994
v 0.033401107 0.002356558 0.172814977
v -0.116209628 -0.028061022 0.078914842
v -0.040092525 0.018225675 0.171345365
v -0.029731614 0.002096346 0.191641116
v -0.102132494 0.000635685 0.056846718
v -0.015794859 0.020165345 0.153479946
v -0.036279292 -0.005500000 0.193573730
v 0.025288984 -0.005500000 0.171249996
v -0.006614989 -0.005500000 0.201900933
v 0.029452885 -0.002523471 0.180999994
v 0.006405711 0.017836721 0.163443463
v -0.024682719 0.014792175 0.113353320
v -0.038157550 -0.003195089 0.195999995
v -0.024000000 0.000500000 0.195999995
v -0.024163156 0.005710078 0.182022642
v 0.018738679 -0.004444132 0.186669931
v -0.016612870 0.015091044 0.151999995
v -0.018500000 0.018473452 0.098655977
v -0.028802326 -0.005500000 0.184008859
v 0.018999999 -0.003070203 0.189702904
v -0.003410564 0.010336841 0.201265882
v -0.118447219 -0.022187602 0.093985956
v -0.011985080 0.020062500 0.141452527
v -0.114529291 -0.028193762 0.081154476
v -0.016382027 0.002241059 0.197600331
v 0.032819301 0.016000001 0.097859986
v -0.023109376 0.002686396 0.187967499
v -0.110922753 -0.022318099 0.084098108
v -0.010381514 0.020000000 -0.008139881
v -0.123325183 -0.016532924 0.091018441
v -0.019698548 0.016625000 -0.023825903
v 0.018999999 -0.002104666 0.187467105
v -0.035377913 0.011962858 0.166638881
v 0.028256297 0.018968298 0.161244736
v 0.030059630 0.000462539 0.066030921
v -0.018999999 -0.002542475 0.192815622
v -0.037743712 0.019104159 0.178918077
v 0.023025383 -0.003000000 0.080342608
v 0.006502158 0.001060337 0.186481090
v -0.035537909 0.006954155 0.197959962
v 0.018999999 0.000882613 0.190863947
v -0.113689363 -0.022658250 0.080467986
v -0.128808644 -0.025703223 0.085759244
v -0.116436423 -0.026178530 0.086225172
v -0.016767207 0.007186433 0.204710680
v -0.114679158 -0.020183439 0.077098820
v -0.116550100 -0.024713485 0.075062248
v 0.017420153 0.016569482 0.146083634
v 0.012647769 0.000115566 0.200000003
v -0.070765293 0.011793051 0.026415407
v 0.016889880 -0.005500000 0.194491073
v 0.025066895 0.004193410 0.179831549
v 0.011231106 0.001905992 0.186921896
v -0.039999999 -0.001652503 0.194309515
v -0.027908188 -0.005500000 0.181830178
v -0.032906250 -0.003000000 0.085000001
v -0.008322595 0.016000001 0.183435386
v 0.034915879 0.010047990 0.165388865
v -0.006312500 0.016000001 0.097572917
v -0.003062500 -0.005211781 0.205698405
v -0.018999999 0.000500000 0.206000000
v -0.018999999 0.000935547 0.204406250
v -0.127516144 -0.021913281 0.089182913
v -0.037187852 -0.002812652 0.180999994
v -0.123875331 -0.021497920 0.082967491
v -0.121062432 -0.004499043 0.071544206
v 0.010021823 0.012778275 0.172168589
v -0.000593750 0.004532639 0.194290051
v -0.027445077 -0.003184999 0.180999994
v -0.017612604 0.002053582 0.195676805
v -0.003632840 0.001720809 0.195823196
v -0.070523310 0.007306460 0.020232901
v -0.014999953 -0.003000000 0.077910851
v 0.002617299 -0.003000000 0.031349149
v -0.016918120 0.017288858 0.096004351
v 0.016017568 0.000489710 0.188893236
v 0.035649555 -0.001496465 0.178924062
v -0.039999999 0.000500000 0.180999994
v -0.064889893 0.011788505 0.027090726
v -0.039999999 0.000500000 0.195999995
v 0.024499999 0.000744780 0.168720365
v 0.026554897 0.002633458 0.170416557
v 0.039632785 0.007237643 0.056083653
v -0.018999999 0.000500000 0.188999996
v -0.118183315 -0.016354508 0.084472465
v 0.018999999 0.000906250 0.197468753
v -0.030017751 0.018159805 0.172445038
v -0.111975468 -0.018717354 0.084027175
v -0.041499998 0.007176001 0.191607882
v 0.017338545 -0.000966834 0.184000000
v 0.012263133 0.002379726 0.197824483
v 0.003500000 0.018500002 0.146625003
v -0.008821770 0.020265625 0.182729615
v 0.029127516 0.004594014 0.171239204
v -0.069798664 0.005779322 0.021213143
v -0.013609375 0.016000001 0.098343753
v 0.024499999 0.000220037 0.171772923
v 0.026099830 0.000384054 0.170003942
v -0.001812500 0.002500000 0.199492186
v -0.102074373 -0.004217986 0.062415607
v -0.001073520 0.003406240 0.205769110
v -0.004786414 0.018191287 0.150652616
v -0.018435195 0.010861087 0.186408801
v 0.014262851 -0.005500000 0.185979923
v -0.113792480 -0.019092851 0.075307074
v 0.012781250 0.002500000 0.184000000
v 0.006010911 0.005866296 0.185322505
v -0.115142090 -0.023034730 0.078512083
v 0.035459837 0.002495537 0.172999646
v 0.028538648 -0.003000000 0.064585451
v -0.122050369 -0.021874870 0.083564409
v -0.040888339 0.004573236 0.070534966
v 0.005710820 0.015266583 0.149000004
v 0.022068735 0.015385029 0.094951366
v -0.024000000 0.000500000 0.180999994
v -0.014222794 0.002657115 0.196362262
v 0.000102031 0.003537841 0.094687499
v -0.026171556 0.000395767 0.180999994
v 0.016880304 -0.001744269 0.187195099
v 0.026559814 0.002086567 0.178800331
v -0.070940171 -0.000392758 0.037343945
v 0.011455214 -0.003000000 0.062078585
v -0.119316914 -0.026057117 0.077832549
v 0.005104552 0.001525083 0.185214577
v -0.008634056 -0.002438216 0.194629949
v -0.007375000 0.002500000 0.188999996
v -0.067613913 0.004442814 0.021105236
v -0.127511616 -0.014188242 0.088247503
v 0.017299506 0.000778506 0.200000003
v -0.017589114 0.001031100 0.188999996
v 0.014398264 0.021000000 0.098730765
v -0.118788502 -0.030503233 0.082917343
v -0.032992375 0.021662374 0.033712515
v -0.038864542 0.018871272 0.101307575
v 0.030370961 0.010785895 0.103385353
v -0.010218545 0.004616229 0.200271316
v -0.002000000 0.000083315 0.189710745
v -0.115292872 -0.017015983 0.080400425
v -0.004756137 0.002546842 0.192466317
v 0.010296848 -0.000694367 0.189153971
v 0.035939726 -0.003000000 0.023089597
v 0.028910649 -0.001657846 0.175119487
v 0.037500001 -0.003648558 0.168838792
v 0.016909109 0.002757451 0.188739663
v -0.115532136 -0.029271012 0.081056041
v 0.024499999 -0.001508860 0.169591860
v 0.029384523 -0.005500000 0.177400874
v -0.067427392 0.008555517 0.021558768
v -0.006911411 0.001675144 0.193331206
v -0.002000000 0.001005672 0.198219579
v -0.115863434 -0.021051381 0.074979754
v -0.007843750 0.002500000 0.206000000
v -0.017250000 0.002500000 0.206000000
v 0.009930349 -0.002195812 0.192228698
v -0.002000000 0.001115946 0.202812499
v -0.012222548 -0.005500000 0.199535778
v -0.116177991 -0.019658878 0.080878110
v -0.115357396 -0.015184040 0.083170898
v 0.015533529 0.001002831 0.186042052
v -0.111466973 -0.020949076 0.086572317
v -0.119005517 -0.029297874 0.085507693
v -0.017654185 0.010844865 0.128911712
v 0.037973700 0.017004477 0.037674751
v -0.002000000 -0.002368561 0.192523829
v -0.112734074 -0.019583860 0.076363753
v -0.002000000 0.001345568 0.191053900
v -0.010663254 0.002235209 0.191444316
v -0.039999999 -0.003112042 0.189035559
v 0.016599240 -0.001941487 0.189436901
v -0.116436112 -0.027282565 0.081452819
v -0.041499998 0.003654149 0.186840281
v -0.035266921 -0.002294146 0.183469428
v 0.018999999 0.000298713 0.199524819
v -0.024000000 0.002500000 0.182874994
v -0.036377368 -0.002398635 0.191129117
v -0.006144684 -0.002896013 0.206000000
v 0.026011160 0.016000001 0.097511161
v -0.015517860 -0.000572956 0.191591461
v -0.039999999 0.001124153 0.182338397
v -0.004706442 -0.000925668 0.188999996
v 0.009257107 0.000097938 0.191942550
v -0.003544865 0.000913868 0.188999996
v -0.018999999 -0.000750856 0.195121311
v -0.008065420 -0.003801296 0.188999996
v -0.117611499 -0.017535740 0.082047280
v -0.123969135 -0.018911250 0.093856185
v -0.116873358 -0.023333428 0.076447943
v -0.013885682 0.017820655 0.108746097
v 0.025359386 -0.005500000 0.178203130
v 0.016054553 -0.003607904 0.191345769
v 0.017995103 0.001916652 0.185123212
v 0.018017372 -0.005345441 0.196591130
v -0.010214938 -0.005500000 0.199249699
v -0.123504937 -0.029922210 0.084211946
v -0.127026352 -0.029179996 0.084810370
v 0.003000000 -0.001252625 0.189120714
v -0.017739251 0.001755917 0.204023730
v 0.003000000 0.000500000 0.200000003
v -0.002000000 -0.000940622 0.195353396
v -0.033667065 -0.001214181 0.184694753
v -0.006507929 0.001287631 0.195861204
v -0.007974121 -0.005500000 0.200285290
v -0.021896489 0.000000000 0.088589530
v -0.123152311 -0.025314498 0.080527171
v -0.011093562 -0.001485738 0.197265148
v -0.113977238 -0.022261883 0.073765862
v -0.009596143 -0.003995160 0.190575107
v -0.028990614 -0.000931052 0.180999994
v -0.034181608 -0.005500000 0.183415909
v 0.027744452 0.000383018 0.173679429
v -0.026058741 -0.003000000 0.080079243
v -0.114253001 -0.014958282 0.079486799
v 0.028547904 0.015543724 0.136724609
v 0.004276210 0.001123235 0.184000000
v -0.125757963 -0.018082202 0.092069935
v -0.002000000 -0.001717076 0.201930477
v 0.012047822 0.002002240 0.185312019
v 0.003000000 -0.002250311 0.191800068
v -0.031101868 0.007943860 0.187345086
v 0.031983289 0.002409595 0.178154334
v -0.029714944 -0.004049097 0.180999994
v 0.013706771 -0.002509812 0.186484857
v -0.114933579 -0.024250886 0.073828582
v -0.025124126 0.001246804 0.180999994
v -0.009159761 -0.000411943 0.188999996
v -0.116674614 -0.014621248 0.088879944
v -0.018999999 0.000662131 0.190851078
v -0.006086775 0.004406053 0.191713924
v -0.002000000 -0.002580914 0.196233067
v 0.030146230 -0.002316282 0.179025105
v -0.003787764 -0.002741381 0.197612269
v -0.088325865 0.005714992 0.048461974
v 0.003000000 0.001038048 0.187596554
v -0.009840369 0.001081248 0.188999996
v -0.016683740 -0.001565820 0.188999996
v -0.086237986 0.008822905 0.044934818
v 0.039000001 0.008051569 0.175332343
v -0.114863367 -0.013251457 0.082740990
v 0.035579771 -0.001221101 0.180999994
v -0.004146373 0.000231403 0.196974109
v -0.028078379 0.002364967 0.185905502
v 0.007745212 -0.003518420 0.184000000
v -0.125430183 -0.028262611 0.083042383
v 0.011508451 -0.002309290 0.188534426
v -0.115163938 -0.022912545 0.073939585
v -0.111148199 -0.010922173 0.080728859
v -0.006303890 -0.002416805 0.198586197
v 0.018999999 0.001500000 0.200000003
v -0.065852722 0.007883257 0.019617755
v -0.120297689 -0.030898081 0.085106358
v -0.003507373 0.001507344 0.191284408
v 0.018047183 -0.001218907 0.200000003
v 0.017972751 0.001350071 0.198818835
v 0.026681239 0.001211770 0.167999998
v -0.003652361 0.000000000 0.085975535
v 0.011820242 0.000898934 0.190142881
v -0.034737338 -0.000853079 0.188950166
v -0.018999999 0.002500000 0.191124997
v 0.014327427 0.001844226 0.196200639
v -0.113077206 -0.022173861 0.087067534
v -0.125215206 -0.025980009 0.083865950
v 0.018999999 0.001285938 0.194420595
v -0.025442757 0.000987916 0.195999995
v -0.002000000 -0.001576233 0.204266388
v 0.016520685 0.002088987 0.197113768
v -0.018999999 0.001135473 0.202735167
v -0.032678054 -0.001357320 0.029276991
v 0.008554772 -0.002521292 0.200000003
v -0.123745613 -0.017135943 0.094862614
v -0.006095430 -0.003000000 0.068377890
v 0.018999999 0.001160577 0.187866347
v 0.017225770 -0.002295562 0.184000000
v 0.013609987 -0.002193140 0.191518373
v 0.003000000 0.000477067 0.191338891
v 0.013673418 -0.000423738 0.188673008
v 0.006759857 0.003266419 0.199917445
v 0.015363407 0.000116640 0.200000003
v 0.036122396 0.016000001 0.135377604
v -0.024000000 0.001173900 0.194714655
v 0.020500001 0.016208174 0.139704341
v 0.030028508 0.000457327 0.180999994
v 0.031464150 -0.001147586 0.177547800
v -0.110215232 -0.013512614 0.081896421
v 0.018999999 -0.003367872 0.192932634
v -0.039999999 0.001213193 0.184488435
v 0.029619883 -0.000779976 0.171888245
v -0.093106284 -0.005033068 0.044383343
v -0.010792295 -0.001726971 0.191670948
v -0.009443626 -0.003000000 0.025421581
v 0.016301685 0.000513330 0.184000000
v -0.018999999 -0.003697608 0.195003638
v -0.007624555 0.002871607 0.192518186
v -0.009138644 -0.003586799 0.199114218
v -0.113452100 -0.016658579 0.085092653
v -0.113933074 -0.020020089 0.082300378
v 0.030411595 -0.005500000 0.171658023
v 0.010758510 0.002803798 0.194266102
v -0.121653079 -0.025166149 0.077602513
v -0.118179543 -0.020019171 0.080020080
v -0.012611492 0.004773336 0.191290818
v -0.111855949 -0.018244582 0.090573860
v 0.039227565 0.000327936 0.030715332
v 0.011722039 -0.005500000 0.198337041
v 0.009734512 -0.005500000 0.189467260
v -0.024000000 0.001482869 0.193187495
v 0.006825666 -0.005500000 0.185579628
v -0.013433822 0.000872155 0.188999996
v -0.029418087 -0.002234449 0.186910708
v -0.003612616 -0.000144105 0.203923356
v -0.012101265 -0.003747462 0.197549099
v -0.117097350 -0.028865098 0.083602934
v -0.018500000 0.018187500 0.101000004
v -0.007667030 -0.001458378 0.188999996
v -0.116710371 -0.024664210 0.082087075
v 0.014697243 -0.005500000 0.199298147
v -0.007975695 0.000626967 0.191813851
v -0.124688925 -0.028896448 0.088835993
v 0.035062501 0.001353646 0.167999998
v -0.111680299 -0.016761624 0.078796057
v 0.026818621 0.016000001 0.099181382
v 0.037062501 0.002500000 0.180562495
v -0.013148570 -0.001982734 0.195343581
v -0.025180425 0.001185765 0.192210405
v -0.037117186 0.002500000 0.195999995
v -0.110885987 -0.026063717 0.079204475
v -0.013077273 -0.002682727 0.199903392
v -0.123318528 -0.027751325 0.086730360
v -0.114898582 -0.026938032 0.083256157
v -0.122083246 -0.018251634 0.090454416
v -0.006242342 0.000967011 0.188999996
v 0.006378012 -0.000846905 0.190678043
v 0.018999999 -0.000762472 0.194344786
v -0.007043697 0.002786734 0.197092457
v -0.119124142 -0.022706392 0.078918151
v -0.013424447 -0.001446661 0.188999996
v -0.125524346 -0.021825527 0.088666034
v -0.007523288 -0.003483869 0.191858837
v -0.034255675 -0.004847287 0.180999994
v -0.111061524 -0.025878642 0.075733010
v 0.024124999 0.002500000 0.173789059
v -0.090523626 -0.000860551 0.041187550
v -0.014996690 -0.001881616 0.206000000
v -0.065166476 0.018635236 0.027971081
v 0.018753652 -0.003000000 0.026096813
v -0.004624147 -0.001525871 0.202648291
v 0.037149474 -0.005348604 0.175511309
v -0.121027179 -0.017397172 0.088049718
v 0.010336370 0.004501961 0.192306226
v -0.002000000 0.000595057 0.201249225
v -0.038078276 -0.001617661 0.185331919
v 0.031187501 0.002500000 0.181687495
v -0.113684302 -0.026908068 0.076473961
v -0.036495800 -0.005500000 0.187526530
v -0.028043457 -0.002378042 0.183224673
v -0.117053400 -0.026789410 0.077752546
v 0.009338284 0.005474148 0.046357252
v -0.114263873 -0.025169670 0.079701289
v -0.012937969 -0.001539286 0.203099097
v -0.035607768 0.000894717 0.180999994
v -0.004718660 0.000764892 0.192453051
v 0.011138233 -0.001183330 0.184000000
v -0.039528771 -0.005500000 0.195049543
v 0.036991627 0.020250000 0.160823177
v -0.126646231 -0.027497115 0.087086685
v 0.016808352 -0.000953561 0.193043015
v -0.039999999 -0.000421620 0.192245360
v -0.113666522 -0.018455984 0.088277200
v -0.009122740 -0.002962325 0.197450370
v -0.031429342 0.000172444 0.182832921
v -0.034542857 -0.002891384 0.180999994
v 0.018999999 0.002500000 0.193218752
v 0.008270844 0.000672261 0.184000000
v -0.032926065 -0.003176857 0.180999994
v -0.112223195 -0.020663961 0.080259302
v -0.116307527 -0.021285105 0.083397727
v -0.016147543 -0.000374348 0.199909706
v 0.030089485 -0.002707566 0.167999998
v -0.038194529 -0.005500000 0.191453170
v 0.013168906 -0.000431055 0.192064143
v -0.002000000 -0.001949507 0.199048213
v -0.017699755 0.002285032 0.190652338
v 0.037500001 -0.000330078 0.179262588
v 0.018999999 0.001500000 0.184000000
v -0.113123108 -0.011744980 0.083949277
v -0.032477074 -0.000817139 0.195999995
v -0.037222647 -0.003682464 0.193123133
v -0.120489694 -0.020108211 0.090500051
v -0.035908689 -0.005500000 0.190358791
v 0.013416286 -0.005500000 0.189548137
v 0.024499999 0.001200373 0.173772990
v 0.003000000 -0.004719201 0.187894799
v 0.018999999 -0.003887500 0.184612500
v -0.110205957 -0.027255714 0.076783886
v 0.028036483 -0.003670221 0.174005565
v -0.039685178 -0.005346146 0.189166232
v -0.109900002 -0.013983694 0.085263049
v -0.008704832 0.002048442 0.194058785
v 0.027968750 0.002500000 0.181374995
v -0.009911928 0.001398792 0.190189688
v -0.110286920 -0.016786431 0.088771918
v -0.122611679 -0.025474686 0.085110668
v -0.018500000 0.018500001 0.148374999
v -0.002000000 -0.003977362 0.195824285
v -0.010567314 -0.002373266 0.188999996
v -0.036715885 -0.000151675 0.192670734
v 0.003595463 -0.002645103 0.184294968
v 0.037364584 -0.004834635 0.178111201
v -0.109374061 -0.020222073 0.084809607
v 0.003000000 -0.003246187 0.190202801
v -0.111874578 -0.012584608 0.082743067
v 0.033931430 0.000683460 0.084333837
v -0.027750611 0.002246900 0.192643912
v -0.005437843 -0.000062503 0.199761905
v -0.002000000 -0.003905392 0.194044268
v -0.016594892 -0.003202386 0.206000000
v -0.122402826 -0.025183715 0.081875175
v -0.039737066 0.021750000 0.090527523
v 0.011309862 -0.000110797 0.195326584
v 0.016545704 -0.001619861 0.196156530
v -0.038302716 -0.005500000 0.188308801
v -0.118912556 -0.027300064 0.083250929
v -0.026038226 -0.005358084 0.195388812
v 0.008207048 0.006062500 -0.019329427
v 0.018671559 -0.005166358 0.189160238
v 0.037500001 0.000232879 0.175228885
v -0.039999999 -0.001086671 0.185696797
v -0.009873681 -0.000629676 0.194071228
v -0.034751175 -0.004060398 0.185645492
v 0.009967167 -0.005500000 0.193753961
v -0.007420324 -0.005500000 0.193931938
v -0.002650422 -0.005500000 0.194966009
v 0.005752416 0.001000468 0.200000003
v -0.031366854 -0.003850069 0.187597381
v -0.032352901 -0.000715715 0.187488411
v -0.125938363 -0.022245143 0.090119601
v 0.018930758 -0.000641864 0.185523961
v -0.116013826 -0.016920155 0.084552345
v -0.037511484 0.000823925 0.195999995
v -0.072072155 0.001805520 0.020612349
v -0.031628906 0.002500000 0.180999994
v -0.018999999 -0.005210041 0.190460934
v 0.005443678 -0.001602203 0.184000000
v -0.124434740 -0.021660996 0.092155054
v -0.036197199 -0.005500000 0.184414773
v -0.110099658 -0.023139112 0.081972714
v -0.010279363 -0.005500000 0.203120988
v -0.004706394 0.003044656 0.202492463
v 0.026181165 -0.001812131 0.180999994
v -0.008715542 0.006090425 0.186637547
v -0.030414810 -0.005500000 0.186257554
v -0.118740814 -0.020560064 0.085301094
v 0.004987388 -0.003206055 0.186318804
v -0.114904114 -0.024020278 0.075590646
v 0.008989152 -0.000423795 0.195795005
v -0.019187499 0.002500000 0.201742187
v -0.119434098 -0.027633430 0.088214758
v -0.009291553 -0.001801647 0.203980649
v -0.013432960 -0.005500000 0.204923408
v -0.015372351 -0.005500000 0.197768916
v -0.117188426 -0.016074798 0.090831713
v -0.012913914 -0.005500000 0.196459040
v 0.034774494 -0.005500000 0.175811867
v 0.003000000 0.000831387 0.184750000
v 0.003000000 -0.004610856 0.192422841
v 0.005817855 -0.005500000 0.191564721
v 0.027209768 -0.005500000 0.170672277
v -0.018068183 -0.005173851 0.193112800
v -0.003445372 -0.002787430 0.200176479
v 0.035479619 0.001631977 0.179446791
v -0.112893993 -0.026967237 0.080629135
v -0.017352450 -0.000081259 0.194259186
v -0.110896278 -0.018928439 0.088449512
v 0.030593750 0.002500000 0.167999998
v 0.030260640 0.002545247 0.174374235
v 0.005398171 -0.005500000 0.199477986
v -0.030227505 -0.005500000 0.182445073
v -0.013469832 0.021000000 0.099364676
v -0.113786344 -0.014937334 0.088039731
v -0.006868526 -0.003638853 0.195084160
v 0.037500001 0.000500000 0.167999998
v -0.035969309 -0.000749112 0.186357276
v -0.032721556 -0.005500000 0.183205819
v -0.120333284 -0.018434319 0.085173682
v -0.004555488 -0.003021617 0.193394752
v 0.006353608 -0.001544951 0.195049186
v -0.033501468 -0.005500000 0.194971160
v 0.034142004 0.002152575 0.174855822
v -0.121996826 -0.026448340 0.088681474
v -0.016488970 -0.005500000 0.199509510
v -0.028042907 0.001406839 0.182896168
v -0.016002284 -0.001964213 0.191052685
v -0.024743272 -0.003666327 0.180999994
v 0.017335908 -0.005500000 0.192729643
v -0.117857389 -0.015889154 0.088628812
v 0.004936031 -0.005500000 0.194294570
v -0.005800250 -0.000911934 0.195758499
v -0.012242649 -0.005500000 0.190636975
v -0.033736552 -0.000587124 0.193609806
v 0.034674195 0.000494153 0.169535628
v -0.125363800 -0.026046162 0.089219865
v -0.016803594 -0.003999478 0.188999996
v 0.018357657 -0.005500000 0.184642342
v 0.031742006 -0.002515842 0.173715811
v 0.005436813 0.000594808 0.196841801
v 0.003000000 0.000722288 0.197511799
v 0.003111471 0.003979916 0.036468514
v -0.039999999 -0.000730103 0.189132718
v -0.117598796 -0.020674239 0.094848102
v -0.018298353 -0.004988142 0.199203587
v -0.029510019 -0.002399941 0.189242588
v 0.037500001 -0.001498487 0.180501117
v -0.121386200 -0.026133306 0.085097187
v -0.035299283 0.000398692 0.184196011
v -0.063211311 0.016235871 0.030676655
v 0.030238804 -0.000237516 0.175659376
v -0.035671184 0.003268840 0.187747884
v -0.113677543 -0.020793272 0.089629191
v -0.123477925 -0.020229814 0.086808360
v -0.024662272 0.018362011 0.145535247
v 0.031762046 0.001309775 0.177900996
v 0.009702491 0.000962956 0.200000003
v -0.036328148 -0.000875453 0.180999994
v -0.026250248 -0.001796472 0.193746601
v -0.006481697 -0.005500000 0.205348480
v 0.025795395 -0.004170373 0.180999994
v 0.037500001 0.001048593 0.169368076
v 0.003000000 -0.005206266 0.189641908
v -0.018999999 -0.003375229 0.190500457
v 0.008764461 -0.003581850 0.190413943
v -0.034330194 0.016000001 0.144197093
v -0.018572140 0.021500000 0.003596400
v -0.014125869 -0.004053766 0.206000000
v 0.025425505 0.002720651 0.179431147
v 0.029739568 -0.005500000 0.169238941
v -0.015534906 0.002329507 0.193933219
v -0.025830364 -0.002112738 0.185702293
v -0.017605895 -0.005500000 0.203066904
v 0.015306837 0.002728417 0.192579308
v 0.012396840 -0.002409792 0.193865091
v -0.018999999 -0.003393986 0.203009896
v -0.024393819 -0.003757593 0.195254287
v -0.010822686 -0.005064952 0.205444444
v -0.006555676 0.001654203 0.190804536
v -0.005391273 -0.005500000 0.196493181
v -0.012299504 0.001213531 0.206000000
v -0.113249941 -0.017978324 0.072320959
v -0.034124182 -0.003325137 0.193045840
v 0.016675582 -0.005500000 0.186324417
v 0.014484373 -0.000827133 0.184000000
v -0.124441515 -0.019957356 0.092857150
v 0.008478614 0.001479190 0.198455635
v -0.027315631 0.001137889 0.180999994
v -0.018344040 -0.004867497 0.206000000
v 0.005229438 -0.000325994 0.193075500
v 0.030550459 -0.005500000 0.174204423
v -0.008755607 -0.005500000 0.204365190
v 0.037500001 0.001566924 0.170468970
v -0.028955548 -0.000357590 0.193907109
v -0.014388292 0.002050959 0.200444474
v -0.122090555 -0.028111924 0.081454691
v -0.005369765 -0.003084452 0.201431159
v -0.014133333 0.002399448 0.202708117
v 0.029272891 -0.004143533 0.177166075
v -0.010510776 0.001458781 0.203851256
v 0.027502870 -0.002765625 0.047459959
v 0.008337822 0.002088333 0.190789494
v -0.002875000 0.002500000 0.206000000
v -0.038096550 -0.001123614 0.195999995
v 0.033933892 0.002750545 0.170983281
v -0.018999999 -0.001020829 0.190792102
v -0.037640107 0.001853887 0.189503404
v -0.039999999 0.000969559 0.193603895
v -0.038336961 -0.001583406 0.194029919
v -0.120450048 -0.024241089 0.083923404
v -0.123389705 -0.022273333 0.088225462
v 0.005563410 -0.000485623 0.187072978
v -0.034512173 -0.003105038 0.189593541
v -0.010634276 -0.004809041 0.188999996
v 0.033449725 -0.001549905 0.180999994
v -0.114294323 -0.017790647 0.091660008
v -0.037744218 0.001490527 0.193646144
v -0.006004666 -0.005500000 0.199523545
v 0.036540296 -0.005500000 0.180635760
v -0.037382023 -0.000555826 0.190098451
v -0.010137386 0.000841567 0.206000000
v -0.011138361 0.000450051 0.192166715
v 0.014250516 -0.000780254 0.194979778
v -0.026908842 -0.004127846 0.182126377
v -0.032130950 -0.002965304 0.185355359
v -0.031814952 0.010816322 0.094999999
v -0.015147785 -0.003000000 0.061269073
v -0.027205094 -0.001005678 0.187478989
v -0.038782349 -0.005193862 0.181466594
v -0.039328889 -0.005232537 0.183779879
v -0.030118711 -0.002027306 0.195999995
v -0.027099678 -0.001115452 0.190721830
v -0.038958498 -0.001200376 0.180999994
v 0.005112413 -0.005500000 0.187177542
v -0.016307947 -0.005500000 0.191460052
v -0.026066696 0.000166001 0.189463778
v 0.013891227 -0.001608652 0.198266304
v -0.116557199 -0.017279645 0.086953518
v -0.016836649 0.001463177 0.076010806
v -0.111571694 -0.017986482 0.081568338
v -0.025067591 -0.000279786 0.195999995
v 0.036302443 0.000416583 0.180999994
v -0.111321174 -0.012556156 0.084158018
v -0.113968513 -0.024177987 0.082144245
v 0.005976245 0.000091852 0.184000000
v 0.037500001 0.002500000 0.176531245
v 0.011009122 -0.005500000 0.184557896
v 0.003000000 -0.000857771 0.185126914
v -0.039999999 0.002500000 0.191312495
v 0.028252455 0.001321236 0.175568163
v -0.012050085 0.002447297 0.199514501
v -0.035110645 0.001194156 0.190313728
v -0.002260936 -0.002226602 0.189581399
v 0.035683891 0.000033304 0.167999998
v 0.003635557 -0.000720927 0.184000000
v -0.121160276 -0.029981112 0.087406911
v -0.113559567 -0.013490287 0.086216722
v 0.018662109 0.002604460 0.185366246
v 0.035852362 -0.002031993 0.167999998
v 0.037015113 -0.003423880 0.180161749
v 0.027149179 0.001397747 0.180999994
v -0.014730865 -0.005500000 0.201337432
v -0.030415619 0.016000001 0.097653031
v -0.017047655 -0.001182811 0.206000000
v -0.037611014 0.000626622 0.186095685
v 0.026919048 0.009262320 0.166363775
v 0.025443998 -0.001441214 0.167999998
v -0.030148787 0.003716969 0.192534650
v -0.007381141 0.000040755 0.206000000
v -0.005497209 -0.005500000 0.193541095
v 0.037500001 -0.001747067 0.177418759
v -0.112868530 -0.015654266 0.082762868
v 0.005894165 -0.003612782 0.184000000
v -0.017994792 0.000433101 0.190016074
v -0.122882043 -0.026974572 0.080430627
v -0.004469040 -0.005500000 0.204279368
v -0.115048852 -0.015857319 0.087652239
v 0.024499999 0.001583478 0.178562495
v 0.004042575 0.001542395 0.198470923
v 0.017478843 -0.004115022 0.189264896
v 0.005704490 -0.002650958 0.192435080
v 0.032625000 -0.005500000 0.180999994
v -0.125154353 -0.027449844 0.085949139
v -0.032295088 -0.001907949 0.191237783
v 0.033073993 -0.005500000 0.173058943
v 0.012577830 -0.003523943 0.184000000
v 0.007103796 -0.005500000 0.188658728
v -0.018999999 -0.000100806 0.200268492
v -0.012687500 0.002500000 0.188999996
v -0.007179909 -0.001628174 0.200667072
v -0.010834527 -0.003122722 0.202381817
v -0.016459217 0.000321369 0.204058516
v -0.003267676 0.001839016 0.204369663
v -0.121632191 -0.030088654 0.083621189
v 0.032505541 -0.001932349 0.167999998
v -0.026093069 0.002861091 0.196531247
v 0.024499999 -0.001356881 0.171845317
v -0.116770921 -0.022910112 0.090885963
v -0.039999999 0.000747386 0.189771708
v 0.034893746 0.000484400 0.174514382
v 0.013126182 0.002220858 0.190554881
v -0.121475573 -0.027788802 0.084548954
v -0.011799233 -0.002870076 0.206000000
v -0.123985264 -0.017429427 0.092125407
v -0.116710505 -0.017952801 0.092872111
v 0.004451215 0.000580157 0.033623824
v -0.012209568 -0.005500000 0.202174740
v 0.031538509 -0.004167281 0.180999994
v -0.020004771 0.000794985 0.066048380
v -0.039999999 -0.001959773 0.191680701
v -0.008484297 -0.004842417 0.206000000
v -0.109635244 -0.016148028 0.081489039
v 0.024499999 0.001242389 0.179870434
v -0.003732513 0.017890625 0.148393051
v 0.033620325 0.000463137 0.172003500
v -0.026580834 -0.005500000 0.192150977
v -0.034146008 0.002388090 0.191337475
v -0.085981714 0.005531071 0.046238092
v -0.017589760 -0.003959259 0.199638768
v 0.008150895 0.001522480 0.189351533
v 0.003884550 -0.003147170 0.199739759
v -0.110655860 -0.023609475 0.077162375
v 0.033199992 -0.002473220 0.177016620
v -0.114397763 -0.016388437 0.090029725
v -0.039500002 0.018030121 0.097670891
v -0.016465550 -0.002317497 0.196332575
v -0.039999999 0.000172488 0.186781300
v 0.013013097 -0.003598778 0.189227447
v 0.018999999 -0.001309039 0.197595433
v -0.006453675 -0.001223807 0.191827186
v 0.037500001 -0.003500000 0.175312496
v -0.028659155 0.002431647 0.187950931
v 0.027750001 -0.005500000 0.179374994
v 0.037500001 -0.001612848 0.172927633
v 0.034733629 -0.000248102 0.177249065
v -0.123275360 -0.031323489 0.088124790
v -0.119736845 -0.015449281 0.091159280
v -0.120199982 -0.022669226 0.095626787
v 0.016309272 -0.004240167 0.184139504
v -0.004081308 -0.000099268 0.061821510
v 0.005507541 0.002364126 0.187873262
v -0.008134449 -0.005500000 0.189744800
v -0.039999999 -0.003482498 0.182359242
v -0.027765264 0.001703011 0.191904964
v 0.012157523 0.001012923 0.198095731
v -0.030218750 0.002500000 0.195999995
v -0.112352083 -0.016335675 0.089104391
v -0.007787276 -0.003300943 0.203636627
v -0.018999999 0.000887988 0.197084255
v 0.018999999 -0.000299628 0.189237549
v 0.025597557 0.001687402 0.180181935
v -0.112686411 -0.024462626 0.083601519
v -0.028351099 -0.005500000 0.189760878
v -0.018237688 -0.005267755 0.196849546
v -0.028147792 0.000376567 0.195999995
v -0.002679172 -0.005358968 0.192622803
v 0.003000000 0.002500000 0.198000003
v -0.121178528 -0.019941276 0.086922262
v 0.033280822 0.001109589 0.180999994
v -0.012003036 -0.003708168 0.193722374
v -0.016732437 -0.003908815 0.203638726
v 0.008224438 -0.005500000 0.191902435
v 0.037500001 -0.000946491 0.169262637
v 0.008692217 0.002005395 0.196669935
v -0.018999999 -0.002545700 0.200384473
v 0.031975230 0.001063248 0.167999998
v -0.018999999 -0.003851719 0.204733347
v -0.018999999 -0.003359665 0.197634952
v -0.003388055 -0.005500000 0.197004527
v 0.031586000 -0.005500000 0.176813314
v 0.017646000 -0.004305572 0.195540798
v 0.008199609 -0.001372376 0.184000000
v -0.117077174 -0.013128044 0.087267131
v -0.003418109 -0.005500000 0.201419369
v -0.119638195 -0.022170868 0.088618950
v 0.026190163 0.000834272 0.180999994
v -0.018710225 -0.002875000 0.188999996
v 0.034263854 -0.003494483 0.180999994
v -0.118980376 -0.024805046 0.086182077
v 0.020918271 0.021104508 0.087330754
v -0.033800154 0.002604759 0.194630444
v 0.011932367 -0.002069790 0.197355291
v -0.024000000 -0.000268688 0.193269799
v -0.002000000 -0.003813682 0.203351896
v -0.004650049 -0.005259305 0.190225216
v 0.032989775 0.001891763 0.170134654
v -0.004733700 -0.000909075 0.206000000
v -0.124518290 -0.024265944 0.090969597
v -0.118895681 -0.019352437 0.088442076
v 0.011653972 -0.005500000 0.192070078
v -0.107955057 -0.016212226 0.083464646
v -0.011049510 0.000433656 0.201406391
v -0.109070713 -0.018612139 0.086500747
v -0.002648981 -0.004874911 0.188999996
v -0.002000000 0.002500000 0.203874999
v -0.037265973 -0.004851739 0.195617894
v 0.025467580 0.015530322 0.140899168
v -0.018434830 -0.002902096 0.205848516
v 0.032801272 -0.003934687 0.170210208
v 0.011537969 -0.005500000 0.186742460
v -0.003947290 -0.001347266 0.192224895
v -0.025610155 -0.005500000 0.189281432
v -0.014922806 -0.003502789 0.200313549
v -0.002000000 0.002500000 0.204937500
v -0.010749392 -0.005500000 0.193880771
v -0.012407393 -0.003310885 0.190832913
v 0.026333530 0.000980248 0.177563222
v -0.126193237 -0.022749118 0.087731336
v -0.002000000 -0.004728389 0.199736923
v -0.033390133 -0.005500000 0.188763506
v 0.008226255 -0.003213284 0.187611324
v 0.005734375 0.002500000 0.200000003
v -0.024000000 -0.000621132 0.184574145
v 0.024499999 -0.004410911 0.173678672
v -0.107271810 -0.018565976 0.083855269
v -0.119606878 -0.016818134 0.092738560
v -0.110867454 -0.014973329 0.086852252
v 0.018419982 -0.005500000 0.193897234
v -0.121822828 -0.016595962 0.091115911
v -0.121380184 -0.017726196 0.094570090
v -0.108644870 -0.014223413 0.083924314
v -0.039999999 -0.003476625 0.186170026
v 0.018500000 0.018660620 0.097592161
v -0.119450708 -0.018238241 0.094367979
v -0.024000000 -0.001982675 0.182721474
v -0.008994808 0.000649355 0.196624719
v 0.015039125 0.004239996 0.190446644
v -0.002000000 -0.004663341 0.197612661
v 0.024906249 -0.005025065 0.168838652
v -0.015602565 -0.005500000 0.195428245
v -0.003161721 -0.005500000 0.198562498
v 0.003000000 -0.001965298 0.186925376
v -0.018999999 -0.001321802 0.197690018
v 0.037500001 0.000989559 0.179559259
v -0.122661317 -0.031514707 0.086025790
v -0.121301406 -0.024570469 0.087638815
v -0.016498313 -0.001988753 0.201730931
v 0.009690349 -0.005500000 0.197498951
v 0.013579633 -0.003818285 0.197019672
v -0.117355098 -0.017887515 0.090180114
v 0.010458557 -0.003000000 0.078079161
v 0.011683892 -0.003000000 0.050455407
v -0.006386691 0.000664698 0.202782573
v -0.025802560 -0.000761384 0.180999994
v -0.011908832 0.000335455 0.195944629
v 0.009776133 -0.001575740 0.196800283
v 0.024499999 -0.000379167 0.179174223
v -0.032579732 0.001901963 0.184572922
v 0.027445369 -0.004352233 0.167999998
v -0.034299274 0.004860512 0.113976131
v -0.013401530 -0.005500000 0.193003122
v -0.025141475 -0.003000000 0.048919055
v -0.029761716 -0.000639324 0.184823056
v -0.030643088 -0.002101637 0.180999994
v 0.018264828 -0.004529659 0.200000003
v 0.003504227 -0.004827321 0.184814630
v -0.119524181 -0.024192196 0.081657056
v -0.016155530 0.001212264 0.188999996
v 0.000778098 0.015145749 0.094999999
v 0.012803524 -0.005002321 0.200000003
v -0.002521894 -0.002935938 0.205729861
v -0.115534788 -0.023532972 0.088483439
v 0.027389046 -0.002381127 0.167999998
v 0.017576122 0.000258518 0.061566258
v -0.009020783 -0.005500000 0.196635858
v 0.015092029 -0.003211802 0.193894775
v 0.011904389 -0.005500000 0.196007290
v 0.010156342 -0.003566959 0.184000000
v -0.128476040 -0.025779335 0.085622069
v -0.112851079 -0.028211660 0.078274671
v 0.015206432 -0.005500000 0.196154295
v -0.011697986 -0.001020458 0.206000000
v -0.037859109 -0.003297922 0.182675717
v -0.013029746 -0.003501658 0.202806293
v -0.039500002 0.021000000 0.096624999
v -0.013609976 -0.005500000 0.190328248
v 0.013749999 -0.005500000 0.184000000
v 0.024499999 -0.002406209 0.177332223
v -0.030368479 0.003182467 0.187163103
v -0.018999999 0.001238934 0.192676960
v -0.010565745 -0.005500000 0.191106349
v 0.010715248 -0.004745890 0.200000003
v -0.122770123 -0.028630645 0.091233535
v 0.029247940 -0.004392451 0.180999994
v -0.117921658 -0.020989818 0.091365416
v 0.008096546 -0.005186913 0.199651408
v -0.122024793 -0.016450099 0.093318483
v -0.117585724 -0.018809142 0.094263313
v 0.004657807 0.002682638 0.185033186
v -0.012973346 -0.003745162 0.196044644
v 0.003000000 -0.001872391 0.196485532
v -0.116511803 -0.019631863 0.094792728
v -0.024000000 -0.001110193 0.190745555
v 0.026735658 -0.000551043 0.176665562
v -0.024000000 -0.005240956 0.192961624
v -0.030285983 -0.005500000 0.191512139
v -0.121576672 -0.021836372 0.095488060
v -0.030971136 0.001098700 0.180999994
v -0.014749999 -0.005500000 0.188999996
v 0.024499999 -0.002640388 0.179847649
v -0.024000000 -0.004168086 0.189127393
v 0.018999999 -0.004457835 0.195060396
v -0.026122870 -0.005500000 0.184179079
v 0.024499999 -0.002014816 0.174118810
v 0.037500001 0.000440931 0.170923246
v -0.034182427 0.001455292 0.194470603
v -0.034731027 -0.000939720 0.195999995
v -0.114560121 -0.019409066 0.092560086
v -0.028296259 -0.003214784 0.192593713
v -0.110158553 -0.021239830 0.078742840
v 0.037500001 -0.003698833 0.172388438
v -0.015763556 0.000892562 0.194540734
v -0.126518128 -0.027050263 0.081448776
v 0.016860230 -0.005500000 0.198317648
v 0.009145329 -0.003601134 0.195265748
v -0.122906003 -0.021551807 0.094022447
v -0.024000000 0.000765545 0.185082113
v 0.035613169 -0.003524720 0.173020508
v -0.124256998 -0.020929909 0.090223882
v 0.028910320 -0.003097106 0.171178502
v -0.032764008 -0.000739279 0.180999994
v 0.007566732 -0.005500000 0.193885220
v 0.035315885 -0.002363412 0.171556689
v 0.034380212 -0.001227237 0.175253370
v -0.015500000 0.002500000 0.188999996
v 0.025998930 0.019993363 0.100630068
v -0.037915017 -0.003880898 0.189101560
v 0.005298765 -0.005500000 0.197230132
v 0.010191307 0.020360471 0.181620975
v 0.031713087 -0.001210028 0.170355260
v 0.015263942 0.000317738 0.197639706
v -0.029273663 0.000798669 0.190264691
v 0.024499999 0.000032985 0.175566580
v -0.110630397 -0.024665068 0.080683938
v 0.037212241 -0.005500000 0.168694008
v -0.120292500 -0.021209017 0.092342026
v 0.003000000 0.002500000 0.191687501
v -0.123885386 -0.030338163 0.087226001
v -0.004955478 0.001251899 0.206000000
v 0.009539744 -0.000141168 0.186248127
v 0.028643634 0.001362305 0.170225553
v -0.030262689 -0.004211068 0.189736269
v -0.034228774 -0.005500000 0.186219446
v -0.127355096 -0.027072157 0.083867904
v 0.006184476 -0.004000850 0.200000003
v -0.029555209 -0.005500000 0.193490294
v -0.005748327 -0.002859034 0.188999996
v -0.003952182 -0.004297823 0.206000000
v -0.033841808 -0.003589782 0.195999995
v -0.122627951 -0.024726022 0.093030630
v 0.018999999 -0.002968429 0.196107699
v 0.014436173 -0.002042676 0.200000003
v -0.112484226 -0.014226040 0.080826984
v -0.117608605 -0.023010367 0.084438380
v 0.024499999 0.001500000 0.180999994
v -0.035177573 0.004166672 0.193404796
v 0.003248162 -0.004918816 0.194097101
v -0.118618023 -0.020364826 0.094217237
v -0.029734462 0.000935993 0.186777142
v -0.015299200 -0.001330265 0.197725113
v 0.032098129 -0.004963148 0.167999998
v -0.128546175 -0.028354131 0.084465170
v -0.038278135 0.001195020 0.180999994
v -0.108378972 -0.020923162 0.082617216
v 0.035167757 -0.003848840 0.167999998
v -0.119315102 -0.027729717 0.079828449
v -0.016502659 0.001320025 0.201542817
v -0.030161328 0.002893662 0.189942993
v 0.005048038 0.019994501 0.099483959
v -0.115811861 -0.020145139 0.087868048
v -0.016158400 -0.000046180 0.188999996
v 0.003000000 -0.005000000 0.200000003
v 0.005351970 -0.005500000 0.184515622
v -0.108887410 -0.017590936 0.081778789
v 0.018999999 -0.003492406 0.198727985
v -0.026555007 0.002001960 0.182021309
v -0.030652287 -0.003086166 0.194169923
v -0.039999999 0.002500000 0.186039057
v -0.116362436 -0.020789708 0.093101756
v -0.122047801 -0.029352371 0.089366763
v 0.036750490 -0.005500000 0.173336644
v -0.110306558 -0.011597496 0.082585910
v 0.009793655 -0.000466299 0.200000003
v -0.018869696 -0.000937736 0.205251035
v -0.120923579 -0.024616716 0.094041728
v 0.011999501 -0.002831784 0.200000003
v -0.029080016 -0.005143924 0.195694373
v 0.016533656 0.001851425 0.198594477
v 0.024055922 0.012783329 0.119093667
v -0.027440295 -0.005500000 0.186802536
v -0.039999999 -0.004665749 0.191813819
v 0.024499999 -0.003638481 0.176403407
v -0.003900393 0.001932731 0.202730831
v -0.013398737 -0.003475983 0.188999996
v 0.036387223 0.001622561 0.169300433
v 0.009536603 -0.004263809 0.198082984
v -0.024000000 0.000833961 0.182647936
v -0.026904180 0.011232992 0.178824991
v 0.027597784 -0.001935930 0.177719323
v 0.016545670 -0.002171385 0.200000003
v 0.028306477 -0.005500000 0.173873804
v 0.008516228 -0.005152569 0.184429211
v 0.009558306 -0.005500000 0.186464227
v -0.042230826 0.017373193 0.094999999
v 0.024750791 -0.002971184 0.168527749
v -0.024000000 0.001200143 0.190002164
v -0.064942583 0.018132592 0.031199216
v -0.025514061 0.001528591 0.185343843
v -0.119866622 -0.019797079 0.096404167
v -0.032448603 -0.005500000 0.192233485
v 0.031586600 0.001471631 0.172503984
v -0.109173623 -0.024008370 0.079033690
v -0.024000000 -0.001221331 0.195112558
v 0.003000000 0.000181814 0.194373303
v 0.014516024 -0.005500000 0.192907574
v -0.025296076 -0.005500000 0.181283517
v -0.026581129 -0.003470673 0.189820051
v 0.024499999 -0.003361130 0.171140109
v -0.107626967 -0.014912826 0.085414010
v 0.037500001 0.001513930 0.177578942
v -0.107923126 -0.016798019 0.086546309
v 0.037500001 0.002500000 0.172062497
v 0.005629602 -0.002654187 0.189782566
v 0.035913772 -0.005500000 0.171110484
v -0.015080271 -0.002256463 0.194130403
v -0.035999333 -0.002404336 0.187318952
v -0.017716517 0.016000001 0.097438989
v -0.015129360 0.000241020 0.206000000
v 0.006676922 -0.002748072 0.197587398
v -0.112765737 -0.024197518 0.074402793
v -0.010386057 0.002831203 0.203032542
v 0.006374228 -0.001145044 0.200000003
v -0.018698483 -0.005500000 0.201240078
v 0.005376573 0.017970657 0.147932610
v -0.012593411 0.000854973 0.198811057
v 0.012547042 -0.003000000 0.040458919
v -0.127026742 -0.024539060 0.087866291
v -0.031272222 -0.005500000 0.188006381
v -0.119328678 -0.025198210 0.091229320
v 0.003000000 -0.003877530 0.197565605
v -0.118729470 -0.023673721 0.092427762
v 0.034570098 -0.005392052 0.168681040
v -0.002500000 0.019087099 0.096832348
v 0.018999999 -0.004976601 0.191517588
v 0.037000000 0.018562500 0.136388723
v 0.008460227 -0.000478276 0.197733280
v 0.034855002 0.008781776 0.181601084
v -0.011602865 -0.003000000 0.074325720
v -0.120979912 -0.027351554 0.090576111
v -0.014780214 0.000068626 0.190510174
v 0.036468751 0.017281251 0.161975609
v -0.024712277 -0.005500000 0.186791575
v -0.123276855 -0.016425745 0.093817212
v -0.002000000 0.002500000 0.193781247
v -0.007796312 -0.003000000 0.055490121
v -0.034812532 0.002091051 0.186940187
v 0.016710809 0.019500000 0.140146336
v -0.024000000 -0.000094317 0.188353872
v 0.025035926 -0.001454666 0.180999994
v -0.110687891 -0.018248270 0.079359046
v -0.024065941 -0.004243728 0.183703645
v -0.038806153 -0.000734357 0.041723465
v -0.035624999 -0.005259521 0.195999995
v -0.106395425 -0.016312888 0.085759530
v -0.008983984 0.000650999 0.052214292
v 0.014934245 -0.003960197 0.200000003
v 0.024499999 0.000983049 0.176937495
v -0.121549718 -0.026583534 0.092305781
v -0.114249135 -0.024552710 0.085503466
v -0.039693352 -0.005500000 0.185842193
v -0.013441878 0.000063378 0.204617809
v -0.122133709 -0.019191439 0.095693779
v -0.018723277 -0.005500000 0.195221191
v -0.012569812 0.002390103 0.195006004
v -0.011018812 0.006401974 0.103000002
v -0.002000000 0.000243520 0.204297176
v -0.039999999 -0.003341078 0.194708059
v 0.025411145 0.002132729 0.168961423
v 0.031031330 -0.003335962 0.175665823
v 0.015176906 0.001353343 0.192007160
v 0.032323814 -0.005500000 0.170295405
v -0.006121058 0.001569833 0.199757755
v 0.005377754 0.016000001 0.098791018
v -0.002000000 0.001396402 0.195379983
v -0.016930189 -0.005500000 0.205036622
v -0.123718943 -0.026423052 0.091023021
v 0.014950442 -0.003644622 0.187299577
v -0.024000000 -0.002830384 0.192993486
v 0.037574220 0.003438617 0.169461895
v -0.122904363 -0.015044692 0.092314054
v -0.024000000 -0.002784386 0.186971746
v 0.036171398 0.001680686 0.173010410
v -0.112580534 -0.022086809 0.083535899
v 0.024499999 -0.004335386 0.179686520
v -0.018999999 -0.000304869 0.202735369
v 0.003298251 -0.000906250 0.199281253
v -0.125285481 -0.030810183 0.086022546
v -0.038770230 0.002117267 0.194764504
v -0.123719871 -0.028347224 0.090219814
v 0.016626099 -0.005500000 0.190631411
v 0.015808568 -0.005500000 0.188390585
v -0.003005272 -0.003456327 0.190919458
v -0.119569554 -0.021533624 0.096281753
v -0.024290070 -0.005500000 0.190837799
v -0.032544689 0.001200533 0.193902229
v -0.093989113 0.001407966 0.043952951
v -0.009377156 -0.002553405 0.206000000
v -0.111338514 -0.020071194 0.082556880
v -0.113911512 -0.019582269 0.084739363
v -0.002281047 -0.001062216 0.206000000
v -0.039999999 -0.000305516 0.183135655
v 0.026827273 -0.005500000 0.176187498
v 0.012709690 0.000939572 0.184000000
v 0.037500001 -0.000500000 0.167999998
v -0.010736863 -0.001787250 0.200369043
v 0.017502055 0.002125836 0.187816567
v 0.025352364 0.001042131 0.179509357
v 0.029293170 -0.005500000 0.180192995
v 0.026869644 -0.001453080 0.172765488
v 0.033829452 -0.005500000 0.178839380
v -0.122278556 -0.024377582 0.090506458
v 0.003000000 0.001500000 0.200000003
v -0.035721684 0.009889202 0.140400168
v 0.018850579 0.016894883 0.107654667
v 0.006592792 0.001393885 0.192609567
v -0.035406155 -0.002709632 0.195999995
v 0.025450730 -0.005500000 0.174393742
v -0.019750000 0.002500000 0.194710935
v 0.033318543 0.019118331 0.141409320
v 0.007908819 -0.005500000 0.196424100
v 0.003000000 -0.002967262 0.194144483
v -0.012843751 0.002500000 0.206000000
v 0.026734375 -0.005500000 0.180796869
v -0.113520468 -0.021464988 0.074642409
v -0.032471884 0.001125436 0.195999995
v -0.038550536 0.002507583 0.181235063
v -0.009514603 -0.000097134 0.200305049
v -0.007753841 -0.005500000 0.191814695
v -0.117818385 -0.025212131 0.089260532
v -0.034552786 -0.005500000 0.192859697
v -0.117737286 -0.029644739 0.081449382
v 0.014134611 0.016972605 0.174994466
v -0.124877715 -0.022656769 0.086305666
v -0.112230248 -0.021079055 0.076340910
v -0.122085004 -0.022841086 0.094463433
v -0.114766132 -0.025493480 0.075241340
v -0.026767798 -0.001998265 0.195999995
v -0.124479630 -0.017620182 0.093785988
v -0.035952463 -0.004975539 0.181917596
v 0.004728622 -0.005500000 0.189544839
v -0.025000000 0.011500000 -0.009900000
v 0.010973773 0.001382318 0.193785289
v -0.017046898 0.001259150 0.206000000
v -0.002344489 0.020351519 0.094999999
v 0.020500001 0.004650022 0.189141274
v -0.030957032 0.021375000 0.096537270
v 0.009077177 0.005053137 0.115151171
v -0.010500000 0.000000000 0.091000000
v 0.037500001 -0.002552271 0.169129606
v -0.029186223 0.018275119 0.098221007
v -0.025552224 0.016379091 0.092159418
v -0.104579930 -0.014246639 0.059269119
v -0.025865132 0.021937500 0.090045589
v 0.000494231 0.000156250 0.015767400
f 1045 1 580
f 1 1139 580
f 933 774 1
f 774 1139 1
f 1045 933 1
f 613 494 2
f 2 494 931
f 613 2 931
f 597 1130 3
f 1169 597 3
f 1130 1169 3
f 4 112 161
f 396 112 4
f 152 510 4
f 644 152 4
f 4 161 685
f 510 396 4
f 644 4 685
f 254 51 5
f 51 521 5
f 238 5 140
f 5 521 140
f 238 209 5
f 254 5 209
f 6 591 9
f 602 6 9
f 105 75 6
f 75 159 6
f 6 602 105
f 591 6 159
f 699 7 84
f 1192 84 7
f 662 147 7
f 1199 7 147
f 699 662 7
f 7 1199 1192
f 21 42 8
f 21 8 131
f 42 260 8
f 46 234 8
f 260 46 8
f 8 1111 131
f 8 234 1111
f 22 9 591
f 9 22 886
f 1159 602 9
f 1159 9 886
f 78 14 10
f 10 14 750
f 10 95 78
f 10 750 95
f 11 352 19
f 11 19 1193
f 352 11 1160
f 1193 1160 11
f 285 12 41
f 41 12 1025
f 12 65 54
f 12 54 1025
f 12 833 65
f 285 833 12
f 159 13 109
f 13 243 109
f 1034 13 159
f 13 1172 243
f 512 13 1034
f 1172 13 512
f 89 14 43
f 43 14 175
f 165 14 78
f 14 89 750
f 14 165 129
f 175 14 129
f 177 15 237
f 15 177 618
f 15 391 237
f 355 15 318
f 318 15 618
f 15 355 391
f 16 1000 517
f 1048 16 517
f 1048 946 16
f 16 946 1096
f 1000 16 1010
f 1096 1010 16
f 618 17 50
f 17 1198 50
f 17 172 77
f 17 77 1198
f 17 115 200
f 17 949 115
f 17 138 172
f 200 138 17
f 17 618 370
f 17 370 949
f 435 106 18
f 18 106 702
f 309 130 18
f 18 130 435
f 1083 309 18
f 702 1083 18
f 38 19 120
f 19 38 1193
f 120 19 352
f 20 521 306
f 306 725 20
f 20 725 521
f 549 42 21
f 1079 21 131
f 1190 549 21
f 1079 1190 21
f 55 22 84
f 55 886 22
f 84 22 1159
f 1159 22 591
f 495 101 23
f 23 101 603
f 23 205 235
f 205 23 603
f 213 23 374
f 416 23 213
f 23 235 374
f 23 416 1200
f 1200 495 23
f 120 71 24
f 164 24 71
f 83 120 24
f 185 83 24
f 164 185 24
f 200 25 318
f 25 200 1126
f 25 809 318
f 809 25 1126
f 349 26 121
f 593 121 26
f 320 158 26
f 158 443 26
f 320 26 201
f 26 349 201
f 593 26 348
f 26 965 348
f 26 443 1191
f 26 1191 965
f 27 246 99
f 953 27 99
f 953 246 27
f 28 1005 38
f 28 38 1160
f 1005 28 203
f 1160 203 28
f 833 29 106
f 106 29 1087
f 833 285 29
f 285 1165 29
f 1087 29 1165
f 327 30 110
f 30 877 110
f 30 327 145
f 30 145 1084
f 342 877 30
f 30 1084 342
f 293 31 445
f 293 548 31
f 410 445 31
f 554 410 31
f 548 554 31
f 985 558 32
f 558 1046 32
f 667 985 32
f 32 1023 667
f 982 1023 32
f 982 32 1046
f 436 267 33
f 1133 33 267
f 389 436 33
f 33 1133 389
f 205 34 40
f 34 415 40
f 205 48 34
f 48 321 34
f 321 122 34
f 122 415 34
f 238 140 35
f 35 140 1090
f 35 209 238
f 689 209 35
f 271 236 35
f 689 35 236
f 271 35 1120
f 1120 35 1090
f 36 219 806
f 1154 219 36
f 718 744 36
f 1156 718 36
f 36 744 920
f 806 1156 36
f 1154 36 920
f 1050 290 37
f 1167 37 290
f 927 577 37
f 577 1050 37
f 1167 927 37
f 71 38 164
f 38 71 1093
f 120 185 38
f 38 185 164
f 1005 1119 38
f 1160 38 1093
f 1193 38 1119
f 39 234 46
f 39 46 750
f 474 39 89
f 39 750 89
f 39 474 234
f 415 122 40
f 122 1043 40
f 40 1043 205
f 41 60 54
f 54 350 41
f 41 207 60
f 207 41 1025
f 41 350 285
f 42 549 260
f 89 43 78
f 43 165 78
f 165 43 175
f 356 92 44
f 786 44 92
f 404 44 113
f 113 44 786
f 404 356 44
f 87 45 99
f 87 1034 45
f 45 732 99
f 109 112 45
f 1034 109 45
f 732 45 112
f 260 95 46
f 750 46 95
f 75 105 47
f 159 75 47
f 109 47 105
f 109 1034 47
f 1034 159 47
f 205 603 48
f 339 321 48
f 48 1200 339
f 603 1187 48
f 48 1187 1200
f 138 50 172
f 138 618 50
f 1198 172 50
f 402 198 51
f 521 51 198
f 254 402 51
f 55 206 52
f 886 55 52
f 206 761 52
f 886 52 699
f 1040 699 52
f 761 1040 52
f 53 213 374
f 53 416 213
f 374 637 53
f 637 416 53
f 60 1025 54
f 54 65 1081
f 350 54 1081
f 55 84 206
f 511 56 122
f 1043 122 56
f 308 193 56
f 56 193 586
f 413 308 56
f 413 56 511
f 1043 56 586
f 117 57 93
f 57 173 93
f 57 117 1168
f 173 57 639
f 705 57 224
f 57 1168 224
f 975 639 57
f 705 975 57
f 184 58 128
f 58 283 128
f 283 58 145
f 663 145 58
f 184 888 58
f 58 888 663
f 59 840 639
f 639 975 59
f 975 823 59
f 823 1146 59
f 1112 840 59
f 1146 1112 59
f 98 60 207
f 98 816 60
f 816 962 60
f 962 1025 60
f 186 859 61
f 895 186 61
f 859 1160 61
f 895 61 1119
f 61 1193 1119
f 61 1160 1193
f 326 62 66
f 702 66 62
f 124 62 412
f 62 124 702
f 62 153 169
f 326 153 62
f 412 62 169
f 63 567 964
f 63 993 567
f 1076 63 964
f 993 63 1167
f 1076 1167 63
f 65 833 1165
f 65 1165 1081
f 326 66 545
f 66 702 545
f 67 326 545
f 326 67 703
f 449 67 731
f 449 899 67
f 545 802 67
f 67 899 703
f 731 67 802
f 204 730 69
f 1177 204 69
f 632 69 730
f 69 632 1002
f 1002 1177 69
f 278 70 618
f 278 1066 70
f 295 618 70
f 70 1066 295
f 71 120 1093
f 1088 939 72
f 939 1097 72
f 1097 1088 72
f 217 74 906
f 1177 74 217
f 424 74 427
f 424 906 74
f 74 1002 427
f 1177 1002 74
f 77 172 359
f 77 359 304
f 1142 77 304
f 77 1142 1198
f 78 474 89
f 95 474 78
f 434 450 79
f 434 79 832
f 450 460 79
f 1176 79 460
f 558 1099 79
f 558 79 1176
f 1099 832 79
f 80 865 538
f 538 1163 80
f 850 1054 80
f 850 80 1163
f 1054 865 80
f 81 628 274
f 81 274 654
f 628 81 596
f 81 712 596
f 654 810 81
f 81 810 712
f 353 520 82
f 651 353 82
f 82 520 597
f 597 920 82
f 744 651 82
f 744 82 920
f 83 1178 120
f 83 185 139
f 965 83 139
f 83 965 1178
f 84 1192 206
f 84 886 699
f 886 84 1159
f 832 85 434
f 85 1113 434
f 640 1113 85
f 1162 640 85
f 1162 85 832
f 335 677 86
f 335 86 732
f 86 351 732
f 86 1049 351
f 677 1049 86
f 246 87 99
f 187 296 87
f 1033 187 87
f 296 190 87
f 624 87 190
f 246 1033 87
f 624 512 87
f 1034 87 512
f 92 88 104
f 496 88 92
f 88 508 104
f 464 508 88
f 574 464 88
f 496 1137 88
f 574 88 620
f 88 1137 620
f 549 147 90
f 147 1063 90
f 549 90 384
f 90 1063 384
f 548 127 91
f 127 939 91
f 522 548 91
f 91 1026 522
f 91 939 1026
f 786 92 104
f 356 1080 92
f 92 1080 496
f 93 175 117
f 140 93 171
f 93 140 521
f 175 93 165
f 93 521 165
f 93 831 171
f 173 831 93
f 94 1015 580
f 580 1139 94
f 1015 94 734
f 1077 734 94
f 774 1077 94
f 1139 774 94
f 95 260 234
f 234 474 95
f 217 96 400
f 96 217 906
f 542 400 96
f 96 906 542
f 249 186 98
f 98 186 483
f 207 392 98
f 392 249 98
f 816 98 483
f 99 732 377
f 377 1042 99
f 1094 953 99
f 99 1042 1094
f 100 480 232
f 1105 100 232
f 1000 480 100
f 788 517 100
f 517 1000 100
f 1105 788 100
f 103 101 495
f 101 103 603
f 1187 103 495
f 103 1187 603
f 786 104 508
f 109 105 159
f 105 591 159
f 602 591 105
f 702 106 130
f 106 1087 130
f 106 435 1165
f 1165 833 106
f 108 363 255
f 255 916 108
f 539 363 108
f 513 539 108
f 600 513 108
f 600 108 642
f 108 916 642
f 112 109 161
f 109 243 161
f 194 182 110
f 182 483 110
f 877 194 110
f 483 327 110
f 396 782 112
f 112 782 732
f 404 113 334
f 443 334 113
f 343 443 113
f 343 113 786
f 115 135 200
f 115 1073 135
f 998 905 115
f 115 905 1073
f 949 998 115
f 383 116 233
f 528 233 116
f 400 116 383
f 116 400 1105
f 528 116 1175
f 116 1105 898
f 1175 116 898
f 117 175 1164
f 117 527 225
f 1168 117 225
f 117 1164 527
f 195 370 119
f 427 195 119
f 295 119 370
f 295 1182 119
f 427 119 1182
f 185 120 139
f 1178 139 120
f 1093 120 352
f 988 349 121
f 593 1019 121
f 1022 988 121
f 1019 1022 121
f 144 122 321
f 144 511 122
f 264 907 123
f 123 938 264
f 565 854 123
f 1051 565 123
f 854 938 123
f 907 1051 123
f 412 714 124
f 423 124 470
f 124 423 1083
f 124 991 470
f 124 1083 702
f 749 124 714
f 749 991 124
f 644 438 126
f 438 746 126
f 644 126 640
f 126 1113 640
f 126 746 1113
f 127 293 141
f 1052 127 141
f 548 293 127
f 1052 939 127
f 145 275 128
f 145 128 283
f 128 275 184
f 129 165 521
f 129 521 175
f 1125 130 309
f 130 1087 435
f 545 702 130
f 545 130 1125
f 147 131 168
f 147 895 131
f 1111 168 131
f 131 895 1079
f 712 132 596
f 132 984 596
f 712 820 132
f 820 897 132
f 897 984 132
f 134 133 527
f 1020 133 134
f 1189 527 133
f 1020 1189 133
f 338 134 527
f 338 1131 134
f 134 1131 1020
f 287 200 135
f 135 507 287
f 1073 507 135
f 594 136 669
f 136 594 1185
f 665 779 136
f 665 136 1185
f 779 669 136
f 138 200 318
f 138 318 618
f 179 965 139
f 1178 179 139
f 171 1090 140
f 141 293 280
f 280 880 141
f 564 141 880
f 1052 141 564
f 511 144 321
f 327 275 145
f 145 663 1084
f 878 194 146
f 1091 146 194
f 146 888 361
f 1200 146 361
f 416 1072 146
f 416 146 1200
f 146 1072 878
f 888 146 1091
f 1063 147 168
f 275 189 147
f 895 147 189
f 275 147 662
f 147 549 1190
f 1190 1199 147
f 1147 251 150
f 150 251 1172
f 999 669 150
f 669 1147 150
f 999 150 1172
f 151 193 199
f 151 586 193
f 151 199 321
f 151 321 205
f 586 151 205
f 640 510 152
f 644 640 152
f 153 218 169
f 703 218 153
f 326 703 153
f 182 155 483
f 155 182 637
f 155 235 205
f 155 205 816
f 374 235 155
f 374 155 637
f 816 483 155
f 175 202 156
f 175 156 299
f 1007 156 202
f 642 299 156
f 1007 642 156
f 320 245 158
f 245 765 158
f 404 334 158
f 334 443 158
f 765 404 158
f 243 685 161
f 508 344 162
f 344 621 162
f 362 508 162
f 621 362 162
f 168 1111 1063
f 218 733 169
f 169 462 412
f 169 969 462
f 940 169 733
f 969 169 940
f 171 421 222
f 222 1120 171
f 171 227 421
f 171 831 227
f 1120 1090 171
f 172 1198 359
f 639 840 173
f 831 173 840
f 202 175 894
f 175 299 330
f 1164 175 330
f 175 521 961
f 175 961 894
f 461 836 176
f 1137 461 176
f 176 775 620
f 1137 176 620
f 176 913 775
f 176 836 913
f 237 1180 177
f 177 1170 618
f 1170 177 1180
f 179 694 178
f 179 178 925
f 1149 178 694
f 925 178 1149
f 793 348 179
f 348 965 179
f 1191 694 179
f 973 793 179
f 925 973 179
f 179 1178 1191
f 182 194 878
f 637 182 878
f 489 205 184
f 1098 184 205
f 184 275 662
f 489 184 1040
f 184 662 1040
f 888 184 1098
f 483 186 189
f 186 895 189
f 203 859 186
f 1190 203 186
f 962 186 249
f 962 816 186
f 186 816 1190
f 880 296 187
f 880 187 861
f 187 1033 861
f 275 1194 189
f 327 483 189
f 189 1194 327
f 880 190 296
f 880 624 190
f 511 199 193
f 193 308 754
f 193 413 511
f 413 193 754
f 194 877 342
f 1091 194 342
f 711 370 195
f 1002 195 427
f 1002 711 195
f 402 306 198
f 306 521 198
f 199 511 321
f 1126 200 287
f 320 201 245
f 324 245 201
f 349 324 201
f 1007 202 894
f 859 203 1160
f 1005 203 1190
f 322 204 233
f 204 383 233
f 204 322 730
f 1177 383 204
f 339 205 321
f 205 339 1098
f 205 489 1199
f 205 1043 586
f 816 205 1199
f 911 761 206
f 1192 911 206
f 392 207 249
f 249 207 962
f 1025 962 207
f 254 209 252
f 689 252 209
f 695 215 1001
f 695 1195 215
f 215 947 1060
f 215 1195 947
f 971 1001 215
f 971 215 1060
f 400 383 217
f 383 1177 217
f 1041 218 703
f 1054 733 218
f 1041 1054 218
f 219 627 806
f 1037 627 219
f 219 769 1148
f 1154 769 219
f 1037 219 1148
f 271 222 301
f 271 1120 222
f 222 452 301
f 421 452 222
f 617 657 224
f 617 224 1168
f 224 657 705
f 1189 225 527
f 1189 1168 225
f 288 421 227
f 1112 288 227
f 1112 227 831
f 533 265 228
f 228 265 743
f 533 228 531
f 698 531 228
f 228 743 698
f 589 332 232
f 1105 232 332
f 480 829 232
f 544 589 232
f 232 829 544
f 233 871 322
f 692 233 528
f 233 692 871
f 234 260 1111
f 271 301 236
f 236 301 486
f 792 236 486
f 236 830 689
f 236 792 830
f 237 391 1096
f 1096 1180 237
f 240 858 467
f 467 1027 240
f 746 579 240
f 858 240 579
f 746 240 1027
f 243 1014 685
f 1172 1014 243
f 324 765 245
f 953 1033 246
f 747 596 248
f 596 984 248
f 248 823 705
f 705 1143 248
f 1143 747 248
f 248 897 823
f 984 897 248
f 251 1147 357
f 1172 251 357
f 252 402 254
f 252 385 402
f 252 983 385
f 689 983 252
f 255 363 869
f 869 785 255
f 255 785 916
f 476 385 256
f 385 983 256
f 650 476 256
f 650 256 778
f 821 778 256
f 983 821 256
f 341 258 1108
f 341 1184 258
f 622 1108 258
f 258 1184 622
f 549 384 260
f 260 384 1111
f 769 261 1148
f 769 1169 261
f 1130 1028 261
f 1028 1163 261
f 1130 261 1169
f 1163 1148 261
f 891 950 264
f 1011 891 264
f 950 907 264
f 987 264 938
f 987 1011 264
f 518 265 274
f 265 901 274
f 518 743 265
f 533 901 265
f 315 266 267
f 267 266 1133
f 315 632 266
f 730 266 632
f 730 871 266
f 871 1133 266
f 267 998 315
f 998 267 436
f 346 268 290
f 268 481 290
f 346 305 268
f 305 684 268
f 481 268 463
f 268 868 463
f 868 268 684
f 504 270 1132
f 504 1158 270
f 270 577 1132
f 270 1158 577
f 628 518 274
f 901 654 274
f 1194 275 327
f 1170 278 618
f 278 1170 1066
f 280 293 890
f 624 880 280
f 934 624 280
f 280 890 934
f 554 281 410
f 1185 410 281
f 554 516 281
f 281 516 1185
f 350 1081 285
f 1081 1165 285
f 286 691 535
f 535 925 286
f 681 691 286
f 681 286 925
f 622 287 507
f 622 1184 287
f 1184 1126 287
f 336 820 288
f 336 288 1112
f 421 288 452
f 845 452 288
f 820 845 288
f 1050 346 290
f 536 290 481
f 536 1167 290
f 890 293 445
f 295 370 618
f 295 1066 1182
f 297 379 306
f 297 306 402
f 297 476 379
f 385 297 402
f 385 476 297
f 760 298 532
f 773 532 298
f 693 298 550
f 550 298 760
f 298 693 809
f 809 773 298
f 330 299 916
f 916 299 642
f 301 452 845
f 486 301 475
f 864 475 301
f 845 864 301
f 304 754 308
f 1142 304 308
f 413 304 359
f 413 754 304
f 973 305 346
f 535 684 305
f 925 535 305
f 973 925 305
f 379 725 306
f 307 1007 407
f 407 1030 307
f 573 813 307
f 1030 573 307
f 642 307 813
f 642 1007 307
f 1142 308 413
f 682 309 393
f 309 1083 393
f 1058 309 682
f 1058 1125 309
f 678 311 583
f 583 311 696
f 651 311 678
f 311 651 814
f 814 696 311
f 709 808 314
f 1038 709 314
f 314 808 904
f 1038 314 904
f 711 632 315
f 315 949 711
f 315 998 949
f 318 1018 355
f 679 318 456
f 809 456 318
f 679 1018 318
f 871 730 322
f 1036 324 349
f 324 1011 765
f 891 1011 324
f 891 324 1036
f 916 1164 330
f 898 332 589
f 898 1105 332
f 791 677 335
f 732 791 335
f 897 820 336
f 1146 897 336
f 1112 1146 336
f 338 527 724
f 724 1131 338
f 361 888 339
f 339 1200 361
f 888 1098 339
f 922 918 340
f 918 1022 340
f 981 922 340
f 981 340 1068
f 1019 340 1022
f 1068 340 1019
f 856 1089 341
f 856 341 1108
f 1089 1126 341
f 1126 1184 341
f 342 1084 663
f 1091 342 663
f 343 694 443
f 343 508 694
f 786 508 343
f 344 508 464
f 775 344 464
f 621 344 775
f 346 1050 973
f 348 848 593
f 793 1158 348
f 348 1158 848
f 349 988 1036
f 377 732 351
f 377 351 819
f 351 1049 819
f 352 1160 1093
f 353 423 470
f 353 795 423
f 697 353 470
f 812 520 353
f 651 795 353
f 697 812 353
f 748 391 355
f 468 355 679
f 857 355 468
f 355 1018 679
f 355 857 748
f 404 938 356
f 938 854 356
f 1080 356 854
f 763 357 498
f 498 357 1147
f 1014 357 763
f 1172 357 1014
f 1142 413 359
f 1142 359 1198
f 362 455 508
f 694 455 362
f 362 621 1149
f 362 1149 694
f 1109 363 539
f 804 363 790
f 363 1109 790
f 869 363 804
f 606 368 538
f 1037 538 368
f 606 1117 368
f 368 721 627
f 1037 368 627
f 368 1117 721
f 711 949 370
f 373 544 472
f 783 373 472
f 589 544 373
f 373 944 589
f 783 652 373
f 944 373 652
f 896 375 387
f 903 387 375
f 874 903 375
f 874 375 918
f 896 918 375
f 461 826 376
f 376 836 461
f 376 798 723
f 723 1039 376
f 376 826 798
f 376 1039 836
f 377 819 1042
f 378 723 670
f 1009 378 670
f 378 1038 723
f 378 1009 1038
f 407 379 476
f 1007 379 407
f 379 961 725
f 961 379 1007
f 1063 1111 384
f 896 387 1102
f 907 387 903
f 907 950 387
f 950 1102 387
f 389 572 436
f 1122 572 389
f 1016 389 772
f 772 389 1133
f 1135 389 1016
f 1135 1122 389
f 802 390 690
f 690 390 1125
f 802 1125 390
f 748 1096 391
f 795 393 423
f 423 393 1083
f 795 678 393
f 870 393 678
f 393 1056 682
f 870 1056 393
f 510 1171 396
f 782 396 1171
f 397 906 465
f 1048 397 465
f 542 906 397
f 542 397 970
f 397 1048 970
f 400 542 788
f 1105 400 788
f 987 404 765
f 938 404 987
f 476 1030 407
f 442 445 410
f 1185 442 410
f 424 411 465
f 1066 411 424
f 411 758 465
f 411 1066 758
f 969 412 462
f 714 412 1103
f 412 969 1103
f 487 604 414
f 700 487 414
f 739 414 604
f 1064 700 414
f 908 414 739
f 908 1064 414
f 1072 416 637
f 418 479 534
f 479 418 767
f 1017 418 534
f 418 947 767
f 418 1017 947
f 1182 424 427
f 906 424 465
f 1182 1066 424
f 425 460 492
f 425 846 460
f 1106 425 492
f 666 516 425
f 979 425 516
f 1106 666 425
f 979 846 425
f 934 431 512
f 999 512 431
f 594 431 957
f 999 431 594
f 431 934 957
f 808 444 433
f 433 444 1149
f 621 722 433
f 1149 621 433
f 722 904 433
f 808 433 904
f 1027 450 434
f 1113 1027 434
f 435 1087 1165
f 1073 436 572
f 905 998 436
f 436 1073 905
f 735 579 438
f 579 746 438
f 644 735 438
f 445 442 957
f 957 442 594
f 442 1185 594
f 443 694 1191
f 681 444 808
f 444 681 925
f 1149 444 925
f 890 445 957
f 449 606 885
f 449 997 606
f 731 997 449
f 899 449 885
f 467 460 450
f 467 450 1027
f 497 454 707
f 497 1056 454
f 678 583 454
f 707 454 583
f 870 678 454
f 1056 870 454
f 455 694 508
f 679 456 693
f 693 456 809
f 667 791 457
f 457 985 667
f 791 1171 457
f 457 943 985
f 943 457 1171
f 460 467 492
f 846 1046 460
f 1046 1176 460
f 461 1051 826
f 1136 1051 461
f 1136 461 1137
f 481 463 599
f 463 670 599
f 892 670 463
f 868 892 463
f 574 775 464
f 758 1048 465
f 1106 492 467
f 858 1106 467
f 679 693 468
f 693 853 468
f 468 853 1057
f 1055 857 468
f 1057 1055 468
f 697 470 812
f 470 991 812
f 472 544 829
f 853 783 472
f 472 829 1057
f 472 1057 853
f 475 503 486
f 475 864 503
f 650 1030 476
f 691 514 478
f 709 478 514
f 691 478 684
f 478 868 684
f 892 478 709
f 478 892 868
f 479 1156 534
f 696 655 479
f 479 655 1156
f 696 479 707
f 479 767 707
f 851 829 480
f 851 480 1000
f 536 481 599
f 503 792 486
f 625 604 487
f 487 834 625
f 487 700 834
f 1040 911 489
f 911 1192 489
f 489 1192 1199
f 1183 494 613
f 494 752 931
f 494 982 752
f 1023 982 494
f 494 1183 1023
f 1200 1187 495
f 496 1080 1136
f 496 1136 1137
f 682 1056 497
f 497 1058 682
f 770 497 707
f 770 941 497
f 1058 497 941
f 763 498 579
f 858 579 498
f 858 498 779
f 498 1147 779
f 826 501 798
f 501 958 798
f 826 903 501
f 874 501 903
f 874 1166 501
f 1166 958 501
f 616 502 706
f 502 616 901
f 706 502 1174
f 841 502 901
f 841 1174 502
f 503 616 706
f 503 805 616
f 792 503 706
f 864 805 503
f 593 848 504
f 504 1019 593
f 848 1158 504
f 1068 1019 504
f 504 1132 1068
f 515 622 507
f 515 507 824
f 507 572 824
f 507 1073 572
f 640 943 510
f 943 1171 510
f 512 624 934
f 512 999 1172
f 671 539 513
f 573 671 513
f 573 513 813
f 513 600 813
f 691 681 514
f 514 681 808
f 709 514 808
f 622 515 952
f 986 515 824
f 986 952 515
f 979 516 554
f 666 665 516
f 665 1185 516
f 788 970 517
f 517 970 1048
f 518 614 530
f 743 518 530
f 628 614 518
f 597 520 1130
f 1095 520 812
f 520 1095 1130
f 961 521 725
f 554 548 522
f 979 554 522
f 1074 979 522
f 1074 522 1026
f 527 785 724
f 785 527 1164
f 692 528 1016
f 528 1085 1016
f 528 1075 1085
f 528 1175 1075
f 614 604 530
f 604 1121 530
f 609 698 530
f 530 1121 609
f 698 743 530
f 866 533 531
f 698 561 531
f 561 790 531
f 531 790 866
f 741 760 532
f 532 852 741
f 532 773 852
f 887 841 533
f 841 901 533
f 866 887 533
f 806 721 534
f 534 721 1017
f 534 1156 806
f 691 684 535
f 567 536 537
f 537 536 599
f 567 993 536
f 536 993 1167
f 567 537 958
f 599 1186 537
f 537 723 798
f 723 537 1186
f 798 958 537
f 606 538 885
f 538 865 885
f 538 1037 1163
f 671 866 539
f 866 1109 539
f 542 970 788
f 1125 802 545
f 981 757 547
f 757 1008 547
f 547 964 922
f 981 547 922
f 1008 964 547
f 693 550 853
f 550 760 783
f 853 550 783
f 598 799 552
f 598 552 1125
f 690 1125 552
f 552 1150 690
f 799 1150 552
f 1099 558 985
f 1176 1046 558
f 561 581 790
f 561 1069 581
f 561 698 609
f 609 1069 561
f 880 861 564
f 861 1097 564
f 1097 1052 564
f 1080 854 565
f 1136 565 1051
f 1080 565 1136
f 958 1166 567
f 1166 964 567
f 650 917 569
f 650 569 1030
f 569 841 887
f 917 841 569
f 569 887 912
f 569 912 935
f 1030 569 935
f 572 1122 824
f 935 671 573
f 1030 935 573
f 775 574 620
f 577 793 973
f 1158 793 577
f 577 927 1132
f 577 973 1050
f 763 579 735
f 928 924 580
f 924 1045 580
f 1015 928 580
f 612 801 581
f 581 1069 612
f 581 804 790
f 581 801 804
f 707 583 696
f 898 589 734
f 589 944 734
f 1159 591 602
f 669 999 594
f 747 628 596
f 1169 920 597
f 941 598 629
f 629 598 1125
f 799 598 941
f 599 670 1186
f 813 600 642
f 604 614 739
f 1121 604 625
f 606 997 1117
f 609 803 612
f 612 1069 609
f 625 803 609
f 1121 625 609
f 724 801 612
f 724 612 1131
f 803 834 612
f 612 834 1020
f 612 1020 1131
f 931 1124 613
f 1124 1049 613
f 613 1049 1183
f 747 614 628
f 614 1143 739
f 747 1143 614
f 654 616 867
f 901 616 654
f 867 616 805
f 617 908 657
f 1064 908 617
f 617 1168 1064
f 621 775 722
f 622 952 1108
f 834 803 625
f 721 806 627
f 629 1058 941
f 629 1125 1058
f 632 711 1002
f 637 878 1072
f 1162 943 640
f 644 685 735
f 650 778 917
f 795 651 678
f 651 744 814
f 741 652 760
f 741 944 652
f 652 783 760
f 810 654 867
f 655 696 814
f 718 655 814
f 718 1156 655
f 908 705 657
f 1040 662 699
f 1091 663 888
f 779 665 666
f 779 666 858
f 1106 858 666
f 1183 791 667
f 1183 667 1023
f 669 779 1147
f 1186 670 723
f 892 1009 670
f 671 887 866
f 912 887 671
f 935 912 671
f 791 1183 677
f 1183 1049 677
f 683 904 722
f 722 913 683
f 913 836 683
f 836 1039 683
f 1038 904 683
f 1039 1038 683
f 1014 735 685
f 830 983 689
f 695 731 690
f 690 1150 695
f 802 690 731
f 692 772 871
f 1016 772 692
f 695 1001 731
f 1150 799 695
f 799 1195 695
f 700 1020 834
f 1189 1020 700
f 1064 1189 700
f 1041 703 899
f 823 975 705
f 1143 705 908
f 821 792 706
f 706 1174 821
f 770 707 767
f 709 1009 892
f 1009 709 1038
f 810 820 712
f 749 714 883
f 714 1103 883
f 718 814 744
f 1017 721 1060
f 1117 1060 721
f 775 913 722
f 1038 1039 723
f 724 785 869
f 869 801 724
f 1001 997 731
f 782 791 732
f 733 1054 940
f 734 1175 898
f 944 1015 734
f 734 1077 1075
f 1075 1175 734
f 763 735 1014
f 908 739 1143
f 741 852 860
f 741 860 924
f 924 928 741
f 944 741 928
f 746 1027 1113
f 857 827 748
f 827 1010 748
f 748 1010 1096
f 991 749 883
f 838 752 789
f 752 982 789
f 838 1140 752
f 752 1140 931
f 1076 757 927
f 1132 927 757
f 757 981 1068
f 757 1076 1008
f 1132 757 1068
f 1048 758 946
f 758 1180 946
f 1180 758 1066
f 761 911 1040
f 987 765 1011
f 770 767 947
f 769 1154 1169
f 770 799 941
f 799 770 1195
f 947 1195 770
f 772 1133 871
f 1126 773 809
f 773 923 852
f 773 1126 923
f 933 1021 774
f 1077 774 1021
f 778 821 1174
f 778 1174 917
f 782 1171 791
f 1164 916 785
f 838 789 1026
f 789 982 932
f 789 932 1074
f 1026 789 1074
f 790 1109 866
f 821 830 792
f 804 801 869
f 867 805 864
f 845 820 810
f 845 810 867
f 812 991 883
f 883 1095 812
f 1190 816 1199
f 819 929 1042
f 1124 929 819
f 819 1049 1124
f 830 821 983
f 897 1146 823
f 824 1122 986
f 903 826 1051
f 1010 827 851
f 827 1100 851
f 857 1055 827
f 1100 827 1055
f 829 851 1057
f 831 840 1112
f 832 1099 1162
f 1088 937 838
f 937 1140 838
f 1026 1088 838
f 1174 841 917
f 867 864 845
f 979 1074 846
f 1074 1046 846
f 861 1033 849
f 849 1127 861
f 953 849 1033
f 1094 849 953
f 1127 849 1094
f 940 850 1028
f 850 940 1054
f 850 1163 1028
f 1010 851 1000
f 1100 1057 851
f 860 852 856
f 852 923 856
f 856 1108 860
f 923 1089 856
f 860 1045 924
f 1108 1045 860
f 1127 1097 861
f 1041 885 865
f 1054 1041 865
f 874 918 922
f 922 1166 874
f 914 936 883
f 969 914 883
f 936 1095 883
f 883 1103 969
f 885 1041 899
f 957 934 890
f 891 1102 950
f 1102 891 1036
f 894 961 1007
f 895 1190 1079
f 1190 895 1119
f 896 1022 918
f 1022 896 1102
f 903 1051 907
f 1130 936 914
f 914 969 940
f 914 940 1028
f 1028 1130 914
f 1016 1085 919
f 1016 919 1135
f 1085 1104 919
f 1104 1122 919
f 1122 1135 919
f 1154 920 1169
f 964 1166 922
f 1126 1089 923
f 1076 927 1167
f 1015 944 928
f 937 929 1124
f 937 1127 929
f 1042 929 1094
f 1127 1094 929
f 931 1140 1124
f 982 1046 932
f 1074 932 1046
f 952 933 1108
f 1181 933 952
f 933 1181 1021
f 933 1045 1108
f 1095 936 1130
f 1088 1127 937
f 1124 1140 937
f 939 1088 1026
f 1052 1097 939
f 1162 985 943
f 1096 946 1180
f 947 1017 1060
f 952 986 1181
f 1076 964 1008
f 1178 965 1191
f 971 1078 1001
f 1078 971 1060
f 1162 1099 985
f 1104 1021 986
f 1021 1181 986
f 1104 986 1122
f 1022 1102 988
f 1102 1036 988
f 997 1001 1078
f 1117 997 1078
f 1005 1190 1119
f 1077 1021 1075
f 1075 1021 1104
f 1148 1163 1037
f 1057 1100 1055
f 1060 1117 1078
f 1168 1189 1064
f 1170 1180 1066
f 1085 1075 1104
f 1127 1088 1097
