# sdm_hand_1200_q30mixed.obj  (1200 v, 1596 f)  units: metres
v -0.118154556 -0.002940042 0.070875788
v -0.059176758 -0.005846387 0.021900922
v -0.119587188 -0.020707579 0.097373281
v -0.069094315 0.004087776 0.014222741
v -0.068354376 0.004346595 0.013601856
v -0.068571724 0.005567660 0.015462436
v -0.076784506 -0.004485619 0.045189072
v -0.063345835 0.020366503 0.027859384
v -0.062823243 0.021846386 0.029099079
v -0.059628095 0.022090085 0.033008493
v -0.045000002 0.000000000 0.000000000
v -0.037999999 -0.001116713 0.020000000
v -0.045000002 0.022000000 0.000000000
v -0.040974012 0.022000000 0.055202013
v -0.040416516 0.002887391 0.195546815
v -0.014864532 0.016971623 0.103656823
v -0.018500000 0.021000000 0.094999999
v -0.002500000 0.021000000 0.094999999
v -0.004750000 0.021000000 0.152500004
v -0.005256016 0.006474018 0.101545635
v 0.018500000 0.021000000 0.094999999
v 0.045000002 0.022000000 0.094999999
v 0.005390486 0.009421053 0.158430503
v -0.063656146 0.004197428 0.032131399
v -0.085989625 -0.006006874 0.056326248
v -0.037999999 -0.001116713 0.041233219
v 0.002499999 0.002000000 0.000000000
v -0.033000000 0.022000000 0.044999999
v 0.040094380 0.009389259 0.088740467
v 0.015633790 0.005802110 0.133646021
v 0.005813812 0.014483997 0.104996553
v -0.026437500 0.002500000 0.195999995
v -0.042071476 -0.002026048 0.007589698
v 0.031574206 0.000156365 0.086641485
v 0.025000000 0.000000000 0.000000000
v 0.000000000 0.022000000 0.094999999
v -0.065958780 0.012967082 0.021660910
v -0.010500000 0.021000000 0.094999999
v -0.037999999 -0.003000000 0.030616610
v 0.013750000 0.002000000 0.000000000
v -0.027981665 0.017013551 0.182331551
v 0.011000000 0.021000000 0.094999999
v -0.022500001 0.022000000 0.094999999
v 0.028698825 0.019254743 0.122079401
v 0.018500000 0.000000000 0.085000001
v -0.125211956 -0.026350182 0.080667429
v -0.037999999 -0.003000000 0.025308305
v -0.013571874 0.020625000 0.151856139
v 0.026926018 0.010865237 0.161962048
v 0.024499999 0.002500000 0.176937495
v -0.001031809 -0.003000000 0.082917622
v -0.013625000 0.002500000 0.188999996
v -0.027858072 -0.004647303 0.180999994
v -0.004000000 0.000000000 0.000000000
v -0.064652307 0.016666792 0.024760147
v -0.053541651 0.022052603 0.014239096
v -0.057012890 0.012919544 0.006996444
v -0.054979681 0.001857366 0.005812280
v 0.035697040 -0.002250000 0.075918391
v 0.019556640 0.000000000 0.019183599
v 0.021184023 -0.003000000 0.025831362
v 0.004718749 -0.003000000 0.026942964
v -0.012160157 0.000500000 0.006026880
v 0.000281250 0.000000000 0.011249153
v 0.031000000 0.021000000 0.094999999
v -0.018999999 -0.001500000 0.206000000
v 0.022500001 0.022000000 0.094999999
v -0.057812476 0.022078904 0.021358644
v -0.006500000 0.021000000 0.094999999
v -0.059947888 0.022092055 0.024918418
v -0.014500000 0.021000000 0.094999999
v -0.032725304 0.020061112 0.166006391
v -0.063086270 0.017106505 0.031641585
v -0.010782009 0.004674155 0.186398440
v -0.117248138 -0.020647247 0.081693021
v 0.007250000 0.021000000 0.094999999
v 0.033972705 0.022000000 0.077187499
v 0.015150440 0.019681343 0.178618576
v 0.024491381 0.022000000 0.083681682
v -0.005463266 0.019500000 0.102221431
v -0.004031250 0.020602978 0.099227672
v -0.036101066 0.002983143 0.034438719
v -0.002485429 0.010535302 0.122163866
v -0.036138895 0.020545151 0.144151599
v -0.118806758 -0.026352332 0.077969907
v 0.014750000 0.021000000 0.094999999
v -0.029833043 0.008852773 0.185465115
v -0.123477412 -0.018074137 0.088037352
v -0.067265252 0.009267370 0.018561673
v 0.034000000 0.021000000 0.094999999
v -0.062683633 0.008633069 0.010299150
v -0.061667028 0.003101981 0.009707068
v -0.051893697 0.018730429 0.040825502
v 0.016350806 0.022000000 0.002800015
v 0.032730656 0.022000000 0.020884442
v -0.010292836 0.009173303 0.155505624
v 0.011413767 0.022000000 0.080249537
v -0.022500001 0.005707673 0.187376061
v -0.034717858 0.013528206 0.082023233
v -0.059295379 0.014706436 0.021134095
v 0.017346606 0.011158244 0.183750903
v -0.113500139 -0.003244848 0.069893346
v -0.004625000 0.002500000 0.188999996
v -0.011000211 0.013798263 0.101000004
v -0.001918315 0.022000000 0.081724462
v -0.003746679 0.011206215 0.083891661
v -0.115189221 -0.010237922 0.085441145
v -0.027229127 0.015082552 0.099632826
v -0.065401386 0.006939227 0.042561037
v -0.068234167 0.017786985 0.031347238
v -0.025747032 0.019062500 0.111418072
v 0.029686834 0.008124485 0.110110363
v -0.063999071 0.018516648 0.026309765
v -0.065305543 0.014816937 0.023210529
v -0.037957490 0.012742640 0.108402312
v 0.045000002 0.022000000 0.089062499
v 0.003765274 -0.005195283 0.196298948
v -0.050624117 -0.003936217 0.014745310
v -0.105660041 -0.012702038 0.067050900
v 0.025711038 -0.001010646 0.167999998
v -0.010606258 0.018431595 0.150248707
v -0.036325688 0.014021856 0.148099159
v 0.020500001 0.004286077 0.187570603
v -0.013443302 0.018962576 0.190265355
v 0.033401107 0.002356558 0.172814977
v -0.057944725 0.011008542 0.014860290
v -0.126157486 -0.027358801 0.087726807
v 0.004712217 0.017186392 0.084222864
v -0.037702114 -0.005500000 0.192700967
v -0.127610162 -0.027231721 0.080310773
v -0.134336049 -0.017162031 0.078860616
v 0.016625000 0.021000000 0.094999999
v -0.118745454 -0.012278163 0.063145475
v -0.018823461 0.018488787 0.142082064
v -0.024000000 0.000500000 0.195999995
v -0.123638951 -0.024393527 0.075248631
v -0.067918488 0.007417515 0.017012054
v -0.118369211 -0.026035348 0.083858643
v 0.018999999 -0.002969823 0.187028446
v -0.018999999 0.000815752 0.195087722
v -0.017180831 0.018544914 0.155344834
v -0.072875506 0.006837363 0.030732540
v 0.024697584 -0.003000000 0.078850468
v -0.008500000 0.021000000 0.094999999
v -0.068735587 0.006618307 0.025368743
v -0.125787985 -0.015278689 0.067312225
v 0.027727781 -0.003000000 0.027863094
v 0.008523995 0.002392975 0.092718048
v 0.006705119 0.017414644 0.097604442
v 0.026698150 0.016499769 0.134649172
v -0.119257197 -0.018428266 0.067955316
v -0.007636651 0.019500000 0.131049923
v 0.026378607 0.003786903 0.173951573
v 0.031439104 0.006644355 0.070085670
v -0.024000000 0.002500000 0.185687494
v -0.068936315 -0.000878793 0.024782224
v -0.061806292 0.011368210 0.018555402
v -0.056475156 0.003436174 0.017187513
v -0.024039063 0.002628362 0.181701168
v -0.005702451 0.021000000 0.001264899
v -0.124525949 -0.015956435 0.093228958
v -0.113598534 -0.015719525 0.071888813
v -0.007806439 -0.002796826 0.202830416
v 0.012539002 0.003140453 0.073520667
v 0.023000000 0.003846619 0.174712708
v 0.016301685 0.000513330 0.184000000
v -0.016817837 -0.005500000 0.202621895
v -0.061100744 0.016535980 0.021532382
v 0.014899323 0.019138218 0.143882588
v -0.017026374 0.015392540 0.182987704
v 0.012937424 0.000333443 0.200000003
v 0.024499999 0.002500000 0.179374994
v 0.011714710 0.000504228 0.188015171
v -0.034121097 -0.003000000 0.078641800
v -0.026541031 -0.002994120 0.195999995
v -0.115905192 -0.016024678 0.082425748
v -0.065010702 0.003724288 0.011654462
v -0.065519004 0.006489832 0.011950503
v 0.001591049 0.007697045 0.188766809
v -0.039738248 0.021966077 0.016354130
v -0.125027204 -0.023575464 0.082385758
v -0.035500000 -0.000558357 0.020000000
v -0.031920830 -0.003000000 0.020435776
v -0.071179932 0.004419443 0.019571172
v 0.024691977 0.015587715 0.171746609
v -0.007065106 0.018916036 0.143296552
v -0.113978183 -0.021695086 0.071375450
v -0.003270406 0.001888718 0.196180359
v -0.070348442 0.007504420 0.020263155
v -0.116470042 -0.028293763 0.079302452
v 0.018999999 -0.000106639 0.190511531
v 0.011078942 0.019420185 0.110923515
v -0.014872593 0.014081427 0.095645229
v 0.028000000 0.021000000 0.094999999
v 0.035649555 -0.001496465 0.178924062
v 0.013640912 -0.005500000 0.192567140
v -0.039999999 0.000500000 0.180999994
v -0.064910135 0.012113805 0.027537749
v -0.039999999 0.000500000 0.195999995
v -0.005551778 0.002163888 0.197915736
v -0.066612016 0.011117226 0.020111291
v 0.037132683 -0.005500000 0.169768878
v -0.118142089 -0.019780554 0.075257666
v 0.014055360 0.020684751 0.098253655
v 0.013236776 0.016085702 0.085531682
v -0.102933640 -0.005388699 0.048650116
v 0.031265604 0.003881532 0.171842788
v 0.017338545 -0.000966834 0.184000000
v 0.018685770 0.022000000 0.059272378
v 0.018999999 0.002500000 0.190125001
v -0.026542665 -0.000592698 0.187515087
v -0.122065599 -0.019767324 0.090119902
v 0.012570064 0.001939888 0.191328365
v 0.024499999 0.000989559 0.169440733
v -0.120219373 -0.022510433 0.081141066
v -0.009518150 0.021000000 0.149000004
v -0.010454994 0.003936370 0.109909421
v -0.006016741 0.016000001 0.148531991
v 0.014262851 -0.005500000 0.185979923
v 0.029699846 0.006299155 0.170071233
v 0.015176359 -0.003000000 0.028336030
v 0.014376052 -0.003326679 0.200000003
v -0.111160069 -0.010208979 0.081515037
v 0.003000000 0.000500000 0.184000000
v 0.006223494 0.004612818 0.188425329
v -0.061213447 0.017132106 0.030562329
v 0.008462839 0.019614265 0.157691858
v -0.124136853 -0.019471223 0.084748050
v -0.026479891 0.009631431 0.196409703
v -0.122305630 -0.020517352 0.082724184
v -0.116534976 -0.023315124 0.073386581
v -0.002454503 0.018160534 0.166433546
v -0.024000000 0.000500000 0.180999994
v 0.012999999 -0.005500000 0.184000000
v 0.017646905 -0.005374305 0.185770890
v -0.040282251 0.000595902 0.062943506
v 0.030183156 0.019700638 0.091192483
v -0.061846297 0.015108179 0.027454501
v -0.116296170 -0.024368417 0.079086073
v -0.026851461 0.022000000 0.037499999
v 0.026559814 0.002086567 0.178800331
v -0.068101429 0.009876580 0.035874252
v -0.112596455 -0.020791378 0.076024402
v -0.011530998 0.008236851 0.192037122
v -0.003011014 0.003890982 0.206487568
v -0.117021860 -0.015230195 0.086407109
v 0.018719626 0.011506782 0.088164002
v 0.028276664 -0.005500000 0.170458795
v 0.031225291 0.004271485 0.005400433
v 0.017145984 0.000873968 0.186247886
v 0.021155285 0.018312500 -0.009048322
v -0.113546905 -0.022612664 0.079851753
v -0.018999999 -0.001585691 0.192474585
v -0.064135537 -0.000879306 0.018061832
v -0.066614925 0.001604235 0.016142287
v -0.067854620 0.002846005 0.015182514
v -0.067405592 0.005190574 0.021803622
v -0.033999999 -0.005500000 0.180999994
v 0.032993549 0.009459546 0.079751504
v 0.026431206 0.003968239 0.169441834
v -0.012554303 0.004881009 0.208000004
v 0.036795422 0.016391102 0.108366671
v -0.128980410 -0.014410237 0.091372126
v -0.112455100 -0.024591414 0.083136118
v 0.028562500 0.002500000 0.167999998
v -0.001750000 0.018843750 0.101000004
v -0.008220210 -0.004650648 0.188999996
v -0.059302421 0.014419853 0.024885502
v -0.127848000 -0.027272225 0.082879332
v -0.115695953 -0.029525768 0.080938028
v -0.117238519 -0.022952713 0.086708349
v -0.025992763 0.005107717 0.183845852
v 0.037356117 0.018520818 0.096580678
v 0.024499999 -0.001508860 0.169591860
v -0.117602856 -0.021039262 0.078090984
v -0.002000000 0.000500000 0.206000000
v -0.013856484 0.004897627 0.197260830
v 0.011964896 -0.001510557 0.191468729
v -0.007191398 -0.002091351 0.188999996
v -0.067595498 0.007229333 0.020285124
v -0.113598551 -0.018543675 0.075767117
v -0.012500000 0.021000000 0.094999999
v 0.013127392 0.016479484 0.092620436
v -0.002000000 0.000855502 0.202030862
v 0.019749094 0.007093170 0.197439528
v -0.116309689 -0.021221326 0.079262010
v 0.011398111 -0.003294023 0.189241416
v 0.015654297 0.002591090 0.183350585
v -0.112164544 -0.022644555 0.085279697
v 0.016865059 0.002845738 0.191018442
v -0.118006123 -0.026792418 0.081776278
v -0.002000000 -0.004923563 0.205396809
v -0.002000000 0.001345568 0.191053900
v -0.120426481 -0.023166924 0.078702487
v 0.023489397 0.004209223 0.180462421
v -0.121225845 -0.021145835 0.084163445
v -0.121854299 -0.026308825 0.079202651
v -0.036860003 -0.001529146 0.190813003
v -0.116629900 -0.018136466 0.077743048
v -0.008007812 0.012125000 -0.029794276
v -0.002000000 -0.001158292 0.190633161
v -0.026228546 0.002469325 0.185206294
v -0.009595804 0.022000000 0.059407160
v -0.003544865 0.000913868 0.188999996
v -0.018999999 -0.000857789 0.195991541
v 0.000429524 0.019050172 0.091244738
v -0.121273551 -0.017984661 0.079053437
v 0.036701911 -0.003318386 0.167999998
v -0.032593385 -0.000758447 0.180999994
v 0.033728857 0.008973984 0.181427913
v 0.037156251 0.002500000 0.180343745
v -0.115741839 -0.024482186 0.074445415
v -0.010894186 -0.003129633 0.193158636
v -0.126875473 -0.020552434 0.090111060
v 0.016519536 0.000192162 0.029010769
v 0.017995103 0.001916652 0.185123212
v -0.018218750 0.002500000 0.205203125
v -0.041499998 0.006123048 0.187260984
v 0.003149125 -0.000203125 0.199640628
v -0.005094457 0.001355577 0.195417034
v -0.072089949 0.010005559 0.025748598
v -0.121526552 -0.025182693 0.077417678
v -0.002000000 -0.001006341 0.194061073
v -0.011052764 -0.005500000 0.191894137
v 0.028379501 0.000444957 0.175021557
v -0.003799893 0.000182443 0.196016856
v 0.004276210 0.001123235 0.184000000
v -0.002000000 -0.001717076 0.201930477
v 0.015379245 0.000884085 0.198224632
v 0.033662688 0.002428049 0.178797038
v 0.034310119 0.006355177 0.176641386
v 0.011865965 0.003620562 0.186241591
v -0.002000000 0.002500000 0.198031248
v -0.054959803 0.017995385 0.021524111
v -0.025124126 0.001246804 0.180999994
v -0.016611661 -0.002881552 0.192532465
v -0.002000000 -0.002633123 0.197291214
v 0.009303463 0.002382941 0.194323535
v 0.030559198 -0.003826827 0.180999994
v -0.015844360 0.017766250 0.092395732
v -0.028945189 -0.001081934 0.180999994
v 0.006952235 -0.003277660 0.191235242
v -0.004661243 -0.000722869 0.197666030
v -0.081414816 0.010649239 0.041984627
v -0.030828488 -0.001708066 0.183502919
v -0.011590375 0.019260114 0.092643136
v -0.009116006 0.018070602 0.091884059
v -0.119081762 -0.018335761 0.082449423
v 0.035678166 0.000094291 0.177722456
v -0.028998462 0.002641270 0.185086430
v 0.035519342 0.002527587 0.167303711
v 0.027062115 0.000557472 0.071983177
v 0.015905371 0.001356059 0.195049640
v -0.039999999 -0.003409755 0.190881750
v -0.113521278 -0.022259446 0.074310269
v 0.011405859 0.018825487 0.090754283
v 0.018999999 0.001012178 0.199443707
v 0.003000000 -0.002412202 0.194965100
v -0.120055763 -0.031030835 0.084622114
v 0.019495261 0.018287445 0.092433512
v -0.003409804 0.001723089 0.190287943
v -0.115514182 -0.027462578 0.083372633
v 0.007689376 0.015738749 0.144513190
v 0.017972751 0.001350071 0.198818835
v -0.062826152 0.012333396 0.025130073
v -0.009929759 -0.005500000 0.201153921
v 0.025048924 0.000884077 0.167999998
v -0.022593751 0.003454675 0.194738360
v -0.016818224 0.007711789 0.073026953
v -0.115016047 -0.022068117 0.086575455
v 0.018999999 0.001256671 0.193471893
v 0.042156251 0.005038282 0.038175724
v -0.025442757 0.000987916 0.195999995
v -0.005100129 0.003122209 0.197054053
v -0.010737067 -0.003000000 0.072049700
v -0.123745613 -0.017135943 0.094862614
v 0.003000000 -0.002256534 0.192170838
v 0.009125000 0.021000000 0.094999999
v 0.036047631 0.018183257 0.134719546
v -0.024000000 0.001173900 0.194714655
v -0.030936691 0.005038329 0.190391236
v -0.008556329 0.000364579 0.188999996
v -0.024000000 -0.003500000 0.180999994
v 0.030199695 -0.000131917 0.171865963
v -0.011221607 -0.001321137 0.191322658
v -0.093564366 -0.005873399 0.046329662
v -0.018999999 -0.003533310 0.195255898
v 0.016544736 -0.003171827 0.193962731
v 0.003000000 0.000941391 0.188553318
v -0.117807081 -0.018453637 0.083806887
v 0.018999999 -0.003117679 0.190542171
v -0.114547917 -0.015967733 0.085437409
v 0.010572683 0.002727713 0.192625312
v -0.011232785 0.002800800 0.190910874
v -0.037536702 -0.004150796 0.185803525
v -0.031949965 0.000518705 0.195999995
v -0.113063968 -0.018501230 0.091051618
v 0.011130641 -0.005500000 0.191400931
v -0.024000000 0.001991434 0.193656245
v -0.116717585 -0.026037553 0.086770735
v 0.003658411 0.008208053 0.198262242
v -0.009912076 0.001982523 0.193475252
v -0.007185503 0.004749097 0.200478271
v 0.035208821 0.002518662 0.170966948
v -0.010624233 -0.003550554 0.198036127
v 0.003273437 0.000000000 0.085000001
v -0.124300668 -0.028133484 0.089616745
v -0.117142997 -0.028348980 0.084329657
v -0.030664062 0.002500000 0.195999995
v 0.035976700 -0.001479246 0.049648591
v -0.118937216 -0.014927445 0.083834038
v -0.034976562 -0.005500000 0.183068107
v -0.124814101 -0.030472253 0.085420434
v 0.010451740 0.001151635 0.191790116
v 0.015112292 -0.000594343 0.189306544
v -0.008163225 -0.002624699 0.191499127
v -0.113047868 -0.016123285 0.089144157
v -0.110583992 -0.025793821 0.079163600
v 0.034852054 0.001780827 0.173129187
v -0.006384071 0.000456997 0.073485165
v 0.015282253 -0.003176745 0.191099841
v -0.004955165 0.000154618 0.188999996
v 0.003000000 -0.001209490 0.189505005
v -0.110967612 -0.019636566 0.087625464
v 0.018999999 -0.001185541 0.193610056
v -0.118914295 -0.021587873 0.079923745
v 0.018423576 -0.001719607 0.200000003
v -0.002000000 0.002500000 0.202546874
v -0.111174231 -0.026024285 0.076243307
v -0.067950230 0.011477554 0.026468420
v 0.013503256 0.002009826 0.196072660
v 0.027880062 0.002572038 0.176645080
v -0.090762216 0.000220081 0.039541091
v 0.037149474 -0.005348604 0.175511309
v -0.010116906 0.004762515 0.194297555
v -0.114883933 -0.021646573 0.082641403
v -0.018999999 -0.004014017 0.192532133
v 0.013747551 0.004456255 0.038864556
v 0.016631919 -0.000583244 0.192326406
v -0.092388454 0.006324323 0.047204406
v -0.122045628 -0.022854351 0.080750664
v -0.003884780 0.001208521 0.192249178
v 0.038250001 0.002500000 0.175921871
v -0.062681851 0.006671153 0.017276763
v -0.032459004 0.000841827 0.186698864
v 0.035711151 0.018778705 0.156129002
v -0.014986398 0.000837363 0.200832714
v -0.013453451 0.002575655 0.193916328
v 0.014661706 0.003147230 0.196719755
v 0.016900897 0.002943195 0.193642633
v -0.113449263 -0.019402952 0.080617884
v -0.113568439 -0.016501787 0.081789443
v -0.124832315 -0.025626021 0.087496598
v 0.012818360 0.002500000 0.200250003
v -0.116203503 -0.003162753 0.068165233
v -0.003161642 0.019781250 0.148322893
v -0.002000000 0.000174650 0.198085712
v -0.039520433 0.016076565 0.192754675
v 0.018999999 0.001500000 0.184000000
v -0.122545730 -0.013004120 0.091844407
v -0.114684590 -0.018050565 0.080145354
v 0.034428273 0.001653658 0.177311111
v 0.029907162 -0.000908113 0.180999994
v -0.039999999 0.002500000 0.184984369
v -0.117169938 -0.018345392 0.093534439
v 0.027176242 -0.003434884 0.174843139
v 0.018679579 -0.004526691 0.184153125
v -0.039260857 -0.005346146 0.189118433
v -0.037427903 -0.003065257 0.193712666
v 0.006098584 -0.005500000 0.189041705
v 0.034263854 -0.003494483 0.180999994
v 0.028391333 -0.001279829 0.178514018
v -0.122205158 -0.022185409 0.087900658
v 0.027398124 0.002342078 0.171212373
v 0.016107747 0.002221184 0.187203251
v 0.005786945 0.000402915 0.196497935
v 0.003830441 -0.005180121 0.191614943
v 0.028500000 0.002500000 0.181218744
v -0.035261310 -0.001503401 0.187634704
v -0.015617511 0.014165234 0.146955482
v -0.037588974 -0.005500000 0.186757061
v -0.070544568 0.012984414 0.027606593
v 0.032190937 0.001483352 0.171825360
v -0.113841406 -0.018381890 0.083717254
v -0.122808685 -0.007260354 0.084775092
v 0.024499999 0.000424680 0.174626637
v -0.030094310 -0.003376186 0.180999994
v -0.010567314 -0.002373266 0.188999996
v -0.117324736 -0.018762847 0.085982003
v 0.030862889 -0.001181057 0.174475823
v -0.010483032 -0.001444895 0.197099554
v -0.028447425 0.000668521 0.188491559
v 0.004918340 0.017447039 0.178698204
v -0.033735788 -0.000557671 0.184603067
v 0.004817302 -0.001946204 0.184000000
v 0.015787268 0.005086237 0.187380162
v -0.120674167 -0.027060027 0.086459422
v -0.005880254 0.000284189 0.200332501
v 0.028644938 -0.002372220 0.171098340
v -0.024000000 -0.001717139 0.185896939
v 0.033783064 0.000374873 0.175546764
v -0.035479252 -0.005500000 0.185932334
v -0.009919923 -0.005500000 0.194797302
v -0.119205173 -0.029629045 0.085337104
v -0.114982859 -0.025433086 0.081400907
v 0.030118022 0.000817889 0.167999998
v 0.037500001 0.000110707 0.175020304
v 0.029572416 0.003987269 0.175339271
v -0.039999999 -0.001086671 0.185696797
v -0.113235146 -0.021571007 0.088051521
v -0.124728872 -0.024795099 0.085890254
v -0.012535210 0.000009689 0.188999996
v -0.034017267 0.002194565 0.189562908
v -0.032275203 -0.004556658 0.180999994
v -0.028381586 0.001135078 0.184180838
v -0.025976053 0.001260349 0.191888655
v -0.018999999 -0.005210041 0.190460934
v -0.005843905 -0.005500000 0.193558907
v -0.033460821 -0.002285068 0.194458607
v -0.110099658 -0.023139112 0.081972714
v -0.039999999 0.000613383 0.193526780
v -0.025593503 0.000713480 0.194049358
v 0.005883003 0.003883253 0.195699401
v -0.008290971 -0.000026560 0.195688256
v -0.030829620 -0.005500000 0.185631782
v 0.028562500 -0.005500000 0.167999998
v 0.005939366 -0.003482439 0.186292065
v 0.018999999 0.002500000 0.196750002
v -0.125363800 -0.026046162 0.089219865
v 0.018965379 -0.000555307 0.185996356
v 0.011138233 -0.001183330 0.184000000
v 0.010052208 -0.000298668 0.194842602
v -0.113443396 -0.028935319 0.078792437
v -0.009291553 -0.001801647 0.203980649
v 0.035625001 0.000718750 0.180999994
v 0.035647723 -0.001309377 0.167999998
v -0.118814292 -0.016370725 0.091870354
v -0.034784110 -0.003397968 0.185504413
v 0.033551647 -0.005500000 0.174626356
v 0.016545695 0.000879053 0.200000003
v 0.003000000 0.001162775 0.185500000
v -0.018999999 -0.002869383 0.198154103
v -0.004994121 0.022000000 0.029865150
v 0.033403649 0.000878114 0.172378913
v -0.110625179 -0.013371009 0.081466895
v 0.033658774 0.002166140 0.171428267
v -0.003710566 -0.002432437 0.199199189
v -0.088922177 0.005934843 0.049275506
v 0.036317756 0.001745820 0.179866872
v 0.031206754 0.003127053 0.165937597
v -0.018999999 0.002500000 0.199492186
v 0.002812500 0.002500000 0.190937501
v 0.034202319 -0.001390442 0.180999994
v 0.008625542 -0.003426563 0.191745430
v -0.013358340 0.003832269 0.193443354
v -0.029598553 -0.005500000 0.182039648
v -0.011232976 0.021000000 0.099339200
v -0.115179751 -0.015111133 0.088834589
v 0.033170478 0.003588832 0.171793459
v -0.024000000 0.002500000 0.191253901
v -0.032721556 -0.005500000 0.183205819
v 0.019187499 0.002500000 0.185750000
v -0.010599711 0.001528172 0.202596643
v 0.033866419 0.000358765 0.167999998
v -0.004330517 -0.001578830 0.203052754
v -0.122736255 -0.026331485 0.088306858
v -0.039999999 0.002500000 0.189906245
v 0.033915791 0.004473084 0.170487582
v -0.030385678 0.001044847 0.180999994
v -0.014296068 -0.001600515 0.190975500
v -0.009315698 -0.005500000 0.197581616
v -0.026330278 -0.003204023 0.180999994
v -0.006931861 -0.001376325 0.200371949
v 0.017057275 -0.005500000 0.193341988
v 0.004495248 -0.003809375 0.192645192
v 0.009967167 -0.005500000 0.193753961
v -0.005671606 -0.001100899 0.195032851
v -0.005376931 -0.001197733 0.206000000
v 0.033614061 0.001900186 0.169915788
v 0.009486777 -0.001500000 0.020962350
v 0.035013605 -0.000356780 0.169552433
v -0.017204274 -0.003785402 0.188999996
v 0.003000000 0.000884309 0.197052613
v -0.018298353 -0.004988142 0.199203587
v 0.034498268 0.003360948 0.172868160
v -0.122671033 -0.026570708 0.084868710
v -0.065421901 0.018116483 0.029713660
v -0.113524028 -0.025906619 0.078452931
v 0.034356245 0.001479095 0.178854156
v -0.006635566 -0.005500000 0.205745359
v 0.037500001 0.001307758 0.169918523
v 0.027712716 -0.000379730 0.169739284
v -0.018999999 -0.003375229 0.190500457
v -0.123096203 -0.015616819 0.088876764
v -0.025789418 0.002021736 0.194617193
v -0.012923643 -0.004857206 0.206000000
v -0.014210674 -0.001926469 0.206000000
v 0.033975681 0.002783895 0.175312344
v -0.018465189 0.002500000 0.191197148
v -0.018124636 0.000177594 0.188999996
v -0.000981098 -0.003000000 0.022457660
v -0.018848487 -0.004019583 0.203575786
v -0.028978960 -0.001706147 0.188511383
v 0.013059742 -0.001970153 0.194131908
v 0.007024784 -0.003000000 0.031679761
v -0.010747321 -0.005139117 0.204743627
v -0.034242514 -0.003384189 0.180999994
v -0.012401959 0.000617325 0.206000000
v -0.008625000 0.002500000 0.188999996
v -0.005053871 -0.005500000 0.196468813
v 0.006035213 -0.001189031 0.186978762
v 0.003000000 -0.003297805 0.186402657
v 0.003000000 -0.004303849 0.189516452
v 0.036119236 -0.004038285 0.180999994
v 0.030307274 0.002343418 0.177647792
v -0.008529224 -0.003408757 0.200259305
v -0.035301508 -0.003466864 0.192666532
v 0.016015052 -0.002628907 0.184000000
v -0.003103163 0.001300357 0.206000000
v -0.025704015 0.018208658 0.143853925
v 0.006470575 -0.000707634 0.193297180
v 0.029067493 -0.005500000 0.176077034
v -0.001177834 0.006214781 0.188761252
v 0.031730627 -0.005500000 0.171287305
v -0.024250000 -0.004620176 0.195627141
v -0.012942774 0.002811641 0.202021653
v 0.028946050 -0.003928636 0.177000513
v -0.127134977 -0.027635430 0.086446564
v -0.113484887 -0.027116803 0.081198855
v -0.038210406 -0.005500000 0.195011811
v -0.119246260 -0.027693785 0.087894048
v -0.005134716 -0.005018610 0.189285054
v -0.027722477 -0.005500000 0.185153288
v 0.003000000 0.000487912 0.192024413
v 0.032358577 0.003028988 0.170044586
v 0.037500001 -0.001860997 0.179593124
v 0.014384593 0.001303605 0.192889808
v -0.038310303 -0.003460190 0.183067017
v -0.030940059 -0.000032447 0.190902379
v 0.019242188 0.002500000 0.199250003
v -0.120013242 -0.023849390 0.083389976
v -0.035727953 -0.003635391 0.188632140
v -0.010634276 -0.004809041 0.188999996
v 0.032453331 -0.001059128 0.178154875
v -0.031060639 -0.002618238 0.192010700
v -0.116918600 -0.023551571 0.082468576
v 0.003000000 -0.002251565 0.184547069
v 0.036540296 -0.005500000 0.180635760
v -0.036820301 0.000005735 0.189343565
v -0.034130280 0.004030310 0.022427965
v -0.012918012 0.000106372 0.193105674
v -0.000619833 0.001005046 0.034113294
v 0.010502639 -0.005500000 0.185060818
v -0.059872624 0.019063309 0.026918776
v -0.033620732 -0.003917613 0.190847595
v -0.031393091 -0.005500000 0.189730444
v 0.034417675 -0.002252881 0.173357762
v 0.004281122 0.000787621 0.195177862
v -0.037278279 -0.004532568 0.181220346
v -0.031272815 -0.002016803 0.195999995
v -0.039322817 -0.001282988 0.182122269
v 0.003370429 -0.005205032 0.187152994
v -0.017202940 -0.005500000 0.191120686
v -0.024000000 -0.000457440 0.192201881
v -0.111678518 -0.017294814 0.078575916
v -0.110393822 -0.017539485 0.080004965
v -0.036023009 0.000665402 0.185719259
v -0.004500000 0.021000000 0.094999999
v -0.036988918 0.000904574 0.192503463
v -0.119081190 -0.030303898 0.082802769
v -0.002162605 -0.004322036 0.194719707
v -0.121326295 -0.029439398 0.088322231
v -0.113651919 -0.013439040 0.086194477
v -0.033440377 0.000696870 0.193420530
v -0.124616544 -0.024534352 0.090740615
v 0.037500001 -0.003961933 0.179525258
v 0.018671559 -0.005166358 0.189160238
v 0.007142582 0.001238268 0.195088263
v 0.011904389 -0.005500000 0.196007290
v -0.037781742 -0.000582573 0.184262065
v 0.007593311 -0.000595000 0.184000000
v 0.003000000 0.002500000 0.197250002
v -0.031106696 0.002168441 0.192785303
v -0.007957349 -0.002459769 0.196475959
v -0.013576490 -0.003677021 0.192636717
v 0.003000000 -0.000573412 0.185771321
v 0.014465828 -0.000477970 0.184000000
v -0.012604502 -0.004717800 0.189287096
v -0.012642586 -0.005500000 0.195560489
v -0.112111167 -0.015504708 0.084213170
v 0.006497332 -0.003384484 0.184000000
v -0.112996394 -0.027847135 0.077788643
v 0.005851493 0.001518636 0.198313719
v -0.122516805 -0.016840513 0.089246002
v 0.008277127 -0.005500000 0.189491161
v 0.026389552 -0.004798839 0.167999998
v 0.031847245 -0.005500000 0.180591740
v -0.126310783 -0.030150048 0.086380569
v 0.018999999 -0.002994308 0.196539169
v 0.012577830 -0.003523943 0.184000000
v -0.004455152 0.015877312 0.096177083
v -0.010703153 0.000323633 0.199436561
v 0.037500001 0.002500000 0.170843747
v 0.000653404 0.000363168 0.025216831
v -0.024000000 -0.001221331 0.195112558
v -0.029103729 0.006161467 0.177373293
v -0.010436488 -0.002983669 0.202490112
v 0.006090361 0.000944631 0.190961383
v 0.024499999 0.002500000 0.173281246
v -0.016500000 0.021000000 0.094999999
v -0.017894742 0.019740772 0.098264667
v 0.024499999 -0.000758518 0.171141407
v -0.039999999 0.000692840 0.185634868
v -0.039999999 0.000747386 0.189771708
v 0.035574718 0.000521817 0.174045194
v -0.115723089 -0.016916723 0.091219053
v -0.121722823 -0.029927118 0.083466561
v 0.009462119 0.000610257 0.029520358
v -0.012624544 -0.005500000 0.202991963
v 0.026555229 -0.001513751 0.173555076
v -0.039999999 -0.002149529 0.193600930
v -0.009021286 -0.005022878 0.205717188
v 0.015206432 -0.005500000 0.196154295
v -0.109830651 -0.015300514 0.081609452
v -0.119268788 -0.018796015 0.094957133
v 0.033658623 -0.000643027 0.172203589
v -0.026580834 -0.005500000 0.192150977
v -0.035289126 -0.001579074 0.194541117
v 0.017041580 0.003262315 0.025110763
v -0.036068962 0.005446054 0.191923548
v 0.010284840 0.000741063 0.184000000
v 0.011175193 -0.005500000 0.187564717
v -0.111348197 -0.022798502 0.076675339
v 0.038812501 0.003031926 0.169847313
v 0.031304690 -0.005500000 0.176937495
v 0.033829452 -0.005500000 0.178839380
v 0.014439955 0.002393128 0.192944005
v -0.034371168 -0.003311922 0.195999995
v -0.002000000 -0.002528704 0.195174919
v -0.006430372 -0.000766964 0.190975042
v 0.037500001 -0.003470299 0.176268166
v -0.029340721 0.002261673 0.189011407
v 0.014828732 -0.003000000 0.046026642
v 0.037500001 -0.001651083 0.174012401
v -0.124364209 -0.030514561 0.088294060
v -0.016637017 -0.005500000 0.194014622
v -0.120461948 -0.014151353 0.090218039
v -0.118586078 -0.015188994 0.090363462
v -0.004170026 -0.003000000 0.040692680
v -0.024777110 -0.003000000 0.062899029
v -0.121533866 -0.021765467 0.078751652
v 0.024650558 0.008147185 0.028631584
v 0.007364200 0.002303959 0.188086527
v -0.008301015 -0.005500000 0.191256171
v -0.127241073 -0.021966067 0.083792257
v -0.123635755 -0.018701483 0.090611714
v -0.110561272 -0.020598635 0.078530185
v -0.039999999 -0.004037048 0.182838851
v -0.027335362 0.002024461 0.192870314
v 0.010626640 0.001202273 0.197955444
v -0.028278824 0.001446309 0.194330011
v -0.012222548 -0.005500000 0.199535778
v -0.111767008 -0.017368791 0.090091035
v -0.024392210 -0.005270876 0.185754619
v -0.018999999 0.000024457 0.199682023
v 0.025597557 0.001687402 0.180181935
v -0.032088878 -0.002164924 0.188523214
v 0.032452790 -0.001981137 0.170969538
v -0.031439444 -0.002016287 0.186001095
v -0.039999999 -0.003199272 0.188201348
v -0.029085411 -0.005500000 0.187446784
v -0.016069773 -0.003752447 0.197179577
v 0.028937274 -0.001543843 0.174778950
v -0.002339586 -0.005217937 0.192351725
v -0.000687500 0.005078363 0.197812141
v -0.118919537 -0.020674764 0.086361253
v 0.032086914 0.000812236 0.179174154
v -0.017147325 -0.003971784 0.204482576
v 0.007224578 -0.005500000 0.192059298
v 0.008562830 0.002432171 0.196137464
v -0.018999999 -0.002545700 0.200384473
v -0.111836844 -0.015159531 0.077707583
v -0.006678268 0.002937327 0.200388323
v 0.028427783 0.000880785 0.180999994
v 0.017053719 -0.005500000 0.197114491
v -0.120222473 -0.017258772 0.087347717
v -0.114704690 -0.023058956 0.088024530
v -0.002363753 -0.004938613 0.202401182
v -0.119284777 -0.021753570 0.089040976
v -0.118622897 -0.018261685 0.090913215
v -0.018468091 -0.001990969 0.189150791
v -0.036302265 -0.001333652 0.180999994
v 0.030550459 -0.005500000 0.174204423
v 0.021373745 -0.003000000 0.031762289
v 0.000813446 -0.003000000 0.030713355
v -0.029708131 0.020156530 0.100241750
v -0.118166493 -0.021179780 0.091140926
v -0.039685012 -0.005500000 0.182241189
v -0.036093189 0.002816080 0.183756486
v -0.108737992 -0.018409562 0.086333084
v -0.114620156 -0.012768884 0.082979685
v -0.119289191 -0.024608152 0.087008521
v -0.004689454 -0.002271659 0.191575928
v -0.025610155 -0.005500000 0.189281432
v -0.013157843 -0.002751281 0.201691524
v -0.028033568 -0.005500000 0.189464835
v 0.014394487 -0.005500000 0.198596292
v -0.128320896 -0.025339994 0.085990104
v -0.122696951 -0.031276130 0.086084890
v -0.002000000 -0.003687790 0.199778432
v -0.035723978 -0.005500000 0.189277890
v 0.008421720 -0.001718597 0.188179459
v 0.005437500 0.002500000 0.200000003
v -0.109273584 -0.016436666 0.087927218
v 0.011880061 -0.002047815 0.200000003
v 0.024499999 -0.004825547 0.173332079
v -0.107661462 -0.018598464 0.083934889
v -0.126743436 -0.029018675 0.084498530
v -0.010283507 -0.003000000 0.057931310
v -0.005188857 -0.003805098 0.206000000
v -0.109672559 -0.013231280 0.083715763
v -0.024000000 -0.005240956 0.193430374
v -0.002000000 -0.004663341 0.197612661
v -0.024687368 0.000842282 0.089677602
v 0.025411868 -0.005262532 0.170161715
v 0.005026604 0.000346871 0.184000000
v -0.015389591 -0.005500000 0.197068217
v -0.003352930 -0.005500000 0.199561637
v 0.004126137 -0.001909673 0.187921869
v 0.037239944 0.000551988 0.180279627
v -0.121448699 -0.028161563 0.081243376
v 0.016122704 -0.002888322 0.198070529
v -0.116842129 -0.018765585 0.088940717
v -0.011072593 0.022000000 0.079326767
v -0.018999999 -0.001273267 0.203196361
v 0.036782451 0.012867718 0.139948938
v -0.000451258 0.000000000 0.018048160
v -0.059033532 0.000176477 0.015753788
v -0.022874931 0.010870303 0.088246820
v -0.026746193 0.000393857 0.180999994
v 0.023333024 -0.003000000 0.063137357
v -0.007598714 -0.005500000 0.200012465
v -0.031892703 0.001752840 0.184245150
v -0.114141670 -0.024975251 0.084817968
v -0.032551374 0.018108733 0.099819943
v -0.014484013 -0.005500000 0.192220501
v -0.029662299 -0.005500000 0.192938132
v -0.019876858 0.004697990 0.052309646
v -0.016488970 -0.005500000 0.199509510
v -0.029035319 -0.001712249 0.185948228
v 0.018097276 -0.003863355 0.199761260
v -0.034085393 -0.000720163 0.195999995
v 0.003612276 -0.004887724 0.184000000
v -0.120366604 -0.024155118 0.080230361
v -0.016872322 0.001121682 0.188999996
v 0.013700880 -0.004906423 0.200000003
v -0.002130474 -0.002753112 0.204403531
v 0.014657700 -0.004858229 0.184000000
v -0.008073713 -0.005500000 0.203861626
v -0.024000000 0.000193319 0.184447304
v 0.028397711 -0.002795849 0.167999998
v -0.020500001 0.004204018 0.199366645
v 0.006063322 -0.000072288 0.200000003
v 0.036941215 -0.003000000 0.180999994
v 0.010156342 -0.003566959 0.184000000
v -0.011748349 -0.002099616 0.206000000
v 0.035111528 -0.005500000 0.172726923
v -0.116903380 -0.024768880 0.088652148
v -0.124665866 -0.027490936 0.081799001
v 0.026181165 -0.001812131 0.180999994
v 0.013416286 -0.005500000 0.189548137
v -0.018999999 0.001074804 0.191233526
v 0.011218643 -0.005122945 0.199168522
v 0.028717333 -0.003715584 0.180999994
v 0.006147055 -0.005500000 0.198986669
v -0.025485605 0.003589236 0.193946783
v -0.121702489 -0.017088148 0.093944286
v 0.003752773 0.002793680 0.184324233
v -0.013087832 -0.003230157 0.196861241
v 0.034770071 0.002178614 0.169201918
v 0.005023073 -0.001686150 0.197261905
v 0.026735658 -0.000551043 0.176665562
v -0.114218960 -0.018956439 0.086758421
v -0.032730922 -0.005500000 0.192580718
v -0.119965110 -0.020393222 0.080880549
v -0.014499020 -0.005431180 0.189908286
v 0.018999999 -0.004503415 0.194195311
v 0.024499999 -0.001537810 0.174954724
v 0.004493562 0.016233947 0.139950225
v -0.007531250 0.002500000 0.206000000
v -0.108710804 -0.020497804 0.080777517
v 0.014239079 0.000083236 0.196517146
v -0.114246998 -0.020867527 0.090268658
v -0.026642023 -0.003930691 0.193580964
v 0.036196008 -0.005500000 0.177800979
v -0.121427539 -0.020999549 0.096014624
v 0.008807982 -0.004873826 0.200000003
v 0.037500001 -0.003501649 0.170514873
v 0.018189480 0.010699938 0.157991962
v -0.017590158 0.000369613 0.190963051
v 0.017170462 -0.005500000 0.199085294
v 0.006748778 -0.003210638 0.194570926
v 0.037500001 -0.003619074 0.173370934
v 0.033953240 -0.005378644 0.168681040
v 0.035126941 -0.001397541 0.176181535
v -0.028858020 -0.002498781 0.192647874
v -0.034302916 -0.001752046 0.191789712
v -0.029565884 -0.000529519 0.195999995
v 0.010235520 -0.003648549 0.194276993
v -0.119678183 -0.023275100 0.094168912
v -0.038090901 -0.003532589 0.189117456
v 0.018999999 0.000266301 0.196904826
v -0.110630397 -0.024665068 0.080683938
v -0.012843751 0.002500000 0.206000000
v -0.120730041 -0.021100837 0.093311954
v -0.026351572 -0.005216167 0.195388812
v -0.123314457 -0.022772384 0.093026867
v 0.003000000 -0.002761263 0.198287744
v -0.123768430 -0.029656819 0.086707800
v -0.004955478 0.001251899 0.206000000
v -0.066449260 0.013092800 0.030792408
v 0.007053829 0.000870442 0.186615652
v -0.114560121 -0.019409066 0.092560086
v -0.015029453 -0.003893121 0.206000000
v -0.015004421 0.004308240 0.190970510
v -0.030130308 -0.003590182 0.189662635
v 0.026314023 -0.005500000 0.178217190
v -0.035702334 0.001034271 0.180999994
v -0.110016514 -0.014764505 0.086244257
v -0.005265431 -0.005500000 0.203001755
v 0.018999999 -0.005190882 0.197275580
v 0.008846536 -0.002285530 0.200000003
v -0.028649220 0.006764905 0.131831748
v -0.112244427 -0.011437632 0.083211975
v -0.002000000 0.000500000 0.188999996
v 0.034148566 0.015551284 0.165056530
v 0.028297302 0.018946913 0.140295023
v -0.018237688 -0.005267755 0.196849546
v 0.024499999 0.001500000 0.180999994
v 0.037500001 -0.001320648 0.170479707
v 0.003893791 -0.005212388 0.194031102
v -0.014214320 -0.002602396 0.199093465
v -0.039999999 -0.003529496 0.185626717
v -0.032981467 -0.005500000 0.187239300
v 0.030818588 -0.005205860 0.168822042
v -0.128546175 -0.028354131 0.084465170
v -0.039999999 0.001124153 0.182338397
v -0.108378972 -0.020923162 0.082617216
v 0.033424877 -0.003376690 0.167999998
v -0.039999999 -0.001151597 0.189576800
v -0.029943272 0.003375857 0.191306295
v 0.024499999 -0.001898924 0.178924251
v 0.042015152 0.016504366 0.061744911
v -0.115909842 -0.022088741 0.090836450
v -0.029251237 -0.003735371 0.195999995
v -0.032914062 -0.000104692 0.010962885
v -0.015664801 -0.001073704 0.188999996
v 0.003000000 -0.005250000 0.199000003
v -0.108887410 -0.017590936 0.081778789
v -0.038278135 0.001195020 0.180999994
v -0.026734375 0.002500000 0.180999994
v -0.024219385 -0.001601212 0.182147623
v -0.031761219 -0.004841428 0.195711841
v -0.117102911 -0.018887153 0.080157319
v -0.116362436 -0.020789708 0.093101756
v -0.122758365 -0.029085862 0.090629379
v -0.110306558 -0.011597496 0.082585910
v 0.010044333 -0.000151590 0.200000003
v 0.012158197 -0.002449896 0.197794876
v 0.016527171 0.001970206 0.197854123
v -0.026353039 -0.005500000 0.186797460
v 0.011292999 -0.001417537 0.186588693
v -0.039999999 -0.005500000 0.191781245
v 0.024499999 -0.004082869 0.177746139
v -0.005188264 0.001775595 0.201614212
v 0.036387223 0.001622561 0.169300433
v 0.009098233 -0.005500000 0.198095966
v -0.024000000 0.000833961 0.182647936
v 0.031512730 -0.001203414 0.167999998
v -0.121554592 -0.023770308 0.082748001
v 0.027032173 -0.002756886 0.177574411
v -0.029016611 -0.005500000 0.195375649
v -0.014730865 -0.005500000 0.201337432
v -0.033501468 -0.005500000 0.194971160
v 0.027257319 -0.005500000 0.172863500
v 0.005668523 -0.005232903 0.185064791
v 0.008695451 -0.005500000 0.186803168
v 0.007487607 -0.003000000 0.064793161
v -0.040517619 0.016659478 0.094138424
v 0.024750791 -0.002971184 0.168527749
v 0.036253982 0.000000000 0.022565811
v -0.025494036 0.001636508 0.183233855
v 0.030982263 0.001459910 0.173182607
v -0.013102088 -0.000611653 0.204127596
v -0.109663812 -0.023062885 0.078843636
v -0.013782481 -0.003016366 0.188999996
v 0.003000000 -0.000150872 0.194731820
v -0.025749181 -0.005500000 0.182187141
v -0.026574931 -0.003122827 0.189657500
v -0.107626967 -0.014912826 0.085414010
v -0.017880630 -0.003026451 0.205765926
v -0.107837080 -0.015876495 0.083745197
v 0.019818413 0.000000000 0.012792147
v 0.035343049 -0.005500000 0.170646450
v -0.037469304 -0.002561306 0.186791700
v -0.018751145 0.022000000 0.085098155
v 0.005759794 -0.003328314 0.200000003
v -0.112179294 -0.024091204 0.075146006
v 0.005524356 0.005333062 0.024555158
v 0.033591508 0.000952669 0.170848036
v -0.115100141 -0.012436512 0.085608204
v 0.024499999 -0.003361130 0.171140109
v 0.008232422 -0.005152569 0.184149008
v -0.018849241 -0.004760876 0.201785730
v -0.038096550 -0.001123614 0.195999995
v 0.008765848 -0.003000000 0.039105301
v 0.014505240 -0.002133448 0.196112404
v -0.126403812 -0.022841286 0.089316395
v -0.039999999 -0.004818780 0.194372131
v 0.003000000 -0.004329308 0.197935380
v 0.018999999 -0.004149439 0.191864240
v 0.032367800 0.000720502 0.180999994
v -0.029379677 0.015125140 0.096232674
v 0.008061196 -0.001281311 0.198088065
v -0.124029816 -0.020674483 0.088129103
v -0.113415750 -0.024190299 0.073631148
v -0.124230779 -0.029019238 0.083440001
v -0.120833386 -0.027232314 0.090541125
v 0.006343654 0.009697085 0.090410608
v -0.123276855 -0.016425745 0.093817212
v -0.001437500 0.002500000 0.192718747
v -0.121863501 -0.019340161 0.086391953
v -0.024000000 0.000552913 0.189178018
v 0.024767963 -0.000666462 0.180736093
v -0.024131882 -0.004399456 0.182984792
v -0.120027629 -0.024752912 0.092708258
v -0.035624999 -0.005259521 0.195999995
v -0.106716767 -0.016889622 0.085558645
v -0.121549718 -0.026583534 0.092305781
v -0.003520912 -0.002755347 0.189120190
v -0.039693352 -0.005500000 0.186076568
v -0.056759296 0.004022509 0.026763473
v 0.033956969 -0.003324786 0.177103808
v -0.036820311 0.002500000 0.195999995
v -0.015177128 0.019953447 0.092483398
v -0.122630721 -0.019291851 0.095059605
v -0.018723277 -0.005500000 0.195221191
v -0.038373950 0.001408829 0.185139949
v -0.016662630 0.001525433 0.193894218
v -0.002000000 0.000243520 0.204297176
v -0.072269834 0.013039774 0.029906665
v 0.022455226 -0.000092194 0.024458634
v -0.039351738 -0.002748451 0.195731230
v -0.038460319 0.004705187 0.179503078
v 0.009218750 0.002500000 0.184000000
v 0.024124999 0.002500000 0.168812498
v 0.031031330 -0.003335962 0.175665823
v 0.039000001 0.004918954 0.176082260
v 0.015212881 0.001271325 0.190730151
v -0.032371094 0.002500000 0.180504136
v -0.003954351 -0.005187455 0.190116128
v 0.027729707 -0.001546394 0.176576658
v 0.006826664 0.001476295 0.050598745
v 0.030800197 -0.003816285 0.172611111
v -0.008156441 0.000097540 0.206000000
v -0.122353473 -0.024974251 0.093041132
v -0.002000000 0.001133804 0.194301321
v -0.015825430 -0.005500000 0.205052360
v -0.123718943 -0.026423052 0.091023021
v -0.003548289 0.003521405 0.203014246
v 0.014002849 -0.002637709 0.186803855
v 0.015085858 -0.000272734 0.035377687
v -0.024000000 -0.002830384 0.192993486
v -0.122442553 -0.016973432 0.091697477
v -0.024000000 -0.003506578 0.188700605
v 0.036066150 0.000824389 0.171878669
v 0.029026225 0.020684182 0.099088415
v 0.025147697 -0.003960187 0.180702145
v -0.118828846 -0.023924874 0.078838697
v -0.018999999 0.000641628 0.203534425
v 0.015935992 0.019396098 0.089652838
v -0.015164942 -0.000607185 0.197123384
v -0.016632448 -0.002246465 0.202285330
v -0.037890580 -0.005500000 0.184367636
v 0.016626099 -0.005500000 0.190631411
v 0.016147947 -0.001109942 0.200000003
v 0.015808568 -0.005500000 0.188390585
v -0.002000000 -0.003364376 0.191288215
v -0.014694519 -0.002258885 0.195522820
v -0.119024507 -0.021689337 0.095376276
v -0.000812500 0.018546751 0.105565890
v -0.024145035 -0.004865707 0.190493286
v -0.027619921 0.002694294 0.190303276
v 0.013182685 0.007441595 0.192190929
v -0.009377156 -0.002553405 0.206000000
v 0.012995271 0.003009406 0.189416502
v -0.112578781 -0.019777056 0.083079652
v 0.037500001 0.001511257 0.178040829
v 0.010966487 0.003073238 0.181922211
v -0.061590797 0.019321034 0.025900053
v -0.026603116 -0.000251893 0.195999995
v -0.030894630 0.003063469 0.183323045
v -0.006850767 0.019500000 0.153040638
v -0.025244146 0.001655219 0.188039476
v -0.037999999 -0.003000000 0.022654152
v 0.021875301 0.007146978 0.074217578
v -0.003142566 -0.000392271 0.206000000
v -0.109704808 -0.020928547 0.084322771
v -0.068341977 0.012184577 0.023726763
v 0.037272987 -0.000044960 0.168315658
v -0.124542036 -0.020766542 0.092400040
v -0.012948647 0.019271532 0.090381107
v -0.007672555 0.021000000 0.149000004
v -0.010285252 -0.001890976 0.200756846
v 0.027536179 0.005059749 0.177084095
v 0.018999999 0.001160577 0.187866347
v 0.024499999 0.001198590 0.178952658
v 0.005375000 0.021000000 0.094999999
v 0.029073479 -0.005500000 0.179555478
v -0.119463370 -0.009208538 0.075553714
v -0.120835376 -0.024121268 0.089906753
v 0.003000000 0.001500000 0.200000003
v -0.048937102 0.010513844 0.015907870
v -0.062425187 0.009818554 0.016004817
v 0.018095815 0.017390292 0.099511243
v 0.032919405 0.016331414 0.088447182
v -0.037080631 -0.003286448 0.195999995
v -0.016258816 0.004036287 0.203152999
v 0.006948042 -0.005500000 0.195855657
v -0.065876868 0.003816636 0.017944118
v 0.025617187 -0.005500000 0.180898431
v -0.111972991 -0.018259599 0.085474158
v -0.036452665 0.001224588 0.195999995
v 0.025734130 -0.005500000 0.175137500
v 0.006474609 0.018511306 0.090053819
v -0.036749999 0.002500000 0.180999994
v -0.113754482 -0.009192871 0.074810417
v -0.010216482 0.002238792 0.197245088
v -0.118601135 -0.024210158 0.091567946
v -0.035318497 -0.005500000 0.193097038
v -0.118461884 -0.029211708 0.081237903
v 0.008976197 0.004576976 0.196178427
v -0.015452290 0.000481415 0.203797295
v -0.124131690 -0.022842284 0.085510776
v -0.121517916 -0.023769116 0.094752409
v -0.115381018 -0.026374661 0.076552452
v -0.034243787 0.003479486 0.197999999
v -0.124324472 -0.018622437 0.093553104
v -0.027962319 0.009008523 -0.007253238
v 0.012554995 0.000956548 0.193900643
v -0.016574548 0.000984704 0.206000000
v -0.066362688 0.006104734 0.015224273
v -0.019346147 0.007904562 0.206901816
v -0.059987870 0.015894987 0.016147729
v -0.068554100 0.016486279 0.036602719
v -0.058791834 0.022090901 0.027951212
v -0.004407143 0.015429375 0.203695743
v -0.061511615 0.002369462 0.014440270
v 0.012486905 0.003125000 -0.012149676
v 0.004718749 0.000000000 0.016149309
v -0.037999999 -0.003000000 0.027962457
v -0.023912603 0.020357143 0.094591396
v -0.126670384 -0.017122663 0.078590328
v -0.003431908 0.019466865 0.093196674
v -0.023970903 0.022000000 0.091997899
v -0.033240661 -0.003000000 0.033324203
v -0.061042012 0.019593527 0.023232287
v -0.036968753 0.019007531 0.098446917
v -0.130240828 -0.026357846 0.085288007
v 0.019636648 0.006978679 0.009934312
v -0.064797008 0.009259629 0.017430219
v 0.013593749 0.000000000 0.016138517
v -0.009504617 0.019133456 0.087587626
v -0.055948567 0.015569383 0.017664865
v 0.010310704 0.005240184 0.018835522
v -0.007357114 0.013520673 0.182465666
v 0.009156265 0.000000000 0.016156977
v 0.023274150 0.018206175 0.089529921
v -0.006203108 0.019619136 0.092108699
v -0.060149433 0.018775943 0.020657650
v -0.064023023 0.011560611 0.018400145
v -0.035813431 -0.003000000 0.026635381
v 0.026125258 0.015776169 0.095627668
v -0.033565509 0.000237282 0.022562290
v -0.065491846 0.007249981 0.014741875
v 0.029500000 0.021000000 0.094999999
v 0.004320728 0.020230892 0.092442263
v -0.039579031 0.022019620 0.033749999
v -0.046448965 0.022045915 0.031364970
v -0.039230846 0.008647402 0.013734114
v -0.017889367 -0.002062500 0.024572236
v -0.062828565 0.014095956 0.020071562
v -0.033385531 -0.001373855 0.026985918
v -0.063818901 0.010497646 0.014788254
v -0.004684642 0.019801400 0.089911516
v 0.000477511 0.019613094 0.094999999
v 0.024507827 0.021512965 0.091255692
v -0.032741470 0.002212298 0.028261721
v -0.053717223 0.012063897 0.035873332
v -0.062320478 0.017669246 0.022586138
f 455 1 102
f 102 1 1137
f 131 1 146
f 485 1 131
f 133 146 1
f 133 1 455
f 1 485 1137
f 118 2 11
f 11 2 254
f 1042 2 118
f 254 2 1130
f 2 1042 1130
f 725 896 3
f 1090 725 3
f 896 1090 3
f 177 4 5
f 5 4 178
f 4 6 13
f 1130 6 4
f 58 11 4
f 11 256 4
f 13 57 4
f 57 91 4
f 92 58 4
f 91 178 4
f 177 92 4
f 4 256 1130
f 178 177 5
f 6 137 13
f 137 6 189
f 1130 189 6
f 109 7 24
f 24 7 156
f 344 7 109
f 7 433 156
f 344 548 7
f 548 433 7
f 8 9 13
f 8 226 9
f 13 113 8
f 113 587 8
f 587 226 8
f 226 10 9
f 10 1156 9
f 9 56 13
f 68 56 9
f 9 70 68
f 9 1156 70
f 10 14 28
f 93 14 10
f 28 1189 10
f 10 1199 93
f 226 1199 10
f 10 1189 1156
f 33 118 11
f 33 11 956
f 1149 11 58
f 11 254 255
f 11 255 256
f 1149 956 11
f 12 39 26
f 26 1042 12
f 39 12 1161
f 47 12 1105
f 1161 12 47
f 183 12 182
f 182 12 956
f 183 1105 12
f 1042 956 12
f 13 37 114
f 201 37 13
f 13 55 113
f 114 55 13
f 180 13 56
f 1149 57 13
f 89 13 137
f 89 201 13
f 13 180 1149
f 14 303 28
f 1199 14 93
f 236 99 14
f 99 303 14
f 14 1199 236
f 521 199 15
f 199 1133 15
f 318 15 458
f 15 318 567
f 1147 458 15
f 521 15 567
f 1133 1044 15
f 15 1044 1147
f 20 16 104
f 217 16 20
f 80 81 16
f 80 16 1091
f 16 81 557
f 152 83 16
f 83 1091 16
f 16 193 104
f 217 152 16
f 711 193 16
f 557 711 16
f 43 17 710
f 1162 17 43
f 193 711 17
f 17 1162 193
f 711 710 17
f 36 668 18
f 1196 36 18
f 668 81 18
f 18 81 1196
f 216 48 19
f 48 1103 19
f 216 19 1113
f 1103 456 19
f 456 1113 19
f 20 83 217
f 20 1091 83
f 20 104 701
f 266 20 701
f 20 266 1091
f 21 67 132
f 1183 67 21
f 132 204 21
f 21 204 1125
f 1125 1183 21
f 22 29 116
f 273 29 22
f 90 22 67
f 22 116 67
f 90 273 22
f 23 101 493
f 899 101 23
f 23 227 363
f 23 493 227
f 23 363 899
f 109 24 1155
f 145 24 156
f 921 24 145
f 921 1155 24
f 386 25 119
f 25 548 119
f 25 386 548
f 39 1166 26
f 750 236 26
f 1042 26 236
f 26 1166 750
f 54 27 40
f 1159 40 27
f 27 54 63
f 63 1159 27
f 240 28 303
f 1188 28 240
f 28 1188 1189
f 29 34 59
f 29 1183 34
f 59 410 29
f 77 116 29
f 77 29 953
f 29 273 1183
f 953 29 410
f 889 31 30
f 30 31 1125
f 192 169 30
f 30 169 363
f 192 30 1125
f 889 30 363
f 192 149 31
f 149 1125 31
f 889 192 31
f 32 368 229
f 409 32 229
f 373 368 32
f 32 1101 373
f 1101 32 409
f 1042 118 33
f 1042 33 956
f 34 45 143
f 34 148 45
f 34 143 59
f 1183 148 34
f 54 40 35
f 40 251 35
f 64 54 35
f 1003 64 35
f 251 249 35
f 249 1003 35
f 43 38 36
f 144 36 38
f 67 36 42
f 36 378 42
f 1006 43 36
f 67 97 36
f 36 144 69
f 36 69 668
f 76 378 36
f 36 1118 76
f 97 105 36
f 105 834 36
f 834 1006 36
f 1118 36 1196
f 1109 114 37
f 201 1109 37
f 282 38 43
f 38 557 144
f 282 557 38
f 1166 39 1161
f 1159 251 40
f 706 72 41
f 41 72 1054
f 41 98 159
f 41 229 98
f 159 706 41
f 229 41 458
f 41 1054 458
f 86 67 42
f 42 204 86
f 378 204 42
f 282 43 71
f 71 43 710
f 1006 1165 43
f 1165 1162 43
f 112 150 44
f 112 44 1077
f 150 937 44
f 44 379 262
f 44 262 1077
f 44 937 379
f 143 45 51
f 45 406 51
f 148 406 45
f 130 136 46
f 46 269 130
f 46 136 322
f 46 869 269
f 322 869 46
f 183 47 1105
f 47 183 1182
f 1161 47 1182
f 48 186 134
f 480 48 134
f 480 141 48
f 141 1103 48
f 216 186 48
f 165 185 49
f 165 49 1056
f 446 49 185
f 550 265 49
f 49 265 1056
f 49 446 937
f 936 550 49
f 836 936 49
f 836 49 937
f 50 172 165
f 165 709 50
f 1117 172 50
f 709 486 50
f 1117 50 486
f 988 143 51
f 375 51 824
f 988 51 375
f 51 406 824
f 52 599 74
f 609 52 74
f 512 52 609
f 855 52 512
f 599 52 855
f 556 487 53
f 487 572 53
f 998 556 53
f 572 998 53
f 54 64 63
f 113 55 587
f 1109 55 114
f 1109 587 55
f 180 56 68
f 58 91 57
f 57 1149 58
f 92 91 58
f 143 841 59
f 410 59 841
f 61 60 147
f 580 60 61
f 991 147 60
f 991 60 249
f 60 1003 249
f 1172 60 580
f 60 1172 1003
f 794 61 147
f 221 580 61
f 794 221 61
f 601 580 62
f 580 605 62
f 62 795 601
f 795 62 605
f 63 64 837
f 837 1191 63
f 956 1149 63
f 1191 956 63
f 63 1149 1159
f 837 64 1160
f 1003 1177 64
f 64 1177 1160
f 90 67 65
f 1186 65 67
f 1077 90 65
f 65 1186 1077
f 835 1001 66
f 66 1080 835
f 1001 1151 66
f 1151 1080 66
f 97 67 79
f 67 116 79
f 86 132 67
f 194 67 1183
f 1186 67 194
f 70 1156 68
f 1156 180 68
f 69 557 81
f 69 81 668
f 144 557 69
f 557 282 71
f 711 557 71
f 71 710 711
f 72 84 122
f 84 72 620
f 122 1054 72
f 72 706 620
f 226 73 198
f 921 198 73
f 226 587 73
f 73 587 1155
f 921 73 1155
f 103 609 74
f 623 103 74
f 74 599 170
f 74 170 1176
f 623 74 1176
f 76 149 378
f 1118 149 76
f 79 116 77
f 79 77 209
f 209 77 953
f 227 78 101
f 285 101 78
f 227 493 78
f 285 78 401
f 78 493 401
f 97 79 209
f 81 80 1091
f 266 701 81
f 266 81 1091
f 81 701 1196
f 217 83 134
f 134 83 480
f 152 186 83
f 186 480 83
f 111 122 84
f 620 111 84
f 1141 85 190
f 190 85 1146
f 85 297 322
f 831 297 85
f 312 85 322
f 1146 85 312
f 1141 831 85
f 86 204 132
f 137 189 89
f 189 1109 89
f 201 89 1109
f 273 90 1077
f 178 91 92
f 177 178 92
f 94 160 95
f 95 251 94
f 94 251 160
f 95 160 543
f 209 372 95
f 95 543 209
f 95 249 251
f 249 95 372
f 170 141 96
f 480 96 141
f 1176 170 96
f 218 232 96
f 480 218 96
f 232 1176 96
f 97 209 105
f 155 159 98
f 155 98 560
f 368 98 229
f 98 368 560
f 99 236 174
f 824 99 174
f 99 834 303
f 989 99 824
f 99 1006 834
f 989 1162 99
f 99 1165 1006
f 1162 1165 99
f 123 101 285
f 288 101 123
f 493 101 179
f 179 101 1099
f 101 899 227
f 101 288 1099
f 133 119 102
f 548 102 119
f 162 133 102
f 102 1137 162
f 102 206 455
f 206 102 548
f 304 422 103
f 304 103 623
f 422 609 103
f 193 701 104
f 105 209 303
f 303 834 105
f 107 223 485
f 107 934 223
f 747 107 485
f 107 747 1011
f 1011 934 107
f 108 796 111
f 933 108 111
f 933 115 108
f 1023 108 115
f 108 1023 796
f 1155 344 109
f 344 110 1051
f 344 1155 110
f 482 1051 110
f 1109 482 110
f 1109 110 587
f 1155 587 110
f 122 111 115
f 111 796 115
f 111 620 933
f 150 112 379
f 262 112 273
f 379 112 262
f 1183 273 112
f 1077 1183 112
f 933 122 115
f 1168 115 796
f 1023 115 1168
f 358 117 918
f 117 358 941
f 117 875 958
f 875 117 1129
f 117 1020 918
f 1129 117 941
f 1020 117 958
f 119 133 206
f 386 119 206
f 120 274 367
f 990 274 120
f 367 506 120
f 506 861 120
f 861 990 120
f 706 122 620
f 620 122 933
f 1054 122 706
f 210 123 528
f 210 562 123
f 285 528 123
f 562 288 123
f 232 170 124
f 862 124 170
f 1176 232 124
f 862 1153 124
f 124 1153 1157
f 124 1157 1176
f 127 407 529
f 698 407 127
f 529 628 127
f 127 628 698
f 468 811 129
f 973 468 129
f 630 1019 129
f 630 129 1140
f 1140 129 811
f 1019 973 129
f 131 136 130
f 130 1169 131
f 1169 130 269
f 131 146 136
f 131 263 485
f 263 131 1169
f 133 151 146
f 162 151 133
f 206 133 455
f 134 186 152
f 152 217 134
f 373 135 368
f 135 380 368
f 373 1101 135
f 135 705 380
f 1101 705 135
f 136 146 151
f 151 187 136
f 187 231 136
f 322 136 231
f 191 391 139
f 191 139 530
f 139 235 467
f 139 677 235
f 677 139 391
f 467 530 139
f 253 305 140
f 140 872 253
f 765 140 305
f 140 551 599
f 140 765 551
f 872 140 599
f 232 141 170
f 1103 141 232
f 841 143 988
f 156 257 145
f 198 145 257
f 198 921 145
f 147 410 743
f 991 410 147
f 147 743 794
f 701 148 149
f 1125 149 148
f 193 148 701
f 824 148 193
f 148 824 406
f 1183 1125 148
f 204 149 192
f 204 378 149
f 1196 701 149
f 149 1118 1196
f 379 836 150
f 836 937 150
f 151 162 187
f 860 159 155
f 560 1033 155
f 1033 860 155
f 184 257 156
f 156 433 184
f 233 335 159
f 978 233 159
f 159 335 961
f 706 159 961
f 860 978 159
f 180 543 160
f 180 160 1149
f 251 1149 160
f 314 161 263
f 460 263 161
f 1148 161 314
f 1030 161 376
f 161 1148 376
f 460 161 747
f 1030 747 161
f 187 162 281
f 782 281 162
f 1137 782 162
f 165 172 295
f 165 295 185
f 709 165 1056
f 166 530 208
f 208 687 166
f 288 459 166
f 687 288 166
f 166 459 530
f 602 1014 167
f 1068 602 167
f 983 167 849
f 167 1014 849
f 983 1068 167
f 169 192 889
f 227 169 889
f 169 227 899
f 363 169 899
f 599 862 170
f 222 171 815
f 222 1086 171
f 540 454 171
f 968 171 454
f 1086 540 171
f 968 815 171
f 1117 295 172
f 174 236 750
f 174 750 824
f 705 175 625
f 175 916 625
f 1101 175 705
f 955 175 908
f 908 175 1101
f 916 175 955
f 401 493 179
f 401 179 682
f 179 552 682
f 878 552 179
f 179 1099 878
f 543 180 240
f 1188 240 180
f 1156 1189 180
f 1189 1188 180
f 183 182 956
f 1191 183 956
f 1166 1182 183
f 1166 183 1191
f 184 321 189
f 184 189 1130
f 184 1130 257
f 433 321 184
f 310 185 295
f 185 310 936
f 936 446 185
f 186 216 1113
f 456 218 186
f 186 218 480
f 456 186 1113
f 1026 231 187
f 281 243 187
f 243 355 187
f 355 1026 187
f 189 321 1109
f 270 190 533
f 270 1141 190
f 692 533 190
f 1146 692 190
f 371 191 210
f 191 1116 210
f 425 191 371
f 391 191 425
f 1116 191 530
f 1125 204 192
f 193 1023 824
f 1162 1023 193
f 1183 1077 194
f 1077 1186 194
f 398 196 576
f 398 871 196
f 723 196 574
f 196 1085 574
f 679 576 196
f 679 196 723
f 1085 196 871
f 661 947 197
f 960 661 197
f 197 947 1054
f 960 197 1054
f 226 198 238
f 365 238 198
f 1042 198 257
f 198 1042 365
f 521 1015 199
f 1015 1133 199
f 202 308 898
f 308 202 904
f 898 867 202
f 867 1004 202
f 202 1004 904
f 440 386 206
f 548 440 206
f 467 208 530
f 467 618 208
f 618 687 208
f 543 303 209
f 953 372 209
f 371 210 528
f 1116 562 210
f 367 274 214
f 214 274 712
f 214 1056 367
f 214 712 486
f 1056 214 486
f 232 218 456
f 234 219 732
f 858 219 234
f 858 235 219
f 1087 219 235
f 871 732 219
f 1087 871 219
f 605 580 221
f 221 1016 605
f 743 221 794
f 743 1016 221
f 222 815 856
f 851 222 901
f 222 851 1086
f 901 222 856
f 1137 485 223
f 545 782 223
f 223 967 545
f 782 1137 223
f 934 967 223
f 327 826 224
f 327 224 878
f 686 541 224
f 224 541 878
f 826 686 224
f 1199 226 238
f 227 889 363
f 229 1147 409
f 1147 229 458
f 312 322 231
f 312 231 1026
f 1103 232 456
f 840 335 233
f 840 233 962
f 233 978 962
f 653 700 234
f 653 234 732
f 858 234 700
f 235 618 467
f 235 858 618
f 677 1087 235
f 1042 236 1199
f 365 1199 238
f 240 303 543
f 281 665 243
f 355 243 733
f 665 757 243
f 243 757 733
f 245 261 890
f 261 245 1157
f 276 428 245
f 619 276 245
f 245 428 775
f 245 920 619
f 775 1157 245
f 890 920 245
f 526 248 825
f 526 945 248
f 248 945 624
f 985 248 624
f 825 248 985
f 372 991 249
f 300 1149 251
f 300 251 1159
f 253 387 305
f 437 387 253
f 593 437 253
f 791 593 253
f 791 253 872
f 1130 255 254
f 255 1130 256
f 1042 257 1130
f 561 412 258
f 412 659 258
f 514 561 258
f 607 514 258
f 659 607 258
f 261 914 890
f 261 1153 914
f 1153 261 1157
f 1077 262 273
f 314 263 1169
f 263 460 485
f 264 520 289
f 289 844 264
f 264 913 520
f 844 629 264
f 264 629 913
f 506 265 351
f 550 351 265
f 367 265 506
f 1056 265 367
f 267 488 279
f 279 632 267
f 324 643 267
f 324 267 754
f 643 488 267
f 632 754 267
f 818 269 869
f 946 269 818
f 269 946 1169
f 362 408 270
f 362 270 629
f 408 1141 270
f 629 270 533
f 1012 712 274
f 990 1012 274
f 1050 428 276
f 619 1107 276
f 1107 1050 276
f 422 279 382
f 488 382 279
f 1040 279 422
f 279 1040 632
f 782 665 281
f 284 328 457
f 328 284 1050
f 428 284 457
f 428 1050 284
f 401 454 285
f 454 640 285
f 528 285 640
f 562 459 288
f 288 687 731
f 731 1055 288
f 1099 288 1055
f 289 424 510
f 1108 424 289
f 510 787 289
f 289 520 1108
f 787 844 289
f 788 857 292
f 930 788 292
f 857 820 292
f 820 930 292
f 301 935 293
f 301 293 1067
f 293 935 623
f 293 623 1031
f 293 1031 1067
f 295 478 310
f 295 939 478
f 1117 939 295
f 869 322 297
f 869 297 831
f 1149 300 1159
f 323 301 1067
f 301 323 1088
f 301 1040 935
f 1088 1040 301
f 304 935 422
f 304 623 935
f 542 305 387
f 542 765 305
f 536 940 308
f 308 949 536
f 308 940 898
f 949 308 904
f 309 341 487
f 341 309 569
f 514 309 487
f 607 309 514
f 569 309 928
f 309 607 792
f 792 928 309
f 311 310 478
f 310 311 1058
f 1058 936 310
f 311 443 1058
f 1098 443 311
f 478 1022 311
f 535 830 311
f 1022 535 311
f 830 1098 311
f 312 1026 1146
f 808 1018 314
f 314 1169 808
f 1018 1111 314
f 1148 314 1111
f 317 862 551
f 1080 317 551
f 862 317 1153
f 317 1151 914
f 1153 317 914
f 1151 317 1080
f 1054 318 458
f 567 318 464
f 1054 464 318
f 918 319 583
f 319 1122 583
f 319 1007 863
f 863 1122 319
f 319 918 1007
f 433 344 321
f 1051 321 344
f 482 321 1051
f 1109 321 482
f 323 457 337
f 739 323 337
f 323 1067 457
f 739 671 323
f 671 1088 323
f 689 324 503
f 754 503 324
f 688 643 324
f 688 324 886
f 846 324 689
f 846 886 324
f 826 327 878
f 328 810 457
f 788 810 328
f 857 788 328
f 1050 857 328
f 428 457 333
f 775 428 333
f 457 775 333
f 840 961 335
f 810 337 457
f 671 739 337
f 823 671 337
f 810 823 337
f 463 339 553
f 874 339 463
f 471 553 339
f 339 697 471
f 339 1119 697
f 1119 339 874
f 572 487 341
f 569 840 341
f 341 840 572
f 344 433 440
f 548 344 440
f 351 564 506
f 351 550 936
f 1110 564 351
f 351 936 734
f 1110 351 734
f 468 354 770
f 468 973 354
f 721 950 354
f 354 1019 721
f 950 770 354
f 973 1019 354
f 1008 355 733
f 1008 1026 355
f 357 427 912
f 357 1086 427
f 357 528 640
f 528 357 912
f 357 640 540
f 540 1086 357
f 941 358 377
f 997 377 358
f 358 918 583
f 583 997 358
f 359 670 504
f 504 809 359
f 359 717 670
f 809 717 359
f 408 362 400
f 362 844 400
f 629 844 362
f 1042 1199 365
f 571 366 762
f 571 842 366
f 719 366 606
f 366 859 606
f 762 366 719
f 842 930 366
f 366 930 859
f 380 399 368
f 560 368 399
f 912 425 371
f 371 528 912
f 372 953 410
f 410 991 372
f 750 819 375
f 375 824 750
f 988 375 819
f 877 1030 376
f 877 376 1046
f 376 1148 1046
f 423 613 377
f 634 423 377
f 613 477 377
f 377 477 941
f 377 997 634
f 836 379 446
f 446 379 937
f 399 380 664
f 380 705 664
f 382 609 422
f 382 488 512
f 382 512 609
f 572 962 383
f 572 383 998
f 962 1035 383
f 383 1035 998
f 433 386 440
f 386 433 548
f 1047 387 437
f 938 542 387
f 387 1047 938
f 389 423 634
f 686 423 389
f 541 686 389
f 389 878 541
f 389 634 552
f 552 878 389
f 391 425 1021
f 1021 677 391
f 908 409 396
f 409 1044 396
f 852 660 396
f 660 908 396
f 396 1133 852
f 1044 1133 396
f 716 397 417
f 397 763 417
f 397 510 424
f 763 397 424
f 893 510 397
f 397 716 923
f 923 893 397
f 779 398 576
f 398 695 732
f 695 398 779
f 871 398 732
f 399 1033 560
f 399 664 1033
f 504 408 400
f 504 400 631
f 400 868 631
f 400 844 787
f 400 787 868
f 454 401 813
f 682 1122 401
f 401 1122 813
f 407 1069 529
f 407 698 745
f 745 966 407
f 1069 407 966
f 408 504 670
f 1141 408 670
f 1101 409 908
f 1147 1044 409
f 743 410 841
f 561 502 412
f 412 502 1084
f 659 412 1084
f 809 698 413
f 698 818 413
f 413 1027 809
f 818 1027 413
f 558 417 673
f 716 417 558
f 417 929 673
f 417 763 814
f 929 417 814
f 418 692 429
f 995 418 429
f 629 692 418
f 629 418 913
f 418 995 913
f 1040 422 935
f 612 613 423
f 612 423 686
f 763 424 814
f 800 814 424
f 424 1108 800
f 425 699 887
f 425 912 699
f 1021 425 887
f 427 851 699
f 699 912 427
f 427 1086 851
f 429 692 1146
f 733 995 429
f 1008 733 429
f 1008 429 1026
f 1026 429 1146
f 434 539 867
f 539 434 895
f 895 434 741
f 434 903 741
f 903 434 867
f 593 517 437
f 437 517 663
f 437 663 746
f 746 1047 437
f 507 703 443
f 443 1098 507
f 703 734 443
f 443 734 1058
f 936 836 446
f 640 454 540
f 863 454 813
f 968 454 863
f 457 1067 775
f 459 562 530
f 747 485 460
f 463 553 1022
f 870 463 784
f 463 1022 784
f 870 874 463
f 567 464 714
f 713 714 464
f 947 713 464
f 947 464 1054
f 716 537 465
f 465 537 725
f 716 465 923
f 1090 465 725
f 965 923 465
f 965 465 1090
f 468 481 811
f 1041 481 468
f 1041 468 770
f 477 613 470
f 477 470 779
f 662 470 613
f 662 986 470
f 470 695 779
f 987 695 470
f 986 987 470
f 471 864 553
f 648 614 471
f 614 864 471
f 697 648 471
f 477 779 941
f 478 939 784
f 784 1022 478
f 481 502 811
f 1084 502 481
f 1041 1084 481
f 486 709 1056
f 888 486 712
f 952 486 888
f 1117 486 952
f 556 514 487
f 488 996 512
f 643 688 488
f 688 996 488
f 826 495 647
f 853 647 495
f 691 495 681
f 495 826 681
f 691 853 495
f 764 1035 500
f 500 1075 764
f 500 962 860
f 1033 500 860
f 1035 962 500
f 1033 1075 500
f 561 944 502
f 811 502 944
f 503 518 610
f 754 518 503
f 610 571 503
f 503 571 689
f 504 631 672
f 504 672 809
f 564 979 506
f 979 861 506
f 591 703 507
f 507 940 591
f 636 741 507
f 1098 636 507
f 741 744 507
f 744 940 507
f 509 713 661
f 943 509 661
f 713 509 950
f 770 509 943
f 950 509 770
f 510 893 787
f 957 855 512
f 512 996 957
f 561 514 556
f 582 517 791
f 582 886 517
f 517 593 791
f 886 663 517
f 671 610 518
f 774 671 518
f 518 754 1061
f 1061 774 518
f 948 520 891
f 520 995 891
f 520 913 995
f 520 948 1108
f 521 567 714
f 714 950 521
f 721 521 950
f 1015 521 721
f 525 561 556
f 556 633 525
f 944 561 525
f 633 771 525
f 944 525 771
f 696 526 825
f 696 861 526
f 945 526 861
f 1018 628 529
f 1018 529 675
f 529 1069 675
f 1116 530 562
f 731 531 681
f 681 531 865
f 687 700 531
f 531 731 687
f 700 865 531
f 692 629 533
f 553 830 535
f 553 535 1022
f 536 949 564
f 536 564 1110
f 1110 940 536
f 537 716 748
f 725 537 877
f 748 877 537
f 539 793 624
f 867 539 624
f 735 539 736
f 793 539 735
f 736 539 895
f 584 781 542
f 584 542 938
f 765 542 781
f 665 545 724
f 782 545 665
f 545 821 724
f 545 967 821
f 862 599 551
f 1080 551 765
f 583 682 552
f 583 552 997
f 634 997 552
f 830 553 636
f 636 553 864
f 998 633 556
f 673 748 558
f 558 748 716
f 949 979 564
f 961 840 569
f 928 1060 569
f 1060 961 569
f 842 571 610
f 689 571 762
f 572 840 962
f 785 723 574
f 574 887 785
f 1021 887 574
f 1021 574 1085
f 977 576 679
f 779 576 1129
f 977 1129 576
f 820 857 578
f 578 1095 820
f 857 1107 578
f 1065 578 920
f 920 578 1107
f 1095 578 1065
f 601 837 580
f 837 1160 580
f 1160 1177 580
f 580 1177 1172
f 582 791 957
f 996 886 582
f 996 582 957
f 1122 682 583
f 1014 781 584
f 849 584 938
f 849 1014 584
f 722 590 820
f 722 859 590
f 930 820 590
f 859 930 590
f 591 734 703
f 591 1110 734
f 1110 591 940
f 866 597 596
f 596 597 924
f 719 606 596
f 606 866 596
f 719 596 1068
f 1068 596 924
f 608 597 866
f 608 1151 597
f 1001 924 597
f 1151 1001 597
f 599 855 600
f 599 600 872
f 791 872 600
f 791 600 957
f 957 600 855
f 1191 601 795
f 1191 837 601
f 602 1001 835
f 835 1014 602
f 1068 1001 602
f 605 749 795
f 749 605 1016
f 722 606 859
f 722 1095 606
f 866 606 1095
f 792 607 659
f 866 1065 608
f 608 890 914
f 608 1065 890
f 608 914 1151
f 823 610 671
f 828 610 823
f 842 610 828
f 612 662 613
f 647 612 686
f 647 853 612
f 662 612 853
f 864 614 648
f 687 618 700
f 618 858 700
f 920 1107 619
f 622 793 735
f 622 735 1119
f 622 985 793
f 622 1119 927
f 927 1134 622
f 1134 985 622
f 1031 623 775
f 1157 775 623
f 1157 623 1176
f 793 985 624
f 1004 867 624
f 624 945 904
f 904 1004 624
f 1073 705 625
f 625 916 822
f 822 1073 625
f 628 818 698
f 808 946 628
f 628 1018 808
f 946 818 628
f 1019 630 1127
f 1127 630 1037
f 630 1140 1037
f 631 1028 672
f 868 1028 631
f 1061 754 632
f 1040 1061 632
f 764 971 633
f 764 633 998
f 971 771 633
f 676 741 636
f 864 676 636
f 1098 830 636
f 686 826 647
f 676 864 648
f 676 648 895
f 697 736 648
f 648 736 895
f 865 700 653
f 987 653 732
f 1013 865 653
f 987 1013 653
f 806 656 771
f 656 944 771
f 806 847 656
f 811 656 884
f 944 656 811
f 847 884 656
f 758 661 659
f 661 792 659
f 798 758 659
f 659 1084 798
f 738 660 852
f 963 660 738
f 955 908 660
f 963 955 660
f 947 661 713
f 758 943 661
f 928 792 661
f 960 928 661
f 986 662 853
f 663 846 746
f 846 663 886
f 705 1073 664
f 1033 664 1075
f 1073 1075 664
f 724 666 665
f 757 665 666
f 959 666 724
f 666 891 757
f 891 666 959
f 831 670 717
f 670 831 1141
f 671 774 1088
f 745 809 672
f 966 745 672
f 1028 966 672
f 673 747 748
f 747 673 1011
f 673 929 821
f 821 934 673
f 1011 673 934
f 1066 917 675
f 917 1111 675
f 1111 1018 675
f 1066 675 1069
f 895 741 676
f 677 1021 1085
f 677 1085 1087
f 723 807 679
f 679 807 873
f 873 977 679
f 691 681 865
f 731 681 1055
f 826 1055 681
f 886 996 688
f 689 827 746
f 689 746 846
f 827 689 762
f 986 853 691
f 865 1013 691
f 691 1013 986
f 987 732 695
f 696 825 990
f 696 990 861
f 735 736 697
f 1119 735 697
f 745 698 809
f 931 699 851
f 931 887 699
f 961 1060 706
f 1054 706 1060
f 712 1012 888
f 714 713 950
f 717 809 1027
f 831 717 1027
f 762 719 983
f 719 1068 983
f 1053 1015 721
f 1019 1053 721
f 1095 722 820
f 807 723 785
f 1002 724 821
f 724 1002 959
f 1046 725 877
f 725 1046 896
f 806 804 727
f 804 1092 727
f 806 727 847
f 916 727 822
f 727 1092 822
f 727 982 847
f 916 982 727
f 995 733 757
f 734 936 1058
f 1127 738 852
f 984 963 738
f 1037 984 738
f 1127 1037 738
f 903 744 741
f 743 988 749
f 1016 743 749
f 841 988 743
f 744 903 898
f 744 898 940
f 827 938 746
f 938 1047 746
f 748 747 877
f 1030 877 747
f 750 749 819
f 1191 749 750
f 1191 795 749
f 749 988 819
f 1191 750 1166
f 995 757 891
f 758 798 1084
f 758 1084 943
f 983 827 762
f 764 1075 971
f 1035 764 998
f 781 835 765
f 765 835 1080
f 943 1041 770
f 806 771 971
f 774 1061 1088
f 1067 1031 775
f 1129 941 779
f 1014 835 781
f 784 1034 870
f 784 939 1034
f 785 901 807
f 785 887 931
f 901 785 931
f 868 787 954
f 893 954 787
f 828 810 788
f 930 828 788
f 796 1023 1162
f 1168 796 1162
f 1038 814 800
f 800 817 1038
f 1108 817 800
f 806 971 804
f 971 1075 804
f 1092 804 1075
f 856 873 807
f 901 856 807
f 946 808 1169
f 828 823 810
f 811 884 1140
f 813 1122 863
f 1000 929 814
f 1038 1000 814
f 873 856 815
f 932 873 815
f 815 968 932
f 816 825 985
f 816 1012 825
f 888 816 974
f 816 888 1012
f 816 1134 974
f 1134 816 985
f 959 817 948
f 817 1108 948
f 959 1002 817
f 817 1002 1038
f 869 1027 818
f 1000 821 929
f 967 934 821
f 1002 821 1000
f 822 1092 1073
f 989 824 1023
f 825 1012 990
f 1055 826 878
f 827 849 938
f 983 849 827
f 828 930 842
f 869 831 1027
f 963 884 847
f 982 963 847
f 901 931 851
f 1015 1127 852
f 852 1133 1015
f 1050 1107 857
f 962 978 860
f 949 945 861
f 979 949 861
f 863 932 968
f 932 863 1007
f 1095 1065 866
f 903 867 898
f 868 954 1139
f 1028 868 1139
f 874 870 1078
f 870 1034 1078
f 1085 871 1087
f 897 873 932
f 897 977 873
f 1131 874 1078
f 1119 874 1131
f 875 977 897
f 1007 875 897
f 875 1007 958
f 1129 977 875
f 1099 1055 878
f 984 884 963
f 884 984 1140
f 888 974 952
f 890 1065 920
f 959 948 891
f 954 893 923
f 896 1046 917
f 917 1145 896
f 1090 896 1145
f 1007 897 932
f 904 945 949
f 1139 910 1036
f 1145 1036 910
f 910 1139 1090
f 1090 1145 910
f 955 982 916
f 1046 1111 917
f 1066 1145 917
f 958 1007 918
f 1020 958 918
f 965 954 923
f 1068 924 1001
f 974 927 1131
f 1134 927 974
f 927 1119 1131
f 960 1136 928
f 928 1136 1060
f 939 1117 1034
f 943 1084 1041
f 974 1078 952
f 1034 952 1078
f 1034 1117 952
f 965 1090 954
f 1139 954 1090
f 963 982 955
f 1054 1136 960
f 1028 1039 966
f 1039 1069 966
f 1078 974 1131
f 984 1037 1140
f 986 1013 987
f 1023 1168 989
f 989 1168 1162
f 1000 1038 1002
f 1172 1177 1003
f 1127 1015 1053
f 1019 1127 1053
f 1139 1039 1028
f 1036 1066 1039
f 1139 1036 1039
f 1145 1066 1036
f 1039 1066 1069
f 1088 1061 1040
f 1111 1046 1148
f 1060 1136 1054
f 1092 1075 1073
f 1182 1166 1161
