# sdm_hand_300.obj  (300 v, 592 f)  units: metres
v -0.124207243 -0.032700326 0.087824374
v -0.140955403 -0.019426635 0.076619104
v -0.135990813 -0.005367735 0.088396206
v -0.108314641 -0.009090240 0.081173144
v -0.063616410 -0.007399301 0.025626233
v -0.086771965 -0.014201626 0.046734251
v -0.069094315 0.004087776 0.014222741
v -0.092772461 -0.004194433 0.034091067
v -0.093501076 0.002845075 0.044140018
v -0.081546076 0.000597216 0.059131201
v -0.076583833 0.003630015 0.056645583
v -0.042295072 0.020616119 0.108044981
v -0.067262895 0.020293472 0.032824390
v -0.039999999 -0.005500000 0.180999994
v -0.039999999 -0.005500000 0.195999995
v -0.024000000 -0.005500000 0.180999994
v -0.018999999 -0.005500000 0.188999996
v -0.024000000 -0.005500000 0.195999995
v -0.002000000 -0.005500000 0.188999996
v -0.002000000 -0.005500000 0.206000000
v 0.006625000 -0.005500000 0.184000000
v 0.003000000 -0.005500000 0.200000003
v 0.018999999 -0.005500000 0.184000000
v 0.015567703 -0.005500000 0.196234947
v 0.037500001 -0.005500000 0.167999998
v 0.037500001 -0.005500000 0.177851557
v -0.025000000 0.020000000 -0.022499999
v 0.037999999 -0.003000000 0.020000000
v 0.025000000 0.002000000 -0.029999999
v -0.041499998 0.002500000 0.141000003
v -0.041499998 0.002500000 0.147000000
v -0.022500001 0.002500000 0.101000004
v -0.020500001 0.002500000 0.101000004
v -0.022500001 0.002500000 0.141000003
v -0.022500001 0.002500000 0.147000000
v -0.020500001 0.002500000 0.145999998
v -0.041499998 0.002500000 0.172000006
v -0.041499998 0.006718750 0.178000003
v -0.020500001 0.002500000 0.180000007
v -0.039500002 0.021000000 0.147499993
v -0.016421857 0.019500000 0.124134932
v -0.031573787 0.019500000 0.128315959
v -0.022500001 0.019500000 0.141000003
v -0.020500001 0.015640625 0.145999998
v -0.024499999 0.021000000 0.140499994
v -0.024499999 0.021000000 0.147499993
v -0.018772438 0.009242062 0.186464846
v -0.019500000 0.019500000 0.186000004
v -0.012306090 0.019875000 0.171002198
v -0.018500000 0.021000000 0.186499998
v -0.005500000 0.002500000 0.101000004
v 0.001500000 0.002500000 0.101000004
v 0.020500001 0.002500000 0.101000004
v -0.000500000 0.002500000 0.145999998
v 0.001500000 0.002500000 0.143000007
v 0.020500001 0.002500000 0.143000007
v 0.023000000 0.002500000 0.133000001
v 0.023000000 0.002500000 0.138999999
v -0.000500000 0.002500000 0.151999995
v 0.001500000 0.002500000 0.149000004
v 0.001500000 0.002500000 0.174999997
v 0.020500001 0.002500000 0.149000004
v 0.020500001 0.002500000 0.174999997
v -0.000500000 0.002500000 0.180000007
v 0.001500000 0.002500000 0.180999994
v -0.001121094 0.004794389 0.205499109
v 0.020500001 0.006718750 0.180999994
v 0.023000000 0.002500000 0.158999994
v 0.023000000 0.002500000 0.165000007
v 0.039000001 0.002500000 0.158999994
v -0.000500000 0.019500000 0.101000004
v 0.006260278 0.020156250 0.115139043
v 0.001500000 0.019500000 0.143000007
v 0.003500000 0.021000000 0.142499998
v 0.020500001 0.019500000 0.143000007
v 0.045000002 0.022000000 0.094999999
v 0.023000000 0.016484375 0.133000001
v 0.031051482 0.020812500 0.132467244
v 0.019375000 0.020250000 0.156695311
v -0.000500000 0.019500000 0.208000004
v 0.006250000 0.019500000 0.202000007
v 0.020335938 0.016304318 0.184722329
v 0.020500001 0.019500000 0.202000007
v 0.024792969 0.018599755 0.160322741
v 0.039000001 0.019500000 0.158999994
v 0.039000001 0.015218750 0.165000007
v 0.023000000 0.019500000 0.182999998
v 0.039000001 0.019500000 0.182999998
v 0.041619312 0.004368342 0.010124668
v 0.033697494 0.019500000 0.176561829
v 0.038000000 0.019757813 0.138861088
v 0.025652343 0.020542969 0.138646764
v 0.030562500 0.002500000 0.142500000
v 0.039000001 0.019500000 0.113625003
v 0.011000000 0.002500000 0.149000004
v 0.020500001 0.019500000 0.131187506
v 0.001500000 0.002500000 0.127250006
v 0.011000000 0.002500000 0.143000007
v 0.011000000 0.002500000 0.101000004
v -0.001579502 0.019968750 0.184696083
v -0.010500000 0.002500000 0.151999995
v -0.010500000 0.002500000 0.145999998
v -0.033358951 0.004509409 0.197499998
v -0.040500000 0.019500000 0.149148438
v -0.032000000 0.002500000 0.147000000
v -0.024499999 0.021000000 0.143999993
v -0.022500001 0.019500000 0.127250003
v -0.040932655 0.003741348 0.105048276
v -0.032000000 0.002500000 0.141000003
v -0.066495501 0.009769199 0.027366895
v -0.028590513 0.020812500 0.178734574
v 0.019843750 0.002577813 0.200538982
v -0.013528993 0.019500000 0.186996755
v -0.030945313 0.021000000 0.140499994
v -0.124221434 -0.005740681 0.072711721
v -0.022900391 0.005326600 0.195859378
v 0.001500000 0.005421875 0.202000007
v 0.020500001 0.013468751 0.143000007
v 0.039000001 0.002500000 0.143999998
v 0.023000000 0.002500000 0.148999997
v -0.000500000 0.002500000 0.120687501
v -0.020500001 0.002500000 0.120687501
v -0.022500001 0.002500000 0.118500004
v -0.022500001 0.013468751 0.141000003
v 0.001500000 0.012000001 0.149000004
v -0.023841919 -0.003025646 0.186954330
v 0.005766301 0.019500000 0.162217798
v -0.079507842 0.000769576 0.023380279
v -0.121839417 -0.000417821 0.076521778
v -0.138473108 -0.012397185 0.082507655
v -0.002000000 -0.000788608 0.189513472
v 0.001500000 0.013053193 0.171894321
v -0.030625000 -0.005500000 0.180999994
v 0.005625000 0.022000000 0.094999999
v 0.001500000 0.019500000 0.188218748
v -0.016264097 0.008486981 0.150467537
v 0.030493189 0.010739171 0.138999999
v 0.001500000 0.002500000 0.111500005
v -0.077444078 -0.012235982 0.037229025
v 0.017236997 0.020062500 0.174409407
v -0.041499998 0.002500000 0.157937503
v 0.003375000 0.018937501 0.146968752
v -0.064779312 0.003559911 0.037398365
v -0.032527344 0.021000000 0.147499993
v -0.034628917 0.019500000 0.151179181
v -0.041499998 0.013931680 0.151219307
v -0.038224467 0.018744233 0.196649396
v 0.001500000 0.013906251 0.143000007
v -0.069504959 -0.001500892 0.021067313
v 0.001500000 0.002500000 0.160375001
v 0.018500000 0.016000001 0.177999996
v 0.024499999 -0.003875000 0.180999994
v 0.023000000 0.012801165 0.155139259
v 0.023000000 0.013728401 0.140743790
v -0.025732220 -0.001936396 0.080096190
v -0.114050884 -0.005601891 0.074117150
v -0.015500001 0.017375000 0.208000004
v -0.077152188 -0.003157883 0.026269010
v -0.041499998 0.012730668 0.112372516
v 0.020500001 0.002500000 0.160781251
v 0.034682455 0.020437500 0.140546100
v 0.028072917 0.002500000 0.120479168
v -0.018500000 0.018562500 0.183332979
v -0.000500000 0.002500000 0.164250000
v 0.027341937 0.021803236 0.024524682
v 0.025839843 -0.003805107 0.170349689
v -0.017206861 0.021000000 0.183539982
v -0.017708971 0.019019353 0.152098145
v -0.087941713 -0.008494992 0.055628502
v -0.040595703 0.016785157 0.142765627
v 0.003945123 0.019470877 0.177715496
v -0.030127969 0.021000000 0.144655203
v 0.007660156 0.021000000 0.148490368
v -0.008875000 0.021000000 0.186499998
v 0.030654845 0.006360946 0.182665525
v 0.010826066 0.002500000 0.157305133
v 0.037850753 0.002149865 0.181999996
v -0.022500001 0.013332121 0.111276316
v -0.010420082 0.002500000 0.109717894
v -0.020500001 0.012382043 0.120078329
v -0.022500001 0.012026028 0.132535058
v -0.030972875 -0.003260201 0.195999995
v 0.030437500 0.021000000 0.158500001
v 0.025000000 0.017250001 0.135723959
v 0.020500001 0.013585646 0.155453986
v 0.013808921 0.015869587 0.145248541
v -0.022500001 0.019500000 0.194250000
v -0.025000000 0.006500000 -0.029999999
v -0.005168687 0.020625000 0.100483400
v 0.010079431 0.004937873 0.174499997
v -0.024718674 0.005408973 -0.004878610
v 0.002437500 0.001574617 0.189597082
v -0.081822266 0.013333663 0.046458930
v -0.010620459 0.021000000 0.181226019
v 0.001500000 0.015246533 0.137861173
v -0.093726453 -0.003190485 0.039747954
v -0.110594291 -0.009739160 0.052926591
v -0.070994859 0.004030762 0.018166694
v -0.114685872 -0.000982517 0.071785250
v 0.009434706 0.008238713 0.179909785
v -0.035766912 0.021000000 0.143017699
v 0.036140779 0.021000000 0.160295891
v -0.001250000 -0.000416173 0.193467333
v -0.018626926 0.014265859 0.100420297
v 0.013912086 0.014310858 0.137114364
v 0.011000000 0.002500000 0.135177883
v 0.009414990 0.015683282 0.149000004
v -0.018999999 -0.005500000 0.198396483
v 0.009208338 -0.003000000 0.039948399
v 0.019250000 0.017007813 0.146847186
v 0.020500001 0.006371621 0.126242491
v -0.002274381 0.018179859 0.098868396
v -0.066441709 0.016048989 0.026272113
v -0.024093350 0.015227419 0.176963002
v 0.003125000 0.002000000 -0.029999999
v -0.063126120 0.001746490 0.020359383
v 0.039877160 0.003202578 0.112998979
v 0.004687500 0.015500000 -0.029999999
v -0.041499998 0.013233958 0.187666086
v -0.039999999 -0.005500000 0.187474604
v -0.074353256 0.012032939 0.031295066
v 0.001500000 0.011856553 0.156311403
v -0.110349572 -0.017492704 0.060602036
v 0.019686843 0.017353337 0.174697195
v 0.010954843 0.002500000 0.112277754
v 0.020500001 0.015092257 0.139609814
v 0.038250001 0.002826777 0.175257735
v -0.121904584 -0.026179587 0.093286779
v 0.034562500 0.021000000 0.165500000
v 0.003000000 -0.005500000 0.193156252
v 0.045000002 0.004149834 0.060335122
v 0.026959759 0.021000000 0.162439742
v -0.010639927 0.002500000 0.135830735
v 0.024500000 0.002500000 0.182999998
v -0.083065082 -0.004486519 0.042940496
v -0.032697647 0.002500000 0.116443311
v 0.033382343 0.019959016 0.097788554
v -0.031224190 -0.005500000 0.189387444
v -0.113000660 -0.020822367 0.073374013
v 0.033574137 0.014265672 0.162449999
v 0.036923381 -0.002062500 0.062050505
v 0.025000000 0.015500000 -0.025312499
v -0.006917252 0.002701543 0.187426270
v -0.015549543 0.001673709 0.206483399
v -0.113558454 -0.025841692 0.081183988
v -0.020500001 0.002500000 0.168625002
v -0.007643250 -0.004265265 0.190631765
v -0.088976670 -0.001889793 0.049239040
v -0.020500001 0.015131383 0.178249155
v -0.007473876 0.019500000 0.191528041
v 0.037223329 0.000893694 0.167063101
v -0.032820313 0.019500000 0.140499994
v -0.001057238 0.013075375 0.180094116
v 0.011000000 0.016000001 0.174999997
v -0.053403754 0.002482199 0.004894442
v -0.018999999 -0.000937500 0.188999996
v 0.008858980 -0.000875555 0.183942623
v 0.013247547 0.006759735 0.143000007
v 0.008668110 0.019500000 0.141126031
v -0.020817324 0.020474229 0.100823407
v -0.001377394 0.019647600 0.133668443
v 0.037359223 0.013131840 0.135024374
v -0.040777444 0.001474955 0.189620951
v -0.017162637 0.000943715 0.191561078
v -0.027060055 0.002500000 0.170407897
v -0.023047701 0.009975546 0.152306820
v 0.038500001 0.014021086 0.153086200
v 0.021396143 0.017980739 0.102496753
v -0.017090820 -0.003937500 0.206000000
v -0.028391164 0.002688878 0.179305155
v 0.024632813 0.018475240 0.166279623
v 0.013707659 0.020460938 0.180730789
v -0.031238631 0.014342203 0.144473547
v -0.120801338 -0.020085147 0.097142074
v -0.024823015 0.019750274 0.160823385
v 0.024149958 0.005756012 0.180699403
v 0.006391812 0.010716580 0.138769766
v 0.005046659 0.021000000 0.098256611
v -0.110306558 -0.011597496 0.082585910
v -0.124981633 -0.014746100 0.093832139
v -0.024000000 0.018246078 0.144638989
v -0.108494970 -0.017302306 0.085758661
v -0.125540875 -0.026760671 0.079405520
v 0.003248742 0.015698638 0.106100779
v 0.031500000 0.002500000 0.156999997
v -0.011851169 0.002500000 0.162010880
v -0.020500001 0.007513844 0.203120404
v -0.041499998 0.012693364 0.134713231
v 0.030493844 -0.004729799 0.177878592
v -0.012198776 0.003510576 0.179000005
v 0.014057485 0.021000000 0.143232723
v 0.007013804 0.001657987 0.200706607
v -0.125941753 -0.023086011 0.090662354
v -0.098183587 -0.003324415 0.070826132
v -0.108568239 -0.013493186 0.069371898
v 0.007218750 0.008777981 0.143000007
v -0.000500000 0.012453764 0.127155538
v -0.040642446 0.016000141 0.167687767
v -0.000500000 0.012279205 0.103793671
v -0.045000002 0.022000000 0.000000000
f 245 228 1
f 228 293 1
f 245 1 283
f 1 293 283
f 115 2 130
f 2 115 197
f 2 293 130
f 283 2 197
f 283 293 2
f 129 130 3
f 280 129 3
f 130 293 3
f 293 280 3
f 4 239 156
f 280 4 156
f 280 239 4
f 143 139 5
f 139 149 5
f 149 143 5
f 6 197 169
f 223 6 169
f 223 197 6
f 216 213 7
f 213 300 7
f 255 216 7
f 7 300 255
f 9 221 8
f 235 9 8
f 128 8 221
f 128 235 8
f 193 9 199
f 193 221 9
f 197 9 196
f 235 196 9
f 197 199 9
f 169 193 10
f 294 169 10
f 193 294 10
f 143 193 11
f 235 143 11
f 193 235 11
f 12 104 40
f 201 12 40
f 12 42 107
f 252 42 12
f 170 104 12
f 12 107 260
f 12 108 159
f 12 213 108
f 12 201 114
f 114 252 12
f 165 12 134
f 12 260 134
f 159 288 12
f 12 165 300
f 12 288 170
f 213 12 300
f 193 108 13
f 13 108 221
f 193 13 221
f 133 238 14
f 263 133 14
f 14 238 220
f 263 14 220
f 15 238 182
f 263 15 182
f 220 238 15
f 263 220 15
f 126 238 16
f 270 126 16
f 16 238 133
f 270 16 133
f 247 208 17
f 17 208 256
f 247 17 264
f 264 17 256
f 126 116 18
f 116 182 18
f 182 126 18
f 131 203 19
f 247 131 19
f 203 247 19
f 203 66 20
f 66 244 20
f 20 247 203
f 244 269 20
f 269 247 20
f 24 21 23
f 21 257 23
f 24 230 21
f 230 192 21
f 192 257 21
f 24 22 230
f 24 292 22
f 22 292 230
f 24 23 82
f 23 257 82
f 112 24 82
f 24 112 292
f 251 26 25
f 26 289 25
f 166 251 25
f 289 166 25
f 251 177 26
f 177 289 26
f 27 191 165
f 218 27 165
f 188 191 27
f 188 27 218
f 191 89 28
f 28 89 241
f 209 191 28
f 209 28 241
f 89 215 29
f 242 89 29
f 215 242 29
f 236 30 108
f 30 288 108
f 109 30 236
f 109 273 30
f 30 273 170
f 288 30 170
f 105 266 31
f 273 105 31
f 146 31 141
f 141 31 266
f 146 170 31
f 170 273 31
f 108 178 32
f 108 32 236
f 32 178 123
f 236 32 123
f 51 179 33
f 204 51 33
f 179 122 33
f 122 180 33
f 180 204 33
f 109 236 34
f 273 109 34
f 123 181 34
f 236 123 34
f 34 181 124
f 273 34 124
f 35 266 105
f 273 35 105
f 266 35 273
f 136 44 36
f 44 180 36
f 136 36 102
f 102 36 233
f 36 180 122
f 233 36 122
f 141 265 37
f 298 141 37
f 265 214 37
f 214 298 37
f 38 263 219
f 38 219 298
f 270 263 38
f 270 38 298
f 249 246 39
f 246 290 39
f 290 249 39
f 104 145 40
f 145 144 40
f 144 201 40
f 136 41 44
f 41 180 44
f 168 41 136
f 168 261 41
f 180 41 204
f 260 41 189
f 41 261 189
f 41 260 204
f 107 42 43
f 42 273 43
f 106 42 45
f 45 42 114
f 106 281 42
f 114 42 252
f 281 273 42
f 181 107 43
f 181 43 124
f 43 273 124
f 172 106 45
f 172 45 114
f 106 172 46
f 106 46 281
f 172 144 46
f 144 281 46
f 48 163 47
f 47 287 48
f 47 163 253
f 243 47 253
f 264 47 243
f 47 264 287
f 113 50 48
f 167 48 50
f 287 113 48
f 167 163 48
f 100 49 194
f 49 100 261
f 163 167 49
f 49 253 163
f 167 194 49
f 168 249 49
f 261 168 49
f 49 249 253
f 113 174 50
f 174 167 50
f 179 51 121
f 51 299 121
f 204 299 51
f 99 225 52
f 284 99 52
f 52 225 138
f 284 52 138
f 99 53 225
f 99 284 53
f 225 53 211
f 53 268 211
f 284 268 53
f 136 102 54
f 102 233 54
f 54 233 121
f 261 54 121
f 261 136 54
f 195 97 55
f 206 55 97
f 98 55 206
f 98 296 55
f 195 55 148
f 55 296 148
f 98 206 56
f 258 98 56
f 211 118 56
f 118 258 56
f 56 206 211
f 262 77 57
f 77 268 57
f 262 57 162
f 57 268 162
f 120 58 93
f 58 137 93
f 120 154 58
f 154 137 58
f 101 136 59
f 101 59 286
f 136 253 59
f 253 164 59
f 59 164 286
f 95 176 60
f 207 95 60
f 207 60 125
f 60 222 125
f 176 150 60
f 150 222 60
f 132 150 61
f 190 132 61
f 150 190 61
f 95 62 176
f 207 62 95
f 176 62 160
f 62 185 160
f 185 62 210
f 62 207 210
f 190 160 63
f 160 224 63
f 224 190 63
f 164 253 64
f 290 164 64
f 253 290 64
f 192 171 65
f 200 65 171
f 257 192 65
f 200 257 65
f 80 66 100
f 80 244 66
f 253 100 66
f 203 253 66
f 257 67 82
f 272 82 67
f 67 257 200
f 200 272 67
f 68 153 120
f 285 68 120
f 285 153 68
f 251 166 69
f 166 271 69
f 240 251 69
f 271 240 69
f 267 70 119
f 70 285 119
f 267 240 70
f 240 285 70
f 71 212 189
f 261 71 189
f 261 212 71
f 96 72 259
f 72 96 268
f 259 72 195
f 72 284 195
f 268 278 72
f 278 284 72
f 148 186 73
f 195 148 73
f 186 259 73
f 259 195 73
f 142 74 259
f 142 291 74
f 74 291 259
f 118 96 75
f 75 96 259
f 210 118 75
f 210 75 259
f 76 165 134
f 237 76 134
f 76 231 165
f 217 231 76
f 237 217 76
f 262 78 77
f 78 268 77
f 94 78 91
f 161 91 78
f 92 161 78
f 184 92 78
f 78 94 237
f 184 78 262
f 268 78 237
f 127 140 79
f 173 127 79
f 140 224 79
f 291 173 79
f 79 185 210
f 185 79 224
f 210 291 79
f 250 80 100
f 244 80 157
f 80 250 157
f 272 81 83
f 81 292 83
f 81 192 117
f 292 81 117
f 192 81 135
f 272 135 81
f 82 83 112
f 82 272 83
f 83 292 112
f 92 153 84
f 161 92 84
f 84 153 240
f 161 84 183
f 232 183 84
f 232 84 271
f 84 240 271
f 91 161 85
f 267 91 85
f 161 267 85
f 90 227 86
f 240 90 86
f 86 227 251
f 240 86 251
f 175 90 87
f 87 90 271
f 175 87 276
f 87 271 276
f 88 90 175
f 227 90 88
f 175 177 88
f 177 227 88
f 165 231 89
f 165 89 242
f 89 191 215
f 231 241 89
f 229 90 202
f 90 240 202
f 229 271 90
f 262 94 91
f 267 262 91
f 92 137 154
f 92 184 137
f 154 153 92
f 137 119 93
f 93 119 285
f 93 285 120
f 94 217 237
f 94 262 217
f 226 96 118
f 211 96 226
f 268 96 211
f 138 225 97
f 284 138 97
f 284 97 195
f 225 206 97
f 296 98 258
f 174 100 194
f 250 100 174
f 100 253 261
f 136 101 286
f 103 182 116
f 187 103 116
f 147 103 187
f 219 103 147
f 263 182 103
f 263 103 219
f 275 145 104
f 170 146 104
f 298 104 146
f 275 104 298
f 181 178 107
f 107 178 260
f 108 143 110
f 110 216 108
f 193 143 108
f 155 108 216
f 108 155 260
f 159 108 288
f 108 260 178
f 213 221 108
f 143 149 110
f 110 149 198
f 110 198 216
f 111 147 187
f 219 147 111
f 187 214 111
f 214 275 111
f 111 298 219
f 275 298 111
f 174 113 250
f 250 113 287
f 201 172 114
f 130 129 115
f 199 115 129
f 199 197 115
f 126 214 116
f 187 116 214
f 192 292 117
f 210 186 118
f 186 258 118
f 211 226 118
f 137 262 119
f 262 267 119
f 153 154 120
f 233 179 121
f 121 297 261
f 299 297 121
f 233 122 179
f 181 123 178
f 125 127 142
f 222 127 125
f 207 125 142
f 182 238 126
f 214 126 270
f 171 127 132
f 127 222 132
f 127 171 140
f 173 142 127
f 149 158 128
f 198 149 128
f 158 235 128
f 221 198 128
f 199 129 280
f 243 203 131
f 247 243 131
f 222 150 132
f 190 171 132
f 270 133 263
f 212 134 260
f 212 268 134
f 268 237 134
f 171 192 135
f 171 135 272
f 136 246 168
f 246 136 286
f 136 261 253
f 262 137 184
f 235 139 143
f 139 158 149
f 235 158 139
f 140 171 272
f 224 140 272
f 146 141 298
f 266 265 141
f 142 173 291
f 207 142 186
f 186 142 259
f 145 281 144
f 172 201 144
f 145 275 281
f 148 296 186
f 190 150 176
f 200 224 151
f 272 200 151
f 224 272 151
f 166 152 175
f 166 289 152
f 152 289 175
f 153 285 240
f 191 209 155
f 191 155 216
f 260 155 204
f 204 155 284
f 241 155 209
f 217 155 241
f 217 268 155
f 155 268 284
f 156 239 197
f 156 197 295
f 199 280 156
f 199 156 295
f 157 287 244
f 250 287 157
f 190 176 160
f 185 224 160
f 161 183 202
f 240 161 202
f 240 267 161
f 162 217 262
f 268 217 162
f 290 286 164
f 165 191 300
f 218 165 242
f 166 175 234
f 276 166 234
f 276 271 166
f 174 194 167
f 246 249 168
f 169 248 193
f 248 169 197
f 295 223 169
f 294 295 169
f 190 224 171
f 254 200 171
f 171 224 254
f 175 289 177
f 175 276 234
f 251 227 177
f 232 202 183
f 186 210 207
f 258 186 296
f 191 188 215
f 188 218 215
f 212 260 189
f 191 216 255
f 191 255 300
f 292 192 230
f 294 193 199
f 248 235 193
f 248 197 196
f 235 248 196
f 223 295 197
f 197 239 283
f 198 213 216
f 221 213 198
f 294 199 295
f 254 224 200
f 202 232 229
f 253 203 243
f 204 284 212
f 204 212 299
f 225 211 206
f 247 269 208
f 208 264 256
f 269 264 208
f 291 210 259
f 261 299 212
f 278 268 212
f 284 278 212
f 265 275 214
f 298 214 270
f 242 215 218
f 217 241 231
f 228 245 274
f 293 228 274
f 229 232 271
f 239 282 245
f 239 245 283
f 280 279 239
f 239 279 282
f 247 264 243
f 244 264 269
f 244 287 264
f 274 245 282
f 246 286 290
f 253 249 290
f 297 299 261
f 275 265 266
f 266 273 281
f 266 281 275
f 280 274 282
f 274 280 293
f 279 280 282
