# sdm_hand_1200_q30pcaE1.obj  (1200 v, 1872 f)  units: metres
v -0.059176758 -0.005846387 0.021900922
v -0.088797115 -0.011421830 0.045479543
v -0.069094315 0.004087776 0.014222741
v -0.068354376 0.004346595 0.013601856
v -0.068571724 0.005567660 0.015462436
v -0.085817678 0.008371782 0.047617748
v -0.063345835 0.020366503 0.027859384
v -0.062823243 0.021846386 0.029099079
v -0.091415005 0.009480994 0.051073116
v -0.067785487 0.018813588 0.031584695
v -0.045000002 0.000000000 0.000000000
v -0.045000002 0.022000000 0.000000000
v -0.039500002 0.021000000 0.101499997
v -0.034343751 0.016000001 0.141000003
v -0.040265625 0.018187500 0.147000000
v -0.039500002 0.019500000 0.141000003
v -0.039031252 0.019500000 0.147249996
v -0.038562502 0.021000000 0.140499994
v -0.024968749 0.019500000 0.101250000
v -0.022500001 0.019500000 0.101000004
v -0.017750000 0.019500000 0.101250000
v -0.018500000 0.021000000 0.094999999
v -0.017500000 0.021000000 0.101499997
v -0.002500000 0.021000000 0.094999999
v -0.023117188 0.017613459 0.139850465
v -0.024499999 0.019500000 0.147000000
v -0.025437499 0.021000000 0.140499994
v -0.020000001 0.019500000 0.145171875
v -0.018500000 0.019500000 0.145999998
v -0.002500000 0.019500000 0.145999998
v -0.039500002 0.019500000 0.172000006
v -0.039414063 0.017968750 0.178062502
v -0.039500002 0.021000000 0.171499997
v -0.038562502 0.021000000 0.178499997
v -0.018000000 0.019500000 0.152312501
v -0.025757812 0.019500000 0.178250000
v -0.018500000 0.019500000 0.180000007
v -0.018500000 0.021000000 0.179499999
v 0.001500000 0.006718750 0.143000007
v 0.020500001 0.005170978 0.139742771
v 0.020500001 0.002500000 0.149000004
v 0.004437500 0.016437501 0.101000004
v -0.001500000 0.019500000 0.101000004
v 0.002734375 0.019500000 0.101125002
v 0.001977511 0.020550594 0.094999999
v 0.004437500 0.021000000 0.101499997
v 0.018500000 0.019500000 0.101000004
v 0.018500000 0.021000000 0.094999999
v 0.003500000 0.019500000 0.142750003
v 0.004437500 0.021000000 0.142499998
v 0.019500000 0.016000001 0.143000007
v 0.018500000 0.019500000 0.143000007
v 0.017093750 0.021000000 0.142499998
v 0.026500000 0.021000000 0.101499997
v 0.037500000 0.019500000 0.101125002
v 0.037000000 0.021000000 0.094999999
v 0.037000000 0.021000000 0.101499997
v 0.045000002 0.022000000 0.094999999
v 0.024000000 0.016000001 0.138999999
v 0.026687500 0.019500000 0.132624995
v 0.023000000 0.019500000 0.138999999
v 0.033674178 0.014561103 0.138999999
v 0.037000000 0.021000000 0.132499993
v 0.003500000 0.016000001 0.149000004
v 0.003500000 0.019500000 0.149250000
v 0.003500000 0.021000000 0.149499997
v 0.001500000 0.017750001 0.174999997
v 0.017679687 0.019500000 0.149598012
v 0.019500000 0.019500000 0.174999997
v 0.003500000 0.019500000 0.180999994
v 0.004437500 0.021000000 0.181500003
v 0.018781250 0.019500000 0.182242596
v 0.024500000 0.019500000 0.158749998
v 0.026687500 0.019500000 0.165375002
v 0.037500000 0.019500000 0.158874996
v -0.007500000 0.004187500 0.102000003
v 0.002499999 0.002000000 0.000000000
v -0.112585508 0.001062573 0.070651941
v 0.025000000 0.021000000 0.162000001
v 0.025000000 0.021000000 0.098249998
v 0.003686139 0.017153556 0.196581742
v 0.018500000 0.021000000 0.178000003
v 0.003500000 0.021000000 0.178000003
v 0.003500000 0.021000000 0.145999997
v 0.018500000 0.021000000 0.098249998
v 0.003500000 0.021000000 0.098249998
v -0.017090146 0.019500000 0.197631466
v -0.002500000 0.021000000 0.182999998
v -0.018399730 0.003735064 0.176911521
v -0.002500000 0.021000000 0.149000004
v -0.018500000 0.021000000 0.149000004
v -0.000500000 0.016000001 0.101000004
v -0.002500000 0.021000000 0.098249998
v -0.024499999 0.021000000 0.143999993
v -0.040222755 0.017372732 0.122364483
v -0.025906249 0.020626119 0.098446883
v -0.042071476 -0.002026048 0.007589698
v 0.025000000 0.000000000 0.000000000
v -0.094076580 0.003131958 0.045254544
v 0.000000000 0.022000000 0.094999999
v -0.065958780 0.012967082 0.021660910
v -0.070398432 0.011414166 0.025386222
v -0.068857837 0.016006450 0.029337881
v -0.117013753 -0.005717688 0.063431631
v -0.010500000 0.021000000 0.094999999
v -0.010500000 0.019500000 0.152500004
v -0.009500000 0.021000000 0.152500004
v 0.013750000 0.002000000 0.000000000
v -0.029656250 0.021000000 0.140499994
v -0.033406251 0.020812500 0.147499993
v -0.030593750 0.019500000 0.171499997
v -0.033406251 0.021000000 0.178499997
v -0.031765625 0.021000000 0.171499997
v 0.011000000 0.021000000 0.101499997
v 0.011000000 0.021000000 0.094999999
v 0.011000000 0.019500000 0.101499997
v 0.010062500 0.019500000 0.149499997
v 0.011937500 0.016000001 0.149000004
v 0.011000000 0.016000001 0.174999997
v -0.117718930 -0.007207355 0.070750431
v -0.022500001 0.022000000 0.094999999
v 0.031000000 0.019500000 0.101499997
v 0.031000000 0.016000001 0.101000004
v 0.031000000 0.021000000 0.132499993
v 0.032875000 0.019500000 0.139500007
v -0.092954068 0.006769854 0.048511422
v -0.095558072 -0.002021905 0.041541877
v -0.117462854 -0.012577327 0.087786274
v -0.063601776 0.015935243 0.036483688
v -0.014500000 0.021000000 0.101499997
v -0.006500000 0.021000000 0.101499997
v -0.014500000 0.016000001 0.145999998
v -0.014250000 0.016000001 0.151999995
v -0.011500000 0.021000000 0.186499998
v -0.015312500 0.019281250 0.185885237
v -0.015500000 0.021000000 0.179499999
v -0.028250000 0.019500000 0.101499997
v -0.028250000 0.016000001 0.101000004
v -0.027546875 0.021000000 0.101499997
v -0.035750001 0.019500000 0.101499997
v -0.036687501 0.021000000 0.101499997
v -0.029187500 0.021000000 0.147499993
v -0.034812501 0.021000000 0.140499994
v -0.028250000 0.019500000 0.140499994
v 0.013812500 0.021000000 0.101499997
v 0.015687500 0.019500000 0.101499997
v 0.007250000 0.019500000 0.174500003
v 0.006312500 0.019500000 0.181500003
v -0.040593748 0.002248783 0.195054323
v 0.013075045 0.018437500 0.113869668
v 0.034000000 0.021000000 0.101499997
v 0.034000000 0.021000000 0.132499993
v 0.034000000 0.019500000 0.132499993
v 0.026500000 0.021000000 0.132499993
v 0.029996682 0.019500000 0.151275434
v 0.029500000 0.021000000 0.165500000
v -0.040044178 0.018503087 0.053217771
v -0.089968219 0.008785808 0.047263008
v -0.089274391 0.006335122 0.052312828
v -0.039464654 0.010283138 0.147000000
v -0.020500001 0.005963830 0.111633132
v -0.000500000 0.006750000 0.133892475
v -0.030125000 0.009250001 0.147000000
v -0.068605269 0.019180073 0.033117740
v 0.023000000 0.010937501 0.150582806
v -0.001156525 0.010144121 0.187391151
v -0.000500000 0.002500000 0.112250003
v -0.022500001 0.013203341 0.102724168
v -0.025077701 -0.005312602 0.188579185
v -0.112344299 -0.006980136 0.080352899
v -0.004000000 0.000000000 0.000000000
v -0.064652307 0.016666792 0.024760147
v -0.053541651 0.022052603 0.014239096
v -0.057012890 0.012919544 0.006996444
v -0.054979681 0.001857366 0.005812280
v -0.116675917 -0.000784733 0.069377608
v -0.020333269 0.017025888 0.154239084
v -0.060303179 0.008754685 0.038925888
v 0.000281250 0.000000000 0.011249153
v 0.031000000 0.021000000 0.094999999
v -0.119257345 -0.008849102 0.062278100
v -0.017967581 0.007604178 0.101626098
v -0.087983740 -0.006939395 0.035920569
v 0.003390642 0.018484230 0.169961367
v -0.129468099 -0.008627235 0.086221138
v -0.093253903 -0.000389701 0.039635546
v 0.022500001 0.022000000 0.094999999
v 0.003720187 0.021687500 0.015811329
v -0.057812476 0.022078904 0.021358644
v -0.006500000 0.021000000 0.094999999
v -0.047633972 0.022041833 0.019793139
v -0.026312500 0.021500000 0.094999999
v -0.014500000 0.016000001 0.094999999
v -0.014500000 0.021000000 0.094999999
v -0.005500000 0.019500000 0.145500004
v -0.014000000 0.016000001 0.149083329
v -0.018500000 0.016000001 0.183000006
v -0.026843749 0.021000000 0.171499997
v -0.023734375 0.019500000 0.171875004
v 0.032500000 0.016000001 0.098000002
v -0.004062499 0.016000001 0.183000006
v -0.063086270 0.017106505 0.031641585
v -0.040500000 0.017539063 0.140736526
v -0.006031250 0.021000000 0.182999999
v -0.028008332 0.021000000 0.174999997
v -0.019102319 0.014225193 0.145999998
v 0.032500000 0.021000000 0.162000001
v 0.031750000 0.019500000 0.132499993
v -0.115242783 -0.018297166 0.069450772
v -0.035991669 0.021000000 0.143999993
v -0.009636254 0.021000000 0.182999998
v 0.027475349 0.006781808 0.131170834
v 0.007250000 0.021000000 0.094999999
v -0.002500000 0.018500001 0.183552088
v 0.034750000 0.019500000 0.101499997
v 0.033942882 0.019500000 0.104410913
v 0.025000000 0.016875001 0.165000007
v -0.028010616 0.005059090 0.094497889
v -0.030218750 0.002500000 0.178375002
v -0.039500002 0.018500002 0.144624999
v 0.045000002 0.022000000 0.083124999
v 0.028888883 0.021000000 0.136000000
v 0.003500000 0.016000001 0.098000002
v -0.037962503 0.016000001 0.175000005
v -0.012500000 0.016000001 0.098000002
v -0.018500000 0.016000001 0.148999997
v 0.028888889 0.021000000 0.162000000
v 0.006312500 0.019500000 0.149499997
v 0.007015625 0.021000000 0.149499997
v 0.034375000 0.021000000 0.139500007
v 0.033972705 0.022000000 0.077187499
v 0.030560180 0.015345564 0.158999994
v 0.025000000 0.018500001 0.162552090
v 0.029500000 0.021000000 0.098249998
v 0.016859375 0.021000000 0.181500003
v 0.015687500 0.021000000 0.178745539
v 0.007008333 0.021000000 0.178000003
v -0.073819892 0.008715405 0.026313863
v 0.006312500 0.016000001 0.098328129
v 0.024491381 0.022000000 0.083681682
v -0.012500000 0.021000000 0.098249998
v 0.028000000 0.016000001 0.101000004
v 0.033016161 0.017284655 0.086954692
v -0.117814911 -0.012539313 0.063975823
v -0.005151938 0.019500000 0.102476501
v -0.003500000 0.021000000 0.101499997
v 0.037000000 0.017750001 0.158999994
v 0.037000000 0.016000001 0.162000001
v -0.082018671 -0.010586625 0.041625088
v -0.044828127 0.015308378 0.086683166
v -0.014968750 0.021000000 0.149000004
v 0.035709409 0.014179835 0.165147980
v -0.031538613 0.021000000 0.174999997
v 0.034528211 0.016572243 0.181667358
v -0.038089287 0.001469727 0.093316220
v 0.004906250 0.016000001 0.145835944
v 0.025223263 0.018253453 0.126792086
v -0.037539509 0.018740204 0.142920275
v 0.009903629 0.021000000 0.145999998
v 0.012054967 0.019500000 0.185371501
v -0.040393377 0.017748233 0.184918430
v 0.009828125 0.016000001 0.178310542
v -0.024202854 0.022004515 0.031488815
v -0.039144126 0.015727237 0.170501442
v -0.018500000 0.016000001 0.098000002
v -0.114055567 -0.002343046 0.072312158
v 0.030180021 0.004915776 0.103645703
v 0.037000000 0.018500001 0.161447911
v -0.040014996 0.008437740 0.179335575
v -0.054411473 0.021318713 0.030912425
v 0.005791439 0.008017539 0.181659070
v 0.014750000 0.021000000 0.094999999
v 0.029124997 0.016000001 0.097812500
v -0.066594881 -0.004582295 0.025938951
v -0.116460979 -0.009154762 0.066606002
v -0.035243581 0.015795887 0.193015471
v 0.032500000 0.016000001 0.133000001
v -0.041499998 0.012839718 0.152469393
v 0.025000000 0.016000001 0.136000000
v -0.029506250 0.016000001 0.174806647
v 0.038238665 0.017810268 0.128817064
v -0.033765141 0.021000000 0.173513098
v 0.025000000 0.017750001 0.158999994
v -0.126025538 -0.014721371 0.065817985
v -0.066545792 0.017571817 0.032544468
v 0.009125000 0.016000001 0.174999997
v -0.028008332 0.021000000 0.143999994
v -0.027312500 0.021000000 0.178499997
v 0.030694442 0.021000000 0.134702378
v -0.000500000 0.017438048 0.154087810
v 0.035875000 0.021000000 0.161446429
v 0.014281250 0.021000000 0.098521632
v 0.025000000 0.019235534 0.160842350
v -0.072468145 0.004594566 0.020278174
v -0.067265252 0.009267370 0.018561673
v -0.070791550 0.004791203 0.017325092
v 0.034000000 0.021000000 0.094999999
v 0.018500000 0.016000001 0.177999996
v 0.026125000 0.016000001 0.161624998
v -0.062683633 0.008633069 0.010299150
v -0.061667028 0.003101981 0.009707068
v 0.003500000 0.016000001 0.177999996
v -0.034878405 0.021000000 0.175743446
v 0.024571291 0.018239658 0.154697879
v -0.019937500 0.003750000 0.000000000
v -0.025000000 0.002000000 -0.014999999
v 0.013524905 0.014283812 0.108082371
v 0.001500000 0.005170978 0.104257240
v 0.037000000 0.016000001 0.136000000
v -0.025437499 0.021000000 0.147499993
v -0.026140624 0.019500000 0.148197165
v -0.016778717 0.012387469 0.151999995
v 0.027540817 0.018835742 0.161806999
v 0.027250000 0.016000001 0.135250001
v -0.032461389 0.021000000 0.143999994
v 0.011413767 0.022000000 0.080249537
v -0.034226529 0.021000000 0.145636457
v 0.002377973 0.013625530 0.122635026
v 0.002405449 0.017991524 0.152671551
v -0.011363746 0.021000000 0.149000004
v -0.059295379 0.014706436 0.021134095
v 0.020500001 0.015156251 0.102061243
v 0.027209746 0.018266611 0.137346385
v -0.115060476 -0.004557297 0.070745316
v -0.024499999 0.016000001 0.098000002
v -0.066352452 0.007857228 0.023893492
v -0.022936558 0.016638384 0.180129867
v -0.039500002 0.016000001 0.098000002
v -0.001918315 0.022000000 0.081724462
v -0.024499999 0.016000001 0.096500000
v -0.024499999 0.018150002 0.097250001
v 0.017272398 0.019206981 0.164065056
v -0.037541908 0.004837348 0.122105669
v -0.018390823 0.005526741 0.155803666
v 0.001500000 0.018625000 0.149000004
v -0.033523777 0.019500000 0.102888476
v 0.033982912 0.017630370 0.131527981
v -0.024968749 0.016875001 0.101000004
v 0.020500001 0.018808561 0.152305884
v -0.028576208 0.018201612 0.173435620
v 0.032796877 0.016000001 0.161429684
v -0.060881267 0.006458156 0.024998776
v -0.091341713 -0.002442436 0.034509798
v 0.025972221 0.021000000 0.135315473
v -0.069892325 0.007303569 0.019414145
v 0.007717709 0.021000000 0.097977963
v -0.066955651 0.018000298 0.029460587
v -0.020500001 0.017813497 0.105169797
v -0.013166248 0.021000000 0.150539987
v 0.037000000 0.016000001 0.098000002
v -0.027698427 -0.001500000 0.084297636
v 0.026125000 0.021000000 0.158500001
v -0.010477210 0.015532119 0.078235071
v -0.036425000 0.016000001 0.098000002
v 0.005249466 0.017491911 0.172727250
v 0.002734375 0.017750001 0.143000007
v 0.032923610 0.021000000 0.098249998
v -0.037745835 0.021000000 0.173687497
v -0.020500001 0.016339469 0.178083139
v -0.026174179 0.016610247 0.124470708
v -0.024499999 0.018625000 0.173709056
v 0.030250000 0.021000000 0.101499997
v -0.011296294 0.018066942 0.184779183
v 0.030741441 0.018203844 0.163573039
v 0.027316774 0.012522596 0.101000004
v 0.014281250 0.019500000 0.174500003
v 0.007336165 0.021000000 0.144834486
v 0.018500000 0.016000001 0.098000002
v -0.006250000 0.016000001 0.186000004
v 0.009604767 0.016000001 0.098000002
v 0.015217393 0.021000000 0.149019992
v 0.017093750 0.021000000 0.146372765
v 0.023000000 0.005044117 0.147078214
v -0.115072764 -0.010733284 0.062770588
v -0.118598065 -0.011984725 0.061537269
v -0.016163828 0.018789545 0.150456324
v -0.038093752 0.019500000 0.140499994
v -0.063999071 0.018516648 0.026309765
v -0.065305543 0.014816937 0.023210529
v 0.028830054 0.017633169 0.102514067
v 0.009125000 0.016000001 0.146000006
v 0.033467110 0.018697228 0.134621840
v 0.026498188 0.018081068 0.159905398
v 0.045000002 0.022000000 0.089062499
v -0.026211376 0.018821413 0.173980390
v -0.017206861 0.021000000 0.183539982
v 0.026743055 0.021000000 0.138953131
v -0.120433135 -0.009379615 0.063110425
v -0.050624117 -0.003936217 0.014745310
v 0.011468750 0.019500000 0.181500003
v -0.027477210 0.015799402 0.172000006
v 0.019500000 0.018625000 0.143000007
v 0.016390625 0.016000001 0.146082036
v 0.020500001 0.010541629 0.103120961
v -0.116788057 -0.008146747 0.068332661
v 0.038000000 0.019062500 0.165062506
v -0.008684784 0.018295107 0.147019330
v -0.001372116 0.014019910 0.200276095
v -0.030234861 0.021000000 0.145486892
v -0.010606258 0.018431595 0.150248707
v 0.037000000 0.018473452 0.098655977
v 0.029437792 0.018099123 0.134425150
v 0.029500000 0.019500000 0.144436819
v -0.018524083 0.016320715 0.084533203
v 0.011000000 0.016000001 0.146914067
v -0.032999777 0.018461556 0.173364757
v 0.007922030 0.018897321 0.147031372
v -0.004000000 0.019500000 0.152375002
v -0.005500000 0.021000000 0.152500004
v 0.014413986 0.016000001 0.098219372
v 0.018500000 0.018500000 0.178624996
v -0.009518150 0.021000000 0.147598889
v -0.006250000 0.019500000 0.186499998
v 0.033625000 0.021000000 0.136553574
v -0.002500000 0.018473452 0.098655977
v 0.004437500 0.021000000 0.174500003
v 0.003968750 0.019500000 0.174750000
v -0.013166248 0.021000000 0.147460021
v -0.018500000 0.018500001 0.148374999
v -0.015000000 0.019500000 0.145500004
v -0.017000000 0.021000000 0.145500004
v -0.036301466 0.018497821 0.145677742
v -0.062828782 0.006656312 0.016392961
v 0.006312500 0.021000000 0.147480739
v -0.017500000 0.021000000 0.186499998
v -0.078126891 0.003503479 0.052136659
v -0.033875001 0.021000000 0.101499997
v 0.010824362 0.021000000 0.177437599
v -0.025710046 -0.005435039 0.185050817
v 0.018687114 0.014721025 0.197849743
v -0.016771063 0.002074317 0.188508664
v -0.033406251 0.019500000 0.178499997
v 0.025244576 0.002773853 0.168735621
v 0.012055887 0.015723463 0.183283240
v -0.002500000 0.017750001 0.180000007
v -0.034226529 0.021000000 0.142363530
v 0.035983251 0.021000000 0.135353640
v -0.057944725 0.011008542 0.014860290
v -0.093690539 0.001207993 0.042266655
v -0.024920062 0.019500000 0.105458851
v 0.025935735 0.017508637 0.157255967
v -0.116176259 -0.010212911 0.064869189
v -0.029948024 0.016000001 0.144000002
v -0.017657940 0.021000000 0.098851999
v 0.004906250 0.016437501 0.174999997
v -0.017500000 0.021000000 0.152062504
v 0.011053524 0.018395239 0.099142435
v -0.007097589 0.018670082 0.098200524
v 0.004712217 0.017186392 0.084222864
v -0.005086278 0.021000000 0.148156448
v -0.013327444 0.021000000 0.182999998
v -0.002500000 0.016000001 0.148999997
v -0.013274641 0.016000001 0.183284385
v -0.073955415 0.002146878 0.019395517
v 0.011241963 0.019500000 0.153154103
v 0.015115778 0.013090037 0.180999994
v 0.012751268 0.018481182 0.096167747
v 0.032331522 0.018641432 0.099528564
v -0.027912806 0.008295922 0.101000004
v 0.010062500 0.019500000 0.174500003
v 0.008656250 0.021000000 0.174500003
v 0.006364566 0.004613226 0.154235536
v 0.015209252 0.021000000 0.175644904
v 0.030718750 0.016000001 0.135734375
v -0.033155785 0.012934844 0.106584574
v 0.005938444 0.018480904 0.144816897
v 0.016625000 0.021000000 0.094999999
v -0.007000000 0.016000001 0.149083329
v 0.029886347 0.002466226 0.090212175
v 0.011159470 0.019500000 0.105405636
v 0.038395554 0.017565933 0.105952781
v 0.014274021 0.018568866 0.099223820
v 0.009125000 0.021000000 0.101499997
v 0.019362540 0.019500000 0.172499461
v -0.038002064 0.016018131 0.101417885
v -0.038952511 0.008027039 0.101953687
v -0.067918488 0.007417515 0.017012054
v 0.010688235 0.007847974 0.188851993
v 0.013765698 0.002500000 0.119425590
v 0.036818575 0.005674582 0.157460886
v -0.018500000 0.017750001 0.151999995
v -0.095849952 -0.005912606 0.040666039
v -0.018500000 0.018473452 0.098655977
v -0.008500000 0.021000000 0.094999999
v -0.076013989 0.002833244 0.024438104
v -0.027433964 0.019500000 0.137519045
v -0.067332030 0.004325890 0.016422209
v 0.029409679 0.015424025 0.138999999
v -0.013482180 0.018588326 0.097107749
v 0.032472453 0.017667929 0.091793499
v 0.003500000 0.018478005 0.098564918
v 0.009012676 0.018469892 0.096300012
v 0.028576688 0.013537914 0.141897268
v -0.009486976 0.014625335 0.141857474
v 0.030574734 0.018345110 0.160411802
v 0.016643018 0.017903871 0.179728244
v -0.011974084 0.009217450 0.081969752
v -0.118449298 -0.009606206 0.064449007
v 0.023779575 0.018358478 0.143326656
v 0.032558265 0.018307571 0.093760062
v 0.002634297 0.018252624 0.105305635
v -0.043924092 0.008556807 0.091900167
v 0.025000000 0.018500001 0.135447917
v 0.035020617 0.005477185 0.117802457
v -0.031062500 0.019500000 0.101499997
v 0.014475921 0.018823858 0.146929067
v 0.034750000 0.016000001 0.097250000
v -0.022781251 0.005730588 0.185628212
v 0.026847967 0.014155009 0.165000007
v -0.003538513 0.018449233 0.167777498
v -0.016085615 0.009700889 0.145185776
v 0.020500001 0.012042419 0.156863824
v 0.016811125 0.021000000 0.097058484
v -0.059566279 0.018295789 0.025602994
v -0.027312500 0.016000001 0.098328128
v 0.037000000 0.018500001 0.135447917
v -0.000300372 0.014550222 0.087777117
v -0.005448866 0.018237228 0.147799004
v -0.102026682 -0.005209329 0.071526014
v -0.018619222 0.017247814 0.187335195
v -0.121257567 -0.012927940 0.064793992
v 0.010448069 0.011667097 0.149000004
v 0.010784524 0.018306827 0.144564391
v 0.018500000 0.018478005 0.098564918
v -0.058083133 0.006661741 0.015812863
v 0.015687500 0.021000000 0.144519256
v -0.022500001 0.017974579 0.188574021
v -0.002500000 0.018500000 0.149624997
v 0.002343750 0.011562500 -0.029062499
v -0.025717180 0.005750490 0.182036532
v 0.031460052 0.019500000 0.155087867
v -0.017000000 0.021000000 0.097240383
v -0.118832476 -0.008465403 0.066575747
v 0.009552261 0.013311350 0.101000004
v -0.039500002 0.018500000 0.174447921
v -0.024499999 0.016000001 0.144000002
v 0.014388236 0.003552226 0.182324527
v -0.038093752 0.021000000 0.098521632
v 0.030694442 0.021000000 0.137297622
v 0.012875000 0.019500000 0.101499997
v 0.031515373 0.019500000 0.169684883
v 0.008848225 0.019500000 0.159986185
v 0.027250000 0.019500000 0.158500001
v 0.023292859 0.006986115 0.140071948
v 0.007169865 0.005113736 0.174999997
v 0.030646059 0.018597267 0.136934285
v -0.005500000 0.021000000 0.150423636
v 0.034961805 0.021000000 0.099378202
v -0.011956841 0.019500000 0.104926986
v 0.035946105 0.021000000 0.097674371
v 0.014321288 0.013835177 0.151479972
v -0.030234861 0.021000000 0.142513095
v 0.027892853 0.016000001 0.163071431
v 0.036625000 0.019500000 0.132749997
v 0.018500000 0.018625000 0.147329535
v -0.038622919 0.021000000 0.175656247
v -0.115393008 -0.007097573 0.067888180
v -0.067913687 0.003436074 0.020189904
v -0.071291269 0.005719892 0.019172110
v -0.011607950 0.019500000 0.190526940
v -0.034184794 0.018282929 0.142446857
v 0.031649167 0.017133829 0.140589330
v -0.061666294 0.016806013 0.028376772
v -0.067116647 0.006718711 0.019476918
v -0.090829385 -0.002672154 0.041886136
v -0.003250000 0.021000000 0.185624998
v -0.012809091 0.018786491 0.147853822
v 0.012976417 0.018651682 0.093237845
v -0.030052721 0.002500000 0.152368431
v -0.003500000 0.021000000 0.179499999
v -0.061100744 0.016535980 0.021532382
v -0.008500000 0.019500000 0.152500004
v 0.018500000 0.018500000 0.145447922
v -0.127740379 -0.027153188 0.081179398
v -0.015500000 0.021000000 0.181699498
v -0.117366462 -0.023526265 0.072958770
v -0.113672971 -0.006769310 0.066091197
v -0.031531250 0.019500000 0.140499994
v -0.068963531 0.010197422 0.021958581
v 0.016778591 0.019257837 0.099464278
v -0.009500000 0.019500000 0.145500004
v -0.010000000 0.021000000 0.145500004
v 0.032432426 0.017518843 0.101369522
v -0.028756983 0.018328894 0.144727985
v -0.040375001 -0.000750000 0.085000001
v 0.030866070 0.016000001 0.096941965
v -0.009282315 0.019500000 0.137703467
v -0.067210424 -0.003109696 0.035818423
v -0.007976621 0.016000001 0.183728577
v 0.002217860 0.017799307 0.183027346
v 0.026857131 0.018030906 0.164064340
v -0.111760239 -0.005456812 0.068917822
v 0.007936118 0.018413302 0.099215375
v -0.093482238 -0.001189466 0.042531115
v 0.010046658 0.016466501 0.152418949
v -0.116830238 -0.008798997 0.063624573
v -0.009342906 0.018439020 0.096489877
v -0.122643958 -0.007911702 0.067865261
v -0.065010702 0.003724288 0.011654462
v -0.065519004 0.006489832 0.011950503
v 0.011386018 0.018001260 0.147723245
v 0.034705919 0.018760617 0.097566255
v 0.037810669 0.014027302 0.101545368
v 0.029500000 0.019500000 0.139500007
v -0.028601562 0.015578487 0.141000003
v 0.033026053 0.012934192 0.090766109
v -0.070168474 0.003333750 0.018802268
v -0.016734375 0.021000000 0.147687504
v 0.030082166 0.019500000 0.129179292
v -0.070354946 0.008961454 0.022156692
v 0.020500001 0.012664669 0.111777425
v -0.117385116 -0.001614870 0.074865838
v -0.010000000 0.019500000 0.101499997
v -0.032308959 0.010907871 0.087203568
v 0.007461694 0.018771419 0.179148676
v 0.026500000 0.020375000 0.094999999
v -0.118454654 -0.004841626 0.066426241
v -0.063934189 0.013940102 0.028640057
v 0.039466819 0.015284444 0.086387675
v -0.066612016 0.011117226 0.020111291
v 0.043507577 0.015052169 0.072717808
v 0.016320271 0.018798002 0.176932782
v -0.120559969 -0.008035245 0.071805830
v 0.040479780 0.018127867 0.035784563
v -0.099871980 0.005260139 0.058669721
v 0.020500001 0.013318609 0.163593422
v 0.010999306 0.021000000 0.097166265
v -0.059587353 0.022092015 0.026300285
v -0.115942037 -0.005072060 0.067204307
v 0.011540685 0.019500000 0.170948327
v -0.067048408 0.009441929 0.022551007
v 0.009320620 0.012016740 0.154424679
v -0.063994989 0.016135507 0.027654516
v -0.029328125 0.002500000 0.180999994
v -0.031048277 0.018098957 0.142986384
v -0.058802007 0.015218633 0.031128589
v -0.001300636 0.016502896 0.178545180
v 0.035102219 0.016981759 0.092992561
v -0.016933036 0.016000001 0.147877973
v 0.034966508 0.021000000 0.163292721
v 0.003500000 0.018500002 0.146625003
v -0.006626906 0.018417137 0.184703388
v -0.002434716 -0.003929022 0.197711702
v -0.014678889 0.012873354 0.094999999
v 0.039056581 0.015496157 0.094999999
v -0.069798664 0.005779322 0.021213143
v 0.008616085 0.021000000 0.180390828
v -0.031531250 0.019500000 0.147499993
v -0.115911880 -0.001316958 0.071869789
v -0.009518150 0.021000000 0.150401119
v -0.004786414 0.018191287 0.150652616
v -0.011481849 0.021000000 0.184401113
v -0.018500000 0.018500000 0.182375005
v -0.008000000 0.016000001 0.094999999
v 0.027250000 0.021000000 0.099182690
v 0.029566620 0.018420885 0.096197413
v -0.090900678 0.000628194 0.041551261
v -0.001006470 0.017369524 0.105599286
v -0.013530633 0.018089324 0.150968645
v 0.037535206 0.006158337 0.176576519
v -0.062698035 0.016139774 0.029889348
v 0.038051979 0.019166280 0.171533728
v -0.014184121 0.021000000 0.099454000
v 0.002207918 0.007387226 0.163979890
v -0.093324036 -0.003468575 0.039910287
v 0.028324876 0.016002395 0.155876917
v -0.018500000 0.017636175 0.096821812
v -0.008247891 -0.005500000 0.200862371
v 0.003500000 0.017750001 0.149000004
v -0.019654274 0.015928390 0.172773289
v 0.004048609 0.022000000 0.064484821
v 0.030183156 0.019700638 0.091192483
v 0.034525475 0.018544997 0.162189880
v -0.015151294 -0.000895874 0.193174427
v -0.007672555 0.021000000 0.149000004
v 0.020500001 0.014312501 0.174078458
v -0.066457349 0.013945272 0.040062972
v -0.018000000 0.016875001 0.145999998
v 0.019291839 0.013504170 0.084595378
v 0.013812500 0.016000001 0.180999994
v 0.031434546 0.000642818 0.007913888
v 0.021155285 0.017187500 -0.009048322
v 0.037500000 0.019062500 0.138999999
v -0.064135537 -0.000879306 0.018061832
v -0.066614925 0.001604235 0.016142287
v -0.067854620 0.002846005 0.015182514
v -0.017500000 0.016000001 0.180000007
v 0.012762411 0.011263222 0.094999999
v -0.067442542 0.006032919 0.022941190
v -0.037545217 0.018957566 0.175380974
v -0.006914748 0.018267514 0.182174241
v -0.113877945 -0.000449361 0.067239417
v 0.014563875 0.021000000 0.097058484
v 0.014552515 0.013148697 0.136746880
v -0.120756711 -0.004195947 0.077042579
v 0.003500000 0.018500001 0.177447913
v 0.016704802 0.017919204 0.147798941
v -0.086672114 0.006187232 0.039643500
v -0.001117040 0.018729450 0.143333947
v -0.009500000 0.016000001 0.151999995
v -0.010308427 0.014795818 0.208000004
v -0.039500002 0.018478005 0.098564918
v 0.034875000 0.016000001 0.136874999
v -0.071527869 0.007606233 0.030033073
v -0.031777084 0.003317748 0.183688883
v -0.012500000 0.021000000 0.101499997
v -0.002298573 0.001081442 0.192503157
v -0.005250000 0.016437501 0.101000004
v 0.024291789 0.017291295 0.106984703
v -0.002500000 0.021000000 0.151625004
v -0.010500000 0.016000001 0.148166664
v -0.013500000 0.019875000 0.152500004
v -0.012500000 0.021000000 0.152500004
v -0.061550889 0.014969332 0.023743240
v -0.069945849 0.007399099 0.023492494
v -0.017735380 0.016924509 0.092257996
v -0.067298049 0.015743718 0.026983245
v -0.010866491 0.019500000 0.158431709
v -0.007680206 0.010030448 0.195516024
v -0.038771505 0.016168630 0.094999999
v -0.067592424 0.009855554 0.028080575
v -0.025277669 0.016000001 0.175556929
v -0.069088907 0.013137228 0.025924094
v -0.008866988 0.017123449 0.091236839
v -0.027437500 0.002500000 0.195999995
v -0.012500000 0.021000000 0.094999999
v -0.024193156 0.016988695 0.161030870
v 0.005607053 0.018118583 0.176410661
v 0.010756957 0.018063329 0.094725667
v -0.018573732 0.019062500 0.178924157
v -0.072449402 0.003015949 0.045321526
v -0.008121343 -0.005500000 0.196389271
v 0.030250000 0.016000001 0.094999999
v 0.043250001 0.000000000 0.083828126
v -0.065886081 0.010287508 0.026435440
v 0.020196502 0.013446324 0.139768452
v -0.027095792 0.015343264 0.103125647
v 0.016625000 0.013720929 0.143000007
v -0.002654547 -0.003580863 0.189805633
v 0.025051725 0.017169505 0.090163601
v 0.008187500 0.019500000 0.101499997
v -0.088969051 -0.000849399 0.040018192
v -0.069758400 0.002133624 0.022280340
v 0.026011160 0.016000001 0.097511161
v -0.028535087 0.002393406 0.183691617
v -0.030498839 0.001505759 0.184564430
v 0.014085387 0.017419292 0.092211109
v -0.005146525 0.009306293 0.152132190
v 0.000429524 0.019050172 0.091244738
v -0.087909429 0.005587572 0.048801138
v -0.015118918 0.019500000 0.109461234
v 0.009239001 0.016325606 0.092285949
v -0.039565749 -0.003870998 0.181260161
v -0.024499999 0.018625000 0.099197003
v 0.005517987 0.018479021 0.096641083
v -0.039459123 0.019500000 0.136883940
v 0.011996276 0.015248499 0.140984895
v 0.036422518 0.010373340 0.140046348
v -0.035507008 -0.001374400 0.180999994
v 0.036209838 0.019079439 0.090744326
v 0.003500000 0.018500001 0.094999999
v -0.071877429 0.008480870 0.023501427
v 0.005254167 0.021000000 0.176687503
v -0.068410561 0.005087587 0.018546041
v -0.090842221 0.003192569 0.041155290
v -0.027224011 0.016000001 0.143561268
v -0.084683943 0.001226105 0.045990168
v 0.029088847 0.018597531 0.138569266
v -0.019077115 0.018026786 0.094999999
v -0.012839319 0.004293883 0.193062243
v 0.018442842 0.019183813 0.104329489
v 0.038477041 0.016226069 0.147442414
v -0.068572278 0.007080771 0.025756147
v 0.011468750 0.016000001 0.094999999
v -0.117614705 -0.010803065 0.059712132
v -0.003250000 0.021000000 0.145937504
v -0.029936801 0.009053998 0.185825546
v -0.054959803 0.017995385 0.021524111
v 0.025000000 0.018473452 0.098655977
v -0.088884750 0.007639019 0.044379806
v -0.115193983 -0.017038756 0.074883539
v -0.011663553 0.018301468 0.093973166
v -0.023250000 0.003013449 0.182406244
v -0.027312888 0.003244457 0.186192871
v 0.005189070 0.021000000 0.099441399
v 0.011405859 0.018825487 0.090754283
v -0.064813473 0.013110972 0.024766206
v -0.031473138 0.003076477 0.193529986
v 0.011328374 0.016000001 0.096977165
v -0.067500875 0.013010422 0.027846987
v -0.006666876 0.021000000 0.181303738
v -0.132359242 -0.020701623 0.082149093
v 0.001500000 0.013769516 0.149607907
v 0.017174899 -0.001500000 0.082579301
v 0.016316080 0.016000001 0.177607133
v -0.009624448 0.018362181 0.181068589
v -0.088341281 0.003314323 0.046417773
v -0.029355327 0.001100505 0.182534476
v 0.009125000 0.021000000 0.094999999
v -0.009589844 0.021000000 0.097689902
v 0.035244793 0.016000001 0.134755208
v 0.019296719 0.018826368 0.140147969
v -0.121272874 -0.017371171 0.082853873
v -0.065275789 0.005396438 0.019319004
v -0.023568584 0.006854971 0.195882444
v -0.114991926 -0.009819469 0.078514224
v -0.093295607 -0.004161207 0.043145081
v -0.011360172 -0.005500000 0.196051856
v 0.011462186 0.014607366 0.169892990
v -0.092262816 0.000921892 0.044318405
v -0.119630274 -0.002510462 0.071481797
v 0.036250000 0.021000000 0.165500000
v -0.012750000 0.019500000 0.179499999
v -0.009622731 0.021000000 0.179762360
v -0.027464495 0.018246385 0.176687388
v -0.092837200 -0.001622893 0.037501783
v -0.018250000 0.015883523 0.101000004
v -0.000635740 0.005713105 0.204530373
v 0.037500000 0.016875001 0.133000001
v 0.031973584 0.009815856 0.170575909
v -0.114217361 -0.022026855 0.072369714
v 0.019500000 0.013859376 0.183527595
v 0.029804458 0.021000000 0.163583496
v -0.011619103 0.003018426 0.138291886
v 0.026818621 0.016000001 0.099181382
v -0.008358437 0.019500000 0.175945018
v -0.023246146 0.003996141 0.179081412
v 0.018031250 0.021000000 0.101093747
v -0.011755207 -0.002660220 0.201979988
v -0.032916935 0.001782131 0.185822312
v -0.035629740 0.019500000 0.170265753
v -0.026607346 0.016063926 0.178000003
v -0.009622175 0.003401631 0.197841246
v -0.068105875 0.010802128 0.026033424
v -0.002870536 0.018742715 0.188199658
v -0.091983295 -0.002894894 0.038660271
v -0.065366068 0.019112641 0.028846560
v 0.037000000 0.017636175 0.096821812
v -0.031062500 0.016000001 0.101000004
v -0.031307654 0.018252733 0.099529468
v 0.032875000 0.019500000 0.158500001
v -0.091773959 0.006255709 0.046321917
v -0.062559061 0.009902246 0.018744632
v -0.056623035 0.002754111 0.014077678
v -0.125712957 -0.019385003 0.091921618
v 0.033774306 0.021000000 0.158775299
v -0.114780350 -0.017413327 0.082142455
v -0.114261215 -0.001053720 0.070859716
v -0.003689661 0.016830603 0.146854524
v -0.010250000 0.016000001 0.180000007
v -0.024342909 -0.001510687 0.194564355
v 0.002009766 0.004513319 0.189552949
v -0.089330341 -0.000096309 0.053367282
v -0.023241884 0.012652826 0.147908041
v -0.031717323 0.018694816 0.176196535
v -0.112913622 -0.018876075 0.081378423
v -0.094349423 -0.000581439 0.045021910
v -0.021372449 0.022000000 0.076432792
v -0.016389132 0.018201273 0.147481307
v -0.070544568 0.012984414 0.027606593
v -0.010577651 0.014957241 0.107400155
v -0.029762301 -0.000111138 0.187978620
v -0.111487430 -0.010929643 0.082891443
v 0.015687500 0.016000001 0.094999999
v -0.089797794 0.003830564 0.040631702
v -0.010137030 0.003848218 0.187320801
v -0.024499999 0.018500001 0.144552084
v 0.023648758 0.008652388 0.181469767
v -0.087828352 0.006768663 0.046465385
v -0.090680553 0.001590223 0.038873332
v 0.004437500 0.019500000 0.103885040
v -0.026254165 0.021000000 0.142687494
v -0.039061460 0.021000000 0.143234369
v -0.065255014 0.003837480 0.028357528
v 0.027062500 0.007992177 0.158476819
v 0.017276920 0.019357435 0.093588828
v 0.025000000 0.021000000 0.163750000
v -0.107393407 -0.014125726 0.057989670
v -0.012000000 0.016000001 0.101000004
v -0.014656099 0.003497185 0.197595676
v -0.113684663 -0.014637018 0.082436407
v 0.031567458 0.013398237 0.155137065
v -0.018999999 -0.000030038 0.200949505
v -0.036650012 0.009392634 0.090975017
v -0.089143322 0.008370499 0.049827847
v -0.004319702 0.016310093 0.091996892
v -0.028761511 0.016000001 0.142691031
v -0.007500000 0.021000000 0.096624999
v 0.036857383 -0.000739311 0.170077476
v -0.002475264 0.015103034 0.094999999
v -0.065756356 0.014415593 0.027397568
v -0.008593750 0.000000000 0.009595508
v 0.004496094 0.016875001 0.180999994
v -0.091371463 0.004308381 0.047428981
v -0.026074778 0.016000001 0.145101701
v 0.008890625 0.019500000 0.142499998
v -0.028437840 -0.003211964 0.189070659
v -0.025004196 -0.004937662 0.194964147
v 0.020500001 0.017081822 0.131033617
v -0.027904715 0.018532144 0.142024877
v -0.031700000 0.016000001 0.098058596
v -0.012707991 0.000414087 0.202328126
v -0.042530793 0.019683001 0.081498365
v -0.027151523 0.001694569 0.180412105
v -0.026468156 0.018306556 0.145350755
v -0.099652303 -0.006322597 0.044697432
v -0.003943851 0.007449530 0.180000007
v 0.023905009 0.014779382 0.158473040
v 0.028161704 0.018503967 0.099443088
v -0.029912985 -0.001497385 0.189837680
v -0.117641966 -0.005066657 0.069075395
v -0.031659310 0.018175028 0.145829931
v -0.005312288 0.003076364 0.206953127
v 0.011839972 0.018102672 0.176582566
v 0.005358044 0.018492465 0.099478083
v -0.112028752 -0.019167574 0.089509063
v -0.084429284 0.012106593 0.047009891
v -0.031949079 0.001052996 0.191302992
v -0.111920851 -0.016060674 0.078801572
v -0.032347681 -0.001434761 0.187447900
v 0.035312498 0.016000001 0.099312501
v -0.031029860 -0.002493099 0.025096176
v 0.012869675 0.018802096 0.179466143
v -0.028958985 -0.000484004 0.190774948
v -0.028079892 -0.001557929 0.189760655
v -0.018153931 -0.003709141 0.191103243
v -0.028143492 -0.000774481 0.187853340
v -0.017234388 -0.004753823 0.203838877
v 0.008473683 0.016813401 0.174038364
v -0.012061726 0.001636203 0.198745536
v -0.004500000 0.021000000 0.094999999
v -0.027088161 0.000902488 0.195999995
v -0.031742181 0.016000001 0.096924800
v -0.034893631 0.016000001 0.099231383
v -0.111405100 -0.013916735 0.085817585
v -0.033000000 0.000000000 0.006250000
v 0.037000000 0.017250001 0.094999999
v 0.037000000 0.018625000 0.163329531
v 0.034754509 0.018039844 0.099896237
v -0.089877293 0.003829557 0.044743135
v 0.032875000 0.019500000 0.165500000
v -0.040738280 0.004263695 0.185863081
v -0.037906788 0.022000000 0.090823815
v 0.008890625 0.021000000 0.142499998
v -0.002500000 0.017554656 0.181896472
v -0.016500000 0.021000000 0.094999999
v -0.018500000 0.019343094 0.097150808
v -0.004066964 0.016000001 0.147877973
v -0.037225514 0.001697865 0.190265737
v -0.086373656 0.004421157 0.045308321
v 0.016925541 0.001012337 0.198724744
v 0.006312500 0.016000001 0.149000004
v 0.035437741 0.019500000 0.141107046
v -0.039500002 0.017582237 0.096776864
v -0.026943987 0.017733468 0.099675088
v -0.077225585 -0.007343230 0.031296204
v -0.029479042 0.001491158 0.194825722
v -0.010062053 -0.005315064 0.204760587
v -0.020131911 0.007541243 0.200789588
v 0.032336258 0.012797836 0.094999999
v -0.030465473 0.000540780 0.195999995
v -0.112225717 -0.017360571 0.085707380
v -0.039055268 -0.002574272 0.187377351
v -0.002500000 0.021000000 0.096624999
v -0.013773946 0.018303497 0.099235186
v -0.023504180 0.006101021 0.165330515
v 0.037356848 0.015799134 0.092010782
v -0.091803419 0.003829420 0.043220795
v -0.003845574 -0.001593750 0.021053700
v 0.009546983 0.008583955 0.142000005
v -0.029187500 0.021000000 0.099659564
v 0.005843750 0.016000001 0.094999999
v 0.007081884 0.018446516 0.092920705
v 0.025562500 0.019500000 0.139250003
v -0.030566063 -0.005500000 0.188770548
v -0.125801059 -0.025519487 0.087710134
v -0.087665005 0.007229435 0.042274391
v 0.043112669 0.008338915 0.092697046
v -0.019808835 0.016325470 0.137583336
v -0.035914947 0.017131263 0.138620796
v 0.018500000 0.017582237 0.096776864
v -0.005807393 -0.000375000 0.089821226
v 0.008656250 0.016000001 0.143000007
v -0.027250000 0.002500000 0.109315105
v -0.033162007 0.003204917 0.196546871
v -0.011072593 0.022000000 0.079326767
v 0.033546382 0.003016452 0.143999999
v -0.111923769 -0.017537634 0.074905508
v 0.039000001 0.014914050 0.139770720
v -0.059033532 0.000176477 0.015753788
v -0.032035178 -0.000528856 0.193248244
v -0.013462661 0.015208107 0.186000004
v -0.035070623 0.001797307 0.180152574
v -0.035309451 0.018085229 0.099812344
v -0.043957388 0.020301904 0.093091244
v -0.109907286 -0.013434771 0.082582440
v 0.035040127 -0.000703929 0.051430340
v -0.036687501 0.021000000 0.094999999
v -0.112236888 -0.011149599 0.065976709
v 0.015218750 0.016000001 0.143000007
v -0.039500002 0.021000000 0.096624999
v 0.001867187 0.014383381 0.102771356
v -0.059008726 0.010156138 0.022169659
v 0.011946549 0.009423959 0.054678165
v -0.008008375 -0.005478408 0.191418235
v -0.015324842 0.000604004 0.196522075
v -0.120152775 -0.005471337 0.067804894
v -0.006140625 0.016000001 0.097760417
v -0.008058496 0.001401669 0.202804116
v -0.031438287 0.021500000 0.094253895
v 0.025143178 0.014967886 0.094999999
v 0.024500000 0.017312501 0.101000004
v 0.016394695 0.014404366 0.154892555
v -0.028238532 -0.001565818 0.193396749
v 0.025000000 0.021000000 0.099874998
v 0.023242554 0.017700141 0.168591272
v -0.061508968 0.009343833 0.025453618
v -0.026787313 -0.000742202 0.180999994
v -0.031145032 0.013708839 0.149957126
v -0.029148817 0.001829116 0.189534210
v -0.066612569 0.012630337 0.030405003
v -0.024499999 0.020509791 0.176149248
v -0.033278235 -0.004943126 0.183256968
v -0.026001623 -0.002515958 0.191041303
v -0.037543073 -0.003395738 0.194645222
v -0.028156040 0.021000000 0.176540849
v -0.121397985 -0.026363759 0.078612677
v -0.033328739 0.006703925 0.140500003
v -0.118432228 -0.019450945 0.081040092
v 0.025000000 0.017750001 0.138999999
v -0.034747774 0.018775875 0.098286096
v 0.003500000 0.021000000 0.096624999
v -0.036678368 0.016911595 0.089187841
v 0.007342278 0.021000000 0.100470663
v -0.029422036 -0.002776958 0.195382664
v -0.026118128 -0.003244824 0.182029281
v -0.036580055 0.021000000 0.172386588
v 0.024562500 0.017122993 0.132543633
v -0.074369334 0.012912872 0.032937324
v -0.009878018 0.018798577 0.099155600
v -0.119333789 -0.020556607 0.095543396
v -0.038154169 0.021000000 0.146406243
v 0.036690040 0.009729098 0.133000001
v 0.005734168 -0.004409410 0.185654695
v -0.023765625 0.001464136 0.190467561
v -0.035045835 0.021000000 0.099740382
v -0.114477916 -0.027064269 0.081273306
v -0.064942583 0.018132592 0.031199216
v -0.109205118 -0.020601780 0.082250841
v 0.013226562 0.016000001 0.101000004
v 0.019818413 0.000000000 0.012792147
v -0.024499999 0.017554656 0.142896468
v -0.015825892 0.016000001 0.097782740
v -0.018751145 0.022000000 0.085098155
v -0.028053280 -0.002381754 0.187472706
v 0.005397727 0.000142641 0.199045415
v -0.112099739 -0.025069858 0.076105440
v -0.055018971 0.013155341 0.025276809
v -0.033875001 0.021000000 0.097654241
v 0.005376573 0.017970657 0.147932610
v -0.031330872 -0.002266528 0.185344019
v -0.030775234 0.012667349 0.094999999
v 0.011576805 0.021000000 0.144646196
v -0.008250000 0.016000001 0.145999998
v -0.029890625 0.016000001 0.094999999
v -0.031774433 0.015348437 0.147000000
v -0.002500000 0.019087099 0.096832348
v 0.037000000 0.018625000 0.137329530
v -0.022834733 0.013084794 0.094999999
v -0.034812501 0.016000001 0.094999999
v -0.004750000 0.016437501 0.151999995
v 0.035071682 0.017894347 0.163944040
v -0.026335438 -0.004129435 0.187444156
v -0.042018481 0.003788894 0.074439114
v 0.029177437 0.015601145 0.092231959
v 0.030751688 0.016000001 0.099000847
v -0.107958326 -0.016381814 0.084815098
v -0.064041345 0.003208270 0.016304637
v -0.028850001 0.016000001 0.099289066
v 0.017721441 0.014282482 0.149217099
v -0.014219897 0.014585214 0.154033525
v -0.117157504 -0.018987987 0.092164249
v -0.015177128 0.019953447 0.092483398
v 0.023392542 0.022000000 0.061543109
v -0.017853788 -0.005245806 0.198881426
v 0.032500000 0.021000000 0.132499993
v -0.006036753 0.017929898 0.099996857
v -0.019914063 0.005464582 0.193815559
v 0.026090135 0.021000000 0.160425473
v -0.013650449 0.011021117 0.180000007
v -0.063642698 0.010021077 0.023193050
v -0.009500000 0.021000000 0.099973555
v 0.017760978 -0.001082286 0.189250478
v -0.011113472 0.000599740 0.196462895
v 0.003500000 0.016000001 0.099500003
v -0.024000000 -0.002772196 0.189222476
v 0.025562500 0.019500000 0.101250000
v -0.010218156 0.019037629 0.183262425
v -0.026254165 0.021000000 0.145312493
v 0.026855786 0.021000000 0.096953416
v -0.068693295 0.009087244 0.024146282
v 0.015935992 0.019396098 0.089652838
v -0.005875000 0.019500000 0.179625001
v -0.031027541 0.014781144 0.138044761
v -0.006058008 0.005471643 0.160737794
v -0.027646800 0.001617749 0.192513332
v 0.008046418 0.012745327 0.107007067
v -0.096488851 0.001603613 0.046392968
v -0.029633896 0.017770437 0.100376088
v 0.004901950 0.011553541 0.174453753
v 0.029621490 -0.003422069 0.176103634
v -0.061590797 0.019321034 0.025900053
v -0.011024938 0.017443851 0.153761061
v -0.005500000 0.021000000 0.098644228
v -0.002460097 -0.000426256 0.204746414
v -0.018999999 0.000634990 0.195677312
v -0.067797418 0.012030284 0.022823753
v -0.012948647 0.019271532 0.090381107
v -0.008232886 0.017856283 0.151396760
v -0.037055235 0.016000001 0.144209887
v 0.005375000 0.021000000 0.094999999
v -0.007563939 -0.002464278 0.189061619
v -0.043111126 0.008843949 0.014465169
v -0.062425187 0.009818554 0.016004817
v -0.040898436 0.009359464 0.139386020
v -0.032746096 0.018932772 0.098313686
v -0.094586977 0.001561478 0.043881888
v 0.019500000 0.018625000 0.101000004
v 0.002313495 0.015267016 0.141214754
v -0.001478267 0.010372833 0.145999998
v -0.010500845 0.013363717 0.101000004
v 0.038556467 0.015691088 0.156859840
v 0.033871179 0.017950467 0.138520590
v 0.016720051 0.015606666 0.174999997
v -0.030886737 0.021000000 0.173478927
v -0.008746187 0.021000000 0.184695519
v 0.006474609 0.018511306 0.090053819
v -0.036122243 0.019500000 0.152199044
v 0.018500000 0.021000000 0.144249998
v -0.007924328 -0.000426373 0.198672738
v -0.010180329 0.002500000 0.110996575
v -0.010874998 0.016000001 0.096916668
v -0.068818876 0.011863752 0.032364330
v -0.015159561 0.000581992 0.205968653
v 0.007849999 0.016000001 0.144710944
v -0.024000000 -0.000815929 0.184889853
v -0.035047235 0.022000000 0.077932753
v 0.008803518 -0.002531250 0.037914237
v 0.035500000 0.016437501 0.101000004
v -0.025500079 0.018039773 -0.004843004
v -0.031883333 0.021000000 0.099266824
v -0.113821468 -0.008756582 0.055376525
v -0.024499999 0.019125000 0.095812499
v -0.066362688 0.006104734 0.015224273
v -0.028978382 0.019500000 0.182767615
v -0.059987870 0.015894987 0.016147729
v -0.065189447 0.013172967 0.032327213
v -0.061511615 0.002369462 0.014440270
v 0.016087202 0.004531250 -0.013972098
v 0.015300770 0.003638013 0.168324654
v -0.008944452 0.019302181 0.091591365
v -0.109017809 -0.019755418 0.066225681
v -0.022138486 0.019107948 0.092209103
v -0.003431908 0.019466865 0.093196674
v -0.023970903 0.022000000 0.091997899
v -0.061042012 0.019593527 0.023232287
v -0.033854110 0.018289901 0.096171064
v -0.025269104 0.005453125 0.136167955
v -0.064797008 0.009259629 0.017430219
v -0.027431274 0.016000001 0.096852693
v -0.028915096 0.018069365 0.099033790
v 0.013593749 0.000000000 0.016138517
v 0.015687500 0.019500000 0.142499998
v -0.009504617 0.019133456 0.087587626
v -0.037809248 0.005793844 0.166825005
v -0.109995063 -0.011003136 0.079472662
v -0.115287649 -0.012711756 0.071353385
v -0.055948567 0.015569383 0.017664865
v -0.028262231 0.022000000 0.088113270
v 0.010670757 0.019500000 0.137267460
v 0.012479190 0.006155383 0.101500004
v -0.005905315 0.015279479 0.180000007
v 0.009156265 0.000000000 0.016156977
v -0.028261072 0.018389190 0.097160385
v -0.006203108 0.019619136 0.092108699
v -0.060149433 0.018775943 0.020657650
v -0.064023023 0.011560611 0.018400145
v 0.019213856 0.017890172 0.094999999
v -0.065491846 0.007249981 0.014741875
v 0.029500000 0.021000000 0.094999999
v 0.004320728 0.020230892 0.092442263
v -0.027605252 -0.001626203 0.056693394
v -0.006022407 0.016543031 0.143789479
v -0.062828565 0.014095956 0.020071562
v -0.063818901 0.010497646 0.014788254
v -0.004684642 0.019801400 0.089911516
v 0.028818710 0.018812205 0.093774097
v 0.024507827 0.021512965 0.091255692
v -0.048586738 0.004140726 0.027987396
v -0.062320478 0.017669246 0.022586138
f 389 1 11
f 11 1 684
f 684 1 342
f 342 1 1199
f 1 389 1199
f 807 2 482
f 2 906 482
f 2 807 853
f 878 2 853
f 2 878 906
f 599 3 4
f 4 3 600
f 3 5 12
f 487 5 3
f 175 11 3
f 11 686 3
f 12 174 3
f 174 300 3
f 301 175 3
f 300 600 3
f 599 301 3
f 3 686 487
f 600 599 4
f 5 477 12
f 477 5 296
f 487 296 5
f 158 885 6
f 6 917 158
f 767 426 6
f 917 6 426
f 6 885 750
f 750 950 6
f 767 6 950
f 7 8 12
f 7 563 8
f 12 378 7
f 378 837 7
f 837 563 7
f 8 173 12
f 189 173 8
f 8 628 189
f 563 270 8
f 8 270 628
f 625 9 126
f 842 126 9
f 842 9 158
f 9 885 158
f 625 159 9
f 885 9 159
f 103 164 10
f 10 347 103
f 164 285 10
f 285 1048 10
f 347 10 837
f 10 1048 837
f 97 389 11
f 97 11 936
f 1150 11 175
f 11 684 685
f 11 685 686
f 1150 936 11
f 12 101 379
f 620 101 12
f 12 172 378
f 379 172 12
f 191 12 173
f 1150 174 12
f 191 1150 12
f 295 12 477
f 295 620 12
f 475 141 13
f 141 538 13
f 538 475 13
f 14 1120 203
f 203 1125 14
f 14 605 443
f 443 1120 14
f 605 14 1125
f 220 15 17
f 1138 17 15
f 278 15 160
f 15 1066 160
f 1120 15 220
f 278 1138 15
f 1120 1066 15
f 377 16 18
f 16 873 18
f 220 16 203
f 16 377 203
f 220 873 16
f 110 1042 17
f 17 1138 110
f 220 17 873
f 17 1042 873
f 143 377 18
f 873 143 18
f 20 338 19
f 440 20 19
f 19 96 139
f 96 19 754
f 19 139 137
f 440 19 137
f 754 19 338
f 168 338 20
f 168 20 440
f 23 21 130
f 23 444 21
f 21 613 130
f 21 348 751
f 817 348 21
f 483 21 444
f 483 817 21
f 21 549 613
f 751 549 21
f 769 22 121
f 121 22 946
f 946 22 532
f 22 947 532
f 769 947 22
f 444 23 130
f 45 100 24
f 45 24 890
f 100 931 24
f 24 1067 890
f 964 24 931
f 964 1067 24
f 94 25 27
f 25 144 27
f 94 1052 25
f 486 144 25
f 25 360 486
f 25 1168 360
f 1052 605 25
f 1168 25 605
f 94 310 26
f 867 94 26
f 311 26 310
f 854 26 311
f 867 26 854
f 872 94 27
f 109 27 144
f 109 872 27
f 421 28 29
f 28 678 29
f 678 28 206
f 28 979 206
f 421 420 28
f 420 979 28
f 419 91 29
f 91 421 29
f 678 419 29
f 776 30 699
f 30 849 699
f 776 849 30
f 556 33 31
f 31 33 831
f 264 535 31
f 831 264 31
f 31 535 556
f 32 432 34
f 556 32 34
f 32 535 224
f 832 32 224
f 269 261 32
f 432 32 261
f 832 269 32
f 535 32 556
f 556 358 33
f 33 358 1037
f 33 1037 831
f 112 34 432
f 112 556 34
f 481 177 35
f 35 177 718
f 446 419 35
f 419 481 35
f 35 712 446
f 712 35 718
f 36 288 432
f 1022 288 36
f 327 832 36
f 1155 327 36
f 36 432 1155
f 832 1022 36
f 386 38 37
f 37 38 730
f 653 386 37
f 37 730 653
f 386 136 38
f 38 136 730
f 39 318 970
f 1129 318 39
f 1129 39 970
f 899 40 479
f 970 479 40
f 736 40 899
f 736 970 40
f 462 41 512
f 522 41 462
f 41 1080 512
f 41 522 1080
f 491 42 44
f 42 1002 44
f 239 1050 42
f 42 1095 239
f 491 1095 42
f 534 1002 42
f 1050 534 42
f 658 92 43
f 92 708 43
f 246 43 93
f 415 93 43
f 245 43 246
f 658 43 245
f 43 708 415
f 86 44 46
f 44 1034 46
f 491 44 86
f 501 871 44
f 1002 501 44
f 871 741 44
f 741 1034 44
f 1121 100 45
f 45 890 761
f 1032 45 761
f 1032 1121 45
f 785 86 46
f 1034 785 46
f 524 828 47
f 524 47 1128
f 828 771 47
f 771 1128 47
f 48 513 85
f 1188 48 85
f 48 187 467
f 1188 187 48
f 467 513 48
f 50 49 84
f 896 49 50
f 49 641 84
f 356 641 49
f 1129 356 49
f 896 1129 49
f 367 50 84
f 50 367 944
f 50 944 896
f 393 51 392
f 802 392 51
f 393 1000 51
f 738 736 51
f 736 802 51
f 1000 738 51
f 53 52 802
f 1139 52 53
f 573 392 52
f 52 392 802
f 52 1139 573
f 1063 526 53
f 526 1139 53
f 1173 53 802
f 896 944 53
f 1173 896 53
f 53 944 1063
f 362 655 54
f 362 54 1097
f 1015 54 655
f 1015 1097 54
f 215 55 57
f 550 57 55
f 216 55 215
f 471 55 216
f 401 550 55
f 1149 401 55
f 471 603 55
f 603 1149 55
f 297 56 58
f 56 645 58
f 550 56 297
f 550 937 56
f 645 56 937
f 215 57 151
f 57 548 151
f 550 548 57
f 297 58 187
f 58 384 187
f 58 978 384
f 645 978 58
f 499 61 59
f 61 1030 59
f 279 488 59
f 59 1030 279
f 59 488 544
f 499 59 544
f 60 154 208
f 60 344 154
f 609 60 208
f 60 503 344
f 1038 503 60
f 609 1038 60
f 499 974 61
f 974 1030 61
f 309 683 62
f 703 309 62
f 464 62 488
f 62 464 703
f 544 488 62
f 62 758 544
f 62 683 989
f 62 989 758
f 437 63 152
f 63 554 152
f 437 554 63
f 64 669 256
f 952 64 256
f 335 669 64
f 335 64 793
f 522 793 64
f 952 522 64
f 84 65 66
f 66 65 229
f 84 641 65
f 65 228 229
f 319 228 65
f 335 319 65
f 669 335 65
f 641 669 65
f 424 84 66
f 424 66 229
f 184 67 417
f 184 1110 67
f 67 445 417
f 1110 445 67
f 68 371 117
f 455 68 117
f 68 455 339
f 339 1080 68
f 372 371 68
f 372 68 555
f 555 68 1080
f 411 69 82
f 69 463 82
f 1134 69 411
f 463 69 474
f 474 69 676
f 69 1134 676
f 83 70 71
f 71 70 590
f 696 70 83
f 70 893 590
f 893 70 696
f 647 83 71
f 148 71 590
f 148 647 71
f 235 72 82
f 72 411 82
f 390 72 235
f 72 390 260
f 430 72 260
f 72 822 411
f 430 822 72
f 293 73 283
f 908 283 73
f 293 1089 73
f 73 543 304
f 304 908 73
f 352 543 73
f 352 73 1089
f 156 877 74
f 74 941 156
f 233 217 74
f 1016 74 217
f 74 877 233
f 74 541 941
f 541 74 1016
f 268 247 75
f 1132 75 247
f 291 268 75
f 846 291 75
f 531 841 75
f 1132 531 75
f 841 846 75
f 76 658 167
f 1141 76 167
f 1131 76 182
f 76 1141 182
f 76 1131 658
f 171 77 108
f 1159 108 77
f 305 77 171
f 305 1159 77
f 592 78 266
f 78 848 266
f 592 519 78
f 519 625 78
f 625 692 78
f 692 848 78
f 79 877 227
f 227 1089 79
f 293 233 79
f 233 877 79
f 79 1089 293
f 779 80 616
f 80 1100 616
f 80 1015 655
f 655 1100 80
f 779 1015 80
f 81 430 260
f 260 590 81
f 1056 430 81
f 852 81 590
f 1056 81 852
f 236 235 82
f 463 236 82
f 83 416 417
f 83 763 416
f 696 83 417
f 647 763 83
f 424 367 84
f 513 292 85
f 292 828 85
f 85 828 524
f 524 981 85
f 85 981 1188
f 785 346 86
f 346 1032 86
f 86 1032 491
f 87 701 398
f 835 87 398
f 560 520 87
f 520 1088 87
f 835 560 87
f 959 701 87
f 1088 959 87
f 204 566 88
f 791 204 88
f 88 566 214
f 214 945 88
f 791 88 570
f 88 1103 570
f 88 945 1103
f 89 670 334
f 89 334 1105
f 670 89 359
f 89 1090 359
f 907 1090 89
f 907 89 1105
f 450 547 90
f 776 450 90
f 90 710 528
f 528 849 90
f 547 710 90
f 849 776 90
f 91 446 251
f 251 608 91
f 419 446 91
f 91 608 421
f 658 708 92
f 246 93 1114
f 1067 93 415
f 1067 964 93
f 964 1114 93
f 94 1099 310
f 867 1052 94
f 872 1099 94
f 476 333 95
f 333 1125 95
f 440 336 95
f 336 475 95
f 440 95 360
f 360 95 756
f 476 95 475
f 95 1125 756
f 96 971 139
f 1010 96 192
f 1153 192 96
f 96 754 331
f 96 331 1153
f 96 1151 971
f 1059 96 1010
f 1059 1151 96
f 1199 389 97
f 936 922 97
f 1199 97 922
f 171 108 98
f 108 682 98
f 179 171 98
f 1051 179 98
f 682 681 98
f 681 1051 98
f 842 968 99
f 842 99 1108
f 968 1127 99
f 1127 1108 99
f 121 105 100
f 484 100 105
f 187 100 115
f 100 799 115
f 1054 121 100
f 187 316 100
f 100 484 190
f 100 190 931
f 213 799 100
f 100 1121 213
f 316 329 100
f 329 986 100
f 986 1054 100
f 1117 379 101
f 620 1117 101
f 610 102 579
f 1117 579 102
f 610 762 102
f 860 723 102
f 723 1117 102
f 762 1039 102
f 102 1039 860
f 1039 164 103
f 347 717 103
f 723 103 717
f 723 860 103
f 860 1039 103
f 176 104 617
f 692 104 176
f 181 617 104
f 181 104 775
f 692 1152 104
f 1152 775 104
f 726 105 121
f 105 800 484
f 726 800 105
f 572 107 106
f 107 713 106
f 718 572 106
f 713 712 106
f 712 718 106
f 320 349 107
f 650 320 107
f 107 349 713
f 572 409 107
f 409 675 107
f 650 107 675
f 1159 682 108
f 436 109 143
f 143 109 578
f 578 109 144
f 552 287 109
f 287 872 109
f 436 315 109
f 315 552 109
f 399 110 142
f 142 110 648
f 317 210 110
f 210 1042 110
f 315 317 110
f 399 315 110
f 1138 648 110
f 198 111 113
f 831 113 111
f 199 111 198
f 727 111 199
f 111 727 831
f 253 303 112
f 1026 253 112
f 288 112 432
f 1026 112 288
f 303 556 112
f 1135 198 113
f 1037 282 113
f 282 1135 113
f 831 1037 113
f 116 540 114
f 114 741 116
f 114 145 292
f 540 145 114
f 346 114 292
f 346 473 114
f 473 741 114
f 272 187 115
f 115 693 272
f 627 693 115
f 799 627 115
f 540 116 470
f 741 470 116
f 229 228 117
f 117 228 455
f 117 371 229
f 405 118 381
f 381 118 952
f 118 405 393
f 118 393 1080
f 522 952 118
f 118 1080 522
f 262 286 119
f 262 119 1134
f 1110 119 286
f 1110 1134 119
f 324 120 557
f 324 612 120
f 521 395 120
f 120 395 557
f 1177 521 120
f 1177 120 612
f 769 121 192
f 121 1165 192
f 726 121 194
f 194 121 946
f 1054 1165 121
f 215 151 122
f 151 362 122
f 216 215 122
f 216 122 1097
f 122 362 1097
f 200 123 1076
f 1149 123 200
f 365 242 123
f 242 1076 123
f 365 123 603
f 603 123 1149
f 124 208 154
f 289 124 154
f 124 1086 208
f 289 1086 124
f 230 604 125
f 230 125 953
f 125 604 403
f 953 125 403
f 625 126 1108
f 842 1108 126
f 439 186 127
f 186 665 127
f 127 1127 439
f 127 807 482
f 906 127 482
f 665 807 127
f 906 1108 127
f 1108 1127 127
f 128 170 695
f 170 128 863
f 185 128 695
f 185 845 128
f 845 1041 128
f 128 935 863
f 128 916 935
f 1082 916 128
f 1041 1082 128
f 164 129 285
f 677 129 164
f 677 178 129
f 178 1157 129
f 285 129 1157
f 663 444 130
f 613 706 130
f 130 706 663
f 246 131 245
f 613 245 131
f 246 1114 131
f 1092 613 131
f 1114 1092 131
f 639 132 196
f 132 1064 196
f 511 132 206
f 678 206 132
f 1064 132 511
f 639 678 132
f 177 133 312
f 133 177 481
f 226 196 133
f 133 196 700
f 133 481 226
f 133 700 312
f 135 413 134
f 425 135 134
f 386 425 134
f 134 451 386
f 134 413 566
f 451 134 652
f 1136 134 566
f 1136 652 134
f 135 197 520
f 197 135 653
f 425 386 135
f 653 135 386
f 413 135 560
f 560 135 520
f 575 136 386
f 575 451 136
f 136 451 814
f 136 813 730
f 136 814 813
f 505 137 139
f 505 440 137
f 459 138 338
f 515 338 138
f 459 839 138
f 138 1079 515
f 138 839 1079
f 139 427 505
f 139 1151 427
f 971 1151 139
f 141 140 427
f 475 140 141
f 336 427 140
f 475 336 140
f 1046 141 427
f 1046 538 141
f 287 399 142
f 1099 287 142
f 310 142 311
f 310 1099 142
f 142 648 311
f 210 436 143
f 873 210 143
f 143 578 377
f 486 578 144
f 146 145 540
f 828 145 146
f 828 292 145
f 540 771 146
f 828 146 771
f 417 147 184
f 630 184 147
f 147 417 461
f 461 460 147
f 630 147 460
f 390 148 260
f 590 260 148
f 647 148 390
f 149 276 942
f 276 149 985
f 942 1025 149
f 985 149 1025
f 501 318 150
f 1180 150 318
f 501 150 470
f 771 470 150
f 479 611 150
f 150 899 479
f 611 771 150
f 1180 899 150
f 357 362 151
f 548 357 151
f 208 152 153
f 152 554 153
f 208 1086 152
f 1086 437 152
f 609 208 153
f 554 609 153
f 222 289 154
f 344 222 154
f 155 499 304
f 155 304 531
f 155 403 499
f 403 155 772
f 772 155 531
f 640 207 156
f 207 823 156
f 812 640 156
f 941 812 156
f 823 877 156
f 263 270 157
f 671 263 157
f 157 270 1199
f 671 157 858
f 858 157 1147
f 157 1074 903
f 1147 157 903
f 1074 157 1192
f 1199 1192 157
f 842 158 780
f 917 780 158
f 625 853 159
f 159 853 750
f 885 159 750
f 569 160 163
f 160 1066 163
f 569 278 160
f 182 161 348
f 182 1141 161
f 348 161 979
f 161 824 979
f 824 161 1141
f 162 658 699
f 658 162 824
f 699 1130 162
f 1130 824 162
f 854 569 163
f 1066 854 163
f 677 164 1039
f 499 165 304
f 165 875 304
f 373 165 544
f 875 165 373
f 499 544 165
f 166 369 201
f 835 166 201
f 166 992 369
f 398 707 166
f 398 166 835
f 166 707 866
f 166 866 992
f 824 167 658
f 824 1141 167
f 459 338 168
f 168 440 360
f 984 168 360
f 168 984 459
f 169 975 429
f 429 1146 169
f 169 851 898
f 851 169 1096
f 169 898 1035
f 169 1035 975
f 1096 169 1146
f 695 170 612
f 170 1177 612
f 170 863 1176
f 170 1176 1177
f 171 179 892
f 305 171 892
f 378 172 717
f 717 172 379
f 191 173 189
f 175 300 174
f 174 1150 175
f 301 300 175
f 617 1007 176
f 811 649 176
f 649 848 176
f 848 692 176
f 1007 811 176
f 312 334 177
f 670 177 334
f 177 670 718
f 731 588 178
f 178 588 874
f 677 731 178
f 1157 178 874
f 892 179 969
f 179 1183 969
f 1051 1183 179
f 297 187 180
f 1190 180 187
f 357 180 234
f 180 1190 234
f 357 297 180
f 388 617 181
f 181 775 388
f 182 348 817
f 1131 182 817
f 249 767 183
f 183 956 249
f 742 343 183
f 343 956 183
f 767 742 183
f 542 184 630
f 664 184 542
f 184 664 1110
f 284 185 695
f 185 284 792
f 845 185 792
f 870 186 439
f 836 665 186
f 186 742 816
f 742 186 870
f 836 186 816
f 316 187 240
f 187 384 240
f 272 467 187
f 187 1188 616
f 1190 187 616
f 188 263 671
f 188 1150 263
f 188 624 682
f 188 1084 624
f 1084 188 671
f 682 1150 188
f 628 191 189
f 484 888 190
f 190 888 1114
f 1114 931 190
f 270 263 191
f 263 1150 191
f 628 270 191
f 769 192 1153
f 1179 1010 192
f 1179 192 1165
f 1053 193 225
f 193 1142 225
f 193 644 654
f 769 644 193
f 654 1142 193
f 193 1053 769
f 532 241 194
f 241 726 194
f 194 946 532
f 587 581 195
f 776 195 581
f 699 587 195
f 195 776 699
f 196 226 639
f 196 711 700
f 1064 711 196
f 687 453 197
f 992 197 453
f 197 992 520
f 653 730 197
f 730 687 197
f 198 1022 199
f 205 1022 198
f 1135 205 198
f 361 391 199
f 361 199 1022
f 391 727 199
f 733 507 200
f 921 200 507
f 200 586 733
f 200 1076 586
f 921 1149 200
f 214 835 201
f 945 214 201
f 369 589 201
f 589 1182 201
f 1182 945 201
f 661 563 202
f 563 1048 202
f 661 202 618
f 1157 618 202
f 1048 1157 202
f 220 203 1120
f 756 203 377
f 203 756 1125
f 204 1136 566
f 204 791 1136
f 205 1026 1022
f 1026 205 1135
f 979 511 206
f 640 291 207
f 846 207 291
f 846 823 207
f 209 821 576
f 1177 209 576
f 209 988 821
f 209 1176 988
f 209 1177 1176
f 317 436 210
f 873 1042 210
f 652 211 814
f 652 1136 211
f 211 791 814
f 1136 791 211
f 709 212 257
f 1038 257 212
f 504 212 709
f 504 1043 212
f 1038 212 1043
f 346 799 213
f 213 1121 346
f 214 566 835
f 471 216 709
f 216 1097 709
f 233 299 217
f 553 217 299
f 553 509 217
f 217 509 1016
f 351 218 255
f 218 720 255
f 351 982 218
f 982 644 218
f 644 1069 218
f 720 218 1062
f 1069 1062 218
f 634 219 904
f 634 993 219
f 832 827 219
f 219 827 904
f 993 832 219
f 231 384 221
f 221 621 231
f 978 221 384
f 621 221 978
f 539 289 222
f 387 222 344
f 222 387 539
f 972 239 223
f 239 1095 223
f 491 761 223
f 223 1095 491
f 761 972 223
f 264 391 224
f 535 264 224
f 280 224 391
f 280 832 224
f 879 225 1008
f 1053 225 879
f 225 1142 1008
f 481 419 226
f 419 678 226
f 678 639 226
f 846 227 823
f 877 823 227
f 227 846 1089
f 319 455 228
f 371 424 229
f 539 387 230
f 387 604 230
f 437 414 230
f 414 539 230
f 437 230 683
f 230 953 683
f 240 384 231
f 240 231 1084
f 1084 231 621
f 248 232 247
f 1132 247 232
f 248 341 232
f 299 232 341
f 299 908 232
f 908 875 232
f 1132 232 875
f 293 299 233
f 357 234 362
f 655 362 234
f 616 1100 234
f 234 1190 616
f 234 1100 655
f 235 236 428
f 647 390 235
f 235 428 647
f 463 428 236
f 237 428 461
f 237 647 428
f 763 237 461
f 647 237 763
f 238 762 485
f 485 1039 238
f 1039 762 238
f 370 239 972
f 370 1050 239
f 316 240 1084
f 241 532 663
f 663 706 241
f 706 1092 241
f 800 726 241
f 800 241 1092
f 242 825 273
f 273 1076 242
f 365 1012 242
f 242 1012 825
f 442 275 244
f 521 244 275
f 442 244 374
f 374 244 878
f 244 521 375
f 244 375 878
f 245 613 549
f 549 751 245
f 658 245 751
f 268 248 247
f 341 248 252
f 396 252 248
f 938 248 268
f 938 396 248
f 249 731 426
f 249 426 767
f 956 731 249
f 720 250 502
f 1074 502 250
f 995 250 720
f 903 250 943
f 903 1074 250
f 943 250 995
f 349 418 251
f 349 251 712
f 251 418 421
f 608 251 421
f 251 446 712
f 341 252 509
f 662 252 396
f 509 252 433
f 433 252 889
f 660 252 662
f 660 889 252
f 303 253 282
f 253 1135 282
f 1026 1135 253
f 541 254 662
f 254 541 1016
f 660 662 254
f 868 660 254
f 1016 868 254
f 351 255 585
f 255 502 585
f 720 502 255
f 256 641 356
f 256 356 983
f 256 381 952
f 256 1145 381
f 256 669 641
f 983 1145 256
f 281 257 609
f 281 709 257
f 1038 609 257
f 367 424 259
f 259 1063 367
f 424 371 259
f 259 371 1063
f 261 269 942
f 261 942 276
f 261 276 1155
f 261 1155 432
f 286 262 445
f 445 262 302
f 262 893 302
f 795 680 262
f 262 680 893
f 795 262 1134
f 278 264 1138
f 1175 264 278
f 1175 391 264
f 264 831 727
f 1138 264 727
f 667 265 483
f 817 483 265
f 667 769 265
f 769 1053 265
f 1053 817 265
f 592 266 324
f 324 266 612
f 266 649 612
f 848 649 266
f 603 267 365
f 267 709 365
f 504 267 471
f 603 471 267
f 709 267 504
f 938 268 291
f 759 753 269
f 753 963 269
f 759 269 993
f 269 832 993
f 963 942 269
f 270 563 636
f 1199 270 636
f 456 537 271
f 456 271 893
f 271 537 1093
f 271 852 590
f 271 590 893
f 1044 852 271
f 1093 1044 271
f 272 513 467
f 693 513 272
f 273 733 586
f 586 1076 273
f 744 733 273
f 825 744 273
f 743 274 485
f 274 956 485
f 588 274 874
f 956 274 588
f 274 743 874
f 521 275 395
f 557 395 275
f 442 577 275
f 557 275 577
f 805 527 276
f 1155 276 527
f 276 985 805
f 277 801 464
f 277 464 1038
f 819 801 277
f 1043 819 277
f 1043 277 1038
f 569 1175 278
f 314 488 279
f 314 279 1038
f 279 1030 503
f 279 503 1038
f 722 280 391
f 722 832 280
f 281 504 471
f 709 281 471
f 1043 504 281
f 554 281 609
f 819 281 554
f 1043 281 819
f 282 1037 303
f 293 283 299
f 283 908 299
f 284 521 576
f 284 598 521
f 284 576 1027
f 598 284 695
f 792 284 1027
f 1048 285 1157
f 445 1110 286
f 552 399 287
f 287 1099 872
f 1022 1026 288
f 289 539 414
f 414 1086 289
f 290 408 718
f 408 290 1071
f 718 510 290
f 510 1105 290
f 290 748 1071
f 748 290 1105
f 291 812 396
f 396 938 291
f 291 640 812
f 292 627 346
f 513 693 292
f 693 627 292
f 559 296 294
f 296 607 294
f 559 294 345
f 610 345 294
f 294 454 485
f 454 294 743
f 294 485 762
f 607 743 294
f 610 294 762
f 477 345 295
f 610 295 345
f 610 579 295
f 620 295 579
f 477 296 345
f 559 345 296
f 607 296 487
f 297 357 550
f 411 822 298
f 1134 411 298
f 795 298 822
f 795 1134 298
f 341 553 299
f 600 300 301
f 599 600 301
f 696 445 302
f 302 893 696
f 556 303 358
f 303 1037 358
f 304 543 531
f 875 908 304
f 305 1150 306
f 1159 305 306
f 922 305 892
f 305 922 936
f 936 1150 305
f 306 1150 529
f 1159 306 529
f 479 318 308
f 318 1002 308
f 1181 479 308
f 308 1002 1181
f 516 309 819
f 516 1068 309
f 309 1068 683
f 801 309 703
f 309 801 819
f 311 648 1138
f 311 727 854
f 1138 727 311
f 748 334 312
f 748 312 700
f 314 464 488
f 314 1038 464
f 315 436 317
f 552 315 399
f 316 671 329
f 1084 671 316
f 479 970 318
f 318 501 1002
f 1129 1180 318
f 319 335 793
f 455 319 542
f 319 664 542
f 319 793 664
f 418 349 320
f 412 582 320
f 650 412 320
f 418 320 582
f 394 322 771
f 394 1050 322
f 1128 771 322
f 1128 322 1050
f 324 557 592
f 331 325 330
f 325 1170 330
f 331 754 325
f 515 325 338
f 325 754 338
f 1170 325 515
f 689 326 773
f 689 804 326
f 735 773 326
f 735 326 1091
f 1091 326 804
f 527 508 327
f 327 508 827
f 1155 527 327
f 327 827 832
f 475 328 354
f 720 354 328
f 475 702 328
f 702 954 328
f 954 720 328
f 671 986 329
f 331 330 1153
f 1065 1153 330
f 1170 1065 330
f 339 455 332
f 512 339 332
f 332 455 542
f 332 630 474
f 676 332 474
f 626 512 332
f 542 630 332
f 332 676 626
f 984 360 333
f 360 1168 333
f 476 984 333
f 1028 1125 333
f 333 1168 1028
f 1105 334 748
f 336 505 427
f 336 440 505
f 512 1080 339
f 509 553 341
f 1017 342 636
f 636 342 1199
f 342 685 684
f 342 804 685
f 804 342 1091
f 342 1017 1091
f 343 698 485
f 956 343 485
f 698 343 870
f 343 742 870
f 503 387 344
f 1034 473 346
f 627 799 346
f 785 1034 346
f 1121 1032 346
f 837 717 347
f 751 348 979
f 349 712 713
f 350 838 401
f 1149 350 401
f 921 507 350
f 507 937 350
f 937 838 350
f 1149 921 350
f 1074 351 585
f 351 1192 982
f 351 1074 1192
f 846 543 352
f 1089 846 352
f 354 934 475
f 720 1070 354
f 934 354 901
f 1070 901 354
f 970 983 356
f 1129 970 356
f 550 357 548
f 359 730 670
f 359 687 730
f 359 1090 687
f 756 486 360
f 361 722 391
f 361 1022 722
f 365 709 1012
f 461 366 460
f 630 460 366
f 463 366 461
f 366 463 474
f 474 630 366
f 1063 944 367
f 864 368 410
f 1050 410 368
f 981 524 368
f 524 1128 368
f 864 1188 368
f 1188 981 368
f 1128 1050 368
f 453 589 369
f 992 453 369
f 370 789 410
f 410 1050 370
f 774 789 370
f 972 774 370
f 1063 371 372
f 372 526 1063
f 1139 526 372
f 555 573 372
f 573 1139 372
f 544 987 373
f 875 373 987
f 577 442 374
f 999 577 374
f 878 999 374
f 375 521 388
f 775 375 388
f 878 375 775
f 578 486 377
f 756 377 486
f 717 837 378
f 1117 717 379
f 983 405 381
f 1145 983 381
f 575 386 451
f 503 974 387
f 604 387 974
f 521 1007 388
f 388 1007 617
f 966 727 391
f 1175 966 391
f 573 393 392
f 405 983 393
f 555 393 573
f 555 1080 393
f 983 1000 393
f 479 394 611
f 1181 394 479
f 534 1050 394
f 1181 534 394
f 394 771 611
f 941 662 396
f 812 941 396
f 701 818 398
f 707 398 818
f 401 838 550
f 499 403 974
f 604 974 403
f 772 953 403
f 572 408 409
f 408 710 409
f 528 710 408
f 408 1071 528
f 408 572 718
f 547 675 409
f 710 547 409
f 789 774 410
f 410 774 864
f 675 582 412
f 412 650 675
f 560 835 413
f 566 413 835
f 437 1086 414
f 415 708 1008
f 1067 415 1008
f 416 461 417
f 416 763 461
f 696 417 445
f 418 582 421
f 582 420 421
f 420 582 581
f 587 420 581
f 587 979 420
f 731 917 426
f 1151 1046 427
f 428 463 461
f 1023 429 975
f 429 1023 1036
f 1146 429 1036
f 822 430 1093
f 1056 951 430
f 1093 430 951
f 866 431 520
f 520 431 1088
f 866 1122 431
f 431 1005 926
f 926 1088 431
f 1122 1005 431
f 509 433 1016
f 433 868 1016
f 868 433 1111
f 889 1111 433
f 435 637 1103
f 637 435 1182
f 1103 945 435
f 945 1182 435
f 437 516 554
f 1068 516 437
f 683 1068 437
f 870 439 968
f 439 1127 968
f 605 887 443
f 887 766 443
f 443 766 1066
f 1066 1120 443
f 947 483 444
f 444 663 532
f 532 947 444
f 450 675 547
f 675 450 776
f 652 814 451
f 468 948 452
f 468 452 1071
f 849 528 452
f 528 1071 452
f 948 849 452
f 589 453 850
f 453 687 850
f 454 743 485
f 822 537 456
f 456 680 822
f 893 680 456
f 476 475 459
f 475 839 459
f 459 984 476
f 512 626 462
f 793 522 462
f 462 626 1160
f 664 793 462
f 664 462 1160
f 801 703 464
f 700 711 468
f 700 468 1071
f 711 1064 468
f 1064 948 468
f 734 469 621
f 997 621 469
f 688 794 469
f 1011 688 469
f 734 978 469
f 997 469 794
f 469 978 960
f 1011 469 960
f 470 741 501
f 540 470 771
f 473 1034 741
f 538 702 475
f 934 839 475
f 480 987 772
f 772 1132 480
f 480 875 987
f 1132 875 480
f 667 483 947
f 800 888 484
f 698 1039 485
f 607 487 558
f 487 804 558
f 686 685 487
f 685 804 487
f 491 1032 761
f 871 501 741
f 502 1074 585
f 503 1030 974
f 937 507 733
f 527 805 508
f 827 508 783
f 783 508 1146
f 1045 508 805
f 1045 1146 508
f 637 510 826
f 510 637 1105
f 718 670 510
f 670 826 510
f 979 824 511
f 511 824 1130
f 849 1064 511
f 1130 849 511
f 1170 515 1079
f 554 516 819
f 592 999 519
f 625 519 853
f 519 878 853
f 519 1162 878
f 999 1162 519
f 866 520 992
f 521 1177 576
f 1007 521 598
f 529 1150 682
f 1159 529 682
f 531 543 841
f 531 1132 772
f 1181 1002 534
f 605 536 766
f 605 1052 536
f 895 766 536
f 867 854 536
f 854 895 536
f 867 536 1052
f 537 822 1093
f 538 1001 702
f 1059 1001 538
f 538 1046 1059
f 941 541 662
f 846 841 543
f 544 758 987
f 545 1110 664
f 1160 545 664
f 545 1134 1110
f 1134 545 1160
f 838 937 550
f 557 577 592
f 743 607 558
f 558 689 743
f 804 689 558
f 563 661 618
f 618 1091 563
f 563 1017 636
f 837 1048 563
f 1091 1017 563
f 565 807 665
f 836 565 665
f 565 742 797
f 836 742 565
f 565 797 853
f 853 807 565
f 569 854 966
f 1175 569 966
f 791 570 814
f 570 1103 814
f 792 574 976
f 792 1027 574
f 574 1027 976
f 1057 576 821
f 1057 1027 576
f 577 999 592
f 579 1117 620
f 582 776 581
f 776 582 675
f 658 587 699
f 751 587 658
f 751 979 587
f 731 956 588
f 589 850 1182
f 695 811 598
f 1007 598 811
f 887 605 766
f 605 1125 1028
f 605 1028 1168
f 649 811 612
f 811 695 612
f 1092 706 613
f 779 616 744
f 744 616 1011
f 616 1188 1011
f 618 1021 735
f 618 735 1091
f 1157 1021 618
f 621 997 624
f 1084 621 624
f 978 734 621
f 624 681 682
f 681 624 997
f 1152 692 625
f 906 625 1108
f 625 906 1152
f 1160 626 676
f 904 993 634
f 826 1103 637
f 1105 637 907
f 637 1182 907
f 643 668 732
f 958 668 643
f 739 707 643
f 1115 643 707
f 732 1005 643
f 739 643 1005
f 1115 958 643
f 654 644 890
f 769 1069 644
f 890 644 982
f 937 960 645
f 978 645 960
f 654 890 1008
f 1008 1142 654
f 658 1131 708
f 1111 660 868
f 660 1111 889
f 667 947 769
f 732 668 808
f 808 668 958
f 730 826 670
f 858 986 671
f 1160 676 1134
f 1039 731 677
f 795 822 680
f 1051 681 997
f 953 772 683
f 772 989 683
f 850 687 1090
f 864 774 688
f 688 774 972
f 982 794 688
f 1188 864 688
f 890 688 972
f 688 890 982
f 688 1011 1188
f 689 773 743
f 870 865 698
f 865 977 698
f 917 698 977
f 1039 698 917
f 1130 699 849
f 700 1071 748
f 818 701 913
f 913 701 1144
f 959 1144 701
f 1001 954 702
f 739 1122 707
f 1115 707 818
f 1122 866 707
f 1008 708 879
f 708 1131 879
f 1097 1012 709
f 723 717 1117
f 954 1001 720
f 720 1001 995
f 1062 1070 720
f 735 721 773
f 721 735 1021
f 773 721 874
f 874 721 1157
f 721 1021 1157
f 1022 832 722
f 932 805 725
f 805 985 725
f 932 725 985
f 854 727 966
f 826 730 813
f 731 1039 917
f 1005 732 808
f 744 1011 733
f 733 960 937
f 1011 960 733
f 738 970 736
f 736 899 802
f 970 738 1000
f 739 1005 1122
f 767 950 742
f 950 797 742
f 742 836 816
f 743 773 874
f 744 1012 779
f 825 1012 744
f 797 750 853
f 797 950 750
f 753 759 1023
f 963 753 1023
f 772 987 758
f 772 758 989
f 759 993 904
f 1018 759 904
f 1018 1036 759
f 1023 759 1036
f 761 890 972
f 765 865 870
f 968 865 765
f 968 765 870
f 1066 766 895
f 1069 769 1153
f 775 1152 878
f 779 1012 1097
f 1097 1015 779
f 968 842 780
f 865 968 780
f 865 780 977
f 917 977 780
f 904 827 783
f 1018 904 783
f 1018 783 1146
f 845 792 976
f 1148 794 922
f 922 794 1192
f 794 982 1192
f 997 794 1148
f 1114 888 800
f 800 1092 1114
f 802 899 1180
f 1180 1173 802
f 932 851 805
f 805 851 1045
f 808 958 928
f 928 1085 808
f 1085 1005 808
f 1103 813 814
f 813 1103 826
f 1053 879 817
f 817 879 1131
f 818 913 1115
f 821 988 919
f 919 1057 821
f 934 901 839
f 1079 839 901
f 976 1041 845
f 849 948 1064
f 1182 850 1090
f 898 851 1035
f 851 932 1035
f 1096 1045 851
f 1056 852 1044
f 895 854 1066
f 858 1054 986
f 1179 1054 858
f 1179 858 1147
f 935 996 863
f 863 996 1176
f 906 878 1152
f 1162 999 878
f 1085 928 883
f 1144 883 928
f 959 1116 883
f 883 1144 959
f 1116 1085 883
f 890 1067 1008
f 892 969 922
f 1180 1129 896
f 1173 1180 896
f 933 1065 901
f 1070 933 901
f 1065 1170 901
f 1170 1079 901
f 943 1179 903
f 903 1179 1147
f 1090 907 1182
f 1115 913 1144
f 916 1077 935
f 916 1047 1049
f 1047 916 1082
f 1049 1077 916
f 919 988 1176
f 1049 919 996
f 996 919 1176
f 1057 919 1049
f 969 1148 922
f 922 1192 1199
f 926 1005 1085
f 1116 926 1085
f 1088 926 1116
f 958 1144 928
f 931 1114 964
f 932 985 961
f 961 1035 932
f 1070 1065 933
f 996 935 1077
f 963 1025 942
f 998 943 995
f 943 998 1010
f 943 1010 1179
f 1056 1093 951
f 1144 958 1115
f 959 1088 1116
f 1035 961 985
f 975 963 1023
f 963 975 1025
f 969 1183 1148
f 983 970 1000
f 1035 1025 975
f 1047 976 1027
f 1082 1041 976
f 1047 1082 976
f 985 1025 1035
f 1001 998 995
f 996 1077 1049
f 1148 1051 997
f 1001 1059 998
f 1059 1010 998
f 1036 1018 1146
f 1047 1027 1057
f 1093 1056 1044
f 1096 1146 1045
f 1046 1151 1059
f 1057 1049 1047
f 1148 1172 1051
f 1172 1183 1051
f 1179 1165 1054
f 1069 1065 1062
f 1065 1070 1062
f 1065 1069 1153
f 1148 1183 1172
