# sdm_hand_1200_eigE1.obj  (1200 v, 1666 f)  units: metres
v -0.122762170 -0.013051745 0.063833452
v -0.059176758 -0.005846387 0.021900922
v -0.069094315 0.004087776 0.014222741
v -0.068354376 0.004346595 0.013601856
v -0.068571724 0.005567660 0.015462436
v -0.063345835 0.020366503 0.027859384
v -0.062823243 0.021846386 0.029099079
v -0.059628095 0.022090085 0.033008493
v -0.024874692 -0.005234651 0.181995564
v -0.045000002 0.000000000 0.000000000
v -0.045000002 0.022000000 0.000000000
v -0.040974012 0.022000000 0.055202013
v -0.041389882 0.000000000 0.093764880
v -0.041499998 0.005147304 0.136311777
v -0.036749999 0.002500000 0.148000000
v -0.038796877 0.019500000 0.101250000
v -0.018500000 0.021000000 0.094999999
v -0.002500000 0.021000000 0.094999999
v -0.037534051 0.019350630 0.178977284
v -0.038562502 0.021000000 0.171499997
v -0.024492840 0.016782773 0.179472070
v 0.039000001 0.005875000 0.101000004
v 0.018500000 0.021000000 0.094999999
v 0.037000000 0.021000000 0.094999999
v 0.045000002 0.022000000 0.094999999
v 0.015687500 0.021000000 0.174500003
v -0.037999999 -0.003000000 0.061476272
v -0.030781250 -0.003000000 0.020000000
v -0.036773200 -0.002058357 0.039555999
v 0.002499999 0.002000000 0.000000000
v -0.033000000 0.022000000 0.044999999
v -0.130199737 -0.028229938 0.084156905
v 0.031125514 0.002500000 0.166917087
v 0.036571767 0.019392381 0.101373953
v 0.019239659 0.016713521 0.183458912
v 0.001500000 0.019500000 0.196750004
v 0.013968751 0.002500000 0.200000003
v -0.019078181 0.019021084 0.187687020
v -0.042071476 -0.002026048 0.007589698
v 0.031029445 0.000000000 0.092281015
v 0.025000000 0.000000000 0.000000000
v 0.000000000 0.022000000 0.094999999
v -0.065958780 0.012967082 0.021660910
v -0.010500000 0.021000000 0.094999999
v 0.013750000 0.002000000 0.000000000
v 0.032500001 0.019312500 0.001093750
v -0.033917722 0.021250000 0.094923616
v -0.030593750 0.019500000 0.171499997
v -0.034093713 0.015323793 0.174232427
v 0.011000000 0.021000000 0.094999999
v -0.022500001 0.022000000 0.094999999
v -0.023467534 0.010548178 0.147000000
v -0.126921919 -0.027921116 0.080843611
v -0.122671852 -0.000708992 0.077220274
v -0.002000000 0.002500000 0.204140625
v -0.037999999 -0.003000000 0.033270762
v -0.037999999 -0.003000000 0.025308305
v -0.015456996 0.018067807 0.177529934
v -0.023250000 0.002500000 0.190550776
v 0.004491512 0.018499481 0.181720636
v 0.025878145 0.008614257 0.166106870
v -0.000500000 0.012044312 0.196210488
v -0.002646762 0.017922347 0.110386763
v -0.032000000 -0.005500000 0.180999994
v -0.024000000 -0.005500000 0.188499994
v -0.004000000 0.000000000 0.000000000
v -0.064652307 0.016666792 0.024760147
v -0.053541651 0.022052603 0.014239096
v -0.057012890 0.012919544 0.006996444
v -0.054979681 0.001857366 0.005812280
v -0.123561661 -0.009457118 0.067051139
v 0.034057910 -0.003000000 0.054613305
v -0.030090846 0.022000000 0.057187499
v 0.001969682 0.011865486 0.165186741
v 0.003542016 -0.002625000 0.030781276
v 0.000281250 0.000000000 0.011249153
v 0.031000000 0.021000000 0.094999999
v -0.040481091 0.003641026 0.196919923
v -0.022500001 0.019500000 0.170437506
v -0.135779778 -0.009702025 0.086840933
v 0.022500001 0.022000000 0.094999999
v -0.057812476 0.022078904 0.021358644
v -0.006500000 0.021000000 0.094999999
v -0.059947888 0.022092055 0.024918418
v -0.014500000 0.021000000 0.094999999
v -0.025906249 0.021000000 0.171499997
v 0.038750001 0.016604121 0.140290217
v 0.018058436 0.017195728 0.172627802
v 0.007250000 0.021000000 0.094999999
v 0.012553108 0.012215600 0.094999999
v -0.002193049 0.015401232 0.184477553
v -0.016718567 0.003098277 0.129184501
v -0.036231731 0.010510340 0.094999999
v 0.045000002 0.022000000 0.083124999
v -0.029062100 0.010769138 0.030544282
v 0.036175490 0.019008406 0.136057498
v 0.033972705 0.022000000 0.077187499
v -0.030582211 0.007422330 0.056712260
v -0.084220241 0.007340655 0.048753711
v 0.014984375 0.021000000 0.181500003
v 0.035288628 0.018532573 0.178611802
v 0.024491381 0.022000000 0.083681682
v -0.120152836 -0.014543524 0.064791698
v -0.007731633 0.019500000 0.101860714
v -0.109686429 -0.019263723 0.086453009
v 0.035352678 0.000000000 0.087507813
v -0.020305642 0.006450643 0.159000349
v -0.032562154 0.021000000 0.176246722
v -0.025437499 0.021000000 0.101499997
v -0.029125044 0.002500000 0.160440785
v -0.005429965 -0.001964142 0.206000000
v -0.036101066 0.002983143 0.034438719
v -0.118073176 -0.025933820 0.077161069
v 0.014750000 0.021000000 0.094999999
v -0.030296633 0.009589521 0.189974779
v 0.032550148 0.019500000 0.143375419
v -0.022614438 -0.003000000 0.022386012
v -0.067265252 0.009267370 0.018561673
v 0.034000000 0.021000000 0.094999999
v -0.062683633 0.008633069 0.010299150
v -0.061667028 0.003101981 0.009707068
v -0.051893697 0.018730429 0.040825502
v -0.022500001 0.002500000 0.165750004
v -0.029245977 0.019500000 0.149107809
v 0.028640625 0.002827539 0.156999997
v 0.011413767 0.022000000 0.080249537
v -0.039312500 0.000000000 0.081354921
v -0.059295379 0.014706436 0.021134095
v -0.133597596 -0.025780868 0.081102803
v -0.041006452 0.017406307 0.148530796
v -0.039214230 0.009794848 0.170718755
v -0.013317260 0.014720098 0.099703577
v -0.032875180 0.016000001 0.097907865
v -0.001918315 0.022000000 0.081724462
v -0.001464553 0.013849465 0.085521538
v -0.115629618 -0.009061149 0.084222022
v -0.039076419 0.016722728 0.192785740
v 0.033023770 -0.003000000 0.034729473
v -0.022500001 0.002500000 0.126000003
v -0.041499998 0.005465035 0.153067239
v -0.028311553 0.018162047 0.114514743
v 0.016736935 0.006015445 0.164522683
v -0.019668119 0.008646693 0.190817680
v -0.045000002 0.008309933 0.067803193
v -0.114126100 -0.015604233 0.076251190
v -0.129486407 -0.024967391 0.087977629
v -0.026835099 -0.003000000 0.054725645
v -0.135689952 -0.015901743 0.077062993
v -0.024499999 0.019062500 0.172854531
v 0.026791230 0.005121450 0.143760957
v -0.009044806 0.020015625 0.152675855
v 0.017579654 0.021000000 0.177366930
v -0.040765624 0.019500000 0.138847224
v -0.017712746 -0.003000000 0.037286120
v 0.004411269 0.009807613 0.075942725
v -0.063999071 0.018516648 0.026309765
v -0.065305543 0.014816937 0.023210529
v 0.031482103 0.008727568 0.094999999
v -0.068535549 0.017891474 0.031681211
v 0.045000002 0.022000000 0.089062499
v 0.023927979 0.007559184 0.124986014
v -0.026211376 0.018821413 0.173980390
v 0.035800765 0.017352278 0.154184435
v -0.118281189 -0.010530278 0.061056175
v -0.050624117 -0.003936217 0.014745310
v -0.032981467 -0.005500000 0.187239300
v -0.024827784 0.019500000 0.167471688
v 0.025269274 0.002500000 0.166938525
v 0.019430053 0.015915579 0.104939393
v -0.119332611 -0.012631942 0.090045638
v -0.038015822 0.019093751 0.146708110
v -0.119314179 -0.010681160 0.087709124
v -0.030156003 0.018384092 0.173610949
v -0.024070313 0.003058254 0.180179376
v -0.038167970 0.015748418 0.142268181
v -0.025986486 0.016249238 0.148936746
v -0.087586067 -0.005322569 0.057927859
v 0.005257812 0.020250000 0.174625001
v 0.017697769 0.012251666 0.198256134
v -0.032561887 0.003564934 0.103000002
v -0.026851461 0.022000000 0.037499999
v -0.041408201 0.005900832 0.184352104
v -0.112097295 -0.012927745 0.084928774
v 0.008687930 0.005490122 0.115940300
v -0.018999999 0.002500000 0.194046872
v 0.017872128 0.000641520 0.091989062
v -0.122452245 -0.026701633 0.084221919
v -0.057944725 0.011008542 0.014860290
v -0.027921083 0.019500000 0.102577168
v 0.037500001 0.001003927 0.170696108
v -0.001422772 0.003067434 0.187410403
v 0.004712217 0.017186392 0.084222864
v 0.023000000 0.007869242 0.174817632
v -0.007326808 0.007077702 0.153786058
v -0.019998307 0.007275035 0.206702658
v 0.010013585 0.019500000 0.173957664
v 0.026386507 0.016973619 0.134953776
v 0.016625000 0.021000000 0.094999999
v -0.025828126 0.017193002 0.127024374
v -0.120175784 -0.014011290 0.070560337
v 0.029450320 0.008348266 0.171092848
v -0.124542355 -0.017663149 0.069813921
v -0.067918488 0.007417515 0.017012054
v -0.118131316 -0.026188705 0.084354599
v 0.018999999 -0.003129198 0.186619071
v -0.014126237 0.016138356 0.149624486
v -0.035226180 0.014577404 0.082287866
v -0.008500000 0.021000000 0.094999999
v -0.001428574 0.000712242 0.091054212
v 0.005672241 0.019586117 0.102317582
v 0.009358507 0.021000000 0.097572114
v -0.004474664 0.018572428 0.161837101
v 0.010711286 0.019500000 0.184480062
v -0.013837633 0.012862364 0.077926456
v -0.027227036 0.004557737 0.182718423
v -0.022500001 0.014482506 0.158459974
v -0.114463256 -0.019593361 0.083734011
v -0.029175891 -0.005500000 0.182623302
v -0.127858403 -0.013756330 0.092981865
v -0.114192605 -0.021070712 0.072050156
v -0.025061833 0.019500000 0.151773542
v 0.034667131 0.020005859 0.166674545
v -0.022687501 0.003742247 0.194609026
v 0.039000001 0.009907573 0.169764397
v -0.032613627 0.002722497 0.050862653
v -0.061806292 0.011368210 0.018555402
v -0.117277330 -0.009903288 0.066691989
v -0.029187500 0.015033463 0.141000003
v -0.056475156 0.003436174 0.017187513
v -0.023687501 0.013938743 0.194671625
v -0.028940316 0.003017862 0.067236140
v -0.126106015 -0.019067828 0.091244280
v -0.020312500 0.014375000 -0.024899999
v -0.018999999 -0.002223547 0.191819486
v -0.033588989 0.009801676 0.074870160
v -0.029852610 0.003066924 0.179546873
v 0.010979984 0.004517488 0.084429926
v 0.033989508 0.021000000 0.097956422
v -0.124713428 -0.014885553 0.081667118
v -0.008236090 0.002004987 0.202022567
v -0.013919728 0.002000000 -0.014763100
v 0.023000000 0.004045736 0.176639662
v -0.038821832 0.011276592 0.120661039
v -0.031879328 0.006039614 0.197999999
v 0.018999999 0.000314950 0.191857126
v -0.114268397 -0.018052971 0.087420207
v -0.111226458 -0.008530910 0.081414841
v -0.112176561 -0.022450272 0.080022961
v 0.004354062 0.022000000 0.029737294
v 0.041171875 0.001740736 0.061140089
v -0.031755963 0.003120523 0.183839739
v -0.093781036 -0.001466806 0.041399991
v -0.015918988 -0.005500000 0.204583394
v -0.117627308 -0.023637317 0.073626680
v -0.129216748 -0.026896322 0.080587641
v -0.116136762 -0.014156227 0.076685347
v -0.061100744 0.016535980 0.021532382
v -0.114572189 -0.024502652 0.073976785
v -0.068210446 0.012867930 0.024441003
v -0.121472123 -0.004237457 0.071105455
v 0.024499999 0.002500000 0.179374994
v 0.023750000 0.002500000 0.180187494
v -0.000500000 0.005520561 0.194742947
v -0.009998985 0.005318831 0.208000004
v -0.010812815 0.016000001 0.184753243
v -0.005490754 0.022000000 0.067412949
v -0.009315698 -0.005500000 0.197581616
v 0.001500000 0.008575609 0.192562401
v -0.065010702 0.003724288 0.011654462
v -0.065519004 0.006489832 0.011950503
v 0.001500000 0.003023203 0.193676471
v -0.043648090 0.022030577 0.018870024
v 0.018999999 -0.001095890 0.190159115
v 0.027663914 -0.002625000 0.077895673
v 0.028609873 -0.000121191 0.053427368
v -0.001437500 0.002500000 0.192984372
v -0.071088878 0.003934970 0.018436025
v 0.028418862 0.020121009 0.139337076
v -0.008624829 0.009481354 0.089606359
v -0.114870041 -0.018845791 0.074126853
v -0.029471739 -0.000072406 0.183725944
v -0.070845065 0.007985870 0.021527529
v -0.116043420 -0.029031744 0.080249167
v 0.018742971 0.018082534 0.134992037
v -0.028936881 0.019500000 0.136925053
v -0.002084453 0.006597546 0.081844457
v 0.028000000 0.021000000 0.094999999
v 0.014356405 -0.000376502 0.187541998
v 0.035222787 -0.001064393 0.177830920
v -0.005819766 0.022000000 0.046851609
v -0.123667028 -0.015495474 0.087397052
v -0.039999999 0.000500000 0.195999995
v -0.066612016 0.011117226 0.020111291
v -0.018081685 0.012699786 0.087732225
v 0.007606200 0.006526948 0.191947013
v -0.034454749 0.020484375 0.141861843
v -0.038893231 0.019750000 0.175024740
v 0.036528210 0.004343767 0.120223603
v 0.040909448 0.001827095 0.026631797
v 0.040824087 0.017419345 0.028137613
v 0.010462403 0.009052217 0.181232390
v -0.026226300 -0.001911707 0.187763161
v 0.023940195 0.018114302 0.177014622
v -0.002000000 -0.000471321 0.198598652
v -0.004663523 0.001903355 0.200343299
v 0.018999999 0.000084214 0.198393730
v -0.029317632 0.003498184 0.188570009
v -0.001250000 0.002654733 0.198010519
v -0.113947624 -0.019532191 0.074939039
v -0.035875957 0.000589244 0.180999994
v -0.119883214 -0.021368327 0.081514225
v -0.123084322 -0.016013868 0.075888063
v -0.013651027 -0.003000000 0.069808968
v -0.004814004 0.010227086 0.101867484
v 0.012848960 -0.002370488 0.200000003
v -0.038469182 0.016295535 0.102905843
v -0.064477049 0.012909783 0.028008202
v 0.005522735 0.014220136 0.094999999
v 0.003000000 -0.000106206 0.184874813
v 0.028286143 0.004255023 0.174711080
v 0.030508617 0.007927228 0.182999998
v -0.117705691 -0.022509007 0.079199743
v -0.124661606 -0.024524474 0.075836045
v 0.020500001 0.007208514 0.189844166
v -0.115514182 -0.027462578 0.083372633
v -0.025207148 -0.000082587 0.024649372
v 0.026151702 -0.003000000 0.051187416
v 0.018192792 -0.005437152 0.185510445
v 0.030183156 0.019700638 0.091192483
v -0.081432358 -0.000730922 0.028680619
v -0.015115657 0.000000000 0.018123351
v -0.038437499 0.000000000 0.065179540
v -0.061846297 0.015108179 0.027454501
v 0.001500000 0.004907434 0.186782568
v -0.116540885 -0.027186868 0.078010962
v 0.025992660 0.002403609 0.179115739
v -0.066449260 0.013092800 0.030792408
v -0.113244793 -0.011544338 0.084366045
v -0.015363506 0.017694315 0.132294834
v -0.080782783 -0.009786068 0.040934284
v -0.114277119 -0.024915526 0.077399530
v -0.000500000 0.007789679 0.206733683
v 0.029281384 0.001816051 0.006088697
v -0.023688121 0.004301478 0.197999999
v -0.035768019 0.019500000 0.134599407
v 0.016481429 0.009906595 0.072556503
v -0.064135537 -0.000879306 0.018061832
v -0.066614925 0.001604235 0.016142287
v -0.067854620 0.002846005 0.015182514
v 0.022677529 0.007352889 0.058086646
v 0.027069705 0.006659951 0.103976077
v 0.019324225 0.002703455 0.200000004
v -0.109471522 0.002502278 0.065530536
v 0.033902575 0.008416032 0.088950909
v -0.117256556 -0.005697250 0.080892202
v -0.015468261 0.022000000 0.027561407
v -0.012856102 0.004043924 0.204832329
v -0.026135142 0.011256688 0.171516923
v 0.037250001 0.002500000 0.180999994
v 0.037092982 0.006181132 0.182999998
v -0.039500002 0.018478005 0.098564918
v -0.012137590 0.021000000 0.098846046
v -0.116679472 -0.015877732 0.083030671
v 0.009218750 0.002500000 0.200000003
v 0.013941363 -0.003000000 0.068862434
v 0.027674300 0.004119080 0.170366895
v 0.026786988 0.006098358 0.066533156
v 0.023159889 0.001057878 0.070429246
v -0.008375000 -0.005500000 0.188999996
v -0.059302421 0.014419853 0.024885502
v -0.127848000 -0.027272225 0.082879332
v -0.119308034 -0.021669492 0.078489602
v 0.001500000 0.004703346 0.196527277
v 0.041218751 0.019750000 0.094999999
v -0.007120498 0.007234329 0.186160648
v -0.117112351 -0.023703347 0.077198597
v 0.024499999 -0.000834508 0.170014679
v -0.025277669 0.016000001 0.175556929
v -0.118125312 -0.020190113 0.079091179
v -0.115936570 -0.020739615 0.075502120
v 0.032230419 -0.005500000 0.177669019
v -0.012500000 0.021000000 0.094999999
v -0.120596442 -0.013419130 0.083308075
v -0.027968454 0.003566964 0.094124999
v 0.003500000 0.019750001 0.177723958
v 0.011754113 0.018272255 0.095446707
v -0.122807439 -0.018102673 0.087933871
v -0.116571089 -0.020156428 0.079510907
v -0.011031089 0.003852649 0.083543811
v -0.112481357 -0.022437726 0.085956510
v 0.019750000 0.002500000 0.195250002
v 0.010546875 0.009312500 -0.029177109
v -0.113896969 -0.019040563 0.076884586
v -0.112734074 -0.019583860 0.076363753
v -0.104128050 -0.003643173 0.054770233
v -0.020296064 -0.003000000 0.075358989
v 0.023622716 0.004488854 0.181868673
v 0.027857326 0.016451756 0.097370354
v -0.034881704 -0.001746004 0.183572578
v -0.029708941 -0.003000000 0.081853488
v 0.039000001 0.003192554 0.173276126
v -0.122145896 -0.026624630 0.079702565
v -0.115178313 -0.017596437 0.077674705
v -0.027968750 0.000000000 0.086250001
v -0.061836937 0.004885173 0.035711958
v -0.028116782 0.000803005 0.058297998
v -0.064065415 -0.004007126 0.026505175
v -0.007056015 0.015701738 0.208000004
v -0.036563496 -0.001190560 0.190368499
v -0.027502452 0.002443377 0.185372807
v -0.031380953 0.001350045 0.184377203
v 0.023000000 0.003647502 0.172785755
v 0.013454445 0.017660365 0.092877925
v 0.025783372 0.001645280 0.175345661
v -0.018999999 -0.000857789 0.195991541
v 0.000429524 0.019050172 0.091244738
v -0.031952450 0.002500000 0.131630411
v 0.033283190 0.002666772 0.177170675
v 0.000339380 -0.003000000 0.077176481
v -0.035560865 0.008432676 0.064031259
v 0.025788020 0.003486895 0.059456688
v 0.016147994 0.019267068 0.153717845
v -0.116718094 -0.019539802 0.077716124
v 0.004614658 0.016000001 0.098791018
v 0.009984420 0.001626854 0.188048278
v 0.034538350 0.006773827 0.139523174
v -0.112051809 -0.020685691 0.083062594
v 0.003000000 0.000234375 0.199203128
v -0.002000000 -0.000940622 0.195353396
v 0.036209838 0.019079439 0.090744326
v -0.005630190 -0.001500000 0.082502918
v -0.038575389 0.001160457 0.187380921
v -0.133082989 -0.022866991 0.084566951
v 0.017259744 -0.001643141 0.200000003
v -0.012843751 0.002500000 0.206000000
v 0.028147227 0.000345182 0.173832159
v -0.010748408 0.001445052 0.198679745
v -0.003428625 0.000833469 0.196509424
v 0.004276210 0.001123235 0.184000000
v -0.031460738 0.005319794 0.184954032
v -0.018999999 0.000713067 0.202247682
v -0.031443998 0.002457336 0.186109869
v -0.054959803 0.017995385 0.021524111
v -0.031562577 -0.003000000 0.030962128
v -0.038679240 0.003031372 0.186442575
v -0.124237548 -0.024222762 0.084930707
v -0.117435311 -0.014928708 0.089567643
v -0.010899509 0.003793562 0.197630004
v -0.030401628 -0.003457043 0.180999994
v -0.016442724 -0.002558509 0.191759200
v 0.009891900 0.002302051 0.194369229
v -0.015844360 0.017766250 0.092395732
v 0.003000000 -0.001891821 0.190589997
v -0.119013677 -0.018726466 0.081811944
v -0.015295001 -0.003724233 0.191329615
v 0.014856627 0.000466240 0.200000003
v 0.031149212 0.002709823 0.048343938
v -0.012571118 0.018828580 0.094302255
v -0.009116006 0.018070602 0.091884059
v -0.023154297 0.016783381 0.139709998
v -0.110730368 -0.011698455 0.080918877
v 0.030112481 -0.004208216 0.168411020
v 0.035410266 0.004925801 0.165139887
v -0.039999999 -0.003028155 0.191887047
v -0.113766443 -0.022104826 0.074082548
v 0.011405859 0.018825487 0.090754283
v 0.013828559 0.015975261 0.098266005
v 0.019506232 0.016299293 0.094999999
v -0.007416001 0.004115834 0.202316732
v 0.005884172 -0.003216447 0.187583474
v 0.014852933 0.015520410 0.083006380
v -0.010500000 0.000000000 0.085000001
v -0.061533108 0.009850690 0.025636136
v 0.025978963 0.000204322 0.167999998
v -0.013233927 0.002129535 0.195365995
v -0.117325238 -0.006092486 0.071684354
v 0.021044605 0.007328315 0.085776411
v -0.114702691 -0.021580001 0.079686061
v -0.004343635 0.020250000 0.179401215
v -0.117370370 -0.021631319 0.081682663
v 0.016594616 0.001740064 0.187632733
v -0.122728814 -0.025724826 0.078269165
v -0.016155162 0.004787174 0.208000004
v 0.009125000 0.021000000 0.094999999
v -0.024000000 0.002500000 0.184281244
v 0.005027612 0.004362500 0.180999994
v -0.024000000 0.001582667 0.193951075
v -0.111325967 -0.023394283 0.083226536
v 0.030000000 0.000852366 0.180999994
v -0.009983357 0.002228441 0.200645822
v 0.031549055 -0.002392677 0.175870542
v -0.027719218 0.005171256 0.195013149
v -0.059728858 0.018124437 0.031235309
v -0.039999999 0.002500000 0.183812494
v 0.030393008 -0.001048462 0.171955473
v -0.011509659 0.000170218 0.192307678
v 0.037500001 0.000470238 0.174501095
v -0.004042388 0.005597328 0.134299593
v 0.016625303 -0.003008622 0.193731851
v 0.015907155 -0.001500000 0.082262566
v -0.036411408 -0.003201064 0.184472341
v -0.114633400 -0.014558826 0.087944961
v -0.029665058 0.011973437 0.147000000
v -0.005373476 -0.000355917 0.199535510
v -0.030042219 -0.003000000 0.039400222
v -0.116965773 -0.018998404 0.081972069
v -0.116170830 -0.002454423 0.071092846
v 0.025767429 0.003712379 0.179155966
v 0.018999999 -0.000393604 0.194819746
v 0.010740177 -0.000048537 0.184000000
v -0.036867100 -0.005500000 0.185627528
v -0.002000000 -0.002443620 0.204450359
v 0.008312500 0.000000000 0.085000001
v -0.117188644 -0.027832861 0.085056381
v -0.035393092 -0.003923744 0.186532634
v -0.020177983 0.008619931 0.064817677
v -0.122094437 -0.020486513 0.088600629
v 0.016311887 0.006449034 0.141322006
v -0.124157339 -0.030806895 0.085543056
v -0.024000000 0.001200143 0.190002164
v 0.018134766 0.019612935 0.098995998
v -0.028573278 0.002135363 0.187784470
v 0.008322559 -0.003000000 0.043002884
v 0.012039382 -0.001469142 0.193274869
v -0.113339892 -0.026013922 0.082438498
v -0.004222399 0.000334590 0.188999996
v 0.005401746 -0.000352561 0.189376772
v 0.045000002 0.013745581 0.085350654
v 0.010283686 -0.001292838 0.189506774
v -0.009226563 0.002500000 0.188906246
v -0.118914295 -0.021587873 0.079923745
v -0.034255675 -0.004847287 0.180999994
v 0.024499999 0.002500000 0.176937495
v -0.065366068 0.019112641 0.028846560
v 0.037324737 -0.004348604 0.175201680
v -0.025588816 0.002500000 0.110630209
v -0.114479870 -0.022144263 0.081886443
v 0.035957769 0.017186976 0.097072991
v -0.111291611 -0.018698686 0.085541115
v -0.118691905 -0.027736732 0.079574117
v 0.011555494 0.002714678 0.036128396
v -0.010445880 0.003420051 0.060072952
v -0.034884026 0.001816935 0.194545986
v -0.033875001 0.019500000 0.101499997
v 0.014977813 -0.000694032 0.191535255
v -0.004328261 0.000850620 0.191566266
v -0.034878450 -0.001257181 0.180999994
v -0.062681851 0.006671153 0.017276763
v -0.114366634 -0.017842414 0.076104854
v -0.118505032 -0.013627484 0.088465246
v 0.015320692 0.003136896 0.197935074
v -0.034300862 0.000725634 0.183936891
v -0.020773047 0.000187523 0.069238238
v -0.032758503 0.000362211 0.195999995
v -0.033262042 -0.003093560 0.180999994
v -0.113685175 -0.019643546 0.080888420
v -0.125071044 -0.025188273 0.089926372
v 0.029868926 -0.005500000 0.174982037
v -0.003425664 0.016709116 0.151236479
v 0.016588561 0.000191763 0.184000000
v -0.124012826 -0.012453372 0.091805400
v -0.113084637 -0.017088359 0.076986231
v -0.039999999 0.002500000 0.186156244
v -0.111135854 -0.015447343 0.087531248
v 0.013416286 -0.005500000 0.189548137
v -0.118326577 -0.019152915 0.094574202
v -0.110205957 -0.027255714 0.076783886
v 0.026677033 -0.002144617 0.173842912
v -0.121387244 -0.024773472 0.086576928
v -0.023375000 0.017533910 0.147363492
v 0.025797659 0.000930471 0.180868043
v 0.011383720 -0.003285241 0.187323786
v -0.027129165 0.021875000 0.092445124
v -0.031078701 0.018496927 0.176346583
v 0.033521359 -0.002894138 0.180999994
v 0.034177744 0.004175182 0.179891423
v 0.028131617 -0.000631458 0.177998442
v 0.026375000 0.002500000 0.180999994
v 0.024499999 0.002500000 0.172062497
v -0.028664650 -0.003000000 0.072567235
v 0.003082966 0.006976855 0.201759941
v 0.024499999 0.002500000 0.174499996
v 0.017718319 -0.003219264 0.184000000
v 0.031593751 0.002500000 0.181343745
v -0.011420376 0.020519531 0.146553778
v -0.021044225 0.003622397 0.047054116
v -0.125882389 -0.004866060 0.082241976
v 0.025789909 0.000742994 0.174314425
v 0.010377107 0.002682181 0.183032713
v -0.109593350 -0.023877512 0.078316892
v -0.034782444 0.000147221 0.186956314
v 0.007317170 -0.002833558 0.193661212
v -0.119715361 -0.028921295 0.086911791
v -0.125058803 -0.019079632 0.088121494
v -0.006022044 0.002947032 0.200760588
v 0.025769370 0.004259740 0.173684643
v -0.038843576 0.001900343 0.185893528
v -0.115275962 -0.025030377 0.079714601
v 0.037500001 -0.001793449 0.176850905
v 0.033459580 0.005388226 0.175137318
v -0.013208010 0.003015019 0.200724651
v -0.036770849 0.003004421 0.188553772
v 0.005752416 0.001000468 0.200000003
v 0.028114419 0.004330929 0.177383813
v -0.024000000 -0.000457440 0.192201881
v -0.010016574 0.003237335 0.176244317
v -0.038231199 0.001313317 0.195999995
v -0.006869220 -0.005500000 0.195884362
v -0.002299401 -0.003000000 0.052492089
v -0.008458004 0.000614111 0.045607551
v -0.118971740 -0.023730925 0.077684003
v -0.124848307 -0.021169042 0.091867256
v -0.012361421 -0.003926473 0.193770840
v -0.031272815 -0.002016803 0.195999995
v -0.032444864 -0.000115191 0.191603295
v 0.014796573 -0.003038082 0.191263032
v 0.023640004 0.013331313 0.156091943
v -0.012642586 -0.005500000 0.195560489
v 0.015636864 -0.002426471 0.184000000
v -0.039999999 -0.002592847 0.182697047
v 0.030236279 0.004209286 0.179731189
v -0.115096927 -0.019066868 0.078805392
v 0.024871277 0.018892887 0.162381469
v -0.114688269 -0.023544051 0.076468160
v 0.034736335 -0.000283825 0.172908128
v -0.041499998 0.003832937 0.192015368
v -0.017025320 -0.003000000 0.081619733
v 0.006100059 0.002217616 0.188066880
v 0.012977441 0.003581013 0.194723096
v -0.008665102 -0.003179354 0.206000000
v 0.002296875 0.002857612 0.198770432
v -0.002613657 -0.004539606 0.195226560
v -0.117711887 -0.019861697 0.076304842
v -0.118814292 -0.016370725 0.091870354
v 0.030609183 0.011945534 0.149113270
v 0.033551647 -0.005500000 0.174626356
v 0.003000000 0.000635890 0.187868950
v -0.018999999 -0.002869383 0.198154103
v 0.024499999 0.000876997 0.170562496
v 0.016339803 -0.001875000 0.023918557
v 0.003000000 -0.005033254 0.190743794
v -0.022254220 0.003438594 0.032142986
v -0.017092255 0.001557299 0.201080180
v -0.002000000 -0.002258387 0.201487858
v 0.035147145 0.002182638 0.179232206
v 0.013893538 0.002000000 -0.013548751
v -0.018999999 0.002500000 0.198031248
v 0.003000000 0.002500000 0.189250001
v -0.110976543 -0.018597751 0.088981036
v -0.119641758 -0.013004937 0.086771611
v 0.009246320 0.001008893 0.061612828
v 0.029178525 0.001274549 0.170798464
v 0.037875001 0.002500000 0.168812498
v -0.006160950 0.000528965 0.206000000
v -0.036730903 -0.003359987 0.180999994
v -0.036358121 -0.001464465 0.186716507
v -0.033678093 -0.005500000 0.183721647
v 0.019750000 0.002604460 0.186456579
v -0.039999999 0.002500000 0.191312495
v -0.119997824 -0.017693876 0.084973627
v -0.004106426 -0.003604447 0.192509090
v -0.036685912 0.002452021 0.185416192
v 0.033240738 0.005649160 0.168676633
v -0.015161964 0.003894252 0.201737548
v 0.005054716 -0.001197627 0.194667774
v -0.007176916 -0.000228567 0.203754419
v -0.018029693 -0.003648365 0.189486382
v -0.007739903 0.015133027 0.094999999
v 0.005219418 0.000678039 0.197338035
v -0.039999999 -0.002048721 0.189196647
v 0.034914507 0.003207531 0.174040358
v -0.007726795 0.000498351 0.077530524
v 0.031289036 0.000595996 0.174779925
v -0.110758192 -0.025364392 0.079944206
v 0.012973727 0.021000000 0.178502014
v -0.039999999 -0.001086671 0.185696797
v -0.004446585 -0.005415538 0.204711864
v 0.026677062 -0.001056981 0.169679904
v -0.122363742 -0.016049997 0.088997579
v -0.025057893 0.000621897 0.195999995
v -0.013794624 -0.004776883 0.205928060
v 0.037500001 -0.000888347 0.179738371
v -0.111898321 -0.020593970 0.076938696
v -0.014210674 -0.001926469 0.206000000
v -0.019562500 0.002500000 0.190328121
v 0.006136369 0.002019443 0.198232654
v 0.011616629 -0.003000000 0.054420642
v 0.003000000 0.002500000 0.196000002
v -0.009413364 -0.000608924 0.188999996
v -0.033669246 -0.002078561 0.188791365
v -0.027997616 -0.003939346 0.180999994
v -0.035357225 0.004145060 0.184374714
v -0.008557189 -0.002525762 0.198924520
v -0.114851767 -0.012200841 0.072085826
v -0.009925462 0.001442698 0.203862680
v -0.039999999 0.000851441 0.187839838
v -0.026280606 0.016000001 0.144198158
v 0.006681757 0.003953326 0.197747139
v -0.018344040 -0.004867497 0.206000000
v -0.086682098 0.009318310 0.044749350
v -0.008547321 0.020060679 0.186286452
v 0.031730627 -0.005500000 0.171287305
v -0.015165115 0.002217376 0.201323004
v 0.014144518 -0.005500000 0.192818272
v -0.025106712 -0.004506370 0.195660772
v 0.028293607 0.003118631 0.174189411
v -0.014730865 -0.005500000 0.201337432
v -0.006678348 -0.003546783 0.200319935
v -0.013865714 0.002597623 0.203129299
v -0.009292649 -0.005203338 0.205717188
v -0.120150178 -0.005402543 0.067890548
v 0.028523564 -0.003697267 0.178084483
v 0.006739713 0.000091980 0.048305898
v -0.127825729 -0.023243396 0.087856849
v -0.003803392 -0.004440544 0.189071261
v -0.026645658 -0.005500000 0.184847220
v 0.003000000 0.001141364 0.192379905
v 0.036735008 -0.003220886 0.180580872
v -0.037362544 -0.005500000 0.188998106
v -0.018712719 0.000028075 0.189150791
v -0.039999999 0.000969559 0.193603895
v -0.037173697 -0.000703672 0.194065040
v -0.119132669 -0.022643522 0.084956288
v -0.123289640 -0.023464748 0.089359379
v -0.010408830 -0.003951186 0.188999996
v -0.031665939 -0.003375392 0.190571058
v -0.112959461 -0.017419763 0.090523411
v 0.035241653 -0.005500000 0.180314849
v -0.034130280 0.004030310 0.022427965
v 0.010502639 -0.005500000 0.185060818
v -0.059872624 0.019063309 0.026918776
v 0.004843138 -0.005500000 0.197289722
v 0.013146550 -0.000222933 0.070882337
v -0.034243038 -0.005500000 0.190040351
v -0.031393091 -0.005500000 0.189730444
v -0.014618521 0.000746688 0.199265403
v 0.003000000 0.000597288 0.195880952
v -0.007293656 -0.000854709 0.195553878
v -0.029032086 -0.002020295 0.189144661
v -0.012024141 0.001650008 0.201351679
v -0.038814049 -0.001442307 0.180999994
v 0.003370429 -0.005205032 0.187152994
v -0.108887410 -0.017590936 0.081778789
v -0.018101470 -0.005500000 0.190325966
v -0.112035856 -0.018444753 0.077670700
v -0.017269653 0.001043828 0.075776175
v -0.110857501 -0.016842180 0.079743049
v 0.010171523 0.003766318 0.189248585
v 0.033885181 0.000076252 0.180999994
v 0.007538123 -0.000290447 0.184000000
v 0.036682212 0.003558457 0.177471074
v -0.037169232 0.001925392 0.190635144
v 0.027689012 0.001165929 0.176727228
v -0.004500000 0.021000000 0.094999999
v -0.034660727 0.000522540 0.192725134
v -0.002260936 -0.002892813 0.190434807
v -0.118256236 -0.029859218 0.083133120
v 0.036436598 0.000415312 0.168171008
v -0.115684827 -0.022207399 0.076348139
v -0.026218036 -0.002092585 0.183705646
v -0.121856635 -0.031092438 0.086868514
v -0.013603504 0.005487973 0.191370660
v -0.123580801 -0.020404395 0.093696558
v -0.029278046 0.000544086 0.189495134
v 0.018089844 0.002912492 0.182587527
v 0.037500001 0.002082519 0.177720396
v 0.018999999 -0.002935771 0.191389748
v 0.008894884 0.000943418 0.195210864
v 0.011976505 -0.005500000 0.196457977
v 0.004077564 -0.001673072 0.184199793
v -0.005551812 -0.005500000 0.192395583
v -0.112079183 -0.015891725 0.084382387
v 0.006497332 -0.003384484 0.184000000
v -0.016872322 0.001121682 0.188999996
v 0.029694364 -0.005361556 0.179475722
v 0.024499999 0.000824737 0.178661582
v -0.018999999 0.000851927 0.193886652
v 0.015748568 -0.003200652 0.187780701
v 0.027476026 -0.005149419 0.167999998
v -0.126287414 -0.028998679 0.086888373
v -0.014407885 -0.001302889 0.196555608
v 0.006078334 -0.005500000 0.189673814
v -0.000508106 0.015509245 0.094999999
v -0.024685818 -0.001044034 0.195556276
v 0.033541964 0.016734495 0.162737347
v 0.007199411 0.018663476 0.145620261
v 0.039750000 0.000000000 0.041676316
v -0.016500000 0.021000000 0.094999999
v -0.018724331 0.018992622 0.099884432
v -0.109811302 -0.019241814 0.082385568
v 0.009416033 -0.004256570 0.192091629
v -0.126417049 -0.028953606 0.084283267
v -0.011487512 -0.003463273 0.206000000
v -0.115723089 -0.016916723 0.091219053
v -0.011633503 -0.005500000 0.203798351
v 0.032081755 -0.004833640 0.180999994
v -0.026580834 -0.005500000 0.192150977
v -0.034345494 -0.000940023 0.195999995
v 0.019422777 0.006275209 0.024333800
v -0.120046985 -0.020653599 0.089842719
v 0.033009607 0.014373518 0.138999999
v 0.034664968 -0.003305196 0.177230363
v 0.004956137 0.006441892 0.048055201
v -0.011436792 -0.002928281 0.196718363
v 0.014747118 0.002759668 0.191593310
v -0.025338906 0.015696002 0.100645521
v -0.039999999 0.000172488 0.186781300
v 0.018999999 -0.002782334 0.197662477
v -0.006029114 -0.002085227 0.188999996
v 0.019171296 -0.003000000 0.046621326
v 0.037500001 -0.002361469 0.172589682
v -0.015323091 0.005462725 0.197654914
v -0.124398089 -0.031976003 0.087898871
v -0.015624155 -0.005500000 0.193253651
v -0.118932812 -0.022482918 0.094231089
v -0.005717146 -0.005500000 0.200857553
v 0.015845072 0.004291300 0.101000004
v 0.025906265 0.022000000 0.054065024
v -0.008301015 -0.005500000 0.191256171
v -0.124928945 -0.016279799 0.093331113
v -0.027749954 0.002034570 0.190604902
v -0.012222548 -0.005500000 0.199535778
v -0.018999999 0.001012471 0.198412380
v 0.015543350 -0.002911182 0.197084440
v 0.033424877 -0.003376690 0.167999998
v -0.016823731 0.005466410 0.204097280
v -0.030237381 -0.001864268 0.185974661
v -0.028571738 -0.000297060 0.195999995
v -0.030417980 -0.005500000 0.186547949
v -0.016069773 -0.003752447 0.197179577
v -0.002339586 -0.005217937 0.192351725
v 0.031971453 -0.000724719 0.179161366
v -0.017232277 -0.003111574 0.206000000
v 0.006878155 -0.005500000 0.192384717
v -0.033098294 -0.003188007 0.192970221
v -0.024000000 -0.000318360 0.189308328
v 0.037500001 -0.001533863 0.169623403
v -0.018999999 -0.001705808 0.200848480
v -0.018999999 -0.003851719 0.204733347
v 0.018278719 -0.005345441 0.196977281
v -0.120382173 -0.016322791 0.087968845
v -0.114290594 -0.021661318 0.089297948
v -0.002363753 -0.004938613 0.202401182
v -0.035647527 0.021000000 0.101105823
v 0.032693312 0.000293996 0.167999998
v -0.116870210 -0.019851373 0.089594409
v -0.118015847 -0.018800710 0.086775768
v -0.039536368 -0.004363212 0.181472244
v 0.011053056 -0.005500000 0.193171191
v 0.008146984 0.018839953 0.092995580
v -0.001776645 0.003874710 0.205534086
v -0.034793844 -0.004053811 0.195836009
v -0.003818998 -0.001580881 0.192001681
v 0.041828126 0.000703418 0.078761351
v -0.036710489 -0.005500000 0.193383054
v -0.012407393 -0.003310885 0.190832913
v -0.116189709 -0.023294005 0.083746775
v -0.125722968 -0.022230649 0.088423256
v -0.117136245 -0.018411226 0.074261325
v 0.005437500 0.002500000 0.200000003
v -0.032118833 -0.003991782 0.187569531
v -0.012988867 -0.002070294 0.202002562
v -0.107189115 -0.017744043 0.084746767
v -0.126905881 -0.025462914 0.087625214
v -0.122089777 -0.017861216 0.090472246
v -0.023901361 0.004897420 0.151908424
v -0.039999999 -0.004884585 0.189985717
v 0.003000000 0.002500000 0.193000002
v -0.024000000 -0.005240956 0.193430374
v -0.002000000 -0.003648232 0.197451937
v 0.024499999 -0.005025065 0.169651152
v -0.015389591 -0.005500000 0.197068217
v -0.002354167 -0.004593895 0.199903979
v 0.003000000 -0.002999567 0.186195770
v -0.028793859 0.002574842 0.196499996
v -0.016354595 -0.001501999 0.199882425
v 0.027759996 -0.001207134 0.175604988
v -0.012703199 -0.003000000 0.057898871
v 0.044706865 0.013899321 0.067355055
v 0.035194095 0.003068274 0.170709386
v 0.009173699 -0.005343456 0.198422721
v -0.016634320 -0.002243042 0.194705181
v -0.011072593 0.022000000 0.079326767
v 0.019506003 0.000479777 0.046000421
v -0.033875001 0.019500000 0.171499997
v -0.006305707 0.000250000 0.012037520
v -0.059033532 0.000176477 0.015753788
v -0.017835187 0.016162108 0.094999999
v -0.024336914 0.000261556 0.181925780
v -0.004449789 -0.005500000 0.197880334
v -0.032076520 0.001671409 0.183147110
v -0.002587804 -0.004146723 0.205698405
v -0.031145507 -0.002071290 0.183262543
v -0.093428486 -0.013164111 0.051334942
v -0.117966883 -0.016496413 0.077805271
v 0.003612276 -0.004887724 0.184000000
v -0.113534584 -0.012656457 0.080933684
v -0.120869512 -0.024144117 0.081057539
v -0.008073713 -0.005500000 0.203861626
v -0.024000000 0.000755931 0.186392559
v -0.109429736 -0.005525539 0.070358010
v 0.027389046 -0.002381127 0.167999998
v -0.019750000 0.003212313 0.202208423
v 0.004692483 -0.002118181 0.200000003
v 0.011367086 -0.003545451 0.184000000
v -0.128635267 -0.026230238 0.085244350
v 0.016033331 -0.005500000 0.197235972
v -0.012245793 -0.000474184 0.206000000
v 0.035111528 -0.005500000 0.172726923
v -0.038591669 0.020145559 0.097729671
v -0.118699904 -0.023175964 0.088137821
v 0.009074253 -0.003195772 0.188153340
v -0.125689551 -0.027653037 0.082424040
v -0.034118953 0.005779797 0.178251874
v -0.012855792 -0.005500000 0.190093208
v 0.013317806 -0.005419779 0.185465214
v -0.022500001 0.006143185 0.186435740
v 0.007445829 -0.002341012 0.196905286
v 0.018999999 -0.000383090 0.185921840
v -0.010486344 -0.005500000 0.193345719
v 0.005895418 0.001150006 0.191511738
v -0.120880819 -0.015949690 0.092238882
v 0.002062500 0.002682638 0.185769762
v -0.117688122 -0.025812891 0.088315004
v -0.034411347 -0.002694795 0.049968402
v -0.031888560 0.000070860 0.180999994
v -0.124238860 -0.021002262 0.087389883
v -0.015338247 -0.005431180 0.189512077
v -0.039173704 -0.005366269 0.183963879
v 0.018999999 -0.004104572 0.194437867
v 0.024499999 -0.001373326 0.174386351
v 0.006479077 -0.004431144 0.199684282
v -0.006937500 0.002500000 0.206000000
v -0.014037513 0.000894642 0.201063393
v 0.028020906 -0.001500000 0.023683600
v 0.036238630 -0.005167318 0.177905309
v -0.001871467 -0.003000000 0.040857877
v -0.016141537 0.000560655 0.192265466
v -0.125211956 -0.026350182 0.080667429
v -0.121380184 -0.017726196 0.094570090
v -0.027408725 -0.000837999 0.180999994
v 0.006758189 0.020000000 -0.016125128
v 0.003000000 -0.003772582 0.197256001
v -0.004820838 0.003516071 0.196457410
v 0.034573128 -0.002939999 0.173465080
v 0.033953240 -0.005378644 0.168681040
v -0.028908565 -0.002800630 0.195999995
v -0.039851414 0.000278289 0.182137265
v -0.121083388 -0.022744015 0.092400158
v 0.014500191 0.001504932 0.192791143
v 0.005579167 0.021000000 0.180953128
v 0.014807204 0.000211066 0.197044572
v 0.037244402 -0.005037140 0.169267639
v -0.123106273 -0.023321863 0.093045919
v 0.005556515 0.004181628 0.192415295
v -0.002000000 0.000419289 0.202030862
v 0.006948042 -0.005500000 0.195855657
v -0.038085424 -0.000725737 0.195999995
v -0.024499999 0.020019582 0.175548498
v -0.027585413 -0.005500000 0.189488572
v 0.026314023 -0.005500000 0.178217190
v -0.043906252 0.000000000 0.078130427
v -0.027010012 0.021000000 0.176408800
v -0.028609258 0.006648595 0.141000003
v -0.113161651 -0.014787051 0.082129913
v -0.002000000 -0.000640201 0.191062060
v -0.018237688 -0.005267755 0.196849546
v -0.008065420 -0.003801296 0.188999996
v 0.029504680 0.003678617 0.182749997
v 0.003000000 -0.003618633 0.193470103
v -0.014716287 -0.003199433 0.199451090
v -0.108791052 -0.020262788 0.081185237
v -0.039999999 -0.000750342 0.192802876
v -0.121277435 -0.029152700 0.082354348
v -0.032681301 0.002329047 0.190622890
v -0.034164062 -0.000383870 0.018462885
v -0.016357296 -0.000940802 0.188999996
v 0.003000000 -0.005000000 0.200000003
v 0.018411750 -0.004350436 0.199885160
v -0.037702636 0.001370754 0.184317102
v -0.024472417 -0.002965112 0.182077715
v -0.031761219 -0.004841428 0.195711841
v -0.117102911 -0.018887153 0.080157319
v -0.033484216 0.021000000 0.172498357
v -0.122247174 -0.029149805 0.089755848
v -0.110310906 -0.012639474 0.082146374
v 0.009748073 0.000248328 0.200000003
v 0.020266471 0.019527078 0.091928450
v 0.011155943 -0.004449101 0.199792133
v 0.003868069 -0.005500000 0.194509469
v 0.026950114 0.019055357 0.114912942
v -0.027167913 -0.003719410 0.188719317
v -0.039279184 -0.005500000 0.192144633
v 0.024499999 -0.004279626 0.177279826
v 0.010314412 -0.003845237 0.196035493
v -0.025359565 0.000000000 0.016947415
v 0.030500727 -0.000507352 0.167999998
v -0.029656599 -0.002543426 0.192413448
v 0.024499999 -0.002529181 0.178096832
v -0.029339455 -0.005500000 0.194156890
v 0.007159694 -0.005433226 0.186172242
v 0.010128838 -0.005500000 0.188479769
v -0.044096238 0.017401315 0.089223943
v 0.024750791 -0.002971184 0.168527749
v -0.113257645 -0.028095031 0.079295201
v -0.064014426 0.017619548 0.031420400
v -0.011818677 -0.000190514 0.203392654
v -0.109100977 -0.022781232 0.080836671
v -0.013191570 -0.003039832 0.188999996
v -0.114560121 -0.019409066 0.092560086
v 0.003000000 -0.001337068 0.195480431
v -0.025361537 -0.005500000 0.186394369
v 0.024499999 -0.003361130 0.171140109
v -0.107732024 -0.015394661 0.084579603
v 0.036048293 0.001928111 0.176661937
v -0.018999999 -0.001530765 0.205175293
v -0.108260248 -0.016086902 0.087082519
v 0.019818413 0.000000000 0.012792147
v -0.025684579 0.019277328 0.144204576
v -0.109623622 -0.015207739 0.081894853
v 0.035343049 -0.005500000 0.170646450
v -0.020234097 0.022000000 0.079698785
v 0.013070621 0.005158743 0.075092143
v -0.018751145 0.022000000 0.085098155
v -0.039923337 -0.004311704 0.186984081
v -0.024000000 -0.002607244 0.185456360
v 0.008232422 -0.005152569 0.184149008
v -0.017825545 -0.005335634 0.200646768
v -0.011357076 -0.000671731 0.199767198
v -0.016429202 0.003667065 0.186749887
v 0.010560656 -0.000378610 0.041058356
v 0.027315941 -0.005500000 0.171176343
v -0.039999999 -0.005159390 0.194951688
v 0.028068496 0.001485070 0.174714901
v -0.003128906 0.019949799 0.097808927
v 0.018049447 -0.005238301 0.192197486
v -0.023774333 0.019492730 0.096549220
v -0.120902661 -0.027076133 0.090832674
v -0.013981889 -0.000025461 0.188999996
v 0.010514630 -0.001797073 0.197828595
v 0.006637104 0.012648740 0.090622049
v -0.123722678 -0.017123817 0.093944953
v 0.024499999 0.000355903 0.173529332
v 0.025474564 -0.001605162 0.180557739
v -0.110561272 -0.020598635 0.078530185
v -0.035282658 -0.003000000 0.033556885
v 0.014473278 -0.005110044 0.199298147
v 0.024499999 0.000602441 0.176246125
v -0.108996678 -0.014098294 0.085019060
v -0.121549718 -0.026583534 0.092305781
v 0.008846536 -0.002285530 0.200000003
v -0.114703509 -0.024782248 0.085793380
v -0.049620418 -0.000086626 0.026082442
v -0.121632769 -0.025823956 0.089749067
v -0.130970757 -0.024404713 0.086443204
v -0.036088261 0.002725713 0.196499996
v -0.116136139 -0.021439225 0.091969103
v -0.117424470 -0.021654388 0.077518229
v -0.015177128 0.019953447 0.092483398
v -0.121680175 -0.019738279 0.096122819
v 0.042384533 0.007124490 0.094999999
v -0.018930819 -0.004682179 0.194057657
v -0.002070262 -0.000018794 0.205148588
v -0.040539061 0.002500000 0.179701170
v -0.011198573 -0.000706625 0.195966604
v -0.125154526 -0.021714965 0.082757020
v 0.039000001 0.006110653 0.178583445
v 0.027987777 0.006444214 0.078985058
v 0.030800197 -0.003816285 0.172611111
v -0.121506190 -0.023724596 0.094678376
v -0.123718943 -0.026423052 0.091023021
v -0.016705555 0.000000000 0.088841235
v 0.038454645 0.006774114 0.152912875
v -0.024000000 -0.002830384 0.192993486
v 0.035062501 0.002500000 0.167999998
v -0.122702465 -0.014609266 0.092616639
v -0.024000000 -0.003307948 0.187457399
v 0.037500001 0.002500000 0.172671872
v -0.111447592 -0.024148734 0.075994032
v -0.003989936 -0.001867628 0.197342761
v -0.008104160 -0.003080164 0.192989661
v 0.026026446 0.021000000 0.098768400
v -0.068028421 0.004560209 0.023006883
v 0.015935992 0.019396098 0.089652838
v -0.111912790 -0.017350456 0.075133500
v -0.124624451 -0.029010753 0.088865183
v 0.017240064 -0.005333179 0.188775411
v -0.120804046 -0.019083726 0.079620139
v -0.014450395 -0.003673963 0.195283861
v -0.120328704 -0.020924386 0.097008641
v -0.024072517 -0.003580112 0.190231293
v -0.033029762 0.000000000 0.089500000
v -0.043977682 0.001087609 0.044163672
v -0.114968083 -0.021162642 0.086337187
v 0.007381388 0.012604078 0.175520505
v 0.037500001 0.001176190 0.178919423
v -0.001244926 0.001420816 0.032584629
v 0.029242267 0.001988756 0.178498579
v -0.061590797 0.019321034 0.025900053
v -0.032623324 -0.003000000 0.022250814
v -0.109704808 -0.020928547 0.084322771
v 0.021051462 -0.003000000 0.061046367
v -0.012948647 0.019271532 0.090381107
v -0.002249024 0.016333997 0.143359597
v -0.009922419 -0.002727551 0.201707170
v 0.025897009 0.005849390 0.175610688
v -0.036898062 0.019500000 0.153344492
v 0.026258675 0.000754075 0.179287635
v 0.005375000 0.021000000 0.094999999
v 0.018426561 0.001296034 0.058223641
v -0.121318152 -0.023136563 0.090506361
v 0.003000000 0.001500000 0.200000003
v -0.062425187 0.009818554 0.016004817
v -0.031417014 0.019500000 0.160415673
v 0.036174817 -0.002188882 0.167999998
v 0.009394659 0.005417828 0.202000007
v 0.029171527 -0.001859998 0.180999994
v -0.033809293 0.011436122 0.147000000
v 0.027099336 0.013028708 0.084051020
v -0.037705157 -0.002922691 0.195932804
v -0.017642935 0.003197429 0.203381593
v -0.002000000 0.001103715 0.193445747
v -0.009259252 -0.005500000 0.200604041
v -0.018312500 0.002500000 0.205734375
v -0.065876868 0.003816636 0.017944118
v 0.025382442 -0.004730093 0.180597163
v -0.114447282 -0.021287827 0.075714280
v -0.034866813 0.001392303 0.195999995
v -0.030886737 0.021000000 0.173478927
v -0.122658290 -0.021756078 0.084425143
v 0.025535819 -0.005331387 0.174108014
v 0.006474609 0.018511306 0.090053819
v -0.035820312 0.002500000 0.180999994
v -0.008939105 -0.000137195 0.200128762
v -0.006496057 0.001945554 0.197399472
v -0.118925675 -0.024479955 0.091638070
v -0.033658724 -0.005500000 0.193224595
v -0.113722522 -0.026524740 0.076032475
v -0.028087889 0.001676597 0.183393954
v -0.036748046 -0.005373709 0.181813328
v -0.045000002 0.011282472 0.077432411
v -0.038773972 0.022000000 0.075381960
v -0.025985189 0.013879261 -0.005211235
v -0.016968502 0.000709648 0.206000000
v -0.066362688 0.006104734 0.015224273
v -0.019416798 0.015515960 0.200501648
v -0.059987870 0.015894987 0.016147729
v -0.070198745 0.009214862 0.041631968
v 0.014852156 0.003310756 0.202000007
v -0.058791834 0.022090901 0.027951212
v -0.061511615 0.002369462 0.014440270
v 0.025000000 0.006500000 -0.010725000
v 0.004718749 0.000000000 0.016149309
v -0.031935315 0.004494496 0.192844107
v -0.108179379 -0.016457428 0.068599664
v -0.037999999 -0.003000000 0.027962457
v -0.022138486 0.019107948 0.092209103
v -0.003431908 0.019466865 0.093196674
v -0.023970903 0.022000000 0.091997899
v -0.010941565 0.021250000 0.004526230
v -0.043547561 0.005033874 0.056348412
v -0.033764294 -0.001104548 0.031070396
v -0.061042012 0.019593527 0.023232287
v 0.006794088 0.007622434 0.146613200
v -0.131757143 -0.026586347 0.084596602
v -0.010977134 0.001889506 0.092999999
v -0.039941451 0.017220375 0.166608221
v 0.019839529 0.022000000 0.008539096
v -0.064797008 0.009259629 0.017430219
v -0.031221887 0.018286858 0.099582305
v 0.013593749 0.000000000 0.016138517
v -0.009504617 0.019133456 0.087587626
v -0.111288062 -0.010830951 0.077388284
v -0.055948567 0.015569383 0.017664865
v -0.032234376 0.013540437 0.094999999
v -0.028856020 0.000390439 0.039710558
v 0.008310993 0.012305459 0.101000004
v 0.009156265 0.000000000 0.016156977
v 0.009072166 0.004828857 0.018481549
v 0.023274150 0.018206175 0.089529921
v -0.006203108 0.019619136 0.092108699
v -0.060149433 0.018775943 0.020657650
v -0.064023023 0.011560611 0.018400145
v -0.065491846 0.007249981 0.014741875
v -0.044005397 -0.002457975 0.016599168
v 0.029500000 0.021000000 0.094999999
v 0.004320728 0.020230892 0.092442263
v -0.039579031 0.022019620 0.033749999
v -0.046448965 0.022045915 0.031364970
v -0.044083974 0.009580623 0.014820992
v -0.062828565 0.014095956 0.020071562
v -0.035813431 -0.003000000 0.026635381
v -0.063818901 0.010497646 0.014788254
v -0.004684642 0.019801400 0.089911516
v 0.030868312 0.018455705 0.094818546
v 0.000477511 0.019613094 0.094999999
v 0.024507827 0.021512965 0.091255692
v -0.030591801 0.002676004 0.026488936
v -0.053717223 0.012063897 0.035873332
v -0.062320478 0.017669246 0.022586138
f 1 202 71
f 71 711 1
f 164 103 1
f 1 103 202
f 1 711 164
f 165 2 10
f 10 2 347
f 1053 2 165
f 347 2 1125
f 2 1053 1125
f 269 3 4
f 4 3 270
f 3 5 11
f 1125 5 3
f 70 10 3
f 10 349 3
f 11 69 3
f 69 120 3
f 121 70 3
f 120 270 3
f 269 121 3
f 3 349 1125
f 270 269 4
f 5 203 11
f 203 5 277
f 1125 277 5
f 6 7 11
f 6 493 7
f 11 156 6
f 156 534 6
f 534 493 6
f 493 8 7
f 8 1150 7
f 7 68 11
f 82 68 7
f 7 84 82
f 7 1150 84
f 8 12 31
f 122 12 8
f 31 1189 8
f 8 1199 122
f 493 1199 8
f 8 1189 1150
f 691 9 218
f 9 716 218
f 691 981 9
f 716 9 1012
f 1026 9 981
f 9 1026 1012
f 39 165 10
f 39 10 1143
f 1143 10 70
f 10 347 348
f 10 348 349
f 11 43 157
f 293 43 11
f 11 67 156
f 157 67 11
f 272 11 68
f 1143 69 11
f 118 11 203
f 118 293 11
f 11 272 1143
f 73 31 12
f 1142 73 12
f 1199 12 122
f 1161 1142 12
f 12 1199 1161
f 93 13 384
f 1003 13 93
f 1003 127 13
f 127 1092 13
f 384 13 1092
f 14 175 153
f 14 153 243
f 964 175 14
f 243 417 14
f 417 964 14
f 140 15 110
f 866 110 15
f 140 130 15
f 130 1118 15
f 503 866 15
f 1118 503 15
f 361 316 16
f 316 544 16
f 910 361 16
f 544 844 16
f 844 910 16
f 51 17 788
f 1037 17 51
f 789 788 17
f 888 789 17
f 17 1037 888
f 42 754 18
f 1196 42 18
f 754 1035 18
f 18 1035 1196
f 21 19 137
f 19 21 963
f 49 182 19
f 297 49 19
f 108 297 19
f 963 108 19
f 19 182 137
f 297 984 20
f 297 20 1167
f 20 984 1167
f 378 21 49
f 914 49 21
f 230 21 137
f 236 21 174
f 174 21 917
f 21 230 917
f 914 21 236
f 959 21 378
f 959 963 21
f 34 298 22
f 351 34 22
f 298 351 22
f 23 81 198
f 398 81 23
f 198 521 23
f 468 398 23
f 23 521 468
f 119 24 25
f 24 374 25
f 238 34 24
f 34 538 24
f 238 24 119
f 374 24 538
f 119 25 81
f 25 160 81
f 25 528 160
f 374 1061 25
f 1061 528 25
f 152 88 26
f 88 196 26
f 675 152 26
f 26 196 178
f 675 26 178
f 147 580 27
f 147 27 925
f 580 332 27
f 1161 27 332
f 1161 925 27
f 28 996 117
f 1100 28 117
f 976 996 28
f 1100 976 28
f 56 1046 29
f 1053 56 29
f 505 29 444
f 1046 444 29
f 505 925 29
f 29 925 1093
f 1053 29 1093
f 66 30 45
f 646 45 30
f 30 66 886
f 241 646 30
f 886 241 30
f 73 181 31
f 1188 31 181
f 31 1188 1189
f 255 53 32
f 53 371 32
f 255 32 129
f 32 1165 129
f 906 146 32
f 146 1055 32
f 371 792 32
f 792 906 32
f 1055 1165 32
f 33 168 61
f 33 61 463
f 474 168 33
f 33 463 1075
f 997 474 33
f 33 845 997
f 1075 845 33
f 238 991 34
f 298 34 991
f 398 34 351
f 34 398 538
f 88 213 35
f 88 35 301
f 213 179 35
f 179 324 35
f 35 765 301
f 35 324 765
f 213 60 36
f 60 268 36
f 179 213 36
f 581 179 36
f 268 581 36
f 456 352 37
f 37 352 1149
f 37 364 456
f 364 37 1116
f 37 1149 1116
f 38 58 143
f 701 58 38
f 143 1146 38
f 1146 701 38
f 1185 165 39
f 1143 976 39
f 1185 39 976
f 40 274 106
f 106 1061 40
f 186 40 158
f 1061 158 40
f 274 40 186
f 45 46 41
f 66 45 41
f 46 343 41
f 76 66 41
f 1018 76 41
f 343 1018 41
f 51 44 42
f 208 42 44
f 81 42 50
f 42 484 50
f 1024 51 42
f 81 126 42
f 42 208 83
f 42 83 754
f 89 484 42
f 42 1109 89
f 126 134 42
f 134 883 42
f 883 1024 42
f 1109 42 1196
f 259 157 43
f 293 259 43
f 382 44 51
f 44 362 208
f 382 362 44
f 45 1152 46
f 646 1152 45
f 46 300 299
f 343 46 299
f 300 46 1168
f 1152 942 46
f 46 942 1160
f 1160 1168 46
f 47 1037 573
f 573 1142 47
f 910 844 47
f 1037 47 844
f 910 47 1003
f 47 1142 1003
f 167 48 86
f 86 48 984
f 48 167 1114
f 885 984 48
f 1114 885 48
f 131 49 297
f 131 358 49
f 49 914 182
f 378 49 358
f 114 81 50
f 50 521 114
f 50 484 211
f 211 521 50
f 382 51 85
f 85 51 788
f 1037 51 573
f 51 1159 573
f 1024 1159 51
f 52 503 570
f 866 503 52
f 570 866 52
f 255 323 53
f 53 323 939
f 939 371 53
f 507 260 54
f 260 587 54
f 507 54 355
f 54 587 355
f 851 55 308
f 308 55 956
f 55 933 654
f 654 1063 55
f 55 851 933
f 1063 956 55
f 1046 56 444
f 1156 444 56
f 56 1053 1156
f 57 1053 1100
f 1156 1053 57
f 1192 57 1100
f 1156 57 1192
f 58 91 265
f 58 606 91
f 206 107 58
f 606 58 107
f 58 265 143
f 151 206 58
f 212 151 58
f 479 212 58
f 701 479 58
f 59 223 487
f 917 223 59
f 59 520 485
f 485 917 59
f 520 59 487
f 951 60 213
f 268 60 334
f 60 301 486
f 1095 301 60
f 334 60 486
f 951 385 60
f 385 1095 60
f 412 61 168
f 193 303 61
f 412 193 61
f 61 303 623
f 463 61 785
f 785 61 623
f 263 91 62
f 701 62 91
f 62 851 263
f 408 342 62
f 342 851 62
f 408 62 701
f 63 104 339
f 63 1035 104
f 314 63 498
f 63 314 1035
f 63 339 498
f 449 218 64
f 657 64 218
f 555 449 64
f 532 555 64
f 657 532 64
f 1012 65 960
f 1091 960 65
f 1012 1077 65
f 1077 1091 65
f 66 76 886
f 156 67 259
f 259 67 157
f 272 68 82
f 70 120 69
f 69 1143 70
f 121 120 70
f 260 71 202
f 711 71 260
f 72 327 138
f 72 138 787
f 250 72 787
f 72 250 1102
f 1102 327 72
f 73 290 181
f 73 266 290
f 266 73 1142
f 142 1095 74
f 74 1164 142
f 422 74 178
f 74 1095 178
f 422 786 74
f 786 1164 74
f 154 117 75
f 117 331 75
f 937 154 75
f 886 75 331
f 75 810 523
f 75 523 937
f 640 810 75
f 1178 640 75
f 886 1153 75
f 1178 75 1153
f 1153 886 76
f 1018 1178 76
f 76 1178 1153
f 119 81 77
f 1186 77 81
f 238 119 77
f 77 1186 238
f 244 137 78
f 626 78 137
f 244 78 1056
f 292 607 78
f 721 292 78
f 78 607 1056
f 659 78 626
f 78 659 721
f 149 79 167
f 149 358 79
f 79 358 167
f 433 80 148
f 148 80 587
f 587 80 219
f 714 219 80
f 80 433 1055
f 1055 714 80
f 126 81 102
f 81 160 102
f 114 198 81
f 287 81 398
f 1186 81 287
f 84 1150 82
f 1150 272 82
f 208 362 83
f 83 362 1035
f 83 1035 754
f 362 382 85
f 85 788 362
f 167 86 149
f 86 959 149
f 963 959 86
f 1129 963 86
f 1129 86 984
f 87 96 116
f 87 801 96
f 163 87 116
f 1073 87 163
f 426 801 87
f 1073 426 87
f 100 88 152
f 213 88 100
f 88 142 422
f 142 88 1095
f 88 422 196
f 88 301 1095
f 484 89 211
f 89 1109 211
f 90 209 186
f 186 468 90
f 209 90 318
f 467 318 90
f 467 90 468
f 263 191 91
f 191 375 91
f 479 91 212
f 606 212 91
f 375 265 91
f 701 91 479
f 314 92 132
f 92 339 132
f 206 339 92
f 206 92 498
f 92 314 498
f 93 133 910
f 1175 133 93
f 93 384 1175
f 910 1003 93
f 97 160 94
f 94 879 97
f 94 160 528
f 528 879 94
f 116 96 278
f 197 298 96
f 96 801 197
f 96 991 278
f 96 298 991
f 102 160 97
f 102 97 818
f 818 97 879
f 353 177 99
f 99 177 894
f 99 252 340
f 99 894 252
f 1148 99 340
f 395 353 99
f 99 700 395
f 99 1148 700
f 675 100 152
f 100 951 213
f 100 675 951
f 101 224 222
f 303 101 222
f 224 101 1067
f 101 303 321
f 101 321 360
f 101 360 1067
f 126 102 818
f 164 227 103
f 103 220 202
f 694 220 103
f 694 103 227
f 789 339 104
f 104 362 789
f 104 1035 362
f 105 842 390
f 1101 105 390
f 105 649 842
f 105 1017 649
f 863 1017 105
f 1101 863 105
f 274 854 106
f 1061 106 854
f 107 206 194
f 194 606 107
f 108 984 297
f 963 1129 108
f 108 1129 984
f 844 189 109
f 189 1037 109
f 1037 844 109
f 123 110 216
f 110 123 358
f 131 110 358
f 110 131 1167
f 140 110 1167
f 110 866 216
f 654 630 111
f 630 677 111
f 111 1063 654
f 892 111 677
f 892 1063 111
f 113 254 258
f 254 113 402
f 335 113 258
f 540 113 335
f 402 113 540
f 521 198 114
f 278 163 116
f 154 1100 117
f 331 117 996
f 203 282 118
f 282 259 118
f 293 118 259
f 270 120 121
f 269 270 121
f 123 216 358
f 1019 171 124
f 171 1107 124
f 221 570 124
f 124 1107 221
f 570 1019 124
f 617 150 125
f 150 1073 125
f 617 125 163
f 163 125 1073
f 126 266 134
f 818 266 126
f 332 580 127
f 127 962 332
f 400 404 127
f 400 127 580
f 404 1092 127
f 1003 962 127
f 129 148 323
f 433 148 129
f 129 323 255
f 1165 433 129
f 140 1167 130
f 171 175 130
f 1107 171 130
f 175 1118 130
f 1167 1107 130
f 1167 131 297
f 314 132 1035
f 132 339 789
f 668 132 888
f 668 1035 132
f 132 789 888
f 133 316 361
f 133 806 316
f 910 133 361
f 1037 806 133
f 133 1175 1037
f 266 883 134
f 136 172 170
f 550 136 170
f 136 587 172
f 338 247 136
f 247 355 136
f 136 550 338
f 136 355 587
f 137 182 626
f 137 244 230
f 299 787 138
f 935 299 138
f 327 810 138
f 810 935 138
f 199 139 141
f 536 141 139
f 139 199 964
f 139 417 243
f 243 536 139
f 417 139 964
f 189 316 141
f 806 189 141
f 141 243 199
f 316 243 141
f 141 536 806
f 1164 422 142
f 647 143 185
f 185 143 685
f 375 143 265
f 1030 143 375
f 647 903 143
f 143 1030 685
f 903 1146 143
f 144 962 1141
f 962 144 1161
f 1141 1142 144
f 144 1142 1161
f 906 714 146
f 714 1055 146
f 147 505 154
f 147 154 878
f 147 313 580
f 313 147 878
f 925 505 147
f 148 260 202
f 148 202 323
f 587 260 148
f 149 378 358
f 149 959 378
f 278 197 150
f 197 801 150
f 617 278 150
f 801 426 150
f 1073 150 426
f 206 151 585
f 212 559 151
f 151 559 585
f 175 296 153
f 153 345 243
f 296 285 153
f 285 345 153
f 154 505 444
f 154 444 1100
f 878 154 937
f 259 534 156
f 158 468 186
f 158 398 468
f 158 538 398
f 1061 538 158
f 282 159 259
f 534 259 159
f 700 159 282
f 1006 534 159
f 700 1148 159
f 1148 1006 159
f 161 298 197
f 991 161 197
f 161 351 298
f 161 991 351
f 278 785 163
f 785 617 163
f 901 227 164
f 507 395 164
f 395 1155 164
f 164 711 507
f 1155 901 164
f 165 1185 1053
f 166 511 657
f 719 511 166
f 657 829 166
f 166 734 719
f 734 166 735
f 166 829 735
f 358 216 167
f 1114 167 216
f 579 412 168
f 639 168 474
f 168 639 579
f 169 284 184
f 184 817 169
f 284 169 210
f 210 169 521
f 169 467 521
f 169 817 467
f 170 172 561
f 550 170 1076
f 170 561 1076
f 171 296 175
f 296 171 1019
f 561 172 587
f 941 236 174
f 889 174 485
f 917 485 174
f 941 174 889
f 175 228 697
f 964 228 175
f 697 1118 175
f 901 177 353
f 177 395 894
f 901 395 177
f 178 196 422
f 385 675 178
f 1095 385 178
f 324 179 391
f 391 179 352
f 352 179 1149
f 581 1116 179
f 1116 1149 179
f 180 243 316
f 536 243 180
f 806 180 316
f 806 536 180
f 356 272 181
f 272 1188 181
f 181 290 356
f 182 494 563
f 1064 494 182
f 563 659 182
f 659 626 182
f 914 1064 182
f 338 502 183
f 183 986 338
f 502 564 183
f 1049 183 564
f 183 1049 986
f 210 184 786
f 184 210 1177
f 284 518 184
f 518 1164 184
f 786 184 1164
f 184 1177 817
f 647 185 777
f 685 777 185
f 186 209 513
f 500 274 186
f 186 513 500
f 316 189 544
f 844 544 189
f 189 806 1037
f 811 190 497
f 190 1078 497
f 190 758 653
f 190 653 1078
f 837 758 190
f 190 811 837
f 276 191 263
f 1122 191 276
f 530 375 191
f 526 530 191
f 526 191 966
f 1122 966 191
f 242 397 193
f 412 242 193
f 303 193 397
f 559 194 206
f 194 559 212
f 194 212 606
f 195 264 408
f 264 195 483
f 195 408 1146
f 483 195 1124
f 903 1124 195
f 903 195 1146
f 991 197 278
f 243 345 199
f 285 199 345
f 199 285 460
f 199 460 964
f 202 220 254
f 202 254 323
f 203 277 282
f 273 767 205
f 919 273 205
f 328 583 205
f 328 205 1087
f 583 919 205
f 205 767 1087
f 206 585 339
f 206 498 1104
f 559 206 1104
f 209 318 1166
f 209 472 431
f 209 431 513
f 472 209 1166
f 211 210 521
f 1109 210 211
f 284 210 786
f 1177 210 424
f 210 1196 424
f 210 1109 1196
f 866 221 216
f 221 1114 216
f 691 218 449
f 829 657 218
f 218 716 829
f 219 714 232
f 219 232 820
f 219 561 587
f 219 820 561
f 465 254 220
f 465 220 309
f 220 1085 309
f 694 1085 220
f 570 221 866
f 1114 221 1107
f 224 785 222
f 222 278 623
f 785 278 222
f 623 303 222
f 223 230 344
f 230 223 917
f 223 344 875
f 680 487 223
f 875 680 223
f 401 463 224
f 1067 401 224
f 785 224 463
f 507 476 227
f 694 227 476
f 227 901 507
f 228 460 697
f 964 460 228
f 244 344 230
f 714 612 232
f 820 232 612
f 233 392 241
f 1143 233 241
f 392 233 942
f 233 1143 942
f 777 234 415
f 1062 415 234
f 720 667 234
f 667 1062 234
f 720 234 777
f 1133 914 236
f 941 926 236
f 1133 236 926
f 287 1082 238
f 238 1186 287
f 238 1082 991
f 392 646 241
f 1143 241 886
f 261 262 242
f 533 261 242
f 397 242 262
f 412 533 242
f 244 875 344
f 1056 875 244
f 273 245 767
f 919 245 273
f 391 509 245
f 245 658 391
f 767 245 509
f 919 658 245
f 247 338 461
f 247 1173 355
f 1173 247 461
f 356 290 249
f 290 818 249
f 249 818 300
f 1168 249 300
f 356 249 1160
f 1168 1160 249
f 274 250 854
f 1102 250 274
f 250 787 879
f 250 879 854
f 252 330 340
f 330 252 700
f 700 252 395
f 894 395 252
f 253 681 699
f 681 253 795
f 253 699 1028
f 253 707 795
f 1028 707 253
f 254 465 258
f 323 254 482
f 254 402 482
f 335 258 1138
f 1079 258 465
f 258 1079 1138
f 260 507 711
f 776 262 261
f 533 776 261
f 578 397 262
f 578 262 571
f 776 571 262
f 263 308 276
f 308 263 851
f 408 264 851
f 435 264 483
f 264 435 933
f 933 851 264
f 290 266 818
f 1022 883 266
f 1142 1022 266
f 608 890 267
f 267 920 608
f 618 267 822
f 920 267 618
f 267 890 816
f 267 816 1123
f 822 267 1123
f 268 334 271
f 271 373 268
f 581 268 373
f 271 334 923
f 631 373 271
f 631 271 688
f 271 648 868
f 271 923 648
f 688 271 868
f 356 1160 272
f 272 1160 1143
f 1150 1189 272
f 1189 1188 272
f 274 500 365
f 365 1102 274
f 1122 276 308
f 330 282 277
f 277 407 330
f 1083 407 277
f 1125 1083 277
f 623 278 617
f 330 700 282
f 325 757 283
f 283 1005 325
f 283 540 335
f 1005 283 335
f 757 540 283
f 786 422 284
f 284 422 1164
f 284 1164 518
f 285 296 460
f 398 1082 287
f 958 607 292
f 721 958 292
f 460 296 1019
f 300 879 299
f 935 343 299
f 787 299 879
f 879 300 818
f 486 301 589
f 589 301 765
f 321 303 397
f 308 956 304
f 1122 308 304
f 429 304 870
f 429 1122 304
f 873 304 644
f 956 644 304
f 873 870 304
f 456 306 352
f 509 352 306
f 306 456 434
f 434 808 306
f 808 509 306
f 394 465 309
f 394 309 562
f 309 1085 562
f 547 741 310
f 926 547 310
f 310 741 948
f 926 310 1133
f 948 1064 310
f 310 1064 1133
f 396 580 313
f 396 313 627
f 313 419 431
f 313 878 419
f 313 431 627
f 315 434 456
f 979 434 315
f 987 315 456
f 1047 979 315
f 315 987 1051
f 315 989 1047
f 1051 989 315
f 473 333 317
f 493 317 333
f 317 1006 337
f 317 337 1083
f 317 1083 473
f 493 1006 317
f 318 467 424
f 318 424 1196
f 783 1166 318
f 1196 783 318
f 439 770 319
f 439 319 923
f 874 637 319
f 319 637 923
f 770 874 319
f 360 321 969
f 969 321 397
f 939 323 482
f 658 324 391
f 765 324 658
f 514 757 325
f 514 325 1052
f 325 1005 525
f 525 1052 325
f 1102 810 327
f 328 619 583
f 619 328 916
f 1087 916 328
f 340 330 405
f 330 407 405
f 886 331 996
f 332 962 1161
f 473 1199 333
f 1199 493 333
f 486 923 334
f 1005 335 1138
f 405 1083 337
f 1148 405 337
f 337 1006 1148
f 986 461 338
f 550 502 338
f 1104 498 339
f 585 1104 339
f 340 405 1148
f 408 851 342
f 935 640 343
f 640 1018 343
f 1125 348 347
f 348 1125 349
f 991 398 351
f 352 509 391
f 395 507 353
f 507 901 353
f 507 355 1173
f 584 359 360
f 360 359 1067
f 749 359 584
f 1096 359 749
f 1067 359 766
f 1096 766 359
f 969 584 360
f 788 789 362
f 987 456 364
f 603 364 860
f 987 364 603
f 364 1116 860
f 365 500 419
f 419 687 365
f 687 1102 365
f 715 819 369
f 968 715 369
f 725 369 920
f 725 968 369
f 819 920 369
f 371 913 792
f 913 371 939
f 373 631 581
f 538 1061 374
f 1030 375 530
f 474 377 639
f 1004 377 474
f 931 639 377
f 1013 931 377
f 1004 1013 377
f 558 636 381
f 775 558 381
f 381 636 936
f 728 796 381
f 936 728 381
f 381 796 775
f 404 1072 384
f 384 1092 404
f 1037 384 888
f 1166 888 384
f 1175 384 1037
f 384 1072 1166
f 951 675 385
f 390 1052 488
f 1101 390 488
f 390 842 1052
f 646 392 942
f 465 394 683
f 562 745 394
f 745 683 394
f 395 901 1155
f 400 580 396
f 627 400 396
f 969 397 578
f 1082 398 991
f 404 400 1072
f 400 627 1072
f 401 653 463
f 401 1078 653
f 1067 766 401
f 401 766 1078
f 402 939 482
f 402 540 974
f 402 792 913
f 402 974 792
f 939 402 913
f 407 1083 405
f 1146 408 701
f 412 582 533
f 579 582 412
f 638 838 415
f 638 415 1062
f 415 823 777
f 823 415 838
f 419 513 431
f 500 513 419
f 419 609 687
f 419 878 609
f 1177 424 467
f 603 428 904
f 603 1112 428
f 737 428 631
f 1112 631 428
f 1011 428 737
f 428 943 904
f 428 1011 943
f 429 870 632
f 429 632 966
f 429 966 1122
f 627 431 472
f 433 1165 1055
f 434 979 808
f 435 483 1124
f 435 908 933
f 908 435 1144
f 435 1124 1144
f 439 589 750
f 439 923 589
f 750 770 439
f 441 823 838
f 903 823 441
f 1016 441 838
f 1124 903 441
f 441 1016 1144
f 1144 1124 441
f 444 1192 1100
f 1156 1192 444
f 447 502 550
f 502 447 794
f 447 550 922
f 634 794 447
f 634 447 922
f 555 926 449
f 941 691 449
f 926 941 449
f 717 637 453
f 637 874 453
f 453 742 641
f 641 970 453
f 453 1011 717
f 874 742 453
f 970 1011 453
f 460 1019 697
f 986 562 461
f 1173 461 562
f 702 462 946
f 1032 462 702
f 779 902 462
f 779 462 1032
f 946 462 825
f 462 997 825
f 902 997 462
f 463 653 1075
f 867 464 670
f 464 973 670
f 867 993 464
f 1120 973 464
f 1033 464 993
f 464 1033 1120
f 683 1079 465
f 468 521 467
f 817 1177 467
f 1072 627 472
f 472 1166 1072
f 1125 1053 473
f 1053 1199 473
f 1125 473 1083
f 997 902 474
f 902 1004 474
f 507 694 476
f 485 520 900
f 900 889 485
f 589 923 486
f 520 487 605
f 487 784 605
f 680 784 487
f 488 525 674
f 525 488 1052
f 674 1008 488
f 488 1008 1101
f 571 489 584
f 489 571 1117
f 489 749 584
f 749 489 1117
f 534 1006 493
f 494 948 563
f 948 494 1064
f 599 811 497
f 1096 599 497
f 766 497 1078
f 766 1096 497
f 564 502 727
f 794 727 502
f 570 503 697
f 697 503 1118
f 694 507 1173
f 767 509 930
f 930 509 808
f 589 560 510
f 510 560 619
f 510 750 589
f 619 905 510
f 510 905 750
f 1140 657 511
f 511 719 1025
f 1025 929 511
f 929 1140 511
f 644 512 843
f 644 956 512
f 843 512 892
f 1063 892 512
f 956 1063 512
f 593 757 514
f 593 514 924
f 1052 924 514
f 761 813 519
f 761 519 974
f 780 792 519
f 813 780 519
f 519 792 974
f 605 836 520
f 900 520 836
f 523 687 609
f 609 937 523
f 687 523 810
f 1005 674 525
f 526 689 530
f 526 809 689
f 756 809 526
f 756 526 966
f 528 854 879
f 528 1061 854
f 689 1039 530
f 1030 530 774
f 530 1039 774
f 555 532 655
f 532 1140 655
f 1140 532 657
f 1048 533 582
f 776 533 1048
f 811 599 535
f 936 535 599
f 535 636 909
f 636 535 936
f 535 909 811
f 540 757 974
f 555 655 547
f 926 555 547
f 741 547 655
f 922 550 1076
f 798 614 554
f 614 828 554
f 554 1128 798
f 554 828 875
f 1056 554 875
f 1128 554 1056
f 612 864 557
f 557 954 612
f 557 864 780
f 557 780 1086
f 1071 954 557
f 1086 1071 557
f 636 558 702
f 558 1032 702
f 558 775 961
f 961 1131 558
f 1131 1032 558
f 559 1104 585
f 583 619 560
f 919 583 560
f 765 560 589
f 658 560 765
f 560 658 919
f 561 820 1076
f 747 745 562
f 562 986 747
f 1173 562 1085
f 563 696 659
f 807 696 563
f 563 948 807
f 649 564 727
f 649 1017 564
f 564 1017 1049
f 565 704 849
f 1036 704 565
f 565 849 1002
f 565 1002 916
f 1087 565 916
f 1036 565 1087
f 794 634 566
f 634 940 566
f 566 1010 794
f 815 1057 566
f 566 1090 815
f 1060 566 940
f 566 1057 1010
f 1090 566 1060
f 590 674 567
f 1079 590 567
f 567 674 1005
f 1138 567 1005
f 567 1138 1079
f 697 1019 570
f 584 578 571
f 1044 571 776
f 1044 1117 571
f 573 1024 1022
f 573 1022 1142
f 573 1159 1024
f 575 728 718
f 749 575 718
f 796 728 575
f 1117 575 749
f 575 1117 796
f 969 578 584
f 1043 582 579
f 639 1043 579
f 631 860 581
f 860 1116 581
f 582 1043 1048
f 1008 674 590
f 1045 1008 590
f 1079 1045 590
f 593 761 757
f 761 593 985
f 593 924 985
f 682 718 599
f 599 1096 682
f 936 599 718
f 860 1112 603
f 603 904 987
f 605 784 1074
f 836 605 1091
f 605 1074 1091
f 607 958 1056
f 771 632 608
f 890 608 632
f 771 608 920
f 878 937 609
f 864 612 714
f 763 612 954
f 1042 612 763
f 1042 820 612
f 852 614 798
f 947 828 614
f 614 852 982
f 982 947 614
f 785 623 617
f 872 814 618
f 814 920 618
f 872 618 822
f 619 916 905
f 620 676 948
f 1025 676 620
f 741 848 620
f 741 620 948
f 848 929 620
f 620 929 1025
f 630 654 908
f 677 630 710
f 710 630 793
f 793 630 908
f 688 737 631
f 631 1112 860
f 831 756 632
f 632 756 966
f 771 831 632
f 890 632 870
f 634 922 940
f 909 636 702
f 637 717 648
f 648 923 637
f 1028 838 638
f 1028 638 967
f 967 638 1062
f 1043 639 931
f 640 935 810
f 640 1171 1018
f 640 1178 1171
f 641 742 782
f 834 641 782
f 990 641 834
f 990 970 641
f 843 873 644
f 1152 646 942
f 777 823 647
f 647 823 903
f 648 717 868
f 727 842 649
f 758 1075 653
f 908 654 933
f 848 741 655
f 655 1140 848
f 696 973 659
f 721 659 973
f 720 977 667
f 744 667 928
f 1062 667 744
f 928 667 1009
f 1009 667 977
f 668 1166 783
f 668 783 1196
f 668 888 1166
f 1035 668 1196
f 807 676 670
f 670 676 1025
f 696 807 670
f 670 973 696
f 867 670 1025
f 948 676 807
f 899 677 710
f 816 843 677
f 899 816 677
f 677 843 892
f 680 828 784
f 875 828 680
f 793 684 681
f 833 681 684
f 681 833 699
f 681 795 793
f 682 749 718
f 1096 749 682
f 745 1045 683
f 683 1045 1079
f 908 684 793
f 1144 833 684
f 684 908 1144
f 685 774 720
f 685 720 777
f 685 1030 774
f 1102 687 810
f 737 688 868
f 968 725 689
f 689 725 1009
f 809 968 689
f 1009 1039 689
f 941 981 691
f 1173 1085 694
f 699 833 1016
f 839 699 1016
f 699 839 1028
f 1021 909 702
f 946 1021 702
f 769 849 704
f 769 704 907
f 907 704 1036
f 947 705 784
f 705 1074 784
f 705 797 869
f 705 1000 797
f 869 1074 705
f 947 1000 705
f 822 795 707
f 707 872 822
f 707 1028 872
f 710 793 795
f 710 795 899
f 906 864 714
f 756 715 809
f 756 831 715
f 771 819 715
f 771 715 831
f 809 715 968
f 829 716 1012
f 737 868 717
f 1011 737 717
f 728 936 718
f 734 855 719
f 719 855 993
f 867 719 993
f 719 867 1025
f 720 774 977
f 721 973 958
f 725 920 915
f 725 915 1009
f 727 794 1010
f 1010 842 727
f 905 916 730
f 730 1027 905
f 730 916 1002
f 730 1002 1001
f 1001 1027 730
f 957 932 732
f 978 732 932
f 943 732 978
f 990 732 943
f 957 732 990
f 734 735 1137
f 734 1137 855
f 735 829 960
f 960 1000 735
f 1000 1137 735
f 782 742 1001
f 742 874 896
f 1001 742 896
f 747 743 972
f 1020 743 747
f 972 743 863
f 1014 863 743
f 1020 1014 743
f 744 928 814
f 1062 744 814
f 1045 745 747
f 747 972 1045
f 1020 747 986
f 770 750 773
f 773 750 905
f 761 974 757
f 758 837 1115
f 758 845 1075
f 845 758 1115
f 813 761 985
f 763 954 1060
f 763 1060 1042
f 930 1036 767
f 767 1036 1087
f 881 849 769
f 881 769 989
f 907 1047 769
f 769 1047 989
f 896 770 773
f 770 896 874
f 920 819 771
f 1001 896 773
f 905 1027 773
f 773 1027 1001
f 977 774 1039
f 796 1117 775
f 775 1126 961
f 1126 775 1117
f 931 999 776
f 1048 931 776
f 999 1044 776
f 1004 779 871
f 871 779 1032
f 779 1004 902
f 864 792 780
f 813 1086 780
f 782 1002 834
f 1002 782 1001
f 828 947 784
f 864 906 792
f 822 1123 795
f 899 795 1123
f 797 1091 869
f 1000 960 797
f 960 1091 797
f 798 1120 852
f 1120 798 958
f 798 1128 958
f 930 808 840
f 808 979 840
f 837 811 953
f 811 909 953
f 813 985 1086
f 872 967 814
f 814 915 920
f 915 814 928
f 967 1062 814
f 815 1136 1057
f 815 1090 1070
f 815 1070 1136
f 873 843 816
f 816 890 873
f 1123 816 899
f 1042 1076 820
f 825 997 845
f 825 845 1115
f 825 1115 946
f 1012 960 829
f 1144 1016 833
f 834 849 957
f 1002 849 834
f 957 990 834
f 1026 900 836
f 1026 836 1077
f 836 1091 1077
f 1115 837 953
f 839 1016 838
f 1028 839 838
f 979 907 840
f 840 907 1036
f 1036 930 840
f 1052 842 924
f 842 1057 924
f 842 1010 1057
f 848 1140 929
f 881 957 849
f 1120 855 852
f 1137 852 855
f 982 852 1137
f 993 855 1033
f 1033 855 1120
f 863 1101 972
f 1014 1017 863
f 869 1091 1074
f 870 873 890
f 1004 871 1013
f 1131 1013 871
f 1131 871 1032
f 872 1028 967
f 932 957 881
f 932 881 1051
f 881 989 1051
f 1022 1024 883
f 984 885 1167
f 1167 885 1114
f 996 1143 886
f 889 900 1026
f 889 981 941
f 1026 981 889
f 904 978 932
f 1051 904 932
f 904 943 978
f 904 1051 987
f 1047 907 979
f 953 909 1021
f 1064 914 1133
f 915 928 1009
f 922 1042 940
f 1076 1042 922
f 924 1038 985
f 924 1136 1038
f 1057 1136 924
f 1161 1093 925
f 994 999 931
f 931 1131 994
f 1131 931 1013
f 931 1048 1043
f 1060 940 1042
f 942 1143 1160
f 970 990 943
f 970 943 1011
f 953 1021 946
f 1115 953 946
f 1000 947 982
f 1070 954 1050
f 1050 954 1071
f 954 1070 1060
f 973 1120 958
f 958 1128 1056
f 1126 994 961
f 1131 961 994
f 962 1003 1141
f 972 1008 1045
f 1008 972 1101
f 996 976 1143
f 1100 1053 976
f 1185 976 1053
f 1039 1009 977
f 1000 982 1137
f 1038 1050 985
f 1050 1071 985
f 1071 1086 985
f 1049 1020 986
f 994 1126 999
f 999 1126 1044
f 1141 1003 1142
f 1026 1077 1012
f 1017 1014 1049
f 1020 1049 1014
f 1171 1178 1018
f 1038 1136 1050
f 1117 1044 1126
f 1136 1070 1050
f 1053 1093 1199
f 1070 1090 1060
f 1199 1093 1161
f 1114 1107 1167
