# sdm_hand_1200_mixw1.obj  (1200 v, 1656 f)  units: metres
v -0.059176758 -0.005846387 0.021900922
v -0.069094315 0.004087776 0.014222741
v -0.068354376 0.004346595 0.013601856
v -0.068571724 0.005567660 0.015462436
v -0.063345835 0.020366503 0.027859384
v -0.062823243 0.021846386 0.029099079
v -0.045000002 0.000000000 0.000000000
v -0.037999999 -0.001116713 0.020000000
v -0.045000002 0.022000000 0.000000000
v -0.035072074 0.008563086 0.148964655
v -0.022620943 0.007801880 0.147553118
v -0.024656327 0.008302421 0.169733296
v -0.002500000 0.021000000 0.094999999
v -0.024734951 0.019875000 0.138434878
v -0.025789062 0.020250000 0.147499993
v -0.015979062 0.020625000 0.146021258
v -0.040106268 0.018232431 0.183940968
v 0.023405403 0.006680810 0.129428765
v 0.018500000 0.021000000 0.094999999
v 0.024281318 0.016462486 0.094999999
v 0.045000002 0.022000000 0.094999999
v 0.032011080 0.002595491 0.166909042
v -0.037999999 -0.001116713 0.041233219
v 0.002499999 0.002000000 0.000000000
v 0.035029518 0.019638548 0.144169175
v 0.001500000 0.019500000 0.196750004
v 0.011593751 0.002500000 0.200000003
v -0.000500000 0.019500000 0.197000004
v -0.002500000 0.021000000 0.182999998
v -0.016766143 0.018662607 0.157242050
v -0.016337891 0.020531250 0.150515629
v -0.042071476 -0.002026048 0.007589698
v 0.025000000 0.000000000 0.000000000
v 0.000000000 0.022000000 0.094999999
v -0.065958780 0.012967082 0.021660910
v -0.010500000 0.021000000 0.094999999
v -0.012250000 0.020250000 0.179499999
v -0.037999999 -0.003000000 0.030616610
v 0.013750000 0.002000000 0.000000000
v -0.034226563 0.020250000 0.178499997
v 0.011000000 0.021000000 0.101499997
v 0.011000000 0.021000000 0.094999999
v 0.006672345 0.019827860 0.150403888
v -0.022500001 0.022000000 0.094999999
v 0.039000001 0.006642209 0.140178086
v -0.001524065 0.007935950 0.101000004
v -0.037999999 -0.003000000 0.025308305
v -0.012250000 0.019875000 0.186499998
v -0.006500000 0.021000000 0.186499998
v 0.003000000 0.002500000 0.188000001
v -0.037917970 0.020250000 0.140624996
v -0.037859377 0.019875000 0.171624999
v 0.017089779 0.019759693 0.100134977
v -0.036580733 0.016726563 0.111448057
v 0.008818289 0.019500000 0.187513128
v -0.041401174 0.006143446 0.184114813
v 0.038454645 0.005724252 0.154960887
v 0.017674975 0.006102214 0.151887411
v 0.002207918 0.006718750 0.165512074
v -0.121336857 -0.008761555 0.086270250
v -0.114800861 -0.013298552 0.071688908
v -0.031053750 -0.004635056 0.195711841
v -0.004000000 0.000000000 0.000000000
v -0.064652307 0.016666792 0.024760147
v -0.053541651 0.022052603 0.014239096
v -0.057012890 0.012919544 0.006996444
v -0.054979681 0.001857366 0.005812280
v 0.023044502 -0.000750000 0.019268105
v 0.000281250 0.000000000 0.011249153
v 0.029919765 0.022000000 0.007238298
v 0.031000000 0.021000000 0.094999999
v -0.040481091 0.003641026 0.196919923
v -0.135779778 -0.009702025 0.086840933
v 0.001742188 0.013141734 0.171974242
v -0.091371435 0.004223235 0.043172344
v 0.022500001 0.022000000 0.094999999
v -0.057812476 0.022078904 0.021358644
v -0.006500000 0.021000000 0.094999999
v -0.014500000 0.021000000 0.094999999
v -0.006349063 0.021000000 0.182151868
v 0.034855958 0.005031250 0.132000001
v 0.007250000 0.021000000 0.094999999
v 0.005179310 0.018960938 0.179765567
v -0.039500002 0.018500002 0.144624999
v 0.045000002 0.022000000 0.083124999
v 0.033972705 0.022000000 0.077187499
v 0.027644175 0.005235512 0.140749999
v -0.027250000 0.019500000 0.122142764
v 0.035288628 0.018532573 0.178611802
v 0.024491381 0.022000000 0.083681682
v -0.119276722 -0.009882156 0.063518396
v -0.003398427 0.019792451 0.101535585
v -0.116209304 -0.007803282 0.069868779
v -0.109686429 -0.019263723 0.086453009
v 0.007317909 0.020062500 0.175102340
v -0.111074749 -0.012456342 0.076782585
v -0.133247846 -0.017780567 0.071405016
v -0.036101066 0.002983143 0.034438719
v 0.030068016 0.020300926 0.159913406
v -0.002099930 0.006891402 0.118017255
v -0.034369915 0.015808644 0.178000003
v 0.014750000 0.021000000 0.094999999
v -0.030608925 0.009472200 0.186412214
v 0.006227421 0.004958872 0.113755825
v -0.038775619 0.018068481 0.133044191
v -0.006331600 0.010595532 0.094999999
v -0.070827364 0.015771362 0.038990259
v -0.028625381 0.021000000 0.142753269
v -0.067265252 0.009267370 0.018561673
v 0.034000000 0.021000000 0.094999999
v 0.036322615 0.011991326 0.126226875
v 0.026125000 0.016000001 0.161624998
v -0.062683633 0.008633069 0.010299150
v -0.061667028 0.003101981 0.009707068
v -0.036868752 0.021000000 0.174343747
v 0.006247140 0.008906875 0.186536142
v -0.032461389 0.021000000 0.143999994
v 0.011413767 0.022000000 0.080249537
v -0.034226529 0.021000000 0.145636457
v -0.011363746 0.021000000 0.149000004
v -0.059295379 0.014706436 0.021134095
v 0.025747352 0.018529255 0.140273451
v -0.086844192 -0.005468416 0.056390196
v -0.004625000 0.002500000 0.188999996
v -0.040053504 0.004366179 0.167035946
v -0.014916452 0.014815925 0.100570240
v -0.001918315 0.022000000 0.081724462
v -0.116133768 -0.009588668 0.085064271
v -0.015594779 0.005490185 0.114316305
v -0.020111283 0.005964714 0.155228570
v 0.032743055 0.020250000 0.132775291
v -0.061329138 0.011654231 0.040636119
v -0.012166562 0.021000000 0.152010000
v 0.032145834 0.004643509 0.111856785
v -0.133700183 -0.011364320 0.077679028
v -0.026110802 0.019250000 0.172123970
v -0.033108666 0.019828125 0.148909792
v 0.028872063 0.021000000 0.100004598
v -0.008775299 0.016000001 0.183661195
v -0.033039062 0.002500000 0.180999994
v -0.006712661 0.014479857 0.186000004
v 0.026531250 0.005326028 0.155722111
v -0.012726744 0.018435515 0.150480596
v -0.063999071 0.018516648 0.026309765
v -0.065305543 0.014816937 0.023210529
v -0.035941624 0.004146837 0.125729669
v 0.045000002 0.022000000 0.089062499
v -0.020500001 0.005857262 0.195462245
v 0.004052859 -0.005195283 0.195723715
v -0.125155801 -0.021813649 0.087743475
v -0.111045616 -0.025444959 0.080211220
v -0.050624117 -0.003936217 0.014745310
v -0.024430774 0.019500000 0.165134101
v 0.025368702 0.000084961 0.167999998
v -0.029711180 0.021000000 0.146493442
v -0.040330672 0.016750143 0.147000000
v 0.015512025 0.002639746 0.189354320
v -0.024109376 0.003058254 0.180767265
v -0.040265625 0.016785157 0.140868265
v -0.039213635 0.019124009 0.151684667
v 0.018380338 0.018140625 0.179661154
v -0.113867424 -0.024057454 0.073148240
v -0.027781250 0.019500000 0.178826387
v 0.020500001 0.003274439 0.192377793
v 0.018503891 0.006979036 0.200335632
v -0.017179130 0.017250001 0.148568078
v -0.036301466 0.018497821 0.145677742
v -0.022500001 0.018022870 0.179927492
v -0.117131256 -0.014723125 0.082280237
v -0.017353430 0.021000000 0.185019990
v -0.076831002 0.007732045 0.051852983
v 0.032630244 -0.001500000 0.084705183
v -0.024594187 0.007880291 0.156146454
v -0.020500001 0.018187500 0.151999995
v 0.033187501 0.002500000 0.181687495
v 0.005831273 0.003365621 0.154138714
v -0.033347640 0.021000000 0.141431762
v -0.057944725 0.011008542 0.014860290
v -0.124941505 -0.023086860 0.079844489
v 0.004712217 0.017186392 0.084222864
v -0.006840815 0.021000000 0.148227947
v -0.035989307 -0.005500000 0.193225267
v 0.019429688 0.003324984 0.181925056
v 0.041042072 0.015102130 0.049676344
v -0.072719217 0.002902453 0.019687723
v -0.137679720 -0.020439165 0.076446957
v 0.019396133 0.011416583 0.181894864
v -0.016594892 -0.003202386 0.188999996
v 0.013283293 0.019500000 0.198563619
v -0.023780917 0.018692818 0.150141752
v -0.019998307 0.007275035 0.206702658
v 0.016625000 0.021000000 0.094999999
v -0.025652555 0.006386004 0.133021211
v 0.016932486 0.016458210 0.096999059
v -0.124294642 -0.018932064 0.084872929
v -0.022117454 0.009529599 0.094999999
v -0.024000000 0.000500000 0.195999995
v -0.123344372 -0.016222269 0.067821041
v -0.067918488 0.007417515 0.017012054
v 0.011218536 0.015189437 0.185569198
v -0.016750000 0.016437501 0.151999995
v -0.008500000 0.021000000 0.094999999
v 0.012398567 0.011697999 0.192277439
v -0.011476763 0.014403223 0.145999998
v -0.001138323 0.005832194 0.206133885
v 0.014816406 0.020250000 0.181996302
v -0.017156841 0.004873295 0.078483448
v 0.020500001 0.013133493 0.190106507
v -0.119401834 -0.015118879 0.072894318
v -0.116172802 -0.020443488 0.083087370
v -0.016249645 0.002092859 0.194679773
v -0.127858403 -0.013756330 0.092981865
v -0.022687501 0.003742247 0.194609026
v -0.024000000 0.002500000 0.184281244
v -0.007066825 0.018266167 0.147409167
v -0.047249820 0.011253816 0.048031655
v -0.018382004 0.013884519 0.188025118
v -0.061806292 0.011368210 0.018555402
v 0.004903380 0.012901538 0.149235397
v 0.008038250 0.015077809 0.099541019
v -0.056475156 0.003436174 0.017187513
v -0.022500001 0.012853881 0.186115387
v -0.023687501 0.013938743 0.194671625
v -0.020312500 0.014375000 -0.024899999
v -0.015660997 -0.000088936 0.193254140
v 0.006894417 0.005491650 0.174999997
v -0.038337502 0.017250000 0.174709315
v -0.115906807 -0.018097097 0.086266213
v 0.010033540 0.019500000 0.103573188
v -0.007806439 -0.002796826 0.202830416
v 0.001682098 0.013245851 0.183655720
v 0.035631150 -0.000974644 0.065612350
v -0.018999999 -0.002223547 0.191819486
v -0.027408423 0.003596465 0.183812030
v -0.012110805 0.009188358 0.193142954
v 0.035425646 0.019940227 0.100154348
v -0.013919728 0.002000000 -0.014763100
v 0.023000000 0.004902054 0.175220678
v -0.039061460 0.021000000 0.177078122
v -0.030571747 0.004210670 0.197999999
v 0.018999999 -0.000106639 0.190511531
v -0.009839943 0.000682568 0.193385623
v -0.115756093 -0.003721697 0.077700109
v 0.015132514 0.022000000 0.039630434
v -0.035862151 0.018511567 0.142683566
v -0.015918988 -0.005500000 0.204583394
v -0.116742607 -0.023267978 0.072207852
v -0.002899012 0.019277855 0.186370753
v -0.004094636 0.007766648 0.192081704
v -0.013410395 0.018667145 0.147706512
v -0.005000000 0.021000000 0.179499999
v -0.003876081 0.019500000 0.179012112
v -0.008979915 0.004941834 0.190592110
v -0.061100744 0.016535980 0.021532382
v -0.016625000 0.020625000 0.180662249
v -0.040269530 0.002500000 0.181756832
v 0.024499999 0.002500000 0.179374994
v 0.023750000 0.002500000 0.180187494
v -0.113920268 -0.022726175 0.073640213
v 0.030544941 0.004254635 0.170384897
v 0.027775931 0.016646779 0.100687644
v 0.006150912 0.019000509 0.117707664
v -0.028021684 -0.005500000 0.183424935
v -0.009998985 0.005318831 0.208000004
v -0.028570171 -0.004417745 0.195687822
v 0.010476453 0.022000000 0.072835926
v 0.001500000 0.008575609 0.192562401
v -0.065010702 0.003724288 0.011654462
v -0.065519004 0.006489832 0.011950503
v -0.018999999 0.000500000 0.206000000
v 0.001500000 0.003023203 0.193676471
v -0.043648090 0.022030577 0.018870024
v -0.026343750 0.015580297 0.140563731
v -0.121211786 -0.002952665 0.072691952
v 0.012091959 0.014550875 0.174999997
v -0.027445077 -0.003184999 0.180999994
v -0.007607342 0.016835600 0.092723287
v -0.103488389 -0.003847977 0.049550887
v -0.003445208 0.010319765 0.087722157
v -0.009840313 0.019500000 0.192724278
v -0.003521670 0.001680234 0.195994587
v -0.120956199 -0.031061637 0.085745314
v -0.070434934 0.010224190 0.023893758
v 0.020156264 0.002906910 0.201000005
v -0.116043420 -0.029031744 0.080249167
v 0.013488337 0.018604089 0.131927571
v -0.020265626 0.003282969 0.189985079
v -0.011294427 0.012478696 0.080591951
v 0.028000000 0.021000000 0.094999999
v 0.035649555 -0.001496465 0.178924062
v 0.016883446 -0.000503549 0.192879028
v -0.066612016 0.011117226 0.020111291
v 0.007606200 0.006526948 0.191947013
v 0.017958647 0.014503507 0.156439779
v -0.031048277 0.018098957 0.142986384
v -0.030825307 0.015191061 0.172000006
v 0.037411605 0.000418609 0.023829204
v -0.124948233 -0.029888021 0.088113620
v 0.003327701 0.015825535 0.143268753
v -0.026522680 -0.001730357 0.187870034
v 0.023940195 0.018114302 0.177014622
v -0.002000000 -0.001326533 0.199239320
v -0.005107650 0.002033621 0.199129518
v -0.030084860 -0.005500000 0.182823994
v 0.024499999 0.000876997 0.170562496
v -0.001343750 0.002500000 0.194578122
v -0.122401476 -0.018338394 0.076040367
v -0.009518150 0.021000000 0.150401119
v 0.018999999 0.002500000 0.193500002
v -0.002500000 0.019156250 0.148989762
v -0.011852145 -0.003000000 0.070051570
v -0.016517429 0.016640626 0.183367629
v 0.014187303 0.002663663 0.183413071
v -0.028150234 0.000510051 0.194231163
v -0.030779911 0.019500000 0.184885977
v 0.030508617 0.007927228 0.182999998
v -0.061572403 0.018165748 0.030817077
v 0.009738229 0.008913626 0.165907568
v -0.005074547 -0.000303658 0.206000000
v -0.085259564 0.010090490 0.046222731
v -0.121719356 -0.021197071 0.077949462
v -0.111872716 -0.020067024 0.081443581
v -0.115514182 -0.027462578 0.083372633
v 0.012092621 0.003032467 0.136551685
v -0.003907514 0.016593526 0.162815683
v 0.018418202 -0.005096875 0.185229263
v 0.030183156 0.019700638 0.091192483
v -0.007448344 0.019268443 0.149981365
v -0.061846297 0.015108179 0.027454501
v -0.116296170 -0.024368417 0.079086073
v 0.018643388 0.018649726 0.172927960
v -0.083945391 -0.008652477 0.038151792
v -0.118918821 -0.013129713 0.089255442
v -0.003196782 0.007992494 0.144762151
v 0.007122316 0.003166167 0.195142704
v 0.027140692 0.009220526 0.001169348
v 0.016761234 0.001704306 0.185857550
v -0.125450296 -0.023927546 0.075455933
v 0.006195312 0.002500000 0.182662107
v -0.114013387 -0.022378464 0.080869098
v -0.064135537 -0.000879306 0.018061832
v -0.066614925 0.001604235 0.016142287
v -0.067854620 0.002846005 0.015182514
v -0.001712024 0.003082031 0.187570559
v 0.016743507 0.006816862 0.054778519
v -0.019042981 0.017374527 0.176650290
v 0.010766096 0.016506739 0.088814006
v 0.018492187 0.002500000 0.199000003
v 0.034096415 0.015530103 0.089860612
v 0.016174286 0.017968994 0.145850846
v 0.018999999 0.000227644 0.186904087
v 0.025439176 0.017571470 0.131515860
v 0.005571422 0.002324889 0.186482301
v -0.012856102 0.004043924 0.204832329
v 0.037250001 0.002500000 0.180999994
v 0.032636543 0.006921502 0.102541402
v 0.037092982 0.006181132 0.182999998
v -0.121399565 -0.019145657 0.088976643
v -0.116052938 -0.017329738 0.081136345
v 0.011275023 0.003438610 0.197150369
v -0.002000000 0.001085861 0.198962266
v -0.003000000 0.016965432 0.099165332
v 0.021304480 0.004965118 0.070087232
v -0.004375000 0.021000000 0.151543412
v -0.008750000 0.016000001 0.148624997
v -0.008220210 -0.004650648 0.188999996
v -0.126090637 -0.026657529 0.081404730
v 0.001500000 0.004703346 0.196527277
v -0.117394900 -0.023764515 0.076929239
v -0.026998209 0.016000001 0.175196436
v -0.005729433 -0.005500000 0.198498027
v -0.068459807 0.004224246 0.021480317
v -0.012145839 0.013449008 0.090995921
v 0.032230419 -0.005500000 0.177669019
v -0.012500000 0.021000000 0.094999999
v 0.025091208 0.003489880 0.165734084
v -0.120596442 -0.013419130 0.083308075
v 0.011761719 0.016000001 0.179675776
v 0.020500001 0.015548592 0.193789651
v -0.123292434 -0.016545925 0.087457176
v -0.116309689 -0.021221326 0.079262010
v -0.117968249 -0.028824814 0.084779954
v -0.019799646 0.018003161 0.145999998
v 0.010546875 0.009312500 -0.029177109
v -0.119274586 -0.022335620 0.078496947
v -0.115585054 -0.014843178 0.080486998
v 0.023622716 0.004488854 0.181868673
v -0.120087302 -0.020108726 0.083406942
v 0.018999999 -0.002969823 0.187028446
v -0.014866403 0.000882910 0.196181336
v 0.039000001 0.003192554 0.173276126
v -0.121854299 -0.026308825 0.079202651
v 0.037791107 0.016846634 0.110653265
v -0.118676540 -0.019630034 0.080210653
v -0.064954716 0.008012565 0.033818636
v -0.007056015 0.015701738 0.208000004
v -0.002000000 0.001230757 0.191620698
v -0.034562289 0.004486918 0.178251874
v -0.003739437 -0.000109367 0.188999996
v 0.010289715 -0.000110535 0.189945987
v -0.018999999 -0.000857789 0.195991541
v 0.035903821 -0.003636772 0.167999998
v 0.005914430 -0.002935167 0.184000000
v 0.033283190 0.002666772 0.177170675
v 0.006074495 -0.002250000 0.079403631
v -0.089406504 0.004873936 0.048557976
v 0.006312500 0.016218751 0.174999997
v 0.003522041 0.017424027 0.164732782
v -0.127211357 -0.028792805 0.084954060
v 0.014800459 -0.005500000 0.197375294
v -0.001375332 0.006266460 0.157318541
v 0.015446865 0.000396344 0.188125210
v -0.132026873 -0.023635852 0.085505078
v -0.007792776 -0.004168719 0.200018200
v -0.036980931 0.005467902 0.102591370
v -0.012843751 0.002500000 0.206000000
v -0.002000000 -0.001072060 0.192768750
v 0.011053056 -0.005500000 0.193171191
v 0.028147227 0.000345182 0.173832159
v -0.029818969 0.002843222 0.178818360
v -0.012356706 0.001289798 0.198896813
v 0.014708332 0.004613946 0.194540039
v -0.019544761 0.019668383 0.094999999
v 0.011442457 -0.003000000 0.026845493
v -0.002000000 -0.002258387 0.201487858
v -0.002687500 0.019856024 0.145456977
v -0.012756314 0.003517338 0.197785184
v -0.018999999 0.000909703 0.197712409
v -0.029632549 -0.004371395 0.180999994
v 0.012513583 0.002754631 0.186779270
v -0.114933579 -0.024250886 0.073828582
v -0.054959803 0.017995385 0.021524111
v -0.038679240 0.003031372 0.186442575
v -0.117435311 -0.014928708 0.089567643
v -0.016668818 -0.003003895 0.192917277
v -0.115136903 -0.003058368 0.069193656
v 0.010280479 0.001684230 0.194815211
v -0.015844360 0.017766250 0.092395732
v -0.028642082 -0.001067195 0.180999994
v 0.003000000 0.000295614 0.186832381
v 0.037500001 0.002500000 0.178562495
v -0.032005897 0.000267668 0.180999994
v -0.011590375 0.019260114 0.092643136
v -0.114488354 -0.012502202 0.082573901
v -0.011062453 0.017857367 0.092848565
v 0.011156872 0.002713970 0.193066540
v -0.126882673 -0.021572510 0.085623088
v -0.011294218 0.002060390 0.191015558
v 0.029406375 -0.003210572 0.167999998
v -0.124352310 -0.022765650 0.083383338
v -0.115163938 -0.022912545 0.073939585
v 0.011405859 0.018825487 0.090754283
v 0.018999999 0.000902803 0.198615582
v -0.113544956 -0.018770510 0.075404406
v 0.007954435 0.017970141 0.096890923
v -0.006719023 0.003531433 0.201538660
v 0.011540059 0.010693321 0.080013678
v -0.010500000 0.000000000 0.085000001
v -0.063806120 0.012346630 0.026412976
v -0.034768088 -0.001998816 0.180999994
v 0.028084981 0.000700240 0.167999998
v -0.015117500 0.004440527 0.195280859
v -0.115100141 -0.012436512 0.085608204
v 0.018077132 0.004462709 0.093955828
v -0.115804469 -0.013409240 0.058983446
v 0.018999999 0.001285938 0.194420595
v -0.025442757 0.000987916 0.195999995
v 0.008235226 -0.000350057 0.184000000
v -0.121102709 -0.017001865 0.085343913
v -0.038309856 0.007565271 0.094999999
v -0.016155162 0.004787174 0.208000004
v 0.009125000 0.021000000 0.094999999
v -0.026663519 0.002135849 0.186213698
v -0.006875696 0.002508834 0.195541232
v 0.014296158 0.000533703 0.192645272
v 0.016806640 0.000013793 0.200000003
v 0.004678111 0.003749241 0.180999994
v -0.110680761 -0.022514652 0.083531235
v -0.039999999 0.002500000 0.191312495
v 0.029057324 -0.001478326 0.172029384
v -0.013282023 0.000152206 0.188999996
v 0.037500001 0.000470238 0.174501095
v 0.009542333 0.014158689 0.171944376
v -0.005742138 0.003793546 0.192428430
v -0.005971493 -0.001270183 0.199737445
v 0.011351315 0.001878640 0.190870855
v -0.118983651 -0.024354032 0.075205266
v -0.011571146 0.003672862 0.190483284
v 0.025767429 0.003712379 0.179155966
v 0.011501122 -0.003311867 0.189551952
v -0.024000000 0.001341506 0.191594829
v 0.004848722 0.003022617 0.048441869
v -0.004998251 -0.001712398 0.202239700
v 0.010334329 0.000952252 0.196836655
v -0.119065319 -0.021598964 0.084831813
v -0.006506106 -0.000490458 0.193092224
v -0.005760685 0.022000000 0.058531470
v 0.002529802 -0.003000000 0.027056421
v 0.026159301 0.019306450 0.165075326
v -0.119156296 -0.027823191 0.079873090
v 0.034428618 0.002739788 0.179549573
v -0.012023457 -0.001539015 0.194091071
v -0.033183664 0.002221697 0.185175362
v -0.110314462 -0.023851422 0.077725024
v -0.009915936 0.003089107 0.193056962
v -0.113740781 -0.025494587 0.083628233
v 0.015043570 -0.003062404 0.191061199
v -0.125517480 -0.017673813 0.092287696
v -0.006195240 0.000642701 0.188999996
v 0.043863977 0.015152632 0.090773053
v -0.024556771 0.016599515 0.176812503
v -0.121789027 -0.023735627 0.080129124
v 0.018423576 -0.001719607 0.200000003
v -0.124848307 -0.021169042 0.091867256
v -0.008009187 0.000989849 0.200727009
v -0.002000000 0.002500000 0.198828123
v 0.014861872 0.001852135 0.196158137
v -0.111185105 -0.026392203 0.076152640
v -0.090993750 -0.003506644 0.039678926
v 0.005581148 0.002747662 0.192020294
v 0.037081765 -0.005167318 0.176924856
v -0.002000000 0.000419289 0.202030862
v 0.037333116 0.019377794 0.095455452
v -0.112250833 -0.018600242 0.084541603
v -0.007651144 -0.002063332 0.198135165
v -0.035335223 0.002085072 0.193642865
v 0.015039922 -0.000957500 0.191307276
v -0.121306322 -0.022497998 0.079581306
v -0.035988578 0.000473006 0.180999994
v -0.003805438 0.001291998 0.191950972
v -0.039344502 -0.004503220 0.195421123
v -0.062681851 0.006671153 0.017276763
v -0.039642036 -0.004669112 0.192811303
v 0.015117351 0.003825821 0.198545370
v 0.007298120 0.001475319 0.187278739
v -0.125090776 -0.025135196 0.086529766
v 0.029868926 -0.005500000 0.174982037
v 0.011413866 0.002240354 0.197959976
v -0.016062500 0.002500000 0.188999996
v -0.022687501 0.003545391 0.188093703
v -0.013247411 0.002173971 0.196322731
v -0.016684534 0.002368528 0.197550030
v -0.040779942 0.015213026 0.197043465
v 0.018723036 0.000895120 0.184000000
v -0.124012826 -0.012453372 0.091805400
v -0.117654575 -0.025223204 0.076136313
v -0.112475947 -0.011275409 0.083720907
v -0.039999999 0.002500000 0.186156244
v -0.110857314 -0.015663987 0.087672449
v 0.027095319 0.001050071 0.180999994
v 0.011057929 -0.002373631 0.184000000
v -0.030304095 0.018383344 0.175115829
v -0.036069992 0.002425456 0.185646491
v 0.028187558 0.000537681 0.170561895
v 0.031908181 -0.003510309 0.179091855
v 0.034177744 0.004175182 0.179891423
v 0.029071017 -0.002474884 0.178470100
v -0.113594857 -0.018966321 0.079582282
v 0.025734374 0.002500000 0.168406248
v 0.003082966 0.006976855 0.201759941
v 0.024499999 0.002500000 0.173890621
v 0.011102090 0.000801878 0.185639088
v -0.021460894 -0.003000000 0.060963988
v 0.030000000 0.002500000 0.180999994
v -0.116734882 -0.015598938 0.084302487
v -0.060791862 0.007567274 0.025567665
v -0.002000000 -0.003579213 0.194771935
v -0.117508269 -0.008423077 0.076213479
v -0.119396069 -0.018316800 0.088129892
v -0.028705994 0.001035126 0.189431824
v 0.003297732 -0.002074117 0.184399585
v 0.003000000 -0.002454959 0.190235692
v -0.119715361 -0.028921295 0.086911791
v 0.010848922 -0.001070802 0.194584680
v 0.032579683 0.000795037 0.174824540
v -0.036307517 -0.005500000 0.187544762
v -0.009617811 -0.005500000 0.196189459
v -0.123076126 -0.027306944 0.085082351
v -0.038709482 0.001530400 0.186637224
v 0.037500001 -0.001793449 0.176850905
v 0.033023104 0.005048128 0.175177288
v -0.032498380 -0.005028329 0.182102907
v -0.013208010 0.003015019 0.200724651
v -0.034012726 0.002852047 0.187619352
v -0.013464444 0.001823793 0.192855743
v 0.026003116 0.003766449 0.081253677
v 0.028114419 0.004330929 0.177383813
v -0.030970709 -0.002157552 0.180999994
v -0.015971227 -0.002286428 0.203188810
v 0.001500000 0.004907434 0.186782568
v -0.026144648 0.001076475 0.191434633
v -0.004864718 -0.003182691 0.196153149
v -0.005048520 -0.005500000 0.194230384
v -0.024000000 0.002500000 0.193187495
v -0.039449949 0.000883163 0.195999995
v 0.005990102 -0.000977614 0.184000000
v 0.011632804 -0.002029820 0.191972256
v -0.038134312 0.020250000 0.145727534
v -0.012361421 -0.003926473 0.193770840
v -0.063057028 -0.003483387 0.027925246
v -0.035511265 -0.005500000 0.183917242
v -0.039999999 0.000574128 0.192695760
v 0.015142394 -0.003659401 0.193144083
v 0.028194341 0.002210075 0.171847563
v -0.024000000 0.001173900 0.194714655
v -0.039999999 -0.002592847 0.182697047
v 0.006080226 0.003605418 0.196441528
v 0.030236279 0.004209286 0.179731189
v -0.010293750 0.002500000 0.188531247
v -0.030417980 -0.005500000 0.186547949
v 0.029690544 -0.005352930 0.168411020
v -0.115730396 -0.023815886 0.075603739
v 0.035382525 -0.000739446 0.175827893
v -0.041499998 0.003832937 0.192015368
v 0.011742710 0.005012518 0.193472931
v -0.009291553 -0.001801647 0.203980649
v 0.002296875 0.002857612 0.199020432
v -0.003227313 -0.005500000 0.195681184
v -0.033774168 -0.003697310 0.184540718
v -0.018999999 -0.002869383 0.198154103
v 0.013593749 0.000000000 0.020000000
v 0.027148496 -0.003391286 0.173135269
v -0.021159861 0.022000000 0.032530703
v -0.003482920 -0.002587618 0.199179285
v 0.034551250 0.009061389 0.164621607
v 0.013893538 0.002000000 -0.013548751
v 0.004648949 0.003070731 0.189370056
v 0.037469495 0.002798019 0.168162109
v 0.007785433 -0.002610265 0.191248270
v -0.008384238 0.000112542 0.206000000
v -0.027425367 0.003541051 0.188504187
v -0.009339844 0.021000000 0.097283652
v 0.018999999 0.002500000 0.186312500
v -0.033650599 0.007311821 0.193178924
v -0.118288017 -0.017617573 0.084651362
v -0.005695091 -0.003032157 0.192302327
v 0.003000000 0.000249469 0.190933068
v -0.037587338 0.002016734 0.186707854
v -0.016216629 -0.002113122 0.190601122
v 0.004390018 -0.005212388 0.193335142
v 0.034694433 0.002093848 0.171791394
v 0.033188400 0.000301501 0.167999998
v 0.005168616 0.000535927 0.196523484
v 0.003000000 0.000722288 0.197511799
v -0.039999999 -0.002222243 0.189260369
v -0.037205516 -0.001050269 0.191014712
v 0.030214027 -0.000458536 0.175072045
v -0.037376491 0.002585941 0.188015780
v -0.113824438 -0.024828218 0.078463254
v -0.104805609 0.002336788 0.064195151
v -0.004446585 -0.005415538 0.204711864
v 0.037443248 0.000114012 0.169868301
v 0.003513218 -0.005193194 0.190454599
v -0.018999999 -0.004497679 0.191911155
v -0.122363742 -0.016049997 0.088997579
v -0.026437500 0.002500000 0.195999995
v -0.013794624 -0.004776883 0.205928060
v 0.037500001 -0.000888347 0.179738371
v 0.026375000 0.002500000 0.180999994
v -0.029792323 -0.003354187 0.187769864
v -0.000500000 0.004485984 0.190791662
v -0.018621597 -0.004984832 0.202603307
v -0.006574999 0.001839443 0.191430619
v -0.035284310 -0.001384332 0.187371672
v -0.012155517 0.002930122 0.193337691
v -0.006869220 -0.005500000 0.195884362
v 0.005524487 -0.000554054 0.192985059
v 0.007635832 0.011828321 0.180999994
v -0.033233102 0.003644987 0.185388465
v -0.111229796 -0.020596302 0.077734440
v -0.113547466 -0.011947393 0.073745885
v -0.028358739 -0.002644774 0.184834488
v -0.009925462 0.001442698 0.203862680
v -0.040118171 0.018820397 0.085378288
v -0.036447235 -0.003039921 0.192710619
v -0.039999999 0.000851441 0.187839838
v 0.033521359 -0.002894138 0.180999994
v 0.012618849 -0.004063503 0.194452882
v -0.003103163 0.001300357 0.206000000
v -0.025933859 0.001006816 0.180999994
v -0.018344040 -0.004867497 0.206000000
v -0.084985043 0.005201915 0.036971002
v -0.002619069 0.008031658 0.179858620
v 0.031730627 -0.005500000 0.171287305
v -0.010642462 -0.005500000 0.204604738
v -0.015163540 0.003055814 0.201530276
v 0.014191727 -0.005500000 0.193743753
v -0.002067535 0.009283087 0.186800037
v 0.011849272 -0.005500000 0.197397509
v -0.105767227 -0.011560599 0.071870986
v -0.005713284 -0.005500000 0.201917222
v -0.013865714 0.002597623 0.203129299
v -0.009292649 -0.005203338 0.205717188
v -0.030208146 0.018251961 0.145278958
v 0.006958082 0.002102238 0.191256129
v -0.006937500 0.002500000 0.206000000
v -0.036429124 -0.000068556 0.195999995
v -0.127825729 -0.023243396 0.087856849
v -0.003803392 -0.004440544 0.189071261
v 0.004646392 0.019875000 0.101608796
v 0.036735008 -0.003220886 0.180580872
v -0.017788292 0.000243848 0.189075394
v -0.037248679 -0.003586545 0.183351398
v -0.037444910 0.001634759 0.189336791
v -0.033095224 0.000213958 0.189810831
v -0.039999999 -0.001697833 0.193584226
v -0.121051110 -0.020690731 0.089844156
v -0.120806197 -0.024846950 0.083718667
v 0.005170517 -0.000277951 0.186838580
v 0.036820620 0.016837548 0.137070530
v -0.011759721 0.001044141 0.201624647
v -0.033841761 -0.002683757 0.193946418
v -0.010282446 -0.002848866 0.188999996
v -0.121138621 -0.020924734 0.087889538
v 0.035534069 -0.005500000 0.179741218
v -0.116903380 -0.024768880 0.088652148
v -0.034130280 0.004030310 0.022427965
v -0.012235075 -0.003000000 0.032981368
v -0.059872624 0.019063309 0.026918776
v -0.035270167 -0.005500000 0.190287468
v -0.015844724 0.000997441 0.199631906
v -0.121958531 -0.018122047 0.091078211
v -0.012291633 0.000927047 0.206000000
v -0.120917159 -0.022805399 0.082028733
v -0.038776874 -0.005500000 0.184261560
v -0.030002328 -0.001968060 0.191152932
v -0.032188076 -0.001221709 0.195999995
v -0.038814049 -0.001442307 0.180999994
v 0.003370429 -0.005205032 0.187152994
v -0.017804884 -0.005217104 0.190193154
v -0.008800047 -0.002074229 0.206000000
v -0.027967073 -0.000899903 0.189370709
v -0.109450971 -0.017217346 0.081262896
v 0.035598050 -0.000246710 0.180999994
v -0.036887437 0.000335348 0.188074733
v 0.010915841 0.004938005 0.019494015
v 0.036682212 0.003558457 0.177471074
v 0.011009122 -0.005500000 0.184557896
v -0.010229683 0.002312607 0.199429939
v -0.004500000 0.021000000 0.094999999
v -0.002260936 -0.001668967 0.189646072
v -0.118075451 -0.029869471 0.082698710
v -0.123389911 -0.029255640 0.087326211
v -0.123580801 -0.020404395 0.093696558
v -0.016644354 0.001064048 0.206000000
v 0.037500001 0.002291260 0.173368009
v -0.114188351 -0.013325774 0.086285397
v -0.034399325 0.000174287 0.192541851
v -0.113807768 -0.018736750 0.088263233
v 0.011903777 -0.005500000 0.186793374
v 0.018671559 -0.005166358 0.189160238
v -0.016943405 -0.002305283 0.206000000
v 0.007480905 0.001390685 0.195404392
v -0.037921462 0.000493456 0.185243758
v -0.030849134 0.002219398 0.190628279
v -0.008549726 -0.001749323 0.195293517
v -0.027815037 0.005074998 0.192970932
v 0.014727818 -0.000364754 0.184000000
v -0.007398845 -0.005500000 0.191674728
v -0.117851594 -0.020614605 0.077190304
v -0.109987240 -0.013541113 0.084771493
v -0.115362276 -0.027472646 0.077855270
v 0.029694364 -0.005361556 0.179475722
v -0.013863536 -0.005500000 0.193451531
v -0.124811972 -0.024495530 0.090523896
v 0.035752909 0.019606885 0.164554275
v 0.004042575 0.001542395 0.198470923
v -0.017235317 0.000208974 0.195635810
v -0.024000000 -0.002294517 0.189969300
v 0.026356645 -0.005149419 0.169336138
v -0.014124703 -0.002436373 0.196554417
v 0.007103796 -0.005500000 0.188658728
v -0.024000000 -0.001366314 0.184669054
v 0.000653404 0.000363168 0.025216831
v 0.018999999 -0.002935771 0.191389748
v -0.010331897 -0.003586005 0.202255609
v -0.121722823 -0.029927118 0.083466561
v -0.006867453 0.019500000 0.187800239
v -0.002890625 0.017402329 0.182586259
v -0.016500000 0.021000000 0.094999999
v -0.032981467 -0.005500000 0.187239300
v 0.033179578 -0.000378328 0.172172695
v -0.117734605 -0.016798112 0.091925409
v 0.006937499 0.000000000 0.020000000
v -0.012624544 -0.005500000 0.202991963
v 0.032081755 -0.004833640 0.180999994
v -0.007953047 -0.003805303 0.206000000
v 0.013687348 -0.000008711 0.200000003
v -0.003283482 0.016000001 0.148438985
v -0.026580834 -0.005500000 0.192150977
v 0.011143015 0.004765523 0.198020794
v -0.017124123 -0.002024031 0.195224279
v 0.033009607 0.014373518 0.138999999
v 0.009772789 -0.005500000 0.189045369
v -0.030233808 0.016771015 0.099248212
v -0.011072399 -0.002730582 0.196864499
v -0.039999999 -0.000457092 0.186239049
v 0.018999999 -0.001309039 0.197595433
v 0.012542555 0.004376173 0.190931073
v -0.007191398 -0.002091351 0.188999996
v 0.037500001 -0.002764728 0.174311094
v -0.013845304 0.005265934 0.199118367
v -0.123949333 -0.031558770 0.086782274
v -0.024912638 -0.004034481 0.195999995
v -0.016637017 -0.005500000 0.194014622
v 0.008819471 0.000277007 0.039415331
v -0.118265804 -0.021578578 0.094539596
v 0.014812986 0.004735402 0.185925669
v -0.024000000 -0.005500000 0.185687494
v -0.028536295 0.001895772 0.192027005
v -0.012222548 -0.005500000 0.199535778
v -0.111417407 -0.018482235 0.089324672
v -0.007768113 -0.003805060 0.204442837
v -0.024000000 -0.003834015 0.184661124
v -0.114232103 -0.015667653 0.089099457
v 0.024499999 0.000824737 0.178661582
v -0.032854229 -0.002120998 0.189349772
v 0.014963940 -0.002483059 0.197144954
v 0.033424877 -0.003376690 0.167999998
v -0.016823731 0.005466410 0.204097280
v -0.031866086 -0.002696967 0.185179071
v -0.016069773 -0.003752447 0.197179577
v -0.003252483 -0.005358968 0.191758551
v -0.003129969 0.002545438 0.063999444
v 0.032557602 -0.000868054 0.178418318
v 0.008224438 -0.005500000 0.191902435
v 0.009246621 0.002776082 0.195860863
v -0.018999999 -0.001711673 0.200615302
v -0.018999999 -0.003486654 0.204186760
v 0.016653262 -0.003817559 0.194877087
v -0.114290594 -0.021661318 0.089297948
v -0.002363753 -0.004938613 0.202401182
v -0.018710225 -0.002875000 0.188999996
v -0.039749388 0.018653500 0.171750001
v 0.004307055 -0.003000000 0.038748526
v -0.030683057 0.020414132 0.100775803
v 0.013652839 0.003564934 0.171141428
v -0.039615114 -0.004394806 0.181817587
v -0.113643296 -0.011648637 0.078972706
v -0.002000000 0.002500000 0.204140625
v -0.036958814 -0.005115750 0.195617894
v -0.039868042 0.000161912 0.058106533
v -0.031393091 -0.005500000 0.189730444
v 0.016874980 -0.005500000 0.198789812
v -0.032729131 0.000269944 0.186658450
v -0.116189709 -0.023294005 0.083746775
v -0.021100895 0.003662204 0.052988624
v 0.008339620 -0.001891361 0.187594415
v -0.113032053 -0.018839419 0.071947472
v 0.005437500 0.002500000 0.200000003
v 0.025337507 -0.005162773 0.173078529
v -0.126622341 -0.026514556 0.087524742
v -0.121869784 -0.021305292 0.085975313
v 0.018247709 -0.004989621 0.193017332
v -0.120525804 -0.016555790 0.089630365
v -0.121380184 -0.017726196 0.094570090
v -0.020500001 0.016362563 0.141761074
v -0.033406251 0.016000001 0.141000003
v -0.039370358 -0.005192293 0.189832469
v 0.003000000 0.002500000 0.195000002
v -0.013182244 0.016136977 0.096432478
v -0.002000000 -0.003648232 0.197451937
v 0.024499999 -0.005025065 0.169651152
v 0.004411799 0.000426629 0.184000000
v -0.013779493 -0.005500000 0.196889406
v -0.002757944 -0.005046947 0.199233238
v 0.003000000 -0.003546531 0.186712668
v -0.013771123 0.000284793 0.058090936
v 0.035418741 0.003601590 0.172422678
v 0.009690349 -0.005500000 0.197498951
v -0.117321683 -0.020234686 0.088295119
v -0.011072593 0.022000000 0.079326767
v -0.111739468 -0.015180303 0.077717412
v 0.027878679 -0.002625000 0.039799301
v -0.029662299 -0.005500000 0.192938132
v -0.000451258 0.000000000 0.018048160
v -0.059033532 0.000176477 0.015753788
v -0.024962505 -0.000924803 0.180999994
v -0.122865736 -0.022349858 0.093737765
v -0.009987840 0.000496311 0.197142001
v -0.002293902 -0.004132004 0.205356987
v -0.017393661 -0.005244071 0.199356548
v 0.015853880 -0.002521478 0.200000003
v -0.091018411 -0.006994304 0.047708627
v -0.119385464 -0.017790069 0.078712705
v 0.003612276 -0.004887724 0.184000000
v -0.109995862 -0.010524246 0.080427736
v -0.120038955 -0.024838176 0.079904255
v 0.014046251 -0.004675860 0.184494981
v -0.008073713 -0.005500000 0.203861626
v 0.027389046 -0.002381127 0.167999998
v -0.020500001 0.003924626 0.202268409
v 0.015071813 -0.002264866 0.194154064
v 0.006800163 -0.000396376 0.200000003
v -0.129060837 -0.025598814 0.086610989
v -0.033886929 -0.004633114 0.195672023
v -0.112811301 -0.027980177 0.079211768
v -0.012240967 -0.002861260 0.202578803
v 0.033720762 -0.005500000 0.173629618
v -0.039201834 0.019690299 0.098339196
v -0.118588949 -0.024359292 0.088086800
v -0.012855792 -0.005500000 0.190093208
v 0.026181165 -0.001812131 0.180999994
v 0.013416286 -0.005500000 0.189548137
v -0.007084562 -0.003000000 0.057626110
v 0.015511234 0.006181849 0.181281245
v 0.018334164 -0.001363620 0.184469797
v -0.011052764 -0.005500000 0.191894137
v 0.010715248 -0.004745890 0.200000003
v -0.122770123 -0.028630645 0.091233535
v -0.118898930 -0.021523672 0.091783932
v -0.027014433 -0.001943600 0.193956501
v -0.120880819 -0.015949690 0.092238882
v 0.002062500 0.002682638 0.185769762
v -0.116717585 -0.026037553 0.086770735
v 0.003000000 -0.002522525 0.197095972
v -0.116753129 -0.019156508 0.094327003
v -0.024000000 -0.000360937 0.192982515
v 0.027633744 -0.000617771 0.176709341
v -0.121245069 -0.021952917 0.081062150
v -0.015338247 -0.005431180 0.189512077
v -0.004578125 0.017543550 0.096364090
v 0.018639359 -0.005185194 0.195869980
v -0.009223647 0.002856037 0.203303185
v -0.026456201 -0.003678837 0.193272292
v -0.029985227 0.000130600 0.193661533
v 0.037500001 -0.003501649 0.170514873
v 0.020500001 0.009530890 0.164825006
v -0.017339959 0.004634125 0.186316352
v -0.121908589 -0.020644144 0.093195441
v -0.024000000 0.000716263 0.183453039
v 0.006758189 0.020000000 -0.016125128
v -0.004070080 0.004260869 0.196618400
v 0.034648144 -0.005439322 0.169663745
v 0.006102030 -0.003044649 0.194421700
v 0.034477638 -0.002409636 0.173289788
v -0.028835928 -0.002218242 0.193003150
v 0.010235520 -0.003648549 0.194276993
v -0.057939018 0.013544701 0.023851591
v -0.026682907 0.000038876 0.183960484
v 0.016158660 0.002384716 0.194139372
v -0.037711105 -0.003795474 0.189178176
v -0.008350839 0.015854978 0.090591609
v 0.017003924 0.000619863 0.196289839
v 0.037356121 -0.004500000 0.168347003
v -0.121893028 -0.025963966 0.092154910
v -0.026351572 -0.005216167 0.195388812
v 0.003884550 -0.003147170 0.199739759
v 0.007105671 0.003345650 0.189332769
v -0.005710726 0.000208078 0.203674400
v -0.039030152 -0.001671944 0.195999995
v -0.015676609 0.004266159 0.191171878
v 0.026314023 -0.005500000 0.178217190
v 0.018999999 -0.001763378 0.194838685
v -0.033777419 0.001610276 0.182972639
v -0.112219359 -0.014386545 0.086721670
v -0.024989200 0.020911145 0.176263089
v 0.008846536 -0.002285530 0.200000003
v -0.034687212 0.006217950 0.140476828
v -0.112922168 -0.014660639 0.082455647
v -0.018237688 -0.005267755 0.196849546
v 0.024499999 0.000810870 0.180736093
v -0.032185546 0.002500000 0.196249995
v -0.009603250 -0.003190430 0.191873975
v 0.029504680 0.003678617 0.182749997
v -0.039999999 -0.003529496 0.185626717
v 0.007868139 0.003439837 0.198379527
v -0.108534309 -0.020862435 0.081646632
v -0.120262802 -0.029041811 0.081794260
v -0.124010137 -0.027906908 0.082019147
v -0.031512720 0.003988772 0.189391472
v -0.029761813 -0.000191935 0.017705150
v 0.018999999 -0.003896912 0.198842829
v -0.034775897 0.004945329 0.185135976
v -0.038068822 0.001315351 0.183494317
v -0.009568461 0.004309578 0.186281253
v 0.007771515 -0.005500000 0.194844065
v -0.030552403 -0.003409718 0.194013495
v -0.009341857 0.013714673 0.151999995
v -0.122363128 -0.029535447 0.089276153
v 0.036693152 -0.005500000 0.171832357
v -0.110104604 -0.012308151 0.082530350
v 0.011398162 -0.000978267 0.200000003
v 0.014090690 -0.004657378 0.200000003
v -0.026723075 -0.005500000 0.187101243
v 0.024499999 -0.004279626 0.177279826
v 0.009877754 -0.004027510 0.197912561
v 0.031512730 -0.001203414 0.167999998
v 0.030317276 -0.000158111 0.180999994
v 0.024499999 -0.002529181 0.178096832
v -0.015284467 -0.005500000 0.201232073
v -0.024000000 -0.004474017 0.193540771
v 0.028308144 -0.005500000 0.171680408
v 0.005623937 -0.005366452 0.185541316
v 0.009345803 -0.005500000 0.186183454
v 0.011565918 -0.003000000 0.062738698
v 0.024733865 -0.001582853 0.169139276
v -0.035294803 0.000669563 0.082113579
v -0.065740544 0.017655902 0.029529328
v -0.119268788 -0.018796015 0.094957133
v -0.032764663 -0.005500000 0.193589493
v -0.012725553 -0.001187563 0.206000000
v -0.109397502 -0.023113861 0.080480196
v -0.013088427 -0.003218743 0.188999996
v -0.052349736 0.000526509 0.028032085
v -0.113976656 -0.018726055 0.091939614
v -0.017357993 0.003298694 0.204200560
v -0.026821861 -0.005500000 0.189373134
v 0.024499999 -0.003361130 0.171140109
v -0.107732024 -0.015394661 0.084579603
v 0.036048293 0.001928111 0.176661937
v -0.018869696 -0.001403640 0.205549775
v -0.108260248 -0.016086902 0.087082519
v 0.019818413 0.000000000 0.012792147
v -0.024785018 0.017419915 0.145030747
v 0.005633699 -0.003369982 0.188677721
v -0.013760227 -0.003129805 0.194177147
v -0.037469304 -0.002561306 0.186791700
v -0.018751145 0.022000000 0.085098155
v 0.006740435 -0.004926436 0.198683749
v -0.113297871 -0.025215744 0.074958129
v 0.004656496 0.003666042 0.028830367
v -0.025568839 -0.005500000 0.184541151
v 0.007656328 -0.004493184 0.184074504
v -0.024369028 0.013106238 0.107921026
v -0.014283598 -0.001083064 0.199617332
v 0.003000000 0.002500000 0.190500001
v 0.003000000 -0.004789654 0.198467691
v 0.033280822 0.001109589 0.180999994
v 0.008206861 -0.001068084 0.197808476
v -0.002375000 0.018625000 0.152124997
v -0.120147840 -0.027090104 0.089839631
v -0.024000000 -0.000094317 0.188353872
v -0.123276855 -0.016425745 0.093817212
v 0.024499999 0.000355903 0.173529332
v -0.121513856 -0.018314658 0.087207820
v 0.024767963 -0.001398192 0.180115485
v -0.013637907 0.000250000 0.012075115
v -0.024555451 -0.004506355 0.181826038
v -0.106716767 -0.016889622 0.085558645
v 0.016344950 0.009755761 0.174999997
v 0.024499999 0.000602441 0.176246125
v 0.024499999 -0.001373326 0.174386351
v -0.014196725 0.010423367 0.178144048
v -0.039422355 -0.005152165 0.187144614
v -0.121604162 -0.025516862 0.087770747
v 0.035074950 -0.003587996 0.177617140
v -0.009913672 0.019500000 0.154136755
v -0.116136139 -0.021439225 0.091969103
v -0.015177128 0.019953447 0.092483398
v 0.016582121 -0.004140468 0.184139504
v -0.121680175 -0.019738279 0.096122819
v 0.039616589 0.006441392 0.092499999
v -0.018861638 -0.004516655 0.195238544
v -0.113036479 -0.021599927 0.075162954
v -0.018999999 0.001074804 0.191233526
v -0.002070262 -0.000473732 0.205140891
v -0.005482998 -0.002730552 0.206000000
v 0.008921875 0.002500000 0.184000000
v 0.031031330 -0.003335962 0.175665823
v -0.122722837 -0.020919858 0.082082199
v 0.039000001 0.006110653 0.178583445
v -0.014562500 0.020340795 0.099718782
v -0.031793864 0.004446491 0.180852072
v -0.002000000 -0.003364376 0.191288215
v 0.030800197 -0.003816285 0.172611111
v -0.121577441 -0.024736561 0.094065054
v 0.003234375 0.016109376 0.100250003
v 0.014571762 -0.003483246 0.187278266
v -0.009446276 0.004273052 0.197496257
v -0.024000000 -0.001703609 0.194378136
v -0.122702465 -0.014609266 0.092616639
v -0.024000000 -0.003807948 0.187895339
v 0.024927144 0.018260045 0.103769201
v -0.025815624 0.021000000 0.144328118
v -0.018999999 0.000872691 0.203339353
v 0.015935992 0.019396098 0.089652838
v 0.003298251 -0.000906250 0.199281253
v -0.125319741 -0.030069247 0.085509419
v -0.038374999 0.002500000 0.195999995
v -0.013302755 0.004066618 0.159087691
v -0.124300668 -0.028133484 0.089616745
v 0.015733210 -0.005500000 0.191351403
v 0.015808568 -0.005500000 0.188390585
v -0.015559393 -0.003206570 0.194966012
v -0.120881822 -0.021818509 0.096150169
v -0.024145035 -0.004865707 0.190493286
v -0.111591656 -0.016860003 0.078860687
v -0.005505020 0.007474612 0.025354447
v -0.003883779 -0.003000000 0.024588950
v 0.019336269 0.005405615 0.107131389
v -0.031778650 0.001170478 0.195999995
v -0.010720888 -0.003247927 0.206000000
v -0.112481357 -0.022437726 0.085956510
v 0.037500001 0.001176190 0.178919423
v 0.028304168 0.001600019 0.177226412
v -0.061590797 0.019321034 0.025900053
v -0.125069572 -0.016547802 0.081349297
v -0.029187500 0.019500000 0.140499994
v 0.017179509 0.010694508 0.020873396
v -0.108517762 -0.019410268 0.084372248
v -0.039495241 0.000545794 0.182137265
v -0.012948647 0.019271532 0.090381107
v -0.117621121 -0.025357187 0.085292810
v -0.034040256 0.016000001 0.144296725
v -0.010184490 -0.001599169 0.200355527
v -0.000500000 0.005744501 0.198553753
v 0.005375000 0.021000000 0.094999999
v -0.009080825 0.000374648 0.188999996
v -0.121511851 -0.022891396 0.090773538
v 0.003000000 0.001000000 0.200000003
v -0.062425187 0.009818554 0.016004817
v 0.039000001 0.017184804 0.141480630
v 0.009394659 0.005417828 0.202000007
v 0.029201558 -0.002857504 0.180999994
v -0.036549640 -0.002536351 0.195999995
v -0.018999999 0.002500000 0.200089842
v -0.002000000 -0.000187594 0.195395838
v 0.034238900 0.016023075 0.158611640
v -0.018999999 0.002500000 0.194046872
v 0.003000000 -0.002380125 0.193897582
v -0.009259252 -0.005500000 0.200604041
v -0.018312500 0.002500000 0.205734375
v -0.065876868 0.003816636 0.017944118
v 0.025382442 -0.004730093 0.180597163
v 0.009144309 -0.003000000 0.020690170
v -0.032973735 0.021000000 0.173229039
v -0.010460067 0.021000000 0.183935329
v 0.025734130 -0.005500000 0.175137500
v 0.006474609 0.018511306 0.090053819
v -0.037562499 0.002500000 0.180999994
v -0.007065803 0.001223959 0.196551652
v -0.118925675 -0.024479955 0.091638070
v -0.018999999 0.000260006 0.193031837
v 0.008264034 0.004518679 0.195891109
v 0.013768688 0.016811543 0.172993554
v 0.013433937 -0.001792173 0.186329444
v -0.028112582 -0.000404063 0.195999995
v -0.124168502 -0.017821889 0.094072694
v 0.015604456 0.001401040 0.027176990
v -0.036770743 -0.004820262 0.181354527
v -0.038262781 0.022000000 0.059959706
v -0.114648235 -0.023713115 0.087105247
v -0.029773438 0.002500000 0.180999994
v -0.025985189 0.013879261 -0.005211235
v 0.012554995 0.000956548 0.193900643
v -0.066362688 0.006104734 0.015224273
v -0.019090146 0.017528309 0.202148834
v -0.059987870 0.015894987 0.016147729
v 0.029119664 0.006466752 0.174335815
v -0.064829458 0.016228240 0.034029836
v 0.014852156 0.003310756 0.202000007
v -0.012571553 0.018237386 0.122926429
v -0.074470656 -0.003628007 0.040954953
v -0.020500001 0.007857218 0.144371554
v -0.061511615 0.002369462 0.014440270
v 0.025000000 0.006500000 -0.010725000
v 0.004718749 0.000000000 0.016149309
v -0.008944452 0.019302181 0.091591365
v -0.037999999 -0.003000000 0.027962457
v -0.127206881 -0.014851740 0.076064969
v -0.001512582 0.018063423 0.094999999
v -0.023970903 0.022000000 0.091997899
v -0.010941565 0.021250000 0.004526230
v -0.031256869 -0.003000000 0.028972535
v -0.061042012 0.019593527 0.023232287
v -0.029491615 0.019204519 0.095336743
v -0.130905952 -0.027001468 0.082642984
v -0.009483925 0.001523136 0.091510437
v 0.036573862 -0.001904689 0.167999998
v 0.039000001 0.008950190 0.171038920
v -0.064797008 0.009259629 0.017430219
v -0.023359096 0.018328076 0.091827600
v 0.013593749 0.000000000 0.016138517
v -0.009504617 0.019133456 0.087587626
v -0.036364694 0.018390213 0.162532473
v -0.055948567 0.015569383 0.017664865
v 0.005358939 0.007406235 0.013905919
v 0.003195739 0.004910601 0.101000004
v 0.009156265 0.000000000 0.016156977
v 0.005961690 0.003292697 0.018078125
v 0.021837049 0.018014817 0.089936528
v -0.006203108 0.019619136 0.092108699
v -0.060149433 0.018775943 0.020657650
v -0.064023023 0.011560611 0.018400145
v -0.065491846 0.007249981 0.014741875
v -0.044005397 -0.002457975 0.016599168
v 0.029500000 0.021000000 0.094999999
v 0.004320728 0.020230892 0.092442263
v -0.034910593 -0.003000000 0.049846986
v -0.009725800 0.020250000 0.144459261
v -0.054602536 0.022073369 0.027454638
v -0.044083974 0.009580623 0.014820992
v -0.062828565 0.014095956 0.020071562
v -0.063818901 0.010497646 0.014788254
v -0.004684642 0.019801400 0.089911516
v 0.031098546 0.016168264 0.096539630
v 0.024507827 0.021512965 0.091255692
v -0.029470166 0.002555435 0.029377541
v -0.062320478 0.017669246 0.022586138
f 152 1 7
f 7 1 341
f 1005 1 152
f 341 1 1124
f 1 1005 1124
f 268 2 3
f 3 2 269
f 2 4 9
f 1124 4 2
f 67 7 2
f 7 343 2
f 9 66 2
f 66 113 2
f 114 67 2
f 113 269 2
f 268 114 2
f 2 343 1124
f 269 268 3
f 4 199 9
f 199 4 185
f 1124 185 4
f 5 6 9
f 5 317 6
f 9 144 5
f 144 999 5
f 999 317 5
f 6 65 9
f 77 65 6
f 6 1192 77
f 6 317 1192
f 32 152 7
f 32 7 1145
f 1145 7 67
f 7 341 342
f 7 342 343
f 8 38 23
f 23 1005 8
f 38 8 1160
f 1160 8 47
f 47 8 1165
f 1165 8 972
f 1187 972 8
f 8 1005 1187
f 9 35 145
f 292 35 9
f 9 64 144
f 145 64 9
f 272 9 65
f 1145 66 9
f 109 9 199
f 109 292 9
f 9 272 1145
f 173 10 11
f 11 10 1015
f 173 125 10
f 125 1176 10
f 10 160 156
f 10 156 1105
f 10 1176 160
f 1105 1015 10
f 190 173 11
f 190 11 1015
f 173 12 125
f 12 296 125
f 136 12 153
f 12 136 296
f 12 173 153
f 34 740 13
f 1162 34 13
f 92 13 740
f 92 922 13
f 13 922 1162
f 88 105 14
f 193 88 14
f 14 105 1099
f 108 1075 14
f 108 14 1099
f 273 193 14
f 1015 273 14
f 1075 1015 14
f 155 137 15
f 137 190 15
f 15 1075 155
f 190 1015 15
f 1015 1075 15
f 133 16 31
f 31 16 166
f 16 133 120
f 16 120 1191
f 383 166 16
f 857 383 16
f 857 16 1191
f 40 239 17
f 40 17 315
f 101 56 17
f 56 543 17
f 17 227 101
f 239 227 17
f 17 543 315
f 18 111 81
f 710 18 81
f 134 111 18
f 352 134 18
f 710 352 18
f 20 76 19
f 194 20 19
f 192 53 19
f 19 53 194
f 19 76 192
f 289 76 20
f 261 138 20
f 20 138 289
f 20 194 464
f 1197 261 20
f 464 1053 20
f 1197 20 1053
f 110 21 76
f 21 147 76
f 110 523 21
f 510 147 21
f 523 510 21
f 376 22 559
f 376 625 22
f 22 642 559
f 628 22 625
f 652 22 628
f 22 652 642
f 38 1190 23
f 842 1005 23
f 1190 842 23
f 63 24 39
f 626 39 24
f 24 63 1038
f 237 626 24
f 1038 237 24
f 25 122 99
f 1119 25 99
f 122 25 131
f 25 710 131
f 710 25 1113
f 1113 25 1119
f 55 83 26
f 189 55 26
f 83 231 26
f 560 189 26
f 231 267 26
f 267 560 26
f 348 27 476
f 27 348 1152
f 476 27 788
f 27 983 788
f 894 27 850
f 27 1114 850
f 983 27 894
f 1114 27 1152
f 280 28 248
f 248 28 1107
f 280 396 28
f 396 1107 28
f 80 248 29
f 80 29 251
f 248 779 29
f 29 252 251
f 29 779 252
f 174 30 31
f 1048 31 30
f 130 30 174
f 130 1081 30
f 325 30 346
f 1048 30 325
f 346 30 1081
f 133 31 1048
f 166 201 31
f 201 174 31
f 1187 152 32
f 1145 972 32
f 1187 32 972
f 63 39 33
f 336 33 39
f 69 63 33
f 1014 69 33
f 336 1014 33
f 44 36 34
f 202 34 36
f 76 34 42
f 34 472 42
f 1019 44 34
f 76 118 34
f 34 202 78
f 34 78 740
f 82 472 34
f 34 1108 82
f 118 127 34
f 127 872 34
f 1108 34 455
f 1162 455 34
f 872 1019 34
f 283 145 35
f 292 283 35
f 375 36 44
f 36 632 202
f 375 632 36
f 251 37 80
f 1128 80 37
f 252 37 251
f 252 346 37
f 255 37 346
f 37 255 1128
f 1165 38 1160
f 1165 1190 38
f 39 1157 336
f 626 1157 39
f 115 239 40
f 115 40 1127
f 163 40 315
f 163 957 40
f 957 1127 40
f 53 41 229
f 53 455 41
f 700 229 41
f 455 700 41
f 42 53 102
f 455 53 42
f 102 76 42
f 472 455 42
f 299 219 43
f 408 43 219
f 299 43 286
f 43 350 286
f 43 294 350
f 408 294 43
f 375 44 79
f 79 44 780
f 44 423 780
f 423 44 1167
f 1019 1163 44
f 44 1163 1167
f 57 87 45
f 45 1113 57
f 87 793 45
f 45 793 710
f 1113 45 710
f 92 100 46
f 92 46 362
f 100 129 46
f 46 129 126
f 46 126 362
f 1160 47 1165
f 49 48 778
f 1128 48 49
f 48 170 217
f 48 1128 170
f 48 217 280
f 778 48 280
f 49 248 80
f 80 1128 49
f 778 248 49
f 440 637 50
f 50 914 440
f 1027 50 637
f 1027 914 50
f 84 51 159
f 84 598 51
f 105 159 51
f 105 51 1099
f 177 51 598
f 1099 51 177
f 115 52 239
f 115 1127 52
f 1127 136 52
f 136 1176 52
f 52 227 239
f 834 227 52
f 1176 834 52
f 102 53 192
f 194 53 220
f 53 1091 220
f 286 53 229
f 1091 53 286
f 88 54 146
f 1025 54 88
f 54 415 146
f 415 54 900
f 795 836 54
f 795 54 1025
f 836 900 54
f 206 83 55
f 189 379 55
f 55 379 206
f 398 56 101
f 398 256 56
f 56 256 548
f 548 479 56
f 479 614 56
f 543 56 614
f 87 57 142
f 1119 142 57
f 1113 1119 57
f 219 58 176
f 58 837 176
f 219 350 58
f 294 58 350
f 294 928 58
f 928 837 58
f 226 74 59
f 74 408 59
f 408 176 59
f 176 837 59
f 226 59 837
f 135 73 60
f 60 73 212
f 243 60 128
f 60 333 128
f 274 135 60
f 212 545 60
f 243 274 60
f 333 60 545
f 61 91 93
f 91 61 849
f 93 671 61
f 671 849 61
f 875 265 62
f 265 1138 62
f 896 62 727
f 62 1138 727
f 875 62 1001
f 896 1001 62
f 63 69 1038
f 144 64 999
f 999 64 145
f 272 65 77
f 67 113 66
f 66 1145 67
f 114 113 67
f 297 68 336
f 68 297 874
f 336 68 1014
f 68 874 424
f 424 1126 68
f 1126 621 68
f 621 1174 68
f 68 1174 1014
f 1038 69 876
f 1158 876 69
f 1014 1180 69
f 69 1180 1158
f 70 244 184
f 70 184 297
f 70 1164 244
f 336 70 297
f 70 336 1164
f 110 76 71
f 1188 71 76
f 138 110 71
f 71 1188 138
f 240 543 72
f 72 1080 240
f 602 72 479
f 479 72 614
f 614 72 543
f 595 72 602
f 595 1080 72
f 135 186 73
f 186 413 73
f 698 212 73
f 413 698 73
f 275 74 226
f 275 407 74
f 407 408 74
f 406 75 278
f 75 519 278
f 320 75 406
f 75 320 682
f 75 682 519
f 118 76 90
f 76 147 90
f 102 192 76
f 1188 76 289
f 1192 272 77
f 78 632 92
f 92 740 78
f 202 632 78
f 375 79 1063
f 79 780 1063
f 111 710 81
f 82 455 472
f 1108 455 82
f 83 206 95
f 83 95 407
f 83 668 231
f 378 83 407
f 668 83 378
f 84 156 598
f 1105 156 84
f 84 159 1105
f 86 147 85
f 86 85 184
f 85 147 510
f 510 184 85
f 90 147 86
f 90 86 266
f 266 86 184
f 142 122 87
f 122 793 87
f 105 88 146
f 193 1025 88
f 89 301 316
f 301 89 766
f 89 316 357
f 89 357 1062
f 89 1171 766
f 1171 89 1062
f 118 90 266
f 93 91 465
f 91 198 274
f 91 849 198
f 274 436 91
f 278 91 436
f 278 465 91
f 92 1153 100
f 922 92 362
f 92 632 1063
f 1153 92 1063
f 436 243 93
f 671 93 243
f 93 465 436
f 478 94 1094
f 478 1101 94
f 812 831 94
f 94 1013 812
f 831 1094 94
f 1040 1013 94
f 1101 1040 94
f 206 161 95
f 161 331 95
f 331 408 95
f 407 95 408
f 671 243 96
f 96 243 887
f 671 96 849
f 96 873 849
f 96 887 873
f 135 97 186
f 97 135 198
f 186 97 338
f 198 338 97
f 112 99 122
f 112 499 99
f 99 499 766
f 625 99 766
f 1119 99 625
f 334 129 100
f 334 100 1153
f 227 370 101
f 370 511 101
f 101 511 398
f 299 262 104
f 262 1179 104
f 324 104 286
f 1091 286 104
f 299 104 324
f 1179 1091 104
f 959 105 146
f 105 959 159
f 464 455 106
f 1162 106 455
f 106 1169 464
f 106 922 861
f 106 861 1169
f 106 1162 922
f 395 132 107
f 107 132 1151
f 171 107 320
f 107 171 1154
f 107 283 682
f 283 107 999
f 320 107 682
f 1154 395 107
f 1151 999 107
f 108 117 155
f 117 108 177
f 1075 108 155
f 177 108 1099
f 199 185 109
f 283 109 185
f 292 109 283
f 110 138 236
f 236 523 110
f 131 111 352
f 111 131 710
f 393 111 134
f 111 393 352
f 1119 112 122
f 499 112 625
f 112 1119 625
f 269 113 114
f 268 269 114
f 119 137 117
f 117 177 119
f 137 155 117
f 118 266 127
f 119 598 137
f 119 177 598
f 308 120 133
f 308 181 120
f 181 1191 120
f 352 122 131
f 142 1119 122
f 710 122 352
f 710 793 122
f 650 123 406
f 123 884 406
f 650 690 123
f 690 884 123
f 399 124 344
f 124 976 344
f 399 509 124
f 509 609 124
f 976 124 609
f 296 834 125
f 834 1176 125
f 126 129 1153
f 362 126 861
f 126 1063 861
f 126 1153 1063
f 127 266 497
f 497 872 127
f 128 547 243
f 463 128 333
f 463 547 128
f 334 1155 129
f 1155 1153 129
f 130 174 201
f 201 979 130
f 130 979 1081
f 132 395 1151
f 308 133 364
f 133 1048 364
f 134 352 1074
f 393 134 356
f 134 1074 356
f 135 274 198
f 153 1176 136
f 296 136 370
f 370 136 511
f 511 136 957
f 1127 957 136
f 137 598 160
f 1176 137 160
f 137 1176 190
f 138 1074 236
f 138 261 1074
f 138 1188 289
f 139 141 217
f 139 779 141
f 312 139 217
f 1044 139 312
f 683 779 139
f 683 139 1044
f 420 140 398
f 1131 398 140
f 1144 140 420
f 442 529 140
f 140 1144 442
f 529 1131 140
f 141 976 217
f 141 248 688
f 248 141 779
f 688 976 141
f 283 999 145
f 193 959 146
f 1025 193 146
f 415 1025 146
f 287 148 217
f 217 148 1148
f 1120 148 287
f 1117 892 148
f 148 892 1148
f 1117 148 1120
f 977 149 640
f 640 149 1121
f 149 1028 916
f 149 916 1121
f 977 1020 149
f 1028 149 1020
f 478 506 151
f 151 1003 478
f 518 504 151
f 1003 151 504
f 506 897 151
f 151 897 518
f 152 1187 1005
f 1176 153 173
f 305 559 154
f 154 997 305
f 559 461 154
f 891 154 461
f 997 154 891
f 598 156 160
f 540 214 158
f 214 931 158
f 158 511 222
f 540 158 222
f 420 511 158
f 1144 420 158
f 931 680 158
f 680 1144 158
f 959 858 159
f 159 858 1105
f 187 161 206
f 161 187 378
f 161 275 331
f 275 161 378
f 259 162 247
f 431 247 162
f 259 1021 162
f 162 1021 431
f 163 315 168
f 511 163 168
f 511 957 163
f 284 164 165
f 165 164 379
f 183 187 164
f 633 183 164
f 208 164 187
f 379 164 208
f 164 284 348
f 348 309 164
f 633 164 309
f 189 165 379
f 165 189 560
f 284 165 1152
f 560 1114 165
f 1114 1152 165
f 201 166 979
f 204 365 166
f 383 204 166
f 166 365 979
f 315 222 168
f 222 511 168
f 170 312 217
f 255 312 170
f 255 170 1128
f 171 320 1154
f 232 172 405
f 232 1053 172
f 172 464 405
f 1053 464 172
f 1176 173 190
f 175 355 357
f 734 355 175
f 965 175 357
f 564 175 965
f 564 1029 175
f 734 175 1029
f 408 219 176
f 181 308 364
f 310 181 364
f 310 426 181
f 426 1191 181
f 531 533 182
f 531 182 841
f 533 720 182
f 182 720 1001
f 896 841 182
f 1001 896 182
f 187 183 906
f 183 544 313
f 906 183 313
f 633 544 183
f 510 232 184
f 874 184 232
f 184 244 266
f 297 184 874
f 682 283 185
f 372 600 185
f 1124 372 185
f 600 1154 185
f 185 1154 682
f 1168 186 338
f 413 186 1168
f 206 208 187
f 187 668 378
f 906 668 187
f 188 833 702
f 1004 188 702
f 730 833 188
f 921 730 188
f 921 188 1004
f 191 264 396
f 264 191 471
f 191 396 1148
f 471 191 1123
f 892 1123 191
f 892 191 1148
f 193 273 959
f 455 194 220
f 455 464 194
f 423 196 861
f 1167 196 423
f 998 196 470
f 196 1167 470
f 1169 861 196
f 998 1169 196
f 467 197 213
f 197 605 213
f 467 1138 197
f 197 918 605
f 1071 918 197
f 1138 1071 197
f 198 247 338
f 198 849 247
f 334 426 204
f 204 1155 334
f 204 789 365
f 383 1155 204
f 426 789 204
f 396 264 205
f 696 205 264
f 1107 396 205
f 840 205 696
f 205 840 1107
f 379 208 206
f 545 212 508
f 698 508 212
f 213 223 240
f 223 213 540
f 213 240 656
f 213 656 467
f 540 213 594
f 605 594 213
f 540 491 214
f 214 491 1033
f 214 1033 931
f 317 1005 216
f 216 1142 317
f 1005 842 216
f 842 1142 216
f 217 1148 280
f 217 929 287
f 929 217 976
f 350 219 299
f 220 262 1068
f 1179 262 220
f 220 1068 455
f 1091 1179 220
f 315 223 222
f 222 223 540
f 543 240 223
f 543 223 315
f 224 384 237
f 1145 224 237
f 384 224 932
f 224 1145 932
f 275 226 837
f 227 296 370
f 227 834 296
f 229 262 286
f 262 229 700
f 231 590 267
f 477 590 231
f 231 668 477
f 232 405 996
f 232 510 1053
f 996 874 232
f 233 1054 401
f 401 1134 233
f 833 654 233
f 1054 233 654
f 702 833 233
f 702 233 1134
f 236 393 356
f 236 356 1197
f 236 1074 393
f 1197 523 236
f 384 626 237
f 1145 237 1038
f 257 258 238
f 561 257 238
f 387 238 258
f 301 238 387
f 238 301 499
f 238 499 376
f 238 376 559
f 561 238 559
f 963 656 240
f 963 240 1080
f 466 241 309
f 241 633 309
f 241 389 351
f 241 351 633
f 389 241 775
f 954 241 466
f 954 775 241
f 436 274 243
f 547 887 243
f 244 497 266
f 623 497 244
f 623 244 1164
f 246 657 681
f 657 246 785
f 246 681 662
f 662 991 246
f 246 991 785
f 259 247 454
f 247 487 338
f 431 487 247
f 247 849 454
f 280 248 778
f 688 248 1107
f 346 252 325
f 683 325 252
f 779 683 252
f 255 346 312
f 1131 256 398
f 256 1102 548
f 1102 256 1131
f 258 257 816
f 561 816 257
f 387 258 659
f 258 962 659
f 816 962 258
f 1055 259 454
f 1055 1021 259
f 356 1074 261
f 356 261 1197
f 299 286 262
f 1068 262 700
f 263 429 276
f 1039 263 276
f 429 263 304
f 610 304 263
f 263 985 610
f 263 1023 985
f 263 1039 1023
f 416 264 471
f 264 416 696
f 265 875 790
f 265 790 947
f 947 804 265
f 804 1138 265
f 271 368 267
f 267 590 271
f 560 267 368
f 270 1012 745
f 1123 270 745
f 1076 1012 270
f 1123 1076 270
f 617 368 271
f 271 590 914
f 617 271 860
f 271 1027 860
f 271 914 1027
f 623 1164 272
f 1192 623 272
f 272 1164 1145
f 273 858 959
f 858 273 1105
f 273 1015 1105
f 1041 331 275
f 378 407 275
f 275 837 1041
f 439 276 429
f 276 439 878
f 878 1039 276
f 406 278 650
f 436 650 278
f 278 690 465
f 884 278 519
f 278 884 690
f 1148 396 280
f 382 573 282
f 282 742 382
f 282 573 980
f 282 777 742
f 282 803 777
f 803 282 980
f 348 284 1152
f 323 742 285
f 285 897 323
f 742 500 285
f 285 500 762
f 897 285 762
f 286 350 324
f 539 702 287
f 287 929 539
f 287 702 1056
f 287 1056 1120
f 408 331 294
f 331 928 294
f 803 980 298
f 803 298 1079
f 1082 298 980
f 1082 1079 298
f 324 350 299
f 316 301 387
f 301 766 499
f 522 302 361
f 302 1118 361
f 522 425 302
f 425 866 302
f 866 862 302
f 1118 302 862
f 304 582 429
f 582 304 610
f 561 559 305
f 1035 561 305
f 997 1043 305
f 1043 1035 305
f 397 344 306
f 661 306 344
f 1118 397 306
f 516 306 1107
f 1118 306 516
f 306 661 1107
f 348 453 309
f 466 309 453
f 310 364 1031
f 310 789 426
f 789 310 1031
f 458 311 405
f 905 405 311
f 458 563 311
f 563 905 311
f 1044 312 346
f 339 477 313
f 313 1059 339
f 477 668 313
f 313 544 758
f 668 906 313
f 1059 313 758
f 357 316 965
f 965 316 387
f 317 459 329
f 317 329 566
f 395 459 317
f 395 317 1151
f 317 566 1005
f 317 999 1151
f 1142 1192 317
f 630 319 696
f 630 731 319
f 679 696 319
f 319 1057 679
f 1058 319 731
f 319 881 1057
f 881 319 1058
f 406 1154 320
f 382 742 323
f 382 323 915
f 323 897 506
f 323 506 915
f 325 411 1031
f 1081 411 325
f 325 683 1044
f 1048 325 1031
f 325 1044 1081
f 389 751 326
f 389 326 907
f 751 1084 326
f 889 1051 326
f 1084 889 326
f 907 326 1051
f 566 329 459
f 928 331 1041
f 519 332 406
f 1154 406 332
f 519 682 332
f 682 1154 332
f 434 747 333
f 434 333 913
f 333 747 463
f 333 545 1072
f 913 333 1072
f 426 334 1153
f 1157 932 336
f 336 932 1164
f 338 487 367
f 1168 338 367
f 339 914 477
f 864 914 339
f 1059 864 339
f 1124 342 341
f 342 1124 343
f 397 399 344
f 688 661 344
f 688 344 976
f 1044 346 1081
f 348 476 453
f 389 907 351
f 544 633 351
f 907 544 351
f 352 393 1074
f 357 355 1062
f 1062 355 441
f 1095 441 355
f 734 1095 355
f 516 522 361
f 1118 516 361
f 861 922 362
f 1048 1031 364
f 365 789 979
f 699 759 366
f 800 699 366
f 713 800 366
f 713 366 908
f 759 908 366
f 487 392 367
f 970 367 392
f 367 970 409
f 367 409 1168
f 617 560 368
f 666 371 577
f 577 371 1122
f 371 666 618
f 866 371 618
f 866 691 371
f 691 1122 371
f 395 372 459
f 600 372 395
f 459 372 566
f 372 1124 566
f 763 537 374
f 537 899 374
f 715 786 374
f 374 899 715
f 374 786 763
f 632 375 1063
f 499 625 376
f 573 382 915
f 1155 383 857
f 626 384 932
f 965 387 659
f 751 389 775
f 391 441 746
f 1062 441 391
f 391 628 625
f 391 625 1171
f 391 746 628
f 1062 391 1171
f 546 392 487
f 546 500 392
f 970 392 500
f 1154 600 395
f 399 397 741
f 397 417 741
f 417 397 1118
f 398 511 420
f 800 509 399
f 741 699 399
f 800 399 699
f 401 828 428
f 401 428 1134
f 620 828 401
f 620 401 1054
f 934 819 402
f 819 1170 402
f 402 945 934
f 402 1170 945
f 403 596 468
f 403 468 1024
f 403 571 596
f 886 571 403
f 994 886 403
f 994 403 1024
f 1169 458 405
f 1169 405 464
f 405 905 996
f 406 884 519
f 852 895 409
f 1079 852 409
f 409 895 1168
f 970 1079 409
f 689 687 410
f 410 687 854
f 410 984 689
f 844 410 923
f 844 984 410
f 923 410 854
f 1031 411 979
f 979 411 1081
f 895 698 413
f 1168 895 413
f 415 900 795
f 415 795 1025
f 416 471 1123
f 416 723 696
f 723 416 745
f 416 1123 745
f 567 1065 417
f 567 417 1118
f 417 1065 741
f 689 418 687
f 687 418 1083
f 870 418 689
f 794 418 826
f 904 418 794
f 826 418 977
f 870 977 418
f 1083 418 904
f 1063 780 423
f 861 1063 423
f 498 424 835
f 424 498 1126
f 424 874 835
f 522 1057 425
f 832 866 425
f 881 832 425
f 1057 881 425
f 1191 426 1153
f 428 828 1076
f 1076 1117 428
f 428 1117 1120
f 1120 1134 428
f 439 429 588
f 582 588 429
f 431 546 487
f 431 1021 546
f 434 815 747
f 815 434 783
f 783 434 913
f 690 436 465
f 436 690 650
f 439 588 442
f 442 1144 439
f 878 439 680
f 1144 680 439
f 440 864 571
f 867 440 571
f 440 867 637
f 914 864 440
f 746 441 1095
f 529 442 460
f 588 460 442
f 461 449 891
f 988 449 461
f 770 449 611
f 611 449 819
f 770 891 449
f 449 988 819
f 453 954 466
f 453 476 513
f 453 513 798
f 954 453 798
f 454 849 873
f 1088 454 873
f 454 1088 1055
f 1068 700 455
f 563 458 998
f 458 1169 998
f 460 728 529
f 582 460 588
f 1141 460 582
f 728 460 1141
f 559 642 461
f 642 988 461
f 463 747 547
f 656 1138 467
f 758 551 468
f 1024 468 551
f 864 468 596
f 468 1059 758
f 864 1059 468
f 470 900 674
f 674 998 470
f 795 900 470
f 1167 795 470
f 476 883 513
f 788 883 476
f 477 914 590
f 1094 506 478
f 1003 968 478
f 1101 478 968
f 548 676 479
f 676 602 479
f 481 539 609
f 702 539 481
f 609 1109 481
f 481 1004 702
f 481 713 1004
f 1109 713 481
f 801 482 580
f 1095 580 482
f 746 482 652
f 801 652 482
f 746 1095 482
f 491 540 594
f 491 594 605
f 491 605 918
f 491 918 1033
f 1142 497 623
f 674 872 497
f 1142 674 497
f 498 835 1090
f 1090 876 498
f 1126 498 876
f 500 546 762
f 500 742 969
f 969 970 500
f 1021 504 518
f 1003 504 670
f 504 1055 670
f 1021 1055 504
f 915 506 1143
f 1094 1143 506
f 508 698 514
f 514 1139 508
f 545 508 1072
f 1034 1072 508
f 1139 1034 508
f 1109 609 509
f 800 1109 509
f 1053 510 523
f 513 973 798
f 883 973 513
f 698 765 514
f 744 514 879
f 514 744 1139
f 879 514 765
f 516 840 522
f 516 1107 840
f 897 762 518
f 518 762 1021
f 521 580 701
f 521 801 580
f 715 521 701
f 899 521 715
f 801 521 981
f 521 899 981
f 522 840 1057
f 1053 523 1197
f 728 1102 529
f 1102 1131 529
f 706 533 531
f 706 531 951
f 841 1116 531
f 531 1116 951
f 706 645 533
f 859 533 645
f 859 720 533
f 899 537 684
f 537 993 684
f 537 763 953
f 953 1129 537
f 1129 993 537
f 609 539 929
f 758 544 907
f 762 546 1021
f 761 547 747
f 761 982 547
f 982 887 547
f 797 676 548
f 548 1102 797
f 761 956 549
f 549 1013 761
f 812 549 815
f 812 1013 549
f 815 549 956
f 564 659 550
f 550 989 564
f 659 962 550
f 903 989 550
f 550 1037 903
f 1037 550 962
f 738 551 889
f 1024 551 738
f 758 889 551
f 617 850 560
f 560 850 1114
f 1042 816 561
f 1035 1042 561
f 563 718 905
f 563 1165 718
f 842 563 998
f 1190 563 842
f 1165 563 1190
f 965 659 564
f 989 1029 564
f 1124 1005 566
f 823 567 618
f 618 567 862
f 1065 567 823
f 1118 862 567
f 864 596 571
f 571 886 867
f 637 867 572
f 1121 637 572
f 867 653 572
f 572 653 1121
f 573 915 1032
f 573 1032 980
f 725 601 576
f 781 576 601
f 781 720 576
f 576 720 1045
f 1045 725 576
f 759 666 577
f 759 577 908
f 577 865 764
f 764 908 577
f 865 577 811
f 811 577 1122
f 658 701 580
f 580 1095 658
f 582 781 601
f 582 601 1141
f 781 582 610
f 666 593 618
f 593 823 618
f 666 759 593
f 593 759 823
f 951 595 602
f 595 951 697
f 697 1080 595
f 725 1141 601
f 645 602 676
f 706 602 645
f 951 602 706
f 728 838 606
f 606 1102 728
f 966 797 606
f 606 797 1102
f 838 966 606
f 609 929 976
f 781 610 843
f 1008 843 610
f 985 1008 610
f 684 611 934
f 993 611 684
f 993 770 611
f 934 611 819
f 644 617 860
f 1111 617 644
f 617 1111 850
f 866 618 862
f 882 828 620
f 882 620 961
f 961 620 1054
f 1126 784 621
f 1180 621 784
f 621 1180 1174
f 1192 1142 623
f 625 766 1171
f 1157 626 932
f 652 628 746
f 723 630 696
f 1002 630 723
f 731 630 1002
f 637 644 860
f 644 637 1121
f 1027 637 860
f 653 826 640
f 653 640 1121
f 977 640 826
f 652 1170 642
f 819 988 642
f 819 642 1170
f 644 916 1078
f 916 644 1121
f 1111 644 1078
f 676 797 645
f 645 797 966
f 859 645 1045
f 645 966 1045
f 651 691 832
f 890 691 651
f 651 787 693
f 890 651 693
f 651 1058 787
f 832 881 651
f 881 1058 651
f 801 927 652
f 927 1170 652
f 729 772 653
f 867 729 653
f 772 826 653
f 654 730 805
f 654 833 730
f 805 1054 654
f 1138 656 963
f 681 657 752
f 685 657 785
f 685 1093 657
f 752 657 1002
f 1002 657 1093
f 658 734 701
f 1095 734 658
f 1107 661 688
f 681 829 662
f 828 662 829
f 662 828 882
f 662 882 991
f 670 733 968
f 733 670 1088
f 670 968 1003
f 1088 670 1055
f 674 1019 872
f 900 1167 674
f 674 1142 998
f 674 1163 1019
f 674 1167 1163
f 677 715 701
f 734 677 701
f 786 715 677
f 734 989 677
f 1115 786 677
f 1115 677 989
f 840 696 679
f 679 1057 840
f 931 878 680
f 681 752 1012
f 829 681 1012
f 934 899 684
f 693 685 890
f 693 1093 685
f 785 1122 685
f 890 685 1122
f 1083 854 687
f 870 689 909
f 984 909 689
f 866 832 691
f 1122 691 890
f 787 1093 693
f 1092 697 727
f 697 1116 727
f 1116 697 951
f 1080 697 963
f 697 1092 963
f 852 765 698
f 895 852 698
f 741 1065 699
f 759 699 823
f 823 699 1065
f 1056 702 1134
f 800 713 1109
f 713 908 902
f 1004 713 902
f 831 1049 716
f 1143 831 716
f 915 716 1032
f 915 1143 716
f 1032 716 1133
f 1049 1133 716
f 835 905 718
f 1090 835 718
f 1038 718 972
f 972 718 1165
f 1038 1090 718
f 781 843 720
f 720 843 1001
f 720 859 1045
f 745 1002 723
f 966 838 725
f 1141 725 838
f 1045 966 725
f 1116 896 727
f 1138 1092 727
f 838 728 1141
f 772 729 994
f 729 867 886
f 994 729 886
f 730 764 805
f 921 764 730
f 1058 731 787
f 1093 787 731
f 731 1002 1093
f 1101 968 733
f 1010 733 982
f 733 1088 982
f 1010 1101 733
f 734 1029 989
f 738 889 750
f 995 738 750
f 995 1024 738
f 969 742 777
f 744 879 1052
f 744 1052 1139
f 752 1002 745
f 745 1012 752
f 761 747 956
f 956 747 815
f 904 794 750
f 995 750 794
f 889 904 750
f 751 775 854
f 1083 751 854
f 751 1083 1084
f 758 1051 889
f 758 907 1051
f 761 1010 982
f 1013 1010 761
f 786 1115 763
f 763 1125 953
f 1125 763 1115
f 865 805 764
f 764 902 908
f 902 764 921
f 852 1082 765
f 765 946 879
f 946 765 1082
f 1033 918 769
f 918 1071 769
f 1071 992 769
f 992 1087 769
f 1073 1033 769
f 1087 1073 769
f 851 863 770
f 770 993 851
f 997 770 863
f 997 891 770
f 772 794 826
f 794 772 995
f 994 995 772
f 814 1039 773
f 773 1073 814
f 878 931 773
f 773 1039 878
f 1033 773 931
f 1033 1073 773
f 854 775 954
f 777 803 1079
f 969 777 970
f 777 1079 970
f 783 1006 815
f 783 913 856
f 1000 783 856
f 1000 917 783
f 783 917 1006
f 784 1126 876
f 876 1158 784
f 1180 784 1158
f 811 785 991
f 811 1122 785
f 984 883 788
f 984 788 983
f 979 789 1031
f 875 1008 790
f 947 790 992
f 790 1087 992
f 1008 1087 790
f 1167 836 795
f 954 798 973
f 801 981 927
f 804 947 992
f 992 1071 804
f 804 1071 1138
f 865 961 805
f 961 1054 805
f 807 917 1000
f 1049 917 807
f 1086 807 1000
f 1133 1049 807
f 1086 1067 807
f 1067 1133 807
f 1039 814 809
f 814 1073 809
f 985 1023 809
f 1073 985 809
f 1023 1039 809
f 991 865 811
f 1006 812 815
f 1006 831 812
f 816 1037 962
f 990 1037 816
f 1043 990 816
f 816 1042 1043
f 1012 828 829
f 828 1012 1076
f 831 1006 1049
f 1094 831 1143
f 996 835 874
f 996 905 835
f 900 836 1167
f 928 1041 837
f 1116 841 896
f 998 1142 842
f 843 875 1001
f 875 843 1008
f 883 844 973
f 984 844 883
f 844 923 973
f 850 1111 894
f 851 1009 863
f 1043 851 986
f 851 1129 986
f 993 1129 851
f 851 1043 1009
f 852 1079 1082
f 954 923 854
f 913 1034 856
f 1052 1000 856
f 1139 856 1034
f 1052 856 1139
f 857 1153 1155
f 1153 857 1191
f 997 863 1009
f 865 882 961
f 991 882 865
f 870 909 1020
f 1020 977 870
f 982 873 887
f 873 982 1088
f 1090 1038 876
f 946 1067 879
f 879 1086 1052
f 1067 1086 879
f 1084 904 889
f 892 1117 1123
f 1020 894 948
f 1078 948 894
f 958 983 894
f 958 894 1020
f 894 1111 1078
f 934 981 899
f 1004 902 921
f 903 1115 989
f 903 1037 1125
f 1115 903 1125
f 1083 904 1084
f 909 983 958
f 1020 909 958
f 984 983 909
f 1032 946 910
f 946 1082 910
f 980 1032 910
f 980 910 1082
f 1072 1034 913
f 916 1028 948
f 1078 916 948
f 917 1049 1006
f 954 973 923
f 981 945 927
f 945 1170 927
f 932 1145 1164
f 945 981 934
f 946 1032 1133
f 1067 946 1133
f 948 1028 1020
f 1125 986 953
f 1129 953 986
f 1138 963 1092
f 972 1145 1038
f 1073 1008 985
f 986 990 1043
f 986 1125 990
f 1037 990 1125
f 1024 995 994
f 1009 1043 997
f 1052 1086 1000
f 1087 1008 1073
f 1010 1013 1040
f 1101 1010 1040
f 1174 1180 1014
f 1043 1042 1035
f 1056 1134 1120
f 1123 1117 1076
