# sdm_hand_600.obj  (600 v, 1180 f)  units: metres
v -0.124207243 -0.032700326 0.087824374
v -0.140955403 -0.019426635 0.076619104
v -0.110148340 -0.027782766 0.076027557
v -0.113279238 -0.023149140 0.069396041
v -0.118887790 -0.012032035 0.057682626
v -0.135990813 -0.005367735 0.088396206
v -0.105967626 -0.015943691 0.085945114
v -0.108314641 -0.009090240 0.081173144
v -0.103744335 -0.007167355 0.077757753
v -0.063616410 -0.007399301 0.025626233
v -0.062895842 -0.002121076 0.019021604
v -0.082854904 -0.014128596 0.041769248
v -0.086771965 -0.014201626 0.046734251
v -0.120026529 -0.020861253 0.097741932
v -0.118232198 0.000843922 0.073494963
v -0.113661893 0.002766807 0.070079572
v -0.073533967 0.002534862 0.017948052
v -0.069094315 0.004087776 0.014222741
v -0.092772461 -0.004194433 0.034091067
v -0.091042682 0.003442625 0.041737742
v -0.081546076 0.000597216 0.059131201
v -0.076583833 0.003630015 0.056645583
v -0.050026034 0.021746414 0.060299156
v -0.091463633 0.010531379 0.051453020
v -0.086501390 0.013564177 0.048967402
v -0.067262895 0.020293472 0.032824390
v -0.039999999 -0.005500000 0.180999994
v -0.039999999 -0.005500000 0.195999995
v -0.024000000 -0.005500000 0.180999994
v -0.018999999 -0.005500000 0.188999996
v -0.024000000 -0.005500000 0.195999995
v -0.018999999 -0.005500000 0.206000000
v -0.002000000 -0.005500000 0.188999996
v -0.002000000 -0.005500000 0.206000000
v 0.003000000 -0.005500000 0.184000000
v 0.003000000 -0.005500000 0.200000003
v 0.018999999 -0.005500000 0.184000000
v 0.018999999 -0.005500000 0.200000003
v 0.024499999 -0.005500000 0.167999998
v 0.037500001 -0.005500000 0.167999998
v 0.024499999 -0.005500000 0.180999994
v 0.037500001 -0.005500000 0.180999994
v -0.037999999 -0.003000000 0.085000001
v -0.025000000 0.020000000 -0.029999999
v 0.037999999 -0.003000000 0.020000000
v 0.025000000 0.002000000 -0.029999999
v 0.037999999 -0.003000000 0.085000001
v 0.025000000 0.020000000 -0.029999999
v 0.045000002 0.022000000 0.000000000
v -0.045000002 0.000000000 0.094999999
v -0.041499998 0.002500000 0.101000004
v -0.041499998 0.002500000 0.141000003
v -0.041499998 0.002500000 0.147000000
v -0.022500001 0.002500000 0.101000004
v -0.020500001 0.002500000 0.101000004
v -0.022500001 0.002500000 0.141000003
v -0.022500001 0.002500000 0.147000000
v -0.020500001 0.002500000 0.145999998
v -0.041499998 0.002500000 0.172000006
v -0.041499998 0.006718750 0.178000003
v -0.041499998 0.002500000 0.197999999
v -0.020500001 0.002500000 0.151999995
v -0.022500001 0.002500000 0.172000006
v -0.022500001 0.002500000 0.178000003
v -0.020500001 0.002500000 0.180000007
v -0.022500001 0.002500000 0.197999999
v -0.020500001 0.002500000 0.208000004
v -0.041499998 0.019500000 0.101000004
v -0.039500002 0.021000000 0.101499997
v -0.041499998 0.019500000 0.141000003
v -0.039500002 0.019500000 0.147000000
v -0.039500002 0.021000000 0.147499993
v -0.023901508 0.020100324 0.103010994
v -0.016421857 0.019500000 0.124134932
v -0.018500000 0.021000000 0.101499997
v -0.003428316 0.020250000 0.102098229
v -0.031573787 0.019500000 0.128315959
v -0.022500001 0.019500000 0.141000003
v -0.024499999 0.019500000 0.147249996
v -0.022500001 0.019500000 0.147000000
v -0.020500001 0.019500000 0.145999998
v -0.024499999 0.021000000 0.140499994
v -0.024499999 0.021000000 0.147499993
v -0.018500000 0.021000000 0.145500004
v -0.041499998 0.019500000 0.178000003
v -0.029802233 0.019500000 0.180376611
v -0.039500002 0.021000000 0.171499997
v -0.039500002 0.021000000 0.178499997
v -0.041499998 0.019500000 0.197999999
v -0.019500000 0.019500000 0.152124997
v -0.018500000 0.021000000 0.152500004
v -0.022500001 0.016484375 0.172000006
v -0.023500000 0.019384791 0.177524252
v -0.002500000 0.021000000 0.152500004
v -0.015589751 0.011749496 0.186000004
v -0.020500001 0.019500000 0.180000007
v -0.024499999 0.021000000 0.178499997
v -0.019500000 0.019500000 0.186000004
v -0.012306090 0.019875000 0.171002198
v -0.018500000 0.021000000 0.186499998
v -0.020500001 0.019500000 0.208000004
v -0.005500000 0.002500000 0.101000004
v 0.001500000 0.002500000 0.101000004
v 0.020500001 0.002500000 0.101000004
v -0.000500000 0.002500000 0.145999998
v 0.001500000 0.002500000 0.143000007
v 0.020500001 0.002500000 0.143000007
v 0.045000002 0.000000000 0.094999999
v 0.039000001 0.002500000 0.101000004
v 0.023000000 0.002500000 0.133000001
v 0.023000000 0.002500000 0.138999999
v 0.039000001 0.002500000 0.133000001
v 0.039000001 0.002500000 0.138999999
v -0.000500000 0.002500000 0.151999995
v 0.001500000 0.002500000 0.149000004
v 0.001500000 0.002500000 0.174999997
v 0.020500001 0.002500000 0.149000004
v 0.020500001 0.002500000 0.174999997
v -0.000500000 0.002500000 0.180000007
v 0.001500000 0.002500000 0.180999994
v -0.000500000 0.002500000 0.186000004
v -0.000500000 0.002500000 0.208000004
v 0.020500001 0.006718750 0.180999994
v 0.023000000 0.002500000 0.158999994
v 0.023000000 0.002500000 0.165000007
v 0.039000001 0.002500000 0.158999994
v 0.039000001 0.002500000 0.165000007
v 0.037500001 0.000750000 0.180999994
v -0.000500000 0.019500000 0.101000004
v 0.001500000 0.019500000 0.101000004
v 0.003500000 0.021000000 0.101499997
v 0.020500001 0.019500000 0.101000004
v 0.018500000 0.021000000 0.101499997
v 0.001500000 0.019500000 0.143000007
v 0.003500000 0.021000000 0.142499998
v 0.020500001 0.019500000 0.143000007
v 0.017562500 0.021000000 0.142499998
v 0.025000000 0.021000000 0.101499997
v 0.039000001 0.019500000 0.101000004
v 0.037000000 0.021000000 0.101499997
v 0.045000002 0.022000000 0.094999999
v 0.023000000 0.019500000 0.133000001
v 0.031051482 0.020812500 0.132467244
v 0.025000000 0.021000000 0.139500007
v 0.037000000 0.021000000 0.132499993
v 0.039000001 0.019500000 0.138999999
v 0.037000000 0.021000000 0.139500007
v -0.001687500 0.019250000 0.151468747
v 0.002500000 0.019500000 0.149000004
v 0.003500000 0.021000000 0.149499997
v 0.018500000 0.021000000 0.149499997
v 0.020500001 0.019500000 0.174999997
v 0.018500000 0.020625000 0.175500002
v -0.001752754 0.019875000 0.179720290
v 0.003500000 0.021000000 0.181500003
v -0.000500000 0.019500000 0.208000004
v 0.001500000 0.019500000 0.202000007
v 0.020500001 0.019500000 0.180999994
v 0.018500000 0.021000000 0.181500003
v 0.020500001 0.019500000 0.202000007
v 0.023000000 0.019500000 0.158999994
v 0.026171875 0.020031250 0.158593750
v 0.023000000 0.019500000 0.165000007
v 0.027531250 0.019500000 0.165250004
v 0.025000000 0.021000000 0.165500000
v 0.039000001 0.019500000 0.158999994
v 0.037000000 0.021000000 0.158500001
v 0.039000001 0.015218750 0.165000007
v 0.023000000 0.019500000 0.182999998
v 0.039000001 0.019500000 0.182999998
v 0.045000002 0.000000000 0.018183594
v -0.098970576 0.007581305 0.057332544
v -0.089053377 -0.007919744 0.036970385
v 0.036394988 0.019500000 0.170123660
v 0.039000001 0.019500000 0.147749997
v 0.023000000 0.019500000 0.147124997
v 0.031000000 0.002500000 0.138999999
v 0.037000000 0.021000000 0.136000000
v 0.039000001 0.019500000 0.126250002
v 0.031000000 0.002500000 0.131000000
v 0.031000000 0.002500000 0.101000004
v 0.020500001 0.019500000 0.188874999
v 0.011000000 0.002500000 0.149000004
v 0.003500000 0.021000000 0.145999997
v 0.020500001 0.019500000 0.131187506
v 0.020500001 0.019500000 0.108875005
v 0.001500000 0.019500000 0.108875005
v 0.001500000 0.019500000 0.127250006
v 0.001500000 0.019500000 0.137750007
v 0.001500000 0.002500000 0.127250006
v 0.011000000 0.002500000 0.143000007
v 0.011000000 0.002500000 0.101000004
v -0.000500000 0.019500000 0.194250004
v -0.020500001 0.002500000 0.190859371
v -0.015500000 0.002500000 0.186000004
v -0.010500000 0.002500000 0.151999995
v -0.010500000 0.002500000 0.145999998
v -0.002500000 0.021000000 0.098249998
v -0.041499998 0.019500000 0.185500002
v -0.041499998 0.002500000 0.184749994
v -0.031109375 0.002500000 0.197999999
v -0.039500002 0.021000000 0.174999997
v -0.041499998 0.019500000 0.151296876
v -0.032000000 0.002500000 0.147000000
v -0.024499999 0.021000000 0.143999993
v -0.022500001 0.019500000 0.127250003
v -0.031731181 0.010905331 0.090016377
v -0.032000000 0.002500000 0.141000003
v -0.032000000 0.002500000 0.101000004
v -0.066495501 0.009769199 0.027366895
v -0.011375000 0.021000000 0.152500004
v -0.020500001 0.002500000 0.201484374
v -0.031414063 0.021000000 0.101499997
v -0.030710938 0.021000000 0.178499997
v -0.072778069 0.004905008 0.020038231
v 0.019843750 0.002577813 0.200538982
v -0.127777824 -0.013594463 0.094754700
v -0.114303871 0.000432311 0.067888371
v 0.023000000 0.013468751 0.133000001
v 0.023000000 0.011781251 0.158999994
v 0.039000001 0.011781251 0.138999999
v -0.000500000 0.013046876 0.186000004
v -0.020500001 0.011000000 0.208000004
v -0.088695647 0.007467603 0.054310651
v -0.013528993 0.019500000 0.186996755
v -0.030945313 0.021000000 0.140499994
v 0.016709817 0.019500000 0.102094554
v -0.128486131 -0.007526456 0.075909770
v -0.022500001 0.008343750 0.197999999
v 0.001500000 0.005421875 0.202000007
v 0.030437500 0.021000000 0.139500007
v 0.001500000 0.013468751 0.101000004
v 0.020500001 0.013468751 0.143000007
v 0.020500001 0.013904442 0.172411002
v -0.120454378 -0.010958637 0.061094901
v 0.039000001 0.002500000 0.148999997
v 0.023000000 0.002500000 0.148999997
v -0.020500001 0.011781251 0.101000004
v -0.020250001 0.015827409 0.156607249
v -0.022500001 0.013046876 0.178000003
v -0.000500000 0.010937501 0.101000004
v -0.000500000 0.002500000 0.120687501
v -0.020500001 0.011781251 0.145999998
v -0.020500001 0.002500000 0.120687501
v -0.022500001 0.002500000 0.118500004
v 0.003053930 0.016383507 0.178611975
v -0.020500001 0.006718750 0.186000004
v -0.022500001 0.013468751 0.141000003
v 0.001500000 0.012000001 0.149000004
v -0.000500000 0.019500000 0.163812500
v 0.037500001 -0.005500000 0.174703121
v -0.024000000 -0.005500000 0.189144526
v -0.107982130 -0.013925815 0.084385484
v -0.116534956 0.000140495 0.070392613
v 0.037999999 -0.003000000 0.056577149
v 0.001500000 0.019500000 0.167484374
v -0.079507842 0.000769576 0.023380279
v -0.060088932 0.002589917 0.033994173
v -0.095057026 -0.002399351 0.039364438
v -0.125446635 -0.001679564 0.079548593
v 0.001500000 0.011413822 0.105856846
v -0.022500001 0.019500000 0.150125001
v -0.138473108 -0.012397185 0.082507655
v -0.002000000 -0.002500000 0.188999996
v -0.000500000 0.002500000 0.194644529
v -0.020500001 0.016048995 0.193150508
v 0.001500000 0.013053193 0.171894321
v -0.030625000 -0.005500000 0.180999994
v -0.029007357 0.005681553 0.178000003
v -0.093575027 0.000655262 0.041402319
v -0.100330211 -0.006768698 0.043576637
v 0.005625000 0.022000000 0.094999999
v -0.018500000 0.016000001 0.183000006
v -0.120639925 -0.015776129 0.063697391
v 0.001500000 0.019500000 0.188218748
v -0.026532638 0.019001095 0.167535439
v -0.091257814 -0.002799784 0.067280317
v 0.028761690 0.013696358 0.165000007
v 0.001500000 0.011000000 0.120589172
v -0.012028193 0.014473963 0.148935078
v 0.008539062 0.019500000 0.149499997
v 0.030493189 0.010739171 0.138999999
v 0.023000000 0.011781251 0.101000004
v 0.039000001 0.011781251 0.133000001
v 0.031000000 0.019500000 0.182999998
v 0.035000001 0.002500000 0.116666668
v 0.001500000 0.002500000 0.111500005
v -0.132742426 -0.027653363 0.082977597
v 0.037000000 0.016000001 0.162000001
v -0.072033251 -0.010343368 0.032688802
v 0.015973995 0.019500000 0.173318813
v -0.041499998 0.002500000 0.157937503
v -0.008937500 0.002500000 0.186000004
v 0.003500000 0.016000001 0.146000006
v -0.130411230 -0.015738464 0.067771490
v -0.039500002 0.019000001 0.142812501
v -0.065367292 -0.000038370 0.037411468
v -0.114055567 -0.002343046 0.072312158
v 0.023000000 0.002500000 0.115000003
v -0.032527344 0.021000000 0.147499993
v -0.034628917 0.019500000 0.151179181
v 0.039000001 0.002500000 0.125000002
v -0.041499998 0.013931680 0.151219307
v 0.025000000 0.016000001 0.136000000
v 0.039000001 0.013307839 0.127394231
v -0.034948935 0.017988466 0.195298794
v 0.001500000 0.013906251 0.143000007
v 0.029062497 0.021000000 0.135118301
v 0.025000000 0.017433884 0.161848610
v -0.069504959 -0.001500892 0.021067313
v -0.068312161 0.002307662 0.019244637
v -0.070791550 0.004791203 0.017325092
v 0.001500000 0.002500000 0.160375001
v 0.018500000 0.016000001 0.177999996
v 0.011000001 0.019500000 0.202000007
v 0.024499999 -0.002250000 0.180999994
v -0.025000000 0.020000000 -0.014999999
v 0.023000000 0.013821079 0.151278523
v 0.037000000 0.016000001 0.136000000
v -0.076958877 -0.004480437 0.046636570
v 0.031493974 0.014524205 0.134194988
v 0.023000000 0.013728401 0.140743790
v 0.010226190 0.019500000 0.129716258
v -0.039359639 -0.001745583 0.057312602
v -0.115835602 -0.006071684 0.070120431
v -0.000500000 0.019500000 0.116468752
v -0.010500001 0.019500000 0.208000004
v -0.077152188 -0.003157883 0.026269010
v -0.065494034 0.005114015 0.028604805
v -0.041499998 0.002500000 0.118500004
v -0.068166991 0.006574082 0.049583015
v -0.041499998 0.012730668 0.112372516
v 0.023000000 0.010785842 0.167126059
v 0.025000000 0.021000000 0.136875002
v 0.020500001 0.002500000 0.160781251
v 0.020250001 0.019500000 0.163890624
v -0.031154836 0.013800080 0.173485357
v 0.030920085 0.019500000 0.149382814
v 0.027291666 0.002500000 0.104916669
v 0.029500000 0.021000000 0.101499997
v -0.018500000 0.018562500 0.183332979
v -0.000500000 0.002500000 0.164250000
v 0.045000002 0.022000000 0.034326172
v -0.091467723 -0.004494663 0.040352656
v -0.112266166 -0.005132099 0.078113870
v 0.031600192 0.010369548 0.182999998
v 0.023000000 0.003326467 0.170123877
v 0.030125000 0.002500000 0.146000000
v -0.017206861 0.021000000 0.183539982
v -0.120983752 -0.011796237 0.064781029
v -0.014886066 0.019500000 0.153150941
v -0.087941713 -0.008494992 0.055628502
v -0.041499998 0.002500000 0.193656245
v -0.039390624 0.000312500 0.195999995
v -0.011196397 0.021000000 0.146964431
v -0.040691406 0.014320313 0.143625002
v -0.113867424 -0.024057454 0.073148240
v -0.000937500 -0.003000000 0.085000001
v -0.023683838 -0.000551293 0.184764134
v 0.004613281 0.020250000 0.175375003
v -0.030127969 0.021000000 0.144655203
v -0.022500001 0.013309426 0.183748976
v 0.007660156 0.021000000 0.148490368
v -0.031642431 0.009595682 0.178000003
v -0.008875000 0.021000000 0.186499998
v 0.020000001 0.013550387 0.106007163
v 0.030418995 0.002204690 0.181662105
v 0.010826066 0.002500000 0.157305133
v -0.030960938 0.002500000 0.178000003
v 0.038201505 0.003549730 0.182999998
v -0.022500001 0.013332121 0.111276316
v 0.023000000 0.016545927 0.113707852
v -0.018500000 0.021000000 0.149875004
v 0.027114954 0.006692417 0.173188197
v -0.117067957 -0.030203128 0.081833804
v -0.010420082 0.002500000 0.109717894
v -0.004263483 0.000000000 0.091144313
v -0.020500001 0.012382043 0.120078329
v -0.022500001 0.012026028 0.132535058
v -0.112600748 -0.018635049 0.072949528
v -0.031227000 -0.001020402 0.195999995
v 0.014449388 0.018843750 0.183442229
v 0.030437500 0.021000000 0.158500001
v 0.025000000 0.018500001 0.135447917
v 0.012039063 0.002500000 0.180999994
v 0.020500001 0.013585646 0.155453986
v 0.003125000 0.020000000 -0.029999999
v 0.013808921 0.015869587 0.145248541
v 0.012491128 0.021000000 0.145736796
v -0.022500001 0.019500000 0.194250000
v -0.025000000 0.006500000 -0.029999999
v -0.011318115 0.021000000 0.099487142
v -0.041499998 0.013854481 0.181533920
v -0.040069786 0.016274243 0.174164393
v -0.024499999 0.017250001 0.144276043
v 0.009814923 0.020625000 0.102089912
v 0.010079431 0.004937873 0.174499997
v 0.028275926 0.021000000 0.098973849
v 0.035946105 0.021000000 0.097674371
v -0.024718674 0.005408973 -0.004878610
v 0.002437500 0.001574617 0.189597082
v -0.074415650 0.015754251 0.041258300
v -0.002312500 0.020625000 0.185093749
v -0.010620459 0.021000000 0.181226019
v 0.001500000 0.012946191 0.136695350
v -0.093324036 -0.003468575 0.039910287
v -0.118598065 -0.011984725 0.061537269
v -0.011363281 -0.005500000 0.206000000
v -0.018999999 0.000500000 0.206000000
v 0.037000000 0.018473452 0.098655977
v -0.119956738 -0.003954905 0.069513671
v 0.029000000 0.002500000 0.182999998
v -0.070168474 0.003333750 0.018802268
v 0.024093750 0.018843750 0.139062500
v -0.116992501 -0.000397851 0.074454737
v 0.006830349 0.013977426 0.178819575
v 0.019843750 0.006717271 0.188014331
v -0.118083176 -0.006960020 0.063205605
v 0.045000002 0.008299667 0.049293291
v 0.012374999 -0.005500000 0.200000003
v -0.035766912 0.021000000 0.143017699
v 0.035281557 0.021000000 0.162091782
v 0.003500000 0.018500002 0.146625003
v -0.002000000 -0.001164691 0.196056832
v -0.016753852 0.016750467 0.099840591
v 0.045000002 0.012375000 0.094999999
v 0.013912086 0.014310858 0.137114364
v -0.024203125 0.000750000 0.195531245
v 0.003000000 -0.001250000 0.184000000
v 0.011000000 0.002500000 0.135177883
v 0.009414990 0.015683282 0.149000004
v -0.105840363 -0.018917619 0.060402184
v -0.018999999 -0.005500000 0.198396483
v -0.002000000 0.000500000 0.188999996
v -0.004957907 0.012487430 0.180875561
v -0.000500000 0.007932528 0.204097825
v 0.031875000 0.002500000 0.165000007
v 0.009208338 -0.003000000 0.039948399
v 0.019250000 0.017007813 0.146847186
v 0.020500001 0.006371621 0.126242491
v -0.002274381 0.018179859 0.098868396
v -0.066441709 0.016048989 0.026272113
v -0.025591959 0.016000001 0.175196436
v 0.003125000 0.002000000 -0.029999999
v -0.002000000 0.001345568 0.191053900
v -0.030718750 -0.005500000 0.195999995
v -0.063356398 0.005614057 0.021697161
v 0.039000001 0.012136473 0.106243989
v -0.061191320 0.013956231 0.036755994
v 0.006250000 0.011000000 -0.029999999
v 0.024124999 -0.000767320 0.172079901
v 0.011526140 0.019500000 0.164402445
v 0.029552282 0.012525771 0.143976259
v -0.041499998 0.011876884 0.190043898
v 0.009683872 0.021606472 0.031886278
v -0.003698285 0.021000000 0.147213139
v -0.034866339 0.006518818 0.197999999
v -0.034359377 0.003094843 0.184274556
v 0.039216796 0.000000000 0.054365728
v -0.039999999 -0.005500000 0.187474604
v -0.069005986 0.014677881 0.027810313
v 0.001500000 0.011856553 0.156311403
v -0.114858781 -0.016067789 0.060801888
v 0.017247369 0.016508904 0.176377784
v -0.006267412 0.006354224 0.186000004
v -0.123745613 -0.017135943 0.094862614
v 0.010954843 0.002500000 0.112277754
v 0.020500001 0.015092257 0.139609814
v 0.030450283 -0.005500000 0.174757189
v 0.032243156 0.003378849 0.177769206
v 0.025390260 0.000321359 0.168144243
v -0.121904584 -0.026179587 0.093286779
v 0.034562500 0.021000000 0.165500000
v 0.003000000 -0.005500000 0.193156252
v 0.045000002 0.000000000 0.071376954
v -0.022500001 0.015609376 0.147000000
v 0.026959759 0.021000000 0.162439742
v -0.010639927 0.002500000 0.135830735
v 0.018500000 0.021000000 0.099062498
v -0.005444659 -0.003030531 0.188999996
v -0.002000000 -0.005500000 0.197167967
v 0.024500000 0.002500000 0.182999998
v 0.010250000 -0.005500000 0.184000000
v -0.089289197 -0.001065458 0.041518459
v -0.032697647 0.002500000 0.116443311
v 0.031871365 0.019924669 0.095455452
v -0.031224190 -0.005500000 0.189387444
v -0.112933718 -0.021961915 0.074448759
v 0.029978204 0.014402009 0.160411268
v 0.028922173 -0.003000000 0.075762977
v -0.010201172 -0.005500000 0.188999996
v -0.115190904 -0.001143307 0.071358569
v -0.113503539 -0.026126842 0.075465173
v -0.032593749 0.002500000 0.195999995
v -0.018500000 0.018500001 0.148374999
v 0.025000000 0.011000000 -0.029999999
v -0.006232048 0.000975974 0.188852535
v -0.007381276 0.003350758 0.208000004
v -0.040250001 0.020250000 0.134781247
v -0.115290970 -0.024728581 0.086621612
v -0.020500001 0.002500000 0.168625002
v 0.030796875 -0.005500000 0.167999998
v -0.097782286 0.003411266 0.050402413
v -0.009482510 -0.005500000 0.195527074
v -0.088976670 -0.001889793 0.049239040
v -0.020500001 0.010762765 0.176498303
v 0.024499999 -0.005500000 0.174296871
v 0.037500001 0.000500000 0.167999998
v -0.007473876 0.019500000 0.191528041
v 0.037500001 0.001307758 0.169918523
v -0.032820313 0.019500000 0.140499994
v -0.000500000 0.013068694 0.189579079
v 0.011000000 0.016000001 0.174999997
v -0.017551095 0.001038806 0.190439435
v 0.035138181 0.014847163 0.099447031
v -0.014534343 0.000163343 0.205933594
v -0.053403754 0.002482199 0.004894442
v -0.018999999 -0.000937500 0.188999996
v 0.014717960 -0.000501110 0.183885247
v 0.037500001 0.001761469 0.175801767
v 0.038238622 0.008736683 0.002065743
v 0.011895815 -0.005500000 0.192221032
v 0.031203125 -0.005500000 0.180999994
v 0.033718750 0.019500000 0.101374999
v 0.013247547 0.006759735 0.143000007
v 0.008668110 0.019500000 0.141126031
v 0.011585937 0.021000000 0.142499998
v -0.024000000 0.002500000 0.188470698
v -0.018611509 0.019346753 0.098038138
v -0.039999999 -0.000411409 0.191881213
v -0.001727120 0.017805797 0.146118767
v 0.035379803 0.015624259 0.138999999
v -0.079700525 0.009387996 0.034779818
v -0.017260994 0.006295678 0.201475597
v -0.002984375 0.000812500 0.205800781
v -0.039512127 -0.001514885 0.182207203
v -0.018999999 -0.002616270 0.198138150
v -0.031620110 0.002500000 0.168815787
v -0.023595401 0.004341715 0.157613640
v 0.018579847 0.018642272 0.096696965
v 0.038500001 0.014021086 0.153086200
v -0.020500001 0.005818882 0.203331099
v -0.112200773 -0.018123938 0.091175344
v -0.041499998 0.004952796 0.192250865
v 0.023000000 0.005004192 0.178398808
v 0.018999999 -0.005500000 0.192718752
v -0.011946388 0.007712228 0.208000004
v 0.025054693 0.018806935 0.100760068
v -0.018999999 -0.002375000 0.206000000
v -0.030125683 0.000706141 0.180610306
v 0.023000000 0.017016077 0.171610903
v 0.010940625 0.021000000 0.178990462
v -0.031238631 0.014342203 0.144473547
v -0.121576147 -0.019309040 0.096542216
v -0.027759419 0.021000000 0.175508099
v 0.025299915 0.006507832 0.182999998
v 0.006391812 0.010716580 0.138769766
v -0.127538923 -0.029363069 0.085244985
v 0.005046659 0.021000000 0.098256611
v -0.110306558 -0.011597496 0.082585910
v -0.041499998 0.004878865 0.184206361
v 0.037500001 -0.001610695 0.171502674
v -0.120625273 -0.014659530 0.090956545
v 0.033107509 0.006085024 0.177301775
v -0.024499999 0.017554656 0.142896468
v -0.041499998 0.008343750 0.197999999
v 0.004290758 -0.001255109 0.199413207
v 0.033182998 0.000141378 0.167941452
v 0.037000000 0.019031250 0.136194362
v 0.037000000 0.018562500 0.162388721
v -0.107829350 -0.021215779 0.081528702
v -0.121451833 -0.025418014 0.076759613
v 0.034062570 0.000000000 0.086202032
v 0.004997484 0.017029615 0.099134668
v 0.031500000 0.002500000 0.156999997
v -0.018999999 0.000986916 0.202061374
v -0.011851169 0.002500000 0.162010880
v -0.020500001 0.005687500 0.208000004
v -0.022500001 0.003487803 0.192873083
v -0.000500000 0.013396959 0.157780522
v 0.037500001 -0.002375000 0.167999998
v 0.039000001 0.003892085 0.174713703
v -0.041499998 0.012693364 0.134713231
v -0.094698279 0.001512306 0.043962033
v 0.029871683 -0.002419197 0.180999994
v -0.012198776 0.003510576 0.179000005
v 0.034051026 0.019500000 0.142242982
v 0.018500000 0.021000000 0.145124998
v 0.009736850 0.004571083 0.202000007
v -0.125941753 -0.023086011 0.090662354
v -0.106474384 -0.000530737 0.070986140
v 0.025000000 0.020000000 -0.011250000
v -0.108568239 -0.013493186 0.069371898
v 0.001500000 0.015593751 0.140303984
v 0.007218750 0.008777981 0.143000007
v -0.034117007 0.019372251 0.105273103
v -0.000500000 0.012453764 0.127155538
v -0.041499998 0.013363160 0.161668339
v -0.000500000 0.013620910 0.106587337
v -0.045000002 0.022000000 0.000000000
f 375 500 1
f 572 375 1
f 500 472 1
f 472 590 1
f 572 1 558
f 1 590 558
f 228 2 263
f 2 228 295
f 2 590 263
f 572 288 2
f 288 590 2
f 572 2 295
f 493 3 375
f 3 500 375
f 488 3 493
f 488 571 3
f 571 500 3
f 380 4 274
f 4 572 274
f 380 488 4
f 488 572 4
f 418 271 5
f 271 463 5
f 463 418 5
f 563 6 217
f 590 217 6
f 260 263 6
f 563 260 6
f 263 590 6
f 543 7 253
f 7 571 253
f 543 571 7
f 8 380 345
f 563 8 345
f 563 380 8
f 277 591 9
f 593 277 9
f 591 593 9
f 258 290 10
f 310 258 10
f 290 310 10
f 18 11 447
f 11 18 517
f 324 207 11
f 11 207 447
f 400 324 11
f 400 11 517
f 173 328 12
f 484 173 12
f 290 320 12
f 328 290 12
f 484 12 320
f 13 271 352
f 432 271 13
f 432 13 352
f 472 500 14
f 590 472 14
f 14 500 543
f 554 14 543
f 554 590 14
f 260 15 411
f 260 415 15
f 15 415 411
f 172 218 16
f 591 172 16
f 492 16 218
f 492 591 16
f 215 17 257
f 215 310 17
f 17 310 257
f 447 442 18
f 442 600 18
f 18 600 517
f 484 20 19
f 20 533 19
f 257 173 19
f 484 19 173
f 257 19 533
f 20 224 25
f 533 20 25
f 224 20 503
f 20 259 270
f 20 484 259
f 20 270 584
f 20 584 503
f 224 277 21
f 352 224 21
f 277 352 21
f 331 224 22
f 224 484 22
f 331 22 320
f 22 484 320
f 213 23 69
f 23 596 69
f 73 23 213
f 23 73 272
f 449 207 23
f 23 207 596
f 455 23 272
f 23 442 449
f 442 23 600
f 23 455 600
f 172 224 24
f 172 24 503
f 24 224 503
f 25 224 402
f 533 25 402
f 402 449 26
f 402 26 461
f 26 449 461
f 268 487 27
f 536 268 27
f 27 487 460
f 536 27 460
f 381 354 28
f 354 530 28
f 381 28 446
f 28 487 446
f 460 487 28
f 530 460 28
f 29 359 252
f 487 29 252
f 29 487 268
f 550 29 268
f 550 359 29
f 504 433 30
f 30 433 518
f 491 504 30
f 514 491 30
f 514 30 518
f 359 31 252
f 31 446 252
f 359 428 31
f 428 446 31
f 32 504 408
f 516 32 408
f 504 32 433
f 32 537 433
f 516 549 32
f 549 537 32
f 264 424 33
f 480 264 33
f 33 424 481
f 491 480 33
f 504 33 481
f 504 491 33
f 408 504 34
f 516 408 34
f 424 34 481
f 424 535 34
f 34 504 481
f 535 516 34
f 401 429 35
f 474 401 35
f 429 519 35
f 522 474 35
f 35 519 483
f 522 35 483
f 36 522 420
f 567 36 420
f 522 36 474
f 36 567 474
f 37 519 417
f 417 546 37
f 483 519 37
f 522 483 37
f 546 522 37
f 216 38 546
f 216 567 38
f 522 38 420
f 38 567 420
f 38 522 546
f 451 471 39
f 507 451 39
f 471 502 39
f 502 507 39
f 251 469 40
f 562 251 40
f 469 502 40
f 502 568 40
f 562 40 581
f 40 568 581
f 316 507 41
f 585 316 41
f 507 523 41
f 523 585 41
f 562 128 42
f 128 585 42
f 42 469 251
f 562 42 251
f 523 469 42
f 585 523 42
f 324 358 43
f 324 43 377
f 43 358 377
f 387 44 317
f 44 400 317
f 391 44 387
f 391 400 44
f 438 45 255
f 45 521 255
f 438 400 45
f 400 521 45
f 444 496 46
f 521 444 46
f 496 521 46
f 490 255 47
f 255 573 47
f 358 490 47
f 358 47 573
f 496 387 48
f 387 592 48
f 592 496 48
f 343 49 455
f 343 521 49
f 49 521 455
f 50 207 324
f 377 207 50
f 377 50 324
f 207 209 51
f 332 207 51
f 209 485 51
f 332 51 330
f 51 485 330
f 208 52 485
f 208 553 52
f 485 52 330
f 52 583 330
f 52 553 356
f 583 52 356
f 204 539 53
f 553 204 53
f 303 53 292
f 292 53 539
f 303 356 53
f 356 553 53
f 207 54 209
f 207 371 54
f 209 54 485
f 54 371 245
f 485 54 245
f 102 376 55
f 425 102 55
f 55 378 238
f 425 55 238
f 376 244 55
f 244 378 55
f 208 485 56
f 553 208 56
f 245 379 56
f 485 245 56
f 56 379 248
f 553 56 248
f 57 539 204
f 553 57 204
f 539 57 476
f 57 553 476
f 280 58 197
f 197 58 478
f 280 243 58
f 243 378 58
f 58 378 244
f 478 58 244
f 292 538 59
f 598 292 59
f 59 337 394
f 538 337 59
f 598 59 394
f 393 85 60
f 85 394 60
f 393 60 200
f 60 536 200
f 364 369 60
f 364 60 394
f 369 536 60
f 201 61 354
f 201 457 61
f 353 354 61
f 566 353 61
f 457 566 61
f 280 196 62
f 196 577 62
f 280 62 239
f 62 501 239
f 501 62 577
f 276 92 63
f 92 538 63
f 276 63 539
f 63 538 539
f 64 269 240
f 362 64 240
f 369 269 64
f 362 359 64
f 369 64 359
f 506 501 65
f 501 586 65
f 586 506 65
f 201 428 66
f 457 201 66
f 229 457 66
f 579 229 66
f 579 66 428
f 212 516 67
f 578 212 67
f 498 67 516
f 498 547 67
f 578 67 547
f 207 332 68
f 596 207 68
f 332 499 68
f 499 596 68
f 596 213 69
f 356 296 70
f 296 499 70
f 499 356 70
f 71 301 72
f 499 71 72
f 203 301 71
f 356 203 71
f 296 356 71
f 296 71 499
f 301 300 72
f 300 421 72
f 421 499 72
f 206 371 73
f 596 206 73
f 207 73 371
f 207 377 73
f 596 73 213
f 529 272 73
f 377 425 73
f 425 529 73
f 74 392 75
f 529 74 75
f 74 326 76
f 74 76 392
f 280 74 81
f 74 378 81
f 84 355 74
f 373 84 74
f 74 280 495
f 74 531 326
f 355 456 74
f 495 373 74
f 378 74 425
f 74 529 425
f 456 531 74
f 392 529 75
f 326 129 76
f 129 441 76
f 198 392 76
f 198 76 441
f 206 77 78
f 77 553 78
f 205 77 82
f 82 77 226
f 205 565 77
f 596 77 206
f 226 77 511
f 511 77 499
f 77 596 499
f 565 553 77
f 379 206 78
f 379 78 248
f 78 553 248
f 262 80 79
f 80 476 79
f 205 83 79
f 300 79 83
f 395 205 79
f 79 301 262
f 301 79 300
f 553 395 79
f 476 553 79
f 262 476 80
f 280 81 243
f 81 378 243
f 361 205 82
f 361 82 226
f 205 361 83
f 361 300 83
f 373 355 84
f 199 86 85
f 86 394 85
f 393 199 85
f 202 86 88
f 88 86 214
f 93 97 86
f 362 93 86
f 97 214 86
f 306 86 199
f 394 86 202
f 86 306 390
f 390 362 86
f 202 87 394
f 202 555 87
f 394 87 276
f 87 555 276
f 555 202 88
f 555 88 214
f 306 199 89
f 199 454 89
f 306 89 566
f 89 454 566
f 91 90 211
f 91 373 90
f 90 351 211
f 90 239 351
f 495 239 90
f 373 495 90
f 373 91 211
f 337 92 276
f 92 337 538
f 93 555 97
f 362 240 93
f 240 364 93
f 276 93 443
f 555 93 276
f 443 93 364
f 148 94 211
f 148 456 94
f 94 456 211
f 98 95 247
f 98 341 95
f 95 293 195
f 514 95 195
f 247 95 514
f 95 341 273
f 95 273 435
f 95 465 293
f 465 95 435
f 239 96 99
f 96 435 99
f 239 506 96
f 506 435 96
f 555 214 97
f 225 100 98
f 349 98 100
f 266 225 98
f 266 98 247
f 349 341 98
f 99 148 211
f 250 148 99
f 99 154 250
f 154 99 404
f 211 351 99
f 99 351 239
f 341 349 99
f 99 435 341
f 349 404 99
f 225 365 100
f 365 349 100
f 101 266 223
f 547 101 223
f 509 266 101
f 327 509 101
f 547 327 101
f 425 241 102
f 241 599 102
f 376 102 242
f 102 599 242
f 192 467 103
f 574 192 103
f 261 232 103
f 232 574 103
f 261 103 287
f 103 467 287
f 192 104 467
f 192 574 104
f 104 366 440
f 574 366 104
f 467 104 440
f 280 197 105
f 197 478 105
f 105 478 242
f 531 105 242
f 531 280 105
f 405 190 106
f 430 106 190
f 191 106 430
f 191 595 106
f 405 106 307
f 106 595 307
f 191 430 107
f 525 191 107
f 440 233 107
f 233 525 107
f 107 430 440
f 108 515 377
f 573 108 377
f 426 108 475
f 426 515 108
f 573 475 108
f 181 109 339
f 515 109 181
f 286 339 109
f 448 286 109
f 515 448 109
f 299 180 110
f 321 110 180
f 321 219 110
f 219 372 110
f 372 299 110
f 282 177 111
f 177 348 111
f 237 322 111
f 237 111 348
f 322 282 111
f 180 302 112
f 321 180 112
f 112 302 284
f 321 112 284
f 282 113 177
f 177 113 348
f 282 221 113
f 221 541 113
f 236 348 113
f 541 236 113
f 196 280 114
f 196 114 577
f 280 580 114
f 114 342 577
f 580 342 114
f 183 368 115
f 431 183 115
f 431 115 249
f 115 462 249
f 368 313 115
f 313 462 115
f 267 313 116
f 397 267 116
f 313 397 116
f 183 117 368
f 431 117 183
f 368 117 335
f 117 386 335
f 386 117 439
f 117 431 439
f 335 234 118
f 234 397 118
f 397 335 118
f 342 435 119
f 586 342 119
f 435 586 119
f 401 246 120
f 416 120 246
f 416 385 120
f 385 519 120
f 519 401 120
f 465 222 121
f 222 512 121
f 497 121 265
f 121 512 265
f 121 293 465
f 121 497 293
f 265 436 122
f 265 122 535
f 436 498 122
f 498 535 122
f 123 158 182
f 123 382 158
f 417 123 182
f 416 382 123
f 416 123 385
f 123 519 385
f 519 123 417
f 220 318 124
f 575 220 124
f 124 318 237
f 575 124 237
f 347 333 125
f 333 437 125
f 471 347 125
f 437 471 125
f 541 126 236
f 126 575 236
f 541 489 126
f 489 575 126
f 278 168 127
f 168 582 127
f 437 278 127
f 568 437 127
f 582 568 127
f 370 367 128
f 367 585 128
f 582 370 128
f 562 520 128
f 520 582 128
f 326 441 129
f 130 261 187
f 396 130 187
f 232 261 130
f 574 232 130
f 396 574 130
f 559 131 396
f 131 574 396
f 131 559 574
f 186 132 227
f 186 366 132
f 132 366 227
f 396 227 133
f 227 479 133
f 479 396 133
f 189 134 526
f 189 594 134
f 307 388 134
f 594 307 134
f 388 526 134
f 184 135 526
f 184 527 135
f 135 527 526
f 233 185 136
f 136 185 526
f 439 233 136
f 439 136 526
f 389 137 527
f 389 588 137
f 439 526 137
f 588 439 137
f 137 526 527
f 398 138 340
f 138 548 340
f 398 548 138
f 179 448 139
f 179 139 524
f 448 515 139
f 139 515 524
f 140 398 340
f 524 140 340
f 399 398 140
f 399 140 524
f 141 343 272
f 486 141 272
f 141 419 343
f 426 419 141
f 486 426 141
f 321 143 142
f 143 372 142
f 321 142 219
f 142 372 219
f 143 178 145
f 569 143 145
f 178 143 147
f 143 231 147
f 143 179 524
f 179 143 569
f 308 231 143
f 334 308 143
f 384 143 321
f 384 334 143
f 548 372 143
f 548 143 524
f 334 144 231
f 144 414 231
f 334 414 144
f 178 569 145
f 175 541 146
f 587 175 146
f 532 146 221
f 146 541 221
f 146 532 569
f 146 569 587
f 178 147 569
f 231 587 147
f 587 569 147
f 250 580 148
f 531 148 280
f 280 148 580
f 148 531 456
f 184 149 150
f 150 149 281
f 184 423 149
f 249 256 149
f 431 249 149
f 256 281 149
f 423 431 149
f 363 184 150
f 363 150 281
f 151 363 336
f 439 151 336
f 588 363 151
f 439 588 151
f 152 291 153
f 464 152 153
f 336 152 234
f 152 464 234
f 336 291 152
f 153 159 382
f 153 552 159
f 552 153 291
f 382 464 153
f 154 580 250
f 404 403 154
f 403 435 154
f 435 580 154
f 360 246 155
f 155 246 382
f 552 360 155
f 552 155 382
f 156 436 193
f 509 156 193
f 156 509 327
f 547 156 327
f 156 547 436
f 157 401 230
f 589 157 230
f 382 275 157
f 401 157 275
f 382 157 315
f 157 589 315
f 158 382 182
f 159 552 382
f 382 160 182
f 160 417 182
f 417 160 216
f 160 589 216
f 382 315 160
f 315 589 160
f 162 176 161
f 220 162 161
f 176 220 161
f 338 176 162
f 489 162 220
f 162 309 477
f 162 489 309
f 338 162 383
f 477 383 162
f 278 163 164
f 163 551 164
f 278 333 163
f 333 551 163
f 164 473 165
f 477 164 165
f 473 164 174
f 164 551 174
f 309 278 164
f 477 309 164
f 473 477 165
f 175 338 166
f 541 175 166
f 338 541 166
f 338 383 167
f 422 338 167
f 383 422 167
f 278 174 168
f 174 582 168
f 285 174 169
f 169 174 551
f 346 285 169
f 346 169 556
f 169 551 556
f 170 174 285
f 582 174 170
f 346 170 285
f 346 370 170
f 370 582 170
f 419 475 171
f 419 171 521
f 475 459 171
f 521 171 459
f 172 503 218
f 591 224 172
f 328 173 257
f 278 570 174
f 473 174 422
f 174 570 422
f 587 338 175
f 176 318 220
f 322 318 176
f 322 176 414
f 176 338 414
f 305 179 284
f 179 321 284
f 179 305 448
f 321 179 569
f 299 286 180
f 302 180 286
f 515 181 339
f 363 389 184
f 389 527 184
f 526 423 184
f 185 366 186
f 396 185 186
f 468 185 233
f 396 323 185
f 185 323 526
f 366 185 440
f 440 185 468
f 227 396 186
f 279 188 187
f 188 396 187
f 279 187 261
f 323 188 189
f 188 405 189
f 279 405 188
f 396 188 323
f 526 323 189
f 405 594 189
f 279 287 190
f 279 190 405
f 287 467 190
f 467 430 190
f 595 191 525
f 509 193 403
f 193 512 403
f 512 193 436
f 212 266 194
f 212 194 576
f 266 247 194
f 247 514 194
f 514 576 194
f 293 514 195
f 392 198 441
f 454 199 393
f 353 200 530
f 353 544 200
f 393 200 561
f 536 530 200
f 200 544 561
f 494 201 354
f 428 201 494
f 276 301 203
f 394 276 203
f 356 303 203
f 598 203 303
f 598 394 203
f 395 565 205
f 379 371 206
f 447 207 449
f 210 310 215
f 215 413 210
f 329 210 258
f 210 449 258
f 329 310 210
f 413 311 210
f 210 311 447
f 210 447 449
f 355 373 211
f 456 355 211
f 542 266 212
f 516 212 576
f 578 542 212
f 461 215 257
f 312 413 215
f 461 312 215
f 216 546 417
f 567 216 589
f 563 217 590
f 411 254 218
f 254 492 218
f 218 418 411
f 418 218 503
f 575 489 220
f 282 532 221
f 435 403 222
f 403 512 222
f 222 465 435
f 223 266 542
f 542 578 223
f 578 547 223
f 591 277 224
f 331 402 224
f 352 505 224
f 505 484 224
f 509 225 266
f 365 225 509
f 421 361 226
f 499 421 226
f 226 511 499
f 366 540 227
f 540 479 227
f 263 260 228
f 411 228 260
f 295 228 350
f 411 350 228
f 390 229 362
f 362 229 579
f 390 457 229
f 230 401 567
f 589 230 567
f 308 334 231
f 231 414 338
f 231 338 587
f 439 388 233
f 388 525 233
f 440 468 233
f 386 234 335
f 386 336 234
f 464 397 234
f 407 350 235
f 235 350 418
f 407 235 418
f 348 236 575
f 318 322 237
f 348 575 237
f 378 425 238
f 239 495 280
f 501 506 239
f 240 269 364
f 241 425 441
f 599 241 441
f 478 376 242
f 242 597 531
f 599 597 242
f 478 244 376
f 379 245 371
f 246 256 267
f 256 246 360
f 397 246 267
f 246 275 382
f 246 401 275
f 397 464 246
f 513 416 246
f 246 464 513
f 462 256 249
f 446 487 252
f 380 560 253
f 253 571 380
f 563 543 253
f 560 563 253
f 411 492 254
f 255 490 438
f 521 459 255
f 459 573 255
f 256 462 267
f 452 281 256
f 452 256 360
f 310 328 257
f 461 257 533
f 258 297 290
f 297 258 331
f 258 310 329
f 258 449 331
f 270 259 584
f 505 271 259
f 271 584 259
f 484 406 259
f 406 505 259
f 415 260 563
f 261 287 279
f 301 276 262
f 476 262 276
f 424 264 434
f 264 480 434
f 424 497 265
f 535 424 265
f 265 512 436
f 462 313 267
f 550 268 536
f 364 269 369
f 505 352 271
f 271 418 503
f 432 463 271
f 503 584 271
f 272 343 455
f 441 272 529
f 441 540 272
f 540 486 272
f 273 341 435
f 295 350 274
f 572 295 274
f 350 380 274
f 276 443 337
f 276 539 476
f 352 277 593
f 489 289 278
f 289 570 278
f 489 278 309
f 333 278 437
f 336 363 281
f 452 336 281
f 321 282 304
f 304 282 414
f 321 532 282
f 414 282 322
f 339 299 283
f 299 372 283
f 515 339 283
f 283 372 548
f 515 283 548
f 302 305 284
f 299 339 286
f 305 302 286
f 448 305 286
f 572 590 288
f 289 489 541
f 570 289 541
f 320 290 297
f 290 328 310
f 452 291 336
f 452 360 291
f 291 360 552
f 303 292 598
f 539 538 292
f 497 514 293
f 423 388 294
f 431 294 388
f 294 431 423
f 297 331 320
f 298 492 325
f 593 298 325
f 593 492 298
f 361 421 300
f 384 321 304
f 384 304 414
f 306 457 390
f 457 306 566
f 307 595 388
f 307 594 405
f 413 447 311
f 413 312 447
f 312 442 447
f 461 442 312
f 397 313 368
f 382 416 314
f 464 382 314
f 416 464 314
f 451 316 367
f 316 585 367
f 316 451 507
f 387 317 455
f 317 400 455
f 321 319 532
f 321 569 319
f 319 569 532
f 324 490 358
f 400 438 324
f 324 438 490
f 345 380 325
f 325 492 345
f 325 380 350
f 593 325 350
f 326 599 441
f 326 531 597
f 597 599 326
f 332 330 583
f 402 331 449
f 332 583 499
f 347 551 333
f 384 414 334
f 397 368 335
f 336 386 439
f 394 337 364
f 443 364 337
f 422 570 338
f 570 541 338
f 340 548 524
f 580 435 342
f 586 577 342
f 419 521 343
f 406 484 344
f 505 406 344
f 484 505 344
f 492 415 345
f 345 415 563
f 367 370 346
f 346 556 367
f 347 471 451
f 545 347 451
f 347 545 551
f 365 404 349
f 407 593 350
f 418 350 411
f 593 432 352
f 530 354 353
f 566 544 353
f 354 381 494
f 499 583 356
f 488 493 357
f 572 488 357
f 493 572 357
f 377 358 573
f 362 579 359
f 359 550 369
f 428 359 528
f 579 528 359
f 389 363 588
f 365 403 404
f 509 403 365
f 540 366 574
f 367 412 482
f 412 367 556
f 451 367 482
f 550 536 369
f 572 493 375
f 425 377 574
f 515 540 377
f 377 540 574
f 380 571 488
f 563 560 380
f 381 446 428
f 494 381 428
f 477 422 383
f 391 387 444
f 387 450 444
f 496 450 387
f 387 455 592
f 388 423 526
f 388 439 431
f 525 388 595
f 400 391 444
f 441 529 392
f 561 454 393
f 565 395 553
f 479 540 396
f 540 559 396
f 486 398 399
f 540 398 486
f 548 398 540
f 486 399 410
f 410 399 524
f 521 400 444
f 455 400 600
f 400 517 600
f 401 519 429
f 567 401 474
f 402 461 533
f 593 407 418
f 549 516 409
f 516 576 409
f 576 549 409
f 486 410 515
f 515 410 524
f 415 492 411
f 412 556 482
f 513 464 416
f 463 593 418
f 419 426 475
f 422 477 473
f 445 424 434
f 497 424 445
f 425 574 441
f 515 426 486
f 428 528 579
f 467 440 430
f 463 432 593
f 433 537 518
f 497 445 434
f 480 497 434
f 435 506 586
f 547 498 436
f 568 471 437
f 559 540 441
f 574 559 441
f 442 461 449
f 496 444 450
f 545 451 482
f 561 544 454
f 566 454 544
f 455 521 592
f 573 459 475
f 530 536 460
f 563 466 554
f 466 590 554
f 563 590 466
f 502 469 507
f 507 469 523
f 502 471 568
f 514 480 491
f 480 514 497
f 556 545 482
f 591 492 593
f 521 496 592
f 498 516 535
f 500 571 543
f 501 577 586
f 510 562 508
f 568 510 508
f 562 581 508
f 508 581 568
f 510 520 562
f 568 520 510
f 537 514 518
f 537 576 514
f 548 540 515
f 520 568 582
f 537 549 576
f 563 554 543
f 556 551 545
f 590 572 558
