# sdm_hand_1200_mixw0.1.obj  (1200 v, 1686 f)  units: metres
v -0.059176758 -0.005846387 0.021900922
v -0.069094315 0.004087776 0.014222741
v -0.068354376 0.004346595 0.013601856
v -0.068571724 0.005567660 0.015462436
v -0.063345835 0.020366503 0.027859384
v -0.062823243 0.021846386 0.029099079
v -0.059628095 0.022090085 0.033008493
v -0.024874692 -0.005234651 0.181995564
v -0.045000002 0.000000000 0.000000000
v -0.045000002 0.022000000 0.000000000
v -0.040974012 0.022000000 0.055202013
v -0.041389882 0.000000000 0.093764880
v -0.017196899 0.002830597 0.142257593
v -0.038796877 0.019500000 0.101250000
v -0.039304562 0.020195313 0.147492230
v -0.018948661 0.018876110 0.102038049
v -0.018500000 0.021000000 0.094999999
v -0.004772066 0.019500000 0.101741858
v -0.002500000 0.021000000 0.094999999
v -0.018250000 0.020250000 0.151921874
v -0.024492840 0.016782773 0.179472070
v -0.005851570 0.019991292 0.175614571
v -0.003756250 0.004584665 0.155572121
v 0.002916473 0.018839840 0.101803760
v 0.018500000 0.021000000 0.094999999
v 0.037000000 0.021000000 0.094999999
v 0.045000002 0.022000000 0.094999999
v 0.001500000 0.019500000 0.180999994
v 0.003500000 0.019500000 0.180999994
v 0.003968750 0.020250000 0.181500003
v 0.024929753 0.019052565 0.149918003
v 0.037000000 0.018843750 0.165250004
v -0.007750000 0.003343750 0.103000002
v -0.037999999 -0.003000000 0.061476272
v -0.030781250 -0.003000000 0.020000000
v -0.036773200 -0.002058357 0.039555999
v 0.002499999 0.002000000 0.000000000
v -0.033000000 0.022000000 0.044999999
v -0.130312458 -0.026730699 0.085452835
v -0.087395704 0.001425270 0.053444107
v 0.031125514 0.002500000 0.166917087
v 0.037000000 0.021000000 0.162000001
v 0.001500000 0.019500000 0.196750004
v -0.017894545 0.018911521 0.185213244
v -0.042071476 -0.002026048 0.007589698
v 0.031029445 0.000000000 0.092281015
v 0.025000000 0.000000000 0.000000000
v 0.000000000 0.022000000 0.094999999
v -0.065958780 0.012967082 0.021660910
v -0.010500000 0.021000000 0.094999999
v 0.013750000 0.002000000 0.000000000
v 0.032500001 0.019312500 0.001093750
v -0.033917722 0.021250000 0.094923616
v -0.030593750 0.016000001 0.178000003
v 0.011000000 0.021000000 0.094999999
v -0.022500001 0.022000000 0.094999999
v -0.002000000 0.002500000 0.204140625
v -0.037999999 -0.003000000 0.033270762
v -0.037999999 -0.003000000 0.025308305
v -0.009000000 0.019500000 0.145500004
v -0.015000000 0.016000001 0.151999995
v 0.003000000 0.002500000 0.188000001
v -0.023250000 0.002500000 0.190550776
v 0.025110965 0.015270199 0.163698262
v -0.041499998 0.007943370 0.188027447
v 0.039000001 0.006718750 0.148208592
v -0.002646762 0.017922347 0.110386763
v 0.010332031 0.002500000 0.183625000
v -0.032000000 -0.005500000 0.180999994
v -0.004000000 0.000000000 0.000000000
v -0.064652307 0.016666792 0.024760147
v -0.053541651 0.022052603 0.014239096
v -0.057012890 0.012919544 0.006996444
v -0.054979681 0.001857366 0.005812280
v 0.034057910 -0.003000000 0.054613305
v -0.030090846 0.022000000 0.057187499
v -0.015504325 0.009986013 0.152875346
v 0.003542016 -0.002625000 0.030781276
v 0.000281250 0.000000000 0.011249153
v 0.031000000 0.021000000 0.094999999
v -0.040990544 0.003736982 0.194467645
v -0.024802987 0.009824499 0.167189950
v -0.135779778 -0.009702025 0.086840933
v 0.022500001 0.022000000 0.094999999
v -0.057812476 0.022078904 0.021358644
v -0.006500000 0.021000000 0.094999999
v -0.059947888 0.022092055 0.024918418
v -0.014500000 0.021000000 0.094999999
v 0.016066130 0.016535890 0.147169319
v 0.034187500 0.021000000 0.160848215
v -0.012026752 0.021000000 0.181893967
v 0.007250000 0.021000000 0.094999999
v 0.012553108 0.012215600 0.094999999
v -0.016240235 0.003365957 0.116111409
v -0.036231731 0.010510340 0.094999999
v 0.025004121 0.011390020 0.117863123
v 0.045000002 0.022000000 0.083124999
v -0.029062100 0.010769138 0.030544282
v -0.016983259 0.016000001 0.148740324
v 0.031022892 0.020625000 0.138724128
v 0.033972705 0.022000000 0.077187499
v -0.030582211 0.007422330 0.056712260
v 0.035288628 0.018532573 0.178611802
v 0.024491381 0.022000000 0.083681682
v 0.037000000 0.016000001 0.162000001
v 0.020500001 0.002708920 0.186600658
v -0.111558112 -0.021277805 0.086264722
v 0.035352678 0.000000000 0.087507813
v -0.020500001 0.002500000 0.164250000
v -0.124661606 -0.024524474 0.075836045
v -0.005429965 -0.001964142 0.206000000
v -0.036101066 0.002983143 0.034438719
v 0.037000000 0.018500001 0.161447911
v -0.002957067 0.009157803 0.116857482
v -0.118073176 -0.025933820 0.077161069
v -0.036367457 0.019367188 0.175372105
v 0.014750000 0.021000000 0.094999999
v -0.030296633 0.009589521 0.189974779
v -0.037964326 0.018902521 0.180909140
v -0.022614438 -0.003000000 0.022386012
v -0.067265252 0.009267370 0.018561673
v 0.034000000 0.021000000 0.094999999
v -0.062683633 0.008633069 0.010299150
v -0.061667028 0.003101981 0.009707068
v -0.051893697 0.018730429 0.040825502
v 0.028640625 0.002827539 0.156999997
v 0.011413767 0.022000000 0.080249537
v -0.039312500 0.000000000 0.081354921
v 0.005017217 0.019187102 0.134088112
v -0.059295379 0.014706436 0.021134095
v -0.006000000 0.002500000 0.188999996
v -0.032875180 0.016000001 0.097907865
v -0.001918315 0.022000000 0.081724462
v -0.001464553 0.013849465 0.085521538
v -0.039076419 0.016722728 0.192785740
v 0.033023770 -0.003000000 0.034729473
v -0.123478474 -0.016293506 0.066621014
v -0.022500001 0.002500000 0.126000003
v 0.026082439 0.017599841 0.134726563
v -0.028311553 0.018162047 0.114514743
v 0.002228390 0.012141534 0.183416201
v 0.013448719 0.018562719 0.160637705
v -0.034905079 0.016022634 0.174242681
v -0.018830212 0.008532353 0.190817680
v -0.045000002 0.008309933 0.067803193
v -0.026835099 -0.003000000 0.054725645
v -0.135689952 -0.015901743 0.077062993
v -0.025001159 0.019348646 0.173947070
v 0.033017352 0.021000000 0.100154707
v 0.030060762 0.012251378 0.145854873
v 0.026791230 0.005121450 0.143760957
v -0.040765624 0.019500000 0.138847224
v -0.017712746 -0.003000000 0.037286120
v 0.004411269 0.009807613 0.075942725
v -0.063999071 0.018516648 0.026309765
v -0.065305543 0.014816937 0.023210529
v 0.031482103 0.008727568 0.094999999
v -0.068535549 0.017891474 0.031681211
v 0.045000002 0.022000000 0.089062499
v 0.035760759 0.018366694 0.149811008
v -0.050624117 -0.003936217 0.014745310
v -0.032981467 -0.005500000 0.187239300
v 0.025269274 0.002500000 0.166938525
v 0.019215027 0.017925165 0.102840941
v 0.016198139 0.002717357 0.189277251
v 0.005082031 0.017250001 0.177801591
v -0.024070313 0.003058254 0.180179376
v -0.030060534 0.020250000 0.178158800
v -0.039871093 0.010322069 0.138342038
v -0.034978406 0.019500000 0.158890516
v 0.006814837 0.020195313 0.174043247
v 0.018503891 0.006979036 0.200335632
v -0.122702465 -0.014609266 0.092616639
v -0.013745890 0.021000000 0.146521497
v -0.032561887 0.003564934 0.103000002
v -0.123017281 -0.009011456 0.086953401
v -0.026851461 0.022000000 0.037499999
v -0.017353430 0.021000000 0.185019990
v -0.083353267 0.009376388 0.049608976
v 0.005670901 0.021000000 0.177554739
v -0.041132811 0.010308544 0.180115354
v 0.008687930 0.005490122 0.115940300
v -0.019281249 0.002500000 0.192187497
v 0.017872128 0.000641520 0.091989062
v -0.121960297 -0.026398373 0.084388339
v 0.013188285 0.002500000 0.160050222
v -0.057944725 0.011008542 0.014860290
v -0.027921083 0.019500000 0.102577168
v 0.037500001 0.001003927 0.170696108
v -0.001422772 0.003067434 0.187410403
v 0.024552332 0.005679884 0.166341387
v 0.004712217 0.017186392 0.084222864
v 0.023000000 0.007869242 0.174817632
v -0.004146569 0.021000000 0.147914115
v 0.030626562 0.015156729 0.165000007
v 0.019312501 0.003324984 0.181348883
v -0.008716727 0.014925240 0.155066513
v -0.024000000 -0.001380473 0.186251595
v 0.016891647 0.017524296 0.196176635
v -0.023820229 0.019500000 0.149284191
v -0.019998307 0.007275035 0.206702658
v 0.003636074 0.015149294 0.150072061
v 0.016625000 0.021000000 0.094999999
v -0.025828126 0.017193002 0.127024374
v -0.018036162 0.019441030 0.143340959
v 0.029450320 0.008348266 0.171092848
v 0.008019211 0.019570312 0.102536592
v -0.067918488 0.007417515 0.017012054
v -0.118131316 -0.026188705 0.084354599
v 0.008254296 0.019500000 0.183863479
v 0.018999999 -0.002969823 0.187028446
v -0.035226180 0.014577404 0.082287866
v -0.008500000 0.021000000 0.094999999
v -0.001428574 0.000712242 0.091054212
v 0.004027322 0.019739002 0.098698594
v 0.009012676 0.018469892 0.096300012
v 0.025000000 0.018558884 0.159460583
v 0.017889578 0.019248697 0.179295869
v -0.013837633 0.012862364 0.077926456
v -0.027227036 0.004557737 0.182718423
v 0.020500001 0.009028193 0.190777822
v -0.029175891 -0.005500000 0.182623302
v -0.128147657 -0.015494717 0.093521819
v -0.113914997 -0.021129348 0.070400968
v -0.041499998 0.002675707 0.184632807
v 0.032715218 0.019500000 0.167606763
v -0.022687501 0.003742247 0.194609026
v 0.037287817 0.018560966 0.133940211
v -0.007066825 0.018266167 0.147409167
v -0.032613627 0.002722497 0.050862653
v -0.061806292 0.011368210 0.018555402
v -0.029187500 0.015033463 0.141000003
v 0.010296875 0.016000001 0.101000004
v -0.056475156 0.003436174 0.017187513
v -0.023687501 0.013938743 0.194671625
v -0.028940316 0.003017862 0.067236140
v -0.002500000 0.018500000 0.149624997
v -0.020312500 0.014375000 -0.024899999
v -0.018999999 -0.000734043 0.199579851
v -0.003051555 0.019371094 0.153612015
v -0.018000000 0.019500000 0.179750003
v -0.018999999 -0.002223547 0.191819486
v -0.033588989 0.009801676 0.074870160
v -0.029852610 0.003066924 0.179546873
v 0.010979984 0.004517488 0.084429926
v 0.033431544 0.014368906 0.158999994
v -0.124025363 -0.019142863 0.082157213
v -0.009517593 0.001779706 0.202598437
v 0.030344865 0.016000001 0.162250558
v -0.013919728 0.002000000 -0.014763100
v 0.023000000 0.004045736 0.176639662
v -0.038821832 0.011276592 0.120661039
v -0.031879328 0.006039614 0.197999999
v 0.018999999 0.000882613 0.190863947
v -0.112344354 -0.016072765 0.088787284
v -0.109798043 -0.008466478 0.080417710
v -0.112176561 -0.022450272 0.080022961
v 0.004354062 0.022000000 0.029737294
v 0.041171875 0.001740736 0.061140089
v -0.031755963 0.003120523 0.183839739
v -0.075931869 0.012202462 0.046137401
v -0.091709480 -0.007206048 0.044641084
v -0.015918988 -0.005500000 0.204583394
v -0.116742607 -0.023267978 0.072207852
v -0.130704813 -0.025866324 0.081775252
v -0.003608125 0.020375000 0.183768019
v -0.117051822 -0.015326320 0.077245309
v 0.013852107 0.003689336 0.193788565
v -0.061100744 0.016535980 0.021532382
v -0.115741839 -0.024482186 0.074445415
v -0.068210446 0.012867930 0.024441003
v -0.018999999 0.002500000 0.198031248
v 0.024499999 0.002500000 0.179374994
v 0.023750000 0.002500000 0.180187494
v -0.010625631 0.016000001 0.183506481
v -0.005490754 0.022000000 0.067412949
v -0.004459404 -0.001347451 0.196503430
v 0.006336808 0.005001738 0.184548352
v -0.009315698 -0.005500000 0.197581616
v 0.001500000 0.008575609 0.192562401
v -0.065010702 0.003724288 0.011654462
v -0.065519004 0.006489832 0.011950503
v 0.001500000 0.003023203 0.193676471
v -0.043648090 0.022030577 0.018870024
v -0.124587703 -0.023752060 0.079941510
v 0.018999999 -0.002015830 0.190774431
v 0.027663914 -0.002625000 0.077895673
v 0.028609873 -0.000121191 0.053427368
v -0.119100867 -0.004663616 0.067491238
v -0.001437500 0.002500000 0.192984372
v -0.071088878 0.003934970 0.018436025
v 0.009218750 0.002500000 0.200000003
v -0.008624829 0.009481354 0.089606359
v -0.029471739 -0.000072406 0.183725944
v -0.121856635 -0.031092438 0.086868514
v -0.070845065 0.007985870 0.021527529
v 0.019912113 0.002601728 0.198500003
v -0.116043420 -0.029031744 0.080249167
v 0.018485942 0.018555693 0.125653340
v -0.029839972 0.019851563 0.139231626
v -0.002084453 0.006597546 0.081844457
v 0.015349535 -0.000083345 0.189958505
v 0.035222787 -0.001064393 0.177830920
v 0.014144518 -0.005500000 0.192818272
v -0.005819766 0.022000000 0.046851609
v -0.039999999 0.000500000 0.195999995
v 0.017206102 0.001086454 0.191553448
v -0.066612016 0.011117226 0.020111291
v -0.018081685 0.012699786 0.087732225
v 0.009358507 0.021000000 0.097572114
v 0.007606200 0.006526948 0.191947013
v -0.009718856 0.014899132 0.099296877
v 0.034434009 0.013575382 0.133000001
v 0.040909448 0.001827095 0.026631797
v 0.040824087 0.017419345 0.028137613
v 0.035608254 0.021000000 0.164396360
v 0.013423357 0.001388083 0.191788987
v 0.011451248 0.005053779 0.181089784
v -0.026226300 -0.001911707 0.187763161
v 0.023940195 0.018114302 0.177014622
v -0.006626906 0.018417137 0.184703388
v -0.002000000 -0.000471321 0.198598652
v -0.004758415 0.001720767 0.199181271
v 0.008967648 0.021000000 0.180390828
v -0.029317632 0.003498184 0.188570009
v -0.001250000 0.002654733 0.198010519
v -0.119883214 -0.021368327 0.081514225
v -0.123084322 -0.016013868 0.075888063
v -0.008052214 0.021000000 0.150056470
v -0.006509650 0.018023785 0.151024688
v -0.013651027 -0.003000000 0.069808968
v -0.013000000 0.019500000 0.179499999
v -0.107178333 -0.010250956 0.071071314
v 0.014045850 -0.005339557 0.184989962
v -0.001878008 0.017110423 0.100734965
v -0.038469182 0.016295535 0.102905843
v -0.064477049 0.012909783 0.028008202
v 0.005522735 0.014220136 0.094999999
v -0.112765845 -0.009740205 0.083220441
v 0.028286143 0.004255023 0.174711080
v -0.014116136 0.018525002 0.150532500
v 0.030508617 0.007927228 0.182999998
v -0.003937663 0.000945387 0.206000000
v 0.005262813 0.005656757 0.197907817
v -0.117705691 -0.022509007 0.079199743
v -0.121719356 -0.021197071 0.077949462
v 0.020500001 0.005854775 0.186371884
v -0.115514182 -0.027462578 0.083372633
v -0.025207148 -0.000082587 0.024649372
v 0.026151702 -0.003000000 0.051187416
v 0.018418202 -0.005096875 0.185229263
v 0.026235248 0.016539643 0.094999999
v 0.032633458 0.018374421 0.162881459
v -0.015115657 0.000000000 0.018123351
v -0.038437499 0.000000000 0.065179540
v -0.061846297 0.015108179 0.027454501
v 0.005807520 0.006631490 0.186369856
v -0.116540885 -0.027186868 0.078010962
v 0.025992660 0.002403609 0.179115739
v -0.066449260 0.013092800 0.030792408
v -0.115100141 -0.012436512 0.085608204
v -0.018199911 0.017000791 0.147187498
v -0.080782783 -0.009786068 0.040934284
v -0.114277119 -0.024915526 0.077399530
v -0.000500000 0.008286058 0.201105200
v -0.118464797 -0.013292157 0.088652978
v 0.007122316 0.003166167 0.195142704
v 0.029281384 0.001816051 0.006088697
v -0.023688121 0.004301478 0.197999999
v -0.035768019 0.019500000 0.134599407
v 0.016481429 0.009906595 0.072556503
v -0.064135537 -0.000879306 0.018061832
v -0.066614925 0.001604235 0.016142287
v -0.067854620 0.002846005 0.015182514
v 0.022677529 0.007352889 0.058086646
v 0.035069705 0.005647674 0.102000003
v 0.033902575 0.008416032 0.088950909
v -0.119464640 -0.003031004 0.076748778
v -0.015468261 0.022000000 0.027561407
v 0.005571422 0.002324889 0.186482301
v -0.013077073 0.005053003 0.208000004
v 0.037250001 0.002500000 0.180999994
v 0.037092982 0.006181132 0.182999998
v -0.039500002 0.018478005 0.098564918
v -0.120110268 -0.018575065 0.087967056
v 0.011275023 0.003438610 0.197150369
v -0.007294815 0.001677680 0.192075092
v 0.013941363 -0.003000000 0.068862434
v 0.027674300 0.004119080 0.170366895
v 0.010706174 -0.001158585 0.190562458
v 0.026786988 0.006098358 0.066533156
v -0.008750000 0.016000001 0.148624997
v 0.023159889 0.001057878 0.070429246
v -0.008375000 -0.005500000 0.188999996
v -0.010312986 0.020250000 0.152851199
v -0.059302421 0.014419853 0.024885502
v -0.127848000 -0.027272225 0.082879332
v -0.119308034 -0.021669492 0.078489602
v 0.001500000 0.004703346 0.196527277
v 0.038149686 0.018249040 0.096924393
v -0.005862826 0.010839646 0.186000004
v -0.117112351 -0.023703347 0.077198597
v 0.024499999 -0.000834508 0.170014679
v -0.118125312 -0.020190113 0.079091179
v 0.032230419 -0.005500000 0.177669019
v -0.012500000 0.021000000 0.094999999
v -0.120119100 -0.013212034 0.085039843
v -0.027968454 0.003566964 0.094124999
v 0.011754113 0.018272255 0.095446707
v -0.017742632 0.013578289 0.176543239
v -0.116571089 -0.020156428 0.079510907
v -0.011031089 0.003852649 0.083543811
v 0.013684837 0.002026728 0.186999590
v 0.018999999 0.002500000 0.193500002
v 0.010546875 0.009312500 -0.029177109
v 0.007342795 0.001473476 0.195844228
v -0.105632274 0.000808325 0.057475591
v -0.020296064 -0.003000000 0.075358989
v 0.023622716 0.004488854 0.181868673
v -0.035419240 -0.003001885 0.183905281
v -0.029708941 -0.003000000 0.081853488
v -0.086201417 -0.000822404 0.033935372
v 0.039000001 0.004840392 0.172149023
v 0.036493208 0.018859417 0.110154283
v -0.027968750 0.000000000 0.086250001
v -0.061836937 0.004885173 0.035711958
v -0.028116782 0.000803005 0.058297998
v -0.064065415 -0.004007126 0.026505175
v -0.007056015 0.015701738 0.208000004
v -0.027502452 0.002443377 0.185372807
v -0.031380953 0.001350045 0.184377203
v 0.023000000 0.003647502 0.172785755
v 0.013454445 0.017660365 0.092877925
v 0.025783372 0.001645280 0.175345661
v -0.018999999 -0.000857789 0.195991541
v 0.000429524 0.019050172 0.091244738
v -0.031952450 0.002500000 0.131630411
v 0.033283190 0.002666772 0.177170675
v -0.118512010 -0.024006656 0.075045509
v -0.126106015 -0.019067828 0.091244280
v 0.000339380 -0.003000000 0.077176481
v -0.015645994 0.017285599 0.117291618
v -0.035560865 0.008432676 0.064031259
v 0.025788020 0.003486895 0.059456688
v -0.116718094 -0.019539802 0.077716124
v 0.004614658 0.016000001 0.098791018
v 0.034538350 0.006773827 0.139523174
v -0.002000000 0.000018025 0.195312096
v 0.036209838 0.019079439 0.090744326
v -0.005630190 -0.001500000 0.082502918
v -0.007792776 -0.004168719 0.200018200
v -0.012843751 0.002500000 0.206000000
v 0.010810570 -0.005500000 0.192912020
v 0.028147227 0.000345182 0.173832159
v -0.010748408 0.001445052 0.198679745
v -0.003270334 0.001025410 0.195977383
v -0.031460738 0.005319794 0.184954032
v -0.018999999 0.000713067 0.202247682
v -0.031443998 0.002457336 0.186109869
v -0.054959803 0.017995385 0.021524111
v -0.031562577 -0.003000000 0.030962128
v -0.010899509 0.003793562 0.197630004
v -0.030401628 -0.003457043 0.180999994
v -0.016442724 -0.002558509 0.191759200
v 0.003000000 0.001038048 0.187596554
v -0.119013677 -0.018726466 0.081811944
v 0.031149212 0.002709823 0.048343938
v -0.009116006 0.018070602 0.091884059
v 0.009317861 0.002663214 0.193095989
v -0.023154297 0.016783381 0.139709998
v -0.110730368 -0.011698455 0.080918877
v 0.030112481 -0.004208216 0.168411020
v 0.035410266 0.004925801 0.165139887
v -0.125839525 -0.022901199 0.084719987
v -0.039999999 -0.003028155 0.191887047
v 0.011405859 0.018825487 0.090754283
v 0.018999999 0.000824678 0.199006207
v 0.013828559 0.015975261 0.098266005
v 0.019506232 0.016299293 0.094999999
v -0.002000000 0.000295278 0.191341379
v 0.014852933 0.015520410 0.083006380
v -0.010500000 0.000000000 0.085000001
v -0.061533108 0.009850690 0.025636136
v 0.025978963 0.000204322 0.167999998
v -0.013233927 0.002129535 0.195365995
v 0.021044605 0.007328315 0.085776411
v 0.005213190 -0.002208973 0.194739567
v 0.018999999 0.001222762 0.194750146
v 0.015860226 0.012608837 0.175833421
v -0.114702691 -0.021580001 0.079686061
v -0.034078125 0.002500000 0.180999994
v -0.117370370 -0.021631319 0.081682663
v -0.122728814 -0.025724826 0.078269165
v 0.003000000 -0.002355746 0.191203265
v 0.009125000 0.021000000 0.094999999
v -0.024000000 0.002500000 0.184281244
v 0.003106223 0.004998482 0.180999994
v -0.024000000 0.001582667 0.193951075
v -0.111325967 -0.023394283 0.083226536
v 0.030000000 0.000852366 0.180999994
v 0.031549055 -0.002392677 0.175870542
v -0.027719218 0.005171256 0.195013149
v -0.059728858 0.018124437 0.031235309
v 0.030393008 -0.001048462 0.171955473
v -0.011509659 0.000170218 0.192307678
v 0.037500001 0.000470238 0.174501095
v -0.003873065 0.004625000 0.130251071
v -0.119250133 -0.021594731 0.074516287
v 0.015907155 -0.001500000 0.082262566
v 0.011654510 0.001820245 0.195006588
v -0.114142660 -0.013998933 0.087069719
v -0.030042219 -0.003000000 0.039400222
v -0.116451333 -0.019519002 0.083155942
v 0.025767429 0.003712379 0.179155966
v 0.018999999 0.000227644 0.186904087
v 0.011033564 -0.004078920 0.190088337
v 0.026110108 0.019356413 0.166351745
v 0.008312500 0.000000000 0.085000001
v 0.013286567 0.001323809 0.196966200
v -0.117188644 -0.027832861 0.085056381
v -0.039184805 -0.004514501 0.195475842
v -0.020177983 0.008619931 0.064817677
v 0.014697243 -0.005500000 0.199298147
v 0.016311887 0.006449034 0.141322006
v 0.027747024 0.020687500 0.163181089
v -0.110857501 -0.016842180 0.079743049
v 0.026556674 0.014099331 0.099806977
v -0.012225146 -0.001076666 0.194759764
v -0.024000000 0.000371352 0.191102023
v -0.028573278 0.002135363 0.187784470
v 0.008322559 -0.003000000 0.043002884
v 0.011138233 -0.001183330 0.184000000
v -0.113339892 -0.026013922 0.082438498
v -0.004222399 0.000334590 0.188999996
v 0.006187916 -0.001792624 0.190691614
v 0.045000002 0.013745581 0.085350654
v 0.018999999 -0.000762472 0.194344786
v -0.012453125 0.002500000 0.188812497
v -0.118914295 -0.021587873 0.079923745
v 0.018423576 -0.001719607 0.200000003
v 0.024499999 0.002500000 0.176937495
v -0.065366068 0.019112641 0.028846560
v 0.004861671 0.002038937 0.191644355
v 0.037324737 -0.004348604 0.175201680
v -0.025588816 0.002500000 0.110630209
v -0.114479870 -0.022144263 0.081886443
v 0.008141327 0.001678318 0.190109295
v -0.111671710 -0.019692188 0.084301854
v -0.118529343 -0.028501724 0.080418797
v 0.011555494 0.002714678 0.036128396
v -0.010445880 0.003420051 0.060072952
v -0.033875001 0.019500000 0.101499997
v -0.120872162 -0.022881477 0.079491029
v -0.005169975 0.000518660 0.191596003
v -0.035377204 -0.000333969 0.180999994
v -0.062681851 0.006671153 0.017276763
v -0.114032976 -0.020545321 0.074414993
v 0.016344961 -0.000655128 0.192477886
v -0.034300862 0.000725634 0.183936891
v -0.020773047 0.000187523 0.069238238
v -0.118854466 -0.026971741 0.078729436
v -0.033758858 -0.003970423 0.180999994
v -0.017049598 0.000939089 0.198916638
v 0.029868926 -0.005500000 0.174982037
v -0.030606120 0.019500000 0.147802939
v -0.116373321 -0.004046150 0.071022553
v 0.017512360 0.000704225 0.184000000
v -0.124012826 -0.012453372 0.091805400
v -0.112775947 -0.013140347 0.083180923
v -0.039999999 0.002500000 0.186156244
v 0.013416286 -0.005500000 0.189548137
v -0.109871252 -0.020419484 0.079427197
v -0.110205957 -0.027255714 0.076783886
v 0.026677033 -0.002144617 0.173842912
v 0.025797659 0.000930471 0.180868043
v -0.027129165 0.021875000 0.092445124
v 0.033521359 -0.002894138 0.180999994
v 0.034177744 0.004175182 0.179891423
v 0.028131617 -0.000631458 0.177998442
v 0.026375000 0.002500000 0.180999994
v 0.024499999 0.002500000 0.172062497
v -0.028664650 -0.003000000 0.072567235
v 0.003082966 0.006976855 0.201759941
v 0.024499999 0.002500000 0.174499996
v 0.031593751 0.002500000 0.181343745
v -0.015000000 0.019500000 0.145500004
v -0.021044225 0.003622397 0.047054116
v -0.116116542 -0.015911909 0.082897272
v -0.002000000 -0.003579213 0.194771935
v 0.025789909 0.000742994 0.174314425
v 0.015080696 0.002864362 0.182828123
v -0.109593350 -0.023877512 0.078316892
v -0.035817835 -0.000353512 0.188202464
v 0.003297732 -0.002074117 0.184399585
v 0.004397069 0.003326501 0.191867335
v 0.016339117 0.004273974 0.187656807
v 0.006000332 0.002129688 0.192727790
v -0.119715361 -0.028921295 0.086911791
v -0.005421441 0.003231551 0.198608999
v 0.025769370 0.004259740 0.173684643
v 0.004789618 0.004985856 0.193400572
v -0.037362544 -0.005500000 0.188998106
v -0.125689551 -0.027653037 0.082424040
v -0.115275962 -0.025030377 0.079714601
v 0.037500001 -0.001793449 0.176850905
v 0.033459580 0.005388226 0.175137318
v -0.113820042 -0.020917840 0.089652083
v -0.125128846 -0.024687729 0.085503733
v -0.012616076 0.002332514 0.201038165
v -0.031733758 0.003524785 0.191815360
v 0.028114419 0.004330929 0.177383813
v 0.001500000 0.004907434 0.186782568
v -0.027037787 0.000183995 0.192548139
v -0.010016574 0.003237335 0.176244317
v -0.006869220 -0.005500000 0.195884362
v -0.126081036 -0.022999260 0.089635213
v -0.002299401 -0.003000000 0.052492089
v -0.008458004 0.000614111 0.045607551
v -0.118971740 -0.023730925 0.077684003
v -0.124251559 -0.019987283 0.093071056
v -0.031272815 -0.002016803 0.195999995
v -0.035750865 -0.005500000 0.184932502
v -0.039999999 0.000810128 0.191784339
v -0.032498928 -0.000621165 0.191333711
v 0.014765505 -0.002921439 0.191116297
v 0.023640004 0.013331313 0.156091943
v -0.012642586 -0.005500000 0.195560489
v -0.039999999 -0.002592847 0.182697047
v 0.030236279 0.004209286 0.179731189
v -0.115096927 -0.019066868 0.078805392
v 0.006796094 -0.002279739 0.184000000
v -0.125363800 -0.026046162 0.089219865
v 0.025000000 0.020250000 0.164375004
v -0.114688269 -0.023544051 0.076468160
v 0.034736335 -0.000283825 0.172908128
v -0.017025320 -0.003000000 0.081619733
v 0.008821580 0.003493161 0.188383564
v 0.011742710 0.005012518 0.193472931
v 0.002296875 0.002857612 0.198770432
v -0.003227313 -0.005500000 0.195681184
v -0.117711887 -0.019861697 0.076304842
v 0.031157604 0.011639690 0.152371668
v 0.033551647 -0.005500000 0.174626356
v -0.018999999 -0.002869383 0.198154103
v 0.024499999 0.000876997 0.170562496
v 0.016339803 -0.001875000 0.023918557
v -0.022254220 0.003438594 0.032142986
v -0.017494849 0.001346097 0.201772933
v 0.035147145 0.002182638 0.179232206
v 0.030572529 0.005240558 0.165000007
v 0.013893538 0.002000000 -0.013548751
v -0.017318269 0.003071179 0.197633531
v 0.004648949 0.003070731 0.189370056
v -0.110930911 -0.018098786 0.089192400
v -0.010365731 -0.001388694 0.188999996
v 0.009246320 0.001008893 0.061612828
v 0.029178525 0.001274549 0.170798464
v -0.035239220 0.016625001 0.144010767
v 0.037875001 0.002500000 0.168812498
v -0.008384238 0.000112542 0.206000000
v -0.004187500 0.020521775 0.097717100
v -0.037274898 -0.002203629 0.186612084
v -0.032721556 -0.005500000 0.183205819
v 0.018999999 0.002500000 0.186312500
v -0.119735877 -0.017500045 0.084914314
v -0.004106426 -0.003604447 0.192509090
v 0.004376918 0.001688585 0.189592083
v -0.033931628 -0.005500000 0.194284323
v -0.037093989 0.002360514 0.185769334
v 0.033240738 0.005649160 0.168676633
v -0.007176916 -0.000228567 0.203754419
v -0.018029693 -0.003648365 0.189486382
v 0.012728235 0.000590409 0.184000000
v -0.007739903 0.015133027 0.094999999
v 0.012067373 -0.002757566 0.187755937
v 0.003000000 0.000722288 0.197511799
v -0.039999999 -0.002048721 0.189196647
v 0.004805074 0.000726313 0.196049825
v -0.007726795 0.000498351 0.077530524
v 0.031289036 0.000595996 0.174779925
v -0.110758192 -0.025364392 0.079944206
v 0.002734375 0.017581592 0.182697976
v -0.004446585 -0.005415538 0.204711864
v 0.006878155 -0.005500000 0.192384717
v 0.026677062 -0.001056981 0.169679904
v 0.003513218 -0.005193194 0.190454599
v -0.028589505 0.015327250 0.145775426
v -0.123007022 -0.016606597 0.088197032
v -0.025057893 0.000621897 0.195999995
v -0.013794624 -0.004776883 0.205928060
v 0.037500001 -0.000888347 0.179738371
v -0.014210674 -0.001926469 0.206000000
v 0.006136369 0.002019443 0.198232654
v 0.011616629 -0.003000000 0.054420642
v 0.003000000 0.002500000 0.196000002
v -0.008460997 0.000170845 0.188999996
v -0.035609403 -0.002507463 0.188763080
v -0.026584703 0.002538219 0.190495252
v -0.008378171 0.003629011 0.186321292
v -0.027997616 -0.003939346 0.180999994
v -0.035357225 0.004145060 0.184374714
v -0.009056370 -0.001381326 0.198787811
v -0.114851767 -0.012200841 0.072085826
v 0.008078782 0.001996429 0.198705648
v -0.120877282 -0.026546220 0.091485503
v 0.005782942 0.003943177 0.198155154
v -0.018344040 -0.004867497 0.206000000
v -0.080375032 0.011128204 0.037902556
v 0.007485043 -0.001584234 0.193539694
v -0.003642312 0.019043233 0.187585381
v 0.031730627 -0.005500000 0.171287305
v -0.001891884 0.013440344 0.186708387
v -0.025106712 -0.004506370 0.195660772
v 0.028293607 0.003118631 0.174189411
v -0.014730865 -0.005500000 0.201337432
v -0.005281085 -0.002318623 0.201430685
v -0.009292649 -0.005203338 0.205717188
v 0.028523564 -0.003697267 0.178084483
v -0.036600441 -0.005115750 0.195316337
v 0.006739713 0.000091980 0.048305898
v -0.127825729 -0.023243396 0.087856849
v -0.003803392 -0.004440544 0.189071261
v 0.003000000 0.000329640 0.190607017
v 0.036735008 -0.003220886 0.180580872
v -0.018712719 0.000028075 0.189150791
v -0.120559617 -0.022063310 0.085937545
v 0.006674880 -0.000806620 0.187387283
v -0.010408830 -0.003951186 0.188999996
v -0.031393091 -0.005500000 0.189730444
v -0.039999999 0.002500000 0.191312495
v 0.035241653 -0.005500000 0.180314849
v -0.034130280 0.004030310 0.022427965
v 0.015746104 0.000405655 0.194965292
v -0.059872624 0.019063309 0.026918776
v 0.004903749 -0.005500000 0.197671614
v 0.013146550 -0.000222933 0.070882337
v -0.035351225 -0.005500000 0.191086890
v -0.014618521 0.000746688 0.199265403
v -0.037628099 -0.001384614 0.180999994
v 0.003370429 -0.005205032 0.187152994
v -0.018101470 -0.005500000 0.190325966
v -0.112350581 -0.019551611 0.076834226
v 0.014232355 -0.000443134 0.200000003
v -0.017269653 0.001043828 0.075776175
v -0.112888257 -0.017244851 0.082654727
v 0.033885181 0.000076252 0.180999994
v 0.036682212 0.003558457 0.177471074
v 0.027689012 0.001165929 0.176727228
v -0.004500000 0.021000000 0.094999999
v -0.002260936 -0.002892813 0.190434807
v -0.118256236 -0.029859218 0.083133120
v 0.036436598 0.000415312 0.168171008
v -0.026218036 -0.002092585 0.183705646
v -0.017512236 0.018913335 0.157001045
v 0.003705900 0.000450905 0.184812407
v -0.123389911 -0.029255640 0.087326211
v -0.012562932 0.004895879 0.191492997
v -0.029278046 0.000544086 0.189495134
v 0.017984374 0.002500000 0.183652343
v 0.037500001 0.002082519 0.177720396
v 0.011903777 -0.005500000 0.186793374
v 0.012064562 -0.005500000 0.196668545
v -0.006900208 -0.001135776 0.195396917
v 0.003000000 -0.001368823 0.186511601
v 0.014940677 -0.001281377 0.184000000
v -0.115066424 -0.017223018 0.091307877
v -0.016614809 0.000090440 0.188999996
v 0.029694364 -0.005361556 0.179475722
v 0.024499999 0.000824737 0.178661582
v -0.122788066 -0.025503069 0.087953796
v 0.037000000 0.018625000 0.163329531
v -0.018999999 0.000851927 0.193886652
v 0.009579482 0.001119668 0.198217420
v -0.121559688 -0.016530686 0.089171765
v 0.027476026 -0.005149419 0.167999998
v -0.014407885 -0.001302889 0.196555608
v 0.018999999 -0.003966495 0.194964108
v 0.012577830 -0.003523943 0.184000000
v 0.007103796 -0.005500000 0.188658728
v -0.000508106 0.015509245 0.094999999
v -0.090415186 0.007281285 0.045893759
v -0.024685818 -0.001044034 0.195556276
v 0.004709925 0.000413444 0.192889005
v 0.039750000 0.000000000 0.041676316
v -0.003080152 0.016306451 0.181832736
v -0.016500000 0.021000000 0.094999999
v -0.017000000 0.020054567 0.097793292
v -0.124737991 -0.030108477 0.084954092
v -0.011487512 -0.003463273 0.206000000
v -0.011633503 -0.005500000 0.203798351
v 0.032081755 -0.004833640 0.180999994
v 0.015206432 -0.005500000 0.196154295
v -0.109261327 -0.016869482 0.081633914
v -0.116136139 -0.021439225 0.091969103
v -0.002954241 0.017718751 0.147662380
v 0.018026859 -0.005345441 0.197195036
v 0.019422777 0.006275209 0.024333800
v 0.008270844 0.000672261 0.184000000
v 0.011143015 0.004765523 0.198020794
v 0.009772789 -0.005500000 0.189045369
v 0.034664968 -0.003305196 0.177230363
v 0.004956137 0.006441892 0.048055201
v -0.011436792 -0.002928281 0.196718363
v 0.011576560 -0.001915397 0.196662547
v 0.003149125 -0.001758060 0.198424092
v -0.025338906 0.015696002 0.100645521
v -0.039999999 -0.000457092 0.186239049
v 0.018999999 -0.001309039 0.197595433
v 0.012542555 0.004376173 0.190931073
v -0.006029114 -0.002085227 0.188999996
v 0.019171296 -0.003000000 0.046621326
v 0.037500001 -0.002361469 0.172589682
v -0.015323091 0.005462725 0.197654914
v -0.125166511 -0.031029656 0.087377590
v -0.016637017 -0.005500000 0.194014622
v -0.118039306 -0.016676003 0.091908087
v -0.118932812 -0.022482918 0.094231089
v 0.018576951 0.003999583 0.183696432
v -0.005717146 -0.005500000 0.200857553
v 0.015845072 0.004291300 0.101000004
v 0.025906265 0.022000000 0.054065024
v -0.006926414 -0.005500000 0.191825877
v -0.124928945 -0.016279799 0.093331113
v -0.029393217 0.001940704 0.191478858
v 0.012187501 0.000675597 0.200000003
v -0.012222548 -0.005500000 0.199535778
v -0.018999999 0.001012471 0.198412380
v 0.014971031 -0.002505232 0.196618477
v 0.033424877 -0.003376690 0.167999998
v -0.016140937 0.004431149 0.203296889
v -0.030237381 -0.001864268 0.185974661
v -0.028185880 -0.001970404 0.195999995
v -0.030417980 -0.005500000 0.186547949
v -0.002339586 -0.005217937 0.192351725
v 0.031971453 -0.000724719 0.179161366
v -0.017232277 -0.003111574 0.206000000
v -0.034144777 -0.003442361 0.193057551
v -0.024000000 -0.000318360 0.189308328
v 0.037500001 -0.001533863 0.169623403
v 0.009554656 0.002087626 0.196756124
v -0.018999999 -0.002677572 0.202117110
v -0.018999999 -0.003851719 0.204733347
v -0.115832263 -0.023586838 0.088797981
v -0.117286889 -0.021847226 0.088319255
v -0.035647527 0.021000000 0.101105823
v 0.032693312 0.000293996 0.167999998
v -0.124050782 -0.023975144 0.091647973
v -0.119297032 -0.018445406 0.090107764
v -0.039536368 -0.004363212 0.181472244
v -0.034280918 -0.001605941 0.195999995
v -0.108737992 -0.018409562 0.086333084
v 0.008146984 0.018839953 0.092995580
v -0.001776645 0.003874710 0.205534086
v 0.017471437 0.006085581 0.184414341
v -0.003818998 -0.001580881 0.192001681
v 0.041828126 0.000703418 0.078761351
v -0.036188512 -0.001263150 0.192572698
v -0.012407393 -0.003310885 0.190832913
v -0.116189709 -0.023294005 0.083746775
v -0.124952774 -0.021003895 0.087898572
v -0.115631173 -0.017007729 0.075256257
v 0.005437500 0.002500000 0.200000003
v -0.032429007 -0.003064676 0.188383097
v -0.012988867 -0.002070294 0.202002562
v -0.107661462 -0.018598464 0.083934889
v -0.126652568 -0.027080182 0.087252935
v -0.121551176 -0.019436508 0.086440023
v 0.017654931 -0.005500000 0.194194154
v -0.022991884 0.013041539 0.147958345
v -0.109987240 -0.013541113 0.084771493
v 0.017269531 0.019291119 0.097249507
v -0.039999999 -0.004496622 0.189051118
v 0.003000000 0.002500000 0.193000002
v 0.038145834 0.005939652 0.121604951
v -0.025290417 -0.005370478 0.192790676
v 0.011213645 0.014957081 0.180999994
v -0.002000000 -0.003648232 0.197451937
v 0.006195312 0.002500000 0.182662107
v 0.024499999 -0.005025065 0.169651152
v -0.015389591 -0.005500000 0.197068217
v -0.002358960 -0.004766254 0.201152580
v 0.003000000 -0.003059225 0.187959172
v -0.028793859 0.002574842 0.196499996
v -0.016354595 -0.001501999 0.199882425
v 0.027759996 -0.001207134 0.175604988
v -0.012703199 -0.003000000 0.057898871
v 0.044706865 0.013899321 0.067355055
v 0.035054301 0.003137903 0.172374872
v -0.116842129 -0.018765585 0.088940717
v -0.016352046 -0.002997744 0.195942379
v -0.011072593 0.022000000 0.079326767
v -0.111414242 -0.015324490 0.076210643
v 0.019506003 0.000479777 0.046000421
v -0.029662299 -0.005500000 0.192938132
v -0.006305707 0.000250000 0.012037520
v -0.059033532 0.000176477 0.015753788
v -0.024336914 0.000261556 0.181925780
v -0.122150338 -0.022531244 0.094514731
v -0.004449789 -0.005500000 0.197880334
v -0.032076520 0.001671409 0.183147110
v -0.002587804 -0.004146723 0.205698405
v -0.031145507 -0.002071290 0.183262543
v -0.093722934 -0.010672783 0.060278179
v 0.003306138 -0.004460780 0.184733082
v -0.113823282 -0.012320153 0.080823454
v -0.120265008 -0.024137114 0.081273458
v 0.011415961 -0.004906423 0.199587240
v -0.002000000 -0.002351003 0.202969108
v -0.008073713 -0.005500000 0.203861626
v -0.024000000 0.000755931 0.186392559
v 0.027389046 -0.002381127 0.167999998
v -0.020500001 0.003924626 0.202268409
v 0.004531661 0.000463856 0.200000003
v 0.010582732 -0.004533480 0.184278948
v -0.128635267 -0.026230238 0.085244350
v -0.012245793 -0.000474184 0.206000000
v 0.035111528 -0.005500000 0.172726923
v -0.038591669 0.020145559 0.097729671
v -0.118472864 -0.026856903 0.087977860
v -0.035932284 0.003103278 0.178503745
v -0.012855792 -0.005500000 0.190093208
v -0.022500001 0.006143185 0.186435740
v 0.018334164 -0.001363620 0.184469797
v -0.007961476 0.011199003 0.145999998
v -0.010486344 -0.005500000 0.193345719
v 0.011155279 -0.003019797 0.200000003
v 0.004807319 0.000701958 0.191044153
v 0.002062500 0.002682638 0.185769762
v -0.117335353 -0.011237123 0.063060792
v -0.117547980 -0.019585261 0.094762099
v -0.034411347 -0.002694795 0.049968402
v -0.120050445 -0.020503806 0.095219275
v -0.031804624 0.001311314 0.180999994
v -0.014974770 -0.005465590 0.191002378
v -0.039173704 -0.005366269 0.183963879
v 0.024499999 -0.001373326 0.174386351
v -0.006937500 0.002500000 0.206000000
v -0.014982451 0.001443790 0.200959304
v 0.028020906 -0.001500000 0.023683600
v -0.026395808 -0.005500000 0.185334208
v 0.036238630 -0.005167318 0.177905309
v -0.001871467 -0.003000000 0.040857877
v -0.125211956 -0.026350182 0.080667429
v 0.018477183 -0.004186174 0.199249656
v -0.120415446 -0.017982219 0.094469034
v -0.027408725 -0.000837999 0.180999994
v 0.006758189 0.020000000 -0.016125128
v 0.003000000 -0.004447815 0.196123917
v 0.034573128 -0.002939999 0.173465080
v -0.031972495 -0.001169594 0.180999994
v 0.033953240 -0.005378644 0.168681040
v -0.026773228 -0.003781206 0.193484287
v -0.031056661 0.000543508 0.195999995
v -0.120030751 -0.021482538 0.091027420
v 0.014947562 0.002152111 0.194386613
v 0.037244402 -0.005037140 0.169267639
v -0.122231254 -0.024886452 0.093329953
v 0.005752614 0.003195960 0.190304962
v -0.002000000 0.000419289 0.202030862
v 0.007837105 -0.005343456 0.199302814
v -0.038158312 0.000293790 0.195999995
v -0.027585413 -0.005500000 0.189488572
v 0.026314023 -0.005500000 0.178217190
v -0.043906252 0.000000000 0.078130427
v 0.005759794 -0.003328314 0.200000003
v -0.121737930 -0.022858167 0.089779899
v 0.038250001 0.018306818 0.158115730
v -0.028609258 0.006648595 0.141000003
v -0.113084637 -0.017088359 0.076986231
v -0.018237688 -0.005267755 0.196849546
v -0.008065420 -0.003801296 0.188999996
v 0.029504680 0.003678617 0.182749997
v 0.015115175 -0.002792753 0.200000003
v 0.003217017 -0.003906245 0.193700561
v -0.014716287 -0.003199433 0.199451090
v -0.127318880 -0.028483225 0.085157736
v 0.007868139 0.003439837 0.198379527
v -0.108400870 -0.020285242 0.082046265
v -0.120992813 -0.029484465 0.082630410
v -0.121773594 -0.027169691 0.080196287
v -0.032328725 0.002393471 0.188931237
v -0.034164062 -0.000383870 0.018462885
v 0.006894209 0.003558839 0.192555074
v 0.003000000 -0.005000000 0.200000003
v -0.039925706 -0.000610855 0.181568629
v -0.024472417 -0.002965112 0.182077715
v 0.006798886 -0.005500000 0.194993336
v -0.031761219 -0.004841428 0.195711841
v -0.004351328 0.015261981 0.152139450
v -0.117102911 -0.018887153 0.080157319
v -0.122363128 -0.029535447 0.089276153
v -0.110104604 -0.012308151 0.082530350
v 0.010044333 -0.000151590 0.200000003
v 0.020266471 0.019527078 0.091928450
v 0.012751132 -0.003964643 0.198355374
v 0.014410453 0.002905378 0.201000005
v -0.039279184 -0.005500000 0.192144633
v 0.024499999 -0.004279626 0.177279826
v 0.008308787 -0.005500000 0.196683465
v -0.025359565 0.000000000 0.016947415
v 0.030500727 -0.000507352 0.167999998
v -0.029656599 -0.002543426 0.192413448
v 0.024499999 -0.002529181 0.178096832
v -0.029016611 -0.005500000 0.195375649
v 0.005668523 -0.005232903 0.185064791
v 0.009345803 -0.005500000 0.186183454
v -0.044096238 0.017401315 0.089223943
v 0.024750791 -0.002971184 0.168527749
v -0.113257645 -0.028095031 0.079295201
v -0.064014426 0.017619548 0.031420400
v -0.109100977 -0.022781232 0.080836671
v -0.013191570 -0.003039832 0.188999996
v -0.113809008 -0.019021847 0.092090899
v 0.003000000 -0.000150872 0.194731820
v -0.027806607 -0.002745484 0.189482356
v 0.024499999 -0.003361130 0.171140109
v -0.107732024 -0.015394661 0.084579603
v 0.036048293 0.001928111 0.176661937
v -0.018999999 -0.001530765 0.205175293
v -0.109831480 -0.015294373 0.086798786
v 0.019818413 0.000000000 0.012792147
v 0.035343049 -0.005500000 0.170646450
v -0.020234097 0.022000000 0.079698785
v 0.013070621 0.005158743 0.075092143
v -0.018751145 0.022000000 0.085098155
v 0.006979046 -0.001426009 0.196979027
v -0.039999999 -0.003529496 0.185626717
v -0.024000000 -0.004667007 0.185174309
v 0.008232422 -0.005152569 0.184149008
v -0.017825545 -0.005335634 0.200646768
v -0.011357076 -0.000671731 0.199767198
v -0.016429202 0.003667065 0.186749887
v 0.010560656 -0.000378610 0.041058356
v 0.003000000 0.002500000 0.190500001
v 0.027315941 -0.005500000 0.171176343
v 0.011388077 0.020906250 0.146293407
v 0.028068496 0.001485070 0.174714901
v 0.036064576 0.016400660 0.138186512
v -0.024605916 0.020246365 0.099024609
v -0.113402539 -0.024523118 0.073508154
v -0.002500000 0.017750001 0.151999995
v -0.013981889 -0.000025461 0.188999996
v 0.006637104 0.012648740 0.090622049
v 0.035071682 0.017894347 0.163944040
v -0.123198218 -0.016786932 0.094215231
v 0.024499999 0.000355903 0.173529332
v 0.025474564 -0.001605162 0.180557739
v -0.035282658 -0.003000000 0.033556885
v -0.107220878 -0.016724004 0.086489180
v 0.024499999 0.000602441 0.176246125
v -0.122876680 -0.027708775 0.091490830
v 0.008846536 -0.002285530 0.200000003
v -0.114703509 -0.024782248 0.085793380
v -0.039693352 -0.005500000 0.186076568
v -0.049620418 -0.000086626 0.026082442
v -0.036088261 0.002725713 0.196499996
v -0.117424470 -0.021654388 0.077518229
v -0.016741533 0.016081055 0.096742374
v 0.016582121 -0.004140468 0.184139504
v -0.121680175 -0.019738279 0.096122819
v 0.042384533 0.007124490 0.094999999
v -0.018930819 -0.004682179 0.194057657
v 0.031114959 0.020625000 0.132561356
v -0.002070262 -0.000018794 0.205148588
v -0.039675869 -0.002200477 0.195020373
v 0.039000001 0.006110653 0.178583445
v 0.027987777 0.006444214 0.078985058
v -0.010876030 0.021000000 0.098844296
v 0.030800197 -0.003816285 0.172611111
v -0.016705555 0.000000000 0.088841235
v 0.014571762 -0.003483246 0.187278266
v 0.037909288 0.006829479 0.157617159
v -0.024000000 -0.002830384 0.192993486
v 0.035062501 0.002500000 0.167999998
v -0.122757988 -0.017219082 0.091127734
v -0.024000000 -0.004403974 0.187978697
v 0.037500001 0.002500000 0.172671872
v -0.111447592 -0.024148734 0.075994032
v -0.004446972 -0.001371861 0.198858800
v -0.025565103 0.019513664 0.144504713
v -0.025628680 0.001718655 0.188966639
v -0.008104160 -0.003080164 0.192989661
v 0.026613443 0.020254494 0.097823220
v -0.068028421 0.004560209 0.023006883
v 0.015935992 0.019396098 0.089652838
v -0.124624451 -0.029010753 0.088865183
v 0.018195965 -0.005202329 0.190217573
v 0.016806640 0.000013793 0.200000003
v 0.015808568 -0.005500000 0.188390585
v -0.120804046 -0.019083726 0.079620139
v -0.013405908 -0.003800218 0.194527351
v -0.120328704 -0.020924386 0.097008641
v -0.024072517 -0.003580112 0.190231293
v -0.033029762 0.000000000 0.089500000
v -0.043977682 0.001087609 0.044163672
v -0.008665102 -0.003179354 0.206000000
v -0.113939652 -0.020670297 0.085207368
v 0.005791403 0.011469088 0.172124797
v 0.037500001 0.001176190 0.178919423
v -0.001244926 0.001420816 0.032584629
v 0.029242267 0.001988756 0.178498579
v -0.061590797 0.019321034 0.025900053
v -0.032623324 -0.003000000 0.022250814
v -0.109704808 -0.020928547 0.084322771
v 0.021051462 -0.003000000 0.061046367
v -0.012948647 0.019271532 0.090381107
v -0.009235708 -0.002513393 0.202556351
v 0.025897009 0.005849390 0.175610688
v 0.016810680 0.001637136 0.189151602
v 0.026258675 0.000754075 0.179287635
v 0.005375000 0.021000000 0.094999999
v 0.018426561 0.001296034 0.058223641
v -0.018999999 0.002500000 0.202148437
v -0.018183448 0.013082128 0.101735804
v -0.062425187 0.009818554 0.016004817
v 0.036174817 -0.002188882 0.167999998
v 0.009394659 0.005417828 0.202000007
v 0.029171527 -0.001859998 0.180999994
v -0.037164683 0.005233777 0.151121755
v 0.027099336 0.013028708 0.084051020
v -0.036549640 -0.002536351 0.195999995
v -0.009259252 -0.005500000 0.200604041
v -0.018312500 0.002500000 0.205734375
v -0.065876868 0.003816636 0.017944118
v 0.025382442 -0.004730093 0.180597163
v -0.034866813 0.001392303 0.195999995
v -0.122441764 -0.021848768 0.083405653
v 0.025535819 -0.005331387 0.174108014
v 0.006474609 0.018511306 0.090053819
v -0.038916014 0.002500000 0.181378413
v -0.007583566 0.001127524 0.195992610
v -0.118925675 -0.024479955 0.091638070
v 0.007293007 0.004487114 0.196298720
v 0.013206123 -0.000751961 0.186555915
v -0.113722522 -0.026524740 0.076032475
v -0.028087889 0.001676597 0.183393954
v -0.036739474 -0.004366848 0.181406661
v -0.045000002 0.011282472 0.077432411
v -0.038773972 0.022000000 0.075381960
v -0.025985189 0.013879261 -0.005211235
v 0.012711974 -0.001024318 0.194127812
v -0.016968502 0.000709648 0.206000000
v -0.003500000 0.016437501 0.145999998
v -0.066362688 0.006104734 0.015224273
v -0.019416798 0.015515960 0.200501648
v -0.059987870 0.015894987 0.016147729
v -0.070198745 0.009214862 0.041631968
v -0.058791834 0.022090901 0.027951212
v 0.011747566 0.004081152 0.187950985
v -0.061511615 0.002369462 0.014440270
v 0.025000000 0.006500000 -0.010725000
v 0.004718749 0.000000000 0.016149309
v -0.037999999 -0.003000000 0.027962457
v -0.022138486 0.019107948 0.092209103
v -0.003431908 0.019466865 0.093196674
v -0.023970903 0.022000000 0.091997899
v -0.010941565 0.021250000 0.004526230
v -0.043547561 0.005033874 0.056348412
v -0.033764294 -0.001104548 0.031070396
v -0.061042012 0.019593527 0.023232287
v 0.006595199 0.010113617 0.143000007
v -0.013278832 0.019500000 0.106794601
v -0.010977134 0.001889506 0.092999999
v -0.039745248 0.018874955 0.171045810
v 0.019839529 0.022000000 0.008539096
v -0.032305622 0.008456316 0.178000003
v 0.039000001 0.015975958 0.167878440
v -0.064797008 0.009259629 0.017430219
v -0.031221887 0.018286858 0.099582305
v 0.013593749 0.000000000 0.016138517
v -0.009504617 0.019133456 0.087587626
v -0.003212175 0.018725606 0.141815649
v -0.040299393 0.006455170 0.164273756
v -0.111660430 -0.008363379 0.077488782
v -0.055948567 0.015569383 0.017664865
v -0.032234376 0.013540437 0.094999999
v -0.028856020 0.000390439 0.039710558
v 0.006325111 0.008610917 0.101000004
v 0.009156265 0.000000000 0.016156977
v 0.009072166 0.004828857 0.018481549
v 0.023274150 0.018206175 0.089529921
v -0.006203108 0.019619136 0.092108699
v -0.060149433 0.018775943 0.020657650
v -0.064023023 0.011560611 0.018400145
v -0.065491846 0.007249981 0.014741875
v -0.044005397 -0.002457975 0.016599168
v 0.029500000 0.021000000 0.094999999
v 0.004320728 0.020230892 0.092442263
v -0.039579031 0.022019620 0.033749999
v -0.046448965 0.022045915 0.031364970
v -0.044083974 0.009580623 0.014820992
v -0.062828565 0.014095956 0.020071562
v -0.035813431 -0.003000000 0.026635381
v -0.063818901 0.010497646 0.014788254
v -0.004684642 0.019801400 0.089911516
v 0.000477511 0.019613094 0.094999999
v 0.024507827 0.021512965 0.091255692
v -0.030591801 0.002676004 0.026488936
v -0.053717223 0.012063897 0.035873332
v -0.062320478 0.017669246 0.022586138
f 161 1 9
f 9 1 372
f 1055 1 161
f 372 1 1124
f 1 1055 1124
f 281 2 3
f 3 2 282
f 2 4 10
f 1124 4 2
f 74 9 2
f 9 374 2
f 10 73 2
f 73 123 2
f 124 74 2
f 123 282 2
f 281 124 2
f 2 374 1124
f 282 281 3
f 4 208 10
f 208 4 291
f 1124 291 4
f 5 6 10
f 5 503 6
f 10 155 5
f 155 542 5
f 542 503 5
f 503 7 6
f 7 1148 6
f 6 72 10
f 85 72 6
f 6 87 85
f 6 1148 87
f 7 11 38
f 125 11 7
f 38 1190 7
f 7 1199 125
f 503 1199 7
f 7 1190 1148
f 700 8 222
f 8 940 222
f 700 986 8
f 940 8 1028
f 1028 8 986
f 45 161 9
f 45 9 1140
f 1140 9 74
f 9 372 373
f 9 373 374
f 10 49 156
f 308 49 10
f 10 71 155
f 156 71 10
f 284 10 72
f 1140 73 10
f 121 10 208
f 121 308 10
f 10 284 1140
f 76 38 11
f 1139 76 11
f 1199 11 125
f 1158 1139 11
f 11 1199 1158
f 95 12 408
f 1007 12 95
f 1007 128 12
f 128 1094 12
f 408 12 1094
f 94 13 442
f 13 94 507
f 362 205 13
f 13 205 442
f 924 362 13
f 13 507 924
f 384 336 14
f 336 552 14
f 918 384 14
f 552 845 14
f 845 918 14
f 15 170 565
f 1119 170 15
f 565 300 15
f 15 300 658
f 15 658 1119
f 18 1068 16
f 16 1162 18
f 442 16 1114
f 442 1162 16
f 1068 787 16
f 787 1114 16
f 56 17 786
f 1039 17 56
f 787 786 17
f 1058 787 17
f 1039 1058 17
f 67 335 18
f 67 18 1162
f 18 335 661
f 1068 18 661
f 48 749 19
f 1196 48 19
f 749 661 19
f 19 661 1196
f 174 205 20
f 174 20 395
f 20 205 362
f 362 754 20
f 20 754 395
f 54 148 21
f 1166 54 21
f 21 119 135
f 168 119 21
f 235 21 135
f 21 148 168
f 244 21 167
f 167 21 922
f 21 235 922
f 1166 21 244
f 240 22 23
f 23 22 614
f 91 266 22
f 22 332 91
f 754 22 240
f 266 785 22
f 410 332 22
f 22 754 410
f 614 22 785
f 109 77 23
f 989 23 77
f 23 614 109
f 989 240 23
f 182 129 24
f 129 207 24
f 182 24 1178
f 207 215 24
f 215 446 24
f 446 233 24
f 24 233 1178
f 25 84 203
f 352 84 25
f 203 871 25
f 479 352 25
f 25 871 479
f 122 26 27
f 26 400 27
f 149 26 122
f 149 400 26
f 122 27 84
f 27 159 84
f 27 536 159
f 400 1061 27
f 1061 536 27
f 30 29 28
f 29 682 28
f 682 30 28
f 180 29 30
f 166 29 180
f 682 29 166
f 324 180 30
f 210 324 30
f 30 682 210
f 31 525 90
f 90 967 31
f 100 139 31
f 31 160 100
f 139 151 31
f 626 31 151
f 160 31 967
f 525 31 217
f 626 217 31
f 316 32 42
f 32 771 42
f 195 105 32
f 771 32 105
f 1167 195 32
f 226 32 316
f 226 1167 32
f 114 94 33
f 33 94 1114
f 335 114 33
f 312 335 33
f 33 1114 312
f 146 582 34
f 146 34 931
f 582 355 34
f 1158 34 355
f 1158 931 34
f 35 1000 120
f 1103 35 120
f 982 1000 35
f 1103 982 35
f 58 1048 36
f 1055 58 36
f 512 36 461
f 1048 461 36
f 512 931 36
f 36 931 1095
f 1055 36 1095
f 70 37 51
f 651 51 37
f 37 70 895
f 250 651 37
f 895 250 37
f 76 177 38
f 1189 38 177
f 38 1189 1190
f 83 265 39
f 39 721 83
f 397 39 265
f 397 976 39
f 915 721 39
f 976 915 39
f 40 262 179
f 781 40 179
f 262 40 903
f 781 417 40
f 40 417 903
f 484 163 41
f 41 163 650
f 41 650 473
f 41 473 1074
f 1001 484 41
f 41 846 1001
f 1074 846 41
f 90 316 42
f 967 90 42
f 771 113 42
f 113 967 42
f 141 280 43
f 682 141 43
f 199 210 43
f 583 199 43
f 210 682 43
f 280 583 43
f 144 44 410
f 144 1145 44
f 44 178 241
f 710 178 44
f 241 410 44
f 1145 710 44
f 1186 161 45
f 1140 982 45
f 1186 45 982
f 46 287 108
f 108 1061 46
f 184 46 157
f 1061 157 46
f 287 46 184
f 51 52 47
f 70 51 47
f 52 368 47
f 79 70 47
f 1021 79 47
f 368 1021 47
f 56 50 48
f 213 48 50
f 84 48 55
f 48 495 55
f 1025 56 48
f 84 127 48
f 48 213 86
f 48 86 749
f 92 495 48
f 48 1111 92
f 127 133 48
f 133 891 48
f 891 1025 48
f 1111 48 1196
f 271 156 49
f 308 271 49
f 406 50 56
f 1068 213 50
f 406 1068 50
f 51 1151 52
f 651 1151 51
f 52 315 314
f 368 52 314
f 315 52 1165
f 1151 947 52
f 52 947 1157
f 1157 1165 52
f 53 1039 576
f 576 1139 53
f 918 845 53
f 1039 53 845
f 918 53 1007
f 53 1139 1007
f 54 116 143
f 54 1166 116
f 148 54 143
f 117 84 55
f 55 871 117
f 495 310 55
f 310 871 55
f 406 56 88
f 88 56 786
f 1039 56 576
f 56 1156 576
f 1025 1156 56
f 853 57 326
f 326 57 959
f 57 937 343
f 343 1064 57
f 57 853 937
f 1064 959 57
f 1048 58 461
f 1153 461 58
f 58 1055 1153
f 59 1055 1103
f 1153 1055 59
f 1193 59 1103
f 1153 59 1193
f 174 194 60
f 586 174 60
f 194 1172 60
f 205 586 60
f 205 60 1172
f 61 77 754
f 61 989 77
f 61 754 99
f 61 99 989
f 723 62 465
f 62 928 465
f 723 1034 62
f 1034 928 62
f 63 227 498
f 922 227 63
f 63 529 496
f 496 922 63
f 529 63 498
f 193 64 191
f 191 64 650
f 193 320 64
f 249 195 64
f 650 64 195
f 525 217 64
f 64 217 626
f 64 626 249
f 64 320 517
f 64 517 633
f 525 64 633
f 135 65 81
f 65 225 81
f 135 181 65
f 181 225 65
f 151 66 126
f 126 66 1072
f 66 151 447
f 66 1038 160
f 1072 66 160
f 1038 66 447
f 335 67 114
f 67 442 114
f 67 1162 442
f 318 591 68
f 318 68 878
f 673 68 591
f 68 673 798
f 755 68 798
f 68 755 878
f 463 222 69
f 663 69 222
f 562 463 69
f 663 562 69
f 70 79 895
f 155 71 271
f 271 71 156
f 284 72 85
f 74 123 73
f 73 1140 74
f 124 123 74
f 75 350 136
f 75 136 784
f 259 75 784
f 75 259 1105
f 1105 350 75
f 76 305 177
f 76 276 305
f 276 76 1139
f 77 109 410
f 77 410 754
f 153 120 78
f 120 354 78
f 942 153 78
f 895 78 354
f 78 811 531
f 78 531 942
f 646 811 78
f 1179 646 78
f 895 1152 78
f 1179 78 1152
f 1152 895 79
f 1021 1179 79
f 79 1179 1152
f 122 84 80
f 1187 80 84
f 149 122 80
f 80 1187 149
f 253 135 81
f 225 730 81
f 253 81 1056
f 623 306 81
f 306 961 81
f 81 730 623
f 1056 81 961
f 148 143 82
f 143 1173 82
f 170 148 82
f 170 82 200
f 82 869 200
f 1119 869 82
f 1173 1119 82
f 147 83 176
f 265 83 147
f 176 83 223
f 721 223 83
f 127 84 104
f 84 159 104
f 117 203 84
f 1083 84 352
f 1187 84 1083
f 87 1148 85
f 1148 284 85
f 213 661 86
f 86 661 749
f 1068 406 88
f 88 786 787
f 787 1068 88
f 129 89 299
f 89 129 1036
f 186 89 142
f 142 89 1036
f 202 89 186
f 89 202 1161
f 89 524 299
f 524 89 1161
f 316 90 525
f 178 91 241
f 710 91 178
f 91 332 241
f 91 710 266
f 310 495 92
f 92 1111 310
f 93 214 184
f 184 479 93
f 214 93 338
f 478 338 93
f 478 93 479
f 507 94 114
f 442 1114 94
f 95 132 918
f 1176 132 95
f 95 408 1176
f 918 1007 95
f 139 96 313
f 96 139 424
f 96 874 313
f 376 96 527
f 874 96 376
f 96 424 1083
f 527 96 1083
f 101 159 97
f 97 887 101
f 97 159 536
f 536 887 97
f 754 362 99
f 99 362 924
f 924 392 99
f 99 392 989
f 139 100 1063
f 160 1038 100
f 100 1038 228
f 1063 100 228
f 104 159 101
f 104 101 821
f 821 101 887
f 320 103 226
f 103 1167 226
f 103 320 342
f 103 342 383
f 103 383 1066
f 1167 103 1066
f 127 104 821
f 771 105 113
f 113 105 967
f 249 105 195
f 105 249 246
f 105 246 967
f 196 347 106
f 759 196 106
f 106 347 221
f 664 106 221
f 664 759 106
f 107 1053 499
f 1104 107 499
f 107 654 607
f 607 843 107
f 107 851 654
f 107 843 1053
f 107 1104 851
f 287 856 108
f 1061 108 856
f 614 410 109
f 147 137 110
f 137 264 110
f 265 147 110
f 264 439 110
f 265 110 943
f 439 493 110
f 943 110 493
f 660 111 343
f 111 1064 343
f 660 1096 111
f 901 111 683
f 1096 683 111
f 901 1064 111
f 442 205 114
f 205 1172 114
f 114 1172 507
f 358 115 270
f 115 439 270
f 561 115 358
f 439 115 980
f 980 115 561
f 116 119 168
f 181 119 116
f 116 1164 143
f 148 116 168
f 148 170 116
f 1164 116 170
f 116 1166 181
f 871 203 117
f 119 181 135
f 153 1103 120
f 354 120 1000
f 208 296 121
f 296 271 121
f 308 121 271
f 282 123 124
f 281 282 124
f 626 151 126
f 626 126 246
f 246 126 1072
f 127 276 133
f 821 276 127
f 355 582 128
f 128 964 355
f 421 425 128
f 421 128 582
f 425 1094 128
f 1007 964 128
f 129 182 1161
f 129 202 1036
f 1161 202 129
f 207 129 299
f 534 131 190
f 190 131 699
f 534 696 131
f 696 538 131
f 538 699 131
f 132 336 384
f 132 806 336
f 918 132 384
f 1039 806 132
f 132 1176 1039
f 276 891 133
f 135 253 235
f 314 784 136
f 939 314 136
f 350 811 136
f 811 939 136
f 147 378 137
f 137 224 264
f 929 224 137
f 378 289 137
f 137 289 929
f 204 138 140
f 545 140 138
f 138 204 968
f 138 437 252
f 252 545 138
f 437 138 968
f 139 1038 151
f 313 1038 139
f 139 1063 424
f 188 336 140
f 806 188 140
f 140 252 204
f 336 252 140
f 140 545 806
f 141 612 280
f 497 612 141
f 141 876 497
f 682 876 141
f 171 142 202
f 218 142 171
f 489 186 142
f 142 1036 202
f 142 218 489
f 143 1164 1173
f 144 183 272
f 144 1032 183
f 272 912 144
f 275 401 144
f 144 410 275
f 1032 144 401
f 912 1145 144
f 145 964 1138
f 964 145 1158
f 1138 1139 145
f 145 1139 1158
f 146 512 153
f 146 153 886
f 146 331 582
f 331 146 886
f 931 512 146
f 176 378 147
f 400 149 424
f 424 149 1083
f 149 1187 1083
f 1038 447 151
f 169 152 252
f 169 300 152
f 152 370 252
f 300 370 152
f 153 512 461
f 153 461 1103
f 886 153 942
f 271 542 155
f 157 479 184
f 157 352 479
f 527 352 157
f 400 527 157
f 1061 400 157
f 296 158 271
f 542 271 158
f 708 158 296
f 1010 542 158
f 708 1147 158
f 1147 1010 158
f 1072 160 967
f 161 1186 1055
f 622 162 602
f 737 602 162
f 663 162 622
f 663 833 162
f 737 162 729
f 162 833 729
f 432 191 163
f 163 191 650
f 581 432 163
f 645 163 484
f 163 645 581
f 164 299 182
f 182 820 164
f 299 164 207
f 207 164 871
f 164 820 478
f 164 478 871
f 166 180 171
f 166 171 1098
f 166 489 876
f 166 1098 489
f 876 682 166
f 946 244 167
f 897 167 496
f 922 496 167
f 946 167 897
f 169 232 658
f 968 232 169
f 252 437 169
f 169 658 300
f 968 169 437
f 170 200 565
f 1173 170 1119
f 1164 170 1173
f 171 180 218
f 1098 171 202
f 172 221 199
f 172 199 583
f 172 297 221
f 996 297 172
f 583 1117 172
f 1117 996 172
f 366 568 173
f 816 366 173
f 568 823 173
f 816 173 1045
f 1045 173 823
f 194 174 329
f 586 205 174
f 395 329 174
f 175 252 336
f 545 252 175
f 806 175 336
f 806 545 175
f 223 568 176
f 366 339 176
f 339 378 176
f 366 176 568
f 379 284 177
f 284 1189 177
f 177 305 379
f 179 261 708
f 261 179 1147
f 179 262 422
f 179 422 363
f 1147 179 363
f 708 781 179
f 180 324 218
f 181 1130 225
f 920 1130 181
f 1166 920 181
f 299 524 182
f 524 1161 182
f 182 1178 820
f 772 272 183
f 183 767 725
f 183 725 772
f 183 1032 767
f 184 214 518
f 509 287 184
f 184 518 509
f 186 1098 202
f 186 489 1098
f 336 188 552
f 845 552 188
f 188 806 1039
f 1039 845 188
f 812 189 506
f 189 1077 506
f 189 752 659
f 189 659 1077
f 839 752 189
f 189 812 839
f 290 190 365
f 290 480 190
f 365 190 712
f 401 190 699
f 190 401 712
f 480 534 190
f 432 193 191
f 251 419 193
f 432 251 193
f 320 193 419
f 194 240 237
f 237 795 194
f 329 240 194
f 194 795 1172
f 473 650 195
f 195 1167 473
f 218 196 318
f 196 218 347
f 591 318 196
f 759 591 196
f 198 910 838
f 198 838 1076
f 897 910 198
f 198 986 897
f 198 1028 986
f 1076 1028 198
f 210 199 218
f 199 221 218
f 200 1080 565
f 869 1080 200
f 201 381 429
f 381 201 1123
f 201 429 1145
f 912 1123 201
f 912 201 1145
f 252 370 204
f 300 204 370
f 204 300 470
f 204 470 968
f 310 215 207
f 871 310 207
f 208 291 296
f 218 324 210
f 286 211 515
f 211 286 1087
f 211 351 923
f 211 1087 351
f 515 211 923
f 1068 661 213
f 214 338 1163
f 214 482 450
f 214 450 518
f 482 214 1163
f 1111 215 310
f 215 1196 446
f 215 1111 1196
f 221 347 218
f 318 876 218
f 489 218 876
f 297 414 221
f 664 221 414
f 700 222 463
f 833 663 222
f 222 940 833
f 223 721 440
f 223 440 823
f 223 823 568
f 264 224 557
f 892 557 224
f 703 892 224
f 703 224 929
f 225 570 730
f 225 1130 570
f 226 316 525
f 517 320 226
f 226 525 517
f 227 235 369
f 235 227 922
f 227 369 883
f 689 498 227
f 883 689 227
f 313 874 228
f 228 1038 313
f 228 874 424
f 228 424 1063
f 232 470 687
f 968 470 232
f 232 687 658
f 478 233 446
f 1178 233 478
f 253 369 235
f 240 1041 237
f 237 1041 795
f 238 415 250
f 1140 238 250
f 415 238 947
f 238 1140 947
f 644 239 435
f 435 239 827
f 458 827 239
f 239 841 458
f 644 841 239
f 329 395 240
f 240 395 754
f 989 1041 240
f 332 410 241
f 772 242 435
f 1062 435 242
f 725 672 242
f 672 1062 242
f 772 725 242
f 491 920 244
f 491 244 933
f 920 1166 244
f 946 933 244
f 246 249 626
f 246 1072 967
f 415 651 250
f 1140 250 895
f 273 274 251
f 541 273 251
f 419 251 274
f 432 541 251
f 253 883 369
f 1056 883 253
f 515 254 286
f 537 286 254
f 414 488 254
f 254 664 414
f 537 254 488
f 515 664 254
f 766 255 511
f 255 1020 511
f 766 654 255
f 654 1020 255
f 256 339 471
f 339 256 1174
f 256 471 892
f 1174 256 892
f 379 305 258
f 305 821 258
f 258 821 315
f 1165 258 315
f 379 258 1157
f 1165 1157 258
f 287 259 856
f 1105 259 287
f 259 784 887
f 259 887 856
f 708 261 1147
f 417 781 262
f 417 262 929
f 262 781 422
f 262 903 929
f 263 690 707
f 690 263 790
f 263 707 1030
f 263 715 790
f 1030 715 263
f 270 439 264
f 270 264 1040
f 264 557 1040
f 943 397 265
f 266 710 712
f 266 712 785
f 358 270 1135
f 270 1040 1135
f 772 827 272
f 827 1113 272
f 272 1113 912
f 769 274 273
f 541 769 273
f 580 419 274
f 580 274 575
f 769 575 274
f 401 275 785
f 785 275 410
f 305 276 821
f 1023 891 276
f 1139 1023 276
f 615 899 279
f 279 925 615
f 627 279 826
f 925 279 627
f 279 899 819
f 279 819 1122
f 826 279 1122
f 283 399 280
f 280 612 283
f 583 280 399
f 639 399 283
f 283 612 928
f 639 283 695
f 283 873 695
f 283 1034 873
f 283 928 1034
f 379 1157 284
f 284 1157 1140
f 1148 1190 284
f 1190 1189 284
f 777 286 537
f 777 1087 286
f 287 509 388
f 388 1105 287
f 289 378 566
f 289 566 417
f 929 289 417
f 365 326 290
f 448 290 326
f 290 448 480
f 422 296 291
f 291 428 422
f 1084 428 291
f 1124 1084 291
f 993 825 292
f 825 996 292
f 913 292 862
f 292 1117 862
f 993 292 913
f 996 1117 292
f 598 295 751
f 295 598 991
f 295 979 751
f 814 788 295
f 295 788 979
f 814 295 991
f 422 708 296
f 488 414 297
f 488 297 477
f 477 297 1088
f 297 996 1088
f 348 751 298
f 298 1009 348
f 298 561 358
f 1009 298 358
f 549 561 298
f 751 549 298
f 470 300 1080
f 565 1080 300
f 571 304 453
f 762 453 304
f 1087 304 571
f 762 304 792
f 792 304 868
f 304 1087 868
f 623 961 306
f 661 335 312
f 312 674 661
f 312 1058 674
f 1058 312 1114
f 315 887 314
f 939 368 314
f 784 314 887
f 887 315 821
f 497 876 318
f 878 497 318
f 342 320 419
f 448 326 322
f 326 959 322
f 448 322 877
f 881 877 322
f 881 322 908
f 959 908 322
f 326 365 853
f 418 582 331
f 418 331 636
f 331 441 450
f 331 886 441
f 331 450 636
f 417 566 333
f 333 903 417
f 566 929 333
f 333 929 903
f 334 1059 351
f 1089 334 351
f 334 571 761
f 1089 571 334
f 914 334 761
f 914 778 334
f 1059 334 778
f 483 356 337
f 503 337 356
f 337 1010 360
f 337 360 1084
f 337 1084 483
f 503 1010 337
f 338 478 446
f 338 446 1196
f 780 1163 338
f 1196 780 338
f 339 366 361
f 339 361 511
f 339 1174 378
f 992 471 339
f 511 870 339
f 870 992 339
f 383 342 972
f 972 342 419
f 660 343 937
f 520 751 348
f 520 348 1053
f 348 1009 533
f 533 1053 348
f 1105 811 350
f 351 1059 923
f 1087 1089 351
f 1083 352 527
f 895 354 1000
f 355 964 1158
f 483 1199 356
f 1199 503 356
f 1009 358 1135
f 426 1084 360
f 1147 426 360
f 360 1010 1147
f 366 511 361
f 363 422 426
f 363 426 1147
f 429 365 710
f 365 429 853
f 710 365 712
f 816 511 366
f 939 646 368
f 646 1021 368
f 1124 373 372
f 373 1124 374
f 424 376 400
f 376 527 400
f 874 376 424
f 566 378 703
f 378 1174 703
f 429 381 853
f 381 452 937
f 452 381 1123
f 937 853 381
f 585 382 383
f 383 382 1066
f 746 382 585
f 1099 382 746
f 1066 382 760
f 1099 760 382
f 972 585 383
f 388 509 441
f 441 694 388
f 694 1105 388
f 924 795 392
f 392 795 989
f 722 822 394
f 971 722 394
f 728 394 925
f 728 971 394
f 822 925 394
f 603 397 943
f 976 397 603
f 639 583 399
f 1032 401 699
f 712 401 785
f 484 403 645
f 1008 403 484
f 936 645 403
f 1016 936 403
f 1008 1016 403
f 564 643 405
f 768 564 405
f 405 643 941
f 731 791 405
f 941 731 405
f 405 791 768
f 425 1070 408
f 408 1094 425
f 1039 408 1058
f 1176 408 1039
f 1163 1058 408
f 408 1070 1163
f 410 614 785
f 651 415 947
f 421 582 418
f 636 421 418
f 972 419 580
f 425 421 1070
f 421 636 1070
f 422 428 426
f 781 708 422
f 423 659 473
f 1167 423 473
f 423 1077 659
f 1066 760 423
f 423 760 1077
f 423 1167 1066
f 428 1084 426
f 1145 429 710
f 432 584 541
f 581 584 432
f 644 435 1062
f 827 772 435
f 439 980 493
f 620 440 616
f 721 616 440
f 823 440 620
f 441 518 450
f 509 518 441
f 441 617 694
f 441 886 617
f 448 589 480
f 448 877 589
f 636 450 482
f 452 916 937
f 916 452 1142
f 452 1123 1142
f 571 453 800
f 800 453 684
f 453 987 684
f 453 762 999
f 453 999 987
f 1113 827 458
f 1019 458 841
f 458 1019 1142
f 1123 1113 458
f 1142 1123 458
f 461 1193 1103
f 1153 1193 461
f 562 950 463
f 946 700 463
f 950 946 463
f 465 755 723
f 928 755 465
f 470 1080 687
f 892 471 969
f 992 969 471
f 711 472 951
f 1035 472 711
f 775 911 472
f 775 472 1035
f 951 472 829
f 472 1001 829
f 911 1001 472
f 473 659 1074
f 475 997 521
f 1065 475 521
f 475 623 677
f 1065 623 475
f 872 475 677
f 872 997 475
f 808 488 477
f 477 540 808
f 477 1088 540
f 479 871 478
f 820 1178 478
f 750 534 480
f 589 750 480
f 1070 636 482
f 482 1163 1070
f 1124 1055 483
f 1055 1199 483
f 1124 483 1084
f 1001 911 484
f 911 1008 484
f 537 488 808
f 933 555 491
f 1130 491 555
f 1130 920 491
f 980 943 493
f 882 686 494
f 686 974 494
f 723 882 494
f 1014 723 494
f 974 1014 494
f 496 529 910
f 910 897 496
f 497 928 612
f 878 928 497
f 498 782 529
f 689 782 498
f 499 533 681
f 533 499 1053
f 681 1011 499
f 499 1011 1104
f 575 500 585
f 500 575 1118
f 500 746 585
f 746 500 1118
f 542 1010 503
f 605 812 506
f 1099 605 506
f 760 506 1077
f 760 1099 506
f 507 1172 924
f 816 766 511
f 511 1020 870
f 515 567 664
f 567 515 923
f 517 525 633
f 598 751 520
f 598 520 919
f 1053 919 520
f 997 719 521
f 719 1121 521
f 1121 1065 521
f 792 523 762
f 907 762 523
f 792 796 523
f 944 523 796
f 907 523 973
f 944 973 523
f 742 526 572
f 526 793 572
f 526 742 969
f 992 793 526
f 969 992 526
f 782 1073 529
f 910 529 838
f 838 529 1093
f 529 1073 1093
f 531 694 617
f 617 942 531
f 694 531 811
f 631 798 532
f 631 532 914
f 532 673 765
f 798 673 532
f 765 778 532
f 778 914 532
f 1009 681 533
f 534 810 696
f 750 810 534
f 536 856 887
f 536 1061 856
f 777 537 808
f 696 1042 538
f 1032 699 538
f 1032 538 767
f 538 1042 767
f 540 944 808
f 973 944 540
f 1088 973 540
f 1050 541 584
f 769 541 1050
f 812 605 544
f 941 544 605
f 544 643 917
f 643 544 941
f 544 917 812
f 549 980 561
f 549 751 979
f 979 980 549
f 950 562 555
f 562 1137 555
f 555 739 985
f 739 555 1137
f 555 933 950
f 985 1130 555
f 557 969 742
f 742 1078 557
f 557 892 969
f 1078 1040 557
f 663 622 562
f 1137 562 622
f 643 564 711
f 564 1035 711
f 564 768 963
f 963 1128 564
f 1128 1035 564
f 929 566 703
f 567 673 591
f 591 759 567
f 759 664 567
f 567 765 673
f 765 567 923
f 570 623 730
f 807 623 570
f 570 985 807
f 1130 985 570
f 571 800 761
f 1087 571 1089
f 572 1011 592
f 1078 572 592
f 742 572 1078
f 793 978 572
f 572 978 1011
f 592 681 573
f 1078 592 573
f 573 681 1009
f 1135 573 1009
f 573 1135 1078
f 585 580 575
f 1047 575 769
f 1047 1118 575
f 576 1025 1023
f 576 1023 1139
f 576 1156 1025
f 577 731 724
f 746 577 724
f 791 731 577
f 1118 577 746
f 577 1118 791
f 972 580 585
f 1046 584 581
f 645 1046 581
f 639 862 583
f 583 862 1117
f 584 1046 1050
f 640 834 589
f 640 589 877
f 834 750 589
f 1011 681 592
f 755 631 594
f 904 594 631
f 764 755 594
f 882 764 594
f 594 904 882
f 598 919 991
f 1054 622 602
f 602 737 997
f 872 602 997
f 1054 602 872
f 976 603 788
f 980 788 603
f 943 980 603
f 691 724 605
f 605 1099 691
f 941 605 724
f 607 654 1013
f 843 607 794
f 607 1013 794
f 822 640 615
f 899 615 640
f 822 615 925
f 847 620 616
f 632 847 616
f 616 866 632
f 721 866 616
f 886 942 617
f 1045 823 620
f 898 620 847
f 620 898 1060
f 1045 620 1060
f 832 953 621
f 988 832 621
f 850 621 953
f 621 850 988
f 1054 935 622
f 935 1137 622
f 623 807 677
f 1065 961 623
f 880 815 627
f 627 815 934
f 880 627 826
f 934 925 627
f 628 807 985
f 807 628 1027
f 849 935 628
f 849 628 985
f 628 935 1027
f 755 798 631
f 904 631 1005
f 914 1029 631
f 631 1029 1005
f 632 1051 847
f 866 1086 632
f 1086 1051 632
f 695 676 639
f 676 913 639
f 639 913 862
f 822 834 640
f 899 640 877
f 917 643 711
f 1030 841 644
f 1030 644 970
f 970 644 1062
f 1046 645 936
f 646 939 811
f 646 1170 1021
f 646 1179 1170
f 1151 651 947
f 654 766 1013
f 851 1049 654
f 1049 1020 654
f 696 971 655
f 1042 696 655
f 971 728 655
f 655 728 1012
f 1012 1042 655
f 658 687 1119
f 752 1074 659
f 916 660 937
f 1096 660 916
f 661 674 1196
f 668 719 737
f 850 719 668
f 737 729 668
f 729 894 668
f 988 850 668
f 894 988 668
f 725 767 672
f 741 672 934
f 1062 672 741
f 1012 672 767
f 934 672 1012
f 674 1163 780
f 674 780 1196
f 674 1058 1163
f 676 695 873
f 676 805 913
f 676 1014 805
f 1014 676 873
f 677 807 1027
f 677 1027 872
f 909 683 717
f 683 1096 717
f 819 881 683
f 909 819 683
f 683 881 901
f 779 684 686
f 686 684 974
f 779 800 684
f 987 974 684
f 686 740 779
f 882 740 686
f 687 1080 869
f 869 1119 687
f 689 832 782
f 832 689 953
f 883 953 689
f 789 692 690
f 836 690 692
f 690 836 707
f 690 790 789
f 691 746 724
f 1099 746 691
f 692 789 916
f 1142 836 692
f 692 916 1142
f 1105 694 811
f 810 971 696
f 946 986 700
f 703 1174 892
f 919 705 991
f 919 1132 705
f 705 957 1051
f 1132 957 705
f 991 705 1051
f 707 836 1019
f 842 707 1019
f 707 842 1030
f 1022 917 711
f 951 1022 711
f 832 713 782
f 713 1073 782
f 832 1004 713
f 713 1004 875
f 875 1073 713
f 826 790 715
f 715 880 826
f 715 1030 880
f 717 789 790
f 717 1096 789
f 717 790 909
f 719 997 737
f 1121 719 850
f 915 866 721
f 750 722 810
f 750 834 722
f 810 722 971
f 822 722 834
f 764 723 755
f 764 882 723
f 1014 873 723
f 1034 723 873
f 731 941 724
f 728 925 921
f 728 921 1012
f 729 833 962
f 962 894 729
f 735 948 974
f 735 984 948
f 735 960 965
f 960 735 999
f 735 965 984
f 987 735 974
f 999 735 987
f 739 849 985
f 849 739 1137
f 779 740 1005
f 882 904 740
f 740 904 1005
f 741 934 815
f 1062 741 815
f 825 993 743
f 825 743 996
f 743 926 973
f 743 993 926
f 743 973 1088
f 743 1088 996
f 752 839 1116
f 752 846 1074
f 846 752 1116
f 755 928 878
f 1006 761 800
f 1006 914 761
f 907 999 762
f 765 1059 778
f 765 923 1059
f 766 816 930
f 766 930 1013
f 1042 1012 767
f 791 1118 768
f 768 1125 963
f 1125 768 1118
f 936 1003 769
f 1050 936 769
f 1003 1047 769
f 1008 775 879
f 879 775 1035
f 775 1008 911
f 796 868 777
f 796 777 944
f 777 808 944
f 1087 777 868
f 800 779 1006
f 1005 1006 779
f 1058 1114 787
f 976 788 814
f 788 980 979
f 916 789 1096
f 826 1122 790
f 909 790 1122
f 796 792 868
f 793 865 978
f 793 1017 865
f 793 992 1017
f 817 794 930
f 1132 794 817
f 794 1132 843
f 930 794 1013
f 1143 795 924
f 795 1041 989
f 795 1143 1172
f 965 913 805
f 984 805 948
f 948 805 1014
f 965 805 984
f 839 812 956
f 812 917 956
f 866 976 814
f 866 814 1086
f 814 991 1086
f 880 970 815
f 970 1062 815
f 816 945 930
f 816 1045 945
f 898 957 817
f 817 1092 898
f 930 1092 817
f 817 957 1132
f 819 899 881
f 1122 819 909
f 829 1001 846
f 829 846 1116
f 829 1116 951
f 832 988 1004
f 962 833 940
f 1142 1019 836
f 838 1093 1076
f 1116 839 956
f 842 1019 841
f 1030 842 841
f 1053 843 919
f 919 843 1132
f 847 957 898
f 1051 957 847
f 849 1137 935
f 850 953 1126
f 961 1121 850
f 850 1126 961
f 851 865 1049
f 1104 865 851
f 865 1104 978
f 865 1017 1049
f 866 915 976
f 992 870 1017
f 1017 870 1020
f 1027 1054 872
f 894 962 875
f 875 1004 894
f 962 1093 875
f 875 1093 1073
f 877 881 899
f 1008 879 1016
f 1128 1016 879
f 1128 879 1035
f 880 1030 970
f 881 908 901
f 1056 953 883
f 1023 1025 891
f 1004 988 894
f 1000 1140 895
f 897 986 946
f 898 1092 1060
f 1064 901 908
f 960 907 926
f 973 926 907
f 960 999 907
f 959 1064 908
f 912 1113 1123
f 1052 913 965
f 913 1052 993
f 1006 1029 914
f 956 917 1022
f 934 921 925
f 921 934 1012
f 1143 924 1172
f 960 926 1052
f 1052 926 993
f 1060 930 945
f 1092 930 1060
f 1158 1095 931
f 950 933 946
f 1054 1027 935
f 998 1003 936
f 936 1128 998
f 1128 936 1016
f 936 1050 1046
f 940 1076 962
f 1028 1076 940
f 945 1045 1060
f 947 1140 1157
f 974 948 1014
f 956 1022 951
f 1116 956 951
f 1126 953 1056
f 960 1052 965
f 1056 961 1126
f 1121 961 1065
f 1093 962 1076
f 1125 998 963
f 1128 963 998
f 964 1007 1138
f 1011 978 1104
f 1000 982 1140
f 1103 1055 982
f 1186 982 1055
f 991 1051 1086
f 998 1125 1003
f 1003 1125 1047
f 1005 1029 1006
f 1138 1007 1139
f 1017 1020 1049
f 1170 1179 1021
f 1040 1078 1135
f 1118 1047 1125
f 1055 1095 1199
f 1199 1095 1158
