# sdm_hand_1200_q30.obj  (1200 v, 1574 f)  units: metres
v -0.059176758 -0.005846387 0.021900922
v -0.069094315 0.004087776 0.014222741
v -0.068354376 0.004346595 0.013601856
v -0.068571724 0.005567660 0.015462436
v -0.063345835 0.020366503 0.027859384
v -0.062823243 0.021846386 0.029099079
v -0.059628095 0.022090085 0.033008493
v 0.018999999 -0.005500000 0.184000000
v -0.045000002 0.000000000 0.000000000
v -0.037999999 -0.001116713 0.020000000
v -0.045000002 0.022000000 0.000000000
v -0.040974012 0.022000000 0.055202013
v -0.025369395 0.002717428 0.196749997
v -0.002875000 0.002500000 0.206000000
v -0.014006749 0.019967108 0.100255405
v -0.002500000 0.021000000 0.094999999
v -0.037623291 0.013804028 0.172540928
v 0.018500000 0.021000000 0.094999999
v 0.037000000 0.021000000 0.094999999
v 0.045000002 0.022000000 0.094999999
v 0.030776270 0.019723712 0.153268321
v -0.011945313 0.002500000 0.186656252
v 0.028406161 0.001285289 0.091117851
v -0.037999999 -0.001116713 0.041233219
v -0.033000000 0.022000000 0.044999999
v -0.128997850 -0.026797872 0.084978269
v -0.035859374 0.002500000 0.195999995
v -0.042071476 -0.002026048 0.007589698
v 0.025000000 0.000000000 0.000000000
v 0.000000000 0.022000000 0.094999999
v -0.065958780 0.012967082 0.021660910
v -0.010500000 0.021000000 0.094999999
v -0.037999999 -0.003000000 0.030616610
v 0.013750000 0.002000000 0.000000000
v 0.011000000 0.021000000 0.094999999
v -0.022500001 0.022000000 0.094999999
v -0.025133671 0.014017223 0.106241193
v -0.037999999 -0.003000000 0.025308305
v -0.024000000 0.002500000 0.193187495
v -0.022500001 0.002500000 0.193187495
v 0.015556502 0.018812284 0.102145150
v 0.024499999 0.002500000 0.176937495
v 0.028344620 0.019901943 0.134833530
v 0.025791081 -0.003000000 0.076040465
v -0.004000000 0.000000000 0.000000000
v -0.064652307 0.016666792 0.024760147
v -0.053541651 0.022052603 0.014239096
v -0.057012890 0.012919544 0.006996444
v -0.054979681 0.001857366 0.005812280
v -0.030090846 0.022000000 0.057187499
v 0.019556640 0.000000000 0.019183599
v 0.000281250 0.000000000 0.011249153
v 0.017441397 0.016437311 -0.000435419
v 0.031000000 0.021000000 0.094999999
v -0.002000000 0.002500000 0.203874999
v -0.020500001 0.005861534 0.197619933
v -0.035562499 -0.001423828 0.180999994
v -0.093696926 0.000126849 0.040876101
v 0.022500001 0.022000000 0.094999999
v -0.057812476 0.022078904 0.021358644
v -0.006500000 0.021000000 0.094999999
v -0.059947888 0.022092055 0.024918418
v -0.002420670 0.015923136 0.113464835
v -0.063086270 0.017106505 0.031641585
v 0.007250000 0.021000000 0.094999999
v 0.013105111 0.006042696 0.093999999
v 0.045000002 0.022000000 0.083124999
v 0.033972705 0.022000000 0.077187499
v -0.006497955 0.000058482 0.199602302
v 0.024491381 0.022000000 0.083681682
v -0.006937500 0.021000000 0.099367185
v -0.005429965 -0.001964142 0.206000000
v -0.036101066 0.002983143 0.034438719
v -0.118759051 -0.025732923 0.077210377
v 0.004908998 0.008990254 0.184159190
v 0.014750000 0.021000000 0.094999999
v 0.004722561 0.014291153 0.105990027
v -0.067265252 0.009267370 0.018561673
v -0.067773405 0.001708253 0.027379528
v 0.034000000 0.021000000 0.094999999
v 0.037229168 -0.005500000 0.178765620
v -0.062683633 0.008633069 0.010299150
v -0.061667028 0.003101981 0.009707068
v -0.051893697 0.018730429 0.040825502
v -0.117857518 -0.009150140 0.085267420
v 0.025682601 0.013424874 0.146263117
v 0.011413767 0.022000000 0.080249537
v -0.031966884 0.009339859 0.086385506
v 0.002244397 0.011381102 0.128856799
v -0.059295379 0.014706436 0.021134095
v -0.079570101 0.003697303 0.028596428
v -0.013742001 0.013791038 0.101000004
v -0.001918315 0.022000000 0.081724462
v 0.027400534 0.004546075 0.170318402
v -0.031617732 0.019354259 0.130771676
v -0.114553084 -0.014136994 0.076514357
v -0.027943193 -0.003000000 0.061060078
v 0.030083376 0.007560131 0.105395837
v -0.024466179 0.016374408 0.180356435
v -0.003553625 0.000789016 0.206000000
v -0.018093302 0.016890044 0.087552356
v -0.003780434 0.012232596 0.190248789
v -0.018999999 0.002500000 0.199492186
v -0.063999071 0.018516648 0.026309765
v -0.065305543 0.014816937 0.023210529
v 0.024499999 0.000302140 0.171060878
v 0.045000002 0.022000000 0.089062499
v 0.025183648 0.008113582 0.128338730
v -0.050624117 -0.003936217 0.014745310
v -0.033242544 -0.005500000 0.187396361
v 0.004247483 0.016251825 0.155332504
v 0.025711038 -0.001010646 0.167999998
v -0.121667676 -0.005647911 0.069956450
v 0.011133594 0.016000001 0.145973638
v -0.039500001 0.008534091 0.001250000
v -0.037413770 0.008563727 0.126363214
v 0.032437804 0.001818791 0.176666705
v 0.010486096 0.020365787 0.177455439
v 0.013206907 0.009256105 0.195832385
v 0.026775685 0.008030493 0.165567007
v -0.026851461 0.022000000 0.037499999
v -0.030112655 0.001713428 0.044358859
v -0.110332256 -0.012601156 0.083794862
v -0.122665260 -0.026832519 0.085865709
v 0.034000001 0.002500000 0.181499995
v 0.018717305 0.012206996 0.075787252
v -0.057944725 0.011008542 0.014860290
v -0.125932411 -0.019060266 0.080697281
v 0.025185526 0.016676434 0.112789846
v 0.004712217 0.017186392 0.084222864
v 0.023057199 0.005370232 0.176245099
v 0.016625000 0.021000000 0.094999999
v -0.118269595 -0.015987459 0.073673730
v -0.023023993 0.004784323 0.180368829
v -0.067918488 0.007417515 0.017012054
v -0.118837073 -0.025298140 0.084085001
v 0.018999999 -0.002969823 0.187028446
v -0.095894481 -0.006136508 0.045071028
v -0.008500000 0.021000000 0.094999999
v -0.045000002 0.009365850 0.054714333
v 0.004844730 0.019119501 0.099291801
v -0.029773438 0.002500000 0.180999994
v -0.004491088 0.004682185 0.203937620
v -0.014043618 0.002409626 0.077641695
v -0.118799418 -0.010540374 0.066974055
v 0.027913329 0.019289184 0.171497419
v -0.024000000 0.002500000 0.185687494
v -0.037999999 0.000000000 0.050580679
v -0.061806292 0.011368210 0.018555402
v -0.002000000 0.000871207 0.193222659
v 0.009983767 0.021000000 0.146276189
v 0.011874890 0.005646067 0.107921964
v -0.056475156 0.003436174 0.017187513
v -0.024000000 0.002500000 0.182874994
v -0.003366115 0.001290832 0.193582130
v -0.124122304 -0.016615673 0.091013701
v -0.032337204 0.019868220 0.176066590
v -0.032878693 0.005404098 0.184011857
v -0.115561801 -0.017086384 0.086302147
v -0.018999999 0.000139214 0.198996115
v -0.007806439 -0.002796826 0.202830416
v 0.016381083 0.018119041 0.151148793
v 0.009795945 0.010065939 0.174328114
v 0.010227505 -0.003000000 0.083340672
v 0.007717770 0.000543156 0.188352680
v -0.041499998 0.003515759 0.184515619
v -0.116742607 -0.023267978 0.072207852
v -0.115321258 -0.024092029 0.087484316
v -0.061100744 0.016535980 0.021532382
v -0.126298458 -0.026973426 0.081264450
v -0.017838013 0.019536521 0.183991344
v -0.116540885 -0.027186868 0.078010962
v -0.069722260 0.008910935 0.021274116
v 0.013124366 0.004619372 0.196370211
v -0.116362496 -0.016533434 0.082333546
v -0.009315698 -0.005500000 0.197581616
v -0.113576584 -0.011876136 0.064867338
v -0.000500000 0.003313836 0.204583426
v -0.116060688 -0.018368137 0.082009211
v -0.065010702 0.003724288 0.011654462
v -0.065519004 0.006489832 0.011950503
v -0.018219601 0.000699964 0.206000000
v -0.043648090 0.022030577 0.018870024
v -0.125380042 -0.024233533 0.080433352
v 0.018999999 -0.000037148 0.189762131
v -0.037981650 -0.003544051 0.180999994
v -0.035500000 -0.000558357 0.020000000
v -0.114735586 -0.007125615 0.058927904
v -0.005044691 0.011665410 0.087563949
v -0.110529655 -0.012084913 0.078504008
v -0.013273512 0.019706658 0.151154672
v -0.114870041 -0.018845791 0.074126853
v -0.003270406 0.001888718 0.196180359
v -0.121856635 -0.031092438 0.086868514
v -0.114907078 -0.028862990 0.079323104
v -0.116798583 -0.024207673 0.077114936
v -0.024218881 0.008405434 0.196937006
v -0.039999999 0.000500000 0.180999994
v 0.016605702 0.000053086 0.192198791
v -0.066612016 0.011117226 0.020111291
v -0.026115787 0.000743794 0.195999995
v -0.116424200 -0.017869358 0.079907215
v -0.018999999 0.000500000 0.188999996
v 0.031779331 0.010832917 0.130988207
v -0.038774001 0.009003672 0.195487805
v 0.016139611 -0.001124106 0.184000000
v -0.018999999 -0.001021248 0.202112411
v 0.032267119 0.013383125 0.172424893
v -0.009779363 0.019765625 0.186778184
v -0.002000000 -0.001326533 0.199239320
v -0.004663523 0.001903355 0.200343299
v -0.122604983 -0.020294322 0.090786258
v -0.015676450 0.007886481 0.093567434
v -0.038141065 0.003917043 0.185118932
v 0.024499999 0.000744780 0.168720365
v -0.001250000 0.002500000 0.196171873
v -0.035607768 0.000894717 0.180999994
v -0.002447672 0.003600510 0.205309373
v -0.007048825 0.018462895 0.147022496
v 0.014262851 -0.005500000 0.185979923
v 0.013960999 -0.003316668 0.200000003
v -0.113714909 -0.018873180 0.075491091
v -0.120339856 -0.022984021 0.077922082
v -0.114881447 -0.015790312 0.082864329
v 0.003000000 0.000500000 0.184000000
v 0.030508617 0.007927228 0.182999998
v -0.061213447 0.017132106 0.030562329
v 0.008695451 -0.005500000 0.186803168
v -0.121719356 -0.021197071 0.077949462
v -0.009212993 -0.003214591 0.199780694
v -0.005642584 0.003186637 0.192573352
v -0.005995833 0.000933164 0.206000000
v -0.024000000 0.000500000 0.180999994
v 0.012999999 -0.005500000 0.184000000
v 0.018477360 -0.005500000 0.186500000
v 0.035907803 0.017499355 0.162618727
v -0.018869696 -0.001240471 0.205140156
v -0.061846297 0.015108179 0.027454501
v 0.025562500 0.002500000 0.180609370
v -0.016947523 0.018013612 0.135394272
v -0.115222997 -0.025195379 0.078979959
v 0.013548089 -0.003000000 0.054724703
v -0.025485605 0.003589236 0.193946783
v -0.004334528 0.004875046 0.207683424
v 0.028276664 -0.005500000 0.170458795
v 0.028193352 0.001998063 0.172117147
v 0.016301685 0.000513330 0.184000000
v 0.005104552 0.001525083 0.185214577
v -0.064135537 -0.000879306 0.018061832
v -0.066614925 0.001604235 0.016142287
v -0.067854620 0.002846005 0.015182514
v -0.004267558 0.003204090 0.188316892
v 0.012728235 0.000590409 0.184000000
v 0.017480713 0.000665269 0.186930199
v 0.006963849 0.002487993 0.185879758
v 0.037500001 0.000500000 0.180999994
v -0.037725619 0.016870838 0.099756767
v -0.115275305 -0.016868211 0.081224734
v -0.002000000 0.001085861 0.198962266
v -0.003835788 0.002894334 0.191273553
v -0.113869609 -0.021603584 0.088828879
v 0.022861604 0.002922465 0.072087770
v -0.008375000 -0.005500000 0.188999996
v 0.016893778 0.002437288 0.187210466
v -0.059302421 0.014419853 0.024885502
v -0.119308034 -0.021669492 0.078489602
v -0.115605068 -0.028494173 0.082155331
v -0.117988864 -0.022206672 0.087898270
v -0.022500001 0.005013000 0.187254714
v 0.035996177 0.018274184 0.098934589
v -0.123702360 -0.018036280 0.089233007
v 0.024499999 -0.001508860 0.169591860
v -0.015598149 0.006578877 0.187301215
v -0.007334627 0.008845762 0.203852553
v -0.025459013 0.001619408 0.189687663
v -0.115653154 -0.021235765 0.075729956
v -0.134099114 -0.012876717 0.084910404
v -0.012500000 0.021000000 0.094999999
v -0.032593750 0.002500000 0.179016561
v -0.117151893 -0.021381015 0.079495158
v -0.041499998 0.006070758 0.185275378
v 0.014265625 0.002500000 0.184000000
v -0.112164544 -0.022644555 0.085279697
v -0.002000000 -0.004923563 0.205396809
v -0.114496948 -0.019053715 0.077844989
v -0.002000000 0.001345568 0.191053900
v -0.119734941 -0.022915808 0.079095251
v -0.019842379 -0.003000000 0.077691004
v 0.019002205 0.003697941 0.051693857
v -0.120660692 -0.021282901 0.084363735
v -0.018999999 -0.003121590 0.203640173
v 0.037386995 -0.000750000 0.032801591
v 0.003000000 -0.000573412 0.185771321
v -0.036714538 -0.001527746 0.191402795
v -0.118833277 -0.018371075 0.080913843
v 0.019270114 0.007975730 0.184469062
v -0.002000000 -0.001115176 0.191700956
v -0.040129881 0.004066821 0.180100108
v -0.116877699 -0.021015823 0.081865963
v 0.013454445 0.017660365 0.092877925
v 0.025783372 0.001645280 0.175345661
v -0.003544865 0.000913868 0.188999996
v -0.030489631 0.003952743 0.190152206
v -0.018999999 -0.000857789 0.195991541
v 0.000429524 0.019050172 0.091244738
v 0.036778501 -0.002877305 0.167999998
v 0.031004680 0.003678617 0.182749997
v -0.120609792 -0.016377367 0.084968360
v 0.033716440 0.003228528 0.177465039
v -0.109611062 -0.024567683 0.078008084
v -0.126875473 -0.020552434 0.090111060
v -0.024000000 -0.000523279 0.183055198
v -0.039999999 -0.003110498 0.181520327
v -0.115862208 -0.019392509 0.076845878
v 0.017995103 0.001916652 0.185123212
v 0.011181075 0.015752814 0.096232964
v 0.012108492 0.002044474 0.186920776
v -0.035127058 -0.003180405 0.180999994
v -0.017164999 0.001320803 0.204718548
v 0.034531250 0.002500000 0.167171875
v -0.002000000 -0.000940622 0.195353396
v -0.006132813 0.000000000 0.085000001
v -0.009861560 0.000880699 0.194703127
v -0.009712547 -0.003281114 0.191307871
v -0.029433876 -0.002385644 0.180999994
v 0.028147227 0.000345182 0.173832159
v -0.003729853 -0.000071803 0.196437064
v 0.004276210 0.001123235 0.184000000
v -0.041499998 0.003617083 0.190636216
v -0.002000000 -0.002258387 0.201487858
v -0.119366311 -0.016476944 0.087936067
v -0.114804632 -0.024269820 0.073796827
v -0.054959803 0.017995385 0.021524111
v -0.025124126 0.001246804 0.180999994
v -0.118157293 -0.015307503 0.090324178
v -0.030164790 -0.004855405 0.180999994
v -0.018999999 0.000662131 0.190851078
v -0.117840422 -0.023759737 0.079123294
v 0.037500001 0.000639890 0.172239761
v 0.031742570 -0.001698246 0.178867338
v 0.007618396 -0.002463014 0.190369008
v 0.003000000 0.001038048 0.187596554
v 0.037375001 0.002500000 0.180187494
v -0.031155011 -0.001719392 0.183304378
v 0.037500001 0.002500000 0.174093746
v -0.009116006 0.018070602 0.091884059
v -0.027972659 0.002395805 0.184710980
v -0.011486393 0.002299730 0.191217500
v 0.029406375 -0.003210572 0.167999998
v 0.013375001 0.002500000 0.200000003
v -0.124325701 -0.023353369 0.082530123
v -0.004706442 -0.000925668 0.188999996
v -0.115163938 -0.022912545 0.073939585
v 0.011405859 0.018825487 0.090754283
v 0.018999999 0.000824678 0.199006207
v -0.065569270 0.010108547 0.025794686
v -0.030515625 0.002500000 0.196249995
v -0.120055763 -0.031030835 0.084622114
v 0.019656150 0.016558739 0.094999999
v -0.003409804 0.001723089 0.190287943
v -0.007483066 0.003744223 0.201963710
v 0.006497332 -0.003384484 0.184000000
v 0.016571534 0.000984928 0.198065838
v -0.061533108 0.009850690 0.025636136
v -0.034582941 -0.001529442 0.184251672
v 0.026681239 0.001211770 0.167999998
v -0.016462453 0.000215769 0.192383468
v -0.034159962 0.001880736 0.192621824
v 0.005083514 -0.001617306 0.193911545
v -0.012318663 -0.003000000 0.071108121
v 0.018999999 0.002500000 0.194125002
v 0.031048363 0.018352768 0.057618103
v -0.115207204 -0.020073266 0.079888411
v -0.003887505 0.001885178 0.203326562
v -0.005100129 0.003122209 0.197054053
v 0.028873069 0.000504708 0.049590869
v -0.123857374 -0.018023597 0.094359399
v 0.002812500 0.002500000 0.186375000
v 0.009125000 0.021000000 0.094999999
v 0.017745580 -0.001285537 0.200000003
v -0.009452792 0.001764249 0.198972393
v -0.113178898 -0.024561631 0.080942456
v -0.114105969 -0.022119519 0.078537948
v -0.039999999 0.002500000 0.194124995
v 0.003000000 -0.002572124 0.192761705
v 0.029132411 -0.001576098 0.171493292
v -0.090463910 -0.003405489 0.051977026
v -0.011961775 -0.001057009 0.192918597
v -0.125248925 -0.024058529 0.075527407
v 0.018999999 -0.003117679 0.190542171
v -0.119585516 -0.019663159 0.083293235
v 0.010990499 0.002265804 0.191320332
v -0.122728814 -0.025724826 0.078269165
v 0.018999999 -0.001483543 0.194738087
v -0.113136985 -0.018225058 0.090752719
v 0.011130641 -0.005500000 0.191400931
v -0.024000000 0.001482869 0.193187495
v 0.003000000 -0.005500000 0.198000003
v -0.036441987 0.002210870 0.184342883
v -0.011578362 0.002008661 0.193638210
v -0.004998251 -0.001712398 0.202239700
v -0.037588974 -0.005500000 0.186757061
v -0.115018381 -0.008059127 0.072961947
v -0.009198740 -0.001228619 0.195068320
v -0.117151860 -0.013855627 0.083175829
v 0.013406250 0.000000000 0.085000001
v -0.124914849 -0.028903883 0.088563648
v -0.117905305 -0.029502944 0.083633644
v -0.118805860 -0.028966703 0.085678281
v -0.118015532 -0.016872192 0.084650314
v -0.034662598 -0.003449440 0.185664400
v 0.036885473 0.018678153 0.132190209
v -0.023117083 0.007839603 0.060375279
v -0.117376486 -0.016943678 0.081715018
v -0.124657174 -0.024118509 0.090865540
v -0.110857501 -0.016842180 0.079743049
v 0.030394327 0.015082976 0.096725338
v -0.117799684 -0.028508505 0.080119307
v 0.013091492 0.021000000 0.098469773
v 0.015112292 -0.000594343 0.189306544
v -0.007390593 -0.003262810 0.188999996
v -0.110885987 -0.026063717 0.079204475
v -0.007946919 0.002145506 0.192283419
v 0.003000000 -0.000755250 0.188741427
v 0.045000002 0.013745581 0.085350654
v 0.018999999 0.000357656 0.193678259
v -0.118914295 -0.021587873 0.079923745
v 0.026616643 -0.001153388 0.180999994
v -0.002000000 0.002500000 0.199359373
v -0.111061524 -0.025878642 0.075733010
v 0.037500001 0.000944290 0.175178153
v 0.014590236 0.001998661 0.195288661
v -0.110790269 -0.022889680 0.077302243
v 0.027279059 0.002548866 0.176725651
v -0.066449245 0.016873170 0.030196080
v -0.008767362 0.005916008 0.193491350
v -0.115669581 -0.022708601 0.081822397
v -0.002000000 0.000419289 0.202030862
v -0.018999999 -0.004071223 0.192952588
v 0.033030641 0.002449555 0.179294710
v -0.035066166 -0.004015322 0.187359992
v -0.118187600 -0.026053833 0.081489941
v 0.015854023 0.001238160 0.190179905
v -0.036965648 0.001966082 0.194459074
v -0.004922103 0.000674732 0.191352931
v -0.038241500 -0.005500000 0.194757889
v -0.062681851 0.006671153 0.017276763
v -0.033156689 0.000426487 0.188719126
v 0.031440439 -0.000435317 0.176790159
v -0.114772473 -0.017719426 0.076889779
v -0.112783412 -0.023630647 0.074618032
v -0.039999999 -0.003838224 0.193817710
v -0.009063139 -0.002802709 0.197131673
v -0.012172501 0.003056806 0.201652129
v -0.032851818 -0.000126271 0.182835928
v -0.018999999 -0.001904619 0.193443747
v -0.118854466 -0.026971741 0.078729436
v -0.112630605 -0.020370001 0.080168256
v -0.013585699 0.002999079 0.196152577
v -0.016828070 -0.000182275 0.199429567
v -0.036297297 -0.005500000 0.190534585
v 0.010179570 0.002372150 0.197814463
v -0.113907553 -0.001313733 0.069391137
v 0.018723036 0.000895120 0.184000000
v -0.125125539 -0.013002626 0.091857077
v 0.029907162 -0.000908113 0.180999994
v -0.111964993 -0.016358919 0.088968962
v -0.109823590 -0.020002207 0.079657943
v 0.024499999 0.001200373 0.173772990
v -0.117586747 -0.017534276 0.092741874
v -0.110205957 -0.027255714 0.076783886
v 0.018499055 -0.003193750 0.184306250
v -0.038521716 -0.005500000 0.188994011
v 0.027475324 0.000876261 0.180999994
v 0.001546875 0.003561834 0.198020432
v -0.007829665 0.001767022 0.195017634
v 0.029635231 0.000826013 0.170399510
v 0.035002170 0.003602602 0.179847929
v 0.028391333 -0.001279829 0.178514018
v 0.006683108 0.003675057 0.202000007
v 0.024499999 0.002500000 0.174499996
v -0.109702022 -0.017249918 0.089078644
v 0.006679288 -0.000284947 0.194117415
v 0.011635752 0.000260286 0.187703977
v -0.113939550 -0.017287211 0.081976090
v 0.016726789 -0.003283717 0.184000000
v 0.003830441 -0.005180121 0.191614943
v 0.030000000 0.002500000 0.180999994
v -0.008625000 0.002500000 0.188999996
v -0.015754678 0.011617000 0.137777920
v -0.116511558 -0.015163326 0.084467587
v -0.002000000 -0.003579213 0.194771935
v 0.025789909 0.000742994 0.174314425
v -0.035365096 0.000161639 0.192686719
v 0.037500001 0.002500000 0.177749995
v 0.030808779 -0.002552271 0.174824089
v -0.030393450 0.000277529 0.187772235
v 0.003000000 -0.001342446 0.197524017
v 0.004190927 -0.002290206 0.184000000
v -0.012591046 0.004159769 0.192771474
v -0.007029473 -0.000460209 0.193552461
v 0.016799297 0.004485722 0.187687967
v -0.111874578 -0.012584608 0.082743067
v -0.004060706 0.003186413 0.201987994
v -0.088749328 -0.002367058 0.042061650
v -0.012704380 -0.003000000 0.034218158
v 0.011075262 -0.000213597 0.195035180
v 0.032671943 -0.000130389 0.174564251
v -0.035877987 -0.005500000 0.187556903
v -0.040374999 0.002500000 0.189378901
v 0.037500001 -0.000874972 0.176710919
v -0.039032913 0.002942257 0.196459959
v -0.039999999 -0.001775685 0.184525115
v -0.110967612 -0.019636566 0.087625464
v -0.009874080 0.000700643 0.191929557
v -0.011120894 0.013435922 0.177322452
v -0.009520288 -0.005500000 0.195048926
v -0.032550406 -0.003613316 0.180999994
v -0.012205479 0.002569223 0.199024127
v -0.037088819 -0.003291865 0.193416616
v -0.032275997 -0.001554790 0.180999994
v -0.114692980 -0.018987477 0.083913211
v -0.014231324 -0.002102326 0.204324341
v -0.028160341 0.000101483 0.183883020
v -0.124221575 -0.024796317 0.086856720
v -0.039449949 0.000883163 0.195999995
v -0.036838370 0.019523352 0.094969305
v -0.018999999 -0.005210041 0.190460934
v -0.120049237 -0.024538795 0.078195181
v -0.008162348 -0.002993004 0.194739860
v 0.014025658 -0.002330318 0.191680077
v -0.125096089 -0.021698575 0.091351223
v -0.031272815 -0.002016803 0.195999995
v -0.034634629 -0.005500000 0.184237476
v 0.025015624 0.002500000 0.170234372
v 0.006877071 0.001852932 0.196113881
v 0.029175349 0.004270108 0.178557501
v 0.028562500 -0.005500000 0.167999998
v -0.039999999 -0.004108660 0.188116519
v 0.018999999 -0.000310956 0.186172399
v -0.114721797 -0.023178921 0.075628473
v -0.016949193 -0.003000000 0.052221579
v 0.011138233 -0.001183330 0.184000000
v 0.036025792 -0.000216157 0.174501266
v -0.009291553 -0.001801647 0.203980649
v -0.012624544 -0.005500000 0.202991963
v -0.004075728 -0.003644555 0.196251937
v -0.008820869 0.002618269 0.203264922
v -0.114847313 -0.014949922 0.081431017
v -0.117711887 -0.019861697 0.076304842
v -0.033336731 -0.003159358 0.183051001
v 0.033551647 -0.005500000 0.174626356
v 0.016164389 0.000740914 0.200000003
v 0.003000000 0.001162775 0.185500000
v -0.018999999 -0.002869383 0.198154103
v 0.027040938 -0.000318716 0.169824849
v 0.035598646 0.001975694 0.175452336
v -0.024375501 0.007768453 0.032384493
v 0.032219677 0.002108183 0.172164935
v -0.110625179 -0.013371009 0.081466895
v -0.004929218 -0.003098782 0.200036254
v 0.031406250 0.002500000 0.167999998
v 0.036317756 0.001745820 0.179866872
v -0.120016851 -0.014226837 0.086973153
v 0.033859262 -0.001234893 0.180999994
v 0.009707605 -0.002364368 0.192265525
v -0.010943777 -0.002245410 0.188999996
v -0.030084860 -0.005500000 0.182823994
v -0.007726094 -0.000532918 0.206000000
v -0.119958585 -0.020012689 0.087748012
v -0.115179751 -0.015111133 0.088834589
v 0.037500001 0.000500000 0.167999998
v -0.024000000 0.002500000 0.190257807
v -0.032506573 -0.005500000 0.182851709
v 0.019093749 0.002500000 0.186312500
v -0.037416249 0.003791789 0.193967256
v -0.034378658 -0.005500000 0.194101874
v -0.121996826 -0.026448340 0.088681474
v -0.034455821 0.002115437 0.186643027
v -0.024944835 -0.003374364 0.180999994
v 0.006224719 -0.005500000 0.192216162
v -0.011214510 0.000884307 0.206000000
v -0.014020295 -0.002509444 0.191349543
v -0.016707606 -0.004505061 0.189204351
v -0.014047963 0.001529627 0.193143091
v -0.027083611 -0.002436878 0.184825897
v -0.039999999 -0.001849381 0.188102101
v -0.018298353 -0.004988142 0.199203587
v 0.029478237 0.001055063 0.178125957
v -0.026493393 -0.004071645 0.180999994
v 0.034918510 0.001563493 0.178808663
v -0.088542605 0.003788776 0.047291669
v -0.036518469 -0.000645216 0.182871641
v -0.026747544 -0.000286494 0.193388651
v 0.018999999 -0.003602838 0.197915341
v -0.006635566 -0.005500000 0.205745359
v 0.037500001 0.001048593 0.169368076
v 0.003000000 -0.005206266 0.189641908
v -0.018999999 -0.003375229 0.190500457
v -0.125233847 -0.015606337 0.088772532
v -0.025144921 0.002084467 0.194353118
v -0.013822157 -0.005178603 0.205534049
v -0.014210674 -0.001926469 0.206000000
v -0.018703124 0.002500000 0.191855465
v 0.012895733 -0.001931501 0.194256518
v -0.034255675 -0.004847287 0.180999994
v 0.009449709 -0.001244628 0.197293551
v -0.007097620 0.001054056 0.188999996
v -0.034599312 -0.002019552 0.188386068
v -0.009561028 0.003146198 0.196048867
v -0.121597704 -0.024753998 0.084743705
v -0.006303539 -0.005500000 0.196541266
v -0.028115957 -0.005246338 0.181830178
v 0.035063530 -0.000627673 0.176472366
v 0.003000000 -0.004033837 0.185466164
v -0.111762125 -0.015806036 0.075132767
v -0.035387743 -0.003570729 0.192218365
v 0.009141751 0.001378246 0.198380683
v -0.121444457 -0.025387659 0.090533567
v 0.040339284 0.003282009 0.070142917
v -0.028850654 0.001091368 0.180999994
v 0.007165147 0.004194174 0.196263901
v 0.014887122 -0.005500000 0.192427598
v 0.029325307 -0.004144681 0.174689195
v 0.031730627 -0.005500000 0.171287305
v -0.010642462 -0.005500000 0.204604738
v 0.037500001 0.001566924 0.170468970
v 0.028715076 0.002765049 0.175278508
v -0.116166748 -0.026598828 0.085333056
v -0.009292649 -0.005203338 0.205717188
v 0.028946050 -0.003928636 0.177000513
v -0.126244414 -0.026823371 0.087846406
v -0.033849165 0.020625000 0.147179764
v -0.006125000 0.002500000 0.206000000
v 0.001241533 -0.003000000 0.051102142
v 0.004867531 0.000080240 0.043312484
v -0.028135179 -0.005500000 0.185019691
v 0.003000000 0.000467627 0.191759164
v 0.032617549 0.003352022 0.173021920
v 0.011938535 0.000129537 0.191885799
v -0.018425438 -0.000443851 0.189301587
v 0.017984375 0.002500000 0.200000003
v -0.039999999 -0.001697833 0.193584226
v -0.010634276 -0.004809041 0.188999996
v -0.039999999 0.000613383 0.193526780
v 0.003000000 -0.002251565 0.184547069
v 0.036540296 -0.005500000 0.180635760
v -0.037521360 0.000689127 0.188877831
v -0.016425519 0.001538310 0.202528657
v -0.034130280 0.004030310 0.022427965
v -0.113601268 -0.013779412 0.086579445
v 0.014603165 -0.000028571 0.195554833
v -0.027691173 -0.002287166 0.182570618
v 0.010502639 -0.005500000 0.185060818
v -0.059872624 0.019063309 0.026918776
v 0.005276949 -0.005500000 0.198714201
v -0.034243038 -0.005500000 0.190040351
v -0.031393091 -0.005500000 0.189730444
v 0.033391712 -0.002114919 0.174095929
v 0.003000000 0.000673644 0.197065478
v -0.039114157 -0.005232537 0.184297138
v -0.027611087 -0.001037019 0.190748399
v -0.013140863 0.001286177 0.200512098
v -0.037879401 -0.003099024 0.182542093
v 0.003370429 -0.005205032 0.187152994
v -0.108887410 -0.017590936 0.081778789
v -0.008800047 -0.002074229 0.206000000
v -0.027736167 -0.000037317 0.189309908
v -0.112193856 -0.019505582 0.077040191
v 0.013571090 -0.000788038 0.197457182
v -0.024266898 0.000642003 0.195357325
v 0.036759886 -0.001123067 0.180999994
v -0.036187492 -0.000091671 0.186401840
v 0.007137944 0.000089196 0.184000000
v -0.004500000 0.021000000 0.094999999
v -0.014139877 0.001123429 0.197291327
v 0.004414276 -0.000341211 0.184000000
v -0.123389911 -0.029255640 0.087326211
v 0.011421901 -0.002768557 0.186293752
v -0.028770410 0.001430974 0.188672796
v -0.012360043 0.001103020 0.203658686
v 0.037500001 0.001665039 0.176878298
v 0.037500001 -0.003328617 0.179323505
v -0.114940920 -0.018181622 0.089694619
v 0.018671559 -0.005166358 0.189160238
v 0.006734375 0.002500000 0.200000003
v -0.008555410 0.000049322 0.203660653
v 0.004439808 -0.000717007 0.185845205
v 0.014338680 -0.001196707 0.186049038
v -0.006639289 -0.005500000 0.192887429
v -0.112390182 -0.014833012 0.083058602
v 0.012064562 -0.005500000 0.196668545
v -0.017589114 0.001031100 0.188999996
v -0.018999999 -0.001266763 0.191505424
v -0.123160587 -0.024191427 0.089284809
v -0.024837840 -0.001569824 0.195733498
v 0.005752416 0.001000468 0.200000003
v -0.121965035 -0.016553948 0.088837385
v 0.007187855 -0.005500000 0.189266433
v 0.016925374 -0.002918059 0.188283136
v 0.032824845 -0.002625000 0.056048474
v 0.026389552 -0.004798839 0.167999998
v 0.031847245 -0.005500000 0.180591740
v -0.126552506 -0.029090586 0.085973243
v 0.004621527 -0.000750000 0.020289882
v 0.035187037 -0.002191223 0.171223915
v -0.033310206 -0.001816250 0.192833048
v -0.013945904 -0.003089166 0.195991988
v 0.012577830 -0.003523943 0.184000000
v -0.004298404 0.015537879 0.095648437
v 0.038403226 0.004690961 0.169854966
v 0.027314540 0.000183845 0.178163364
v 0.018999999 -0.002753863 0.192237325
v -0.011286432 -0.003223633 0.202417206
v -0.003267676 0.001839016 0.204369663
v 0.006428960 0.018682000 0.142439352
v -0.019178291 0.020602350 0.096279723
v -0.111495770 -0.019411841 0.082267880
v -0.039999999 0.000692840 0.185634868
v 0.008224438 -0.005500000 0.191902435
v -0.039999999 0.000524691 0.189609717
v 0.034630462 -0.000138057 0.172463829
v 0.018278719 -0.005345441 0.196977281
v -0.011487512 -0.003463273 0.206000000
v -0.115723089 -0.016916723 0.091219053
v 0.026555229 -0.001513751 0.173555076
v -0.121722823 -0.029927118 0.083466561
v -0.007953047 -0.003805303 0.206000000
v -0.109623622 -0.015207739 0.081894853
v 0.024499999 0.001242389 0.179870434
v -0.119270786 -0.020639686 0.092066648
v -0.026580834 -0.005500000 0.192150977
v -0.011956210 -0.005500000 0.195283896
v 0.004354062 0.022000000 0.029737294
v -0.029662299 -0.005500000 0.192938132
v -0.017589760 -0.003959259 0.199638768
v 0.009221362 0.013361415 0.150493429
v -0.114841144 -0.021243180 0.086292500
v 0.011175193 -0.005500000 0.187564717
v -0.007035954 0.003012842 0.199572748
v 0.033547228 -0.003619995 0.176111433
v 0.031304690 -0.005500000 0.176937495
v -0.007675781 -0.001656822 0.197808289
v -0.120338288 -0.022786967 0.089053865
v 0.033829452 -0.005500000 0.178839380
v -0.005819766 0.022000000 0.046851609
v -0.012359046 -0.002834759 0.197153513
v 0.012332834 -0.002536765 0.189078024
v 0.018999999 -0.001309039 0.197595433
v -0.006423310 -0.001563852 0.190829650
v 0.037500001 -0.003470299 0.176268166
v 0.026125001 -0.005500000 0.179374993
v -0.019154248 0.000689405 0.042649457
v 0.037500001 -0.000993022 0.174350094
v -0.013412692 0.005395700 0.198751183
v -0.124398089 -0.031976003 0.087898871
v -0.024787638 -0.003654657 0.195627141
v -0.024000000 -0.002294517 0.189969300
v -0.016637017 -0.005500000 0.194014622
v -0.010971261 -0.000197383 0.204625591
v -0.118204893 -0.012879993 0.088656385
v 0.015617037 0.003119524 0.182560544
v -0.005260883 -0.005500000 0.200613146
v -0.001100057 -0.003000000 0.062240101
v -0.008301015 -0.005500000 0.191256171
v -0.131918965 -0.023928015 0.085102838
v -0.124525949 -0.015956435 0.093228958
v -0.124449849 -0.019006425 0.091125886
v -0.111681974 -0.022671279 0.079936167
v -0.039999999 -0.004177398 0.182281603
v -0.028402855 0.001908899 0.193589739
v -0.012222548 -0.005500000 0.199535778
v 0.028739188 0.002656610 0.178451873
v -0.024065941 -0.004537086 0.184360521
v 0.025597557 0.001687402 0.180181935
v -0.032854229 -0.002120998 0.189349772
v 0.015818432 -0.002152264 0.196463290
v 0.032555401 -0.002910581 0.171130170
v -0.032260551 -0.002708789 0.185536536
v -0.111551749 -0.023917830 0.082840794
v -0.028033568 -0.005500000 0.189464835
v -0.016069773 -0.003752447 0.197179577
v 0.028937274 -0.001543843 0.174778950
v -0.002339586 -0.005217937 0.192351725
v -0.000500000 0.005175370 0.194047598
v 0.003000000 0.002500000 0.198500003
v 0.033996400 0.000719626 0.180999994
v -0.017239025 -0.003123127 0.204019940
v 0.037500001 -0.001427255 0.170051555
v -0.018999999 -0.002545700 0.200384473
v 0.032115914 0.000736211 0.167999998
v -0.036784104 -0.003552748 0.189141533
v -0.018684498 -0.004638592 0.204439036
v -0.003826838 -0.005500000 0.195497278
v 0.007538613 -0.001590258 0.186424821
v -0.121558150 -0.018134167 0.087653183
v -0.091393318 0.004332420 0.043341875
v -0.028334039 -0.000986392 0.186379173
v -0.002363753 -0.004938613 0.202401182
v -0.117996198 -0.018376558 0.089966872
v -0.018710225 -0.002875000 0.188999996
v -0.035330911 -0.002229015 0.182263367
v -0.015354962 -0.000596894 0.203069824
v 0.030550459 -0.005500000 0.174204423
v -0.119768229 -0.028401266 0.087652900
v -0.121109245 -0.018463321 0.089907456
v -0.039685012 -0.005500000 0.182241189
v 0.012833254 -0.005500000 0.193395871
v -0.111631056 -0.018101593 0.085026032
v -0.039999999 0.002500000 0.183812494
v -0.033603933 -0.001500605 0.195999995
v -0.108737992 -0.018409562 0.086333084
v -0.114575282 -0.012825451 0.082462937
v -0.002648981 -0.004874911 0.188999996
v -0.035305242 -0.004021711 0.195999995
v -0.037573975 -0.001412263 0.072107268
v -0.024805077 -0.005500000 0.188890713
v -0.014730865 -0.005500000 0.201337432
v -0.002000000 0.002500000 0.204937500
v -0.031701844 -0.004296909 0.191618653
v 0.030559198 -0.003826827 0.180999994
v -0.031780785 -0.000344765 0.185109596
v 0.016860230 -0.005500000 0.198317648
v -0.118507688 -0.023459127 0.082710177
v -0.015022395 0.006548201 0.044451116
v -0.024000000 -0.001791568 0.186278815
v 0.015764351 -0.003980221 0.200000003
v 0.011880061 -0.002047815 0.200000003
v -0.013091210 -0.001206026 0.202450288
v 0.024499999 -0.004825547 0.173332079
v -0.107661462 -0.018598464 0.083934889
v -0.119606878 -0.016818134 0.092738560
v -0.126242106 -0.027991384 0.083060869
v -0.121871092 -0.018255688 0.095080576
v -0.003979965 -0.004532035 0.206000000
v -0.039999999 -0.004884585 0.189985717
v -0.024000000 -0.005240956 0.193430374
v -0.002000000 -0.003648232 0.197451937
v 0.025411868 -0.005262532 0.170161715
v -0.015389591 -0.005500000 0.197068217
v -0.002354167 -0.004593895 0.199903979
v 0.003000000 -0.002757092 0.189097432
v -0.120351911 -0.024977385 0.086710928
v -0.005896915 0.001719356 0.066191791
v 0.009520376 -0.005500000 0.196648952
v 0.014697243 -0.005500000 0.199298147
v -0.121031241 -0.014511109 0.090584986
v -0.011072593 0.022000000 0.079326767
v 0.013098579 -0.003000000 0.032845733
v -0.029010156 -0.003623421 0.191362029
v -0.122865736 -0.022349858 0.093737765
v 0.035193784 0.015987812 0.138273711
v -0.059033532 0.000176477 0.015753788
v -0.025243527 -0.000738312 0.180999994
v -0.003161721 -0.005500000 0.198562498
v 0.029067493 -0.005500000 0.176077034
v -0.114141670 -0.024975251 0.084817968
v 0.008779347 0.001780002 0.063881903
v -0.014484013 -0.005500000 0.192220501
v -0.028860020 -0.005058843 0.195528460
v -0.021314509 0.000269757 0.063616498
v -0.003043788 -0.002500000 0.206000000
v -0.016488970 -0.005500000 0.199509510
v -0.118512010 -0.024006656 0.075045509
v -0.036255619 -0.002534976 0.184298660
v -0.117966883 -0.016496413 0.077805271
v 0.003612276 -0.004887724 0.184000000
v -0.120360751 -0.023673439 0.080914499
v -0.015149944 0.001040701 0.188999996
v 0.012401762 -0.004312846 0.200000003
v -0.002000000 -0.003311007 0.204634329
v 0.014657700 -0.004858229 0.184000000
v 0.027389046 -0.002381127 0.167999998
v 0.016718301 -0.003197146 0.194104552
v 0.035397040 -0.003506813 0.180999994
v 0.010156342 -0.003566959 0.184000000
v -0.032022439 -0.004182856 0.195999995
v 0.015206432 -0.005500000 0.196154295
v -0.011697466 -0.001329155 0.206000000
v -0.036392923 -0.005292506 0.182051778
v -0.117908091 -0.026150313 0.088162566
v -0.124014853 -0.024933978 0.082682067
v 0.013416286 -0.005500000 0.189548137
v -0.018999999 0.001221624 0.193013364
v -0.011052764 -0.005500000 0.191894137
v 0.010430329 -0.004745890 0.199587240
v 0.028717333 -0.003715584 0.180999994
v -0.027615924 -0.002116957 0.195999995
v 0.005032507 0.001276511 0.190302740
v 0.005155230 -0.001350026 0.197399726
v -0.116926416 -0.020183956 0.093917728
v 0.026457686 -0.000959792 0.176193827
v -0.120625445 -0.020526905 0.094399396
v -0.121707502 -0.022631439 0.080442228
v -0.113870736 -0.018408942 0.086974811
v -0.013802896 -0.005500000 0.189546602
v -0.003926580 -0.005500000 0.203883220
v 0.018327465 -0.005001707 0.194194732
v -0.035513065 0.000480379 0.195999995
v -0.025784295 -0.003125575 0.192244722
v 0.011120042 0.000084412 0.200000003
v -0.025885563 -0.005500000 0.183815958
v -0.031296337 0.000615338 0.195999995
v 0.036156161 -0.005424302 0.176173824
v -0.121511054 -0.020381798 0.096172607
v 0.001492441 -0.003000000 0.032844426
v 0.037500001 -0.003501649 0.170514873
v -0.013581250 0.002500000 0.188624997
v 0.006748778 -0.003210638 0.194570926
v -0.123580801 -0.020404395 0.093696558
v -0.024000000 0.000827124 0.185559733
v -0.028197652 -0.000466744 0.180999994
v 0.037500001 -0.003619074 0.173370934
v 0.033953240 -0.005378644 0.168681040
v -0.010003779 0.000857068 0.188999996
v -0.029241943 -0.002454354 0.193139412
v -0.038188674 -0.000931323 0.180999994
v 0.010717674 -0.003739614 0.194178540
v -0.025833096 0.000223034 0.183312394
v -0.039999999 -0.002595106 0.190418637
v 0.031728693 -0.000618598 0.171881561
v -0.110630397 -0.024665068 0.080683938
v 0.036705164 -0.005500000 0.169719553
v -0.025425786 -0.005358084 0.195694404
v -0.005813484 -0.000126771 0.203581980
v 0.007097198 -0.005500000 0.196717977
v -0.015029453 -0.003893121 0.206000000
v -0.039030152 -0.001671944 0.195999995
v -0.029627052 -0.003160538 0.188461236
v 0.026503046 -0.005500000 0.177059387
v -0.009920111 -0.003000000 0.080736457
v -0.012140626 0.002500000 0.206000000
v -0.033335937 0.002500000 0.180999994
v -0.110867454 -0.014973329 0.086852252
v 0.003369499 -0.003755501 0.199739759
v -0.004780888 -0.002993745 0.188999996
v -0.017202940 -0.005500000 0.191120686
v -0.011096131 0.000608602 0.050301471
v -0.007120454 -0.005500000 0.203604661
v 0.018999999 -0.003429576 0.195732906
v -0.112574444 -0.016332291 0.077305451
v -0.002000000 0.000500000 0.188999996
v -0.118342266 -0.020342002 0.085585666
v -0.018237688 -0.005267755 0.196849546
v 0.024499999 0.001500000 0.180999994
v -0.029949704 0.004450097 0.197999999
v 0.031113512 0.001283708 0.173972740
v -0.004719605 0.001831709 0.194640731
v -0.014214320 -0.002602396 0.199093465
v 0.030818588 -0.005205860 0.168822042
v -0.128236251 -0.028664573 0.084705113
v -0.038278135 0.001195020 0.180999994
v -0.108400870 -0.020285242 0.082046265
v 0.033424877 -0.003376690 0.167999998
v -0.120262802 -0.029041811 0.081794260
v -0.014951614 0.000233681 0.204429548
v -0.122074766 -0.027266790 0.080439158
v 0.007837105 -0.005343456 0.199302814
v 0.024499999 -0.001898924 0.178924251
v 0.024499999 -0.005210386 0.178765620
v -0.116406364 -0.020254127 0.089616616
v -0.015912083 -0.001216348 0.188999996
v -0.120851801 -0.022185732 0.095797011
v 0.018548637 -0.004187708 0.199885160
v -0.039999999 0.001124153 0.182338397
v -0.025625000 0.002500000 0.180999994
v -0.005490754 0.022000000 0.067412949
v -0.024000000 -0.003520663 0.182492069
v 0.008869341 -0.005500000 0.194299013
v -0.030899644 -0.004125925 0.193973095
v -0.006250000 0.016000001 0.151999995
v -0.117795092 -0.019747056 0.079802599
v -0.122363128 -0.029535447 0.089276153
v 0.035111528 -0.005500000 0.172726923
v -0.110306558 -0.011597496 0.082585910
v -0.121517916 -0.023769116 0.094752409
v 0.020266471 0.019527078 0.091928450
v -0.026723075 -0.005500000 0.187101243
v -0.039284072 -0.005500000 0.191804896
v 0.004536097 -0.005356194 0.194958460
v 0.036387223 0.001622561 0.169300433
v 0.009877754 -0.004027510 0.197912561
v -0.024000000 0.000833961 0.182647936
v 0.031512730 -0.001203414 0.167999998
v 0.035708963 0.003852955 0.173637757
v 0.027032173 -0.002756886 0.177574411
v -0.024000000 -0.003433454 0.192793757
v -0.026191076 0.014008597 0.150123327
v 0.027257319 -0.005500000 0.172863500
v 0.037500001 -0.000553386 0.179128997
v 0.005668523 -0.005232903 0.185064791
v 0.008952704 -0.003406162 0.187848189
v 0.012475782 -0.003000000 0.068316228
v 0.024750791 -0.002971184 0.168527749
v -0.024000000 0.001200143 0.190002164
v -0.116510531 -0.022500530 0.084700325
v -0.113484887 -0.027116803 0.081198855
v -0.119268788 -0.018796015 0.094957133
v -0.032440062 -0.005500000 0.193795848
v -0.109100977 -0.022781232 0.080836671
v -0.013398737 -0.003475983 0.188999996
v -0.113998269 -0.018982606 0.092386130
v -0.018312500 0.002500000 0.205660156
v 0.003000000 -0.000801745 0.194475331
v -0.024592152 -0.005500000 0.181567040
v -0.108311822 -0.014505560 0.085216535
v 0.035767659 0.001348153 0.177097989
v -0.018116138 -0.002947502 0.205848516
v -0.108260248 -0.016086902 0.087082519
v 0.019818413 0.000000000 0.012792147
v -0.026820475 0.016082219 0.140794210
v 0.005777399 -0.003337283 0.189038524
v -0.012518105 -0.003790180 0.193800702
v 0.007191538 0.007800476 0.077003631
v -0.036746933 -0.002179819 0.187075737
v -0.018751145 0.022000000 0.085098155
v -0.015922099 -0.000765759 0.206000000
v 0.006750489 -0.003362287 0.200000003
v -0.113672284 -0.011937072 0.084410090
v 0.024499999 -0.003361130 0.171140109
v -0.013296607 -0.000165471 0.206000000
v 0.008232422 -0.005152569 0.184149008
v -0.018849241 -0.004760876 0.201785730
v -0.122024793 -0.016450099 0.093318483
v -0.011261947 0.000004378 0.199878095
v 0.002625000 0.002500000 0.193625002
v 0.012765843 -0.003607100 0.196918941
v -0.126859365 -0.024094672 0.088251008
v -0.030858500 -0.005500000 0.186553879
v -0.004412994 0.017550344 0.166856050
v 0.028068496 0.001485070 0.174714901
v -0.119203827 -0.023474411 0.093298337
v 0.035750640 -0.004518936 0.167999998
v -0.003250000 0.020521775 0.097587893
v 0.017813049 -0.005238301 0.191074499
v 0.008699779 -0.000295882 0.200000003
v 0.037376441 0.007408090 0.181930899
v -0.125223845 -0.022682294 0.087260066
v -0.124230779 -0.029019238 0.083440001
v -0.012583574 -0.000858071 0.188999996
v 0.006336137 0.008742933 0.087616303
v 0.027804366 -0.003000000 0.029048751
v -0.024000000 -0.004213047 0.187482982
v -0.123276855 -0.016425745 0.093817212
v -0.001437500 0.002500000 0.192984372
v 0.024499999 -0.001087208 0.173133869
v -0.024000000 -0.000402613 0.188202078
v 0.024767963 -0.000666462 0.180736093
v -0.013934989 -0.001500000 0.020377064
v -0.002282853 0.001882120 0.033467268
v -0.106716767 -0.016889622 0.085558645
v 0.024499999 0.000793344 0.177467488
v 0.024499999 -0.002008079 0.176258648
v -0.115630417 -0.025872281 0.082117589
v -0.107837080 -0.015876495 0.083745197
v -0.121857004 -0.027352953 0.091707201
v 0.008846536 -0.002285530 0.200000003
v -0.002260936 -0.002516950 0.189240385
v -0.039693352 -0.005500000 0.186076568
v -0.120200297 -0.026909482 0.090141078
v 0.034770898 -0.002529364 0.178510842
v -0.115909842 -0.022088741 0.090836450
v -0.118085904 -0.022371038 0.077715782
v -0.014259323 0.018849592 0.093342087
v 0.016816451 -0.005248610 0.185041779
v -0.018723277 -0.005500000 0.195221191
v -0.122768625 -0.021929675 0.088381872
v -0.002000000 -0.000666357 0.204281782
v -0.039999999 -0.003143269 0.195462466
v -0.010728451 -0.000442385 0.196473522
v -0.122722837 -0.020919858 0.082082199
v 0.039000001 0.003977690 0.177095225
v -0.030393410 0.000053352 0.191508614
v -0.004165381 -0.005500000 0.191165377
v 0.027729707 -0.001546394 0.176576658
v 0.029845708 -0.003651822 0.172610834
v -0.121714093 -0.025282171 0.092737298
v -0.016874013 -0.005500000 0.203829258
v -0.124316721 -0.026263884 0.090376967
v -0.004497218 0.002961064 0.203378369
v 0.014571762 -0.003483246 0.187278266
v 0.012778208 0.001361325 0.031809436
v -0.024000000 -0.000719327 0.192753083
v -0.122014175 -0.016555756 0.091566936
v 0.035726119 0.002008244 0.170789339
v -0.003884732 -0.001579061 0.198825404
v -0.026049183 0.001060761 0.186084249
v -0.006696189 -0.003020374 0.192780545
v 0.025446692 -0.003215531 0.180851069
v -0.037371265 0.018197579 0.145965851
v -0.018999999 0.000496120 0.203139636
v 0.015935992 0.019396098 0.089652838
v -0.015164942 -0.000607185 0.197123384
v 0.008609435 0.002556401 0.182697250
v 0.004656859 -0.001427930 0.200000003
v -0.025614306 -0.001710794 0.187837033
v -0.124957100 -0.030977504 0.086083857
v -0.038770230 0.002117267 0.194764504
v -0.037004287 -0.005500000 0.184473713
v -0.113624802 -0.020717631 0.072988320
v -0.123244997 -0.028488934 0.090726674
v 0.015228308 -0.001368416 0.200000003
v 0.015808568 -0.005500000 0.188390585
v -0.120804046 -0.019083726 0.079620139
v -0.002000000 -0.003364376 0.191288215
v -0.016056238 -0.002992254 0.194487956
v -0.119287280 -0.021002269 0.096604630
v -0.024145035 -0.004865707 0.190493286
v -0.112780036 -0.027620466 0.077064108
v -0.043977682 0.001087609 0.044163672
v -0.009954265 -0.003032581 0.206000000
v 0.015203118 0.002980293 0.191760817
v -0.113672226 -0.022065946 0.082774716
v 0.037500001 0.001196624 0.178487941
v -0.061590797 0.019321034 0.025900053
v -0.033032323 0.005345752 0.178181155
v -0.002140523 -0.000281108 0.206000000
v -0.109704808 -0.020928547 0.084322771
v 0.029488724 0.000188710 0.167999998
v -0.039999999 -0.000305516 0.183135655
v 0.036042160 -0.000606320 0.167999998
v -0.124666223 -0.019261302 0.092879507
v -0.012948647 0.019271532 0.090381107
v -0.117327467 -0.024375764 0.086642059
v -0.010226449 -0.001639909 0.200968692
v -0.000500000 0.004394401 0.198927609
v 0.005375000 0.021000000 0.094999999
v -0.008847422 -0.001071130 0.188999996
v 0.029073479 -0.005500000 0.179555478
v 0.003000000 0.001000000 0.200000003
v -0.048937102 0.010513844 0.015907870
v 0.031754686 -0.003980748 0.172611388
v -0.062425187 0.009818554 0.016004817
v -0.093246478 0.005530460 0.048798738
v 0.033355397 0.014900904 0.088622646
v -0.037459626 -0.003202981 0.195999995
v -0.018999999 -0.003755320 0.195646725
v -0.007282435 -0.001397670 0.200546473
v -0.016089021 0.003683552 0.202365914
v -0.002000000 0.000504398 0.196618736
v 0.003944799 -0.003000000 0.076412942
v 0.003000000 -0.003761212 0.195842941
v -0.009259252 -0.005500000 0.200604041
v -0.065876868 0.003816636 0.017944118
v 0.025617187 -0.005500000 0.180898431
v -0.113977238 -0.022261883 0.073765862
v -0.124629709 -0.020147496 0.085669434
v 0.025734130 -0.005500000 0.175137500
v 0.006474609 0.018511306 0.090053819
v -0.036749999 0.002500000 0.180999994
v -0.007891429 0.000811277 0.201256542
v -0.005744388 -0.005259305 0.190292098
v -0.006496057 0.001945554 0.197399472
v -0.118472800 -0.024746594 0.090708130
v -0.117847121 -0.029683158 0.081541544
v -0.114037269 -0.025891495 0.075409220
v -0.039999999 -0.003529496 0.185626717
v -0.015849506 0.001228168 0.206000000
v -0.066362688 0.006104734 0.015224273
v -0.059987870 0.015894987 0.016147729
v -0.058791834 0.022090901 0.027951212
v -0.081766062 0.008081122 0.047369782
v -0.061511615 0.002369462 0.014440270
v 0.000916753 0.007863281 -0.014150462
v -0.037999999 -0.003000000 0.027962457
v -0.003431908 0.019466865 0.093196674
v -0.012880669 0.015296875 0.008910274
v -0.061042012 0.019593527 0.023232287
v -0.056186996 0.001376659 0.028474943
v 0.011600616 0.008698659 0.133930086
v -0.130831343 -0.027803530 0.082764759
v -0.064797008 0.009259629 0.017430219
v 0.013593749 0.000000000 0.016138517
v -0.034206191 -0.002882295 0.045466824
v 0.016636353 0.016932566 0.137591676
v -0.009504617 0.019133456 0.087587626
v -0.055948567 0.015569383 0.017664865
v 0.005358939 0.007406235 0.013905919
v 0.009156265 0.000000000 0.016156977
v 0.023274150 0.018206175 0.089529921
v -0.006203108 0.019619136 0.092108699
v -0.060149433 0.018775943 0.020657650
v -0.064023023 0.011560611 0.018400145
v -0.031161439 0.015242753 0.096245326
v -0.065491846 0.007249981 0.014741875
v -0.046606268 -0.003038860 0.020993263
v 0.027770795 0.020375588 0.097815511
v 0.004320728 0.020230892 0.092442263
v -0.039579031 0.022019620 0.033749999
v -0.046448965 0.022045915 0.031364970
v -0.039230846 0.008647402 0.013734114
v -0.032828125 -0.000209384 0.016925769
v -0.062828565 0.014095956 0.020071562
v -0.063818901 0.010497646 0.014788254
v -0.004684642 0.019801400 0.089911516
v 0.000477511 0.019613094 0.094999999
v 0.024507827 0.021512965 0.091255692
v -0.032605053 -0.003000000 0.023832480
v -0.053717223 0.012063897 0.035873332
v -0.062320478 0.017669246 0.022586138
f 109 1 9
f 9 1 249
f 1186 1 109
f 249 1 1144
f 1 1169 1144
f 1186 1169 1
f 180 2 3
f 3 2 181
f 2 4 11
f 1144 4 2
f 49 9 2
f 9 251 2
f 11 48 2
f 48 82 2
f 83 49 2
f 82 181 2
f 180 83 2
f 2 251 1144
f 181 180 3
f 4 135 11
f 135 4 173
f 4 1144 173
f 5 6 11
f 5 227 6
f 11 104 5
f 104 435 5
f 435 227 5
f 227 7 6
f 7 1161 6
f 6 47 11
f 60 47 6
f 6 62 60
f 6 1161 62
f 7 12 25
f 84 12 7
f 25 1190 7
f 7 1199 84
f 227 1199 7
f 7 1190 1161
f 472 235 8
f 235 1065 8
f 8 486 472
f 1065 486 8
f 28 109 9
f 28 9 115
f 115 9 49
f 9 249 250
f 9 250 251
f 10 33 24
f 24 1186 10
f 33 10 1165
f 1165 10 38
f 38 10 1198
f 187 10 1192
f 1198 10 187
f 1186 1192 10
f 11 31 105
f 200 31 11
f 11 46 104
f 105 46 11
f 183 11 47
f 115 48 11
f 78 11 135
f 78 200 11
f 115 11 1167
f 11 183 1167
f 50 25 12
f 12 88 50
f 1199 12 84
f 12 140 88
f 12 1199 140
f 39 40 13
f 671 39 13
f 40 197 13
f 197 946 13
f 201 13 357
f 671 13 201
f 946 357 13
f 100 14 232
f 100 1117 14
f 178 244 14
f 14 819 178
f 634 232 14
f 244 634 14
f 1117 819 14
f 32 15 139
f 278 15 32
f 71 15 63
f 240 63 15
f 15 71 139
f 15 213 92
f 92 490 15
f 717 213 15
f 490 240 15
f 15 278 717
f 30 675 16
f 1196 30 16
f 675 1034 16
f 16 1034 1196
f 988 99 17
f 1116 17 99
f 157 17 281
f 17 157 1090
f 298 281 17
f 1116 298 17
f 988 17 1090
f 18 59 132
f 359 59 18
f 132 419 18
f 18 419 359
f 80 19 20
f 19 270 20
f 80 270 19
f 80 20 59
f 20 107 59
f 20 425 107
f 270 425 20
f 86 21 43
f 21 852 43
f 86 120 21
f 120 146 21
f 21 146 236
f 852 21 236
f 273 252 22
f 252 489 22
f 908 273 22
f 489 908 22
f 164 44 23
f 44 620 23
f 359 66 23
f 406 23 66
f 164 23 406
f 270 417 23
f 425 270 23
f 23 417 359
f 425 23 620
f 33 1174 24
f 1169 24 1110
f 1174 1110 24
f 24 1169 1186
f 50 121 25
f 1189 25 121
f 25 1189 1190
f 951 26 170
f 26 1171 170
f 311 766 26
f 26 1028 311
f 632 26 704
f 26 632 1028
f 26 951 704
f 1171 26 766
f 357 27 903
f 946 27 357
f 512 899 27
f 27 946 512
f 27 899 903
f 1186 109 28
f 115 1192 28
f 1186 28 1192
f 45 34 29
f 53 29 34
f 52 45 29
f 1010 52 29
f 53 1010 29
f 36 32 30
f 139 30 32
f 59 30 35
f 30 379 35
f 1016 36 30
f 59 87 30
f 30 139 61
f 30 61 675
f 65 379 30
f 30 1127 65
f 87 93 30
f 93 848 30
f 848 1016 30
f 1127 30 1196
f 173 105 31
f 200 173 31
f 278 32 36
f 33 1165 1198
f 1198 1174 33
f 45 1167 34
f 34 1164 53
f 1164 34 1167
f 76 59 35
f 35 419 76
f 379 419 35
f 36 88 527
f 1016 88 36
f 278 36 717
f 717 36 527
f 95 37 717
f 1011 37 95
f 257 37 116
f 37 1011 116
f 37 257 1184
f 717 37 1184
f 1198 1165 38
f 573 40 39
f 397 39 671
f 397 995 39
f 995 573 39
f 269 197 40
f 573 269 40
f 41 141 77
f 77 1170 41
f 419 141 41
f 316 41 152
f 1170 152 41
f 316 419 41
f 42 239 131
f 131 481 42
f 42 1052 239
f 1052 42 481
f 86 43 204
f 108 204 43
f 108 43 412
f 43 852 412
f 164 1141 44
f 44 701 620
f 993 701 44
f 993 44 1141
f 45 52 1167
f 435 104 46
f 435 46 105
f 183 47 60
f 49 82 48
f 48 115 49
f 83 82 49
f 88 967 50
f 50 746 121
f 967 746 50
f 292 51 53
f 53 51 1010
f 51 292 1042
f 849 705 51
f 51 705 1173
f 51 1042 849
f 51 1173 1010
f 1167 52 705
f 52 1179 705
f 1010 1179 52
f 372 292 53
f 734 372 53
f 1167 734 53
f 53 1164 1167
f 80 59 54
f 1187 54 59
f 1187 80 54
f 178 819 55
f 178 55 1126
f 429 55 438
f 55 429 1126
f 1068 438 55
f 55 819 1068
f 604 103 56
f 1003 56 103
f 56 274 273
f 273 604 56
f 1003 274 56
f 186 57 318
f 917 57 186
f 57 217 521
f 917 217 57
f 521 318 57
f 58 505 138
f 1134 58 138
f 505 58 797
f 58 1134 797
f 87 59 70
f 59 107 70
f 76 132 59
f 59 359 1187
f 62 1161 60
f 1161 183 60
f 139 71 61
f 61 71 1034
f 61 1034 675
f 1034 71 63
f 63 490 92
f 63 92 710
f 240 219 63
f 219 490 63
f 710 1034 63
f 227 64 356
f 227 435 64
f 64 435 356
f 419 379 65
f 65 1127 419
f 213 66 316
f 66 213 406
f 359 316 66
f 68 107 67
f 67 620 68
f 67 107 425
f 425 620 67
f 70 107 68
f 70 68 372
f 68 620 372
f 87 70 372
f 72 100 232
f 1117 100 72
f 569 72 232
f 569 667 72
f 667 728 72
f 72 728 835
f 835 862 72
f 1117 72 862
f 172 74 332
f 457 74 172
f 74 864 332
f 864 74 393
f 74 957 393
f 74 457 957
f 118 111 75
f 75 111 163
f 119 118 75
f 119 75 475
f 296 75 163
f 762 75 296
f 378 1026 75
f 1094 378 75
f 475 75 1026
f 1094 75 762
f 76 419 132
f 77 152 89
f 1175 77 89
f 77 141 152
f 1175 1170 77
f 135 173 78
f 173 200 78
f 173 79 91
f 505 91 79
f 79 173 1144
f 356 435 79
f 79 1144 356
f 1162 79 435
f 1162 505 79
f 1187 270 80
f 683 647 81
f 647 745 81
f 751 683 81
f 904 81 745
f 904 751 81
f 181 82 83
f 180 181 83
f 113 277 85
f 403 113 85
f 85 277 465
f 403 85 1019
f 761 85 465
f 85 761 1019
f 86 236 120
f 86 204 852
f 86 852 236
f 87 967 93
f 372 967 87
f 140 816 88
f 88 288 213
f 213 1184 88
f 816 288 88
f 1184 527 88
f 88 848 967
f 88 1016 848
f 89 152 1170
f 89 1170 716
f 1175 89 716
f 435 173 91
f 91 1162 435
f 797 91 505
f 1162 91 797
f 213 710 92
f 967 848 93
f 95 257 116
f 95 116 1090
f 257 95 717
f 1011 95 633
f 95 1090 633
f 816 148 97
f 148 1174 97
f 97 370 288
f 97 288 816
f 542 370 97
f 97 1174 542
f 108 129 98
f 204 108 98
f 1187 98 129
f 270 204 98
f 98 417 270
f 1187 417 98
f 134 99 269
f 1116 99 134
f 205 99 157
f 99 988 157
f 197 99 205
f 197 269 99
f 102 209 171
f 171 274 102
f 102 516 209
f 273 102 252
f 252 102 1045
f 516 102 273
f 102 274 1126
f 1045 102 785
f 102 1126 785
f 884 160 103
f 103 160 1091
f 884 103 604
f 1091 1003 103
f 105 173 435
f 215 272 106
f 215 106 535
f 272 1046 106
f 106 469 535
f 106 1046 469
f 129 108 412
f 110 509 534
f 110 657 509
f 574 110 534
f 110 574 1029
f 110 658 657
f 1029 658 110
f 114 111 716
f 737 111 114
f 118 162 111
f 151 111 162
f 716 111 151
f 163 111 737
f 112 272 215
f 366 112 215
f 994 272 112
f 1119 112 366
f 873 994 112
f 1119 873 112
f 389 113 145
f 113 463 145
f 389 277 113
f 463 113 403
f 162 737 114
f 114 1175 162
f 1170 114 716
f 1170 1175 114
f 1049 115 1167
f 1049 1192 115
f 116 1011 1090
f 296 118 119
f 162 118 163
f 118 296 163
f 296 119 371
f 480 350 119
f 350 642 119
f 371 119 642
f 480 119 475
f 146 120 131
f 131 120 535
f 236 711 120
f 120 320 562
f 120 711 320
f 535 120 562
f 1167 183 121
f 183 1189 121
f 121 746 1167
f 729 560 123
f 560 975 123
f 651 934 123
f 123 1019 651
f 1006 729 123
f 1006 123 934
f 123 975 1019
f 125 307 488
f 307 125 1037
f 787 343 125
f 125 343 1037
f 488 787 125
f 204 270 129
f 204 129 412
f 270 1187 129
f 131 226 146
f 307 226 131
f 131 239 307
f 535 481 131
f 134 269 154
f 983 134 154
f 233 334 134
f 983 233 134
f 334 966 134
f 1116 134 966
f 185 390 137
f 540 185 137
f 472 137 235
f 235 137 685
f 390 685 137
f 472 540 137
f 177 188 138
f 387 177 138
f 188 1134 138
f 505 387 138
f 1110 816 140
f 1199 1110 140
f 316 152 141
f 141 1196 316
f 1127 141 419
f 141 1127 1196
f 142 933 279
f 279 1116 142
f 142 621 933
f 966 621 142
f 142 1116 966
f 389 145 167
f 145 1100 167
f 177 145 188
f 177 403 145
f 145 463 188
f 616 145 403
f 616 1100 145
f 226 1037 146
f 146 1037 236
f 269 147 154
f 911 154 147
f 147 269 573
f 573 995 147
f 147 995 911
f 1110 148 816
f 148 1110 1174
f 297 286 150
f 286 1045 150
f 321 297 150
f 321 150 1140
f 1045 1140 150
f 1175 151 162
f 151 1175 716
f 911 983 154
f 205 157 281
f 157 988 633
f 1090 157 633
f 207 160 790
f 160 207 1091
f 555 160 304
f 160 884 304
f 555 790 160
f 162 163 737
f 406 322 164
f 322 931 164
f 931 1141 164
f 298 166 281
f 166 510 281
f 298 810 166
f 166 810 510
f 332 864 167
f 1146 332 167
f 864 389 167
f 1146 167 1100
f 261 168 283
f 261 1062 168
f 168 857 283
f 629 857 168
f 881 629 168
f 1154 881 168
f 1062 1154 168
f 170 389 393
f 170 1171 389
f 170 393 957
f 833 951 170
f 833 170 957
f 191 516 171
f 1030 191 171
f 171 209 1030
f 171 273 274
f 171 516 273
f 195 418 172
f 1109 195 172
f 172 332 1156
f 418 457 172
f 1109 172 1156
f 176 517 612
f 176 733 517
f 176 612 763
f 733 176 772
f 176 763 1143
f 772 176 1143
f 463 177 387
f 463 403 177
f 274 244 178
f 178 1126 274
f 182 237 1017
f 1091 237 182
f 1091 182 1003
f 182 1158 1003
f 1158 182 1017
f 1161 1190 183
f 1190 1189 183
f 371 426 185
f 185 575 371
f 390 185 713
f 426 713 185
f 185 540 575
f 186 807 313
f 313 917 186
f 880 186 318
f 880 807 186
f 1192 1198 187
f 188 463 387
f 387 1134 188
f 616 403 190
f 403 1019 190
f 560 941 190
f 190 975 560
f 941 616 190
f 975 190 1019
f 191 219 240
f 219 191 1030
f 490 191 240
f 191 490 971
f 516 191 971
f 409 194 358
f 194 727 358
f 409 805 194
f 194 1097 727
f 756 194 973
f 756 1097 194
f 194 805 973
f 195 267 418
f 997 267 195
f 1109 997 195
f 946 197 205
f 952 198 298
f 198 965 298
f 952 917 198
f 917 1120 198
f 1120 965 198
f 201 357 903
f 696 671 201
f 201 888 696
f 888 201 903
f 604 203 337
f 641 337 203
f 604 693 203
f 693 641 203
f 412 852 204
f 329 205 281
f 510 205 329
f 205 510 384
f 384 512 205
f 946 205 512
f 206 253 247
f 247 464 206
f 543 253 206
f 206 464 540
f 472 486 206
f 472 206 540
f 206 486 709
f 206 709 543
f 237 207 291
f 1091 207 237
f 207 1023 291
f 1023 207 790
f 209 516 1030
f 438 210 259
f 210 1140 259
f 438 330 210
f 330 841 210
f 841 838 210
f 1140 210 838
f 288 322 213
f 710 213 316
f 213 322 406
f 1184 213 717
f 215 535 366
f 429 216 1126
f 1140 216 429
f 1045 785 216
f 216 785 1126
f 1140 1045 216
f 217 621 521
f 621 217 933
f 952 217 917
f 217 1150 933
f 952 1150 217
f 490 219 971
f 219 1030 971
f 234 220 739
f 872 220 234
f 220 883 739
f 872 1065 220
f 1103 883 220
f 1103 220 1065
f 827 221 846
f 1102 221 827
f 221 828 870
f 221 901 828
f 221 870 846
f 221 1102 901
f 941 222 616
f 1100 616 222
f 669 222 941
f 222 669 1100
f 554 225 293
f 677 293 225
f 328 225 378
f 328 677 225
f 225 554 378
f 1037 226 307
f 238 227 356
f 1199 227 238
f 739 228 654
f 228 1022 654
f 739 699 228
f 991 228 699
f 991 1022 228
f 582 569 232
f 932 582 232
f 232 634 932
f 854 233 312
f 233 983 312
f 854 334 233
f 654 709 234
f 654 234 739
f 872 234 709
f 685 1103 235
f 235 1103 1065
f 236 1037 711
f 291 1008 237
f 1017 237 1008
f 364 238 356
f 364 1199 238
f 488 307 239
f 474 488 239
f 239 945 474
f 730 945 239
f 239 1052 730
f 764 635 242
f 242 635 906
f 701 242 849
f 242 701 993
f 764 242 993
f 849 242 906
f 244 274 932
f 634 244 932
f 538 245 839
f 538 950 245
f 245 950 625
f 989 245 625
f 839 245 989
f 282 247 253
f 247 282 762
f 762 464 247
f 1144 250 249
f 250 1144 251
f 286 942 252
f 286 252 1045
f 302 608 252
f 302 252 942
f 252 608 489
f 1094 282 253
f 253 543 674
f 253 674 1094
f 787 256 343
f 1114 343 256
f 672 256 787
f 672 990 256
f 990 1114 256
f 717 527 257
f 527 1184 257
f 429 438 259
f 1140 429 259
f 283 514 261
f 261 514 395
f 395 1002 261
f 261 1002 1062
f 644 421 263
f 421 1152 263
f 644 263 885
f 765 885 263
f 1152 765 263
f 408 267 629
f 1155 267 408
f 267 1155 418
f 857 629 267
f 997 857 267
f 994 1020 272
f 1020 1046 272
f 273 908 604
f 932 274 1003
f 277 311 465
f 311 277 766
f 766 277 389
f 1116 279 298
f 279 1150 298
f 1150 279 933
f 510 329 281
f 1094 762 282
f 1118 514 283
f 780 283 857
f 780 1118 283
f 799 871 284
f 897 799 284
f 871 835 284
f 835 897 284
f 297 942 286
f 288 931 322
f 370 931 288
f 793 1008 291
f 1023 793 291
f 372 620 292
f 620 701 292
f 292 701 1042
f 342 293 424
f 554 293 342
f 293 842 424
f 677 646 293
f 646 842 293
f 371 575 296
f 575 762 296
f 492 297 321
f 492 1105 297
f 297 1058 942
f 1105 1058 297
f 810 298 965
f 298 1150 952
f 352 608 302
f 302 942 352
f 304 884 456
f 1137 304 456
f 1137 555 304
f 306 789 907
f 306 1121 789
f 923 306 907
f 923 1033 306
f 1033 954 306
f 306 954 1121
f 422 471 310
f 422 310 922
f 430 433 310
f 430 310 471
f 433 1000 310
f 310 1000 922
f 311 767 465
f 1028 532 311
f 532 1122 311
f 1122 767 311
f 911 826 312
f 968 312 826
f 312 968 854
f 983 911 312
f 313 770 513
f 917 313 513
f 807 770 313
f 419 316 359
f 1196 710 316
f 518 318 521
f 606 318 518
f 606 880 318
f 320 791 562
f 572 320 711
f 1121 320 572
f 791 320 1121
f 321 838 492
f 321 1140 838
f 325 336 518
f 325 613 336
f 518 521 325
f 912 325 521
f 590 613 325
f 325 912 590
f 328 378 1094
f 328 674 677
f 674 328 1094
f 438 1068 330
f 799 841 330
f 871 799 330
f 1068 871 330
f 1146 451 332
f 332 451 1156
f 854 966 334
f 725 335 470
f 335 832 470
f 651 335 571
f 571 335 725
f 651 761 335
f 335 761 847
f 335 1024 832
f 335 847 1024
f 518 336 574
f 336 568 574
f 336 613 568
f 604 337 884
f 641 694 337
f 884 337 694
f 345 431 339
f 345 339 711
f 431 754 339
f 627 711 339
f 339 789 627
f 754 789 339
f 378 554 342
f 638 378 342
f 342 424 638
f 495 1072 343
f 343 1114 495
f 1037 343 1072
f 682 431 345
f 682 345 495
f 1072 495 345
f 1072 345 711
f 702 349 538
f 950 538 349
f 702 873 349
f 873 1119 349
f 954 950 349
f 984 954 349
f 984 349 1119
f 686 350 480
f 642 350 553
f 553 350 901
f 686 901 350
f 936 421 352
f 352 421 1128
f 352 1128 608
f 1058 936 352
f 1058 352 942
f 426 371 355
f 355 371 642
f 553 380 355
f 355 380 749
f 749 426 355
f 355 642 553
f 364 356 1144
f 408 409 358
f 727 408 358
f 359 417 1187
f 362 499 674
f 362 867 499
f 674 876 362
f 991 867 362
f 1022 362 876
f 362 1022 991
f 1144 1169 364
f 1169 1199 364
f 366 535 562
f 1119 366 562
f 542 764 370
f 370 764 1141
f 931 370 1141
f 372 734 746
f 746 967 372
f 1044 767 377
f 767 1122 377
f 910 834 377
f 834 1044 377
f 1122 910 377
f 638 1026 378
f 553 1102 380
f 964 749 380
f 1102 964 380
f 645 384 510
f 645 512 384
f 842 487 385
f 385 487 980
f 385 638 842
f 1004 638 385
f 980 1142 385
f 385 1142 1004
f 592 387 505
f 592 1134 387
f 864 393 389
f 389 1171 766
f 1035 685 390
f 390 713 1035
f 426 394 713
f 394 426 749
f 898 713 394
f 940 394 749
f 940 898 394
f 514 467 395
f 725 395 467
f 395 725 1002
f 720 699 396
f 739 396 699
f 969 720 396
f 883 396 739
f 883 808 396
f 396 808 969
f 397 671 1083
f 397 1083 995
f 656 935 398
f 980 656 398
f 935 1142 398
f 1142 980 398
f 473 402 509
f 1059 402 473
f 509 402 1099
f 1059 661 402
f 661 1099 402
f 632 704 407
f 632 407 1079
f 704 1097 407
f 756 973 407
f 756 407 1097
f 1101 407 973
f 1101 1079 407
f 408 629 409
f 408 727 955
f 955 1155 408
f 881 409 629
f 409 881 805
f 415 851 532
f 532 1028 415
f 1028 632 415
f 632 1079 415
f 1077 851 415
f 1079 1077 415
f 416 666 468
f 669 416 468
f 416 560 729
f 941 560 416
f 729 666 416
f 416 669 941
f 418 957 457
f 418 955 957
f 418 1155 955
f 644 567 421
f 1128 421 567
f 1152 421 936
f 422 1109 471
f 422 922 997
f 997 1109 422
f 638 424 842
f 428 466 474
f 428 887 466
f 474 1048 428
f 1089 887 428
f 428 1048 1089
f 433 430 451
f 451 430 1156
f 1109 430 471
f 1109 1156 430
f 511 754 431
f 1114 511 431
f 682 1114 431
f 451 669 433
f 468 433 669
f 468 1000 433
f 456 694 439
f 439 1137 456
f 599 528 439
f 528 937 439
f 599 439 694
f 439 937 759
f 759 1066 439
f 1066 1137 439
f 446 452 979
f 1069 452 446
f 577 446 461
f 979 461 446
f 577 815 446
f 815 1136 446
f 1136 1069 446
f 1146 669 451
f 920 452 643
f 452 1069 643
f 452 920 979
f 456 884 694
f 509 461 473
f 473 461 979
f 509 657 461
f 657 577 461
f 464 575 540
f 575 464 762
f 465 847 761
f 465 767 847
f 466 787 474
f 466 565 787
f 821 565 466
f 466 887 821
f 467 514 482
f 482 1009 467
f 651 571 467
f 725 467 571
f 467 934 651
f 467 1009 934
f 666 953 468
f 468 953 1000
f 469 481 535
f 481 469 1052
f 1052 469 1046
f 891 725 470
f 832 998 470
f 470 998 891
f 836 539 473
f 1059 473 539
f 836 473 979
f 474 787 488
f 474 945 1048
f 475 686 480
f 475 1130 686
f 475 1026 786
f 786 1130 475
f 514 812 482
f 812 1009 482
f 486 872 709
f 1065 872 486
f 487 699 581
f 487 581 980
f 598 699 487
f 842 598 487
f 489 608 915
f 915 908 489
f 794 784 492
f 784 1105 492
f 492 838 794
f 682 495 1114
f 660 1004 498
f 498 1130 660
f 498 935 1095
f 1142 935 498
f 1142 498 1004
f 498 1095 1130
f 677 499 646
f 867 646 499
f 677 674 499
f 1162 592 505
f 635 542 506
f 506 542 1174
f 635 506 906
f 506 705 906
f 1049 705 506
f 506 1198 1049
f 1174 1198 506
f 534 509 1099
f 645 510 721
f 721 510 719
f 510 810 719
f 683 751 511
f 990 683 511
f 751 754 511
f 1114 990 511
f 526 512 645
f 526 899 512
f 587 719 513
f 587 513 1157
f 770 661 513
f 661 1157 513
f 513 719 1120
f 917 513 1120
f 514 1118 812
f 516 971 1030
f 690 612 517
f 517 765 690
f 885 517 733
f 517 885 765
f 606 518 574
f 912 521 621
f 928 526 645
f 526 928 899
f 584 528 801
f 584 937 528
f 528 599 801
f 851 910 532
f 1122 532 910
f 815 533 811
f 811 533 903
f 877 533 815
f 860 533 877
f 860 888 533
f 888 903 533
f 606 574 534
f 606 534 880
f 880 534 1099
f 702 538 839
f 920 587 539
f 1157 539 587
f 836 920 539
f 1157 1059 539
f 764 542 635
f 876 674 543
f 709 876 543
f 626 602 546
f 546 602 818
f 546 1143 626
f 772 546 818
f 772 1143 546
f 552 804 625
f 974 552 625
f 742 552 745
f 804 552 742
f 745 552 904
f 904 552 974
f 901 1102 553
f 588 790 555
f 588 555 944
f 944 555 1137
f 562 791 1119
f 565 672 787
f 672 565 875
f 875 565 821
f 644 1001 567
f 567 1001 1040
f 1128 567 1040
f 568 1029 574
f 613 637 568
f 568 637 1029
f 582 879 569
f 667 569 879
f 597 572 711
f 597 789 572
f 789 1121 572
f 577 657 999
f 577 877 815
f 577 999 877
f 854 580 590
f 590 580 1005
f 854 968 580
f 580 968 1005
f 699 720 581
f 969 581 720
f 969 980 581
f 879 582 1021
f 582 932 1158
f 1158 1021 582
f 584 801 962
f 896 859 584
f 859 937 584
f 1001 896 584
f 1001 584 962
f 721 719 587
f 721 587 920
f 1023 790 588
f 863 588 944
f 863 1023 588
f 590 902 613
f 590 912 854
f 590 1005 902
f 592 1162 1134
f 940 595 723
f 595 964 723
f 940 749 595
f 749 964 595
f 596 728 630
f 939 596 630
f 835 728 596
f 939 835 596
f 627 597 711
f 789 597 627
f 598 665 699
f 842 665 598
f 801 599 694
f 603 602 724
f 603 927 602
f 626 724 602
f 818 602 1078
f 927 1078 602
f 879 603 724
f 879 1021 603
f 1008 927 603
f 603 1017 1008
f 1021 1017 603
f 693 604 869
f 604 908 869
f 608 1128 915
f 612 690 794
f 612 855 763
f 855 612 794
f 637 613 902
f 615 842 646
f 646 867 615
f 842 615 665
f 665 615 867
f 912 621 854
f 621 966 854
f 808 623 878
f 623 808 883
f 878 623 898
f 1035 623 883
f 623 1035 898
f 804 989 625
f 923 625 914
f 625 950 914
f 625 923 974
f 630 724 626
f 630 626 939
f 939 626 1143
f 630 1111 724
f 728 1111 630
f 633 988 1011
f 978 637 902
f 637 978 1029
f 1004 660 638
f 660 1026 638
f 641 693 962
f 694 641 801
f 641 962 801
f 643 645 920
f 928 645 643
f 643 1069 928
f 885 896 644
f 644 896 1001
f 721 920 645
f 647 683 875
f 703 745 647
f 703 647 875
f 761 651 1019
f 876 709 654
f 654 1022 876
f 656 926 958
f 980 926 656
f 1018 935 656
f 656 958 1018
f 657 658 999
f 658 781 735
f 735 999 658
f 781 658 1029
f 660 786 1026
f 1130 786 660
f 770 807 661
f 807 880 661
f 661 880 1099
f 1059 1157 661
f 665 991 699
f 991 665 867
f 729 1055 666
f 953 666 831
f 666 1055 831
f 667 1111 728
f 667 879 1111
f 669 1146 1100
f 696 1083 671
f 672 875 683
f 990 672 683
f 685 1035 1103
f 901 686 697
f 686 1130 697
f 765 1152 690
f 690 1074 794
f 1074 690 1152
f 692 808 878
f 692 969 808
f 845 692 886
f 845 969 692
f 870 692 846
f 878 846 692
f 870 886 692
f 962 693 869
f 888 757 696
f 1083 696 757
f 697 1036 901
f 1095 1036 697
f 697 1130 1095
f 701 849 1042
f 702 839 994
f 702 994 873
f 742 745 703
f 1129 742 703
f 821 703 875
f 821 1129 703
f 951 833 704
f 1039 704 833
f 704 1039 1097
f 705 849 906
f 1167 705 1049
f 705 1179 1173
f 1034 710 1196
f 1037 1072 711
f 898 1035 713
f 810 965 719
f 1120 719 965
f 823 878 723
f 964 823 723
f 723 878 898
f 723 898 940
f 879 724 1111
f 891 1002 725
f 955 727 957
f 1039 957 727
f 727 1097 1039
f 1006 1055 729
f 945 730 1048
f 1048 730 1052
f 732 735 781
f 732 860 735
f 817 732 781
f 817 1108 732
f 924 732 837
f 732 1108 837
f 860 732 924
f 840 759 733
f 733 759 859
f 840 733 772
f 859 885 733
f 1167 746 734
f 735 860 999
f 742 856 804
f 856 742 1129
f 913 754 751
f 904 913 751
f 960 930 752
f 752 930 1129
f 960 752 1145
f 752 1129 1145
f 754 907 789
f 754 913 907
f 757 924 837
f 837 987 757
f 757 888 924
f 987 1083 757
f 1043 826 758
f 826 1047 758
f 758 1083 987
f 987 1108 758
f 1043 758 1108
f 1047 1083 758
f 840 944 759
f 859 759 937
f 944 1066 759
f 841 799 763
f 763 799 897
f 763 855 841
f 939 763 897
f 939 1143 763
f 764 993 1141
f 1044 847 767
f 818 840 772
f 774 968 826
f 826 1043 774
f 1005 774 902
f 1043 902 774
f 774 1005 968
f 857 997 780
f 922 780 997
f 922 1000 780
f 780 1000 1118
f 817 781 978
f 978 781 1029
f 1074 784 794
f 784 1074 814
f 1105 784 814
f 954 984 791
f 1121 954 791
f 791 984 1119
f 793 927 1008
f 1078 927 793
f 793 1023 1078
f 855 794 838
f 1162 797 1134
f 989 804 856
f 881 1060 805
f 805 1060 973
f 811 1136 815
f 899 811 903
f 811 899 1136
f 812 831 1051
f 1118 831 812
f 1051 1009 812
f 814 936 1058
f 814 1152 936
f 1105 814 1058
f 814 1074 1152
f 978 1043 817
f 1043 1108 817
f 818 863 840
f 863 818 1078
f 1068 819 1117
f 1129 821 887
f 823 827 846
f 823 964 827
f 846 878 823
f 1047 826 911
f 964 1102 827
f 886 870 828
f 1057 886 828
f 828 901 1057
f 830 839 989
f 830 1020 839
f 1148 830 989
f 830 1046 1020
f 1046 830 1053
f 830 1148 1053
f 831 1118 953
f 1055 1051 831
f 834 998 832
f 832 1024 834
f 1039 833 957
f 834 910 905
f 998 834 905
f 1024 1044 834
f 871 862 835
f 835 939 897
f 836 979 920
f 837 1108 987
f 838 841 855
f 839 1020 994
f 840 863 944
f 886 958 845
f 845 958 926
f 926 969 845
f 1044 1024 847
f 910 851 905
f 851 963 905
f 976 963 851
f 1077 976 851
f 856 1129 930
f 856 930 1148
f 989 856 1148
f 859 896 885
f 999 860 877
f 860 924 888
f 862 871 1117
f 1023 863 1078
f 908 915 869
f 915 1040 869
f 1040 962 869
f 1117 871 1068
f 1060 881 1154
f 1035 883 1103
f 958 886 1057
f 1145 887 1089
f 1129 887 1145
f 998 1107 891
f 1062 1002 891
f 1032 1062 891
f 891 1107 1032
f 1136 899 928
f 1057 901 1036
f 1043 978 902
f 913 904 974
f 1107 905 963
f 1107 998 905
f 913 974 907
f 974 923 907
f 911 995 1047
f 1033 923 914
f 914 950 954
f 914 954 1033
f 1128 1040 915
f 926 980 969
f 928 1069 1136
f 1148 930 960
f 1003 1158 932
f 934 1009 1006
f 1095 935 1018
f 1137 1066 944
f 1000 953 1118
f 1018 958 1057
f 1053 960 959
f 960 1089 959
f 1052 959 1048
f 1048 959 1089
f 959 1052 1053
f 1053 1148 960
f 1089 960 1145
f 1040 1001 962
f 963 976 1032
f 963 1032 1107
f 1060 1056 973
f 973 1056 1101
f 976 1077 1032
f 988 1090 1011
f 1083 1047 995
f 1009 1051 1006
f 1051 1055 1006
f 1173 1179 1010
f 1017 1021 1158
f 1057 1095 1018
f 1032 1154 1062
f 1077 1154 1032
f 1095 1057 1036
f 1053 1052 1046
f 1049 1198 1192
f 1077 1056 1060
f 1056 1077 1079
f 1056 1079 1101
f 1060 1154 1077
f 1169 1110 1199
