# sdm_hand_1200_q30pca.obj  (1200 v, 1828 f)  units: metres
v -0.059176758 -0.005846387 0.021900922
v -0.113803529 0.001906584 0.069149542
v -0.069094315 0.004087776 0.014222741
v -0.068354376 0.004346595 0.013601856
v -0.068571724 0.005567660 0.015462436
v -0.089247897 -0.003718206 0.038490001
v -0.091268050 -0.001122284 0.037164598
v -0.063345835 0.020366503 0.027859384
v -0.062823243 0.021846386 0.029099079
v -0.060189217 0.016021445 0.029810032
v -0.067251340 0.018122192 0.032084050
v -0.059628095 0.022090085 0.033008493
v -0.045000002 0.000000000 0.000000000
v -0.037999999 -0.001116713 0.020000000
v -0.045000002 0.022000000 0.000000000
v -0.022500001 0.002500000 0.141000003
v -0.020019532 0.002526230 0.187952886
v -0.038828126 0.017312501 0.141000003
v -0.039031252 0.016875001 0.147000000
v -0.039500002 0.019500000 0.141000003
v -0.041499998 0.019500000 0.147000000
v -0.039500002 0.019500000 0.147000000
v -0.039500002 0.019500000 0.147499993
v -0.038562502 0.021000000 0.140499994
v -0.039500002 0.021000000 0.147499993
v -0.024499999 0.016000001 0.094999999
v -0.024499999 0.016875001 0.101000004
v -0.023734375 0.019500000 0.101125002
v -0.024499999 0.019750000 0.094999999
v -0.017750000 0.019500000 0.101250000
v -0.018500000 0.021000000 0.094999999
v -0.017500000 0.021000000 0.101499997
v -0.005500000 0.016000001 0.101000004
v -0.002500000 0.021000000 0.094999999
v -0.023734375 0.019500000 0.140875001
v -0.024499999 0.019500000 0.147000000
v -0.024499999 0.021000000 0.140499994
v -0.024499999 0.021000000 0.147499993
v -0.018500000 0.019500000 0.145999998
v -0.018500000 0.021000000 0.145500004
v -0.003693041 0.019500000 0.144520434
v -0.002500000 0.021000000 0.145500004
v -0.039882813 0.018187500 0.178062502
v -0.039500002 0.021000000 0.171499997
v -0.037390627 0.021000000 0.178499997
v -0.025483096 0.016623769 0.169504281
v -0.018500000 0.019500000 0.151999995
v -0.018500000 0.019500000 0.152500004
v -0.018500000 0.021000000 0.152500004
v -0.023500000 0.019500000 0.170187501
v -0.024499999 0.019500000 0.172000006
v -0.024499999 0.019500000 0.178000003
v -0.002500000 0.019500000 0.151999995
v -0.002500000 0.021000000 0.152500004
v -0.019500000 0.019500000 0.180000007
v -0.018500000 0.021000000 0.186499998
v -0.004750000 0.021000000 0.186499998
v 0.001977511 0.020550594 0.094999999
v 0.004437500 0.021000000 0.101499997
v 0.018500000 0.021000000 0.094999999
v 0.018500000 0.021000000 0.101499997
v -0.000500000 0.017750001 0.145999998
v 0.003500000 0.019500000 0.143000007
v 0.004437500 0.021000000 0.142499998
v 0.018500000 0.019500000 0.143000007
v 0.018500000 0.021000000 0.142499998
v 0.025000000 0.019500000 0.101000004
v 0.024022555 0.019801051 0.094999999
v 0.037000000 0.019500000 0.101000004
v 0.037000000 0.021000000 0.094999999
v 0.037000000 0.021000000 0.101499997
v 0.045000002 0.022000000 0.094999999
v 0.025375000 0.019500000 0.132749997
v 0.025000000 0.021000000 0.139500007
v 0.034750000 0.016000001 0.138999999
v 0.037000000 0.021000000 0.132499993
v 0.003500000 0.016000001 0.174999997
v 0.003500000 0.019500000 0.149000004
v 0.003500000 0.021000000 0.149499997
v 0.018500000 0.019500000 0.149000004
v 0.020500001 0.019500000 0.149000004
v 0.019500000 0.019500000 0.174999997
v 0.018500000 0.021000000 0.174500003
v 0.003000000 0.018187500 0.180999994
v -0.000500000 0.019500000 0.180000007
v 0.003500000 0.021000000 0.181500003
v 0.019148438 0.019500000 0.181124996
v 0.024321308 0.019283316 0.157539850
v 0.025000000 0.019500000 0.158999994
v 0.025562500 0.019500000 0.165250004
v 0.037000000 0.019500000 0.158999994
v 0.038000000 0.019500000 0.165125005
v -0.042987007 0.022000000 0.059066347
v -0.037999999 -0.001116713 0.041233219
v -0.033000000 0.022000000 0.044999999
v -0.113672971 -0.006769310 0.066091197
v -0.112066124 -0.002218994 0.069902983
v -0.091553783 -0.006417400 0.047699410
v -0.116408399 -0.014515577 0.059602172
v 0.037000000 0.021000000 0.162000001
v 0.025000000 0.021000000 0.162000001
v 0.025000000 0.021000000 0.136000000
v 0.037000000 0.021000000 0.098249998
v 0.025000000 0.021000000 0.098249998
v 0.018500000 0.021000000 0.178000003
v 0.003500000 0.021000000 0.178000003
v 0.018500000 0.021000000 0.145999997
v 0.003500000 0.021000000 0.145999997
v 0.019449180 0.017362842 0.142286997
v 0.019851492 0.016183251 0.114352875
v 0.001500000 0.016000001 0.143000007
v 0.018500000 0.021000000 0.098249998
v 0.003500000 0.021000000 0.098249998
v -0.002500000 0.021000000 0.182999998
v -0.002500000 0.021000000 0.149000004
v -0.018500000 0.021000000 0.149000004
v -0.002500000 0.021000000 0.098249998
v -0.018500000 0.021000000 0.098249998
v -0.022981144 0.017121667 0.182676969
v -0.024499999 0.021000000 0.174999997
v -0.039500002 0.021000000 0.174999997
v -0.024499999 0.021000000 0.143999993
v -0.039500002 0.021000000 0.143999993
v -0.038320206 0.017375000 0.114184946
v -0.024499999 0.020252237 0.098100499
v -0.042071476 -0.002026048 0.007589698
v 0.025000000 0.000000000 0.000000000
v 0.000000000 0.022000000 0.094999999
v -0.065958780 0.012967082 0.021660910
v -0.070398432 0.011414166 0.025386222
v -0.117288690 -0.009278029 0.059961759
v -0.010500000 0.021000000 0.094999999
v -0.009500000 0.016000001 0.094999999
v -0.009500000 0.021000000 0.152500004
v -0.010500000 0.021000000 0.186499998
v -0.009500000 0.019500000 0.186499998
v -0.037999999 -0.003000000 0.030616610
v 0.013750000 0.002000000 0.000000000
v -0.031062500 0.021000000 0.140499994
v -0.032000001 0.021000000 0.147499993
v -0.029890625 0.019500000 0.171499997
v -0.030962446 0.019500000 0.179158659
v -0.030593750 0.021000000 0.178499997
v -0.031765625 0.021000000 0.171499997
v 0.011000000 0.021000000 0.101499997
v 0.011000000 0.021000000 0.094999999
v 0.011000000 0.019500000 0.101499997
v 0.008187500 0.019500000 0.149499997
v 0.011000000 0.016000001 0.143000007
v 0.012640625 0.016000001 0.174999997
v 0.011000000 0.021000000 0.181500003
v -0.118295971 -0.003868377 0.067480486
v -0.022500001 0.022000000 0.094999999
v 0.031000000 0.019500000 0.101499997
v 0.031000000 0.016000001 0.101000004
v 0.031000000 0.021000000 0.101499997
v 0.031000000 0.021000000 0.132499993
v 0.031000000 0.019500000 0.165500000
v 0.028750000 0.021000000 0.165500000
v -0.115010025 -0.001280433 0.066584502
v -0.092629893 0.006359285 0.052925174
v -0.037999999 -0.003000000 0.025308305
v -0.014500000 0.021000000 0.101499997
v -0.006500000 0.021000000 0.101499997
v -0.014500000 0.021000000 0.145500004
v -0.014500000 0.019500000 0.152500004
v -0.013500000 0.016000001 0.151999995
v -0.014500000 0.021000000 0.152500004
v -0.014500000 0.021000000 0.186499998
v -0.017750000 0.019500000 0.186250001
v -0.015500000 0.016000001 0.186000004
v -0.006500000 0.021000000 0.179499999
v -0.013500000 0.021000000 0.179499999
v -0.119645709 -0.005170938 0.067538603
v -0.028250000 0.019500000 0.101499997
v -0.028250000 0.016000001 0.101000004
v -0.029656250 0.021000000 0.101499997
v -0.037390627 0.019500000 0.101374999
v -0.038093752 0.021000000 0.101499997
v -0.028250000 0.021000000 0.147499993
v -0.035750001 0.021000000 0.140499994
v -0.035750001 0.019500000 0.147499993
v -0.035750001 0.021000000 0.147499993
v -0.028250000 0.019500000 0.140499994
v -0.029187500 0.016000001 0.141000003
v -0.028250000 0.021000000 0.140499994
v 0.007250000 0.021000000 0.101499997
v 0.008187500 0.019500000 0.101499997
v 0.013812500 0.021000000 0.101499997
v 0.015687500 0.019500000 0.101499997
v 0.007250000 0.021000000 0.142499998
v 0.006312500 0.019500000 0.142499998
v 0.014750000 0.021000000 0.142499998
v 0.008656250 0.021000000 0.149499997
v 0.015687500 0.019500000 0.149499997
v 0.014750000 0.021000000 0.149499997
v 0.007250000 0.019500000 0.174500003
v 0.008187500 0.021000000 0.181500003
v 0.006312500 0.019500000 0.181500003
v 0.034000000 0.021000000 0.101499997
v 0.028000000 0.021000000 0.139500007
v 0.034000000 0.021000000 0.132499993
v 0.028000000 0.021000000 0.132499993
v 0.035875000 0.019500000 0.139375005
v 0.034750000 0.021000000 0.158500001
v 0.034000000 0.019500000 0.158500001
v -0.090170039 0.007743664 0.046175346
v -0.120039223 -0.003853881 0.069750920
v -0.022500001 0.006838683 0.101523179
v -0.004500000 0.005875000 0.101000004
v -0.004000000 0.000000000 0.000000000
v -0.064652307 0.016666792 0.024760147
v -0.053541651 0.022052603 0.014239096
v -0.057012890 0.012919544 0.006996444
v -0.054979681 0.001857366 0.005812280
v -0.062172915 0.014183251 0.026679692
v -0.116675917 -0.000784733 0.069377608
v 0.005362716 -0.001875000 0.025855827
v 0.000281250 0.000000000 0.011249153
v 0.031000000 0.021000000 0.094999999
v -0.119257345 -0.008849102 0.062278100
v -0.093459515 0.000102530 0.040537983
v 0.022500001 0.022000000 0.094999999
v -0.057812476 0.022078904 0.021358644
v -0.006500000 0.021000000 0.094999999
v -0.059947888 0.022092055 0.024918418
v -0.029500788 0.022000000 0.094253895
v 0.003500000 0.017750001 0.174999997
v -0.012500000 0.016000001 0.148999997
v -0.014500000 0.021000000 0.094999999
v -0.005500000 0.021000000 0.145500004
v -0.008750000 0.019500000 0.145500004
v -0.035991669 0.021000000 0.174999997
v 0.032500000 0.021000000 0.136000000
v -0.002500000 0.016000001 0.183000006
v -0.015500000 0.016000001 0.149166662
v -0.018500000 0.016000001 0.183000006
v -0.026843749 0.021000000 0.171499997
v 0.025000000 0.016000001 0.162000001
v 0.032500000 0.016000001 0.098000002
v -0.005227577 0.017908922 0.131991681
v -0.005624999 0.016000001 0.183000006
v -0.063086270 0.017106505 0.031641585
v -0.018500000 0.018500000 0.182375005
v -0.024499999 0.016000001 0.175000005
v -0.006031250 0.021000000 0.182999999
v -0.028008332 0.021000000 0.174999997
v -0.017704638 0.012450384 0.145999998
v 0.032500000 0.021000000 0.162000001
v -0.039500002 0.016000001 0.175000005
v -0.039500002 0.016000001 0.144000002
v -0.035991669 0.021000000 0.143999993
v -0.009636254 0.021000000 0.182999998
v 0.035500000 0.019500000 0.158500001
v 0.007250000 0.021000000 0.094999999
v -0.037613571 0.019500000 0.135741673
v 0.005375000 0.021000000 0.181500003
v -0.002500000 0.018500001 0.183552088
v 0.034750000 0.019500000 0.101499997
v -0.033875001 0.021000000 0.098249998
v 0.027437500 0.016437501 0.165000007
v -0.015375001 0.016000001 0.183000006
v 0.018824298 0.018687500 0.008013475
v -0.063974671 0.014590701 0.029534103
v -0.030125000 0.016000001 0.175000005
v -0.039500002 0.018500002 0.144624999
v 0.045000002 0.022000000 0.083124999
v 0.028888883 0.021000000 0.136000000
v 0.003500000 0.016000001 0.098000002
v -0.016500000 0.021000000 0.152500004
v -0.036425003 0.016000001 0.175000005
v -0.012500000 0.016000001 0.098000002
v -0.018500000 0.016000001 0.148999997
v -0.110261808 -0.012111871 0.065410050
v 0.028888889 0.021000000 0.162000000
v 0.006312500 0.021000000 0.145254462
v 0.005375000 0.021000000 0.149499997
v 0.035500000 0.021000000 0.139500007
v 0.034750000 0.021000000 0.137107148
v 0.033972705 0.022000000 0.077187499
v 0.025000000 0.018500001 0.162552090
v 0.029500000 0.021000000 0.098249998
v -0.087287009 0.007344411 0.050270215
v 0.016859375 0.021000000 0.181500003
v 0.015687500 0.021000000 0.178745539
v -0.065565661 0.019590046 0.029722040
v 0.036678946 0.009313405 0.124967205
v 0.007008333 0.021000000 0.178000003
v 0.029500000 0.016000001 0.162000001
v 0.006312500 0.016000001 0.098328129
v -0.008500000 0.021000000 0.098249998
v 0.024491381 0.022000000 0.083681682
v -0.012500000 0.021000000 0.098249998
v 0.028000000 0.016000001 0.101000004
v -0.117814911 -0.012539313 0.063975823
v -0.037119629 0.018351212 0.173288601
v -0.003250000 0.019500000 0.101250000
v -0.003500000 0.021000000 0.101499997
v 0.035875000 0.016875001 0.158999994
v 0.037000000 0.016000001 0.162000001
v -0.065045979 0.011556939 0.026992729
v 0.016625000 0.021000000 0.174500003
v -0.014968750 0.021000000 0.149000004
v 0.035500000 0.016000001 0.165000007
v -0.031538613 0.021000000 0.174999997
v -0.025437499 0.021000000 0.101499997
v -0.027312500 0.021000000 0.098793266
v 0.003500000 0.016000001 0.146000006
v -0.037539509 0.018740204 0.142920275
v 0.009903629 0.021000000 0.145999998
v -0.036101066 0.002983143 0.034438719
v -0.018500000 0.016000001 0.098000002
v -0.114055567 -0.002343046 0.072312158
v -0.033275002 0.016000001 0.174882820
v 0.029374831 0.018252601 0.163737918
v 0.024066774 0.008319124 0.102750004
v 0.037000000 0.018500001 0.161447911
v 0.029149708 0.009329003 0.145343281
v -0.000687500 0.017796541 0.103033483
v -0.037625002 0.021000000 0.147499993
v -0.037625002 0.019500000 0.147499993
v -0.018500000 0.018473452 0.098655977
v -0.034109376 0.016000001 0.178000003
v 0.014750000 0.021000000 0.094999999
v 0.029124997 0.016000001 0.097812500
v 0.003244659 0.019500000 0.171532294
v 0.025000000 0.016000001 0.136000000
v -0.024499999 0.018500001 0.175625002
v -0.027312500 0.016000001 0.174671881
v -0.005500000 0.021000000 0.098644228
v -0.033765141 0.021000000 0.173513098
v -0.015444061 0.011147079 0.190636905
v 0.029500000 0.016000001 0.136000000
v -0.066436368 0.017088108 0.027609646
v -0.028008332 0.021000000 0.143999994
v -0.025437499 0.021000000 0.178499997
v -0.025906249 0.019500000 0.178499997
v 0.030694442 0.021000000 0.134702378
v 0.034750000 0.021000000 0.160892858
v 0.016625000 0.021000000 0.101499997
v 0.014281250 0.021000000 0.098521632
v 0.025000000 0.019235534 0.160842350
v -0.068735587 0.006618307 0.025368743
v -0.067265252 0.009267370 0.018561673
v -0.068312161 0.002307662 0.019244637
v -0.070791550 0.004791203 0.017325092
v 0.034000000 0.021000000 0.094999999
v -0.088103555 0.005032092 0.048333191
v -0.028718750 0.016000001 0.094999999
v 0.018500000 0.016000001 0.177999996
v 0.027250000 0.016000001 0.161249996
v -0.062683633 0.008633069 0.010299150
v -0.061667028 0.003101981 0.009707068
v 0.003500000 0.016000001 0.177999996
v -0.033765141 0.021000000 0.176486896
v -0.015000000 0.016000001 0.101000004
v -0.015500000 0.016000001 0.098166671
v -0.034668690 0.018580355 0.175757624
v -0.023375000 0.013750000 0.000000000
v -0.051893697 0.018730429 0.040825502
v -0.035041369 0.016000001 0.144164063
v 0.037000000 0.016000001 0.136000000
v -0.026374999 0.021000000 0.147499993
v -0.026374999 0.019500000 0.147499993
v -0.018761655 0.014234155 0.186000004
v 0.027540817 0.018835742 0.161806999
v 0.027250000 0.016000001 0.135250001
v 0.025000000 0.018500001 0.135447917
v 0.034506880 0.018530487 0.135147270
v 0.009123612 0.021000000 0.098249998
v -0.032461389 0.021000000 0.143999994
v 0.011413767 0.022000000 0.080249537
v 0.001500000 0.015580391 0.174000600
v -0.034226529 0.021000000 0.145636457
v -0.011363746 0.021000000 0.149000004
v -0.059295379 0.014706436 0.021134095
v 0.027209746 0.018266611 0.137346385
v 0.029362498 0.018227088 0.099691388
v -0.029773473 0.021000000 0.173677447
v -0.115060476 -0.004557297 0.070745316
v -0.024499999 0.016000001 0.098000002
v -0.066352452 0.007857228 0.023893492
v -0.002674801 -0.000117905 0.192041566
v -0.039500002 0.016000001 0.098000002
v 0.032750004 0.016000001 0.162000001
v -0.001918315 0.022000000 0.081724462
v -0.024499999 0.016000001 0.096500000
v -0.024499999 0.018150002 0.097250001
v -0.119992939 -0.012458865 0.065851255
v -0.013610916 0.006334345 0.171638977
v -0.035156685 0.019500000 0.104771957
v -0.013327444 0.021000000 0.182999998
v -0.065533505 0.012564282 0.033034477
v -0.026374999 0.016000001 0.101000004
v 0.034875002 0.016000001 0.161124994
v -0.007672555 0.021000000 0.149000004
v -0.036803119 0.005406465 0.107955221
v 0.025972221 0.021000000 0.133565469
v -0.069892325 0.007303569 0.019414145
v 0.006311806 0.021000000 0.097705929
v -0.066955651 0.018000298 0.029460587
v 0.025000000 0.021000000 0.137750003
v -0.039830832 0.014948180 0.151234268
v 0.003569600 0.016959904 0.185135332
v 0.034599118 0.001985201 0.084860204
v -0.013166248 0.021000000 0.150539987
v -0.017647464 0.019500000 0.177848307
v 0.037000000 0.016000001 0.098000002
v 0.016625000 0.021000000 0.142499998
v 0.030726014 0.018584553 0.129944959
v 0.012875000 0.016000001 0.146000006
v 0.026125000 0.021000000 0.158500001
v -0.011481849 0.021000000 0.181598884
v -0.036425000 0.016000001 0.098000002
v 0.002734375 0.017750001 0.143000007
v 0.032923610 0.021000000 0.098249998
v -0.037745835 0.021000000 0.173687497
v 0.014281250 0.016000001 0.178164057
v -0.020377820 0.010530017 0.178785330
v -0.006589941 0.019500000 0.155337600
v -0.029773473 0.021000000 0.176636461
v -0.024499999 0.018625000 0.173709056
v 0.012096371 0.021000000 0.178000003
v -0.015500000 0.021000000 0.097855768
v -0.092279678 0.002710765 0.042388622
v -0.015112957 0.019500000 0.156078184
v 0.029500000 0.021000000 0.101499997
v -0.011296294 0.018066942 0.184779183
v 0.032108052 0.018155087 0.163408159
v 0.012171875 0.019500000 0.174500003
v 0.013812500 0.021000000 0.174500003
v -0.091467723 -0.004494663 0.040352656
v 0.008359831 0.021000000 0.144414510
v 0.018500000 0.016000001 0.098000002
v -0.003500000 0.016656251 0.186000004
v -0.007925322 0.012959714 0.186000004
v 0.009604767 0.016000001 0.098000002
v 0.017562500 0.021000000 0.149499997
v 0.015687500 0.021000000 0.146745533
v -0.115413964 -0.011699503 0.061961189
v -0.114776893 -0.010807784 0.055875081
v -0.118598065 -0.011984725 0.061537269
v -0.016163828 0.018789545 0.150456324
v -0.063999071 0.018516648 0.026309765
v -0.065305543 0.014816937 0.023210529
v 0.028830054 0.017633169 0.102514067
v 0.009125000 0.016000001 0.146000006
v -0.004884408 0.018627536 0.184530686
v 0.032427341 0.018863968 0.134096410
v 0.026498188 0.018081068 0.159905398
v -0.066555671 0.015688607 0.029652827
v 0.045000002 0.022000000 0.089062499
v 0.013051981 0.016000001 0.098000002
v -0.026211376 0.018821413 0.173980390
v -0.017206861 0.021000000 0.183539982
v 0.006312500 0.016000001 0.145671882
v 0.009244075 0.018243772 0.144543513
v 0.026944442 0.021000000 0.136875002
v -0.120665485 -0.010477693 0.061989831
v -0.050624117 -0.003936217 0.014745310
v 0.011468750 0.019500000 0.181500003
v 0.002322883 0.014836953 0.162142083
v -0.004000000 0.016000001 0.097916667
v -0.008500000 0.016000001 0.148999997
v -0.024499999 0.021000000 0.176749997
v 0.018500000 0.016000001 0.146000006
v -0.116788057 -0.008146747 0.068332661
v 0.029500000 0.019500000 0.132499993
v 0.037000000 0.017750001 0.165000007
v -0.008684784 0.018295107 0.147019330
v -0.030234861 0.021000000 0.145486892
v -0.010606258 0.018431595 0.150248707
v 0.037000000 0.018473452 0.098655977
v 0.029437792 0.018099123 0.134425150
v -0.037481244 0.018157247 0.145968819
v 0.012875000 0.012885417 0.149000004
v 0.012956753 0.021000000 0.145122260
v 0.011000000 0.016000001 0.146914067
v -0.031354344 0.018334023 0.173050629
v -0.032162631 0.018123028 0.176854124
v 0.007922030 0.018897321 0.147031372
v -0.005500000 0.019500000 0.152500004
v -0.005500000 0.021000000 0.152500004
v 0.015775990 0.016000001 0.098438742
v -0.120200784 -0.008281538 0.064231019
v 0.018500000 0.018500000 0.178624996
v -0.009518150 0.021000000 0.147598889
v -0.019500000 0.018625000 0.186000004
v -0.002500000 0.018473452 0.098655977
v 0.004437500 0.021000000 0.174500003
v 0.003968750 0.019500000 0.174750000
v -0.013166248 0.021000000 0.147460021
v -0.018500000 0.018500001 0.148374999
v -0.019276197 0.012997176 0.094999999
v -0.016500000 0.021000000 0.145500004
v -0.035121688 0.018838396 0.145386665
v 0.015687500 0.016000001 0.146328129
v -0.063267560 0.006177211 0.016437743
v -0.026851461 0.022000000 0.037499999
v 0.006312500 0.021000000 0.147480739
v -0.016500000 0.021000000 0.186499998
v -0.033875001 0.021000000 0.101499997
v 0.009552352 0.021000000 0.176875196
v -0.037941617 0.018232431 0.184609695
v 0.036003292 0.018009308 0.156539512
v -0.039445469 0.017682552 0.170739205
v -0.034226529 0.021000000 0.142363530
v 0.035983251 0.021000000 0.135353640
v -0.057944725 0.011008542 0.014860290
v -0.093690539 0.001207993 0.042266655
v -0.030215584 0.019500000 0.104503121
v -0.116176259 -0.010212911 0.064869189
v -0.029948024 0.016000001 0.144000002
v -0.016815879 0.021000000 0.099454000
v 0.023739644 0.016504070 0.105536255
v 0.006312500 0.016000001 0.174999997
v -0.018500000 0.021000000 0.150750004
v 0.011053524 0.018395239 0.099142435
v -0.090651177 -0.002182344 0.042289678
v -0.007097589 0.018670082 0.098200524
v 0.004712217 0.017186392 0.084222864
v -0.005086278 0.021000000 0.148156448
v -0.012853031 0.018679661 0.182375752
v -0.002500000 0.016000001 0.148999997
v -0.009391859 0.014417271 0.189391172
v -0.012055891 0.016000001 0.183636147
v -0.024765322 0.018096520 0.109093924
v -0.072622794 0.001937445 0.019487091
v 0.018582026 0.016820187 0.186070620
v -0.031765625 0.016000001 0.172000006
v 0.012751268 0.018481182 0.096167747
v 0.032331522 0.018641432 0.099528564
v -0.029044362 0.012404345 0.101000004
v 0.018500000 0.018500000 0.145447922
v 0.008656250 0.021000000 0.174500003
v 0.015434130 0.021000000 0.176789805
v 0.031937500 0.016000001 0.135468750
v 0.032610605 0.018161427 0.096107170
v 0.005938444 0.018480904 0.144816897
v 0.016625000 0.021000000 0.094999999
v -0.005500000 0.016000001 0.149166662
v 0.015907162 0.018635373 0.096522304
v -0.019390702 0.013840511 0.153779603
v -0.026374999 0.021000000 0.140499994
v 0.014274021 0.018568866 0.099223820
v 0.009125000 0.021000000 0.101499997
v -0.067918488 0.007417515 0.017012054
v 0.009593750 0.016000001 0.149000004
v 0.006901943 0.007990545 0.113890060
v -0.019250001 0.017531251 0.151999995
v -0.095949359 -0.002262334 0.041736217
v -0.016286472 0.018186735 0.099009641
v -0.008500000 0.021000000 0.094999999
v -0.076001786 0.004220626 0.023316693
v -0.115589606 -0.004006111 0.068012516
v -0.024751971 0.017967772 0.135456517
v -0.067332030 0.004325890 0.016422209
v 0.025594251 0.017245774 0.140209478
v -0.013482180 0.018588326 0.097107749
v -0.012500000 0.019500000 0.186499998
v -0.012500000 0.021000000 0.186499998
v -0.118452887 -0.002696880 0.069198870
v -0.116840384 -0.003874986 0.065591818
v 0.032472453 0.017667929 0.091793499
v 0.003500000 0.018478005 0.098564918
v 0.009012676 0.018469892 0.096300012
v 0.012064044 0.013916406 0.087042978
v -0.067434129 0.014615077 0.025698757
v 0.029509444 0.018200772 0.159880280
v 0.016643018 0.017903871 0.179728244
v -0.118449298 -0.009606206 0.064449007
v 0.032558265 0.018307571 0.093760062
v 0.027024256 0.018503504 0.134213155
v -0.031062500 0.019500000 0.101499997
v 0.014475921 0.018823858 0.146929067
v 0.034750000 0.016000001 0.097250000
v 0.027234365 0.019500000 0.171019799
v 0.016811125 0.021000000 0.097058484
v -0.059566279 0.018295789 0.025602994
v -0.027312500 0.016000001 0.098328128
v 0.037000000 0.018500001 0.135447917
v -0.005448866 0.018237228 0.147799004
v -0.072544761 0.005795271 0.020888715
v -0.008592339 0.018838430 0.181410865
v 0.010100586 0.018327703 0.147517745
v -0.120001210 -0.010867424 0.064915081
v 0.012324972 0.018369882 0.144585269
v 0.018500000 0.018478005 0.098564918
v -0.055294639 0.005516605 0.014490959
v 0.015687500 0.021000000 0.144519256
v -0.002500000 0.018500000 0.149624997
v -0.018500000 0.021000000 0.096624999
v -0.034812501 0.019500000 0.178499997
v -0.118832476 -0.008465403 0.066575747
v -0.011000000 0.016000001 0.186000004
v -0.039500002 0.018500000 0.174447921
v 0.031125002 0.016000001 0.160937497
v 0.018693281 0.016635473 0.173451298
v -0.024499999 0.016000001 0.144000002
v -0.038093752 0.021000000 0.098521632
v 0.030694442 0.021000000 0.137297622
v 0.012875000 0.019500000 0.101499997
v -0.000500000 0.018625000 0.151999995
v -0.017500000 0.021000000 0.179499999
v 0.027250000 0.019500000 0.158500001
v -0.015545848 0.018330325 0.194107302
v 0.007263977 0.005567709 0.164409967
v -0.005500000 0.021000000 0.150423636
v 0.034961805 0.021000000 0.099378202
v -0.037470198 0.018062356 0.176969293
v 0.034892210 0.021000000 0.097098744
v -0.030234861 0.021000000 0.142513095
v 0.027892853 0.016000001 0.163071431
v 0.034937500 0.019500000 0.132624995
v 0.018500000 0.018625000 0.147329535
v -0.037745835 0.021000000 0.176312497
v -0.115926994 -0.008126167 0.067247091
v -0.067515213 0.004564485 0.021135171
v -0.071291269 0.005719892 0.019172110
v -0.117435565 -0.004043254 0.069723035
v -0.034184794 0.018282929 0.142446857
v -0.105477788 -0.007884749 0.074311001
v -0.067116647 0.006718711 0.019476918
v -0.089316095 0.000149214 0.043581823
v -0.064942583 0.018132592 0.031199216
v -0.002500000 0.021000000 0.184749998
v -0.012809091 0.018786491 0.147853822
v 0.012976417 0.018651682 0.093237845
v -0.003500000 0.021000000 0.179499999
v -0.085589772 0.006640984 0.047167863
v -0.061100744 0.016535980 0.021532382
v -0.008500000 0.019500000 0.152500004
v 0.015850367 0.018371099 0.144581572
v -0.015500000 0.021000000 0.181699498
v -0.031062500 0.019500000 0.140499994
v -0.068963531 0.010197422 0.021958581
v 0.016778591 0.019257837 0.099464278
v -0.010000000 0.021000000 0.145500004
v 0.032432426 0.017518843 0.101369522
v -0.070178246 0.008464514 0.021285507
v -0.028756983 0.018328894 0.144727985
v -0.057338491 0.013020699 0.023757194
v 0.030866070 0.016000001 0.096941965
v -0.015500000 0.016000001 0.094999999
v -0.015000000 0.019500000 0.145500004
v -0.007133530 0.016000001 0.184187620
v -0.004928837 -0.001143854 0.194898938
v -0.002285070 0.022000000 0.072857970
v 0.026857131 0.018030906 0.164064340
v 0.007936118 0.018413302 0.099215375
v -0.093482238 -0.001189466 0.042531115
v 0.009359375 0.016000001 0.178539057
v 0.030567882 0.019500000 0.106244246
v -0.116915303 -0.009859730 0.062612767
v -0.009342906 0.018439020 0.096489877
v -0.065010702 0.003724288 0.011654462
v -0.065519004 0.006489832 0.011950503
v 0.012671451 0.017674817 0.147928745
v -0.051189734 0.022053153 0.020490744
v -0.039872714 0.019404798 0.008841905
v 0.034705919 0.018760617 0.097566255
v -0.090145735 0.000816892 0.045517286
v -0.020500001 0.006071867 0.192002257
v -0.036823810 0.018205726 0.099514269
v -0.009500000 0.016000001 0.098416669
v -0.034341659 -0.003000000 0.020871552
v 0.030250000 0.019500000 0.139500007
v -0.070168474 0.003333750 0.018802268
v -0.091180725 0.001815325 0.039810619
v -0.016734375 0.021000000 0.147687504
v -0.070531646 0.009458394 0.023027877
v -0.069818264 0.014049145 0.028046025
v -0.118134935 -0.001256847 0.072735155
v -0.118167306 0.000028921 0.074440514
v -0.010289026 0.006606040 0.193804440
v 0.009235682 0.018314214 0.179695884
v -0.016013676 0.018312053 0.095663459
v -0.007833752 0.021000000 0.184539981
v 0.028000000 0.021000000 0.094999999
v -0.118613337 -0.005814875 0.065371996
v -0.063893706 0.013289503 0.027746011
v 0.039466819 0.015284444 0.086387675
v -0.066612016 0.011117226 0.020111291
v 0.016320271 0.018798002 0.176932782
v -0.121629910 -0.004162091 0.071406774
v 0.018307109 0.015493188 0.152277028
v -0.113772202 -0.003399860 0.062243512
v 0.010999306 0.021000000 0.097166265
v -0.058791834 0.022090901 0.027951212
v -0.011364158 0.018358753 0.098659826
v 0.009261545 0.019500000 0.171965524
v -0.031048277 0.018098957 0.142986384
v -0.034830020 0.018507042 0.173503727
v -0.088268042 -0.000943423 0.040814428
v -0.004286946 0.016719600 0.175411404
v 0.034418174 0.012870630 0.101706793
v -0.031531250 0.016000001 0.147000000
v 0.033250000 0.016000001 0.094999999
v -0.016933036 0.016000001 0.147877973
v -0.089766398 0.009827952 0.048350669
v 0.034966508 0.021000000 0.163292721
v 0.003500000 0.018500002 0.146625003
v -0.008369403 0.018206737 0.184876089
v -0.012900495 0.009566613 0.083576906
v 0.039056581 0.015496157 0.094999999
v -0.031804733 0.017680357 0.139547431
v -0.069798664 0.005779322 0.021213143
v -0.013937499 0.016000001 0.099208337
v 0.010022675 0.021000000 0.179250804
v -0.029890625 0.019500000 0.147499993
v -0.030125000 0.021000000 0.147499993
v -0.115911880 -0.001316958 0.071869789
v -0.009518150 0.021000000 0.150401119
v -0.004786414 0.018191287 0.150652616
v -0.011481849 0.021000000 0.184401113
v -0.014838771 0.017969560 0.181518540
v -0.005055463 0.018291265 0.096020340
v -0.004679974 0.017916475 0.099943321
v -0.088657548 0.002881850 0.038869811
v -0.039974294 0.014364668 0.102459300
v -0.001887419 0.013539470 0.154575877
v 0.027250000 0.021000000 0.099182690
v -0.064221286 0.015117735 0.026665877
v 0.030461118 0.018165173 0.096922231
v -0.090900678 0.000628194 0.041551261
v -0.009941686 0.019500000 0.104536944
v 0.005015274 0.015410215 0.094999999
v -0.013530633 0.018089324 0.150968645
v -0.062698035 0.016139774 0.029889348
v 0.034801978 0.019166280 0.168151365
v -0.014184121 0.021000000 0.099454000
v -0.093324036 -0.003468575 0.039910287
v 0.015997482 0.006828291 0.191866522
v -0.018500000 0.017636175 0.096821812
v -0.006724544 0.001852637 0.193911535
v 0.003485258 0.017919756 0.150752254
v -0.013629230 0.001286915 0.197276961
v 0.030183156 0.019700638 0.091192483
v 0.034525475 0.018544997 0.162189880
v -0.007448344 0.019268443 0.149981365
v -0.061849198 0.016676411 0.025751961
v -0.019656250 0.002599286 0.196256399
v -0.019625001 0.018037492 0.145223478
v -0.018500000 0.018625000 0.184290953
v 0.030474591 0.002673750 0.007529311
v -0.093048290 -0.000881932 0.038733109
v -0.008425597 0.001327504 0.192800342
v -0.016500000 0.019500000 0.152500004
v 0.037202528 0.017505464 0.140734704
v -0.111129086 -0.008369649 0.062879257
v -0.064135537 -0.000879306 0.018061832
v -0.066614925 0.001604235 0.016142287
v -0.067854620 0.002846005 0.015182514
v -0.018000000 0.016875001 0.180000007
v -0.067442542 0.006032919 0.022941190
v -0.120151587 -0.007220753 0.075454150
v -0.037545217 0.018957566 0.175380974
v -0.006914748 0.018267514 0.182174241
v -0.113695283 0.000296067 0.069009842
v 0.014563875 0.021000000 0.097058484
v 0.015218750 0.016000001 0.143000007
v 0.003500000 0.018500001 0.177447913
v 0.016704802 0.017919204 0.147798941
v -0.038343751 0.016656251 0.101000004
v -0.009000000 0.016000001 0.151999995
v -0.091851447 -0.003281528 0.045232862
v -0.039500002 0.018478005 0.098564918
v 0.034875000 0.016000001 0.136874999
v -0.010000000 0.019500000 0.101499997
v -0.012500000 0.021000000 0.101499997
v -0.002500000 0.017750001 0.101000004
v 0.027320437 0.015797280 0.103737741
v -0.002500000 0.021000000 0.150750004
v -0.010500000 0.016000001 0.148166664
v -0.011500000 0.019500000 0.152500004
v -0.012500000 0.021000000 0.152500004
v -0.061550889 0.014969332 0.023743240
v -0.069945849 0.007399099 0.023492494
v -0.017294404 0.019385361 0.092846137
v -0.067660850 0.015635844 0.027312289
v 0.037000000 0.018500001 0.094999999
v -0.030595677 0.008628798 0.159799976
v -0.039500002 0.018500001 0.094999999
v -0.016756221 0.014962300 0.176067781
v -0.026055338 0.016000001 0.176113854
v -0.069088907 0.013137228 0.025924094
v -0.067427392 0.008555517 0.021558768
v -0.007830879 0.015715053 0.087191693
v -0.012500000 0.021000000 0.094999999
v 0.013177936 0.016334492 0.092429385
v 0.005607053 0.018118583 0.176410661
v 0.010756957 0.018063329 0.094725667
v -0.006407367 -0.004151935 0.199359550
v -0.031845091 0.019500000 0.137640136
v -0.066229994 0.010002318 0.026510673
v -0.025464978 0.014188168 0.102919021
v 0.029114718 0.013882861 0.094999999
v -0.028726607 0.016498361 0.103332272
v 0.023409412 0.016641405 0.091192914
v 0.026011160 0.016000001 0.097511161
v -0.002974653 0.015671875 -0.008508857
v -0.003453424 0.000396502 0.193056205
v 0.017247880 0.022000000 0.067526143
v -0.009804427 0.018014963 0.099711957
v -0.034658868 0.015952027 0.134642593
v 0.001102336 -0.000677164 0.081246247
v -0.086862847 0.006479423 0.048603207
v 0.006599682 0.017671099 0.172994959
v -0.009971496 0.006611105 0.186000004
v -0.111773465 -0.002112434 0.065957414
v -0.024499999 0.018625000 0.099197003
v 0.005517987 0.018479021 0.096641083
v -0.030026306 0.006128098 0.026174741
v -0.012738840 0.002513222 0.205113494
v 0.016390625 0.016437501 0.149000004
v 0.036209838 0.019079439 0.090744326
v -0.071877429 0.008480870 0.023501427
v 0.005254167 0.021000000 0.176687503
v -0.068410561 0.005087587 0.018546041
v -0.090842221 0.003192569 0.041155290
v -0.027224011 0.016000001 0.143561268
v -0.002000000 -0.001951915 0.195389301
v -0.079712293 0.000375836 0.046660557
v -0.001651060 0.004991746 0.189603141
v 0.030415089 0.018729984 0.137898633
v -0.019577115 0.018339286 0.094999999
v -0.091886763 0.005289324 0.045217295
v 0.011468750 0.016000001 0.094999999
v -0.002500000 0.021000000 0.147250004
v -0.054959803 0.017995385 0.021524111
v -0.034812501 0.019500000 0.171499997
v -0.089143322 0.008370499 0.049827847
v -0.088884750 0.007639019 0.044379806
v -0.011663553 0.018301468 0.093973166
v -0.002000000 0.000486608 0.197221855
v 0.016683444 0.012162262 0.094999999
v -0.114959803 -0.015601794 0.072762063
v 0.005189070 0.021000000 0.099441399
v 0.011405859 0.018825487 0.090754283
v -0.065179365 0.012121981 0.023855173
v 0.011328374 0.016000001 0.096977165
v -0.067500875 0.013010422 0.027846987
v 0.018031250 0.017250001 0.094999999
v -0.008083438 0.021000000 0.180401868
v -0.010256632 0.002540433 0.197268622
v -0.062826152 0.012333396 0.025130073
v 0.002668668 0.011470202 0.151031532
v -0.116275392 -0.003119503 0.074174814
v 0.016944661 0.016000001 0.176886146
v -0.091690787 0.003292896 0.046295646
v -0.013500000 0.016000001 0.180000007
v -0.087700906 0.004083188 0.046585399
v 0.009125000 0.021000000 0.094999999
v -0.010679688 0.021000000 0.097129806
v 0.035244793 0.016000001 0.134755208
v 0.026578068 0.011228586 0.168306378
v -0.015698285 0.018241167 0.184089489
v -0.013517594 0.018440669 0.184760451
v -0.064540898 0.007477526 0.021062325
v -0.091140905 0.004492588 0.043223074
v -0.060677425 0.019098263 0.030510796
v -0.012250000 0.016000001 0.145999998
v -0.092262816 0.000921892 0.044318405
v -0.007171831 0.003869991 0.192620964
v -0.035984376 0.019500000 0.140499994
v -0.033875001 0.021000000 0.140499994
v -0.026609374 0.016437501 0.147000000
v -0.010253201 0.005277335 0.189956757
v -0.118580663 -0.002045751 0.077091401
v 0.035125000 0.021000000 0.165500000
v -0.014250000 0.019500000 0.179499999
v -0.027464495 0.018246385 0.176687388
v -0.116519820 -0.006938137 0.065516238
v -0.092837200 -0.001622893 0.037501783
v -0.018500000 0.016875001 0.101000004
v -0.007142261 0.001346709 0.188517575
v 0.034750000 0.016437501 0.133000001
v 0.031033489 0.014129455 0.170401138
v -0.022807912 0.018095080 0.147809629
v 0.029804458 0.021000000 0.163583496
v -0.090109700 0.002587997 0.043517069
v 0.026818621 0.016000001 0.099181382
v 0.018500000 0.021000000 0.099874998
v -0.004726377 0.019033474 0.196313073
v -0.007333517 -0.000886513 0.191992646
v -0.027078125 0.016437501 0.178000003
v -0.068105875 0.010802128 0.026033424
v -0.091983295 -0.002894894 0.038660271
v -0.065166476 0.018635236 0.027971081
v 0.037000000 0.017636175 0.096821812
v -0.030209346 0.017742005 0.102200455
v -0.031307654 0.018252733 0.099529468
v 0.031000000 0.019500000 0.158500001
v -0.032937501 0.016000001 0.141000003
v -0.033875001 0.019500000 0.101499997
v -0.091661155 0.007222095 0.047426540
v -0.063190360 0.010614360 0.019622822
v 0.034998902 0.018106560 0.159607420
v 0.010994574 0.021000000 0.147579978
v 0.030097222 0.021000000 0.159601191
v -0.033875001 0.021000000 0.147499993
v -0.114261215 -0.001053720 0.070859716
v -0.002500000 0.018625000 0.147709049
v -0.005500000 0.016437501 0.180000007
v -0.014663105 0.001395218 0.194618423
v -0.089182980 0.003019912 0.047124042
v -0.030167207 0.002664988 0.188163038
v -0.098877407 -0.001700788 0.047893630
v -0.107730865 0.001429657 0.066948706
v -0.028262231 0.022000000 0.088113270
v -0.030018986 0.019037940 0.176087195
v -0.016389132 0.018201273 0.147481307
v -0.007771615 0.003902928 0.195198214
v -0.115200697 -0.003630477 0.075956070
v 0.010648437 0.016000001 0.180999994
v -0.010755175 0.002671517 0.192694911
v 0.014750000 0.016000001 0.094999999
v 0.031640023 0.018489448 0.160943325
v -0.088582358 0.004172493 0.043718825
v -0.012637323 0.002156945 0.188074404
v -0.024499999 0.018500001 0.144552084
v -0.010291243 0.004254948 0.199564701
v 0.037000000 0.018625000 0.137329530
v -0.087828352 0.006768663 0.046465385
v -0.068852119 -0.000974389 0.029311784
v 0.003985860 0.019500000 0.103005541
v -0.026254165 0.021000000 0.142687494
v -0.038622919 0.021000000 0.142468744
v -0.003750000 0.017250001 0.094999999
v 0.017276920 0.019357435 0.093588828
v 0.025000000 0.021000000 0.163750000
v -0.009096473 0.014303480 0.101000004
v -0.020525518 0.016916154 0.088483624
v 0.034750000 0.019500000 0.165500000
v -0.013547453 0.007065948 0.030814773
v -0.089482015 0.007079010 0.048502536
v -0.066623764 0.011370471 0.024570443
v -0.089586223 0.003744185 0.050861157
v -0.011191611 -0.000023679 0.191905104
v -0.028761511 0.016000001 0.142691031
v -0.007500000 0.021000000 0.096624999
v 0.010141106 0.005931235 0.184622963
v -0.009173906 0.013003398 0.094999999
v -0.010795338 -0.002594066 0.193778274
v -0.065756356 0.014415593 0.027397568
v -0.005000000 0.019500000 0.186437499
v 0.005265241 0.017973105 0.179634891
v -0.091052138 0.005323866 0.048562315
v -0.007014037 -0.000624493 0.196995657
v -0.026074778 0.016000001 0.145101701
v -0.016193590 0.022000000 0.019003570
v 0.011468750 0.019500000 0.142499998
v -0.015848361 0.003255107 0.191199176
v 0.017955503 0.012478083 0.141170055
v -0.026895450 0.018317082 0.142338569
v -0.025437499 0.016437501 0.141000003
v -0.031700000 0.016000001 0.098058596
v -0.043765397 0.019811868 0.082157255
v -0.026468156 0.018306556 0.145350755
v 0.026424466 0.016323599 0.158934361
v -0.000548985 0.015721552 0.190134331
v -0.122994595 -0.005437250 0.078668415
v 0.025000000 0.018473452 0.098655977
v -0.117848367 -0.006090060 0.068427756
v -0.031659310 0.018175028 0.145829931
v 0.011839972 0.018102672 0.176582566
v -0.006153195 -0.004778314 0.190516356
v 0.005358044 0.018492465 0.099478083
v 0.034931310 0.018099548 0.138079684
v 0.035312498 0.016000001 0.099312501
v -0.034130280 0.004030310 0.022427965
v 0.012869675 0.018802096 0.179466143
v -0.009282136 0.002622051 0.194489717
v -0.004500000 0.021000000 0.094999999
v -0.031742181 0.016000001 0.096924800
v -0.034893631 0.016000001 0.099231383
v 0.034893229 0.018297455 0.095042928
v 0.037000000 0.018625000 0.163329531
v -0.117118822 -0.021146307 0.082209358
v 0.008419898 0.015532290 0.101000004
v 0.034754509 0.018039844 0.099896237
v -0.089644887 0.005071116 0.045969201
v 0.031280079 0.017800398 0.165722535
v -0.034556685 0.022000000 0.092660628
v -0.037156252 0.016000001 0.094999999
v -0.039500002 0.017582237 0.096776864
v 0.010531250 0.021000000 0.142499998
v -0.002500000 0.017554656 0.181896472
v -0.016500000 0.021000000 0.094999999
v -0.018500000 0.019343094 0.097150808
v -0.004066964 0.016000001 0.147877973
v -0.010387610 0.015170895 0.157465088
v -0.037106658 0.018835964 0.096651279
v 0.017984208 0.021205317 0.031405825
v -0.026943987 0.017733468 0.099675088
v -0.004120808 0.002803734 0.195789081
v -0.002500000 0.021000000 0.096624999
v -0.013773946 0.018303497 0.099235186
v -0.091858487 -0.000091526 0.046554242
v 0.037749699 0.017050079 0.091847330
v -0.092652188 0.003621739 0.044048410
v -0.031883333 0.021000000 0.099266824
v -0.061516325 0.004674835 0.023498556
v -0.029187500 0.021000000 0.099659564
v 0.007081884 0.018446516 0.092920705
v -0.086373656 0.004421157 0.045308321
v 0.018500000 0.017582237 0.096776864
v -0.013662858 0.003389429 0.192955913
v -0.011072593 0.022000000 0.079326767
v -0.059033532 0.000176477 0.015753788
v -0.019509358 0.013433637 0.090952295
v -0.033010967 0.013391212 0.094999999
v -0.033795093 0.017964733 0.100110418
v 0.011322620 0.016262236 0.140888727
v -0.017142100 0.000346357 0.189240029
v 0.018500000 0.016875001 0.180999994
v -0.036687501 0.021000000 0.094999999
v 0.037751285 0.017164276 0.101549787
v 0.032484889 0.000820275 0.177567575
v -0.039500002 0.021000000 0.096624999
v -0.009527197 0.015885966 0.142790637
v -0.120969471 -0.006448431 0.067595601
v -0.007062501 0.016000001 0.096791666
v 0.024000000 0.018625000 0.101000004
v -0.013011547 -0.003000000 0.037263113
v 0.026500000 0.021000000 0.101093747
v 0.005254167 0.021000000 0.179312503
v -0.005562032 0.017034888 0.091825906
v -0.068962065 0.013125643 0.030218794
v 0.026227889 0.013342133 0.132826210
v -0.024499999 0.019578328 0.176568997
v -0.031715767 0.008419160 0.138328770
v -0.084053999 0.010724899 0.048905146
v -0.026538608 0.021000000 0.176445237
v 0.028000000 0.019500000 0.139500007
v -0.034747774 0.018775875 0.098286096
v 0.003500000 0.021000000 0.096624999
v 0.005759069 0.012792222 0.142727043
v 0.007434556 0.021000000 0.099441328
v -0.036612519 0.003841478 0.181773424
v -0.035500000 -0.000558357 0.020000000
v 0.027597378 0.018678470 0.095880126
v -0.036580055 0.021000000 0.172386588
v -0.020280054 0.016372017 0.166243942
v -0.009171744 0.019410297 0.099125308
v -0.016349770 -0.004268647 0.191045819
v 0.013181222 0.019500000 0.105887461
v -0.011581529 0.007707865 0.133011696
v -0.037745836 0.021000000 0.145312493
v 0.030180533 -0.002906250 0.036877422
v -0.011571061 0.001731833 0.194721359
v -0.035045835 0.021000000 0.099740382
v -0.064776992 0.017044607 0.029563500
v -0.083011137 0.006543639 0.044768416
v 0.019818413 0.000000000 0.012792147
v -0.024499999 0.017554656 0.142896468
v -0.018305960 -0.003591643 0.196930135
v -0.016933035 0.016000001 0.096877977
v -0.018751145 0.022000000 0.085098155
v 0.012074326 0.006718444 0.028405097
v -0.033875001 0.021000000 0.097058484
v 0.005376573 0.017970657 0.147932610
v -0.033278243 0.015324693 0.105058004
v 0.010196857 0.021000000 0.144170133
v -0.002500000 0.019087099 0.096832348
v 0.035583894 0.018691873 0.136694084
v -0.024170076 0.016726451 0.092782639
v -0.003000000 0.016875001 0.151999995
v 0.035071682 0.017894347 0.163944040
v 0.005687707 0.019228623 0.178601467
v 0.030751688 0.016000001 0.099000847
v -0.064041345 0.003208270 0.016304637
v -0.028850001 0.016000001 0.099289066
v -0.030304647 0.018338155 0.096855512
v -0.123517698 -0.012507136 0.064342671
v -0.013646609 0.015103987 0.153699435
v -0.036665952 0.015446976 0.090700299
v -0.015177128 0.019953447 0.092483398
v 0.032500000 0.021000000 0.132499993
v -0.007393532 0.017943321 0.100050393
v 0.026090135 0.021000000 0.160425473
v 0.004336284 0.019171875 0.140766750
v -0.009500000 0.021000000 0.099973555
v 0.003500000 0.016000001 0.099500003
v 0.026125000 0.019500000 0.101499997
v -0.010218156 0.019037629 0.183262425
v -0.026254165 0.021000000 0.145312493
v 0.026855786 0.021000000 0.096953416
v -0.068693295 0.009087244 0.024146282
v -0.035750001 0.016000001 0.147000000
v 0.015935992 0.019396098 0.089652838
v -0.005875000 0.019500000 0.179625001
v -0.035103385 0.015982539 0.139332792
v -0.012175895 -0.000250000 0.013454389
v -0.029633896 0.017770437 0.100376088
v 0.008303900 0.012846856 0.174999997
v -0.061590797 0.019321034 0.025900053
v -0.006379285 0.018257751 0.094111221
v -0.011024938 0.017443851 0.153761061
v -0.028913981 0.018747207 0.141711186
v -0.037999999 -0.003000000 0.022654152
v -0.004025626 0.019082667 0.098266376
v 0.021660670 0.009952068 0.014033326
v -0.067797418 0.012030284 0.022823753
v -0.012948647 0.019271532 0.090381107
v -0.008232886 0.017856283 0.151396760
v -0.031671630 0.016000001 0.145022835
v 0.005375000 0.021000000 0.094999999
v 0.038526259 0.012784678 0.171094329
v -0.117718930 -0.007207355 0.070750431
v -0.049380319 0.014813593 0.015454017
v -0.062425187 0.009818554 0.016004817
v -0.052672971 0.000966609 0.027529344
v -0.032746096 0.018932772 0.098313686
v -0.094331778 0.002346718 0.044568216
v 0.017199983 0.017688490 0.101125002
v 0.008187500 0.016000001 0.143000007
v -0.003868456 0.013820810 0.145265070
v 0.030941176 0.015526207 0.088660853
v -0.031788255 -0.003000000 0.031393352
v -0.032000001 0.021000000 0.173280408
v -0.009658622 0.021000000 0.184851058
v 0.006474609 0.018511306 0.090053819
v -0.031712092 0.019500000 0.150358766
v -0.031094586 -0.002812500 0.049917155
v 0.043474305 0.014692057 0.093813187
v 0.018500000 0.021000000 0.144249998
v -0.009038846 0.001530891 0.196151994
v -0.031062500 0.016000001 0.101000004
v -0.010874998 0.016000001 0.096916668
v -0.077238385 0.011216750 0.034441238
v -0.033613646 0.004687610 0.086224545
v 0.007849999 0.016000001 0.144710944
v -0.020713737 0.008112458 0.049697615
v -0.027199948 0.022000000 0.069115174
v 0.035500000 0.016000001 0.101000004
v -0.033827431 0.019543467 0.099898907
v -0.043608310 0.002661638 0.048498096
v -0.024499999 0.021000000 0.096624999
v -0.066362688 0.006104734 0.015224273
v -0.059987870 0.015894987 0.016147729
v 0.001385562 0.017132515 0.090328554
v -0.018026708 0.017604972 0.137323743
v -0.054524506 0.012220654 0.034976595
v -0.019546553 0.016528361 0.103858466
v -0.026292888 0.016000001 0.096819236
v -0.061511615 0.002369462 0.014440270
v -0.034944992 0.007448271 0.045117792
v -0.008944452 0.019302181 0.091591365
v -0.037999999 -0.003000000 0.027962457
v -0.020278526 0.019821351 0.092022577
v -0.003431908 0.019466865 0.093196674
v -0.023970903 0.022000000 0.091997899
v -0.061042012 0.019593527 0.023232287
v -0.033854110 0.018289901 0.096171064
v 0.003718750 0.015033523 0.101000004
v -0.024682745 0.012582577 0.139638258
v -0.000945313 0.004200283 0.198672221
v -0.032000001 0.021000000 0.094999999
v -0.028410346 0.000000000 0.017146814
v -0.064797008 0.009259629 0.017430219
v -0.028569659 0.016000001 0.096886151
v -0.028915096 0.018069365 0.099033790
v 0.013593749 0.000000000 0.016138517
v -0.012059005 0.008501831 0.153624996
v -0.037709896 0.010265047 0.133777691
v 0.015687500 0.019500000 0.142499998
v -0.009504617 0.019133456 0.087587626
v -0.028266471 0.017755923 0.093086762
v 0.016921874 0.000000000 0.018258002
v -0.055948567 0.015569383 0.017664865
v 0.008076426 0.017623289 0.134284489
v 0.005358939 0.007406235 0.013905919
v 0.009156265 0.000000000 0.016156977
v -0.043927710 0.018648476 0.091179023
v -0.033937500 -0.000209384 0.007171912
v -0.026217496 0.018440224 0.097465258
v -0.006203108 0.019619136 0.092108699
v -0.060149433 0.018775943 0.020657650
v -0.064023023 0.011560611 0.018400145
v 0.021961139 0.019725309 0.092496289
v -0.033565509 0.000237282 0.022562290
v -0.065491846 0.007249981 0.014741875
v -0.040338466 0.022021885 0.025253628
v 0.029500000 0.021000000 0.094999999
v 0.004320728 0.020230892 0.092442263
v -0.039579031 0.022019620 0.033749999
v -0.046448965 0.022045915 0.031364970
v -0.005000000 0.016218751 0.145999998
v -0.040205641 0.007934810 0.018098203
v -0.062828565 0.014095956 0.020071562
v -0.033546022 -0.003000000 0.025719328
v -0.063818901 0.010497646 0.014788254
v -0.004684642 0.019801400 0.089911516
v 0.028980740 0.018983732 0.093795663
v 0.024507827 0.021512965 0.091255692
v -0.009277513 0.019579211 0.093143220
v -0.032741470 0.002212298 0.028261721
v -0.044319218 0.009183836 0.027795869
v -0.062320478 0.017669246 0.022586138
f 460 1 13
f 13 1 751
f 1 460 1113
f 751 1 1003
f 1003 1 1113
f 759 97 2
f 97 909 2
f 687 160 2
f 160 759 2
f 687 2 909
f 656 3 4
f 4 3 657
f 3 5 15
f 557 5 3
f 215 13 3
f 13 753 3
f 15 214 3
f 214 352 3
f 353 215 3
f 352 657 3
f 656 353 3
f 3 753 557
f 657 656 4
f 5 547 15
f 547 5 346
f 557 346 5
f 719 6 7
f 6 888 7
f 694 432 6
f 432 888 6
f 694 6 823
f 6 719 823
f 746 719 7
f 746 7 874
f 7 888 874
f 8 9 15
f 8 861 9
f 15 444 8
f 861 8 286
f 8 889 286
f 444 889 8
f 12 689 9
f 861 12 9
f 9 213 15
f 224 213 9
f 9 226 224
f 9 689 226
f 10 264 216
f 1003 10 216
f 243 729 10
f 861 243 10
f 10 729 264
f 10 1144 861
f 10 1003 1144
f 401 11 286
f 11 625 286
f 393 625 11
f 1131 393 11
f 401 780 11
f 11 780 672
f 1131 11 672
f 12 93 95
f 360 93 12
f 95 1188 12
f 12 1144 360
f 12 1188 689
f 861 1144 12
f 126 460 13
f 126 13 1176
f 660 13 215
f 13 660 1176
f 13 751 752
f 13 752 753
f 14 137 94
f 94 1113 14
f 137 14 1150
f 162 14 1101
f 1150 14 162
f 666 14 1041
f 666 1101 14
f 1041 14 1176
f 1113 1176 14
f 15 129 445
f 683 129 15
f 15 212 444
f 445 212 15
f 660 15 213
f 660 214 15
f 344 15 547
f 344 683 15
f 1032 556 16
f 556 1157 16
f 1157 1032 16
f 663 17 742
f 920 17 663
f 1015 742 17
f 17 920 1015
f 266 20 18
f 20 865 18
f 266 18 251
f 18 361 251
f 256 18 865
f 18 256 1166
f 18 894 361
f 894 18 1032
f 1032 18 1166
f 19 21 22
f 19 403 21
f 266 19 22
f 251 19 266
f 361 19 251
f 361 1090 19
f 19 1090 403
f 865 20 24
f 20 928 24
f 266 928 20
f 21 23 22
f 403 23 21
f 22 23 25
f 123 22 25
f 266 22 123
f 23 320 25
f 321 320 23
f 403 321 23
f 181 865 24
f 928 181 24
f 1049 123 25
f 320 1049 25
f 387 26 29
f 494 29 26
f 387 349 26
f 494 26 349
f 527 27 28
f 811 28 27
f 209 27 527
f 533 27 209
f 394 381 27
f 381 811 27
f 533 394 27
f 125 306 28
f 125 28 811
f 28 306 175
f 527 28 175
f 227 29 153
f 826 153 29
f 29 227 1159
f 1139 29 307
f 1159 307 29
f 388 387 29
f 1139 388 29
f 494 826 29
f 118 30 32
f 32 30 163
f 322 30 118
f 30 769 163
f 322 875 30
f 30 726 769
f 1145 726 30
f 875 1145 30
f 826 31 153
f 153 31 989
f 989 31 592
f 31 990 592
f 826 990 31
f 514 118 32
f 514 32 163
f 319 33 771
f 319 932 33
f 463 33 665
f 463 771 33
f 665 33 932
f 58 128 34
f 58 34 929
f 128 974 34
f 34 1065 929
f 997 34 974
f 997 1065 34
f 122 35 37
f 37 35 544
f 122 1056 35
f 35 184 544
f 794 184 35
f 794 35 556
f 35 956 556
f 1056 956 35
f 122 38 36
f 36 38 879
f 921 122 36
f 879 867 36
f 921 36 867
f 927 122 37
f 927 37 544
f 122 1087 38
f 38 363 879
f 1087 363 38
f 116 40 39
f 40 743 39
f 493 116 39
f 743 493 39
f 116 670 40
f 670 495 40
f 40 495 743
f 231 42 41
f 42 829 41
f 1118 41 62
f 41 1189 62
f 232 231 41
f 1143 232 41
f 41 1118 241
f 41 241 1143
f 829 903 41
f 903 1189 41
f 231 829 42
f 121 43 45
f 43 593 45
f 596 43 121
f 250 323 43
f 250 43 596
f 323 1040 43
f 43 504 593
f 43 1040 504
f 121 417 44
f 121 44 506
f 44 417 1043
f 506 44 1043
f 616 121 45
f 143 45 142
f 45 593 142
f 143 355 45
f 355 233 45
f 233 616 45
f 51 46 50
f 46 141 50
f 422 46 51
f 46 831 141
f 245 329 46
f 422 245 46
f 329 265 46
f 265 530 46
f 506 46 403
f 46 1124 403
f 506 831 46
f 46 530 782
f 46 782 879
f 1124 46 879
f 49 47 48
f 47 550 48
f 49 517 47
f 517 493 47
f 493 550 47
f 270 49 48
f 748 270 48
f 550 543 48
f 543 748 48
f 517 49 270
f 238 51 50
f 141 238 50
f 238 120 51
f 422 51 120
f 119 52 337
f 119 886 52
f 337 52 336
f 465 336 52
f 1031 465 52
f 886 1031 52
f 53 54 420
f 53 773 54
f 603 53 420
f 591 773 53
f 53 1068 591
f 603 1068 53
f 54 483 420
f 54 773 483
f 244 455 55
f 55 754 244
f 419 55 407
f 55 604 407
f 419 754 55
f 604 55 455
f 455 170 56
f 170 501 56
f 501 455 56
f 57 135 136
f 57 1122 135
f 57 136 946
f 57 626 246
f 246 678 57
f 626 57 946
f 1122 57 678
f 1108 128 58
f 727 58 929
f 1037 58 727
f 1037 1108 58
f 838 113 59
f 113 926 59
f 59 926 187
f 1039 59 187
f 1039 838 59
f 68 223 60
f 843 68 60
f 60 578 112
f 843 60 112
f 60 223 540
f 540 578 60
f 883 340 61
f 340 1116 61
f 1116 883 61
f 1189 1118 62
f 64 63 108
f 63 64 1082
f 63 702 108
f 415 702 63
f 1082 415 63
f 276 64 108
f 64 191 192
f 64 276 191
f 64 192 1082
f 66 65 109
f 66 1127 65
f 534 109 65
f 534 65 1127
f 409 66 109
f 1127 66 409
f 1024 67 963
f 1026 963 67
f 1024 1085 67
f 1085 1026 67
f 963 104 68
f 104 1088 68
f 679 223 68
f 68 1088 679
f 800 68 797
f 836 797 68
f 963 68 800
f 836 68 843
f 103 71 69
f 71 1018 69
f 473 103 69
f 1018 473 69
f 347 70 72
f 70 705 72
f 611 103 70
f 103 781 70
f 611 70 347
f 705 70 781
f 103 609 71
f 259 71 200
f 71 609 200
f 71 259 1018
f 347 72 223
f 72 452 223
f 72 1126 452
f 705 1126 72
f 368 102 73
f 102 398 73
f 73 398 203
f 468 73 203
f 368 73 1030
f 73 468 410
f 1030 73 410
f 402 74 201
f 74 558 201
f 402 558 74
f 75 318 558
f 318 75 749
f 537 75 333
f 333 75 558
f 362 749 75
f 768 362 75
f 75 537 768
f 508 76 202
f 76 614 202
f 508 614 76
f 354 228 77
f 373 77 228
f 516 354 77
f 1096 77 373
f 1096 516 77
f 108 78 79
f 79 78 736
f 108 702 78
f 702 736 78
f 500 108 79
f 500 79 277
f 277 79 736
f 80 686 81
f 815 80 81
f 80 107 438
f 615 107 80
f 80 438 686
f 615 80 815
f 686 815 81
f 105 82 83
f 83 82 598
f 486 82 105
f 598 82 486
f 536 105 83
f 536 83 302
f 302 83 598
f 106 84 86
f 86 84 404
f 762 84 106
f 762 354 84
f 915 84 354
f 404 84 942
f 84 915 942
f 904 695 85
f 85 695 1092
f 904 85 1092
f 1027 106 86
f 257 86 404
f 1027 86 257
f 284 87 105
f 87 486 105
f 461 87 284
f 461 529 87
f 87 1016 486
f 529 1016 87
f 412 88 89
f 960 89 88
f 558 318 88
f 960 88 318
f 412 605 88
f 749 88 505
f 505 88 893
f 749 558 88
f 88 605 893
f 342 89 960
f 342 1081 89
f 412 89 1081
f 90 158 159
f 90 577 158
f 159 931 90
f 281 261 90
f 261 856 90
f 90 931 281
f 90 856 577
f 100 91 205
f 317 91 100
f 205 91 505
f 317 299 91
f 91 299 505
f 100 870 92
f 92 978 100
f 978 92 469
f 469 92 1109
f 934 730 92
f 92 730 1109
f 870 934 92
f 93 1135 95
f 360 1144 93
f 1132 1135 93
f 1132 93 1138
f 93 1144 1138
f 137 1125 94
f 1113 94 1138
f 1125 1138 94
f 499 95 1135
f 1187 95 499
f 95 1187 1188
f 96 274 97
f 617 96 97
f 274 96 440
f 96 512 440
f 512 96 617
f 274 622 97
f 97 313 380
f 97 902 313
f 380 617 97
f 622 909 97
f 902 97 759
f 161 909 98
f 98 938 161
f 98 274 908
f 909 274 98
f 732 432 98
f 432 766 98
f 732 98 551
f 551 98 908
f 938 98 766
f 131 99 440
f 131 441 99
f 440 99 274
f 99 441 274
f 339 100 205
f 978 317 100
f 339 701 100
f 100 701 870
f 101 931 275
f 275 1081 101
f 342 281 101
f 281 931 101
f 101 1081 342
f 402 102 368
f 458 398 102
f 402 458 102
f 473 890 103
f 611 609 103
f 890 781 103
f 104 1026 722
f 722 1088 104
f 963 1026 104
f 285 284 105
f 536 285 105
f 106 490 491
f 106 818 490
f 762 106 491
f 1027 818 106
f 439 438 107
f 590 439 107
f 615 534 107
f 534 1127 107
f 1127 590 107
f 500 276 108
f 954 110 109
f 110 1172 109
f 1167 409 109
f 534 466 109
f 466 761 109
f 109 761 954
f 1172 1167 109
f 549 110 954
f 549 1116 110
f 1116 1047 110
f 1047 1172 110
f 111 1038 415
f 1082 111 415
f 1082 1038 111
f 578 341 112
f 341 883 112
f 112 883 588
f 588 1007 112
f 112 1007 843
f 838 400 113
f 400 1037 113
f 565 926 113
f 113 1037 565
f 246 626 114
f 844 246 114
f 114 626 258
f 258 988 114
f 844 114 629
f 114 1092 629
f 114 988 1092
f 522 608 115
f 829 522 115
f 115 773 591
f 591 903 115
f 608 773 115
f 903 829 115
f 116 517 303
f 303 670 116
f 493 517 116
f 298 297 117
f 489 117 297
f 330 298 117
f 997 330 117
f 1065 117 489
f 1065 997 117
f 118 990 322
f 514 424 118
f 592 118 424
f 592 990 118
f 142 119 337
f 142 504 119
f 504 907 119
f 907 886 119
f 247 120 238
f 247 1034 120
f 422 120 328
f 120 1031 328
f 1031 120 465
f 120 1034 465
f 616 417 121
f 506 596 121
f 921 1056 122
f 927 1087 122
f 123 928 266
f 1049 928 123
f 124 256 556
f 1166 256 124
f 511 391 124
f 391 720 124
f 397 124 720
f 397 1166 124
f 511 124 527
f 124 556 527
f 306 125 307
f 125 1139 307
f 125 811 388
f 125 388 1139
f 1113 460 126
f 1113 126 1176
f 211 138 127
f 138 263 127
f 219 211 127
f 1055 219 127
f 263 745 127
f 745 1055 127
f 153 132 128
f 553 128 132
f 223 128 146
f 128 853 146
f 1059 153 128
f 223 372 128
f 128 553 225
f 128 225 974
f 255 853 128
f 128 1108 255
f 372 386 128
f 386 1009 128
f 1009 1059 128
f 1104 445 129
f 683 1104 129
f 671 130 636
f 1104 636 130
f 671 817 130
f 672 786 130
f 130 1131 672
f 786 1104 130
f 817 1131 130
f 221 131 459
f 221 680 131
f 442 131 440
f 441 131 687
f 131 442 459
f 680 563 131
f 687 131 563
f 789 132 153
f 132 854 553
f 789 854 132
f 644 943 133
f 133 1130 644
f 133 1023 665
f 665 1130 133
f 133 943 929
f 929 1023 133
f 375 406 134
f 713 375 134
f 483 396 134
f 396 713 134
f 134 406 776
f 632 483 134
f 632 134 775
f 134 776 775
f 560 136 135
f 561 560 135
f 715 561 135
f 1122 715 135
f 560 606 136
f 606 946 136
f 1120 1125 137
f 1120 137 1150
f 211 801 138
f 138 801 263
f 186 184 139
f 635 139 184
f 139 612 186
f 507 371 139
f 371 612 139
f 507 139 866
f 866 139 635
f 371 374 140
f 471 371 140
f 140 374 901
f 471 140 711
f 711 140 710
f 140 901 710
f 238 141 144
f 831 144 141
f 143 142 337
f 593 504 142
f 305 355 143
f 421 305 143
f 336 143 337
f 336 1034 143
f 1034 421 143
f 379 238 144
f 1043 331 144
f 331 1121 144
f 1121 379 144
f 831 1043 144
f 145 188 147
f 147 602 145
f 546 188 145
f 145 189 341
f 602 189 145
f 370 145 341
f 370 546 145
f 324 223 146
f 146 760 324
f 688 760 146
f 853 688 146
f 188 1047 147
f 1047 602 147
f 194 148 196
f 277 148 194
f 195 196 148
f 686 195 148
f 148 277 736
f 736 686 148
f 478 149 411
f 149 761 411
f 149 478 447
f 447 1117 149
f 149 1038 761
f 1117 1038 149
f 150 418 652
f 849 418 150
f 150 652 516
f 1096 150 516
f 849 150 598
f 1096 598 150
f 151 198 461
f 151 709 198
f 284 423 151
f 151 461 284
f 709 151 423
f 208 152 174
f 680 174 152
f 152 208 562
f 152 562 217
f 217 563 152
f 680 152 563
f 1153 227 153
f 789 153 230
f 230 153 989
f 1059 1153 153
f 200 156 154
f 156 427 154
f 259 200 154
f 653 259 154
f 154 427 1085
f 653 154 1085
f 240 155 1071
f 1136 155 240
f 696 294 155
f 294 1071 155
f 1136 696 155
f 416 156 200
f 416 282 156
f 282 427 156
f 338 157 203
f 157 468 203
f 338 1079 157
f 157 1079 468
f 870 159 158
f 577 730 158
f 730 934 158
f 934 870 158
f 870 880 159
f 880 931 159
f 160 563 217
f 217 759 160
f 687 563 160
f 551 908 161
f 551 161 1115
f 161 832 700
f 896 161 700
f 896 827 161
f 827 1115 161
f 832 161 938
f 909 161 908
f 666 162 1101
f 162 666 1192
f 1150 162 1192
f 731 514 163
f 163 770 731
f 769 770 163
f 298 164 297
f 769 297 164
f 298 330 164
f 330 1083 164
f 1083 769 164
f 303 492 165
f 670 303 165
f 492 638 165
f 495 165 645
f 495 670 165
f 638 645 165
f 168 270 166
f 776 168 166
f 748 166 270
f 166 748 426
f 426 775 166
f 775 776 166
f 236 229 167
f 167 229 765
f 236 167 550
f 1165 550 167
f 167 765 1165
f 303 270 168
f 168 406 303
f 406 168 776
f 501 170 169
f 170 560 169
f 169 392 455
f 392 169 561
f 455 501 169
f 169 560 561
f 744 170 455
f 606 170 488
f 744 488 170
f 170 606 560
f 171 237 262
f 237 171 365
f 526 171 262
f 436 365 171
f 436 171 595
f 526 595 171
f 844 629 172
f 629 1092 172
f 1092 844 172
f 413 173 392
f 634 392 173
f 413 844 173
f 634 173 604
f 173 871 604
f 173 844 871
f 174 1022 208
f 680 1022 174
f 177 175 306
f 574 175 177
f 511 527 175
f 574 511 175
f 533 176 394
f 580 394 176
f 533 1129 176
f 176 1073 580
f 176 1129 1073
f 307 177 306
f 307 1004 177
f 177 502 574
f 177 1002 502
f 1004 1002 177
f 179 178 502
f 600 178 179
f 720 391 178
f 391 895 178
f 895 502 178
f 600 767 178
f 764 720 178
f 767 764 178
f 1052 179 502
f 1052 600 179
f 335 471 180
f 1087 335 180
f 363 180 710
f 363 1087 180
f 180 471 711
f 180 711 710
f 252 507 181
f 928 252 181
f 181 507 866
f 181 866 865
f 320 182 183
f 901 183 182
f 321 182 320
f 1124 182 321
f 710 901 182
f 1124 710 182
f 374 252 183
f 252 1049 183
f 1049 320 183
f 374 183 901
f 186 544 184
f 794 635 184
f 894 185 513
f 185 940 513
f 940 185 821
f 185 956 821
f 185 894 1032
f 956 185 1157
f 185 1032 1157
f 612 335 186
f 335 927 186
f 186 927 544
f 546 187 188
f 926 188 187
f 546 1039 187
f 1047 188 926
f 340 189 190
f 190 189 602
f 340 341 189
f 190 1116 340
f 1047 190 602
f 1047 1116 190
f 191 952 192
f 276 433 191
f 433 987 191
f 987 952 191
f 952 1082 192
f 590 409 193
f 409 1167 193
f 477 590 193
f 193 987 477
f 952 987 193
f 1167 952 193
f 899 194 196
f 500 277 194
f 899 500 194
f 438 196 195
f 438 195 686
f 438 439 196
f 439 899 196
f 491 197 326
f 691 326 197
f 535 430 197
f 691 197 430
f 197 491 535
f 257 199 198
f 198 199 461
f 1027 257 198
f 709 288 198
f 198 288 1027
f 199 257 404
f 461 199 404
f 609 416 200
f 268 458 201
f 268 201 601
f 601 201 278
f 201 667 278
f 458 402 201
f 201 558 1035
f 667 201 1035
f 1079 508 202
f 614 1079 202
f 268 338 203
f 398 268 203
f 508 278 204
f 667 204 278
f 204 923 508
f 749 204 667
f 749 923 204
f 254 206 205
f 206 893 205
f 205 249 339
f 900 249 205
f 254 205 505
f 893 900 205
f 505 206 254
f 893 206 505
f 833 207 700
f 896 700 207
f 827 207 833
f 896 207 827
f 562 208 673
f 685 673 208
f 208 1022 685
f 397 209 527
f 209 397 533
f 932 319 210
f 210 319 1048
f 932 210 1048
f 211 219 1094
f 801 211 1094
f 444 212 334
f 568 334 212
f 568 212 445
f 659 213 224
f 660 213 659
f 215 352 214
f 214 660 215
f 353 352 215
f 681 216 264
f 681 846 216
f 1003 216 846
f 562 673 217
f 673 712 217
f 712 902 217
f 217 902 759
f 219 218 1094
f 219 1174 218
f 806 1025 218
f 806 218 1050
f 1094 218 1025
f 1170 1050 218
f 1164 1170 218
f 218 1174 1164
f 1055 1174 219
f 347 223 220
f 1185 220 223
f 416 220 282
f 220 1185 282
f 416 347 220
f 485 221 459
f 485 680 221
f 510 222 551
f 669 222 510
f 222 746 551
f 669 746 222
f 372 223 292
f 223 452 292
f 324 540 223
f 1185 223 679
f 226 689 224
f 689 659 224
f 225 941 330
f 330 974 225
f 553 941 225
f 227 910 984
f 227 1153 910
f 227 984 1159
f 762 228 354
f 373 228 491
f 762 491 228
f 236 862 229
f 229 774 765
f 862 774 229
f 424 293 230
f 293 789 230
f 230 989 424
f 638 231 232
f 396 522 231
f 231 638 396
f 522 829 231
f 645 638 232
f 1143 645 232
f 355 331 233
f 331 1043 233
f 616 233 417
f 233 1043 417
f 279 234 278
f 234 601 278
f 279 508 234
f 338 601 234
f 234 1079 338
f 508 1079 234
f 435 242 235
f 904 235 242
f 435 235 258
f 235 988 258
f 904 988 235
f 273 236 550
f 236 273 699
f 699 862 236
f 744 244 237
f 244 754 237
f 754 262 237
f 488 237 365
f 744 237 488
f 379 247 238
f 281 239 261
f 613 261 239
f 342 239 281
f 342 960 239
f 613 239 351
f 351 239 960
f 698 576 240
f 970 240 576
f 240 643 698
f 240 1071 643
f 970 1136 240
f 319 726 241
f 319 241 1048
f 1145 241 726
f 241 1118 1048
f 241 1145 1143
f 435 646 242
f 646 526 242
f 526 904 242
f 393 264 243
f 729 243 264
f 625 393 243
f 625 243 861
f 744 455 244
f 422 328 245
f 328 886 245
f 245 785 329
f 886 785 245
f 246 844 678
f 421 247 379
f 1034 247 421
f 248 862 743
f 1048 248 743
f 248 1048 862
f 701 339 249
f 701 249 870
f 249 880 870
f 900 880 249
f 323 250 271
f 506 271 250
f 596 506 250
f 374 507 252
f 928 1049 252
f 715 253 413
f 253 844 413
f 678 844 253
f 678 253 1122
f 715 1122 253
f 400 370 255
f 370 853 255
f 255 1108 400
f 794 556 256
f 256 865 794
f 258 946 435
f 258 626 946
f 1018 259 653
f 1052 1002 260
f 1061 260 1002
f 1061 1052 260
f 385 261 289
f 261 613 289
f 385 304 261
f 304 856 261
f 526 262 851
f 262 754 851
f 745 263 994
f 801 994 263
f 681 264 393
f 314 265 323
f 314 530 265
f 265 886 323
f 329 886 265
f 267 405 280
f 280 452 267
f 405 267 1126
f 1126 267 452
f 601 338 268
f 458 268 398
f 727 290 269
f 290 1084 269
f 565 727 269
f 269 1084 565
f 303 517 270
f 314 323 271
f 314 271 530
f 506 530 271
f 356 272 665
f 708 272 356
f 357 644 272
f 272 708 357
f 644 1130 272
f 272 1130 665
f 550 493 273
f 493 743 273
f 743 699 273
f 274 441 908
f 274 909 622
f 900 275 880
f 931 880 275
f 275 900 1081
f 433 276 310
f 276 500 310
f 508 279 278
f 292 452 280
f 292 280 803
f 280 405 803
f 722 427 282
f 679 1088 282
f 282 1185 679
f 282 1088 722
f 807 283 348
f 938 348 283
f 807 1033 283
f 832 938 283
f 1033 832 283
f 284 285 423
f 536 423 285
f 889 401 286
f 625 861 286
f 287 515 316
f 287 316 696
f 410 877 287
f 1018 410 287
f 515 287 1030
f 696 1018 287
f 877 1030 287
f 288 503 535
f 288 709 503
f 818 288 535
f 1027 288 818
f 289 613 351
f 351 960 289
f 289 597 385
f 960 597 289
f 437 290 727
f 437 980 290
f 980 1084 290
f 330 941 291
f 291 1083 330
f 941 854 291
f 854 1083 291
f 372 292 803
f 293 424 731
f 731 770 293
f 770 1083 293
f 854 789 293
f 854 293 1083
f 316 515 294
f 316 294 696
f 294 882 325
f 325 1071 294
f 882 294 515
f 442 295 389
f 389 295 617
f 442 440 295
f 512 295 440
f 512 617 295
f 297 726 319
f 297 319 771
f 297 771 489
f 726 297 769
f 317 300 299
f 300 395 299
f 395 385 299
f 385 597 299
f 960 505 299
f 299 597 960
f 395 300 304
f 469 304 300
f 978 300 317
f 978 469 300
f 681 393 301
f 795 301 393
f 681 301 846
f 795 859 301
f 846 301 859
f 302 430 431
f 430 302 598
f 536 302 431
f 406 492 303
f 395 304 385
f 469 1109 304
f 1109 856 304
f 355 305 331
f 305 1121 331
f 421 379 305
f 379 1121 305
f 307 1002 1004
f 1061 1002 307
f 1061 307 1159
f 308 415 456
f 308 702 415
f 736 308 456
f 308 736 702
f 310 1064 433
f 310 899 477
f 477 1064 310
f 500 899 310
f 322 734 312
f 322 312 875
f 357 356 312
f 312 356 875
f 312 1058 357
f 734 826 312
f 826 1058 312
f 380 313 848
f 313 712 848
f 902 712 313
f 318 749 505
f 505 960 318
f 403 1124 321
f 990 734 322
f 886 1040 323
f 324 578 540
f 760 578 324
f 325 797 643
f 643 1071 325
f 800 797 325
f 882 800 325
f 326 462 373
f 326 373 491
f 691 462 326
f 367 558 327
f 367 327 1030
f 327 558 368
f 327 368 1030
f 1031 886 328
f 785 886 329
f 997 974 330
f 367 333 558
f 367 1030 333
f 1030 537 333
f 334 780 401
f 889 334 401
f 334 889 444
f 780 334 568
f 612 471 335
f 335 1087 927
f 465 1034 336
f 340 883 341
f 341 688 370
f 578 760 341
f 760 688 341
f 618 343 345
f 343 668 345
f 755 382 343
f 795 343 382
f 795 393 343
f 343 393 925
f 668 343 528
f 528 343 925
f 618 755 343
f 547 399 344
f 640 344 399
f 640 636 344
f 683 344 636
f 668 557 345
f 557 859 345
f 618 345 859
f 547 346 399
f 619 399 346
f 619 346 528
f 346 668 528
f 668 346 557
f 347 416 611
f 807 348 1006
f 906 852 348
f 852 1006 348
f 906 348 938
f 1146 349 387
f 494 349 1012
f 975 349 957
f 349 1162 957
f 1012 349 975
f 1162 349 1146
f 418 849 350
f 418 350 1016
f 598 486 350
f 486 1016 350
f 849 598 350
f 657 352 353
f 656 657 353
f 516 652 354
f 915 354 652
f 357 708 356
f 356 665 932
f 1145 875 356
f 932 1145 356
f 357 1058 644
f 951 359 660
f 359 1176 660
f 951 801 359
f 801 1094 359
f 359 1094 1176
f 513 361 894
f 513 1107 361
f 697 1090 361
f 361 1107 697
f 581 362 877
f 923 362 581
f 362 923 749
f 855 362 768
f 362 855 877
f 364 363 710
f 363 364 879
f 1124 364 710
f 1124 879 364
f 436 809 365
f 606 488 365
f 663 606 365
f 663 365 920
f 365 809 920
f 368 558 402
f 400 1039 370
f 1039 546 370
f 688 853 370
f 371 507 374
f 612 371 471
f 372 648 386
f 803 648 372
f 373 462 607
f 1096 373 607
f 492 406 375
f 487 638 375
f 713 487 375
f 492 375 638
f 380 1110 617
f 380 848 1110
f 388 381 387
f 381 1146 387
f 388 811 381
f 580 381 394
f 1146 381 580
f 755 859 382
f 795 382 859
f 835 822 383
f 822 967 383
f 824 835 383
f 824 383 876
f 967 876 383
f 764 384 414
f 985 414 384
f 764 767 384
f 767 986 384
f 986 985 384
f 648 1009 386
f 459 442 389
f 459 389 1075
f 389 617 467
f 389 467 1110
f 1075 389 837
f 837 389 1110
f 419 390 754
f 1044 390 419
f 390 1044 543
f 390 543 1165
f 695 390 721
f 390 695 904
f 390 1165 721
f 390 851 754
f 851 390 904
f 391 511 895
f 392 715 413
f 634 455 392
f 392 561 715
f 925 393 823
f 393 1131 823
f 608 396 483
f 396 638 487
f 713 396 487
f 608 522 396
f 527 1166 397
f 720 533 397
f 619 583 399
f 640 399 583
f 838 1039 400
f 1108 1037 400
f 782 506 403
f 697 782 403
f 697 403 1090
f 529 461 404
f 733 529 404
f 942 733 404
f 405 705 797
f 405 1126 705
f 405 797 836
f 803 405 994
f 836 806 405
f 1050 405 806
f 1050 994 405
f 419 407 1044
f 604 871 407
f 695 407 871
f 407 695 1044
f 408 890 473
f 1018 408 473
f 576 698 408
f 970 576 408
f 698 890 408
f 1136 970 408
f 1018 1136 408
f 590 1127 409
f 410 468 614
f 410 653 515
f 410 515 1030
f 877 410 614
f 410 1018 653
f 548 478 411
f 497 411 761
f 815 411 497
f 548 411 815
f 900 605 412
f 1081 900 412
f 414 976 764
f 976 414 957
f 1012 957 414
f 1012 414 985
f 456 415 1117
f 1038 1117 415
f 611 416 609
f 915 652 418
f 418 1016 915
f 695 420 426
f 775 426 420
f 483 482 420
f 482 632 420
f 420 721 603
f 420 632 775
f 721 420 695
f 423 431 535
f 536 431 423
f 503 423 535
f 503 709 423
f 514 731 424
f 989 592 424
f 669 510 425
f 510 1115 425
f 425 820 669
f 860 820 425
f 425 1001 860
f 1115 1001 425
f 748 543 426
f 543 1044 426
f 426 1044 695
f 427 722 1026
f 427 1026 1085
f 431 430 535
f 430 598 691
f 694 519 432
f 519 766 432
f 732 888 432
f 1064 987 433
f 843 434 484
f 434 1116 484
f 1007 588 434
f 588 1116 434
f 843 1007 434
f 436 595 435
f 435 961 436
f 646 435 595
f 961 435 946
f 961 809 436
f 437 841 453
f 453 980 437
f 727 828 437
f 828 841 437
f 439 590 477
f 477 899 439
f 441 687 909
f 909 908 441
f 1104 568 445
f 456 447 548
f 456 1133 447
f 478 548 447
f 1133 1117 447
f 484 453 917
f 484 1116 453
f 841 828 453
f 453 828 917
f 1116 980 453
f 634 604 455
f 736 456 548
f 1117 1133 456
f 485 459 1075
f 686 462 598
f 462 691 598
f 462 847 607
f 686 736 462
f 847 462 736
f 489 771 463
f 1065 489 463
f 665 1023 463
f 463 1023 929
f 929 1065 463
f 541 765 464
f 541 464 1189
f 765 774 464
f 774 862 464
f 464 862 1189
f 497 761 466
f 815 497 466
f 615 466 534
f 615 815 466
f 1110 467 617
f 1079 614 468
f 548 815 476
f 847 548 476
f 686 607 476
f 847 476 607
f 815 686 476
f 1064 477 987
f 632 482 483
f 773 608 483
f 917 843 484
f 485 1022 680
f 1075 1022 485
f 490 535 491
f 490 818 535
f 826 494 644
f 943 644 494
f 806 943 494
f 806 494 1132
f 1012 1132 494
f 495 645 743
f 951 499 1135
f 951 1184 499
f 1184 1187 499
f 895 574 502
f 1052 502 1002
f 1040 907 504
f 530 506 782
f 506 1043 831
f 508 581 614
f 923 581 508
f 551 1115 510
f 574 895 511
f 867 697 513
f 697 1107 513
f 513 821 867
f 940 821 513
f 653 1085 515
f 882 515 800
f 515 1024 800
f 1085 1024 515
f 624 519 694
f 624 766 519
f 541 991 524
f 541 524 1068
f 903 591 524
f 591 1068 524
f 903 524 1189
f 524 991 1189
f 646 595 526
f 851 904 526
f 556 1166 527
f 583 528 554
f 528 925 554
f 619 528 583
f 1016 529 733
f 720 1129 533
f 855 768 537
f 877 855 537
f 877 537 1030
f 541 1068 765
f 1189 991 541
f 550 1165 543
f 548 847 736
f 926 549 1047
f 1156 549 926
f 954 1038 549
f 1116 549 980
f 980 549 1156
f 549 1038 1172
f 549 1172 1047
f 746 732 551
f 854 941 553
f 583 554 817
f 554 925 719
f 1131 554 719
f 1131 817 554
f 556 956 1157
f 556 1032 1166
f 753 752 557
f 752 859 557
f 749 667 558
f 667 1035 558
f 565 1037 727
f 565 1156 926
f 565 1084 1156
f 786 780 568
f 786 568 1104
f 577 1109 730
f 856 1019 577
f 1019 1109 577
f 1162 580 1073
f 1162 1146 580
f 614 581 877
f 640 583 817
f 588 883 1116
f 607 686 598
f 607 598 1096
f 950 821 599
f 956 599 821
f 921 867 599
f 867 950 599
f 921 599 1056
f 956 1056 599
f 600 1020 767
f 1061 1020 600
f 600 1052 1061
f 603 721 1068
f 900 893 605
f 606 663 742
f 742 814 606
f 884 606 814
f 884 946 606
f 859 755 618
f 662 624 906
f 999 624 662
f 624 694 906
f 999 766 624
f 807 1006 630
f 807 630 1033
f 823 630 1006
f 823 1033 630
f 794 865 635
f 865 866 635
f 671 636 640
f 636 1104 683
f 671 640 817
f 643 797 698
f 644 1058 826
f 743 645 1143
f 803 1135 648
f 1135 1009 648
f 660 659 1184
f 659 689 1184
f 1184 951 660
f 662 906 999
f 666 1041 1160
f 1192 666 1160
f 746 669 719
f 820 719 669
f 786 672 780
f 685 674 673
f 673 674 914
f 848 712 673
f 848 673 914
f 685 962 674
f 914 674 869
f 962 869 674
f 1075 962 685
f 1022 1075 685
f 689 1188 1184
f 1006 694 823
f 1006 906 694
f 871 1092 695
f 1018 696 1136
f 697 867 782
f 705 781 698
f 698 797 705
f 890 698 781
f 699 743 862
f 832 1033 700
f 833 700 1033
f 860 719 820
f 823 719 925
f 860 833 719
f 1131 719 833
f 720 764 1129
f 721 765 1068
f 721 1165 765
f 727 806 836
f 727 943 806
f 727 836 828
f 727 929 943
f 888 732 746
f 942 1016 733
f 734 990 826
f 1057 814 742
f 1015 1046 742
f 742 1046 1057
f 1048 743 1143
f 1050 745 994
f 1050 1055 745
f 888 746 874
f 1003 752 751
f 1003 859 752
f 1038 954 761
f 976 1129 764
f 766 999 938
f 767 1020 986
f 1083 770 769
f 879 782 867
f 986 783 985
f 783 1175 985
f 986 1020 783
f 783 1020 1175
f 814 1057 793
f 814 793 1158
f 822 835 793
f 822 793 967
f 1158 793 835
f 967 793 1046
f 1057 1046 793
f 800 1024 963
f 994 801 951
f 994 951 803
f 803 951 1135
f 1125 1025 806
f 1132 1125 806
f 876 809 824
f 824 809 961
f 876 920 809
f 884 814 1158
f 867 821 950
f 1131 1033 823
f 1158 835 824
f 824 961 884
f 1158 824 884
f 860 827 833
f 860 1001 827
f 827 1001 1115
f 828 836 917
f 1131 833 1033
f 917 836 843
f 837 914 962
f 837 1110 914
f 962 979 837
f 837 979 1075
f 1092 871 844
f 859 1003 846
f 914 1110 848
f 1006 852 906
f 1019 856 1109
f 1118 862 1048
f 862 1118 1189
f 914 869 962
f 876 1046 920
f 1046 876 967
f 946 884 961
f 886 907 1040
f 988 904 1092
f 938 999 906
f 984 910 958
f 958 910 1135
f 910 1059 1135
f 910 1153 1059
f 1016 942 915
f 1046 1015 920
f 932 1048 1145
f 1172 1082 952
f 952 1167 1172
f 1012 975 957
f 976 957 1129
f 1073 1129 957
f 1162 1073 957
f 958 1175 984
f 1132 958 1135
f 1175 958 1132
f 979 962 1075
f 1156 1084 980
f 984 1017 1159
f 1175 1017 984
f 1132 1012 985
f 985 1175 1132
f 1113 1144 1003
f 1135 1059 1009
f 1020 1061 1017
f 1020 1017 1175
f 1061 1159 1017
f 1094 1025 1160
f 1025 1125 1120
f 1120 1192 1025
f 1160 1025 1192
f 1172 1038 1082
f 1041 1176 1160
f 1145 1048 1143
f 1170 1055 1050
f 1170 1164 1055
f 1164 1174 1055
f 1176 1094 1160
f 1113 1138 1144
f 1192 1120 1150
f 1125 1132 1138
f 1188 1187 1184
