# ff_base.obj  (712 v, 1420 f)  units: metres
v -0.009800000 0.030101180 -0.000369755
v -0.009800000 0.032468341 0.003739571
v -0.007391036 0.040450182 -0.001275175
v -0.007391036 0.040493760 -0.000777078
v -0.007778959 0.041639544 -0.001379231
v -0.007608452 0.041037273 -0.001326539
v -0.007901506 0.042253286 -0.001432927
v -0.007778959 0.041683123 -0.000881134
v -0.007608452 0.041080847 -0.000828442
v -0.007901506 0.042296864 -0.000934829
v -0.007975339 0.042874716 -0.001487295
v -0.008000000 0.043499999 -0.001542000
v -0.007975339 0.044125285 -0.001596705
v -0.007975339 0.042918295 -0.000989197
v -0.008000000 0.043543577 -0.001043903
v -0.007975339 0.044168863 -0.001098608
v -0.006472136 0.038815610 -0.001132169
v -0.006472136 0.038859189 -0.000634072
v -0.007128052 0.039881896 -0.001225457
v -0.007128052 0.039925475 -0.000727359
v -0.006821121 0.039335918 -0.001177690
v -0.006821121 0.039379496 -0.000679592
v -0.005656854 0.037864670 -0.001048972
v -0.005656854 0.037908249 -0.000550875
v -0.006083248 0.038324185 -0.001089175
v -0.006083248 0.038367763 -0.000591077
v -0.005195585 0.037439901 -0.001011810
v -0.005195585 0.037483480 -0.000513712
v -0.004702282 0.037052494 -0.000977916
v -0.004702282 0.037096072 -0.000479819
v -0.004179989 0.036704835 -0.000947500
v -0.004179989 0.036748413 -0.000449402
v -0.003631924 0.036399070 -0.000920749
v -0.003631924 0.036442649 -0.000422652
v -0.003061468 0.036137089 -0.000897828
v -0.002472136 0.035920501 -0.000878879
v -0.003061468 0.036180668 -0.000399731
v -0.002472136 0.035964079 -0.000380782
v -0.001867563 0.035750642 -0.000864019
v -0.001867563 0.035794221 -0.000365921
v -0.001251476 0.035628561 -0.000853338
v -0.001251476 0.035672139 -0.000355241
v -0.000627673 0.035555009 -0.000846903
v -0.000627673 0.035598587 -0.000348806
v -0.000000000 0.035530441 -0.000844754
v -0.000000000 0.035574019 -0.000346656
v -0.005530809 0.033359759 0.013928496
v -0.004933941 0.033111122 0.012802998
v -0.004915638 0.033079814 0.012817397
v -0.004933941 0.033249207 0.012664912
v -0.005530809 0.033221673 0.014066580
v -0.005593009 0.033371840 0.014066580
v -0.005855686 0.033491850 0.015438334
v -0.005527339 0.033200197 0.015446436
v -0.005793484 0.033341683 0.015438334
v -0.005771850 0.033309486 0.015442518
v -0.005739471 0.033288065 0.015446436
v -0.005479337 0.033169214 0.014087957
v -0.005510192 0.033189937 0.014076080
v -0.005267205 0.033081345 0.014087957
v -0.005230810 0.033074796 0.014100401
v -0.005503338 0.033184707 0.014767196
v -0.005489146 0.033192825 0.015449493
v -0.009800000 0.031757142 0.018557943
v -0.009778127 0.031788658 0.018918179
v -0.009712826 0.031819712 0.019273160
v -0.009605049 0.031849857 0.019617710
v -0.009456368 0.031878650 0.019946808
v -0.009268952 0.031905670 0.020255655
v -0.009045532 0.031930525 0.020539742
v -0.008789368 0.031952851 0.020794932
v -0.008504194 0.031972323 0.021017501
v -0.008194170 0.031988658 0.021204203
v -0.007863815 0.032001618 0.021352319
v -0.007517947 0.032011010 0.021459688
v -0.009800000 0.033749532 0.018383631
v -0.009778127 0.033781048 0.018743867
v -0.009712826 0.033812106 0.019098848
v -0.009605049 0.033842247 0.019443398
v -0.009456368 0.033871040 0.019772496
v -0.009268952 0.033898059 0.020081343
v -0.009045532 0.033922914 0.020365430
v -0.008789368 0.033945240 0.020620620
v -0.008504194 0.033964716 0.020843191
v -0.008194170 0.033981048 0.021029893
v -0.007863815 0.033994008 0.021178007
v -0.007517947 0.034003399 0.021285376
v -0.005831560 0.033525273 0.015820345
v -0.005822472 0.033537861 0.015964238
v -0.005811463 0.033553112 0.016138557
v -0.005798838 0.033570603 0.016338468
v -0.005785017 0.033589751 0.016557312
v -0.005705463 0.033463620 0.016832069
v -0.005684169 0.033430949 0.016830849
v -0.005770504 0.033609852 0.016787106
v -0.005767664 0.033613786 0.016832069
v -0.005652301 0.033408824 0.016826682
v -0.005440169 0.033320956 0.016826682
v -0.005402579 0.033312745 0.016820202
v -0.005711498 0.033628851 0.017004272
v -0.005642013 0.033647493 0.017217312
v -0.005252661 0.033546694 0.018153841
v -0.005223306 0.033523895 0.018141970
v -0.005272276 0.033579819 0.018160209
v -0.004976548 0.033427026 0.018126400
v -0.005011174 0.033436026 0.018141970
v -0.007161610 0.032016702 0.021524739
v -0.006800000 0.032018609 0.021546528
v -0.005200000 0.032018609 0.021546528
v -0.005334476 0.033729985 0.018160209
v -0.005272276 0.033744380 0.018324770
v -0.007161610 0.034009092 0.021350427
v -0.006800000 0.034010999 0.021372218
v -0.005200000 0.034010999 0.021372218
v -0.004487163 0.033170119 0.012158925
v -0.004040385 0.033155069 0.011588900
v -0.003828253 0.033016983 0.011514852
v -0.003969233 0.033149343 0.011523473
v -0.003959858 0.033148590 0.011514852
v -0.003813414 0.032986041 0.011533422
v -0.003791205 0.032966509 0.011558871
v -0.003729282 0.033133991 0.011347965
v -0.004160445 0.033167716 0.011733474
v -0.004040385 0.033016983 0.011726984
v -0.004025546 0.032986041 0.011745554
v -0.004003337 0.032966509 0.011771003
v -0.003813414 0.032898173 0.011745554
v -0.003791205 0.032878641 0.011771003
v -0.003765008 0.032873489 0.011799457
v -0.002975860 0.033086281 0.010802656
v -0.002825757 0.033076774 0.010694016
v -0.002694153 0.032945171 0.010694016
v -0.002683710 0.032914504 0.010715768
v -0.002668081 0.032895390 0.010745979
v -0.002694153 0.033072174 0.010641410
v -0.002717515 0.033072989 0.010650748
v -0.003478576 0.033118114 0.011166510
v -0.003225018 0.033102058 0.010982992
v -0.002668081 0.032807522 0.010958111
v -0.002649645 0.032802861 0.010992181
v -0.004888246 0.033059735 0.012836603
v -0.004676114 0.032971866 0.012836603
v -0.004643803 0.032966074 0.012857694
v -0.002442082 0.033063475 0.010541988
v -0.002192264 0.033054855 0.010443454
v -0.001377311 0.032762978 0.010449003
v -0.001367794 0.032758627 0.010486593
v -0.001390770 0.033027198 0.010127327
v -0.001385379 0.032869704 0.010203678
v -0.001390770 0.032900192 0.010179934
v -0.001377311 0.032850847 0.010236871
v -0.004745307 0.033531040 0.018725812
v -0.004521141 0.033682976 0.019339304
v -0.004479440 0.033626053 0.019309655
v -0.004504438 0.033649452 0.019328367
v -0.004385873 0.033637755 0.019425077
v -0.004292306 0.033649452 0.019540500
v -0.004267308 0.033538185 0.019309655
v -0.004237822 0.033528477 0.019286018
v -0.004267308 0.033626053 0.019521788
v -0.004385972 0.032016546 0.021522934
v -0.003574699 0.032010358 0.021452226
v -0.003255312 0.033621013 0.020256367
v -0.003232818 0.033610731 0.020226188
v -0.002768926 0.032000072 0.021334646
v -0.004844729 0.033803098 0.018995915
v -0.004521141 0.033847541 0.019503867
v -0.004504438 0.033849705 0.019528618
v -0.004493597 0.033850744 0.019540500
v -0.004349166 0.033862565 0.019675612
v -0.004264792 0.033869471 0.019754542
v -0.004171538 0.033877101 0.019841781
v -0.004385972 0.034008935 0.021348622
v -0.003814678 0.033906311 0.020175621
v -0.003475671 0.033934057 0.020492757
v -0.003455846 0.033935335 0.020507399
v -0.003274381 0.033732764 0.020492757
v -0.003255312 0.033708882 0.020468500
v -0.003287123 0.033766612 0.020507399
v -0.003356923 0.033940077 0.020561574
v -0.003304775 0.033942573 0.020590134
v -0.003574699 0.034002747 0.021277914
v -0.002768926 0.033992462 0.021160334
v -0.002720115 0.033970591 0.020910332
v -0.002699398 0.033971582 0.020921677
v -0.001971378 0.031985719 0.021170592
v -0.002038772 0.033679303 0.020922620
v -0.002024685 0.033668619 0.020887837
v -0.001755290 0.033676874 0.020964514
v -0.001740164 0.033674985 0.020960610
v -0.001814871 0.033684313 0.020979889
v -0.001184755 0.031967349 0.020960620
v -0.000926581 0.033654559 0.020727132
v -0.000860288 0.033652645 0.020705247
v -0.000793897 0.033650726 0.020683331
v -0.000725250 0.033648744 0.020660670
v -0.001184755 0.033662014 0.020812355
v -0.000411718 0.031945024 0.020705437
v -0.000411718 0.033639688 0.020557173
v -0.002401592 0.033985849 0.021084774
v -0.002227037 0.033782948 0.021066347
v -0.002259491 0.033815853 0.021070195
v -0.002254270 0.033810560 0.021069575
v -0.002220203 0.033779789 0.021065207
v -0.002178468 0.033760477 0.021058246
v -0.002038772 0.033724781 0.021032413
v -0.001971378 0.033713762 0.021019408
v -0.001859747 0.033692759 0.020991221
v -0.007901506 0.044746712 -0.001651073
v -0.007778959 0.045360457 -0.001704769
v -0.007778959 0.045404036 -0.001206672
v -0.007608452 0.045962729 -0.001757461
v -0.007608452 0.046006307 -0.001259364
v -0.007901506 0.044790290 -0.001152976
v -0.007391036 0.046549819 -0.001808825
v -0.007391036 0.046593394 -0.001310727
v -0.007128052 0.047118105 -0.001858543
v -0.007128052 0.047161680 -0.001360446
v -0.006821121 0.047664084 -0.001906310
v -0.006821121 0.047707662 -0.001408213
v -0.006472136 0.048184387 -0.001951831
v -0.006472136 0.048227966 -0.001453734
v -0.006083248 0.048675813 -0.001994825
v -0.006083248 0.048719391 -0.001496728
v -0.005656854 0.049135327 -0.002035028
v -0.005656854 0.049178906 -0.001536930
v -0.005195585 0.049560100 -0.002072190
v -0.005195585 0.049603678 -0.001574093
v -0.009800000 0.055081960 0.001761135
v -0.009800000 0.056898817 -0.002714245
v -0.004702282 0.049947508 -0.002106084
v -0.004702282 0.049991086 -0.001607987
v -0.004179989 0.050295163 -0.002136500
v -0.004179989 0.050338741 -0.001638403
v -0.003631924 0.050600927 -0.002163251
v -0.003631924 0.050644506 -0.001665154
v -0.003061468 0.050862912 -0.002186172
v -0.002472136 0.051079500 -0.002205121
v -0.003061468 0.050906491 -0.001688074
v -0.002472136 0.051123079 -0.001707023
v -0.001867563 0.051249359 -0.002219981
v -0.001867563 0.051292937 -0.001721884
v -0.001251476 0.051371440 -0.002230662
v -0.001251476 0.051415015 -0.001732565
v -0.000627673 0.051444989 -0.002237097
v -0.000627673 0.051488567 -0.001739000
v -0.000433167 0.055746503 0.009356890
v -0.000433167 0.055745367 0.009356990
v -0.000432550 0.055745363 0.009356954
v -0.000000000 0.055744346 0.009332214
v -0.000000000 0.055743206 0.009332314
v -0.009800000 0.056363150 0.016405197
v -0.009778127 0.056394666 0.016765431
v -0.009712826 0.056425724 0.017120412
v -0.009605049 0.056455869 0.017464962
v -0.009456368 0.056484662 0.017794060
v -0.009268952 0.056511682 0.018102907
v -0.009045532 0.056536537 0.018386994
v -0.009800000 0.058554780 0.016213452
v -0.009778127 0.058586296 0.016573688
v -0.009712826 0.058617353 0.016928669
v -0.009605049 0.058647495 0.017273219
v -0.009456368 0.058676288 0.017602317
v -0.009268952 0.058703311 0.017911164
v -0.009045532 0.058728162 0.018195251
v -0.008789368 0.058750492 0.018450441
v -0.008789368 0.056558862 0.018642183
v -0.008504194 0.056578334 0.018864755
v -0.008194170 0.056594670 0.019051457
v -0.007863815 0.056607626 0.019199571
v -0.007517947 0.056617022 0.019306939
v -0.008504194 0.058769964 0.018673010
v -0.008194170 0.058786295 0.018859714
v -0.007863815 0.058799256 0.019007828
v -0.007517947 0.058808647 0.019115197
v -0.007161610 0.056622710 0.019371990
v -0.006800000 0.056624617 0.019393781
v -0.007161610 0.058814339 0.019180248
v -0.006800000 0.058816247 0.019202039
v -0.005200000 0.056624617 0.019393781
v -0.005200000 0.058816247 0.019202039
v -0.003724314 0.056009766 0.012365982
v -0.003724314 0.056008630 0.012366082
v -0.003009229 0.055873293 0.010806123
v -0.003009229 0.055872157 0.010806222
v -0.002724645 0.055843543 0.010479152
v -0.002725101 0.055843581 0.010479569
v -0.002725101 0.055844717 0.010479470
v -0.003456602 0.055937953 0.011545183
v -0.003456602 0.055936817 0.011545283
v -0.003254126 0.055904511 0.011162911
v -0.003254126 0.055903375 0.011163010
v -0.003614015 0.055973195 0.011947958
v -0.003614015 0.055972055 0.011948057
v -0.003786060 0.056047194 0.012793806
v -0.003786060 0.056046057 0.012793906
v -0.003798450 0.056084994 0.013225854
v -0.003798450 0.056083858 0.013225954
v -0.003761322 0.056122672 0.013656492
v -0.003761322 0.056121536 0.013656592
v -0.003675158 0.056159731 0.014080108
v -0.003675158 0.056158595 0.014080208
v -0.003541083 0.056195695 0.014491177
v -0.003541083 0.056194559 0.014491277
v -0.003360845 0.056230094 0.014884342
v -0.003360845 0.056228958 0.014884442
v -0.003136793 0.056262475 0.015254476
v -0.003136793 0.056261338 0.015254576
v -0.002054435 0.055796921 0.009933155
v -0.002054435 0.055795785 0.009933255
v -0.002053896 0.055795759 0.009932951
v -0.002405447 0.055819146 0.010187210
v -0.002405447 0.055818010 0.010187309
v -0.002404947 0.055817980 0.010186947
v -0.001676640 0.055778325 0.009720617
v -0.001676640 0.055777188 0.009720717
v -0.001676071 0.055777170 0.009720476
v -0.001276988 0.055763606 0.009552364
v -0.001276988 0.055762470 0.009552464
v -0.001276394 0.055762455 0.009552290
v -0.000860688 0.055752952 0.009430594
v -0.000860688 0.055751815 0.009430693
v -0.002871848 0.056292422 0.015596756
v -0.002871848 0.056291286 0.015596855
v -0.002569465 0.056319539 0.015906718
v -0.002569465 0.056318402 0.015906816
v -0.004385972 0.056622554 0.019370185
v -0.004385972 0.058814183 0.019178443
v -0.003574699 0.056616366 0.019299477
v -0.002768926 0.056606080 0.019181898
v -0.003574699 0.058807995 0.019107735
v -0.002768926 0.058797710 0.018990155
v -0.002233584 0.056343477 0.016180322
v -0.002233584 0.056342341 0.016180420
v -0.001868585 0.056363922 0.016413998
v -0.001869106 0.056362756 0.016413763
v -0.001868585 0.056362785 0.016414097
v -0.001479226 0.056380603 0.016604703
v -0.001479781 0.056379445 0.016604532
v -0.001479226 0.056379467 0.016604802
v -0.001070584 0.056393314 0.016749952
v -0.001071167 0.056392159 0.016749844
v -0.001070584 0.056392178 0.016750051
v -0.000647984 0.056401879 0.016847851
v -0.000647984 0.056400742 0.016847949
v -0.000648587 0.056400731 0.016847810
v -0.000216937 0.056406189 0.016897121
v -0.000216937 0.056405053 0.016897220
v -0.000411718 0.058742661 0.018360946
v -0.001971378 0.056591727 0.019017845
v -0.001971378 0.058783356 0.018826101
v -0.001184755 0.056573357 0.018807871
v -0.000411718 0.056551032 0.018552691
v -0.001184755 0.058764987 0.018616129
v 0.000627673 0.035555009 -0.000846903
v 0.000627673 0.035598587 -0.000348806
v 0.001251476 0.035628561 -0.000853338
v 0.001251476 0.035672139 -0.000355241
v 0.001867563 0.035750642 -0.000864019
v 0.001867563 0.035794221 -0.000365921
v 0.002472136 0.035920501 -0.000878879
v 0.003061468 0.036137089 -0.000897828
v 0.002472136 0.035964079 -0.000380782
v 0.003061468 0.036180668 -0.000399731
v 0.003631924 0.036399070 -0.000920749
v 0.003631924 0.036442649 -0.000422652
v 0.004179989 0.036704835 -0.000947500
v 0.004179989 0.036748413 -0.000449402
v 0.004702282 0.037052494 -0.000977916
v 0.004702282 0.037096072 -0.000479819
v 0.009800000 0.030101180 -0.000369755
v 0.008946447 0.030488715 0.004059772
v 0.009050000 0.030481789 0.003980615
v 0.009170591 0.030477436 0.003930855
v 0.008866987 0.030497739 0.004162931
v 0.008817037 0.030508250 0.004283063
v 0.008800000 0.030519528 0.004411980
v 0.009300000 0.030475952 0.003913883
v 0.009800000 0.030475952 0.003913883
v 0.008866987 0.032490131 0.003988620
v 0.008817037 0.032500640 0.004108751
v 0.008946447 0.032481104 0.003885460
v 0.009050000 0.032474179 0.003806303
v 0.009170591 0.032469824 0.003756543
v 0.008800000 0.032511920 0.004237669
v 0.009300000 0.032468341 0.003739571
v 0.008800000 0.030798428 0.007599803
v 0.008776315 0.030869374 0.008410733
v 0.008705337 0.030940082 0.009218919
v 0.008800000 0.032790817 0.007425492
v 0.008776315 0.032861765 0.008236421
v 0.008705337 0.032932471 0.009044607
v 0.005195585 0.037439901 -0.001011810
v 0.005195585 0.037483480 -0.000513712
v 0.005656854 0.037864670 -0.001048972
v 0.005656854 0.037908249 -0.000550875
v 0.006083248 0.038324185 -0.001089175
v 0.006083248 0.038367763 -0.000591077
v 0.006472136 0.038815610 -0.001132169
v 0.006472136 0.038859189 -0.000634072
v 0.007128052 0.039881896 -0.001225457
v 0.006821121 0.039335918 -0.001177690
v 0.006821121 0.039379496 -0.000679592
v 0.007128052 0.039925475 -0.000727359
v 0.007391036 0.040450182 -0.001275175
v 0.007391036 0.040493760 -0.000777078
v 0.007608452 0.041037273 -0.001326539
v 0.007778959 0.041639544 -0.001379231
v 0.007901506 0.042253286 -0.001432927
v 0.007608452 0.041080847 -0.000828442
v 0.007778959 0.041683123 -0.000881134
v 0.007901506 0.042296864 -0.000934829
v 0.007975339 0.042874716 -0.001487295
v 0.008000000 0.043499999 -0.001542000
v 0.007975339 0.044125285 -0.001596705
v 0.007975339 0.042918295 -0.000989197
v 0.008000000 0.043543577 -0.001043903
v 0.007975339 0.044168863 -0.001098608
v 0.000000000 0.032747816 0.010275670
v 0.000000000 0.032743566 0.010314457
v 0.000000000 0.033011883 0.009952301
v 0.000000000 0.032835685 0.010063538
v 0.000000000 0.032854449 0.010029330
v 0.000000000 0.032884881 0.010004908
v 0.001377311 0.032762978 0.010449003
v 0.001367794 0.032758627 0.010486593
v 0.001390770 0.033027198 0.010127327
v 0.001377311 0.032850847 0.010236871
v 0.001385379 0.032869704 0.010203678
v 0.001390770 0.032900192 0.010179934
v 0.001816891 0.033041902 0.010295399
v 0.002015203 0.033048745 0.010373617
v 0.002247314 0.033056755 0.010465167
v 0.002694153 0.032945171 0.010694016
v 0.002683710 0.032914504 0.010715768
v 0.002668081 0.032895390 0.010745979
v 0.002694153 0.033072174 0.010641410
v 0.002825757 0.033076774 0.010694016
v 0.002919111 0.033082686 0.010761583
v 0.003085015 0.033093195 0.010881660
v 0.002668081 0.032807522 0.010958111
v 0.002649645 0.032802861 0.010992181
v 0.003277065 0.033105355 0.011020661
v 0.003447991 0.033116177 0.011144374
v 0.003644622 0.033128630 0.011286691
v 0.003813414 0.032986041 0.011533422
v 0.003791205 0.032966509 0.011558871
v 0.003828253 0.033016983 0.011514852
v 0.003836132 0.033140756 0.011425301
v 0.003959859 0.033148590 0.011514852
v 0.004040251 0.033155058 0.011588776
v 0.004040385 0.033155069 0.011588899
v 0.003791205 0.032878641 0.011771003
v 0.003813414 0.032898173 0.011745554
v 0.003765008 0.032873489 0.011799457
v 0.004003337 0.032966509 0.011771003
v 0.004040385 0.033016983 0.011726984
v 0.004025546 0.032986041 0.011745554
v 0.004180748 0.033169854 0.011757924
v 0.004347675 0.033187442 0.011958937
v 0.004545263 0.033208258 0.012196871
v 0.004676217 0.033222053 0.012354563
v 0.004643803 0.032966074 0.012857694
v 0.004676114 0.032971866 0.012836603
v 0.004888246 0.033059735 0.012836603
v 0.001083189 0.031888820 0.020063052
v 0.000927188 0.033589829 0.019987255
v 0.001083189 0.033583488 0.019914787
v 0.001125522 0.033581499 0.019892048
v 0.000345117 0.031918816 0.020405913
v 0.000345117 0.033613484 0.020257648
v 0.000490337 0.033607583 0.020190189
v 0.000619901 0.033602316 0.020130001
v 0.000762962 0.033596501 0.020063544
v 0.001800000 0.031855136 0.019678021
v 0.001387518 0.033569187 0.019751318
v 0.001757548 0.033551797 0.019552559
v 0.001800000 0.033549801 0.019529756
v 0.002414140 0.033516787 0.019152392
v 0.003799027 0.031733140 0.018283615
v 0.004407383 0.031685956 0.017744284
v 0.003799027 0.033427808 0.018135350
v 0.004407383 0.033380620 0.017596019
v 0.002493126 0.031817872 0.019252123
v 0.003160220 0.031777162 0.018786795
v 0.002493126 0.033512540 0.019103859
v 0.003160220 0.033471830 0.018638531
v 0.004915638 0.033079814 0.012817397
v 0.004933941 0.033111122 0.012802998
v 0.004903182 0.033245966 0.012627873
v 0.004933941 0.033249207 0.012664913
v 0.004992856 0.033260118 0.012789638
v 0.005149336 0.033289101 0.013120908
v 0.005223344 0.033302810 0.013277586
v 0.005405116 0.033336479 0.013662402
v 0.005471290 0.033348735 0.013802493
v 0.005530809 0.033359759 0.013928496
v 0.005230810 0.033074796 0.014100401
v 0.005267205 0.033081345 0.014087957
v 0.005479337 0.033169214 0.014087957
v 0.005510192 0.033189937 0.014076080
v 0.005503338 0.033184707 0.014767196
v 0.005489146 0.033192825 0.015449493
v 0.005530809 0.033221673 0.014066580
v 0.005593009 0.033371840 0.014066580
v 0.005631288 0.033389326 0.014266483
v 0.005652960 0.033399228 0.014379659
v 0.005527339 0.033200197 0.015446436
v 0.005759347 0.033447836 0.014935235
v 0.005774107 0.033454578 0.015012314
v 0.005739471 0.033288065 0.015446436
v 0.005771850 0.033309486 0.015442518
v 0.005793484 0.033341683 0.015438334
v 0.005855685 0.033491850 0.015438334
v 0.007310857 0.031346042 0.013859082
v 0.006496829 0.031468928 0.015263654
v 0.006924356 0.031408519 0.014573165
v 0.007310857 0.033338435 0.013684770
v 0.006496829 0.033461317 0.015089343
v 0.006924356 0.033400908 0.014398854
v 0.008422628 0.031079819 0.010816139
v 0.007955696 0.031215753 0.012369864
v 0.008211853 0.031148380 0.011599769
v 0.008422628 0.033072211 0.010641827
v 0.007955696 0.033208143 0.012195552
v 0.008211853 0.033140767 0.011425457
v 0.008587308 0.031010309 0.010021627
v 0.008587308 0.033002701 0.009847315
v 0.007655025 0.031281717 0.013123819
v 0.007655025 0.033274107 0.012949507
v 0.006029725 0.031527068 0.015928209
v 0.005524622 0.031582743 0.016564585
v 0.004983231 0.031635765 0.017170627
v 0.005429612 0.033288360 0.016522534
v 0.005420742 0.033287585 0.016532607
v 0.005461678 0.033291161 0.016486118
v 0.005692065 0.033353738 0.016197069
v 0.005738805 0.033386335 0.016134879
v 0.005708551 0.033362083 0.016175408
v 0.005727103 0.033371475 0.016151033
v 0.005750515 0.033401210 0.016118709
v 0.005839839 0.033513803 0.015689248
v 0.005838379 0.033515822 0.015712358
v 0.006029725 0.033519458 0.015753897
v 0.005818987 0.033542685 0.016019404
v 0.005524622 0.033308987 0.016413558
v 0.004983231 0.033330433 0.017022364
v 0.000000000 0.051469557 -0.002239246
v 0.000000000 0.051513135 -0.001741149
v 0.000627673 0.051444989 -0.002237097
v 0.000627673 0.051488567 -0.001739000
v 0.001251476 0.051371440 -0.002230662
v 0.001251476 0.051415015 -0.001732565
v 0.001867563 0.051249359 -0.002219981
v 0.001867563 0.051292937 -0.001721884
v 0.002472136 0.051079500 -0.002205121
v 0.003061468 0.050862912 -0.002186172
v 0.002472136 0.051123079 -0.001707023
v 0.003061468 0.050906491 -0.001688074
v 0.003631924 0.050600927 -0.002163251
v 0.003631924 0.050644506 -0.001665154
v 0.004179989 0.050295163 -0.002136500
v 0.004179989 0.050338741 -0.001638403
v 0.004702282 0.049947508 -0.002106084
v 0.004702282 0.049991086 -0.001607987
v 0.000000619 0.055743210 0.009332350
v 0.000433167 0.055746503 0.009356890
v 0.000433167 0.055745367 0.009356990
v 0.007128052 0.047118105 -0.001858543
v 0.006821121 0.047664084 -0.001906310
v 0.006821121 0.047707662 -0.001408213
v 0.007128052 0.047161680 -0.001360446
v 0.005195585 0.049560100 -0.002072190
v 0.005195585 0.049603678 -0.001574093
v 0.006083248 0.048675813 -0.001994825
v 0.006083248 0.048719391 -0.001496728
v 0.005656854 0.049135327 -0.002035028
v 0.005656854 0.049178906 -0.001536930
v 0.006472136 0.048184387 -0.001951831
v 0.006472136 0.048227966 -0.001453734
v 0.007901506 0.044746712 -0.001651073
v 0.007608452 0.045962729 -0.001757461
v 0.007608452 0.046006307 -0.001259364
v 0.007778959 0.045360457 -0.001704769
v 0.007778959 0.045404036 -0.001206672
v 0.007901506 0.044790290 -0.001152976
v 0.007391036 0.046549819 -0.001808825
v 0.007391036 0.046593394 -0.001310727
v 0.009050000 0.055087797 0.001827867
v 0.009170591 0.055083446 0.001778107
v 0.009300000 0.055081960 0.001761135
v 0.008866987 0.055103749 0.002010183
v 0.008817037 0.055114258 0.002130315
v 0.008800000 0.055125538 0.002259232
v 0.008946447 0.055094723 0.001907024
v 0.009800000 0.056898817 -0.002714245
v 0.009050000 0.055287037 0.001810436
v 0.009170591 0.055282686 0.001760676
v 0.008866987 0.055302989 0.001992752
v 0.008817037 0.055313498 0.002112884
v 0.008946447 0.055293962 0.001889593
v 0.008866987 0.057295378 0.001818441
v 0.008946447 0.057286352 0.001715281
v 0.009050000 0.057279427 0.001636124
v 0.009170591 0.057275075 0.001586364
v 0.009300000 0.057273589 0.001569392
v 0.009800000 0.057273589 0.001569392
v 0.008817037 0.057305887 0.001938572
v 0.008800000 0.057317168 0.002067489
v 0.008800000 0.055404436 0.005447055
v 0.008776315 0.055475384 0.006257985
v 0.008800000 0.057596065 0.005255313
v 0.008776315 0.057667013 0.006066242
v 0.008422628 0.055685829 0.008663391
v 0.008422628 0.057877459 0.008471648
v 0.008211853 0.057946019 0.009255278
v 0.008705337 0.055546090 0.007066171
v 0.008587308 0.055616319 0.007868879
v 0.008705337 0.057737719 0.006874428
v 0.008587308 0.057807948 0.007677136
v 0.000860688 0.055752952 0.009430594
v 0.000860688 0.055751815 0.009430693
v 0.000861281 0.055751830 0.009430867
v 0.001276988 0.055763606 0.009552364
v 0.001276988 0.055762470 0.009552464
v 0.001277558 0.055762488 0.009552704
v 0.001676640 0.055778325 0.009720617
v 0.001676640 0.055777188 0.009720717
v 0.001677179 0.055777214 0.009721019
v 0.002054435 0.055796921 0.009933155
v 0.002054435 0.055795785 0.009933255
v 0.002054936 0.055795815 0.009933617
v 0.002405447 0.055819146 0.010187210
v 0.002405903 0.055818047 0.010187726
v 0.002405447 0.055818010 0.010187309
v 0.002725101 0.055843581 0.010479569
v 0.002725101 0.055844717 0.010479470
v 0.003009229 0.055873293 0.010806123
v 0.003009229 0.055872157 0.010806222
v 0.003254126 0.055904511 0.011162911
v 0.003254126 0.055903375 0.011163010
v 0.003456602 0.055937953 0.011545183
v 0.003456602 0.055936817 0.011545283
v 0.003614015 0.055973195 0.011947958
v 0.003614015 0.055972055 0.011948057
v 0.003724314 0.056009766 0.012365982
v 0.003724314 0.056008630 0.012366082
v 0.003541083 0.056195695 0.014491177
v 0.003541083 0.056194559 0.014491277
v 0.003360845 0.056230094 0.014884342
v 0.003360845 0.056228958 0.014884442
v 0.003136793 0.056262475 0.015254476
v 0.003136793 0.056261338 0.015254576
v 0.003786060 0.056047194 0.012793806
v 0.003786060 0.056046057 0.012793906
v 0.003798450 0.056084994 0.013225854
v 0.003798450 0.056083858 0.013225954
v 0.003761322 0.056122672 0.013656492
v 0.003761322 0.056121536 0.013656592
v 0.003675158 0.056159731 0.014080108
v 0.003675158 0.056158595 0.014080208
v 0.004407383 0.058483593 0.015399793
v 0.000216937 0.056406189 0.016897121
v 0.000216937 0.056405053 0.016897220
v 0.000647984 0.056401879 0.016847851
v 0.000647984 0.056400742 0.016847949
v 0.001070584 0.056393314 0.016749952
v 0.001070584 0.056392178 0.016750051
v 0.001069981 0.056392189 0.016750190
v 0.000345117 0.056524828 0.018253164
v 0.001083189 0.056494832 0.017910304
v 0.000345117 0.058716454 0.018061422
v 0.001083189 0.058686458 0.017718561
v 0.001479226 0.056380603 0.016604703
v 0.001478645 0.056379486 0.016605008
v 0.001479226 0.056379467 0.016604802
v 0.002233584 0.056343477 0.016180322
v 0.002233063 0.056342371 0.016180754
v 0.002233584 0.056342341 0.016180420
v 0.001868585 0.056363922 0.016413998
v 0.001868030 0.056362808 0.016414369
v 0.001868585 0.056362785 0.016414097
v 0.001800000 0.056461144 0.017525272
v 0.001800000 0.058652773 0.017333530
v 0.002569465 0.056319539 0.015906718
v 0.002569465 0.056318402 0.015906816
v 0.002871848 0.056292422 0.015596756
v 0.002871848 0.056291286 0.015596855
v 0.003160220 0.056383174 0.016634047
v 0.002493126 0.056423884 0.017099375
v 0.002493126 0.058615513 0.016907632
v 0.003160220 0.058574799 0.016442304
v 0.003799027 0.056339148 0.016130866
v 0.004407383 0.056291964 0.015591536
v 0.003799027 0.058530778 0.015939124
v 0.006924356 0.056014527 0.012420418
v 0.007310857 0.055952054 0.011706335
v 0.007310857 0.058143683 0.011514591
v 0.006924356 0.058206156 0.012228674
v 0.006029725 0.056133080 0.013775461
v 0.004983231 0.056241777 0.015017879
v 0.005524622 0.056188755 0.014411838
v 0.006029725 0.058324706 0.013583719
v 0.004983231 0.058433406 0.014826137
v 0.005524622 0.058380384 0.014220095
v 0.006496829 0.056074936 0.013110907
v 0.006496829 0.058266565 0.012919163
v 0.007955696 0.055821765 0.010217116
v 0.008211853 0.055754390 0.009447020
v 0.007655025 0.055887725 0.010971070
v 0.007955696 0.058013391 0.010025373
v 0.007655025 0.058079354 0.010779328
f 1 3 19
f 1 6 3
f 1 21 17
f 1 17 25
f 1 19 21
f 1 25 23
f 1 23 27
f 1 27 29
f 1 29 31
f 1 31 33
f 1 33 35
f 1 35 36
f 1 64 2
f 2 50 123
f 2 123 116
f 2 118 119
f 2 116 118
f 2 119 122
f 2 122 137
f 2 137 138
f 2 138 130
f 2 130 131
f 2 131 136
f 2 136 135
f 2 135 144
f 1 12 11
f 1 5 6
f 1 7 5
f 1 11 7
f 3 6 4
f 1 2 229
f 1 230 12
f 5 7 8
f 7 11 10
f 5 9 6
f 5 8 9
f 4 6 9
f 7 10 8
f 11 12 15
f 12 16 15
f 12 13 16
f 13 209 16
f 11 15 14
f 10 11 14
f 17 21 18
f 17 26 25
f 17 18 26
f 19 22 21
f 19 20 22
f 3 20 19
f 3 4 20
f 18 21 22
f 23 25 24
f 24 25 26
f 23 28 27
f 23 24 28
f 27 28 30
f 1 36 39
f 1 39 41
f 1 41 43
f 27 30 29
f 29 30 32
f 29 32 31
f 31 32 34
f 31 34 33
f 1 43 45
f 33 34 37
f 33 37 35
f 35 37 38
f 35 38 36
f 1 45 371
f 36 38 40
f 36 40 39
f 39 40 42
f 39 42 41
f 30 370 32
f 41 42 44
f 41 44 43
f 34 366 37
f 38 363 40
f 37 364 38
f 32 368 34
f 43 44 46
f 43 46 45
f 40 360 42
f 42 358 44
f 44 356 46
f 2 144 145
f 2 145 148
f 2 148 385
f 4 9 410
f 8 411 9
f 8 10 412
f 10 14 416
f 14 15 417
f 15 16 418
f 24 26 398
f 18 400 26
f 28 394 30
f 24 396 28
f 18 22 403
f 20 404 22
f 4 406 20
f 2 64 76
f 2 76 53
f 2 47 50
f 2 52 47
f 2 53 52
f 1 466 64
f 64 66 65
f 64 67 66
f 64 68 67
f 64 69 68
f 64 70 69
f 64 71 70
f 64 72 71
f 64 65 76
f 65 66 77
f 66 67 78
f 67 68 79
f 68 69 80
f 65 77 76
f 66 78 77
f 67 79 78
f 68 80 79
f 69 70 81
f 69 81 80
f 64 73 72
f 64 74 73
f 70 71 83
f 71 72 83
f 70 82 81
f 70 83 82
f 72 84 83
f 64 75 74
f 64 107 75
f 72 73 84
f 73 74 85
f 73 85 84
f 74 86 85
f 64 108 107
f 74 75 86
f 75 107 87
f 75 87 86
f 76 77 113
f 77 78 113
f 78 79 113
f 79 80 113
f 80 81 113
f 81 82 113
f 82 83 113
f 83 84 113
f 84 85 113
f 85 86 113
f 86 87 113
f 76 88 53
f 76 89 88
f 76 90 89
f 76 91 90
f 76 92 91
f 76 95 92
f 76 96 95
f 76 100 96
f 76 101 100
f 64 109 108
f 107 108 112
f 87 107 112
f 108 113 112
f 64 161 109
f 108 114 113
f 64 162 161
f 108 109 114
f 64 165 162
f 109 161 114
f 76 110 101
f 76 111 110
f 76 113 111
f 87 112 113
f 113 166 111
f 113 167 166
f 113 169 168
f 113 168 167
f 113 114 169
f 1 480 485
f 1 533 481
f 1 481 480
f 1 475 466
f 1 484 475
f 1 485 484
f 64 198 192
f 64 186 165
f 64 192 186
f 114 161 173
f 161 162 173
f 162 182 173
f 64 470 198
f 64 466 470
f 162 165 182
f 165 186 183
f 165 183 182
f 114 170 169
f 114 171 170
f 114 172 171
f 114 173 172
f 173 174 172
f 173 175 174
f 173 176 175
f 173 182 176
f 182 180 176
f 182 181 180
f 182 183 181
f 183 184 181
f 183 185 184
f 183 200 185
f 186 203 202
f 186 201 203
f 183 186 200
f 186 202 200
f 186 204 201
f 186 205 204
f 186 206 205
f 186 207 206
f 186 208 207
f 186 192 208
f 192 191 208
f 192 189 191
f 192 190 189
f 192 197 190
f 192 198 197
f 198 193 197
f 198 194 193
f 198 196 195
f 198 195 194
f 198 470 199
f 198 199 196
f 1 229 230
f 16 209 214
f 209 210 214
f 210 211 214
f 210 212 211
f 211 212 213
f 212 215 213
f 213 215 216
f 12 230 13
f 13 230 209
f 209 230 210
f 210 230 212
f 212 230 215
f 215 230 217
f 217 230 219
f 219 230 221
f 221 230 223
f 215 217 216
f 216 217 218
f 217 219 218
f 218 219 220
f 219 221 220
f 220 221 222
f 221 223 222
f 222 223 224
f 223 230 225
f 223 225 224
f 224 225 226
f 225 227 226
f 226 227 228
f 227 231 228
f 225 230 227
f 227 230 231
f 230 233 231
f 230 235 233
f 230 237 235
f 230 238 237
f 229 259 230
f 229 312 288
f 229 288 284
f 229 291 289
f 229 284 291
f 211 213 583
f 16 214 586
f 211 585 214
f 213 216 588
f 216 218 572
f 2 591 229
f 228 231 232
f 231 233 232
f 232 233 234
f 233 235 234
f 234 235 236
f 235 237 236
f 236 237 239
f 237 238 239
f 238 240 239
f 218 220 571
f 220 222 580
f 222 224 576
f 224 226 578
f 226 228 574
f 238 241 240
f 240 241 242
f 228 232 565
f 232 234 563
f 234 236 561
f 241 243 242
f 242 243 244
f 243 245 244
f 236 239 559
f 239 240 558
f 240 242 555
f 244 245 246
f 242 244 553
f 245 548 246
f 244 246 551
f 246 548 549
f 230 241 238
f 230 243 241
f 230 245 243
f 230 548 245
f 229 315 309
f 229 309 312
f 229 318 315
f 229 321 318
f 229 247 321
f 229 250 247
f 229 593 250
f 247 322 321
f 247 248 322
f 247 249 248
f 247 250 249
f 250 251 249
f 230 662 704
f 229 252 259
f 229 289 252
f 230 259 673
f 252 293 282
f 252 289 293
f 252 282 295
f 252 295 297
f 252 297 299
f 252 299 301
f 252 301 303
f 252 303 305
f 252 253 259
f 253 254 260
f 253 260 259
f 254 261 260
f 259 260 261
f 259 261 262
f 254 255 261
f 255 256 262
f 255 262 261
f 256 257 263
f 257 258 264
f 256 263 262
f 259 262 263
f 259 263 264
f 259 264 265
f 259 265 266
f 257 264 263
f 258 267 266
f 258 265 264
f 258 266 265
f 259 266 272
f 259 272 273
f 259 273 274
f 252 305 253
f 253 305 254
f 254 305 255
f 255 305 256
f 256 305 257
f 259 274 275
f 259 275 278
f 259 278 279
f 266 267 268
f 266 268 272
f 268 269 272
f 269 270 273
f 269 273 272
f 270 274 273
f 270 271 274
f 271 276 275
f 271 275 274
f 257 305 258
f 258 305 267
f 267 305 268
f 268 305 269
f 269 305 270
f 270 305 271
f 259 279 281
f 259 281 328
f 271 305 276
f 276 305 277
f 277 307 280
f 259 328 331
f 259 331 332
f 276 277 278
f 275 276 278
f 277 279 278
f 277 281 279
f 277 280 281
f 280 327 281
f 282 293 283
f 284 285 292
f 284 288 285
f 288 287 285
f 288 286 287
f 288 312 286
f 312 313 286
f 289 291 290
f 289 290 294
f 291 292 290
f 284 292 291
f 289 294 293
f 293 294 283
f 282 283 296
f 282 296 295
f 295 296 298
f 295 298 297
f 297 298 300
f 297 300 299
f 299 300 302
f 299 302 301
f 301 302 304
f 301 304 303
f 303 304 306
f 303 306 305
f 305 306 308
f 305 308 307
f 307 308 324
f 309 314 312
f 309 310 314
f 309 311 310
f 309 315 311
f 312 314 313
f 315 316 311
f 315 317 316
f 315 318 317
f 318 319 317
f 318 320 319
f 230 673 684
f 230 684 691
f 230 691 692
f 318 321 320
f 321 322 320
f 230 692 695
f 230 695 662
f 277 305 307
f 280 307 323
f 280 323 327
f 259 332 351
f 259 351 354
f 259 354 349
f 323 325 327
f 307 324 323
f 323 324 326
f 323 326 325
f 325 326 334
f 325 329 327
f 325 333 329
f 329 333 330
f 259 349 672
f 259 672 673
f 281 327 328
f 327 329 328
f 328 329 331
f 329 330 331
f 330 350 332
f 330 332 331
f 325 334 333
f 333 334 336
f 333 336 335
f 335 336 337
f 335 337 339
f 335 339 338
f 338 339 340
f 338 340 342
f 330 333 335
f 330 335 350
f 335 338 350
f 338 341 352
f 338 352 350
f 338 342 341
f 341 342 343
f 341 343 346
f 341 346 344
f 344 346 345
f 344 345 348
f 344 348 347
f 347 348 664
f 341 344 352
f 344 353 352
f 344 347 353
f 347 670 353
f 349 354 353
f 349 353 670
f 332 350 351
f 350 352 351
f 351 352 354
f 352 353 354
f 45 46 356
f 45 356 355
f 44 358 356
f 355 356 358
f 355 358 357
f 42 360 358
f 40 363 360
f 38 364 363
f 37 366 364
f 357 358 360
f 357 360 359
f 32 370 368
f 30 394 370
f 34 368 366
f 359 360 363
f 359 363 361
f 1 371 375
f 1 375 376
f 1 376 377
f 45 355 371
f 361 363 364
f 361 364 362
f 362 364 366
f 362 366 365
f 355 357 371
f 357 359 371
f 359 361 371
f 365 366 368
f 365 368 367
f 367 368 370
f 367 370 369
f 369 370 394
f 1 527 521
f 1 523 522
f 1 521 523
f 1 515 517
f 1 529 515
f 1 522 529
f 1 377 387
f 1 387 388
f 1 388 389
f 1 389 527
f 2 380 382
f 2 382 383
f 2 381 380
f 2 385 381
f 2 383 384
f 2 384 386
f 385 148 421
f 385 421 427
f 385 427 431
f 385 431 432
f 385 432 433
f 28 396 394
f 24 398 396
f 26 400 398
f 18 403 400
f 22 404 403
f 20 406 404
f 4 410 406
f 2 386 591
f 9 411 410
f 8 412 411
f 10 416 412
f 14 417 416
f 15 418 417
f 16 586 418
f 361 362 371
f 362 365 371
f 365 367 371
f 367 369 371
f 369 393 371
f 371 393 395
f 371 395 397
f 371 373 372
f 371 374 373
f 371 378 374
f 371 379 378
f 371 372 375
f 371 397 399
f 371 399 402
f 371 402 401
f 371 401 405
f 371 405 407
f 385 433 390
f 390 443 391
f 372 382 375
f 372 373 383
f 373 374 384
f 372 383 382
f 375 382 380
f 373 384 383
f 375 380 376
f 376 381 377
f 376 380 381
f 377 381 385
f 374 378 386
f 378 379 386
f 374 386 384
f 377 385 387
f 387 391 388
f 388 392 389
f 385 390 387
f 387 390 391
f 388 391 392
f 389 392 528
f 369 394 393
f 393 394 396
f 393 396 395
f 395 396 398
f 395 398 397
f 397 398 400
f 397 400 399
f 399 400 403
f 399 403 402
f 401 402 404
f 402 403 404
f 401 404 406
f 401 406 405
f 371 407 408
f 371 408 409
f 371 409 413
f 405 406 410
f 405 410 407
f 371 413 414
f 371 607 379
f 379 591 386
f 408 412 409
f 407 410 411
f 407 411 408
f 408 411 412
f 409 412 416
f 409 416 413
f 415 418 586
f 413 417 414
f 414 417 418
f 414 418 415
f 413 416 417
f 371 414 596
f 1 531 532
f 1 517 516
f 1 516 531
f 1 532 533
f 390 433 437
f 390 437 438
f 390 438 439
f 466 468 467
f 466 469 468
f 466 471 470
f 470 471 199
f 466 472 471
f 466 473 472
f 466 474 473
f 466 467 474
f 466 475 469
f 475 476 469
f 475 478 477
f 475 477 476
f 475 484 478
f 484 479 478
f 480 482 487
f 480 481 482
f 481 483 482
f 481 533 483
f 533 547 483
f 484 485 486
f 484 486 479
f 485 487 486
f 480 487 485
f 390 439 440
f 390 440 443
f 391 443 444
f 392 444 445
f 392 445 449
f 528 449 450
f 528 450 451
f 528 451 452
f 528 452 459
f 524 459 460
f 526 460 461
f 526 461 462
f 525 462 490
f 391 444 392
f 392 449 528
f 524 528 459
f 524 460 526
f 525 526 462
f 525 490 491
f 525 491 492
f 530 492 493
f 530 493 494
f 518 494 495
f 518 495 496
f 518 496 497
f 520 505 506
f 520 506 507
f 519 507 509
f 519 509 510
f 519 510 514
f 518 497 505
f 518 530 494
f 525 492 530
f 516 517 519
f 519 520 507
f 518 505 520
f 516 519 544
f 519 514 544
f 517 520 519
f 515 520 517
f 515 518 520
f 521 527 524
f 521 526 523
f 522 523 525
f 524 527 528
f 521 524 526
f 523 526 525
f 389 528 527
f 522 530 529
f 522 525 530
f 515 529 518
f 518 529 530
f 532 547 533
f 532 546 536
f 532 536 534
f 532 534 535
f 532 535 547
f 531 539 537
f 531 537 546
f 531 538 540
f 531 540 539
f 531 541 538
f 531 546 532
f 531 545 541
f 531 544 545
f 544 514 542
f 544 542 543
f 544 543 545
f 516 544 531
f 216 572 588
f 218 571 572
f 220 580 571
f 548 550 549
f 246 549 551
f 244 551 553
f 242 553 555
f 549 550 551
f 236 559 561
f 234 561 563
f 550 552 551
f 240 555 558
f 239 558 559
f 551 552 553
f 226 574 578
f 228 565 574
f 222 576 580
f 224 578 576
f 232 563 565
f 552 554 553
f 553 554 555
f 554 556 555
f 555 556 558
f 211 583 585
f 213 588 583
f 214 585 586
f 556 557 558
f 557 559 558
f 559 560 561
f 557 560 559
f 564 573 565
f 560 562 561
f 561 562 563
f 562 564 563
f 563 564 565
f 230 596 548
f 548 596 550
f 550 596 552
f 552 596 554
f 554 596 556
f 229 589 595
f 229 590 589
f 229 591 590
f 229 595 592
f 229 592 593
f 230 602 596
f 230 608 602
f 230 609 608
f 230 612 609
f 230 613 612
f 230 615 620
f 230 711 616
f 230 616 615
f 230 712 711
f 250 566 251
f 250 567 566
f 567 568 566
f 567 621 568
f 621 622 568
f 230 707 699
f 230 705 703
f 230 704 705
f 230 703 707
f 230 699 698
f 230 698 712
f 230 619 613
f 230 620 619
f 250 594 567
f 567 594 621
f 610 624 621
f 610 627 624
f 611 630 627
f 618 633 630
f 570 580 579
f 570 571 580
f 569 587 572
f 572 587 588
f 569 571 570
f 569 572 571
f 565 573 574
f 574 577 578
f 573 577 574
f 575 576 578
f 575 578 577
f 576 579 580
f 575 579 576
f 575 577 596
f 415 586 581
f 581 586 585
f 581 585 584
f 582 583 588
f 583 584 585
f 582 584 583
f 582 588 587
f 379 607 591
f 415 581 596
f 582 587 596
f 581 584 596
f 582 596 584
f 569 570 596
f 575 596 579
f 570 579 596
f 569 596 587
f 414 415 596
f 371 596 607
f 556 596 557
f 557 596 560
f 560 596 562
f 562 596 564
f 564 596 573
f 573 596 577
f 589 598 597
f 589 590 598
f 590 591 598
f 592 599 593
f 593 600 594
f 592 595 601
f 595 597 601
f 589 597 595
f 596 602 603
f 596 603 604
f 596 604 605
f 596 605 606
f 596 606 607
f 597 604 601
f 597 598 605
f 601 604 603
f 597 605 604
f 591 606 598
f 591 607 606
f 598 606 605
f 593 599 600
f 599 602 600
f 594 600 609
f 592 601 599
f 599 601 603
f 594 609 610
f 600 602 608
f 600 608 609
f 599 603 602
f 250 593 594
f 594 610 621
f 610 611 627
f 611 617 630
f 617 618 630
f 614 633 618
f 609 612 610
f 610 612 613
f 610 613 611
f 614 618 615
f 614 616 709
f 615 618 620
f 614 615 616
f 611 619 617
f 611 613 619
f 617 620 618
f 617 619 620
f 621 623 622
f 621 624 623
f 624 625 623
f 624 626 625
f 624 627 626
f 627 628 626
f 627 629 628
f 627 630 629
f 630 631 629
f 630 632 631
f 630 633 632
f 633 635 632
f 633 634 635
f 633 637 634
f 637 636 634
f 637 638 636
f 638 639 636
f 638 640 639
f 640 641 639
f 640 642 641
f 642 643 641
f 642 644 643
f 644 645 643
f 644 646 645
f 614 637 633
f 637 709 638
f 638 708 640
f 646 647 645
f 640 710 642
f 642 697 644
f 644 696 646
f 652 687 653
f 648 661 660
f 648 650 649
f 648 649 661
f 650 652 651
f 652 653 651
f 650 651 649
f 650 694 652
f 646 654 647
f 654 655 647
f 654 656 655
f 656 657 655
f 656 658 657
f 658 659 657
f 658 660 659
f 660 661 659
f 646 706 654
f 654 700 656
f 656 700 658
f 648 660 701
f 648 694 650
f 658 702 660
f 660 702 701
f 648 701 694
f 694 701 704
f 662 694 704
f 347 664 663
f 663 664 666
f 663 666 665
f 665 666 669
f 665 669 667
f 667 669 668
f 667 668 675
f 347 663 670
f 663 671 670
f 663 665 671
f 665 667 671
f 670 671 672
f 349 670 672
f 671 673 672
f 674 675 676
f 667 675 674
f 667 674 683
f 674 676 681
f 674 681 680
f 677 678 679
f 677 679 686
f 680 681 682
f 680 682 678
f 677 680 678
f 674 680 690
f 677 690 680
f 667 683 671
f 674 690 683
f 671 683 673
f 673 683 684
f 683 690 684
f 684 690 691
f 685 686 688
f 677 686 685
f 685 688 687
f 687 688 653
f 685 687 689
f 677 685 689
f 677 689 690
f 652 693 687
f 687 693 689
f 689 691 690
f 689 692 691
f 692 693 695
f 689 693 692
f 652 694 693
f 693 694 695
f 662 695 694
f 644 697 696
f 638 709 708
f 614 709 637
f 640 708 710
f 642 710 697
f 696 697 699
f 697 698 699
f 654 706 700
f 658 700 702
f 646 696 706
f 701 702 704
f 700 705 702
f 700 703 705
f 702 705 704
f 696 707 706
f 700 706 703
f 703 706 707
f 696 699 707
f 708 712 710
f 708 709 711
f 697 710 698
f 708 711 712
f 616 711 709
f 698 710 712
f 51 48 50
f 51 59 49
f 59 58 141
f 58 60 141
f 51 50 47
f 59 141 49
f 51 49 48
f 60 142 141
f 60 61 143
f 56 58 59
f 51 47 52
f 55 51 52
f 55 59 51
f 57 62 58
f 57 54 62
f 55 52 53
f 56 59 55
f 56 57 58
f 58 62 60
f 54 61 60
f 62 54 60
f 54 63 61
f 63 99 61
f 55 53 88
f 56 55 93
f 55 88 93
f 56 94 57
f 93 88 89
f 57 98 54
f 56 93 94
f 57 94 97
f 93 89 90
f 93 90 91
f 93 91 92
f 57 97 98
f 93 92 95
f 93 95 96
f 93 96 100
f 54 98 63
f 63 98 99
f 61 99 105
f 93 100 101
f 94 102 97
f 94 93 104
f 93 101 104
f 97 103 98
f 98 106 99
f 94 104 102
f 97 102 103
f 98 103 106
f 99 106 105
f 104 101 110
f 104 110 111
f 103 152 106
f 102 155 103
f 102 104 153
f 104 111 166
f 115 123 50
f 48 124 115
f 49 126 125
f 48 125 124
f 124 116 123
f 117 124 125
f 120 125 127
f 117 125 120
f 117 122 119
f 117 118 116
f 117 119 118
f 117 116 124
f 121 120 128
f 120 127 128
f 117 137 122
f 115 124 123
f 141 128 126
f 142 129 128
f 125 126 128
f 125 128 127
f 132 131 130
f 132 136 131
f 132 135 136
f 132 144 135
f 121 134 120
f 117 120 133
f 117 138 137
f 121 128 134
f 128 129 140
f 117 130 138
f 117 132 130
f 117 133 132
f 120 134 133
f 128 139 134
f 128 140 139
f 48 115 50
f 48 49 125
f 49 141 126
f 141 142 128
f 142 143 129
f 60 143 142
f 61 159 143
f 143 194 129
f 139 140 147
f 133 149 132
f 132 145 144
f 133 134 151
f 134 139 146
f 132 148 145
f 139 147 146
f 132 149 150
f 132 150 148
f 133 151 149
f 134 146 151
f 147 420 146
f 149 423 150
f 149 151 422
f 150 421 148
f 146 422 151
f 146 419 422
f 146 420 419
f 150 423 424
f 149 422 423
f 150 424 421
f 129 195 140
f 140 196 147
f 147 473 420
f 61 105 159
f 143 159 164
f 143 164 188
f 143 188 190
f 143 190 197
f 106 158 105
f 104 166 153
f 103 154 152
f 106 152 158
f 102 153 155
f 103 155 154
f 105 158 159
f 152 154 158
f 155 156 154
f 154 156 160
f 155 157 156
f 154 160 158
f 156 157 160
f 158 163 159
f 158 160 178
f 160 157 177
f 159 163 164
f 158 178 163
f 160 177 178
f 163 187 164
f 163 178 187
f 153 166 167
f 155 153 167
f 155 167 168
f 155 168 157
f 157 168 169
f 157 169 177
f 177 169 170
f 177 170 171
f 177 171 172
f 177 172 174
f 177 174 175
f 179 175 176
f 177 175 179
f 179 176 180
f 179 180 181
f 178 177 201
f 177 179 202
f 179 181 202
f 184 202 181
f 177 202 203
f 177 203 201
f 178 201 204
f 178 204 205
f 178 205 187
f 185 202 184
f 202 185 200
f 143 197 193
f 143 193 194
f 129 194 195
f 140 195 196
f 147 471 472
f 147 472 473
f 147 196 199
f 147 199 471
f 164 187 188
f 187 191 188
f 187 208 191
f 188 191 189
f 188 189 190
f 187 205 206
f 187 206 207
f 208 187 207
f 285 308 292
f 285 287 324
f 286 326 287
f 286 313 326
f 296 302 298
f 283 304 296
f 298 302 300
f 290 306 294
f 294 306 283
f 292 308 290
f 296 304 302
f 283 306 304
f 290 308 306
f 285 324 308
f 287 326 324
f 313 314 669
f 310 675 314
f 316 681 311
f 310 311 675
f 316 317 681
f 317 319 682
f 319 320 682
f 322 682 320
f 313 334 326
f 313 336 334
f 313 337 336
f 313 339 337
f 313 340 339
f 313 342 340
f 313 343 342
f 313 346 343
f 313 345 346
f 313 348 345
f 313 664 348
f 313 666 664
f 313 669 666
f 668 669 314
f 419 420 426
f 422 428 423
f 423 429 424
f 424 427 421
f 419 428 422
f 419 425 428
f 419 426 425
f 423 428 429
f 424 429 430
f 424 430 427
f 426 442 425
f 430 431 427
f 428 436 429
f 429 435 430
f 425 436 428
f 425 442 441
f 430 434 431
f 434 432 431
f 430 435 434
f 434 433 432
f 429 436 435
f 425 441 436
f 420 473 426
f 426 474 442
f 442 467 455
f 434 437 433
f 434 438 437
f 434 439 438
f 434 440 439
f 434 443 440
f 436 441 447
f 436 447 435
f 441 442 455
f 435 446 434
f 434 444 443
f 434 445 444
f 435 447 446
f 434 446 448
f 434 448 445
f 441 453 447
f 441 455 453
f 447 453 446
f 446 453 454
f 448 449 445
f 446 457 448
f 446 454 458
f 446 458 457
f 448 450 449
f 448 451 450
f 448 457 451
f 457 452 451
f 453 458 454
f 453 456 458
f 457 459 452
f 457 460 459
f 455 463 453
f 453 465 456
f 457 461 460
f 456 465 458
f 458 488 457
f 457 462 461
f 457 489 462
f 455 469 463
f 453 463 464
f 453 464 465
f 458 465 488
f 457 488 489
f 489 490 462
f 464 463 498
f 426 473 474
f 442 474 467
f 455 467 468
f 455 468 469
f 463 469 476
f 498 477 478
f 498 476 477
f 503 478 479
f 503 479 486
f 463 476 498
f 498 478 503
f 503 486 487
f 503 487 482
f 503 482 483
f 489 491 490
f 489 492 491
f 489 493 492
f 464 500 465
f 465 500 488
f 488 501 489
f 489 504 493
f 464 498 499
f 464 499 500
f 488 500 501
f 489 501 504
f 504 494 493
f 494 504 495
f 504 496 495
f 504 497 496
f 499 502 500
f 498 503 499
f 499 508 502
f 499 503 508
f 501 512 504
f 500 511 501
f 504 505 497
f 504 506 505
f 504 507 506
f 504 509 507
f 504 510 509
f 500 502 511
f 502 508 511
f 504 514 510
f 501 511 512
f 504 512 513
f 504 513 514
f 503 534 508
f 508 536 546
f 503 535 534
f 508 534 536
f 503 483 547
f 503 547 535
f 508 537 511
f 511 539 512
f 512 538 513
f 513 541 545
f 513 545 543
f 508 546 537
f 511 537 539
f 512 539 540
f 513 538 541
f 512 540 538
f 513 542 514
f 513 543 542
f 322 248 682
f 248 249 682
f 249 251 682
f 566 682 251
f 566 568 682
f 568 622 682
f 622 623 682
f 623 625 682
f 625 626 682
f 626 628 682
f 628 629 682
f 629 631 682
f 631 632 682
f 632 635 679
f 634 679 635
f 668 314 675
f 675 311 676
f 676 311 681
f 317 682 681
f 632 678 682
f 632 679 678
f 634 686 679
f 634 636 686
f 636 639 688
f 639 641 649
f 641 643 661
f 645 657 643
f 645 647 655
f 639 653 688
f 643 657 659
f 643 659 661
f 639 649 651
f 639 651 653
f 641 661 649
f 636 688 686
f 645 655 657
