# ff_base_shaft.obj  (62 v, 120 f)  units: metres
v -0.002165064 0.042298336 -0.000934958
v -0.001637711 0.041683123 -0.000881134
v -0.001250000 0.041386753 -0.000855205
v -0.001767767 0.041782539 -0.000889831
v -0.002414815 0.042898994 -0.000987509
v -0.002417366 0.042918295 -0.000989197
v -0.002500000 0.043543577 -0.001043903
v -0.000647048 0.041137952 -0.000833438
v -0.000211635 0.041080847 -0.000828442
v -0.000000000 0.041053090 -0.000826013
v -0.001767767 0.042113729 0.002895708
v -0.002165064 0.042629525 0.002850582
v -0.002414815 0.043230183 0.002798031
v -0.000647048 0.041469146 0.002952103
v -0.001250000 0.041717947 0.002930335
v -0.002417365 0.044168863 -0.001098608
v -0.002414815 0.044188164 -0.001100296
v -0.002165064 0.044788823 -0.001152847
v -0.002163932 0.044790290 -0.001152976
v -0.001767767 0.045304619 -0.001197974
v -0.001637709 0.045404036 -0.001206672
v -0.001250000 0.045700401 -0.001232600
v -0.000647048 0.045949202 -0.001254368
v -0.000211645 0.046006307 -0.001259364
v -0.000000000 0.046034064 -0.001261792
v -0.002500000 0.043874770 0.002741637
v -0.002414815 0.044519354 0.002685243
v -0.002165064 0.045120012 0.002632693
v -0.001767767 0.045635808 0.002587566
v -0.001250000 0.046031594 0.002552940
v -0.000647048 0.046280395 0.002531172
v 0.000211635 0.041080847 -0.000828442
v 0.000647048 0.041137952 -0.000833438
v 0.001250000 0.041386753 -0.000855205
v 0.001637711 0.041683123 -0.000881134
v 0.001767767 0.041782539 -0.000889831
v 0.002165064 0.042298336 -0.000934958
v 0.002414815 0.042898994 -0.000987509
v 0.002417366 0.042918295 -0.000989197
v 0.002500000 0.043543577 -0.001043903
v 0.000000000 0.041384283 0.002959527
v 0.000647048 0.041469146 0.002952103
v 0.001250000 0.041717947 0.002930335
v 0.001767767 0.042113729 0.002895708
v 0.002165064 0.042629525 0.002850582
v 0.002414815 0.043230183 0.002798031
v 0.000211645 0.046006307 -0.001259364
v 0.001250000 0.045700401 -0.001232600
v 0.000647048 0.045949202 -0.001254368
v 0.002417365 0.044168863 -0.001098608
v 0.002414815 0.044188164 -0.001100296
v 0.002165064 0.044788823 -0.001152847
v 0.002163932 0.044790290 -0.001152976
v 0.001767767 0.045304619 -0.001197974
v 0.001637709 0.045404036 -0.001206672
v 0.000000000 0.046365257 0.002523748
v 0.000647048 0.046280395 0.002531172
v 0.002500000 0.043874770 0.002741637
v 0.002414815 0.044519354 0.002685243
v 0.001767767 0.045635808 0.002587566
v 0.001250000 0.046031594 0.002552940
v 0.002165064 0.045120012 0.002632693
f 4 1 36
f 3 2 35
f 8 33 9
f 10 9 32
f 3 35 8
f 4 36 2
f 1 5 39
f 5 6 39
f 6 7 40
f 15 14 44
f 11 15 45
f 12 11 61
f 7 16 50
f 17 52 16
f 17 18 52
f 18 19 53
f 19 20 54
f 22 49 21
f 20 21 55
f 22 23 49
f 23 24 47
f 25 47 24
f 28 27 57
f 29 28 56
f 13 12 61
f 26 13 61
f 27 26 61
f 30 29 31
f 31 29 56
f 27 61 57
f 28 57 56
f 33 32 9
f 8 34 33
f 36 35 2
f 37 36 1
f 34 8 35
f 38 37 1
f 1 39 38
f 40 39 6
f 14 41 43
f 41 42 43
f 14 43 44
f 15 44 45
f 11 45 46
f 11 46 58
f 11 58 59
f 54 53 19
f 40 7 50
f 51 50 16
f 52 51 16
f 18 53 52
f 48 21 49
f 20 55 54
f 48 55 21
f 23 47 49
f 11 60 61
f 11 59 62
f 11 62 60
f 4 12 1
f 11 4 2
f 3 11 2
f 5 13 6
f 1 13 5
f 26 7 6
f 3 8 15
f 8 9 14
f 10 41 9
f 12 4 11
f 3 15 11
f 13 1 12
f 26 6 13
f 15 8 14
f 14 9 41
f 7 27 16
f 27 17 16
f 17 28 18
f 18 28 19
f 19 29 20
f 30 21 20
f 22 21 30
f 22 31 23
f 23 56 24
f 56 25 24
f 27 7 26
f 28 17 27
f 29 19 28
f 30 20 29
f 22 30 31
f 23 31 56
f 10 32 41
f 41 32 33
f 42 33 34
f 43 34 35
f 44 35 36
f 45 36 37
f 45 37 38
f 38 39 46
f 46 39 40
f 41 33 42
f 42 34 43
f 35 44 43
f 44 36 45
f 45 38 46
f 46 40 58
f 56 47 25
f 47 57 49
f 61 48 49
f 40 50 58
f 59 50 51
f 52 53 62
f 59 51 52
f 60 55 48
f 60 54 55
f 62 53 54
f 57 47 56
f 49 57 61
f 58 50 59
f 59 52 62
f 48 61 60
f 62 54 60
