# ff_distal_pad.obj  (92 v, 180 f)  units: metres
v 0.009539219 0.042191837 0.111424357
v 0.009579779 0.042183302 0.111326814
v 0.009563196 0.042186789 0.111366689
v 0.009300000 0.042091604 0.112012863
v 0.009300000 0.042242169 0.111999691
v 0.009511397 0.042197689 0.111491270
v 0.009651472 0.042017650 0.111167565
v 0.009651472 0.042168215 0.111154392
v 0.009675937 0.042167332 0.111144297
v 0.009726712 0.042165499 0.111123346
v 0.009767588 0.042164024 0.111106478
v 0.009792289 0.042163134 0.111096285
v 0.009800000 0.042162854 0.111093104
v 0.009651472 0.041246306 0.112086818
v 0.009800000 0.042205028 0.111575164
v 0.010012132 0.042242397 0.110997938
v 0.010100001 0.042449746 0.110943265
v 0.010012132 0.042292897 0.111575164
v 0.010100001 0.042505030 0.111575164
v 0.009555283 0.042339690 0.113114372
v 0.009300000 0.042383358 0.113613486
v 0.009300000 0.042507511 0.114028230
v 0.009767415 0.042427558 0.113114372
v 0.009855283 0.042639691 0.113114372
v 0.009767415 0.042639691 0.113326505
v 0.009300000 0.042719644 0.114240363
v 0.009811349 0.053498216 0.112270437
v 0.010500000 0.041172352 0.111241519
v 0.010500000 0.041987017 0.110817425
v 0.010500000 0.040896170 0.112117447
v 0.009300000 0.042928301 0.121576332
v 0.009651472 0.042082999 0.121650286
v 0.009651472 0.043002255 0.122421630
v 0.010500000 0.041732866 0.121680915
v 0.010500000 0.042156953 0.122495584
v 0.010500000 0.043032885 0.122771762
v 0.009300000 0.057012670 0.112989888
v 0.009300000 0.064605601 0.110043138
v 0.009300000 0.064554654 0.110047594
v 0.009651472 0.064480707 0.109202296
v 0.009651472 0.064531647 0.109197840
v 0.009662529 0.064480305 0.109197736
v 0.009718791 0.064478271 0.109174520
v 0.009764086 0.064476639 0.109155826
v 0.009791455 0.064475648 0.109144539
v 0.009800000 0.064475343 0.109141007
v 0.009800000 0.064522073 0.109675169
v 0.009651472 0.065450907 0.109969184
v 0.009555283 0.064656734 0.111214370
v 0.009300000 0.064700402 0.111713484
v 0.009300000 0.064648822 0.112128235
v 0.009767415 0.064568870 0.111214370
v 0.009767415 0.064356737 0.111426502
v 0.009855283 0.064356737 0.111214370
v 0.010100001 0.064166792 0.109043263
v 0.010100001 0.064222075 0.109675169
v 0.010012132 0.064380482 0.109061107
v 0.010012132 0.064434208 0.109675169
v 0.009300000 0.064436689 0.112340368
v 0.010500000 0.064501017 0.108847708
v 0.010500000 0.065376952 0.109123886
v 0.010500000 0.065801039 0.109938554
v 0.009300000 0.065442301 0.119606607
v 0.009651472 0.066287600 0.119532652
v 0.009651472 0.065516256 0.120451905
v 0.010500000 0.066637732 0.119502023
v 0.010500000 0.065546885 0.120802045
v 0.010500000 0.066361554 0.120377958
v 0.012600000 0.041172352 0.111241519
v 0.012600000 0.041987017 0.110817425
v 0.012600000 0.040896170 0.112117447
v 0.013448528 0.042017650 0.111167565
v 0.013448528 0.041246306 0.112086818
v 0.013800000 0.042091604 0.112012863
v 0.012600000 0.041732866 0.121680915
v 0.012600000 0.042156953 0.122495584
v 0.012600000 0.043032885 0.122771762
v 0.013448528 0.042082999 0.121650286
v 0.013448528 0.043002255 0.122421630
v 0.013800000 0.042928301 0.121576332
v 0.012600000 0.064501017 0.108847708
v 0.012600000 0.065376952 0.109123886
v 0.012600000 0.065801039 0.109938554
v 0.013448528 0.064531647 0.109197840
v 0.013448528 0.065450907 0.109969184
v 0.013800000 0.064605601 0.110043138
v 0.012600000 0.066637732 0.119502023
v 0.012600000 0.065546885 0.120802045
v 0.012600000 0.066361554 0.120377958
v 0.013448528 0.066287600 0.119532652
v 0.013448528 0.065516256 0.120451905
v 0.013800000 0.065442301 0.119606607
f 4 5 6
f 4 2 7
f 4 6 1
f 4 1 3
f 4 3 2
f 4 7 14
f 7 2 8
f 7 8 9
f 7 9 10
f 7 10 11
f 7 11 12
f 7 12 29
f 29 12 13
f 29 13 16
f 7 28 14
f 29 16 17
f 7 29 28
f 14 28 30
f 4 21 5
f 4 14 31
f 4 31 21
f 14 30 34
f 29 17 55
f 28 29 69
f 28 69 30
f 31 22 21
f 31 26 22
f 14 32 31
f 14 34 32
f 31 32 33
f 32 35 33
f 32 34 35
f 33 35 36
f 31 63 26
f 31 33 65
f 33 36 65
f 30 75 34
f 34 75 35
f 35 77 36
f 36 77 67
f 29 55 60
f 63 37 26
f 41 40 39
f 38 41 39
f 38 48 41
f 41 42 40
f 41 43 42
f 60 44 43
f 41 60 43
f 60 45 44
f 60 46 45
f 60 57 46
f 41 48 61
f 60 55 57
f 41 61 60
f 48 62 61
f 63 59 37
f 38 39 63
f 63 39 50
f 38 63 48
f 63 50 51
f 63 51 59
f 48 66 62
f 29 60 81
f 60 61 81
f 61 62 82
f 62 66 83
f 31 65 63
f 36 67 65
f 48 63 64
f 48 64 66
f 63 65 64
f 64 65 68
f 64 68 66
f 65 67 68
f 66 68 87
f 67 88 68
f 29 70 69
f 30 69 71
f 30 71 75
f 29 81 70
f 69 70 72
f 69 73 71
f 69 72 73
f 72 74 73
f 71 73 75
f 73 74 78
f 70 84 72
f 72 86 74
f 74 86 80
f 35 75 76
f 35 76 77
f 73 78 75
f 74 80 78
f 75 78 76
f 76 79 77
f 76 78 79
f 78 80 79
f 77 79 88
f 79 80 92
f 61 82 81
f 62 83 82
f 70 81 84
f 72 84 86
f 81 82 84
f 82 83 85
f 82 85 84
f 84 85 86
f 83 90 85
f 85 92 86
f 67 77 88
f 66 87 83
f 68 89 87
f 68 88 89
f 80 86 92
f 79 91 88
f 79 92 91
f 83 87 90
f 85 90 92
f 87 89 90
f 88 91 89
f 89 91 90
f 90 91 92
f 15 3 1
f 15 2 3
f 15 8 2
f 15 9 8
f 15 10 9
f 15 11 10
f 15 12 11
f 15 13 12
f 15 1 6
f 15 6 20
f 15 20 18
f 15 16 13
f 15 18 16
f 18 17 16
f 18 19 17
f 18 23 19
f 6 5 21
f 20 6 21
f 23 21 22
f 20 21 23
f 25 22 26
f 18 20 23
f 23 25 24
f 23 22 25
f 25 27 24
f 19 23 24
f 24 27 54
f 19 55 17
f 19 24 54
f 25 26 37
f 25 53 27
f 19 56 55
f 19 54 56
f 25 37 53
f 53 37 59
f 27 53 54
f 49 39 47
f 47 39 40
f 47 40 42
f 47 42 43
f 47 43 44
f 47 44 45
f 47 45 46
f 47 58 52
f 49 50 39
f 49 51 50
f 49 52 51
f 52 59 51
f 49 47 52
f 52 54 53
f 52 53 59
f 47 46 58
f 58 46 57
f 56 57 55
f 56 58 57
f 52 58 56
f 52 56 54
