# ff_distal_shaft.obj  (147 v, 286 f)  units: metres
v -0.002165064 0.039474785 0.106770985
v -0.001900536 0.043130659 0.106105082
v -0.002165064 0.043160707 0.106448509
v -0.001767767 0.039429661 0.106255189
v -0.001608341 0.039418999 0.106133319
v -0.001767767 0.043115579 0.105932713
v -0.001250000 0.039395034 0.105859406
v -0.000647048 0.039373267 0.105610602
v -0.001250000 0.043080956 0.105536930
v -0.001165893 0.043077920 0.105502218
v -0.000647048 0.043059185 0.105288126
v -0.000240318 0.043054521 0.105234779
v -0.002414815 0.039527338 0.107371643
v -0.002500000 0.039583731 0.108016230
v -0.002414815 0.039640125 0.108660817
v -0.002366140 0.043203015 0.106932104
v -0.002414815 0.043213256 0.107049167
v -0.002500000 0.043269653 0.107693754
v -0.002474835 0.043286312 0.107884169
v -0.002414815 0.043326046 0.108338334
v -0.002165064 0.039692678 0.109261468
v -0.002213601 0.043368384 0.108822264
v -0.002165064 0.043378595 0.108938992
v -0.001767767 0.039737802 0.109777272
v -0.001696288 0.039742582 0.109831907
v -0.001767767 0.043423723 0.109454788
v -0.001558477 0.043437719 0.109614775
v -0.001250000 0.039772429 0.110173054
v -0.000647048 0.039794195 0.110421851
v -0.001250000 0.043458350 0.109850578
v -0.000647048 0.043480117 0.110099375
v -0.000324136 0.039797898 0.110464200
v -0.000540337 0.043481339 0.110113375
v -0.002235718 0.063298702 0.104857884
v -0.001878027 0.063251235 0.104315311
v -0.002005926 0.063265763 0.104481362
v -0.002132768 0.063280173 0.104646035
v -0.002165064 0.063283838 0.104687959
v -0.002165064 0.066272423 0.104426496
v -0.001767767 0.066227295 0.103910699
v -0.001608340 0.066216633 0.103788830
v -0.001488102 0.063220009 0.103958383
v -0.001767767 0.063238710 0.104172163
v -0.001729944 0.063236184 0.104143254
v -0.002348032 0.063322335 0.105128005
v -0.002414815 0.063336387 0.105288617
v -0.002456323 0.063363872 0.105602711
v -0.002414815 0.066324972 0.105027154
v -0.002500000 0.066381365 0.105671741
v -0.002497477 0.066383034 0.105690829
v -0.002500000 0.063392781 0.105933204
v -0.002414815 0.063449182 0.106577791
v -0.002414815 0.066437759 0.106316321
v -0.000647048 0.063182317 0.103527583
v -0.001250000 0.063204087 0.103776380
v -0.001084571 0.063198112 0.103708118
v -0.001250000 0.066192672 0.103514910
v -0.000647048 0.066170901 0.103266113
v 0.000000000 0.066163480 0.103181250
v -0.002165064 0.063501731 0.107178450
v -0.002165064 0.066490315 0.106916979
v -0.001778832 0.063545600 0.107679881
v -0.001767767 0.063546859 0.107694246
v -0.001767767 0.066535443 0.107432775
v -0.001696287 0.066540219 0.107487418
v -0.001250000 0.063581482 0.108090028
v -0.001250000 0.066570066 0.107828565
v -0.000721502 0.063600563 0.108308107
v -0.000647048 0.063603245 0.108338833
v -0.000647048 0.066591837 0.108077362
v -0.000324135 0.066595539 0.108119711
v 0.000000000 0.063610673 0.108423695
v 0.000000000 0.066599257 0.108162224
v 0.000000000 0.039365843 0.105525739
v 0.000000000 0.043051761 0.105203263
v 0.000647048 0.039373267 0.105610602
v 0.000752626 0.039377078 0.105654165
v 0.000647048 0.043059185 0.105288126
v 0.000729825 0.043062177 0.105322286
v 0.001250000 0.039395034 0.105859406
v 0.001767767 0.039429661 0.106255189
v 0.001250000 0.043080956 0.105536930
v 0.001627416 0.043106195 0.105825424
v 0.001767767 0.043115582 0.105932713
v 0.001833285 0.043123022 0.106017768
v 0.002165064 0.039474785 0.106770985
v 0.002165064 0.043160707 0.106448509
v 0.000000000 0.039801620 0.110506713
v 0.000000000 0.043487541 0.110184237
v 0.000647048 0.039794195 0.110421851
v 0.000647048 0.043480117 0.110099375
v 0.002225044 0.039487407 0.106915243
v 0.002414815 0.039527334 0.107371643
v 0.002500000 0.039583731 0.108016230
v 0.002414815 0.039640125 0.108660817
v 0.002414815 0.043213256 0.107049167
v 0.002500000 0.043269653 0.107693754
v 0.002485556 0.043279216 0.107803047
v 0.002414815 0.043326046 0.108338334
v 0.001250000 0.039772429 0.110173054
v 0.001767767 0.039737802 0.109777272
v 0.001696686 0.043428477 0.109509125
v 0.001845197 0.043414928 0.109354265
v 0.001767767 0.043423723 0.109454788
v 0.001787227 0.043421511 0.109429531
v 0.001337796 0.043452479 0.109783463
v 0.001250000 0.043458350 0.109850578
v 0.001558477 0.043437719 0.109614775
v 0.002165064 0.039692674 0.109261468
v 0.002017506 0.043395355 0.109130561
v 0.002087853 0.043387365 0.109039232
v 0.002165064 0.043378595 0.108938992
v 0.002174502 0.043376610 0.108916298
v 0.001900537 0.043408643 0.109282419
v 0.001956735 0.043402258 0.109209463
v 0.000000000 0.063174896 0.103442721
v 0.000647048 0.063182317 0.103527583
v 0.000647048 0.066170901 0.103266113
v 0.000752627 0.066174716 0.103309676
v 0.001084571 0.063198112 0.103708118
v 0.001250000 0.063204087 0.103776380
v 0.001250000 0.066192672 0.103514910
v 0.001767767 0.066227295 0.103910699
v 0.001767767 0.063238710 0.104172163
v 0.002030761 0.063268587 0.104513600
v 0.002165064 0.063283838 0.104687959
v 0.002165064 0.066272423 0.104426496
v 0.002225045 0.066285044 0.104570754
v 0.002414815 0.063336387 0.105288617
v 0.002441905 0.063354321 0.105493613
v 0.002414815 0.066324972 0.105027154
v 0.002500000 0.066381365 0.105671741
v 0.002500000 0.063392781 0.105933204
v 0.002414815 0.063449182 0.106577791
v 0.002425155 0.063442335 0.106499545
v 0.002414815 0.066437759 0.106316321
v 0.000333031 0.063606851 0.108380012
v 0.000647048 0.063603252 0.108338833
v 0.000647048 0.066591837 0.108077362
v 0.001250000 0.063581482 0.108090028
v 0.001250000 0.066570066 0.107828565
v 0.001767767 0.063546859 0.107694246
v 0.001767767 0.066535436 0.107432775
v 0.001292087 0.063578665 0.108057857
v 0.002165064 0.063501731 0.107178450
v 0.002005926 0.063519806 0.107385047
v 0.002165064 0.066490315 0.106916979
f 4 5 14
f 7 14 5
f 15 7 8
f 21 8 74
f 9 115 10
f 14 13 1
f 14 1 4
f 15 14 7
f 21 15 8
f 24 21 74
f 24 76 25
f 28 25 77
f 3 16 103
f 2 3 103
f 16 17 103
f 17 18 103
f 18 19 103
f 19 20 105
f 24 74 76
f 76 77 25
f 6 2 115
f 9 6 115
f 20 22 105
f 22 23 102
f 23 26 102
f 29 28 81
f 26 27 102
f 27 30 108
f 30 31 106
f 48 49 40
f 48 40 39
f 40 50 41
f 50 57 41
f 53 58 57
f 40 49 50
f 50 53 57
f 51 47 62
f 52 51 62
f 66 47 46
f 66 46 45
f 53 61 58
f 38 37 137
f 61 64 59
f 72 45 34
f 34 38 137
f 61 59 58
f 56 54 120
f 42 55 121
f 55 56 120
f 126 44 42
f 35 43 130
f 43 44 130
f 64 118 59
f 64 119 118
f 36 35 146
f 36 146 37
f 64 65 119
f 67 119 65
f 67 70 123
f 62 60 52
f 63 62 47
f 66 63 47
f 68 66 45
f 69 68 45
f 69 45 72
f 72 34 137
f 138 137 37
f 140 138 37
f 11 10 115
f 12 11 115
f 75 12 110
f 78 75 110
f 78 111 79
f 82 79 111
f 83 82 111
f 99 84 83
f 99 85 84
f 97 87 85
f 28 77 80
f 28 80 81
f 2 103 114
f 29 81 86
f 2 114 115
f 115 110 12
f 29 86 32
f 103 19 105
f 104 105 22
f 104 22 102
f 108 102 27
f 31 33 106
f 33 89 91
f 91 107 33
f 30 106 108
f 88 32 92
f 88 93 90
f 107 106 33
f 86 92 32
f 88 92 93
f 78 110 111
f 101 93 94
f 109 94 95
f 113 99 83
f 97 85 98
f 97 96 87
f 99 98 85
f 112 113 83
f 111 112 83
f 100 90 93
f 101 100 93
f 109 101 94
f 54 116 120
f 116 117 120
f 55 120 121
f 121 124 42
f 67 122 119
f 124 125 42
f 125 126 42
f 126 129 44
f 129 130 44
f 67 123 122
f 142 144 37
f 146 142 37
f 133 35 130
f 133 135 35
f 134 35 135
f 70 127 123
f 145 146 35
f 134 145 35
f 127 71 128
f 73 131 128
f 73 132 131
f 73 136 132
f 140 37 144
f 70 71 127
f 73 128 71
f 73 139 147
f 139 141 143
f 73 147 136
f 139 143 147
f 1 16 3
f 1 2 4
f 1 3 2
f 9 4 6
f 7 5 9
f 4 2 6
f 4 9 5
f 7 9 10
f 11 7 10
f 7 11 8
f 12 8 11
f 8 12 74
f 74 12 75
f 13 16 1
f 14 17 13
f 13 17 16
f 14 18 17
f 15 19 14
f 18 14 19
f 15 20 19
f 15 22 20
f 21 22 15
f 24 23 21
f 21 23 22
f 24 26 23
f 24 25 26
f 28 26 25
f 28 27 26
f 27 28 30
f 29 30 28
f 30 29 31
f 29 32 33
f 29 33 31
f 88 33 32
f 33 88 89
f 39 38 34
f 39 34 45
f 39 45 48
f 39 36 37
f 40 35 36
f 39 37 38
f 40 36 39
f 43 41 44
f 40 41 43
f 57 42 44
f 42 57 55
f 57 44 41
f 40 43 35
f 48 45 46
f 48 46 47
f 49 47 51
f 48 47 49
f 49 51 50
f 50 51 52
f 53 52 60
f 50 52 53
f 53 60 61
f 57 56 55
f 58 56 57
f 56 58 54
f 59 54 58
f 54 59 116
f 61 60 62
f 61 62 64
f 64 62 63
f 66 64 63
f 64 66 65
f 66 67 65
f 68 67 66
f 69 70 68
f 67 68 70
f 69 72 70
f 72 71 70
f 72 73 71
f 74 75 78
f 74 78 76
f 76 82 77
f 76 78 79
f 76 79 82
f 82 80 77
f 80 82 83
f 80 83 81
f 81 83 84
f 81 84 85
f 81 87 86
f 81 85 87
f 86 87 96
f 88 90 89
f 90 91 89
f 100 91 90
f 100 107 91
f 86 96 92
f 93 92 96
f 94 93 97
f 93 96 97
f 95 94 99
f 94 97 98
f 94 98 99
f 95 99 113
f 101 104 102
f 101 105 104
f 101 103 105
f 101 108 100
f 100 106 107
f 100 108 106
f 101 102 108
f 109 103 101
f 109 112 111
f 109 113 112
f 109 114 103
f 109 115 114
f 109 110 115
f 109 111 110
f 95 113 109
f 118 116 59
f 118 117 116
f 117 119 120
f 118 119 117
f 122 121 120
f 122 120 119
f 123 121 122
f 123 124 121
f 123 125 124
f 127 126 125
f 127 125 123
f 127 128 126
f 131 129 126
f 131 126 128
f 131 130 129
f 133 130 132
f 132 130 131
f 136 135 133
f 134 135 136
f 136 133 132
f 147 134 136
f 72 137 73
f 139 137 138
f 73 137 139
f 139 138 140
f 139 140 141
f 143 142 146
f 141 142 143
f 141 140 144
f 141 144 142
f 147 146 145
f 143 146 147
f 147 145 134
