# ff_distal.obj  (180 v, 360 f)  units: metres
v -0.008563356 0.039084584 0.102310970
v -0.007727051 0.039047446 0.101886474
v -0.008563356 0.041076973 0.102136657
v -0.007727051 0.041039836 0.101712160
v -0.009227051 0.039142430 0.102972142
v -0.009653170 0.039215319 0.103805259
v -0.009800000 0.039296117 0.104728788
v -0.009227051 0.041134819 0.102797829
v -0.009653170 0.041207708 0.103630953
v -0.009800000 0.041288506 0.104554474
v -0.006800000 0.039034650 0.101740204
v -0.006800000 0.041027039 0.101565890
v -0.004200000 0.039034650 0.101740204
v -0.004200000 0.041027039 0.101565890
v -0.002009918 0.039049670 0.101911910
v -0.002009918 0.041042060 0.101737596
v -0.001500000 0.041349683 0.105253726
v -0.000520945 0.041318625 0.104898736
v -0.001500000 0.043043215 0.105105564
v -0.000520945 0.043012157 0.104750574
v -0.002819078 0.041486692 0.106819764
v -0.003000000 0.041576121 0.107841916
v -0.002819078 0.041665547 0.108864069
v -0.002819078 0.043180224 0.106671594
v -0.003000000 0.043269653 0.107693754
v -0.002819078 0.043359078 0.108715907
v -0.002298133 0.041408051 0.105920888
v -0.002298133 0.041744187 0.109762944
v -0.001500000 0.041802559 0.110430107
v -0.000520945 0.041833617 0.110785097
v -0.002298133 0.043101583 0.105772726
v -0.002298133 0.043437719 0.109614775
v -0.001500000 0.043496087 0.110281944
v -0.000520945 0.043527145 0.110636935
v -0.009800000 0.042421531 0.117505006
v -0.009800000 0.042820010 0.117470145
v -0.009800000 0.040952075 0.123656482
v -0.009800000 0.042968173 0.119163677
v -0.000500000 0.053113397 0.118276082
v -0.000000000 0.052979931 0.118287757
v -0.000000000 0.053354699 0.122571394
v -0.009227051 0.063748442 0.100819394
v -0.009653170 0.063821331 0.101652518
v -0.008563356 0.063690595 0.100158222
v -0.007727051 0.063653454 0.099733725
v -0.009800000 0.063902125 0.102576040
v -0.009227051 0.065940067 0.100627646
v -0.009653170 0.066012956 0.101460770
v -0.009800000 0.066093758 0.102384292
v -0.008563356 0.065882221 0.099966481
v -0.007727051 0.065845087 0.099541984
v -0.006800000 0.063640662 0.099587455
v -0.006800000 0.065832287 0.099395707
v -0.004200000 0.063640662 0.099587455
v -0.003074265 0.063198112 0.103708118
v -0.003074265 0.063995071 0.103638396
v -0.003614015 0.064087398 0.104693681
v -0.003614015 0.063290440 0.104763411
v -0.004200000 0.065832287 0.099395707
v -0.002009918 0.063655682 0.099759161
v -0.001174265 0.063077800 0.102332942
v -0.001174265 0.063874759 0.102263220
v -0.000000000 0.063061595 0.102147661
v -0.000000000 0.063858546 0.102077939
v -0.002233584 0.063124843 0.102870636
v -0.002233584 0.063921802 0.102800913
v -0.002009918 0.065847307 0.099567421
v -0.003800000 0.063392781 0.105933204
v -0.003614015 0.063495129 0.107102998
v -0.003074265 0.063587457 0.108158290
v -0.003800000 0.064189740 0.105863482
v -0.003614015 0.064292081 0.107033275
v -0.003074265 0.064384408 0.108088568
v -0.002233584 0.063660726 0.108995773
v -0.001174265 0.063707769 0.109533466
v -0.000000000 0.063723974 0.109718747
v -0.002233584 0.064457677 0.108926043
v -0.001174265 0.064504720 0.109463744
v -0.000000000 0.064520933 0.109649017
v -0.009800000 0.065183319 0.117220096
v -0.009800000 0.067749716 0.121311992
v -0.001000000 0.053976126 0.118200600
v -0.000866025 0.053478029 0.118244179
v -0.000866025 0.054474223 0.118157022
v -0.000500000 0.054838855 0.118125126
v -0.000000000 0.054972321 0.118113443
v -0.000866025 0.053852797 0.122527815
v -0.001000000 0.054350894 0.122484237
v -0.000866025 0.054848991 0.122440659
v -0.000500000 0.053488165 0.122559719
v -0.000500000 0.055213626 0.122408763
v -0.000000000 0.055347089 0.122397080
v 0.000126238 0.039094370 0.102422804
v 0.000126238 0.041086759 0.102248490
v 0.000520945 0.041318625 0.104898736
v 0.002155867 0.039167643 0.103260301
v 0.002155867 0.041160032 0.103085995
v 0.001500000 0.041349683 0.105253726
v 0.000520945 0.043012157 0.104750574
v 0.001500000 0.043043215 0.105105564
v 0.004028994 0.039267682 0.104403786
v 0.004028994 0.041260071 0.104229480
v 0.002298133 0.041408051 0.105920888
v 0.000520945 0.041833617 0.110785097
v 0.002298133 0.041744187 0.109762944
v 0.001500000 0.041802559 0.110430107
v 0.002298133 0.043101583 0.105772726
v 0.000520945 0.043527145 0.110636935
v 0.002298133 0.043437719 0.109614775
v 0.001500000 0.043496087 0.110281944
v 0.002819078 0.041486692 0.106819764
v 0.003000000 0.041576121 0.107841916
v 0.002819078 0.041665547 0.108864069
v 0.002819078 0.043180224 0.106671594
v 0.003000000 0.043269653 0.107693754
v 0.002819078 0.043359078 0.108715907
v 0.005699495 0.039392032 0.105825104
v 0.005699495 0.041384421 0.105650790
v 0.007126238 0.039537627 0.107489251
v 0.007126238 0.041530017 0.107314937
v 0.008274091 0.039700881 0.109355249
v 0.008274091 0.041693270 0.109180935
v 0.009114792 0.039877772 0.111377150
v 0.009114792 0.041870162 0.111202843
v 0.000500000 0.053113397 0.118276082
v 0.009627637 0.040063951 0.113505177
v 0.009627637 0.042056341 0.113330871
v 0.009800000 0.040254831 0.115686931
v 0.009800000 0.042247221 0.115512617
v 0.009800000 0.042421531 0.117505006
v 0.009800000 0.042820010 0.117470145
v 0.009800000 0.040952075 0.123656482
v 0.009800000 0.042968173 0.119163677
v 0.000126238 0.063700378 0.100270055
v 0.001174265 0.063077800 0.102332942
v 0.001174265 0.063874759 0.102263220
v 0.002155867 0.063773654 0.101107553
v 0.002233584 0.063124843 0.102870636
v 0.002233584 0.063921802 0.102800913
v 0.000126238 0.065892003 0.100078315
v 0.002155867 0.065965280 0.100915812
v 0.004028994 0.063873693 0.102251038
v 0.003074265 0.063198112 0.103708118
v 0.003074265 0.063995071 0.103638396
v 0.003614015 0.064087398 0.104693681
v 0.003614015 0.063290440 0.104763411
v 0.004028994 0.066065319 0.102059297
v 0.001174265 0.063707769 0.109533466
v 0.002233584 0.063660726 0.108995773
v 0.001174265 0.064504720 0.109463744
v 0.002233584 0.064457677 0.108926043
v 0.003614015 0.063495129 0.107102998
v 0.003074265 0.063587457 0.108158290
v 0.003800000 0.063392781 0.105933204
v 0.003614015 0.064292081 0.107033275
v 0.003074265 0.064384408 0.108088568
v 0.003800000 0.064189740 0.105863482
v 0.005699495 0.063998044 0.103672355
v 0.007126238 0.064143635 0.105336502
v 0.005699495 0.066189669 0.103480615
v 0.007126238 0.066335261 0.105144754
v 0.008274091 0.064306892 0.107202500
v 0.008274091 0.066498518 0.107010752
v 0.009114792 0.064483784 0.109224401
v 0.009627637 0.064669959 0.111352429
v 0.009114792 0.066675410 0.109032661
v 0.009627637 0.066861592 0.111160688
v 0.000500000 0.054838855 0.118125126
v 0.000866025 0.053478029 0.118244179
v 0.001000000 0.053976126 0.118200600
v 0.000866025 0.054474223 0.118157022
v 0.000500000 0.053488165 0.122559719
v 0.000866025 0.053852797 0.122527815
v 0.000866025 0.054848991 0.122440659
v 0.001000000 0.054350894 0.122484237
v 0.000500000 0.055213626 0.122408763
v 0.009800000 0.064860843 0.113534182
v 0.009800000 0.067052469 0.113342434
v 0.009800000 0.065183319 0.117220096
v 0.009800000 0.067749716 0.121311992
f 1 4 2
f 1 3 4
f 2 4 12
f 6 8 5
f 6 9 8
f 5 1 6
f 6 1 2
f 5 3 1
f 6 2 7
f 5 8 3
f 7 9 6
f 7 10 9
f 7 2 11
f 10 21 9
f 2 12 11
f 11 12 13
f 13 12 14
f 7 11 13
f 8 27 3
f 27 4 3
f 9 27 8
f 27 12 4
f 9 21 27
f 10 7 35
f 13 37 7
f 35 23 10
f 10 22 21
f 23 22 10
f 13 15 37
f 13 14 16
f 13 16 15
f 27 14 12
f 17 16 14
f 17 14 27
f 15 16 94
f 15 94 93
f 18 16 17
f 27 19 17
f 18 94 16
f 17 19 20
f 17 20 18
f 18 20 99
f 21 31 27
f 21 24 31
f 22 24 21
f 23 25 22
f 37 15 93
f 37 93 96
f 28 26 23
f 22 25 24
f 23 26 25
f 28 32 26
f 27 31 19
f 29 32 28
f 96 101 37
f 37 101 117
f 30 33 29
f 104 34 30
f 109 19 31
f 109 31 24
f 24 25 109
f 29 33 32
f 109 25 26
f 109 26 32
f 33 109 32
f 30 34 33
f 35 7 37
f 35 28 23
f 35 37 36
f 36 37 38
f 38 37 80
f 29 28 35
f 35 30 29
f 35 104 30
f 36 131 35
f 133 36 38
f 38 39 40
f 37 90 87
f 37 41 90
f 37 172 41
f 38 82 83
f 83 39 38
f 38 84 82
f 38 40 133
f 90 39 83
f 41 40 39
f 41 39 90
f 56 46 43
f 42 50 44
f 42 47 50
f 50 47 48
f 48 51 50
f 43 47 42
f 46 48 43
f 43 48 47
f 46 49 48
f 49 53 48
f 44 51 45
f 44 50 51
f 48 53 51
f 45 51 53
f 42 44 56
f 56 43 42
f 45 56 44
f 52 56 45
f 57 46 56
f 46 57 71
f 45 53 52
f 49 59 53
f 53 54 52
f 59 54 53
f 81 59 49
f 46 81 49
f 46 71 80
f 67 59 81
f 71 72 80
f 80 72 73
f 80 73 77
f 54 66 52
f 52 66 56
f 60 62 54
f 54 62 66
f 57 58 68
f 66 65 55
f 66 55 56
f 56 58 57
f 56 55 58
f 55 68 58
f 54 59 67
f 54 67 60
f 134 64 60
f 60 64 62
f 64 61 62
f 64 63 61
f 62 65 66
f 62 61 65
f 65 61 63
f 65 138 55
f 63 135 65
f 60 67 140
f 60 140 134
f 57 68 71
f 71 68 69
f 71 69 72
f 55 69 68
f 70 69 55
f 55 74 70
f 72 69 70
f 72 70 73
f 73 70 74
f 81 140 67
f 81 141 140
f 73 74 77
f 55 75 74
f 76 75 55
f 55 148 76
f 77 74 75
f 78 75 76
f 147 141 81
f 77 75 78
f 78 76 79
f 81 160 147
f 80 37 81
f 80 84 38
f 37 87 81
f 80 81 46
f 80 85 84
f 86 85 80
f 80 168 86
f 81 87 88
f 81 88 89
f 89 91 81
f 81 91 92
f 88 82 84
f 87 83 82
f 89 84 85
f 91 85 86
f 87 82 88
f 90 83 87
f 88 84 89
f 89 85 91
f 91 86 92
f 77 78 80
f 80 78 79
f 80 79 179
f 81 92 180
f 93 94 97
f 95 97 94
f 95 94 18
f 18 99 95
f 95 99 100
f 95 100 98
f 93 97 96
f 98 97 95
f 98 100 107
f 96 97 102
f 96 102 101
f 98 102 97
f 103 102 98
f 101 102 118
f 103 118 102
f 98 107 103
f 106 108 104
f 105 110 106
f 109 20 19
f 99 20 109
f 109 100 99
f 114 107 100
f 116 114 100
f 116 100 109
f 104 108 34
f 34 109 33
f 108 110 34
f 106 110 108
f 34 110 109
f 105 109 110
f 103 107 114
f 103 114 111
f 111 118 103
f 111 115 112
f 112 116 113
f 112 120 111
f 113 109 105
f 113 122 112
f 111 114 115
f 115 114 116
f 112 115 116
f 113 116 109
f 101 118 117
f 111 120 118
f 117 118 120
f 117 120 119
f 112 122 120
f 105 127 113
f 113 124 122
f 127 124 113
f 119 120 122
f 119 122 121
f 121 122 124
f 121 124 123
f 37 117 119
f 119 121 37
f 130 104 35
f 130 106 104
f 105 106 130
f 37 121 123
f 37 123 126
f 35 131 130
f 132 172 37
f 128 37 126
f 128 132 37
f 131 36 133
f 172 125 40
f 172 40 41
f 133 40 125
f 132 175 173
f 132 173 172
f 133 125 169
f 133 169 170
f 105 129 127
f 130 129 105
f 123 127 126
f 123 124 127
f 126 127 129
f 126 129 128
f 128 129 132
f 132 129 130
f 131 132 130
f 133 132 131
f 133 180 132
f 134 136 64
f 136 63 64
f 137 136 134
f 136 135 63
f 137 139 136
f 65 135 138
f 55 138 143
f 55 143 146
f 139 135 136
f 139 138 135
f 146 154 55
f 134 140 141
f 134 141 137
f 142 139 137
f 144 138 139
f 144 143 138
f 142 144 139
f 145 144 142
f 145 143 144
f 145 146 143
f 158 145 142
f 157 146 145
f 157 145 158
f 137 141 147
f 137 147 142
f 142 147 160
f 55 153 149
f 55 152 153
f 149 148 55
f 154 152 55
f 79 76 148
f 150 148 149
f 79 148 150
f 81 161 160
f 150 149 151
f 163 161 81
f 151 153 156
f 156 152 155
f 156 153 152
f 157 154 146
f 155 154 157
f 155 152 154
f 151 149 153
f 158 159 157
f 142 160 158
f 158 161 159
f 158 160 161
f 157 162 155
f 155 164 156
f 157 159 162
f 155 162 164
f 156 177 151
f 156 164 165
f 159 163 162
f 159 161 163
f 162 163 166
f 162 166 164
f 156 165 177
f 164 167 165
f 164 166 167
f 92 86 168
f 173 169 125
f 175 170 169
f 174 171 170
f 176 168 171
f 92 168 176
f 173 125 172
f 175 169 173
f 176 171 174
f 174 170 175
f 170 171 179
f 179 171 168
f 180 92 176
f 180 174 175
f 176 174 180
f 179 168 80
f 150 179 79
f 81 166 163
f 81 167 166
f 151 179 150
f 178 167 81
f 81 180 178
f 133 170 179
f 180 175 132
f 179 180 133
f 151 177 179
f 165 178 177
f 165 167 178
f 177 178 179
f 179 178 180
