# ff_medial_shaft.obj  (132 v, 256 f)  units: metres
v -0.002165064 0.036028381 0.068525821
v -0.002264179 0.039735157 0.068441719
v -0.002000008 0.039695557 0.067989059
v -0.002165064 0.039714303 0.068203345
v -0.001767767 0.035983257 0.068010025
v -0.001767767 0.039669178 0.067687549
v -0.001250000 0.035948630 0.067614242
v -0.000647048 0.035926864 0.067365445
v -0.001250000 0.039634552 0.067291766
v -0.001199298 0.039632723 0.067270845
v -0.000647048 0.039612785 0.067042969
v -0.000353465 0.035923492 0.067326941
v -0.002414815 0.036080934 0.069126479
v -0.002500000 0.036137328 0.069771066
v -0.002414815 0.036193721 0.070415653
v -0.002414815 0.039766856 0.068804003
v -0.002500000 0.039823249 0.069448590
v -0.002414815 0.039879642 0.070093177
v -0.002165064 0.036246274 0.071016312
v -0.002165064 0.039932195 0.070693836
v -0.002108055 0.039938670 0.070767850
v -0.002039153 0.039946496 0.070857301
v -0.001972518 0.039954063 0.070943810
v -0.001767767 0.036291398 0.071532108
v -0.001767767 0.039977320 0.071209632
v -0.001250000 0.036326025 0.071927890
v -0.000647048 0.036347792 0.072176695
v -0.001250000 0.040011946 0.071605414
v -0.000647048 0.040033717 0.071854219
v -0.002008375 0.059919260 0.066230662
v -0.002165064 0.059937056 0.066434085
v -0.002041077 0.062911555 0.066011652
v -0.002165064 0.062925644 0.066172615
v -0.001767767 0.062880516 0.065656818
v -0.001767767 0.059891932 0.065918289
v -0.002414815 0.059989609 0.067034744
v -0.002465041 0.060022861 0.067414798
v -0.002414815 0.062978193 0.066773273
v -0.002500000 0.063034587 0.067417860
v -0.002500000 0.060046002 0.067679331
v -0.002414815 0.060102396 0.068323910
v -0.002414815 0.063090980 0.068062447
v -0.000647048 0.059835538 0.065273702
v -0.001250000 0.059857305 0.065522507
v -0.001250000 0.062845886 0.065261036
v -0.000864914 0.059843402 0.065363601
v -0.000647048 0.062824123 0.065012239
v -0.000353465 0.062820755 0.064973734
v 0.000000000 0.062816694 0.064927377
v -0.002289939 0.060128670 0.068624243
v -0.002189354 0.060149837 0.068866149
v -0.002165064 0.060154948 0.068924569
v -0.002165064 0.063143529 0.068663105
v -0.001767767 0.060200073 0.069440372
v -0.001767767 0.063188657 0.069178902
v -0.001312025 0.060230549 0.069788739
v -0.001250000 0.060234699 0.069836155
v -0.001250000 0.063223287 0.069574684
v -0.000647048 0.060256466 0.070084952
v -0.000647048 0.063245051 0.069823489
v -0.000332922 0.063248657 0.069864683
v 0.000000000 0.060263891 0.070169814
v 0.000000000 0.063252471 0.069908351
v 0.000000000 0.035919439 0.067280583
v 0.000000000 0.039605360 0.066958107
v 0.000256784 0.039608307 0.066991784
v 0.000611925 0.039612383 0.067038357
v 0.000647048 0.035926864 0.067365445
v 0.000647048 0.039612785 0.067042969
v 0.001250000 0.035948630 0.067614242
v 0.001767767 0.035983257 0.068010025
v 0.001250000 0.039634552 0.067291766
v 0.001620316 0.039659318 0.067574836
v 0.001767767 0.039669178 0.067687549
v 0.002165064 0.036028385 0.068525821
v 0.002165064 0.039714307 0.068203345
v 0.002286104 0.039739776 0.068494454
v 0.000000000 0.036355216 0.072261557
v 0.000000000 0.040041141 0.071939081
v 0.000041740 0.040040661 0.071933605
v 0.000647048 0.036347792 0.072176695
v 0.000647048 0.040033717 0.071854219
v 0.001229667 0.040012680 0.071613804
v 0.002414815 0.036080934 0.069126479
v 0.002500000 0.036137328 0.069771066
v 0.002453465 0.036168136 0.070123188
v 0.002414815 0.036193721 0.070415653
v 0.002381916 0.039759934 0.068724886
v 0.002414815 0.039766856 0.068804003
v 0.002430934 0.039777528 0.068925984
v 0.002492837 0.039818507 0.069394395
v 0.002500000 0.039823249 0.069448590
v 0.002414815 0.039879642 0.070093177
v 0.001250000 0.036326025 0.071927890
v 0.001767767 0.036291398 0.071532108
v 0.001767767 0.039977320 0.071209632
v 0.001250000 0.040011946 0.071605414
v 0.002165064 0.036246274 0.071016312
v 0.002165064 0.039932195 0.070693836
v 0.002268821 0.039910361 0.070444293
v 0.000000000 0.059828114 0.065188840
v 0.000647048 0.059835538 0.065273702
v 0.000647048 0.062824123 0.065012239
v 0.001250000 0.059857305 0.065522507
v 0.001250000 0.062845886 0.065261036
v 0.001767767 0.062880516 0.065656818
v 0.001709479 0.059888035 0.065873735
v 0.001767767 0.059891932 0.065918289
v 0.002008375 0.059919260 0.066230662
v 0.002165064 0.059937056 0.066434085
v 0.002165064 0.062925637 0.066172615
v 0.002189354 0.059942167 0.066492505
v 0.002289938 0.059963334 0.066734411
v 0.002414815 0.059989609 0.067034744
v 0.002414815 0.062978193 0.066773273
v 0.002500000 0.063034587 0.067417860
v 0.002500000 0.060046002 0.067679331
v 0.002465041 0.060069144 0.067943856
v 0.002414815 0.060102396 0.068323910
v 0.002425019 0.060095642 0.068246700
v 0.002453465 0.063065395 0.067769982
v 0.002414815 0.063090980 0.068062447
v 0.000072833 0.060263056 0.070160262
v 0.000647048 0.060256466 0.070084952
v 0.000647048 0.063245051 0.069823489
v 0.001250000 0.060234699 0.069836155
v 0.001250000 0.063223280 0.069574684
v 0.001767767 0.060200073 0.069440365
v 0.001767767 0.063188657 0.069178902
v 0.002165064 0.060154948 0.068924569
v 0.002165064 0.063143529 0.068663105
v 0.002255308 0.060135957 0.068707533
f 6 3 10
f 9 6 10
f 11 10 3
f 4 2 11
f 3 4 11
f 2 16 67
f 16 17 67
f 65 11 2
f 66 65 2
f 2 67 66
f 69 67 21
f 72 69 22
f 13 1 81
f 14 13 81
f 17 18 67
f 18 20 67
f 15 14 81
f 19 15 81
f 5 7 81
f 1 5 81
f 20 21 67
f 69 21 22
f 22 23 73
f 7 8 81
f 8 12 81
f 23 25 77
f 24 19 81
f 26 24 78
f 26 78 27
f 24 81 78
f 25 28 77
f 53 33 38
f 42 38 39
f 42 53 38
f 53 55 33
f 34 32 61
f 33 61 32
f 55 58 33
f 58 60 33
f 31 30 109
f 36 31 112
f 46 43 102
f 44 46 108
f 30 35 109
f 35 44 109
f 45 34 129
f 37 36 112
f 40 37 113
f 41 40 113
f 50 41 113
f 51 50 118
f 52 51 118
f 63 34 61
f 34 63 125
f 60 61 33
f 54 52 118
f 56 54 118
f 57 56 120
f 73 72 22
f 68 70 71
f 85 12 64
f 64 68 75
f 68 71 75
f 64 75 84
f 74 73 23
f 95 94 12
f 98 95 12
f 76 74 23
f 77 76 23
f 94 81 12
f 28 29 77
f 29 79 77
f 79 80 88
f 80 82 88
f 85 86 12
f 87 12 86
f 85 64 84
f 87 98 12
f 79 88 77
f 82 89 88
f 82 90 89
f 96 99 90
f 99 91 90
f 100 92 91
f 99 100 91
f 100 93 92
f 82 83 90
f 97 90 83
f 97 96 90
f 43 101 102
f 46 102 104
f 47 45 131
f 47 122 48
f 104 107 46
f 108 46 107
f 103 49 116
f 44 108 109
f 31 109 110
f 31 110 112
f 49 48 121
f 34 125 127
f 34 127 129
f 37 112 113
f 113 114 50
f 117 50 114
f 117 118 50
f 45 129 131
f 105 103 116
f 115 106 105
f 116 49 121
f 115 111 106
f 105 116 115
f 122 121 48
f 47 131 122
f 59 57 120
f 59 120 62
f 118 120 56
f 62 132 123
f 124 123 132
f 62 119 132
f 62 120 119
f 126 130 128
f 126 124 132
f 126 132 130
f 4 1 2
f 1 3 5
f 3 1 4
f 9 5 6
f 5 9 7
f 6 5 3
f 9 10 7
f 11 7 10
f 7 11 8
f 65 12 8
f 65 8 11
f 65 64 12
f 13 2 1
f 16 13 14
f 2 13 16
f 16 14 17
f 17 14 15
f 17 15 18
f 18 15 19
f 18 19 20
f 24 21 19
f 20 19 21
f 24 22 21
f 24 23 22
f 23 24 25
f 26 25 24
f 25 26 28
f 28 26 29
f 27 29 26
f 27 78 29
f 29 78 79
f 36 33 31
f 36 38 33
f 31 32 30
f 31 33 32
f 30 32 34
f 45 35 34
f 35 45 44
f 30 34 35
f 37 38 36
f 40 39 37
f 38 37 39
f 41 39 40
f 50 42 41
f 41 42 39
f 42 50 53
f 47 44 45
f 47 46 44
f 46 47 43
f 43 47 48
f 43 48 49
f 43 49 101
f 53 50 51
f 52 53 51
f 54 53 52
f 54 55 53
f 56 55 54
f 57 58 56
f 55 56 58
f 59 58 57
f 58 59 60
f 59 62 60
f 62 61 60
f 62 63 61
f 64 66 68
f 66 64 65
f 68 66 67
f 68 67 69
f 68 69 72
f 68 72 70
f 70 72 73
f 70 73 71
f 71 73 74
f 71 76 75
f 71 74 76
f 75 76 77
f 78 81 80
f 78 80 79
f 81 82 80
f 94 82 81
f 94 83 82
f 94 97 83
f 75 77 84
f 85 84 90
f 84 77 88
f 84 88 89
f 84 89 90
f 85 90 91
f 85 93 86
f 87 86 93
f 85 91 92
f 85 92 93
f 87 93 100
f 95 97 94
f 95 96 97
f 98 96 95
f 98 99 96
f 87 100 98
f 98 100 99
f 101 49 103
f 101 103 102
f 102 103 105
f 102 105 104
f 104 105 106
f 104 106 107
f 106 108 107
f 108 106 109
f 109 111 110
f 110 111 112
f 111 109 106
f 111 113 112
f 115 113 111
f 113 115 114
f 117 114 116
f 114 115 116
f 117 116 118
f 118 122 120
f 119 120 122
f 119 122 132
f 116 121 118
f 118 121 122
f 131 132 122
f 62 123 63
f 124 63 123
f 124 125 63
f 126 125 124
f 126 127 125
f 128 129 127
f 128 127 126
f 130 129 128
f 130 131 129
f 132 131 130
