# ff_medial.obj  (766 v, 1528 f)  units: metres
v -0.008921321 0.035664830 0.064370379
v -0.009571639 0.035749655 0.065339945
v -0.009800000 0.035849717 0.066483624
v -0.008921321 0.037657220 0.064196065
v -0.009571639 0.037742045 0.065165631
v -0.009800000 0.037842106 0.066309310
v -0.007948050 0.035608150 0.063722536
v -0.007948050 0.037600540 0.063548222
v -0.006800000 0.035588246 0.063495040
v -0.006800000 0.037580639 0.063320726
v -0.009800000 0.038975131 0.079259843
v -0.009800000 0.039373606 0.079224981
v -0.008921321 0.039598353 0.081793852
v -0.007948050 0.039541677 0.081146002
v -0.009571639 0.039683182 0.082763419
v -0.009800000 0.039783239 0.083907098
v -0.006800000 0.039521772 0.080918513
v -0.004200000 0.035588246 0.063495040
v -0.004200000 0.037580639 0.063320726
v -0.002934443 0.038075358 0.068975396
v -0.002934443 0.038184080 0.070218116
v -0.002934443 0.039768886 0.068827227
v -0.002934443 0.039877612 0.070069954
v -0.001468736 0.035611693 0.063763022
v -0.001468736 0.037604082 0.063588709
v -0.002427051 0.037976030 0.067840107
v -0.001500000 0.037903283 0.067008570
v -0.000313585 0.037869684 0.066624545
v -0.002427051 0.038283404 0.071353398
v -0.001500000 0.038356155 0.072184943
v -0.000313585 0.038389754 0.072568968
v -0.002427051 0.039669562 0.067691945
v -0.001500000 0.039596811 0.066860400
v -0.000313585 0.039563216 0.066476382
v -0.002427051 0.039976936 0.071205236
v -0.001500000 0.040049687 0.072036780
v -0.000313585 0.040083285 0.072420806
v -0.009800000 0.038351085 0.095074415
v -0.009555283 0.038485751 0.096613616
v -0.008845085 0.038607232 0.098002158
v -0.007738926 0.038703639 0.099104106
v -0.009800000 0.041040812 0.094839089
v -0.009555283 0.041175473 0.096378297
v -0.008845085 0.041296955 0.097766832
v -0.007738926 0.041393366 0.098868787
v -0.006345085 0.038765535 0.099811599
v -0.006345085 0.041455261 0.099576280
v -0.009800000 0.042505030 0.111575164
v -0.009555283 0.042639691 0.113114372
v -0.008845085 0.042761173 0.114502907
v -0.007738926 0.042857580 0.115604855
v -0.005294011 0.041924369 0.106085546
v -0.005266760 0.041717201 0.106025495
v -0.005161789 0.041691057 0.105726644
v -0.005045426 0.041662075 0.105395369
v -0.005045426 0.041862451 0.105377838
v -0.005038567 0.041900862 0.105377786
v -0.005019037 0.041933998 0.105384335
v -0.004989807 0.041956823 0.105396464
v -0.004955329 0.041965853 0.105412342
v -0.005529318 0.041819166 0.107190929
v -0.005600000 0.041873842 0.107815869
v -0.005600000 0.042074218 0.107798338
v -0.005592388 0.042112339 0.107795008
v -0.005570711 0.042144660 0.107792176
v -0.005538268 0.042166255 0.107790291
v -0.005459596 0.041765235 0.106574491
v -0.005467998 0.041771732 0.106648773
v -0.005459596 0.041965611 0.106556959
v -0.005452175 0.042003881 0.106555313
v -0.005431041 0.042036623 0.106557295
v -0.005399412 0.042058844 0.106562600
v -0.005362104 0.042067170 0.106570415
v -0.005459596 0.041982446 0.109057248
v -0.005500000 0.042173836 0.107789628
v -0.005459596 0.042182826 0.109039716
v -0.005452175 0.042220797 0.109034695
v -0.005431041 0.042252697 0.109027058
v -0.005399412 0.042273663 0.109017976
v -0.005362104 0.042280503 0.109008826
v -0.005294011 0.042224068 0.109511130
v -0.006345085 0.042919479 0.116312355
v -0.005045426 0.042085607 0.110236369
v -0.005045426 0.042285983 0.110218838
v -0.005038567 0.042323820 0.110212214
v -0.005019037 0.042355318 0.110200018
v -0.004989807 0.042375688 0.110184103
v -0.004955329 0.042381823 0.110166900
v -0.004800000 0.038786866 0.100055389
v -0.004800000 0.041476592 0.099820063
v -0.001884891 0.041417487 0.102599718
v -0.001719331 0.041412435 0.102542005
v -0.001719331 0.041612815 0.102524474
v -0.001643477 0.041410122 0.102515563
v -0.001246117 0.041398004 0.102377050
v -0.001246117 0.041598383 0.102359518
v -0.001244423 0.041637152 0.102363572
v -0.001239600 0.041671313 0.102381803
v -0.001232381 0.041695666 0.102411419
v -0.001223865 0.041706499 0.102447927
v -0.000000000 0.041385770 0.102237180
v -0.000000000 0.041586146 0.102219649
v -0.000000000 0.041624930 0.102223895
v -0.000000000 0.041659139 0.102242664
v -0.000000000 0.041683562 0.102273092
v -0.000000000 0.041694481 0.102310553
v -0.004378256 0.041569531 0.104337618
v -0.004361700 0.041568089 0.104321122
v -0.004378256 0.041769911 0.104320087
v -0.004372305 0.041808445 0.104321480
v -0.004355357 0.041841943 0.104332112
v -0.004329992 0.041865300 0.104350373
v -0.004300073 0.041874964 0.104373477
v -0.004871537 0.041637953 0.105119675
v -0.004695375 0.041613519 0.104840383
v -0.004527550 0.041590240 0.104574308
v -0.004511421 0.041788381 0.104531206
v -0.004159783 0.041550491 0.104119971
v -0.003491543 0.041492250 0.103454269
v -0.003491543 0.041692626 0.103436738
v -0.003400275 0.041487254 0.103397146
v -0.003384973 0.041486416 0.103387564
v -0.003486797 0.041731268 0.103439339
v -0.003473281 0.041765064 0.103453390
v -0.003453054 0.041788869 0.103476770
v -0.003429194 0.041799061 0.103505909
v -0.003279612 0.041480646 0.103321612
v -0.003279612 0.041681021 0.103304081
v -0.003029289 0.041466936 0.103164926
v -0.002852254 0.041457240 0.103054106
v -0.002510265 0.041687354 0.105684318
v -0.002521910 0.041689113 0.105704412
v -0.002593985 0.041699991 0.105828777
v -0.002575036 0.041697133 0.105796084
v -0.002556816 0.041694380 0.105764642
v -0.002539102 0.041691706 0.105734080
v -0.002510265 0.043101583 0.105560593
v -0.003119078 0.041784413 0.106793717
v -0.003079276 0.041776069 0.106698357
v -0.003092868 0.041778918 0.106730923
v -0.003300000 0.041873842 0.107815869
v -0.003268194 0.041858122 0.107636176
v -0.003280599 0.041864254 0.107706264
v -0.003150704 0.041947637 0.108659342
v -0.003150884 0.041947547 0.108658329
v -0.003119078 0.041963268 0.108838022
v -0.003031210 0.041765995 0.106583193
v -0.002945294 0.041753024 0.106434949
v -0.003031210 0.041981686 0.109048545
v -0.003004853 0.041985665 0.109094024
v -0.004555399 0.042153578 0.111013278
v -0.004511421 0.042360056 0.111065470
v -0.004378256 0.042178150 0.111294128
v -0.004378256 0.042378526 0.111276597
v -0.004372305 0.042416234 0.111268528
v -0.004355357 0.042447377 0.111252241
v -0.004329992 0.042467207 0.111230202
v -0.004300073 0.042472713 0.111205772
v -0.004074767 0.042204600 0.111596465
v -0.004800000 0.042940807 0.116556138
v -0.003518469 0.042253084 0.112150647
v -0.003491543 0.042255431 0.112177469
v -0.003491543 0.042455807 0.112159938
v -0.003486797 0.042493410 0.112150669
v -0.003473281 0.042524256 0.112130962
v -0.003453054 0.042543638 0.112103805
v -0.003429194 0.042548612 0.112073332
v -0.003386183 0.042261202 0.112243421
v -0.003279612 0.042267039 0.112310126
v -0.003279612 0.042467415 0.112292595
v -0.002607512 0.042045645 0.109779619
v -0.002510265 0.042060327 0.109947413
v -0.002491822 0.042061675 0.109962836
v -0.002929426 0.042286217 0.112529323
v -0.002429749 0.041434102 0.102789640
v -0.002429749 0.041634481 0.102772109
v -0.002426446 0.041673198 0.102775611
v -0.002417041 0.041707221 0.102792241
v -0.002402965 0.041731365 0.102819465
v -0.002386361 0.041741952 0.102853149
v -0.002430546 0.041681524 0.105617680
v -0.002378634 0.041677728 0.105574287
v -0.001712132 0.041628987 0.105017155
v -0.001682206 0.041627910 0.105004855
v -0.001544312 0.041622952 0.104948170
v -0.001500000 0.041621357 0.104929961
v -0.001342941 0.041616373 0.104873009
v -0.001712132 0.043043215 0.104893431
v -0.001500000 0.043043215 0.104805566
v -0.000651201 0.041594431 0.104622200
v -0.000520945 0.041590299 0.104574971
v -0.000441881 0.041590299 0.104574971
v -0.000353806 0.041590299 0.104574971
v -0.000520945 0.043012157 0.104450576
v -0.001861123 0.042107802 0.110490039
v -0.002429749 0.042313579 0.112842098
v -0.002429749 0.042513955 0.112824567
v -0.002426446 0.042551480 0.112814397
v -0.002417041 0.042582098 0.112792112
v -0.002402965 0.042601146 0.112761110
v -0.002386361 0.042605724 0.112726092
v -0.002076565 0.042324353 0.112965211
v -0.001712132 0.042118698 0.110614583
v -0.001714296 0.042118542 0.110612772
v -0.001500000 0.042126328 0.110701784
v -0.001719331 0.042335246 0.113089733
v -0.001719331 0.042535622 0.113072202
v -0.001246117 0.042349678 0.113254689
v -0.001246117 0.042550053 0.113237157
v -0.001232381 0.042636845 0.113169149
v -0.001244423 0.042587530 0.113226436
v -0.001239600 0.042618006 0.113202550
v -0.000770924 0.042149454 0.110966131
v -0.000708120 0.042151447 0.110988908
v -0.000520945 0.042157385 0.111056775
v -0.001223865 0.042641174 0.113131322
v -0.000626612 0.042355761 0.113324225
v -0.000000000 0.042361915 0.113394558
v -0.000000000 0.042562291 0.113377027
v -0.000000000 0.042599749 0.113366112
v -0.000000000 0.042630181 0.113341689
v -0.000000000 0.042648945 0.113307476
v -0.000000000 0.042653196 0.113268696
v -0.002770738 0.043246970 0.106116094
v -0.002510265 0.043313716 0.105772726
v -0.003119078 0.043180224 0.106671594
v -0.003300000 0.043269653 0.107693754
v -0.003212132 0.043481786 0.107693754
v -0.003119078 0.043359078 0.108715907
v -0.003031210 0.043180224 0.106459461
v -0.003031210 0.043392356 0.106671594
v -0.002819078 0.043480225 0.106671594
v -0.003000000 0.043569654 0.107693754
v -0.003031210 0.043571211 0.108715907
v -0.003031210 0.043359078 0.108928040
v -0.002819078 0.043659080 0.108715907
v -0.002510265 0.043649852 0.109614775
v -0.002510265 0.043437719 0.109826908
v -0.002298133 0.043313716 0.105560593
v -0.002298133 0.043401584 0.105772726
v -0.001899067 0.043328464 0.105333082
v -0.001500000 0.043255348 0.104893431
v -0.001500000 0.043343216 0.105105564
v -0.002298133 0.043737721 0.109614775
v -0.001010472 0.043283753 0.104822002
v -0.000520945 0.043224290 0.104538441
v -0.000520945 0.043312158 0.104750574
v -0.002298133 0.043649852 0.109826908
v -0.002005133 0.043679036 0.110054426
v -0.001712132 0.043496087 0.110494077
v -0.001712132 0.043708220 0.110281944
v -0.001500000 0.043496087 0.110581942
v -0.001500000 0.043708220 0.110494077
v -0.001500000 0.043796089 0.110281944
v -0.000520945 0.043527145 0.110936932
v -0.000520945 0.043739278 0.110849068
v -0.000520945 0.043827146 0.110636935
v -0.009571639 0.060455285 0.063178480
v -0.009800000 0.060555343 0.064322159
v -0.008921321 0.060370460 0.062208913
v -0.007948050 0.060313780 0.061561070
v -0.009571639 0.062646911 0.062986739
v -0.009800000 0.062746972 0.064130418
v -0.008921321 0.062562086 0.062017169
v -0.007948050 0.062505409 0.061369326
v -0.006800000 0.060293876 0.061333578
v -0.006800000 0.062485505 0.061141834
v -0.009800000 0.060043383 0.079123102
v -0.009571639 0.060204793 0.080968007
v -0.009800000 0.061836533 0.078966223
v -0.008921321 0.060119964 0.079998441
v -0.007948050 0.060063288 0.079350598
v -0.009800000 0.060304850 0.082111686
v -0.006800000 0.060043383 0.079123102
v -0.004200000 0.060293876 0.061333578
v -0.003800000 0.060046002 0.067679331
v -0.003800000 0.060842957 0.067609601
v -0.003510742 0.059919260 0.066230662
v -0.002687006 0.059811816 0.065002546
v -0.003510742 0.060716216 0.066160940
v -0.002687006 0.060608771 0.064932823
v -0.003510742 0.060172744 0.069127992
v -0.003510742 0.060969699 0.069058269
v -0.002687006 0.060280189 0.070356108
v -0.002687006 0.061077148 0.070286386
v -0.004200000 0.062485505 0.061141834
v -0.001454197 0.059740022 0.064181946
v -0.001468736 0.060317323 0.061601561
v -0.001454197 0.060536977 0.064112224
v -0.000000000 0.059714809 0.063893788
v -0.000000000 0.060511768 0.063824065
v -0.001454197 0.060351983 0.071176708
v -0.001454197 0.061148942 0.071106985
v -0.000000000 0.060377195 0.071464866
v -0.000000000 0.061174151 0.071395144
v -0.001468736 0.062508948 0.061409816
v -0.009800000 0.062757857 0.092939094
v -0.009555283 0.062892519 0.094478302
v -0.009800000 0.065248340 0.092721209
v -0.009555283 0.065383010 0.094260409
v -0.008845085 0.065504491 0.095648952
v -0.008845085 0.063014001 0.095866837
v -0.007738926 0.063110411 0.096968792
v -0.007738926 0.065600894 0.096750900
v -0.006345085 0.063172303 0.097676285
v -0.006345085 0.065662794 0.097458392
v -0.009800000 0.064222075 0.109675169
v -0.009555283 0.064356737 0.111214370
v -0.008845085 0.064478219 0.112602912
v -0.007738926 0.064574629 0.113704860
v -0.006345085 0.064636521 0.114412352
v -0.004800000 0.063193634 0.097920068
v -0.004800000 0.065684125 0.097702183
v -0.002445716 0.063124843 0.102658503
v -0.002233584 0.062912710 0.102658503
v -0.002445716 0.063604519 0.102616541
v -0.001703924 0.062845252 0.102495722
v -0.001386397 0.063077800 0.102120809
v -0.001386397 0.063557483 0.102078848
v -0.001174265 0.062777802 0.102332942
v -0.001174265 0.062865667 0.102120809
v -0.001174265 0.063077800 0.102032945
v -0.001174265 0.063549854 0.101991646
v -0.000000000 0.062849462 0.101935528
v -0.000000000 0.062761597 0.102147661
v -0.000587132 0.062963635 0.101984233
v -0.000478727 0.063540250 0.101881899
v -0.000000000 0.063061595 0.101847664
v -0.000000000 0.063533641 0.101806365
v -0.004012132 0.063180648 0.105933204
v -0.004100000 0.063392781 0.105933204
v -0.003914015 0.063290440 0.104763411
v -0.003826147 0.063078307 0.104763411
v -0.003826147 0.063290440 0.104551278
v -0.003963073 0.063235544 0.105348304
v -0.003800000 0.063092783 0.105933204
v -0.003914015 0.063788533 0.104719833
v -0.003826147 0.063770115 0.104509309
v -0.003826147 0.063282996 0.107102998
v -0.003914015 0.063495129 0.107102998
v -0.003826147 0.063495129 0.107315131
v -0.004100000 0.063890882 0.105889626
v -0.003914015 0.063993223 0.107059419
v -0.003826147 0.064011641 0.107269943
v -0.003286397 0.063198112 0.103495985
v -0.003286397 0.062985979 0.103708118
v -0.003074265 0.062898114 0.103708118
v -0.003286397 0.063677795 0.103454024
v -0.003614015 0.062990442 0.104763411
v -0.003614015 0.063195132 0.107102998
v -0.003556272 0.063435227 0.107736707
v -0.003074265 0.063287459 0.108158290
v -0.003286397 0.063375324 0.108158290
v -0.003286397 0.063587457 0.108370423
v -0.003074265 0.063375324 0.108370423
v -0.003286397 0.064103968 0.108325236
v -0.004800000 0.064657852 0.114656143
v -0.002233584 0.062824845 0.102870636
v -0.002445716 0.062912710 0.102870636
v -0.002445716 0.063660726 0.109207906
v -0.002233584 0.063360728 0.108995773
v -0.002233584 0.063448593 0.109207906
v -0.002445716 0.064177237 0.109162711
v -0.002072953 0.064193793 0.109351918
v -0.001174265 0.063407771 0.109533466
v -0.001386397 0.063707769 0.109745599
v -0.001386397 0.064224280 0.109700412
v -0.001301468 0.064026833 0.109752864
v -0.001174265 0.063495636 0.109745599
v -0.001174265 0.063707769 0.109833464
v -0.000587132 0.063609809 0.109882176
v -0.000000000 0.063423976 0.109718747
v -0.000000000 0.063511841 0.109930880
v -0.000000000 0.063723974 0.110018745
v -0.001174265 0.064231910 0.109787613
v -0.000772297 0.064237460 0.109851032
v -0.000000000 0.064248122 0.109972887
v 0.001157568 0.035681129 0.064556673
v 0.001157568 0.037673518 0.064382359
v 0.000927051 0.037881050 0.066754445
v 0.002007392 0.037935410 0.067375802
v 0.000927051 0.038378388 0.072439067
v 0.002007392 0.038324028 0.071817704
v 0.000927051 0.039574578 0.066606276
v 0.002007392 0.039628942 0.067227639
v 0.000927051 0.040071920 0.072290905
v 0.002007392 0.040017556 0.071669541
v 0.003577983 0.035793886 0.065845490
v 0.003577983 0.037786275 0.065671176
v 0.002740636 0.038023371 0.068381190
v 0.003000000 0.038129717 0.069596753
v 0.002740636 0.038236067 0.070812322
v 0.002740636 0.039716903 0.068233028
v 0.003000000 0.039823249 0.069448590
v 0.002740636 0.039929599 0.070664160
v 0.005699495 0.035945632 0.067579940
v 0.005699495 0.037938021 0.067405634
v 0.007440574 0.036130533 0.069693379
v 0.007440574 0.038122922 0.069519073
v 0.008734314 0.036341485 0.072104588
v 0.009530994 0.036570381 0.074720897
v 0.008734314 0.038333874 0.071930274
v 0.009530994 0.038562775 0.074546583
v 0.006800000 0.039521772 0.080918513
v 0.009800000 0.036808427 0.077441767
v 0.009800000 0.038800817 0.077267453
v 0.009800000 0.038975131 0.079259843
v 0.007948050 0.039541677 0.081146002
v 0.008921321 0.039598353 0.081793852
v 0.009800000 0.039373606 0.079224981
v 0.009571639 0.039683182 0.082763419
v 0.009800000 0.039783239 0.083907098
v 0.001086067 0.041198332 0.102376416
v 0.001172068 0.041163895 0.102396354
v 0.001177377 0.041161768 0.102397583
v 0.000125559 0.041387003 0.102251269
v 0.000135753 0.041387103 0.102252416
v 0.000861962 0.041325454 0.102339946
v 0.001223865 0.041706499 0.102447927
v 0.001241986 0.041147031 0.102417171
v 0.001244423 0.041162428 0.102405109
v 0.001246117 0.041199904 0.102394380
v 0.001547551 0.041141342 0.102536336
v 0.001649944 0.041141767 0.102577232
v 0.001719331 0.041214336 0.102559336
v 0.001842814 0.041141070 0.102657154
v 0.001862708 0.041140981 0.102665432
v 0.001246117 0.041598383 0.102359518
v 0.001244423 0.041637152 0.102363572
v 0.001239600 0.041671313 0.102381803
v 0.001232381 0.041695666 0.102411419
v 0.001719331 0.041612815 0.102524474
v 0.004800000 0.038786866 0.100055389
v 0.004800000 0.041476592 0.099820063
v 0.000472725 0.041590299 0.104574971
v 0.000520945 0.041590299 0.104574971
v 0.000520945 0.043012157 0.104450576
v 0.000678003 0.041595280 0.104631916
v 0.000740993 0.041597281 0.104654752
v 0.002109403 0.041139860 0.102768101
v 0.002155867 0.041160032 0.102785997
v 0.002353944 0.041145727 0.102869272
v 0.002367999 0.041160032 0.102873862
v 0.002367999 0.041146066 0.102875084
v 0.002402964 0.041148812 0.102870435
v 0.002393363 0.041146163 0.102890678
v 0.002417041 0.041167859 0.102839425
v 0.002426446 0.041198477 0.102817141
v 0.001500000 0.041621357 0.104929961
v 0.001534184 0.041622587 0.104944013
v 0.001587123 0.041624490 0.104965769
v 0.001712132 0.041628987 0.105017155
v 0.001833538 0.041637864 0.105118640
v 0.001500000 0.043043215 0.104805566
v 0.001606066 0.042196449 0.104923576
v 0.001712132 0.043043215 0.104893431
v 0.002155867 0.041372165 0.102873862
v 0.002155867 0.041460034 0.103085995
v 0.002429749 0.041236002 0.102806970
v 0.002429749 0.041634481 0.102772109
v 0.002426446 0.041673198 0.102775611
v 0.002386361 0.041741952 0.102853149
v 0.002402965 0.041731365 0.102819465
v 0.002417041 0.041707221 0.102792241
v 0.001843763 0.041638613 0.105127193
v 0.000103687 0.042157385 0.111056775
v 0.000321756 0.042157385 0.111056775
v 0.000520945 0.042157385 0.111056775
v 0.000770924 0.042149454 0.110966131
v 0.000619504 0.042355832 0.113325022
v 0.001223865 0.042641174 0.113131322
v 0.001312824 0.042132266 0.110769644
v 0.001500000 0.042126328 0.110701784
v 0.001712132 0.042118698 0.110614583
v 0.001714296 0.042118542 0.110612772
v 0.001719331 0.042335246 0.113089733
v 0.001719331 0.042535622 0.113072202
v 0.002361274 0.042071223 0.110071957
v 0.002072516 0.042324476 0.112966627
v 0.002429749 0.042313579 0.112842098
v 0.002429749 0.042513955 0.112824567
v 0.002386361 0.042605724 0.112726092
v 0.002402965 0.042601146 0.112761110
v 0.002426446 0.042551480 0.112814397
v 0.002417041 0.042582098 0.112792112
v 0.001246117 0.042349678 0.113254689
v 0.001246117 0.042550053 0.113237157
v 0.001232381 0.042636845 0.113169149
v 0.001239600 0.042618006 0.113202550
v 0.001244423 0.042587530 0.113226436
v 0.002838351 0.041171100 0.103162229
v 0.003453053 0.041206319 0.103527740
v 0.003447965 0.041205257 0.103534237
v 0.003473281 0.041225702 0.103500582
v 0.003474130 0.041208085 0.103550084
v 0.003477586 0.041208457 0.103552178
v 0.003536670 0.041222449 0.103587300
v 0.002510265 0.041687354 0.105684318
v 0.002521096 0.041688990 0.105703011
v 0.002596181 0.041700322 0.105832562
v 0.002632004 0.041705731 0.105894379
v 0.002510265 0.043101583 0.105560593
v 0.003279612 0.041282542 0.103338949
v 0.003279612 0.041681021 0.103304081
v 0.003486797 0.041256547 0.103480868
v 0.003491543 0.041294150 0.103471607
v 0.003491543 0.041692626 0.103436738
v 0.003592983 0.041233674 0.103626437
v 0.003614931 0.041238047 0.103641696
v 0.003429194 0.041799061 0.103505909
v 0.003473281 0.041765064 0.103453390
v 0.003453054 0.041788869 0.103476770
v 0.003486797 0.041731268 0.103439339
v 0.003031210 0.041765995 0.106583193
v 0.003031210 0.041981686 0.109048545
v 0.003046054 0.041978575 0.109012976
v 0.003047436 0.041978285 0.109009668
v 0.002933963 0.041996367 0.109216340
v 0.003061693 0.042253077 0.108951204
v 0.003084919 0.041777253 0.106711879
v 0.003117908 0.041784167 0.106790915
v 0.003119078 0.041784413 0.106793717
v 0.003130015 0.041789819 0.106855512
v 0.003150884 0.041800134 0.106973410
v 0.003297877 0.041872792 0.107803874
v 0.003300000 0.041873842 0.107815869
v 0.003268194 0.041889563 0.107995562
v 0.003282686 0.041882399 0.107913688
v 0.003069394 0.041973680 0.108957060
v 0.003119078 0.041963268 0.108838022
v 0.003101362 0.041966982 0.108880468
v 0.003716166 0.041268703 0.103718124
v 0.003752493 0.041279703 0.103745557
v 0.003814017 0.041308638 0.103797980
v 0.003849555 0.041325353 0.103828259
v 0.004048984 0.041452214 0.104017347
v 0.004028994 0.041472204 0.104017347
v 0.004028994 0.041560072 0.104229480
v 0.004112791 0.041467592 0.104080051
v 0.004177924 0.041483290 0.104144059
v 0.004378256 0.041509934 0.104342833
v 0.004300073 0.041874964 0.104373477
v 0.004329992 0.041865300 0.104350373
v 0.004355357 0.041841943 0.104332112
v 0.004378256 0.041769911 0.104320087
v 0.004372305 0.041808445 0.104321480
v 0.004511421 0.041559245 0.104551256
v 0.004511421 0.041788381 0.104531206
v 0.004635578 0.041605223 0.104745582
v 0.002519049 0.042059001 0.109932259
v 0.002510265 0.042060327 0.109947413
v 0.002491822 0.042061675 0.109962836
v 0.002546974 0.042054784 0.109884076
v 0.002929426 0.042286217 0.112529323
v 0.003279612 0.042267039 0.112310126
v 0.003279612 0.042467415 0.112292595
v 0.003491543 0.042255431 0.112177469
v 0.003518469 0.042253084 0.112150647
v 0.003429194 0.042548612 0.112073332
v 0.003473281 0.042524256 0.112130962
v 0.003491543 0.042455807 0.112159938
v 0.003486797 0.042493410 0.112150669
v 0.003453054 0.042543638 0.112103805
v 0.003385184 0.042261258 0.112244040
v 0.004074767 0.042204600 0.111596465
v 0.004628517 0.042143434 0.110897355
v 0.004342463 0.042181268 0.111329786
v 0.004378256 0.042178150 0.111294128
v 0.004378256 0.042378526 0.111276597
v 0.004300073 0.042472713 0.111205772
v 0.004355357 0.042447377 0.111252241
v 0.004329992 0.042467207 0.111230202
v 0.004372305 0.042416234 0.111268528
v 0.004511421 0.042360056 0.111065470
v 0.004800000 0.042940807 0.116556138
v 0.000520945 0.043224290 0.104538441
v 0.000520945 0.043312158 0.104750574
v 0.001500000 0.043255348 0.104893431
v 0.001500000 0.043343216 0.105105564
v 0.001899067 0.043328464 0.105333082
v 0.002298133 0.043313716 0.105560593
v 0.002298133 0.043401584 0.105772726
v 0.002298133 0.043737721 0.109614775
v 0.000520945 0.043527145 0.110936932
v 0.000520945 0.043739278 0.110849068
v 0.000520945 0.043827146 0.110636935
v 0.001010472 0.043767683 0.110565506
v 0.001500000 0.043496087 0.110581942
v 0.001500000 0.043708220 0.110494077
v 0.001500000 0.043796089 0.110281944
v 0.001712132 0.043496087 0.110494077
v 0.001712132 0.043708220 0.110281944
v 0.002298133 0.043649852 0.109826908
v 0.002510265 0.043313716 0.105772726
v 0.002819078 0.043480225 0.106671594
v 0.003031210 0.043180224 0.106459461
v 0.003031210 0.043392356 0.106671594
v 0.003000000 0.043569654 0.107693754
v 0.002510265 0.043649852 0.109614775
v 0.003031210 0.043571211 0.108715907
v 0.003031210 0.043359078 0.108928040
v 0.002819078 0.043659080 0.108715907
v 0.003119078 0.043180224 0.106671594
v 0.003212132 0.043481786 0.107693754
v 0.003300000 0.043269653 0.107693754
v 0.003119078 0.043359078 0.108715907
v 0.002510265 0.043437719 0.109826908
v 0.006345085 0.038765535 0.099811599
v 0.006345085 0.041455261 0.099576280
v 0.009800000 0.038351085 0.095074415
v 0.007738926 0.038703639 0.099104106
v 0.008845085 0.038607232 0.098002158
v 0.009555283 0.038485751 0.096613616
v 0.009800000 0.041040812 0.094839089
v 0.007738926 0.041393366 0.098868787
v 0.009555283 0.041175473 0.096378297
v 0.008845085 0.041296955 0.097766832
v 0.005045426 0.041662075 0.105395369
v 0.005150457 0.041688237 0.105694391
v 0.005045426 0.041862451 0.105377838
v 0.005019037 0.041933998 0.105384335
v 0.005038567 0.041900862 0.105377786
v 0.004955329 0.041965853 0.105412342
v 0.004989807 0.041956823 0.105396464
v 0.005205554 0.041701958 0.105851248
v 0.005294011 0.041924369 0.106085546
v 0.005459596 0.041765235 0.106574491
v 0.005431041 0.042036623 0.106557295
v 0.005362104 0.042067170 0.106570415
v 0.005399412 0.042058844 0.106562600
v 0.005459596 0.041965611 0.106556959
v 0.005452175 0.042003881 0.106555313
v 0.005464068 0.041978989 0.109017707
v 0.005459596 0.041982450 0.109057248
v 0.005500000 0.042173836 0.107789628
v 0.005294011 0.042224068 0.109511130
v 0.005362104 0.042280503 0.109008826
v 0.005399412 0.042273663 0.109017976
v 0.005431041 0.042252697 0.109027058
v 0.005452175 0.042220797 0.109034695
v 0.005459596 0.042182826 0.109039716
v 0.005522490 0.041813884 0.107130565
v 0.005565882 0.041847453 0.107514217
v 0.005600000 0.041873842 0.107815869
v 0.005538268 0.042166255 0.107790291
v 0.005570711 0.042144660 0.107792176
v 0.005600000 0.042074218 0.107798338
v 0.005592388 0.042112339 0.107795008
v 0.005524560 0.041932195 0.108482867
v 0.005045426 0.042085607 0.110236369
v 0.005006028 0.042091072 0.110298835
v 0.005214838 0.042043410 0.109754063
v 0.004955329 0.042381823 0.110166900
v 0.005045426 0.042285983 0.110218838
v 0.004989807 0.042375688 0.110184103
v 0.005038567 0.042323820 0.110212214
v 0.005019037 0.042355318 0.110200018
v 0.006345085 0.042919479 0.116312355
v 0.007738926 0.042857580 0.115604855
v 0.009800000 0.042505030 0.111575164
v 0.008845085 0.042761173 0.114502907
v 0.009555283 0.042639691 0.113114372
v 0.001157568 0.060386758 0.062395208
v 0.001454197 0.059740022 0.064181946
v 0.001454197 0.060536977 0.064112224
v 0.001454197 0.060351983 0.071176708
v 0.001454197 0.061148942 0.071106985
v 0.001157568 0.062578388 0.062203467
v 0.002687006 0.059811816 0.065002546
v 0.003510742 0.059919260 0.066230662
v 0.003577983 0.060499515 0.063684024
v 0.002687006 0.060608771 0.064932823
v 0.003510742 0.060716216 0.066160940
v 0.003800000 0.060046002 0.067679331
v 0.003800000 0.060842957 0.067609601
v 0.002687006 0.060280189 0.070356108
v 0.002687006 0.061077148 0.070286386
v 0.003510742 0.060172744 0.069127992
v 0.003510742 0.060969699 0.069058269
v 0.003577983 0.062691145 0.063492283
v 0.005699495 0.060651258 0.065418482
v 0.005699495 0.062842891 0.065226734
v 0.007440574 0.060836162 0.067531921
v 0.008734314 0.061047114 0.069943123
v 0.009530994 0.061276011 0.072559431
v 0.007440574 0.063027792 0.067340173
v 0.008734314 0.063238740 0.069751382
v 0.009530994 0.063467644 0.072367691
v 0.006800000 0.060043383 0.079123102
v 0.007948050 0.060063288 0.079350598
v 0.009800000 0.061514057 0.075280301
v 0.008921321 0.060119964 0.079998441
v 0.009800000 0.060043383 0.079123102
v 0.009571639 0.060204793 0.080968007
v 0.009800000 0.061836533 0.078966223
v 0.009800000 0.060304850 0.082111686
v 0.009800000 0.063705683 0.075088561
v 0.001174265 0.062777802 0.102332942
v 0.000695532 0.063543245 0.101916105
v 0.001174265 0.062865667 0.102120809
v 0.001174265 0.063077800 0.102032945
v 0.001174265 0.063549854 0.101991646
v 0.001703924 0.062845252 0.102495722
v 0.001386397 0.063077800 0.102120809
v 0.001386397 0.063557483 0.102078848
v 0.002233584 0.062912710 0.102658503
v 0.002445716 0.063124843 0.102658503
v 0.002445716 0.063604519 0.102616541
v 0.004800000 0.063193634 0.097920068
v 0.004800000 0.065684125 0.097702183
v 0.001174265 0.063407771 0.109533466
v 0.002233584 0.062824845 0.102870636
v 0.002445716 0.062912710 0.102870636
v 0.001809990 0.063578181 0.109476753
v 0.002233584 0.063360728 0.108995773
v 0.002233584 0.063448593 0.109207906
v 0.002445716 0.063660726 0.109207906
v 0.001759160 0.064207725 0.109511204
v 0.002445716 0.064177237 0.109162711
v 0.001174265 0.063495636 0.109745599
v 0.001174265 0.063707769 0.109833464
v 0.000401974 0.064242572 0.109909460
v 0.001174265 0.064231910 0.109787613
v 0.001386397 0.063707769 0.109745599
v 0.001386397 0.064224280 0.109700412
v 0.003286397 0.063198112 0.103495985
v 0.003074265 0.062898114 0.103708118
v 0.003286397 0.062985979 0.103708118
v 0.003286397 0.063677795 0.103454024
v 0.003614015 0.062990442 0.104763411
v 0.003614015 0.063195132 0.107102998
v 0.003074265 0.063287459 0.108158290
v 0.003074265 0.063375324 0.108370423
v 0.003286397 0.063375324 0.108158290
v 0.003286397 0.063587457 0.108370423
v 0.003286397 0.064103968 0.108325236
v 0.003826147 0.063078307 0.104763411
v 0.003826147 0.063290440 0.104551278
v 0.003914015 0.063290440 0.104763411
v 0.003800000 0.063092783 0.105933204
v 0.003826147 0.063770115 0.104509309
v 0.003914015 0.063788533 0.104719833
v 0.004012132 0.063180648 0.105933204
v 0.004100000 0.063392781 0.105933204
v 0.003826147 0.063282996 0.107102998
v 0.003826147 0.063495129 0.107315131
v 0.003914015 0.063495129 0.107102998
v 0.004100000 0.063890882 0.105889626
v 0.003826147 0.064011641 0.107269943
v 0.003914015 0.063993223 0.107059419
v 0.004800000 0.064657852 0.114656143
v 0.006345085 0.063172303 0.097676285
v 0.006345085 0.065662794 0.097458392
v 0.009800000 0.062757857 0.092939094
v 0.009555283 0.062892519 0.094478302
v 0.008845085 0.065504491 0.095648952
v 0.009800000 0.065248340 0.092721209
v 0.009555283 0.065383010 0.094260409
v 0.007738926 0.063110411 0.096968792
v 0.007738926 0.065600894 0.096750900
v 0.008845085 0.063014001 0.095866837
v 0.006345085 0.064636521 0.114412352
v 0.007738926 0.064574629 0.113704860
v 0.008845085 0.064478219 0.112602912
v 0.009800000 0.064222075 0.109675169
v 0.009555283 0.064356737 0.111214370
f 1 4 8
f 2 3 5
f 1 3 2
f 3 6 5
f 2 5 4
f 1 7 3
f 1 2 4
f 4 5 6
f 1 8 7
f 3 7 9
f 7 8 10
f 3 11 6
f 6 11 21
f 7 10 9
f 3 9 18
f 4 6 20
f 4 20 8
f 9 10 18
f 10 19 18
f 8 26 10
f 6 21 20
f 11 29 21
f 3 38 11
f 3 18 38
f 11 38 16
f 11 16 12
f 12 15 13
f 12 13 14
f 12 14 17
f 12 16 15
f 18 46 38
f 13 15 271
f 13 272 14
f 15 16 269
f 16 38 273
f 14 274 17
f 10 26 19
f 8 20 26
f 18 19 25
f 19 26 27
f 11 30 29
f 11 31 30
f 20 21 22
f 20 22 32
f 21 23 22
f 20 32 26
f 21 29 23
f 11 382 31
f 22 23 35
f 23 29 35
f 18 25 24
f 19 27 25
f 26 32 33
f 26 33 27
f 24 25 379
f 25 27 28
f 27 33 34
f 27 34 28
f 25 28 379
f 29 30 35
f 30 31 36
f 22 34 32
f 32 34 33
f 22 384 34
f 22 35 384
f 30 36 35
f 35 36 393
f 31 37 36
f 11 12 410
f 18 405 46
f 12 17 410
f 38 39 42
f 38 46 39
f 39 46 40
f 40 46 41
f 39 43 42
f 39 40 43
f 40 44 43
f 42 43 48
f 43 44 48
f 40 41 44
f 41 45 44
f 41 46 45
f 45 46 47
f 46 89 47
f 47 89 90
f 44 45 48
f 45 47 48
f 48 80 49
f 49 88 50
f 47 60 48
f 48 73 75
f 48 75 80
f 48 60 73
f 47 113 60
f 52 54 53
f 57 70 71
f 52 70 57
f 56 114 55
f 52 56 54
f 56 55 54
f 52 57 56
f 57 71 58
f 58 72 59
f 59 73 60
f 63 61 62
f 63 69 61
f 63 64 69
f 64 65 70
f 65 66 71
f 63 62 74
f 63 77 64
f 64 78 65
f 69 67 68
f 52 67 69
f 69 68 61
f 52 69 70
f 64 70 69
f 65 71 70
f 66 72 71
f 72 75 73
f 52 53 67
f 58 71 72
f 59 72 73
f 66 75 72
f 63 74 76
f 63 76 77
f 76 74 83
f 76 83 81
f 65 79 66
f 66 80 75
f 64 77 78
f 65 78 79
f 66 79 80
f 76 81 77
f 77 86 78
f 77 81 85
f 78 87 79
f 79 88 80
f 49 80 88
f 50 158 51
f 50 88 158
f 77 85 86
f 78 86 87
f 81 83 84
f 81 84 85
f 79 87 88
f 51 158 167
f 51 167 82
f 38 42 273
f 42 48 297
f 48 49 307
f 49 50 308
f 50 51 309
f 51 82 310
f 82 160 311
f 47 90 180
f 47 126 113
f 47 180 126
f 90 100 180
f 46 610 89
f 89 434 90
f 93 175 176
f 93 176 177
f 90 106 100
f 93 91 175
f 97 177 178
f 98 178 179
f 99 179 180
f 93 92 91
f 93 177 97
f 93 94 92
f 97 178 98
f 98 179 99
f 93 96 94
f 99 180 100
f 96 95 94
f 93 97 96
f 90 419 106
f 96 102 95
f 96 97 102
f 97 98 103
f 98 99 104
f 99 100 105
f 102 101 95
f 97 103 102
f 98 104 103
f 99 105 104
f 100 106 105
f 109 107 116
f 109 108 107
f 109 118 108
f 109 117 110
f 56 115 114
f 56 57 117
f 56 117 115
f 57 58 110
f 58 59 111
f 59 60 112
f 57 110 117
f 117 116 115
f 58 111 110
f 59 112 111
f 60 113 112
f 109 116 117
f 109 120 118
f 109 110 120
f 110 111 123
f 111 112 124
f 112 113 125
f 120 119 118
f 110 123 120
f 111 124 123
f 112 125 124
f 113 126 125
f 120 121 119
f 120 122 121
f 120 128 122
f 120 123 128
f 128 127 122
f 128 129 127
f 123 177 128
f 123 124 177
f 124 125 178
f 125 126 179
f 128 130 129
f 128 176 130
f 124 178 177
f 125 179 178
f 128 177 176
f 176 175 130
f 126 180 179
f 84 83 151
f 84 152 85
f 85 156 86
f 86 157 87
f 87 158 88
f 84 151 152
f 85 152 155
f 85 155 156
f 152 151 153
f 86 156 157
f 87 157 158
f 152 153 154
f 152 154 155
f 154 153 159
f 154 159 163
f 154 164 155
f 155 165 156
f 156 166 157
f 157 167 158
f 163 159 161
f 154 163 164
f 155 164 165
f 156 165 166
f 157 166 167
f 82 167 160
f 163 161 162
f 163 162 168
f 163 170 164
f 163 168 170
f 170 168 169
f 170 169 174
f 164 170 198
f 165 200 166
f 164 199 165
f 166 201 167
f 170 174 197
f 164 198 199
f 165 199 200
f 170 197 198
f 166 200 201
f 197 174 196
f 160 167 201
f 160 201 216
f 197 196 202
f 197 207 198
f 197 202 207
f 200 216 201
f 199 210 200
f 198 212 199
f 207 202 206
f 198 207 211
f 198 211 212
f 199 212 210
f 200 210 216
f 207 206 208
f 207 208 209
f 207 209 211
f 209 208 217
f 209 220 211
f 211 221 212
f 210 212 222
f 209 217 219
f 210 223 216
f 212 221 222
f 209 219 220
f 211 220 221
f 210 222 223
f 219 217 218
f 160 216 575
f 15 269 271
f 13 271 272
f 14 272 274
f 16 273 269
f 258 262 264
f 258 259 262
f 258 264 260
f 260 264 265
f 260 265 261
f 258 280 259
f 261 265 267
f 259 270 263
f 259 277 270
f 259 263 262
f 262 263 265
f 262 265 264
f 263 267 265
f 258 260 280
f 260 261 280
f 261 267 266
f 261 266 281
f 266 267 275
f 267 286 275
f 259 280 277
f 270 277 283
f 270 283 285
f 263 286 267
f 263 306 286
f 268 273 270
f 268 271 269
f 268 269 273
f 268 272 271
f 268 270 274
f 268 274 272
f 263 270 299
f 270 273 299
f 263 299 306
f 286 306 313
f 17 274 689
f 261 281 280
f 266 275 289
f 276 277 280
f 266 289 281
f 275 286 296
f 278 280 281
f 276 280 278
f 278 281 279
f 276 282 277
f 270 285 293
f 270 293 295
f 277 282 283
f 282 284 283
f 283 284 285
f 279 289 287
f 276 278 670
f 275 288 291
f 275 291 289
f 275 296 288
f 279 281 289
f 276 670 282
f 287 291 290
f 278 279 670
f 279 287 670
f 287 289 291
f 288 665 291
f 288 296 668
f 284 292 285
f 285 292 293
f 282 674 284
f 292 294 293
f 284 674 292
f 293 294 295
f 270 689 274
f 270 295 695
f 286 313 710
f 42 297 273
f 48 307 297
f 49 308 307
f 50 309 308
f 51 310 309
f 82 311 310
f 160 357 311
f 273 297 299
f 297 298 299
f 298 302 300
f 298 300 299
f 299 300 301
f 300 302 301
f 299 301 304
f 299 304 306
f 297 307 298
f 298 307 302
f 302 307 303
f 303 307 305
f 301 302 303
f 301 303 304
f 305 307 312
f 303 305 304
f 304 305 306
f 305 312 306
f 306 312 313
f 307 308 312
f 308 309 312
f 309 310 312
f 310 311 312
f 311 357 312
f 160 751 357
f 312 337 338
f 312 338 348
f 312 348 316
f 312 316 319
f 312 319 323
f 312 323 327
f 312 327 329
f 312 329 699
f 312 710 313
f 312 699 702
f 312 342 337
f 312 357 342
f 357 343 342
f 357 344 343
f 357 356 344
f 357 363 356
f 357 364 363
f 357 367 364
f 357 375 367
f 357 376 375
f 357 751 376
f 24 379 378
f 28 380 379
f 28 34 384
f 28 384 380
f 378 379 389
f 380 384 385
f 380 385 381
f 379 380 389
f 380 381 389
f 381 385 393
f 31 382 37
f 18 24 405
f 383 392 387
f 382 383 386
f 35 385 384
f 36 37 393
f 35 393 385
f 37 386 393
f 37 382 386
f 386 387 393
f 383 387 386
f 378 389 388
f 381 393 390
f 381 390 397
f 388 389 397
f 381 397 389
f 24 378 405
f 390 394 391
f 390 393 394
f 391 395 392
f 391 394 395
f 378 388 405
f 390 391 399
f 391 392 402
f 382 407 383
f 383 406 392
f 387 394 393
f 387 392 395
f 387 395 394
f 11 407 382
f 11 410 407
f 17 404 410
f 17 689 404
f 388 397 396
f 388 396 398
f 390 399 397
f 388 398 400
f 396 397 399
f 388 400 401
f 396 399 398
f 391 402 399
f 392 403 402
f 398 402 400
f 388 401 405
f 398 399 402
f 392 406 403
f 400 403 401
f 400 402 403
f 383 407 406
f 401 406 405
f 401 403 406
f 405 406 407
f 405 407 610
f 407 412 610
f 404 408 410
f 408 409 410
f 409 411 410
f 407 410 412
f 410 411 412
f 404 690 408
f 408 692 409
f 409 694 411
f 411 696 412
f 422 414 413
f 421 415 414
f 421 420 415
f 421 414 422
f 90 434 419
f 102 416 101
f 102 417 416
f 102 103 428
f 103 104 429
f 104 105 430
f 105 106 431
f 102 428 417
f 428 418 417
f 103 429 428
f 104 430 429
f 105 431 430
f 106 419 431
f 422 413 418
f 422 418 428
f 89 433 434
f 421 423 420
f 421 422 425
f 421 447 423
f 421 425 448
f 447 424 423
f 447 426 424
f 421 448 447
f 422 428 425
f 428 429 432
f 425 428 432
f 429 430 461
f 430 431 464
f 429 461 432
f 419 463 431
f 425 432 459
f 430 464 461
f 431 463 464
f 432 460 459
f 432 461 460
f 46 405 610
f 89 610 433
f 419 434 462
f 434 510 462
f 434 609 510
f 510 609 542
f 447 427 426
f 445 440 427
f 425 459 448
f 445 427 447
f 445 442 440
f 445 446 444
f 445 444 442
f 419 462 463
f 219 218 470
f 220 489 221
f 221 488 222
f 219 490 220
f 222 471 223
f 219 470 487
f 219 487 490
f 220 490 489
f 221 489 488
f 222 488 471
f 487 470 486
f 216 223 575
f 471 488 482
f 483 488 489
f 485 489 490
f 477 476 479
f 477 484 490
f 482 488 483
f 483 489 485
f 484 485 490
f 477 479 481
f 477 481 484
f 481 479 480
f 487 486 476
f 477 490 487
f 477 487 476
f 223 471 575
f 445 491 446
f 447 448 494
f 445 447 492
f 445 492 491
f 447 494 492
f 448 505 494
f 492 493 491
f 492 495 493
f 492 494 496
f 492 496 495
f 494 497 496
f 494 508 497
f 448 459 503
f 459 460 503
f 460 461 504
f 462 512 463
f 460 504 503
f 463 511 464
f 461 464 513
f 448 503 505
f 461 513 504
f 503 504 506
f 462 510 512
f 464 511 513
f 463 512 511
f 503 506 505
f 504 507 506
f 494 505 509
f 505 506 533
f 494 509 508
f 505 532 509
f 505 533 532
f 506 507 535
f 504 513 507
f 506 534 533
f 506 535 534
f 507 536 535
f 507 539 536
f 507 540 539
f 510 543 512
f 507 513 545
f 511 512 544
f 511 546 513
f 507 545 540
f 510 542 543
f 512 543 544
f 511 544 546
f 513 546 545
f 545 541 540
f 545 548 541
f 545 546 548
f 548 547 541
f 548 549 547
f 542 624 543
f 544 622 546
f 543 621 544
f 546 622 548
f 548 620 549
f 542 623 624
f 543 624 621
f 544 621 622
f 548 622 620
f 481 480 554
f 481 556 484
f 482 483 559
f 484 560 485
f 483 485 563
f 481 554 556
f 556 554 555
f 484 556 562
f 484 562 560
f 483 563 559
f 485 560 563
f 556 555 564
f 561 564 557
f 561 557 558
f 556 561 562
f 556 564 561
f 471 482 575
f 561 558 565
f 559 563 570
f 561 573 562
f 560 572 563
f 560 562 571
f 561 565 569
f 563 572 570
f 560 571 572
f 562 573 571
f 561 569 573
f 569 565 567
f 569 567 568
f 569 574 573
f 571 573 657
f 569 568 566
f 569 566 574
f 570 572 653
f 571 655 572
f 573 574 656
f 574 566 651
f 571 657 655
f 573 656 657
f 574 651 654
f 574 654 656
f 572 655 653
f 482 559 658
f 482 658 575
f 160 575 751
f 433 610 608
f 433 608 434
f 434 608 609
f 609 611 615
f 608 611 609
f 608 610 611
f 610 613 611
f 611 613 612
f 610 616 613
f 412 614 610
f 610 614 616
f 611 612 615
f 612 617 615
f 612 613 617
f 613 616 617
f 614 660 616
f 616 660 617
f 542 609 623
f 620 618 549
f 620 619 618
f 620 622 626
f 620 625 619
f 620 626 625
f 623 630 624
f 621 624 628
f 621 632 622
f 626 631 625
f 622 632 626
f 621 628 632
f 609 629 623
f 623 629 630
f 624 630 628
f 631 627 625
f 631 642 627
f 626 632 631
f 629 645 630
f 628 648 632
f 631 632 647
f 628 630 646
f 629 635 645
f 630 645 646
f 636 652 634
f 641 633 649
f 641 634 633
f 636 634 641
f 635 638 645
f 635 637 638
f 638 639 645
f 639 640 646
f 640 641 648
f 636 640 656
f 637 655 638
f 639 656 640
f 638 657 639
f 636 641 640
f 647 643 642
f 647 644 643
f 631 647 642
f 628 646 648
f 632 648 647
f 647 649 644
f 641 647 648
f 640 648 646
f 641 649 647
f 639 646 645
f 609 660 629
f 629 660 635
f 635 660 637
f 654 651 650
f 654 650 652
f 636 656 654
f 637 653 655
f 636 654 652
f 638 655 657
f 639 657 656
f 559 570 659
f 559 659 658
f 637 660 653
f 570 653 662
f 570 661 659
f 609 615 660
f 615 617 660
f 570 662 661
f 653 660 662
f 412 754 614
f 614 754 660
f 575 658 751
f 658 659 762
f 659 661 763
f 660 766 662
f 661 662 764
f 290 665 664
f 287 290 670
f 288 663 665
f 290 291 665
f 288 668 663
f 290 664 669
f 290 669 670
f 663 672 665
f 664 665 672
f 663 668 680
f 282 670 674
f 664 672 669
f 294 666 295
f 292 674 294
f 295 666 667
f 294 676 666
f 666 676 667
f 294 674 676
f 667 676 677
f 286 697 296
f 663 671 672
f 663 680 671
f 669 672 673
f 669 673 670
f 671 673 672
f 670 673 675
f 671 681 673
f 670 675 674
f 673 681 675
f 676 678 677
f 674 678 676
f 677 678 679
f 674 679 678
f 674 675 679
f 295 667 695
f 667 677 695
f 668 682 680
f 296 697 668
f 671 680 682
f 668 686 682
f 270 695 689
f 286 710 757
f 404 689 690
f 408 690 692
f 409 692 694
f 411 694 696
f 412 696 757
f 671 682 681
f 675 681 683
f 681 686 683
f 675 684 679
f 677 679 685
f 675 683 684
f 679 684 685
f 677 685 691
f 668 687 686
f 681 682 686
f 668 688 687
f 668 697 688
f 683 687 684
f 677 691 695
f 683 686 687
f 684 687 688
f 684 688 685
f 685 697 691
f 685 688 697
f 286 757 697
f 689 693 690
f 689 695 693
f 690 693 692
f 692 693 694
f 693 696 694
f 693 757 696
f 691 697 695
f 693 695 757
f 695 697 757
f 312 702 709
f 312 709 710
f 709 702 705
f 709 705 708
f 709 708 729
f 709 729 741
f 709 741 742
f 751 377 376
f 751 722 377
f 751 723 722
f 709 742 748
f 709 748 751
f 751 748 750
f 751 718 725
f 751 719 718
f 751 725 723
f 751 736 719
f 751 749 736
f 751 750 749
f 412 757 754
f 658 762 751
f 659 763 762
f 660 754 765
f 661 764 763
f 660 765 766
f 662 766 764
f 709 752 710
f 710 752 753
f 709 766 752
f 752 759 753
f 710 753 758
f 753 759 760
f 710 758 757
f 754 758 755
f 755 756 761
f 754 757 758
f 755 758 756
f 752 765 759
f 753 760 756
f 759 761 760
f 756 760 761
f 753 756 758
f 754 755 765
f 759 765 761
f 755 761 765
f 709 751 762
f 709 762 763
f 709 763 764
f 709 764 766
f 752 766 765
f 139 53 54
f 148 54 55
f 133 114 115
f 148 55 114
f 135 115 116
f 136 107 108
f 132 108 118
f 135 116 107
f 138 67 53
f 138 68 67
f 143 61 68
f 144 62 61
f 144 74 62
f 144 83 74
f 142 143 68
f 143 141 61
f 141 145 61
f 138 142 68
f 147 139 54
f 139 140 53
f 140 138 53
f 148 147 54
f 144 61 145
f 132 118 119
f 181 119 121
f 133 148 114
f 136 135 107
f 136 108 132
f 134 133 115
f 134 115 135
f 182 121 122
f 183 122 127
f 183 127 129
f 184 129 130
f 131 132 119
f 131 119 181
f 182 181 121
f 183 182 122
f 134 135 137
f 134 137 133
f 136 137 135
f 131 137 132
f 136 132 137
f 131 181 137
f 148 137 230
f 133 137 148
f 144 146 151
f 140 226 138
f 139 226 140
f 147 226 139
f 143 227 141
f 142 227 143
f 138 226 142
f 142 226 227
f 141 227 145
f 144 145 227
f 144 229 146
f 146 229 149
f 144 227 229
f 148 230 147
f 147 230 226
f 149 235 150
f 150 235 171
f 149 229 235
f 171 235 238
f 144 151 83
f 171 153 151
f 171 159 153
f 146 149 151
f 149 150 151
f 150 171 151
f 171 172 159
f 173 161 159
f 172 173 159
f 173 195 161
f 171 238 172
f 172 238 173
f 204 162 161
f 203 168 162
f 203 169 168
f 205 174 169
f 184 130 175
f 185 175 91
f 183 129 184
f 184 175 185
f 182 137 181
f 183 188 182
f 188 137 182
f 185 91 186
f 187 186 91
f 190 91 92
f 190 92 94
f 187 91 190
f 183 184 189
f 184 185 189
f 185 186 189
f 187 189 186
f 183 189 188
f 192 94 95
f 190 94 191
f 191 94 192
f 187 190 191
f 187 191 194
f 187 194 189
f 189 194 242
f 192 95 101
f 192 101 416
f 192 416 193
f 191 192 194
f 192 193 194
f 193 437 194
f 195 204 161
f 203 162 204
f 203 205 169
f 173 238 195
f 195 238 250
f 213 196 174
f 195 250 204
f 203 204 250
f 203 250 205
f 205 250 252
f 205 252 213
f 205 213 174
f 213 214 196
f 466 202 196
f 466 206 202
f 213 252 214
f 214 252 255
f 214 215 196
f 215 466 196
f 466 208 206
f 214 255 215
f 215 255 466
f 255 467 466
f 466 217 208
f 466 218 217
f 230 137 224
f 224 137 225
f 232 225 240
f 226 231 228
f 226 228 227
f 227 228 234
f 228 233 234
f 227 234 229
f 230 224 231
f 230 231 226
f 231 232 228
f 224 225 231
f 231 225 232
f 232 233 228
f 229 234 235
f 234 238 235
f 233 236 234
f 234 237 238
f 234 236 244
f 234 244 237
f 137 239 225
f 239 240 225
f 188 239 137
f 239 241 240
f 242 241 239
f 243 240 241
f 188 242 239
f 188 189 242
f 242 243 241
f 242 245 243
f 242 246 245
f 243 245 247
f 242 194 246
f 245 246 247
f 194 576 246
f 246 576 247
f 232 240 583
f 232 583 233
f 233 583 236
f 236 583 244
f 243 583 240
f 238 237 248
f 237 249 248
f 238 253 250
f 238 248 253
f 237 251 249
f 237 244 254
f 237 254 251
f 248 249 253
f 250 253 252
f 249 251 253
f 251 254 253
f 252 253 255
f 253 254 256
f 253 256 255
f 254 257 256
f 244 583 254
f 255 256 585
f 257 586 256
f 315 358 317
f 321 314 315
f 314 319 316
f 358 320 317
f 321 317 320
f 321 315 317
f 318 319 314
f 318 314 321
f 318 321 322
f 318 322 323
f 318 323 319
f 325 320 358
f 321 320 324
f 321 326 322
f 322 327 323
f 325 324 320
f 325 358 698
f 321 324 326
f 322 326 328
f 322 328 329
f 322 329 327
f 326 324 328
f 332 331 335
f 335 331 330
f 331 337 342
f 333 334 332
f 333 332 335
f 333 330 349
f 333 335 330
f 349 330 336
f 334 338 332
f 332 337 331
f 332 338 337
f 331 342 340
f 330 331 339
f 330 350 336
f 330 339 350
f 331 340 339
f 340 342 343
f 339 340 341
f 340 343 341
f 339 341 351
f 341 343 344
f 333 345 334
f 333 346 345
f 333 349 347
f 333 347 346
f 334 348 338
f 334 345 348
f 347 349 336
f 347 336 350
f 346 359 345
f 346 347 358
f 345 316 348
f 345 359 314
f 346 358 359
f 345 314 316
f 339 352 350
f 339 353 352
f 339 351 353
f 341 354 351
f 341 344 354
f 347 350 352
f 351 354 353
f 353 354 355
f 353 355 352
f 347 352 361
f 354 362 355
f 352 355 362
f 354 360 362
f 352 362 361
f 354 344 356
f 354 356 363
f 354 363 360
f 359 315 314
f 359 358 315
f 347 361 365
f 362 360 369
f 361 362 369
f 347 365 372
f 360 366 369
f 361 369 365
f 360 363 366
f 366 363 364
f 366 364 367
f 347 712 358
f 347 372 711
f 366 370 369
f 366 367 368
f 366 368 370
f 368 367 375
f 369 370 371
f 365 369 372
f 369 371 373
f 370 374 371
f 369 373 372
f 371 374 373
f 368 375 370
f 370 375 374
f 374 375 376
f 374 376 377
f 414 415 420
f 413 424 418
f 457 417 418
f 414 424 413
f 414 420 423
f 414 423 424
f 441 418 424
f 441 457 418
f 435 416 417
f 193 416 435
f 435 417 436
f 193 435 437
f 435 436 437
f 194 437 576
f 436 417 458
f 436 458 438
f 438 458 439
f 436 438 454
f 438 439 454
f 436 454 437
f 437 454 576
f 443 424 426
f 427 443 426
f 441 424 443
f 443 427 440
f 441 443 457
f 443 440 442
f 443 442 444
f 443 444 446
f 457 458 417
f 439 458 449
f 458 450 449
f 458 451 450
f 458 452 451
f 439 449 454
f 449 450 455
f 450 451 455
f 451 452 455
f 452 453 456
f 449 455 454
f 452 456 455
f 455 456 454
f 458 453 452
f 453 465 502
f 465 498 502
f 453 502 456
f 255 584 467
f 467 584 468
f 468 584 469
f 466 470 218
f 469 584 472
f 472 584 588
f 466 467 476
f 467 468 476
f 466 486 470
f 468 469 476
f 466 476 486
f 473 472 588
f 473 588 474
f 474 591 475
f 474 588 591
f 469 479 476
f 469 472 554
f 469 480 479
f 473 474 564
f 474 475 558
f 475 591 478
f 473 555 472
f 478 591 607
f 469 554 480
f 443 446 491
f 443 491 497
f 443 497 508
f 443 508 509
f 491 493 495
f 491 495 496
f 491 496 497
f 457 443 509
f 458 538 453
f 457 537 458
f 453 538 465
f 498 499 502
f 499 500 502
f 465 538 498
f 538 499 498
f 500 501 596
f 502 500 596
f 457 509 532
f 457 532 533
f 457 533 534
f 457 534 535
f 457 535 537
f 458 537 538
f 499 618 500
f 500 618 501
f 501 619 514
f 529 517 519
f 501 514 596
f 514 520 596
f 515 518 601
f 515 601 516
f 516 601 517
f 517 601 519
f 607 601 518
f 529 519 531
f 531 519 530
f 515 651 518
f 520 521 596
f 521 522 596
f 522 523 603
f 523 524 603
f 524 525 605
f 528 527 605
f 525 526 605
f 526 528 605
f 522 603 596
f 524 605 603
f 527 530 606
f 530 519 606
f 527 606 605
f 519 601 606
f 537 535 536
f 537 536 539
f 537 539 540
f 537 541 538
f 537 540 541
f 538 549 499
f 499 549 618
f 501 618 619
f 538 541 547
f 538 547 549
f 520 619 625
f 514 619 520
f 520 625 521
f 521 625 522
f 522 625 523
f 523 642 524
f 524 642 525
f 525 643 526
f 526 643 528
f 527 649 530
f 515 516 651
f 516 517 652
f 529 652 517
f 529 531 634
f 531 530 633
f 528 649 527
f 523 625 627
f 523 627 642
f 525 642 643
f 528 643 644
f 529 634 652
f 528 644 649
f 530 649 633
f 531 633 634
f 475 478 558
f 552 565 478
f 552 478 607
f 552 607 551
f 550 607 553
f 550 551 607
f 607 518 553
f 472 555 554
f 473 564 555
f 474 557 564
f 474 558 557
f 552 551 567
f 550 567 551
f 550 553 566
f 553 518 566
f 552 567 565
f 478 565 558
f 550 568 567
f 550 566 568
f 518 651 566
f 516 652 650
f 516 650 651
f 247 576 577
f 576 578 577
f 576 454 578
f 577 578 579
f 243 247 583
f 247 577 583
f 454 456 578
f 578 580 579
f 578 456 581
f 578 581 580
f 579 580 582
f 456 502 581
f 581 582 580
f 579 582 595
f 581 594 582
f 581 502 594
f 577 579 583
f 579 595 602
f 579 602 583
f 254 583 257
f 255 585 584
f 256 586 585
f 257 590 586
f 586 587 585
f 584 585 589
f 584 589 588
f 586 590 587
f 257 583 590
f 585 587 589
f 587 590 589
f 588 589 591
f 589 590 592
f 593 591 589
f 593 589 592
f 599 592 590
f 583 599 590
f 593 607 591
f 593 599 607
f 593 592 599
f 502 596 594
f 594 597 582
f 582 597 595
f 594 596 597
f 596 603 597
f 595 597 598
f 595 598 602
f 607 599 600
f 583 602 599
f 598 604 602
f 604 600 602
f 607 600 601
f 606 601 600
f 599 602 600
f 603 605 597
f 597 604 598
f 597 605 604
f 605 600 604
f 605 606 600
f 325 700 324
f 358 712 698
f 328 699 329
f 324 700 328
f 325 698 700
f 328 701 699
f 328 700 701
f 701 702 699
f 700 698 703
f 698 712 703
f 700 704 701
f 701 704 705
f 701 705 702
f 700 707 704
f 700 703 706
f 704 708 705
f 703 712 706
f 700 706 707
f 704 707 708
f 347 727 712
f 347 730 727
f 347 711 715
f 347 715 732
f 347 732 731
f 347 740 730
f 347 731 740
f 706 712 713
f 706 713 707
f 711 720 716
f 720 714 716
f 711 716 715
f 724 717 714
f 714 717 716
f 724 718 717
f 717 718 719
f 372 373 720
f 373 374 720
f 372 720 711
f 374 721 720
f 374 377 721
f 721 377 722
f 721 722 723
f 720 721 724
f 720 724 714
f 721 723 724
f 724 723 725
f 724 725 718
f 713 728 707
f 712 728 713
f 707 729 708
f 712 727 728
f 707 728 726
f 707 726 729
f 727 737 728
f 727 730 737
f 728 738 726
f 728 737 738
f 726 738 729
f 738 741 729
f 715 716 733
f 716 717 735
f 715 733 732
f 716 735 733
f 717 736 735
f 732 734 731
f 731 734 745
f 734 735 745
f 735 746 745
f 732 733 734
f 733 735 734
f 735 736 746
f 717 719 736
f 746 736 749
f 730 743 737
f 737 739 738
f 737 743 739
f 730 740 743
f 738 739 742
f 738 742 741
f 739 748 742
f 739 743 744
f 739 744 748
f 731 743 740
f 731 745 743
f 743 745 747
f 744 747 750
f 745 746 747
f 747 746 749
f 743 747 744
f 744 750 748
f 747 749 750
