# ff_medial_pad.obj  (48 v, 92 f)  units: metres
v 0.009300000 0.039093446 0.077743761
v 0.009651472 0.039019492 0.076898463
v 0.009651472 0.038248144 0.077817716
v 0.010500000 0.038174190 0.076972418
v 0.010500000 0.038988858 0.076548330
v 0.010500000 0.037898012 0.077848352
v 0.009300000 0.040976010 0.099261567
v 0.009651472 0.040130712 0.099335521
v 0.009651472 0.041049965 0.100106865
v 0.010500000 0.039780576 0.099366158
v 0.010500000 0.040204667 0.100180820
v 0.010500000 0.041080598 0.100457005
v 0.009300000 0.061607447 0.075774044
v 0.009651472 0.061533492 0.074928746
v 0.009651472 0.062452745 0.075700089
v 0.010500000 0.061502859 0.074578606
v 0.010500000 0.062378790 0.074854791
v 0.010500000 0.062802881 0.075669453
v 0.009651472 0.064335309 0.097217895
v 0.009300000 0.063490011 0.097291850
v 0.009651472 0.063563965 0.098137148
v 0.010500000 0.064685442 0.097187258
v 0.010500000 0.063594595 0.098487280
v 0.010500000 0.064409263 0.098063193
v 0.012600000 0.038174190 0.076972418
v 0.012600000 0.038988858 0.076548330
v 0.012600000 0.037898012 0.077848352
v 0.013448528 0.039019492 0.076898463
v 0.013800000 0.039093446 0.077743761
v 0.013448528 0.038248144 0.077817716
v 0.012600000 0.039780576 0.099366158
v 0.012600000 0.040204667 0.100180820
v 0.012600000 0.041080598 0.100457005
v 0.013448528 0.040130712 0.099335521
v 0.013448528 0.041049965 0.100106865
v 0.013800000 0.040976010 0.099261567
v 0.012600000 0.061502859 0.074578606
v 0.012600000 0.062378790 0.074854791
v 0.012600000 0.062802881 0.075669453
v 0.013448528 0.061533492 0.074928746
v 0.013448528 0.062452745 0.075700089
v 0.013800000 0.061607447 0.075774044
v 0.012600000 0.064685442 0.097187258
v 0.012600000 0.063594595 0.098487280
v 0.012600000 0.064409263 0.098063193
v 0.013448528 0.064335309 0.097217895
v 0.013448528 0.063563965 0.098137148
v 0.013800000 0.063490011 0.097291850
f 1 2 3
f 3 2 4
f 2 5 4
f 3 4 6
f 1 3 8
f 3 6 8
f 1 14 2
f 2 14 5
f 4 5 26
f 4 25 6
f 1 8 7
f 6 10 8
f 7 8 9
f 8 11 9
f 8 10 11
f 9 11 12
f 1 7 20
f 7 9 21
f 9 12 21
f 6 31 10
f 10 32 11
f 11 32 12
f 12 33 23
f 1 13 14
f 5 14 16
f 1 20 13
f 13 15 14
f 14 15 17
f 14 17 16
f 15 18 17
f 13 20 15
f 15 22 18
f 5 16 37
f 16 17 38
f 17 18 38
f 18 22 39
f 7 21 20
f 12 23 21
f 15 20 19
f 15 19 22
f 20 21 19
f 21 24 19
f 19 24 22
f 21 23 24
f 22 24 43
f 23 44 24
f 4 26 25
f 6 25 27
f 6 27 31
f 5 37 26
f 25 26 28
f 25 30 27
f 25 28 30
f 30 28 29
f 27 30 31
f 30 29 36
f 26 37 28
f 28 42 29
f 29 42 36
f 10 31 32
f 12 32 33
f 30 34 31
f 30 36 34
f 31 34 32
f 32 35 33
f 32 34 35
f 34 36 35
f 33 35 44
f 35 36 48
f 16 38 37
f 18 39 38
f 28 37 40
f 28 40 42
f 37 38 40
f 38 39 41
f 38 41 40
f 40 41 42
f 39 46 41
f 41 48 42
f 23 33 44
f 22 43 39
f 24 45 43
f 24 44 45
f 36 42 48
f 35 47 44
f 35 48 47
f 39 43 46
f 41 46 48
f 43 45 46
f 44 47 45
f 45 47 46
f 47 48 46
