# ff_proximal_shaft.obj  (64 v, 124 f)  units: metres
v -0.002007789 0.033396117 0.014344100
v -0.002165064 0.033413980 0.014548283
v -0.001767767 0.033368856 0.014032487
v -0.001250000 0.033334225 0.013636702
v -0.001170910 0.033331372 0.013604066
v -0.000800130 0.033317987 0.013451069
v -0.000647048 0.033312459 0.013387902
v -0.002414815 0.033466533 0.015148941
v -0.002489129 0.033515729 0.015711267
v -0.002500000 0.033522926 0.015793527
v -0.002414815 0.033579320 0.016438112
v -0.002165064 0.033631869 0.017038770
v -0.001976159 0.033653326 0.017284019
v -0.001767767 0.033676997 0.017554566
v -0.001328761 0.033706356 0.017890146
v -0.001250000 0.033711623 0.017950352
v -0.000886960 0.033724729 0.018100156
v -0.000647048 0.033733390 0.018199153
v -0.002165064 0.055728745 0.012595993
v -0.001767767 0.055683617 0.012080197
v -0.002414815 0.055781294 0.013196652
v -0.002500000 0.055837687 0.013841237
v -0.002414815 0.055894081 0.014485822
v -0.001250000 0.055648990 0.011684412
v -0.000647048 0.055627223 0.011435611
v -0.002165064 0.055946633 0.015086480
v -0.001767767 0.055991758 0.015602277
v -0.001250000 0.056026384 0.015998062
v -0.000647048 0.056048155 0.016246863
v 0.000000000 0.033305034 0.013303041
v 0.000190320 0.033307217 0.013328001
v 0.000647048 0.033312459 0.013387902
v 0.001170910 0.033331372 0.013604066
v 0.001250000 0.033334225 0.013636702
v 0.001767767 0.033368856 0.014032487
v 0.002007789 0.033396117 0.014344100
v 0.002165064 0.033413980 0.014548283
v 0.000000000 0.033740815 0.018284013
v 0.000122255 0.033739410 0.018267980
v 0.000499183 0.033735085 0.018218545
v 0.000647048 0.033733390 0.018199153
v 0.000886960 0.033724729 0.018100156
v 0.002414815 0.033466533 0.015148941
v 0.002489129 0.033515729 0.015711267
v 0.002500000 0.033522926 0.015793527
v 0.002414815 0.033579320 0.016438112
v 0.001250000 0.033711623 0.017950352
v 0.001328761 0.033706356 0.017890146
v 0.001767767 0.033676997 0.017554566
v 0.001976159 0.033653326 0.017284019
v 0.002165064 0.033631869 0.017038770
v 0.000000000 0.055619799 0.011350750
v 0.000647048 0.055627223 0.011435611
v 0.001250000 0.055648990 0.011684412
v 0.001767767 0.055683617 0.012080197
v 0.002165064 0.055728745 0.012595993
v 0.002414815 0.055781294 0.013196652
v 0.002500000 0.055837687 0.013841237
v 0.002414815 0.055894081 0.014485822
v 0.000000000 0.056055579 0.016331723
v 0.000647048 0.056048155 0.016246863
v 0.001767767 0.055991758 0.015602277
v 0.001250000 0.056026384 0.015998062
v 0.002165064 0.055946633 0.015086480
f 10 9 13
f 14 9 8
f 11 10 13
f 8 2 15
f 2 1 15
f 16 1 3
f 3 4 17
f 11 13 12
f 14 13 9
f 14 8 15
f 16 15 1
f 16 3 17
f 4 5 17
f 18 5 6
f 7 40 6
f 7 30 40
f 18 17 5
f 18 6 38
f 38 6 39
f 40 39 6
f 21 22 20
f 21 20 19
f 23 24 20
f 22 23 20
f 23 26 24
f 26 27 24
f 27 28 24
f 24 63 25
f 28 29 24
f 29 60 24
f 24 60 61
f 30 31 40
f 32 40 31
f 41 32 33
f 34 42 33
f 41 40 32
f 41 33 42
f 34 35 42
f 47 35 36
f 37 48 36
f 37 43 48
f 49 43 44
f 45 50 44
f 46 50 45
f 47 42 35
f 47 36 48
f 49 48 43
f 49 44 50
f 51 50 46
f 52 25 62
f 62 53 52
f 62 54 53
f 24 61 63
f 25 63 62
f 62 55 54
f 62 56 55
f 64 57 56
f 62 64 56
f 64 58 57
f 64 59 58
f 2 20 1
f 8 19 2
f 21 8 9
f 20 3 1
f 3 24 4
f 4 25 5
f 25 6 5
f 7 6 25
f 7 52 30
f 10 21 9
f 11 22 10
f 12 23 11
f 26 12 13
f 14 26 13
f 14 15 27
f 16 27 15
f 16 17 28
f 18 28 17
f 18 38 29
f 2 19 20
f 3 20 24
f 8 21 19
f 10 22 21
f 4 24 25
f 7 25 52
f 11 23 22
f 12 26 23
f 14 27 26
f 16 28 27
f 18 29 28
f 38 60 29
f 30 53 31
f 53 32 31
f 32 54 33
f 54 34 33
f 34 55 35
f 35 56 36
f 56 37 36
f 37 57 43
f 38 39 60
f 60 39 40
f 60 40 41
f 61 41 42
f 61 42 47
f 43 58 44
f 45 44 58
f 46 45 59
f 46 64 51
f 63 47 48
f 63 48 49
f 62 49 50
f 51 62 50
f 30 52 53
f 32 53 54
f 34 54 55
f 35 55 56
f 37 56 57
f 43 57 58
f 45 58 59
f 60 41 61
f 61 47 63
f 49 62 63
f 46 59 64
f 51 64 62
