# ff_proximal.obj  (907 v, 1810 f)  units: metres
v -0.008845085 0.033533305 0.009027950
v -0.009555283 0.033654787 0.010416488
v -0.009800000 0.033789448 0.011955693
v -0.007738926 0.033436898 0.007926001
v -0.006345085 0.033374999 0.007218506
v -0.005298060 0.033402070 0.014076080
v -0.005325917 0.033471722 0.014060901
v -0.005318677 0.033433806 0.014066580
v -0.005267205 0.033381347 0.014087957
v -0.005230810 0.033374798 0.014100401
v -0.005243178 0.033456396 0.013885741
v -0.005325917 0.033870202 0.014026038
v -0.005313175 0.033920370 0.014025806
v -0.005243178 0.033854876 0.013850879
v -0.005278364 0.033957820 0.014033883
v -0.005230811 0.033972513 0.014048107
v -0.005559718 0.033521619 0.015442518
v -0.005527339 0.033500198 0.015446436
v -0.005581352 0.033553816 0.015438334
v -0.005588950 0.033591900 0.015434522
v -0.005566958 0.033622365 0.015782740
v -0.005588950 0.033990376 0.015399660
v -0.005489146 0.033492826 0.015449493
v -0.005472037 0.033643082 0.016830849
v -0.005440169 0.033620957 0.016826682
v -0.005500809 0.033714000 0.016830154
v -0.005493331 0.033675753 0.016832069
v -0.005402579 0.033612747 0.016820202
v -0.005223527 0.033788379 0.017680293
v -0.005060144 0.033791952 0.018160209
v -0.005067031 0.033830356 0.018160103
v -0.005040529 0.033758827 0.018153841
v -0.005011174 0.033736028 0.018141970
v -0.004976548 0.033727027 0.018126400
v -0.005575579 0.034040261 0.015396141
v -0.005539048 0.034076922 0.015395240
v -0.005566958 0.034020841 0.015747879
v -0.005489147 0.034090545 0.015397199
v -0.005500809 0.034112480 0.016795291
v -0.005487648 0.034162071 0.016788432
v -0.005451694 0.034197934 0.016778409
v -0.005402580 0.034210466 0.016767908
v -0.005223527 0.034186855 0.017645430
v -0.005067031 0.034228835 0.018125240
v -0.005054909 0.034278147 0.018115198
v -0.005021790 0.034313250 0.018096484
v -0.004976549 0.034324743 0.018074108
v -0.009555283 0.032429278 0.027387880
v -0.008845085 0.032307796 0.025999343
v -0.009800000 0.032563943 0.028927086
v -0.009555283 0.035119005 0.027152559
v -0.008845085 0.034997523 0.025764022
v -0.009800000 0.035253666 0.028691765
v -0.007738926 0.032211389 0.024897393
v -0.007738926 0.034901116 0.024662072
v -0.009800000 0.035913523 0.039676052
v -0.009571639 0.036013581 0.040819734
v -0.006345085 0.032149490 0.024189897
v -0.006345085 0.034839217 0.023954578
v -0.004800000 0.033353671 0.006974720
v -0.004703506 0.033291947 0.012817397
v -0.004676114 0.033271868 0.012836603
v -0.004643803 0.033266075 0.012857694
v -0.004728236 0.033361021 0.012795599
v -0.004721809 0.033323254 0.012802998
v -0.004728236 0.033759501 0.012760737
v -0.004716924 0.033809938 0.012763531
v -0.004686020 0.033848111 0.012779878
v -0.004643803 0.033863790 0.012805400
v -0.003828253 0.033229116 0.011726984
v -0.003833464 0.033266757 0.011718121
v -0.003791205 0.033178642 0.011771003
v -0.003765008 0.033173490 0.011799457
v -0.003813414 0.033198174 0.011745554
v -0.003833464 0.033665232 0.011683258
v -0.003824293 0.033715893 0.011688630
v -0.003799236 0.033754684 0.011712020
v -0.003765009 0.033771206 0.011747163
v -0.004255930 0.033311263 0.012226852
v -0.004255930 0.033709742 0.012191989
v -0.002792076 0.033200812 0.010964388
v -0.002792076 0.033599291 0.010929526
v -0.002683710 0.033126637 0.010927900
v -0.002694153 0.033157304 0.010906148
v -0.002697821 0.033194844 0.010896168
v -0.002668081 0.033107523 0.010958111
v -0.002649645 0.033102863 0.010992181
v -0.002697821 0.033593323 0.010861306
v -0.002691366 0.033644155 0.010868643
v -0.002673733 0.033683416 0.010897406
v -0.002649645 0.033700578 0.010939887
v -0.004309009 0.033895109 0.019339304
v -0.004292306 0.033861585 0.019328367
v -0.004314874 0.033933654 0.019340802
v -0.004267308 0.033838186 0.019309655
v -0.004237822 0.033828478 0.019286018
v -0.004286587 0.033935968 0.019367265
v -0.004314874 0.034332134 0.019305941
v -0.004304551 0.034381196 0.019293075
v -0.004286587 0.034334447 0.019332401
v -0.004276348 0.034415629 0.019266643
v -0.004237823 0.034426197 0.019233724
v -0.003232818 0.033910733 0.020226188
v -0.003274381 0.033944897 0.020280624
v -0.003255312 0.033921015 0.020256367
v -0.003287123 0.033978745 0.020295266
v -0.003291597 0.034017403 0.020298066
v -0.003291597 0.034415882 0.020263204
v -0.003283723 0.034464747 0.020248048
v -0.003262208 0.034498628 0.020215359
v -0.003232819 0.034508452 0.020173894
v -0.002779318 0.034041949 0.020578623
v -0.002779318 0.034440428 0.020543760
v -0.001367794 0.033058628 0.010486593
v -0.001377311 0.033062980 0.010449003
v -0.001385379 0.033081837 0.010415810
v -0.001390770 0.033112325 0.010392066
v -0.001392663 0.033149805 0.010381386
v -0.001392663 0.033548284 0.010346523
v -0.001389332 0.033599224 0.010355093
v -0.001380229 0.033638779 0.010387220
v -0.001367794 0.033656344 0.010434298
v -0.000967733 0.033145126 0.010327909
v -0.000967733 0.033543605 0.010293046
v -0.002038772 0.033979304 0.020922620
v -0.002050715 0.034003530 0.020950779
v -0.002024685 0.033968620 0.020887837
v -0.002058695 0.034037605 0.020968031
v -0.002061497 0.034076344 0.020971747
v -0.002061497 0.034474820 0.020936884
v -0.002056566 0.034523547 0.020920116
v -0.002043091 0.034557045 0.020883024
v -0.002024685 0.034566335 0.020835545
v -0.000689333 0.033998501 0.021229392
v -0.000694129 0.034009393 0.021266552
v -0.000965553 0.034100868 0.021252066
v -0.000965553 0.034499347 0.021217205
v -0.000698195 0.034033794 0.021296727
v -0.000700912 0.034067988 0.021315323
v -0.000701866 0.034106769 0.021319512
v -0.000701866 0.034505248 0.021284649
v -0.000695599 0.034587197 0.021227684
v -0.000689333 0.034596220 0.021177100
v -0.000700187 0.034553897 0.021267051
v -0.004800000 0.032128163 0.023946112
v -0.004800000 0.034817889 0.023710791
v -0.009800000 0.035004303 0.056820538
v -0.009555283 0.035138968 0.058359742
v -0.008845085 0.035260450 0.059748281
v -0.009571639 0.036336400 0.044509541
v -0.009800000 0.036436457 0.045653220
v -0.008921321 0.036098409 0.041789301
v -0.008921321 0.036251571 0.043539971
v -0.007948050 0.036155086 0.042437144
v -0.007948050 0.036194894 0.042892128
v -0.009800000 0.037694030 0.056585215
v -0.009555283 0.037828691 0.058124419
v -0.008845085 0.037950173 0.059512958
v -0.006800000 0.036174990 0.042664636
v -0.007738926 0.035356857 0.060850229
v -0.007738926 0.038046584 0.060614910
v -0.009800000 0.039158247 0.073321283
v -0.009555283 0.039292909 0.074860491
v -0.008845085 0.039414391 0.076249026
v -0.007738926 0.039510798 0.077350982
v -0.006345085 0.035418753 0.061557721
v -0.006345085 0.038108479 0.061322402
v -0.005325917 0.038276616 0.067846797
v -0.005325917 0.038576614 0.067820549
v -0.005313175 0.038626783 0.067820318
v -0.005243178 0.038561288 0.067645393
v -0.005278364 0.038664233 0.067828394
v -0.005230811 0.038678925 0.067842618
v -0.005361550 0.038292900 0.068032883
v -0.005500268 0.038356278 0.068757303
v -0.005058187 0.038227029 0.067280009
v -0.006345085 0.039572697 0.078058474
v -0.005588950 0.038396794 0.069220424
v -0.005588950 0.038696788 0.069194175
v -0.005566958 0.038727254 0.069542393
v -0.005575579 0.038746674 0.069190651
v -0.005539048 0.038783334 0.069189750
v -0.005500809 0.038518894 0.070616052
v -0.005067031 0.038635250 0.071946003
v -0.005489147 0.038796958 0.069191717
v -0.005500809 0.038818892 0.070589803
v -0.005451694 0.038904347 0.070572920
v -0.005487648 0.038868483 0.070582949
v -0.005402580 0.038916878 0.070562422
v -0.005223527 0.038893268 0.071439944
v -0.005067031 0.038935248 0.071919754
v -0.005054909 0.038984559 0.071909711
v -0.005021790 0.039019663 0.071890995
v -0.004976549 0.039031155 0.071868621
v -0.004800000 0.035440084 0.061801512
v -0.004800000 0.038129810 0.061566189
v -0.004728236 0.038165916 0.066581495
v -0.004728236 0.038465913 0.066555247
v -0.004716924 0.038516350 0.066558041
v -0.004686020 0.038554523 0.066574395
v -0.004643803 0.038570203 0.066599913
v -0.004460633 0.038137723 0.066259250
v -0.004869550 0.038192093 0.066880666
v -0.004227881 0.038113203 0.065978974
v -0.004255930 0.038416155 0.065986507
v -0.003833464 0.038071651 0.065504022
v -0.003833464 0.038371645 0.065477774
v -0.003824293 0.038422309 0.065483145
v -0.003799236 0.038461097 0.065506533
v -0.003765009 0.038477618 0.065541677
v -0.003451851 0.038047485 0.065227814
v -0.003234443 0.038373079 0.068949349
v -0.003062894 0.038338277 0.068551593
v -0.003167621 0.038359072 0.068789251
v -0.003148569 0.038355079 0.068743609
v -0.003146575 0.038354661 0.068738826
v -0.003201956 0.038366269 0.068871513
v -0.003049457 0.038022008 0.064936571
v -0.003028232 0.038020663 0.064921208
v -0.002792076 0.038005710 0.064750284
v -0.002792076 0.038305704 0.064724036
v -0.002697821 0.037999742 0.064682066
v -0.002697821 0.038299736 0.064655818
v -0.002691366 0.038350567 0.064663157
v -0.002673733 0.038389828 0.064691916
v -0.002649645 0.038406990 0.064734399
v -0.002662952 0.038259987 0.067656726
v -0.002644482 0.038256370 0.067615397
v -0.002639183 0.038255334 0.067603536
v -0.002550916 0.038248409 0.067524366
v -0.002486290 0.038243335 0.067466401
v -0.002639183 0.039669562 0.067479812
v -0.004692673 0.038686663 0.072533652
v -0.004314874 0.038738549 0.073126704
v -0.004314874 0.039038546 0.073100455
v -0.004304551 0.039087608 0.073087588
v -0.004286587 0.038740862 0.073153161
v -0.004189802 0.038748786 0.073243700
v -0.004286587 0.039040860 0.073126912
v -0.004276348 0.039122041 0.073061161
v -0.004237823 0.039132610 0.073028237
v -0.004800000 0.039594024 0.078302257
v -0.003234443 0.038462687 0.069973595
v -0.003234443 0.038469136 0.070047319
v -0.003234443 0.038481802 0.070192069
v -0.003218826 0.038485076 0.070229486
v -0.003146575 0.038500220 0.070402592
v -0.003119877 0.038505446 0.070462324
v -0.002733900 0.038581003 0.071325943
v -0.002639183 0.038599543 0.071537875
v -0.002617344 0.038601257 0.071557462
v -0.003499591 0.038805276 0.073889390
v -0.003291597 0.038822297 0.074083969
v -0.003262208 0.039205041 0.074009873
v -0.003291597 0.039122295 0.074057721
v -0.003283723 0.039171159 0.074042566
v -0.003232819 0.039214864 0.073968410
v -0.002824364 0.038844686 0.074339852
v -0.002779318 0.038846843 0.074364521
v -0.002779318 0.039146841 0.074338272
v -0.002601911 0.038855344 0.074461676
v -0.001474319 0.037957519 0.064199485
v -0.001392663 0.037954699 0.064167283
v -0.001392663 0.038254697 0.064141035
v -0.001255170 0.037953187 0.064149976
v -0.001389332 0.038305636 0.064149603
v -0.001380229 0.038345192 0.064181730
v -0.001367794 0.038362756 0.064228810
v -0.001712132 0.038182586 0.066771999
v -0.001682207 0.038181510 0.066759698
v -0.001522493 0.038175765 0.066694044
v -0.001500000 0.038174957 0.066684797
v -0.001497031 0.038174871 0.066683836
v -0.001309677 0.038169567 0.066623196
v -0.001712132 0.039596811 0.066648267
v -0.001500000 0.039596811 0.066560403
v -0.000967733 0.037950024 0.064113811
v -0.000967733 0.038250018 0.064087562
v -0.000000000 0.037926588 0.063993141
v -0.000094687 0.037940409 0.064003937
v -0.000000000 0.038239364 0.063965775
v -0.000000000 0.038290340 0.063974760
v -0.000000000 0.038329992 0.064008035
v -0.000000000 0.038347699 0.064056680
v -0.000423271 0.038144466 0.066336282
v -0.000313585 0.038141359 0.066300780
v -0.000114808 0.038143180 0.066321589
v -0.000114564 0.038143180 0.066321611
v -0.000313585 0.039563216 0.066176385
v -0.001885189 0.038658712 0.072214186
v -0.001714220 0.038672131 0.072367541
v -0.001712132 0.038672294 0.072369419
v -0.001672353 0.038673725 0.072385766
v -0.001540373 0.038678471 0.072440021
v -0.001500000 0.038679924 0.072456621
v -0.001606066 0.039202921 0.072366931
v -0.002414946 0.038864303 0.074564070
v -0.002061497 0.038881239 0.074757643
v -0.002061497 0.039181232 0.074731395
v -0.002056566 0.039229959 0.074714631
v -0.002043091 0.039263453 0.074677534
v -0.002024685 0.039272748 0.074630059
v -0.001790643 0.038887300 0.074826919
v -0.000577604 0.038706046 0.072755180
v -0.000540404 0.038707100 0.072767228
v -0.000313585 0.038713522 0.072840646
v -0.000965553 0.038905762 0.075037964
v -0.000965553 0.039205760 0.075011715
v -0.000900384 0.038907222 0.075054638
v -0.000701866 0.038911663 0.075105414
v -0.000701866 0.039211661 0.075079165
v -0.000700187 0.039260309 0.075061567
v -0.000689333 0.039302632 0.074971616
v -0.000695599 0.039293610 0.075022198
v -0.003234443 0.039768886 0.068827227
v -0.003146575 0.039768886 0.068615094
v -0.003146575 0.039981019 0.068827227
v -0.002934443 0.040068887 0.068827227
v -0.002639183 0.039881695 0.067691945
v -0.003234443 0.039877612 0.070069954
v -0.003146575 0.039877612 0.070282087
v -0.003146575 0.040089745 0.070069954
v -0.002934443 0.040177613 0.070069954
v -0.002727051 0.039976936 0.071205236
v -0.002639183 0.039976936 0.071417369
v -0.002639183 0.040189069 0.071205236
v -0.002427051 0.039881695 0.067479812
v -0.002427051 0.039969563 0.067691945
v -0.001500000 0.039808944 0.066648267
v -0.001500000 0.039896812 0.066860400
v -0.000906793 0.039836079 0.066562325
v -0.000313585 0.039775349 0.066264249
v -0.000313585 0.039863218 0.066476382
v -0.002427051 0.040189069 0.071417369
v -0.002427051 0.040276937 0.071205236
v -0.001712132 0.040049687 0.072248913
v -0.001712132 0.040261820 0.072036780
v -0.001500000 0.040049687 0.072336778
v -0.001500000 0.040261820 0.072248913
v -0.001500000 0.040349688 0.072036780
v -0.000313585 0.040083285 0.072720803
v -0.000313585 0.040383287 0.072420806
v -0.000313585 0.040295418 0.072632939
v -0.009555283 0.055371832 0.008516491
v -0.008845085 0.055250350 0.007127955
v -0.009800000 0.055506494 0.010055698
v -0.007738926 0.055153944 0.006026005
v -0.007738926 0.056618158 0.022762077
v -0.007738926 0.059108648 0.022544187
v -0.006345085 0.055092044 0.005318510
v -0.006345085 0.056556262 0.022054581
v -0.006345085 0.059046749 0.021836691
v -0.009555283 0.056836050 0.025252562
v -0.009800000 0.056970712 0.026791768
v -0.008845085 0.056714568 0.023864025
v -0.009800000 0.056435134 0.037880644
v -0.009571639 0.056535192 0.039024327
v -0.008921321 0.056620020 0.039993890
v -0.007948050 0.056676697 0.040641736
v -0.007948050 0.056716505 0.041096721
v -0.009555283 0.059326537 0.025034674
v -0.009800000 0.059461199 0.026573880
v -0.008845085 0.059205055 0.023646137
v -0.006800000 0.056696601 0.040869229
v -0.004800000 0.055070717 0.005074724
v -0.004800000 0.056534935 0.021810794
v -0.004800000 0.059025422 0.021592906
v -0.009571639 0.056858011 0.042714130
v -0.009800000 0.056958068 0.043857809
v -0.008921321 0.056773182 0.041744564
v -0.009800000 0.059411075 0.054685220
v -0.009555283 0.059545737 0.056224424
v -0.008845085 0.059667218 0.057612963
v -0.009800000 0.061901562 0.054467332
v -0.009555283 0.062036224 0.056006536
v -0.008845085 0.062157705 0.057395075
v -0.007738926 0.059763625 0.058714911
v -0.007738926 0.062254112 0.058497023
v -0.006345085 0.059825525 0.059422407
v -0.006345085 0.062316012 0.059204515
v -0.009800000 0.060875293 0.071421288
v -0.009555283 0.061009955 0.072960496
v -0.008845085 0.061131436 0.074349031
v -0.007738926 0.061227843 0.075450987
v -0.006345085 0.061289743 0.076158479
v -0.004800000 0.059846852 0.059666194
v -0.004800000 0.062337339 0.059448302
v -0.003722874 0.059707128 0.066230662
v -0.003810742 0.059919260 0.066230662
v -0.003722874 0.059919260 0.066018529
v -0.003772262 0.060230643 0.066110522
v -0.003810742 0.060417358 0.066187084
v -0.003722874 0.060398940 0.065976568
v -0.004012132 0.059833869 0.067679331
v -0.004100000 0.060046002 0.067679331
v -0.003911437 0.059876565 0.066955000
v -0.003761437 0.059726566 0.066955000
v -0.003800000 0.059746001 0.067679331
v -0.003722874 0.059960611 0.069127992
v -0.003810742 0.060172744 0.069127992
v -0.004100000 0.060544100 0.067635752
v -0.003810742 0.060670841 0.069084413
v -0.003510742 0.059619259 0.066230662
v -0.003204940 0.059609473 0.065616608
v -0.003510742 0.059872743 0.069127992
v -0.002899138 0.059599683 0.065002546
v -0.002899138 0.059811816 0.064790413
v -0.002899138 0.060291491 0.064748451
v -0.002687006 0.059599683 0.064790413
v -0.002687006 0.059511814 0.065002546
v -0.003722874 0.060172744 0.069340125
v -0.003722874 0.060689259 0.069294937
v -0.004800000 0.061311070 0.076402262
v -0.002899138 0.060068056 0.070356108
v -0.002899138 0.060280189 0.070568241
v -0.002687006 0.059980188 0.070356108
v -0.002687006 0.060068056 0.070568241
v -0.002899138 0.060796704 0.070523053
v -0.001454197 0.059440020 0.064181946
v -0.001666329 0.059740022 0.063969813
v -0.001666329 0.060219698 0.063927852
v -0.001454197 0.059527889 0.063969813
v -0.001454197 0.059740022 0.063881949
v -0.001454197 0.060212068 0.063840650
v -0.000000000 0.059502676 0.063681655
v -0.000000000 0.059414808 0.063893788
v -0.000592857 0.060197137 0.063669972
v -0.000000000 0.059714809 0.063593790
v -0.000000000 0.060186859 0.063552491
v -0.002070601 0.060060021 0.070872471
v -0.001666329 0.060351983 0.071388841
v -0.001454197 0.060051981 0.071176708
v -0.001454197 0.060139850 0.071388841
v -0.001454197 0.060351983 0.071476705
v -0.001666329 0.060868498 0.071343653
v -0.001454197 0.060876127 0.071430854
v -0.000000000 0.060077194 0.071464866
v -0.000000000 0.060165063 0.071676999
v -0.000000000 0.060377195 0.071764864
v -0.000956397 0.060884759 0.071529493
v -0.000000000 0.060901336 0.071719013
v 0.000000000 0.033047818 0.010275670
v 0.000000000 0.033066582 0.010241462
v 0.000000000 0.033043567 0.010314457
v 0.000000000 0.033097014 0.010217040
v 0.000000000 0.033134472 0.010206121
v 0.000000000 0.033532951 0.010171259
v 0.000000000 0.033583928 0.010180247
v 0.000000000 0.033623580 0.010213520
v 0.000000000 0.033641286 0.010262162
v 0.000967733 0.033145126 0.010327909
v 0.000967733 0.033543605 0.010293046
v 0.001367794 0.033058628 0.010486593
v 0.001377311 0.033062980 0.010449003
v 0.001385379 0.033081837 0.010415810
v 0.001390770 0.033112325 0.010392066
v 0.001392663 0.033149805 0.010381386
v 0.001367794 0.033656344 0.010434298
v 0.001392663 0.033548284 0.010346523
v 0.001389332 0.033599224 0.010355093
v 0.001380229 0.033638779 0.010387220
v 0.000689333 0.033998501 0.021229392
v 0.000694129 0.034009393 0.021266552
v 0.000698195 0.034033794 0.021296727
v 0.000700912 0.034067988 0.021315323
v 0.000701866 0.034106769 0.021319512
v 0.000701866 0.034505248 0.021284649
v 0.000695599 0.034587197 0.021227684
v 0.000689333 0.034596220 0.021177100
v 0.000700187 0.034553897 0.021267051
v 0.000965553 0.034100868 0.021252066
v 0.000965553 0.034499347 0.021217205
v 0.002024685 0.033968620 0.020887837
v 0.002038772 0.033979304 0.020922620
v 0.002050715 0.034003530 0.020950779
v 0.002058695 0.034037605 0.020968031
v 0.002061497 0.034076344 0.020971747
v 0.002061497 0.034474820 0.020936884
v 0.002024685 0.034566335 0.020835545
v 0.002056566 0.034523547 0.020920116
v 0.002043091 0.034557045 0.020883024
v 0.002649645 0.033102863 0.010992181
v 0.002668081 0.033107523 0.010958111
v 0.002683710 0.033126637 0.010927900
v 0.002694153 0.033157304 0.010906148
v 0.002697821 0.033194844 0.010896168
v 0.002673733 0.033683416 0.010897406
v 0.002649645 0.033700578 0.010939887
v 0.002697821 0.033593323 0.010861306
v 0.002691366 0.033644155 0.010868643
v 0.002792076 0.033200812 0.010964388
v 0.002792076 0.033599291 0.010929526
v 0.004800000 0.033353671 0.006974720
v 0.003765008 0.033173490 0.011799457
v 0.003791205 0.033178642 0.011771003
v 0.003813414 0.033198174 0.011745554
v 0.003828253 0.033229116 0.011726984
v 0.003833464 0.033266757 0.011718121
v 0.003765009 0.033771206 0.011747163
v 0.003824293 0.033715893 0.011688630
v 0.003799236 0.033754684 0.011712020
v 0.003833464 0.033665232 0.011683258
v 0.004255930 0.033311263 0.012226852
v 0.004255930 0.033709742 0.012191989
v 0.004643803 0.033266075 0.012857694
v 0.004676114 0.033271868 0.012836603
v 0.004703506 0.033291947 0.012817397
v 0.004728236 0.033361021 0.012795599
v 0.004721809 0.033323254 0.012802998
v 0.004728236 0.033759501 0.012760737
v 0.004643803 0.033863790 0.012805400
v 0.004686020 0.033848111 0.012779878
v 0.004716924 0.033809938 0.012763531
v 0.003232818 0.033910733 0.020226188
v 0.003255312 0.033921015 0.020256367
v 0.003274381 0.033944897 0.020280624
v 0.003287123 0.033978745 0.020295266
v 0.002779318 0.034041949 0.020578623
v 0.002779318 0.034440428 0.020543760
v 0.003291597 0.034017403 0.020298066
v 0.003291597 0.034415882 0.020263204
v 0.003283723 0.034464747 0.020248048
v 0.003232819 0.034508452 0.020173894
v 0.003262208 0.034498628 0.020215359
v 0.004237822 0.033828478 0.019286018
v 0.004267308 0.033838186 0.019309655
v 0.004286587 0.033935968 0.019367265
v 0.004292306 0.033861585 0.019328367
v 0.004309009 0.033895109 0.019339304
v 0.004314874 0.033933654 0.019340802
v 0.004286587 0.034334447 0.019332401
v 0.004237823 0.034426197 0.019233724
v 0.004276348 0.034415629 0.019266643
v 0.004314874 0.034332134 0.019305941
v 0.004304551 0.034381196 0.019293075
v 0.004800000 0.032128163 0.023946112
v 0.004800000 0.034817889 0.023710791
v 0.005230810 0.033374798 0.014100401
v 0.005267205 0.033381347 0.014087957
v 0.005243178 0.033456396 0.013885741
v 0.005298060 0.033402070 0.014076080
v 0.005318677 0.033433806 0.014066580
v 0.005325917 0.033471722 0.014060901
v 0.005243178 0.033854876 0.013850879
v 0.005230811 0.033972513 0.014048107
v 0.005278364 0.033957820 0.014033883
v 0.005325917 0.033870202 0.014026038
v 0.005313175 0.033920370 0.014025806
v 0.006345085 0.033374999 0.007218506
v 0.005489146 0.033492826 0.015449493
v 0.004976548 0.033727027 0.018126400
v 0.005011174 0.033736028 0.018141970
v 0.005040529 0.033758827 0.018153841
v 0.005060144 0.033791952 0.018160209
v 0.005067031 0.033830356 0.018160103
v 0.005402579 0.033612747 0.016820202
v 0.005440169 0.033620957 0.016826682
v 0.005472037 0.033643082 0.016830849
v 0.005493331 0.033675753 0.016832069
v 0.005500809 0.033714000 0.016830154
v 0.005223527 0.033788379 0.017680293
v 0.005527339 0.033500198 0.015446436
v 0.005559718 0.033521619 0.015442518
v 0.005581352 0.033553816 0.015438334
v 0.005588950 0.033591900 0.015434522
v 0.005566958 0.033622365 0.015782740
v 0.005588950 0.033990376 0.015399660
v 0.005489147 0.034090545 0.015397199
v 0.004976549 0.034324743 0.018074108
v 0.005021790 0.034313250 0.018096484
v 0.005067031 0.034228835 0.018125240
v 0.005054909 0.034278147 0.018115198
v 0.005223527 0.034186855 0.017645430
v 0.005402580 0.034210466 0.016767908
v 0.005500809 0.034112480 0.016795291
v 0.005451694 0.034197934 0.016778409
v 0.005487648 0.034162071 0.016788432
v 0.005539048 0.034076922 0.015395240
v 0.005575579 0.034040261 0.015396141
v 0.005600000 0.034021024 0.015749948
v 0.007738926 0.033436898 0.007926001
v 0.008845085 0.033533305 0.009027950
v 0.009555283 0.033654787 0.010416488
v 0.009800000 0.033789448 0.011955693
v 0.006345085 0.032149490 0.024189897
v 0.006345085 0.034839217 0.023954578
v 0.007738926 0.032211389 0.024897393
v 0.007738926 0.034901116 0.024662072
v 0.008845085 0.032307796 0.025999343
v 0.009555283 0.032429278 0.027387880
v 0.009800000 0.032563943 0.028927086
v 0.008845085 0.034997523 0.025764022
v 0.009555283 0.035119005 0.027152559
v 0.009800000 0.035253666 0.028691765
v 0.009800000 0.035913523 0.039676052
v 0.009571639 0.036013581 0.040819734
v 0.000967733 0.037883438 0.064119630
v 0.001007225 0.037881676 0.064124793
v 0.000967733 0.038250018 0.064087562
v 0.001094899 0.037852939 0.064138427
v 0.001162830 0.037836410 0.064152010
v 0.001157568 0.037838537 0.064150713
v 0.001157568 0.037885651 0.064170226
v 0.001211453 0.037816763 0.064164013
v 0.001157568 0.037973519 0.064382359
v 0.000927051 0.038152725 0.066430673
v 0.000957306 0.038153812 0.066443115
v 0.001139183 0.038160354 0.066517875
v 0.000927051 0.039574578 0.066306278
v 0.001139183 0.039574578 0.066394143
v 0.001312402 0.037789050 0.064199857
v 0.001317812 0.037787504 0.064201824
v 0.001385379 0.037788250 0.064210325
v 0.001380862 0.037777692 0.064228907
v 0.001533777 0.037774790 0.064305231
v 0.001588331 0.037776008 0.064333603
v 0.001862700 0.037782118 0.064476304
v 0.001230929 0.037812289 0.064170226
v 0.001390770 0.037818737 0.064186580
v 0.001392663 0.037856217 0.064175896
v 0.001392663 0.038254697 0.064141035
v 0.001367794 0.038362756 0.064228810
v 0.001389332 0.038305636 0.064149603
v 0.001380229 0.038345192 0.064181730
v 0.001291536 0.038168021 0.066605501
v 0.001317357 0.038169317 0.066620357
v 0.002219524 0.038214713 0.067139231
v 0.002222101 0.038215023 0.067142770
v 0.002340453 0.038229220 0.067305043
v 0.002394336 0.038235683 0.067378931
v 0.002219524 0.039628942 0.067015506
v 0.000415561 0.038706843 0.072764300
v 0.000689867 0.038704328 0.072735578
v 0.000927051 0.038702156 0.072710745
v 0.001139183 0.038694527 0.072623543
v 0.001155111 0.038693726 0.072614379
v 0.001042894 0.039147101 0.072623834
v 0.001139183 0.039308947 0.072569788
v 0.000701866 0.038911663 0.075105414
v 0.000767035 0.038910206 0.075088739
v 0.000701866 0.039211661 0.075079165
v 0.000700187 0.039260309 0.075061567
v 0.000689333 0.039302632 0.074971616
v 0.000695599 0.039293610 0.075022198
v 0.000965553 0.038905762 0.075037964
v 0.000965553 0.039205760 0.075011715
v 0.002017852 0.038650315 0.072118171
v 0.002207684 0.038640764 0.072008990
v 0.002219524 0.038640168 0.072002180
v 0.002236969 0.038638074 0.071978256
v 0.001236412 0.038899701 0.074968688
v 0.002061497 0.038881239 0.074757643
v 0.002061497 0.039181232 0.074731395
v 0.002024685 0.039272748 0.074630059
v 0.002043091 0.039263453 0.074677534
v 0.002056566 0.039229959 0.074714631
v 0.002238901 0.038872737 0.074660480
v 0.004800000 0.035440084 0.061801512
v 0.002649645 0.037809275 0.064786695
v 0.002668081 0.037813935 0.064752623
v 0.002630766 0.037817899 0.064885288
v 0.002683710 0.037833054 0.064722411
v 0.002694153 0.037863716 0.064700663
v 0.002697821 0.037901256 0.064690679
v 0.002673733 0.038389828 0.064691916
v 0.002649645 0.038406990 0.064734399
v 0.002697821 0.038299736 0.064655818
v 0.002691366 0.038350567 0.064663157
v 0.002792076 0.037907224 0.064758897
v 0.002792076 0.038305704 0.064724036
v 0.002952768 0.038302675 0.068144619
v 0.002983663 0.038309149 0.068218641
v 0.003000837 0.038312748 0.068259791
v 0.003013903 0.038315490 0.068291090
v 0.003040636 0.038321093 0.068355143
v 0.002993873 0.038472395 0.068229012
v 0.003217555 0.037845235 0.065197736
v 0.003325408 0.037853464 0.065256797
v 0.003486676 0.037865773 0.065345109
v 0.003547715 0.037873622 0.065380156
v 0.003577983 0.037998408 0.065459043
v 0.003577983 0.038086277 0.065671176
v 0.003062838 0.038330197 0.068459198
v 0.003086232 0.038339786 0.068568841
v 0.004800000 0.038129810 0.061566189
v 0.003685100 0.037891291 0.065459043
v 0.003802940 0.037895374 0.065552071
v 0.003813414 0.037904587 0.065540068
v 0.003875315 0.037909873 0.065618351
v 0.003828253 0.037935529 0.065521494
v 0.003833464 0.037973169 0.065512635
v 0.003888303 0.037912477 0.065630250
v 0.003765009 0.038477618 0.065541677
v 0.003824293 0.038422309 0.065483145
v 0.003799236 0.038461097 0.065506533
v 0.003833464 0.038371645 0.065477774
v 0.004016367 0.037949033 0.065755852
v 0.004051421 0.037959039 0.065790236
v 0.004138832 0.037995182 0.065884501
v 0.004171790 0.038008813 0.065920047
v 0.004229825 0.038039546 0.065987781
v 0.004241795 0.038045887 0.066001751
v 0.004255930 0.038049102 0.066018619
v 0.004255930 0.038416155 0.065986507
v 0.004636063 0.038135488 0.066472314
v 0.004728236 0.038156435 0.066582330
v 0.004751381 0.038170204 0.066630498
v 0.004728236 0.038465913 0.066555247
v 0.004643803 0.038570203 0.066599913
v 0.004686020 0.038554523 0.066574395
v 0.004716924 0.038516350 0.066558041
v 0.002815890 0.038568627 0.071184479
v 0.003008882 0.038540445 0.070862353
v 0.003040636 0.038533788 0.070786275
v 0.002948612 0.038552705 0.071002498
v 0.002952768 0.038552206 0.070996799
v 0.002975789 0.038547382 0.070941642
v 0.003270919 0.038439363 0.069706999
v 0.003300000 0.038427439 0.069570705
v 0.003295546 0.038429264 0.069591582
v 0.003254404 0.038446136 0.069784403
v 0.002779318 0.038846843 0.074364521
v 0.002779318 0.039146841 0.074338272
v 0.003160354 0.038828585 0.074155845
v 0.003291597 0.038822297 0.074083969
v 0.003262208 0.039205041 0.074009873
v 0.003291597 0.039122295 0.074057721
v 0.003283723 0.039171159 0.074042566
v 0.003232819 0.039214864 0.073968410
v 0.003841612 0.038777284 0.073569432
v 0.004128469 0.038753808 0.073301077
v 0.004286587 0.038740866 0.073153161
v 0.004286587 0.039040860 0.073126912
v 0.004237823 0.039132610 0.073028237
v 0.004276348 0.039122041 0.073061161
v 0.004667060 0.038690180 0.072573856
v 0.004314874 0.038738549 0.073126704
v 0.004304551 0.039087608 0.073087588
v 0.004314874 0.039038546 0.073100455
v 0.004800000 0.039594024 0.078302257
v 0.000927051 0.039786711 0.066394143
v 0.000927051 0.039874580 0.066606276
v 0.002007392 0.039841074 0.067015506
v 0.002007392 0.039928943 0.067227639
v 0.002219524 0.039841074 0.067227639
v 0.001139183 0.040071920 0.072503038
v 0.000927051 0.040071920 0.072590902
v 0.000927051 0.040371921 0.072290905
v 0.000927051 0.040284052 0.072503038
v 0.002007392 0.040229689 0.071881674
v 0.002007392 0.040317558 0.071669541
v 0.002219524 0.040017556 0.071881674
v 0.002219524 0.040229689 0.071669541
v 0.002740636 0.040016904 0.068233028
v 0.002952768 0.039716903 0.068020895
v 0.003040636 0.039716903 0.068233028
v 0.002952768 0.039929036 0.068233028
v 0.002740636 0.040229600 0.070664160
v 0.003000000 0.040123250 0.069448590
v 0.002952768 0.040141732 0.070664160
v 0.003040636 0.039929599 0.070664160
v 0.002952768 0.039929599 0.070876293
v 0.003212132 0.040035382 0.069448590
v 0.003300000 0.039823249 0.069448590
v 0.006800000 0.036174990 0.042664636
v 0.008845085 0.035260450 0.059748281
v 0.009800000 0.035004303 0.056820538
v 0.009555283 0.035138968 0.058359742
v 0.007948050 0.036155086 0.042437144
v 0.007948050 0.036194894 0.042892128
v 0.008921321 0.036098409 0.041789301
v 0.008921321 0.036251571 0.043539971
v 0.009571639 0.036336400 0.044509541
v 0.009800000 0.036436457 0.045653220
v 0.009800000 0.037694030 0.056585215
v 0.008845085 0.037950173 0.059512958
v 0.009555283 0.037828691 0.058124419
v 0.006345085 0.035418753 0.061557721
v 0.005115298 0.038237609 0.067400910
v 0.005195950 0.038252547 0.067571655
v 0.005325917 0.038276616 0.067846797
v 0.005243178 0.038561288 0.067645393
v 0.005230811 0.038678925 0.067842618
v 0.005278364 0.038664233 0.067828394
v 0.005325917 0.038576614 0.067820549
v 0.005313175 0.038626783 0.067820318
v 0.005558903 0.038383067 0.069063507
v 0.006345085 0.038108479 0.061322402
v 0.005282175 0.038577542 0.071286373
v 0.005500809 0.038518894 0.070616052
v 0.004998299 0.038644690 0.072053894
v 0.005067031 0.038635250 0.071946003
v 0.005489147 0.038796958 0.069191717
v 0.005402580 0.038916878 0.070562422
v 0.005500809 0.038818892 0.070589803
v 0.005451694 0.038904347 0.070572920
v 0.005487648 0.038868483 0.070582949
v 0.004976549 0.039031155 0.071868621
v 0.005021790 0.039019663 0.071890995
v 0.005067031 0.038935248 0.071919754
v 0.005054909 0.038984559 0.071909711
v 0.005223527 0.038893268 0.071439944
v 0.005588950 0.038396794 0.069220424
v 0.005572393 0.038419727 0.069482580
v 0.005575124 0.038427304 0.069569148
v 0.005574574 0.038425777 0.069551714
v 0.005588950 0.038696788 0.069194175
v 0.005600000 0.038727436 0.069544464
v 0.005525323 0.038496293 0.070357703
v 0.005539048 0.038783334 0.069189750
v 0.005575579 0.038746674 0.069190651
v 0.006345085 0.039572697 0.078058474
v 0.007738926 0.035356857 0.060850229
v 0.007738926 0.038046584 0.060614910
v 0.007738926 0.039510798 0.077350982
v 0.009800000 0.039158247 0.073321283
v 0.008845085 0.039414391 0.076249026
v 0.009555283 0.039292909 0.074860491
v 0.004800000 0.055070717 0.005074724
v 0.004800000 0.056534935 0.021810794
v 0.004800000 0.059025422 0.021592906
v 0.006345085 0.055092044 0.005318510
v 0.006345085 0.056556262 0.022054581
v 0.006345085 0.059046749 0.021836691
v 0.007738926 0.055153944 0.006026005
v 0.008845085 0.055250350 0.007127955
v 0.009555283 0.055371832 0.008516491
v 0.009800000 0.055506494 0.010055698
v 0.007738926 0.056618158 0.022762077
v 0.007738926 0.059108648 0.022544187
v 0.006800000 0.056696601 0.040869229
v 0.008845085 0.056714568 0.023864025
v 0.009555283 0.056836050 0.025252562
v 0.009800000 0.056970712 0.026791768
v 0.007948050 0.056676697 0.040641736
v 0.007948050 0.056716505 0.041096721
v 0.008921321 0.056620020 0.039993890
v 0.009800000 0.056435134 0.037880644
v 0.009571639 0.056535192 0.039024327
v 0.008845085 0.059205055 0.023646137
v 0.009555283 0.059326537 0.025034674
v 0.009800000 0.059461199 0.026573880
v 0.004800000 0.059846852 0.059666194
v 0.004800000 0.062337339 0.059448302
v 0.000861343 0.060201790 0.063723169
v 0.001454197 0.059440020 0.064181946
v 0.001454197 0.059527889 0.063969813
v 0.001454197 0.059740022 0.063881949
v 0.001454197 0.060212068 0.063840650
v 0.001666329 0.059740022 0.063969813
v 0.001666329 0.060219698 0.063927852
v 0.000727098 0.060108524 0.071426854
v 0.000497797 0.060892709 0.071620367
v 0.001454197 0.060051981 0.071176708
v 0.001454197 0.060139850 0.071388841
v 0.001666329 0.060351983 0.071388841
v 0.001454197 0.060351983 0.071476705
v 0.001454197 0.060876127 0.071430854
v 0.001538470 0.060668588 0.071414106
v 0.001666329 0.060868498 0.071343653
v 0.002687006 0.059599683 0.064790413
v 0.002687006 0.059511814 0.065002546
v 0.002899138 0.059599683 0.065002546
v 0.002899138 0.059811816 0.064790413
v 0.002899138 0.060291491 0.064748451
v 0.003510742 0.059619259 0.066230662
v 0.003510742 0.059872743 0.069127992
v 0.003722874 0.059707128 0.066230662
v 0.003722874 0.059919260 0.066018529
v 0.003810742 0.059919260 0.066230662
v 0.003722874 0.060398940 0.065976568
v 0.003769964 0.060346361 0.066094853
v 0.003810742 0.060417358 0.066187084
v 0.003800000 0.059746001 0.067679331
v 0.003722874 0.059960611 0.069127992
v 0.003810742 0.060172744 0.069127992
v 0.004012132 0.059833869 0.067679331
v 0.004100000 0.060046002 0.067679331
v 0.003810742 0.060670841 0.069084413
v 0.004100000 0.060544100 0.067635752
v 0.002687006 0.059980188 0.070356108
v 0.002687006 0.060068056 0.070568241
v 0.002899138 0.060068056 0.070356108
v 0.002899138 0.060280189 0.070568241
v 0.003204940 0.059970401 0.069742054
v 0.002899138 0.060796704 0.070523053
v 0.003722874 0.060172744 0.069340125
v 0.003722874 0.060689259 0.069294937
v 0.004800000 0.061311070 0.076402262
v 0.006345085 0.059825525 0.059422407
v 0.006345085 0.062316012 0.059204515
v 0.008921321 0.056773182 0.041744564
v 0.009571639 0.056858011 0.042714130
v 0.009800000 0.056958068 0.043857809
v 0.007738926 0.059763625 0.058714911
v 0.007738926 0.062254112 0.058497023
v 0.009800000 0.059411075 0.054685220
v 0.008845085 0.059667218 0.057612963
v 0.009555283 0.059545737 0.056224424
v 0.009800000 0.061901562 0.054467332
v 0.008845085 0.062157705 0.057395075
v 0.009555283 0.062036224 0.056006536
v 0.006345085 0.061289743 0.076158479
v 0.007738926 0.061227843 0.075450987
v 0.009800000 0.060875293 0.071421288
v 0.009555283 0.061009955 0.072960496
v 0.008845085 0.061131436 0.074349031
f 2 69 3
f 1 69 2
f 3 51 53
f 3 52 51
f 3 55 52
f 3 59 55
f 1 4 78
f 3 16 38
f 3 69 16
f 4 5 78
f 1 78 69
f 7 11 8
f 7 12 11
f 11 12 14
f 12 13 14
f 6 8 61
f 8 11 65
f 6 62 9
f 8 65 61
f 9 63 10
f 11 14 64
f 13 15 67
f 13 67 14
f 15 16 68
f 3 38 42
f 3 42 59
f 19 21 20
f 17 27 19
f 17 18 24
f 20 21 37
f 19 27 21
f 21 27 26
f 20 37 22
f 21 26 39
f 21 39 37
f 6 19 8
f 7 8 20
f 6 9 17
f 8 19 20
f 6 17 19
f 9 18 17
f 10 23 18
f 9 10 18
f 18 23 25
f 10 28 23
f 7 22 12
f 7 20 22
f 12 35 13
f 13 36 15
f 12 22 35
f 13 35 36
f 15 38 16
f 18 25 24
f 17 24 27
f 23 28 25
f 10 34 28
f 26 27 29
f 26 43 39
f 25 28 33
f 24 30 27
f 24 25 32
f 27 30 29
f 26 29 43
f 24 32 30
f 25 33 32
f 28 34 33
f 29 30 31
f 29 31 44
f 22 37 35
f 35 41 36
f 35 37 40
f 37 39 40
f 15 36 38
f 36 42 38
f 35 40 41
f 36 41 42
f 39 43 40
f 40 46 41
f 41 47 42
f 40 43 45
f 41 46 47
f 29 44 43
f 40 45 46
f 43 44 45
f 42 47 59
f 47 102 59
f 48 50 51
f 48 52 49
f 48 51 52
f 50 53 51
f 50 56 53
f 48 145 50
f 49 55 54
f 48 49 145
f 49 52 55
f 49 54 145
f 54 59 58
f 54 55 59
f 54 58 145
f 58 59 146
f 58 146 145
f 1 2 345
f 2 3 344
f 1 347 4
f 3 53 354
f 4 350 5
f 5 365 60
f 53 56 356
f 56 57 356
f 57 152 357
f 152 154 358
f 5 60 91
f 9 62 63
f 6 61 62
f 11 64 65
f 14 66 64
f 14 67 66
f 15 68 67
f 16 69 68
f 64 79 65
f 64 66 79
f 61 65 74
f 61 72 62
f 62 73 63
f 66 67 80
f 66 80 79
f 67 68 76
f 68 69 77
f 5 91 78
f 70 79 71
f 71 80 75
f 75 80 76
f 65 79 70
f 61 74 72
f 65 70 74
f 62 72 73
f 71 79 80
f 67 76 80
f 68 77 76
f 69 78 77
f 60 122 91
f 70 71 84
f 70 83 74
f 72 74 86
f 72 87 73
f 71 75 81
f 75 76 82
f 76 77 89
f 77 78 90
f 70 84 83
f 71 81 84
f 75 82 81
f 76 89 82
f 72 86 87
f 74 83 86
f 81 82 85
f 77 90 89
f 78 91 90
f 81 85 84
f 82 88 85
f 82 89 88
f 10 63 96
f 10 96 34
f 33 34 95
f 30 32 92
f 30 94 31
f 32 33 93
f 63 103 96
f 30 92 94
f 32 93 92
f 33 95 93
f 34 96 95
f 92 97 94
f 93 95 104
f 95 96 105
f 92 93 106
f 92 107 97
f 31 98 44
f 44 99 45
f 45 101 46
f 46 102 47
f 31 94 98
f 44 98 99
f 45 99 101
f 46 101 102
f 94 97 100
f 94 100 98
f 98 100 99
f 59 102 111
f 59 111 146
f 97 108 100
f 99 100 109
f 99 110 101
f 101 111 102
f 63 127 103
f 63 73 134
f 63 134 127
f 95 105 104
f 96 103 105
f 93 104 106
f 92 106 107
f 106 112 107
f 104 128 106
f 104 105 126
f 103 125 105
f 104 126 128
f 100 108 109
f 99 109 110
f 101 110 111
f 97 107 108
f 107 113 108
f 108 113 109
f 111 133 146
f 107 112 113
f 109 132 110
f 110 133 111
f 106 128 112
f 109 113 131
f 112 130 113
f 109 131 132
f 60 450 122
f 84 85 117
f 83 115 86
f 83 84 116
f 85 88 118
f 86 114 87
f 88 89 119
f 89 90 120
f 90 91 121
f 84 117 116
f 83 116 115
f 86 115 114
f 85 118 117
f 88 119 118
f 89 120 119
f 90 121 120
f 91 122 121
f 117 118 123
f 118 119 123
f 119 120 124
f 60 458 450
f 115 116 442
f 114 115 444
f 119 124 123
f 116 117 443
f 120 121 448
f 117 123 445
f 123 124 446
f 121 122 449
f 120 448 124
f 116 443 442
f 115 442 444
f 117 445 443
f 123 446 445
f 124 447 446
f 121 449 448
f 124 448 447
f 122 450 449
f 114 444 462
f 73 87 134
f 87 114 134
f 103 127 125
f 105 125 126
f 125 138 126
f 125 127 135
f 112 128 129
f 112 129 130
f 113 130 131
f 110 132 133
f 128 136 129
f 129 137 130
f 126 139 128
f 130 137 131
f 131 142 132
f 132 143 133
f 129 136 137
f 128 139 136
f 131 137 144
f 114 462 134
f 127 134 135
f 125 135 138
f 134 463 135
f 126 138 139
f 131 144 142
f 132 142 143
f 136 139 140
f 136 140 141
f 136 141 137
f 137 141 144
f 133 537 146
f 135 464 138
f 138 465 139
f 139 466 140
f 140 467 141
f 141 470 144
f 142 469 143
f 142 144 468
f 50 591 147
f 145 146 536
f 50 145 591
f 60 365 493
f 50 147 56
f 56 147 151
f 147 195 148
f 148 195 149
f 56 151 57
f 57 151 150
f 57 150 152
f 150 153 152
f 152 153 154
f 153 155 154
f 154 155 159
f 147 148 156
f 148 149 157
f 148 157 156
f 149 158 157
f 149 166 160
f 156 157 162
f 157 158 162
f 158 161 162
f 149 160 158
f 158 160 161
f 161 167 162
f 162 189 163
f 163 194 164
f 149 195 166
f 160 166 161
f 161 166 167
f 162 167 173
f 166 195 167
f 167 195 196
f 167 210 201
f 179 175 178
f 167 201 173
f 169 168 174
f 169 171 168
f 171 176 168
f 169 170 171
f 179 174 175
f 169 174 179
f 169 181 170
f 170 182 172
f 169 179 181
f 170 181 182
f 172 185 173
f 171 203 176
f 170 172 199
f 170 199 171
f 172 173 200
f 171 198 203
f 172 182 185
f 162 173 185
f 162 185 189
f 163 189 194
f 164 241 165
f 179 178 183
f 179 180 181
f 179 183 180
f 180 183 186
f 181 187 182
f 180 188 181
f 180 186 188
f 164 194 241
f 186 183 184
f 182 189 185
f 181 188 187
f 182 187 189
f 186 190 188
f 187 188 193
f 186 184 190
f 187 194 189
f 188 190 192
f 188 192 193
f 190 184 191
f 190 191 192
f 187 193 194
f 191 184 233
f 165 257 177
f 165 241 257
f 150 151 368
f 150 370 153
f 147 369 151
f 153 360 155
f 154 159 359
f 147 156 369
f 155 364 159
f 156 162 371
f 162 163 381
f 163 164 382
f 164 165 383
f 165 177 384
f 177 242 385
f 147 658 195
f 167 196 226
f 167 226 210
f 198 202 197
f 198 197 203
f 205 204 202
f 198 205 202
f 198 199 205
f 199 200 208
f 200 201 209
f 171 199 198
f 172 200 199
f 173 201 200
f 199 208 205
f 205 207 204
f 200 209 208
f 201 210 209
f 207 206 204
f 207 211 206
f 205 208 207
f 196 268 226
f 207 218 211
f 207 208 221
f 208 209 224
f 209 210 225
f 207 219 218
f 207 221 219
f 208 224 221
f 221 220 219
f 221 223 220
f 209 225 224
f 210 226 225
f 223 222 220
f 221 224 223
f 192 240 193
f 191 236 192
f 191 233 235
f 193 241 194
f 235 233 234
f 191 235 236
f 192 236 240
f 193 240 241
f 235 234 237
f 235 237 239
f 235 239 236
f 239 237 238
f 239 238 252
f 236 239 256
f 236 254 240
f 240 257 241
f 239 252 255
f 177 257 242
f 236 256 254
f 240 254 257
f 239 255 256
f 255 252 253
f 255 253 258
f 255 260 256
f 242 257 302
f 255 258 260
f 260 258 259
f 254 256 301
f 254 302 257
f 260 259 261
f 256 260 300
f 260 261 299
f 256 300 301
f 242 302 313
f 195 685 196
f 223 264 222
f 223 224 264
f 224 225 266
f 225 226 267
f 264 262 222
f 196 284 268
f 224 266 264
f 225 267 266
f 226 268 267
f 264 263 262
f 264 265 263
f 264 266 278
f 264 278 265
f 278 277 265
f 196 622 284
f 266 267 282
f 278 281 277
f 267 268 283
f 266 282 278
f 281 280 277
f 278 282 281
f 267 283 282
f 268 284 283
f 281 279 280
f 299 261 297
f 260 299 300
f 299 297 298
f 254 301 302
f 299 298 303
f 299 308 300
f 299 303 308
f 300 314 301
f 301 313 302
f 308 303 307
f 300 308 312
f 308 307 309
f 300 312 314
f 301 314 313
f 308 309 311
f 311 309 310
f 308 311 312
f 311 310 639
f 311 642 312
f 313 314 643
f 312 644 314
f 242 313 740
f 2 344 345
f 3 346 344
f 1 345 347
f 3 354 346
f 4 347 350
f 5 350 365
f 53 356 354
f 57 357 356
f 152 358 357
f 154 359 358
f 155 360 364
f 159 364 359
f 344 346 351
f 344 366 345
f 346 354 353
f 346 353 355
f 346 355 348
f 346 348 351
f 348 355 349
f 349 355 363
f 345 366 347
f 347 366 350
f 350 366 365
f 344 351 366
f 348 352 351
f 348 349 352
f 351 352 367
f 351 367 366
f 349 363 367
f 349 367 352
f 353 361 363
f 353 354 361
f 353 363 355
f 354 356 362
f 356 357 369
f 357 358 368
f 358 370 368
f 358 360 370
f 358 359 360
f 359 364 360
f 354 362 361
f 361 362 367
f 361 367 363
f 356 374 362
f 362 821 367
f 365 366 820
f 366 367 820
f 150 368 370
f 151 369 368
f 153 370 360
f 156 371 369
f 162 381 371
f 163 382 381
f 164 383 382
f 165 384 383
f 177 385 384
f 242 413 385
f 357 368 369
f 356 369 374
f 369 371 374
f 371 372 374
f 372 373 375
f 372 375 374
f 374 375 376
f 373 376 375
f 374 376 378
f 373 377 376
f 376 377 378
f 374 378 380
f 377 379 378
f 374 380 387
f 378 379 380
f 379 386 380
f 380 386 387
f 371 381 372
f 372 381 373
f 373 381 377
f 377 381 379
f 381 382 386
f 382 383 386
f 379 381 386
f 383 384 386
f 384 385 386
f 385 413 386
f 242 889 413
f 362 374 900
f 374 387 900
f 386 844 387
f 386 401 392
f 386 392 393
f 386 393 408
f 386 413 401
f 386 408 421
f 386 421 424
f 413 402 401
f 413 412 402
f 413 418 412
f 413 435 418
f 413 436 435
f 386 424 427
f 386 427 429
f 386 429 843
f 413 440 436
f 413 889 440
f 60 493 458
f 442 443 454
f 442 453 444
f 445 446 451
f 446 447 451
f 443 445 455
f 447 448 452
f 448 449 460
f 449 450 461
f 442 454 453
f 443 455 454
f 447 452 451
f 445 451 456
f 448 460 452
f 450 458 461
f 445 456 455
f 451 452 457
f 449 461 460
f 444 453 462
f 451 457 456
f 452 459 457
f 452 460 459
f 453 454 482
f 454 455 483
f 455 456 484
f 456 457 485
f 457 459 486
f 459 460 489
f 458 487 461
f 460 461 490
f 455 484 483
f 456 485 484
f 457 486 485
f 459 489 486
f 454 483 482
f 461 487 490
f 460 490 489
f 458 488 487
f 134 462 463
f 462 474 463
f 463 475 464
f 135 463 464
f 138 464 465
f 139 465 466
f 140 466 467
f 141 467 470
f 142 468 469
f 144 470 468
f 468 479 469
f 465 471 466
f 466 471 472
f 466 472 467
f 467 472 470
f 464 476 465
f 468 470 481
f 133 143 586
f 453 482 462
f 462 482 494
f 462 473 474
f 463 474 475
f 462 525 473
f 473 515 474
f 464 475 476
f 471 476 477
f 471 477 478
f 470 480 481
f 468 481 479
f 472 478 480
f 465 476 471
f 471 478 472
f 470 472 480
f 476 518 477
f 477 519 478
f 478 519 480
f 479 481 523
f 143 469 586
f 458 493 488
f 485 486 491
f 486 489 491
f 489 490 492
f 489 492 491
f 482 483 494
f 483 484 495
f 487 488 501
f 484 485 496
f 485 491 497
f 491 492 498
f 490 502 492
f 487 500 490
f 483 495 494
f 484 496 495
f 485 497 496
f 491 498 497
f 492 502 498
f 488 499 501
f 487 501 500
f 490 500 502
f 488 493 549
f 497 498 503
f 498 502 503
f 500 504 502
f 488 549 499
f 494 495 505
f 495 496 506
f 496 497 507
f 497 503 509
f 502 504 503
f 500 501 513
f 499 512 501
f 500 513 504
f 495 506 505
f 496 507 506
f 497 509 507
f 503 504 508
f 503 508 509
f 499 511 512
f 501 512 513
f 504 510 508
f 504 513 510
f 505 506 538
f 506 507 539
f 508 540 509
f 508 510 540
f 510 513 544
f 511 546 512
f 462 494 505
f 462 505 538
f 474 516 475
f 475 517 476
f 473 514 515
f 474 515 516
f 475 516 517
f 462 551 525
f 517 520 518
f 473 525 514
f 514 526 515
f 515 528 516
f 516 529 517
f 517 527 520
f 477 518 519
f 476 517 518
f 480 519 522
f 480 524 481
f 518 521 519
f 481 524 523
f 480 522 524
f 469 479 586
f 133 586 537
f 518 520 521
f 519 521 522
f 523 524 532
f 521 535 522
f 522 533 524
f 520 531 521
f 462 538 550
f 462 556 551
f 462 550 556
f 525 551 552
f 526 552 553
f 528 553 554
f 529 554 555
f 530 555 571
f 514 525 526
f 515 526 528
f 516 528 529
f 517 529 527
f 527 529 530
f 525 552 526
f 526 553 528
f 528 554 529
f 529 555 530
f 533 570 569
f 534 571 572
f 535 572 570
f 520 527 531
f 524 533 532
f 521 531 535
f 522 535 533
f 527 530 534
f 527 534 531
f 531 534 535
f 530 571 534
f 532 533 569
f 533 535 570
f 534 572 535
f 479 523 588
f 146 537 536
f 145 536 591
f 499 549 581
f 507 509 541
f 509 540 542
f 509 542 541
f 506 539 538
f 507 541 539
f 512 548 513
f 511 545 546
f 510 544 540
f 513 548 544
f 512 546 548
f 540 543 542
f 540 544 543
f 543 544 547
f 544 548 547
f 499 582 511
f 499 581 582
f 511 583 545
f 545 584 568
f 538 539 550
f 539 541 562
f 541 542 563
f 542 543 564
f 539 562 550
f 541 563 562
f 542 564 563
f 543 565 564
f 550 562 556
f 545 578 546
f 543 547 565
f 546 579 548
f 547 548 567
f 547 567 565
f 548 579 567
f 557 562 563
f 556 562 557
f 557 563 558
f 551 557 552
f 552 558 553
f 553 559 554
f 554 561 555
f 555 561 573
f 551 556 557
f 554 559 561
f 552 557 558
f 553 558 559
f 559 560 561
f 560 575 561
f 564 565 566
f 558 563 564
f 565 567 566
f 559 564 566
f 558 564 559
f 559 566 560
f 566 567 580
f 560 566 580
f 560 580 575
f 545 568 578
f 546 578 579
f 568 576 578
f 568 574 576
f 576 577 578
f 569 570 574
f 555 573 571
f 571 573 572
f 570 572 576
f 572 573 577
f 561 575 573
f 570 576 574
f 572 577 576
f 573 575 577
f 567 579 580
f 577 579 578
f 577 580 579
f 575 580 577
f 523 532 588
f 479 588 586
f 532 569 592
f 568 584 574
f 569 574 592
f 532 592 588
f 511 582 583
f 545 583 584
f 574 584 592
f 584 593 592
f 584 594 593
f 536 537 586
f 536 586 585
f 536 585 591
f 585 586 588
f 585 588 587
f 585 587 589
f 585 589 590
f 585 590 591
f 587 592 589
f 587 588 592
f 589 593 590
f 590 594 591
f 589 592 593
f 590 593 594
f 493 822 549
f 549 825 581
f 581 826 582
f 582 827 583
f 583 828 584
f 584 834 594
f 591 594 838
f 769 771 835
f 591 838 595
f 596 837 771
f 595 839 596
f 147 767 658
f 147 591 767
f 196 685 622
f 281 599 279
f 281 282 599
f 282 283 623
f 283 284 624
f 599 597 279
f 282 623 599
f 284 622 624
f 599 598 597
f 599 600 598
f 620 602 600
f 599 620 600
f 283 624 623
f 195 658 685
f 613 612 611
f 613 614 612
f 613 615 614
f 613 660 615
f 660 616 615
f 659 617 616
f 620 601 602
f 619 604 601
f 619 618 604
f 619 611 618
f 619 601 620
f 613 611 619
f 599 621 620
f 599 623 621
f 613 619 662
f 619 620 663
f 620 621 664
f 621 623 667
f 622 665 624
f 623 624 668
f 613 662 660
f 619 663 662
f 620 664 663
f 621 667 664
f 624 665 668
f 623 668 667
f 622 666 665
f 659 616 660
f 659 661 617
f 311 639 641
f 311 641 642
f 314 644 643
f 312 642 644
f 641 639 640
f 641 640 646
f 646 640 645
f 641 646 642
f 646 645 651
f 642 655 644
f 643 644 654
f 646 651 653
f 642 646 656
f 646 653 656
f 653 651 652
f 642 656 655
f 644 655 654
f 313 643 740
f 653 652 657
f 653 657 723
f 653 723 656
f 654 655 729
f 622 685 666
f 663 664 669
f 664 667 669
f 667 668 670
f 659 677 661
f 659 660 677
f 667 670 669
f 660 662 679
f 665 666 695
f 660 678 677
f 662 663 688
f 663 669 690
f 660 679 678
f 669 670 691
f 662 680 679
f 662 686 680
f 668 696 670
f 665 694 668
f 662 688 686
f 663 690 688
f 669 691 690
f 670 696 691
f 666 693 695
f 665 695 694
f 668 694 696
f 666 685 693
f 688 687 686
f 688 689 687
f 688 692 689
f 688 690 692
f 690 697 692
f 690 691 699
f 690 698 697
f 691 696 701
f 694 704 696
f 690 699 698
f 691 700 699
f 691 701 700
f 704 702 701
f 704 703 702
f 696 704 701
f 693 710 695
f 694 695 711
f 694 711 704
f 704 705 703
f 693 709 710
f 695 710 711
f 704 708 705
f 704 711 708
f 708 706 705
f 708 707 706
f 708 779 707
f 708 711 782
f 709 784 710
f 726 734 729
f 726 728 735
f 723 657 722
f 656 723 728
f 655 656 726
f 643 654 740
f 723 722 724
f 656 728 726
f 655 726 729
f 723 724 727
f 723 727 728
f 727 724 725
f 727 725 730
f 727 738 728
f 727 730 733
f 727 733 738
f 726 735 734
f 728 738 735
f 733 730 731
f 733 731 732
f 733 732 737
f 733 737 739
f 739 737 736
f 733 739 738
f 734 735 798
f 735 738 799
f 738 739 801
f 739 736 800
f 735 799 798
f 738 801 799
f 739 800 801
f 654 729 812
f 654 812 740
f 242 740 889
f 591 595 767
f 595 774 767
f 767 813 778
f 766 813 768
f 767 768 813
f 765 770 769
f 769 770 771
f 770 772 771
f 771 772 773
f 596 771 773
f 595 596 774
f 596 773 774
f 766 776 814
f 767 774 775
f 766 768 776
f 767 775 777
f 767 777 768
f 768 777 776
f 658 767 778
f 658 778 685
f 685 778 788
f 685 788 693
f 693 788 709
f 709 788 783
f 708 782 779
f 710 786 711
f 709 783 784
f 782 780 779
f 711 786 782
f 710 784 786
f 785 781 780
f 782 785 780
f 782 786 785
f 783 810 784
f 807 787 781
f 785 807 781
f 784 811 786
f 785 786 807
f 784 810 811
f 786 811 807
f 783 793 810
f 783 788 793
f 778 813 788
f 788 813 814
f 788 816 793
f 802 789 790
f 795 790 809
f 800 792 789
f 793 796 810
f 796 797 810
f 793 794 796
f 797 801 802
f 794 799 796
f 796 801 797
f 795 802 790
f 795 797 802
f 800 791 792
f 800 736 791
f 800 802 801
f 800 789 802
f 796 799 801
f 794 798 799
f 807 803 787
f 807 804 803
f 807 808 804
f 808 805 806
f 808 806 804
f 807 811 808
f 808 809 805
f 795 809 808
f 797 811 810
f 797 808 811
f 795 808 797
f 729 734 815
f 729 815 812
f 734 798 818
f 794 816 798
f 793 816 794
f 734 817 815
f 766 814 813
f 788 814 816
f 776 816 814
f 776 777 816
f 775 816 777
f 798 816 818
f 734 818 817
f 765 769 831
f 765 836 770
f 770 892 772
f 772 893 773
f 773 894 774
f 774 894 775
f 740 812 889
f 812 815 903
f 775 897 816
f 815 817 904
f 816 906 818
f 817 818 907
f 365 819 493
f 365 820 819
f 367 821 820
f 362 842 821
f 362 900 842
f 493 819 822
f 549 822 825
f 581 825 826
f 582 826 827
f 583 827 828
f 584 828 834
f 765 831 836
f 594 834 838
f 769 835 831
f 771 837 835
f 595 838 839
f 596 839 837
f 819 820 822
f 820 825 822
f 820 826 825
f 820 821 824
f 820 824 823
f 820 823 828
f 823 830 829
f 823 824 830
f 821 830 824
f 821 840 830
f 820 827 826
f 820 828 827
f 823 829 828
f 829 830 840
f 828 829 832
f 828 832 833
f 828 833 834
f 829 840 832
f 832 840 841
f 832 841 833
f 833 841 842
f 833 842 834
f 834 842 838
f 831 835 836
f 835 892 836
f 837 839 893
f 838 894 839
f 835 837 892
f 837 893 892
f 821 841 840
f 821 842 841
f 838 842 900
f 386 843 844
f 387 844 900
f 843 429 845
f 843 845 849
f 889 441 440
f 889 853 441
f 889 858 853
f 843 849 851
f 843 851 865
f 843 865 871
f 843 871 873
f 843 873 880
f 843 880 889
f 889 860 858
f 889 886 860
f 889 880 879
f 889 888 886
f 889 879 888
f 770 836 892
f 772 892 893
f 773 893 894
f 775 894 897
f 812 903 889
f 815 904 903
f 816 897 905
f 817 907 904
f 816 905 906
f 818 906 907
f 843 890 844
f 844 890 891
f 890 895 891
f 844 891 902
f 891 895 896
f 839 894 893
f 838 900 894
f 891 896 901
f 895 898 896
f 896 898 901
f 844 902 900
f 891 901 902
f 894 900 897
f 897 902 899
f 897 900 902
f 898 899 901
f 899 902 901
f 843 906 890
f 843 889 903
f 843 903 904
f 843 904 907
f 890 905 895
f 843 907 906
f 890 906 905
f 895 905 898
f 898 905 899
f 897 899 905
f 217 175 174
f 214 174 168
f 215 176 203
f 214 168 176
f 227 197 202
f 228 202 204
f 227 203 197
f 217 174 214
f 217 212 175
f 214 176 215
f 215 203 216
f 213 216 203
f 228 204 206
f 230 206 211
f 227 213 203
f 228 227 202
f 217 315 212
f 217 214 315
f 215 216 316
f 214 215 316
f 214 316 315
f 230 211 231
f 269 211 218
f 269 218 219
f 231 211 269
f 228 206 229
f 229 206 230
f 228 232 227
f 228 229 232
f 229 230 232
f 230 231 232
f 227 232 213
f 213 232 216
f 216 232 316
f 244 178 175
f 244 183 178
f 244 184 183
f 244 233 184
f 212 243 175
f 243 244 175
f 244 245 233
f 245 246 233
f 246 247 233
f 248 234 233
f 250 237 234
f 250 238 237
f 247 248 233
f 248 249 234
f 251 252 238
f 249 250 234
f 250 251 238
f 212 315 243
f 243 315 244
f 244 320 245
f 245 320 246
f 246 321 247
f 247 321 248
f 244 315 320
f 246 320 321
f 251 290 252
f 248 321 249
f 249 321 325
f 249 325 250
f 291 253 252
f 250 325 251
f 295 258 253
f 273 219 220
f 273 220 222
f 273 222 262
f 269 219 270
f 270 219 271
f 271 219 272
f 272 219 273
f 231 269 275
f 232 231 275
f 269 270 275
f 270 271 276
f 274 262 263
f 274 263 265
f 273 262 274
f 272 273 276
f 271 272 276
f 270 276 275
f 275 276 329
f 274 265 285
f 273 274 289
f 286 265 277
f 285 265 286
f 274 285 289
f 273 289 276
f 276 289 329
f 286 277 280
f 285 286 289
f 286 287 289
f 287 288 289
f 290 291 252
f 291 292 253
f 292 293 253
f 293 294 253
f 294 295 253
f 251 325 290
f 325 336 290
f 290 336 291
f 291 336 292
f 292 296 293
f 293 296 294
f 294 296 295
f 295 304 258
f 292 336 296
f 295 296 338
f 304 305 259
f 304 259 258
f 305 261 259
f 306 297 261
f 632 298 297
f 295 338 304
f 305 306 261
f 306 632 297
f 304 338 305
f 305 338 341
f 632 633 298
f 305 341 306
f 633 634 298
f 306 341 632
f 634 303 298
f 634 307 303
f 634 309 307
f 634 310 309
f 315 316 317
f 232 319 317
f 232 317 316
f 317 328 318
f 232 327 319
f 319 327 328
f 319 328 317
f 315 317 320
f 320 317 322
f 317 323 322
f 317 318 323
f 320 325 321
f 320 322 326
f 320 326 324
f 322 323 326
f 320 324 325
f 318 335 323
f 324 326 325
f 326 334 325
f 323 335 326
f 232 275 327
f 327 330 328
f 327 275 329
f 318 328 333
f 329 331 330
f 327 329 330
f 328 330 333
f 318 742 335
f 329 332 331
f 330 331 333
f 329 289 332
f 318 333 742
f 331 332 333
f 325 334 339
f 326 335 337
f 326 339 334
f 325 339 336
f 326 337 339
f 335 340 337
f 296 336 338
f 336 339 338
f 337 340 339
f 338 339 341
f 340 342 339
f 339 343 341
f 339 342 343
f 335 754 340
f 389 388 390
f 389 396 388
f 389 392 401
f 389 390 392
f 390 391 392
f 390 393 391
f 391 393 392
f 396 395 394
f 389 401 395
f 395 401 400
f 389 395 396
f 396 394 388
f 394 397 388
f 398 397 394
f 398 403 397
f 398 394 405
f 394 399 405
f 394 395 400
f 394 400 399
f 400 401 402
f 407 421 408
f 390 388 407
f 388 397 403
f 404 388 403
f 390 408 393
f 404 406 388
f 388 406 407
f 404 403 410
f 390 407 408
f 404 410 406
f 406 410 409
f 406 409 407
f 400 411 399
f 400 402 411
f 411 402 412
f 399 411 415
f 411 412 415
f 399 416 405
f 399 415 414
f 399 414 416
f 414 417 416
f 414 415 417
f 416 417 430
f 415 412 418
f 415 418 431
f 407 409 422
f 407 422 420
f 407 420 421
f 409 419 422
f 420 424 421
f 420 422 423
f 420 423 424
f 409 410 419
f 398 866 403
f 398 405 866
f 419 426 422
f 423 422 428
f 423 427 424
f 423 429 427
f 422 426 425
f 422 425 428
f 423 428 429
f 403 866 410
f 405 416 874
f 410 866 419
f 417 415 433
f 416 430 432
f 417 433 430
f 415 431 433
f 430 433 432
f 433 431 434
f 431 418 435
f 431 435 434
f 434 435 436
f 434 436 440
f 432 433 437
f 433 434 439
f 416 432 874
f 433 438 437
f 433 439 438
f 434 440 439
f 439 440 441
f 605 280 279
f 603 279 597
f 603 605 279
f 603 597 598
f 603 598 600
f 603 600 602
f 603 601 604
f 603 602 601
f 603 604 618
f 286 280 605
f 286 605 287
f 287 605 288
f 288 606 609
f 288 609 289
f 289 609 332
f 288 605 606
f 605 607 606
f 605 608 607
f 605 625 608
f 606 607 609
f 607 608 609
f 608 610 609
f 609 610 741
f 611 612 617
f 616 614 615
f 612 614 617
f 614 616 617
f 603 618 611
f 603 611 617
f 608 625 631
f 625 626 631
f 608 631 610
f 603 682 605
f 605 682 625
f 625 682 626
f 603 617 681
f 626 682 627
f 626 627 631
f 627 628 631
f 628 629 631
f 341 633 632
f 341 634 633
f 341 747 634
f 634 637 635
f 635 638 636
f 635 637 638
f 636 638 746
f 637 746 638
f 634 747 637
f 634 639 310
f 634 645 640
f 634 640 639
f 634 651 645
f 636 746 647
f 634 635 652
f 635 636 652
f 647 746 752
f 636 647 724
f 648 647 752
f 648 752 649
f 650 649 752
f 650 752 712
f 636 724 722
f 634 652 651
f 636 657 652
f 636 722 657
f 681 617 661
f 627 682 628
f 628 682 629
f 603 681 682
f 629 682 630
f 629 630 755
f 672 673 676
f 676 673 674
f 676 674 675
f 629 755 631
f 630 671 755
f 671 672 755
f 672 676 755
f 676 675 756
f 676 756 755
f 681 661 677
f 681 677 678
f 681 678 679
f 681 679 680
f 681 680 686
f 630 779 671
f 675 683 764
f 683 684 764
f 675 764 756
f 681 686 687
f 681 687 689
f 681 702 682
f 681 689 698
f 689 692 697
f 681 698 699
f 630 682 779
f 689 697 698
f 681 699 700
f 681 700 701
f 681 701 702
f 682 702 703
f 682 703 705
f 671 779 672
f 672 779 673
f 673 779 674
f 674 780 675
f 675 780 683
f 683 787 684
f 684 787 719
f 682 705 706
f 682 706 707
f 682 707 779
f 674 779 780
f 683 780 781
f 683 781 787
f 648 730 647
f 650 731 649
f 648 649 731
f 752 762 712
f 712 762 715
f 717 761 713
f 713 761 714
f 715 762 716
f 716 761 717
f 716 762 761
f 647 725 724
f 647 730 725
f 720 718 721
f 715 716 791
f 716 717 791
f 650 712 736
f 712 715 736
f 648 731 730
f 650 732 731
f 650 737 732
f 720 721 761
f 684 719 764
f 719 720 764
f 714 761 721
f 720 761 764
f 713 714 789
f 717 713 789
f 714 721 790
f 719 806 720
f 720 805 718
f 721 718 790
f 650 736 737
f 715 791 736
f 717 789 792
f 719 787 803
f 719 803 804
f 719 804 806
f 720 806 805
f 718 805 790
f 714 790 789
f 717 792 791
f 332 742 333
f 332 609 741
f 332 741 742
f 335 742 744
f 335 744 754
f 741 744 742
f 741 610 743
f 610 631 743
f 741 743 744
f 743 745 744
f 743 631 745
f 744 745 754
f 340 754 342
f 341 343 747
f 343 342 749
f 343 749 747
f 342 748 749
f 342 754 748
f 747 746 637
f 747 749 746
f 746 749 752
f 749 748 751
f 749 751 750
f 749 750 752
f 748 754 751
f 751 758 753
f 751 753 750
f 752 750 753
f 631 757 745
f 631 755 757
f 745 757 754
f 755 756 757
f 754 757 763
f 754 763 759
f 757 756 763
f 756 764 763
f 752 753 760
f 752 760 762
f 751 754 759
f 751 759 758
f 753 758 760
f 759 763 760
f 762 760 761
f 759 760 758
f 761 760 764
f 760 763 764
f 809 790 805
f 425 426 846
f 428 845 429
f 425 848 428
f 425 846 847
f 428 849 845
f 425 847 848
f 428 848 849
f 419 866 426
f 426 862 846
f 848 847 850
f 848 851 849
f 848 850 851
f 846 862 847
f 847 864 850
f 850 865 851
f 847 861 864
f 405 874 866
f 426 866 862
f 847 862 861
f 437 438 852
f 438 439 855
f 432 437 874
f 437 852 854
f 852 855 854
f 438 855 852
f 439 857 855
f 439 441 857
f 857 441 853
f 857 853 858
f 437 854 881
f 855 857 856
f 854 855 882
f 855 856 882
f 437 881 874
f 854 882 881
f 856 884 882
f 857 859 856
f 859 860 856
f 859 858 860
f 857 858 859
f 856 860 884
f 850 864 865
f 861 862 863
f 861 863 864
f 862 866 863
f 863 868 864
f 864 871 865
f 864 868 869
f 863 866 868
f 864 869 871
f 874 881 867
f 866 877 868
f 869 868 870
f 868 877 870
f 869 870 871
f 872 871 870
f 872 870 873
f 872 873 871
f 870 878 873
f 866 874 877
f 870 877 878
f 874 867 877
f 877 867 875
f 877 876 878
f 877 875 876
f 878 880 873
f 878 876 880
f 876 879 880
f 881 883 885
f 881 882 883
f 882 884 883
f 881 885 867
f 883 884 875
f 887 884 886
f 883 875 885
f 867 885 875
f 875 884 887
f 884 860 886
f 887 886 888
f 875 887 876
f 887 888 876
f 876 888 879
