# ff_proximal_pad.obj  (48 v, 92 f)  units: metres
v 0.009300000 0.034474187 0.024945445
v 0.009651472 0.034400232 0.024100145
v 0.009651472 0.033628888 0.025019398
v 0.010500000 0.033554934 0.024174100
v 0.010500000 0.034369603 0.023750011
v 0.010500000 0.033278756 0.025050031
v 0.009651472 0.036731634 0.060483929
v 0.009300000 0.037576932 0.060409974
v 0.009651472 0.037650887 0.061255276
v 0.010500000 0.036381502 0.060514562
v 0.010500000 0.036805589 0.061329231
v 0.010500000 0.037681520 0.061605409
v 0.009300000 0.056988187 0.022975724
v 0.009651472 0.056914233 0.022130424
v 0.009651472 0.057833489 0.022901770
v 0.010500000 0.056883600 0.021780290
v 0.010500000 0.057759535 0.022056470
v 0.010500000 0.058183622 0.022871137
v 0.009300000 0.060090933 0.058440253
v 0.009651472 0.060936235 0.058366302
v 0.009651472 0.060164887 0.059285555
v 0.010500000 0.061286367 0.058335669
v 0.010500000 0.060195521 0.059635688
v 0.010500000 0.061010189 0.059211601
v 0.012600000 0.033554934 0.024174100
v 0.012600000 0.034369603 0.023750011
v 0.012600000 0.033278756 0.025050031
v 0.013448528 0.034400232 0.024100145
v 0.013448528 0.033628888 0.025019398
v 0.013800000 0.034474187 0.024945445
v 0.012600000 0.036381502 0.060514562
v 0.012600000 0.036805589 0.061329231
v 0.012600000 0.037681520 0.061605409
v 0.013448528 0.036731634 0.060483929
v 0.013448528 0.037650887 0.061255276
v 0.013800000 0.037576932 0.060409974
v 0.012600000 0.056883600 0.021780290
v 0.012600000 0.057759535 0.022056470
v 0.012600000 0.058183622 0.022871137
v 0.013448528 0.056914233 0.022130424
v 0.013800000 0.056988187 0.022975724
v 0.013448528 0.057833489 0.022901770
v 0.012600000 0.061286367 0.058335669
v 0.012600000 0.060195521 0.059635688
v 0.012600000 0.061010189 0.059211601
v 0.013448528 0.060936235 0.058366302
v 0.013448528 0.060164887 0.059285555
v 0.013800000 0.060090933 0.058440253
f 1 2 3
f 3 2 4
f 2 5 4
f 3 4 6
f 1 3 7
f 3 6 7
f 1 14 2
f 2 14 5
f 4 5 25
f 4 25 6
f 1 7 8
f 6 10 7
f 8 7 9
f 7 10 11
f 7 11 9
f 9 11 12
f 1 8 19
f 8 9 21
f 9 12 21
f 6 31 10
f 10 32 11
f 11 32 12
f 12 33 23
f 1 13 14
f 5 14 16
f 1 19 13
f 13 15 14
f 14 15 17
f 14 17 16
f 15 18 17
f 13 19 15
f 15 22 18
f 5 16 37
f 16 17 38
f 17 18 38
f 18 22 39
f 8 21 19
f 12 23 21
f 15 19 20
f 15 20 22
f 19 21 20
f 21 24 20
f 20 24 22
f 21 23 24
f 22 24 43
f 23 44 24
f 5 26 25
f 6 25 27
f 6 27 31
f 5 37 26
f 25 26 28
f 25 29 27
f 25 28 29
f 29 28 30
f 27 29 31
f 29 30 36
f 26 37 28
f 28 41 30
f 30 41 36
f 10 31 32
f 12 32 33
f 29 34 31
f 29 36 34
f 31 34 32
f 32 35 33
f 32 34 35
f 34 36 35
f 33 35 44
f 35 36 48
f 16 38 37
f 18 39 38
f 28 37 40
f 28 40 41
f 37 38 40
f 38 42 40
f 38 39 42
f 40 42 41
f 39 46 42
f 42 48 41
f 23 33 44
f 22 43 39
f 24 45 43
f 24 44 45
f 36 41 48
f 35 47 44
f 35 48 47
f 39 43 46
f 42 46 48
f 43 45 46
f 44 47 45
f 45 47 46
f 47 48 46
