# ff_tip_rubber.obj  (1442 v, 2876 f)  units: metres
v -0.009381978 0.046897490 0.123136327
v -0.007895265 0.045348424 0.123271853
v -0.006154791 0.044088710 0.123382062
v -0.010567146 0.048686109 0.122979842
v -0.011412678 0.050656803 0.122807428
v -0.011891397 0.052746225 0.122624628
v -0.006551631 0.051023826 0.126954317
v -0.007075861 0.052245658 0.126847416
v -0.007372666 0.053541098 0.126734078
v -0.004216498 0.043158829 0.123463422
v -0.003815971 0.048173439 0.127203688
v -0.002142683 0.042588670 0.123513304
v -0.000000000 0.042396560 0.123530112
v -0.002614229 0.047596913 0.127254128
v -0.001328463 0.047243416 0.127285063
v -0.000000000 0.047124308 0.127295479
v -0.005816826 0.049914882 0.127051339
v -0.004895064 0.048954461 0.127135366
v -0.009708204 0.048283026 0.134057134
v -0.009365222 0.047870010 0.134093255
v -0.009637420 0.048460323 0.135493577
v -0.006429921 0.045216229 0.134325445
v -0.006147109 0.045061342 0.134338990
v -0.006383040 0.045415886 0.135759935
v -0.007649088 0.046098635 0.134248242
v -0.007884350 0.046318717 0.134228989
v -0.007593317 0.046291858 0.135683298
v -0.008747623 0.047126304 0.134158328
v -0.008683844 0.047312032 0.135594040
v -0.008493434 0.047614388 0.136998385
v -0.008179170 0.048028957 0.138350874
v -0.007426819 0.046616580 0.137085676
v -0.006243080 0.045759816 0.137160644
v -0.006012081 0.046243005 0.138507113
v -0.007152021 0.047068067 0.138434932
v -0.007745636 0.048549689 0.139631778
v -0.006772931 0.047639735 0.139711395
v -0.006295076 0.048323248 0.140896425
v -0.010515681 0.049550563 0.133946240
v -0.010561463 0.049647488 0.133937746
v -0.011390158 0.051622804 0.133764938
v -0.011157318 0.050908923 0.133827388
v -0.011075969 0.051067077 0.135265514
v -0.010439009 0.049718618 0.135383502
v -0.010833106 0.051287092 0.136677057
v -0.010210114 0.049968205 0.136792451
v -0.009426101 0.048737500 0.136900127
v -0.009077328 0.049110509 0.138256252
v -0.009832332 0.050295677 0.138152555
v -0.010432273 0.051565766 0.138041437
v -0.011622998 0.052336685 0.133702472
v -0.011538253 0.052484427 0.135141522
v -0.011885228 0.053706113 0.133582667
v -0.011905377 0.053811334 0.133573458
v -0.011818573 0.053948324 0.135013446
v -0.011559428 0.054105163 0.136430517
v -0.011285255 0.052673366 0.136555776
v -0.010867692 0.052900750 0.137924641
v -0.011131721 0.054279566 0.137804016
v -0.010541688 0.054468993 0.139113903
v -0.009879314 0.051899035 0.139338747
v -0.010291654 0.053163256 0.139228135
v -0.006019087 0.050773915 0.133822232
v -0.006519722 0.051559787 0.133753479
v -0.006548107 0.051619880 0.133748218
v -0.006472186 0.051663984 0.134644583
v -0.006917537 0.052401971 0.133679792
v -0.006867100 0.052500028 0.134571433
v -0.007061898 0.052844577 0.133641079
v -0.006330270 0.051818728 0.135518134
v -0.006096046 0.052021760 0.136361390
v -0.006716526 0.052636437 0.135446593
v -0.006468009 0.052809216 0.136292502
v -0.007206259 0.053287186 0.133602351
v -0.007153717 0.053378783 0.134494558
v -0.007368841 0.054136228 0.133528069
v -0.007381334 0.054201465 0.133522362
v -0.007327515 0.054286402 0.134415150
v -0.006996858 0.053495925 0.135371387
v -0.007166845 0.054383639 0.135293737
v -0.006901667 0.054491770 0.136145309
v -0.006737969 0.053636905 0.136220083
v -0.006125175 0.053015839 0.137096837
v -0.006380825 0.053799659 0.137028262
v -0.006535846 0.054609217 0.136957437
v -0.006074718 0.054734256 0.137718290
v -0.009311172 0.050696269 0.139443979
v -0.009182293 0.052282039 0.140550077
v -0.009797933 0.054670673 0.140341103
v -0.009565540 0.053457063 0.140447274
v -0.008596187 0.049573921 0.139542162
v -0.007989695 0.050120965 0.140739143
v -0.008654235 0.051164128 0.140647873
v -0.007871100 0.051692441 0.141746715
v -0.007199153 0.049169000 0.140822425
v -0.006547690 0.049877856 0.141905472
v -0.007266695 0.050743677 0.141829714
v -0.006437730 0.051432967 0.142797977
v -0.008351373 0.052709188 0.141657755
v -0.008699939 0.053777885 0.141564265
v -0.007707473 0.054121040 0.142562807
v -0.006973186 0.052273501 0.142724440
v -0.007398670 0.053174261 0.142645642
v -0.006338079 0.053670470 0.143499315
v -0.006602616 0.054481529 0.143428355
v -0.005109352 0.044493001 0.134388715
v -0.005072099 0.044697933 0.135822743
v -0.003708204 0.043940358 0.134437069
v -0.004208493 0.044137683 0.134419799
v -0.003681167 0.044149321 0.135870740
v -0.004960883 0.045057606 0.137222067
v -0.003600450 0.044521023 0.137269020
v -0.003467231 0.045050047 0.138611495
v -0.003167798 0.048424099 0.134027809
v -0.003144701 0.048551157 0.134916916
v -0.004777327 0.045566775 0.138566285
v -0.002141895 0.043553591 0.134470895
v -0.002248576 0.043567017 0.134469733
v -0.002232181 0.043778699 0.135903165
v -0.000753486 0.043378863 0.134486184
v -0.000000000 0.043355271 0.134488255
v -0.000747992 0.043591917 0.135919511
v -0.002183236 0.044158529 0.137300730
v -0.002102455 0.044700965 0.138642028
v -0.000731591 0.043975841 0.137316719
v -0.000704522 0.044525038 0.138657421
v -0.002609266 0.048203804 0.134047091
v -0.002299086 0.048081461 0.134057790
v -0.002282324 0.048211019 0.134946674
v -0.002232279 0.048441473 0.135813609
v -0.001394117 0.047849990 0.134078041
v -0.001327975 0.047841664 0.134078771
v -0.000467161 0.047733333 0.134088248
v -0.000000000 0.047718707 0.134089530
v -0.001383952 0.047981232 0.134966776
v -0.001353606 0.048216727 0.135833263
v -0.000463755 0.047865428 0.134976909
v -0.000453587 0.048103459 0.135843173
v -0.001303522 0.048553038 0.136664867
v -0.000436804 0.048443962 0.136674419
v -0.005693413 0.046858404 0.139779747
v -0.004524106 0.046218019 0.139835775
v -0.005291722 0.047597043 0.140959963
v -0.004812866 0.048448145 0.142030552
v -0.003283452 0.045728680 0.139878586
v -0.004204914 0.047001839 0.141012028
v -0.003051792 0.046547022 0.141051829
v -0.003824404 0.047906801 0.142077908
v -0.001991015 0.045398101 0.139907509
v -0.000667179 0.045231495 0.139922082
v -0.001850542 0.046239767 0.141078711
v -0.002775630 0.047493145 0.142114103
v -0.001683083 0.047213692 0.142138556
v -0.000620107 0.046084918 0.141092256
v -0.000563993 0.047072858 0.142150879
v -0.002458994 0.048553247 0.143049926
v -0.001491082 0.048305675 0.143071592
v -0.000499654 0.048180904 0.143082500
v -0.005423526 0.050056748 0.133884981
v -0.005383983 0.050171901 0.134775117
v -0.004888297 0.049556043 0.133928791
v -0.004742434 0.049419593 0.133940727
v -0.004707857 0.049539391 0.134830460
v -0.004604628 0.049740721 0.135699928
v -0.005806438 0.050517846 0.133844629
v -0.005975200 0.050883841 0.134712830
v -0.005265929 0.050359361 0.135645807
v -0.005844183 0.051055688 0.135584891
v -0.005627944 0.051286954 0.136425689
v -0.003986551 0.048872501 0.133988589
v -0.003811208 0.048776470 0.133996978
v -0.003957485 0.048996288 0.134877965
v -0.003870710 0.049209524 0.135746405
v -0.003075748 0.048774157 0.135784492
v -0.005329636 0.051574271 0.137222946
v -0.005071085 0.050616391 0.136484355
v -0.004802295 0.050939247 0.137278512
v -0.004434253 0.050020643 0.136536464
v -0.003727490 0.049509101 0.136581227
v -0.003529916 0.049890649 0.137370259
v -0.004199217 0.050375074 0.137327880
v -0.003902947 0.050798852 0.138062596
v -0.004463475 0.051323220 0.138016716
v -0.003280868 0.050348606 0.138101995
v -0.003549763 0.051285792 0.138729930
v -0.005772927 0.052270126 0.137162074
v -0.005693022 0.053253304 0.137847856
v -0.005365625 0.052560199 0.137908489
v -0.004953611 0.051913437 0.137965083
v -0.004505351 0.052299518 0.138641238
v -0.004880082 0.052887753 0.138589770
v -0.005930635 0.053981818 0.137784123
v -0.005393962 0.054180726 0.138476655
v -0.005177851 0.053518135 0.138534620
v -0.004587175 0.053806480 0.139147103
v -0.004778633 0.054393485 0.139095753
v -0.004059568 0.051762711 0.138688207
v -0.004323375 0.053248011 0.139195964
v -0.003991392 0.052726880 0.139241561
v -0.003596463 0.052251309 0.139283165
v -0.003144816 0.051828798 0.139320135
v -0.002961942 0.049089842 0.136617914
v -0.002804946 0.049493611 0.137404993
v -0.002149683 0.048769470 0.136645943
v -0.002035740 0.049190219 0.137431532
v -0.002607047 0.049979579 0.138134271
v -0.001892111 0.049697593 0.138158947
v -0.002983977 0.050876290 0.138765752
v -0.002371131 0.050540656 0.138795108
v -0.002643573 0.051466007 0.139351875
v -0.001720891 0.050284188 0.138817549
v -0.001524576 0.050941452 0.139397770
v -0.002100639 0.051168662 0.139377877
v -0.001234429 0.048985261 0.137449473
v -0.000413651 0.048881967 0.137458503
v -0.001147336 0.049507096 0.138175607
v -0.001043512 0.050110929 0.138832718
v -0.000384466 0.049411088 0.138184011
v -0.000349675 0.050023612 0.138840362
v -0.000924471 0.050787959 0.139411196
v -0.000309785 0.050710600 0.139417961
v -0.005725424 0.049108636 0.141972765
v -0.005072284 0.049984448 0.142924711
v -0.005800747 0.050665919 0.142865092
v -0.004969216 0.051521696 0.143687308
v -0.004263827 0.049399305 0.142975911
v -0.003388127 0.048919715 0.143017858
v -0.004345177 0.050937913 0.143738389
v -0.003652612 0.050436649 0.143782243
v -0.003419231 0.053189289 0.139757305
v -0.003080914 0.052781891 0.139792949
v -0.003929609 0.054114129 0.139676392
v -0.004093622 0.054616988 0.139632389
v -0.003703624 0.053635716 0.139718249
v -0.003029866 0.054045215 0.140148982
v -0.003214740 0.054436598 0.140114740
v -0.005514889 0.052178789 0.143629819
v -0.005973587 0.052898832 0.143566832
v -0.004511627 0.052970264 0.144313112
v -0.004886880 0.053559318 0.144261569
v -0.005185064 0.054190580 0.144206345
v -0.004065224 0.052432708 0.144360140
v -0.003554708 0.051955126 0.144401923
v -0.003956439 0.054727010 0.144756407
v -0.003442577 0.053795852 0.144837871
v -0.003101950 0.053385675 0.144873753
v -0.003728912 0.054245327 0.144798547
v -0.001306030 0.051659800 0.139891118
v -0.000791949 0.051528309 0.139902622
v -0.000265378 0.051462039 0.139908418
v -0.002902442 0.050025810 0.143818185
v -0.002106500 0.049711872 0.143845648
v -0.002988134 0.051545054 0.144437790
v -0.002374434 0.051208954 0.144467205
v -0.001723288 0.050952125 0.144489676
v -0.001277337 0.049499791 0.143864200
v -0.000428029 0.049392905 0.143873557
v -0.001044965 0.050778627 0.144504845
v -0.000350163 0.050691187 0.144512504
v -0.002694010 0.052419946 0.139824614
v -0.002264619 0.052109163 0.139851809
v -0.001799514 0.051854443 0.139874086
v -0.002203919 0.053050619 0.140236005
v -0.001852643 0.052796371 0.140258238
v -0.002797209 0.053680003 0.140180945
v -0.002520439 0.053346720 0.140210092
v -0.002452992 0.054769184 0.140455782
v -0.002311925 0.054470543 0.140481904
v -0.001923209 0.053937558 0.140528545
v -0.001681690 0.053711619 0.140548304
v -0.002134397 0.054191869 0.140506297
v -0.001068439 0.052428756 0.140290409
v -0.001472149 0.052587990 0.140276477
v -0.000815267 0.053237110 0.140589818
v -0.000647878 0.052321188 0.140299812
v -0.000217101 0.052266974 0.140304565
v -0.000494361 0.053155027 0.140597001
v -0.000165658 0.053113662 0.140600622
v -0.001413651 0.053517617 0.140565276
v -0.001123317 0.053358614 0.140579194
v -0.001134939 0.054393310 0.140756980
v -0.001440462 0.054717418 0.140728623
v -0.001297935 0.054545790 0.140743628
v -0.000954044 0.054262381 0.140768439
v -0.000758104 0.054155070 0.140777811
v -0.000333634 0.054017678 0.140789837
v -0.000111799 0.053989761 0.140792280
v -0.000550207 0.054073073 0.140784994
v -0.002712404 0.053021256 0.144905642
v -0.002280082 0.052708354 0.144933015
v -0.001811801 0.052451894 0.144955456
v -0.002323325 0.054643515 0.145196468
v -0.001538781 0.053909585 0.145260677
v -0.002093443 0.054366693 0.145220682
v -0.001830547 0.054120757 0.145242199
v -0.001314947 0.052255921 0.144972593
v -0.000797356 0.052123532 0.144984186
v -0.000267190 0.052056812 0.144990012
v -0.001222748 0.053736504 0.145275816
v -0.000887431 0.053604249 0.145287395
v -0.000538119 0.053514902 0.145295203
v -0.000180321 0.053469874 0.145299152
v -0.011987917 0.054887224 0.122437313
v -0.011699134 0.057010986 0.122251511
v -0.011034333 0.059049249 0.122073188
v -0.010014879 0.060936503 0.121908076
v -0.007432509 0.054868519 0.126617953
v -0.007253463 0.056185249 0.126502752
v -0.006841287 0.057448972 0.126392186
v -0.006209225 0.058619071 0.126289815
v -0.011966214 0.055844579 0.133395582
v -0.011905377 0.056807883 0.133311301
v -0.011683472 0.057966724 0.133209914
v -0.011622998 0.058282532 0.133182287
v -0.011157318 0.059710294 0.133057371
v -0.011019905 0.060001198 0.133031920
v -0.007419053 0.055462077 0.133412078
v -0.007381334 0.056059327 0.133359820
v -0.007243752 0.056777809 0.133296952
v -0.007206259 0.056973610 0.133279830
v -0.006917537 0.057858821 0.133202389
v -0.006832341 0.058039181 0.133186609
v -0.006519722 0.058701005 0.133128703
v -0.006019087 0.059486877 0.133059949
v -0.006197841 0.059206277 0.133084491
v -0.008673538 0.062612094 0.121761478
v -0.007053423 0.064022154 0.121638112
v -0.010515681 0.061068654 0.132938534
v -0.009996518 0.061883610 0.132867232
v -0.009708204 0.062336192 0.132827640
v -0.008747623 0.063492917 0.132726431
v -0.008669239 0.063566245 0.132720023
v -0.007649088 0.064520583 0.132636532
v -0.007039505 0.064961784 0.132597923
v -0.006429921 0.065402992 0.132559329
v -0.005377594 0.059657939 0.126198933
v -0.004373122 0.060532175 0.126122445
v -0.005423526 0.060204048 0.132997200
v -0.005374928 0.060249511 0.132993221
v -0.004742434 0.060841199 0.132941455
v -0.003228095 0.061213695 0.126062825
v -0.005206605 0.065121382 0.121541947
v -0.003192442 0.065874435 0.121476062
v -0.001979314 0.061680589 0.126021966
v -0.000666916 0.061917845 0.126001209
v -0.001075672 0.066257104 0.121442579
v -0.004364493 0.061114743 0.132917523
v -0.003986551 0.061388295 0.132893592
v -0.003226219 0.061804697 0.132857159
v -0.003167798 0.061836697 0.132854357
v -0.005203579 0.066074610 0.132500559
v -0.005109352 0.066126220 0.132496044
v -0.003708204 0.066678859 0.132447705
v -0.003187034 0.066812165 0.132436037
v -0.002299086 0.062179331 0.132824391
v -0.001975961 0.062261980 0.132817149
v -0.001394117 0.062410802 0.132804140
v -0.000665677 0.062502481 0.132796124
v -0.000467161 0.062527463 0.132793933
v -0.002248576 0.067052200 0.132415041
v -0.001073673 0.067200065 0.132402107
v -0.000753486 0.067240357 0.132398576
v -0.012000000 0.055309609 0.133442387
v -0.011912506 0.055435676 0.134883314
v -0.011651302 0.055559903 0.136303246
v -0.011818573 0.056923028 0.134753197
v -0.011559428 0.057014640 0.136175960
v -0.011220195 0.055680480 0.137681454
v -0.010625472 0.055795647 0.138997838
v -0.011131721 0.057081390 0.137558877
v -0.010541688 0.057122305 0.138881773
v -0.011538253 0.058386922 0.134625122
v -0.011285255 0.058446437 0.136050701
v -0.011075969 0.059804272 0.134501114
v -0.010833106 0.059832711 0.135929421
v -0.010867692 0.058460210 0.137438253
v -0.010291654 0.058428042 0.138767540
v -0.010432273 0.059795190 0.137321457
v -0.009879314 0.059692260 0.138656929
v -0.009311172 0.060895029 0.138551697
v -0.007440000 0.055130396 0.133441091
v -0.007385754 0.055208560 0.134334460
v -0.007327515 0.056130718 0.134253800
v -0.007223807 0.055285580 0.135214821
v -0.006956521 0.055360336 0.136069313
v -0.007166845 0.056187518 0.135135904
v -0.006901667 0.056228902 0.135993317
v -0.007153717 0.057038330 0.134174392
v -0.006867100 0.057917088 0.134097502
v -0.006996858 0.057075229 0.135058239
v -0.006737969 0.057083771 0.135918528
v -0.006716526 0.057934720 0.134983048
v -0.006468009 0.057911456 0.135846108
v -0.006587793 0.055431742 0.136885464
v -0.006123000 0.055498753 0.137651414
v -0.006535846 0.056254268 0.136813506
v -0.006074718 0.056263249 0.137584522
v -0.006380825 0.057063825 0.136742681
v -0.006125175 0.057847641 0.136674106
v -0.006472186 0.058753133 0.134024367
v -0.006330270 0.058752432 0.134911507
v -0.006096046 0.058698911 0.135777220
v -0.009875806 0.055903729 0.140233219
v -0.009797933 0.057136789 0.140125334
v -0.009565540 0.058350399 0.140019163
v -0.009182293 0.059525423 0.139916360
v -0.008911302 0.054881673 0.141467690
v -0.008982129 0.056003150 0.141369566
v -0.007957472 0.056092452 0.142390326
v -0.008911302 0.057124626 0.141271457
v -0.007894725 0.057085995 0.142303407
v -0.007894725 0.055098914 0.142477259
v -0.006763025 0.055319224 0.143355072
v -0.006816777 0.056170344 0.143280610
v -0.006763025 0.057021461 0.143206149
v -0.006602616 0.057859156 0.143132851
v -0.008699939 0.058228415 0.141174883
v -0.008351373 0.059297107 0.141081393
v -0.007707473 0.058063865 0.142217860
v -0.008654235 0.060643334 0.139818549
v -0.007871100 0.060313858 0.140992433
v -0.007398670 0.059010647 0.142135024
v -0.006973186 0.059911408 0.142056212
v -0.006437730 0.060751941 0.141982675
v -0.006338079 0.058670215 0.143061891
v -0.010439009 0.061152730 0.134383142
v -0.009637420 0.062411025 0.134273052
v -0.010210114 0.061151601 0.135814026
v -0.009426101 0.062382303 0.135706365
v -0.009832332 0.061065279 0.137210339
v -0.009077328 0.062250447 0.137106642
v -0.008683844 0.063559316 0.134172589
v -0.008493434 0.063505419 0.135608092
v -0.008596187 0.062017377 0.138453513
v -0.008179170 0.063332006 0.137012020
v -0.007745636 0.063041605 0.138363898
v -0.006772931 0.063951559 0.138284281
v -0.007593317 0.064579487 0.134083331
v -0.006383040 0.065455467 0.134006694
v -0.007426819 0.064503223 0.135520801
v -0.006243080 0.065359987 0.135445848
v -0.007152021 0.064292893 0.136927962
v -0.006012081 0.065117955 0.136855781
v -0.007989695 0.061686493 0.139727294
v -0.007266695 0.061262622 0.140909433
v -0.006547690 0.062128443 0.140833676
v -0.007199153 0.062638462 0.139644012
v -0.006295076 0.063484214 0.139570013
v -0.005525007 0.054865077 0.138416782
v -0.005568920 0.055560391 0.138355941
v -0.005525007 0.056255706 0.138295114
v -0.004894729 0.054999765 0.139042705
v -0.004933632 0.055615760 0.138988808
v -0.004894729 0.056231756 0.138934925
v -0.005930635 0.057015687 0.137518689
v -0.005693022 0.057744201 0.137454957
v -0.005393962 0.056940056 0.138235241
v -0.004778633 0.056838036 0.138881892
v -0.005177851 0.057602644 0.138177276
v -0.004587175 0.057425041 0.138830528
v -0.003929609 0.057213973 0.139405191
v -0.003703624 0.057692390 0.139363334
v -0.005627944 0.059433717 0.135712937
v -0.005975200 0.059533276 0.133956105
v -0.005383983 0.060245216 0.133893818
v -0.005844183 0.059515469 0.134844765
v -0.005265929 0.060211800 0.134783834
v -0.004707857 0.060877722 0.133838475
v -0.004604628 0.060830437 0.134729713
v -0.005071085 0.060104284 0.135654271
v -0.004434253 0.060700033 0.135602146
v -0.003529916 0.060972832 0.136400685
v -0.005772927 0.058593359 0.136608869
v -0.005365625 0.058437306 0.137394309
v -0.005329636 0.059289213 0.136547983
v -0.004953611 0.059084065 0.137337729
v -0.004880082 0.058233030 0.138122126
v -0.004505351 0.058821265 0.138070658
v -0.004802295 0.059924234 0.136492431
v -0.004323375 0.057983510 0.138781667
v -0.003991392 0.058504641 0.138736069
v -0.004059568 0.059358075 0.138023689
v -0.003419231 0.058138814 0.139324278
v -0.003080914 0.058546212 0.139288634
v -0.003144816 0.059402727 0.138657510
v -0.003596463 0.058980212 0.138694465
v -0.004463475 0.059674285 0.137286097
v -0.003902947 0.060198653 0.137240216
v -0.004199217 0.060488407 0.136443064
v -0.003280868 0.060648900 0.137200832
v -0.003549763 0.059834987 0.137981966
v -0.002694010 0.058908157 0.139256969
v -0.002264619 0.059218943 0.139229774
v -0.001799514 0.059473664 0.139207497
v -0.002607047 0.061017927 0.137168542
v -0.002371131 0.060580127 0.137916774
v -0.001720891 0.060836595 0.137894332
v -0.002643573 0.059765514 0.138625756
v -0.002983977 0.060244493 0.137946144
v -0.002100639 0.060062855 0.138599738
v -0.001524576 0.060290068 0.138579875
v -0.001043512 0.061009854 0.137879178
v -0.001306030 0.059668303 0.139190465
v -0.000791949 0.059799794 0.139178962
v -0.000924471 0.060443562 0.138566434
v -0.000265378 0.059866063 0.139173165
v -0.000309785 0.060520921 0.138559669
v -0.004193075 0.055136357 0.139586955
v -0.004226402 0.055664051 0.139540792
v -0.004193075 0.056191746 0.139494628
v -0.003430277 0.055272866 0.140041590
v -0.003348915 0.054847978 0.140078753
v -0.003457540 0.055704564 0.140003815
v -0.003430277 0.056136258 0.139966041
v -0.004093622 0.056711115 0.139449179
v -0.003348915 0.056561142 0.139928877
v -0.003214740 0.056972522 0.139892876
v -0.003029866 0.057363905 0.139858633
v -0.005401476 0.054854095 0.144148290
v -0.005532704 0.055539396 0.144088343
v -0.005576678 0.056235682 0.144027427
v -0.005401476 0.057617266 0.143906549
v -0.005532704 0.056931965 0.143966496
v -0.004121572 0.055233300 0.144712105
v -0.004221705 0.055756219 0.144666359
v -0.004255258 0.056287516 0.144619882
v -0.004221705 0.056818809 0.144573390
v -0.004121572 0.057341728 0.144527644
v -0.003956439 0.057848018 0.144483358
v -0.005973587 0.059441853 0.142994389
v -0.005185064 0.058280781 0.143848494
v -0.004886880 0.058912043 0.143793270
v -0.004511627 0.059501097 0.143741727
v -0.005514889 0.060161896 0.142931387
v -0.004969216 0.060818989 0.142873898
v -0.003728912 0.058329701 0.144441217
v -0.003442577 0.058779176 0.144401893
v -0.003101950 0.059189353 0.144365996
v -0.004065224 0.060038652 0.143694699
v -0.003554708 0.060516234 0.143652916
v -0.002555375 0.055083085 0.140428320
v -0.002617457 0.055407293 0.140399948
v -0.002638260 0.055736698 0.140371144
v -0.002617457 0.056066100 0.140342310
v -0.002555375 0.056390312 0.140313953
v -0.001560272 0.054905493 0.140712172
v -0.001655475 0.055107038 0.140694529
v -0.001724571 0.055318885 0.140675992
v -0.001766469 0.055537686 0.140656859
v -0.001780508 0.055759996 0.140637413
v -0.001766469 0.055982303 0.140617967
v -0.001724571 0.056201104 0.140598819
v -0.002452992 0.056704212 0.140286490
v -0.002311925 0.057002854 0.140260369
v -0.002797209 0.057729118 0.139826685
v -0.001655475 0.056412946 0.140580282
v -0.001560272 0.056614496 0.140562654
v -0.002134397 0.057281528 0.140235990
v -0.001923209 0.057535838 0.140213728
v -0.001681690 0.057761777 0.140193969
v -0.000785866 0.055343717 0.140836388
v -0.000868619 0.055551935 0.140818179
v -0.000833817 0.055445235 0.140827507
v -0.000889721 0.055662137 0.140808538
v -0.000896793 0.055774108 0.140798733
v -0.000889721 0.055886079 0.140788943
v -0.000868619 0.055996280 0.140779302
v -0.000833817 0.056102984 0.140769958
v -0.000785866 0.056204498 0.140761092
v -0.000571637 0.055085745 0.140858963
v -0.000653734 0.055162549 0.140852243
v -0.000480526 0.055019803 0.140864730
v -0.000381836 0.054965753 0.140869454
v -0.000725521 0.055248991 0.140844673
v -0.000277124 0.054924455 0.140873075
v -0.000168042 0.054896552 0.140875518
v -0.000056310 0.054882493 0.140876740
v -0.000653734 0.056385670 0.140745237
v -0.000725521 0.056299224 0.140752792
v -0.000000000 0.055778839 0.140852779
v -0.001440462 0.056802567 0.140546188
v -0.001297935 0.056974199 0.140531182
v -0.001134939 0.057126679 0.140517846
v -0.000954044 0.057257604 0.140506387
v -0.000758104 0.057364915 0.140496999
v -0.000571637 0.056462470 0.140738517
v -0.000480526 0.056528412 0.140732735
v -0.000381836 0.056582462 0.140728012
v -0.000277124 0.056623764 0.140724406
v -0.000168042 0.056651667 0.140721962
v -0.000056310 0.056665726 0.140720725
v -0.000550207 0.057446912 0.140489817
v -0.000333634 0.057502307 0.140484974
v -0.000111799 0.057530224 0.140482530
v -0.002670121 0.055271935 0.145141482
v -0.002781566 0.055613622 0.145111591
v -0.002516567 0.054946858 0.145169929
v -0.002849143 0.055966526 0.145080715
v -0.002871788 0.056325089 0.145049348
v -0.002849143 0.056683648 0.145017982
v -0.002781566 0.057036556 0.144987106
v -0.002670121 0.057378240 0.144957200
v -0.002516567 0.057703316 0.144928768
v -0.001170195 0.055500891 0.145383656
v -0.000775041 0.055131231 0.145415992
v -0.001054410 0.055361465 0.145395860
v -0.000921996 0.055237591 0.145406693
v -0.001344866 0.055817410 0.145355970
v -0.001400998 0.055989508 0.145340905
v -0.001267525 0.055653676 0.145370290
v -0.001435035 0.056167256 0.145325363
v -0.001446440 0.056347854 0.145309553
v -0.000615864 0.055044055 0.145423621
v -0.000446975 0.054977443 0.145429447
v -0.000271036 0.054932442 0.145433396
v -0.000090823 0.054909762 0.145435378
v -0.000000000 0.056355480 0.145396724
v -0.001435035 0.056528449 0.145293757
v -0.001400998 0.056706198 0.145278201
v -0.001344866 0.056878299 0.145263150
v -0.001267525 0.057042029 0.145248830
v -0.001170195 0.057194814 0.145235464
v -0.001054410 0.057334241 0.145223260
v -0.000921996 0.057458114 0.145212427
v -0.000775041 0.057564475 0.145203114
v -0.000615864 0.057651650 0.145195484
v -0.000446975 0.057718266 0.145189658
v -0.000271036 0.057763267 0.145185724
v -0.000090823 0.057785947 0.145183742
v -0.002520439 0.058062404 0.139797524
v -0.002203919 0.058358505 0.139771625
v -0.001852643 0.058612749 0.139749378
v -0.001413651 0.057955779 0.140176997
v -0.001123317 0.058114782 0.140163079
v -0.000815267 0.058236286 0.140152454
v -0.001472149 0.058821131 0.139731139
v -0.001068439 0.058980364 0.139717206
v -0.000494361 0.058318365 0.140145272
v -0.000165658 0.058359735 0.140141651
v -0.000647878 0.059087932 0.139707804
v -0.000217101 0.059142146 0.139703065
v -0.002323325 0.058006659 0.144902229
v -0.002093443 0.058283482 0.144878015
v -0.001830547 0.058529418 0.144856498
v -0.001538781 0.058740590 0.144838020
v -0.002988134 0.060926307 0.143617049
v -0.002712404 0.059553772 0.144334123
v -0.002280082 0.059866674 0.144306749
v -0.001811801 0.060123134 0.144284308
v -0.001222748 0.058913670 0.144822881
v -0.000887431 0.059045926 0.144811302
v -0.000538119 0.059135273 0.144803479
v -0.000180321 0.059180301 0.144799545
v -0.001314947 0.060319107 0.144267157
v -0.000797356 0.060451496 0.144255579
v -0.000267190 0.060518216 0.144249737
v -0.003957485 0.061420828 0.133790955
v -0.003870710 0.061361633 0.134683236
v -0.003075748 0.061797000 0.134645149
v -0.003144701 0.061865959 0.133752018
v -0.003727490 0.061211571 0.135557398
v -0.005072099 0.066173419 0.133943886
v -0.004960883 0.066062197 0.135384411
v -0.003681167 0.066722028 0.133895889
v -0.003600450 0.066598780 0.135337457
v -0.005693413 0.064732894 0.138215929
v -0.004524106 0.065373279 0.138159901
v -0.004777327 0.065794185 0.136796609
v -0.003051792 0.065260440 0.139414608
v -0.003467231 0.066310912 0.136751398
v -0.003283452 0.065862618 0.138117090
v -0.002282324 0.062206097 0.133722261
v -0.002232279 0.062129684 0.134616032
v -0.002961942 0.061630834 0.135520712
v -0.002804946 0.061369874 0.136365950
v -0.002035740 0.061673261 0.136339411
v -0.002149683 0.061951205 0.135492682
v -0.001383952 0.062435880 0.133702159
v -0.001353606 0.062354431 0.134596378
v -0.000463755 0.062551692 0.133692026
v -0.000453587 0.062467694 0.134586468
v -0.001303522 0.062167637 0.135473743
v -0.001234429 0.061878223 0.136321470
v -0.000436804 0.062276714 0.135464206
v -0.000413651 0.061981518 0.136312440
v -0.001892111 0.061299913 0.137143865
v -0.001147336 0.061490409 0.137127206
v -0.000384466 0.061586414 0.137118801
v -0.000349675 0.061097175 0.137871534
v -0.002232181 0.067092650 0.133863464
v -0.002183236 0.066961274 0.135305747
v -0.000747992 0.067279436 0.133847117
v -0.000731591 0.067143962 0.135289773
v -0.001850542 0.065567695 0.139387727
v -0.002102455 0.066659994 0.136720866
v -0.001991015 0.066193201 0.138088167
v -0.000620107 0.065722540 0.139374182
v -0.000704522 0.066835925 0.136705473
v -0.000667179 0.066359803 0.138073593
v -0.005800747 0.061518990 0.141915575
v -0.005072284 0.062200461 0.141855955
v -0.005725424 0.062897660 0.140766382
v -0.004812866 0.063558154 0.140708596
v -0.003824404 0.064099498 0.140661240
v -0.004263827 0.062785603 0.141804755
v -0.003388127 0.063265190 0.141762793
v -0.004345177 0.061402772 0.142822832
v -0.003652612 0.061904036 0.142778978
v -0.005291722 0.064210422 0.139506474
v -0.004204914 0.064805627 0.139454409
v -0.002458994 0.063631661 0.141730741
v -0.001491082 0.063879229 0.141709074
v -0.000499654 0.064004004 0.141698167
v -0.002374434 0.061262406 0.143587634
v -0.002902442 0.062314875 0.142743036
v -0.001723288 0.061519235 0.143565163
v -0.002106500 0.062628813 0.142715558
v -0.001044965 0.061692733 0.143549994
v -0.000350163 0.061780173 0.143542334
v -0.001277337 0.062840894 0.142697006
v -0.000428029 0.062947780 0.142687663
v -0.002775630 0.064513154 0.140625045
v -0.001683083 0.064792603 0.140600592
v -0.000563993 0.064933442 0.140588269
v 0.002142683 0.042588670 0.123513304
v 0.001328463 0.047243416 0.127285063
v 0.002614229 0.047596913 0.127254128
v 0.004216498 0.043158829 0.123463422
v 0.003815971 0.048173439 0.127203688
v 0.004895064 0.048954461 0.127135366
v 0.005816826 0.049914882 0.127051339
v 0.006154791 0.044088710 0.123382062
v 0.007895265 0.045348424 0.123271853
v 0.009381978 0.046897490 0.123136327
v 0.006551631 0.051023826 0.126954317
v 0.007075861 0.052245658 0.126847416
v 0.007372666 0.053541098 0.126734078
v 0.010567146 0.048686109 0.122979842
v 0.011412678 0.050656803 0.122807428
v 0.011891397 0.052746225 0.122624628
v 0.000753486 0.043378863 0.134486184
v 0.000747992 0.043591917 0.135919511
v 0.002141895 0.043553591 0.134470895
v 0.002248576 0.043567017 0.134469733
v 0.002232181 0.043778699 0.135903165
v 0.000731591 0.043975841 0.137316719
v 0.000704522 0.044525038 0.138657421
v 0.002183236 0.044158529 0.137300730
v 0.002102455 0.044700965 0.138642028
v 0.000467161 0.047733333 0.134088248
v 0.001327975 0.047841664 0.134078771
v 0.001394117 0.047849990 0.134078041
v 0.000463755 0.047865428 0.134976909
v 0.000453587 0.048103459 0.135843173
v 0.001383952 0.047981232 0.134966776
v 0.001353606 0.048216727 0.135833263
v 0.002299086 0.048081461 0.134057790
v 0.002609266 0.048203804 0.134047091
v 0.002232279 0.048441473 0.135813609
v 0.002282324 0.048211019 0.134946674
v 0.000436804 0.048443962 0.136674419
v 0.001303522 0.048553038 0.136664867
v 0.003708204 0.043940358 0.134437069
v 0.004208493 0.044137683 0.134419799
v 0.003681167 0.044149321 0.135870740
v 0.005109352 0.044493001 0.134388715
v 0.005072099 0.044697933 0.135822743
v 0.003600450 0.044521023 0.137269020
v 0.003467231 0.045050047 0.138611495
v 0.004960883 0.045057606 0.137222067
v 0.003167798 0.048424099 0.134027809
v 0.003144701 0.048551157 0.134916916
v 0.004777327 0.045566775 0.138566285
v 0.000667179 0.045231495 0.139922082
v 0.001991015 0.045398101 0.139907509
v 0.000620107 0.046084918 0.141092256
v 0.000563993 0.047072858 0.142150879
v 0.001850542 0.046239767 0.141078711
v 0.001683083 0.047213692 0.142138556
v 0.002775630 0.047493145 0.142114103
v 0.000499654 0.048180904 0.143082500
v 0.001491082 0.048305675 0.143071592
v 0.002458994 0.048553247 0.143049926
v 0.003283452 0.045728680 0.139878586
v 0.003051792 0.046547022 0.141051829
v 0.004204914 0.047001839 0.141012028
v 0.003824404 0.047906801 0.142077908
v 0.004524106 0.046218019 0.139835775
v 0.005693413 0.046858404 0.139779747
v 0.004812866 0.048448145 0.142030552
v 0.005291722 0.047597043 0.140959963
v 0.000413651 0.048881967 0.137458503
v 0.001234429 0.048985261 0.137449473
v 0.000384466 0.049411088 0.138184011
v 0.000349675 0.050023612 0.138840362
v 0.001147336 0.049507096 0.138175607
v 0.001043512 0.050110929 0.138832718
v 0.000309785 0.050710600 0.139417961
v 0.000924471 0.050787959 0.139411196
v 0.002149683 0.048769470 0.136645943
v 0.002035740 0.049190219 0.137431532
v 0.002961942 0.049089842 0.136617914
v 0.002804946 0.049493611 0.137404993
v 0.001892111 0.049697593 0.138158947
v 0.002607047 0.049979579 0.138134271
v 0.001720891 0.050284188 0.138817549
v 0.001524576 0.050941452 0.139397770
v 0.002100639 0.051168662 0.139377877
v 0.002371131 0.050540656 0.138795108
v 0.002983977 0.050876290 0.138765752
v 0.002643573 0.051466007 0.139351875
v 0.003811208 0.048776470 0.133996978
v 0.003986551 0.048872501 0.133988589
v 0.003957485 0.048996288 0.134877965
v 0.003075748 0.048774157 0.135784492
v 0.003870710 0.049209524 0.135746405
v 0.004742434 0.049419593 0.133940727
v 0.004888297 0.049556043 0.133928791
v 0.004707857 0.049539391 0.134830460
v 0.005423526 0.050056748 0.133884981
v 0.005383983 0.050171901 0.134775117
v 0.004604628 0.049740721 0.135699928
v 0.005806438 0.050517846 0.133844629
v 0.005975200 0.050883841 0.134712830
v 0.005265929 0.050359361 0.135645807
v 0.005844183 0.051055688 0.135584891
v 0.005627944 0.051286954 0.136425689
v 0.003727490 0.049509101 0.136581227
v 0.003529916 0.049890649 0.137370259
v 0.004434253 0.050020643 0.136536464
v 0.004199217 0.050375074 0.137327880
v 0.003280868 0.050348606 0.138101995
v 0.003549763 0.051285792 0.138729930
v 0.003902947 0.050798852 0.138062596
v 0.004463475 0.051323220 0.138016716
v 0.005071085 0.050616391 0.136484355
v 0.004802295 0.050939247 0.137278512
v 0.005329636 0.051574271 0.137222946
v 0.003144816 0.051828798 0.139320135
v 0.003596463 0.052251309 0.139283165
v 0.004059568 0.051762711 0.138688207
v 0.003991392 0.052726880 0.139241561
v 0.004323375 0.053248011 0.139195964
v 0.005772927 0.052270126 0.137162074
v 0.005365625 0.052560199 0.137908489
v 0.005693022 0.053253304 0.137847856
v 0.004505351 0.052299518 0.138641238
v 0.004953611 0.051913437 0.137965083
v 0.004880082 0.052887753 0.138589770
v 0.005930635 0.053981818 0.137784123
v 0.005177851 0.053518135 0.138534620
v 0.004587175 0.053806480 0.139147103
v 0.004778633 0.054393485 0.139095753
v 0.005393962 0.054180726 0.138476655
v 0.000265378 0.051462039 0.139908418
v 0.000791949 0.051528309 0.139902622
v 0.001306030 0.051659800 0.139891118
v 0.000428029 0.049392905 0.143873557
v 0.001277337 0.049499791 0.143864200
v 0.000350163 0.050691187 0.144512504
v 0.001044965 0.050778627 0.144504845
v 0.002106500 0.049711872 0.143845648
v 0.002902442 0.050025810 0.143818185
v 0.001723288 0.050952125 0.144489676
v 0.002374434 0.051208954 0.144467205
v 0.002988134 0.051545054 0.144437790
v 0.000217101 0.052266974 0.140304565
v 0.000647878 0.052321188 0.140299812
v 0.000165658 0.053113662 0.140600622
v 0.000494361 0.053155027 0.140597001
v 0.001068439 0.052428756 0.140290409
v 0.000815267 0.053237110 0.140589818
v 0.001472149 0.052587990 0.140276477
v 0.000111799 0.053989761 0.140792280
v 0.000333634 0.054017678 0.140789837
v 0.000550207 0.054073073 0.140784994
v 0.001123317 0.053358614 0.140579194
v 0.001413651 0.053517617 0.140565276
v 0.000758104 0.054155070 0.140777811
v 0.000954044 0.054262381 0.140768439
v 0.001134939 0.054393310 0.140756980
v 0.001297935 0.054545790 0.140743628
v 0.001440462 0.054717418 0.140728623
v 0.001799514 0.051854443 0.139874086
v 0.001852643 0.052796371 0.140258238
v 0.002203919 0.053050619 0.140236005
v 0.002264619 0.052109163 0.139851809
v 0.002694010 0.052419946 0.139824614
v 0.001681690 0.053711619 0.140548304
v 0.001923209 0.053937558 0.140528545
v 0.002134397 0.054191869 0.140506297
v 0.002797209 0.053680003 0.140180945
v 0.002520439 0.053346720 0.140210092
v 0.002311925 0.054470543 0.140481904
v 0.002452992 0.054769184 0.140455782
v 0.000267190 0.052056812 0.144990012
v 0.000797356 0.052123532 0.144984186
v 0.001314947 0.052255921 0.144972593
v 0.000180321 0.053469874 0.145299152
v 0.000538119 0.053514902 0.145295203
v 0.000887431 0.053604249 0.145287395
v 0.001222748 0.053736504 0.145275816
v 0.001811801 0.052451894 0.144955456
v 0.002280082 0.052708354 0.144933015
v 0.002712404 0.053021256 0.144905642
v 0.001538781 0.053909585 0.145260677
v 0.001830547 0.054120757 0.145242199
v 0.002093443 0.054366693 0.145220682
v 0.002323325 0.054643515 0.145196468
v 0.005725424 0.049108636 0.141972765
v 0.003388127 0.048919715 0.143017858
v 0.004263827 0.049399305 0.142975911
v 0.003652612 0.050436649 0.143782243
v 0.004345177 0.050937913 0.143738389
v 0.005072284 0.049984448 0.142924711
v 0.004969216 0.051521696 0.143687308
v 0.005800747 0.050665919 0.142865092
v 0.003080914 0.052781891 0.139792949
v 0.003419231 0.053189289 0.139757305
v 0.003029866 0.054045215 0.140148982
v 0.003703624 0.053635716 0.139718249
v 0.003214740 0.054436598 0.140114740
v 0.003929609 0.054114129 0.139676392
v 0.004093622 0.054616988 0.139632389
v 0.003554708 0.051955126 0.144401923
v 0.004065224 0.052432708 0.144360140
v 0.003101950 0.053385675 0.144873753
v 0.003442577 0.053795852 0.144837871
v 0.003728912 0.054245327 0.144798547
v 0.003956439 0.054727010 0.144756407
v 0.005514889 0.052178789 0.143629819
v 0.005973587 0.052898832 0.143566832
v 0.004511627 0.052970264 0.144313112
v 0.004886880 0.053559318 0.144261569
v 0.005185064 0.054190580 0.144206345
v 0.006147109 0.045061342 0.134338990
v 0.006429921 0.045216229 0.134325445
v 0.006383040 0.045415886 0.135759935
v 0.007649088 0.046098635 0.134248242
v 0.007884350 0.046318717 0.134228989
v 0.007593317 0.046291858 0.135683298
v 0.008747623 0.047126304 0.134158328
v 0.008683844 0.047312032 0.135594040
v 0.006243080 0.045759816 0.137160644
v 0.007426819 0.046616580 0.137085676
v 0.006012081 0.046243005 0.138507113
v 0.007152021 0.047068067 0.138434932
v 0.008493434 0.047614388 0.136998385
v 0.008179170 0.048028957 0.138350874
v 0.009365222 0.047870010 0.134093255
v 0.009708204 0.048283026 0.134057134
v 0.009637420 0.048460323 0.135493577
v 0.006295076 0.048323248 0.140896425
v 0.006772931 0.047639735 0.139711395
v 0.007745636 0.048549689 0.139631778
v 0.006019087 0.050773915 0.133822232
v 0.006519722 0.051559787 0.133753479
v 0.006548107 0.051619880 0.133748218
v 0.006472186 0.051663984 0.134644583
v 0.006917537 0.052401971 0.133679792
v 0.006867100 0.052500028 0.134571433
v 0.007061898 0.052844577 0.133641079
v 0.006330270 0.051818728 0.135518134
v 0.006096046 0.052021760 0.136361390
v 0.006716526 0.052636437 0.135446593
v 0.006468009 0.052809216 0.136292502
v 0.007206259 0.053287186 0.133602351
v 0.007153717 0.053378783 0.134494558
v 0.007368841 0.054136228 0.133528069
v 0.007381334 0.054201465 0.133522362
v 0.007327515 0.054286402 0.134415150
v 0.006737969 0.053636905 0.136220083
v 0.006996858 0.053495925 0.135371387
v 0.007166845 0.054383639 0.135293737
v 0.006901667 0.054491770 0.136145309
v 0.006125175 0.053015839 0.137096837
v 0.006380825 0.053799659 0.137028262
v 0.006535846 0.054609217 0.136957437
v 0.006074718 0.054734256 0.137718290
v 0.010439009 0.049718618 0.135383502
v 0.010515681 0.049550563 0.133946240
v 0.010561463 0.049647488 0.133937746
v 0.011157318 0.050908923 0.133827388
v 0.011390158 0.051622804 0.133764938
v 0.011075969 0.051067077 0.135265514
v 0.009426101 0.048737500 0.136900127
v 0.010210114 0.049968205 0.136792451
v 0.009077328 0.049110509 0.138256252
v 0.009832332 0.050295677 0.138152555
v 0.010432273 0.051565766 0.138041437
v 0.010833106 0.051287092 0.136677057
v 0.011622998 0.052336685 0.133702472
v 0.011538253 0.052484427 0.135141522
v 0.011885228 0.053706113 0.133582667
v 0.011905377 0.053811334 0.133573458
v 0.011818573 0.053948324 0.135013446
v 0.011559428 0.054105163 0.136430517
v 0.009879314 0.051899035 0.139338747
v 0.010291654 0.053163256 0.139228135
v 0.010867692 0.052900750 0.137924641
v 0.011285255 0.052673366 0.136555776
v 0.011131721 0.054279566 0.137804016
v 0.010541688 0.054468993 0.139113903
v 0.007199153 0.049169000 0.140822425
v 0.006547690 0.049877856 0.141905472
v 0.007266695 0.050743677 0.141829714
v 0.007989695 0.050120965 0.140739143
v 0.008596187 0.049573921 0.139542162
v 0.008654235 0.051164128 0.140647873
v 0.007871100 0.051692441 0.141746715
v 0.006437730 0.051432967 0.142797977
v 0.008351373 0.052709188 0.141657755
v 0.008699939 0.053777885 0.141564265
v 0.006973186 0.052273501 0.142724440
v 0.007398670 0.053174261 0.142645642
v 0.006338079 0.053670470 0.143499315
v 0.006602616 0.054481529 0.143428355
v 0.007707473 0.054121040 0.142562807
v 0.009311172 0.050696269 0.139443979
v 0.009182293 0.052282039 0.140550077
v 0.009565540 0.053457063 0.140447274
v 0.009797933 0.054670673 0.140341103
v 0.004373122 0.060532175 0.126122445
v 0.005377594 0.059657939 0.126198933
v 0.004742434 0.060841199 0.132941455
v 0.005374928 0.060249511 0.132993221
v 0.005423526 0.060204048 0.132997200
v 0.000666916 0.061917845 0.126001209
v 0.001979314 0.061680589 0.126021966
v 0.001075672 0.066257104 0.121442579
v 0.003228095 0.061213695 0.126062825
v 0.003192442 0.065874435 0.121476062
v 0.005206605 0.065121382 0.121541947
v 0.000467161 0.062527463 0.132793933
v 0.000665677 0.062502481 0.132796124
v 0.001394117 0.062410802 0.132804140
v 0.001975961 0.062261980 0.132817149
v 0.002299086 0.062179331 0.132824391
v 0.000753486 0.067240357 0.132398576
v 0.001073673 0.067200065 0.132402107
v 0.002248576 0.067052200 0.132415041
v 0.003226219 0.061804697 0.132857159
v 0.003167798 0.061836697 0.132854357
v 0.003986551 0.061388295 0.132893592
v 0.004364493 0.061114743 0.132917523
v 0.003187034 0.066812165 0.132436037
v 0.003708204 0.066678859 0.132447705
v 0.005203579 0.066074610 0.132500559
v 0.005109352 0.066126220 0.132496044
v 0.007432509 0.054868519 0.126617953
v 0.007253463 0.056185249 0.126502752
v 0.006841287 0.057448972 0.126392186
v 0.006209225 0.058619071 0.126289815
v 0.011987917 0.054887224 0.122437313
v 0.011699134 0.057010986 0.122251511
v 0.010014879 0.060936503 0.121908076
v 0.011034333 0.059049249 0.122073188
v 0.007419053 0.055462077 0.133412078
v 0.007381334 0.056059327 0.133359820
v 0.007243752 0.056777809 0.133296952
v 0.007206259 0.056973610 0.133279830
v 0.006917537 0.057858821 0.133202389
v 0.006519722 0.058701005 0.133128703
v 0.006019087 0.059486877 0.133059949
v 0.006197841 0.059206277 0.133084491
v 0.006832341 0.058039181 0.133186609
v 0.011966214 0.055844579 0.133395582
v 0.011905377 0.056807883 0.133311301
v 0.011622998 0.058282532 0.133182287
v 0.011683472 0.057966724 0.133209914
v 0.011157318 0.059710294 0.133057371
v 0.011019905 0.060001198 0.133031920
v 0.007053423 0.064022154 0.121638112
v 0.008673538 0.062612094 0.121761478
v 0.008669239 0.063566245 0.132720023
v 0.008747623 0.063492917 0.132726431
v 0.006429921 0.065402992 0.132559329
v 0.007039505 0.064961784 0.132597923
v 0.007649088 0.064520583 0.132636532
v 0.009708204 0.062336192 0.132827640
v 0.009996518 0.061883610 0.132867232
v 0.010515681 0.061068654 0.132938534
v 0.001043512 0.061009854 0.137879178
v 0.000265378 0.059866063 0.139173165
v 0.000309785 0.060520921 0.138559669
v 0.000791949 0.059799794 0.139178962
v 0.001306030 0.059668303 0.139190465
v 0.000924471 0.060443562 0.138566434
v 0.001799514 0.059473664 0.139207497
v 0.002264619 0.059218943 0.139229774
v 0.002694010 0.058908157 0.139256969
v 0.001720891 0.060836595 0.137894332
v 0.002607047 0.061017927 0.137168542
v 0.002371131 0.060580127 0.137916774
v 0.002100639 0.060062855 0.138599738
v 0.001524576 0.060290068 0.138579875
v 0.002643573 0.059765514 0.138625756
v 0.002983977 0.060244493 0.137946144
v 0.003703624 0.057692390 0.139363334
v 0.003929609 0.057213973 0.139405191
v 0.004894729 0.054999765 0.139042705
v 0.004933632 0.055615760 0.138988808
v 0.004894729 0.056231756 0.138934925
v 0.005525007 0.054865077 0.138416782
v 0.005568920 0.055560391 0.138355941
v 0.005525007 0.056255706 0.138295114
v 0.005930635 0.057015687 0.137518689
v 0.005693022 0.057744201 0.137454957
v 0.004778633 0.056838036 0.138881892
v 0.005177851 0.057602644 0.138177276
v 0.004587175 0.057425041 0.138830528
v 0.005393962 0.056940056 0.138235241
v 0.003529916 0.060972832 0.136400685
v 0.004434253 0.060700033 0.135602146
v 0.005627944 0.059433717 0.135712937
v 0.004707857 0.060877722 0.133838475
v 0.004604628 0.060830437 0.134729713
v 0.005383983 0.060245216 0.133893818
v 0.005975200 0.059533276 0.133956105
v 0.005265929 0.060211800 0.134783834
v 0.005844183 0.059515469 0.134844765
v 0.005071085 0.060104284 0.135654271
v 0.003080914 0.058546212 0.139288634
v 0.003419231 0.058138814 0.139324278
v 0.003144816 0.059402727 0.138657510
v 0.003596463 0.058980212 0.138694465
v 0.003991392 0.058504641 0.138736069
v 0.004323375 0.057983510 0.138781667
v 0.004059568 0.059358075 0.138023689
v 0.003280868 0.060648900 0.137200832
v 0.003902947 0.060198653 0.137240216
v 0.004463475 0.059674285 0.137286097
v 0.004199217 0.060488407 0.136443064
v 0.003549763 0.059834987 0.137981966
v 0.004953611 0.059084065 0.137337729
v 0.005772927 0.058593359 0.136608869
v 0.005365625 0.058437306 0.137394309
v 0.005329636 0.059289213 0.136547983
v 0.004880082 0.058233030 0.138122126
v 0.004505351 0.058821265 0.138070658
v 0.004802295 0.059924234 0.136492431
v 0.000056310 0.054882493 0.140876740
v 0.000168042 0.054896552 0.140875518
v 0.000277124 0.054924455 0.140873075
v 0.000381836 0.054965753 0.140869454
v 0.000480526 0.055019803 0.140864730
v 0.000571637 0.055085745 0.140858963
v 0.000653734 0.055162549 0.140852243
v 0.000725521 0.055248991 0.140844673
v 0.000653734 0.056385670 0.140745237
v 0.000725521 0.056299224 0.140752792
v 0.000785866 0.055343717 0.140836388
v 0.000833817 0.055445235 0.140827507
v 0.000868619 0.055551935 0.140818179
v 0.000889721 0.055662137 0.140808538
v 0.000896793 0.055774108 0.140798733
v 0.000889721 0.055886079 0.140788943
v 0.000868619 0.055996280 0.140779302
v 0.000833817 0.056102984 0.140769958
v 0.000785866 0.056204498 0.140761092
v 0.000056310 0.056665726 0.140720725
v 0.000168042 0.056651667 0.140721962
v 0.000277124 0.056623764 0.140724406
v 0.000381836 0.056582462 0.140728012
v 0.000480526 0.056528412 0.140732735
v 0.000571637 0.056462470 0.140738517
v 0.000111799 0.057530224 0.140482530
v 0.000333634 0.057502307 0.140484974
v 0.000550207 0.057446912 0.140489817
v 0.001297935 0.056974199 0.140531182
v 0.001134939 0.057126679 0.140517846
v 0.001440462 0.056802567 0.140546188
v 0.000758104 0.057364915 0.140496999
v 0.000954044 0.057257604 0.140506387
v 0.001560272 0.054905493 0.140712172
v 0.001655475 0.055107038 0.140694529
v 0.001724571 0.055318885 0.140675992
v 0.001766469 0.055537686 0.140656859
v 0.001780508 0.055759996 0.140637413
v 0.001766469 0.055982303 0.140617967
v 0.001724571 0.056201104 0.140598819
v 0.002555375 0.055083085 0.140428320
v 0.002617457 0.055407293 0.140399948
v 0.002617457 0.056066100 0.140342310
v 0.002555375 0.056390312 0.140313953
v 0.002638260 0.055736698 0.140371144
v 0.001655475 0.056412946 0.140580282
v 0.001560272 0.056614496 0.140562654
v 0.001681690 0.057761777 0.140193969
v 0.001923209 0.057535838 0.140213728
v 0.002134397 0.057281528 0.140235990
v 0.002452992 0.056704212 0.140286490
v 0.002311925 0.057002854 0.140260369
v 0.002797209 0.057729118 0.139826685
v 0.000090823 0.054909762 0.145435378
v 0.000271036 0.054932442 0.145433396
v 0.000446975 0.054977443 0.145429447
v 0.000615864 0.055044055 0.145423621
v 0.000775041 0.055131231 0.145415992
v 0.000921996 0.055237591 0.145406693
v 0.001054410 0.055361465 0.145395860
v 0.001170195 0.055500891 0.145383656
v 0.001267525 0.055653676 0.145370290
v 0.001344866 0.055817410 0.145355970
v 0.001400998 0.055989508 0.145340905
v 0.001435035 0.056167256 0.145325363
v 0.001446440 0.056347854 0.145309553
v 0.000090823 0.057785947 0.145183742
v 0.000271036 0.057763267 0.145185724
v 0.000446975 0.057718266 0.145189658
v 0.000615864 0.057651650 0.145195484
v 0.001435035 0.056528449 0.145293757
v 0.001400998 0.056706198 0.145278201
v 0.001267525 0.057042029 0.145248830
v 0.001344866 0.056878299 0.145263150
v 0.000921996 0.057458114 0.145212427
v 0.001054410 0.057334241 0.145223260
v 0.000775041 0.057564475 0.145203114
v 0.001170195 0.057194814 0.145235464
v 0.002516567 0.054946858 0.145169929
v 0.002670121 0.055271935 0.145141482
v 0.002781566 0.055613622 0.145111591
v 0.002849143 0.055966526 0.145080715
v 0.002871788 0.056325089 0.145049348
v 0.002849143 0.056683648 0.145017982
v 0.002781566 0.057036556 0.144987106
v 0.002516567 0.057703316 0.144928768
v 0.002670121 0.057378240 0.144957200
v 0.000165658 0.058359735 0.140141651
v 0.000494361 0.058318365 0.140145272
v 0.000217101 0.059142146 0.139703065
v 0.000647878 0.059087932 0.139707804
v 0.000815267 0.058236286 0.140152454
v 0.001123317 0.058114782 0.140163079
v 0.001413651 0.057955779 0.140176997
v 0.001068439 0.058980364 0.139717206
v 0.001472149 0.058821131 0.139731139
v 0.001852643 0.058612749 0.139749378
v 0.002203919 0.058358505 0.139771625
v 0.002520439 0.058062404 0.139797524
v 0.000180321 0.059180301 0.144799545
v 0.000538119 0.059135273 0.144803479
v 0.000887431 0.059045926 0.144811302
v 0.001222748 0.058913670 0.144822881
v 0.000267190 0.060518216 0.144249737
v 0.000797356 0.060451496 0.144255579
v 0.001314947 0.060319107 0.144267157
v 0.001830547 0.058529418 0.144856498
v 0.002093443 0.058283482 0.144878015
v 0.001538781 0.058740590 0.144838020
v 0.002323325 0.058006659 0.144902229
v 0.002988134 0.060926307 0.143617049
v 0.001811801 0.060123134 0.144284308
v 0.002280082 0.059866674 0.144306749
v 0.002712404 0.059553772 0.144334123
v 0.003348915 0.054847978 0.140078753
v 0.003430277 0.055272866 0.140041590
v 0.003457540 0.055704564 0.140003815
v 0.003430277 0.056136258 0.139966041
v 0.004193075 0.055136357 0.139586955
v 0.004226402 0.055664051 0.139540792
v 0.004193075 0.056191746 0.139494628
v 0.003348915 0.056561142 0.139928877
v 0.003214740 0.056972522 0.139892876
v 0.003029866 0.057363905 0.139858633
v 0.004093622 0.056711115 0.139449179
v 0.004121572 0.055233300 0.144712105
v 0.004221705 0.055756219 0.144666359
v 0.004255258 0.056287516 0.144619882
v 0.004221705 0.056818809 0.144573390
v 0.004121572 0.057341728 0.144527644
v 0.003956439 0.057848018 0.144483358
v 0.005401476 0.054854095 0.144148290
v 0.005532704 0.055539396 0.144088343
v 0.005576678 0.056235682 0.144027427
v 0.005401476 0.057617266 0.143906549
v 0.005532704 0.056931965 0.143966496
v 0.003728912 0.058329701 0.144441217
v 0.003101950 0.059189353 0.144365996
v 0.003442577 0.058779176 0.144401893
v 0.003554708 0.060516234 0.143652916
v 0.004065224 0.060038652 0.143694699
v 0.005185064 0.058280781 0.143848494
v 0.004511627 0.059501097 0.143741727
v 0.004886880 0.058912043 0.143793270
v 0.005973587 0.059441853 0.142994389
v 0.004969216 0.060818989 0.142873898
v 0.005514889 0.060161896 0.142931387
v 0.000463755 0.062551692 0.133692026
v 0.000453587 0.062467694 0.134586468
v 0.001383952 0.062435880 0.133702159
v 0.001353606 0.062354431 0.134596378
v 0.000436804 0.062276714 0.135464206
v 0.000413651 0.061981518 0.136312440
v 0.001303522 0.062167637 0.135473743
v 0.001234429 0.061878223 0.136321470
v 0.002232279 0.062129684 0.134616032
v 0.002282324 0.062206097 0.133722261
v 0.002035740 0.061673261 0.136339411
v 0.002149683 0.061951205 0.135492682
v 0.002961942 0.061630834 0.135520712
v 0.002804946 0.061369874 0.136365950
v 0.000384466 0.061586414 0.137118801
v 0.000349675 0.061097175 0.137871534
v 0.001147336 0.061490409 0.137127206
v 0.001892111 0.061299913 0.137143865
v 0.000747992 0.067279436 0.133847117
v 0.000731591 0.067143962 0.135289773
v 0.002232181 0.067092650 0.133863464
v 0.002183236 0.066961274 0.135305747
v 0.000620107 0.065722540 0.139374182
v 0.000704522 0.066835925 0.136705473
v 0.000667179 0.066359803 0.138073593
v 0.001850542 0.065567695 0.139387727
v 0.002102455 0.066659994 0.136720866
v 0.001991015 0.066193201 0.138088167
v 0.003075748 0.061797000 0.134645149
v 0.003144701 0.061865959 0.133752018
v 0.003957485 0.061420828 0.133790955
v 0.003870710 0.061361633 0.134683236
v 0.003727490 0.061211571 0.135557398
v 0.003681167 0.066722028 0.133895889
v 0.003600450 0.066598780 0.135337457
v 0.005072099 0.066173419 0.133943886
v 0.004960883 0.066062197 0.135384411
v 0.003051792 0.065260440 0.139414608
v 0.003467231 0.066310912 0.136751398
v 0.003283452 0.065862618 0.138117090
v 0.004524106 0.065373279 0.138159901
v 0.005693413 0.064732894 0.138215929
v 0.004777327 0.065794185 0.136796609
v 0.000499654 0.064004004 0.141698167
v 0.001491082 0.063879229 0.141709074
v 0.002458994 0.063631661 0.141730741
v 0.000350163 0.061780173 0.143542334
v 0.001044965 0.061692733 0.143549994
v 0.000428029 0.062947780 0.142687663
v 0.001277337 0.062840894 0.142697006
v 0.001723288 0.061519235 0.143565163
v 0.002374434 0.061262406 0.143587634
v 0.002902442 0.062314875 0.142743036
v 0.002106500 0.062628813 0.142715558
v 0.000563993 0.064933442 0.140588269
v 0.001683083 0.064792603 0.140600592
v 0.002775630 0.064513154 0.140625045
v 0.003824404 0.064099498 0.140661240
v 0.003388127 0.063265190 0.141762793
v 0.004263827 0.062785603 0.141804755
v 0.005072284 0.062200461 0.141855955
v 0.005800747 0.061518990 0.141915575
v 0.004812866 0.063558154 0.140708596
v 0.005725424 0.062897660 0.140766382
v 0.003652612 0.061904036 0.142778978
v 0.004345177 0.061402772 0.142822832
v 0.004204914 0.064805627 0.139454409
v 0.005291722 0.064210422 0.139506474
v 0.007440000 0.055130396 0.133441091
v 0.007385754 0.055208560 0.134334460
v 0.007327515 0.056130718 0.134253800
v 0.007223807 0.055285580 0.135214821
v 0.006956521 0.055360336 0.136069313
v 0.007166845 0.056187518 0.135135904
v 0.006901667 0.056228902 0.135993317
v 0.007153717 0.057038330 0.134174392
v 0.006867100 0.057917088 0.134097502
v 0.006737969 0.057083771 0.135918528
v 0.006716526 0.057934720 0.134983048
v 0.006468009 0.057911456 0.135846108
v 0.006996858 0.057075229 0.135058239
v 0.006587793 0.055431742 0.136885464
v 0.006123000 0.055498753 0.137651414
v 0.006535846 0.056254268 0.136813506
v 0.006074718 0.056263249 0.137584522
v 0.006380825 0.057063825 0.136742681
v 0.006125175 0.057847641 0.136674106
v 0.006472186 0.058753133 0.134024367
v 0.006330270 0.058752432 0.134911507
v 0.006096046 0.058698911 0.135777220
v 0.012000000 0.055309609 0.133442387
v 0.011912506 0.055435676 0.134883314
v 0.011651302 0.055559903 0.136303246
v 0.011818573 0.056923028 0.134753197
v 0.011559428 0.057014640 0.136175960
v 0.011220195 0.055680480 0.137681454
v 0.010625472 0.055795647 0.138997838
v 0.011131721 0.057081390 0.137558877
v 0.010541688 0.057122305 0.138881773
v 0.011538253 0.058386922 0.134625122
v 0.011285255 0.058446437 0.136050701
v 0.011075969 0.059804272 0.134501114
v 0.010833106 0.059832711 0.135929421
v 0.010291654 0.058428042 0.138767540
v 0.010432273 0.059795190 0.137321457
v 0.009311172 0.060895029 0.138551697
v 0.009879314 0.059692260 0.138656929
v 0.010867692 0.058460210 0.137438253
v 0.007957472 0.056092452 0.142390326
v 0.008911302 0.054881673 0.141467690
v 0.008982129 0.056003150 0.141369566
v 0.007894725 0.057085995 0.142303407
v 0.008911302 0.057124626 0.141271457
v 0.006763025 0.055319224 0.143355072
v 0.006816777 0.056170344 0.143280610
v 0.006602616 0.057859156 0.143132851
v 0.006763025 0.057021461 0.143206149
v 0.007894725 0.055098914 0.142477259
v 0.007398670 0.059010647 0.142135024
v 0.006437730 0.060751941 0.141982675
v 0.006973186 0.059911408 0.142056212
v 0.007707473 0.058063865 0.142217860
v 0.008699939 0.058228415 0.141174883
v 0.008351373 0.059297107 0.141081393
v 0.008654235 0.060643334 0.139818549
v 0.007871100 0.060313858 0.140992433
v 0.006338079 0.058670215 0.143061891
v 0.009875806 0.055903729 0.140233219
v 0.009797933 0.057136789 0.140125334
v 0.009565540 0.058350399 0.140019163
v 0.009182293 0.059525423 0.139916360
v 0.008683844 0.063559316 0.134172589
v 0.008493434 0.063505419 0.135608092
v 0.006772931 0.063951559 0.138284281
v 0.008596187 0.062017377 0.138453513
v 0.008179170 0.063332006 0.137012020
v 0.007745636 0.063041605 0.138363898
v 0.006383040 0.065455467 0.134006694
v 0.006243080 0.065359987 0.135445848
v 0.007426819 0.064503223 0.135520801
v 0.007593317 0.064579487 0.134083331
v 0.006012081 0.065117955 0.136855781
v 0.007152021 0.064292893 0.136927962
v 0.009637420 0.062411025 0.134273052
v 0.010439009 0.061152730 0.134383142
v 0.009426101 0.062382303 0.135706365
v 0.010210114 0.061151601 0.135814026
v 0.009077328 0.062250447 0.137106642
v 0.009832332 0.061065279 0.137210339
v 0.006547690 0.062128443 0.140833676
v 0.007266695 0.061262622 0.140909433
v 0.006295076 0.063484214 0.139570013
v 0.007199153 0.062638462 0.139644012
v 0.007989695 0.061686493 0.139727294
f 1 39 4
f 2 3 25
f 1 2 28
f 1 19 39
f 1 20 19
f 1 28 20
f 3 22 25
f 3 23 22
f 2 26 28
f 2 25 26
f 4 42 5
f 5 51 6
f 6 363 303
f 4 39 40
f 4 40 42
f 5 42 41
f 5 41 51
f 6 51 53
f 6 53 54
f 6 54 363
f 3 10 106
f 10 12 108
f 12 13 120
f 10 109 106
f 3 106 23
f 10 108 109
f 12 118 108
f 12 120 117
f 12 117 118
f 13 121 120
f 4 5 1033
f 1 4 1033
f 1 1033 2
f 2 1033 3
f 3 1033 10
f 10 1033 12
f 19 20 21
f 20 29 21
f 21 30 47
f 22 23 24
f 26 29 28
f 25 27 26
f 26 27 29
f 27 32 29
f 20 28 29
f 21 29 30
f 22 24 25
f 24 27 25
f 24 33 27
f 30 31 47
f 29 32 30
f 30 35 31
f 30 32 35
f 31 36 48
f 31 37 36
f 27 33 32
f 32 33 34
f 32 34 35
f 34 141 35
f 31 35 37
f 35 141 37
f 36 37 38
f 37 143 38
f 39 44 40
f 40 44 43
f 41 43 52
f 40 43 42
f 41 42 43
f 43 44 46
f 43 46 45
f 43 45 52
f 19 21 39
f 21 44 39
f 21 47 44
f 44 47 46
f 46 47 48
f 46 48 49
f 48 91 49
f 45 46 49
f 45 49 50
f 49 87 50
f 50 87 61
f 49 91 87
f 41 52 51
f 51 52 53
f 52 57 55
f 45 57 52
f 53 55 54
f 52 55 53
f 54 55 363
f 55 57 56
f 55 56 364
f 45 50 57
f 50 58 57
f 56 57 58
f 56 59 365
f 56 58 59
f 58 62 59
f 59 62 60
f 59 60 368
f 50 61 58
f 58 61 62
f 31 48 47
f 36 91 48
f 61 87 93
f 61 88 62
f 61 93 88
f 62 88 90
f 88 99 90
f 60 62 90
f 60 90 89
f 89 90 100
f 89 100 407
f 87 91 92
f 36 95 91
f 91 95 92
f 87 92 93
f 88 93 94
f 92 97 93
f 93 97 94
f 36 38 95
f 92 95 96
f 38 222 95
f 95 222 96
f 92 96 97
f 94 97 98
f 96 224 97
f 97 224 98
f 88 94 99
f 94 102 99
f 99 103 100
f 99 102 103
f 90 99 100
f 100 101 407
f 100 103 101
f 101 412 407
f 94 98 102
f 102 238 103
f 98 237 102
f 102 237 238
f 103 238 104
f 101 103 104
f 101 105 412
f 101 104 105
f 104 241 105
f 23 106 107
f 106 109 107
f 23 107 24
f 24 107 111
f 108 110 109
f 107 109 110
f 107 110 112
f 108 119 110
f 24 111 33
f 33 111 116
f 107 112 111
f 111 112 113
f 110 123 112
f 111 113 116
f 113 145 116
f 112 124 113
f 33 116 34
f 34 142 141
f 34 116 142
f 116 145 142
f 108 118 119
f 117 119 118
f 117 122 119
f 110 119 123
f 117 120 122
f 119 122 125
f 120 121 122
f 121 742 122
f 112 123 124
f 119 125 123
f 113 124 149
f 123 126 124
f 122 746 125
f 123 125 126
f 124 126 150
f 125 747 126
f 141 142 146
f 37 141 143
f 141 146 143
f 38 143 144
f 143 148 144
f 142 147 146
f 142 145 147
f 146 147 152
f 143 146 148
f 144 148 227
f 146 152 148
f 148 152 156
f 148 156 227
f 113 149 145
f 124 150 149
f 126 774 150
f 145 151 147
f 145 149 151
f 147 151 153
f 147 153 152
f 149 154 151
f 149 150 154
f 150 776 154
f 151 154 155
f 151 155 153
f 154 777 155
f 152 153 157
f 152 157 156
f 153 155 158
f 153 158 157
f 155 781 158
f 38 144 222
f 96 222 223
f 144 226 222
f 222 226 223
f 96 223 224
f 98 224 225
f 98 225 237
f 223 228 224
f 224 228 225
f 144 227 226
f 223 226 229
f 226 227 251
f 226 251 229
f 223 229 228
f 225 228 243
f 228 229 253
f 228 253 243
f 229 254 253
f 237 239 238
f 225 242 237
f 238 239 240
f 237 242 239
f 104 238 240
f 105 241 519
f 104 240 241
f 240 247 241
f 241 244 519
f 225 243 242
f 239 242 246
f 242 243 289
f 242 289 246
f 239 245 240
f 240 245 247
f 241 247 244
f 239 246 245
f 244 247 597
f 245 292 247
f 156 252 227
f 227 252 251
f 156 256 252
f 156 157 256
f 229 251 254
f 251 255 254
f 251 252 255
f 252 258 255
f 254 255 296
f 157 158 257
f 157 257 256
f 158 858 257
f 252 256 258
f 256 257 259
f 256 259 258
f 255 258 297
f 257 860 259
f 258 259 298
f 258 298 297
f 259 896 298
f 243 253 290
f 253 254 291
f 253 291 290
f 243 290 289
f 254 296 291
f 289 290 293
f 290 291 299
f 245 246 294
f 246 289 295
f 246 295 294
f 247 292 597
f 245 294 292
f 289 293 295
f 290 299 293
f 292 294 606
f 294 295 607
f 255 297 296
f 291 296 300
f 291 300 299
f 296 297 301
f 296 301 300
f 297 298 302
f 297 302 301
f 298 899 302
f 293 605 295
f 293 299 613
f 295 605 607
f 299 300 614
f 293 613 605
f 299 614 613
f 300 301 615
f 301 302 616
f 300 615 614
f 302 1195 616
f 301 616 615
f 303 312 304
f 304 315 305
f 305 328 306
f 5 6 1033
f 6 303 1033
f 303 304 1033
f 303 363 311
f 303 311 312
f 304 312 313
f 304 313 314
f 304 314 315
f 305 315 316
f 305 316 328
f 306 331 326
f 326 333 327
f 327 335 342
f 306 328 329
f 306 329 330
f 306 330 331
f 328 426 329
f 329 427 330
f 330 427 331
f 326 331 332
f 326 332 333
f 331 432 332
f 327 334 335
f 327 333 334
f 332 438 333
f 333 438 334
f 334 439 335
f 335 439 351
f 304 305 1033
f 305 306 1033
f 306 326 1033
f 326 327 1033
f 342 353 343
f 327 342 1033
f 342 343 1033
f 343 346 1030
f 343 360 346
f 335 351 342
f 342 351 352
f 342 352 353
f 343 353 354
f 351 662 352
f 352 662 353
f 353 662 664
f 353 664 354
f 354 664 690
f 343 354 360
f 346 360 361
f 346 361 362
f 346 362 1039
f 354 690 360
f 360 690 361
f 361 690 692
f 361 692 362
f 362 692 1039
f 311 363 364
f 55 364 363
f 311 364 366
f 56 365 364
f 364 365 366
f 311 366 312
f 312 366 313
f 313 366 372
f 365 367 366
f 366 367 372
f 59 368 365
f 365 368 367
f 60 369 368
f 368 369 370
f 367 368 370
f 367 370 373
f 369 371 370
f 370 371 376
f 369 403 371
f 371 404 377
f 313 372 314
f 314 372 315
f 315 372 374
f 367 373 372
f 372 373 374
f 373 375 374
f 315 374 316
f 374 375 426
f 316 374 426
f 316 426 328
f 375 378 428
f 375 428 426
f 370 376 373
f 373 376 375
f 375 376 378
f 376 377 378
f 371 377 376
f 377 379 378
f 377 405 379
f 378 379 430
f 378 430 428
f 379 406 380
f 379 380 430
f 380 406 420
f 60 89 369
f 89 403 369
f 89 407 403
f 403 408 404
f 403 407 408
f 371 403 404
f 404 408 410
f 404 410 405
f 405 410 417
f 377 404 405
f 405 417 406
f 379 405 406
f 407 412 408
f 408 412 409
f 408 409 410
f 409 411 410
f 410 411 417
f 411 419 417
f 409 412 413
f 409 414 411
f 105 413 412
f 409 413 414
f 105 519 413
f 413 520 414
f 411 414 415
f 411 415 419
f 415 416 419
f 414 521 415
f 415 523 416
f 406 417 418
f 417 419 418
f 418 419 422
f 406 418 420
f 418 421 420
f 420 421 444
f 418 422 421
f 422 425 423
f 421 422 423
f 421 423 445
f 423 424 445
f 423 530 424
f 416 422 419
f 416 425 422
f 416 522 425
f 423 425 530
f 329 426 427
f 426 428 427
f 428 430 429
f 427 428 429
f 331 427 432
f 427 429 432
f 380 431 430
f 429 430 431
f 332 432 438
f 432 433 438
f 429 433 432
f 429 431 433
f 433 435 440
f 431 434 435
f 380 434 431
f 380 420 434
f 420 444 434
f 434 444 436
f 436 444 447
f 431 435 433
f 435 442 440
f 435 436 442
f 434 436 435
f 436 437 442
f 436 447 437
f 437 447 448
f 437 448 666
f 433 440 438
f 438 440 439
f 334 438 439
f 440 442 441
f 441 442 443
f 439 440 441
f 437 443 442
f 437 666 443
f 421 445 444
f 444 445 447
f 445 446 447
f 424 446 445
f 424 700 446
f 446 700 702
f 446 448 447
f 446 702 448
f 413 519 520
f 414 520 521
f 519 524 520
f 520 524 525
f 520 525 521
f 521 525 526
f 415 521 523
f 416 523 522
f 521 526 523
f 522 523 527
f 523 526 527
f 522 528 531
f 522 527 528
f 244 524 519
f 525 598 526
f 244 595 524
f 524 596 525
f 244 597 595
f 524 595 596
f 525 596 598
f 526 598 599
f 526 599 527
f 528 529 531
f 527 600 528
f 527 599 600
f 528 600 601
f 528 601 529
f 529 602 536
f 529 601 602
f 424 534 700
f 425 522 531
f 425 531 530
f 530 531 532
f 529 532 531
f 424 530 534
f 530 532 534
f 534 535 700
f 533 535 534
f 532 533 534
f 533 539 535
f 529 536 532
f 532 536 533
f 533 536 537
f 533 537 539
f 536 603 537
f 537 538 539
f 535 539 707
f 539 540 707
f 538 540 539
f 540 647 646
f 538 647 540
f 595 608 596
f 596 609 598
f 598 611 599
f 292 604 597
f 595 597 610
f 292 606 604
f 595 610 608
f 597 604 610
f 598 609 611
f 599 611 612
f 596 608 609
f 599 612 600
f 600 618 601
f 601 619 602
f 536 602 603
f 600 612 618
f 601 618 619
f 602 619 620
f 602 620 603
f 603 621 642
f 603 620 621
f 621 622 642
f 622 643 642
f 294 607 606
f 608 610 617
f 604 617 610
f 609 617 611
f 611 617 612
f 608 617 609
f 605 617 607
f 605 613 617
f 613 614 617
f 614 615 617
f 615 616 617
f 616 1195 617
f 606 607 617
f 604 606 617
f 612 617 618
f 617 619 618
f 617 620 619
f 617 621 620
f 617 622 621
f 622 623 643
f 623 624 644
f 624 625 645
f 617 623 622
f 617 624 623
f 617 625 624
f 617 626 625
f 617 627 626
f 617 628 627
f 617 629 628
f 617 1208 629
f 537 642 538
f 537 603 642
f 538 642 643
f 538 643 647
f 644 648 647
f 623 644 643
f 644 645 648
f 645 650 649
f 643 644 647
f 646 648 714
f 649 716 714
f 646 647 648
f 645 649 648
f 648 649 714
f 649 654 716
f 624 645 644
f 625 650 645
f 625 626 650
f 626 651 650
f 650 651 654
f 627 628 652
f 626 627 651
f 627 652 651
f 628 629 653
f 628 653 652
f 629 1241 653
f 649 650 654
f 651 655 654
f 654 655 718
f 651 652 655
f 652 656 655
f 652 653 656
f 653 1245 656
f 655 656 719
f 448 709 666
f 439 441 662
f 441 443 663
f 443 668 663
f 351 439 662
f 441 663 662
f 662 663 664
f 663 665 664
f 664 665 690
f 663 668 665
f 665 668 670
f 665 670 691
f 443 666 668
f 666 667 668
f 666 709 667
f 667 709 710
f 667 710 671
f 669 671 710
f 667 670 668
f 667 671 670
f 665 691 690
f 690 691 692
f 670 695 691
f 691 695 693
f 691 693 692
f 692 693 1307
f 693 695 698
f 693 698 1308
f 669 694 696
f 670 671 695
f 671 696 695
f 695 696 698
f 669 696 671
f 694 699 696
f 696 699 698
f 698 699 1312
f 694 697 699
f 697 1313 699
f 535 701 700
f 700 701 702
f 701 707 705
f 448 702 709
f 702 703 709
f 701 703 702
f 701 705 703
f 706 708 715
f 703 704 710
f 704 705 706
f 705 708 706
f 703 705 704
f 704 706 722
f 535 707 701
f 540 708 707
f 705 707 708
f 646 715 708
f 540 646 708
f 703 710 709
f 669 710 704
f 669 704 722
f 706 715 711
f 711 715 717
f 706 711 722
f 711 717 712
f 712 717 720
f 711 712 723
f 712 720 713
f 713 720 721
f 713 721 1332
f 646 714 715
f 714 717 715
f 714 716 717
f 716 720 717
f 654 718 716
f 718 721 720
f 716 718 720
f 655 719 718
f 656 1335 719
f 719 1337 721
f 718 719 721
f 669 722 694
f 694 722 723
f 711 723 722
f 694 723 697
f 697 723 724
f 697 724 1311
f 712 724 723
f 712 713 724
f 713 1343 724
f 13 725 741
f 725 728 744
f 728 732 766
f 13 741 121
f 725 743 741
f 725 744 743
f 728 763 744
f 728 764 763
f 728 766 764
f 732 936 766
f 12 1033 13
f 13 1033 725
f 725 1033 728
f 728 1033 732
f 732 733 937
f 733 734 942
f 734 738 951
f 732 937 936
f 733 939 937
f 733 940 939
f 733 942 940
f 734 951 950
f 734 950 942
f 732 1033 733
f 733 1033 734
f 734 1033 738
f 738 739 983
f 738 1033 739
f 739 740 992
f 740 1054 995
f 738 981 951
f 738 982 981
f 738 983 982
f 739 984 983
f 739 992 984
f 740 994 992
f 740 995 994
f 995 1054 1379
f 121 741 742
f 122 742 746
f 741 743 742
f 742 743 745
f 743 744 745
f 742 745 748
f 744 765 745
f 742 748 746
f 125 746 747
f 126 747 774
f 746 749 747
f 746 748 749
f 745 768 748
f 747 749 775
f 748 769 749
f 749 769 784
f 744 763 765
f 763 764 765
f 745 765 768
f 764 767 765
f 764 766 767
f 766 936 767
f 765 767 770
f 767 936 938
f 767 938 944
f 748 768 769
f 765 770 768
f 768 770 773
f 768 773 769
f 767 944 770
f 769 773 788
f 770 944 946
f 773 789 788
f 770 946 773
f 773 946 789
f 747 775 774
f 749 784 775
f 150 774 776
f 774 778 776
f 154 776 777
f 776 778 779
f 776 779 777
f 774 775 778
f 775 785 778
f 775 784 785
f 778 780 779
f 778 785 780
f 779 780 783
f 155 777 781
f 158 781 858
f 777 779 782
f 777 782 781
f 779 783 782
f 780 911 783
f 784 786 785
f 769 788 784
f 784 788 786
f 785 786 787
f 780 785 787
f 780 787 911
f 786 790 787
f 787 790 912
f 786 788 791
f 788 789 791
f 789 953 791
f 786 791 790
f 790 791 910
f 791 953 910
f 781 859 858
f 781 782 859
f 257 858 860
f 858 859 861
f 858 861 860
f 259 860 896
f 860 861 897
f 860 897 896
f 859 864 861
f 861 864 898
f 861 898 897
f 782 862 859
f 782 783 862
f 783 911 863
f 783 863 862
f 859 862 864
f 862 865 864
f 864 865 903
f 862 863 865
f 863 866 865
f 298 896 899
f 896 900 899
f 896 897 900
f 897 901 900
f 897 898 901
f 898 903 902
f 898 902 901
f 302 899 1195
f 899 900 1196
f 900 901 1197
f 899 1196 1195
f 900 1197 1196
f 901 1198 1197
f 901 902 1198
f 902 1199 1198
f 906 1200 1199
f 902 906 1199
f 906 907 1200
f 864 903 898
f 865 904 903
f 903 904 906
f 865 866 904
f 866 905 904
f 902 903 906
f 904 907 906
f 905 908 907
f 907 908 1201
f 908 909 1202
f 904 905 907
f 905 927 908
f 909 927 928
f 908 927 909
f 929 1221 1220
f 909 928 1220
f 790 910 915
f 863 911 913
f 787 912 911
f 911 912 913
f 912 914 913
f 914 916 926
f 863 913 866
f 866 913 925
f 913 914 925
f 790 915 912
f 912 915 914
f 910 917 915
f 914 915 916
f 915 917 916
f 917 1011 931
f 916 917 931
f 866 925 905
f 925 926 927
f 905 925 927
f 926 928 927
f 914 926 925
f 926 933 928
f 928 929 1220
f 929 930 1221
f 928 933 929
f 929 933 934
f 929 934 930
f 930 935 1267
f 916 931 933
f 931 1011 932
f 931 932 934
f 916 933 926
f 931 934 933
f 932 1016 935
f 930 934 935
f 935 1273 1267
f 932 935 934
f 935 1016 1273
f 936 937 938
f 937 939 941
f 937 941 938
f 938 941 945
f 939 940 941
f 940 942 943
f 940 943 941
f 942 950 943
f 941 943 948
f 938 945 944
f 944 945 947
f 944 947 946
f 789 946 954
f 946 947 954
f 947 955 954
f 941 948 945
f 945 948 949
f 943 986 948
f 948 988 949
f 948 986 988
f 945 949 947
f 947 949 955
f 950 951 952
f 943 950 952
f 943 952 986
f 789 954 953
f 954 955 1004
f 953 954 1004
f 949 1008 955
f 949 988 1008
f 988 1019 1008
f 951 981 980
f 951 980 952
f 952 980 987
f 952 987 986
f 980 991 987
f 980 981 982
f 980 982 985
f 982 983 985
f 983 984 985
f 984 993 985
f 980 985 991
f 985 1001 991
f 986 989 988
f 986 987 989
f 988 989 1019
f 987 991 990
f 987 990 989
f 989 998 1019
f 989 990 998
f 984 992 993
f 992 994 993
f 985 993 1001
f 993 997 1001
f 994 995 996
f 993 994 996
f 995 1380 996
f 993 996 997
f 996 1381 997
f 990 999 998
f 991 1001 1000
f 990 991 1000
f 990 1000 999
f 1000 1001 1002
f 997 1002 1001
f 997 1384 1002
f 1000 1002 1003
f 999 1000 1003
f 910 953 1005
f 953 1004 1005
f 910 1005 917
f 1004 1006 1005
f 1004 1007 1006
f 1005 1006 1011
f 1006 1010 1014
f 955 1007 1004
f 955 1008 1007
f 1008 1019 1009
f 1007 1008 1009
f 1006 1007 1010
f 1007 1009 1010
f 917 1005 1011
f 1006 1014 1011
f 1010 1015 1014
f 1010 1012 1015
f 1009 1012 1010
f 1009 1020 1012
f 1012 1020 1013
f 1012 1018 1015
f 1013 1406 1018
f 1012 1013 1018
f 1013 1398 1406
f 932 1011 1014
f 932 1014 1016
f 1014 1015 1016
f 1016 1017 1273
f 1015 1018 1017
f 1015 1017 1016
f 1017 1018 1402
f 998 1020 1019
f 1009 1019 1020
f 998 1021 1020
f 1013 1020 1021
f 998 999 1021
f 1021 1022 1398
f 999 1022 1021
f 999 1003 1022
f 1013 1021 1398
f 343 1030 1032
f 343 1032 1033
f 346 1039 1030
f 1030 1041 1032
f 1032 1049 1033
f 1030 1039 1040
f 1030 1040 1041
f 1032 1041 1046
f 692 1307 1039
f 1039 1307 1040
f 1040 1307 1309
f 1040 1309 1041
f 1041 1309 1046
f 1032 1046 1047
f 1032 1047 1049
f 1033 1048 1077
f 1033 1049 1048
f 1046 1309 1322
f 1046 1322 1047
f 1047 1322 1049
f 1048 1049 1324
f 739 1033 740
f 740 1033 1054
f 1054 1055 1068
f 1033 1055 1054
f 1055 1074 1056
f 1055 1056 1057
f 1055 1057 1069
f 1056 1082 1057
f 1054 1067 1379
f 1054 1068 1067
f 1055 1070 1068
f 1055 1069 1070
f 1057 1071 1069
f 1057 1082 1072
f 1057 1072 1071
f 1033 1073 1055
f 1073 1079 1074
f 1033 1077 1073
f 1055 1073 1074
f 1056 1074 1080
f 1074 1075 1076
f 1074 1079 1075
f 1075 1420 1076
f 1073 1077 1078
f 1073 1078 1079
f 1048 1426 1077
f 1077 1426 1078
f 1078 1429 1079
f 1075 1079 1429
f 1056 1080 1081
f 1056 1081 1082
f 1074 1076 1080
f 1081 1433 1082
f 1080 1432 1081
f 1076 1420 1080
f 617 1195 1196
f 617 1196 1197
f 617 1197 1198
f 617 1198 1199
f 617 1199 1200
f 617 1200 1201
f 617 1201 1202
f 907 1201 1200
f 908 1202 1201
f 617 1202 1203
f 617 1203 1204
f 617 1204 1205
f 617 1205 1206
f 617 1206 1207
f 617 1219 1217
f 617 1216 1218
f 617 1217 1216
f 617 1209 1208
f 617 1210 1209
f 617 1211 1210
f 617 1218 1211
f 617 1213 1215
f 617 1215 1214
f 617 1207 1212
f 617 1212 1213
f 617 1214 1219
f 1216 1248 1218
f 1216 1217 1249
f 909 1203 1202
f 1203 1220 1204
f 909 1220 1203
f 1204 1220 1221
f 1204 1221 1205
f 1205 1222 1206
f 1206 1223 1207
f 1205 1221 1222
f 1206 1222 1223
f 1207 1223 1224
f 1213 1226 1215
f 1214 1215 1228
f 1207 1224 1212
f 1212 1225 1213
f 1214 1227 1219
f 1217 1219 1251
f 1217 1251 1249
f 1214 1228 1227
f 1219 1227 1251
f 1212 1224 1225
f 1213 1225 1226
f 1215 1226 1228
f 629 1208 1241
f 1208 1209 1242
f 1208 1242 1241
f 1209 1210 1243
f 1209 1243 1242
f 1210 1211 1244
f 1211 1218 1250
f 1210 1244 1243
f 1218 1248 1250
f 1211 1250 1244
f 1242 1243 1247
f 1243 1244 1253
f 653 1241 1245
f 1241 1242 1246
f 1241 1246 1245
f 656 1245 1335
f 1245 1246 1336
f 1242 1247 1246
f 1243 1253 1247
f 1246 1247 1339
f 1216 1249 1248
f 1244 1250 1254
f 1248 1255 1250
f 1250 1255 1254
f 1248 1249 1279
f 1249 1251 1280
f 1227 1278 1251
f 1248 1279 1255
f 1249 1280 1279
f 1247 1340 1339
f 1252 1340 1253
f 1252 1254 1281
f 1244 1254 1253
f 1247 1253 1340
f 1254 1255 1281
f 1252 1253 1254
f 930 1222 1221
f 1222 1267 1223
f 930 1267 1222
f 1223 1268 1224
f 1223 1267 1268
f 1224 1268 1269
f 1224 1269 1225
f 1225 1270 1226
f 1226 1270 1271
f 1228 1271 1272
f 1226 1271 1228
f 1227 1228 1272
f 1225 1269 1270
f 1271 1276 1272
f 1017 1274 1273
f 1274 1402 1275
f 1267 1273 1268
f 1268 1273 1274
f 1268 1274 1269
f 1269 1274 1275
f 1275 1403 1277
f 1276 1277 1405
f 1276 1404 1283
f 1269 1275 1270
f 1270 1277 1271
f 1270 1275 1277
f 1272 1276 1283
f 1271 1277 1276
f 1287 1408 1350
f 1251 1278 1280
f 1227 1272 1278
f 1279 1280 1284
f 1278 1285 1280
f 1272 1283 1278
f 1280 1285 1284
f 1255 1282 1281
f 1252 1281 1354
f 1279 1284 1282
f 1281 1287 1354
f 1281 1282 1287
f 1255 1279 1282
f 1284 1285 1286
f 1283 1415 1285
f 1285 1415 1286
f 1278 1283 1285
f 1282 1284 1288
f 1282 1288 1287
f 1284 1286 1288
f 1287 1288 1408
f 693 1308 1307
f 1307 1308 1309
f 698 1312 1308
f 1308 1312 1310
f 1308 1310 1309
f 1309 1310 1322
f 1310 1312 1315
f 1310 1315 1323
f 699 1313 1312
f 1312 1313 1315
f 697 1311 1313
f 1311 1316 1313
f 1311 1314 1316
f 1314 1326 1328
f 1313 1316 1315
f 1315 1316 1327
f 1316 1328 1327
f 1314 1328 1316
f 1310 1323 1322
f 1322 1323 1324
f 1315 1327 1323
f 1323 1327 1325
f 1325 1327 1331
f 1325 1427 1426
f 1331 1430 1427
f 1049 1322 1324
f 1323 1325 1324
f 1048 1324 1426
f 1324 1325 1426
f 1325 1331 1427
f 1328 1329 1331
f 1326 1329 1328
f 1326 1355 1329
f 1327 1328 1331
f 1329 1430 1331
f 1329 1330 1430
f 1330 1355 1356
f 1329 1355 1330
f 1330 1356 1422
f 721 1337 1332
f 1333 1337 1338
f 1332 1337 1333
f 1334 1338 1342
f 1333 1334 1345
f 1333 1338 1334
f 1341 1347 1342
f 1334 1342 1347
f 1245 1336 1335
f 1335 1338 1337
f 719 1335 1337
f 1246 1339 1336
f 1336 1342 1338
f 1335 1336 1338
f 1339 1341 1342
f 1336 1339 1342
f 1340 1353 1341
f 1339 1340 1341
f 724 1343 1311
f 1311 1343 1314
f 1314 1343 1344
f 713 1332 1343
f 1332 1344 1343
f 1332 1333 1344
f 1314 1344 1326
f 1326 1344 1345
f 1333 1345 1344
f 1348 1353 1349
f 1341 1348 1347
f 1334 1347 1346
f 1334 1346 1345
f 1347 1348 1351
f 1346 1347 1351
f 1349 1354 1350
f 1349 1350 1438
f 1349 1438 1352
f 1346 1351 1356
f 1351 1352 1440
f 1351 1440 1356
f 1348 1349 1352
f 1348 1352 1351
f 1252 1354 1353
f 1252 1353 1340
f 1341 1353 1348
f 1349 1353 1354
f 1287 1350 1354
f 1326 1345 1355
f 1345 1346 1355
f 1346 1356 1355
f 995 1379 1380
f 1067 1380 1379
f 1067 1382 1380
f 996 1380 1381
f 1380 1383 1381
f 1067 1068 1382
f 1068 1070 1382
f 1070 1388 1382
f 1380 1382 1383
f 1382 1389 1383
f 1382 1388 1389
f 1385 1387 1417
f 997 1381 1384
f 1381 1386 1384
f 1002 1385 1003
f 1002 1384 1385
f 1384 1387 1385
f 1383 1396 1386
f 1381 1383 1386
f 1384 1386 1387
f 1386 1392 1387
f 1391 1435 1437
f 1069 1388 1070
f 1069 1390 1388
f 1069 1071 1390
f 1388 1391 1389
f 1388 1390 1391
f 1389 1391 1393
f 1071 1072 1390
f 1072 1433 1390
f 1072 1082 1433
f 1390 1433 1435
f 1390 1435 1391
f 1393 1395 1396
f 1387 1392 1418
f 1392 1396 1395
f 1392 1395 1419
f 1391 1437 1393
f 1393 1437 1394
f 1394 1413 1395
f 1393 1394 1395
f 1383 1389 1396
f 1386 1396 1392
f 1389 1393 1396
f 1397 1406 1398
f 1397 1398 1399
f 1400 1401 1410
f 1399 1401 1400
f 1397 1399 1400
f 1401 1411 1410
f 1017 1402 1274
f 1275 1402 1403
f 1018 1406 1402
f 1402 1406 1403
f 1277 1403 1405
f 1276 1405 1404
f 1397 1405 1403
f 1400 1404 1405
f 1400 1410 1404
f 1397 1403 1406
f 1397 1400 1405
f 1286 1407 1409
f 1288 1409 1408
f 1408 1409 1414
f 1408 1414 1439
f 1411 1418 1412
f 1407 1410 1411
f 1407 1411 1412
f 1407 1412 1409
f 1413 1439 1414
f 1412 1419 1414
f 1413 1414 1419
f 1409 1412 1414
f 1283 1404 1415
f 1286 1415 1407
f 1404 1410 1415
f 1407 1415 1410
f 1286 1409 1288
f 1022 1416 1399
f 1003 1416 1022
f 1003 1385 1416
f 1385 1417 1416
f 1022 1399 1398
f 1399 1416 1401
f 1401 1416 1417
f 1401 1417 1411
f 1411 1417 1418
f 1387 1418 1417
f 1392 1419 1418
f 1412 1418 1419
f 1395 1413 1419
f 1420 1421 1432
f 1075 1429 1420
f 1420 1428 1421
f 1421 1428 1431
f 1421 1424 1434
f 1422 1424 1431
f 1356 1440 1422
f 1425 1440 1441
f 1422 1440 1425
f 1423 1425 1441
f 1423 1441 1442
f 1394 1442 1413
f 1394 1423 1442
f 1423 1436 1425
f 1421 1431 1424
f 1422 1425 1424
f 1424 1436 1434
f 1424 1425 1436
f 1426 1427 1429
f 1078 1426 1429
f 1427 1430 1428
f 1427 1428 1429
f 1428 1430 1431
f 1420 1429 1428
f 1330 1431 1430
f 1330 1422 1431
f 1081 1432 1433
f 1432 1434 1433
f 1434 1436 1435
f 1433 1434 1435
f 1080 1420 1432
f 1421 1434 1432
f 1435 1436 1437
f 1423 1437 1436
f 1394 1437 1423
f 1352 1438 1441
f 1438 1439 1442
f 1438 1442 1441
f 1350 1408 1439
f 1350 1439 1438
f 1352 1441 1440
f 1413 1442 1439
f 17 7 64
f 17 64 63
f 7 67 65
f 7 65 64
f 7 8 67
f 8 9 74
f 9 307 381
f 8 69 67
f 8 74 69
f 9 76 74
f 9 77 76
f 9 381 77
f 11 114 14
f 11 170 171
f 11 171 114
f 14 128 15
f 15 133 16
f 14 114 127
f 14 127 128
f 15 128 131
f 15 131 132
f 15 132 133
f 16 133 134
f 17 1031 7
f 7 1031 8
f 18 11 1031
f 17 18 1031
f 11 14 1031
f 14 15 1031
f 17 159 18
f 18 162 11
f 17 165 159
f 18 161 162
f 18 159 161
f 17 63 165
f 11 162 170
f 64 65 66
f 63 64 166
f 166 64 66
f 166 66 168
f 66 70 168
f 70 71 169
f 65 67 68
f 69 74 75
f 69 68 67
f 68 75 72
f 69 75 68
f 65 68 66
f 68 70 66
f 72 75 79
f 68 72 70
f 72 71 70
f 72 73 71
f 72 79 73
f 74 76 75
f 75 76 78
f 75 78 79
f 76 77 78
f 77 381 78
f 78 382 80
f 78 80 79
f 80 82 79
f 80 384 81
f 80 81 82
f 81 385 85
f 73 79 82
f 71 73 186
f 73 82 83
f 73 83 186
f 82 84 83
f 82 81 84
f 83 84 187
f 84 192 187
f 81 85 84
f 85 192 84
f 85 86 192
f 171 115 114
f 114 115 127
f 115 129 127
f 128 127 129
f 128 129 135
f 128 135 131
f 115 174 130
f 115 130 129
f 129 130 136
f 129 136 135
f 130 204 139
f 130 139 136
f 132 137 133
f 132 131 135
f 132 135 137
f 133 137 134
f 134 137 753
f 135 138 137
f 135 136 138
f 136 139 140
f 137 138 754
f 136 140 138
f 138 140 761
f 161 160 163
f 161 159 160
f 162 161 163
f 163 160 164
f 160 167 164
f 167 178 164
f 63 166 165
f 165 160 159
f 165 166 160
f 166 168 167
f 166 167 160
f 167 168 176
f 70 169 168
f 176 168 169
f 167 176 178
f 172 162 163
f 170 162 172
f 170 172 171
f 171 172 115
f 172 163 173
f 163 164 173
f 164 178 179
f 164 179 173
f 172 174 115
f 172 173 174
f 173 179 202
f 173 202 174
f 169 71 175
f 177 169 175
f 176 169 177
f 176 181 178
f 176 177 181
f 175 189 183
f 177 175 183
f 178 181 180
f 179 178 180
f 179 203 202
f 179 180 203
f 180 184 206
f 177 182 181
f 181 182 184
f 177 183 182
f 181 184 180
f 189 197 183
f 182 183 185
f 183 197 185
f 182 208 184
f 182 185 208
f 197 201 185
f 208 185 210
f 185 201 210
f 71 186 175
f 186 189 175
f 186 188 189
f 83 188 186
f 83 187 188
f 187 191 188
f 187 194 191
f 189 188 190
f 189 190 197
f 188 191 190
f 191 194 198
f 187 192 194
f 192 193 194
f 86 193 192
f 86 449 193
f 194 193 195
f 194 195 198
f 193 449 196
f 193 196 195
f 196 449 452
f 196 452 233
f 197 190 200
f 190 199 200
f 191 199 190
f 191 198 199
f 199 198 230
f 197 200 201
f 198 195 234
f 196 232 195
f 174 202 204
f 174 204 130
f 202 203 205
f 204 202 205
f 180 206 203
f 203 206 207
f 204 205 214
f 204 214 139
f 203 207 205
f 205 207 216
f 206 211 207
f 207 211 217
f 184 209 206
f 184 208 209
f 208 213 209
f 208 210 213
f 206 209 211
f 209 213 212
f 209 212 211
f 205 216 214
f 139 214 215
f 214 216 218
f 139 215 140
f 214 218 215
f 140 215 792
f 207 217 216
f 216 217 219
f 215 218 794
f 216 219 218
f 218 219 795
f 211 220 217
f 211 212 220
f 217 220 221
f 217 221 219
f 219 221 798
f 201 200 260
f 200 231 260
f 199 231 200
f 199 230 231
f 231 230 266
f 198 234 230
f 195 232 234
f 196 233 232
f 232 235 234
f 230 234 265
f 234 235 265
f 232 233 236
f 232 236 235
f 233 512 236
f 236 512 267
f 210 262 213
f 212 213 248
f 213 262 248
f 212 248 249
f 212 249 220
f 220 249 250
f 220 250 221
f 221 250 855
f 201 261 210
f 201 260 261
f 260 264 261
f 231 263 260
f 260 263 264
f 231 266 263
f 210 261 262
f 261 273 262
f 261 264 273
f 263 279 264
f 230 265 266
f 265 235 271
f 265 269 266
f 265 271 269
f 235 236 268
f 236 267 268
f 235 268 271
f 266 270 263
f 266 269 270
f 263 270 279
f 269 281 270
f 267 546 268
f 271 268 282
f 271 283 269
f 268 546 282
f 271 282 283
f 262 272 248
f 262 273 272
f 248 275 249
f 248 272 275
f 264 280 273
f 264 279 280
f 273 280 274
f 273 274 272
f 272 274 277
f 249 276 250
f 249 275 276
f 250 276 867
f 272 277 275
f 275 277 278
f 275 278 276
f 276 278 869
f 270 284 279
f 280 288 274
f 279 285 280
f 279 284 285
f 280 285 288
f 269 283 281
f 270 281 284
f 282 571 283
f 283 570 281
f 284 281 572
f 274 286 277
f 274 288 286
f 277 287 278
f 277 286 287
f 278 287 874
f 285 575 288
f 284 573 285
f 281 570 572
f 284 572 573
f 285 573 575
f 288 576 286
f 286 577 287
f 288 575 576
f 286 576 577
f 287 577 1142
f 307 308 318
f 308 309 321
f 307 317 381
f 307 318 317
f 308 319 318
f 308 320 319
f 308 321 320
f 309 322 321
f 309 310 323
f 309 323 322
f 310 324 325
f 310 325 323
f 323 325 400
f 325 324 464
f 8 1031 9
f 9 1031 307
f 307 1031 308
f 308 1031 309
f 309 1031 310
f 310 1031 336
f 336 1031 337
f 337 1031 341
f 310 336 338
f 336 337 340
f 337 341 348
f 310 338 324
f 336 339 338
f 336 340 339
f 324 338 464
f 338 339 465
f 339 340 468
f 340 347 468
f 337 347 340
f 337 348 347
f 341 1031 344
f 344 1028 345
f 348 341 349
f 341 350 349
f 347 348 657
f 348 349 657
f 349 350 660
f 341 344 355
f 344 345 357
f 341 355 350
f 344 356 355
f 344 357 356
f 350 355 660
f 355 672 660
f 355 356 672
f 356 678 672
f 356 357 678
f 345 358 357
f 345 359 358
f 345 1034 359
f 357 358 678
f 358 680 678
f 358 359 680
f 359 1034 680
f 78 381 382
f 317 382 381
f 317 383 382
f 382 383 384
f 317 318 383
f 318 319 383
f 384 383 386
f 80 382 384
f 384 386 385
f 81 384 385
f 386 387 385
f 385 387 394
f 319 388 383
f 319 320 388
f 383 388 386
f 386 388 390
f 320 321 388
f 321 322 389
f 321 389 388
f 388 389 390
f 390 389 392
f 386 390 387
f 387 390 391
f 390 392 391
f 387 391 396
f 392 393 391
f 391 393 398
f 398 393 399
f 85 385 394
f 85 394 86
f 86 394 395
f 394 387 396
f 394 396 395
f 396 397 395
f 396 391 398
f 396 398 397
f 398 455 397
f 398 399 455
f 322 400 389
f 322 323 400
f 389 400 392
f 392 400 401
f 325 464 400
f 400 464 401
f 464 466 401
f 392 401 393
f 393 401 402
f 393 402 399
f 401 466 402
f 86 395 449
f 395 397 450
f 395 450 449
f 449 450 452
f 397 451 450
f 450 451 453
f 450 453 452
f 453 508 452
f 453 451 454
f 453 454 509
f 397 455 451
f 399 456 455
f 455 456 457
f 456 474 459
f 455 457 451
f 451 457 454
f 456 459 457
f 454 457 458
f 457 459 458
f 454 458 510
f 459 477 460
f 459 460 458
f 477 480 460
f 233 452 508
f 453 509 508
f 454 510 509
f 510 458 515
f 515 458 460
f 515 460 461
f 460 480 461
f 480 462 461
f 399 402 473
f 466 463 402
f 473 402 463
f 473 463 475
f 338 465 464
f 464 465 466
f 466 465 467
f 339 468 465
f 465 468 467
f 467 468 469
f 466 467 463
f 463 467 470
f 463 470 475
f 475 470 479
f 470 471 479
f 467 469 470
f 470 469 471
f 468 657 469
f 469 658 471
f 479 471 489
f 489 471 661
f 489 661 472
f 399 473 456
f 473 474 456
f 473 475 474
f 459 474 477
f 474 476 477
f 477 476 478
f 474 475 476
f 475 479 476
f 476 487 478
f 477 478 480
f 479 487 476
f 478 487 482
f 480 478 481
f 480 481 462
f 481 478 482
f 481 482 486
f 481 483 462
f 481 486 483
f 483 486 484
f 482 491 486
f 486 491 485
f 484 486 485
f 479 489 487
f 489 488 487
f 482 487 488
f 482 488 491
f 489 472 488
f 488 490 491
f 491 490 499
f 488 472 490
f 472 675 490
f 485 491 499
f 484 485 492
f 485 498 492
f 631 492 493
f 498 493 492
f 632 493 494
f 636 494 503
f 675 495 490
f 499 490 495
f 499 495 496
f 686 496 495
f 686 497 496
f 485 499 498
f 499 496 498
f 496 500 498
f 498 500 493
f 500 494 493
f 501 503 494
f 500 501 494
f 496 497 500
f 500 497 501
f 637 503 504
f 501 505 503
f 505 504 503
f 501 502 505
f 501 497 502
f 505 502 689
f 640 504 506
f 505 507 504
f 507 506 504
f 641 506 1084
f 505 689 507
f 507 689 1304
f 507 1085 506
f 233 508 512
f 508 509 511
f 509 510 513
f 510 515 514
f 508 511 512
f 509 513 511
f 512 511 541
f 511 513 542
f 510 514 513
f 513 514 543
f 516 544 514
f 515 461 516
f 515 516 514
f 461 517 516
f 516 517 545
f 461 462 517
f 462 483 518
f 462 518 517
f 518 483 555
f 555 483 484
f 267 512 541
f 511 542 541
f 541 542 548
f 542 543 549
f 513 543 542
f 514 544 543
f 516 545 544
f 543 544 550
f 544 545 551
f 267 541 547
f 267 547 546
f 541 548 547
f 542 549 548
f 543 550 549
f 544 551 550
f 545 552 551
f 545 517 553
f 553 517 518
f 553 518 554
f 518 555 554
f 555 558 554
f 555 630 558
f 545 553 552
f 553 554 556
f 553 556 552
f 554 558 557
f 554 557 556
f 558 581 557
f 559 582 581
f 558 630 559
f 559 631 560
f 558 559 581
f 559 560 582
f 547 561 546
f 282 546 574
f 547 548 563
f 548 549 562
f 548 562 563
f 549 564 562
f 282 574 571
f 546 561 574
f 283 571 570
f 547 563 561
f 549 550 564
f 550 551 565
f 550 565 564
f 551 566 565
f 551 552 566
f 552 556 567
f 556 557 568
f 552 567 566
f 556 568 567
f 557 569 568
f 563 562 580
f 574 580 571
f 571 580 570
f 574 561 580
f 563 580 561
f 573 580 575
f 575 580 576
f 576 580 577
f 577 580 1142
f 572 570 580
f 572 580 573
f 562 564 580
f 564 565 580
f 565 566 580
f 580 566 567
f 580 567 568
f 580 568 569
f 580 569 579
f 580 579 578
f 580 578 586
f 580 586 587
f 580 587 588
f 580 588 589
f 580 589 590
f 580 590 591
f 580 591 1161
f 557 581 569
f 579 581 582
f 569 581 579
f 579 582 578
f 578 583 586
f 578 582 583
f 586 583 584
f 582 560 583
f 583 633 584
f 583 560 633
f 584 633 634
f 584 634 585
f 634 635 585
f 586 584 587
f 587 584 585
f 588 585 592
f 587 585 588
f 588 592 589
f 589 593 590
f 590 594 591
f 589 592 593
f 585 635 592
f 592 638 593
f 590 593 594
f 591 594 1167
f 593 639 594
f 555 484 630
f 484 492 630
f 630 492 631
f 559 630 631
f 631 632 560
f 632 633 560
f 632 636 633
f 631 493 632
f 632 494 636
f 633 636 634
f 634 636 637
f 634 637 635
f 636 503 637
f 635 637 640
f 637 504 640
f 635 640 638
f 638 641 639
f 592 635 638
f 593 638 639
f 594 639 1229
f 638 640 641
f 640 506 641
f 639 641 1231
f 347 657 468
f 657 658 469
f 349 660 657
f 657 660 658
f 658 660 659
f 658 661 471
f 658 659 661
f 661 659 674
f 661 674 472
f 472 674 675
f 660 672 659
f 659 673 674
f 659 672 673
f 672 678 673
f 673 679 677
f 673 678 679
f 675 674 677
f 675 677 676
f 673 677 674
f 677 679 682
f 677 682 676
f 676 682 683
f 678 680 679
f 679 680 681
f 679 681 682
f 680 1289 681
f 681 1290 684
f 682 684 683
f 681 684 682
f 683 684 685
f 684 1293 685
f 675 676 495
f 686 495 676
f 686 676 683
f 686 687 497
f 686 683 687
f 687 683 685
f 687 502 497
f 687 688 502
f 687 685 688
f 688 689 502
f 688 1303 689
f 688 685 1294
f 16 750 726
f 726 752 727
f 16 134 750
f 726 750 751
f 726 751 752
f 727 752 757
f 727 757 758
f 727 758 771
f 727 771 729
f 729 771 812
f 729 812 813
f 15 16 1031
f 16 726 1031
f 726 727 1031
f 727 729 1031
f 729 730 1031
f 731 735 1031
f 730 731 1031
f 735 736 1031
f 729 813 730
f 730 820 731
f 730 813 817
f 730 817 818
f 730 818 820
f 731 820 823
f 731 823 956
f 731 956 735
f 735 956 957
f 735 957 958
f 735 958 960
f 735 960 736
f 736 967 737
f 737 970 1050
f 736 960 962
f 736 962 967
f 737 967 969
f 737 969 970
f 970 1357 1050
f 134 753 750
f 750 753 751
f 753 755 751
f 751 755 752
f 137 754 753
f 138 761 754
f 754 761 762
f 753 756 755
f 753 754 756
f 754 762 756
f 752 755 760
f 752 760 757
f 757 760 758
f 758 772 771
f 758 760 772
f 755 756 759
f 755 759 760
f 756 762 800
f 756 800 759
f 760 759 815
f 760 815 772
f 140 792 761
f 771 772 812
f 759 800 802
f 759 802 815
f 215 794 792
f 761 792 793
f 761 793 762
f 792 796 793
f 793 796 804
f 792 794 796
f 218 795 794
f 794 795 797
f 794 797 796
f 796 797 806
f 219 798 795
f 795 798 799
f 795 799 797
f 797 807 806
f 797 799 807
f 762 793 801
f 762 801 800
f 793 804 801
f 801 804 805
f 800 801 803
f 800 803 802
f 801 805 803
f 805 832 803
f 796 806 804
f 804 809 805
f 806 809 804
f 806 807 808
f 806 808 809
f 805 809 810
f 805 810 832
f 809 808 811
f 809 811 810
f 810 811 839
f 772 814 812
f 812 814 813
f 813 819 817
f 813 814 819
f 772 815 816
f 772 816 814
f 815 802 828
f 815 828 816
f 814 816 822
f 814 822 819
f 816 828 830
f 816 830 822
f 817 819 818
f 818 819 821
f 818 821 820
f 819 822 825
f 819 825 821
f 822 830 836
f 820 821 823
f 823 824 956
f 821 824 823
f 822 836 825
f 821 825 826
f 821 826 824
f 825 827 826
f 825 836 827
f 826 827 964
f 802 803 829
f 802 829 828
f 803 832 829
f 829 831 828
f 828 831 830
f 829 832 834
f 830 831 837
f 829 834 831
f 831 835 837
f 834 835 831
f 810 833 832
f 832 833 834
f 810 839 833
f 833 841 834
f 834 841 835
f 830 837 836
f 836 837 838
f 837 835 848
f 837 848 838
f 836 838 827
f 827 838 844
f 833 840 841
f 833 839 840
f 840 919 842
f 835 841 847
f 840 842 841
f 841 842 847
f 921 843 842
f 847 842 843
f 843 923 852
f 852 924 853
f 848 845 838
f 827 844 964
f 964 844 976
f 838 845 844
f 845 846 844
f 976 844 846
f 835 847 848
f 847 849 848
f 848 849 845
f 845 849 851
f 847 843 849
f 845 851 846
f 976 846 850
f 849 843 852
f 851 852 853
f 849 852 851
f 851 853 854
f 854 853 1101
f 851 854 846
f 854 850 846
f 854 1104 850
f 854 1101 1104
f 850 1104 979
f 221 855 798
f 798 855 856
f 798 856 799
f 799 856 857
f 799 857 807
f 807 884 808
f 807 857 884
f 884 887 808
f 808 887 811
f 250 867 855
f 855 867 868
f 855 868 856
f 276 869 867
f 867 869 870
f 867 870 868
f 868 870 872
f 856 868 871
f 856 871 857
f 857 871 873
f 868 872 871
f 871 872 877
f 871 877 873
f 873 877 878
f 278 874 869
f 869 875 870
f 869 874 875
f 870 876 872
f 870 875 876
f 872 876 879
f 287 1142 874
f 874 1143 875
f 874 1142 1143
f 875 1143 1144
f 875 1144 876
f 876 1145 879
f 876 1144 1145
f 879 1145 1146
f 879 1146 880
f 880 1146 1147
f 872 879 877
f 879 880 877
f 877 880 878
f 878 880 881
f 878 881 889
f 880 1147 881
f 881 1148 882
f 889 881 882
f 882 1149 883
f 857 873 884
f 884 873 885
f 884 885 887
f 885 886 887
f 873 878 885
f 885 889 886
f 811 887 888
f 811 888 839
f 888 918 839
f 887 886 888
f 888 886 893
f 888 893 918
f 918 893 892
f 885 878 889
f 889 890 886
f 886 890 893
f 893 890 891
f 889 882 890
f 882 883 890
f 883 891 890
f 883 1175 891
f 894 1175 1176
f 894 1176 895
f 891 1175 894
f 893 891 892
f 891 894 892
f 894 895 920
f 894 920 892
f 895 922 920
f 895 1182 922
f 839 918 840
f 918 919 840
f 918 892 919
f 919 921 842
f 919 892 920
f 921 920 922
f 919 920 921
f 921 922 923
f 922 1256 923
f 922 1182 1256
f 921 923 843
f 923 1256 924
f 852 923 924
f 924 1260 853
f 956 959 957
f 959 958 957
f 956 824 959
f 824 826 963
f 824 963 959
f 826 964 963
f 959 961 958
f 959 965 961
f 958 961 960
f 960 961 962
f 962 968 967
f 962 961 968
f 961 973 968
f 959 963 965
f 963 964 966
f 963 966 965
f 966 972 965
f 961 965 973
f 965 972 973
f 967 968 969
f 968 971 969
f 968 974 971
f 969 971 970
f 970 971 1358
f 968 973 974
f 972 975 973
f 974 973 975
f 971 974 1360
f 974 975 1361
f 964 976 966
f 966 976 977
f 966 977 972
f 977 978 972
f 976 850 977
f 972 978 975
f 977 850 979
f 977 979 978
f 736 737 1031
f 1031 1050 1051
f 1031 1051 1023
f 1051 1024 1023
f 1031 1023 1044
f 1053 1064 1024
f 1023 1024 1025
f 1023 1045 1044
f 1023 1025 1045
f 1024 1026 1025
f 1024 1064 1027
f 1024 1027 1026
f 1045 1025 1116
f 1026 1116 1025
f 1026 1027 1118
f 1027 1064 1118
f 344 1029 1028
f 344 1031 1029
f 345 1028 1034
f 1028 1029 1036
f 1029 1031 1043
f 1028 1035 1034
f 1028 1036 1035
f 680 1034 1289
f 1034 1035 1289
f 1035 1291 1289
f 1035 1036 1291
f 1029 1037 1036
f 1029 1038 1037
f 1029 1043 1038
f 1036 1037 1291
f 1037 1038 1298
f 1037 1298 1291
f 1038 1043 1298
f 1031 1042 1043
f 1031 1044 1042
f 1042 1318 1043
f 1042 1044 1319
f 1044 1045 1319
f 737 1050 1031
f 1051 1052 1053
f 1051 1053 1024
f 1050 1059 1051
f 1051 1061 1052
f 1050 1357 1058
f 1050 1058 1059
f 1051 1059 1060
f 1051 1060 1061
f 1052 1061 1062
f 1052 1062 1066
f 1053 1052 1063
f 1052 1066 1063
f 1053 1065 1064
f 1053 1063 1065
f 1064 1065 1119
f 1065 1063 1376
f 1236 1087 1089
f 506 1085 1084
f 1231 1084 1086
f 1085 1088 1084
f 1088 1086 1084
f 507 1304 1085
f 1085 1304 1083
f 1232 1086 1087
f 1088 1096 1086
f 1096 1087 1086
f 1085 1083 1088
f 1088 1092 1096
f 1088 1083 1092
f 1237 1089 1090
f 1089 1097 1090
f 1238 1090 1091
f 1125 1091 1090
f 1097 1125 1090
f 1306 1092 1083
f 1306 1093 1092
f 1092 1093 1094
f 1094 1130 1098
f 1094 1093 1130
f 1089 1087 1095
f 1096 1095 1087
f 1089 1095 1097
f 1096 1092 1094
f 1096 1094 1095
f 1095 1098 1097
f 1094 1098 1095
f 1260 1261 1101
f 1102 1261 1262
f 1103 1262 1266
f 1111 1109 1100
f 1266 1100 1109
f 1099 1111 1100
f 1099 1124 1128
f 1099 1128 1111
f 979 1105 1371
f 1106 1373 1371
f 853 1260 1101
f 1102 1101 1261
f 1102 1104 1101
f 1102 1262 1103
f 1102 1103 1105
f 1102 1105 1104
f 979 1104 1105
f 1105 1103 1106
f 1105 1106 1371
f 1112 1107 1373
f 1110 1108 1107
f 1110 1139 1108
f 1106 1109 1112
f 1111 1112 1109
f 1103 1266 1109
f 1103 1109 1106
f 1111 1128 1110
f 1128 1139 1110
f 1111 1110 1112
f 1106 1112 1373
f 1112 1110 1107
f 1320 1116 1117
f 1117 1114 1321
f 1113 1321 1114
f 1113 1114 1133
f 1121 1377 1115
f 1136 1138 1378
f 1138 1115 1378
f 1026 1118 1116
f 1118 1117 1116
f 1118 1120 1117
f 1064 1119 1118
f 1118 1119 1120
f 1120 1119 1121
f 1133 1122 1141
f 1122 1115 1141
f 1120 1114 1117
f 1120 1122 1114
f 1133 1114 1122
f 1122 1121 1115
f 1120 1121 1122
f 1138 1141 1115
f 1129 1132 1135
f 1123 1126 1127
f 1123 1127 1124
f 1125 1129 1126
f 1125 1126 1091
f 1123 1091 1126
f 1127 1139 1128
f 1127 1140 1139
f 1124 1127 1128
f 1126 1129 1140
f 1126 1140 1127
f 1098 1131 1134
f 1113 1130 1093
f 1113 1133 1130
f 1098 1130 1131
f 1133 1141 1131
f 1141 1132 1131
f 1134 1132 1129
f 1134 1131 1132
f 1130 1133 1131
f 1097 1134 1125
f 1097 1098 1134
f 1125 1134 1129
f 1137 1139 1140
f 1138 1135 1132
f 1129 1135 1140
f 1137 1140 1135
f 1136 1137 1135
f 1375 1108 1137
f 1136 1375 1137
f 1137 1108 1139
f 1136 1135 1138
f 1138 1132 1141
f 580 1143 1142
f 580 1144 1143
f 580 1145 1144
f 580 1146 1145
f 580 1147 1146
f 580 1148 1147
f 580 1149 1148
f 580 1152 1149
f 580 1153 1152
f 580 1154 1153
f 580 1161 1162
f 580 1162 1163
f 580 1163 1164
f 580 1165 1166
f 580 1164 1165
f 580 1155 1154
f 580 1156 1155
f 580 1157 1156
f 580 1158 1157
f 580 1159 1158
f 580 1150 1151
f 580 1151 1160
f 580 1160 1159
f 580 1166 1150
f 881 1147 1148
f 882 1148 1149
f 883 1149 1152
f 1152 1153 1175
f 1153 1154 1176
f 883 1152 1175
f 1153 1176 1175
f 1154 1155 1177
f 1154 1177 1176
f 1155 1178 1177
f 1160 1151 1188
f 1160 1187 1159
f 1156 1157 1179
f 1155 1156 1178
f 1157 1158 1180
f 1156 1179 1178
f 1157 1180 1179
f 1158 1159 1181
f 1158 1181 1180
f 1159 1187 1181
f 591 1167 1161
f 1161 1168 1162
f 1162 1169 1163
f 1166 1165 1171
f 1163 1173 1164
f 1163 1169 1173
f 1164 1174 1165
f 1164 1173 1174
f 1161 1167 1168
f 1162 1168 1169
f 594 1229 1167
f 1167 1230 1168
f 1168 1233 1169
f 1166 1170 1150
f 1150 1172 1151
f 1165 1174 1171
f 1166 1171 1170
f 1151 1172 1188
f 1150 1170 1172
f 1160 1188 1187
f 1173 1235 1174
f 1169 1234 1173
f 1169 1233 1234
f 1173 1234 1235
f 1171 1174 1189
f 1171 1190 1170
f 1174 1235 1189
f 895 1177 1182
f 895 1176 1177
f 1177 1178 1182
f 1178 1179 1183
f 1179 1180 1186
f 1180 1181 1184
f 1181 1187 1185
f 1178 1183 1182
f 1182 1183 1256
f 1183 1186 1257
f 1179 1186 1183
f 1180 1184 1186
f 1181 1185 1184
f 1186 1184 1258
f 1184 1185 1259
f 1170 1191 1172
f 1188 1172 1193
f 1188 1192 1187
f 1187 1192 1185
f 1188 1193 1192
f 1172 1191 1193
f 1189 1240 1190
f 1171 1189 1190
f 1170 1190 1191
f 1185 1192 1263
f 1192 1193 1264
f 1193 1265 1264
f 1190 1194 1191
f 1193 1191 1265
f 1190 1240 1194
f 1191 1194 1265
f 639 1231 1229
f 1229 1232 1230
f 1167 1229 1230
f 1168 1230 1233
f 1229 1231 1232
f 641 1084 1231
f 1230 1232 1236
f 1231 1086 1232
f 1230 1236 1233
f 1233 1236 1237
f 1238 1235 1234
f 1233 1237 1234
f 1238 1234 1237
f 1232 1087 1236
f 1236 1089 1237
f 1235 1239 1189
f 1238 1239 1235
f 1189 1239 1240
f 1238 1237 1090
f 1239 1123 1240
f 1238 1091 1239
f 1240 1124 1194
f 1239 1091 1123
f 1183 1257 1256
f 1186 1258 1257
f 924 1256 1257
f 1257 1258 1260
f 1184 1259 1258
f 1185 1263 1259
f 1258 1259 1261
f 1263 1262 1259
f 924 1257 1260
f 1258 1261 1260
f 1259 1262 1261
f 1192 1264 1263
f 1263 1264 1266
f 1264 1100 1266
f 1194 1099 1265
f 1194 1124 1099
f 1264 1265 1100
f 1265 1099 1100
f 1263 1266 1262
f 1240 1123 1124
f 681 1289 1290
f 1290 1292 1293
f 1289 1291 1290
f 1290 1291 1292
f 684 1290 1293
f 685 1293 1294
f 1293 1295 1294
f 1292 1295 1293
f 1294 1295 1296
f 1291 1298 1292
f 1292 1297 1295
f 1292 1298 1297
f 1298 1318 1297
f 1043 1318 1298
f 1297 1317 1300
f 1297 1318 1317
f 1296 1300 1299
f 1295 1297 1300
f 1295 1300 1296
f 1317 1301 1300
f 1300 1301 1299
f 1299 1301 1302
f 688 1294 1303
f 1303 1294 1296
f 689 1303 1304
f 1303 1305 1304
f 1303 1296 1305
f 1305 1296 1299
f 1305 1083 1304
f 1305 1306 1083
f 1305 1299 1306
f 1306 1299 1302
f 1306 1302 1093
f 1302 1113 1093
f 1042 1319 1318
f 1318 1319 1317
f 1317 1319 1320
f 1045 1116 1319
f 1319 1116 1320
f 1317 1320 1301
f 1301 1320 1321
f 1302 1301 1321
f 1302 1321 1113
f 1320 1117 1321
f 970 1358 1357
f 1058 1357 1358
f 1058 1358 1359
f 971 1360 1358
f 1358 1360 1362
f 1058 1359 1059
f 1059 1359 1060
f 1358 1362 1359
f 974 1361 1360
f 975 1370 1361
f 1360 1363 1362
f 1360 1361 1363
f 1361 1372 1363
f 1060 1359 1364
f 1061 1060 1364
f 1359 1369 1364
f 1359 1362 1369
f 1061 1364 1365
f 1062 1365 1066
f 1061 1365 1062
f 1364 1369 1367
f 1364 1367 1365
f 1363 1374 1366
f 1369 1366 1368
f 1369 1368 1367
f 1368 1366 1375
f 1362 1363 1366
f 1362 1366 1369
f 975 978 1370
f 978 1371 1370
f 978 979 1371
f 1361 1370 1372
f 1370 1373 1372
f 1370 1371 1373
f 1372 1107 1374
f 1363 1372 1374
f 1372 1373 1107
f 1374 1108 1375
f 1374 1375 1366
f 1374 1107 1108
f 1066 1365 1376
f 1066 1376 1063
f 1365 1367 1377
f 1365 1377 1376
f 1065 1376 1119
f 1376 1377 1121
f 1119 1376 1121
f 1367 1368 1378
f 1367 1378 1377
f 1368 1375 1136
f 1368 1136 1378
f 1377 1378 1115
