# ff_tip_core.obj  (721 v, 1438 f)  units: metres
v -0.005816826 0.049914882 0.127051339
v -0.004895064 0.048954461 0.127135366
v -0.003815971 0.048173439 0.127203688
v -0.006551631 0.051023826 0.126954317
v -0.007075861 0.052245658 0.126847416
v -0.007372666 0.053541098 0.126734078
v -0.002614229 0.047596913 0.127254128
v -0.001328463 0.047243416 0.127285063
v -0.000000000 0.047124308 0.127295479
v -0.006019087 0.050773915 0.133822232
v -0.005806438 0.050517846 0.133844629
v -0.005975200 0.050883841 0.134712830
v -0.003986551 0.048872501 0.133988589
v -0.003811208 0.048776470 0.133996978
v -0.003957485 0.048996288 0.134877965
v -0.004742434 0.049419593 0.133940727
v -0.004888297 0.049556043 0.133928791
v -0.004707857 0.049539391 0.134830460
v -0.005423526 0.050056748 0.133884981
v -0.005383983 0.050171901 0.134775117
v -0.005265929 0.050359361 0.135645807
v -0.005071085 0.050616391 0.136484355
v -0.004604628 0.049740721 0.135699928
v -0.003870710 0.049209524 0.135746405
v -0.003727490 0.049509101 0.136581227
v -0.004434253 0.050020643 0.136536464
v -0.004802295 0.050939247 0.137278512
v -0.004199217 0.050375074 0.137327880
v -0.003902947 0.050798852 0.138062596
v -0.006519722 0.051559787 0.133753479
v -0.006548107 0.051619880 0.133748218
v -0.007061898 0.052844577 0.133641079
v -0.006917537 0.052401971 0.133679792
v -0.006867100 0.052500028 0.134571433
v -0.006472186 0.051663984 0.134644583
v -0.006716526 0.052636437 0.135446593
v -0.006330270 0.051818728 0.135518134
v -0.005844183 0.051055688 0.135584891
v -0.005627944 0.051286954 0.136425689
v -0.006096046 0.052021760 0.136361390
v -0.006468009 0.052809216 0.136292502
v -0.007206259 0.053287186 0.133602351
v -0.007153717 0.053378783 0.134494558
v -0.007368841 0.054136228 0.133528069
v -0.007381334 0.054201465 0.133522362
v -0.007327515 0.054286402 0.134415150
v -0.007166845 0.054383639 0.135293737
v -0.006996858 0.053495925 0.135371387
v -0.006737969 0.053636905 0.136220083
v -0.006901667 0.054491770 0.136145309
v -0.006535846 0.054609217 0.136957437
v -0.006125175 0.053015839 0.137096837
v -0.006380825 0.053799659 0.137028262
v -0.005772927 0.052270126 0.137162074
v -0.005693022 0.053253304 0.137847856
v -0.006074718 0.054734256 0.137718290
v -0.005930635 0.053981818 0.137784123
v -0.005329636 0.051574271 0.137222946
v -0.004953611 0.051913437 0.137965083
v -0.005365625 0.052560199 0.137908489
v -0.004880082 0.052887753 0.138589770
v -0.004463475 0.051323220 0.138016716
v -0.004059568 0.051762711 0.138688207
v -0.004505351 0.052299518 0.138641238
v -0.003991392 0.052726880 0.139241561
v -0.005177851 0.053518135 0.138534620
v -0.005393962 0.054180726 0.138476655
v -0.004778633 0.054393485 0.139095753
v -0.004323375 0.053248011 0.139195964
v -0.004587175 0.053806480 0.139147103
v -0.003929609 0.054114129 0.139676392
v -0.004093622 0.054616988 0.139632389
v -0.003167798 0.048424099 0.134027809
v -0.003144701 0.048551157 0.134916916
v -0.002299086 0.048081461 0.134057790
v -0.002609266 0.048203804 0.134047091
v -0.002282324 0.048211019 0.134946674
v -0.003075748 0.048774157 0.135784492
v -0.002232279 0.048441473 0.135813609
v -0.002149683 0.048769470 0.136645943
v -0.002961942 0.049089842 0.136617914
v -0.001327975 0.047841664 0.134078771
v -0.001394117 0.047849990 0.134078041
v -0.001383952 0.047981232 0.134966776
v -0.000467161 0.047733333 0.134088248
v -0.000000000 0.047718707 0.134089530
v -0.000463755 0.047865428 0.134976909
v -0.001353606 0.048216727 0.135833263
v -0.001303522 0.048553038 0.136664867
v -0.000453587 0.048103459 0.135843173
v -0.000436804 0.048443962 0.136674419
v -0.003529916 0.049890649 0.137370259
v -0.002804946 0.049493611 0.137404993
v -0.003280868 0.050348606 0.138101995
v -0.002983977 0.050876290 0.138765752
v -0.002035740 0.049190219 0.137431532
v -0.002607047 0.049979579 0.138134271
v -0.001892111 0.049697593 0.138158947
v -0.002371131 0.050540656 0.138795108
v -0.001234429 0.048985261 0.137449473
v -0.000413651 0.048881967 0.137458503
v -0.001147336 0.049507096 0.138175607
v -0.001720891 0.050284188 0.138817549
v -0.001043512 0.050110929 0.138832718
v -0.000384466 0.049411088 0.138184011
v -0.000349675 0.050023612 0.138840362
v -0.001524576 0.050941452 0.139397770
v -0.000924471 0.050787959 0.139411196
v -0.000309785 0.050710600 0.139417961
v -0.003549763 0.051285792 0.138729930
v -0.003144816 0.051828798 0.139320135
v -0.003596463 0.052251309 0.139283165
v -0.003080914 0.052781891 0.139792949
v -0.002643573 0.051466007 0.139351875
v -0.002100639 0.051168662 0.139377877
v -0.002694010 0.052419946 0.139824614
v -0.002264619 0.052109163 0.139851809
v -0.003419231 0.053189289 0.139757305
v -0.003703624 0.053635716 0.139718249
v -0.002797209 0.053680003 0.140180945
v -0.003029866 0.054045215 0.140148982
v -0.003214740 0.054436598 0.140114740
v -0.002520439 0.053346720 0.140210092
v -0.002203919 0.053050619 0.140236005
v -0.002452992 0.054769184 0.140455782
v -0.002134397 0.054191869 0.140506297
v -0.001923209 0.053937558 0.140528545
v -0.002311925 0.054470543 0.140481904
v -0.001799514 0.051854443 0.139874086
v -0.001306030 0.051659800 0.139891118
v -0.001852643 0.052796371 0.140258238
v -0.001472149 0.052587990 0.140276477
v -0.001068439 0.052428756 0.140290409
v -0.000791949 0.051528309 0.139902622
v -0.000265378 0.051462039 0.139908418
v -0.000647878 0.052321188 0.140299812
v -0.000217101 0.052266974 0.140304565
v -0.001681690 0.053711619 0.140548304
v -0.001413651 0.053517617 0.140565276
v -0.001123317 0.053358614 0.140579194
v -0.001440462 0.054717418 0.140728623
v -0.000954044 0.054262381 0.140768439
v -0.001297935 0.054545790 0.140743628
v -0.001134939 0.054393310 0.140756980
v -0.000815267 0.053237110 0.140589818
v -0.000494361 0.053155027 0.140597001
v -0.000165658 0.053113662 0.140600622
v -0.000758104 0.054155070 0.140777811
v -0.000550207 0.054073073 0.140784994
v -0.000333634 0.054017678 0.140789837
v -0.000111799 0.053989761 0.140792280
v -0.007432509 0.054868519 0.126617953
v -0.007253463 0.056185249 0.126502752
v -0.006841287 0.057448972 0.126392186
v -0.006209225 0.058619071 0.126289815
v -0.007419053 0.055462077 0.133412078
v -0.007381334 0.056059327 0.133359820
v -0.007243752 0.056777809 0.133296952
v -0.007206259 0.056973610 0.133279830
v -0.006917537 0.057858821 0.133202389
v -0.006832341 0.058039181 0.133186609
v -0.005377594 0.059657939 0.126198933
v -0.004373122 0.060532175 0.126122445
v -0.006519722 0.058701005 0.133128703
v -0.006197841 0.059206277 0.133084491
v -0.006019087 0.059486877 0.133059949
v -0.005423526 0.060204048 0.132997200
v -0.005374928 0.060249511 0.132993221
v -0.004742434 0.060841199 0.132941455
v -0.004364493 0.061114743 0.132917523
v -0.003986551 0.061388295 0.132893592
v -0.003228095 0.061213695 0.126062825
v -0.001979314 0.061680589 0.126021966
v -0.000666916 0.061917845 0.126001209
v -0.003226219 0.061804697 0.132857159
v -0.003167798 0.061836697 0.132854357
v -0.002299086 0.062179331 0.132824391
v -0.001975961 0.062261980 0.132817149
v -0.001394117 0.062410802 0.132804140
v -0.000665677 0.062502481 0.132796124
v -0.000467161 0.062527463 0.132793933
v -0.007440000 0.055130396 0.133441091
v -0.007385754 0.055208560 0.134334460
v -0.007223807 0.055285580 0.135214821
v -0.007327515 0.056130718 0.134253800
v -0.007166845 0.056187518 0.135135904
v -0.006956521 0.055360336 0.136069313
v -0.006587793 0.055431742 0.136885464
v -0.006901667 0.056228902 0.135993317
v -0.006535846 0.056254268 0.136813506
v -0.007153717 0.057038330 0.134174392
v -0.006996858 0.057075229 0.135058239
v -0.006867100 0.057917088 0.134097502
v -0.006716526 0.057934720 0.134983048
v -0.006737969 0.057083771 0.135918528
v -0.006380825 0.057063825 0.136742681
v -0.006468009 0.057911456 0.135846108
v -0.006125175 0.057847641 0.136674106
v -0.005772927 0.058593359 0.136608869
v -0.006123000 0.055498753 0.137651414
v -0.006074718 0.056263249 0.137584522
v -0.005930635 0.057015687 0.137518689
v -0.005693022 0.057744201 0.137454957
v -0.005525007 0.054865077 0.138416782
v -0.005568920 0.055560391 0.138355941
v -0.004933632 0.055615760 0.138988808
v -0.005525007 0.056255706 0.138295114
v -0.004894729 0.056231756 0.138934925
v -0.004894729 0.054999765 0.139042705
v -0.004193075 0.055136357 0.139586955
v -0.004226402 0.055664051 0.139540792
v -0.004193075 0.056191746 0.139494628
v -0.004093622 0.056711115 0.139449179
v -0.005393962 0.056940056 0.138235241
v -0.005177851 0.057602644 0.138177276
v -0.004778633 0.056838036 0.138881892
v -0.005365625 0.058437306 0.137394309
v -0.004880082 0.058233030 0.138122126
v -0.004587175 0.057425041 0.138830528
v -0.004323375 0.057983510 0.138781667
v -0.003991392 0.058504641 0.138736069
v -0.003929609 0.057213973 0.139405191
v -0.006472186 0.058753133 0.134024367
v -0.005975200 0.059533276 0.133956105
v -0.006330270 0.058752432 0.134911507
v -0.005844183 0.059515469 0.134844765
v -0.006096046 0.058698911 0.135777220
v -0.005627944 0.059433717 0.135712937
v -0.005383983 0.060245216 0.133893818
v -0.005265929 0.060211800 0.134783834
v -0.005329636 0.059289213 0.136547983
v -0.005071085 0.060104284 0.135654271
v -0.004802295 0.059924234 0.136492431
v -0.004199217 0.060488407 0.136443064
v -0.004707857 0.060877722 0.133838475
v -0.003957485 0.061420828 0.133790955
v -0.004604628 0.060830437 0.134729713
v -0.003870710 0.061361633 0.134683236
v -0.004434253 0.060700033 0.135602146
v -0.003727490 0.061211571 0.135557398
v -0.004953611 0.059084065 0.137337729
v -0.004505351 0.058821265 0.138070658
v -0.004059568 0.059358075 0.138023689
v -0.004463475 0.059674285 0.137286097
v -0.003902947 0.060198653 0.137240216
v -0.003348915 0.054847978 0.140078753
v -0.003430277 0.055272866 0.140041590
v -0.003457540 0.055704564 0.140003815
v -0.003348915 0.056561142 0.139928877
v -0.003430277 0.056136258 0.139966041
v -0.002555375 0.055083085 0.140428320
v -0.002617457 0.055407293 0.140399948
v -0.002638260 0.055736698 0.140371144
v -0.002617457 0.056066100 0.140342310
v -0.002555375 0.056390312 0.140313953
v -0.002452992 0.056704212 0.140286490
v -0.003703624 0.057692390 0.139363334
v -0.003214740 0.056972522 0.139892876
v -0.003029866 0.057363905 0.139858633
v -0.002797209 0.057729118 0.139826685
v -0.003419231 0.058138814 0.139324278
v -0.003080914 0.058546212 0.139288634
v -0.002311925 0.057002854 0.140260369
v -0.002134397 0.057281528 0.140235990
v -0.001923209 0.057535838 0.140213728
v -0.002520439 0.058062404 0.139797524
v -0.002203919 0.058358505 0.139771625
v -0.001655475 0.055107038 0.140694529
v -0.001724571 0.055318885 0.140675992
v -0.001560272 0.054905493 0.140712172
v -0.001766469 0.055537686 0.140656859
v -0.001780508 0.055759996 0.140637413
v -0.001766469 0.055982303 0.140617967
v -0.001724571 0.056201104 0.140598819
v -0.001655475 0.056412946 0.140580282
v -0.001560272 0.056614496 0.140562654
v -0.000725521 0.055248991 0.140844673
v -0.000480526 0.055019803 0.140864730
v -0.000653734 0.055162549 0.140852243
v -0.000571637 0.055085745 0.140858963
v -0.000833817 0.055445235 0.140827507
v -0.000868619 0.055551935 0.140818179
v -0.000785866 0.055343717 0.140836388
v -0.000889721 0.055662137 0.140808538
v -0.000896793 0.055774108 0.140798733
v -0.000381836 0.054965753 0.140869454
v -0.000277124 0.054924455 0.140873075
v -0.000168042 0.054896552 0.140875518
v -0.000056310 0.054882493 0.140876740
v -0.000000000 0.055778839 0.140852779
v -0.000889721 0.055886079 0.140788943
v -0.000868619 0.055996280 0.140779302
v -0.000833817 0.056102984 0.140769958
v -0.000785866 0.056204498 0.140761092
v -0.000725521 0.056299224 0.140752792
v -0.000653734 0.056385670 0.140745237
v -0.000571637 0.056462470 0.140738517
v -0.000480526 0.056528412 0.140732735
v -0.000381836 0.056582462 0.140728012
v -0.000277124 0.056623764 0.140724406
v -0.000168042 0.056651667 0.140721962
v -0.000056310 0.056665726 0.140720725
v -0.001440462 0.056802567 0.140546188
v -0.001297935 0.056974199 0.140531182
v -0.001134939 0.057126679 0.140517846
v -0.000954044 0.057257604 0.140506387
v -0.001852643 0.058612749 0.139749378
v -0.001681690 0.057761777 0.140193969
v -0.001413651 0.057955779 0.140176997
v -0.001123317 0.058114782 0.140163079
v -0.000758104 0.057364915 0.140496999
v -0.000550207 0.057446912 0.140489817
v -0.000333634 0.057502307 0.140484974
v -0.000111799 0.057530224 0.140482530
v -0.000815267 0.058236286 0.140152454
v -0.000494361 0.058318365 0.140145272
v -0.000165658 0.058359735 0.140141651
v -0.003144701 0.061865959 0.133752018
v -0.003075748 0.061797000 0.134645149
v -0.002282324 0.062206097 0.133722261
v -0.002232279 0.062129684 0.134616032
v -0.003529916 0.060972832 0.136400685
v -0.002804946 0.061369874 0.136365950
v -0.002961942 0.061630834 0.135520712
v -0.001892111 0.061299913 0.137143865
v -0.002149683 0.061951205 0.135492682
v -0.002035740 0.061673261 0.136339411
v -0.001383952 0.062435880 0.133702159
v -0.001353606 0.062354431 0.134596378
v -0.000463755 0.062551692 0.133692026
v -0.000453587 0.062467694 0.134586468
v -0.001147336 0.061490409 0.137127206
v -0.001303522 0.062167637 0.135473743
v -0.001234429 0.061878223 0.136321470
v -0.000384466 0.061586414 0.137118801
v -0.000436804 0.062276714 0.135464206
v -0.000413651 0.061981518 0.136312440
v -0.003596463 0.058980212 0.138694465
v -0.003144816 0.059402727 0.138657510
v -0.003549763 0.059834987 0.137981966
v -0.002983977 0.060244493 0.137946144
v -0.002371131 0.060580127 0.137916774
v -0.002643573 0.059765514 0.138625756
v -0.002100639 0.060062855 0.138599738
v -0.002694010 0.058908157 0.139256969
v -0.002264619 0.059218943 0.139229774
v -0.003280868 0.060648900 0.137200832
v -0.002607047 0.061017927 0.137168542
v -0.001524576 0.060290068 0.138579875
v -0.000924471 0.060443562 0.138566434
v -0.000309785 0.060520921 0.138559669
v -0.001472149 0.058821131 0.139731139
v -0.001799514 0.059473664 0.139207497
v -0.001068439 0.058980364 0.139717206
v -0.001306030 0.059668303 0.139190465
v -0.000647878 0.059087932 0.139707804
v -0.000217101 0.059142146 0.139703065
v -0.000791949 0.059799794 0.139178962
v -0.000265378 0.059866063 0.139173165
v -0.001720891 0.060836595 0.137894332
v -0.001043512 0.061009854 0.137879178
v -0.000349675 0.061097175 0.137871534
v 0.001328463 0.047243416 0.127285063
v 0.002614229 0.047596913 0.127254128
v 0.003815971 0.048173439 0.127203688
v 0.004895064 0.048954461 0.127135366
v 0.005816826 0.049914882 0.127051339
v 0.006551631 0.051023826 0.126954317
v 0.007075861 0.052245658 0.126847416
v 0.007372666 0.053541098 0.126734078
v 0.000467161 0.047733333 0.134088248
v 0.000463755 0.047865428 0.134976909
v 0.001327975 0.047841664 0.134078771
v 0.001394117 0.047849990 0.134078041
v 0.001383952 0.047981232 0.134966776
v 0.000453587 0.048103459 0.135843173
v 0.000436804 0.048443962 0.136674419
v 0.001353606 0.048216727 0.135833263
v 0.001303522 0.048553038 0.136664867
v 0.002299086 0.048081461 0.134057790
v 0.002609266 0.048203804 0.134047091
v 0.002282324 0.048211019 0.134946674
v 0.003167798 0.048424099 0.134027809
v 0.003144701 0.048551157 0.134916916
v 0.002232279 0.048441473 0.135813609
v 0.002149683 0.048769470 0.136645943
v 0.003075748 0.048774157 0.135784492
v 0.002961942 0.049089842 0.136617914
v 0.000413651 0.048881967 0.137458503
v 0.001234429 0.048985261 0.137449473
v 0.000384466 0.049411088 0.138184011
v 0.000349675 0.050023612 0.138840362
v 0.001147336 0.049507096 0.138175607
v 0.001043512 0.050110929 0.138832718
v 0.001720891 0.050284188 0.138817549
v 0.000309785 0.050710600 0.139417961
v 0.000924471 0.050787959 0.139411196
v 0.001524576 0.050941452 0.139397770
v 0.002035740 0.049190219 0.137431532
v 0.001892111 0.049697593 0.138158947
v 0.002607047 0.049979579 0.138134271
v 0.002371131 0.050540656 0.138795108
v 0.002804946 0.049493611 0.137404993
v 0.003529916 0.049890649 0.137370259
v 0.002983977 0.050876290 0.138765752
v 0.003280868 0.050348606 0.138101995
v 0.000265378 0.051462039 0.139908418
v 0.000791949 0.051528309 0.139902622
v 0.000217101 0.052266974 0.140304565
v 0.000647878 0.052321188 0.140299812
v 0.001306030 0.051659800 0.139891118
v 0.001799514 0.051854443 0.139874086
v 0.001068439 0.052428756 0.140290409
v 0.001472149 0.052587990 0.140276477
v 0.001852643 0.052796371 0.140258238
v 0.000165658 0.053113662 0.140600622
v 0.000494361 0.053155027 0.140597001
v 0.000815267 0.053237110 0.140589818
v 0.000111799 0.053989761 0.140792280
v 0.000333634 0.054017678 0.140789837
v 0.000550207 0.054073073 0.140784994
v 0.000758104 0.054155070 0.140777811
v 0.001123317 0.053358614 0.140579194
v 0.001413651 0.053517617 0.140565276
v 0.001681690 0.053711619 0.140548304
v 0.000954044 0.054262381 0.140768439
v 0.001134939 0.054393310 0.140756980
v 0.001297935 0.054545790 0.140743628
v 0.001440462 0.054717418 0.140728623
v 0.003549763 0.051285792 0.138729930
v 0.002100639 0.051168662 0.139377877
v 0.002643573 0.051466007 0.139351875
v 0.002264619 0.052109163 0.139851809
v 0.002694010 0.052419946 0.139824614
v 0.003144816 0.051828798 0.139320135
v 0.003080914 0.052781891 0.139792949
v 0.003596463 0.052251309 0.139283165
v 0.002203919 0.053050619 0.140236005
v 0.002520439 0.053346720 0.140210092
v 0.001923209 0.053937558 0.140528545
v 0.002134397 0.054191869 0.140506297
v 0.002311925 0.054470543 0.140481904
v 0.002452992 0.054769184 0.140455782
v 0.003419231 0.053189289 0.139757305
v 0.003703624 0.053635716 0.139718249
v 0.002797209 0.053680003 0.140180945
v 0.003029866 0.054045215 0.140148982
v 0.003214740 0.054436598 0.140114740
v 0.003811208 0.048776470 0.133996978
v 0.003986551 0.048872501 0.133988589
v 0.003957485 0.048996288 0.134877965
v 0.004742434 0.049419593 0.133940727
v 0.004888297 0.049556043 0.133928791
v 0.004707857 0.049539391 0.134830460
v 0.005423526 0.050056748 0.133884981
v 0.005383983 0.050171901 0.134775117
v 0.003870710 0.049209524 0.135746405
v 0.004604628 0.049740721 0.135699928
v 0.003727490 0.049509101 0.136581227
v 0.004434253 0.050020643 0.136536464
v 0.005265929 0.050359361 0.135645807
v 0.005071085 0.050616391 0.136484355
v 0.005806438 0.050517846 0.133844629
v 0.006019087 0.050773915 0.133822232
v 0.005975200 0.050883841 0.134712830
v 0.003902947 0.050798852 0.138062596
v 0.004199217 0.050375074 0.137327880
v 0.004802295 0.050939247 0.137278512
v 0.006472186 0.051663984 0.134644583
v 0.006519722 0.051559787 0.133753479
v 0.006548107 0.051619880 0.133748218
v 0.006917537 0.052401971 0.133679792
v 0.007061898 0.052844577 0.133641079
v 0.006867100 0.052500028 0.134571433
v 0.005844183 0.051055688 0.135584891
v 0.006330270 0.051818728 0.135518134
v 0.005627944 0.051286954 0.136425689
v 0.006096046 0.052021760 0.136361390
v 0.006468009 0.052809216 0.136292502
v 0.006716526 0.052636437 0.135446593
v 0.007206259 0.053287186 0.133602351
v 0.007153717 0.053378783 0.134494558
v 0.007368841 0.054136228 0.133528069
v 0.007381334 0.054201465 0.133522362
v 0.007327515 0.054286402 0.134415150
v 0.007166845 0.054383639 0.135293737
v 0.006125175 0.053015839 0.137096837
v 0.006380825 0.053799659 0.137028262
v 0.006737969 0.053636905 0.136220083
v 0.006996858 0.053495925 0.135371387
v 0.006901667 0.054491770 0.136145309
v 0.006535846 0.054609217 0.136957437
v 0.004463475 0.051323220 0.138016716
v 0.004059568 0.051762711 0.138688207
v 0.004505351 0.052299518 0.138641238
v 0.004953611 0.051913437 0.137965083
v 0.005329636 0.051574271 0.137222946
v 0.005365625 0.052560199 0.137908489
v 0.004880082 0.052887753 0.138589770
v 0.003991392 0.052726880 0.139241561
v 0.005177851 0.053518135 0.138534620
v 0.005393962 0.054180726 0.138476655
v 0.004323375 0.053248011 0.139195964
v 0.004587175 0.053806480 0.139147103
v 0.003929609 0.054114129 0.139676392
v 0.004093622 0.054616988 0.139632389
v 0.004778633 0.054393485 0.139095753
v 0.005772927 0.052270126 0.137162074
v 0.005693022 0.053253304 0.137847856
v 0.005930635 0.053981818 0.137784123
v 0.006074718 0.054734256 0.137718290
v 0.000666916 0.061917845 0.126001209
v 0.001979314 0.061680589 0.126021966
v 0.003228095 0.061213695 0.126062825
v 0.000467161 0.062527463 0.132793933
v 0.000665677 0.062502481 0.132796124
v 0.001394117 0.062410802 0.132804140
v 0.001975961 0.062261980 0.132817149
v 0.002299086 0.062179331 0.132824391
v 0.003226219 0.061804697 0.132857159
v 0.003167798 0.061836697 0.132854357
v 0.007432509 0.054868519 0.126617953
v 0.007253463 0.056185249 0.126502752
v 0.006209225 0.058619071 0.126289815
v 0.006841287 0.057448972 0.126392186
v 0.007419053 0.055462077 0.133412078
v 0.007381334 0.056059327 0.133359820
v 0.007206259 0.056973610 0.133279830
v 0.007243752 0.056777809 0.133296952
v 0.006917537 0.057858821 0.133202389
v 0.006832341 0.058039181 0.133186609
v 0.004373122 0.060532175 0.126122445
v 0.005377594 0.059657939 0.126198933
v 0.005374928 0.060249511 0.132993221
v 0.005423526 0.060204048 0.132997200
v 0.003986551 0.061388295 0.132893592
v 0.004364493 0.061114743 0.132917523
v 0.004742434 0.060841199 0.132941455
v 0.006019087 0.059486877 0.133059949
v 0.006197841 0.059206277 0.133084491
v 0.006519722 0.058701005 0.133128703
v 0.000056310 0.054882493 0.140876740
v 0.000168042 0.054896552 0.140875518
v 0.000277124 0.054924455 0.140873075
v 0.000381836 0.054965753 0.140869454
v 0.000480526 0.055019803 0.140864730
v 0.000571637 0.055085745 0.140858963
v 0.000653734 0.055162549 0.140852243
v 0.000725521 0.055248991 0.140844673
v 0.000785866 0.055343717 0.140836388
v 0.000833817 0.055445235 0.140827507
v 0.000868619 0.055551935 0.140818179
v 0.000889721 0.055662137 0.140808538
v 0.000896793 0.055774108 0.140798733
v 0.000056310 0.056665726 0.140720725
v 0.000168042 0.056651667 0.140721962
v 0.000277124 0.056623764 0.140724406
v 0.000381836 0.056582462 0.140728012
v 0.000889721 0.055886079 0.140788943
v 0.000868619 0.055996280 0.140779302
v 0.000785866 0.056204498 0.140761092
v 0.000833817 0.056102984 0.140769958
v 0.000571637 0.056462470 0.140738517
v 0.000653734 0.056385670 0.140745237
v 0.000480526 0.056528412 0.140732735
v 0.000725521 0.056299224 0.140752792
v 0.001560272 0.054905493 0.140712172
v 0.001655475 0.055107038 0.140694529
v 0.001724571 0.055318885 0.140675992
v 0.001766469 0.055537686 0.140656859
v 0.001780508 0.055759996 0.140637413
v 0.001766469 0.055982303 0.140617967
v 0.001724571 0.056201104 0.140598819
v 0.001560272 0.056614496 0.140562654
v 0.001655475 0.056412946 0.140580282
v 0.000111799 0.057530224 0.140482530
v 0.000333634 0.057502307 0.140484974
v 0.000550207 0.057446912 0.140489817
v 0.000758104 0.057364915 0.140496999
v 0.000165658 0.058359735 0.140141651
v 0.000494361 0.058318365 0.140145272
v 0.000815267 0.058236286 0.140152454
v 0.001134939 0.057126679 0.140517846
v 0.001297935 0.056974199 0.140531182
v 0.000954044 0.057257604 0.140506387
v 0.001440462 0.056802567 0.140546188
v 0.001852643 0.058612749 0.139749378
v 0.001123317 0.058114782 0.140163079
v 0.001413651 0.057955779 0.140176997
v 0.001681690 0.057761777 0.140193969
v 0.002555375 0.055083085 0.140428320
v 0.002617457 0.055407293 0.140399948
v 0.002638260 0.055736698 0.140371144
v 0.002617457 0.056066100 0.140342310
v 0.002555375 0.056390312 0.140313953
v 0.002452992 0.056704212 0.140286490
v 0.003348915 0.054847978 0.140078753
v 0.003430277 0.055272866 0.140041590
v 0.003457540 0.055704564 0.140003815
v 0.003348915 0.056561142 0.139928877
v 0.003430277 0.056136258 0.139966041
v 0.002311925 0.057002854 0.140260369
v 0.001923209 0.057535838 0.140213728
v 0.002134397 0.057281528 0.140235990
v 0.002203919 0.058358505 0.139771625
v 0.002520439 0.058062404 0.139797524
v 0.003214740 0.056972522 0.139892876
v 0.002797209 0.057729118 0.139826685
v 0.003029866 0.057363905 0.139858633
v 0.003703624 0.057692390 0.139363334
v 0.003080914 0.058546212 0.139288634
v 0.003419231 0.058138814 0.139324278
v 0.000463755 0.062551692 0.133692026
v 0.000453587 0.062467694 0.134586468
v 0.001383952 0.062435880 0.133702159
v 0.001353606 0.062354431 0.134596378
v 0.000384466 0.061586414 0.137118801
v 0.000436804 0.062276714 0.135464206
v 0.000413651 0.061981518 0.136312440
v 0.001147336 0.061490409 0.137127206
v 0.001303522 0.062167637 0.135473743
v 0.001234429 0.061878223 0.136321470
v 0.002282324 0.062206097 0.133722261
v 0.002232279 0.062129684 0.134616032
v 0.003144701 0.061865959 0.133752018
v 0.003075748 0.061797000 0.134645149
v 0.001892111 0.061299913 0.137143865
v 0.002149683 0.061951205 0.135492682
v 0.002035740 0.061673261 0.136339411
v 0.002804946 0.061369874 0.136365950
v 0.003529916 0.060972832 0.136400685
v 0.002961942 0.061630834 0.135520712
v 0.000309785 0.060520921 0.138559669
v 0.000924471 0.060443562 0.138566434
v 0.001524576 0.060290068 0.138579875
v 0.000217101 0.059142146 0.139703065
v 0.000647878 0.059087932 0.139707804
v 0.000265378 0.059866063 0.139173165
v 0.000791949 0.059799794 0.139178962
v 0.001068439 0.058980364 0.139717206
v 0.001472149 0.058821131 0.139731139
v 0.001799514 0.059473664 0.139207497
v 0.001306030 0.059668303 0.139190465
v 0.000349675 0.061097175 0.137871534
v 0.001043512 0.061009854 0.137879178
v 0.001720891 0.060836595 0.137894332
v 0.002371131 0.060580127 0.137916774
v 0.002100639 0.060062855 0.138599738
v 0.002643573 0.059765514 0.138625756
v 0.003144816 0.059402727 0.138657510
v 0.003596463 0.058980212 0.138694465
v 0.002983977 0.060244493 0.137946144
v 0.003549763 0.059834987 0.137981966
v 0.002264619 0.059218943 0.139229774
v 0.002694010 0.058908157 0.139256969
v 0.002607047 0.061017927 0.137168542
v 0.003280868 0.060648900 0.137200832
v 0.007440000 0.055130396 0.133441091
v 0.007385754 0.055208560 0.134334460
v 0.007223807 0.055285580 0.135214821
v 0.007327515 0.056130718 0.134253800
v 0.007166845 0.056187518 0.135135904
v 0.006956521 0.055360336 0.136069313
v 0.006587793 0.055431742 0.136885464
v 0.006901667 0.056228902 0.135993317
v 0.006535846 0.056254268 0.136813506
v 0.007153717 0.057038330 0.134174392
v 0.006996858 0.057075229 0.135058239
v 0.006867100 0.057917088 0.134097502
v 0.006716526 0.057934720 0.134983048
v 0.006380825 0.057063825 0.136742681
v 0.006468009 0.057911456 0.135846108
v 0.005772927 0.058593359 0.136608869
v 0.006125175 0.057847641 0.136674106
v 0.006737969 0.057083771 0.135918528
v 0.004933632 0.055615760 0.138988808
v 0.005525007 0.054865077 0.138416782
v 0.005568920 0.055560391 0.138355941
v 0.004894729 0.056231756 0.138934925
v 0.005525007 0.056255706 0.138295114
v 0.004193075 0.055136357 0.139586955
v 0.004226402 0.055664051 0.139540792
v 0.004093622 0.056711115 0.139449179
v 0.004193075 0.056191746 0.139494628
v 0.004894729 0.054999765 0.139042705
v 0.004587175 0.057425041 0.138830528
v 0.003991392 0.058504641 0.138736069
v 0.004323375 0.057983510 0.138781667
v 0.004778633 0.056838036 0.138881892
v 0.005393962 0.056940056 0.138235241
v 0.005177851 0.057602644 0.138177276
v 0.005365625 0.058437306 0.137394309
v 0.004880082 0.058233030 0.138122126
v 0.003929609 0.057213973 0.139405191
v 0.006123000 0.055498753 0.137651414
v 0.006074718 0.056263249 0.137584522
v 0.005930635 0.057015687 0.137518689
v 0.005693022 0.057744201 0.137454957
v 0.005383983 0.060245216 0.133893818
v 0.005265929 0.060211800 0.134783834
v 0.004199217 0.060488407 0.136443064
v 0.005329636 0.059289213 0.136547983
v 0.005071085 0.060104284 0.135654271
v 0.004802295 0.059924234 0.136492431
v 0.003957485 0.061420828 0.133790955
v 0.003870710 0.061361633 0.134683236
v 0.004604628 0.060830437 0.134729713
v 0.004707857 0.060877722 0.133838475
v 0.003727490 0.061211571 0.135557398
v 0.004434253 0.060700033 0.135602146
v 0.005975200 0.059533276 0.133956105
v 0.006472186 0.058753133 0.134024367
v 0.005844183 0.059515469 0.134844765
v 0.006330270 0.058752432 0.134911507
v 0.005627944 0.059433717 0.135712937
v 0.006096046 0.058698911 0.135777220
v 0.004059568 0.059358075 0.138023689
v 0.004505351 0.058821265 0.138070658
v 0.003902947 0.060198653 0.137240216
v 0.004463475 0.059674285 0.137286097
v 0.004953611 0.059084065 0.137337729
f 1 30 4
f 2 3 16
f 1 2 19
f 1 10 30
f 1 11 10
f 1 19 11
f 3 13 16
f 3 14 13
f 2 17 19
f 2 16 17
f 4 33 5
f 5 42 6
f 6 182 152
f 4 30 31
f 4 31 33
f 5 33 32
f 5 32 42
f 6 42 44
f 6 44 45
f 6 45 182
f 3 7 73
f 7 8 75
f 8 9 85
f 7 76 73
f 3 73 14
f 7 75 76
f 8 83 75
f 8 85 82
f 8 82 83
f 9 86 85
f 4 5 514
f 1 4 514
f 1 514 2
f 2 514 3
f 3 514 7
f 7 514 8
f 10 11 12
f 11 20 12
f 12 21 38
f 13 14 15
f 17 20 19
f 16 18 17
f 17 18 20
f 18 23 20
f 11 19 20
f 12 20 21
f 13 15 16
f 15 18 16
f 15 24 18
f 21 22 38
f 20 23 21
f 21 26 22
f 21 23 26
f 22 27 39
f 22 28 27
f 18 24 23
f 23 24 25
f 23 25 26
f 25 92 26
f 22 26 28
f 26 92 28
f 27 28 29
f 28 94 29
f 30 35 31
f 31 35 34
f 32 34 43
f 31 34 33
f 32 33 34
f 34 35 37
f 34 37 36
f 34 36 43
f 10 12 30
f 12 35 30
f 12 38 35
f 35 38 37
f 37 38 39
f 37 39 40
f 39 58 40
f 36 37 40
f 36 40 41
f 40 54 41
f 41 54 52
f 40 58 54
f 32 43 42
f 42 43 44
f 43 48 46
f 36 48 43
f 44 46 45
f 43 46 44
f 45 46 182
f 46 48 47
f 46 47 183
f 36 41 48
f 41 49 48
f 47 48 49
f 47 50 184
f 47 49 50
f 49 53 50
f 50 53 51
f 50 51 187
f 41 52 49
f 49 52 53
f 22 39 38
f 27 58 39
f 52 54 60
f 52 55 53
f 52 60 55
f 53 55 57
f 55 66 57
f 51 53 57
f 51 57 56
f 56 57 67
f 56 67 204
f 54 58 59
f 27 62 58
f 58 62 59
f 54 59 60
f 55 60 61
f 59 64 60
f 60 64 61
f 27 29 62
f 59 62 63
f 29 110 62
f 62 110 63
f 59 63 64
f 61 64 65
f 63 112 64
f 64 112 65
f 55 61 66
f 61 69 66
f 66 70 67
f 66 69 70
f 57 66 67
f 67 68 204
f 67 70 68
f 68 209 204
f 61 65 69
f 69 119 70
f 65 118 69
f 69 118 119
f 70 119 71
f 68 70 71
f 68 72 209
f 68 71 72
f 71 122 72
f 14 73 74
f 73 76 74
f 14 74 15
f 15 74 78
f 75 77 76
f 74 76 77
f 74 77 79
f 75 84 77
f 15 78 24
f 24 78 81
f 74 79 78
f 78 79 80
f 77 88 79
f 78 80 81
f 80 96 81
f 79 89 80
f 24 81 25
f 25 93 92
f 25 81 93
f 81 96 93
f 75 83 84
f 82 84 83
f 82 87 84
f 77 84 88
f 82 85 87
f 84 87 90
f 85 86 87
f 86 372 87
f 79 88 89
f 84 90 88
f 80 89 100
f 88 91 89
f 87 376 90
f 88 90 91
f 89 91 101
f 90 377 91
f 92 93 97
f 28 92 94
f 92 97 94
f 29 94 95
f 94 99 95
f 93 98 97
f 93 96 98
f 97 98 103
f 94 97 99
f 95 99 115
f 97 103 99
f 99 103 107
f 99 107 115
f 80 100 96
f 89 101 100
f 91 389 101
f 96 102 98
f 96 100 102
f 98 102 104
f 98 104 103
f 100 105 102
f 100 101 105
f 101 391 105
f 102 105 106
f 102 106 104
f 105 392 106
f 103 104 108
f 103 108 107
f 104 106 109
f 104 109 108
f 106 396 109
f 29 95 110
f 63 110 111
f 95 114 110
f 110 114 111
f 63 111 112
f 65 112 113
f 65 113 118
f 111 116 112
f 112 116 113
f 95 115 114
f 111 114 117
f 114 115 129
f 114 129 117
f 111 117 116
f 113 116 124
f 116 117 131
f 116 131 124
f 117 132 131
f 118 120 119
f 113 123 118
f 119 120 121
f 118 123 120
f 71 119 121
f 72 122 246
f 71 121 122
f 121 128 122
f 122 125 246
f 113 124 123
f 120 123 127
f 123 124 138
f 123 138 127
f 120 126 121
f 121 126 128
f 122 128 125
f 120 127 126
f 125 128 270
f 126 141 128
f 107 130 115
f 115 130 129
f 107 134 130
f 107 108 134
f 117 129 132
f 129 133 132
f 129 130 133
f 130 136 133
f 132 133 145
f 108 109 135
f 108 135 134
f 109 407 135
f 130 134 136
f 134 135 137
f 134 137 136
f 133 136 146
f 135 409 137
f 136 137 147
f 136 147 146
f 137 416 147
f 124 131 139
f 131 132 140
f 131 140 139
f 124 139 138
f 132 145 140
f 138 139 142
f 139 140 148
f 126 127 143
f 127 138 144
f 127 144 143
f 128 141 270
f 126 143 141
f 138 142 144
f 139 148 142
f 141 143 279
f 143 144 280
f 133 146 145
f 140 145 149
f 140 149 148
f 145 146 150
f 145 150 149
f 146 147 151
f 146 151 150
f 147 419 151
f 142 278 144
f 142 148 286
f 144 278 280
f 148 149 287
f 142 286 278
f 148 287 286
f 149 150 288
f 150 151 289
f 149 288 287
f 151 542 289
f 150 289 288
f 152 157 153
f 153 160 154
f 154 164 155
f 5 6 514
f 6 152 514
f 152 153 514
f 152 182 156
f 152 156 157
f 153 157 158
f 153 158 159
f 153 159 160
f 154 160 161
f 154 161 164
f 155 167 162
f 162 169 163
f 163 171 172
f 155 164 165
f 155 165 166
f 155 166 167
f 164 223 165
f 165 224 166
f 166 224 167
f 162 167 168
f 162 168 169
f 167 229 168
f 163 170 171
f 163 169 170
f 168 235 169
f 169 235 170
f 170 236 171
f 171 236 175
f 153 154 514
f 154 155 514
f 155 162 514
f 162 163 514
f 172 177 173
f 163 172 514
f 172 173 514
f 173 174 512
f 173 179 174
f 171 175 172
f 172 175 176
f 172 176 177
f 173 177 178
f 175 318 176
f 176 318 177
f 177 318 320
f 177 320 178
f 178 320 328
f 173 178 179
f 174 179 180
f 174 180 181
f 174 181 515
f 178 328 179
f 179 328 180
f 180 328 330
f 180 330 181
f 181 330 515
f 156 182 183
f 46 183 182
f 156 183 185
f 47 184 183
f 183 184 185
f 156 185 157
f 157 185 158
f 158 185 191
f 184 186 185
f 185 186 191
f 50 187 184
f 184 187 186
f 51 188 187
f 187 188 189
f 186 187 189
f 186 189 192
f 188 190 189
f 189 190 195
f 188 200 190
f 190 201 196
f 158 191 159
f 159 191 160
f 160 191 193
f 186 192 191
f 191 192 193
f 192 194 193
f 160 193 161
f 193 194 223
f 161 193 223
f 161 223 164
f 194 197 225
f 194 225 223
f 189 195 192
f 192 195 194
f 194 195 197
f 195 196 197
f 190 196 195
f 196 198 197
f 196 202 198
f 197 198 227
f 197 227 225
f 198 203 199
f 198 199 227
f 199 203 217
f 51 56 188
f 56 200 188
f 56 204 200
f 200 205 201
f 200 204 205
f 190 200 201
f 201 205 207
f 201 207 202
f 202 207 214
f 196 201 202
f 202 214 203
f 198 202 203
f 204 209 205
f 205 209 206
f 205 206 207
f 206 208 207
f 207 208 214
f 208 216 214
f 206 209 210
f 206 211 208
f 72 210 209
f 206 210 211
f 72 246 210
f 210 247 211
f 208 211 212
f 208 212 216
f 212 213 216
f 211 248 212
f 212 250 213
f 203 214 215
f 214 216 215
f 215 216 219
f 203 215 217
f 215 218 217
f 217 218 241
f 215 219 218
f 219 222 220
f 218 219 220
f 218 220 242
f 220 221 242
f 220 257 221
f 213 219 216
f 213 222 219
f 213 249 222
f 220 222 257
f 165 223 224
f 223 225 224
f 225 227 226
f 224 225 226
f 167 224 229
f 224 226 229
f 199 228 227
f 226 227 228
f 168 229 235
f 229 230 235
f 226 230 229
f 226 228 230
f 230 232 237
f 228 231 232
f 199 231 228
f 199 217 231
f 217 241 231
f 231 241 233
f 233 241 244
f 228 232 230
f 232 239 237
f 232 233 239
f 231 233 232
f 233 234 239
f 233 244 234
f 234 244 245
f 234 245 322
f 230 237 235
f 235 237 236
f 170 235 236
f 237 239 238
f 238 239 240
f 236 237 238
f 234 240 239
f 234 322 240
f 218 242 241
f 241 242 244
f 242 243 244
f 221 243 242
f 221 338 243
f 243 338 340
f 243 245 244
f 243 340 245
f 210 246 247
f 211 247 248
f 246 251 247
f 247 251 252
f 247 252 248
f 248 252 253
f 212 248 250
f 213 250 249
f 248 253 250
f 249 250 254
f 250 253 254
f 249 255 258
f 249 254 255
f 125 251 246
f 252 271 253
f 125 268 251
f 251 269 252
f 125 270 268
f 251 268 269
f 252 269 271
f 253 271 272
f 253 272 254
f 255 256 258
f 254 273 255
f 254 272 273
f 255 273 274
f 255 274 256
f 256 275 263
f 256 274 275
f 221 261 338
f 222 249 258
f 222 258 257
f 257 258 259
f 256 259 258
f 221 257 261
f 257 259 261
f 261 262 338
f 260 262 261
f 259 260 261
f 260 266 262
f 256 263 259
f 259 263 260
f 260 263 264
f 260 264 266
f 263 276 264
f 264 265 266
f 262 266 345
f 266 267 345
f 265 267 266
f 267 308 307
f 265 308 267
f 268 281 269
f 269 282 271
f 271 284 272
f 141 277 270
f 268 270 283
f 141 279 277
f 268 283 281
f 270 277 283
f 271 282 284
f 272 284 285
f 269 281 282
f 272 285 273
f 273 291 274
f 274 292 275
f 263 275 276
f 273 285 291
f 274 291 292
f 275 292 293
f 275 293 276
f 276 294 303
f 276 293 294
f 294 295 303
f 295 304 303
f 143 280 279
f 281 283 290
f 277 290 283
f 282 290 284
f 284 290 285
f 281 290 282
f 278 290 280
f 278 286 290
f 286 287 290
f 287 288 290
f 288 289 290
f 289 542 290
f 279 280 290
f 277 279 290
f 285 290 291
f 290 292 291
f 290 293 292
f 290 294 293
f 290 295 294
f 295 296 304
f 296 297 305
f 297 298 306
f 290 296 295
f 290 297 296
f 290 298 297
f 290 299 298
f 290 300 299
f 290 301 300
f 290 302 301
f 290 555 302
f 264 303 265
f 264 276 303
f 265 303 304
f 265 304 308
f 305 309 308
f 296 305 304
f 305 306 309
f 306 311 310
f 304 305 308
f 307 309 352
f 310 354 352
f 307 308 309
f 306 310 309
f 309 310 352
f 310 315 354
f 297 306 305
f 298 311 306
f 298 299 311
f 299 312 311
f 311 312 315
f 300 301 313
f 299 300 312
f 300 313 312
f 301 302 314
f 301 314 313
f 302 576 314
f 310 311 315
f 312 316 315
f 315 316 356
f 312 313 316
f 313 317 316
f 313 314 317
f 314 580 317
f 316 317 357
f 245 347 322
f 236 238 318
f 238 240 319
f 240 324 319
f 175 236 318
f 238 319 318
f 318 319 320
f 319 321 320
f 320 321 328
f 319 324 321
f 321 324 326
f 321 326 329
f 240 322 324
f 322 323 324
f 322 347 323
f 323 347 348
f 323 348 327
f 325 327 348
f 323 326 324
f 323 327 326
f 321 329 328
f 328 329 330
f 326 333 329
f 329 333 331
f 329 331 330
f 330 331 613
f 331 333 336
f 331 336 614
f 325 332 334
f 326 327 333
f 327 334 333
f 333 334 336
f 325 334 327
f 332 337 334
f 334 337 336
f 336 337 618
f 332 335 337
f 335 619 337
f 262 339 338
f 338 339 340
f 339 345 343
f 245 340 347
f 340 341 347
f 339 341 340
f 339 343 341
f 344 346 353
f 341 342 348
f 342 343 344
f 343 346 344
f 341 343 342
f 342 344 360
f 262 345 339
f 267 346 345
f 343 345 346
f 307 353 346
f 267 307 346
f 341 348 347
f 325 348 342
f 325 342 360
f 344 353 349
f 349 353 355
f 344 349 360
f 349 355 350
f 350 355 358
f 349 350 361
f 350 358 351
f 351 358 359
f 351 359 633
f 307 352 353
f 352 355 353
f 352 354 355
f 354 358 355
f 315 356 354
f 356 359 358
f 354 356 358
f 316 357 356
f 317 636 357
f 357 638 359
f 356 357 359
f 325 360 332
f 332 360 361
f 349 361 360
f 332 361 335
f 335 361 362
f 335 362 617
f 350 362 361
f 350 351 362
f 351 644 362
f 9 363 371
f 363 364 374
f 364 365 383
f 9 371 86
f 363 373 371
f 363 374 373
f 364 380 374
f 364 381 380
f 364 383 381
f 365 449 383
f 8 514 9
f 9 514 363
f 363 514 364
f 364 514 365
f 365 366 450
f 366 367 455
f 367 368 464
f 365 450 449
f 366 452 450
f 366 453 452
f 366 455 453
f 367 464 463
f 367 463 455
f 365 514 366
f 366 514 367
f 367 514 368
f 368 369 472
f 368 514 369
f 369 370 481
f 370 522 484
f 368 470 464
f 368 471 470
f 368 472 471
f 369 473 472
f 369 481 473
f 370 483 481
f 370 484 483
f 484 522 658
f 86 371 372
f 87 372 376
f 371 373 372
f 372 373 375
f 373 374 375
f 372 375 378
f 374 382 375
f 372 378 376
f 90 376 377
f 91 377 389
f 376 379 377
f 376 378 379
f 375 385 378
f 377 379 390
f 378 386 379
f 379 386 399
f 374 380 382
f 380 381 382
f 375 382 385
f 381 384 382
f 381 383 384
f 383 449 384
f 382 384 387
f 384 449 451
f 384 451 457
f 378 385 386
f 382 387 385
f 385 387 388
f 385 388 386
f 384 457 387
f 386 388 403
f 387 457 459
f 388 404 403
f 387 459 388
f 388 459 404
f 377 390 389
f 379 399 390
f 101 389 391
f 389 393 391
f 105 391 392
f 391 393 394
f 391 394 392
f 389 390 393
f 390 400 393
f 390 399 400
f 393 395 394
f 393 400 395
f 394 395 398
f 106 392 396
f 109 396 407
f 392 394 397
f 392 397 396
f 394 398 397
f 395 431 398
f 399 401 400
f 386 403 399
f 399 403 401
f 400 401 402
f 395 400 402
f 395 402 431
f 401 405 402
f 402 405 432
f 401 403 406
f 403 404 406
f 404 466 406
f 401 406 405
f 405 406 430
f 406 466 430
f 396 408 407
f 396 397 408
f 135 407 409
f 407 408 410
f 407 410 409
f 137 409 416
f 409 410 417
f 409 417 416
f 408 413 410
f 410 413 418
f 410 418 417
f 397 411 408
f 397 398 411
f 398 431 412
f 398 412 411
f 408 411 413
f 411 414 413
f 413 414 423
f 411 412 414
f 412 415 414
f 147 416 419
f 416 420 419
f 416 417 420
f 417 421 420
f 417 418 421
f 418 423 422
f 418 422 421
f 151 419 542
f 419 420 543
f 420 421 544
f 419 543 542
f 420 544 543
f 421 545 544
f 421 422 545
f 422 546 545
f 426 547 546
f 422 426 546
f 426 427 547
f 413 423 418
f 414 424 423
f 423 424 426
f 414 415 424
f 415 425 424
f 422 423 426
f 424 427 426
f 425 428 427
f 427 428 548
f 428 429 549
f 424 425 427
f 425 440 428
f 429 440 441
f 428 440 429
f 442 568 567
f 429 441 567
f 405 430 435
f 412 431 433
f 402 432 431
f 431 432 433
f 432 434 433
f 434 436 439
f 412 433 415
f 415 433 438
f 433 434 438
f 405 435 432
f 432 435 434
f 430 437 435
f 434 435 436
f 435 437 436
f 437 500 444
f 436 437 444
f 415 438 425
f 438 439 440
f 425 438 440
f 439 441 440
f 434 439 438
f 439 446 441
f 441 442 567
f 442 443 568
f 441 446 442
f 442 446 447
f 442 447 443
f 443 448 591
f 436 444 446
f 444 500 445
f 444 445 447
f 436 446 439
f 444 447 446
f 445 505 448
f 443 447 448
f 448 597 591
f 445 448 447
f 448 505 597
f 449 450 451
f 450 452 454
f 450 454 451
f 451 454 458
f 452 453 454
f 453 455 456
f 453 456 454
f 455 463 456
f 454 456 461
f 451 458 457
f 457 458 460
f 457 460 459
f 404 459 467
f 459 460 467
f 460 468 467
f 454 461 458
f 458 461 462
f 456 475 461
f 461 477 462
f 461 475 477
f 458 462 460
f 460 462 468
f 463 464 465
f 456 463 465
f 456 465 475
f 404 467 466
f 467 468 493
f 466 467 493
f 462 497 468
f 462 477 497
f 477 508 497
f 464 470 469
f 464 469 465
f 465 469 476
f 465 476 475
f 469 480 476
f 469 470 471
f 469 471 474
f 471 472 474
f 472 473 474
f 473 482 474
f 469 474 480
f 474 490 480
f 475 478 477
f 475 476 478
f 477 478 508
f 476 480 479
f 476 479 478
f 478 487 508
f 478 479 487
f 473 481 482
f 481 483 482
f 474 482 490
f 482 486 490
f 483 484 485
f 482 483 485
f 484 659 485
f 482 485 486
f 485 660 486
f 479 488 487
f 480 490 489
f 479 480 489
f 479 489 488
f 489 490 491
f 486 491 490
f 486 663 491
f 489 491 492
f 488 489 492
f 430 466 494
f 466 493 494
f 430 494 437
f 493 495 494
f 493 496 495
f 494 495 500
f 495 499 503
f 468 496 493
f 468 497 496
f 497 508 498
f 496 497 498
f 495 496 499
f 496 498 499
f 437 494 500
f 495 503 500
f 499 504 503
f 499 501 504
f 498 501 499
f 498 509 501
f 501 509 502
f 501 507 504
f 502 685 507
f 501 502 507
f 502 677 685
f 445 500 503
f 445 503 505
f 503 504 505
f 505 506 597
f 504 507 506
f 504 506 505
f 506 507 681
f 487 509 508
f 498 508 509
f 487 510 509
f 502 509 510
f 487 488 510
f 510 511 677
f 488 511 510
f 488 492 511
f 502 510 677
f 173 512 513
f 173 513 514
f 174 515 512
f 512 517 513
f 513 521 514
f 512 515 516
f 512 516 517
f 513 517 518
f 330 613 515
f 515 613 516
f 516 613 615
f 516 615 517
f 517 615 518
f 513 518 519
f 513 519 521
f 514 520 536
f 514 521 520
f 518 615 623
f 518 623 519
f 519 623 521
f 520 521 625
f 369 514 370
f 370 514 522
f 522 523 527
f 514 523 522
f 523 533 524
f 523 524 525
f 523 525 528
f 524 541 525
f 522 526 658
f 522 527 526
f 523 529 527
f 523 528 529
f 525 530 528
f 525 541 531
f 525 531 530
f 514 532 523
f 532 538 533
f 514 536 532
f 523 532 533
f 524 533 539
f 533 534 535
f 533 538 534
f 534 699 535
f 532 536 537
f 532 537 538
f 520 705 536
f 536 705 537
f 537 708 538
f 534 538 708
f 524 539 540
f 524 540 541
f 533 535 539
f 540 712 541
f 539 711 540
f 535 699 539
f 290 542 543
f 290 543 544
f 290 544 545
f 290 545 546
f 290 546 547
f 290 547 548
f 290 548 549
f 427 548 547
f 428 549 548
f 290 549 550
f 290 550 551
f 290 551 552
f 290 552 553
f 290 553 554
f 290 566 564
f 290 563 565
f 290 564 563
f 290 556 555
f 290 557 556
f 290 558 557
f 290 565 558
f 290 560 562
f 290 562 561
f 290 554 559
f 290 559 560
f 290 561 566
f 563 583 565
f 563 564 584
f 429 550 549
f 550 567 551
f 429 567 550
f 551 567 568
f 551 568 552
f 552 569 553
f 553 570 554
f 552 568 569
f 553 569 570
f 554 570 571
f 560 573 562
f 561 562 575
f 554 571 559
f 559 572 560
f 561 574 566
f 564 566 586
f 564 586 584
f 561 575 574
f 566 574 586
f 559 571 572
f 560 572 573
f 562 573 575
f 302 555 576
f 555 556 577
f 555 577 576
f 556 557 578
f 556 578 577
f 557 558 579
f 558 565 585
f 557 579 578
f 565 583 585
f 558 585 579
f 577 578 582
f 578 579 588
f 314 576 580
f 576 577 581
f 576 581 580
f 317 580 636
f 580 581 637
f 577 582 581
f 578 588 582
f 581 582 640
f 563 584 583
f 579 585 589
f 583 590 585
f 585 590 589
f 583 584 603
f 584 586 604
f 574 602 586
f 583 603 590
f 584 604 603
f 582 641 640
f 587 641 588
f 587 589 605
f 579 589 588
f 582 588 641
f 589 590 605
f 587 588 589
f 443 569 568
f 569 591 570
f 443 591 569
f 570 592 571
f 570 591 592
f 571 592 593
f 571 593 572
f 572 594 573
f 573 594 595
f 575 595 596
f 573 595 575
f 574 575 596
f 572 593 594
f 595 600 596
f 506 598 597
f 598 681 599
f 591 597 592
f 592 597 598
f 592 598 593
f 593 598 599
f 599 682 601
f 600 601 684
f 600 683 607
f 593 599 594
f 594 601 595
f 594 599 601
f 596 600 607
f 595 601 600
f 611 687 651
f 586 602 604
f 574 596 602
f 603 604 608
f 602 609 604
f 596 607 602
f 604 609 608
f 590 606 605
f 587 605 655
f 603 608 606
f 605 611 655
f 605 606 611
f 590 603 606
f 608 609 610
f 607 694 609
f 609 694 610
f 602 607 609
f 606 608 612
f 606 612 611
f 608 610 612
f 611 612 687
f 331 614 613
f 613 614 615
f 336 618 614
f 614 618 616
f 614 616 615
f 615 616 623
f 616 618 621
f 616 621 624
f 337 619 618
f 618 619 621
f 335 617 619
f 617 622 619
f 617 620 622
f 620 627 629
f 619 622 621
f 621 622 628
f 622 629 628
f 620 629 622
f 616 624 623
f 623 624 625
f 621 628 624
f 624 628 626
f 626 628 632
f 626 706 705
f 632 709 706
f 521 623 625
f 624 626 625
f 520 625 705
f 625 626 705
f 626 632 706
f 629 630 632
f 627 630 629
f 627 656 630
f 628 629 632
f 630 709 632
f 630 631 709
f 631 656 657
f 630 656 631
f 631 657 701
f 359 638 633
f 634 638 639
f 633 638 634
f 635 639 643
f 634 635 646
f 634 639 635
f 642 648 643
f 635 643 648
f 580 637 636
f 636 639 638
f 357 636 638
f 581 640 637
f 637 643 639
f 636 637 639
f 640 642 643
f 637 640 643
f 641 654 642
f 640 641 642
f 362 644 617
f 617 644 620
f 620 644 645
f 351 633 644
f 633 645 644
f 633 634 645
f 620 645 627
f 627 645 646
f 634 646 645
f 649 654 650
f 642 649 648
f 635 648 647
f 635 647 646
f 648 649 652
f 647 648 652
f 650 655 651
f 650 651 717
f 650 717 653
f 647 652 657
f 652 653 719
f 652 719 657
f 649 650 653
f 649 653 652
f 587 655 654
f 587 654 641
f 642 654 649
f 650 654 655
f 611 651 655
f 627 646 656
f 646 647 656
f 647 657 656
f 484 658 659
f 526 659 658
f 526 661 659
f 485 659 660
f 659 662 660
f 526 527 661
f 527 529 661
f 529 667 661
f 659 661 662
f 661 668 662
f 661 667 668
f 664 666 696
f 486 660 663
f 660 665 663
f 491 664 492
f 491 663 664
f 663 666 664
f 662 675 665
f 660 662 665
f 663 665 666
f 665 671 666
f 670 714 716
f 528 667 529
f 528 669 667
f 528 530 669
f 667 670 668
f 667 669 670
f 668 670 672
f 530 531 669
f 531 712 669
f 531 541 712
f 669 712 714
f 669 714 670
f 672 674 675
f 666 671 697
f 671 675 674
f 671 674 698
f 670 716 672
f 672 716 673
f 673 692 674
f 672 673 674
f 662 668 675
f 665 675 671
f 668 672 675
f 676 685 677
f 676 677 678
f 679 680 689
f 678 680 679
f 676 678 679
f 680 690 689
f 506 681 598
f 599 681 682
f 507 685 681
f 681 685 682
f 601 682 684
f 600 684 683
f 676 684 682
f 679 683 684
f 679 689 683
f 676 682 685
f 676 679 684
f 610 686 688
f 612 688 687
f 687 688 693
f 687 693 718
f 690 697 691
f 686 689 690
f 686 690 691
f 686 691 688
f 692 718 693
f 691 698 693
f 692 693 698
f 688 691 693
f 607 683 694
f 610 694 686
f 683 689 694
f 686 694 689
f 610 688 612
f 511 695 678
f 492 695 511
f 492 664 695
f 664 696 695
f 511 678 677
f 678 695 680
f 680 695 696
f 680 696 690
f 690 696 697
f 666 697 696
f 671 698 697
f 691 697 698
f 674 692 698
f 699 700 711
f 534 708 699
f 699 707 700
f 700 707 710
f 700 703 713
f 701 703 710
f 657 719 701
f 704 719 720
f 701 719 704
f 702 704 720
f 702 720 721
f 673 721 692
f 673 702 721
f 702 715 704
f 700 710 703
f 701 704 703
f 703 715 713
f 703 704 715
f 705 706 708
f 537 705 708
f 706 709 707
f 706 707 708
f 707 709 710
f 699 708 707
f 631 710 709
f 631 701 710
f 540 711 712
f 711 713 712
f 713 715 714
f 712 713 714
f 539 699 711
f 700 713 711
f 714 715 716
f 702 716 715
f 673 716 702
f 653 717 720
f 717 718 721
f 717 721 720
f 651 687 718
f 651 718 717
f 653 720 719
f 692 721 718
