# mf_base.obj  (572 v, 1140 f)  units: metres
v -0.009800000 -0.013450000 0.000700000
v -0.009800000 -0.011450000 0.005000000
v -0.007391036 -0.003061468 0.000700000
v -0.007391036 -0.003061468 0.001200000
v -0.007778959 -0.001867563 0.000700000
v -0.007778959 -0.001867563 0.001200000
v -0.007608452 -0.002472136 0.000700000
v -0.007608452 -0.002472136 0.001200000
v -0.007975339 -0.000627673 0.000700000
v -0.007975339 -0.000627673 0.001200000
v -0.007901506 -0.001251476 0.000700000
v -0.007901506 -0.001251476 0.001200000
v -0.007128052 -0.003631924 0.000700000
v -0.007128052 -0.003631924 0.001200000
v -0.006821121 -0.004179989 0.000700000
v -0.006821121 -0.004179989 0.001200000
v -0.006472136 -0.004702282 0.000700000
v -0.006472136 -0.004702282 0.001200000
v -0.006083248 -0.005195585 0.000700000
v -0.006083248 -0.005195585 0.001200000
v -0.005656854 -0.005656854 0.000700000
v -0.005656854 -0.005656854 0.001200000
v -0.005195585 -0.006083248 0.000700000
v -0.005195585 -0.006083248 0.001200000
v -0.004179989 -0.006821121 0.000700000
v -0.004179989 -0.006821121 0.001200000
v -0.003631924 -0.007128052 0.000700000
v -0.003631924 -0.007128052 0.001200000
v -0.002472136 -0.007608452 0.000700000
v -0.002472136 -0.007608452 0.001200000
v -0.003061468 -0.007391036 0.000700000
v -0.003061468 -0.007391036 0.001200000
v -0.001867563 -0.007778959 0.000700000
v -0.001867563 -0.007778959 0.001200000
v -0.001251476 -0.007901506 0.000700000
v -0.001251476 -0.007901506 0.001200000
v -0.000627673 -0.007975339 0.000700000
v -0.000627673 -0.007975339 0.001200000
v -0.000000000 -0.008000000 0.000700000
v -0.000000000 -0.008000000 0.001200000
v -0.001385379 -0.011632843 0.011492172
v -0.001390770 -0.011600400 0.011471176
v -0.001390770 -0.011450000 0.011408878
v -0.001377311 -0.011654520 0.011523595
v -0.004702282 -0.006472136 0.000700000
v -0.004702282 -0.006472136 0.001200000
v -0.004933941 -0.011600400 0.014103449
v -0.004933941 -0.011450000 0.013953049
v -0.004915638 -0.011632843 0.014115064
v -0.005530809 -0.011600400 0.015371857
v -0.005530809 -0.011450000 0.015221457
v -0.005593107 -0.011450000 0.015371857
v -0.005510192 -0.011632843 0.015378556
v -0.005479337 -0.011654520 0.015388581
v -0.005267205 -0.011742389 0.015388581
v -0.005230810 -0.011750001 0.015400407
v -0.005855782 -0.011450000 0.016748851
v -0.005793484 -0.011600400 0.016748851
v -0.005771850 -0.011632843 0.016750213
v -0.005739471 -0.011654520 0.016752249
v -0.005527339 -0.011742389 0.016752249
v -0.005489146 -0.011750001 0.016754651
v -0.009800000 -0.013450000 0.019700000
v -0.009800000 -0.011450000 0.019700000
v -0.009778127 -0.013450000 0.020061610
v -0.009712826 -0.013450000 0.020417947
v -0.009605049 -0.013450000 0.020763814
v -0.009456368 -0.013450000 0.021094169
v -0.009268952 -0.013450000 0.021404196
v -0.009045532 -0.013450000 0.021689368
v -0.008789368 -0.013450000 0.021945532
v -0.009778127 -0.011450000 0.020061610
v -0.009712826 -0.011450000 0.020417947
v -0.009605049 -0.011450000 0.020763814
v -0.009456368 -0.011450000 0.021094169
v -0.009268952 -0.011450000 0.021404196
v -0.009045532 -0.011450000 0.021689368
v -0.008789368 -0.011450000 0.021945532
v -0.008504194 -0.013450000 0.022168953
v -0.008194170 -0.013450000 0.022356369
v -0.007863815 -0.013450000 0.022505049
v -0.007517947 -0.013450000 0.022612827
v -0.008504194 -0.011450000 0.022168953
v -0.008194170 -0.011450000 0.022356369
v -0.007863815 -0.011450000 0.022505049
v -0.007517947 -0.011450000 0.022612827
v -0.005684169 -0.011632843 0.018143848
v -0.005705463 -0.011600400 0.018147908
v -0.005767761 -0.011450000 0.018147908
v -0.005652301 -0.011654520 0.018137768
v -0.005440169 -0.011742389 0.018137768
v -0.005402579 -0.011750001 0.018130597
v -0.005331738 -0.011698455 0.018797923
v -0.005252661 -0.011632843 0.019471893
v -0.005272276 -0.011600400 0.019481122
v -0.005223306 -0.011654520 0.019458080
v -0.005334574 -0.011450000 0.019481122
v -0.005272276 -0.011450000 0.019631524
v -0.005011174 -0.011742389 0.019458080
v -0.004976548 -0.011750001 0.019441785
v -0.007161610 -0.013450000 0.022678128
v -0.006800000 -0.013450000 0.022700001
v -0.007161610 -0.011450000 0.022678128
v -0.006800000 -0.011450000 0.022700001
v -0.005200000 -0.013450000 0.022700001
v -0.005200000 -0.011450000 0.022700001
v -0.004025546 -0.011632843 0.013039127
v -0.004040385 -0.011600400 0.013023324
v -0.004003337 -0.011654520 0.013062777
v -0.004025546 -0.011450000 0.012856284
v -0.004040385 -0.011450000 0.012872924
v -0.003996257 -0.011450000 0.012826995
v -0.003828253 -0.011600400 0.012811192
v -0.003978653 -0.011450000 0.012811192
v -0.003813414 -0.011632843 0.012826995
v -0.003791205 -0.011654520 0.012850645
v -0.003791205 -0.011742389 0.013062777
v -0.004339725 -0.011698455 0.013597612
v -0.004888246 -0.011654520 0.014132448
v -0.004676114 -0.011742389 0.014132448
v -0.004643803 -0.011750001 0.014152953
v -0.003765008 -0.011750001 0.013090674
v -0.002844554 -0.011450000 0.011987221
v -0.002683710 -0.011632843 0.012006218
v -0.002694153 -0.011600400 0.011987221
v -0.002668081 -0.011654520 0.012034647
v -0.002694153 -0.011450000 0.011924923
v -0.002668081 -0.011742389 0.012246779
v -0.002649645 -0.011750001 0.012280314
v -0.001377311 -0.011742389 0.011735727
v -0.001367794 -0.011750001 0.011772794
v -0.004385972 -0.013450000 0.022676315
v -0.004479440 -0.011654520 0.020630224
v -0.004521141 -0.011600400 0.020664722
v -0.004504438 -0.011632843 0.020650905
v -0.004504438 -0.011526777 0.020756971
v -0.004521141 -0.011450000 0.020815123
v -0.004504438 -0.011450000 0.020833747
v -0.004475149 -0.011450000 0.020863038
v -0.004292306 -0.011632843 0.020863038
v -0.004267308 -0.011742389 0.020630224
v -0.004237822 -0.011750001 0.020605830
v -0.004267308 -0.011654520 0.020842357
v -0.004385972 -0.011450000 0.022676315
v -0.003574699 -0.013450000 0.022605337
v -0.002768926 -0.013450000 0.022487309
v -0.003457224 -0.011450000 0.021818932
v -0.003437523 -0.011450000 0.021836469
v -0.003255312 -0.011742389 0.021580553
v -0.003232818 -0.011750001 0.021549592
v -0.003255312 -0.011654520 0.021792686
v -0.003274381 -0.011632843 0.021818932
v -0.003287123 -0.011600400 0.021836469
v -0.003574699 -0.011450000 0.022605337
v -0.002778975 -0.011494335 0.022174137
v -0.002768926 -0.011450000 0.022487309
v -0.001971378 -0.013450000 0.022322629
v -0.002394341 -0.011450000 0.022409964
v -0.002279122 -0.011606283 0.022386173
v -0.002285006 -0.011600400 0.022387387
v -0.002252553 -0.011632843 0.022380687
v -0.002203982 -0.011654520 0.022370657
v -0.002038772 -0.011742389 0.022249350
v -0.002024685 -0.011750001 0.022213770
v -0.002038772 -0.011706271 0.022336544
v -0.001971378 -0.011719204 0.022322629
v -0.001864700 -0.011742389 0.022294044
v -0.001789996 -0.011750001 0.022274029
v -0.001184755 -0.013450000 0.022111854
v -0.000411718 -0.013450000 0.021855697
v -0.001184755 -0.011750001 0.022111854
v -0.000411718 -0.011750001 0.021855697
v -0.008000000 0.000000000 0.000700000
v -0.008000000 0.000000000 0.001200000
v -0.007975339 0.000627673 0.000700000
v -0.007975339 0.000627673 0.001200000
v -0.007901506 0.001251476 0.000700000
v -0.007901506 0.001251476 0.001200000
v -0.007778959 0.001867563 0.000700000
v -0.007778959 0.001867563 0.001200000
v -0.007608452 0.002472136 0.000700000
v -0.007608452 0.002472136 0.001200000
v -0.007391036 0.003061468 0.000700000
v -0.007391036 0.003061468 0.001200000
v -0.007128052 0.003631924 0.000700000
v -0.007128052 0.003631924 0.001200000
v -0.006821121 0.004179989 0.000700000
v -0.006821121 0.004179989 0.001200000
v -0.006472136 0.004702282 0.000700000
v -0.006472136 0.004702282 0.001200000
v -0.006083248 0.005195585 0.000700000
v -0.006083248 0.005195585 0.001200000
v -0.005656854 0.005656854 0.000700000
v -0.005656854 0.005656854 0.001200000
v -0.005195585 0.006083248 0.000700000
v -0.005195585 0.006083248 0.001200000
v -0.009800000 0.013450000 0.000700000
v -0.009800000 0.011250000 0.005000000
v -0.004702282 0.006472136 0.000700000
v -0.004702282 0.006472136 0.001200000
v -0.004179989 0.006821121 0.000700000
v -0.004179989 0.006821121 0.001200000
v -0.003631924 0.007128052 0.000700000
v -0.003631924 0.007128052 0.001200000
v -0.003061468 0.007391036 0.000700000
v -0.003061468 0.007391036 0.001200000
v -0.002472136 0.007608452 0.000700000
v -0.002472136 0.007608452 0.001200000
v -0.001867563 0.007778959 0.000700000
v -0.001867563 0.007778959 0.001200000
v -0.001251476 0.007901506 0.000700000
v -0.001251476 0.007901506 0.001200000
v -0.000627673 0.007975339 0.000700000
v -0.000627673 0.007975339 0.001200000
v -0.009800000 0.011250000 0.019700000
v -0.009800000 0.013450000 0.019700000
v -0.009778127 0.011250000 0.020061610
v -0.009712826 0.011250000 0.020417947
v -0.009605049 0.011250000 0.020763814
v -0.009456368 0.011250000 0.021094169
v -0.009268952 0.011250000 0.021404196
v -0.009045532 0.011250000 0.021689368
v -0.008789368 0.011250000 0.021945532
v -0.009778127 0.013450000 0.020061610
v -0.009712826 0.013450000 0.020417947
v -0.009605049 0.013450000 0.020763814
v -0.009456368 0.013450000 0.021094169
v -0.009268952 0.013450000 0.021404196
v -0.009045532 0.013450000 0.021689368
v -0.008789368 0.013450000 0.021945532
v -0.008504194 0.011250000 0.022168953
v -0.008194170 0.011250000 0.022356369
v -0.007863815 0.011250000 0.022505049
v -0.007517947 0.011250000 0.022612827
v -0.008504194 0.013450000 0.022168953
v -0.008194170 0.013450000 0.022356369
v -0.007863815 0.013450000 0.022505049
v -0.007517947 0.013450000 0.022612827
v -0.007161610 0.011250000 0.022678128
v -0.006800000 0.011250000 0.022700001
v -0.007161610 0.013450000 0.022678128
v -0.006800000 0.013450000 0.022700001
v -0.005200000 0.011250000 0.022700001
v -0.005200000 0.013450000 0.022700001
v -0.003254126 0.011250000 0.014437689
v -0.002725101 0.011250000 0.013751637
v -0.003009229 0.011250000 0.014079538
v -0.003724314 0.011250000 0.015645357
v -0.003786060 0.011250000 0.016074816
v -0.003798450 0.011250000 0.016508514
v -0.003761322 0.011250000 0.016940797
v -0.003456602 0.011250000 0.014821422
v -0.003614015 0.011250000 0.015225735
v -0.001676640 0.011250000 0.012989886
v -0.001276988 0.011250000 0.012820991
v -0.002405447 0.011250000 0.013458261
v -0.002054435 0.011250000 0.013203236
v -0.000860688 0.011250000 0.012698755
v -0.000433167 0.011250000 0.012624769
v -0.000000000 0.011250000 0.012600000
v -0.003675158 0.011250000 0.017366031
v -0.003541083 0.011250000 0.017778670
v -0.003360845 0.011250000 0.018173337
v -0.003136793 0.011250000 0.018544884
v -0.002871848 0.011250000 0.018888472
v -0.002569465 0.011250000 0.019199617
v -0.004385972 0.011250000 0.022676315
v -0.004385972 0.013450000 0.022676315
v -0.003574699 0.011250000 0.022605337
v -0.002768926 0.011250000 0.022487309
v -0.003574699 0.013450000 0.022605337
v -0.002768926 0.013450000 0.022487309
v -0.002233584 0.011250000 0.019474266
v -0.001868585 0.011250000 0.019708836
v -0.001479226 0.011250000 0.019900270
v -0.001971378 0.011250000 0.022322629
v -0.001971378 0.013450000 0.022322629
v -0.001070584 0.011250000 0.020046074
v -0.000647984 0.011250000 0.020144345
v -0.000216937 0.011250000 0.020193804
v -0.001184755 0.011250000 0.022111854
v -0.000411718 0.011250000 0.021855697
v -0.001184755 0.013450000 0.022111854
v -0.000411718 0.013450000 0.021855697
v 0.000627673 -0.007975339 0.000700000
v 0.000627673 -0.007975339 0.001200000
v 0.001251476 -0.007901506 0.000700000
v 0.001251476 -0.007901506 0.001200000
v 0.001867563 -0.007778959 0.000700000
v 0.001867563 -0.007778959 0.001200000
v 0.002472136 -0.007608452 0.000700000
v 0.002472136 -0.007608452 0.001200000
v 0.003061468 -0.007391036 0.000700000
v 0.003061468 -0.007391036 0.001200000
v 0.003631924 -0.007128052 0.000700000
v 0.003631924 -0.007128052 0.001200000
v 0.004179989 -0.006821121 0.000700000
v 0.004179989 -0.006821121 0.001200000
v 0.000000000 -0.011654520 0.011349601
v 0.000000000 -0.011632843 0.011317158
v 0.000000000 -0.011600400 0.011295481
v 0.000000000 -0.011450000 0.011233183
v 0.000000000 -0.011742389 0.011561733
v 0.000000000 -0.011750001 0.011600002
v 0.001377311 -0.011654520 0.011523595
v 0.001385379 -0.011632843 0.011492172
v 0.001390770 -0.011600400 0.011471176
v 0.001390770 -0.011450000 0.011408878
v 0.004702282 -0.006472136 0.000700000
v 0.004702282 -0.006472136 0.001200000
v 0.009800000 -0.013450000 0.000700000
v 0.008866987 -0.013450000 0.005250000
v 0.008800000 -0.013450000 0.005500000
v 0.008817037 -0.013450000 0.005370591
v 0.008946447 -0.013450000 0.005146447
v 0.009050000 -0.013450000 0.005066988
v 0.009170591 -0.013450000 0.005017038
v 0.009300000 -0.013450000 0.005000000
v 0.009800000 -0.013450000 0.005000000
v 0.008866987 -0.011450000 0.005250000
v 0.008800000 -0.011450000 0.005500000
v 0.008817037 -0.011450000 0.005370591
v 0.008946447 -0.011450000 0.005146447
v 0.009050000 -0.011450000 0.005066988
v 0.009170591 -0.011450000 0.005017038
v 0.009300000 -0.011450000 0.005000000
v 0.008800000 -0.013450000 0.008700000
v 0.008800000 -0.011450000 0.008700000
v 0.008776315 -0.013450000 0.009514027
v 0.008705337 -0.013450000 0.010325301
v 0.008587308 -0.013450000 0.011131074
v 0.008776315 -0.011450000 0.009514027
v 0.008705337 -0.011450000 0.010325301
v 0.008587308 -0.011450000 0.011131074
v 0.005195585 -0.006083248 0.000700000
v 0.005195585 -0.006083248 0.001200000
v 0.005656854 -0.005656854 0.000700000
v 0.005656854 -0.005656854 0.001200000
v 0.006083248 -0.005195585 0.000700000
v 0.006083248 -0.005195585 0.001200000
v 0.006472136 -0.004702282 0.000700000
v 0.006472136 -0.004702282 0.001200000
v 0.006821121 -0.004179989 0.000700000
v 0.006821121 -0.004179989 0.001200000
v 0.007128052 -0.003631924 0.000700000
v 0.007128052 -0.003631924 0.001200000
v 0.007391036 -0.003061468 0.000700000
v 0.007391036 -0.003061468 0.001200000
v 0.007608452 -0.002472136 0.000700000
v 0.007608452 -0.002472136 0.001200000
v 0.007778959 -0.001867563 0.000700000
v 0.007778959 -0.001867563 0.001200000
v 0.007901506 -0.001251476 0.000700000
v 0.007901506 -0.001251476 0.001200000
v 0.007975339 -0.000627673 0.000700000
v 0.007975339 -0.000627673 0.001200000
v 0.008000000 -0.000000000 0.000700000
v 0.008000000 -0.000000000 0.001200000
v 0.001377311 -0.011742389 0.011735727
v 0.001367794 -0.011750001 0.011772794
v 0.002668081 -0.011654520 0.012034647
v 0.002683710 -0.011632843 0.012006218
v 0.002694153 -0.011600400 0.011987221
v 0.002694153 -0.011450000 0.011924923
v 0.002668081 -0.011742389 0.012246779
v 0.002649645 -0.011750001 0.012280314
v 0.002844554 -0.011450000 0.011987221
v 0.003791205 -0.011654520 0.012850645
v 0.003813414 -0.011632843 0.012826995
v 0.003791205 -0.011742389 0.013062777
v 0.003828253 -0.011600400 0.012811192
v 0.003908375 -0.011643682 0.012944886
v 0.003978653 -0.011450000 0.012811192
v 0.004003337 -0.011654520 0.013062777
v 0.004025546 -0.011632843 0.013039127
v 0.004040385 -0.011600400 0.013023324
v 0.004035438 -0.011469794 0.012887171
v 0.003996257 -0.011450000 0.012826995
v 0.004025546 -0.011450000 0.012856284
v 0.004040385 -0.011450000 0.012872924
v 0.004032965 -0.011510556 0.012925159
v 0.003765008 -0.011750001 0.013090674
v 0.004643803 -0.011750001 0.014152953
v 0.004676114 -0.011742389 0.014132448
v 0.004888246 -0.011654520 0.014132448
v 0.001083189 -0.013450000 0.021210857
v 0.000345117 -0.013450000 0.021555027
v 0.001083189 -0.011750001 0.021210857
v 0.000345117 -0.011750001 0.021555027
v 0.001800000 -0.013450000 0.020824356
v 0.001800000 -0.011750001 0.020824356
v 0.003160220 -0.013450000 0.019929726
v 0.003160220 -0.011750001 0.019929726
v 0.003799027 -0.013450000 0.019424623
v 0.004407383 -0.013450000 0.018883232
v 0.003799027 -0.011750001 0.019424623
v 0.004407383 -0.011750001 0.018883232
v 0.002493126 -0.013450000 0.020396831
v 0.002493126 -0.011750001 0.020396831
v 0.004933941 -0.011600400 0.014103449
v 0.004933941 -0.011450000 0.013953049
v 0.004915638 -0.011632843 0.014115064
v 0.006029725 -0.013450000 0.017060220
v 0.005267205 -0.011742389 0.015388581
v 0.005230810 -0.011750001 0.015400407
v 0.005479337 -0.011654520 0.015388581
v 0.005510192 -0.011632843 0.015378556
v 0.005530809 -0.011600400 0.015371857
v 0.005530809 -0.011450000 0.015221457
v 0.005593107 -0.011450000 0.015371857
v 0.005489146 -0.011750001 0.016754651
v 0.005527339 -0.011742389 0.016752249
v 0.005739471 -0.011654520 0.016752249
v 0.005771850 -0.011632843 0.016750213
v 0.005793484 -0.011600400 0.016748851
v 0.005855782 -0.011450000 0.016748851
v 0.006029725 -0.011450000 0.017060220
v 0.007310857 -0.013450000 0.014983188
v 0.006924356 -0.013450000 0.015699999
v 0.006496829 -0.013450000 0.016393127
v 0.007310857 -0.011450000 0.014983188
v 0.006924356 -0.011450000 0.015699999
v 0.006496829 -0.011450000 0.016393127
v 0.008422628 -0.013450000 0.011928622
v 0.008211853 -0.013450000 0.012715245
v 0.007955696 -0.013450000 0.013488282
v 0.007655025 -0.013450000 0.014245116
v 0.008422628 -0.011450000 0.011928622
v 0.008211853 -0.011450000 0.012715245
v 0.007955696 -0.011450000 0.013488282
v 0.007655025 -0.011450000 0.014245116
v 0.004983231 -0.013450000 0.018307384
v 0.005524622 -0.013450000 0.017699027
v 0.005422512 -0.011750001 0.017813768
v 0.005463448 -0.011742389 0.017767768
v 0.004983231 -0.011750001 0.018307384
v 0.005740413 -0.011616151 0.017426116
v 0.005728367 -0.011632843 0.017441349
v 0.005693329 -0.011654520 0.017485663
v 0.005751779 -0.011600400 0.017411740
v 0.005524622 -0.011718840 0.017699027
v 0.005819462 -0.011450000 0.017326141
v 0.004702282 0.006472136 0.000700000
v 0.004702282 0.006472136 0.001200000
v 0.000000000 0.008000000 0.000700000
v 0.000000000 0.008000000 0.001200000
v 0.000627673 0.007975339 0.000700000
v 0.000627673 0.007975339 0.001200000
v 0.001251476 0.007901506 0.000700000
v 0.001251476 0.007901506 0.001200000
v 0.001867563 0.007778959 0.000700000
v 0.001867563 0.007778959 0.001200000
v 0.003061468 0.007391036 0.000700000
v 0.003061468 0.007391036 0.001200000
v 0.002472136 0.007608452 0.000700000
v 0.002472136 0.007608452 0.001200000
v 0.003631924 0.007128052 0.000700000
v 0.003631924 0.007128052 0.001200000
v 0.004179989 0.006821121 0.000700000
v 0.004179989 0.006821121 0.001200000
v 0.005195585 0.006083248 0.000700000
v 0.005195585 0.006083248 0.001200000
v 0.005656854 0.005656854 0.000700000
v 0.005656854 0.005656854 0.001200000
v 0.006083248 0.005195585 0.000700000
v 0.006083248 0.005195585 0.001200000
v 0.006472136 0.004702282 0.000700000
v 0.006472136 0.004702282 0.001200000
v 0.006821121 0.004179989 0.000700000
v 0.006821121 0.004179989 0.001200000
v 0.007128052 0.003631924 0.000700000
v 0.007128052 0.003631924 0.001200000
v 0.007901506 0.001251476 0.000700000
v 0.007901506 0.001251476 0.001200000
v 0.007975339 0.000627673 0.000700000
v 0.007975339 0.000627673 0.001200000
v 0.007608452 0.002472136 0.000700000
v 0.007608452 0.002472136 0.001200000
v 0.007778959 0.001867563 0.000700000
v 0.007778959 0.001867563 0.001200000
v 0.007391036 0.003061468 0.000700000
v 0.007391036 0.003061468 0.001200000
v 0.009800000 0.013450000 0.000700000
v 0.008866987 0.011250000 0.005250000
v 0.008800000 0.011250000 0.005500000
v 0.008817037 0.011250000 0.005370591
v 0.008866987 0.011450000 0.005250000
v 0.008817037 0.011450000 0.005370591
v 0.008946447 0.011250000 0.005146447
v 0.009050000 0.011250000 0.005066988
v 0.009170591 0.011250000 0.005017038
v 0.008946447 0.011450000 0.005146447
v 0.009050000 0.011450000 0.005066988
v 0.009170591 0.011450000 0.005017038
v 0.009300000 0.011250000 0.005000000
v 0.008866987 0.013450000 0.005250000
v 0.008800000 0.013450000 0.005500000
v 0.008817037 0.013450000 0.005370591
v 0.008946447 0.013450000 0.005146447
v 0.009050000 0.013450000 0.005066988
v 0.009170591 0.013450000 0.005017038
v 0.009300000 0.013450000 0.005000000
v 0.009800000 0.013450000 0.005000000
v 0.008800000 0.011250000 0.008700000
v 0.008800000 0.013450000 0.008700000
v 0.008776315 0.011250000 0.009514027
v 0.008705337 0.011250000 0.010325301
v 0.008587308 0.011250000 0.011131074
v 0.008776315 0.013450000 0.009514027
v 0.008705337 0.013450000 0.010325301
v 0.008587308 0.013450000 0.011131074
v 0.000433167 0.011250000 0.012624769
v 0.000860688 0.011250000 0.012698755
v 0.001276988 0.011250000 0.012820991
v 0.001676640 0.011250000 0.012989886
v 0.002054435 0.011250000 0.013203236
v 0.002405447 0.011250000 0.013458261
v 0.002725101 0.011250000 0.013751637
v 0.003009229 0.011250000 0.014079538
v 0.003254126 0.011250000 0.014437689
v 0.003456602 0.011250000 0.014821422
v 0.003614015 0.011250000 0.015225735
v 0.003724314 0.011250000 0.015645357
v 0.003786060 0.011250000 0.016074816
v 0.003798450 0.011250000 0.016508514
v 0.003761322 0.011250000 0.016940797
v 0.001479226 0.011250000 0.019900270
v 0.001868585 0.011250000 0.019708836
v 0.002233584 0.011250000 0.019474266
v 0.000216937 0.011250000 0.020193804
v 0.000647984 0.011250000 0.020144345
v 0.001070584 0.011250000 0.020046074
v 0.001083189 0.011250000 0.021210857
v 0.000345117 0.011250000 0.021555027
v 0.001083189 0.013450000 0.021210857
v 0.000345117 0.013450000 0.021555027
v 0.001800000 0.011250000 0.020824356
v 0.001800000 0.013450000 0.020824356
v 0.003541083 0.011250000 0.017778670
v 0.003360845 0.011250000 0.018173337
v 0.003136793 0.011250000 0.018544884
v 0.002569465 0.011250000 0.019199617
v 0.002871848 0.011250000 0.018888472
v 0.003160220 0.011250000 0.019929726
v 0.003160220 0.013450000 0.019929726
v 0.003675158 0.011250000 0.017366031
v 0.003799027 0.011250000 0.019424623
v 0.004407383 0.011250000 0.018883232
v 0.003799027 0.013450000 0.019424623
v 0.004407383 0.013450000 0.018883232
v 0.002493126 0.011250000 0.020396831
v 0.002493126 0.013450000 0.020396831
v 0.006029725 0.011250000 0.017060220
v 0.006029725 0.013450000 0.017060220
v 0.007310857 0.011250000 0.014983188
v 0.006924356 0.011250000 0.015699999
v 0.006496829 0.011250000 0.016393127
v 0.007310857 0.013450000 0.014983188
v 0.006924356 0.013450000 0.015699999
v 0.006496829 0.013450000 0.016393127
v 0.008422628 0.011250000 0.011928622
v 0.008211853 0.011250000 0.012715245
v 0.007955696 0.011250000 0.013488282
v 0.007655025 0.011250000 0.014245116
v 0.008422628 0.013450000 0.011928622
v 0.008211853 0.013450000 0.012715245
v 0.007955696 0.013450000 0.013488282
v 0.007655025 0.013450000 0.014245116
v 0.004983231 0.011250000 0.018307384
v 0.005524622 0.011250000 0.017699027
v 0.004983231 0.013450000 0.018307384
v 0.005524622 0.013450000 0.017699027
f 1 17 19
f 1 15 17
f 1 13 15
f 1 23 45
f 1 45 25
f 1 19 21
f 1 21 23
f 1 25 27
f 1 27 31
f 1 31 29
f 1 63 2
f 2 51 48
f 2 48 111
f 2 110 112
f 2 112 114
f 2 111 110
f 2 114 123
f 2 123 127
f 1 173 9
f 1 5 7
f 1 7 3
f 1 3 13
f 1 11 5
f 1 9 11
f 1 2 198
f 4 7 8
f 3 7 4
f 5 8 7
f 5 6 8
f 9 174 10
f 9 173 174
f 5 11 6
f 6 11 12
f 9 12 11
f 9 10 12
f 3 14 13
f 13 16 15
f 13 14 16
f 15 18 17
f 15 16 18
f 17 18 20
f 17 20 19
f 19 20 22
f 19 22 21
f 21 24 23
f 23 24 46
f 21 22 24
f 3 4 14
f 1 29 33
f 1 33 35
f 1 35 37
f 25 26 28
f 25 28 27
f 1 37 39
f 27 28 32
f 27 32 31
f 30 31 32
f 29 31 30
f 1 39 311
f 29 30 34
f 29 34 33
f 33 34 36
f 33 36 35
f 35 36 38
f 35 38 37
f 30 292 34
f 28 296 32
f 26 298 28
f 30 32 294
f 37 38 40
f 34 290 36
f 37 40 39
f 36 288 38
f 38 286 40
f 2 127 43
f 2 43 302
f 2 302 308
f 23 46 45
f 26 45 46
f 25 45 26
f 4 8 350
f 6 352 8
f 6 12 354
f 10 356 12
f 10 174 358
f 20 340 22
f 24 336 46
f 26 46 310
f 22 338 24
f 16 344 18
f 18 342 20
f 14 346 16
f 4 348 14
f 2 64 57
f 2 63 64
f 1 386 63
f 2 57 52
f 2 52 51
f 63 65 64
f 64 65 72
f 63 66 65
f 63 67 66
f 63 68 67
f 65 66 72
f 66 67 73
f 63 69 68
f 67 68 74
f 63 70 69
f 63 71 70
f 68 69 75
f 66 73 72
f 67 74 73
f 68 75 74
f 69 76 75
f 63 79 71
f 69 70 76
f 63 80 79
f 63 81 80
f 70 71 78
f 71 79 78
f 70 77 76
f 70 78 77
f 78 79 83
f 64 72 104
f 72 73 104
f 73 74 104
f 74 75 104
f 63 82 81
f 63 101 82
f 79 80 83
f 80 81 84
f 80 84 83
f 81 85 84
f 63 102 101
f 81 82 85
f 82 101 86
f 82 86 85
f 75 76 104
f 76 77 104
f 77 78 104
f 78 83 104
f 83 84 104
f 84 85 104
f 85 86 104
f 64 89 57
f 64 97 89
f 64 98 97
f 63 105 102
f 101 102 103
f 86 101 103
f 102 104 103
f 63 132 105
f 102 106 104
f 64 104 98
f 86 103 104
f 63 145 132
f 102 105 106
f 63 146 145
f 105 132 106
f 104 137 98
f 104 138 137
f 104 139 138
f 104 106 139
f 1 390 386
f 1 392 398
f 1 398 390
f 1 395 394
f 1 432 395
f 1 394 392
f 63 170 169
f 63 157 146
f 63 169 157
f 106 132 144
f 132 145 144
f 144 145 154
f 106 144 139
f 144 147 139
f 144 148 147
f 144 154 148
f 63 387 170
f 63 386 387
f 145 146 154
f 146 157 156
f 146 156 154
f 154 156 148
f 156 158 148
f 157 159 160
f 157 161 159
f 156 157 158
f 157 160 158
f 157 165 162
f 157 166 165
f 157 167 166
f 157 162 161
f 157 169 167
f 169 168 167
f 169 171 168
f 169 170 171
f 170 172 171
f 170 387 172
f 1 197 173
f 173 176 174
f 173 175 176
f 175 177 176
f 176 177 178
f 177 179 178
f 178 179 180
f 179 181 180
f 180 181 182
f 181 183 182
f 182 183 184
f 173 197 175
f 1 198 197
f 175 197 177
f 177 197 179
f 179 197 181
f 181 197 183
f 183 197 185
f 183 185 184
f 184 185 186
f 185 187 186
f 186 187 188
f 187 189 188
f 188 189 190
f 189 191 190
f 190 191 192
f 191 193 192
f 192 193 194
f 193 195 194
f 194 195 196
f 195 199 196
f 185 197 187
f 187 197 189
f 189 197 191
f 191 197 193
f 193 197 195
f 195 197 199
f 197 201 199
f 197 203 201
f 197 205 203
f 197 207 205
f 197 198 216
f 198 246 247
f 198 256 246
f 198 247 245
f 198 245 252
f 174 176 476
f 176 178 474
f 178 180 480
f 180 182 478
f 182 184 482
f 196 199 200
f 199 201 200
f 200 201 202
f 184 186 472
f 2 495 198
f 186 188 470
f 188 190 468
f 190 192 466
f 192 194 464
f 194 196 462
f 196 200 444
f 200 202 460
f 201 203 202
f 202 203 204
f 197 209 207
f 197 211 209
f 197 213 211
f 203 205 204
f 204 205 206
f 205 207 206
f 206 207 208
f 197 445 213
f 207 209 208
f 208 209 210
f 202 204 458
f 209 211 210
f 210 211 212
f 204 206 454
f 206 208 456
f 211 213 212
f 212 213 214
f 208 210 452
f 210 212 450
f 213 445 214
f 212 214 448
f 214 445 446
f 198 255 254
f 198 258 255
f 198 259 258
f 198 257 256
f 198 254 257
f 198 260 259
f 198 486 260
f 198 252 215
f 198 215 216
f 197 216 535
f 215 252 253
f 215 253 248
f 215 248 249
f 215 217 216
f 216 217 224
f 215 263 217
f 217 263 218
f 218 263 219
f 217 218 224
f 218 219 225
f 219 220 226
f 220 221 227
f 218 225 224
f 216 224 225
f 216 225 226
f 216 226 227
f 219 226 225
f 220 227 226
f 216 227 228
f 221 228 227
f 216 228 229
f 216 229 230
f 216 230 235
f 221 222 228
f 222 223 230
f 223 231 230
f 222 229 228
f 222 230 229
f 216 235 236
f 216 236 237
f 230 231 235
f 219 263 220
f 220 263 221
f 231 232 235
f 232 233 236
f 216 237 238
f 216 238 241
f 232 236 235
f 233 237 236
f 233 234 237
f 234 239 238
f 216 241 242
f 234 238 237
f 215 249 250
f 215 250 251
f 215 251 261
f 215 261 262
f 215 262 263
f 221 263 222
f 222 263 223
f 223 263 231
f 231 263 232
f 232 263 233
f 233 263 234
f 239 240 241
f 216 242 244
f 238 239 241
f 240 242 241
f 216 244 268
f 240 244 242
f 234 263 239
f 239 263 240
f 240 264 243
f 240 243 244
f 216 268 271
f 243 267 244
f 216 271 272
f 197 535 538
f 197 552 545
f 197 538 552
f 197 549 550
f 197 550 571
f 197 545 549
f 240 263 264
f 243 264 265
f 243 265 267
f 216 283 284
f 216 272 277
f 216 277 283
f 244 267 268
f 267 269 268
f 268 269 271
f 265 266 267
f 266 273 269
f 266 269 267
f 269 273 270
f 216 284 536
f 216 536 535
f 269 270 271
f 270 276 272
f 270 272 271
f 270 273 274
f 274 275 276
f 275 278 281
f 270 274 276
f 275 281 276
f 272 276 277
f 276 281 277
f 277 281 283
f 278 279 281
f 279 280 282
f 280 534 282
f 279 282 281
f 281 282 283
f 282 284 283
f 282 534 284
f 39 40 286
f 39 286 285
f 38 288 286
f 285 286 288
f 36 290 288
f 34 292 290
f 285 288 287
f 30 294 292
f 32 296 294
f 287 288 290
f 287 290 289
f 28 298 296
f 289 290 292
f 289 292 291
f 1 311 312
f 1 312 314
f 1 314 313
f 1 313 327
f 2 320 323
f 2 323 324
f 2 322 320
f 2 321 322
f 2 324 325
f 2 325 326
f 39 285 311
f 291 292 294
f 291 294 293
f 293 294 296
f 293 296 295
f 285 287 311
f 287 289 311
f 289 291 311
f 295 296 298
f 295 298 297
f 2 308 321
f 1 331 424
f 1 424 425
f 1 419 420
f 1 420 403
f 1 427 418
f 1 425 426
f 1 426 427
f 1 418 419
f 1 327 329
f 1 329 330
f 1 330 331
f 321 308 364
f 328 364 367
f 26 310 298
f 46 336 310
f 24 338 336
f 22 340 338
f 20 342 340
f 18 344 342
f 16 346 344
f 14 348 346
f 297 298 310
f 297 310 309
f 309 310 336
f 2 326 495
f 4 350 348
f 8 352 350
f 6 354 352
f 12 356 354
f 10 358 356
f 291 293 311
f 293 295 311
f 295 297 311
f 297 309 311
f 309 335 311
f 311 335 337
f 311 337 339
f 311 317 316
f 311 315 312
f 311 316 315
f 311 318 317
f 311 319 318
f 312 320 314
f 313 314 322
f 315 316 324
f 316 317 325
f 312 315 323
f 314 320 322
f 313 322 321
f 315 324 323
f 316 325 324
f 312 323 320
f 317 318 326
f 318 319 326
f 317 326 325
f 311 339 341
f 311 341 343
f 311 343 345
f 321 364 328
f 328 367 373
f 328 373 332
f 332 373 333
f 333 373 334
f 313 321 327
f 321 328 327
f 331 428 424
f 331 334 428
f 327 332 329
f 329 333 330
f 327 328 332
f 329 332 333
f 330 334 331
f 330 333 334
f 309 336 335
f 335 336 338
f 335 338 337
f 337 338 340
f 337 340 339
f 339 340 342
f 339 342 341
f 341 342 344
f 341 344 343
f 343 344 346
f 343 346 345
f 345 346 348
f 345 348 347
f 311 345 347
f 311 347 349
f 311 349 351
f 311 351 353
f 311 353 355
f 311 355 357
f 311 503 319
f 319 495 326
f 347 348 350
f 347 350 349
f 349 350 352
f 349 352 351
f 351 352 354
f 351 354 353
f 353 354 356
f 353 356 355
f 355 356 358
f 355 358 357
f 311 357 483
f 1 433 432
f 1 403 433
f 386 389 387
f 387 389 172
f 386 388 389
f 386 390 388
f 390 391 388
f 390 398 391
f 398 399 391
f 392 394 393
f 394 396 393
f 432 436 397
f 394 395 396
f 395 397 396
f 395 432 397
f 392 399 398
f 392 393 399
f 334 373 378
f 334 378 379
f 334 379 380
f 334 380 401
f 334 401 428
f 428 401 429
f 430 401 409
f 429 401 430
f 430 409 431
f 403 417 442
f 422 410 416
f 417 416 442
f 418 422 419
f 418 421 422
f 419 423 420
f 403 420 417
f 417 420 423
f 419 422 423
f 421 409 410
f 421 410 422
f 421 431 409
f 422 416 423
f 417 423 416
f 424 429 425
f 424 428 429
f 425 429 430
f 426 431 427
f 426 430 431
f 425 430 426
f 418 427 421
f 421 427 431
f 432 433 436
f 433 435 434
f 433 441 435
f 433 434 436
f 403 441 433
f 403 438 439
f 403 439 441
f 403 437 438
f 403 440 437
f 403 442 440
f 184 472 482
f 186 470 472
f 190 466 468
f 188 468 470
f 194 462 464
f 200 460 444
f 196 444 462
f 192 464 466
f 174 476 358
f 176 474 476
f 178 480 474
f 180 478 480
f 182 482 478
f 443 460 459
f 443 444 460
f 443 461 444
f 214 446 448
f 212 448 450
f 445 447 446
f 446 447 448
f 210 450 452
f 206 456 454
f 202 458 460
f 204 454 458
f 447 449 448
f 208 452 456
f 448 449 450
f 449 451 450
f 450 451 452
f 451 455 452
f 452 455 456
f 197 483 445
f 453 456 455
f 453 454 456
f 453 457 454
f 454 457 458
f 445 483 447
f 457 459 458
f 458 459 460
f 447 483 449
f 449 483 451
f 451 483 455
f 197 496 483
f 198 489 484
f 198 490 489
f 198 484 486
f 198 491 490
f 198 495 491
f 197 498 496
f 197 497 498
f 197 505 497
f 197 565 511
f 197 566 565
f 197 560 559
f 197 554 560
f 197 558 568
f 197 567 566
f 197 568 567
f 197 559 558
f 197 509 505
f 197 510 509
f 197 511 510
f 260 485 512
f 485 513 512
f 504 514 513
f 504 515 514
f 472 481 482
f 462 463 464
f 444 461 462
f 461 463 462
f 463 465 464
f 464 465 466
f 465 467 466
f 466 467 468
f 468 469 470
f 467 469 468
f 470 471 472
f 469 471 470
f 471 481 472
f 474 475 476
f 473 475 474
f 473 474 480
f 473 480 479
f 357 358 476
f 357 476 475
f 478 479 480
f 477 479 478
f 477 482 481
f 477 478 482
f 473 483 475
f 473 479 483
f 471 483 481
f 477 481 483
f 477 483 479
f 357 475 483
f 311 483 503
f 319 503 495
f 453 455 483
f 453 483 457
f 457 483 459
f 461 483 463
f 463 483 465
f 443 459 483
f 443 483 461
f 469 483 471
f 467 483 469
f 465 483 467
f 484 487 486
f 485 486 488
f 486 487 488
f 489 490 493
f 490 491 494
f 484 489 492
f 489 493 492
f 490 494 493
f 484 492 487
f 491 495 494
f 483 500 501
f 483 496 499
f 483 499 500
f 483 501 502
f 483 502 503
f 487 496 488
f 485 488 497
f 492 493 500
f 493 494 501
f 487 492 499
f 488 496 498
f 488 498 497
f 492 500 499
f 493 501 500
f 487 499 496
f 494 495 502
f 494 502 501
f 495 503 502
f 260 486 485
f 485 504 513
f 504 506 515
f 506 507 516
f 507 508 516
f 485 497 504
f 497 505 504
f 508 565 561
f 508 511 565
f 504 509 506
f 506 510 507
f 504 505 509
f 506 509 510
f 507 511 508
f 507 510 511
f 197 571 572
f 197 572 554
f 506 516 515
f 508 517 516
f 517 561 518
f 518 562 519
f 519 563 520
f 520 564 521
f 521 555 522
f 522 556 523
f 523 557 524
f 524 553 525
f 525 553 526
f 528 529 551
f 280 530 534
f 530 533 534
f 530 531 533
f 531 532 533
f 533 536 534
f 284 534 536
f 533 535 536
f 527 537 532
f 532 537 533
f 527 528 551
f 527 551 537
f 533 537 535
f 535 537 538
f 537 551 538
f 538 551 552
f 540 548 541
f 529 542 544
f 529 544 551
f 542 543 544
f 541 547 543
f 543 547 544
f 544 547 545
f 545 547 549
f 539 546 569
f 539 548 540
f 526 570 546
f 546 570 569
f 539 569 548
f 541 548 547
f 548 569 571
f 547 548 549
f 548 550 549
f 548 571 550
f 544 552 551
f 544 545 552
f 508 561 517
f 518 561 562
f 519 562 563
f 520 563 564
f 522 555 556
f 524 557 553
f 523 556 557
f 521 564 555
f 555 559 556
f 555 558 559
f 556 560 557
f 553 557 554
f 554 557 560
f 556 559 560
f 561 566 562
f 561 565 566
f 562 566 567
f 563 568 564
f 563 567 568
f 562 567 563
f 555 564 558
f 558 564 568
f 526 553 570
f 569 570 571
f 570 572 571
f 553 572 570
f 553 554 572
f 125 41 42
f 124 44 41
f 125 42 43
f 41 300 42
f 41 44 299
f 42 302 43
f 130 299 44
f 42 301 302
f 41 299 300
f 42 300 301
f 130 303 299
f 130 304 303
f 50 51 52
f 50 53 49
f 53 54 119
f 54 55 119
f 50 48 51
f 50 49 47
f 53 119 49
f 50 47 48
f 55 120 119
f 55 56 121
f 58 53 50
f 59 54 53
f 58 50 52
f 58 59 53
f 58 52 57
f 59 60 54
f 60 61 54
f 61 55 54
f 61 56 55
f 61 62 56
f 62 92 56
f 58 88 59
f 59 87 60
f 58 57 88
f 60 91 61
f 59 88 87
f 60 87 90
f 88 57 89
f 60 90 91
f 61 91 62
f 62 91 92
f 56 92 100
f 91 90 93
f 88 95 87
f 87 94 90
f 88 89 95
f 90 96 93
f 91 99 92
f 91 93 99
f 87 95 94
f 90 94 96
f 95 89 97
f 92 99 100
f 93 96 99
f 95 97 98
f 94 135 96
f 95 134 94
f 95 98 134
f 107 110 108
f 108 110 111
f 107 112 110
f 107 115 112
f 113 114 115
f 107 109 115
f 117 116 109
f 109 116 115
f 115 114 112
f 47 49 107
f 47 111 48
f 47 107 108
f 49 109 107
f 47 108 111
f 119 118 109
f 49 119 109
f 119 120 118
f 120 121 122
f 118 117 109
f 120 117 118
f 120 122 117
f 113 124 125
f 113 125 123
f 113 123 114
f 113 115 124
f 117 128 116
f 116 126 115
f 117 122 129
f 116 128 126
f 115 126 124
f 125 127 123
f 117 129 128
f 55 121 120
f 56 142 121
f 121 171 122
f 129 122 171
f 124 41 125
f 124 126 44
f 128 130 126
f 125 43 127
f 129 131 128
f 126 130 44
f 128 131 130
f 131 304 130
f 129 171 131
f 131 389 304
f 56 100 142
f 96 141 99
f 99 141 100
f 121 142 150
f 121 150 164
f 121 164 168
f 121 168 171
f 94 134 135
f 96 135 133
f 96 133 141
f 134 98 137
f 100 141 142
f 134 137 135
f 135 137 136
f 136 137 138
f 136 138 139
f 135 143 133
f 135 136 140
f 133 143 141
f 135 140 143
f 136 139 140
f 140 139 152
f 141 149 142
f 141 143 151
f 143 140 152
f 152 139 147
f 142 149 150
f 143 152 151
f 141 151 149
f 153 147 148
f 152 147 153
f 153 148 155
f 151 152 161
f 149 163 150
f 149 151 162
f 152 153 160
f 153 155 160
f 155 148 158
f 152 160 159
f 151 161 162
f 149 162 163
f 152 159 161
f 155 158 160
f 131 172 389
f 131 171 172
f 150 163 164
f 163 162 165
f 163 165 166
f 164 163 167
f 163 166 167
f 164 167 168
f 245 247 275
f 245 275 252
f 252 275 253
f 248 253 275
f 246 256 531
f 246 531 247
f 256 257 532
f 257 254 527
f 249 266 250
f 251 264 261
f 250 266 251
f 261 264 262
f 262 264 263
f 251 265 264
f 251 266 265
f 248 275 249
f 249 273 266
f 249 274 273
f 249 275 274
f 247 278 275
f 247 279 278
f 247 280 279
f 247 530 280
f 247 531 530
f 256 532 531
f 301 308 302
f 299 305 300
f 303 359 299
f 304 360 303
f 300 306 301
f 299 359 305
f 303 360 359
f 301 306 307
f 300 305 306
f 301 307 308
f 306 362 307
f 305 361 306
f 307 364 308
f 359 361 305
f 360 366 359
f 307 362 363
f 306 361 362
f 359 365 361
f 307 363 364
f 359 366 365
f 304 389 360
f 360 389 366
f 366 389 382
f 363 367 364
f 365 368 361
f 361 368 362
f 366 382 365
f 362 369 363
f 363 373 367
f 363 369 371
f 365 370 368
f 362 368 369
f 363 371 373
f 365 382 370
f 368 372 369
f 369 378 371
f 370 374 368
f 368 374 372
f 369 372 375
f 369 375 379
f 372 374 375
f 371 378 373
f 369 379 378
f 375 376 381
f 377 380 379
f 381 377 379
f 375 381 379
f 376 377 381
f 376 380 377
f 382 383 370
f 370 385 374
f 374 385 375
f 375 402 376
f 376 401 380
f 375 385 402
f 376 402 400
f 376 400 401
f 370 383 384
f 370 384 385
f 382 388 383
f 383 388 405
f 383 405 384
f 382 389 388
f 405 388 391
f 411 391 399
f 405 391 411
f 411 396 397
f 411 399 393
f 411 393 396
f 400 409 401
f 384 404 385
f 402 407 400
f 385 406 402
f 384 405 404
f 402 406 407
f 400 407 408
f 385 404 406
f 400 408 409
f 408 410 409
f 405 411 404
f 404 412 406
f 404 411 412
f 411 435 412
f 406 413 407
f 407 414 408
f 408 416 410
f 412 413 406
f 407 413 414
f 408 414 415
f 408 415 416
f 412 439 413
f 413 438 414
f 414 437 415
f 415 437 440
f 415 440 442
f 415 442 416
f 411 434 435
f 412 435 441
f 411 436 434
f 411 397 436
f 412 441 439
f 413 439 438
f 414 438 437
f 254 255 524
f 255 258 524
f 259 260 523
f 258 259 524
f 512 513 520
f 260 512 522
f 513 514 519
f 515 519 514
f 515 516 518
f 516 517 518
f 513 519 520
f 512 520 521
f 260 522 523
f 259 523 524
f 254 524 525
f 254 525 526
f 254 526 546
f 254 539 540
f 254 541 543
f 254 543 542
f 254 540 541
f 254 546 539
f 515 518 519
f 512 521 522
f 257 527 532
f 254 528 527
f 254 529 528
f 254 542 529
