# mf_base_shaft.obj  (48 v, 92 f)  units: metres
v -0.001767767 -0.001767767 0.001200000
v -0.002414815 -0.000647048 0.001200000
v -0.002165064 -0.001250000 0.001200000
v -0.001250000 -0.002165064 0.001200000
v -0.000647048 -0.002414815 0.001200000
v -0.001767767 -0.001767767 0.005000000
v -0.002414815 -0.000647048 0.005000000
v -0.002165064 -0.001250000 0.005000000
v -0.001250000 -0.002165064 0.005000000
v -0.000647048 -0.002414815 0.005000000
v -0.002500000 0.000000000 0.001200000
v -0.002414815 0.000647048 0.001200000
v -0.002165064 0.001250000 0.001200000
v -0.001767767 0.001767767 0.001200000
v -0.001250000 0.002165064 0.001200000
v -0.000647048 0.002414815 0.001200000
v -0.002500000 0.000000000 0.005000000
v -0.002414815 0.000647048 0.005000000
v -0.002165064 0.001250000 0.005000000
v -0.001767767 0.001767767 0.005000000
v -0.001250000 0.002165064 0.005000000
v -0.000647048 0.002414815 0.005000000
v 0.000000000 -0.002500000 0.001200000
v 0.000647048 -0.002414815 0.001200000
v 0.001250000 -0.002165064 0.001200000
v 0.001767767 -0.001767767 0.001200000
v 0.002165064 -0.001250000 0.001200000
v 0.002414815 -0.000647048 0.001200000
v 0.000000000 -0.002500000 0.005000000
v 0.000647048 -0.002414815 0.005000000
v 0.001250000 -0.002165064 0.005000000
v 0.001767767 -0.001767767 0.005000000
v 0.002165064 -0.001250000 0.005000000
v 0.002414815 -0.000647048 0.005000000
v 0.000000000 0.002500000 0.001200000
v 0.000647048 0.002414815 0.001200000
v 0.002500000 0.000000000 0.001200000
v 0.002414815 0.000647048 0.001200000
v 0.001767767 0.001767767 0.001200000
v 0.001250000 0.002165064 0.001200000
v 0.002165064 0.001250000 0.001200000
v 0.000000000 0.002500000 0.005000000
v 0.000647048 0.002414815 0.005000000
v 0.002500000 0.000000000 0.005000000
v 0.002414815 0.000647048 0.005000000
v 0.001767767 0.001767767 0.005000000
v 0.001250000 0.002165064 0.005000000
v 0.002165064 0.001250000 0.005000000
f 1 26 4
f 4 26 5
f 3 27 1
f 3 2 37
f 2 11 37
f 6 9 30
f 9 10 30
f 8 6 47
f 12 41 11
f 12 13 41
f 13 14 39
f 15 36 14
f 15 16 36
f 7 8 47
f 17 7 47
f 18 17 47
f 19 18 47
f 20 19 47
f 22 21 42
f 21 20 47
f 42 21 43
f 5 24 23
f 5 25 24
f 25 5 26
f 27 26 1
f 28 27 3
f 3 37 28
f 10 29 30
f 6 30 31
f 6 31 32
f 6 32 33
f 6 33 34
f 6 34 44
f 6 44 45
f 38 37 11
f 41 38 11
f 13 39 41
f 40 14 36
f 16 35 36
f 14 40 39
f 6 46 47
f 6 45 48
f 6 48 46
f 21 47 43
f 8 3 1
f 1 4 6
f 3 7 2
f 2 17 11
f 4 5 9
f 5 23 10
f 8 1 6
f 4 9 6
f 7 3 8
f 17 2 7
f 9 5 10
f 10 23 29
f 18 12 11
f 12 19 13
f 13 20 14
f 15 14 21
f 15 22 16
f 42 35 16
f 18 11 17
f 19 12 18
f 20 13 19
f 21 14 20
f 15 21 22
f 16 22 42
f 23 24 29
f 30 24 25
f 31 25 26
f 32 26 27
f 33 27 28
f 28 37 34
f 29 24 30
f 30 25 31
f 31 26 32
f 32 27 33
f 33 28 34
f 34 37 44
f 35 43 36
f 47 40 36
f 37 38 44
f 45 38 41
f 39 40 46
f 41 39 48
f 43 35 42
f 36 43 47
f 44 38 45
f 45 41 48
f 47 46 40
f 48 39 46
