# mf_distal_pad.obj  (78 v, 152 f)  units: metres
v 0.009300000 -0.011300000 0.113700002
v 0.009300000 -0.011150001 0.113700002
v 0.009651472 -0.011300000 0.112851471
v 0.009651472 -0.011150001 0.112851471
v 0.009800000 -0.011150001 0.112789951
v 0.009651472 -0.012148528 0.113700002
v 0.009800000 -0.011150001 0.113299996
v 0.009300000 -0.011150001 0.115346104
v 0.009555283 -0.011150001 0.114845082
v 0.009767415 -0.011062132 0.114845082
v 0.009767415 -0.010850000 0.115057215
v 0.009855283 -0.010850000 0.114845082
v 0.010012132 -0.011062132 0.112702079
v 0.010012132 -0.011062132 0.113299996
v 0.010100001 -0.010850000 0.112665683
v 0.010100001 -0.010850000 0.113299996
v 0.009300000 -0.011062132 0.115762435
v 0.009300000 -0.010850000 0.115974568
v 0.010500000 -0.012148528 0.112851471
v 0.010500000 -0.011300000 0.112499997
v 0.010500000 -0.012500000 0.113700002
v 0.009300000 -0.011300000 0.123300001
v 0.009651472 -0.012148528 0.123300001
v 0.009651472 -0.011300000 0.124148525
v 0.010500000 -0.012500000 0.123300001
v 0.010500000 -0.012148528 0.124148525
v 0.010500000 -0.011300000 0.124499999
v 0.009300000 0.011250000 0.113700002
v 0.009300000 0.011300000 0.113700002
v 0.009651472 0.011250000 0.112851471
v 0.009651472 0.011300000 0.112851471
v 0.009800000 0.011250000 0.112789951
v 0.009651472 0.012148528 0.113700002
v 0.009800000 0.011250000 0.113299996
v 0.009300000 0.011250000 0.115346104
v 0.009555283 0.011250000 0.114845082
v 0.009767415 0.011162132 0.114845082
v 0.009767415 0.010950000 0.115057215
v 0.009855283 0.010950000 0.114845082
v 0.010012132 0.011162132 0.112702079
v 0.010100001 0.010950000 0.112665683
v 0.010012132 0.011162132 0.113299996
v 0.010100001 0.010950000 0.113299996
v 0.009300000 0.011162132 0.115762435
v 0.009300000 0.010950000 0.115974568
v 0.010500000 0.011300000 0.112499997
v 0.010500000 0.012148528 0.112851471
v 0.010500000 0.012500000 0.113700002
v 0.009300000 0.011300000 0.123300001
v 0.009651472 0.012148528 0.123300001
v 0.009651472 0.011300000 0.124148525
v 0.010500000 0.012500000 0.123300001
v 0.010500000 0.011300000 0.124499999
v 0.010500000 0.012148528 0.124148525
v 0.012600000 -0.012148528 0.112851471
v 0.012600000 -0.011300000 0.112499997
v 0.012600000 -0.012500000 0.113700002
v 0.013448528 -0.011300000 0.112851471
v 0.013448528 -0.012148528 0.113700002
v 0.013800000 -0.011300000 0.113700002
v 0.012600000 -0.012500000 0.123300001
v 0.012600000 -0.012148528 0.124148525
v 0.012600000 -0.011300000 0.124499999
v 0.013448528 -0.012148528 0.123300001
v 0.013448528 -0.011300000 0.124148525
v 0.013800000 -0.011300000 0.123300001
v 0.012600000 0.011300000 0.112499997
v 0.012600000 0.012148528 0.112851471
v 0.012600000 0.012500000 0.113700002
v 0.013448528 0.011300000 0.112851471
v 0.013448528 0.012148528 0.113700002
v 0.013800000 0.011300000 0.113700002
v 0.012600000 0.012500000 0.123300001
v 0.012600000 0.011300000 0.124499999
v 0.012600000 0.012148528 0.124148525
v 0.013448528 0.012148528 0.123300001
v 0.013448528 0.011300000 0.124148525
v 0.013800000 0.011300000 0.123300001
f 1 4 3
f 1 2 4
f 1 3 6
f 3 4 5
f 3 19 6
f 3 5 20
f 20 5 13
f 20 13 15
f 3 20 19
f 6 19 21
f 1 22 2
f 1 6 22
f 22 8 2
f 22 17 8
f 22 18 17
f 6 21 25
f 20 15 41
f 19 20 55
f 19 55 21
f 6 23 22
f 6 25 23
f 22 23 24
f 23 26 24
f 23 25 26
f 24 26 27
f 22 49 18
f 22 24 51
f 24 27 51
f 21 61 25
f 25 61 26
f 26 63 27
f 27 63 53
f 20 41 46
f 49 45 18
f 31 30 28
f 29 31 28
f 29 33 31
f 29 28 35
f 31 46 30
f 46 32 30
f 31 33 47
f 46 40 32
f 46 41 40
f 31 47 46
f 33 48 47
f 29 49 33
f 29 35 49
f 49 35 44
f 49 44 45
f 33 52 48
f 20 46 67
f 46 47 67
f 47 48 68
f 48 52 69
f 22 51 49
f 27 53 51
f 33 49 50
f 33 50 52
f 49 51 50
f 50 51 54
f 50 54 52
f 51 53 54
f 52 54 73
f 53 74 54
f 20 56 55
f 21 55 57
f 21 57 61
f 20 67 56
f 55 56 58
f 55 59 57
f 55 58 59
f 58 60 59
f 57 59 61
f 59 60 64
f 56 70 58
f 58 72 60
f 60 72 66
f 26 61 62
f 26 62 63
f 59 64 61
f 60 66 64
f 61 64 62
f 62 65 63
f 62 64 65
f 64 66 65
f 63 65 74
f 65 66 78
f 47 68 67
f 48 69 68
f 56 67 70
f 58 70 72
f 67 68 70
f 68 69 71
f 68 71 70
f 70 71 72
f 69 76 71
f 71 78 72
f 53 63 74
f 52 73 69
f 54 75 73
f 54 74 75
f 66 72 78
f 65 77 74
f 65 78 77
f 69 73 76
f 71 76 78
f 73 75 76
f 74 77 75
f 75 77 76
f 76 77 78
f 9 4 2
f 7 5 4
f 9 7 4
f 9 14 7
f 9 2 8
f 9 8 10
f 10 8 17
f 9 10 14
f 10 17 11
f 10 11 12
f 7 13 5
f 7 14 13
f 14 15 13
f 14 16 15
f 14 12 16
f 14 10 12
f 11 17 18
f 11 18 38
f 11 39 12
f 16 41 15
f 16 12 39
f 11 38 39
f 16 43 41
f 16 39 43
f 38 18 45
f 36 28 34
f 34 30 32
f 34 28 30
f 34 42 37
f 36 35 28
f 36 44 35
f 36 37 44
f 36 34 37
f 37 38 44
f 37 39 38
f 34 32 42
f 42 32 40
f 43 40 41
f 42 40 43
f 42 43 37
f 43 39 37
f 38 45 44
