# mf_distal.obj  (180 v, 360 f)  units: metres
v -0.009227051 -0.013450000 0.104436643
v -0.009653170 -0.013450000 0.105272949
v -0.009227051 -0.011450000 0.104436643
v -0.009653170 -0.011450000 0.105272949
v -0.008563356 -0.013450000 0.103772946
v -0.007727051 -0.013450000 0.103346832
v -0.008563356 -0.011450000 0.103772946
v -0.007727051 -0.011450000 0.103346832
v -0.009800000 -0.013450000 0.106200002
v -0.009800000 -0.011450000 0.106200002
v -0.006800000 -0.013450000 0.103200004
v -0.006800000 -0.011450000 0.103200004
v -0.004200000 -0.013450000 0.103200004
v -0.004200000 -0.011450000 0.103200004
v -0.002819078 -0.011450000 0.108473942
v -0.002819078 -0.009750000 0.108473942
v -0.002009918 -0.013450000 0.103372365
v -0.002009918 -0.011450000 0.103372365
v -0.001500000 -0.011450000 0.106901921
v -0.002298133 -0.011450000 0.107571639
v -0.000520945 -0.011450000 0.106545575
v -0.001500000 -0.009750000 0.106901921
v -0.002298133 -0.009750000 0.107571639
v -0.000520945 -0.009750000 0.106545575
v -0.003000000 -0.011450000 0.109499998
v -0.002819078 -0.011450000 0.110526063
v -0.003000000 -0.009750000 0.109499998
v -0.002819078 -0.009750000 0.110526063
v -0.002298133 -0.011450000 0.111428365
v -0.001500000 -0.011450000 0.112098075
v -0.000520945 -0.011450000 0.112454422
v -0.002298133 -0.009750000 0.111428365
v -0.001500000 -0.009750000 0.112098075
v -0.000520945 -0.009750000 0.112454422
v -0.009800000 -0.011450000 0.119199999
v -0.009800000 -0.011050000 0.119199999
v -0.009800000 -0.011050000 0.120899998
v -0.009800000 -0.013450000 0.125200003
v -0.000866025 -0.000500000 0.120899998
v -0.000500000 -0.000866025 0.120899998
v -0.000000000 -0.001000000 0.120899998
v -0.000866025 -0.000500000 0.125200003
v -0.000500000 -0.000866025 0.125200003
v -0.000000000 -0.001000000 0.125200003
v -0.009227051 0.011250000 0.104436643
v -0.009653170 0.011250000 0.105272949
v -0.009227051 0.013450000 0.104436643
v -0.009653170 0.013450000 0.105272949
v -0.008563356 0.011250000 0.103772946
v -0.007727051 0.011250000 0.103346832
v -0.008563356 0.013450000 0.103772946
v -0.007727051 0.013450000 0.103346832
v -0.009800000 0.011250000 0.106200002
v -0.009800000 0.013450000 0.106200002
v -0.006800000 0.011250000 0.103200004
v -0.006800000 0.013450000 0.103200004
v -0.004200000 0.011250000 0.103200004
v -0.004200000 0.013450000 0.103200004
v -0.003074265 0.010450000 0.107266419
v -0.003074265 0.011250000 0.107266419
v -0.003614015 0.010450000 0.108325735
v -0.003614015 0.011250000 0.108325735
v -0.002009918 0.011250000 0.103372365
v -0.002009918 0.013450000 0.103372365
v -0.001174265 0.010450000 0.105885983
v -0.001174265 0.011250000 0.105885983
v -0.000000000 0.010450000 0.105700001
v -0.000000000 0.011250000 0.105700001
v -0.002233584 0.010450000 0.106425732
v -0.002233584 0.011250000 0.106425732
v -0.003800000 0.010450000 0.109499998
v -0.003800000 0.011250000 0.109499998
v -0.003614015 0.010450000 0.110674262
v -0.003614015 0.011250000 0.110674262
v -0.003074265 0.010450000 0.111733586
v -0.003074265 0.011250000 0.111733586
v -0.002233584 0.010450000 0.112574264
v -0.002233584 0.011250000 0.112574264
v -0.001174265 0.010450000 0.113114014
v -0.001174265 0.011250000 0.113114014
v -0.000000000 0.010450000 0.113300003
v -0.000000000 0.011250000 0.113300003
v -0.009800000 0.011250000 0.120899998
v -0.009800000 0.013450000 0.125200003
v -0.001000000 0.000000000 0.120899998
v -0.000866025 0.000500000 0.120899998
v -0.000500000 0.000866025 0.120899998
v -0.000000000 0.001000000 0.120899998
v -0.001000000 0.000000000 0.125200003
v -0.000866025 0.000500000 0.125200003
v -0.000500000 0.000866025 0.125200003
v -0.000000000 0.001000000 0.125200003
v 0.000126238 -0.013450000 0.103885211
v 0.000126238 -0.011450000 0.103885211
v 0.002155867 -0.013450000 0.104725912
v 0.002155867 -0.011450000 0.104725912
v 0.000520945 -0.011450000 0.106545575
v 0.001500000 -0.011450000 0.106901921
v 0.002298133 -0.011450000 0.107571639
v 0.000520945 -0.009750000 0.106545575
v 0.001500000 -0.009750000 0.106901921
v 0.002298133 -0.009750000 0.107571639
v 0.004028994 -0.013450000 0.105873764
v 0.004028994 -0.011450000 0.105873764
v 0.002819078 -0.011450000 0.108473942
v 0.002819078 -0.009750000 0.108473942
v 0.002298133 -0.011450000 0.111428365
v 0.000520945 -0.011450000 0.112454422
v 0.001500000 -0.011450000 0.112098075
v 0.002298133 -0.009750000 0.111428365
v 0.000520945 -0.009750000 0.112454422
v 0.001500000 -0.009750000 0.112098075
v 0.003000000 -0.011450000 0.109499998
v 0.002819078 -0.011450000 0.110526063
v 0.003000000 -0.009750000 0.109499998
v 0.002819078 -0.009750000 0.110526063
v 0.005699495 -0.013450000 0.107300505
v 0.005699495 -0.011450000 0.107300505
v 0.007126238 -0.013450000 0.108971007
v 0.007126238 -0.011450000 0.108971007
v 0.008274091 -0.013450000 0.110844135
v 0.008274091 -0.011450000 0.110844135
v 0.009114792 -0.013450000 0.112873763
v 0.009114792 -0.011450000 0.112873763
v 0.000500000 -0.000866025 0.120899998
v 0.000866025 -0.000500000 0.120899998
v 0.000500000 -0.000866025 0.125200003
v 0.000866025 -0.000500000 0.125200003
v 0.009627637 -0.013450000 0.115009919
v 0.009627637 -0.011450000 0.115009919
v 0.009800000 -0.013450000 0.117200002
v 0.009800000 -0.011450000 0.117200002
v 0.009800000 -0.011450000 0.119199999
v 0.009800000 -0.011050000 0.119199999
v 0.009800000 -0.011050000 0.120899998
v 0.009800000 -0.013450000 0.125200003
v 0.000126238 0.011250000 0.103885211
v 0.001174265 0.010450000 0.105885983
v 0.001174265 0.011250000 0.105885983
v 0.000126238 0.013450000 0.103885211
v 0.002155867 0.011250000 0.104725912
v 0.002155867 0.013450000 0.104725912
v 0.002233584 0.010450000 0.106425732
v 0.002233584 0.011250000 0.106425732
v 0.004028994 0.011250000 0.105873764
v 0.004028994 0.013450000 0.105873764
v 0.003074265 0.010450000 0.107266419
v 0.003074265 0.011250000 0.107266419
v 0.003614015 0.010450000 0.108325735
v 0.003614015 0.011250000 0.108325735
v 0.001174265 0.010450000 0.113114014
v 0.001174265 0.011250000 0.113114014
v 0.002233584 0.010450000 0.112574264
v 0.002233584 0.011250000 0.112574264
v 0.003614015 0.010450000 0.110674262
v 0.003614015 0.011250000 0.110674262
v 0.003800000 0.010450000 0.109499998
v 0.003800000 0.011250000 0.109499998
v 0.003074265 0.010450000 0.111733586
v 0.003074265 0.011250000 0.111733586
v 0.005699495 0.011250000 0.107300505
v 0.005699495 0.013450000 0.107300505
v 0.007126238 0.011250000 0.108971007
v 0.007126238 0.013450000 0.108971007
v 0.008274091 0.011250000 0.110844135
v 0.008274091 0.013450000 0.110844135
v 0.009114792 0.011250000 0.112873763
v 0.009114792 0.013450000 0.112873763
v 0.000500000 0.000866025 0.120899998
v 0.000866025 0.000500000 0.120899998
v 0.001000000 0.000000000 0.120899998
v 0.000500000 0.000866025 0.125200003
v 0.000866025 0.000500000 0.125200003
v 0.001000000 0.000000000 0.125200003
v 0.009627637 0.011250000 0.115009919
v 0.009627637 0.013450000 0.115009919
v 0.009800000 0.011250000 0.117200002
v 0.009800000 0.013450000 0.117200002
v 0.009800000 0.011250000 0.120899998
v 0.009800000 0.013450000 0.125200003
f 1 5 2
f 2 5 6
f 1 7 5
f 1 3 7
f 2 3 1
f 9 4 2
f 2 4 3
f 9 10 4
f 2 6 9
f 5 8 6
f 9 6 11
f 5 7 8
f 6 8 12
f 10 15 4
f 6 12 11
f 9 11 13
f 4 20 3
f 3 20 7
f 20 8 7
f 11 12 13
f 13 12 14
f 20 12 8
f 4 15 20
f 10 25 15
f 10 9 35
f 13 38 9
f 35 26 10
f 13 17 38
f 26 25 10
f 35 29 26
f 20 14 12
f 13 14 18
f 13 18 17
f 19 18 14
f 19 14 20
f 15 23 20
f 15 16 23
f 17 18 94
f 21 18 19
f 17 94 93
f 21 94 18
f 20 22 19
f 20 23 22
f 19 22 24
f 19 24 21
f 21 24 100
f 110 22 23
f 38 17 93
f 38 93 95
f 25 16 15
f 25 27 16
f 26 27 25
f 26 28 27
f 29 28 26
f 29 32 28
f 30 32 29
f 30 33 32
f 95 103 38
f 38 103 117
f 31 33 30
f 31 34 33
f 108 34 31
f 110 23 16
f 16 27 110
f 110 27 28
f 110 28 32
f 33 110 32
f 35 9 38
f 35 38 36
f 36 38 37
f 37 38 83
f 38 42 84
f 30 29 35
f 35 31 30
f 35 108 31
f 36 134 35
f 135 36 37
f 37 41 135
f 37 85 39
f 39 40 37
f 37 86 85
f 37 40 41
f 38 43 42
f 38 44 43
f 38 127 44
f 43 40 39
f 42 39 85
f 44 41 40
f 42 85 89
f 43 39 42
f 44 40 43
f 45 51 49
f 45 47 51
f 51 47 48
f 48 52 51
f 46 47 45
f 53 48 46
f 46 48 47
f 53 54 48
f 54 56 48
f 49 52 50
f 49 51 52
f 48 56 52
f 50 52 56
f 60 53 46
f 45 49 60
f 60 46 45
f 50 60 49
f 50 56 55
f 54 58 56
f 55 60 50
f 56 57 55
f 58 57 56
f 62 53 60
f 53 62 72
f 53 84 54
f 53 72 83
f 84 58 54
f 64 58 84
f 72 74 83
f 57 70 55
f 55 70 60
f 63 66 57
f 57 66 70
f 57 58 64
f 57 64 63
f 70 69 59
f 70 59 60
f 60 59 61
f 59 71 61
f 60 61 62
f 63 64 140
f 137 68 63
f 63 68 66
f 68 65 66
f 68 67 65
f 63 140 137
f 66 69 70
f 66 65 69
f 69 65 67
f 69 143 59
f 67 138 69
f 62 61 71
f 72 71 73
f 62 71 72
f 72 73 74
f 84 140 64
f 59 73 71
f 75 73 59
f 74 73 75
f 74 75 76
f 59 77 75
f 84 142 140
f 76 75 77
f 76 77 78
f 59 79 77
f 81 79 59
f 59 151 81
f 78 77 79
f 78 79 80
f 80 79 81
f 80 81 82
f 146 142 84
f 84 162 146
f 83 38 84
f 83 86 37
f 83 84 53
f 83 74 76
f 83 76 78
f 83 87 86
f 88 87 83
f 83 169 88
f 84 42 89
f 84 89 90
f 90 91 84
f 84 91 92
f 89 85 86
f 90 86 87
f 91 87 88
f 89 86 90
f 90 87 91
f 91 88 92
f 78 80 83
f 83 80 82
f 83 82 179
f 84 92 180
f 93 94 96
f 97 94 21
f 97 96 94
f 93 96 95
f 21 100 97
f 97 100 101
f 97 101 98
f 98 96 97
f 98 101 102
f 98 102 99
f 110 24 22
f 100 24 110
f 110 101 100
f 106 102 101
f 116 106 101
f 95 96 104
f 95 104 103
f 98 104 96
f 99 104 98
f 99 102 106
f 99 106 105
f 105 118 99
f 103 104 118
f 99 118 104
f 38 117 119
f 108 111 34
f 109 111 108
f 109 112 111
f 107 112 109
f 107 110 112
f 116 101 110
f 34 110 33
f 111 112 34
f 34 112 110
f 105 115 113
f 105 106 115
f 113 115 116
f 113 116 114
f 114 110 107
f 114 116 110
f 113 120 105
f 114 122 113
f 115 106 116
f 103 118 117
f 105 120 118
f 117 120 119
f 117 118 120
f 113 122 120
f 114 124 122
f 107 130 114
f 130 124 114
f 119 120 122
f 119 122 121
f 121 122 124
f 121 124 123
f 123 124 130
f 119 121 38
f 133 108 35
f 38 121 123
f 133 109 108
f 107 109 133
f 38 123 129
f 131 38 129
f 35 134 133
f 136 127 38
f 134 36 135
f 131 136 38
f 127 125 41
f 128 126 125
f 174 171 126
f 127 41 44
f 128 125 127
f 174 126 128
f 135 41 125
f 135 125 126
f 135 126 171
f 136 128 127
f 136 174 128
f 107 132 130
f 133 132 107
f 123 130 129
f 129 132 131
f 129 130 132
f 131 132 136
f 136 132 133
f 134 136 133
f 135 136 134
f 135 180 136
f 137 139 68
f 139 67 68
f 139 138 67
f 141 139 137
f 137 140 142
f 141 144 139
f 137 142 141
f 69 138 143
f 59 143 147
f 59 147 149
f 144 138 139
f 144 143 138
f 149 157 59
f 145 144 141
f 141 142 146
f 141 146 145
f 148 147 143
f 148 143 144
f 145 148 144
f 150 148 145
f 150 149 147
f 150 147 148
f 161 150 145
f 158 150 161
f 145 146 162
f 59 155 159
f 153 151 59
f 59 159 153
f 157 155 59
f 82 81 151
f 82 151 152
f 84 164 162
f 152 153 154
f 152 151 153
f 160 159 155
f 160 155 156
f 158 157 149
f 158 149 150
f 156 157 158
f 156 155 157
f 154 153 159
f 154 159 160
f 161 163 158
f 145 162 161
f 161 164 163
f 161 162 164
f 158 165 156
f 158 163 165
f 156 167 160
f 160 177 154
f 156 165 167
f 160 167 175
f 163 164 166
f 163 166 165
f 165 166 168
f 165 168 167
f 167 168 176
f 92 88 169
f 173 170 171
f 172 169 170
f 92 169 172
f 172 170 173
f 173 171 174
f 171 170 179
f 179 170 169
f 180 92 172
f 172 173 180
f 180 173 174
f 166 164 84
f 152 179 82
f 84 168 166
f 154 179 152
f 84 176 168
f 178 176 84
f 179 169 83
f 84 180 178
f 135 171 179
f 180 174 136
f 179 180 135
f 154 177 179
f 160 175 177
f 167 176 175
f 175 178 177
f 175 176 178
f 177 178 179
f 179 178 180
