# mf_distal_shaft.obj  (96 v, 184 f)  units: metres
v -0.001767767 -0.013450000 0.107732236
v -0.001767767 -0.009750000 0.107732236
v -0.002414815 -0.013450000 0.108852953
v -0.002165064 -0.013450000 0.108250000
v -0.002414815 -0.009750000 0.108852953
v -0.002165064 -0.009750000 0.108250000
v -0.001250000 -0.013450000 0.107334934
v -0.000647048 -0.013450000 0.107085183
v -0.001250000 -0.009750000 0.107334934
v -0.000647048 -0.009750000 0.107085183
v -0.002500000 -0.013450000 0.109499998
v -0.002414815 -0.013450000 0.110147044
v -0.002500000 -0.009750000 0.109499998
v -0.002414815 -0.009750000 0.110147044
v -0.002165064 -0.013450000 0.110749997
v -0.002165064 -0.009750000 0.110749997
v -0.001767767 -0.013450000 0.111267768
v -0.001767767 -0.009750000 0.111267768
v -0.001250000 -0.013450000 0.111665063
v -0.000647048 -0.013450000 0.111914814
v -0.001250000 -0.009750000 0.111665063
v -0.000647048 -0.009750000 0.111914814
v -0.001767767 0.010450000 0.107732236
v -0.001767767 0.013450000 0.107732236
v -0.002414815 0.010450000 0.108852953
v -0.002414815 0.013450000 0.108852953
v -0.002165064 0.010450000 0.108250000
v -0.002165064 0.013450000 0.108250000
v -0.001250000 0.010450000 0.107334934
v -0.001250000 0.013450000 0.107334934
v -0.000647048 0.010450000 0.107085183
v -0.000647048 0.013450000 0.107085183
v -0.002500000 0.010450000 0.109499998
v -0.002500000 0.013450000 0.109499998
v -0.002414815 0.010450000 0.110147044
v -0.002414815 0.013450000 0.110147044
v -0.002165064 0.010450000 0.110749997
v -0.002165064 0.013450000 0.110749997
v -0.001767767 0.010450000 0.111267768
v -0.001767767 0.013450000 0.111267768
v -0.001250000 0.010450000 0.111665063
v -0.001250000 0.013450000 0.111665063
v -0.000647048 0.010450000 0.111914814
v -0.000647048 0.013450000 0.111914814
v 0.000000000 -0.013450000 0.107000001
v 0.000000000 -0.009750000 0.107000001
v 0.000647048 -0.013450000 0.107085183
v 0.000647048 -0.009750000 0.107085183
v 0.001250000 -0.013450000 0.107334934
v 0.001767767 -0.013450000 0.107732236
v 0.001250000 -0.009750000 0.107334934
v 0.001767767 -0.009750000 0.107732236
v 0.002165064 -0.013450000 0.108250000
v 0.002414815 -0.013450000 0.108852953
v 0.002165064 -0.009750000 0.108250000
v 0.002414815 -0.009750000 0.108852953
v 0.000000000 -0.013450000 0.112000003
v 0.000000000 -0.009750000 0.112000003
v 0.000647048 -0.013450000 0.111914814
v 0.000647048 -0.009750000 0.111914814
v 0.002500000 -0.013450000 0.109499998
v 0.002414815 -0.013450000 0.110147044
v 0.002500000 -0.009750000 0.109499998
v 0.002414815 -0.009750000 0.110147044
v 0.001767767 -0.013450000 0.111267768
v 0.001250000 -0.013450000 0.111665063
v 0.001767767 -0.009750000 0.111267768
v 0.001250000 -0.009750000 0.111665063
v 0.002165064 -0.013450000 0.110749997
v 0.002165064 -0.009750000 0.110749997
v 0.000000000 0.010450000 0.107000001
v 0.000000000 0.013450000 0.107000001
v 0.000647048 0.010450000 0.107085183
v 0.000647048 0.013450000 0.107085183
v 0.001250000 0.010450000 0.107334934
v 0.001250000 0.013450000 0.107334934
v 0.001767767 0.010450000 0.107732236
v 0.001767767 0.013450000 0.107732236
v 0.002165064 0.010450000 0.108250000
v 0.002165064 0.013450000 0.108250000
v 0.002414815 0.010450000 0.108852953
v 0.002414815 0.013450000 0.108852953
v 0.000000000 0.010450000 0.112000003
v 0.000000000 0.013450000 0.112000003
v 0.000647048 0.010450000 0.111914814
v 0.000647048 0.013450000 0.111914814
v 0.002500000 0.010450000 0.109499998
v 0.002500000 0.013450000 0.109499998
v 0.002414815 0.010450000 0.110147044
v 0.002414815 0.013450000 0.110147044
v 0.001767767 0.010450000 0.111267768
v 0.001767767 0.013450000 0.111267768
v 0.001250000 0.010450000 0.111665063
v 0.001250000 0.013450000 0.111665063
v 0.002165064 0.010450000 0.110749997
v 0.002165064 0.013450000 0.110749997
f 12 7 8
f 11 3 4
f 11 4 1
f 1 12 11
f 7 12 1
f 15 12 8
f 15 8 45
f 2 6 67
f 6 5 67
f 17 45 47
f 9 2 67
f 9 67 10
f 17 15 45
f 17 47 19
f 5 13 67
f 13 14 67
f 20 19 50
f 14 16 68
f 16 18 68
f 18 21 68
f 21 22 68
f 24 34 30
f 36 32 30
f 26 34 24
f 26 24 28
f 34 36 30
f 36 38 32
f 29 31 73
f 23 29 75
f 38 72 32
f 27 23 81
f 40 74 72
f 41 33 25
f 35 33 39
f 39 37 35
f 25 27 85
f 38 40 72
f 41 39 33
f 43 41 25
f 42 76 40
f 93 85 27
f 42 44 78
f 43 25 83
f 83 25 85
f 19 47 49
f 19 49 50
f 46 10 67
f 20 50 53
f 48 46 67
f 48 67 51
f 52 51 67
f 64 55 52
f 63 56 55
f 63 55 64
f 20 53 57
f 67 14 68
f 22 58 60
f 60 68 22
f 57 54 59
f 57 53 54
f 65 66 54
f 65 54 61
f 69 65 61
f 69 61 62
f 70 64 52
f 67 70 52
f 66 59 54
f 31 71 73
f 29 73 75
f 75 77 23
f 77 79 23
f 40 76 74
f 42 78 76
f 79 81 23
f 87 27 81
f 89 27 87
f 44 80 78
f 95 91 27
f 93 27 91
f 89 95 27
f 84 82 44
f 84 86 96
f 86 94 92
f 80 44 82
f 84 88 82
f 84 90 88
f 84 96 90
f 86 92 96
f 4 2 1
f 4 6 2
f 9 1 2
f 9 7 1
f 3 6 4
f 3 5 6
f 11 5 3
f 11 13 5
f 7 9 10
f 7 10 8
f 8 10 46
f 8 46 45
f 11 12 13
f 12 14 13
f 15 14 12
f 15 16 14
f 17 16 15
f 17 18 16
f 17 19 18
f 19 21 18
f 20 21 19
f 20 22 21
f 20 57 22
f 57 58 22
f 24 23 27
f 24 27 28
f 24 30 23
f 30 29 23
f 28 27 25
f 28 25 26
f 26 25 33
f 26 33 34
f 32 29 30
f 32 31 29
f 72 31 32
f 72 71 31
f 34 33 35
f 34 35 36
f 36 35 37
f 36 37 38
f 38 37 39
f 38 39 40
f 40 39 41
f 41 42 40
f 43 42 41
f 42 43 44
f 43 83 44
f 83 84 44
f 45 46 48
f 45 48 47
f 47 48 51
f 49 47 51
f 49 51 52
f 49 52 50
f 50 55 53
f 50 52 55
f 54 53 56
f 53 55 56
f 61 54 63
f 54 56 63
f 57 59 58
f 59 60 58
f 66 60 59
f 66 68 60
f 62 61 64
f 61 63 64
f 62 70 69
f 62 64 70
f 65 68 66
f 65 67 68
f 69 67 65
f 69 70 67
f 74 71 72
f 74 73 71
f 74 76 73
f 76 75 73
f 78 75 76
f 78 77 75
f 80 79 77
f 80 77 78
f 82 81 79
f 80 82 79
f 87 81 88
f 88 81 82
f 83 85 84
f 84 85 86
f 86 85 93
f 86 93 94
f 89 87 90
f 90 87 88
f 96 95 89
f 96 89 90
f 94 93 91
f 94 91 92
f 92 91 95
f 92 95 96
