# mf_medial_shaft.obj  (96 v, 184 f)  units: metres
v -0.001767767 -0.013550000 0.069332235
v -0.001767767 -0.009850000 0.069332235
v -0.002414815 -0.013550000 0.070452951
v -0.002165064 -0.013550000 0.069849998
v -0.002414815 -0.009850000 0.070452951
v -0.002165064 -0.009850000 0.069849998
v -0.001250000 -0.013550000 0.068934940
v -0.000647048 -0.013550000 0.068685189
v -0.001250000 -0.009850000 0.068934940
v -0.000647048 -0.009850000 0.068685189
v -0.002500000 -0.013550000 0.071099997
v -0.002414815 -0.013550000 0.071747050
v -0.002500000 -0.009850000 0.071099997
v -0.002414815 -0.009850000 0.071747050
v -0.002165064 -0.013550000 0.072350003
v -0.002165064 -0.009850000 0.072350003
v -0.001767767 -0.013550000 0.072867766
v -0.001767767 -0.009850000 0.072867766
v -0.001250000 -0.013550000 0.073265061
v -0.000647048 -0.013550000 0.073514812
v -0.001250000 -0.009850000 0.073265061
v -0.000647048 -0.009850000 0.073514812
v -0.001767767 0.010450000 0.069332235
v -0.001767767 0.013450000 0.069332235
v -0.002414815 0.010450000 0.070452951
v -0.002414815 0.013450000 0.070452951
v -0.002165064 0.010450000 0.069849998
v -0.002165064 0.013450000 0.069849998
v -0.001250000 0.010450000 0.068934940
v -0.001250000 0.013450000 0.068934940
v -0.000647048 0.010450000 0.068685189
v -0.000647048 0.013450000 0.068685189
v -0.002500000 0.010450000 0.071099997
v -0.002500000 0.013450000 0.071099997
v -0.002414815 0.010450000 0.071747050
v -0.002414815 0.013450000 0.071747050
v -0.002165064 0.010450000 0.072350003
v -0.002165064 0.013450000 0.072350003
v -0.001767767 0.010450000 0.072867766
v -0.001767767 0.013450000 0.072867766
v -0.001250000 0.010450000 0.073265061
v -0.001250000 0.013450000 0.073265061
v -0.000647048 0.010450000 0.073514812
v -0.000647048 0.013450000 0.073514812
v 0.000000000 -0.013550000 0.068599999
v 0.000000000 -0.009850000 0.068599999
v 0.000647048 -0.013550000 0.068685189
v 0.000647048 -0.009850000 0.068685189
v 0.001250000 -0.013550000 0.068934940
v 0.001767767 -0.013550000 0.069332235
v 0.001250000 -0.009850000 0.068934940
v 0.001767767 -0.009850000 0.069332235
v 0.002165064 -0.013550000 0.069849998
v 0.002414815 -0.013550000 0.070452951
v 0.002165064 -0.009850000 0.069849998
v 0.002414815 -0.009850000 0.070452951
v 0.000000000 -0.013550000 0.073600002
v 0.000000000 -0.009850000 0.073600002
v 0.000647048 -0.013550000 0.073514812
v 0.000647048 -0.009850000 0.073514812
v 0.002500000 -0.013550000 0.071099997
v 0.002414815 -0.013550000 0.071747050
v 0.002500000 -0.009850000 0.071099997
v 0.002414815 -0.009850000 0.071747050
v 0.001767767 -0.013550000 0.072867766
v 0.001250000 -0.013550000 0.073265061
v 0.001767767 -0.009850000 0.072867766
v 0.001250000 -0.009850000 0.073265061
v 0.002165064 -0.013550000 0.072350003
v 0.002165064 -0.009850000 0.072350003
v 0.000000000 0.010450000 0.068599999
v 0.000000000 0.013450000 0.068599999
v 0.000647048 0.010450000 0.068685189
v 0.000647048 0.013450000 0.068685189
v 0.001250000 0.010450000 0.068934940
v 0.001250000 0.013450000 0.068934940
v 0.001767767 0.010450000 0.069332235
v 0.001767767 0.013450000 0.069332235
v 0.002165064 0.010450000 0.069849998
v 0.002165064 0.013450000 0.069849998
v 0.002414815 0.010450000 0.070452951
v 0.002414815 0.013450000 0.070452951
v 0.000000000 0.010450000 0.073600002
v 0.000000000 0.013450000 0.073600002
v 0.000647048 0.010450000 0.073514812
v 0.000647048 0.013450000 0.073514812
v 0.002500000 0.010450000 0.071099997
v 0.002500000 0.013450000 0.071099997
v 0.002414815 0.010450000 0.071747050
v 0.002414815 0.013450000 0.071747050
v 0.001767767 0.010450000 0.072867766
v 0.001767767 0.013450000 0.072867766
v 0.001250000 0.010450000 0.073265061
v 0.001250000 0.013450000 0.073265061
v 0.002165064 0.010450000 0.072350003
v 0.002165064 0.013450000 0.072350003
f 2 6 10
f 6 5 48
f 5 13 48
f 13 14 48
f 14 16 48
f 9 2 10
f 46 10 6
f 48 46 6
f 4 1 59
f 1 7 59
f 7 8 59
f 51 48 16
f 3 4 59
f 11 3 59
f 12 11 59
f 15 12 59
f 16 18 56
f 18 21 56
f 17 15 59
f 19 17 57
f 19 57 20
f 17 59 57
f 38 28 26
f 28 44 24
f 27 23 77
f 29 31 73
f 23 29 77
f 25 27 79
f 33 25 79
f 35 33 79
f 30 24 92
f 36 26 34
f 36 38 26
f 38 40 28
f 40 42 28
f 42 44 28
f 37 35 79
f 84 24 44
f 39 37 87
f 24 84 86
f 41 39 87
f 61 8 45
f 45 47 53
f 47 49 50
f 52 51 16
f 55 52 16
f 56 55 16
f 47 50 53
f 45 53 54
f 61 45 54
f 62 8 61
f 62 69 8
f 66 59 8
f 65 66 8
f 69 65 8
f 21 22 56
f 22 58 56
f 58 60 56
f 60 63 56
f 67 70 63
f 70 64 63
f 68 63 60
f 68 67 63
f 31 71 73
f 29 73 75
f 77 29 75
f 27 77 79
f 32 90 72
f 74 72 88
f 32 30 96
f 79 81 37
f 76 74 88
f 82 78 76
f 32 96 90
f 88 72 90
f 82 80 78
f 76 88 82
f 24 86 94
f 24 94 92
f 87 37 81
f 30 92 96
f 43 41 87
f 43 87 83
f 83 89 85
f 83 87 89
f 93 85 89
f 93 95 91
f 93 89 95
f 4 2 1
f 2 4 6
f 9 1 2
f 9 7 1
f 3 6 4
f 6 3 5
f 5 3 11
f 5 11 13
f 7 9 10
f 10 8 7
f 46 8 10
f 46 45 8
f 13 11 12
f 13 12 14
f 14 12 15
f 14 15 16
f 17 16 15
f 16 17 18
f 18 17 19
f 18 19 21
f 20 21 19
f 20 22 21
f 20 57 22
f 57 58 22
f 27 24 23
f 27 28 24
f 23 24 30
f 23 30 29
f 25 28 27
f 25 26 28
f 33 26 25
f 26 33 34
f 32 29 30
f 29 32 31
f 31 32 72
f 31 72 71
f 35 34 33
f 35 36 34
f 37 36 35
f 36 37 38
f 39 38 37
f 39 40 38
f 41 40 39
f 40 41 42
f 43 42 41
f 43 44 42
f 43 83 44
f 83 84 44
f 48 45 46
f 45 48 47
f 47 48 51
f 47 51 49
f 49 51 52
f 49 52 50
f 50 55 53
f 50 52 55
f 53 56 54
f 53 55 56
f 61 54 63
f 54 56 63
f 57 59 58
f 59 60 58
f 66 60 59
f 66 68 60
f 62 61 64
f 61 63 64
f 62 70 69
f 62 64 70
f 65 68 66
f 65 67 68
f 69 67 65
f 69 70 67
f 71 72 74
f 71 74 73
f 73 74 76
f 73 76 75
f 75 76 78
f 78 77 75
f 77 80 79
f 80 77 78
f 79 82 81
f 82 79 80
f 87 81 88
f 81 82 88
f 83 85 84
f 85 86 84
f 93 86 85
f 93 94 86
f 89 87 90
f 88 90 87
f 89 96 95
f 96 89 90
f 91 94 93
f 91 92 94
f 95 92 91
f 95 96 92
