# mf_medial.obj  (708 v, 1412 f)  units: metres
v -0.009571639 -0.013550000 0.066651948
v -0.009800000 -0.013550000 0.067800000
v -0.008921321 -0.013550000 0.065678678
v -0.009571639 -0.011550000 0.066651948
v -0.009800000 -0.011550000 0.067800000
v -0.008921321 -0.011550000 0.065678678
v -0.007948050 -0.013550000 0.065028362
v -0.007948050 -0.011550000 0.065028362
v -0.006800000 -0.013550000 0.064800002
v -0.006800000 -0.011550000 0.064800002
v -0.009800000 -0.011550000 0.080799997
v -0.009800000 -0.011150000 0.080799997
v -0.009571639 -0.011150000 0.084351949
v -0.008921321 -0.011150000 0.083378680
v -0.007948050 -0.011150000 0.082728364
v -0.009800000 -0.011150000 0.085500002
v -0.006800000 -0.011150000 0.082500003
v -0.004200000 -0.013550000 0.064800002
v -0.004200000 -0.011550000 0.064800002
v -0.002934443 -0.011550000 0.070476264
v -0.002934443 -0.011550000 0.071723737
v -0.002934443 -0.009850000 0.070476264
v -0.002934443 -0.009850000 0.071723737
v -0.001468736 -0.013550000 0.065069005
v -0.001468736 -0.011550000 0.065069005
v -0.002427051 -0.011550000 0.069336645
v -0.001500000 -0.011550000 0.068501927
v -0.000313585 -0.011550000 0.068116434
v -0.002427051 -0.011550000 0.072863355
v -0.001500000 -0.011550000 0.073698074
v -0.000313585 -0.011550000 0.074083567
v -0.002427051 -0.009850000 0.069336645
v -0.001500000 -0.009850000 0.068501927
v -0.000313585 -0.009850000 0.068116434
v -0.002427051 -0.009850000 0.072863355
v -0.001500000 -0.009850000 0.073698074
v -0.000313585 -0.009850000 0.074083567
v -0.009800000 -0.013550000 0.096500002
v -0.009555283 -0.013550000 0.098045081
v -0.009800000 -0.010850000 0.096500002
v -0.009555283 -0.010850000 0.098045081
v -0.008845085 -0.013550000 0.099438928
v -0.008845085 -0.010850000 0.099438928
v -0.007738926 -0.013550000 0.100545086
v -0.007738926 -0.010850000 0.100545086
v -0.006345085 -0.013550000 0.101255283
v -0.006345085 -0.010850000 0.101255283
v -0.009800000 -0.010850000 0.113299996
v -0.009555283 -0.010850000 0.114845082
v -0.008845085 -0.010850000 0.116238922
v -0.007738926 -0.010850000 0.117345080
v -0.005459596 -0.011150000 0.108253881
v -0.005045426 -0.011150000 0.107070252
v -0.005459596 -0.010950000 0.108253881
v -0.005452175 -0.010911732 0.108255573
v -0.005431041 -0.010879289 0.108260401
v -0.005399412 -0.010857612 0.108267620
v -0.005294011 -0.010950000 0.107780665
v -0.005045426 -0.010950000 0.107070252
v -0.005038567 -0.010911732 0.107073553
v -0.005019037 -0.010879289 0.107082956
v -0.004989807 -0.010857612 0.107097037
v -0.004955329 -0.010850000 0.107113637
v -0.005600000 -0.011150000 0.109499998
v -0.005600000 -0.010950000 0.109499998
v -0.005592388 -0.010911732 0.109499998
v -0.005570711 -0.010879289 0.109499998
v -0.005538268 -0.010857612 0.109499998
v -0.005459596 -0.011150000 0.110746115
v -0.005362104 -0.010850000 0.108276136
v -0.005500000 -0.010850000 0.109499998
v -0.005459596 -0.010950000 0.110746115
v -0.005452175 -0.010911732 0.110744424
v -0.005431041 -0.010879289 0.110739596
v -0.005399412 -0.010857612 0.110732377
v -0.005362104 -0.010850000 0.110723861
v -0.005294011 -0.010950000 0.111219332
v -0.006345085 -0.010850000 0.118055284
v -0.005045426 -0.011150000 0.111929744
v -0.005045426 -0.010950000 0.111929744
v -0.005019037 -0.010879289 0.111917041
v -0.005038567 -0.010911732 0.111926444
v -0.004989807 -0.010857612 0.111902960
v -0.004955329 -0.010850000 0.111886360
v -0.004800000 -0.013550000 0.101499997
v -0.004800000 -0.010850000 0.101499997
v -0.002429749 -0.011150000 0.104454570
v -0.002429749 -0.010950000 0.104454570
v -0.002426446 -0.010911732 0.104461432
v -0.002417041 -0.010879289 0.104480959
v -0.002402965 -0.010857612 0.104510188
v -0.002386361 -0.010850000 0.104544669
v -0.001246117 -0.011150000 0.104040399
v -0.001719331 -0.010950000 0.104205988
v -0.001246117 -0.010950000 0.104040399
v -0.001244423 -0.010911732 0.104047820
v -0.001239600 -0.010879289 0.104068957
v -0.001232381 -0.010857612 0.104100585
v -0.001223865 -0.010850000 0.104137897
v -0.000000000 -0.011150000 0.103900000
v -0.000000000 -0.010950000 0.103900000
v -0.000000000 -0.010911732 0.103907607
v -0.000000000 -0.010879289 0.103929289
v -0.000000000 -0.010857612 0.103961729
v -0.000000000 -0.010850000 0.104000002
v -0.004378256 -0.011150000 0.106008455
v -0.004511421 -0.010950000 0.106220387
v -0.004378256 -0.010950000 0.106008455
v -0.004372305 -0.010911732 0.106013201
v -0.004355357 -0.010879289 0.106026717
v -0.004329992 -0.010857612 0.106046945
v -0.004300073 -0.010850000 0.106070802
v -0.003491543 -0.011150000 0.105121739
v -0.003491543 -0.010950000 0.105121739
v -0.003486797 -0.010911732 0.105127692
v -0.003473281 -0.010879289 0.105144642
v -0.003453054 -0.010857612 0.105170004
v -0.003429194 -0.010850000 0.105199926
v -0.003279612 -0.010950000 0.104988575
v -0.003031210 -0.011150000 0.108261809
v -0.002939278 -0.011150000 0.108102582
v -0.002545980 -0.011150000 0.107421368
v -0.002529008 -0.011150000 0.107391968
v -0.002512536 -0.011150000 0.107363440
v -0.002510265 -0.011150000 0.107359506
v -0.002581592 -0.011150000 0.107483052
v -0.002563437 -0.011150000 0.107451603
v -0.003119078 -0.011150000 0.108473942
v -0.003070332 -0.011150000 0.108356260
v -0.003083413 -0.011150000 0.108387835
v -0.003300000 -0.011150000 0.109499998
v -0.003276352 -0.011150000 0.109365888
v -0.003268073 -0.011150000 0.109318927
v -0.003155880 -0.011150000 0.110317349
v -0.003151005 -0.011150000 0.110344991
v -0.003119078 -0.011150000 0.110526063
v -0.003032273 -0.011150000 0.110735625
v -0.003031210 -0.011150000 0.110738195
v -0.003013914 -0.011150000 0.110768154
v -0.002602197 -0.011150000 0.111481264
v -0.003062045 -0.010853437 0.108336248
v -0.004378256 -0.011150000 0.112991542
v -0.004511421 -0.010950000 0.112779610
v -0.004378256 -0.010950000 0.112991542
v -0.004372305 -0.010911732 0.112986796
v -0.004355357 -0.010879289 0.112973280
v -0.004329992 -0.010857612 0.112953052
v -0.004300073 -0.010850000 0.112929195
v -0.004800000 -0.010850000 0.118299998
v -0.003491543 -0.011150000 0.113878258
v -0.003491543 -0.010950000 0.113878258
v -0.003486797 -0.010911732 0.113872305
v -0.003473281 -0.010879289 0.113855354
v -0.003453054 -0.010857612 0.113829993
v -0.003429194 -0.010850000 0.113800071
v -0.003279612 -0.010950000 0.114011422
v -0.002510265 -0.011150000 0.111640498
v -0.002506197 -0.011150000 0.111643910
v -0.003031210 -0.009750000 0.108261809
v -0.002510265 -0.009750000 0.107359506
v -0.002510265 -0.009537868 0.107571639
v -0.003119078 -0.009750000 0.108473942
v -0.003300000 -0.009750000 0.109499998
v -0.003212132 -0.009537868 0.109499998
v -0.003119078 -0.009750000 0.110526063
v -0.003031210 -0.009537868 0.108473942
v -0.002819078 -0.009450000 0.108473942
v -0.003000000 -0.009450000 0.109499998
v -0.003031210 -0.009750000 0.110738195
v -0.003031210 -0.009537868 0.110526063
v -0.002819078 -0.009450000 0.110526063
v -0.002770738 -0.009643934 0.111083277
v -0.002510265 -0.009537868 0.111428365
v -0.002510265 -0.009750000 0.111640498
v -0.002422470 -0.011150000 0.107285835
v -0.002369418 -0.011150000 0.107241325
v -0.001327225 -0.011150000 0.106539033
v -0.001712132 -0.011150000 0.106689788
v -0.001668039 -0.011150000 0.106671527
v -0.001540894 -0.011150000 0.106618859
v -0.001500000 -0.011150000 0.106601924
v -0.000641180 -0.011150000 0.106289335
v -0.000520945 -0.011150000 0.106245577
v -0.000447964 -0.011150000 0.106245577
v -0.000337082 -0.011150000 0.106245577
v -0.001852979 -0.011150000 0.112192020
v -0.002429749 -0.011150000 0.114545427
v -0.002417041 -0.010879289 0.114519037
v -0.002402965 -0.010857612 0.114489809
v -0.002386361 -0.010850000 0.114455327
v -0.002429749 -0.010950000 0.114545427
v -0.002426446 -0.010911732 0.114538565
v -0.001730200 -0.011150000 0.112295046
v -0.001712132 -0.011150000 0.112310208
v -0.001674697 -0.011150000 0.112325713
v -0.001500000 -0.011150000 0.112398073
v -0.001719331 -0.010950000 0.114794008
v -0.001244423 -0.010911732 0.114952177
v -0.001239600 -0.010879289 0.114931040
v -0.001232381 -0.010857612 0.114899412
v -0.001246117 -0.011150000 0.114959598
v -0.001246117 -0.010950000 0.114959598
v -0.000795937 -0.011150000 0.112654336
v -0.000693719 -0.011150000 0.112691537
v -0.001223865 -0.010850000 0.114862099
v -0.000520945 -0.011150000 0.112754419
v -0.000000000 -0.011150000 0.115099996
v -0.000000000 -0.010950000 0.115099996
v -0.000000000 -0.010911732 0.115092389
v -0.000000000 -0.010879289 0.115070708
v -0.000000000 -0.010850000 0.115000002
v -0.000000000 -0.010857612 0.115038268
v -0.002298133 -0.009537868 0.107359506
v -0.002298133 -0.009450000 0.107571639
v -0.001712132 -0.009750000 0.106689788
v -0.001500000 -0.009750000 0.106601924
v -0.001500000 -0.009537868 0.106689788
v -0.001500000 -0.009450000 0.106901921
v -0.002298133 -0.009450000 0.111428365
v -0.001010472 -0.009643934 0.106467679
v -0.001010472 -0.009493934 0.106617682
v -0.000520945 -0.009750000 0.106245577
v -0.000520945 -0.009537868 0.106333442
v -0.000520945 -0.009450000 0.106545575
v -0.002298133 -0.009537868 0.111640498
v -0.001712132 -0.009750000 0.112310208
v -0.001500000 -0.009750000 0.112398073
v -0.001500000 -0.009450000 0.112098075
v -0.001500000 -0.009537868 0.112310208
v -0.000520945 -0.009750000 0.112754419
v -0.000520945 -0.009450000 0.112454422
v -0.000520945 -0.009537868 0.112666555
v -0.009571639 0.011250000 0.066651948
v -0.009800000 0.011250000 0.067800000
v -0.008921321 0.011250000 0.065678678
v -0.009571639 0.013450000 0.066651948
v -0.009800000 0.013450000 0.067800000
v -0.008921321 0.013450000 0.065678678
v -0.007948050 0.011250000 0.065028362
v -0.007948050 0.013450000 0.065028362
v -0.006800000 0.011250000 0.064800002
v -0.006800000 0.013450000 0.064800002
v -0.009800000 0.009450000 0.082500003
v -0.009571639 0.009450000 0.084351949
v -0.008921321 0.009450000 0.083378680
v -0.007948050 0.009450000 0.082728364
v -0.009800000 0.009450000 0.085500002
v -0.009800000 0.011250000 0.082500003
v -0.006800000 0.009450000 0.082500003
v -0.004200000 0.011250000 0.064800002
v -0.003800000 0.010450000 0.071099997
v -0.003800000 0.011250000 0.071099997
v -0.004200000 0.013450000 0.064800002
v -0.003510742 0.010450000 0.069645800
v -0.003510742 0.011250000 0.069645800
v -0.002687006 0.010450000 0.068412997
v -0.002687006 0.011250000 0.068412997
v -0.003510742 0.010450000 0.072554193
v -0.003510742 0.011250000 0.072554193
v -0.002687006 0.010450000 0.073787004
v -0.002687006 0.011250000 0.073787004
v -0.001454197 0.010450000 0.067589261
v -0.001468736 0.011250000 0.065069005
v -0.001454197 0.011250000 0.067589261
v -0.001468736 0.013450000 0.065069005
v -0.000000000 0.010450000 0.067299999
v -0.000000000 0.011250000 0.067299999
v -0.001454197 0.010450000 0.074610740
v -0.001454197 0.011250000 0.074610740
v -0.000000000 0.010450000 0.074900001
v -0.000000000 0.011250000 0.074900001
v -0.009800000 0.010950000 0.096500002
v -0.009555283 0.010950000 0.098045081
v -0.009800000 0.013450000 0.096500002
v -0.009555283 0.013450000 0.098045081
v -0.008845085 0.010950000 0.099438928
v -0.008845085 0.013450000 0.099438928
v -0.007738926 0.010950000 0.100545086
v -0.007738926 0.013450000 0.100545086
v -0.006345085 0.010950000 0.101255283
v -0.006345085 0.013450000 0.101255283
v -0.009800000 0.010950000 0.113299996
v -0.009555283 0.010950000 0.114845082
v -0.008845085 0.010950000 0.116238922
v -0.007738926 0.010950000 0.117345080
v -0.006345085 0.010950000 0.118055284
v -0.004800000 0.010950000 0.101499997
v -0.004800000 0.013450000 0.101499997
v -0.003826147 0.010450000 0.108113602
v -0.003826147 0.010950000 0.108113602
v -0.004012132 0.010237868 0.109499998
v -0.004100000 0.010450000 0.109499998
v -0.003914015 0.010450000 0.108325735
v -0.003826147 0.010237868 0.108325735
v -0.003800000 0.010150000 0.109499998
v -0.003914015 0.010450000 0.110674262
v -0.003826147 0.010237868 0.110674262
v -0.003826147 0.010450000 0.110886395
v -0.003891443 0.010821559 0.110728756
v -0.004100000 0.010950000 0.109499998
v -0.003914015 0.010950000 0.108325735
v -0.003914015 0.010950000 0.110674262
v -0.003826147 0.010950000 0.110886395
v -0.003450206 0.010193934 0.107796073
v -0.003286397 0.010237868 0.107266419
v -0.003286397 0.010450000 0.107054286
v -0.003074265 0.010150000 0.107266419
v -0.003286397 0.010950000 0.107054286
v -0.003614015 0.010150000 0.108325735
v -0.003614015 0.010150000 0.110674262
v -0.003556272 0.010343933 0.111309990
v -0.004800000 0.010950000 0.118299998
v -0.003286397 0.010237868 0.111733586
v -0.003286397 0.010450000 0.111945719
v -0.003074265 0.010150000 0.111733586
v -0.003074265 0.010237868 0.111945719
v -0.003286397 0.010950000 0.111945719
v -0.002759990 0.010343933 0.112366058
v -0.002445716 0.010237868 0.106425732
v -0.002445716 0.010450000 0.106213599
v -0.002233584 0.010150000 0.106425732
v -0.002233584 0.010237868 0.106213599
v -0.002445716 0.010950000 0.106213599
v -0.001386397 0.010450000 0.105673850
v -0.001386397 0.010950000 0.105673850
v -0.001174265 0.010237868 0.105673850
v -0.001174265 0.010450000 0.105585985
v -0.001174265 0.010150000 0.105885983
v -0.001174265 0.010950000 0.105585985
v -0.000000000 0.010150000 0.105700001
v -0.000000000 0.010237868 0.105487868
v -0.000000000 0.010450000 0.105400003
v -0.000000000 0.010950000 0.105400003
v -0.002445716 0.010450000 0.112786397
v -0.002233584 0.010150000 0.112574264
v -0.002233584 0.010237868 0.112786397
v -0.002445716 0.010950000 0.112786397
v -0.001386397 0.010450000 0.113326147
v -0.001386397 0.010950000 0.113326147
v -0.001174265 0.010150000 0.113114014
v -0.001174265 0.010237868 0.113326147
v -0.001174265 0.010450000 0.113414012
v -0.001174265 0.010950000 0.113414012
v -0.000000000 0.010150000 0.113300003
v -0.000000000 0.010237868 0.113512136
v -0.000000000 0.010450000 0.113600001
v -0.000000000 0.010950000 0.113600001
v 0.001157568 -0.013550000 0.065865688
v 0.001157568 -0.011550000 0.065865688
v 0.000927051 -0.011550000 0.068246834
v 0.002007392 -0.011550000 0.068870567
v 0.000927051 -0.011550000 0.073953167
v 0.002007392 -0.011550000 0.073329434
v 0.000927051 -0.009850000 0.068246834
v 0.002007392 -0.009850000 0.068870567
v 0.000927051 -0.009850000 0.073953167
v 0.002007392 -0.009850000 0.073329434
v 0.003577983 -0.013550000 0.067159429
v 0.003577983 -0.011550000 0.067159429
v 0.002740636 -0.011550000 0.069879793
v 0.003000000 -0.011550000 0.071099997
v 0.002740636 -0.011550000 0.072320208
v 0.002740636 -0.009850000 0.069879793
v 0.003000000 -0.009850000 0.071099997
v 0.002740636 -0.009850000 0.072320208
v 0.005699495 -0.013550000 0.068900503
v 0.005699495 -0.011550000 0.068900503
v 0.007440574 -0.013550000 0.071022019
v 0.007440574 -0.011550000 0.071022019
v 0.008734314 -0.013550000 0.073442429
v 0.009530994 -0.013550000 0.076068737
v 0.008734314 -0.011550000 0.073442429
v 0.009530994 -0.011550000 0.076068737
v 0.006800000 -0.011150000 0.082500003
v 0.007948050 -0.011150000 0.082728364
v 0.009800000 -0.013550000 0.078800000
v 0.009800000 -0.011550000 0.078800000
v 0.009800000 -0.011550000 0.080799997
v 0.009800000 -0.011150000 0.080799997
v 0.008921321 -0.011150000 0.083378680
v 0.009571639 -0.011150000 0.084351949
v 0.009800000 -0.011150000 0.085500002
v 0.000222451 -0.011150000 0.103925064
v 0.000925934 -0.011237868 0.104004323
v 0.001079963 -0.011350000 0.104021676
v 0.001157771 -0.011388268 0.104038060
v 0.001151992 -0.011385426 0.104036838
v 0.001223865 -0.010850000 0.104137897
v 0.001240977 -0.011411446 0.104062922
v 0.001244423 -0.011388268 0.104047820
v 0.001246117 -0.011350000 0.104040399
v 0.001402025 -0.011420711 0.104125790
v 0.001623317 -0.011427861 0.104214489
v 0.001719331 -0.011350000 0.104205988
v 0.001246117 -0.010950000 0.104040399
v 0.001239600 -0.010879289 0.104068957
v 0.001244423 -0.010911732 0.104047820
v 0.001232381 -0.010857612 0.104100585
v 0.001719331 -0.010950000 0.104205988
v 0.002072910 -0.011442388 0.104394704
v 0.002363663 -0.011445664 0.104513779
v 0.002402964 -0.011442388 0.104510196
v 0.002392972 -0.011446969 0.104530938
v 0.002155867 -0.011237868 0.104513779
v 0.002155867 -0.011150000 0.104725912
v 0.002417041 -0.011420711 0.104480959
v 0.002426446 -0.011388268 0.104461432
v 0.002429749 -0.011350000 0.104454570
v 0.002429749 -0.010950000 0.104454570
v 0.002426446 -0.010911732 0.104461432
v 0.002417041 -0.010879289 0.104480959
v 0.002386361 -0.010850000 0.104544669
v 0.002402965 -0.010857612 0.104510188
v 0.002867758 -0.011445836 0.104822583
v 0.004800000 -0.013550000 0.101499997
v 0.004800000 -0.010850000 0.101499997
v 0.000476435 -0.011150000 0.106245577
v 0.000520945 -0.011150000 0.106245577
v 0.000693719 -0.011150000 0.106308460
v 0.000724064 -0.011150000 0.106319502
v 0.001500000 -0.011150000 0.106601924
v 0.001537435 -0.011150000 0.106617428
v 0.001580386 -0.011150000 0.106635220
v 0.001712132 -0.011150000 0.106689788
v 0.001813196 -0.011150000 0.106774591
v 0.001852979 -0.011150000 0.106807977
v 0.000061935 -0.011150000 0.112754419
v 0.000337082 -0.011150000 0.112754419
v 0.000520945 -0.011150000 0.112754419
v 0.000795937 -0.011150000 0.112654336
v 0.001223865 -0.010850000 0.114862099
v 0.001500000 -0.011150000 0.112398073
v 0.001327225 -0.011150000 0.112460963
v 0.001712132 -0.011150000 0.112310208
v 0.001730200 -0.011150000 0.112295046
v 0.001239600 -0.010879289 0.114931040
v 0.001244423 -0.010911732 0.114952177
v 0.001232381 -0.010857612 0.114899412
v 0.001719331 -0.010950000 0.114794008
v 0.002369418 -0.011150000 0.111758679
v 0.002429749 -0.011150000 0.114545427
v 0.002386361 -0.010850000 0.114455327
v 0.002402965 -0.010857612 0.114489809
v 0.002417041 -0.010879289 0.114519037
v 0.002429749 -0.010950000 0.114545427
v 0.002426446 -0.010911732 0.114538565
v 0.001246117 -0.011150000 0.114959598
v 0.001246117 -0.010950000 0.114959598
v 0.000520945 -0.009750000 0.106245577
v 0.000520945 -0.009537868 0.106333442
v 0.000520945 -0.009450000 0.106545575
v 0.001500000 -0.009750000 0.106601924
v 0.001500000 -0.009537868 0.106689788
v 0.001500000 -0.009450000 0.106901921
v 0.001712132 -0.009750000 0.106689788
v 0.002298133 -0.009537868 0.107359506
v 0.002298133 -0.009450000 0.107571639
v 0.002298133 -0.009450000 0.111428365
v 0.000520945 -0.009750000 0.112754419
v 0.000520945 -0.009450000 0.112454422
v 0.000520945 -0.009537868 0.112666555
v 0.001500000 -0.009750000 0.112398073
v 0.001500000 -0.009450000 0.112098075
v 0.001500000 -0.009537868 0.112310208
v 0.001712132 -0.009750000 0.112310208
v 0.002298133 -0.009537868 0.111640498
v 0.002510265 -0.011150000 0.107359506
v 0.002511755 -0.011150000 0.107362092
v 0.002602197 -0.011150000 0.107518740
v 0.002618018 -0.011150000 0.107546143
v 0.003031210 -0.011150000 0.108261809
v 0.003279612 -0.011350000 0.104988575
v 0.003453053 -0.011442388 0.105170004
v 0.003446575 -0.011444455 0.105178125
v 0.003482342 -0.011442652 0.105201155
v 0.003487561 -0.011442388 0.105204515
v 0.003486797 -0.011388268 0.105127692
v 0.003491543 -0.011350000 0.105121739
v 0.003473281 -0.011420711 0.105144642
v 0.003614539 -0.011424285 0.105293415
v 0.003639610 -0.011420711 0.105310969
v 0.003279612 -0.010950000 0.104988575
v 0.003429194 -0.010850000 0.105199926
v 0.003491543 -0.010950000 0.105121739
v 0.003486797 -0.010911732 0.105127692
v 0.003473281 -0.010879289 0.105144642
v 0.003453054 -0.010857612 0.105170004
v 0.002529825 -0.011150000 0.111606620
v 0.002559112 -0.011150000 0.111555889
v 0.003031210 -0.011150000 0.110738195
v 0.003054781 -0.011150000 0.110681288
v 0.003046716 -0.011150000 0.110700756
v 0.002939278 -0.011150000 0.110897422
v 0.003075764 -0.011150000 0.108369373
v 0.003119078 -0.011150000 0.108473942
v 0.003125309 -0.011150000 0.108509280
v 0.003151005 -0.011150000 0.108655013
v 0.003293368 -0.011150000 0.109462388
v 0.003300000 -0.011150000 0.109499998
v 0.003287098 -0.011150000 0.109573171
v 0.003268073 -0.011150000 0.109681070
v 0.003112003 -0.011150000 0.110543139
v 0.003119078 -0.011150000 0.110526063
v 0.003078939 -0.011150000 0.110622965
v 0.003075144 -0.010600001 0.110632129
v 0.003732809 -0.011397458 0.105382331
v 0.003769637 -0.011388268 0.105410531
v 0.003824493 -0.011364467 0.105458736
v 0.003857832 -0.011350000 0.105488032
v 0.004028994 -0.011237868 0.105661631
v 0.004031434 -0.011240308 0.105661631
v 0.004045716 -0.011237868 0.105675913
v 0.004028994 -0.011150000 0.105873764
v 0.004378256 -0.011217768 0.106008455
v 0.004511421 -0.011177093 0.106220387
v 0.004600120 -0.011150000 0.106361553
v 0.004300073 -0.010850000 0.106070802
v 0.004355357 -0.010879289 0.106026717
v 0.004329992 -0.010857612 0.106046945
v 0.004378256 -0.010950000 0.106008455
v 0.004372305 -0.010911732 0.106013201
v 0.004511421 -0.010950000 0.106220387
v 0.002506197 -0.011150000 0.111643910
v 0.002510265 -0.011150000 0.111640498
v 0.003491543 -0.011150000 0.113878258
v 0.003279612 -0.010950000 0.114011422
v 0.003429194 -0.010850000 0.113800071
v 0.003491543 -0.010950000 0.113878258
v 0.003473281 -0.010879289 0.113855354
v 0.003453054 -0.010857612 0.113829993
v 0.003486797 -0.010911732 0.113872305
v 0.004378256 -0.011150000 0.112991542
v 0.004300073 -0.010850000 0.112929195
v 0.004355357 -0.010879289 0.112973280
v 0.004329992 -0.010857612 0.112953052
v 0.004378256 -0.010950000 0.112991542
v 0.004372305 -0.010911732 0.112986796
v 0.004511421 -0.010950000 0.112779610
v 0.004800000 -0.010850000 0.118299998
v 0.002510265 -0.009750000 0.107359506
v 0.002510265 -0.009537868 0.107571639
v 0.002770738 -0.009643934 0.107916728
v 0.003031210 -0.009750000 0.108261809
v 0.002819078 -0.009450000 0.108473942
v 0.003031210 -0.009537868 0.108473942
v 0.003000000 -0.009450000 0.109499998
v 0.002510265 -0.009537868 0.111428365
v 0.002819078 -0.009450000 0.110526063
v 0.003031210 -0.009750000 0.110738195
v 0.003031210 -0.009537868 0.110526063
v 0.002770738 -0.009643934 0.111083277
v 0.003119078 -0.009750000 0.108473942
v 0.003212132 -0.009537868 0.109499998
v 0.003300000 -0.009750000 0.109499998
v 0.003119078 -0.009750000 0.110526063
v 0.002510265 -0.009750000 0.111640498
v 0.006345085 -0.013550000 0.101255283
v 0.006345085 -0.010850000 0.101255283
v 0.009800000 -0.013550000 0.096500002
v 0.009555283 -0.013550000 0.098045081
v 0.009800000 -0.010850000 0.096500002
v 0.009555283 -0.010850000 0.098045081
v 0.007738926 -0.013550000 0.100545086
v 0.007738926 -0.010850000 0.100545086
v 0.008845085 -0.013550000 0.099438928
v 0.008845085 -0.010850000 0.099438928
v 0.005045426 -0.011150000 0.107070252
v 0.005459596 -0.011150000 0.108253881
v 0.004955329 -0.010850000 0.107113637
v 0.005045426 -0.010950000 0.107070252
v 0.004989807 -0.010857612 0.107097037
v 0.005019037 -0.010879289 0.107082956
v 0.005038567 -0.010911732 0.107073553
v 0.005294011 -0.010950000 0.107780665
v 0.005431041 -0.010879289 0.108260401
v 0.005399412 -0.010857612 0.108267620
v 0.005459596 -0.010950000 0.108253881
v 0.005452175 -0.010911732 0.108255573
v 0.005459596 -0.011150000 0.110746115
v 0.005362104 -0.010850000 0.108276136
v 0.005500000 -0.010850000 0.109499998
v 0.005362104 -0.010850000 0.110723861
v 0.005431041 -0.010879289 0.110739596
v 0.005399412 -0.010857612 0.110732377
v 0.005459596 -0.010950000 0.110746115
v 0.005452175 -0.010911732 0.110744424
v 0.005294011 -0.010950000 0.111219332
v 0.005600000 -0.011150000 0.109499998
v 0.005538268 -0.010857612 0.109499998
v 0.005570711 -0.010879289 0.109499998
v 0.005600000 -0.010950000 0.109499998
v 0.005592388 -0.010911732 0.109499998
v 0.005045426 -0.011150000 0.111929744
v 0.004955329 -0.010850000 0.111886360
v 0.005045426 -0.010950000 0.111929744
v 0.004989807 -0.010857612 0.111902960
v 0.005019037 -0.010879289 0.111917041
v 0.005038567 -0.010911732 0.111926444
v 0.006345085 -0.010850000 0.118055284
v 0.007738926 -0.010850000 0.117345080
v 0.009800000 -0.010850000 0.113299996
v 0.009555283 -0.010850000 0.114845082
v 0.008845085 -0.010850000 0.116238922
v 0.001157568 0.011250000 0.065865688
v 0.001157568 0.013450000 0.065865688
v 0.001454197 0.010450000 0.067589261
v 0.001454197 0.011250000 0.067589261
v 0.001454197 0.010450000 0.074610740
v 0.001454197 0.011250000 0.074610740
v 0.003577983 0.011250000 0.067159429
v 0.002687006 0.010450000 0.068412997
v 0.002687006 0.011250000 0.068412997
v 0.003510742 0.010450000 0.069645800
v 0.003510742 0.011250000 0.069645800
v 0.003577983 0.013450000 0.067159429
v 0.003800000 0.010450000 0.071099997
v 0.003800000 0.011250000 0.071099997
v 0.002687006 0.010450000 0.073787004
v 0.002687006 0.011250000 0.073787004
v 0.003510742 0.010450000 0.072554193
v 0.003510742 0.011250000 0.072554193
v 0.005699495 0.011250000 0.068900503
v 0.005699495 0.013450000 0.068900503
v 0.007440574 0.011250000 0.071022019
v 0.007440574 0.013450000 0.071022019
v 0.008734314 0.011250000 0.073442429
v 0.009530994 0.011250000 0.076068737
v 0.008734314 0.013450000 0.073442429
v 0.009530994 0.013450000 0.076068737
v 0.006800000 0.009450000 0.082500003
v 0.007948050 0.009450000 0.082728364
v 0.008921321 0.009450000 0.083378680
v 0.009800000 0.009450000 0.082500003
v 0.009571639 0.009450000 0.084351949
v 0.009800000 0.009450000 0.085500002
v 0.009800000 0.011250000 0.078800000
v 0.009800000 0.011250000 0.082500003
v 0.009800000 0.013450000 0.078800000
v 0.004800000 0.010950000 0.101499997
v 0.004800000 0.013450000 0.101499997
v 0.000587132 0.010343933 0.105536923
v 0.001174265 0.010237868 0.105673850
v 0.001174265 0.010450000 0.105585985
v 0.001174265 0.010150000 0.105885983
v 0.001174265 0.010950000 0.105585985
v 0.001386397 0.010450000 0.105673850
v 0.001280331 0.010850000 0.105629914
v 0.001386397 0.010950000 0.105673850
v 0.002233584 0.010150000 0.106425732
v 0.002233584 0.010237868 0.106213599
v 0.002445716 0.010237868 0.106425732
v 0.002445716 0.010450000 0.106213599
v 0.002445716 0.010950000 0.106213599
v 0.001174265 0.010150000 0.113114014
v 0.001174265 0.010237868 0.113326147
v 0.001174265 0.010450000 0.113414012
v 0.001174265 0.010950000 0.113414012
v 0.001809990 0.010343933 0.113056272
v 0.001386397 0.010450000 0.113326147
v 0.001280331 0.010850000 0.113370083
v 0.001386397 0.010850000 0.113326147
v 0.001386397 0.010950000 0.113326147
v 0.002233584 0.010150000 0.112574264
v 0.002233584 0.010237868 0.112786397
v 0.002445716 0.010450000 0.112786397
v 0.002445716 0.010950000 0.112786397
v 0.003074265 0.010150000 0.107266419
v 0.003286397 0.010237868 0.107266419
v 0.003286397 0.010450000 0.107054286
v 0.003286397 0.010950000 0.107054286
v 0.003614015 0.010150000 0.108325735
v 0.003614015 0.010150000 0.110674262
v 0.003826147 0.010450000 0.108113602
v 0.003826147 0.010950000 0.108113602
v 0.003826147 0.010237868 0.108325735
v 0.003914015 0.010450000 0.108325735
v 0.003800000 0.010150000 0.109499998
v 0.004012132 0.010237868 0.109499998
v 0.004100000 0.010450000 0.109499998
v 0.003826147 0.010237868 0.110674262
v 0.003914015 0.010450000 0.110674262
v 0.003826147 0.010450000 0.110886395
v 0.003914015 0.010950000 0.108325735
v 0.004100000 0.010950000 0.109499998
v 0.003914015 0.010950000 0.110674262
v 0.003826147 0.010950000 0.110886395
v 0.002759990 0.010343933 0.112366058
v 0.003074265 0.010150000 0.111733586
v 0.003074265 0.010237868 0.111945719
v 0.003286397 0.010237868 0.111733586
v 0.003286397 0.010450000 0.111945719
v 0.003286397 0.010950000 0.111945719
v 0.004800000 0.010950000 0.118299998
v 0.006345085 0.010950000 0.101255283
v 0.006345085 0.013450000 0.101255283
v 0.009800000 0.010950000 0.096500002
v 0.009555283 0.010950000 0.098045081
v 0.009800000 0.013450000 0.096500002
v 0.009555283 0.013450000 0.098045081
v 0.007738926 0.010950000 0.100545086
v 0.007738926 0.013450000 0.100545086
v 0.008845085 0.010950000 0.099438928
v 0.008845085 0.013450000 0.099438928
v 0.006345085 0.010950000 0.118055284
v 0.007738926 0.010950000 0.117345080
v 0.009800000 0.010950000 0.113299996
v 0.009555283 0.010950000 0.114845082
v 0.008845085 0.010950000 0.116238922
f 1 2 4
f 1 3 2
f 1 4 6
f 2 5 4
f 2 3 7
f 1 6 3
f 3 6 8
f 4 5 6
f 3 8 7
f 2 7 9
f 7 8 10
f 2 11 5
f 2 18 38
f 5 11 21
f 7 10 9
f 2 9 18
f 5 20 6
f 6 20 8
f 9 10 18
f 10 19 18
f 8 26 10
f 5 21 20
f 11 29 21
f 2 38 11
f 11 16 12
f 12 13 14
f 12 16 13
f 12 14 15
f 12 15 17
f 11 38 16
f 18 46 38
f 13 16 244
f 13 245 14
f 14 246 15
f 16 38 247
f 15 249 17
f 10 26 19
f 8 20 26
f 18 19 25
f 19 26 27
f 20 32 26
f 20 21 22
f 20 22 32
f 21 23 22
f 11 30 29
f 11 31 30
f 21 29 23
f 23 29 35
f 11 352 31
f 22 23 35
f 18 25 24
f 19 27 25
f 26 32 33
f 26 33 27
f 24 25 349
f 25 27 28
f 25 28 349
f 27 33 34
f 27 34 28
f 29 30 35
f 30 36 35
f 30 31 36
f 31 37 36
f 22 34 32
f 32 34 33
f 22 35 354
f 22 354 34
f 35 36 363
f 11 12 379
f 12 17 379
f 18 376 46
f 38 39 40
f 39 41 40
f 39 42 41
f 41 42 43
f 40 41 48
f 41 43 48
f 43 45 48
f 38 46 39
f 39 46 42
f 42 44 43
f 42 46 44
f 43 44 45
f 44 46 45
f 45 46 47
f 46 85 47
f 47 85 86
f 47 112 63
f 45 47 48
f 48 76 49
f 49 84 50
f 47 63 48
f 48 70 71
f 48 71 76
f 48 63 70
f 59 53 52
f 54 58 52
f 54 55 58
f 58 59 52
f 55 60 58
f 55 56 60
f 56 57 61
f 57 70 62
f 58 60 59
f 56 61 60
f 57 62 61
f 62 70 63
f 65 64 69
f 54 64 65
f 54 65 66
f 55 66 67
f 56 67 68
f 65 73 66
f 66 74 67
f 54 52 64
f 72 69 79
f 54 66 55
f 55 67 56
f 56 68 57
f 57 71 70
f 57 68 71
f 67 75 68
f 68 76 71
f 65 69 72
f 65 72 73
f 66 73 74
f 67 74 75
f 68 75 76
f 72 77 73
f 73 81 74
f 74 83 75
f 75 84 76
f 72 79 77
f 73 77 82
f 73 82 81
f 74 81 83
f 75 83 84
f 49 76 84
f 50 148 51
f 50 84 148
f 77 79 80
f 77 80 82
f 51 148 155
f 51 155 78
f 38 40 247
f 40 48 272
f 48 49 282
f 49 50 283
f 50 51 284
f 51 78 285
f 78 149 286
f 47 86 92
f 47 118 112
f 47 92 118
f 88 113 119
f 89 119 115
f 89 115 116
f 88 87 113
f 86 99 92
f 89 116 90
f 90 117 91
f 88 119 89
f 91 118 92
f 85 416 86
f 86 105 99
f 88 94 87
f 88 89 94
f 89 90 96
f 90 91 97
f 91 92 98
f 95 93 87
f 94 95 87
f 89 96 94
f 90 97 96
f 91 98 97
f 92 99 98
f 94 96 95
f 46 559 85
f 86 388 105
f 95 101 93
f 95 96 101
f 96 97 102
f 97 98 103
f 98 99 104
f 101 100 93
f 96 102 101
f 97 103 102
f 98 104 103
f 99 105 104
f 108 106 53
f 107 108 53
f 60 109 107
f 61 110 109
f 62 111 110
f 63 112 111
f 107 109 108
f 59 107 53
f 59 60 107
f 60 61 109
f 61 62 110
f 62 63 111
f 114 113 106
f 108 114 106
f 108 109 114
f 109 110 115
f 110 111 116
f 111 112 117
f 109 115 114
f 110 116 115
f 111 117 116
f 112 118 117
f 114 119 113
f 114 115 119
f 90 116 117
f 91 117 118
f 80 79 142
f 80 143 82
f 81 82 146
f 81 147 83
f 83 148 84
f 80 142 143
f 82 143 145
f 82 145 146
f 81 146 147
f 83 147 148
f 143 142 144
f 143 144 145
f 144 142 150
f 144 152 145
f 145 153 146
f 146 154 147
f 147 155 148
f 144 150 151
f 144 151 152
f 145 152 153
f 146 153 154
f 147 154 155
f 78 155 149
f 151 150 187
f 151 156 152
f 152 188 153
f 153 189 154
f 154 190 155
f 151 187 156
f 152 156 192
f 152 192 188
f 153 188 189
f 156 187 191
f 156 191 192
f 154 189 190
f 149 155 190
f 149 190 205
f 191 187 201
f 191 197 192
f 188 200 189
f 188 192 199
f 189 205 190
f 191 201 197
f 192 197 198
f 192 198 199
f 188 199 200
f 189 200 205
f 197 201 202
f 197 202 198
f 199 212 200
f 200 211 205
f 202 201 207
f 198 202 209
f 198 210 199
f 202 207 208
f 202 208 209
f 198 209 210
f 199 210 212
f 200 212 211
f 149 205 539
f 13 244 245
f 14 245 246
f 15 246 249
f 16 247 244
f 233 234 236
f 233 236 238
f 234 237 236
f 233 238 235
f 235 238 240
f 236 240 238
f 236 237 240
f 233 255 234
f 235 240 239
f 237 242 240
f 239 240 242
f 234 248 237
f 234 252 248
f 233 235 255
f 235 239 255
f 239 242 241
f 237 253 242
f 239 241 257
f 234 255 252
f 241 242 250
f 242 253 250
f 237 281 253
f 248 252 259
f 248 259 261
f 243 244 247
f 243 247 248
f 243 245 244
f 243 246 245
f 243 248 249
f 243 249 246
f 237 248 274
f 247 274 248
f 237 274 281
f 253 281 288
f 17 249 630
f 239 257 255
f 241 250 264
f 251 252 255
f 241 264 257
f 251 255 254
f 254 255 257
f 254 257 256
f 250 253 265
f 251 258 252
f 248 261 269
f 248 269 271
f 258 260 259
f 252 258 259
f 259 260 261
f 256 264 262
f 250 263 267
f 256 257 264
f 250 267 264
f 251 254 613
f 251 613 258
f 250 265 263
f 262 264 267
f 262 267 266
f 263 607 267
f 254 256 613
f 256 262 613
f 263 265 605
f 260 268 261
f 261 268 269
f 258 616 260
f 268 270 269
f 260 616 268
f 269 270 271
f 248 630 249
f 248 271 637
f 253 288 640
f 40 272 247
f 48 282 272
f 49 283 282
f 50 284 283
f 51 285 284
f 78 286 285
f 149 312 286
f 247 272 274
f 272 273 274
f 273 275 274
f 274 275 277
f 272 282 273
f 273 282 276
f 276 282 278
f 273 276 275
f 275 276 277
f 274 277 279
f 276 278 277
f 277 278 279
f 274 279 281
f 278 280 279
f 279 280 281
f 280 287 281
f 281 287 288
f 278 282 280
f 282 283 287
f 283 284 287
f 280 282 287
f 284 285 287
f 285 286 287
f 286 312 287
f 149 693 312
f 287 308 323
f 287 323 325
f 287 325 329
f 287 329 333
f 287 640 288
f 287 333 645
f 287 301 290
f 287 300 301
f 287 290 308
f 287 312 300
f 312 302 300
f 312 303 302
f 312 317 303
f 312 337 317
f 312 339 337
f 312 343 339
f 312 693 343
f 24 349 348
f 28 350 349
f 28 34 354
f 28 354 350
f 348 349 359
f 18 24 376
f 349 350 359
f 350 351 359
f 350 354 355
f 350 355 351
f 351 355 363
f 31 352 37
f 37 352 356
f 352 353 356
f 353 357 356
f 353 362 357
f 35 355 354
f 35 363 355
f 36 37 363
f 37 356 363
f 356 357 363
f 348 359 358
f 24 348 376
f 351 363 360
f 360 364 361
f 360 363 364
f 351 360 367
f 358 359 367
f 348 358 376
f 351 367 359
f 360 361 369
f 357 362 365
f 361 365 362
f 361 364 365
f 361 362 372
f 353 377 362
f 352 378 353
f 357 364 363
f 357 365 364
f 11 378 352
f 11 379 378
f 17 374 379
f 17 630 374
f 358 367 366
f 358 366 368
f 360 369 367
f 358 368 370
f 366 367 369
f 366 369 368
f 358 370 371
f 361 372 369
f 362 373 372
f 353 378 377
f 358 371 376
f 368 369 372
f 368 372 370
f 362 377 373
f 370 372 373
f 370 373 371
f 371 377 376
f 371 373 377
f 374 375 379
f 376 377 378
f 375 380 379
f 379 380 381
f 378 379 382
f 379 381 382
f 376 378 559
f 378 382 559
f 374 631 375
f 375 632 380
f 380 634 381
f 381 635 382
f 101 383 100
f 101 384 383
f 86 416 388
f 101 102 395
f 102 103 397
f 103 104 396
f 104 105 398
f 101 395 384
f 391 385 384
f 391 387 385
f 390 386 387
f 390 389 386
f 390 387 391
f 391 384 395
f 102 397 395
f 103 396 397
f 104 398 396
f 105 388 398
f 85 415 416
f 390 392 389
f 390 391 394
f 391 395 394
f 394 395 399
f 390 406 392
f 390 394 407
f 406 393 392
f 395 397 399
f 396 410 397
f 396 398 411
f 388 413 398
f 397 410 399
f 394 399 408
f 402 400 393
f 390 407 406
f 402 401 400
f 402 403 401
f 402 393 406
f 394 408 407
f 399 409 408
f 396 411 410
f 398 413 411
f 388 412 413
f 399 410 409
f 46 376 559
f 85 559 415
f 402 414 403
f 407 408 472
f 408 409 472
f 402 473 414
f 406 407 479
f 402 406 473
f 409 482 472
f 409 410 482
f 412 487 413
f 388 416 412
f 411 413 486
f 410 411 485
f 407 472 477
f 407 477 479
f 410 485 482
f 411 486 485
f 412 416 483
f 416 558 483
f 483 558 517
f 212 438 431
f 208 207 447
f 208 437 209
f 209 436 210
f 210 438 212
f 211 212 431
f 208 447 448
f 208 448 437
f 209 437 436
f 210 436 438
f 205 211 539
f 448 447 441
f 437 448 439
f 431 438 442
f 436 443 438
f 436 437 444
f 439 448 441
f 437 439 446
f 436 444 443
f 438 443 442
f 437 446 444
f 439 441 445
f 439 445 446
f 211 431 539
f 473 474 414
f 406 479 473
f 472 482 478
f 473 475 474
f 473 476 475
f 472 478 477
f 473 479 476
f 478 482 484
f 479 480 476
f 477 481 479
f 479 481 480
f 477 478 507
f 477 506 481
f 477 507 506
f 478 484 509
f 412 483 487
f 413 487 486
f 482 485 484
f 478 508 507
f 478 509 508
f 484 511 509
f 484 512 511
f 484 520 512
f 520 514 512
f 483 519 487
f 484 485 520
f 486 487 518
f 485 486 521
f 487 519 518
f 485 521 520
f 486 518 521
f 483 517 519
f 520 522 514
f 522 515 514
f 522 516 515
f 570 567 516
f 520 521 522
f 518 519 572
f 518 573 521
f 517 571 519
f 521 573 522
f 522 570 516
f 519 571 572
f 517 569 571
f 518 572 573
f 522 573 570
f 445 441 525
f 445 526 446
f 442 443 527
f 444 446 529
f 443 444 530
f 443 530 527
f 444 529 530
f 446 531 529
f 445 525 526
f 446 526 531
f 526 525 528
f 526 528 531
f 431 442 539
f 528 525 532
f 529 534 535
f 530 535 533
f 531 537 534
f 527 530 533
f 528 537 531
f 529 535 530
f 529 531 534
f 528 532 536
f 528 536 537
f 536 532 593
f 536 538 537
f 533 535 594
f 534 596 535
f 534 537 597
f 535 596 594
f 534 597 596
f 537 598 597
f 538 593 595
f 538 595 598
f 536 593 538
f 537 538 598
f 442 527 599
f 442 599 539
f 149 539 693
f 415 557 416
f 416 557 558
f 517 558 569
f 415 559 557
f 557 563 558
f 558 563 564
f 559 562 560
f 382 561 559
f 559 561 562
f 557 559 563
f 563 565 564
f 564 565 566
f 560 565 563
f 559 560 563
f 560 566 565
f 560 562 566
f 564 566 601
f 561 601 562
f 562 601 566
f 577 568 567
f 570 574 567
f 570 573 574
f 569 576 571
f 571 575 572
f 572 578 573
f 574 577 567
f 573 578 574
f 569 580 576
f 571 576 575
f 572 575 578
f 574 578 577
f 558 580 569
f 595 593 579
f 585 579 588
f 576 580 589
f 577 591 568
f 577 578 591
f 575 576 590
f 575 592 578
f 580 581 589
f 576 589 590
f 581 584 589
f 582 594 596
f 584 596 597
f 583 597 598
f 581 582 584
f 585 592 586
f 583 589 584
f 583 586 590
f 582 596 584
f 583 584 597
f 583 598 586
f 587 595 579
f 586 598 587
f 585 587 579
f 585 586 587
f 591 588 568
f 578 592 591
f 575 590 592
f 585 591 592
f 585 588 591
f 583 590 589
f 586 592 590
f 558 601 580
f 580 601 581
f 581 601 582
f 587 598 595
f 527 533 600
f 527 600 599
f 533 594 602
f 582 601 594
f 533 603 600
f 558 564 601
f 533 602 603
f 594 601 602
f 382 696 561
f 561 696 601
f 539 599 693
f 599 600 704
f 600 603 705
f 601 707 602
f 602 708 603
f 263 604 607
f 266 267 607
f 266 607 606
f 262 266 613
f 263 605 604
f 266 606 611
f 604 612 607
f 606 612 611
f 606 607 612
f 258 613 616
f 266 611 613
f 604 605 615
f 253 638 265
f 270 608 271
f 268 616 270
f 271 608 609
f 270 618 608
f 608 618 609
f 270 616 618
f 609 618 619
f 604 610 612
f 611 612 614
f 611 614 613
f 610 614 612
f 613 614 617
f 604 615 610
f 605 623 615
f 265 638 605
f 613 617 616
f 610 622 614
f 614 622 617
f 610 615 623
f 605 625 623
f 618 620 619
f 616 620 618
f 616 621 620
f 619 620 621
f 616 617 621
f 271 609 637
f 609 619 637
f 248 637 630
f 253 640 698
f 374 630 631
f 375 631 632
f 380 632 634
f 381 634 635
f 382 635 698
f 617 622 624
f 610 623 622
f 605 628 625
f 622 623 625
f 622 625 624
f 617 626 621
f 619 621 627
f 617 624 626
f 621 626 627
f 619 627 636
f 605 629 628
f 605 638 629
f 624 625 628
f 624 628 626
f 626 628 629
f 626 629 627
f 627 638 636
f 627 629 638
f 253 698 638
f 630 633 631
f 630 637 633
f 631 633 632
f 632 633 634
f 633 635 634
f 619 636 637
f 636 638 637
f 633 698 635
f 633 637 698
f 637 638 698
f 287 645 639
f 287 639 640
f 639 645 648
f 639 648 653
f 639 653 670
f 693 347 343
f 693 657 347
f 639 670 674
f 639 674 683
f 639 683 684
f 639 684 693
f 693 666 662
f 693 692 666
f 693 662 657
f 693 684 685
f 693 686 692
f 693 685 686
f 382 698 696
f 599 704 693
f 600 705 704
f 601 696 706
f 603 708 705
f 601 706 707
f 602 707 708
f 639 694 640
f 640 694 695
f 694 700 695
f 640 695 699
f 695 700 701
f 696 699 697
f 696 698 699
f 695 701 703
f 700 702 701
f 640 699 698
f 695 703 699
f 701 702 703
f 700 706 702
f 696 697 706
f 697 702 706
f 697 703 702
f 697 699 703
f 639 707 694
f 639 693 704
f 639 704 705
f 639 705 708
f 694 706 700
f 639 708 707
f 694 707 706
f 184 87 93
f 184 93 100
f 121 52 53
f 122 53 106
f 121 120 52
f 133 64 52
f 134 69 64
f 134 79 69
f 132 131 64
f 133 132 64
f 131 134 64
f 128 133 52
f 130 128 52
f 129 130 52
f 120 129 52
f 124 106 113
f 122 127 53
f 126 53 127
f 126 121 53
f 123 122 106
f 123 106 124
f 175 125 113
f 175 113 176
f 179 113 87
f 178 176 113
f 124 113 125
f 121 160 120
f 120 160 159
f 126 127 160
f 123 160 122
f 122 160 127
f 124 125 160
f 123 124 160
f 175 160 125
f 126 160 121
f 129 141 130
f 130 141 128
f 134 135 142
f 135 136 142
f 136 137 142
f 137 138 142
f 138 139 142
f 128 162 133
f 133 163 132
f 132 163 131
f 131 163 134
f 162 163 133
f 128 141 162
f 134 163 135
f 135 165 136
f 136 165 137
f 135 163 165
f 120 141 129
f 120 159 141
f 138 169 139
f 137 169 138
f 139 169 140
f 137 165 169
f 140 174 157
f 140 169 174
f 134 142 79
f 140 150 142
f 139 140 142
f 140 157 150
f 157 158 150
f 158 186 150
f 195 187 150
f 157 174 158
f 159 160 166
f 166 160 161
f 166 214 167
f 166 161 214
f 141 159 162
f 162 166 163
f 166 164 163
f 163 164 165
f 166 168 164
f 164 170 165
f 159 166 162
f 166 167 168
f 164 168 171
f 165 170 169
f 164 171 170
f 170 172 169
f 169 172 174
f 170 173 172
f 170 171 173
f 172 173 174
f 171 219 173
f 178 113 179
f 179 87 180
f 175 176 160
f 176 215 160
f 178 215 176
f 181 180 87
f 181 87 177
f 177 87 182
f 181 177 216
f 178 179 215
f 179 180 215
f 180 216 215
f 181 216 180
f 182 87 183
f 183 87 184
f 177 222 216
f 177 182 222
f 184 100 185
f 182 183 222
f 183 184 222
f 184 185 222
f 185 449 222
f 186 193 150
f 193 194 150
f 194 195 150
f 195 196 187
f 158 174 186
f 186 174 226
f 196 203 187
f 203 204 187
f 186 226 193
f 193 226 194
f 194 226 195
f 195 227 196
f 195 226 227
f 196 227 203
f 204 206 187
f 428 201 187
f 206 427 187
f 427 428 187
f 203 227 204
f 204 227 230
f 428 429 201
f 430 207 201
f 204 230 206
f 206 230 427
f 230 428 427
f 160 213 161
f 213 214 161
f 217 213 160
f 218 214 213
f 215 217 160
f 216 220 217
f 217 218 213
f 215 216 217
f 217 221 218
f 174 173 225
f 173 219 225
f 216 222 220
f 217 220 223
f 217 223 221
f 220 222 223
f 221 223 224
f 218 221 224
f 222 450 223
f 223 451 224
f 167 458 168
f 167 214 458
f 168 458 171
f 171 458 219
f 218 458 214
f 174 225 229
f 225 219 229
f 174 229 226
f 219 228 229
f 226 229 227
f 229 228 231
f 227 229 232
f 227 232 230
f 229 231 232
f 219 458 228
f 230 232 461
f 232 231 460
f 294 289 293
f 289 290 293
f 293 290 301
f 291 292 296
f 292 300 296
f 292 301 300
f 294 293 292
f 294 291 309
f 291 297 295
f 294 292 291
f 309 291 295
f 293 301 292
f 291 296 297
f 297 296 298
f 295 297 310
f 297 298 311
f 296 299 298
f 296 300 302
f 296 302 299
f 299 302 303
f 298 299 303
f 294 309 304
f 294 305 289
f 294 304 305
f 304 309 307
f 305 306 289
f 289 306 308
f 289 308 290
f 305 304 307
f 306 320 323
f 305 320 306
f 305 307 321
f 306 323 308
f 305 321 319
f 305 319 320
f 309 295 307
f 307 295 310
f 307 310 315
f 297 313 310
f 297 311 313
f 298 314 311
f 298 303 314
f 314 303 317
f 310 313 315
f 307 315 335
f 313 311 314
f 313 314 316
f 313 316 315
f 316 314 318
f 315 316 335
f 314 334 318
f 314 317 334
f 316 318 336
f 316 336 335
f 318 334 336
f 334 317 337
f 319 321 322
f 319 322 320
f 322 321 328
f 326 320 322
f 320 325 323
f 326 324 320
f 324 325 320
f 326 327 324
f 326 322 328
f 324 327 329
f 324 329 325
f 307 335 340
f 307 340 344
f 330 328 321
f 326 328 330
f 326 332 327
f 327 333 329
f 307 649 321
f 326 330 331
f 326 331 332
f 330 321 644
f 327 332 333
f 307 344 654
f 336 334 338
f 335 336 340
f 334 337 338
f 336 338 341
f 338 337 339
f 336 341 340
f 341 338 342
f 338 339 342
f 342 339 343
f 340 341 344
f 341 342 346
f 342 343 346
f 341 345 344
f 341 346 345
f 346 343 347
f 405 100 383
f 385 392 384
f 387 392 385
f 404 383 384
f 387 386 392
f 386 389 392
f 404 405 383
f 392 401 384
f 393 401 392
f 404 384 401
f 393 400 401
f 404 401 403
f 404 403 414
f 404 414 481
f 185 100 417
f 417 100 418
f 185 417 449
f 417 418 449
f 418 419 449
f 405 418 100
f 405 419 418
f 405 420 419
f 419 452 449
f 419 420 452
f 405 421 420
f 405 422 421
f 405 423 422
f 405 424 423
f 420 421 452
f 421 422 455
f 422 423 455
f 423 424 455
f 424 425 455
f 421 455 452
f 425 426 540
f 425 540 455
f 426 467 540
f 429 430 201
f 230 459 428
f 428 459 429
f 430 447 207
f 429 459 430
f 430 459 433
f 433 459 462
f 430 441 447
f 432 433 462
f 432 462 434
f 435 434 465
f 434 462 465
f 430 433 525
f 432 525 433
f 432 434 525
f 430 525 441
f 435 465 440
f 523 440 465
f 523 465 556
f 222 449 450
f 223 450 451
f 449 453 450
f 450 453 451
f 449 452 453
f 224 451 458
f 451 453 454
f 218 224 458
f 452 455 453
f 453 455 456
f 453 457 454
f 453 456 457
f 455 540 456
f 456 540 541
f 454 457 544
f 456 541 457
f 451 454 458
f 454 544 548
f 454 548 458
f 466 547 556
f 466 458 547
f 228 458 231
f 230 461 459
f 232 460 461
f 231 463 460
f 459 461 464
f 461 460 464
f 231 458 463
f 460 463 464
f 459 464 462
f 462 464 465
f 464 463 458
f 464 556 465
f 464 466 556
f 464 458 466
f 424 513 425
f 425 513 426
f 405 513 424
f 404 513 405
f 426 513 467
f 467 513 468
f 468 513 469
f 467 468 540
f 468 469 543
f 469 470 543
f 468 543 540
f 470 471 543
f 404 481 506
f 404 506 507
f 404 507 508
f 404 508 509
f 414 474 481
f 404 509 510
f 404 510 513
f 474 475 481
f 475 476 480
f 475 480 481
f 469 567 470
f 470 567 471
f 471 494 543
f 556 489 488
f 556 493 489
f 505 491 492
f 505 492 490
f 493 549 490
f 505 490 549
f 556 549 493
f 493 593 489
f 493 490 593
f 494 495 543
f 495 496 552
f 496 497 552
f 497 498 554
f 498 499 554
f 500 501 555
f 499 500 555
f 495 552 543
f 552 497 554
f 499 555 554
f 502 505 503
f 504 491 505
f 502 504 505
f 501 503 555
f 503 505 555
f 510 509 511
f 469 513 516
f 510 511 512
f 510 512 513
f 513 512 514
f 471 567 494
f 494 567 495
f 495 567 496
f 469 516 567
f 513 514 515
f 513 515 516
f 496 567 568
f 496 568 497
f 497 568 498
f 498 568 499
f 499 568 500
f 500 588 501
f 501 588 503
f 502 588 504
f 502 503 588
f 504 579 491
f 490 492 593
f 491 593 492
f 500 568 588
f 491 579 593
f 504 588 579
f 435 532 434
f 435 440 532
f 524 556 488
f 524 523 556
f 523 532 440
f 524 532 523
f 524 488 532
f 434 532 525
f 489 593 488
f 488 593 532
f 540 542 541
f 541 545 457
f 457 545 544
f 540 543 542
f 541 542 545
f 542 543 545
f 543 552 545
f 545 553 544
f 544 546 548
f 544 553 546
f 556 547 551
f 547 458 550
f 458 548 550
f 555 549 550
f 546 550 548
f 556 551 549
f 547 550 551
f 550 549 551
f 552 554 545
f 545 554 553
f 554 555 553
f 546 553 550
f 505 549 555
f 553 555 550
f 331 641 332
f 331 330 644
f 331 642 641
f 332 641 643
f 321 649 644
f 332 645 333
f 331 644 642
f 332 643 645
f 642 643 641
f 643 647 645
f 307 667 649
f 307 671 667
f 307 654 663
f 307 688 672
f 307 663 688
f 642 646 643
f 642 644 650
f 643 646 647
f 647 648 645
f 646 648 647
f 642 652 646
f 646 653 648
f 644 649 650
f 642 650 652
f 646 652 653
f 650 649 651
f 650 651 652
f 307 677 671
f 307 672 677
f 344 345 654
f 345 346 656
f 346 347 656
f 345 655 654
f 345 656 655
f 656 347 657
f 656 657 660
f 654 655 664
f 655 659 658
f 655 658 664
f 665 659 661
f 665 661 662
f 655 656 659
f 656 660 659
f 660 657 661
f 659 660 661
f 661 657 662
f 654 664 663
f 665 658 659
f 665 662 666
f 664 658 665
f 652 670 653
f 649 667 651
f 651 668 652
f 651 667 668
f 652 668 669
f 652 669 670
f 667 675 668
f 667 671 675
f 668 675 669
f 675 673 669
f 669 674 670
f 669 673 674
f 672 688 690
f 680 690 691
f 672 690 680
f 680 691 682
f 682 691 692
f 682 692 686
f 675 676 673
f 673 676 683
f 673 683 674
f 671 678 675
f 675 678 676
f 671 677 678
f 672 678 677
f 678 680 679
f 676 684 683
f 676 678 679
f 676 679 684
f 679 685 684
f 672 680 678
f 680 681 679
f 680 682 681
f 679 681 685
f 681 686 685
f 681 682 686
f 663 664 689
f 664 687 689
f 664 665 687
f 665 666 691
f 663 689 688
f 665 691 687
f 689 687 691
f 691 666 692
f 688 689 690
f 689 691 690
