# mf_proximal_pad.obj  (48 v, 92 f)  units: metres
v 0.009300000 -0.011300000 0.026300000
v 0.009651472 -0.012148528 0.026300000
v 0.009651472 -0.011300000 0.025451472
v 0.010500000 -0.012148528 0.025451472
v 0.010500000 -0.012500000 0.026300000
v 0.010500000 -0.011300000 0.025100000
v 0.009300000 -0.011300000 0.061900001
v 0.009651472 -0.012148528 0.061900001
v 0.009651472 -0.011300000 0.062748529
v 0.010500000 -0.012500000 0.061900001
v 0.010500000 -0.012148528 0.062748529
v 0.010500000 -0.011300000 0.063100003
v 0.009300000 0.011300000 0.026300000
v 0.009651472 0.011300000 0.025451472
v 0.009651472 0.012148528 0.026300000
v 0.010500000 0.011300000 0.025100000
v 0.010500000 0.012148528 0.025451472
v 0.010500000 0.012500000 0.026300000
v 0.009300000 0.011300000 0.061900001
v 0.009651472 0.011300000 0.062748529
v 0.009651472 0.012148528 0.061900001
v 0.010500000 0.011300000 0.063100003
v 0.010500000 0.012500000 0.061900001
v 0.010500000 0.012148528 0.062748529
v 0.012600000 -0.012148528 0.025451472
v 0.012600000 -0.012500000 0.026300000
v 0.012600000 -0.011300000 0.025100000
v 0.013448528 -0.012148528 0.026300000
v 0.013448528 -0.011300000 0.025451472
v 0.013800000 -0.011300000 0.026300000
v 0.012600000 -0.012500000 0.061900001
v 0.012600000 -0.012148528 0.062748529
v 0.012600000 -0.011300000 0.063100003
v 0.013448528 -0.012148528 0.061900001
v 0.013448528 -0.011300000 0.062748529
v 0.013800000 -0.011300000 0.061900001
v 0.012600000 0.011300000 0.025100000
v 0.012600000 0.012148528 0.025451472
v 0.012600000 0.012500000 0.026300000
v 0.013448528 0.011300000 0.025451472
v 0.013448528 0.012148528 0.026300000
v 0.013800000 0.011300000 0.026300000
v 0.012600000 0.011300000 0.063100003
v 0.012600000 0.012500000 0.061900001
v 0.012600000 0.012148528 0.062748529
v 0.013448528 0.011300000 0.062748529
v 0.013448528 0.012148528 0.061900001
v 0.013800000 0.011300000 0.061900001
f 1 3 2
f 2 3 4
f 2 4 5
f 3 6 4
f 1 2 8
f 2 5 8
f 1 14 3
f 3 14 6
f 4 25 5
f 4 6 25
f 1 8 7
f 5 10 8
f 7 8 9
f 8 11 9
f 8 10 11
f 9 11 12
f 1 7 19
f 7 9 20
f 9 12 20
f 5 31 10
f 10 32 11
f 11 32 12
f 12 33 22
f 1 13 14
f 6 14 16
f 1 19 13
f 13 15 14
f 14 15 17
f 14 17 16
f 15 18 17
f 13 19 15
f 15 23 18
f 6 16 37
f 16 17 38
f 17 18 38
f 18 23 39
f 7 20 19
f 12 22 20
f 15 19 21
f 15 21 23
f 19 20 21
f 20 24 21
f 20 22 24
f 21 24 23
f 22 43 24
f 23 24 44
f 5 25 26
f 6 27 25
f 5 26 31
f 6 37 27
f 25 28 26
f 25 27 29
f 25 29 28
f 28 29 30
f 26 28 31
f 28 30 36
f 27 37 29
f 29 42 30
f 30 42 36
f 10 31 32
f 12 32 33
f 28 34 31
f 28 36 34
f 31 34 32
f 32 35 33
f 32 34 35
f 34 36 35
f 33 35 43
f 35 36 48
f 16 38 37
f 18 39 38
f 29 37 40
f 29 40 42
f 37 38 40
f 38 39 41
f 38 41 40
f 40 41 42
f 39 47 41
f 41 48 42
f 22 33 43
f 23 44 39
f 24 43 45
f 24 45 44
f 36 42 48
f 35 46 43
f 35 48 46
f 39 44 47
f 41 47 48
f 43 46 45
f 44 45 47
f 45 46 47
f 46 48 47
