# mf_proximal_shaft.obj  (48 v, 92 f)  units: metres
v -0.002165064 -0.011450000 0.015850000
v -0.001767767 -0.011450000 0.015332233
v -0.002414815 -0.011450000 0.016452953
v -0.001250000 -0.011450000 0.014934937
v -0.000647048 -0.011450000 0.014685186
v -0.002500000 -0.011450000 0.017100001
v -0.002414815 -0.011450000 0.017747048
v -0.002165064 -0.011450000 0.018350000
v -0.001767767 -0.011450000 0.018867766
v -0.001250000 -0.011450000 0.019265063
v -0.000647048 -0.011450000 0.019514814
v -0.002165064 0.010950000 0.015850000
v -0.001767767 0.010950000 0.015332233
v -0.002414815 0.010950000 0.016452953
v -0.001250000 0.010950000 0.014934937
v -0.000647048 0.010950000 0.014685186
v -0.002500000 0.010950000 0.017100001
v -0.002414815 0.010950000 0.017747048
v -0.002165064 0.010950000 0.018350000
v -0.001767767 0.010950000 0.018867766
v -0.001250000 0.010950000 0.019265063
v -0.000647048 0.010950000 0.019514814
v 0.000000000 -0.011450000 0.014600000
v 0.000647048 -0.011450000 0.014685186
v 0.001250000 -0.011450000 0.014934937
v 0.001767767 -0.011450000 0.015332233
v 0.002165064 -0.011450000 0.015850000
v 0.002414815 -0.011450000 0.016452953
v 0.000000000 -0.011450000 0.019600000
v 0.000647048 -0.011450000 0.019514814
v 0.002500000 -0.011450000 0.017100001
v 0.002414815 -0.011450000 0.017747048
v 0.001767767 -0.011450000 0.018867766
v 0.001250000 -0.011450000 0.019265063
v 0.002165064 -0.011450000 0.018350000
v 0.000000000 0.010950000 0.014600000
v 0.000647048 0.010950000 0.014685186
v 0.001250000 0.010950000 0.014934937
v 0.001767767 0.010950000 0.015332233
v 0.002165064 0.010950000 0.015850000
v 0.002414815 0.010950000 0.016452953
v 0.000000000 0.010950000 0.019600000
v 0.000647048 0.010950000 0.019514814
v 0.002500000 0.010950000 0.017100001
v 0.002414815 0.010950000 0.017747048
v 0.001767767 0.010950000 0.018867766
v 0.001250000 0.010950000 0.019265063
v 0.002165064 0.010950000 0.018350000
f 10 1 2
f 2 4 11
f 5 30 4
f 5 23 30
f 9 6 3
f 3 1 10
f 7 6 9
f 7 9 8
f 9 3 10
f 10 2 11
f 11 4 29
f 29 4 30
f 17 15 13
f 14 17 13
f 14 13 12
f 17 18 15
f 18 19 15
f 15 47 16
f 19 20 15
f 20 21 15
f 21 22 15
f 22 42 15
f 15 42 43
f 24 30 23
f 25 34 24
f 25 26 34
f 27 33 26
f 27 28 33
f 30 24 34
f 34 26 33
f 31 35 28
f 33 28 35
f 32 35 31
f 36 16 46
f 46 37 36
f 46 38 37
f 46 39 38
f 46 40 39
f 48 41 40
f 15 43 47
f 16 47 46
f 46 48 40
f 48 44 41
f 48 45 44
f 13 2 1
f 2 15 4
f 3 12 1
f 14 3 6
f 16 5 4
f 5 36 23
f 7 17 6
f 8 18 7
f 19 8 9
f 20 9 10
f 21 10 11
f 11 29 22
f 1 12 13
f 2 13 15
f 3 14 12
f 6 17 14
f 4 15 16
f 5 16 36
f 7 18 17
f 8 19 18
f 9 20 19
f 10 21 20
f 11 22 21
f 29 42 22
f 37 24 23
f 25 24 38
f 25 39 26
f 40 27 26
f 27 41 28
f 31 28 44
f 29 30 42
f 43 30 34
f 32 31 45
f 32 48 35
f 47 34 33
f 46 33 35
f 23 36 37
f 24 37 38
f 25 38 39
f 26 39 40
f 27 40 41
f 28 41 44
f 42 30 43
f 43 34 47
f 31 44 45
f 32 45 48
f 33 46 47
f 35 48 46
