# mf_proximal.obj  (860 v, 1716 f)  units: metres
v -0.009555283 -0.010850000 0.011754915
v -0.008845085 -0.010850000 0.010361074
v -0.009800000 -0.010850000 0.013300000
v -0.007738926 -0.010850000 0.009254915
v -0.007738926 -0.013550000 0.026054915
v -0.007738926 -0.010850000 0.026054915
v -0.006345085 -0.010850000 0.008544717
v -0.005527339 -0.011442388 0.016752249
v -0.005581352 -0.011388268 0.016748851
v -0.005559718 -0.011420711 0.016750213
v -0.005588950 -0.011350000 0.016748372
v -0.005566958 -0.011350000 0.017097922
v -0.005588950 -0.010950000 0.016748372
v -0.005566958 -0.010950000 0.017097922
v -0.005575579 -0.010900000 0.016749214
v -0.005539048 -0.010863397 0.016751513
v -0.005267205 -0.011442388 0.015388581
v -0.005230810 -0.011450000 0.015400407
v -0.005489146 -0.011450000 0.016754651
v -0.005325917 -0.011350000 0.015369505
v -0.005318677 -0.011388268 0.015371857
v -0.005298060 -0.011420711 0.015378556
v -0.005243178 -0.011350000 0.015193676
v -0.005325917 -0.010950000 0.015369505
v -0.005313175 -0.010900000 0.015373644
v -0.005243178 -0.010950000 0.015193676
v -0.005278364 -0.010863397 0.015384955
v -0.005230811 -0.010850000 0.015400407
v -0.005489147 -0.010850000 0.016754651
v -0.006345085 -0.013550000 0.025344718
v -0.006345085 -0.010850000 0.025344718
v -0.005440169 -0.011442388 0.018137768
v -0.005402579 -0.011450000 0.018130597
v -0.005493331 -0.011388268 0.018147908
v -0.005500809 -0.011350000 0.018149335
v -0.005472037 -0.011420711 0.018143848
v -0.005223527 -0.011350000 0.019002721
v -0.005011174 -0.011442388 0.019458080
v -0.004976548 -0.011450000 0.019441785
v -0.005060144 -0.011388268 0.019481122
v -0.005067031 -0.011350000 0.019484363
v -0.005040529 -0.011420711 0.019471893
v -0.005500809 -0.010950000 0.018149335
v -0.005487648 -0.010900000 0.018146824
v -0.005451694 -0.010863397 0.018139966
v -0.005402580 -0.010850000 0.018130597
v -0.005223527 -0.010950000 0.019002721
v -0.005067031 -0.010950000 0.019484363
v -0.005054909 -0.010900000 0.019478660
v -0.005021790 -0.010863397 0.019463075
v -0.004976549 -0.010850000 0.019441785
v -0.009555283 -0.013550000 0.028554915
v -0.009800000 -0.013550000 0.030100001
v -0.008845085 -0.013550000 0.027161075
v -0.009555283 -0.010850000 0.028554915
v -0.009800000 -0.010850000 0.030100001
v -0.008845085 -0.010850000 0.027161075
v -0.009800000 -0.011150000 0.041099999
v -0.009571639 -0.011150000 0.042248052
v -0.008921321 -0.011150000 0.043221321
v -0.007948050 -0.011150000 0.043871637
v -0.004800000 -0.010850000 0.008300000
v -0.004676114 -0.011442388 0.014132448
v -0.004643803 -0.011450000 0.014152953
v -0.004721809 -0.011388268 0.014103449
v -0.004728236 -0.011350000 0.014099370
v -0.004703506 -0.011420711 0.014115064
v -0.004728236 -0.010950000 0.014099370
v -0.004716924 -0.010900000 0.014106548
v -0.004686020 -0.010863397 0.014126161
v -0.004643803 -0.010850000 0.014152952
v -0.004255930 -0.011350000 0.013528449
v -0.003791205 -0.011442388 0.013062777
v -0.003765008 -0.011450000 0.013090674
v -0.003828253 -0.011388268 0.013023324
v -0.003833464 -0.011350000 0.013017775
v -0.003813414 -0.011420711 0.013039127
v -0.004255930 -0.010950000 0.013528449
v -0.003833464 -0.010950000 0.013017775
v -0.003824293 -0.010900000 0.013027542
v -0.003799236 -0.010863397 0.013054224
v -0.003765009 -0.010850000 0.013090673
v -0.002792076 -0.011350000 0.012261163
v -0.002668081 -0.011442388 0.012246779
v -0.002649645 -0.011450000 0.012280314
v -0.002694153 -0.011388268 0.012199353
v -0.002697821 -0.011350000 0.012192682
v -0.002683710 -0.011420711 0.012218350
v -0.002792076 -0.010950000 0.012261163
v -0.002697821 -0.010950000 0.012192682
v -0.002691366 -0.010900000 0.012204423
v -0.002673733 -0.010863397 0.012236498
v -0.002649645 -0.010850000 0.012280313
v -0.004800000 -0.013550000 0.025100000
v -0.004309009 -0.011388268 0.020664722
v -0.004292306 -0.011420711 0.020650905
v -0.004314874 -0.011350000 0.020669574
v -0.004314874 -0.010950000 0.020669574
v -0.004304551 -0.010900000 0.020661034
v -0.004237822 -0.011450000 0.020605830
v -0.004267308 -0.011442388 0.020630224
v -0.004286587 -0.011350000 0.020696137
v -0.004237823 -0.010850000 0.020605832
v -0.004286587 -0.010950000 0.020696137
v -0.004276348 -0.010863397 0.020637702
v -0.004800000 -0.010850000 0.025100000
v -0.003255312 -0.011442388 0.021580553
v -0.003232818 -0.011450000 0.021549592
v -0.003274381 -0.011420711 0.021606799
v -0.003287123 -0.011388268 0.021624336
v -0.003291597 -0.011350000 0.021630496
v -0.003291597 -0.010950000 0.021630496
v -0.003283723 -0.010900000 0.021619657
v -0.003262208 -0.010863397 0.021590045
v -0.003232819 -0.010850000 0.021549594
v -0.002779318 -0.011350000 0.021912122
v -0.002779318 -0.010950000 0.021912122
v -0.001367794 -0.011450000 0.011772794
v -0.001377311 -0.011442388 0.011735727
v -0.001385379 -0.011420711 0.011704304
v -0.001390770 -0.011388268 0.011683308
v -0.001392663 -0.011350000 0.011675934
v -0.001392663 -0.010950000 0.011675934
v -0.001389332 -0.010900000 0.011688911
v -0.001380229 -0.010863397 0.011724363
v -0.001367794 -0.010850000 0.011772793
v -0.000967733 -0.011350000 0.011622253
v -0.000967733 -0.010950000 0.011622253
v -0.002038772 -0.011442388 0.022249350
v -0.002024685 -0.011450000 0.022213770
v -0.002050715 -0.011420711 0.022279516
v -0.002058695 -0.011388268 0.022299672
v -0.002061497 -0.011350000 0.022306748
v -0.002043091 -0.010863397 0.022260260
v -0.002024685 -0.010850000 0.022213770
v -0.002061497 -0.010950000 0.022306748
v -0.002056566 -0.010900000 0.022294292
v -0.000965553 -0.011350000 0.022588139
v -0.000689333 -0.011450000 0.022556629
v -0.000694129 -0.011442388 0.022594597
v -0.000698195 -0.011420711 0.022626784
v -0.000700912 -0.011388268 0.022648290
v -0.000701866 -0.011350000 0.022655843
v -0.000965553 -0.010950000 0.022588139
v -0.000701866 -0.010950000 0.022655843
v -0.000689333 -0.010850000 0.022556631
v -0.000700187 -0.010900000 0.022642551
v -0.000695599 -0.010863397 0.022606237
v -0.009571639 -0.011150000 0.045951951
v -0.009800000 -0.011150000 0.047100000
v -0.008921321 -0.011150000 0.044978678
v -0.007948050 -0.011150000 0.044328362
v -0.009800000 -0.013550000 0.058100000
v -0.009555283 -0.013550000 0.059645083
v -0.008845085 -0.013550000 0.061038926
v -0.009800000 -0.010850000 0.058100000
v -0.009555283 -0.010850000 0.059645083
v -0.008845085 -0.010850000 0.061038926
v -0.006800000 -0.011150000 0.044100001
v -0.007738926 -0.013550000 0.062145084
v -0.007738926 -0.010850000 0.062145084
v -0.009800000 -0.010850000 0.074900001
v -0.009555283 -0.010850000 0.076445088
v -0.008845085 -0.010850000 0.077838928
v -0.007738926 -0.010850000 0.078945085
v -0.006345085 -0.013550000 0.062855281
v -0.006345085 -0.010850000 0.062855281
v -0.005588950 -0.011250000 0.070748374
v -0.005588950 -0.010950000 0.070748374
v -0.005575579 -0.010900000 0.070749216
v -0.005539048 -0.010863397 0.070751511
v -0.005325917 -0.011250000 0.069369502
v -0.005243178 -0.010950000 0.069193676
v -0.005325917 -0.010950000 0.069369502
v -0.005313175 -0.010900000 0.069373645
v -0.005278364 -0.010863397 0.069384955
v -0.005230811 -0.010850000 0.069400407
v -0.005489147 -0.010850000 0.070754655
v -0.006345085 -0.010850000 0.079655282
v -0.005566958 -0.010950000 0.071097925
v -0.005500809 -0.011250000 0.072149336
v -0.005067031 -0.011250000 0.073484361
v -0.005500809 -0.010950000 0.072149336
v -0.005487648 -0.010900000 0.072146825
v -0.005451694 -0.010863397 0.072139964
v -0.005402580 -0.010850000 0.072130598
v -0.005223527 -0.010950000 0.073002726
v -0.005067031 -0.010950000 0.073484361
v -0.005054909 -0.010900000 0.073478661
v -0.005021790 -0.010863397 0.073463075
v -0.004976549 -0.010850000 0.073441789
v -0.004800000 -0.013550000 0.063100003
v -0.004800000 -0.010850000 0.063100003
v -0.004728236 -0.011250000 0.068099372
v -0.004728236 -0.010950000 0.068099372
v -0.004716924 -0.010900000 0.068106547
v -0.004686020 -0.010863397 0.068126164
v -0.004643803 -0.010850000 0.068152957
v -0.003833464 -0.011250000 0.067017779
v -0.004255930 -0.010950000 0.067528449
v -0.003833464 -0.010950000 0.067017779
v -0.003824293 -0.010900000 0.067027546
v -0.003799236 -0.010863397 0.067054227
v -0.003765009 -0.010850000 0.067090675
v -0.002697821 -0.011250000 0.066192687
v -0.002792076 -0.010950000 0.066261165
v -0.002697821 -0.010950000 0.066192687
v -0.002691366 -0.010900000 0.066204421
v -0.002673733 -0.010863397 0.066236496
v -0.002649645 -0.010850000 0.066280313
v -0.003234443 -0.011250000 0.070476264
v -0.003192737 -0.011250000 0.070375577
v -0.003159680 -0.011250000 0.070295773
v -0.003141061 -0.011250000 0.070251748
v -0.003146575 -0.011250000 0.070264131
v -0.003234443 -0.010700000 0.070476264
v -0.003190509 -0.010700000 0.070370197
v -0.003057035 -0.011250000 0.070063025
v -0.002654580 -0.011250000 0.069159098
v -0.002639183 -0.011250000 0.069124512
v -0.002635085 -0.011250000 0.069120824
v -0.002543591 -0.011250000 0.069038443
v -0.002475586 -0.011250000 0.068977207
v -0.004314874 -0.011250000 0.074669577
v -0.004314874 -0.010950000 0.074669577
v -0.004304551 -0.010900000 0.074661039
v -0.004286587 -0.010950000 0.074696139
v -0.004276348 -0.010863397 0.074637704
v -0.004237823 -0.010850000 0.074605830
v -0.004800000 -0.010850000 0.079899997
v -0.003234443 -0.011250000 0.071503595
v -0.003234443 -0.011250000 0.071552284
v -0.003234443 -0.011250000 0.071723737
v -0.003218937 -0.011250000 0.071761169
v -0.003146575 -0.011250000 0.071935870
v -0.003127431 -0.011250000 0.071978867
v -0.002728723 -0.011250000 0.072874375
v -0.002639183 -0.011250000 0.073075488
v -0.002630979 -0.011250000 0.073082872
v -0.003291597 -0.011250000 0.075630493
v -0.003291597 -0.010950000 0.075630493
v -0.003283723 -0.010900000 0.075619660
v -0.003262208 -0.010863397 0.075590044
v -0.003232819 -0.010850000 0.075549595
v -0.002779318 -0.010950000 0.075912125
v -0.003234443 -0.009850000 0.070476264
v -0.003146575 -0.009850000 0.070264131
v -0.003146575 -0.009637868 0.070476264
v -0.002934443 -0.009550000 0.070476264
v -0.002639183 -0.009850000 0.069124512
v -0.002639183 -0.009637868 0.069336645
v -0.003234443 -0.009850000 0.071723737
v -0.003146575 -0.009850000 0.071935870
v -0.003146575 -0.009637868 0.071723737
v -0.002934443 -0.009550000 0.071723737
v -0.002639183 -0.009850000 0.073075488
v -0.002639183 -0.009637868 0.072863355
v -0.001392663 -0.011250000 0.065675937
v -0.001392663 -0.010950000 0.065675937
v -0.001389332 -0.010900000 0.065688908
v -0.001380229 -0.010863397 0.065724365
v -0.001367794 -0.010850000 0.065772794
v -0.001712132 -0.011250000 0.068289794
v -0.001668039 -0.011250000 0.068271533
v -0.001500000 -0.011250000 0.068201929
v -0.001497260 -0.011250000 0.068201035
v -0.001290633 -0.011250000 0.068133898
v -0.000967733 -0.010950000 0.065622255
v -0.000033848 -0.011250000 0.065504275
v -0.000000000 -0.011256024 0.065499999
v -0.000000000 -0.010950000 0.065499999
v -0.000000000 -0.010900000 0.065513395
v -0.000000000 -0.010863397 0.065549999
v -0.000000000 -0.010850000 0.065600000
v -0.000414833 -0.011250000 0.067849331
v -0.000313585 -0.011250000 0.067816436
v -0.000130102 -0.011250000 0.067835718
v -0.000094650 -0.011250000 0.067839444
v -0.001875729 -0.011250000 0.073762901
v -0.001729569 -0.011250000 0.073894508
v -0.001712132 -0.011250000 0.073910207
v -0.001537435 -0.011250000 0.073982567
v -0.001500000 -0.011250000 0.073998071
v -0.001500000 -0.010700000 0.073998071
v -0.002061497 -0.011250000 0.076306745
v -0.002061497 -0.010950000 0.076306745
v -0.002043091 -0.010863397 0.076260261
v -0.002024685 -0.010850000 0.076213770
v -0.002056566 -0.010900000 0.076294295
v -0.000604022 -0.011250000 0.074289195
v -0.000522953 -0.011250000 0.074315540
v -0.000313585 -0.011250000 0.074383564
v -0.000701866 -0.011250000 0.076655842
v -0.000965553 -0.010950000 0.076588139
v -0.000701866 -0.010950000 0.076655842
v -0.000700187 -0.010900000 0.076642551
v -0.000695599 -0.010863397 0.076606236
v -0.000689333 -0.010850000 0.076556630
v -0.002427051 -0.009637868 0.069124512
v -0.002427051 -0.009550000 0.069336645
v -0.001712132 -0.009850000 0.068289794
v -0.001500000 -0.009850000 0.068201929
v -0.001500000 -0.009637868 0.068289794
v -0.001500000 -0.009550000 0.068501927
v -0.000313585 -0.009850000 0.067816436
v -0.000313585 -0.009637868 0.067904301
v -0.000313585 -0.009550000 0.068116434
v -0.002427051 -0.009550000 0.072863355
v -0.002427051 -0.009637868 0.073075488
v -0.001712132 -0.009850000 0.073910207
v -0.001500000 -0.009850000 0.073998071
v -0.001500000 -0.009550000 0.073698074
v -0.001500000 -0.009637868 0.073910207
v -0.000313585 -0.009850000 0.074383564
v -0.000313585 -0.009637868 0.074295700
v -0.000313585 -0.009550000 0.074083567
v -0.009555283 0.010950000 0.011754915
v -0.008845085 0.010950000 0.010361074
v -0.009800000 0.010950000 0.013300000
v -0.007738926 0.010950000 0.009254915
v -0.007738926 0.010950000 0.026054915
v -0.007738926 0.013450000 0.026054915
v -0.006345085 0.010950000 0.008544717
v -0.006345085 0.010950000 0.025344718
v -0.006345085 0.013450000 0.025344718
v -0.009800000 0.009450000 0.041099999
v -0.009571639 0.009450000 0.042248052
v -0.008921321 0.009450000 0.043221321
v -0.007948050 0.009450000 0.043871637
v -0.009555283 0.010950000 0.028554915
v -0.009800000 0.010950000 0.030100001
v -0.008845085 0.010950000 0.027161075
v -0.009555283 0.013450000 0.028554915
v -0.009800000 0.013450000 0.030100001
v -0.008845085 0.013450000 0.027161075
v -0.004800000 0.010950000 0.008300000
v -0.004800000 0.010950000 0.025100000
v -0.004800000 0.013450000 0.025100000
v -0.009571639 0.009450000 0.045951951
v -0.009800000 0.009450000 0.047100000
v -0.008921321 0.009450000 0.044978678
v -0.007948050 0.009450000 0.044328362
v -0.009800000 0.010950000 0.058100000
v -0.009555283 0.010950000 0.059645083
v -0.008845085 0.010950000 0.061038926
v -0.009800000 0.013450000 0.058100000
v -0.009555283 0.013450000 0.059645083
v -0.008845085 0.013450000 0.061038926
v -0.006800000 0.009450000 0.044100001
v -0.007738926 0.010950000 0.062145084
v -0.007738926 0.013450000 0.062145084
v -0.009800000 0.010950000 0.074900001
v -0.009555283 0.010950000 0.076445088
v -0.008845085 0.010950000 0.077838928
v -0.007738926 0.010950000 0.078945085
v -0.006345085 0.010950000 0.062855281
v -0.006345085 0.013450000 0.062855281
v -0.006345085 0.010950000 0.079655282
v -0.004800000 0.010950000 0.063100003
v -0.003722874 0.010237868 0.069645800
v -0.003810742 0.010450000 0.069645800
v -0.003722874 0.010450000 0.069433667
v -0.003911437 0.010343933 0.070372894
v -0.003810742 0.010950000 0.069645800
v -0.003722874 0.010950000 0.069433667
v -0.004800000 0.013450000 0.063100003
v -0.003510742 0.010150000 0.069645800
v -0.002899138 0.010237868 0.068412997
v -0.002899138 0.010450000 0.068200864
v -0.002687006 0.010150000 0.068412997
v -0.002687006 0.010237868 0.068200864
v -0.002899138 0.010950000 0.068200864
v -0.004012132 0.010237868 0.071099997
v -0.004100000 0.010450000 0.071099997
v -0.003800000 0.010150000 0.071099997
v -0.003722874 0.010237868 0.072554193
v -0.003810742 0.010450000 0.072554193
v -0.003722874 0.010450000 0.072766326
v -0.004100000 0.010950000 0.071099997
v -0.003810742 0.010950000 0.072554193
v -0.003722874 0.010950000 0.072766326
v -0.004800000 0.010950000 0.079899997
v -0.003510742 0.010150000 0.072554193
v -0.002899138 0.010237868 0.073787004
v -0.002899138 0.010450000 0.073999137
v -0.002687006 0.010150000 0.073787004
v -0.002687006 0.010237868 0.073999137
v -0.002899138 0.010950000 0.073999137
v -0.002176667 0.010343933 0.067788996
v -0.002070601 0.010193934 0.067895062
v -0.001666329 0.010450000 0.067377128
v -0.001560263 0.010850000 0.067333192
v -0.001454197 0.010150000 0.067589261
v -0.001454197 0.010237868 0.067377128
v -0.001454197 0.010450000 0.067289263
v -0.001666329 0.010950000 0.067377128
v -0.001454197 0.010950000 0.067289263
v -0.000000000 0.010150000 0.067299999
v -0.000000000 0.010237868 0.067087866
v -0.000000000 0.010450000 0.067000002
v -0.000000000 0.010950000 0.067000002
v -0.001666329 0.010450000 0.074822873
v -0.001454197 0.010150000 0.074610740
v -0.001454197 0.010237868 0.074822873
v -0.001454197 0.010450000 0.074910738
v -0.001666329 0.010950000 0.074822873
v -0.001454197 0.010950000 0.074910738
v -0.000000000 0.010150000 0.074900001
v -0.000000000 0.010237868 0.075112134
v -0.000000000 0.010450000 0.075199999
v -0.000000000 0.010950000 0.075199999
v 0.000000000 -0.011442388 0.011561733
v 0.000000000 -0.011450000 0.011600002
v 0.000000000 -0.011388268 0.011507613
v 0.000000000 -0.011420711 0.011529290
v 0.000000000 -0.011350000 0.011500000
v 0.000000000 -0.010950000 0.011500000
v 0.000000000 -0.010900000 0.011513397
v 0.000000000 -0.010863397 0.011550000
v 0.000000000 -0.010850000 0.011600000
v 0.000967733 -0.011350000 0.011622253
v 0.000967733 -0.010950000 0.011622253
v 0.001367794 -0.011450000 0.011772794
v 0.001377311 -0.011442388 0.011735727
v 0.001385379 -0.011420711 0.011704304
v 0.001390770 -0.011388268 0.011683308
v 0.001392663 -0.011350000 0.011675934
v 0.001367794 -0.010850000 0.011772793
v 0.001392663 -0.010950000 0.011675934
v 0.001389332 -0.010900000 0.011688911
v 0.001380229 -0.010863397 0.011724363
v 0.000689333 -0.011450000 0.022556629
v 0.000694129 -0.011442388 0.022594597
v 0.000698195 -0.011420711 0.022626784
v 0.000700912 -0.011388268 0.022648290
v 0.000701866 -0.011350000 0.022655843
v 0.000965553 -0.011350000 0.022588139
v 0.000701866 -0.010950000 0.022655843
v 0.000689333 -0.010850000 0.022556631
v 0.000700187 -0.010900000 0.022642551
v 0.000695599 -0.010863397 0.022606237
v 0.000965553 -0.010950000 0.022588139
v 0.002024685 -0.011450000 0.022213770
v 0.002038772 -0.011442388 0.022249350
v 0.002050715 -0.011420711 0.022279516
v 0.002058695 -0.011388268 0.022299672
v 0.002061497 -0.011350000 0.022306748
v 0.002024685 -0.010850000 0.022213770
v 0.002043091 -0.010863397 0.022260260
v 0.002061497 -0.010950000 0.022306748
v 0.002056566 -0.010900000 0.022294292
v 0.002649645 -0.011450000 0.012280314
v 0.002668081 -0.011442388 0.012246779
v 0.002694153 -0.011388268 0.012199353
v 0.002697821 -0.011350000 0.012192682
v 0.002683710 -0.011420711 0.012218350
v 0.002792076 -0.011350000 0.012261163
v 0.002697821 -0.010950000 0.012192682
v 0.002691366 -0.010900000 0.012204423
v 0.002673733 -0.010863397 0.012236498
v 0.002649645 -0.010850000 0.012280313
v 0.002792076 -0.010950000 0.012261163
v 0.004800000 -0.010850000 0.008300000
v 0.003765008 -0.011450000 0.013090674
v 0.003791205 -0.011442388 0.013062777
v 0.003813414 -0.011420711 0.013039127
v 0.003828253 -0.011388268 0.013023324
v 0.003833464 -0.011350000 0.013017775
v 0.004255930 -0.011350000 0.013528449
v 0.003799236 -0.010863397 0.013054224
v 0.003824293 -0.010900000 0.013027542
v 0.003765009 -0.010850000 0.013090673
v 0.003833464 -0.010950000 0.013017775
v 0.004255930 -0.010950000 0.013528449
v 0.004643803 -0.011450000 0.014152953
v 0.004676114 -0.011442388 0.014132448
v 0.004703506 -0.011420711 0.014115064
v 0.004721809 -0.011388268 0.014103449
v 0.004728236 -0.011350000 0.014099370
v 0.004643803 -0.010850000 0.014152952
v 0.004728236 -0.010950000 0.014099370
v 0.004686020 -0.010863397 0.014126161
v 0.004716924 -0.010900000 0.014106548
v 0.003232818 -0.011450000 0.021549592
v 0.003255312 -0.011442388 0.021580553
v 0.003274381 -0.011420711 0.021606799
v 0.003287123 -0.011388268 0.021624336
v 0.003291597 -0.011350000 0.021630496
v 0.003291597 -0.010950000 0.021630496
v 0.003232819 -0.010850000 0.021549594
v 0.003262208 -0.010863397 0.021590045
v 0.003283723 -0.010900000 0.021619657
v 0.002779318 -0.011350000 0.021912122
v 0.002779318 -0.010950000 0.021912122
v 0.004800000 -0.013550000 0.025100000
v 0.004237822 -0.011450000 0.020605830
v 0.004267308 -0.011442388 0.020630224
v 0.004286587 -0.011350000 0.020696137
v 0.004237823 -0.010850000 0.020605832
v 0.004286587 -0.010950000 0.020696137
v 0.004276348 -0.010863397 0.020637702
v 0.004292306 -0.011420711 0.020650905
v 0.004309009 -0.011388268 0.020664722
v 0.004314874 -0.011350000 0.020669574
v 0.004314874 -0.010950000 0.020669574
v 0.004304551 -0.010900000 0.020661034
v 0.004800000 -0.010850000 0.025100000
v 0.005230810 -0.011450000 0.015400407
v 0.005267205 -0.011442388 0.015388581
v 0.005489146 -0.011450000 0.016754651
v 0.005243178 -0.011350000 0.015193676
v 0.005298060 -0.011420711 0.015378556
v 0.005318677 -0.011388268 0.015371857
v 0.005325917 -0.011350000 0.015369505
v 0.005243178 -0.010950000 0.015193676
v 0.005230811 -0.010850000 0.015400407
v 0.005278364 -0.010863397 0.015384955
v 0.005325917 -0.010950000 0.015369505
v 0.005313175 -0.010900000 0.015373644
v 0.005489147 -0.010850000 0.016754651
v 0.005527339 -0.011442388 0.016752249
v 0.005559718 -0.011420711 0.016750213
v 0.005581352 -0.011388268 0.016748851
v 0.005588950 -0.011350000 0.016748372
v 0.005566958 -0.011350000 0.017097922
v 0.005588950 -0.010950000 0.016748372
v 0.005539048 -0.010863397 0.016751513
v 0.005575579 -0.010900000 0.016749214
v 0.005600000 -0.010950000 0.017100001
v 0.006345085 -0.010850000 0.008544717
v 0.004976548 -0.011450000 0.019441785
v 0.005011174 -0.011442388 0.019458080
v 0.005040529 -0.011420711 0.019471893
v 0.005060144 -0.011388268 0.019481122
v 0.005067031 -0.011350000 0.019484363
v 0.005402579 -0.011450000 0.018130597
v 0.005440169 -0.011442388 0.018137768
v 0.005472037 -0.011420711 0.018143848
v 0.005493331 -0.011388268 0.018147908
v 0.005500809 -0.011350000 0.018149335
v 0.005223527 -0.011350000 0.019002721
v 0.004976549 -0.010850000 0.019441785
v 0.005021790 -0.010863397 0.019463075
v 0.005067031 -0.010950000 0.019484363
v 0.005054909 -0.010900000 0.019478660
v 0.005402580 -0.010850000 0.018130597
v 0.005500809 -0.010950000 0.018149335
v 0.005451694 -0.010863397 0.018139966
v 0.005487648 -0.010900000 0.018146824
v 0.005223527 -0.010950000 0.019002721
v 0.006345085 -0.013550000 0.025344718
v 0.006345085 -0.010850000 0.025344718
v 0.007738926 -0.010850000 0.009254915
v 0.008845085 -0.010850000 0.010361074
v 0.009555283 -0.010850000 0.011754915
v 0.009800000 -0.010850000 0.013300000
v 0.007738926 -0.013550000 0.026054915
v 0.007738926 -0.010850000 0.026054915
v 0.008845085 -0.013550000 0.027161075
v 0.009555283 -0.013550000 0.028554915
v 0.009800000 -0.013550000 0.030100001
v 0.008845085 -0.010850000 0.027161075
v 0.009555283 -0.010850000 0.028554915
v 0.009800000 -0.010850000 0.030100001
v 0.007948050 -0.011150000 0.043871637
v 0.008921321 -0.011150000 0.043221321
v 0.009800000 -0.011150000 0.041099999
v 0.009571639 -0.011150000 0.042248052
v 0.000967733 -0.011326980 0.065622255
v 0.001116222 -0.011337868 0.065641016
v 0.001144611 -0.011350000 0.065644599
v 0.001157568 -0.011337868 0.065653555
v 0.001157568 -0.011353741 0.065646984
v 0.001224276 -0.011388268 0.065662272
v 0.001191966 -0.011370284 0.065654613
v 0.001187497 -0.011367797 0.065653555
v 0.001157568 -0.011250000 0.065865688
v 0.000967733 -0.010950000 0.065622255
v 0.000927051 -0.011250000 0.067946836
v 0.000954974 -0.011250000 0.067958400
v 0.001139183 -0.011250000 0.068034701
v 0.001525839 -0.011442388 0.065794535
v 0.001315009 -0.011419063 0.065694310
v 0.001319864 -0.011420711 0.065696023
v 0.001385379 -0.011420711 0.065704301
v 0.001380820 -0.011432960 0.065722056
v 0.001390770 -0.011388268 0.065683305
v 0.001392663 -0.011350000 0.065675937
v 0.001576585 -0.011443581 0.065821022
v 0.001367794 -0.010850000 0.065772794
v 0.001392663 -0.010950000 0.065675937
v 0.001389332 -0.010900000 0.065688908
v 0.001380229 -0.010863397 0.065724365
v 0.001849849 -0.011450000 0.065963656
v 0.002367776 -0.011293934 0.066406496
v 0.001265877 -0.011250000 0.068107851
v 0.001329831 -0.011250000 0.068144776
v 0.002208135 -0.011250000 0.068651862
v 0.002219524 -0.011250000 0.068658434
v 0.002348920 -0.011250000 0.068836533
v 0.002375817 -0.011250000 0.068873554
v 0.000364378 -0.011250000 0.074312307
v 0.000708115 -0.011250000 0.074276179
v 0.000927051 -0.011250000 0.074253164
v 0.001101748 -0.011250000 0.074180804
v 0.001139183 -0.011250000 0.074165300
v 0.001175091 -0.011250000 0.074144565
v 0.001139183 -0.010700000 0.074165300
v 0.000701866 -0.011250000 0.076655842
v 0.000701866 -0.010950000 0.076655842
v 0.000700187 -0.010900000 0.076642551
v 0.000695599 -0.010863397 0.076606236
v 0.000689333 -0.010850000 0.076556630
v 0.000965553 -0.010950000 0.076588139
v 0.002028876 -0.011250000 0.073651634
v 0.002219524 -0.011250000 0.073541567
v 0.002223278 -0.011250000 0.073536396
v 0.002249937 -0.011250000 0.073499702
v 0.002061497 -0.011250000 0.076306745
v 0.002061497 -0.010950000 0.076306745
v 0.002024685 -0.010850000 0.076213770
v 0.002043091 -0.010863397 0.076260261
v 0.002056566 -0.010900000 0.076294295
v 0.000927051 -0.009850000 0.067946836
v 0.001139183 -0.009850000 0.068034701
v 0.000927051 -0.009637868 0.068034701
v 0.000927051 -0.009550000 0.068246834
v 0.002007392 -0.009637868 0.068658434
v 0.002219524 -0.009850000 0.068658434
v 0.002007392 -0.009550000 0.068870567
v 0.002219524 -0.009637868 0.068870567
v 0.000306733 -0.009743934 0.074274436
v 0.000927051 -0.009850000 0.074253164
v 0.001139183 -0.009850000 0.074165300
v 0.000927051 -0.009550000 0.073953167
v 0.000927051 -0.009637868 0.074165300
v 0.002007392 -0.009550000 0.073329434
v 0.002007392 -0.009637868 0.073541567
v 0.002219524 -0.009850000 0.073541567
v 0.002219524 -0.009637868 0.073329434
v 0.002649645 -0.011450000 0.066280313
v 0.002668081 -0.011442388 0.066246778
v 0.002697821 -0.011350000 0.066192687
v 0.002683710 -0.011420711 0.066218354
v 0.002694153 -0.011388268 0.066199355
v 0.002792076 -0.011350000 0.066261165
v 0.002673733 -0.010863397 0.066236496
v 0.002649645 -0.010850000 0.066280313
v 0.002697821 -0.010950000 0.066192687
v 0.002691366 -0.010900000 0.066204421
v 0.002792076 -0.010950000 0.066261165
v 0.002952768 -0.011250000 0.069667660
v 0.002968275 -0.011250000 0.069705099
v 0.003004467 -0.011250000 0.069792472
v 0.003040636 -0.011250000 0.069879793
v 0.003056978 -0.011250000 0.069956675
v 0.002996702 -0.010700000 0.069773726
v 0.003226836 -0.011450000 0.066699669
v 0.003331733 -0.011446994 0.066757344
v 0.003492400 -0.011442388 0.066845685
v 0.003550528 -0.011437678 0.066879272
v 0.003577983 -0.011337868 0.066947296
v 0.003668255 -0.011428139 0.066947296
v 0.003577983 -0.011250000 0.067159429
v 0.003086407 -0.011250000 0.070095122
v 0.004800000 -0.013550000 0.063100003
v 0.004800000 -0.010850000 0.063100003
v 0.003800984 -0.011432843 0.067052364
v 0.003813414 -0.011420711 0.067039125
v 0.003828253 -0.011388268 0.067023322
v 0.003833464 -0.011350000 0.067017779
v 0.003884887 -0.011422507 0.067129701
v 0.003899463 -0.011420711 0.067143142
v 0.004020784 -0.011395405 0.067263477
v 0.004054996 -0.011388268 0.067297406
v 0.004134900 -0.011360830 0.067385502
v 0.004166435 -0.011350000 0.067420267
v 0.004192089 -0.011337868 0.067451276
v 0.004255930 -0.011327605 0.067528449
v 0.003824293 -0.010900000 0.067027546
v 0.003765009 -0.010850000 0.067090675
v 0.003799236 -0.010863397 0.067054227
v 0.003833464 -0.010950000 0.067017779
v 0.004255930 -0.010950000 0.067528449
v 0.004728236 -0.011251674 0.068099372
v 0.004731335 -0.011250000 0.068105958
v 0.004643803 -0.010850000 0.068152957
v 0.004728236 -0.010950000 0.068099372
v 0.004686020 -0.010863397 0.068126164
v 0.004716924 -0.010900000 0.068106547
v 0.002823372 -0.011250000 0.072710440
v 0.002984805 -0.011250000 0.072454996
v 0.002957995 -0.011250000 0.072519720
v 0.002952768 -0.011250000 0.072532341
v 0.003040636 -0.011250000 0.072320208
v 0.003019045 -0.011250000 0.072372332
v 0.003025130 -0.011250000 0.072357640
v 0.002996702 -0.010700000 0.072426274
v 0.003276033 -0.011250000 0.071212754
v 0.003254230 -0.011250000 0.071315326
v 0.003300000 -0.011250000 0.071099997
v 0.003298884 -0.011250000 0.071094751
v 0.002779318 -0.010950000 0.075912125
v 0.003291597 -0.011250000 0.075630493
v 0.003291597 -0.010950000 0.075630493
v 0.003232819 -0.010850000 0.075549595
v 0.003262208 -0.010863397 0.075590044
v 0.003283723 -0.010900000 0.075619660
v 0.004286587 -0.010950000 0.074696139
v 0.004237823 -0.010850000 0.074605830
v 0.004276348 -0.010863397 0.074637704
v 0.004314874 -0.011250000 0.074669577
v 0.004314874 -0.010950000 0.074669577
v 0.004304551 -0.010900000 0.074661039
v 0.004800000 -0.010850000 0.079899997
v 0.002740636 -0.009550000 0.069879793
v 0.002952768 -0.009850000 0.069667660
v 0.003040636 -0.009850000 0.069879793
v 0.002952768 -0.009637868 0.069879793
v 0.002480080 -0.009593934 0.072824821
v 0.002740636 -0.009550000 0.072320208
v 0.002952768 -0.009850000 0.072532341
v 0.003040636 -0.009850000 0.072320208
v 0.003000000 -0.009550000 0.071099997
v 0.002952768 -0.009637868 0.072320208
v 0.003300000 -0.009850000 0.071099997
v 0.003212132 -0.009637868 0.071099997
v 0.006800000 -0.011150000 0.044100001
v 0.007948050 -0.011150000 0.044328362
v 0.008921321 -0.011150000 0.044978678
v 0.009571639 -0.011150000 0.045951951
v 0.009800000 -0.011150000 0.047100000
v 0.008845085 -0.013550000 0.061038926
v 0.009800000 -0.013550000 0.058100000
v 0.009555283 -0.013550000 0.059645083
v 0.008845085 -0.010850000 0.061038926
v 0.009800000 -0.010850000 0.058100000
v 0.009555283 -0.010850000 0.059645083
v 0.005325917 -0.011250000 0.069369502
v 0.005243178 -0.010950000 0.069193676
v 0.005230811 -0.010850000 0.069400407
v 0.005278364 -0.010863397 0.069384955
v 0.005325917 -0.010950000 0.069369502
v 0.005313175 -0.010900000 0.069373645
v 0.005489147 -0.010850000 0.070754655
v 0.005588950 -0.011250000 0.070748374
v 0.005588950 -0.010950000 0.070748374
v 0.005539048 -0.010863397 0.070751511
v 0.005575579 -0.010900000 0.070749216
v 0.006345085 -0.013550000 0.062855281
v 0.006345085 -0.010850000 0.062855281
v 0.005500809 -0.011250000 0.072149336
v 0.005067031 -0.011250000 0.073484361
v 0.005223527 -0.010950000 0.073002726
v 0.005402580 -0.010850000 0.072130598
v 0.005500809 -0.010950000 0.072149336
v 0.005451694 -0.010863397 0.072139964
v 0.005487648 -0.010900000 0.072146825
v 0.004976549 -0.010850000 0.073441789
v 0.005021790 -0.010863397 0.073463075
v 0.005067031 -0.010950000 0.073484361
v 0.005054909 -0.010900000 0.073478661
v 0.005572456 -0.011250000 0.071010537
v 0.005575218 -0.011250000 0.071098447
v 0.005525607 -0.011250000 0.071887001
v 0.005600000 -0.010950000 0.071100004
v 0.006345085 -0.010850000 0.079655282
v 0.007738926 -0.013550000 0.062145084
v 0.007738926 -0.010850000 0.062145084
v 0.007738926 -0.010850000 0.078945085
v 0.009800000 -0.010850000 0.074900001
v 0.008845085 -0.010850000 0.077838928
v 0.009555283 -0.010850000 0.076445088
v 0.004800000 0.010950000 0.008300000
v 0.004800000 0.010950000 0.025100000
v 0.004800000 0.013450000 0.025100000
v 0.006345085 0.010950000 0.008544717
v 0.006345085 0.010950000 0.025344718
v 0.006345085 0.013450000 0.025344718
v 0.007738926 0.010950000 0.009254915
v 0.008845085 0.010950000 0.010361074
v 0.009555283 0.010950000 0.011754915
v 0.009800000 0.010950000 0.013300000
v 0.007738926 0.010950000 0.026054915
v 0.007738926 0.013450000 0.026054915
v 0.007948050 0.009450000 0.043871637
v 0.008921321 0.009450000 0.043221321
v 0.009800000 0.009450000 0.041099999
v 0.009571639 0.009450000 0.042248052
v 0.008845085 0.010950000 0.027161075
v 0.009555283 0.010950000 0.028554915
v 0.009800000 0.010950000 0.030100001
v 0.008845085 0.013450000 0.027161075
v 0.009555283 0.013450000 0.028554915
v 0.009800000 0.013450000 0.030100001
v 0.001454197 0.010150000 0.067589261
v 0.001454197 0.010237868 0.067377128
v 0.001454197 0.010450000 0.067289263
v 0.001666329 0.010450000 0.067377128
v 0.001454197 0.010950000 0.067289263
v 0.001666329 0.010950000 0.067377128
v 0.002176667 0.010343933 0.067788996
v 0.000727098 0.010343933 0.075011440
v 0.001454197 0.010150000 0.074610740
v 0.001454197 0.010237868 0.074822873
v 0.001454197 0.010450000 0.074910738
v 0.001666329 0.010450000 0.074822873
v 0.001454197 0.010950000 0.074910738
v 0.001666329 0.010950000 0.074822873
v 0.002687006 0.010150000 0.068412997
v 0.002687006 0.010237868 0.068200864
v 0.002899138 0.010237868 0.068412997
v 0.002899138 0.010450000 0.068200864
v 0.002899138 0.010950000 0.068200864
v 0.003510742 0.010150000 0.069645800
v 0.004800000 0.010950000 0.063100003
v 0.003722874 0.010237868 0.069645800
v 0.003722874 0.010450000 0.069433667
v 0.003810742 0.010450000 0.069645800
v 0.003761437 0.010193934 0.070372894
v 0.003722874 0.010950000 0.069433667
v 0.003810742 0.010950000 0.069645800
v 0.004800000 0.013450000 0.063100003
v 0.002687006 0.010150000 0.073787004
v 0.002687006 0.010237868 0.073999137
v 0.002899138 0.010237868 0.073787004
v 0.002899138 0.010450000 0.073999137
v 0.002899138 0.010950000 0.073999137
v 0.003204940 0.010193934 0.073170602
v 0.003510742 0.010150000 0.072554193
v 0.003800000 0.010150000 0.071099997
v 0.003722874 0.010237868 0.072554193
v 0.003810742 0.010450000 0.072554193
v 0.003722874 0.010450000 0.072766326
v 0.004012132 0.010237868 0.071099997
v 0.004100000 0.010450000 0.071099997
v 0.003810742 0.010950000 0.072554193
v 0.003722874 0.010950000 0.072766326
v 0.004100000 0.010950000 0.071099997
v 0.004800000 0.010950000 0.079899997
v 0.006800000 0.009450000 0.044100001
v 0.007948050 0.009450000 0.044328362
v 0.008921321 0.009450000 0.044978678
v 0.009571639 0.009450000 0.045951951
v 0.009800000 0.009450000 0.047100000
v 0.008845085 0.010950000 0.061038926
v 0.009800000 0.010950000 0.058100000
v 0.009555283 0.010950000 0.059645083
v 0.008845085 0.013450000 0.061038926
v 0.009800000 0.013450000 0.058100000
v 0.009555283 0.013450000 0.059645083
v 0.006345085 0.010950000 0.062855281
v 0.006345085 0.013450000 0.062855281
v 0.006345085 0.010950000 0.079655282
v 0.007738926 0.010950000 0.062145084
v 0.007738926 0.013450000 0.062145084
v 0.007738926 0.010950000 0.078945085
v 0.009800000 0.010950000 0.074900001
v 0.008845085 0.010950000 0.077838928
v 0.009555283 0.010950000 0.076445088
f 1 2 71
f 1 71 3
f 3 57 55
f 3 55 56
f 3 6 57
f 3 31 6
f 2 4 82
f 3 29 46
f 3 28 29
f 3 71 28
f 4 7 82
f 2 82 71
f 9 12 11
f 9 10 34
f 8 36 10
f 11 12 14
f 11 14 13
f 13 14 15
f 15 45 16
f 17 64 18
f 21 67 22
f 21 23 65
f 17 22 63
f 23 26 66
f 21 65 67
f 8 17 18
f 8 18 19
f 8 19 32
f 18 33 19
f 9 21 22
f 11 20 21
f 10 22 17
f 13 24 20
f 20 23 21
f 20 24 23
f 23 24 26
f 9 22 10
f 9 11 21
f 8 10 17
f 11 13 20
f 25 69 26
f 25 27 69
f 27 28 70
f 15 25 24
f 16 27 25
f 24 25 26
f 27 29 28
f 13 15 24
f 15 16 25
f 16 29 27
f 16 46 29
f 5 94 54
f 5 31 30
f 5 30 94
f 3 46 31
f 5 6 31
f 30 106 94
f 9 34 12
f 12 34 35
f 12 35 43
f 12 43 14
f 14 44 15
f 14 43 44
f 31 46 51
f 19 33 32
f 32 33 38
f 10 36 34
f 8 32 36
f 34 37 35
f 35 47 43
f 34 36 40
f 32 42 36
f 34 40 37
f 35 37 47
f 18 39 33
f 33 39 38
f 36 42 40
f 32 38 42
f 37 40 41
f 37 48 47
f 37 41 48
f 15 44 45
f 16 45 46
f 43 47 44
f 44 50 45
f 44 47 49
f 45 51 46
f 44 49 50
f 45 50 51
f 47 48 49
f 30 31 106
f 31 51 103
f 52 53 55
f 52 57 54
f 52 55 57
f 53 56 55
f 53 58 56
f 52 94 53
f 5 54 6
f 52 54 94
f 6 54 57
f 53 153 58
f 58 150 59
f 59 149 60
f 60 151 61
f 1 3 317
f 1 318 2
f 2 320 4
f 3 56 331
f 4 323 7
f 7 336 62
f 56 58 326
f 58 59 326
f 59 60 327
f 60 61 328
f 61 159 329
f 7 62 93
f 7 93 82
f 17 63 64
f 22 67 63
f 23 66 65
f 26 68 66
f 63 74 64
f 65 77 67
f 63 67 73
f 68 78 72
f 65 66 72
f 66 68 72
f 18 64 100
f 26 69 68
f 27 70 69
f 28 71 70
f 69 70 80
f 70 71 81
f 68 69 78
f 63 73 74
f 65 72 75
f 65 75 77
f 67 77 73
f 72 78 76
f 72 76 75
f 76 78 79
f 69 80 78
f 70 81 80
f 71 82 81
f 78 80 79
f 75 76 86
f 75 88 77
f 76 79 83
f 76 83 86
f 75 86 88
f 79 89 83
f 79 80 89
f 80 81 91
f 80 91 89
f 73 84 85
f 77 88 84
f 83 89 87
f 83 87 86
f 87 89 90
f 62 126 93
f 81 92 91
f 82 93 92
f 89 91 90
f 73 85 74
f 73 77 84
f 81 82 92
f 64 74 139
f 18 100 39
f 38 39 101
f 40 42 95
f 40 97 41
f 38 96 42
f 41 98 48
f 39 100 101
f 40 95 97
f 42 96 95
f 38 101 96
f 41 97 98
f 95 102 97
f 97 102 104
f 97 104 98
f 48 99 49
f 49 105 50
f 50 103 51
f 48 98 99
f 49 99 105
f 50 105 103
f 98 104 99
f 64 108 100
f 100 107 101
f 95 96 110
f 96 101 109
f 95 111 102
f 102 112 104
f 99 104 113
f 99 114 105
f 103 105 115
f 31 103 115
f 31 115 106
f 64 130 108
f 100 108 107
f 96 109 110
f 101 107 109
f 95 110 111
f 102 111 112
f 110 116 111
f 111 117 112
f 104 112 113
f 99 113 114
f 105 114 115
f 112 117 113
f 64 139 130
f 106 115 135
f 107 108 129
f 111 116 117
f 109 132 110
f 107 131 109
f 110 132 116
f 109 131 132
f 116 136 117
f 113 134 114
f 114 135 115
f 113 117 137
f 113 137 134
f 84 118 85
f 86 87 121
f 84 88 119
f 86 120 88
f 87 90 122
f 90 91 123
f 91 92 124
f 92 93 125
f 62 420 126
f 84 119 118
f 86 121 120
f 88 120 119
f 87 122 121
f 90 123 122
f 121 122 127
f 122 123 127
f 91 124 123
f 92 125 124
f 93 126 125
f 123 124 128
f 74 85 139
f 85 118 139
f 123 128 127
f 120 121 415
f 119 120 412
f 118 119 413
f 121 127 414
f 127 128 416
f 62 428 420
f 124 125 418
f 124 418 128
f 125 126 419
f 119 412 413
f 120 415 412
f 121 414 415
f 127 416 414
f 128 417 416
f 125 419 418
f 126 420 419
f 128 418 417
f 118 413 432
f 94 106 495
f 108 130 129
f 107 129 131
f 116 132 133
f 116 133 136
f 114 134 135
f 117 136 137
f 129 130 140
f 132 138 133
f 133 144 136
f 129 141 131
f 131 142 132
f 132 142 138
f 133 138 144
f 136 144 137
f 134 137 148
f 134 146 135
f 137 144 147
f 118 432 139
f 130 139 140
f 131 141 142
f 129 140 141
f 138 142 143
f 138 145 144
f 138 143 145
f 137 147 148
f 134 148 146
f 144 145 147
f 106 135 507
f 139 433 140
f 140 434 141
f 141 435 142
f 142 436 143
f 143 438 145
f 145 440 147
f 147 441 148
f 146 148 439
f 53 561 153
f 53 94 561
f 62 336 463
f 58 153 150
f 59 150 149
f 60 149 151
f 61 151 152
f 61 152 159
f 153 154 156
f 154 155 157
f 154 157 156
f 155 158 157
f 153 192 154
f 155 160 158
f 154 192 155
f 158 160 161
f 156 157 162
f 157 158 162
f 158 161 162
f 155 166 160
f 161 167 162
f 162 186 163
f 163 191 164
f 160 166 161
f 155 192 166
f 161 166 167
f 162 167 177
f 166 192 167
f 167 192 193
f 167 204 198
f 169 180 170
f 195 194 172
f 174 172 168
f 173 172 174
f 169 174 168
f 173 195 172
f 167 198 177
f 170 175 174
f 173 174 175
f 169 170 174
f 170 171 175
f 171 176 175
f 171 178 176
f 176 178 177
f 173 175 196
f 175 176 196
f 176 177 197
f 162 177 178
f 162 178 186
f 163 186 191
f 164 229 165
f 169 168 181
f 169 181 180
f 180 181 183
f 170 180 184
f 170 185 171
f 180 183 184
f 164 191 229
f 183 181 182
f 183 182 187
f 187 182 188
f 171 186 178
f 170 184 185
f 171 185 186
f 183 187 184
f 184 190 185
f 185 191 186
f 184 187 189
f 184 189 190
f 185 190 191
f 187 188 189
f 165 244 179
f 165 229 244
f 149 150 339
f 149 341 151
f 150 153 340
f 151 342 152
f 153 156 340
f 152 349 159
f 156 162 343
f 162 163 352
f 163 164 353
f 164 165 354
f 165 179 355
f 179 230 358
f 153 666 192
f 167 193 210
f 167 210 204
f 195 200 194
f 173 196 195
f 176 197 196
f 177 198 197
f 195 196 200
f 196 197 202
f 197 198 203
f 200 201 194
f 201 199 194
f 196 202 200
f 197 203 202
f 198 204 203
f 200 202 201
f 207 205 199
f 193 262 210
f 206 208 207
f 201 206 199
f 206 207 199
f 201 202 206
f 202 203 208
f 203 204 209
f 202 208 206
f 203 209 208
f 204 210 209
f 188 182 224
f 188 224 225
f 188 226 189
f 189 228 190
f 190 229 191
f 188 225 226
f 189 226 228
f 190 228 229
f 225 227 226
f 225 224 240
f 225 240 227
f 226 227 242
f 226 243 228
f 228 244 229
f 179 244 230
f 227 240 241
f 227 241 242
f 226 242 243
f 228 243 244
f 241 245 242
f 230 244 288
f 241 240 285
f 241 285 245
f 242 287 243
f 243 288 244
f 242 245 289
f 242 289 287
f 230 288 298
f 207 259 205
f 207 208 259
f 208 209 260
f 209 210 261
f 193 274 262
f 192 667 193
f 259 258 205
f 259 268 258
f 208 260 259
f 209 261 260
f 210 262 261
f 259 260 268
f 268 271 258
f 193 590 274
f 260 261 272
f 261 262 273
f 260 272 268
f 271 269 258
f 271 270 269
f 261 273 272
f 262 274 273
f 268 272 271
f 245 285 286
f 243 287 288
f 245 286 289
f 286 285 293
f 286 293 294
f 286 294 289
f 287 289 297
f 287 298 288
f 289 294 296
f 294 293 295
f 289 296 297
f 287 297 298
f 294 295 296
f 295 293 609
f 295 611 296
f 296 612 297
f 297 613 298
f 230 298 715
f 1 317 318
f 3 319 317
f 2 318 320
f 3 331 319
f 4 320 323
f 7 323 336
f 56 326 331
f 59 327 326
f 60 328 327
f 61 329 328
f 159 349 329
f 317 319 324
f 317 337 318
f 319 330 332
f 319 331 330
f 319 332 321
f 319 321 324
f 318 337 320
f 320 337 323
f 323 337 336
f 317 324 337
f 321 325 324
f 321 322 325
f 322 335 338
f 322 338 325
f 324 325 338
f 324 338 337
f 326 327 340
f 327 328 339
f 328 329 342
f 326 334 331
f 330 331 333
f 330 333 335
f 331 334 333
f 330 335 332
f 321 332 322
f 322 332 335
f 333 334 338
f 333 338 335
f 326 346 334
f 336 337 775
f 337 338 775
f 334 776 338
f 149 339 341
f 150 340 339
f 151 341 342
f 152 342 349
f 156 343 340
f 162 352 343
f 163 353 352
f 164 354 353
f 165 355 354
f 179 358 355
f 230 382 358
f 327 339 340
f 328 341 339
f 328 342 341
f 329 349 342
f 326 340 346
f 340 343 346
f 343 344 346
f 344 345 347
f 344 347 346
f 346 347 348
f 345 348 347
f 346 348 351
f 345 350 348
f 348 350 351
f 346 351 357
f 346 357 366
f 343 352 344
f 344 352 345
f 345 352 350
f 350 352 356
f 352 353 359
f 353 354 359
f 352 359 356
f 350 356 351
f 351 356 357
f 356 359 357
f 357 359 366
f 354 355 359
f 355 358 359
f 358 382 359
f 230 840 382
f 334 346 850
f 346 366 850
f 359 364 365
f 359 379 364
f 359 365 372
f 359 372 396
f 359 396 397
f 359 382 379
f 382 380 379
f 382 381 380
f 382 388 381
f 382 406 388
f 382 407 406
f 359 397 401
f 359 823 366
f 359 401 816
f 382 840 407
f 412 423 413
f 414 416 421
f 412 415 424
f 416 417 421
f 414 425 415
f 62 463 428
f 417 418 422
f 418 419 430
f 419 420 431
f 412 424 423
f 417 422 421
f 414 421 426
f 414 426 425
f 421 422 427
f 415 425 424
f 418 430 422
f 420 428 431
f 419 431 430
f 413 423 432
f 421 427 426
f 422 429 427
f 423 424 452
f 424 425 453
f 425 426 456
f 426 427 454
f 427 429 455
f 422 430 429
f 429 430 458
f 430 431 459
f 428 460 431
f 424 453 452
f 425 456 453
f 426 454 456
f 427 455 454
f 429 458 455
f 430 459 458
f 431 460 459
f 428 461 460
f 423 452 432
f 432 452 464
f 139 432 433
f 140 433 434
f 141 434 435
f 142 435 436
f 143 436 438
f 145 438 440
f 147 440 441
f 148 441 439
f 435 437 436
f 436 442 438
f 436 437 442
f 432 444 433
f 433 445 434
f 434 446 435
f 438 442 440
f 440 449 441
f 439 441 448
f 135 146 552
f 435 446 437
f 437 450 442
f 432 443 444
f 433 444 445
f 434 445 446
f 437 446 447
f 437 447 450
f 106 507 495
f 440 442 451
f 440 451 449
f 441 449 448
f 442 450 451
f 432 496 443
f 443 485 444
f 446 493 447
f 447 494 450
f 146 439 552
f 450 494 451
f 448 449 490
f 454 455 457
f 455 458 457
f 452 453 464
f 457 458 462
f 453 456 465
f 458 459 462
f 428 463 461
f 460 461 470
f 454 466 456
f 454 457 467
f 457 462 468
f 456 466 465
f 454 467 466
f 457 468 467
f 462 473 468
f 459 473 462
f 459 460 471
f 460 470 471
f 459 471 473
f 432 464 475
f 453 465 464
f 461 472 470
f 461 530 472
f 461 463 530
f 467 468 469
f 468 473 469
f 464 465 475
f 465 466 476
f 466 467 477
f 469 473 474
f 467 469 478
f 471 474 473
f 470 472 482
f 470 483 471
f 471 483 474
f 465 476 475
f 466 477 476
f 467 478 477
f 469 474 479
f 469 479 478
f 474 481 479
f 475 476 508
f 476 477 509
f 478 479 511
f 479 481 511
f 470 482 483
f 472 480 482
f 474 483 481
f 481 483 515
f 480 517 482
f 432 475 508
f 443 496 484
f 432 531 496
f 487 488 493
f 488 489 493
f 484 497 485
f 485 502 486
f 486 503 487
f 487 498 488
f 488 500 489
f 489 492 494
f 490 491 499
f 489 506 492
f 491 492 501
f 444 486 445
f 445 487 446
f 447 493 494
f 446 487 493
f 443 484 485
f 444 485 486
f 445 486 487
f 489 494 493
f 449 451 491
f 451 494 492
f 451 492 491
f 449 491 490
f 439 448 552
f 135 552 507
f 432 508 510
f 432 510 536
f 432 536 531
f 484 496 497
f 485 497 502
f 486 502 503
f 487 503 498
f 488 498 500
f 489 500 506
f 491 501 499
f 492 506 501
f 496 532 497
f 497 533 502
f 502 534 503
f 503 535 504
f 504 544 505
f 498 503 504
f 498 504 505
f 498 505 500
f 496 531 532
f 497 532 533
f 502 533 534
f 503 534 535
f 504 535 544
f 499 501 542
f 505 545 506
f 501 506 543
f 500 505 506
f 505 544 545
f 501 543 542
f 506 545 543
f 448 490 558
f 94 495 561
f 472 530 553
f 472 554 480
f 476 509 508
f 477 478 512
f 477 512 509
f 478 513 512
f 478 511 513
f 481 515 511
f 508 509 510
f 509 521 510
f 510 521 536
f 511 514 513
f 511 515 514
f 514 515 518
f 509 512 521
f 512 513 522
f 513 514 523
f 514 518 524
f 512 522 521
f 513 523 522
f 514 524 523
f 521 522 537
f 518 526 524
f 482 519 483
f 480 516 517
f 483 519 515
f 482 517 519
f 515 519 518
f 516 527 517
f 518 519 526
f 517 528 519
f 516 520 527
f 519 528 526
f 517 527 528
f 520 548 527
f 523 524 525
f 522 523 538
f 524 526 525
f 525 526 529
f 526 528 529
f 527 549 528
f 472 553 554
f 480 555 516
f 516 556 520
f 520 556 546
f 495 552 551
f 531 537 532
f 534 541 535
f 532 538 533
f 533 539 534
f 535 550 544
f 535 541 550
f 521 537 536
f 531 536 537
f 522 538 537
f 534 539 541
f 532 537 538
f 533 538 539
f 541 547 550
f 539 540 541
f 540 547 541
f 544 550 545
f 542 543 546
f 543 545 548
f 520 546 548
f 527 548 549
f 545 550 549
f 543 548 546
f 545 549 548
f 547 549 550
f 523 525 539
f 523 539 538
f 525 540 539
f 525 529 540
f 529 547 540
f 528 549 529
f 529 549 547
f 495 507 552
f 490 499 558
f 448 558 552
f 499 542 562
f 551 558 557
f 542 546 562
f 551 552 558
f 499 562 558
f 480 554 555
f 516 555 556
f 551 557 559
f 546 556 562
f 556 563 562
f 556 564 563
f 495 551 561
f 551 559 560
f 551 560 561
f 557 562 559
f 557 558 562
f 559 563 560
f 560 564 561
f 559 562 563
f 560 563 564
f 565 729 566
f 561 567 734
f 566 731 568
f 567 568 732
f 463 777 530
f 530 780 553
f 553 781 554
f 554 782 555
f 555 783 556
f 556 792 564
f 565 841 728
f 561 564 788
f 565 566 786
f 561 788 567
f 566 568 787
f 567 789 568
f 153 734 666
f 153 561 734
f 271 578 270
f 193 667 590
f 271 272 578
f 272 273 592
f 273 274 593
f 578 569 270
f 578 570 569
f 578 571 570
f 578 588 571
f 272 592 578
f 274 590 593
f 273 593 592
f 192 666 667
f 588 573 571
f 588 575 576
f 588 576 573
f 587 574 575
f 587 583 574
f 587 575 588
f 585 584 583
f 585 586 584
f 585 583 587
f 578 591 588
f 585 582 586
f 585 587 644
f 587 588 645
f 588 591 643
f 578 592 591
f 591 592 649
f 592 593 650
f 590 647 593
f 642 589 582
f 641 594 589
f 585 642 582
f 641 589 642
f 587 645 644
f 585 644 642
f 588 643 645
f 591 649 643
f 592 650 649
f 593 647 650
f 590 648 647
f 295 609 610
f 295 610 611
f 296 611 612
f 297 612 613
f 610 609 619
f 610 614 611
f 611 622 612
f 612 621 613
f 610 619 614
f 614 619 620
f 611 614 623
f 611 623 622
f 612 622 621
f 614 620 623
f 298 613 715
f 620 703 623
f 621 622 706
f 641 658 594
f 643 646 645
f 643 649 646
f 641 642 658
f 646 649 651
f 642 644 660
f 649 650 651
f 590 667 648
f 647 648 682
f 642 659 658
f 642 660 659
f 644 645 669
f 645 646 670
f 646 651 671
f 644 661 660
f 644 663 661
f 644 669 663
f 645 670 669
f 646 671 670
f 651 683 671
f 650 683 651
f 647 680 650
f 648 681 682
f 647 682 680
f 650 680 683
f 648 667 681
f 669 668 663
f 669 672 668
f 669 670 673
f 669 673 672
f 670 674 673
f 670 671 676
f 670 675 674
f 671 683 677
f 670 676 675
f 671 677 676
f 683 678 677
f 683 684 678
f 684 679 678
f 680 684 683
f 681 689 682
f 680 682 690
f 680 690 684
f 684 688 679
f 688 685 679
f 688 686 685
f 682 689 690
f 681 687 689
f 684 690 688
f 688 690 740
f 687 742 689
f 705 704 712
f 706 707 710
f 705 714 708
f 707 708 711
f 620 619 704
f 620 704 703
f 622 623 707
f 623 703 708
f 613 621 715
f 623 708 707
f 622 707 706
f 703 704 705
f 703 705 708
f 705 712 709
f 705 709 714
f 707 711 710
f 708 714 711
f 713 712 753
f 709 712 713
f 713 753 761
f 710 711 759
f 713 762 714
f 711 714 760
f 709 713 714
f 713 761 762
f 711 760 759
f 714 762 760
f 621 706 767
f 621 767 715
f 230 715 840
f 666 734 750
f 565 728 729
f 567 732 734
f 566 729 730
f 566 730 731
f 568 731 732
f 734 768 750
f 733 769 768
f 733 736 769
f 733 768 735
f 734 735 768
f 733 735 736
f 734 738 735
f 732 737 734
f 734 737 738
f 735 738 736
f 666 750 667
f 667 751 681
f 681 751 687
f 667 750 751
f 688 740 686
f 743 739 686
f 740 743 686
f 743 747 739
f 747 746 739
f 689 744 690
f 687 751 741
f 687 741 742
f 690 744 740
f 689 742 744
f 740 744 743
f 743 744 747
f 741 748 742
f 742 749 744
f 741 745 748
f 744 749 747
f 742 748 749
f 747 763 746
f 741 751 745
f 747 749 766
f 750 768 751
f 751 768 769
f 745 751 771
f 756 752 765
f 761 753 752
f 754 761 752
f 754 752 756
f 755 759 760
f 757 760 762
f 745 757 748
f 745 755 757
f 748 757 758
f 755 760 757
f 757 762 758
f 754 758 762
f 754 756 758
f 754 762 761
f 766 764 763
f 766 765 764
f 747 766 763
f 756 765 766
f 749 758 766
f 748 758 749
f 756 766 758
f 706 710 770
f 706 770 767
f 710 759 773
f 755 771 759
f 745 771 755
f 710 772 770
f 751 769 771
f 736 771 769
f 737 771 738
f 736 738 771
f 759 771 773
f 710 773 772
f 728 842 729
f 729 843 730
f 730 844 731
f 731 845 732
f 732 845 737
f 715 767 840
f 767 770 854
f 737 847 771
f 770 772 857
f 772 773 859
f 771 860 773
f 336 774 463
f 336 775 774
f 338 776 775
f 334 795 776
f 334 850 795
f 463 774 777
f 530 777 780
f 553 780 781
f 554 781 782
f 555 782 783
f 556 783 792
f 564 792 788
f 565 786 841
f 566 787 786
f 567 788 789
f 568 789 787
f 774 775 777
f 775 780 777
f 775 781 780
f 775 776 779
f 775 779 778
f 775 778 783
f 776 785 779
f 778 785 784
f 778 779 785
f 776 793 785
f 775 782 781
f 775 783 782
f 778 784 783
f 783 784 790
f 783 790 791
f 783 791 792
f 786 787 843
f 787 789 844
f 788 845 789
f 776 794 793
f 784 793 790
f 784 785 793
f 776 795 794
f 788 792 795
f 790 793 794
f 790 794 791
f 791 795 792
f 791 794 795
f 788 795 850
f 366 823 850
f 816 401 800
f 359 816 823
f 840 411 407
f 840 808 411
f 816 800 801
f 816 801 814
f 816 814 821
f 816 821 822
f 816 822 839
f 840 809 808
f 840 828 809
f 840 837 838
f 840 839 837
f 816 839 840
f 840 838 828
f 728 841 842
f 729 842 843
f 730 843 844
f 731 844 845
f 737 845 847
f 767 854 840
f 770 857 854
f 771 847 858
f 772 859 857
f 771 858 860
f 773 860 859
f 823 853 851
f 786 842 841
f 786 843 842
f 787 844 843
f 789 845 844
f 788 850 845
f 846 856 855
f 823 851 850
f 849 851 853
f 846 849 856
f 845 850 847
f 846 848 849
f 847 851 848
f 847 850 851
f 848 851 849
f 816 852 823
f 823 852 853
f 816 860 852
f 852 855 853
f 853 855 856
f 816 840 854
f 816 854 857
f 816 857 859
f 852 858 855
f 849 853 856
f 846 855 858
f 847 848 858
f 846 858 848
f 816 859 860
f 852 860 858
f 213 168 172
f 221 194 199
f 219 172 194
f 212 211 168
f 211 231 168
f 219 218 172
f 214 215 172
f 213 172 215
f 214 172 218
f 213 212 168
f 220 194 221
f 220 219 194
f 211 216 231
f 213 217 212
f 213 215 217
f 212 217 211
f 211 217 216
f 216 246 231
f 214 247 215
f 217 215 247
f 217 246 216
f 221 199 222
f 222 199 223
f 264 199 205
f 223 199 263
f 214 218 250
f 219 250 218
f 214 250 247
f 220 250 219
f 220 221 250
f 221 222 250
f 222 223 250
f 232 181 168
f 232 182 181
f 231 232 168
f 232 224 182
f 232 233 224
f 233 234 224
f 234 235 224
f 235 236 224
f 236 237 224
f 238 240 224
f 237 238 224
f 231 246 232
f 232 246 233
f 233 252 234
f 234 253 235
f 235 253 236
f 233 246 252
f 234 252 253
f 238 239 240
f 239 279 240
f 236 253 237
f 237 253 256
f 237 256 238
f 238 256 239
f 217 247 246
f 246 247 248
f 246 248 254
f 250 248 247
f 250 251 248
f 248 249 255
f 248 300 249
f 251 300 248
f 250 299 251
f 251 299 300
f 246 254 252
f 252 254 253
f 248 255 254
f 253 254 256
f 249 308 255
f 254 255 308
f 254 257 256
f 254 308 257
f 257 309 256
f 257 308 309
f 263 199 264
f 264 205 265
f 265 205 266
f 223 263 301
f 250 223 301
f 267 205 258
f 266 205 267
f 263 264 301
f 264 265 301
f 265 302 301
f 265 266 302
f 266 267 302
f 276 258 269
f 267 258 275
f 275 258 276
f 267 305 302
f 267 275 305
f 275 276 305
f 276 277 305
f 277 278 305
f 279 280 240
f 280 281 240
f 281 282 240
f 283 285 240
f 282 283 240
f 239 256 279
f 256 310 279
f 282 284 283
f 283 290 285
f 279 310 280
f 280 310 281
f 281 310 282
f 282 310 284
f 283 284 290
f 290 291 285
f 291 292 285
f 292 602 285
f 284 311 290
f 290 311 291
f 291 311 314
f 291 314 292
f 292 314 602
f 602 293 285
f 250 301 303
f 250 303 299
f 299 303 300
f 249 300 307
f 301 302 303
f 300 303 304
f 300 304 307
f 249 627 308
f 302 305 303
f 303 306 304
f 303 305 306
f 304 306 307
f 249 307 627
f 256 309 310
f 308 313 309
f 309 313 310
f 284 310 311
f 310 313 311
f 308 312 313
f 311 313 314
f 312 316 313
f 313 315 314
f 313 316 315
f 308 716 312
f 314 315 632
f 373 363 374
f 374 364 379
f 360 362 361
f 373 360 363
f 373 375 360
f 361 374 363
f 375 367 360
f 360 361 363
f 361 362 365
f 361 365 364
f 361 364 374
f 362 369 372
f 360 369 362
f 362 372 365
f 360 367 370
f 360 370 368
f 360 368 369
f 368 370 371
f 368 371 369
f 371 370 390
f 371 389 369
f 369 396 372
f 374 379 377
f 373 374 377
f 373 383 375
f 373 377 376
f 373 376 383
f 376 377 378
f 377 379 380
f 377 380 378
f 378 380 381
f 376 378 385
f 378 381 385
f 376 386 383
f 376 384 386
f 376 385 384
f 385 381 388
f 384 387 386
f 384 385 387
f 385 388 402
f 369 389 391
f 370 393 390
f 371 394 389
f 371 390 394
f 369 391 396
f 394 391 389
f 394 390 393
f 391 395 392
f 391 392 396
f 392 397 396
f 394 395 391
f 395 397 392
f 375 815 367
f 394 393 398
f 394 400 395
f 395 401 397
f 367 815 370
f 394 398 399
f 394 399 400
f 395 400 401
f 370 815 393
f 387 385 404
f 386 387 403
f 385 402 404
f 387 404 403
f 402 388 406
f 375 383 815
f 402 406 405
f 404 402 405
f 405 406 407
f 383 386 831
f 403 404 408
f 404 405 409
f 405 407 410
f 386 403 831
f 404 409 408
f 409 405 410
f 410 407 411
f 276 269 577
f 270 569 269
f 577 269 569
f 572 570 571
f 572 569 570
f 572 577 569
f 572 571 573
f 572 573 576
f 572 576 575
f 572 575 574
f 276 577 277
f 277 577 278
f 278 624 305
f 278 579 624
f 278 577 579
f 577 580 579
f 577 581 580
f 577 596 581
f 579 580 624
f 580 581 624
f 581 596 625
f 581 625 624
f 572 574 583
f 572 583 589
f 583 584 589
f 584 586 589
f 589 586 582
f 572 589 594
f 572 595 577
f 572 594 662
f 572 662 595
f 596 597 629
f 596 629 625
f 577 664 596
f 596 664 597
f 577 595 664
f 597 664 598
f 597 598 629
f 598 599 629
f 314 603 602
f 314 604 603
f 314 633 604
f 605 608 606
f 606 608 607
f 602 603 619
f 604 633 605
f 605 633 608
f 602 609 293
f 602 619 609
f 607 608 615
f 603 604 704
f 604 605 704
f 608 634 615
f 615 634 639
f 605 606 704
f 606 607 704
f 603 704 619
f 607 615 704
f 615 639 616
f 617 639 618
f 616 639 617
f 618 639 691
f 305 624 306
f 306 627 307
f 306 624 626
f 306 626 627
f 308 627 630
f 624 625 626
f 308 630 716
f 626 630 627
f 626 625 628
f 625 629 628
f 626 628 630
f 628 631 630
f 628 629 631
f 630 631 719
f 312 716 316
f 316 635 315
f 314 632 633
f 315 636 632
f 315 635 636
f 316 716 635
f 632 636 633
f 608 633 634
f 633 636 634
f 635 638 636
f 636 638 634
f 634 638 639
f 635 637 638
f 635 716 637
f 720 640 637
f 720 637 721
f 637 640 638
f 638 640 639
f 594 658 659
f 598 664 599
f 662 594 659
f 652 653 657
f 653 654 657
f 654 655 657
f 599 600 717
f 600 601 717
f 599 717 629
f 601 652 717
f 652 657 717
f 655 656 718
f 656 665 718
f 655 718 657
f 595 662 664
f 599 686 600
f 600 686 601
f 662 659 660
f 662 660 661
f 662 661 663
f 599 664 686
f 601 686 652
f 652 686 653
f 653 686 654
f 654 686 655
f 655 686 656
f 665 702 726
f 665 726 718
f 662 663 668
f 662 668 672
f 662 678 664
f 662 672 675
f 672 673 674
f 662 675 676
f 662 676 677
f 662 677 678
f 672 674 675
f 664 678 679
f 664 679 685
f 656 739 665
f 665 739 702
f 664 685 686
f 656 686 739
f 702 739 746
f 693 698 692
f 693 694 698
f 692 698 696
f 697 696 698
f 697 698 695
f 615 616 712
f 616 617 712
f 617 618 712
f 639 694 691
f 639 722 694
f 694 722 698
f 695 698 723
f 693 692 753
f 693 753 694
f 691 694 753
f 615 712 704
f 618 691 753
f 695 723 700
f 701 699 726
f 699 700 726
f 701 726 702
f 700 723 726
f 695 700 752
f 692 696 752
f 697 695 752
f 697 752 696
f 701 702 763
f 701 764 699
f 699 765 700
f 618 753 712
f 692 752 753
f 702 746 763
f 701 763 764
f 699 764 765
f 700 765 752
f 629 717 719
f 629 719 631
f 630 719 716
f 657 718 717
f 717 718 719
f 716 719 727
f 716 727 724
f 718 726 727
f 719 718 727
f 639 725 722
f 637 716 724
f 637 724 721
f 639 640 725
f 720 725 640
f 720 721 725
f 698 722 723
f 722 725 723
f 724 727 721
f 727 725 721
f 726 723 727
f 727 723 725
f 398 796 399
f 399 798 400
f 400 800 401
f 393 815 398
f 399 796 797
f 399 797 798
f 400 798 800
f 797 799 798
f 398 810 796
f 798 801 800
f 797 802 799
f 798 799 801
f 797 796 811
f 797 811 802
f 398 815 810
f 799 814 801
f 796 810 811
f 799 802 813
f 409 410 803
f 408 409 805
f 410 411 806
f 403 408 831
f 409 803 805
f 410 806 803
f 408 805 804
f 805 803 806
f 806 411 808
f 383 831 815
f 408 804 824
f 805 806 807
f 806 808 807
f 807 808 809
f 804 805 825
f 805 807 825
f 807 809 827
f 408 824 831
f 804 825 824
f 807 827 825
f 802 811 813
f 799 813 814
f 811 810 812
f 811 812 813
f 813 821 814
f 810 817 812
f 812 817 813
f 810 815 817
f 817 818 813
f 815 820 817
f 813 818 821
f 817 819 818
f 815 831 820
f 817 820 835
f 820 831 835
f 817 835 819
f 835 836 819
f 818 819 822
f 818 822 821
f 819 839 822
f 819 836 839
f 827 809 828
f 824 825 826
f 825 827 826
f 824 826 829
f 824 829 830
f 831 824 830
f 826 832 829
f 830 829 832
f 826 834 832
f 834 828 838
f 826 827 834
f 827 828 834
f 831 832 835
f 835 833 836
f 831 830 832
f 832 834 833
f 835 832 833
f 834 838 833
f 833 838 837
f 836 833 837
f 836 837 839
