# mf_tip_rubber.obj  (1442 v, 2876 f)  units: metres
v -0.009381978 -0.007481878 0.125200003
v -0.007895265 -0.009036858 0.125200003
v -0.006154791 -0.010301385 0.125200003
v -0.009708204 -0.007053423 0.136199996
v -0.009365222 -0.007468016 0.136199996
v -0.007884350 -0.009025234 0.136199996
v -0.007649088 -0.009246159 0.136199996
v -0.006429921 -0.010131935 0.136199996
v -0.006147109 -0.010287412 0.136199996
v -0.008747623 -0.008214565 0.136199996
v -0.010567146 -0.005686424 0.125200003
v -0.011412678 -0.003708204 0.125200003
v -0.011891397 -0.001610799 0.125200003
v -0.006551631 -0.003530082 0.129570007
v -0.007075861 -0.002303586 0.129570007
v -0.007372666 -0.001003195 0.129570007
v -0.010515681 -0.005781044 0.136199996
v -0.010561463 -0.005683750 0.136199996
v -0.011390158 -0.003700887 0.136199996
v -0.011157318 -0.004417494 0.136199996
v -0.011622998 -0.002984279 0.136199996
v -0.011885228 -0.001609622 0.136199996
v -0.011905377 -0.001503999 0.136199996
v -0.006019087 -0.004377622 0.136390001
v -0.006519722 -0.003588747 0.136390001
v -0.006548107 -0.003528424 0.136390001
v -0.006917537 -0.002743346 0.136390001
v -0.007061898 -0.002299049 0.136390001
v -0.007206259 -0.001854752 0.136390001
v -0.007368841 -0.001002465 0.136390001
v -0.007381334 -0.000936978 0.136390001
v -0.004216498 -0.011234818 0.125200003
v -0.003815971 -0.006391358 0.129570007
v -0.002142683 -0.011807155 0.125200003
v -0.000000000 -0.012000000 0.125200003
v -0.002614229 -0.006970086 0.129570007
v -0.001328463 -0.007324935 0.129570007
v -0.000000000 -0.007444499 0.129570007
v -0.005109352 -0.010857925 0.136199996
v -0.004208493 -0.011214600 0.136199996
v -0.003708204 -0.011412678 0.136199996
v -0.003811208 -0.006382695 0.136390001
v -0.003986551 -0.006286299 0.136390001
v -0.003167798 -0.006736413 0.136390001
v -0.002248576 -0.011787447 0.136199996
v -0.002141895 -0.011800924 0.136199996
v -0.000753486 -0.011976320 0.136199996
v -0.000000000 -0.012000000 0.136199996
v -0.002609266 -0.006957551 0.136390001
v -0.002299086 -0.007080360 0.136390001
v -0.001327975 -0.007321072 0.136390001
v -0.001394117 -0.007312716 0.136390001
v -0.000467161 -0.007429818 0.136390001
v -0.000000000 -0.007444499 0.136390001
v -0.005816826 -0.004643263 0.129570007
v -0.004895064 -0.005607351 0.129570007
v -0.005806438 -0.004634670 0.136390001
v -0.005423526 -0.005097529 0.136390001
v -0.004888297 -0.005600144 0.136390001
v -0.004742434 -0.005737118 0.136390001
v -0.009637420 -0.007001996 0.137646437
v -0.009426101 -0.006848463 0.139071792
v -0.009077328 -0.006595065 0.140455261
v -0.007593317 -0.009178744 0.137646437
v -0.006383040 -0.010058062 0.137646437
v -0.006243080 -0.009837519 0.139071792
v -0.006012081 -0.009473524 0.140455261
v -0.008683844 -0.008154672 0.137646437
v -0.008493434 -0.007975865 0.139071792
v -0.007426819 -0.008977482 0.139071792
v -0.008179170 -0.007680752 0.140455261
v -0.008596187 -0.006245496 0.141776681
v -0.007745636 -0.007273636 0.141776681
v -0.007152021 -0.008645309 0.140455261
v -0.006772931 -0.008187067 0.141776681
v -0.006295076 -0.007609440 0.143016770
v -0.007199153 -0.006760455 0.143016770
v -0.006547690 -0.006148690 0.144157469
v -0.011075969 -0.004385286 0.137646437
v -0.010833106 -0.004289130 0.139071792
v -0.010439009 -0.005738894 0.137646437
v -0.010210114 -0.005613057 0.139071792
v -0.009832332 -0.005405370 0.140455261
v -0.009311172 -0.005118860 0.141776681
v -0.010432273 -0.004130429 0.140455261
v -0.009879314 -0.003911497 0.141776681
v -0.011538253 -0.002962520 0.137646437
v -0.011285255 -0.002897561 0.139071792
v -0.011818573 -0.001493033 0.137646437
v -0.011559428 -0.001460295 0.139071792
v -0.010867692 -0.002790349 0.140455261
v -0.011131721 -0.001406263 0.140455261
v -0.010541688 -0.001331725 0.141776681
v -0.010291654 -0.002642448 0.141776681
v -0.006472186 -0.003562613 0.137286797
v -0.006330270 -0.003484595 0.138170511
v -0.006096046 -0.003355829 0.139028266
v -0.006867100 -0.002723376 0.137286797
v -0.007153717 -0.001841262 0.137286797
v -0.006996858 -0.001800987 0.138170511
v -0.006716526 -0.002663760 0.138170511
v -0.006468009 -0.002565365 0.139028266
v -0.006737969 -0.001734516 0.139028266
v -0.007327515 -0.000930180 0.137286797
v -0.007166845 -0.000909882 0.138170511
v -0.006901667 -0.000876382 0.139028266
v -0.006125175 -0.002429627 0.139847547
v -0.006380825 -0.001642817 0.139847547
v -0.006535846 -0.000830169 0.139847547
v -0.006074718 -0.000771914 0.140616402
v -0.009182293 -0.003635527 0.143016770
v -0.009565540 -0.002456013 0.143016770
v -0.009797933 -0.001237767 0.143016770
v -0.008654235 -0.004757706 0.143016770
v -0.007989695 -0.005804854 0.143016770
v -0.008351373 -0.003306542 0.144157469
v -0.007871100 -0.004327174 0.144157469
v -0.007266695 -0.005279563 0.144157469
v -0.006437730 -0.004677285 0.145182133
v -0.006973186 -0.003833541 0.145182133
v -0.008699939 -0.002233765 0.144157469
v -0.007707473 -0.001978943 0.145182133
v -0.008911302 -0.001125759 0.144157469
v -0.007894725 -0.000997336 0.145182133
v -0.007398670 -0.002929341 0.145182133
v -0.006338079 -0.002509423 0.146075800
v -0.006602616 -0.001695264 0.146075800
v -0.006763025 -0.000854369 0.146075800
v -0.005072099 -0.010778758 0.137646437
v -0.004960883 -0.010542413 0.139071792
v -0.003681167 -0.011329466 0.137646437
v -0.003600450 -0.011081046 0.139071792
v -0.004777327 -0.010152336 0.140455261
v -0.004524106 -0.009614215 0.141776681
v -0.003467231 -0.010671039 0.140455261
v -0.003283452 -0.010105425 0.141776681
v -0.003957485 -0.006240498 0.137286797
v -0.003144701 -0.006687329 0.137286797
v -0.003870710 -0.006103761 0.138170511
v -0.003075748 -0.006540795 0.138170511
v -0.005693413 -0.008971383 0.141776681
v -0.002232181 -0.011701503 0.137646437
v -0.002183236 -0.011444925 0.139071792
v -0.000747992 -0.011888999 0.137646437
v -0.000731591 -0.011628310 0.139071792
v -0.002102455 -0.011021455 0.140455261
v -0.001991015 -0.010437266 0.141776681
v -0.000704522 -0.011198054 0.140455261
v -0.000667179 -0.010604505 0.141776681
v -0.002282324 -0.007028768 0.137286797
v -0.002961942 -0.006298948 0.139028266
v -0.002232279 -0.006874748 0.138170511
v -0.002149683 -0.006620544 0.139028266
v -0.001383952 -0.007259431 0.137286797
v -0.000463755 -0.007375679 0.137286797
v -0.001353606 -0.007100353 0.138170511
v -0.001303522 -0.006837801 0.139028266
v -0.000453587 -0.007214052 0.138170511
v -0.000436804 -0.006947292 0.139028266
v -0.002035740 -0.006269862 0.139847547
v -0.001234429 -0.006475604 0.139847547
v -0.001147336 -0.006019044 0.140616402
v -0.000413651 -0.006579292 0.139847547
v -0.000384466 -0.006115417 0.140616402
v -0.003051792 -0.009392450 0.143016770
v -0.005291722 -0.008338419 0.143016770
v -0.004812866 -0.007583862 0.144157469
v -0.005725424 -0.006920849 0.144157469
v -0.005072284 -0.006131337 0.145182133
v -0.004204914 -0.008935897 0.143016770
v -0.003824404 -0.008127273 0.144157469
v -0.004263827 -0.006718716 0.145182133
v -0.003388127 -0.007200136 0.145182133
v -0.001850542 -0.009700879 0.143016770
v -0.000620107 -0.009856319 0.143016770
v -0.002775630 -0.008542513 0.144157469
v -0.002458994 -0.007568005 0.145182133
v -0.001683083 -0.008823031 0.144157469
v -0.001491082 -0.007816523 0.145182133
v -0.000563993 -0.008964404 0.144157469
v -0.000499654 -0.007941769 0.145182133
v -0.002902442 -0.006168004 0.146075800
v -0.002106500 -0.006483140 0.146075800
v -0.001277337 -0.006696033 0.146075800
v -0.000428029 -0.006803325 0.146075800
v -0.005383983 -0.005060396 0.137286797
v -0.004707857 -0.005695320 0.137286797
v -0.005265929 -0.004949536 0.138170511
v -0.004604628 -0.005570538 0.138170511
v -0.005071085 -0.004766565 0.139028266
v -0.005975200 -0.004345736 0.137286797
v -0.005844183 -0.004250546 0.138170511
v -0.005627944 -0.004093439 0.139028266
v -0.004434253 -0.005364591 0.139028266
v -0.003727490 -0.005878084 0.139028266
v -0.004802295 -0.004514154 0.139847547
v -0.005329636 -0.003876707 0.139847547
v -0.005772927 -0.003178193 0.139847547
v -0.004953611 -0.003603508 0.140616402
v -0.004505351 -0.003277828 0.141323626
v -0.004199217 -0.005080481 0.139847547
v -0.003902947 -0.004722352 0.140616402
v -0.003529916 -0.005566757 0.139847547
v -0.003280868 -0.005174319 0.140616402
v -0.004463475 -0.004195981 0.140616402
v -0.004059568 -0.003816687 0.141323626
v -0.003549763 -0.004295426 0.141323626
v -0.003144816 -0.003805928 0.141958922
v -0.003596463 -0.003381803 0.141958922
v -0.005365625 -0.002954277 0.140616402
v -0.005693022 -0.002258526 0.140616402
v -0.005930635 -0.001527227 0.140616402
v -0.004880082 -0.002687347 0.141323626
v -0.005177851 -0.002054555 0.141323626
v -0.004587175 -0.001820690 0.141958922
v -0.005393962 -0.001389433 0.141323626
v -0.005525007 -0.000702470 0.141323626
v -0.004778633 -0.001231444 0.141958922
v -0.004894729 -0.000622847 0.141958922
v -0.004323375 -0.002381295 0.141958922
v -0.003991392 -0.002904416 0.141958922
v -0.002804946 -0.005965312 0.139847547
v -0.002607047 -0.005544755 0.140616402
v -0.001892111 -0.005827818 0.140616402
v -0.002983977 -0.004706494 0.141323626
v -0.002371131 -0.005043408 0.141323626
v -0.001720891 -0.005300857 0.141323626
v -0.001524576 -0.004696663 0.141958922
v -0.002643573 -0.004170103 0.141958922
v -0.002100639 -0.004468584 0.141958922
v -0.001043512 -0.005474778 0.141323626
v -0.000924471 -0.004850744 0.141958922
v -0.000349675 -0.005562430 0.141323626
v -0.000309785 -0.004928396 0.141958922
v -0.005800747 -0.005447264 0.145182133
v -0.004969216 -0.004666405 0.146075800
v -0.005514889 -0.004006801 0.146075800
v -0.005973587 -0.003284007 0.146075800
v -0.004511627 -0.003277889 0.146825477
v -0.004345177 -0.005252417 0.146075800
v -0.003652612 -0.005755595 0.146075800
v -0.004065224 -0.003817499 0.146825477
v -0.003554708 -0.004296904 0.146825477
v -0.003929609 -0.001560341 0.142512992
v -0.003419231 -0.002488716 0.142512992
v -0.003080914 -0.002897670 0.142512992
v -0.003703624 -0.002040584 0.142512992
v -0.003029866 -0.001670182 0.142977804
v -0.004093622 -0.001055563 0.142512992
v -0.004193075 -0.000534208 0.142512992
v -0.003214740 -0.001277305 0.142977804
v -0.003348915 -0.000864354 0.142977804
v -0.003430277 -0.000437844 0.142977804
v -0.004886880 -0.002686585 0.146825477
v -0.005185064 -0.002052912 0.146825477
v -0.005401476 -0.001386863 0.146825477
v -0.005532704 -0.000698943 0.146825477
v -0.003956439 -0.001566465 0.147420198
v -0.003442577 -0.002501178 0.147420198
v -0.003101950 -0.002912925 0.147420198
v -0.003728912 -0.002049987 0.147420198
v -0.004121572 -0.001058240 0.147420198
v -0.004221705 -0.000533325 0.147420198
v -0.002694010 -0.003260998 0.142512992
v -0.002264619 -0.003572968 0.142512992
v -0.001799514 -0.003828662 0.142512992
v -0.001306030 -0.004024046 0.142512992
v -0.000791949 -0.004156040 0.142512992
v -0.001472149 -0.003132975 0.142977804
v -0.001068439 -0.003292815 0.142977804
v -0.000265378 -0.004222561 0.142512992
v -0.000647878 -0.003400797 0.142977804
v -0.000217101 -0.003455217 0.142977804
v -0.002988134 -0.004708545 0.146825477
v -0.002374434 -0.005045929 0.146825477
v -0.001723288 -0.005303736 0.146825477
v -0.002712404 -0.003278733 0.147420198
v -0.002280082 -0.003592834 0.147420198
v -0.001811801 -0.003850273 0.147420198
v -0.001044965 -0.005477900 0.146825477
v -0.000350163 -0.005565674 0.146825477
v -0.001314947 -0.004046991 0.147420198
v -0.000797356 -0.004179887 0.147420198
v -0.000267190 -0.004246862 0.147420198
v -0.002520439 -0.002371348 0.142977804
v -0.002797209 -0.002036790 0.142977804
v -0.002203919 -0.002668580 0.142977804
v -0.001852643 -0.002923797 0.142977804
v -0.002134397 -0.001555230 0.143346518
v -0.001923209 -0.001810513 0.143346518
v -0.001681690 -0.002037314 0.143346518
v -0.002311925 -0.001275491 0.143346518
v -0.002452992 -0.000975708 0.143346518
v -0.002555375 -0.000660608 0.143346518
v -0.002617457 -0.000335161 0.143346518
v -0.001560272 -0.000862266 0.143613815
v -0.001724571 -0.000447294 0.143613815
v -0.001655475 -0.000659948 0.143613815
v -0.001766469 -0.000227656 0.143613815
v -0.001123317 -0.002391669 0.143346518
v -0.000815267 -0.002513634 0.143346518
v -0.001413651 -0.002232056 0.143346518
v -0.000758104 -0.001615552 0.143613815
v -0.000494361 -0.002596029 0.143346518
v -0.000165658 -0.002637553 0.143346518
v -0.000550207 -0.001697863 0.143613815
v -0.000333634 -0.001753470 0.143613815
v -0.000111799 -0.001781494 0.143613815
v -0.001134939 -0.001376405 0.143613815
v -0.001297935 -0.001223341 0.143613815
v -0.001440462 -0.001051056 0.143613815
v -0.000954044 -0.001507832 0.143613815
v -0.000785866 -0.000436532 0.143775761
v -0.000868619 -0.000227522 0.143775761
v -0.000833817 -0.000334631 0.143775761
v -0.000889721 -0.000116897 0.143775761
v -0.000480526 -0.000761686 0.143775761
v -0.000381836 -0.000815942 0.143775761
v -0.000277124 -0.000857400 0.143775761
v -0.000168042 -0.000885407 0.143775761
v -0.000056310 -0.000899522 0.143775761
v -0.000571637 -0.000695490 0.143775761
v -0.000653734 -0.000618396 0.143775761
v -0.000725521 -0.000531621 0.143775761
v -0.002323325 -0.001687995 0.147851303
v -0.001538781 -0.002424731 0.147851303
v -0.002093443 -0.001965874 0.147851303
v -0.001830547 -0.002212751 0.147851303
v -0.002670121 -0.001057176 0.147851303
v -0.002516567 -0.001383494 0.147851303
v -0.002781566 -0.000714185 0.147851303
v -0.002849143 -0.000359930 0.147851303
v -0.001222748 -0.002598471 0.147851303
v -0.000887431 -0.002731233 0.147851303
v -0.000538119 -0.002820921 0.147851303
v -0.000180321 -0.002866121 0.147851303
v -0.001170195 -0.000850196 0.148112506
v -0.000775041 -0.001221270 0.148112506
v -0.001054410 -0.000990156 0.148112506
v -0.000921996 -0.001114501 0.148112506
v -0.001344866 -0.000532470 0.148112506
v -0.001267525 -0.000696828 0.148112506
v -0.001400998 -0.000359715 0.148112506
v -0.001435035 -0.000181287 0.148112506
v -0.000615864 -0.001308778 0.148112506
v -0.000446975 -0.001375646 0.148112506
v -0.000271036 -0.001420820 0.148112506
v -0.000090823 -0.001443586 0.148112506
v -0.011987917 0.000538378 0.125200003
v -0.011699134 0.002670251 0.125200003
v -0.011034333 0.004716300 0.125200003
v -0.007432509 0.000329295 0.129570007
v -0.007253463 0.001651057 0.129570007
v -0.006841287 0.002919607 0.129570007
v -0.006209225 0.004094174 0.129570007
v -0.012000000 -0.000000000 0.136199996
v -0.011966214 0.000537013 0.136199996
v -0.011905377 0.001503999 0.136199996
v -0.011683472 0.002667263 0.136199996
v -0.011622998 0.002984279 0.136199996
v -0.011157318 0.004417494 0.136199996
v -0.011019905 0.004709511 0.136199996
v -0.010515681 0.005781044 0.136199996
v -0.007440000 -0.000004499 0.136390001
v -0.007419053 0.000328449 0.136390001
v -0.007381334 0.000927980 0.136390001
v -0.007243752 0.001649204 0.136390001
v -0.007206259 0.001845754 0.136390001
v -0.006917537 0.002734347 0.136390001
v -0.006832341 0.002915398 0.136390001
v -0.006519722 0.003579748 0.136390001
v -0.006197841 0.004086950 0.136390001
v -0.006019087 0.004368623 0.136390001
v -0.010014879 0.006610764 0.125200003
v -0.008673538 0.008292751 0.125200003
v -0.007053423 0.009708204 0.125200003
v -0.009996518 0.006599112 0.136199996
v -0.009708204 0.007053423 0.136199996
v -0.008747623 0.008214565 0.136199996
v -0.008669239 0.008288173 0.136199996
v -0.007649088 0.009246159 0.136199996
v -0.007039505 0.009689047 0.136199996
v -0.006429921 0.010131935 0.136199996
v -0.005377594 0.005137007 0.129570007
v -0.005423526 0.005088531 0.136390001
v -0.005374928 0.005134168 0.136390001
v -0.004742434 0.005728120 0.136390001
v -0.004373122 0.006014587 0.129570007
v -0.003228095 0.006698709 0.129570007
v -0.005206605 0.010811626 0.125200003
v -0.003192442 0.011567554 0.125200003
v -0.001979314 0.007167384 0.129570007
v -0.000666916 0.007405550 0.129570007
v -0.001075672 0.011951691 0.125200003
v -0.004364493 0.006002710 0.136390001
v -0.003986551 0.006277300 0.136390001
v -0.003226219 0.006695297 0.136390001
v -0.003167798 0.006727414 0.136390001
v -0.005203579 0.010806123 0.136199996
v -0.005109352 0.010857925 0.136199996
v -0.003708204 0.011412678 0.136199996
v -0.003187034 0.011546492 0.136199996
v -0.002299086 0.007071361 0.136390001
v -0.001975961 0.007154325 0.136390001
v -0.001394117 0.007303718 0.136390001
v -0.000665677 0.007395742 0.136390001
v -0.000467161 0.007420819 0.136390001
v -0.002248576 0.011787447 0.136199996
v -0.001073673 0.011935872 0.136199996
v -0.000753486 0.011976320 0.136199996
v -0.011912506 -0.000000000 0.137646437
v -0.011651302 -0.000000000 0.139071792
v -0.011559428 0.001460295 0.139071792
v -0.011818573 0.001493033 0.137646437
v -0.011538253 0.002962520 0.137646437
v -0.011285255 0.002897561 0.139071792
v -0.011220195 -0.000000000 0.140455261
v -0.011131721 0.001406263 0.140455261
v -0.010625472 -0.000000000 0.141776681
v -0.010541688 0.001331725 0.141776681
v -0.010867692 0.002790349 0.140455261
v -0.010291654 0.002642448 0.141776681
v -0.011075969 0.004385286 0.137646437
v -0.010833106 0.004289130 0.139071792
v -0.010439009 0.005738894 0.137646437
v -0.010210114 0.005613057 0.139071792
v -0.010432273 0.004130429 0.140455261
v -0.009879314 0.003911497 0.141776681
v -0.009832332 0.005405370 0.140455261
v -0.009311172 0.005118860 0.141776681
v -0.007385754 -0.000004499 0.137286797
v -0.007327515 0.000921181 0.137286797
v -0.007223807 -0.000004499 0.138170511
v -0.006956521 -0.000004499 0.139028266
v -0.007166845 0.000900884 0.138170511
v -0.006901667 0.000867384 0.139028266
v -0.007153717 0.001832263 0.137286797
v -0.006867100 0.002714378 0.137286797
v -0.006996858 0.001791988 0.138170511
v -0.006737969 0.001725517 0.139028266
v -0.006716526 0.002654762 0.138170511
v -0.006468009 0.002556367 0.139028266
v -0.006587793 -0.000004499 0.139847547
v -0.006123000 -0.000004499 0.140616402
v -0.006535846 0.000821170 0.139847547
v -0.006074718 0.000762916 0.140616402
v -0.006380825 0.001633818 0.139847547
v -0.006125175 0.002420629 0.139847547
v -0.006472186 0.003553615 0.137286797
v -0.006330270 0.003475596 0.138170511
v -0.006096046 0.003346830 0.139028266
v -0.009875806 -0.000000000 0.143016770
v -0.009797933 0.001237767 0.143016770
v -0.009565540 0.002456013 0.143016770
v -0.009182293 0.003635527 0.143016770
v -0.008982129 -0.000000000 0.144157469
v -0.008911302 0.001125759 0.144157469
v -0.007957472 -0.000000000 0.145182133
v -0.007894725 0.000997336 0.145182133
v -0.008699939 0.002233765 0.144157469
v -0.007707473 0.001978943 0.145182133
v -0.007398670 0.002929341 0.145182133
v -0.006816777 -0.000000000 0.146075800
v -0.006763025 0.000854369 0.146075800
v -0.006602616 0.001695264 0.146075800
v -0.006338079 0.002509423 0.146075800
v -0.008351373 0.003306542 0.144157469
v -0.007871100 0.004327174 0.144157469
v -0.008654235 0.004757706 0.143016770
v -0.007989695 0.005804854 0.143016770
v -0.006973186 0.003833541 0.145182133
v -0.007266695 0.005279563 0.144157469
v -0.006437730 0.004677285 0.145182133
v -0.009637420 0.007001996 0.137646437
v -0.009426101 0.006848463 0.139071792
v -0.009077328 0.006595065 0.140455261
v -0.008683844 0.008154672 0.137646437
v -0.008493434 0.007975865 0.139071792
v -0.007426819 0.008977482 0.139071792
v -0.008596187 0.006245496 0.141776681
v -0.007745636 0.007273636 0.141776681
v -0.008179170 0.007680752 0.140455261
v -0.007152021 0.008645309 0.140455261
v -0.006772931 0.008187067 0.141776681
v -0.007593317 0.009178744 0.137646437
v -0.006383040 0.010058062 0.137646437
v -0.006243080 0.009837519 0.139071792
v -0.006012081 0.009473524 0.140455261
v -0.007199153 0.006760455 0.143016770
v -0.006547690 0.006148690 0.144157469
v -0.006295076 0.007609440 0.143016770
v -0.005568920 -0.000004499 0.141323626
v -0.005525007 0.000693472 0.141323626
v -0.005393962 0.001380435 0.141323626
v -0.004933632 -0.000004499 0.141958922
v -0.004894729 0.000613849 0.141958922
v -0.004778633 0.001222445 0.141958922
v -0.005930635 0.001518229 0.140616402
v -0.005693022 0.002249527 0.140616402
v -0.005365625 0.002945279 0.140616402
v -0.005177851 0.002045557 0.141323626
v -0.004587175 0.001811692 0.141958922
v -0.004880082 0.002678349 0.141323626
v -0.004323375 0.002372297 0.141958922
v -0.003991392 0.002895417 0.141958922
v -0.005975200 0.004336738 0.137286797
v -0.005844183 0.004241548 0.138170511
v -0.005627944 0.004084441 0.139028266
v -0.005383983 0.005051397 0.137286797
v -0.004707857 0.005686322 0.137286797
v -0.005265929 0.004940537 0.138170511
v -0.005071085 0.004757567 0.139028266
v -0.004604628 0.005561540 0.138170511
v -0.004434253 0.005355592 0.139028266
v -0.003727490 0.005869086 0.139028266
v -0.005772927 0.003169194 0.139847547
v -0.005329636 0.003867708 0.139847547
v -0.004953611 0.003594510 0.140616402
v -0.004505351 0.003268830 0.141323626
v -0.004802295 0.004505155 0.139847547
v -0.004463475 0.004186983 0.140616402
v -0.004059568 0.003807689 0.141323626
v -0.003596463 0.003372805 0.141958922
v -0.003549763 0.004286428 0.141323626
v -0.003144816 0.003796930 0.141958922
v -0.004199217 0.005071482 0.139847547
v -0.003902947 0.004713353 0.140616402
v -0.003280868 0.005165320 0.140616402
v -0.003529916 0.005557758 0.139847547
v -0.002643573 0.004161105 0.141958922
v -0.002100639 0.004459585 0.141958922
v -0.002804946 0.005956315 0.139847547
v -0.002607047 0.005535757 0.140616402
v -0.001892111 0.005818820 0.140616402
v -0.002983977 0.004697496 0.141323626
v -0.002371131 0.005034410 0.141323626
v -0.001524576 0.004687664 0.141958922
v -0.001720891 0.005291859 0.141323626
v -0.000924471 0.004841745 0.141958922
v -0.001043512 0.005465780 0.141323626
v -0.000309785 0.004919398 0.141958922
v -0.000349675 0.005553432 0.141323626
v -0.004226402 -0.000004499 0.142512992
v -0.004193075 0.000525209 0.142512992
v -0.004093622 0.001046564 0.142512992
v -0.003457540 -0.000004499 0.142977804
v -0.003430277 0.000428846 0.142977804
v -0.003348915 0.000855356 0.142977804
v -0.003214740 0.001268306 0.142977804
v -0.003929609 0.001551343 0.142512992
v -0.003703624 0.002031585 0.142512992
v -0.003029866 0.001661184 0.142977804
v -0.003419231 0.002479718 0.142512992
v -0.003080914 0.002888672 0.142512992
v -0.005576678 -0.000000000 0.146825477
v -0.005532704 0.000698943 0.146825477
v -0.005401476 0.001386863 0.146825477
v -0.005185064 0.002052912 0.146825477
v -0.004886880 0.002686585 0.146825477
v -0.004255258 -0.000000000 0.147420198
v -0.004221705 0.000533325 0.147420198
v -0.004121572 0.001058240 0.147420198
v -0.003956439 0.001566465 0.147420198
v -0.003728912 0.002049987 0.147420198
v -0.003442577 0.002501178 0.147420198
v -0.003101950 0.002912925 0.147420198
v -0.005800747 0.005447264 0.145182133
v -0.005973587 0.003284007 0.146075800
v -0.005514889 0.004006801 0.146075800
v -0.004511627 0.003277889 0.146825477
v -0.004969216 0.004666405 0.146075800
v -0.004065224 0.003817499 0.146825477
v -0.003554708 0.004296904 0.146825477
v -0.004345177 0.005252417 0.146075800
v -0.003652612 0.005755595 0.146075800
v -0.002638260 -0.000004499 0.143346518
v -0.002617457 0.000326163 0.143346518
v -0.002555375 0.000651610 0.143346518
v -0.002452992 0.000966709 0.143346518
v -0.002311925 0.001266492 0.143346518
v -0.001780508 -0.000004499 0.143613815
v -0.001766469 0.000218658 0.143613815
v -0.001724571 0.000438295 0.143613815
v -0.001655475 0.000650950 0.143613815
v -0.001560272 0.000853267 0.143613815
v -0.002797209 0.002027792 0.142977804
v -0.002520439 0.002362350 0.142977804
v -0.002134397 0.001546231 0.143346518
v -0.001923209 0.001801514 0.143346518
v -0.001681690 0.002028315 0.143346518
v -0.002203919 0.002659582 0.142977804
v -0.001852643 0.002914799 0.142977804
v -0.000896793 -0.000004499 0.143775761
v -0.000889721 0.000107899 0.143775761
v -0.000868619 0.000218524 0.143775761
v -0.000833817 0.000325632 0.143775761
v -0.000785866 0.000427534 0.143775761
v -0.001440462 0.001042058 0.143613815
v -0.001297935 0.001214343 0.143613815
v -0.001134939 0.001367406 0.143613815
v -0.000725521 0.000522622 0.143775761
v -0.000653734 0.000609398 0.143775761
v -0.000571637 0.000686492 0.143775761
v -0.000000000 -0.000004499 0.143830001
v -0.000480526 0.000752688 0.143775761
v -0.000381836 0.000806943 0.143775761
v -0.000277124 0.000848402 0.143775761
v -0.000168042 0.000876409 0.143775761
v -0.000056310 0.000890524 0.143775761
v -0.001413651 0.002223058 0.143346518
v -0.000954044 0.001498834 0.143613815
v -0.000758104 0.001606553 0.143613815
v -0.001123317 0.002382670 0.143346518
v -0.000815267 0.002504636 0.143346518
v -0.000550207 0.001688865 0.143613815
v -0.000333634 0.001744472 0.143613815
v -0.000111799 0.001772496 0.143613815
v -0.000494361 0.002587030 0.143346518
v -0.000165658 0.002628555 0.143346518
v -0.002871788 -0.000000000 0.147851303
v -0.002849143 0.000359930 0.147851303
v -0.002781566 0.000714185 0.147851303
v -0.002670121 0.001057176 0.147851303
v -0.002516567 0.001383494 0.147851303
v -0.002323325 0.001687995 0.147851303
v -0.002093443 0.001965874 0.147851303
v -0.001830547 0.002212751 0.147851303
v -0.001538781 0.002424731 0.147851303
v -0.001446440 -0.000000000 0.148112506
v -0.001435035 0.000181287 0.148112506
v -0.001400998 0.000359715 0.148112506
v -0.001344866 0.000532470 0.148112506
v -0.001267525 0.000696828 0.148112506
v -0.001170195 0.000850196 0.148112506
v -0.001054410 0.000990156 0.148112506
v -0.000921996 0.001114501 0.148112506
v -0.000775041 0.001221270 0.148112506
v -0.000000000 0.000000000 0.148200005
v -0.000615864 0.001308778 0.148112506
v -0.000446975 0.001375646 0.148112506
v -0.000271036 0.001420820 0.148112506
v -0.000090823 0.001443586 0.148112506
v -0.001222748 0.002598471 0.147851303
v -0.000887431 0.002731233 0.147851303
v -0.000538119 0.002820921 0.147851303
v -0.000180321 0.002866121 0.147851303
v -0.002694010 0.003251999 0.142512992
v -0.002264619 0.003563970 0.142512992
v -0.001799514 0.003819663 0.142512992
v -0.001472149 0.003123977 0.142977804
v -0.001068439 0.003283817 0.142977804
v -0.001306030 0.004015048 0.142512992
v -0.000791949 0.004147042 0.142512992
v -0.000647878 0.003391799 0.142977804
v -0.000217101 0.003446219 0.142977804
v -0.000265378 0.004213563 0.142512992
v -0.002712404 0.003278733 0.147420198
v -0.002280082 0.003592834 0.147420198
v -0.001811801 0.003850273 0.147420198
v -0.002988134 0.004708545 0.146825477
v -0.002374434 0.005045929 0.146825477
v -0.001723288 0.005303736 0.146825477
v -0.001314947 0.004046991 0.147420198
v -0.000797356 0.004179887 0.147420198
v -0.000267190 0.004246862 0.147420198
v -0.001044965 0.005477900 0.146825477
v -0.000350163 0.005565674 0.146825477
v -0.003957485 0.006231499 0.137286797
v -0.003144701 0.006678331 0.137286797
v -0.003870710 0.006094763 0.138170511
v -0.003075748 0.006531797 0.138170511
v -0.005693413 0.008971383 0.141776681
v -0.005072099 0.010778758 0.137646437
v -0.004960883 0.010542413 0.139071792
v -0.003681167 0.011329466 0.137646437
v -0.003600450 0.011081046 0.139071792
v -0.004777327 0.010152336 0.140455261
v -0.004524106 0.009614215 0.141776681
v -0.003283452 0.010105425 0.141776681
v -0.003467231 0.010671039 0.140455261
v -0.002282324 0.007019770 0.137286797
v -0.002961942 0.006289949 0.139028266
v -0.002149683 0.006611545 0.139028266
v -0.002232279 0.006865750 0.138170511
v -0.001383952 0.007250432 0.137286797
v -0.000463755 0.007366681 0.137286797
v -0.001353606 0.007091355 0.138170511
v -0.001303522 0.006828803 0.139028266
v -0.000453587 0.007205053 0.138170511
v -0.000436804 0.006938295 0.139028266
v -0.002035740 0.006260864 0.139847547
v -0.001234429 0.006466606 0.139847547
v -0.001147336 0.006010045 0.140616402
v -0.000413651 0.006570294 0.139847547
v -0.000384466 0.006106419 0.140616402
v -0.002232181 0.011701503 0.137646437
v -0.002183236 0.011444925 0.139071792
v -0.000747992 0.011888999 0.137646437
v -0.000731591 0.011628310 0.139071792
v -0.001991015 0.010437266 0.141776681
v -0.002102455 0.011021455 0.140455261
v -0.000704522 0.011198054 0.140455261
v -0.000667179 0.010604505 0.141776681
v -0.005725424 0.006920849 0.144157469
v -0.005072284 0.006131337 0.145182133
v -0.005291722 0.008338419 0.143016770
v -0.004812866 0.007583862 0.144157469
v -0.004263827 0.006718716 0.145182133
v -0.003388127 0.007200136 0.145182133
v -0.004204914 0.008935897 0.143016770
v -0.003824404 0.008127273 0.144157469
v -0.003051792 0.009392450 0.143016770
v -0.002458994 0.007568005 0.145182133
v -0.002775630 0.008542513 0.144157469
v -0.001683083 0.008823031 0.144157469
v -0.001491082 0.007816523 0.145182133
v -0.000499654 0.007941769 0.145182133
v -0.000563993 0.008964404 0.144157469
v -0.002902442 0.006168004 0.146075800
v -0.002106500 0.006483140 0.146075800
v -0.001277337 0.006696033 0.146075800
v -0.000428029 0.006803325 0.146075800
v -0.001850542 0.009700879 0.143016770
v -0.000620107 0.009856319 0.143016770
v 0.002142683 -0.011807155 0.125200003
v 0.001328463 -0.007324935 0.129570007
v 0.002614229 -0.006970086 0.129570007
v 0.004216498 -0.011234818 0.125200003
v 0.003815971 -0.006391358 0.129570007
v 0.000753486 -0.011976320 0.136199996
v 0.002141895 -0.011800924 0.136199996
v 0.002248576 -0.011787447 0.136199996
v 0.000467161 -0.007429818 0.136390001
v 0.001327975 -0.007321072 0.136390001
v 0.001394117 -0.007312716 0.136390001
v 0.002299086 -0.007080360 0.136390001
v 0.002609266 -0.006957551 0.136390001
v 0.003708204 -0.011412678 0.136199996
v 0.004208493 -0.011214600 0.136199996
v 0.005109352 -0.010857925 0.136199996
v 0.003167798 -0.006736413 0.136390001
v 0.003811208 -0.006382695 0.136390001
v 0.003986551 -0.006286299 0.136390001
v 0.004895064 -0.005607351 0.129570007
v 0.005816826 -0.004643263 0.129570007
v 0.004742434 -0.005737118 0.136390001
v 0.004888297 -0.005600144 0.136390001
v 0.005423526 -0.005097529 0.136390001
v 0.005806438 -0.004634670 0.136390001
v 0.006154791 -0.010301385 0.125200003
v 0.007895265 -0.009036858 0.125200003
v 0.009381978 -0.007481878 0.125200003
v 0.006147109 -0.010287412 0.136199996
v 0.006429921 -0.010131935 0.136199996
v 0.007649088 -0.009246159 0.136199996
v 0.007884350 -0.009025234 0.136199996
v 0.008747623 -0.008214565 0.136199996
v 0.009365222 -0.007468016 0.136199996
v 0.009708204 -0.007053423 0.136199996
v 0.006551631 -0.003530082 0.129570007
v 0.007075861 -0.002303586 0.129570007
v 0.007372666 -0.001003195 0.129570007
v 0.010567146 -0.005686424 0.125200003
v 0.011412678 -0.003708204 0.125200003
v 0.011891397 -0.001610799 0.125200003
v 0.006019087 -0.004377622 0.136390001
v 0.006519722 -0.003588747 0.136390001
v 0.006548107 -0.003528424 0.136390001
v 0.006917537 -0.002743346 0.136390001
v 0.007061898 -0.002299049 0.136390001
v 0.007206259 -0.001854752 0.136390001
v 0.007368841 -0.001002465 0.136390001
v 0.007381334 -0.000936978 0.136390001
v 0.010515681 -0.005781044 0.136199996
v 0.010561463 -0.005683750 0.136199996
v 0.011157318 -0.004417494 0.136199996
v 0.011390158 -0.003700887 0.136199996
v 0.011622998 -0.002984279 0.136199996
v 0.011885228 -0.001609622 0.136199996
v 0.011905377 -0.001503999 0.136199996
v 0.000747992 -0.011888999 0.137646437
v 0.000731591 -0.011628310 0.139071792
v 0.002232181 -0.011701503 0.137646437
v 0.002183236 -0.011444925 0.139071792
v 0.000704522 -0.011198054 0.140455261
v 0.000667179 -0.010604505 0.141776681
v 0.002102455 -0.011021455 0.140455261
v 0.001991015 -0.010437266 0.141776681
v 0.000463755 -0.007375679 0.137286797
v 0.001383952 -0.007259431 0.137286797
v 0.000453587 -0.007214052 0.138170511
v 0.000436804 -0.006947292 0.139028266
v 0.001353606 -0.007100353 0.138170511
v 0.001303522 -0.006837801 0.139028266
v 0.002282324 -0.007028768 0.137286797
v 0.002232279 -0.006874748 0.138170511
v 0.002149683 -0.006620544 0.139028266
v 0.002961942 -0.006298948 0.139028266
v 0.000413651 -0.006579292 0.139847547
v 0.000384466 -0.006115417 0.140616402
v 0.001234429 -0.006475604 0.139847547
v 0.001147336 -0.006019044 0.140616402
v 0.002035740 -0.006269862 0.139847547
v 0.003681167 -0.011329466 0.137646437
v 0.003600450 -0.011081046 0.139071792
v 0.005072099 -0.010778758 0.137646437
v 0.004960883 -0.010542413 0.139071792
v 0.003467231 -0.010671039 0.140455261
v 0.003283452 -0.010105425 0.141776681
v 0.004777327 -0.010152336 0.140455261
v 0.004524106 -0.009614215 0.141776681
v 0.003144701 -0.006687329 0.137286797
v 0.003957485 -0.006240498 0.137286797
v 0.003075748 -0.006540795 0.138170511
v 0.003870710 -0.006103761 0.138170511
v 0.005693413 -0.008971383 0.141776681
v 0.000620107 -0.009856319 0.143016770
v 0.001850542 -0.009700879 0.143016770
v 0.000563993 -0.008964404 0.144157469
v 0.000499654 -0.007941769 0.145182133
v 0.001491082 -0.007816523 0.145182133
v 0.001683083 -0.008823031 0.144157469
v 0.002775630 -0.008542513 0.144157469
v 0.002458994 -0.007568005 0.145182133
v 0.000428029 -0.006803325 0.146075800
v 0.001277337 -0.006696033 0.146075800
v 0.002106500 -0.006483140 0.146075800
v 0.002902442 -0.006168004 0.146075800
v 0.003051792 -0.009392450 0.143016770
v 0.004204914 -0.008935897 0.143016770
v 0.003824404 -0.008127273 0.144157469
v 0.003388127 -0.007200136 0.145182133
v 0.004263827 -0.006718716 0.145182133
v 0.005291722 -0.008338419 0.143016770
v 0.004812866 -0.007583862 0.144157469
v 0.005072284 -0.006131337 0.145182133
v 0.005725424 -0.006920849 0.144157469
v 0.000349675 -0.005562430 0.141323626
v 0.000309785 -0.004928396 0.141958922
v 0.001043512 -0.005474778 0.141323626
v 0.000924471 -0.004850744 0.141958922
v 0.001892111 -0.005827818 0.140616402
v 0.002804946 -0.005965312 0.139847547
v 0.002607047 -0.005544755 0.140616402
v 0.001720891 -0.005300857 0.141323626
v 0.001524576 -0.004696663 0.141958922
v 0.002371131 -0.005043408 0.141323626
v 0.002983977 -0.004706494 0.141323626
v 0.002100639 -0.004468584 0.141958922
v 0.002643573 -0.004170103 0.141958922
v 0.003727490 -0.005878084 0.139028266
v 0.004434253 -0.005364591 0.139028266
v 0.004707857 -0.005695320 0.137286797
v 0.005383983 -0.005060396 0.137286797
v 0.004604628 -0.005570538 0.138170511
v 0.005071085 -0.004766565 0.139028266
v 0.005265929 -0.004949536 0.138170511
v 0.005975200 -0.004345736 0.137286797
v 0.005844183 -0.004250546 0.138170511
v 0.005627944 -0.004093439 0.139028266
v 0.003529916 -0.005566757 0.139847547
v 0.003280868 -0.005174319 0.140616402
v 0.004199217 -0.005080481 0.139847547
v 0.003902947 -0.004722352 0.140616402
v 0.004463475 -0.004195981 0.140616402
v 0.003549763 -0.004295426 0.141323626
v 0.003144816 -0.003805928 0.141958922
v 0.003596463 -0.003381803 0.141958922
v 0.004059568 -0.003816687 0.141323626
v 0.004802295 -0.004514154 0.139847547
v 0.004953611 -0.003603508 0.140616402
v 0.005329636 -0.003876707 0.139847547
v 0.005772927 -0.003178193 0.139847547
v 0.004505351 -0.003277828 0.141323626
v 0.003991392 -0.002904416 0.141958922
v 0.004323375 -0.002381295 0.141958922
v 0.005365625 -0.002954277 0.140616402
v 0.005693022 -0.002258526 0.140616402
v 0.005930635 -0.001527227 0.140616402
v 0.004880082 -0.002687347 0.141323626
v 0.005177851 -0.002054555 0.141323626
v 0.004587175 -0.001820690 0.141958922
v 0.004778633 -0.001231444 0.141958922
v 0.004894729 -0.000622847 0.141958922
v 0.005393962 -0.001389433 0.141323626
v 0.005525007 -0.000702470 0.141323626
v 0.000265378 -0.004222561 0.142512992
v 0.000217101 -0.003455217 0.142977804
v 0.000647878 -0.003400797 0.142977804
v 0.000791949 -0.004156040 0.142512992
v 0.001306030 -0.004024046 0.142512992
v 0.001068439 -0.003292815 0.142977804
v 0.001472149 -0.003132975 0.142977804
v 0.001799514 -0.003828662 0.142512992
v 0.002264619 -0.003572968 0.142512992
v 0.002694010 -0.003260998 0.142512992
v 0.000350163 -0.005565674 0.146825477
v 0.001044965 -0.005477900 0.146825477
v 0.000267190 -0.004246862 0.147420198
v 0.000797356 -0.004179887 0.147420198
v 0.001314947 -0.004046991 0.147420198
v 0.001723288 -0.005303736 0.146825477
v 0.002374434 -0.005045929 0.146825477
v 0.002988134 -0.004708545 0.146825477
v 0.001811801 -0.003850273 0.147420198
v 0.002280082 -0.003592834 0.147420198
v 0.002712404 -0.003278733 0.147420198
v 0.000165658 -0.002637553 0.143346518
v 0.000494361 -0.002596029 0.143346518
v 0.000111799 -0.001781494 0.143613815
v 0.000333634 -0.001753470 0.143613815
v 0.000550207 -0.001697863 0.143613815
v 0.000815267 -0.002513634 0.143346518
v 0.001123317 -0.002391669 0.143346518
v 0.000758104 -0.001615552 0.143613815
v 0.001413651 -0.002232056 0.143346518
v 0.000056310 -0.000899522 0.143775761
v 0.000168042 -0.000885407 0.143775761
v 0.000277124 -0.000857400 0.143775761
v 0.000381836 -0.000815942 0.143775761
v 0.000480526 -0.000761686 0.143775761
v 0.000571637 -0.000695490 0.143775761
v 0.000653734 -0.000618396 0.143775761
v 0.000725521 -0.000531621 0.143775761
v 0.000954044 -0.001507832 0.143613815
v 0.001134939 -0.001376405 0.143613815
v 0.001297935 -0.001223341 0.143613815
v 0.001440462 -0.001051056 0.143613815
v 0.000785866 -0.000436532 0.143775761
v 0.000833817 -0.000334631 0.143775761
v 0.000868619 -0.000227522 0.143775761
v 0.000889721 -0.000116897 0.143775761
v 0.001852643 -0.002923797 0.142977804
v 0.002203919 -0.002668580 0.142977804
v 0.001681690 -0.002037314 0.143346518
v 0.001923209 -0.001810513 0.143346518
v 0.002134397 -0.001555230 0.143346518
v 0.002520439 -0.002371348 0.142977804
v 0.002797209 -0.002036790 0.142977804
v 0.001560272 -0.000862266 0.143613815
v 0.001655475 -0.000659948 0.143613815
v 0.001724571 -0.000447294 0.143613815
v 0.001766469 -0.000227656 0.143613815
v 0.002311925 -0.001275491 0.143346518
v 0.002452992 -0.000975708 0.143346518
v 0.002555375 -0.000660608 0.143346518
v 0.002617457 -0.000335161 0.143346518
v 0.000180321 -0.002866121 0.147851303
v 0.000538119 -0.002820921 0.147851303
v 0.000887431 -0.002731233 0.147851303
v 0.001222748 -0.002598471 0.147851303
v 0.000090823 -0.001443586 0.148112506
v 0.000271036 -0.001420820 0.148112506
v 0.000446975 -0.001375646 0.148112506
v 0.000615864 -0.001308778 0.148112506
v 0.000775041 -0.001221270 0.148112506
v 0.000921996 -0.001114501 0.148112506
v 0.001054410 -0.000990156 0.148112506
v 0.001170195 -0.000850196 0.148112506
v 0.001267525 -0.000696828 0.148112506
v 0.001344866 -0.000532470 0.148112506
v 0.001400998 -0.000359715 0.148112506
v 0.001435035 -0.000181287 0.148112506
v 0.001538781 -0.002424731 0.147851303
v 0.001830547 -0.002212751 0.147851303
v 0.002093443 -0.001965874 0.147851303
v 0.002323325 -0.001687995 0.147851303
v 0.002516567 -0.001383494 0.147851303
v 0.002670121 -0.001057176 0.147851303
v 0.002781566 -0.000714185 0.147851303
v 0.002849143 -0.000359930 0.147851303
v 0.005800747 -0.005447264 0.145182133
v 0.003652612 -0.005755595 0.146075800
v 0.004345177 -0.005252417 0.146075800
v 0.003554708 -0.004296904 0.146825477
v 0.004065224 -0.003817499 0.146825477
v 0.004969216 -0.004666405 0.146075800
v 0.005514889 -0.004006801 0.146075800
v 0.005973587 -0.003284007 0.146075800
v 0.004511627 -0.003277889 0.146825477
v 0.003080914 -0.002897670 0.142512992
v 0.003419231 -0.002488716 0.142512992
v 0.003029866 -0.001670182 0.142977804
v 0.003703624 -0.002040584 0.142512992
v 0.003929609 -0.001560341 0.142512992
v 0.003214740 -0.001277305 0.142977804
v 0.003348915 -0.000864354 0.142977804
v 0.003430277 -0.000437844 0.142977804
v 0.004093622 -0.001055563 0.142512992
v 0.004193075 -0.000534208 0.142512992
v 0.003101950 -0.002912925 0.147420198
v 0.003442577 -0.002501178 0.147420198
v 0.003728912 -0.002049987 0.147420198
v 0.003956439 -0.001566465 0.147420198
v 0.004121572 -0.001058240 0.147420198
v 0.004221705 -0.000533325 0.147420198
v 0.004886880 -0.002686585 0.146825477
v 0.005185064 -0.002052912 0.146825477
v 0.005401476 -0.001386863 0.146825477
v 0.005532704 -0.000698943 0.146825477
v 0.006383040 -0.010058062 0.137646437
v 0.006243080 -0.009837519 0.139071792
v 0.007593317 -0.009178744 0.137646437
v 0.006012081 -0.009473524 0.140455261
v 0.007426819 -0.008977482 0.139071792
v 0.008683844 -0.008154672 0.137646437
v 0.008493434 -0.007975865 0.139071792
v 0.007152021 -0.008645309 0.140455261
v 0.006772931 -0.008187067 0.141776681
v 0.008179170 -0.007680752 0.140455261
v 0.007745636 -0.007273636 0.141776681
v 0.008596187 -0.006245496 0.141776681
v 0.009637420 -0.007001996 0.137646437
v 0.009426101 -0.006848463 0.139071792
v 0.009077328 -0.006595065 0.140455261
v 0.006295076 -0.007609440 0.143016770
v 0.007199153 -0.006760455 0.143016770
v 0.006547690 -0.006148690 0.144157469
v 0.006472186 -0.003562613 0.137286797
v 0.006330270 -0.003484595 0.138170511
v 0.006096046 -0.003355829 0.139028266
v 0.006867100 -0.002723376 0.137286797
v 0.007153717 -0.001841262 0.137286797
v 0.006716526 -0.002663760 0.138170511
v 0.006468009 -0.002565365 0.139028266
v 0.006737969 -0.001734516 0.139028266
v 0.006996858 -0.001800987 0.138170511
v 0.007327515 -0.000930180 0.137286797
v 0.007166845 -0.000909882 0.138170511
v 0.006901667 -0.000876382 0.139028266
v 0.006125175 -0.002429627 0.139847547
v 0.006380825 -0.001642817 0.139847547
v 0.006535846 -0.000830169 0.139847547
v 0.006074718 -0.000771914 0.140616402
v 0.010439009 -0.005738894 0.137646437
v 0.010210114 -0.005613057 0.139071792
v 0.011075969 -0.004385286 0.137646437
v 0.010833106 -0.004289130 0.139071792
v 0.009832332 -0.005405370 0.140455261
v 0.009311172 -0.005118860 0.141776681
v 0.010432273 -0.004130429 0.140455261
v 0.009879314 -0.003911497 0.141776681
v 0.011538253 -0.002962520 0.137646437
v 0.011285255 -0.002897561 0.139071792
v 0.011818573 -0.001493033 0.137646437
v 0.011559428 -0.001460295 0.139071792
v 0.010291654 -0.002642448 0.141776681
v 0.010867692 -0.002790349 0.140455261
v 0.011131721 -0.001406263 0.140455261
v 0.010541688 -0.001331725 0.141776681
v 0.006437730 -0.004677285 0.145182133
v 0.007266695 -0.005279563 0.144157469
v 0.006973186 -0.003833541 0.145182133
v 0.007989695 -0.005804854 0.143016770
v 0.008654235 -0.004757706 0.143016770
v 0.007871100 -0.004327174 0.144157469
v 0.008351373 -0.003306542 0.144157469
v 0.007398670 -0.002929341 0.145182133
v 0.007707473 -0.001978943 0.145182133
v 0.008699939 -0.002233765 0.144157469
v 0.007894725 -0.000997336 0.145182133
v 0.008911302 -0.001125759 0.144157469
v 0.006338079 -0.002509423 0.146075800
v 0.006602616 -0.001695264 0.146075800
v 0.006763025 -0.000854369 0.146075800
v 0.009182293 -0.003635527 0.143016770
v 0.009565540 -0.002456013 0.143016770
v 0.009797933 -0.001237767 0.143016770
v 0.005377594 0.005137007 0.129570007
v 0.004742434 0.005728120 0.136390001
v 0.005374928 0.005134168 0.136390001
v 0.005423526 0.005088531 0.136390001
v 0.000666916 0.007405550 0.129570007
v 0.001979314 0.007167384 0.129570007
v 0.001075672 0.011951691 0.125200003
v 0.003228095 0.006698709 0.129570007
v 0.004373122 0.006014587 0.129570007
v 0.003192442 0.011567554 0.125200003
v 0.005206605 0.010811626 0.125200003
v 0.000467161 0.007420819 0.136390001
v 0.000665677 0.007395742 0.136390001
v 0.001394117 0.007303718 0.136390001
v 0.001975961 0.007154325 0.136390001
v 0.002299086 0.007071361 0.136390001
v 0.000753486 0.011976320 0.136199996
v 0.001073673 0.011935872 0.136199996
v 0.002248576 0.011787447 0.136199996
v 0.003167798 0.006727414 0.136390001
v 0.003226219 0.006695297 0.136390001
v 0.003986551 0.006277300 0.136390001
v 0.004364493 0.006002710 0.136390001
v 0.003187034 0.011546492 0.136199996
v 0.003708204 0.011412678 0.136199996
v 0.005203579 0.010806123 0.136199996
v 0.005109352 0.010857925 0.136199996
v 0.007432509 0.000329295 0.129570007
v 0.007253463 0.001651057 0.129570007
v 0.006841287 0.002919607 0.129570007
v 0.006209225 0.004094174 0.129570007
v 0.011987917 0.000538378 0.125200003
v 0.011699134 0.002670251 0.125200003
v 0.011034333 0.004716300 0.125200003
v 0.007440000 -0.000004499 0.136390001
v 0.007419053 0.000328449 0.136390001
v 0.007381334 0.000927980 0.136390001
v 0.007243752 0.001649204 0.136390001
v 0.007206259 0.001845754 0.136390001
v 0.006917537 0.002734347 0.136390001
v 0.006832341 0.002915398 0.136390001
v 0.006519722 0.003579748 0.136390001
v 0.006197841 0.004086950 0.136390001
v 0.006019087 0.004368623 0.136390001
v 0.012000000 0.000000000 0.136199996
v 0.011966214 0.000537013 0.136199996
v 0.011905377 0.001503999 0.136199996
v 0.011622998 0.002984279 0.136199996
v 0.011683472 0.002667263 0.136199996
v 0.011157318 0.004417494 0.136199996
v 0.011019905 0.004709511 0.136199996
v 0.010515681 0.005781044 0.136199996
v 0.008673538 0.008292751 0.125200003
v 0.007053423 0.009708204 0.125200003
v 0.010014879 0.006610764 0.125200003
v 0.008747623 0.008214565 0.136199996
v 0.008669239 0.008288173 0.136199996
v 0.006429921 0.010131935 0.136199996
v 0.007039505 0.009689047 0.136199996
v 0.007649088 0.009246159 0.136199996
v 0.009708204 0.007053423 0.136199996
v 0.009996518 0.006599112 0.136199996
v 0.000309785 0.004919398 0.141958922
v 0.000349675 0.005553432 0.141323626
v 0.000924471 0.004841745 0.141958922
v 0.001043512 0.005465780 0.141323626
v 0.002100639 0.004459585 0.141958922
v 0.002643573 0.004161105 0.141958922
v 0.001892111 0.005818820 0.140616402
v 0.002804946 0.005956315 0.139847547
v 0.002607047 0.005535757 0.140616402
v 0.001524576 0.004687664 0.141958922
v 0.001720891 0.005291859 0.141323626
v 0.002371131 0.005034410 0.141323626
v 0.002983977 0.004697496 0.141323626
v 0.003991392 0.002895417 0.141958922
v 0.004323375 0.002372297 0.141958922
v 0.004933632 -0.000004499 0.141958922
v 0.004894729 0.000613849 0.141958922
v 0.004778633 0.001222445 0.141958922
v 0.005568920 -0.000004499 0.141323626
v 0.005525007 0.000693472 0.141323626
v 0.005393962 0.001380435 0.141323626
v 0.005930635 0.001518229 0.140616402
v 0.005365625 0.002945279 0.140616402
v 0.005693022 0.002249527 0.140616402
v 0.005177851 0.002045557 0.141323626
v 0.004587175 0.001811692 0.141958922
v 0.004880082 0.002678349 0.141323626
v 0.003727490 0.005869086 0.139028266
v 0.004434253 0.005355592 0.139028266
v 0.005975200 0.004336738 0.137286797
v 0.005844183 0.004241548 0.138170511
v 0.005627944 0.004084441 0.139028266
v 0.004707857 0.005686322 0.137286797
v 0.005383983 0.005051397 0.137286797
v 0.005071085 0.004757567 0.139028266
v 0.004604628 0.005561540 0.138170511
v 0.005265929 0.004940537 0.138170511
v 0.004463475 0.004186983 0.140616402
v 0.003596463 0.003372805 0.141958922
v 0.003549763 0.004286428 0.141323626
v 0.003144816 0.003796930 0.141958922
v 0.004059568 0.003807689 0.141323626
v 0.003280868 0.005165320 0.140616402
v 0.003529916 0.005557758 0.139847547
v 0.004199217 0.005071482 0.139847547
v 0.003902947 0.004713353 0.140616402
v 0.004953611 0.003594510 0.140616402
v 0.005772927 0.003169194 0.139847547
v 0.005329636 0.003867708 0.139847547
v 0.004505351 0.003268830 0.141323626
v 0.004802295 0.004505155 0.139847547
v 0.000725521 0.000522622 0.143775761
v 0.000653734 0.000609398 0.143775761
v 0.000571637 0.000686492 0.143775761
v 0.000056310 0.000890524 0.143775761
v 0.000168042 0.000876409 0.143775761
v 0.000277124 0.000848402 0.143775761
v 0.000381836 0.000806943 0.143775761
v 0.000480526 0.000752688 0.143775761
v 0.000896793 -0.000004499 0.143775761
v 0.000889721 0.000107899 0.143775761
v 0.000833817 0.000325632 0.143775761
v 0.000868619 0.000218524 0.143775761
v 0.000785866 0.000427534 0.143775761
v 0.001440462 0.001042058 0.143613815
v 0.001297935 0.001214343 0.143613815
v 0.001134939 0.001367406 0.143613815
v 0.000111799 0.001772496 0.143613815
v 0.000333634 0.001744472 0.143613815
v 0.000550207 0.001688865 0.143613815
v 0.000165658 0.002628555 0.143346518
v 0.000494361 0.002587030 0.143346518
v 0.000758104 0.001606553 0.143613815
v 0.000954044 0.001498834 0.143613815
v 0.001413651 0.002223058 0.143346518
v 0.000815267 0.002504636 0.143346518
v 0.001123317 0.002382670 0.143346518
v 0.001780508 -0.000004499 0.143613815
v 0.001766469 0.000218658 0.143613815
v 0.001655475 0.000650950 0.143613815
v 0.001724571 0.000438295 0.143613815
v 0.001560272 0.000853267 0.143613815
v 0.002617457 0.000326163 0.143346518
v 0.002555375 0.000651610 0.143346518
v 0.002638260 -0.000004499 0.143346518
v 0.002452992 0.000966709 0.143346518
v 0.002311925 0.001266492 0.143346518
v 0.001681690 0.002028315 0.143346518
v 0.001923209 0.001801514 0.143346518
v 0.002134397 0.001546231 0.143346518
v 0.001852643 0.002914799 0.142977804
v 0.002203919 0.002659582 0.142977804
v 0.002797209 0.002027792 0.142977804
v 0.002520439 0.002362350 0.142977804
v 0.000090823 0.001443586 0.148112506
v 0.000271036 0.001420820 0.148112506
v 0.000446975 0.001375646 0.148112506
v 0.000615864 0.001308778 0.148112506
v 0.001446440 0.000000000 0.148112506
v 0.001400998 0.000359715 0.148112506
v 0.001435035 0.000181287 0.148112506
v 0.001267525 0.000696828 0.148112506
v 0.001344866 0.000532470 0.148112506
v 0.001054410 0.000990156 0.148112506
v 0.000775041 0.001221270 0.148112506
v 0.000921996 0.001114501 0.148112506
v 0.001170195 0.000850196 0.148112506
v 0.000180321 0.002866121 0.147851303
v 0.000538119 0.002820921 0.147851303
v 0.000887431 0.002731233 0.147851303
v 0.001222748 0.002598471 0.147851303
v 0.002871788 0.000000000 0.147851303
v 0.002849143 0.000359930 0.147851303
v 0.002781566 0.000714185 0.147851303
v 0.002516567 0.001383494 0.147851303
v 0.002670121 0.001057176 0.147851303
v 0.001830547 0.002212751 0.147851303
v 0.002093443 0.001965874 0.147851303
v 0.001538781 0.002424731 0.147851303
v 0.002323325 0.001687995 0.147851303
v 0.000217101 0.003446219 0.142977804
v 0.000647878 0.003391799 0.142977804
v 0.000265378 0.004213563 0.142512992
v 0.001068439 0.003283817 0.142977804
v 0.001472149 0.003123977 0.142977804
v 0.000791949 0.004147042 0.142512992
v 0.001306030 0.004015048 0.142512992
v 0.001799514 0.003819663 0.142512992
v 0.002264619 0.003563970 0.142512992
v 0.002694010 0.003251999 0.142512992
v 0.000267190 0.004246862 0.147420198
v 0.000797356 0.004179887 0.147420198
v 0.001314947 0.004046991 0.147420198
v 0.000350163 0.005565674 0.146825477
v 0.001044965 0.005477900 0.146825477
v 0.001811801 0.003850273 0.147420198
v 0.002280082 0.003592834 0.147420198
v 0.002712404 0.003278733 0.147420198
v 0.001723288 0.005303736 0.146825477
v 0.002374434 0.005045929 0.146825477
v 0.002988134 0.004708545 0.146825477
v 0.003457540 -0.000004499 0.142977804
v 0.003430277 0.000428846 0.142977804
v 0.003348915 0.000855356 0.142977804
v 0.003214740 0.001268306 0.142977804
v 0.004226402 -0.000004499 0.142512992
v 0.004193075 0.000525209 0.142512992
v 0.004093622 0.001046564 0.142512992
v 0.003029866 0.001661184 0.142977804
v 0.003703624 0.002031585 0.142512992
v 0.003080914 0.002888672 0.142512992
v 0.003419231 0.002479718 0.142512992
v 0.003929609 0.001551343 0.142512992
v 0.004255258 0.000000000 0.147420198
v 0.004221705 0.000533325 0.147420198
v 0.004121572 0.001058240 0.147420198
v 0.003728912 0.002049987 0.147420198
v 0.003101950 0.002912925 0.147420198
v 0.003442577 0.002501178 0.147420198
v 0.003956439 0.001566465 0.147420198
v 0.005576678 0.000000000 0.146825477
v 0.005532704 0.000698943 0.146825477
v 0.005401476 0.001386863 0.146825477
v 0.005185064 0.002052912 0.146825477
v 0.004886880 0.002686585 0.146825477
v 0.005800747 0.005447264 0.145182133
v 0.003554708 0.004296904 0.146825477
v 0.004065224 0.003817499 0.146825477
v 0.003652612 0.005755595 0.146075800
v 0.004345177 0.005252417 0.146075800
v 0.005973587 0.003284007 0.146075800
v 0.005514889 0.004006801 0.146075800
v 0.004511627 0.003277889 0.146825477
v 0.004969216 0.004666405 0.146075800
v 0.000463755 0.007366681 0.137286797
v 0.001383952 0.007250432 0.137286797
v 0.000453587 0.007205053 0.138170511
v 0.000436804 0.006938295 0.139028266
v 0.001353606 0.007091355 0.138170511
v 0.001303522 0.006828803 0.139028266
v 0.002282324 0.007019770 0.137286797
v 0.002149683 0.006611545 0.139028266
v 0.002232279 0.006865750 0.138170511
v 0.002961942 0.006289949 0.139028266
v 0.000413651 0.006570294 0.139847547
v 0.000384466 0.006106419 0.140616402
v 0.001234429 0.006466606 0.139847547
v 0.001147336 0.006010045 0.140616402
v 0.002035740 0.006260864 0.139847547
v 0.000747992 0.011888999 0.137646437
v 0.000731591 0.011628310 0.139071792
v 0.002232181 0.011701503 0.137646437
v 0.002183236 0.011444925 0.139071792
v 0.000704522 0.011198054 0.140455261
v 0.000667179 0.010604505 0.141776681
v 0.001991015 0.010437266 0.141776681
v 0.002102455 0.011021455 0.140455261
v 0.003144701 0.006678331 0.137286797
v 0.003957485 0.006231499 0.137286797
v 0.003075748 0.006531797 0.138170511
v 0.003870710 0.006094763 0.138170511
v 0.005693413 0.008971383 0.141776681
v 0.003681167 0.011329466 0.137646437
v 0.003600450 0.011081046 0.139071792
v 0.005072099 0.010778758 0.137646437
v 0.004960883 0.010542413 0.139071792
v 0.003283452 0.010105425 0.141776681
v 0.003467231 0.010671039 0.140455261
v 0.004777327 0.010152336 0.140455261
v 0.004524106 0.009614215 0.141776681
v 0.000499654 0.007941769 0.145182133
v 0.000563993 0.008964404 0.144157469
v 0.001491082 0.007816523 0.145182133
v 0.001683083 0.008823031 0.144157469
v 0.002458994 0.007568005 0.145182133
v 0.002775630 0.008542513 0.144157469
v 0.000428029 0.006803325 0.146075800
v 0.001277337 0.006696033 0.146075800
v 0.002106500 0.006483140 0.146075800
v 0.002902442 0.006168004 0.146075800
v 0.000620107 0.009856319 0.143016770
v 0.001850542 0.009700879 0.143016770
v 0.003388127 0.007200136 0.145182133
v 0.004263827 0.006718716 0.145182133
v 0.004204914 0.008935897 0.143016770
v 0.003824404 0.008127273 0.144157469
v 0.005072284 0.006131337 0.145182133
v 0.005725424 0.006920849 0.144157469
v 0.005291722 0.008338419 0.143016770
v 0.004812866 0.007583862 0.144157469
v 0.003051792 0.009392450 0.143016770
v 0.007385754 -0.000004499 0.137286797
v 0.007327515 0.000921181 0.137286797
v 0.007223807 -0.000004499 0.138170511
v 0.006956521 -0.000004499 0.139028266
v 0.007166845 0.000900884 0.138170511
v 0.006901667 0.000867384 0.139028266
v 0.007153717 0.001832263 0.137286797
v 0.006867100 0.002714378 0.137286797
v 0.006737969 0.001725517 0.139028266
v 0.006716526 0.002654762 0.138170511
v 0.006468009 0.002556367 0.139028266
v 0.006996858 0.001791988 0.138170511
v 0.006587793 -0.000004499 0.139847547
v 0.006123000 -0.000004499 0.140616402
v 0.006535846 0.000821170 0.139847547
v 0.006074718 0.000762916 0.140616402
v 0.006380825 0.001633818 0.139847547
v 0.006125175 0.002420629 0.139847547
v 0.006472186 0.003553615 0.137286797
v 0.006330270 0.003475596 0.138170511
v 0.006096046 0.003346830 0.139028266
v 0.011912506 0.000000000 0.137646437
v 0.011651302 0.000000000 0.139071792
v 0.011559428 0.001460295 0.139071792
v 0.011818573 0.001493033 0.137646437
v 0.011538253 0.002962520 0.137646437
v 0.011285255 0.002897561 0.139071792
v 0.010291654 0.002642448 0.141776681
v 0.011220195 0.000000000 0.140455261
v 0.011131721 0.001406263 0.140455261
v 0.010625472 0.000000000 0.141776681
v 0.010541688 0.001331725 0.141776681
v 0.010867692 0.002790349 0.140455261
v 0.010439009 0.005738894 0.137646437
v 0.010210114 0.005613057 0.139071792
v 0.011075969 0.004385286 0.137646437
v 0.010833106 0.004289130 0.139071792
v 0.010432273 0.004130429 0.140455261
v 0.009879314 0.003911497 0.141776681
v 0.009832332 0.005405370 0.140455261
v 0.009311172 0.005118860 0.141776681
v 0.007398670 0.002929341 0.145182133
v 0.007957472 0.000000000 0.145182133
v 0.007894725 0.000997336 0.145182133
v 0.008982129 0.000000000 0.144157469
v 0.008911302 0.001125759 0.144157469
v 0.007707473 0.001978943 0.145182133
v 0.008699939 0.002233765 0.144157469
v 0.006816777 0.000000000 0.146075800
v 0.006763025 0.000854369 0.146075800
v 0.006602616 0.001695264 0.146075800
v 0.006338079 0.002509423 0.146075800
v 0.006973186 0.003833541 0.145182133
v 0.006437730 0.004677285 0.145182133
v 0.007266695 0.005279563 0.144157469
v 0.007871100 0.004327174 0.144157469
v 0.008351373 0.003306542 0.144157469
v 0.007989695 0.005804854 0.143016770
v 0.008654235 0.004757706 0.143016770
v 0.009875806 0.000000000 0.143016770
v 0.009797933 0.001237767 0.143016770
v 0.009565540 0.002456013 0.143016770
v 0.009182293 0.003635527 0.143016770
v 0.007426819 0.008977482 0.139071792
v 0.008683844 0.008154672 0.137646437
v 0.008493434 0.007975865 0.139071792
v 0.007152021 0.008645309 0.140455261
v 0.006772931 0.008187067 0.141776681
v 0.007745636 0.007273636 0.141776681
v 0.008596187 0.006245496 0.141776681
v 0.008179170 0.007680752 0.140455261
v 0.006383040 0.010058062 0.137646437
v 0.006243080 0.009837519 0.139071792
v 0.007593317 0.009178744 0.137646437
v 0.006012081 0.009473524 0.140455261
v 0.009637420 0.007001996 0.137646437
v 0.009426101 0.006848463 0.139071792
v 0.009077328 0.006595065 0.140455261
v 0.007199153 0.006760455 0.143016770
v 0.006547690 0.006148690 0.144157469
v 0.006295076 0.007609440 0.143016770
f 1 17 11
f 2 3 7
f 1 2 10
f 1 10 5
f 1 4 17
f 1 5 4
f 4 61 17
f 4 5 61
f 2 7 6
f 3 8 7
f 3 9 8
f 6 7 64
f 7 8 65
f 8 9 65
f 2 6 10
f 6 68 10
f 5 10 68
f 11 20 12
f 12 21 13
f 13 356 349
f 11 17 18
f 11 18 20
f 12 20 19
f 12 19 21
f 17 81 18
f 18 79 20
f 19 87 21
f 19 20 79
f 13 21 22
f 13 22 23
f 13 23 356
f 21 87 22
f 22 89 23
f 23 89 356
f 3 32 39
f 32 34 41
f 34 35 47
f 32 40 39
f 3 39 9
f 32 41 40
f 9 39 129
f 39 40 129
f 40 41 131
f 34 45 41
f 34 46 45
f 34 47 46
f 35 48 47
f 41 45 142
f 45 46 142
f 46 47 144
f 47 48 144
f 1 11 1079
f 1 1079 2
f 3 1079 32
f 32 1079 34
f 2 1079 3
f 5 68 61
f 17 61 81
f 61 62 81
f 62 82 81
f 61 69 62
f 62 63 82
f 63 72 83
f 7 65 64
f 64 65 66
f 64 66 70
f 66 67 70
f 67 74 70
f 67 141 74
f 61 68 69
f 6 64 68
f 64 70 68
f 68 70 69
f 69 70 74
f 62 69 71
f 69 74 71
f 71 75 73
f 62 71 63
f 63 71 73
f 63 73 72
f 72 73 77
f 71 74 75
f 73 75 76
f 74 141 75
f 72 77 115
f 75 166 76
f 73 76 77
f 77 78 115
f 76 168 77
f 77 168 78
f 18 81 79
f 79 81 82
f 79 82 80
f 19 79 87
f 79 80 87
f 80 85 88
f 80 88 87
f 80 82 83
f 85 91 88
f 80 83 85
f 83 84 85
f 63 83 82
f 72 84 83
f 84 114 86
f 85 86 91
f 84 86 85
f 86 94 91
f 86 111 94
f 87 88 89
f 22 87 89
f 88 90 89
f 88 91 90
f 89 90 411
f 89 411 356
f 90 92 412
f 90 412 411
f 91 94 92
f 90 91 92
f 92 94 93
f 92 417 412
f 92 93 417
f 93 419 417
f 93 94 112
f 93 113 419
f 72 115 84
f 86 114 111
f 111 116 112
f 93 112 113
f 94 111 112
f 112 121 113
f 113 121 123
f 113 452 419
f 113 123 452
f 123 456 452
f 84 115 114
f 114 115 118
f 114 118 117
f 111 114 117
f 111 117 116
f 116 117 120
f 116 120 125
f 78 118 115
f 117 118 119
f 78 235 118
f 118 235 119
f 117 119 120
f 120 238 125
f 119 237 120
f 120 237 238
f 112 116 121
f 121 122 123
f 116 125 121
f 121 125 122
f 123 124 456
f 124 458 456
f 122 124 123
f 124 128 458
f 122 125 126
f 122 127 124
f 122 126 127
f 125 238 126
f 126 255 127
f 124 127 128
f 128 463 458
f 127 256 128
f 128 257 463
f 129 132 130
f 9 129 65
f 65 129 130
f 65 130 66
f 66 130 133
f 40 131 129
f 129 131 132
f 41 142 131
f 130 132 135
f 131 143 132
f 66 133 67
f 67 133 134
f 67 134 141
f 134 170 141
f 132 146 135
f 130 135 133
f 133 135 136
f 133 136 134
f 134 136 165
f 75 141 166
f 131 142 143
f 46 144 142
f 132 143 146
f 142 145 143
f 142 144 145
f 48 781 144
f 143 145 148
f 144 782 145
f 135 146 147
f 143 148 146
f 146 149 147
f 135 147 136
f 136 147 174
f 146 148 149
f 145 785 148
f 148 786 149
f 147 149 175
f 134 165 170
f 76 166 167
f 141 170 166
f 166 171 167
f 76 167 168
f 78 168 169
f 167 172 168
f 168 172 169
f 166 170 171
f 170 176 171
f 165 176 170
f 167 171 173
f 171 176 177
f 171 177 173
f 167 173 172
f 169 172 241
f 172 173 182
f 172 182 241
f 136 174 165
f 165 174 178
f 147 175 174
f 174 180 178
f 174 175 180
f 149 817 175
f 175 819 180
f 165 178 176
f 176 178 179
f 176 179 177
f 178 180 181
f 178 181 179
f 180 820 181
f 173 177 183
f 173 183 182
f 177 184 183
f 177 179 184
f 179 181 185
f 179 185 184
f 183 184 280
f 181 825 185
f 184 185 281
f 78 169 235
f 119 235 236
f 169 240 235
f 235 240 236
f 119 236 237
f 237 239 238
f 236 242 237
f 238 239 254
f 237 242 239
f 169 241 240
f 236 240 243
f 240 241 274
f 240 274 243
f 241 275 274
f 236 243 242
f 239 242 260
f 242 243 277
f 242 277 260
f 126 238 254
f 126 254 255
f 127 255 256
f 254 261 255
f 255 258 256
f 128 256 257
f 257 555 463
f 256 262 257
f 257 262 263
f 257 263 555
f 263 560 555
f 239 259 254
f 254 259 261
f 255 261 258
f 239 260 259
f 258 261 330
f 259 325 261
f 256 258 262
f 263 332 560
f 258 329 262
f 262 331 263
f 258 330 329
f 262 329 331
f 263 331 332
f 332 620 560
f 182 275 241
f 182 276 275
f 182 183 276
f 183 280 276
f 274 275 279
f 275 276 282
f 243 274 278
f 274 279 278
f 243 278 277
f 275 282 279
f 277 278 326
f 278 279 333
f 184 281 280
f 185 897 281
f 276 280 283
f 276 283 282
f 280 281 284
f 280 284 283
f 281 899 284
f 279 282 334
f 279 334 333
f 282 283 335
f 282 335 334
f 283 284 336
f 283 336 335
f 284 948 336
f 259 260 327
f 260 277 328
f 260 328 327
f 261 325 330
f 259 327 325
f 277 326 328
f 278 333 326
f 325 327 339
f 327 328 340
f 329 341 331
f 331 343 332
f 332 344 620
f 325 337 330
f 329 330 342
f 325 339 337
f 329 342 341
f 330 337 342
f 332 343 344
f 344 629 620
f 331 341 343
f 326 338 328
f 326 333 345
f 328 338 340
f 333 334 346
f 326 345 338
f 333 346 345
f 334 335 347
f 335 336 348
f 334 347 346
f 335 348 347
f 336 952 348
f 327 340 339
f 341 342 638
f 337 638 342
f 343 638 344
f 344 638 629
f 341 638 343
f 338 638 340
f 338 345 638
f 345 346 638
f 346 347 638
f 347 348 638
f 348 952 638
f 339 340 638
f 337 339 638
f 349 358 350
f 350 361 351
f 351 363 374
f 12 13 1079
f 13 349 1079
f 349 350 1079
f 349 356 357
f 349 357 358
f 350 358 359
f 350 359 360
f 356 411 357
f 357 414 358
f 358 414 359
f 359 415 360
f 350 360 361
f 351 361 362
f 351 362 363
f 360 415 361
f 361 423 362
f 362 425 363
f 374 379 375
f 375 381 376
f 376 383 390
f 363 377 374
f 374 377 378
f 374 378 379
f 363 425 377
f 377 474 378
f 378 474 379
f 375 379 380
f 375 380 381
f 379 477 380
f 380 485 381
f 376 381 382
f 376 382 383
f 381 485 382
f 382 486 383
f 383 486 399
f 11 12 1079
f 350 351 1079
f 351 374 1079
f 374 375 1079
f 375 376 1079
f 390 401 391
f 376 390 1079
f 390 391 1079
f 391 394 1075
f 391 408 394
f 383 399 390
f 390 399 400
f 390 400 401
f 391 401 402
f 399 673 400
f 400 673 401
f 401 675 402
f 391 402 408
f 394 408 409
f 394 409 410
f 394 410 1085
f 402 696 408
f 408 696 409
f 409 698 410
f 410 698 1085
f 357 411 414
f 411 412 414
f 412 417 413
f 412 413 414
f 413 415 414
f 359 414 415
f 413 418 416
f 413 416 415
f 413 417 418
f 417 419 418
f 418 419 420
f 418 420 421
f 416 418 421
f 420 422 421
f 419 452 420
f 420 453 422
f 415 416 423
f 361 415 423
f 416 421 424
f 416 424 423
f 362 423 425
f 423 424 425
f 424 426 425
f 424 427 426
f 426 429 475
f 421 422 427
f 421 427 424
f 427 428 429
f 422 428 427
f 422 454 428
f 428 455 430
f 426 427 429
f 429 430 476
f 428 430 429
f 430 469 480
f 420 452 453
f 452 456 453
f 453 456 457
f 422 453 454
f 453 457 454
f 454 457 460
f 454 460 455
f 428 454 455
f 430 455 469
f 456 458 457
f 457 458 459
f 457 459 460
f 460 461 467
f 459 461 460
f 461 462 467
f 458 463 459
f 459 463 464
f 459 464 461
f 463 555 464
f 464 556 465
f 461 465 462
f 461 464 465
f 462 465 466
f 465 557 466
f 455 460 467
f 455 467 469
f 467 468 469
f 462 468 467
f 469 470 480
f 468 470 469
f 468 472 470
f 462 471 468
f 468 471 472
f 470 472 489
f 471 473 472
f 472 473 490
f 473 567 490
f 462 466 471
f 466 568 471
f 471 568 473
f 377 425 474
f 425 426 474
f 474 475 477
f 426 475 474
f 379 474 477
f 429 476 475
f 475 476 478
f 380 477 485
f 477 478 485
f 475 478 477
f 478 482 479
f 478 479 485
f 476 482 478
f 476 480 482
f 430 480 476
f 470 481 480
f 480 481 482
f 481 483 482
f 479 482 483
f 481 489 484
f 483 484 488
f 481 484 483
f 484 672 488
f 484 491 672
f 382 485 486
f 479 486 485
f 479 483 487
f 479 487 486
f 483 488 487
f 470 489 481
f 472 490 489
f 489 490 491
f 490 704 491
f 490 567 704
f 484 489 491
f 464 555 556
f 465 556 557
f 555 560 556
f 556 560 561
f 556 561 557
f 557 561 562
f 466 557 558
f 466 558 568
f 558 559 568
f 557 562 558
f 558 563 559
f 560 620 561
f 561 621 562
f 561 620 621
f 562 621 622
f 562 622 563
f 563 622 623
f 558 562 563
f 559 563 564
f 559 564 570
f 564 565 570
f 563 623 564
f 564 624 565
f 559 569 568
f 473 568 569
f 559 570 569
f 569 570 571
f 570 572 571
f 473 569 567
f 567 569 571
f 567 571 705
f 571 574 705
f 572 573 574
f 565 572 570
f 565 566 572
f 566 573 572
f 566 657 573
f 573 657 660
f 571 572 574
f 573 575 574
f 574 575 708
f 573 660 575
f 575 660 719
f 620 629 621
f 621 630 622
f 622 631 623
f 621 629 630
f 622 630 631
f 623 631 632
f 623 632 624
f 624 633 625
f 624 632 633
f 625 633 634
f 564 623 624
f 565 624 625
f 566 625 626
f 565 625 566
f 566 626 657
f 625 634 626
f 626 635 627
f 626 627 657
f 627 628 658
f 628 643 659
f 629 638 630
f 630 638 631
f 631 638 632
f 632 638 633
f 633 638 634
f 626 634 635
f 627 635 636
f 634 638 635
f 635 638 636
f 636 638 637
f 637 638 639
f 638 640 639
f 638 641 640
f 638 642 641
f 638 1225 642
f 627 636 628
f 628 637 643
f 628 636 637
f 637 639 643
f 639 644 643
f 639 640 644
f 640 641 645
f 641 642 646
f 640 645 644
f 641 646 645
f 642 1238 646
f 627 658 657
f 657 658 660
f 658 661 660
f 628 659 658
f 658 659 661
f 659 663 662
f 660 661 719
f 661 720 719
f 661 662 720
f 659 662 661
f 643 644 663
f 643 663 659
f 644 664 663
f 644 645 664
f 645 646 665
f 645 665 664
f 646 1261 665
f 662 666 721
f 666 667 722
f 662 663 666
f 663 664 666
f 664 665 667
f 664 667 666
f 665 1264 667
f 672 706 678
f 486 487 673
f 487 674 673
f 487 488 674
f 399 486 673
f 673 674 675
f 401 673 675
f 402 675 696
f 675 676 696
f 674 676 675
f 674 677 676
f 676 680 697
f 488 672 677
f 488 677 674
f 672 678 677
f 677 678 680
f 678 710 679
f 678 679 680
f 676 677 680
f 696 697 698
f 676 697 696
f 697 701 699
f 409 696 698
f 698 699 1320
f 697 699 698
f 699 702 1321
f 679 712 700
f 700 723 703
f 680 701 697
f 679 701 680
f 700 702 701
f 679 700 701
f 703 724 1325
f 699 701 702
f 702 703 1324
f 700 703 702
f 567 705 704
f 704 705 707
f 705 708 707
f 491 704 706
f 704 707 706
f 491 706 672
f 678 706 710
f 706 707 710
f 707 708 711
f 708 709 711
f 707 711 710
f 710 711 712
f 711 714 712
f 709 714 711
f 574 708 705
f 575 709 708
f 575 719 709
f 679 710 712
f 709 713 714
f 713 715 714
f 713 716 715
f 715 716 718
f 716 717 718
f 717 1342 718
f 709 719 713
f 713 719 720
f 662 721 720
f 713 720 716
f 716 720 721
f 666 722 721
f 667 1347 722
f 717 721 722
f 716 721 717
f 717 722 1341
f 712 714 723
f 700 712 723
f 714 715 723
f 715 724 723
f 715 718 724
f 703 723 724
f 718 1351 724
f 35 725 730
f 725 728 732
f 728 750 740
f 35 730 48
f 725 731 730
f 725 732 731
f 48 730 781
f 730 731 781
f 731 732 783
f 728 738 732
f 728 739 738
f 728 740 739
f 740 750 753
f 732 738 804
f 738 739 804
f 739 740 806
f 740 753 806
f 34 1079 35
f 35 1079 725
f 725 1079 728
f 728 1079 750
f 750 751 754
f 751 752 757
f 752 763 759
f 750 754 753
f 751 755 754
f 751 756 755
f 753 754 1001
f 754 755 1003
f 755 756 1003
f 751 757 756
f 756 757 1006
f 757 758 1006
f 752 758 757
f 752 759 758
f 759 763 774
f 758 759 1013
f 759 774 1035
f 750 1079 751
f 751 1079 752
f 752 1079 763
f 763 764 776
f 764 765 778
f 765 1100 780
f 763 775 774
f 763 776 775
f 764 777 776
f 764 778 777
f 774 775 1035
f 775 776 1037
f 776 777 1037
f 777 778 1043
f 765 779 778
f 765 780 779
f 780 1100 1113
f 778 779 1043
f 779 780 1045
f 780 1113 1383
f 144 781 782
f 145 782 785
f 781 784 782
f 731 783 781
f 781 783 784
f 732 804 783
f 782 784 787
f 783 805 784
f 148 785 786
f 782 787 785
f 785 788 786
f 149 786 817
f 785 787 788
f 784 808 787
f 787 808 809
f 787 809 788
f 786 788 818
f 788 809 829
f 783 804 805
f 739 806 804
f 784 805 808
f 804 807 805
f 805 807 810
f 804 806 807
f 753 1001 806
f 806 1001 1002
f 806 1002 807
f 807 1002 1004
f 805 810 808
f 808 810 811
f 808 811 809
f 809 811 830
f 807 1004 810
f 810 1004 816
f 810 816 811
f 811 816 834
f 175 817 819
f 786 818 817
f 817 822 819
f 817 818 822
f 818 823 822
f 788 829 818
f 818 829 823
f 180 819 820
f 819 822 821
f 819 821 820
f 821 822 824
f 822 823 824
f 823 832 824
f 181 820 825
f 820 826 825
f 185 825 897
f 820 821 826
f 825 826 898
f 821 827 826
f 821 824 827
f 826 827 902
f 824 832 828
f 824 828 827
f 809 830 829
f 823 829 831
f 829 830 831
f 830 835 831
f 823 831 832
f 831 835 833
f 831 833 832
f 811 834 830
f 830 834 835
f 816 1016 834
f 834 837 835
f 834 1016 837
f 835 837 836
f 833 835 836
f 836 837 972
f 828 832 973
f 832 833 973
f 833 836 974
f 825 898 897
f 826 902 898
f 281 897 899
f 897 898 900
f 897 900 899
f 898 901 900
f 898 902 901
f 284 899 948
f 899 949 948
f 899 900 949
f 900 950 949
f 900 901 950
f 901 905 951
f 901 951 950
f 827 903 902
f 827 828 903
f 828 904 903
f 902 903 905
f 901 902 905
f 903 906 905
f 905 906 964
f 903 904 906
f 904 907 906
f 906 907 965
f 336 948 952
f 948 949 953
f 949 950 954
f 948 953 952
f 949 954 953
f 950 955 954
f 950 951 955
f 951 956 955
f 956 964 957
f 951 964 956
f 957 964 965
f 638 952 953
f 638 953 954
f 638 954 955
f 638 955 956
f 638 956 957
f 638 957 958
f 638 958 959
f 957 965 958
f 958 966 959
f 638 959 960
f 638 960 961
f 638 961 962
f 638 962 963
f 638 963 1229
f 905 964 951
f 906 965 964
f 907 966 965
f 958 965 966
f 907 991 966
f 967 991 992
f 966 991 967
f 967 992 968
f 959 966 967
f 959 967 960
f 960 968 961
f 960 967 968
f 961 968 969
f 961 969 962
f 962 970 963
f 963 971 1229
f 968 993 969
f 962 969 970
f 963 970 971
f 971 1242 1229
f 828 973 904
f 904 973 975
f 833 974 973
f 973 974 975
f 974 977 976
f 974 976 975
f 904 975 907
f 907 975 991
f 975 976 991
f 976 992 991
f 976 980 992
f 836 977 974
f 836 972 977
f 972 978 977
f 972 1051 978
f 976 977 980
f 977 978 980
f 978 997 980
f 978 1051 979
f 978 979 997
f 968 992 993
f 969 993 994
f 980 993 992
f 980 997 993
f 993 997 994
f 994 998 995
f 969 994 970
f 970 994 995
f 970 995 971
f 971 996 1242
f 971 995 996
f 996 1284 1242
f 979 998 997
f 979 1063 998
f 998 1063 999
f 994 997 998
f 999 1064 1000
f 1000 1065 1291
f 995 999 996
f 995 998 999
f 996 999 1000
f 996 1000 1284
f 1000 1291 1284
f 754 1003 1001
f 1001 1003 1005
f 1001 1005 1002
f 1002 1005 1008
f 1002 1008 1004
f 756 1006 1003
f 1003 1006 1007
f 1003 1007 1005
f 1005 1007 1010
f 1006 1014 1007
f 1007 1014 1015
f 1004 1008 1009
f 816 1004 1009
f 816 1009 1016
f 1008 1011 1009
f 1009 1011 1017
f 1005 1010 1008
f 1008 1010 1011
f 1007 1015 1010
f 1010 1015 1012
f 1010 1012 1011
f 1011 1012 1054
f 758 1013 1006
f 1006 1013 1014
f 759 1035 1013
f 1013 1035 1036
f 1013 1036 1014
f 1014 1039 1015
f 1009 1017 1016
f 837 1016 1018
f 1016 1017 1018
f 1017 1052 1018
f 837 1018 972
f 1011 1054 1017
f 1012 1015 1040
f 1012 1040 1055
f 1014 1036 1039
f 1035 1038 1036
f 1036 1038 1041
f 775 1037 1035
f 1035 1037 1038
f 777 1043 1037
f 1037 1043 1044
f 1037 1044 1038
f 1038 1044 1048
f 1015 1039 1040
f 1036 1041 1039
f 1039 1042 1040
f 1039 1041 1042
f 1040 1042 1066
f 1041 1047 1042
f 1038 1048 1041
f 1041 1048 1047
f 779 1045 1043
f 1043 1045 1046
f 1043 1046 1044
f 1044 1046 1049
f 780 1383 1045
f 1045 1383 1384
f 1045 1384 1046
f 1046 1384 1390
f 1042 1047 1067
f 1047 1050 1068
f 1050 1392 1421
f 1044 1049 1048
f 1048 1049 1050
f 1047 1048 1050
f 1049 1390 1392
f 1046 1390 1049
f 1049 1392 1050
f 1017 1054 1052
f 972 1018 1051
f 1018 1052 1051
f 1051 1052 1053
f 1052 1056 1053
f 1053 1056 1058
f 1052 1054 1056
f 1054 1055 1056
f 1012 1055 1054
f 1055 1057 1056
f 1055 1066 1057
f 1057 1066 1060
f 1056 1057 1058
f 979 1051 1053
f 979 1053 1063
f 1053 1058 1063
f 1057 1059 1058
f 1059 1060 1061
f 1057 1060 1059
f 1060 1062 1061
f 1062 1406 1404
f 1061 1062 1404
f 999 1063 1064
f 1058 1064 1063
f 1058 1059 1064
f 1000 1064 1065
f 1065 1410 1291
f 1059 1065 1064
f 1059 1061 1065
f 1061 1410 1065
f 1061 1404 1410
f 1040 1066 1055
f 1042 1067 1066
f 1060 1066 1067
f 1060 1067 1062
f 1062 1067 1068
f 1047 1068 1067
f 1062 1068 1406
f 1068 1421 1406
f 1050 1421 1068
f 391 1075 1078
f 391 1078 1079
f 394 1085 1075
f 1075 1087 1078
f 1078 1095 1079
f 1075 1085 1086
f 1075 1086 1087
f 1078 1087 1092
f 1085 1320 1086
f 1086 1322 1087
f 1087 1322 1092
f 1078 1092 1093
f 1078 1093 1095
f 1079 1095 1094
f 1079 1094 1126
f 1092 1333 1093
f 1093 1333 1095
f 1094 1095 1335
f 763 1079 764
f 764 1079 765
f 1100 1101 1115
f 765 1079 1100
f 1079 1101 1100
f 1101 1121 1123
f 1101 1123 1102
f 1101 1102 1116
f 1102 1123 1120
f 1100 1114 1113
f 1100 1115 1114
f 1101 1117 1115
f 1101 1116 1117
f 1113 1114 1383
f 1114 1115 1386
f 1115 1117 1386
f 1116 1387 1117
f 1102 1118 1116
f 1102 1120 1119
f 1102 1119 1118
f 1116 1118 1397
f 1118 1119 1397
f 1119 1120 1395
f 1079 1122 1101
f 1079 1126 1122
f 1121 1122 1128
f 1101 1122 1121
f 1121 1129 1123
f 1121 1128 1125
f 1121 1125 1124
f 1125 1128 1435
f 1124 1125 1426
f 1122 1127 1128
f 1122 1126 1127
f 1094 1433 1126
f 1126 1433 1127
f 1127 1435 1128
f 1120 1123 1130
f 1123 1129 1130
f 1121 1124 1129
f 1120 1130 1395
f 1129 1437 1130
f 1124 1426 1129
f 638 1237 1234
f 638 1234 1236
f 638 1226 1225
f 638 1228 1227
f 638 1227 1226
f 638 1235 1228
f 638 1236 1235
f 638 1230 1233
f 638 1229 1231
f 638 1231 1230
f 638 1232 1237
f 638 1233 1232
f 1234 1248 1236
f 642 1225 1238
f 1225 1226 1239
f 1226 1227 1240
f 1225 1239 1238
f 1226 1240 1239
f 1227 1228 1241
f 1228 1235 1249
f 1227 1241 1240
f 1235 1236 1247
f 1228 1249 1241
f 1235 1247 1249
f 1230 1244 1233
f 1229 1242 1231
f 1230 1231 1243
f 1232 1245 1237
f 1232 1233 1246
f 1234 1237 1250
f 1232 1246 1245
f 1237 1245 1250
f 1231 1242 1243
f 1230 1243 1244
f 1233 1244 1246
f 1236 1248 1247
f 1234 1250 1248
f 1241 1249 1267
f 1247 1268 1249
f 1248 1250 1289
f 1245 1287 1250
f 1247 1248 1288
f 1247 1288 1268
f 1248 1289 1288
f 646 1238 1261
f 1238 1239 1262
f 1238 1262 1261
f 1239 1240 1263
f 1239 1263 1262
f 1240 1241 1266
f 1240 1266 1263
f 667 1264 1347
f 1264 1265 1348
f 665 1261 1264
f 1261 1262 1265
f 1261 1265 1264
f 1262 1263 1269
f 1262 1269 1265
f 1241 1267 1266
f 1249 1268 1267
f 1263 1266 1270
f 1267 1268 1297
f 1266 1267 1271
f 1267 1297 1271
f 1265 1269 1349
f 1269 1270 1350
f 1270 1299 1350
f 1263 1270 1269
f 1266 1271 1270
f 1242 1284 1243
f 1243 1285 1244
f 1244 1286 1246
f 1245 1246 1290
f 1244 1285 1286
f 1246 1286 1290
f 1243 1284 1285
f 1286 1293 1290
f 1250 1287 1289
f 1245 1290 1287
f 1288 1289 1303
f 1287 1290 1294
f 1287 1295 1289
f 1289 1295 1303
f 1291 1410 1292
f 1292 1411 1293
f 1284 1291 1285
f 1285 1291 1292
f 1285 1292 1286
f 1286 1292 1293
f 1293 1412 1294
f 1294 1413 1295
f 1295 1413 1301
f 1290 1293 1294
f 1287 1294 1295
f 1296 1441 1357
f 1297 1298 1304
f 1268 1288 1298
f 1268 1298 1297
f 1288 1303 1298
f 1270 1271 1299
f 1271 1297 1300
f 1271 1300 1299
f 1297 1304 1300
f 1299 1300 1357
f 1298 1303 1302
f 1295 1301 1303
f 1298 1302 1304
f 1301 1302 1303
f 1302 1415 1304
f 1296 1300 1304
f 1296 1357 1300
f 1296 1304 1415
f 698 1320 1085
f 1086 1320 1322
f 1320 1321 1322
f 699 1321 1320
f 1321 1324 1323
f 1322 1323 1333
f 1321 1323 1322
f 1323 1327 1334
f 1325 1351 1326
f 702 1324 1321
f 1324 1325 1327
f 703 1325 1324
f 1326 1337 1338
f 1326 1352 1337
f 1323 1324 1327
f 1326 1338 1327
f 1325 1326 1327
f 1332 1359 1429
f 1092 1322 1333
f 1333 1334 1335
f 1323 1334 1333
f 1334 1338 1336
f 1335 1336 1433
f 1336 1434 1433
f 1336 1339 1434
f 1095 1333 1335
f 1094 1335 1433
f 1334 1336 1335
f 1336 1338 1339
f 1337 1339 1338
f 1337 1361 1340
f 1337 1340 1339
f 1327 1338 1334
f 1339 1340 1436
f 1339 1436 1434
f 1332 1340 1355
f 1332 1436 1340
f 717 1341 1342
f 1341 1343 1344
f 1341 1344 1342
f 1344 1346 1361
f 1343 1345 1346
f 1343 1346 1344
f 1264 1348 1347
f 722 1347 1341
f 1265 1349 1348
f 1343 1347 1348
f 1341 1347 1343
f 1269 1350 1349
f 1343 1348 1345
f 1345 1348 1349
f 1349 1350 1353
f 1345 1349 1353
f 718 1342 1351
f 724 1351 1325
f 1342 1352 1351
f 1342 1344 1352
f 1326 1351 1352
f 1344 1361 1352
f 1337 1352 1361
f 1353 1354 1360
f 1346 1355 1361
f 1346 1356 1355
f 1355 1356 1359
f 1345 1356 1346
f 1345 1353 1356
f 1353 1360 1356
f 1358 1442 1360
f 1354 1357 1358
f 1354 1358 1360
f 1357 1441 1358
f 1356 1360 1359
f 1332 1355 1359
f 1359 1360 1442
f 1299 1354 1350
f 1350 1354 1353
f 1299 1357 1354
f 1340 1361 1355
f 1402 1431 1419
f 1114 1386 1383
f 1383 1386 1385
f 1383 1385 1384
f 1384 1385 1391
f 1117 1387 1386
f 1386 1387 1388
f 1385 1388 1394
f 1385 1386 1388
f 1392 1393 1422
f 1389 1423 1393
f 1390 1391 1393
f 1384 1391 1390
f 1390 1393 1392
f 1385 1394 1391
f 1389 1391 1394
f 1389 1393 1391
f 1396 1401 1398
f 1387 1397 1398
f 1116 1397 1387
f 1387 1398 1388
f 1388 1398 1399
f 1119 1395 1397
f 1395 1396 1397
f 1396 1398 1397
f 1394 1399 1400
f 1389 1394 1400
f 1389 1400 1424
f 1399 1402 1400
f 1396 1439 1401
f 1398 1401 1399
f 1399 1401 1402
f 1400 1402 1420
f 1401 1431 1402
f 1388 1399 1394
f 1405 1407 1408
f 1405 1406 1407
f 1404 1406 1405
f 1409 1423 1418
f 1403 1409 1418
f 1403 1408 1409
f 1407 1409 1408
f 1292 1410 1411
f 1293 1411 1412
f 1404 1411 1410
f 1405 1412 1411
f 1294 1412 1413
f 1301 1413 1403
f 1408 1413 1412
f 1405 1408 1412
f 1403 1413 1408
f 1404 1405 1411
f 1414 1417 1415
f 1416 1419 1441
f 1296 1415 1416
f 1296 1416 1441
f 1415 1417 1416
f 1417 1418 1424
f 1417 1424 1420
f 1403 1418 1414
f 1414 1418 1417
f 1416 1417 1420
f 1416 1420 1419
f 1402 1419 1420
f 1301 1414 1302
f 1302 1414 1415
f 1301 1403 1414
f 1406 1421 1407
f 1407 1421 1422
f 1392 1422 1421
f 1407 1422 1409
f 1409 1422 1423
f 1389 1424 1423
f 1393 1423 1422
f 1418 1423 1424
f 1400 1420 1424
f 1425 1426 1435
f 1426 1427 1437
f 1125 1435 1426
f 1425 1427 1426
f 1425 1428 1427
f 1427 1432 1438
f 1428 1429 1432
f 1332 1429 1428
f 1429 1442 1430
f 1432 1439 1438
f 1430 1439 1432
f 1430 1440 1431
f 1430 1431 1439
f 1427 1428 1432
f 1429 1430 1432
f 1433 1434 1435
f 1127 1433 1435
f 1425 1434 1436
f 1425 1435 1434
f 1332 1428 1436
f 1425 1436 1428
f 1129 1426 1437
f 1130 1437 1395
f 1395 1437 1438
f 1396 1438 1439
f 1427 1438 1437
f 1395 1438 1396
f 1401 1439 1431
f 1358 1441 1440
f 1358 1440 1442
f 1419 1440 1441
f 1430 1442 1440
f 1359 1442 1429
f 1419 1431 1440
f 55 14 25
f 55 25 24
f 14 26 25
f 14 27 26
f 24 25 191
f 25 26 95
f 14 15 27
f 15 16 29
f 16 352 364
f 15 28 27
f 15 29 28
f 26 27 98
f 28 98 27
f 28 29 99
f 29 30 99
f 16 30 29
f 16 31 30
f 16 364 31
f 30 31 104
f 31 364 104
f 33 44 36
f 33 60 43
f 33 43 42
f 33 42 44
f 60 137 43
f 43 137 42
f 42 138 44
f 36 50 37
f 37 53 38
f 36 44 49
f 36 49 50
f 37 50 52
f 44 138 49
f 49 150 50
f 50 154 52
f 37 52 51
f 37 51 53
f 38 53 54
f 52 154 51
f 51 155 53
f 53 155 54
f 55 1076 14
f 56 33 1076
f 55 56 1076
f 33 36 1076
f 36 37 1076
f 55 58 56
f 56 60 33
f 55 24 57
f 55 57 58
f 56 58 59
f 56 59 60
f 57 186 58
f 59 187 60
f 59 58 186
f 24 191 57
f 25 95 191
f 191 95 192
f 192 95 96
f 26 98 95
f 98 96 95
f 101 97 96
f 193 96 97
f 97 102 198
f 28 99 98
f 98 99 101
f 99 104 100
f 101 99 100
f 98 101 96
f 101 102 97
f 101 100 102
f 198 102 107
f 102 100 103
f 102 103 107
f 107 103 108
f 30 104 99
f 100 104 105
f 104 364 431
f 104 431 105
f 105 431 433
f 100 105 103
f 105 106 103
f 105 433 106
f 106 433 434
f 106 434 109
f 103 106 108
f 106 109 108
f 109 434 443
f 107 108 211
f 108 212 211
f 109 212 108
f 109 110 212
f 109 443 110
f 110 443 444
f 187 139 137
f 42 137 138
f 137 140 138
f 137 139 140
f 139 195 151
f 139 151 140
f 195 222 151
f 49 138 150
f 138 152 150
f 138 140 152
f 50 150 154
f 150 152 156
f 150 156 154
f 140 151 153
f 140 153 152
f 151 160 153
f 151 222 160
f 152 153 157
f 152 157 156
f 153 160 161
f 153 161 157
f 51 154 155
f 154 158 155
f 154 156 158
f 54 155 789
f 155 158 791
f 156 157 159
f 157 161 163
f 156 159 158
f 158 159 792
f 157 163 159
f 159 163 799
f 222 224 160
f 160 224 162
f 160 162 161
f 161 162 164
f 161 164 163
f 163 164 800
f 57 191 186
f 191 192 188
f 191 188 186
f 59 186 187
f 187 186 189
f 186 188 189
f 192 190 188
f 188 194 189
f 188 190 194
f 190 201 194
f 190 196 201
f 192 96 193
f 192 193 190
f 193 97 197
f 193 197 196
f 197 97 198
f 193 196 190
f 60 187 137
f 187 189 139
f 195 189 194
f 139 189 195
f 194 201 203
f 195 194 203
f 195 203 222
f 197 198 199
f 198 210 199
f 197 205 196
f 197 199 205
f 210 200 199
f 206 199 200
f 196 202 201
f 201 202 204
f 201 204 203
f 203 204 223
f 202 225 204
f 202 207 225
f 196 205 202
f 205 199 206
f 202 205 207
f 205 206 207
f 206 200 209
f 200 221 209
f 206 208 207
f 225 207 229
f 207 208 229
f 206 209 208
f 221 246 209
f 208 209 264
f 209 246 264
f 198 107 210
f 107 211 210
f 211 213 210
f 211 212 214
f 211 214 213
f 212 216 214
f 210 213 200
f 214 220 213
f 214 216 215
f 214 215 220
f 212 110 216
f 110 444 217
f 110 217 216
f 217 444 492
f 217 492 219
f 216 217 218
f 216 218 215
f 218 217 219
f 218 219 249
f 219 492 495
f 219 495 250
f 213 221 200
f 213 220 221
f 221 220 245
f 220 247 245
f 220 215 247
f 218 244 215
f 215 244 247
f 221 245 246
f 218 249 244
f 219 250 249
f 250 495 543
f 222 203 223
f 222 223 224
f 204 226 223
f 224 223 227
f 204 225 226
f 225 230 226
f 223 226 227
f 224 227 231
f 226 228 227
f 226 230 228
f 208 265 229
f 225 229 230
f 208 264 265
f 229 266 230
f 229 265 266
f 230 267 228
f 230 266 267
f 224 231 162
f 162 233 164
f 162 231 233
f 227 232 231
f 227 228 232
f 231 232 234
f 228 268 232
f 231 234 233
f 164 233 838
f 232 271 234
f 233 234 839
f 228 267 268
f 232 268 271
f 234 271 887
f 246 245 285
f 244 248 247
f 245 247 286
f 247 248 286
f 249 250 252
f 250 543 253
f 244 249 251
f 244 251 248
f 249 252 251
f 251 252 293
f 250 253 252
f 253 543 546
f 252 253 294
f 253 546 295
f 264 288 265
f 266 265 269
f 265 288 269
f 267 272 268
f 266 270 267
f 266 269 270
f 267 270 272
f 268 273 271
f 268 272 273
f 270 304 272
f 271 273 888
f 272 305 273
f 246 287 264
f 245 286 285
f 246 285 287
f 264 287 288
f 286 248 289
f 286 290 285
f 286 289 290
f 285 291 287
f 287 302 288
f 287 291 302
f 285 290 291
f 289 310 290
f 290 309 291
f 248 251 292
f 251 293 292
f 252 294 293
f 248 292 289
f 253 295 294
f 295 546 576
f 294 295 297
f 295 576 299
f 289 292 311
f 293 296 292
f 293 294 298
f 293 298 296
f 289 311 310
f 292 296 311
f 294 297 298
f 295 299 297
f 299 576 581
f 288 300 269
f 269 301 270
f 269 300 301
f 288 302 300
f 270 301 304
f 291 312 302
f 291 309 312
f 302 303 300
f 300 306 301
f 300 303 306
f 302 312 303
f 272 304 305
f 301 307 304
f 273 305 908
f 304 308 305
f 301 306 307
f 304 307 308
f 305 308 910
f 290 310 309
f 311 323 310
f 311 296 324
f 312 309 317
f 310 322 309
f 310 323 322
f 298 313 296
f 298 297 315
f 297 299 314
f 299 581 316
f 297 314 315
f 299 316 314
f 316 581 593
f 311 324 323
f 296 313 324
f 298 315 313
f 312 318 303
f 303 319 306
f 312 317 318
f 309 322 317
f 303 318 319
f 306 320 307
f 306 319 320
f 307 321 308
f 307 320 321
f 308 321 917
f 323 604 322
f 315 314 604
f 314 316 604
f 316 593 604
f 324 313 604
f 315 604 313
f 324 604 323
f 317 322 604
f 317 604 318
f 318 604 319
f 319 604 320
f 320 604 321
f 321 604 917
f 352 353 366
f 353 354 369
f 352 365 364
f 352 366 365
f 353 367 366
f 364 365 431
f 365 366 432
f 366 367 432
f 353 368 367
f 353 369 368
f 354 370 369
f 367 368 437
f 368 369 437
f 369 370 438
f 354 355 371
f 354 371 370
f 371 355 372
f 355 373 372
f 370 371 449
f 371 372 449
f 372 373 506
f 14 1076 15
f 15 1076 16
f 16 1076 352
f 352 1076 353
f 353 1076 354
f 354 1076 355
f 355 1076 384
f 384 1076 388
f 355 384 385
f 384 388 387
f 355 385 373
f 384 386 385
f 384 387 386
f 373 385 506
f 385 386 509
f 386 387 510
f 387 395 510
f 388 395 387
f 388 1076 389
f 389 1076 392
f 392 1073 393
f 388 389 396
f 388 396 395
f 396 389 397
f 389 398 397
f 395 396 668
f 396 397 668
f 397 398 669
f 389 392 403
f 392 393 405
f 389 403 398
f 392 404 403
f 392 405 404
f 398 403 669
f 403 404 681
f 404 405 685
f 393 406 405
f 393 407 406
f 393 1080 407
f 405 406 685
f 406 407 686
f 407 1080 686
f 365 432 431
f 431 432 433
f 433 432 435
f 367 437 432
f 435 432 437
f 433 435 434
f 435 436 434
f 434 436 443
f 435 439 436
f 439 440 436
f 436 445 443
f 436 440 445
f 445 440 447
f 435 437 439
f 437 438 439
f 369 438 437
f 439 438 441
f 438 449 441
f 439 441 440
f 440 442 447
f 447 442 448
f 440 441 442
f 441 450 442
f 442 451 448
f 443 445 444
f 445 446 444
f 445 447 446
f 447 498 446
f 447 448 498
f 370 449 438
f 441 449 450
f 372 506 449
f 449 506 450
f 450 506 507
f 450 451 442
f 450 507 451
f 448 451 516
f 444 446 492
f 446 498 493
f 446 493 492
f 492 493 495
f 493 494 496
f 498 494 493
f 493 496 495
f 495 496 543
f 496 494 497
f 496 497 544
f 498 499 494
f 448 499 498
f 448 516 499
f 499 500 501
f 516 500 499
f 499 501 494
f 494 501 497
f 502 501 503
f 497 501 502
f 501 500 503
f 503 519 504
f 502 503 504
f 496 544 543
f 497 545 544
f 497 502 545
f 502 550 545
f 502 504 550
f 550 504 551
f 504 519 505
f 504 505 551
f 505 553 551
f 505 523 553
f 523 554 553
f 451 508 516
f 516 508 517
f 451 507 508
f 507 511 508
f 508 512 517
f 517 512 520
f 385 509 506
f 506 509 507
f 507 509 511
f 509 510 511
f 386 510 509
f 511 510 513
f 508 511 512
f 511 513 512
f 513 514 512
f 520 512 514
f 395 668 510
f 513 510 668
f 513 668 670
f 520 514 526
f 513 670 514
f 514 670 515
f 514 515 526
f 526 515 529
f 515 682 529
f 529 682 532
f 516 517 500
f 503 500 518
f 500 517 518
f 518 521 519
f 518 517 520
f 518 520 521
f 503 518 519
f 521 527 522
f 519 522 505
f 505 522 523
f 519 521 522
f 522 527 524
f 523 525 554
f 522 524 523
f 524 535 525
f 523 524 525
f 520 526 521
f 526 529 527
f 526 527 521
f 527 528 524
f 527 529 528
f 529 532 528
f 524 528 535
f 554 525 647
f 647 530 648
f 647 525 530
f 525 535 530
f 648 530 531
f 648 531 649
f 531 537 649
f 537 652 649
f 528 533 535
f 532 691 533
f 532 533 528
f 533 534 536
f 691 534 533
f 534 693 538
f 535 536 530
f 535 533 536
f 530 536 531
f 531 536 538
f 531 538 537
f 536 534 538
f 539 653 652
f 541 656 653
f 540 693 695
f 542 695 1316
f 537 538 540
f 537 539 652
f 537 540 539
f 538 693 540
f 540 542 539
f 539 541 653
f 539 542 541
f 541 1131 656
f 540 695 542
f 541 542 1132
f 543 544 546
f 544 545 547
f 545 550 548
f 544 547 546
f 546 547 576
f 547 548 577
f 545 548 547
f 550 549 548
f 548 549 578
f 550 551 549
f 552 551 553
f 549 551 552
f 552 553 586
f 553 554 586
f 547 577 576
f 548 578 577
f 576 577 581
f 577 578 582
f 549 552 579
f 549 579 578
f 552 580 579
f 577 582 581
f 578 579 583
f 578 583 582
f 579 584 583
f 579 580 584
f 580 588 585
f 580 585 584
f 588 598 585
f 588 589 598
f 589 599 598
f 552 586 580
f 588 586 587
f 580 586 588
f 586 554 587
f 554 647 587
f 587 647 591
f 588 587 589
f 589 591 590
f 589 590 599
f 589 587 591
f 591 592 590
f 610 592 650
f 590 592 610
f 581 582 593
f 582 583 594
f 582 594 593
f 583 595 594
f 583 584 595
f 584 585 596
f 584 596 595
f 585 597 596
f 598 601 597
f 585 598 597
f 598 599 601
f 599 600 602
f 599 602 601
f 600 603 602
f 600 611 603
f 593 594 604
f 594 595 604
f 595 596 604
f 596 597 604
f 597 601 604
f 601 602 604
f 602 603 604
f 603 605 604
f 605 606 604
f 604 606 607
f 604 607 608
f 604 608 609
f 604 609 1185
f 611 605 603
f 605 612 606
f 611 612 605
f 606 612 615
f 606 615 607
f 607 615 616
f 607 616 608
f 608 616 617
f 608 617 609
f 609 617 1198
f 599 590 600
f 600 610 611
f 600 590 610
f 611 610 613
f 611 613 612
f 612 613 614
f 613 650 651
f 610 650 613
f 613 651 614
f 612 614 615
f 615 618 616
f 616 619 617
f 615 614 618
f 614 654 618
f 616 618 619
f 617 619 1201
f 618 655 619
f 591 647 648
f 591 648 592
f 648 649 592
f 592 649 650
f 650 649 652
f 650 652 651
f 651 654 614
f 651 653 654
f 651 652 653
f 618 654 655
f 654 656 655
f 619 655 1251
f 654 653 656
f 655 656 1253
f 397 669 668
f 668 669 670
f 670 669 671
f 670 671 515
f 515 671 682
f 403 681 669
f 669 681 671
f 671 681 684
f 404 685 681
f 681 685 684
f 684 685 687
f 671 684 682
f 684 683 682
f 682 683 532
f 532 683 691
f 691 683 688
f 691 688 692
f 684 687 683
f 683 687 688
f 406 686 685
f 685 686 687
f 687 686 689
f 686 1305 689
f 687 689 688
f 692 688 690
f 692 690 694
f 689 690 688
f 689 1307 690
f 690 1308 694
f 691 692 534
f 692 694 693
f 692 693 534
f 694 1315 695
f 694 695 693
f 38 733 726
f 726 735 727
f 38 54 733
f 726 733 734
f 726 734 735
f 54 789 733
f 733 789 734
f 734 790 735
f 727 735 736
f 727 736 737
f 727 737 741
f 735 795 736
f 736 795 737
f 737 812 741
f 727 741 729
f 729 743 744
f 741 742 729
f 729 742 743
f 741 812 742
f 742 813 743
f 37 38 1076
f 38 726 1076
f 726 727 1076
f 727 729 1076
f 729 744 1076
f 744 745 1076
f 745 760 1076
f 744 748 745
f 743 853 746
f 744 743 746
f 744 746 747
f 744 747 748
f 745 748 749
f 745 749 766
f 746 853 747
f 747 854 748
f 748 854 749
f 749 858 766
f 745 766 760
f 766 767 760
f 760 767 768
f 760 768 769
f 766 1019 767
f 767 1019 768
f 760 769 761
f 761 771 762
f 762 773 1096
f 761 769 770
f 761 770 771
f 768 1022 769
f 769 1022 770
f 770 1023 771
f 771 1023 772
f 762 771 772
f 762 772 773
f 773 1103 1096
f 772 1028 773
f 773 1362 1103
f 155 791 789
f 734 789 790
f 789 793 790
f 789 791 793
f 158 792 791
f 791 792 794
f 159 799 792
f 792 799 801
f 791 794 793
f 792 801 794
f 735 790 795
f 790 793 796
f 790 796 795
f 737 795 812
f 795 796 814
f 795 814 812
f 793 794 797
f 793 797 796
f 794 801 803
f 794 803 797
f 796 797 798
f 796 798 814
f 797 803 843
f 797 843 798
f 163 800 799
f 799 800 802
f 799 802 801
f 801 802 842
f 801 842 803
f 742 812 813
f 812 814 815
f 812 815 813
f 743 813 853
f 814 798 851
f 814 851 815
f 164 838 800
f 800 840 802
f 233 839 838
f 800 838 840
f 234 887 839
f 838 839 841
f 839 890 841
f 838 841 840
f 802 840 845
f 840 846 845
f 841 846 840
f 841 891 846
f 839 887 890
f 841 890 891
f 802 845 842
f 803 842 844
f 803 844 843
f 842 847 844
f 843 844 862
f 844 848 862
f 845 847 842
f 845 849 847
f 845 846 849
f 844 847 848
f 847 850 848
f 847 849 850
f 846 891 894
f 846 894 849
f 894 895 849
f 849 895 850
f 850 867 848
f 850 895 896
f 850 896 867
f 867 896 981
f 813 855 853
f 813 815 855
f 798 843 861
f 798 861 851
f 815 851 852
f 815 852 855
f 861 863 851
f 851 863 852
f 852 863 870
f 747 853 854
f 853 855 857
f 853 857 854
f 749 854 858
f 854 857 859
f 854 859 858
f 855 852 856
f 855 856 857
f 852 870 856
f 857 856 860
f 856 870 872
f 857 860 859
f 859 860 1021
f 856 872 860
f 872 873 860
f 860 873 1021
f 843 862 861
f 861 862 864
f 862 866 864
f 861 864 863
f 863 865 870
f 863 864 865
f 862 848 866
f 864 869 865
f 848 867 866
f 866 868 869
f 867 868 866
f 867 981 868
f 866 869 864
f 865 869 874
f 869 875 874
f 868 875 869
f 870 871 872
f 870 865 871
f 865 874 871
f 872 871 877
f 871 880 877
f 872 877 873
f 874 880 871
f 1021 873 1031
f 868 981 982
f 868 982 875
f 982 984 875
f 984 876 875
f 875 876 874
f 984 985 876
f 876 985 882
f 882 985 989
f 882 989 883
f 883 989 990
f 884 990 1276
f 873 878 1031
f 873 877 878
f 877 881 878
f 1031 878 879
f 885 879 878
f 874 876 880
f 877 880 881
f 876 882 880
f 880 882 881
f 881 883 885
f 881 882 883
f 881 885 878
f 886 1034 879
f 1034 1149 1375
f 883 990 884
f 883 884 885
f 884 1276 1146
f 884 1146 886
f 885 886 879
f 885 884 886
f 886 1146 1149
f 886 1149 1034
f 271 888 887
f 887 889 890
f 273 908 888
f 887 888 889
f 888 909 889
f 890 892 891
f 890 889 892
f 889 913 892
f 891 892 893
f 891 893 894
f 894 893 933
f 894 933 895
f 933 934 895
f 895 934 896
f 888 908 909
f 305 910 908
f 908 911 909
f 889 909 913
f 909 912 913
f 908 910 911
f 909 911 912
f 913 912 915
f 892 914 893
f 913 914 892
f 893 914 916
f 913 915 914
f 914 915 925
f 914 925 916
f 916 925 926
f 916 926 935
f 935 926 927
f 308 917 910
f 910 917 918
f 910 918 911
f 911 918 919
f 911 919 912
f 912 920 915
f 915 921 925
f 912 919 920
f 915 920 921
f 921 922 925
f 604 918 917
f 604 919 918
f 604 920 919
f 604 921 920
f 604 922 921
f 604 923 922
f 604 924 923
f 604 929 924
f 604 930 929
f 604 931 930
f 604 932 931
f 604 1190 932
f 922 926 925
f 922 923 926
f 923 924 927
f 923 927 926
f 924 928 927
f 929 940 928
f 924 929 928
f 929 930 940
f 930 931 941
f 930 941 940
f 931 942 941
f 931 932 942
f 932 1190 943
f 932 943 942
f 943 1190 1208
f 893 916 933
f 933 935 934
f 934 936 938
f 933 916 935
f 935 927 936
f 935 936 934
f 938 936 937
f 896 934 938
f 896 938 981
f 938 939 981
f 938 937 939
f 939 944 983
f 939 937 944
f 927 928 936
f 928 937 936
f 928 940 937
f 940 941 944
f 940 944 937
f 941 945 944
f 941 942 945
f 942 943 946
f 942 946 945
f 943 1208 947
f 945 986 983
f 944 945 983
f 945 946 986
f 943 947 946
f 947 1208 1215
f 946 947 987
f 947 1215 988
f 981 939 982
f 982 939 983
f 984 983 986
f 982 983 984
f 984 986 985
f 946 987 986
f 986 987 985
f 987 988 989
f 947 988 987
f 988 1215 1272
f 988 1272 990
f 987 989 985
f 988 990 989
f 990 1272 1276
f 766 858 1019
f 858 1020 1019
f 858 859 1020
f 768 1019 1022
f 1019 1020 1024
f 859 1021 1020
f 1020 1021 1025
f 1019 1024 1022
f 770 1022 1023
f 1022 1024 1027
f 1022 1027 1023
f 1023 1027 1029
f 1020 1025 1024
f 1024 1025 1026
f 1021 1031 1025
f 1025 1031 1032
f 1025 1032 1026
f 1024 1026 1027
f 772 1023 1028
f 1023 1029 1028
f 773 1028 1362
f 1028 1029 1364
f 1028 1364 1362
f 1032 1033 1026
f 1026 1033 1030
f 1030 1033 1374
f 1027 1030 1029
f 1027 1026 1030
f 1029 1030 1365
f 1029 1365 1364
f 1030 1374 1365
f 1031 879 1032
f 1032 1034 1033
f 1032 879 1034
f 1033 1375 1374
f 1033 1034 1375
f 760 761 1076
f 761 762 1076
f 1076 1096 1097
f 1097 1069 1077
f 1076 1097 1077
f 1069 1070 1077
f 1069 1099 1112
f 1077 1070 1091
f 1069 1071 1070
f 1069 1072 1071
f 1069 1112 1072
f 1091 1070 1163
f 1071 1163 1070
f 1072 1112 1164
f 1072 1164 1071
f 392 1074 1073
f 392 1076 1074
f 393 1073 1080
f 1073 1074 1082
f 1074 1076 1088
f 1073 1081 1080
f 1073 1082 1081
f 1080 1081 1305
f 1081 1082 1306
f 1074 1083 1082
f 1074 1084 1083
f 1074 1088 1084
f 1082 1083 1306
f 1083 1084 1311
f 1084 1088 1311
f 1076 1077 1090
f 1076 1089 1088
f 1076 1090 1089
f 1077 1091 1090
f 1089 1328 1088
f 1089 1090 1329
f 1090 1091 1329
f 762 1096 1076
f 1097 1098 1099
f 1097 1099 1069
f 1096 1105 1097
f 1097 1107 1098
f 1096 1103 1104
f 1096 1104 1105
f 1097 1105 1106
f 1103 1362 1104
f 1104 1363 1105
f 1105 1363 1106
f 1097 1106 1107
f 1098 1107 1108
f 1098 1108 1109
f 1107 1106 1368
f 1107 1369 1108
f 1108 1369 1109
f 1098 1110 1099
f 1098 1109 1110
f 1110 1111 1099
f 1099 1111 1112
f 1109 1380 1110
f 1112 1111 1160
f 1110 1380 1111
f 656 1131 1253
f 1133 1256 1253
f 1140 1257 1256
f 1132 1316 1318
f 1134 1318 1137
f 541 1132 1131
f 1131 1133 1253
f 542 1316 1132
f 1131 1132 1134
f 1133 1134 1141
f 1133 1140 1256
f 1131 1134 1133
f 1133 1141 1140
f 1132 1318 1134
f 1257 1135 1258
f 1140 1135 1257
f 1259 1258 1136
f 1258 1135 1136
f 1259 1171 1260
f 1135 1143 1136
f 1259 1136 1171
f 1141 1137 1139
f 1174 1139 1138
f 1138 1139 1137
f 1139 1173 1142
f 1140 1141 1142
f 1140 1142 1135
f 1134 1137 1141
f 1141 1139 1142
f 1135 1142 1143
f 1142 1173 1143
f 1146 1276 1277
f 1147 1277 1278
f 1148 1278 1283
f 1282 1281 1144
f 1280 1156 1283
f 1156 1148 1283
f 1280 1145 1156
f 1144 1180 1157
f 1280 1282 1145
f 1282 1144 1145
f 1145 1144 1157
f 1150 1377 1375
f 1151 1152 1377
f 1146 1277 1147
f 1146 1147 1149
f 1150 1148 1151
f 1147 1278 1148
f 1147 1148 1150
f 1156 1151 1148
f 1147 1150 1149
f 1149 1150 1375
f 1150 1151 1377
f 1155 1154 1152
f 1379 1153 1178
f 1157 1153 1154
f 1379 1154 1153
f 1156 1155 1151
f 1156 1145 1155
f 1145 1157 1155
f 1180 1153 1157
f 1151 1155 1152
f 1157 1154 1155
f 1091 1163 1329
f 1166 1331 1163
f 1174 1138 1158
f 1166 1158 1331
f 1166 1159 1158
f 1174 1158 1159
f 1174 1159 1175
f 1181 1165 1162
f 1382 1178 1179
f 1165 1161 1162
f 1381 1162 1161
f 1181 1162 1179
f 1382 1179 1162
f 1166 1164 1167
f 1071 1164 1163
f 1166 1163 1164
f 1112 1160 1164
f 1164 1160 1167
f 1167 1160 1161
f 1167 1165 1159
f 1175 1165 1181
f 1159 1165 1175
f 1166 1167 1159
f 1167 1161 1165
f 1170 1176 1168
f 1177 1172 1168
f 1181 1168 1176
f 1169 1281 1260
f 1169 1260 1171
f 1169 1144 1281
f 1169 1171 1172
f 1136 1143 1170
f 1171 1170 1172
f 1136 1170 1171
f 1169 1172 1180
f 1169 1180 1144
f 1170 1168 1172
f 1173 1176 1143
f 1174 1175 1173
f 1174 1173 1139
f 1175 1181 1176
f 1173 1175 1176
f 1170 1143 1176
f 1180 1177 1153
f 1181 1179 1168
f 1177 1168 1179
f 1178 1177 1179
f 1178 1153 1177
f 1180 1172 1177
f 604 1185 1186
f 604 1186 1187
f 604 1188 1189
f 604 1189 1184
f 604 1187 1188
f 604 1194 1192
f 604 1182 1194
f 604 1191 1190
f 604 1193 1191
f 604 1192 1193
f 604 1184 1183
f 604 1183 1182
f 609 1198 1185
f 1185 1199 1186
f 1185 1198 1199
f 1186 1200 1187
f 1186 1199 1200
f 1187 1203 1188
f 1188 1204 1189
f 1189 1197 1184
f 1187 1200 1203
f 1188 1203 1204
f 1194 1210 1192
f 1194 1182 1212
f 1183 1195 1182
f 1190 1191 1208
f 1193 1209 1191
f 1193 1192 1211
f 1191 1209 1208
f 1193 1211 1209
f 1192 1210 1211
f 1194 1212 1210
f 1183 1184 1196
f 1184 1197 1196
f 1189 1204 1197
f 1182 1195 1212
f 1183 1196 1195
f 1197 1219 1196
f 617 1201 1198
f 1198 1202 1199
f 1199 1206 1200
f 1198 1201 1202
f 619 1251 1201
f 1199 1202 1206
f 1201 1252 1202
f 1203 1205 1204
f 1200 1207 1203
f 1200 1206 1207
f 1203 1207 1205
f 1197 1204 1218
f 1204 1205 1218
f 1206 1254 1255
f 1207 1255 1221
f 1202 1254 1206
f 1207 1221 1205
f 1206 1255 1207
f 1208 1209 1215
f 1209 1211 1213
f 1211 1210 1214
f 1212 1195 1217
f 1196 1220 1195
f 1212 1216 1210
f 1210 1216 1214
f 1212 1217 1216
f 1195 1220 1217
f 1209 1213 1215
f 1211 1214 1213
f 1215 1213 1272
f 1213 1214 1273
f 1217 1279 1275
f 1214 1216 1274
f 1217 1275 1216
f 1197 1218 1219
f 1196 1219 1220
f 1218 1224 1219
f 1205 1221 1222
f 1218 1222 1224
f 1205 1222 1218
f 1219 1224 1223
f 1220 1223 1279
f 1219 1223 1220
f 1217 1220 1279
f 1221 1260 1222
f 1222 1281 1224
f 1224 1282 1223
f 1222 1260 1281
f 1201 1251 1252
f 655 1253 1251
f 1202 1252 1254
f 1251 1256 1252
f 1251 1253 1256
f 1252 1257 1254
f 1254 1257 1258
f 1254 1258 1255
f 1252 1256 1257
f 1255 1259 1221
f 1255 1258 1259
f 1221 1259 1260
f 1213 1273 1272
f 1214 1274 1273
f 1272 1273 1276
f 1273 1274 1277
f 1216 1275 1274
f 1274 1275 1278
f 1275 1283 1278
f 1273 1277 1276
f 1274 1278 1277
f 1280 1223 1282
f 1279 1223 1280
f 1279 1280 1283
f 1275 1279 1283
f 1224 1281 1282
f 686 1080 1305
f 689 1305 1307
f 1081 1306 1305
f 1305 1306 1307
f 1307 1306 1309
f 694 1308 1315
f 690 1307 1308
f 1307 1309 1308
f 1308 1310 1315
f 1315 1310 1317
f 1309 1310 1308
f 1083 1311 1306
f 1306 1311 1309
f 1309 1311 1313
f 1313 1328 1330
f 1088 1328 1311
f 1311 1328 1313
f 1317 1310 1312
f 1317 1312 1319
f 1309 1313 1310
f 1310 1313 1312
f 1313 1330 1312
f 1330 1314 1312
f 1319 1314 1138
f 1319 1312 1314
f 1315 1317 1316
f 695 1315 1316
f 1317 1319 1318
f 1317 1318 1316
f 1319 1138 1137
f 1319 1137 1318
f 1089 1329 1328
f 1330 1329 1331
f 1328 1329 1330
f 1329 1163 1331
f 1330 1331 1314
f 1314 1331 1158
f 1314 1158 1138
f 1104 1362 1363
f 1362 1364 1366
f 1362 1366 1363
f 1106 1363 1368
f 1366 1373 1363
f 1365 1374 1376
f 1378 1367 1376
f 1378 1370 1367
f 1364 1365 1367
f 1364 1367 1366
f 1365 1376 1367
f 1366 1370 1373
f 1366 1367 1370
f 1381 1369 1371
f 1107 1368 1369
f 1368 1373 1371
f 1363 1373 1368
f 1368 1371 1369
f 1373 1370 1372
f 1378 1379 1370
f 1370 1379 1372
f 1373 1372 1371
f 1371 1372 1382
f 1372 1379 1178
f 1374 1377 1376
f 1374 1375 1377
f 1378 1376 1152
f 1376 1377 1152
f 1378 1154 1379
f 1378 1152 1154
f 1109 1369 1380
f 1380 1369 1381
f 1111 1380 1160
f 1380 1161 1160
f 1380 1381 1161
f 1381 1382 1162
f 1381 1371 1382
f 1372 1178 1382
