# mf_tip_core.obj  (721 v, 1438 f)  units: metres
v -0.005816826 -0.004643263 0.129570007
v -0.004895064 -0.005607351 0.129570007
v -0.003815971 -0.006391358 0.129570007
v -0.006019087 -0.004377622 0.136390001
v -0.005806438 -0.004634670 0.136390001
v -0.004888297 -0.005600144 0.136390001
v -0.004742434 -0.005737118 0.136390001
v -0.003986551 -0.006286299 0.136390001
v -0.003811208 -0.006382695 0.136390001
v -0.005423526 -0.005097529 0.136390001
v -0.006551631 -0.003530082 0.129570007
v -0.007075861 -0.002303586 0.129570007
v -0.007372666 -0.001003195 0.129570007
v -0.006519722 -0.003588747 0.136390001
v -0.006548107 -0.003528424 0.136390001
v -0.007061898 -0.002299049 0.136390001
v -0.006917537 -0.002743346 0.136390001
v -0.007206259 -0.001854752 0.136390001
v -0.007368841 -0.001002465 0.136390001
v -0.007381334 -0.000936978 0.136390001
v -0.002614229 -0.006970086 0.129570007
v -0.001328463 -0.007324935 0.129570007
v -0.000000000 -0.007444499 0.129570007
v -0.003167798 -0.006736413 0.136390001
v -0.002609266 -0.006957551 0.136390001
v -0.002299086 -0.007080360 0.136390001
v -0.001394117 -0.007312716 0.136390001
v -0.001327975 -0.007321072 0.136390001
v -0.000467161 -0.007429818 0.136390001
v -0.000000000 -0.007444499 0.136390001
v -0.005975200 -0.004345736 0.137286797
v -0.005844183 -0.004250546 0.138170511
v -0.005627944 -0.004093439 0.139028266
v -0.004707857 -0.005695320 0.137286797
v -0.003957485 -0.006240498 0.137286797
v -0.003870710 -0.006103761 0.138170511
v -0.003727490 -0.005878084 0.139028266
v -0.005383983 -0.005060396 0.137286797
v -0.005265929 -0.004949536 0.138170511
v -0.004604628 -0.005570538 0.138170511
v -0.005071085 -0.004766565 0.139028266
v -0.005329636 -0.003876707 0.139847547
v -0.004802295 -0.004514154 0.139847547
v -0.004434253 -0.005364591 0.139028266
v -0.004199217 -0.005080481 0.139847547
v -0.003902947 -0.004722352 0.140616402
v -0.004463475 -0.004195981 0.140616402
v -0.004059568 -0.003816687 0.141323626
v -0.006867100 -0.002723376 0.137286797
v -0.006716526 -0.002663760 0.138170511
v -0.006472186 -0.003562613 0.137286797
v -0.006330270 -0.003484595 0.138170511
v -0.006096046 -0.003355829 0.139028266
v -0.005772927 -0.003178193 0.139847547
v -0.006468009 -0.002565365 0.139028266
v -0.006125175 -0.002429627 0.139847547
v -0.007153717 -0.001841262 0.137286797
v -0.006996858 -0.001800987 0.138170511
v -0.007327515 -0.000930180 0.137286797
v -0.007166845 -0.000909882 0.138170511
v -0.006737969 -0.001734516 0.139028266
v -0.006901667 -0.000876382 0.139028266
v -0.006535846 -0.000830169 0.139847547
v -0.006380825 -0.001642817 0.139847547
v -0.005693022 -0.002258526 0.140616402
v -0.005930635 -0.001527227 0.140616402
v -0.006074718 -0.000771914 0.140616402
v -0.005365625 -0.002954277 0.140616402
v -0.004953611 -0.003603508 0.140616402
v -0.005177851 -0.002054555 0.141323626
v -0.004880082 -0.002687347 0.141323626
v -0.004505351 -0.003277828 0.141323626
v -0.003991392 -0.002904416 0.141958922
v -0.004323375 -0.002381295 0.141958922
v -0.005393962 -0.001389433 0.141323626
v -0.004778633 -0.001231444 0.141958922
v -0.005525007 -0.000702470 0.141323626
v -0.004894729 -0.000622847 0.141958922
v -0.004587175 -0.001820690 0.141958922
v -0.003929609 -0.001560341 0.142512992
v -0.004093622 -0.001055563 0.142512992
v -0.004193075 -0.000534208 0.142512992
v -0.003144701 -0.006687329 0.137286797
v -0.003075748 -0.006540795 0.138170511
v -0.002282324 -0.007028768 0.137286797
v -0.002232279 -0.006874748 0.138170511
v -0.002961942 -0.006298948 0.139028266
v -0.002804946 -0.005965312 0.139847547
v -0.002149683 -0.006620544 0.139028266
v -0.002035740 -0.006269862 0.139847547
v -0.003529916 -0.005566757 0.139847547
v -0.001383952 -0.007259431 0.137286797
v -0.001353606 -0.007100353 0.138170511
v -0.000463755 -0.007375679 0.137286797
v -0.000453587 -0.007214052 0.138170511
v -0.001303522 -0.006837801 0.139028266
v -0.001234429 -0.006475604 0.139847547
v -0.000436804 -0.006947292 0.139028266
v -0.000413651 -0.006579292 0.139847547
v -0.001892111 -0.005827818 0.140616402
v -0.003280868 -0.005174319 0.140616402
v -0.002983977 -0.004706494 0.141323626
v -0.003549763 -0.004295426 0.141323626
v -0.003144816 -0.003805928 0.141958922
v -0.002607047 -0.005544755 0.140616402
v -0.002371131 -0.005043408 0.141323626
v -0.002643573 -0.004170103 0.141958922
v -0.002100639 -0.004468584 0.141958922
v -0.001147336 -0.006019044 0.140616402
v -0.000384466 -0.006115417 0.140616402
v -0.001720891 -0.005300857 0.141323626
v -0.001524576 -0.004696663 0.141958922
v -0.001043512 -0.005474778 0.141323626
v -0.000924471 -0.004850744 0.141958922
v -0.000349675 -0.005562430 0.141323626
v -0.000309785 -0.004928396 0.141958922
v -0.001799514 -0.003828662 0.142512992
v -0.001306030 -0.004024046 0.142512992
v -0.000791949 -0.004156040 0.142512992
v -0.000265378 -0.004222561 0.142512992
v -0.003596463 -0.003381803 0.141958922
v -0.003080914 -0.002897670 0.142512992
v -0.003419231 -0.002488716 0.142512992
v -0.003703624 -0.002040584 0.142512992
v -0.002797209 -0.002036790 0.142977804
v -0.002694010 -0.003260998 0.142512992
v -0.002264619 -0.003572968 0.142512992
v -0.002520439 -0.002371348 0.142977804
v -0.002203919 -0.002668580 0.142977804
v -0.003029866 -0.001670182 0.142977804
v -0.003214740 -0.001277305 0.142977804
v -0.003348915 -0.000864354 0.142977804
v -0.003430277 -0.000437844 0.142977804
v -0.002452992 -0.000975708 0.143346518
v -0.002134397 -0.001555230 0.143346518
v -0.001923209 -0.001810513 0.143346518
v -0.002311925 -0.001275491 0.143346518
v -0.002555375 -0.000660608 0.143346518
v -0.002617457 -0.000335161 0.143346518
v -0.001852643 -0.002923797 0.142977804
v -0.001472149 -0.003132975 0.142977804
v -0.001068439 -0.003292815 0.142977804
v -0.001681690 -0.002037314 0.143346518
v -0.001413651 -0.002232056 0.143346518
v -0.001123317 -0.002391669 0.143346518
v -0.000647878 -0.003400797 0.142977804
v -0.000217101 -0.003455217 0.142977804
v -0.000815267 -0.002513634 0.143346518
v -0.000494361 -0.002596029 0.143346518
v -0.000165658 -0.002637553 0.143346518
v -0.001440462 -0.001051056 0.143613815
v -0.000954044 -0.001507832 0.143613815
v -0.001297935 -0.001223341 0.143613815
v -0.001134939 -0.001376405 0.143613815
v -0.001655475 -0.000659948 0.143613815
v -0.001560272 -0.000862266 0.143613815
v -0.001724571 -0.000447294 0.143613815
v -0.001766469 -0.000227656 0.143613815
v -0.000758104 -0.001615552 0.143613815
v -0.000550207 -0.001697863 0.143613815
v -0.000333634 -0.001753470 0.143613815
v -0.000111799 -0.001781494 0.143613815
v -0.000725521 -0.000531621 0.143775761
v -0.000480526 -0.000761686 0.143775761
v -0.000653734 -0.000618396 0.143775761
v -0.000571637 -0.000695490 0.143775761
v -0.000833817 -0.000334631 0.143775761
v -0.000785866 -0.000436532 0.143775761
v -0.000868619 -0.000227522 0.143775761
v -0.000889721 -0.000116897 0.143775761
v -0.000381836 -0.000815942 0.143775761
v -0.000277124 -0.000857400 0.143775761
v -0.000168042 -0.000885407 0.143775761
v -0.000056310 -0.000899522 0.143775761
v -0.007432509 0.000329295 0.129570007
v -0.007253463 0.001651057 0.129570007
v -0.006841287 0.002919607 0.129570007
v -0.007440000 -0.000004499 0.136390001
v -0.007419053 0.000328449 0.136390001
v -0.007381334 0.000927980 0.136390001
v -0.007243752 0.001649204 0.136390001
v -0.007206259 0.001845754 0.136390001
v -0.006917537 0.002734347 0.136390001
v -0.006832341 0.002915398 0.136390001
v -0.006519722 0.003579748 0.136390001
v -0.006209225 0.004094174 0.129570007
v -0.005377594 0.005137007 0.129570007
v -0.004373122 0.006014587 0.129570007
v -0.006197841 0.004086950 0.136390001
v -0.006019087 0.004368623 0.136390001
v -0.005423526 0.005088531 0.136390001
v -0.005374928 0.005134168 0.136390001
v -0.004742434 0.005728120 0.136390001
v -0.004364493 0.006002710 0.136390001
v -0.003986551 0.006277300 0.136390001
v -0.003228095 0.006698709 0.129570007
v -0.001979314 0.007167384 0.129570007
v -0.000666916 0.007405550 0.129570007
v -0.003226219 0.006695297 0.136390001
v -0.003167798 0.006727414 0.136390001
v -0.002299086 0.007071361 0.136390001
v -0.001975961 0.007154325 0.136390001
v -0.001394117 0.007303718 0.136390001
v -0.000665677 0.007395742 0.136390001
v -0.000467161 0.007420819 0.136390001
v -0.007385754 -0.000004499 0.137286797
v -0.007223807 -0.000004499 0.138170511
v -0.007166845 0.000900884 0.138170511
v -0.007327515 0.000921181 0.137286797
v -0.007153717 0.001832263 0.137286797
v -0.006996858 0.001791988 0.138170511
v -0.006956521 -0.000004499 0.139028266
v -0.006901667 0.000867384 0.139028266
v -0.006587793 -0.000004499 0.139847547
v -0.006535846 0.000821170 0.139847547
v -0.006737969 0.001725517 0.139028266
v -0.006380825 0.001633818 0.139847547
v -0.006867100 0.002714378 0.137286797
v -0.006716526 0.002654762 0.138170511
v -0.006472186 0.003553615 0.137286797
v -0.006330270 0.003475596 0.138170511
v -0.006468009 0.002556367 0.139028266
v -0.006125175 0.002420629 0.139847547
v -0.006096046 0.003346830 0.139028266
v -0.005772927 0.003169194 0.139847547
v -0.006123000 -0.000004499 0.140616402
v -0.006074718 0.000762916 0.140616402
v -0.005930635 0.001518229 0.140616402
v -0.005693022 0.002249527 0.140616402
v -0.005568920 -0.000004499 0.141323626
v -0.005525007 0.000693472 0.141323626
v -0.004933632 -0.000004499 0.141958922
v -0.004894729 0.000613849 0.141958922
v -0.005393962 0.001380435 0.141323626
v -0.004778633 0.001222445 0.141958922
v -0.004587175 0.001811692 0.141958922
v -0.004226402 -0.000004499 0.142512992
v -0.004193075 0.000525209 0.142512992
v -0.004093622 0.001046564 0.142512992
v -0.003929609 0.001551343 0.142512992
v -0.005177851 0.002045557 0.141323626
v -0.004880082 0.002678349 0.141323626
v -0.005365625 0.002945279 0.140616402
v -0.004953611 0.003594510 0.140616402
v -0.004323375 0.002372297 0.141958922
v -0.004505351 0.003268830 0.141323626
v -0.003991392 0.002895417 0.141958922
v -0.005975200 0.004336738 0.137286797
v -0.005844183 0.004241548 0.138170511
v -0.005627944 0.004084441 0.139028266
v -0.005383983 0.005051397 0.137286797
v -0.005265929 0.004940537 0.138170511
v -0.004604628 0.005561540 0.138170511
v -0.005329636 0.003867708 0.139847547
v -0.004802295 0.004505155 0.139847547
v -0.005071085 0.004757567 0.139028266
v -0.004434253 0.005355592 0.139028266
v -0.004199217 0.005071482 0.139847547
v -0.004707857 0.005686322 0.137286797
v -0.003957485 0.006231499 0.137286797
v -0.003870710 0.006094763 0.138170511
v -0.003727490 0.005869086 0.139028266
v -0.004463475 0.004186983 0.140616402
v -0.004059568 0.003807689 0.141323626
v -0.003902947 0.004713353 0.140616402
v -0.003457540 -0.000004499 0.142977804
v -0.003430277 0.000428846 0.142977804
v -0.003348915 0.000855356 0.142977804
v -0.003214740 0.001268306 0.142977804
v -0.003029866 0.001661184 0.142977804
v -0.002638260 -0.000004499 0.143346518
v -0.002617457 0.000326163 0.143346518
v -0.002555375 0.000651610 0.143346518
v -0.002452992 0.000966709 0.143346518
v -0.002311925 0.001266492 0.143346518
v -0.002134397 0.001546231 0.143346518
v -0.001923209 0.001801514 0.143346518
v -0.003596463 0.003372805 0.141958922
v -0.003703624 0.002031585 0.142512992
v -0.003419231 0.002479718 0.142512992
v -0.002797209 0.002027792 0.142977804
v -0.003080914 0.002888672 0.142512992
v -0.002520439 0.002362350 0.142977804
v -0.002203919 0.002659582 0.142977804
v -0.002694010 0.003251999 0.142512992
v -0.002264619 0.003563970 0.142512992
v -0.001780508 -0.000004499 0.143613815
v -0.001766469 0.000218658 0.143613815
v -0.001724571 0.000438295 0.143613815
v -0.001655475 0.000650950 0.143613815
v -0.001560272 0.000853267 0.143613815
v -0.001440462 0.001042058 0.143613815
v -0.001297935 0.001214343 0.143613815
v -0.001134939 0.001367406 0.143613815
v -0.000954044 0.001498834 0.143613815
v -0.000896793 -0.000004499 0.143775761
v -0.000889721 0.000107899 0.143775761
v -0.000868619 0.000218524 0.143775761
v -0.000833817 0.000325632 0.143775761
v -0.000785866 0.000427534 0.143775761
v -0.000725521 0.000522622 0.143775761
v -0.000653734 0.000609398 0.143775761
v -0.000571637 0.000686492 0.143775761
v -0.000480526 0.000752688 0.143775761
v -0.000000000 -0.000004499 0.143830001
v -0.000381836 0.000806943 0.143775761
v -0.000277124 0.000848402 0.143775761
v -0.000168042 0.000876409 0.143775761
v -0.000056310 0.000890524 0.143775761
v -0.000758104 0.001606553 0.143613815
v -0.000550207 0.001688865 0.143613815
v -0.000333634 0.001744472 0.143613815
v -0.000111799 0.001772496 0.143613815
v -0.001681690 0.002028315 0.143346518
v -0.001413651 0.002223058 0.143346518
v -0.001123317 0.002382670 0.143346518
v -0.001852643 0.002914799 0.142977804
v -0.001472149 0.003123977 0.142977804
v -0.001068439 0.003283817 0.142977804
v -0.000815267 0.002504636 0.143346518
v -0.000494361 0.002587030 0.143346518
v -0.000165658 0.002628555 0.143346518
v -0.000647878 0.003391799 0.142977804
v -0.000217101 0.003446219 0.142977804
v -0.003529916 0.005557758 0.139847547
v -0.003144701 0.006678331 0.137286797
v -0.003075748 0.006531797 0.138170511
v -0.002282324 0.007019770 0.137286797
v -0.002232279 0.006865750 0.138170511
v -0.002961942 0.006289949 0.139028266
v -0.002804946 0.005956315 0.139847547
v -0.002035740 0.006260864 0.139847547
v -0.002149683 0.006611545 0.139028266
v -0.001383952 0.007250432 0.137286797
v -0.001353606 0.007091355 0.138170511
v -0.000463755 0.007366681 0.137286797
v -0.000453587 0.007205053 0.138170511
v -0.001234429 0.006466606 0.139847547
v -0.001303522 0.006828803 0.139028266
v -0.000436804 0.006938295 0.139028266
v -0.000413651 0.006570294 0.139847547
v -0.003549763 0.004286428 0.141323626
v -0.003144816 0.003796930 0.141958922
v -0.003280868 0.005165320 0.140616402
v -0.002983977 0.004697496 0.141323626
v -0.002643573 0.004161105 0.141958922
v -0.002100639 0.004459585 0.141958922
v -0.002607047 0.005535757 0.140616402
v -0.002371131 0.005034410 0.141323626
v -0.001892111 0.005818820 0.140616402
v -0.001524576 0.004687664 0.141958922
v -0.001720891 0.005291859 0.141323626
v -0.001043512 0.005465780 0.141323626
v -0.000924471 0.004841745 0.141958922
v -0.000309785 0.004919398 0.141958922
v -0.000349675 0.005553432 0.141323626
v -0.001799514 0.003819663 0.142512992
v -0.001306030 0.004015048 0.142512992
v -0.000791949 0.004147042 0.142512992
v -0.000265378 0.004213563 0.142512992
v -0.001147336 0.006010045 0.140616402
v -0.000384466 0.006106419 0.140616402
v 0.001328463 -0.007324935 0.129570007
v 0.002614229 -0.006970086 0.129570007
v 0.000467161 -0.007429818 0.136390001
v 0.001327975 -0.007321072 0.136390001
v 0.001394117 -0.007312716 0.136390001
v 0.002299086 -0.007080360 0.136390001
v 0.002609266 -0.006957551 0.136390001
v 0.003167798 -0.006736413 0.136390001
v 0.003815971 -0.006391358 0.129570007
v 0.004895064 -0.005607351 0.129570007
v 0.005816826 -0.004643263 0.129570007
v 0.003811208 -0.006382695 0.136390001
v 0.003986551 -0.006286299 0.136390001
v 0.004742434 -0.005737118 0.136390001
v 0.004888297 -0.005600144 0.136390001
v 0.005423526 -0.005097529 0.136390001
v 0.005806438 -0.004634670 0.136390001
v 0.006019087 -0.004377622 0.136390001
v 0.006551631 -0.003530082 0.129570007
v 0.007075861 -0.002303586 0.129570007
v 0.007372666 -0.001003195 0.129570007
v 0.006519722 -0.003588747 0.136390001
v 0.006548107 -0.003528424 0.136390001
v 0.006917537 -0.002743346 0.136390001
v 0.007061898 -0.002299049 0.136390001
v 0.007206259 -0.001854752 0.136390001
v 0.007368841 -0.001002465 0.136390001
v 0.007381334 -0.000936978 0.136390001
v 0.000463755 -0.007375679 0.137286797
v 0.000453587 -0.007214052 0.138170511
v 0.001383952 -0.007259431 0.137286797
v 0.001353606 -0.007100353 0.138170511
v 0.000436804 -0.006947292 0.139028266
v 0.000413651 -0.006579292 0.139847547
v 0.001303522 -0.006837801 0.139028266
v 0.001234429 -0.006475604 0.139847547
v 0.002282324 -0.007028768 0.137286797
v 0.002232279 -0.006874748 0.138170511
v 0.003144701 -0.006687329 0.137286797
v 0.003075748 -0.006540795 0.138170511
v 0.002149683 -0.006620544 0.139028266
v 0.002035740 -0.006269862 0.139847547
v 0.002961942 -0.006298948 0.139028266
v 0.002804946 -0.005965312 0.139847547
v 0.003529916 -0.005566757 0.139847547
v 0.000384466 -0.006115417 0.140616402
v 0.001147336 -0.006019044 0.140616402
v 0.000349675 -0.005562430 0.141323626
v 0.000309785 -0.004928396 0.141958922
v 0.000924471 -0.004850744 0.141958922
v 0.001043512 -0.005474778 0.141323626
v 0.001720891 -0.005300857 0.141323626
v 0.001524576 -0.004696663 0.141958922
v 0.000265378 -0.004222561 0.142512992
v 0.000791949 -0.004156040 0.142512992
v 0.001306030 -0.004024046 0.142512992
v 0.001799514 -0.003828662 0.142512992
v 0.001892111 -0.005827818 0.140616402
v 0.002607047 -0.005544755 0.140616402
v 0.002371131 -0.005043408 0.141323626
v 0.002100639 -0.004468584 0.141958922
v 0.002643573 -0.004170103 0.141958922
v 0.003280868 -0.005174319 0.140616402
v 0.002983977 -0.004706494 0.141323626
v 0.003144816 -0.003805928 0.141958922
v 0.003549763 -0.004295426 0.141323626
v 0.000217101 -0.003455217 0.142977804
v 0.000647878 -0.003400797 0.142977804
v 0.000165658 -0.002637553 0.143346518
v 0.000494361 -0.002596029 0.143346518
v 0.000815267 -0.002513634 0.143346518
v 0.001068439 -0.003292815 0.142977804
v 0.001472149 -0.003132975 0.142977804
v 0.001852643 -0.002923797 0.142977804
v 0.001123317 -0.002391669 0.143346518
v 0.001413651 -0.002232056 0.143346518
v 0.001681690 -0.002037314 0.143346518
v 0.000111799 -0.001781494 0.143613815
v 0.000333634 -0.001753470 0.143613815
v 0.000550207 -0.001697863 0.143613815
v 0.000758104 -0.001615552 0.143613815
v 0.000056310 -0.000899522 0.143775761
v 0.000168042 -0.000885407 0.143775761
v 0.000277124 -0.000857400 0.143775761
v 0.000381836 -0.000815942 0.143775761
v 0.000480526 -0.000761686 0.143775761
v 0.000571637 -0.000695490 0.143775761
v 0.000653734 -0.000618396 0.143775761
v 0.000725521 -0.000531621 0.143775761
v 0.000785866 -0.000436532 0.143775761
v 0.000833817 -0.000334631 0.143775761
v 0.000868619 -0.000227522 0.143775761
v 0.000889721 -0.000116897 0.143775761
v 0.000954044 -0.001507832 0.143613815
v 0.001134939 -0.001376405 0.143613815
v 0.001297935 -0.001223341 0.143613815
v 0.001440462 -0.001051056 0.143613815
v 0.001560272 -0.000862266 0.143613815
v 0.001655475 -0.000659948 0.143613815
v 0.001724571 -0.000447294 0.143613815
v 0.001766469 -0.000227656 0.143613815
v 0.003596463 -0.003381803 0.141958922
v 0.002264619 -0.003572968 0.142512992
v 0.002694010 -0.003260998 0.142512992
v 0.002203919 -0.002668580 0.142977804
v 0.002520439 -0.002371348 0.142977804
v 0.003080914 -0.002897670 0.142512992
v 0.003419231 -0.002488716 0.142512992
v 0.003703624 -0.002040584 0.142512992
v 0.002797209 -0.002036790 0.142977804
v 0.001923209 -0.001810513 0.143346518
v 0.002134397 -0.001555230 0.143346518
v 0.002311925 -0.001275491 0.143346518
v 0.002452992 -0.000975708 0.143346518
v 0.002555375 -0.000660608 0.143346518
v 0.002617457 -0.000335161 0.143346518
v 0.003029866 -0.001670182 0.142977804
v 0.003214740 -0.001277305 0.142977804
v 0.003348915 -0.000864354 0.142977804
v 0.003430277 -0.000437844 0.142977804
v 0.003957485 -0.006240498 0.137286797
v 0.003870710 -0.006103761 0.138170511
v 0.004707857 -0.005695320 0.137286797
v 0.003727490 -0.005878084 0.139028266
v 0.004604628 -0.005570538 0.138170511
v 0.005383983 -0.005060396 0.137286797
v 0.005265929 -0.004949536 0.138170511
v 0.004434253 -0.005364591 0.139028266
v 0.004199217 -0.005080481 0.139847547
v 0.005071085 -0.004766565 0.139028266
v 0.004802295 -0.004514154 0.139847547
v 0.005329636 -0.003876707 0.139847547
v 0.005975200 -0.004345736 0.137286797
v 0.005844183 -0.004250546 0.138170511
v 0.005627944 -0.004093439 0.139028266
v 0.003902947 -0.004722352 0.140616402
v 0.004463475 -0.004195981 0.140616402
v 0.004059568 -0.003816687 0.141323626
v 0.006472186 -0.003562613 0.137286797
v 0.006330270 -0.003484595 0.138170511
v 0.006867100 -0.002723376 0.137286797
v 0.006716526 -0.002663760 0.138170511
v 0.006096046 -0.003355829 0.139028266
v 0.005772927 -0.003178193 0.139847547
v 0.006468009 -0.002565365 0.139028266
v 0.006125175 -0.002429627 0.139847547
v 0.007153717 -0.001841262 0.137286797
v 0.006996858 -0.001800987 0.138170511
v 0.007327515 -0.000930180 0.137286797
v 0.007166845 -0.000909882 0.138170511
v 0.006380825 -0.001642817 0.139847547
v 0.006737969 -0.001734516 0.139028266
v 0.006901667 -0.000876382 0.139028266
v 0.006535846 -0.000830169 0.139847547
v 0.003991392 -0.002904416 0.141958922
v 0.004505351 -0.003277828 0.141323626
v 0.004323375 -0.002381295 0.141958922
v 0.004953611 -0.003603508 0.140616402
v 0.005365625 -0.002954277 0.140616402
v 0.004880082 -0.002687347 0.141323626
v 0.005177851 -0.002054555 0.141323626
v 0.004587175 -0.001820690 0.141958922
v 0.004778633 -0.001231444 0.141958922
v 0.005393962 -0.001389433 0.141323626
v 0.004894729 -0.000622847 0.141958922
v 0.005525007 -0.000702470 0.141323626
v 0.003929609 -0.001560341 0.142512992
v 0.004093622 -0.001055563 0.142512992
v 0.004193075 -0.000534208 0.142512992
v 0.005693022 -0.002258526 0.140616402
v 0.005930635 -0.001527227 0.140616402
v 0.006074718 -0.000771914 0.140616402
v 0.000666916 0.007405550 0.129570007
v 0.001979314 0.007167384 0.129570007
v 0.003228095 0.006698709 0.129570007
v 0.000467161 0.007420819 0.136390001
v 0.000665677 0.007395742 0.136390001
v 0.001394117 0.007303718 0.136390001
v 0.001975961 0.007154325 0.136390001
v 0.002299086 0.007071361 0.136390001
v 0.003226219 0.006695297 0.136390001
v 0.003167798 0.006727414 0.136390001
v 0.007432509 0.000329295 0.129570007
v 0.007253463 0.001651057 0.129570007
v 0.006841287 0.002919607 0.129570007
v 0.007440000 -0.000004499 0.136390001
v 0.007419053 0.000328449 0.136390001
v 0.007381334 0.000927980 0.136390001
v 0.007206259 0.001845754 0.136390001
v 0.007243752 0.001649204 0.136390001
v 0.006917537 0.002734347 0.136390001
v 0.006832341 0.002915398 0.136390001
v 0.006519722 0.003579748 0.136390001
v 0.005377594 0.005137007 0.129570007
v 0.004373122 0.006014587 0.129570007
v 0.006209225 0.004094174 0.129570007
v 0.005423526 0.005088531 0.136390001
v 0.005374928 0.005134168 0.136390001
v 0.003986551 0.006277300 0.136390001
v 0.004364493 0.006002710 0.136390001
v 0.004742434 0.005728120 0.136390001
v 0.006019087 0.004368623 0.136390001
v 0.006197841 0.004086950 0.136390001
v 0.000056310 0.000890524 0.143775761
v 0.000168042 0.000876409 0.143775761
v 0.000277124 0.000848402 0.143775761
v 0.000381836 0.000806943 0.143775761
v 0.000896793 -0.000004499 0.143775761
v 0.000868619 0.000218524 0.143775761
v 0.000889721 0.000107899 0.143775761
v 0.000785866 0.000427534 0.143775761
v 0.000833817 0.000325632 0.143775761
v 0.000653734 0.000609398 0.143775761
v 0.000480526 0.000752688 0.143775761
v 0.000571637 0.000686492 0.143775761
v 0.000725521 0.000522622 0.143775761
v 0.000111799 0.001772496 0.143613815
v 0.000333634 0.001744472 0.143613815
v 0.000550207 0.001688865 0.143613815
v 0.000758104 0.001606553 0.143613815
v 0.001780508 -0.000004499 0.143613815
v 0.001766469 0.000218658 0.143613815
v 0.001724571 0.000438295 0.143613815
v 0.001560272 0.000853267 0.143613815
v 0.001655475 0.000650950 0.143613815
v 0.001134939 0.001367406 0.143613815
v 0.001297935 0.001214343 0.143613815
v 0.000954044 0.001498834 0.143613815
v 0.001440462 0.001042058 0.143613815
v 0.000165658 0.002628555 0.143346518
v 0.000494361 0.002587030 0.143346518
v 0.000815267 0.002504636 0.143346518
v 0.000217101 0.003446219 0.142977804
v 0.000647878 0.003391799 0.142977804
v 0.001123317 0.002382670 0.143346518
v 0.001413651 0.002223058 0.143346518
v 0.001681690 0.002028315 0.143346518
v 0.001068439 0.003283817 0.142977804
v 0.001472149 0.003123977 0.142977804
v 0.001852643 0.002914799 0.142977804
v 0.002638260 -0.000004499 0.143346518
v 0.002617457 0.000326163 0.143346518
v 0.002555375 0.000651610 0.143346518
v 0.002311925 0.001266492 0.143346518
v 0.001923209 0.001801514 0.143346518
v 0.002134397 0.001546231 0.143346518
v 0.002452992 0.000966709 0.143346518
v 0.003457540 -0.000004499 0.142977804
v 0.003430277 0.000428846 0.142977804
v 0.003348915 0.000855356 0.142977804
v 0.003214740 0.001268306 0.142977804
v 0.003029866 0.001661184 0.142977804
v 0.003596463 0.003372805 0.141958922
v 0.002203919 0.002659582 0.142977804
v 0.002520439 0.002362350 0.142977804
v 0.002264619 0.003563970 0.142512992
v 0.002694010 0.003251999 0.142512992
v 0.003703624 0.002031585 0.142512992
v 0.003419231 0.002479718 0.142512992
v 0.002797209 0.002027792 0.142977804
v 0.003080914 0.002888672 0.142512992
v 0.000463755 0.007366681 0.137286797
v 0.000453587 0.007205053 0.138170511
v 0.001383952 0.007250432 0.137286797
v 0.001353606 0.007091355 0.138170511
v 0.000436804 0.006938295 0.139028266
v 0.000413651 0.006570294 0.139847547
v 0.001234429 0.006466606 0.139847547
v 0.001303522 0.006828803 0.139028266
v 0.003529916 0.005557758 0.139847547
v 0.002282324 0.007019770 0.137286797
v 0.002232279 0.006865750 0.138170511
v 0.003144701 0.006678331 0.137286797
v 0.003075748 0.006531797 0.138170511
v 0.002035740 0.006260864 0.139847547
v 0.002149683 0.006611545 0.139028266
v 0.002961942 0.006289949 0.139028266
v 0.002804946 0.005956315 0.139847547
v 0.000309785 0.004919398 0.141958922
v 0.000349675 0.005553432 0.141323626
v 0.000924471 0.004841745 0.141958922
v 0.001043512 0.005465780 0.141323626
v 0.001524576 0.004687664 0.141958922
v 0.001720891 0.005291859 0.141323626
v 0.000265378 0.004213563 0.142512992
v 0.000791949 0.004147042 0.142512992
v 0.001306030 0.004015048 0.142512992
v 0.001799514 0.003819663 0.142512992
v 0.000384466 0.006106419 0.140616402
v 0.001147336 0.006010045 0.140616402
v 0.002100639 0.004459585 0.141958922
v 0.002643573 0.004161105 0.141958922
v 0.002607047 0.005535757 0.140616402
v 0.002371131 0.005034410 0.141323626
v 0.003144816 0.003796930 0.141958922
v 0.003549763 0.004286428 0.141323626
v 0.003280868 0.005165320 0.140616402
v 0.002983977 0.004697496 0.141323626
v 0.001892111 0.005818820 0.140616402
v 0.007385754 -0.000004499 0.137286797
v 0.007223807 -0.000004499 0.138170511
v 0.007166845 0.000900884 0.138170511
v 0.007327515 0.000921181 0.137286797
v 0.007153717 0.001832263 0.137286797
v 0.006996858 0.001791988 0.138170511
v 0.006380825 0.001633818 0.139847547
v 0.006956521 -0.000004499 0.139028266
v 0.006901667 0.000867384 0.139028266
v 0.006587793 -0.000004499 0.139847547
v 0.006535846 0.000821170 0.139847547
v 0.006737969 0.001725517 0.139028266
v 0.006472186 0.003553615 0.137286797
v 0.006330270 0.003475596 0.138170511
v 0.006867100 0.002714378 0.137286797
v 0.006716526 0.002654762 0.138170511
v 0.006468009 0.002556367 0.139028266
v 0.006125175 0.002420629 0.139847547
v 0.006096046 0.003346830 0.139028266
v 0.005772927 0.003169194 0.139847547
v 0.004587175 0.001811692 0.141958922
v 0.004933632 -0.000004499 0.141958922
v 0.004894729 0.000613849 0.141958922
v 0.005568920 -0.000004499 0.141323626
v 0.005525007 0.000693472 0.141323626
v 0.004778633 0.001222445 0.141958922
v 0.005393962 0.001380435 0.141323626
v 0.004226402 -0.000004499 0.142512992
v 0.004193075 0.000525209 0.142512992
v 0.004093622 0.001046564 0.142512992
v 0.003929609 0.001551343 0.142512992
v 0.004323375 0.002372297 0.141958922
v 0.003991392 0.002895417 0.141958922
v 0.004505351 0.003268830 0.141323626
v 0.004880082 0.002678349 0.141323626
v 0.005177851 0.002045557 0.141323626
v 0.004953611 0.003594510 0.140616402
v 0.005365625 0.002945279 0.140616402
v 0.006123000 -0.000004499 0.140616402
v 0.006074718 0.000762916 0.140616402
v 0.005930635 0.001518229 0.140616402
v 0.005693022 0.002249527 0.140616402
v 0.004604628 0.005561540 0.138170511
v 0.005383983 0.005051397 0.137286797
v 0.005265929 0.004940537 0.138170511
v 0.004434253 0.005355592 0.139028266
v 0.004199217 0.005071482 0.139847547
v 0.004802295 0.004505155 0.139847547
v 0.005329636 0.003867708 0.139847547
v 0.005071085 0.004757567 0.139028266
v 0.003957485 0.006231499 0.137286797
v 0.003870710 0.006094763 0.138170511
v 0.004707857 0.005686322 0.137286797
v 0.003727490 0.005869086 0.139028266
v 0.005975200 0.004336738 0.137286797
v 0.005844183 0.004241548 0.138170511
v 0.005627944 0.004084441 0.139028266
v 0.004463475 0.004186983 0.140616402
v 0.004059568 0.003807689 0.141323626
v 0.003902947 0.004713353 0.140616402
f 1 14 11
f 2 3 7
f 1 2 10
f 1 10 5
f 1 4 14
f 1 5 4
f 4 31 14
f 4 5 31
f 2 7 6
f 3 8 7
f 3 9 8
f 6 7 34
f 7 8 35
f 8 9 35
f 2 6 10
f 6 38 10
f 5 10 38
f 11 17 12
f 12 18 13
f 13 178 175
f 11 14 15
f 11 15 17
f 12 17 16
f 12 16 18
f 14 51 15
f 15 49 17
f 16 57 18
f 16 17 49
f 13 18 19
f 13 19 20
f 13 20 178
f 18 57 19
f 19 59 20
f 20 59 178
f 3 21 24
f 21 22 26
f 22 23 29
f 21 25 24
f 3 24 9
f 21 26 25
f 9 24 83
f 24 25 83
f 25 26 85
f 22 27 26
f 22 28 27
f 22 29 28
f 23 30 29
f 26 27 92
f 27 28 92
f 28 29 94
f 29 30 94
f 1 11 537
f 1 537 2
f 3 537 21
f 21 537 22
f 2 537 3
f 5 38 31
f 14 31 51
f 31 32 51
f 32 52 51
f 31 39 32
f 32 33 52
f 33 42 53
f 7 35 34
f 34 35 36
f 34 36 40
f 36 37 40
f 37 44 40
f 37 91 44
f 31 38 39
f 6 34 38
f 34 40 38
f 38 40 39
f 39 40 44
f 32 39 41
f 39 44 41
f 41 45 43
f 32 41 33
f 33 41 43
f 33 43 42
f 42 43 47
f 41 44 45
f 43 45 46
f 44 91 45
f 42 47 69
f 45 101 46
f 43 46 47
f 47 48 69
f 46 103 47
f 47 103 48
f 15 51 49
f 49 51 52
f 49 52 50
f 16 49 57
f 49 50 57
f 50 55 58
f 50 58 57
f 50 52 53
f 55 61 58
f 50 53 55
f 53 54 55
f 33 53 52
f 42 54 53
f 54 68 56
f 55 56 61
f 54 56 55
f 56 64 61
f 56 65 64
f 57 58 59
f 19 57 59
f 58 60 59
f 58 61 60
f 59 60 206
f 59 206 178
f 60 62 207
f 60 207 206
f 61 64 62
f 60 61 62
f 62 64 63
f 62 212 207
f 62 63 212
f 63 214 212
f 63 64 66
f 63 67 214
f 42 69 54
f 56 68 65
f 65 70 66
f 63 66 67
f 64 65 66
f 66 75 67
f 67 75 77
f 67 226 214
f 67 77 226
f 77 230 226
f 54 69 68
f 68 69 72
f 68 72 71
f 65 68 71
f 65 71 70
f 70 71 74
f 70 74 79
f 48 72 69
f 71 72 73
f 48 121 72
f 72 121 73
f 71 73 74
f 74 124 79
f 73 123 74
f 74 123 124
f 66 70 75
f 75 76 77
f 70 79 75
f 75 79 76
f 77 78 230
f 78 232 230
f 76 78 77
f 78 82 232
f 76 79 80
f 76 81 78
f 76 80 81
f 79 124 80
f 80 131 81
f 78 81 82
f 82 237 232
f 81 132 82
f 82 133 237
f 83 86 84
f 9 83 35
f 35 83 84
f 35 84 36
f 36 84 87
f 25 85 83
f 83 85 86
f 26 92 85
f 84 86 89
f 85 93 86
f 36 87 37
f 37 87 88
f 37 88 91
f 88 105 91
f 86 96 89
f 84 89 87
f 87 89 90
f 87 90 88
f 88 90 100
f 45 91 101
f 85 92 93
f 28 94 92
f 86 93 96
f 92 95 93
f 92 94 95
f 30 391 94
f 93 95 98
f 94 392 95
f 89 96 97
f 93 98 96
f 96 99 97
f 89 97 90
f 90 97 109
f 96 98 99
f 95 395 98
f 98 396 99
f 97 99 110
f 88 100 105
f 46 101 102
f 91 105 101
f 101 106 102
f 46 102 103
f 48 103 104
f 102 107 103
f 103 107 104
f 101 105 106
f 105 111 106
f 100 111 105
f 102 106 108
f 106 111 112
f 106 112 108
f 102 108 107
f 104 107 127
f 107 108 117
f 107 117 127
f 90 109 100
f 100 109 113
f 97 110 109
f 109 115 113
f 109 110 115
f 99 408 110
f 110 410 115
f 100 113 111
f 111 113 114
f 111 114 112
f 113 115 116
f 113 116 114
f 115 411 116
f 108 112 118
f 108 118 117
f 112 119 118
f 112 114 119
f 114 116 120
f 114 120 119
f 118 119 146
f 116 416 120
f 119 120 147
f 48 104 121
f 73 121 122
f 104 126 121
f 121 126 122
f 73 122 123
f 123 125 124
f 122 128 123
f 124 125 130
f 123 128 125
f 104 127 126
f 122 126 129
f 126 127 140
f 126 140 129
f 127 141 140
f 122 129 128
f 125 128 136
f 128 129 143
f 128 143 136
f 80 124 130
f 80 130 131
f 81 131 132
f 130 137 131
f 131 134 132
f 82 132 133
f 133 266 237
f 132 138 133
f 133 138 139
f 133 139 266
f 139 271 266
f 125 135 130
f 130 135 137
f 131 137 134
f 125 136 135
f 134 137 156
f 135 151 137
f 132 134 138
f 139 158 271
f 134 155 138
f 138 157 139
f 134 156 155
f 138 155 157
f 139 157 158
f 158 287 271
f 117 141 127
f 117 142 141
f 117 118 142
f 118 146 142
f 140 141 145
f 141 142 148
f 129 140 144
f 140 145 144
f 129 144 143
f 141 148 145
f 143 144 152
f 144 145 159
f 119 147 146
f 120 429 147
f 142 146 149
f 142 149 148
f 146 147 150
f 146 150 149
f 147 431 150
f 145 148 160
f 145 160 159
f 148 149 161
f 148 161 160
f 149 150 162
f 149 162 161
f 150 440 162
f 135 136 153
f 136 143 154
f 136 154 153
f 137 151 156
f 135 153 151
f 143 152 154
f 144 159 152
f 151 153 165
f 153 154 166
f 155 167 157
f 157 169 158
f 158 170 287
f 151 163 156
f 155 156 168
f 151 165 163
f 155 168 167
f 156 163 168
f 158 169 170
f 170 296 287
f 157 167 169
f 152 164 154
f 152 159 171
f 154 164 166
f 159 160 172
f 152 171 164
f 159 172 171
f 160 161 173
f 161 162 174
f 160 173 172
f 161 174 173
f 162 444 174
f 153 166 165
f 167 168 305
f 163 305 168
f 169 305 170
f 170 305 296
f 167 305 169
f 164 305 166
f 164 171 305
f 171 172 305
f 172 173 305
f 173 174 305
f 174 444 305
f 165 166 305
f 163 165 305
f 175 180 176
f 176 183 177
f 177 185 186
f 12 13 537
f 13 175 537
f 175 176 537
f 175 178 179
f 175 179 180
f 176 180 181
f 176 181 182
f 178 206 179
f 179 209 180
f 180 209 181
f 181 210 182
f 176 182 183
f 177 183 184
f 177 184 185
f 182 210 183
f 183 218 184
f 184 220 185
f 186 191 187
f 187 193 188
f 188 195 196
f 185 189 186
f 186 189 190
f 186 190 191
f 185 220 189
f 189 248 190
f 190 248 191
f 187 191 192
f 187 192 193
f 191 251 192
f 192 259 193
f 188 193 194
f 188 194 195
f 193 259 194
f 194 260 195
f 195 260 199
f 11 12 537
f 176 177 537
f 177 186 537
f 186 187 537
f 187 188 537
f 196 201 197
f 188 196 537
f 196 197 537
f 197 198 535
f 197 203 198
f 195 199 196
f 196 199 200
f 196 200 201
f 197 201 202
f 199 326 200
f 200 326 201
f 201 328 202
f 197 202 203
f 198 203 204
f 198 204 205
f 198 205 538
f 202 334 203
f 203 334 204
f 204 336 205
f 205 336 538
f 179 206 209
f 206 207 209
f 207 212 208
f 207 208 209
f 208 210 209
f 181 209 210
f 208 213 211
f 208 211 210
f 208 212 213
f 212 214 213
f 213 214 215
f 213 215 216
f 211 213 216
f 215 217 216
f 214 226 215
f 215 227 217
f 210 211 218
f 183 210 218
f 211 216 219
f 211 219 218
f 184 218 220
f 218 219 220
f 219 221 220
f 219 222 221
f 221 224 249
f 216 217 222
f 216 222 219
f 222 223 224
f 217 223 222
f 217 228 223
f 223 229 225
f 221 222 224
f 224 225 250
f 223 225 224
f 225 243 254
f 215 226 227
f 226 230 227
f 227 230 231
f 217 227 228
f 227 231 228
f 228 231 234
f 228 234 229
f 223 228 229
f 225 229 243
f 230 232 231
f 231 232 233
f 231 233 234
f 234 235 241
f 233 235 234
f 235 236 241
f 232 237 233
f 233 237 238
f 233 238 235
f 237 266 238
f 238 267 239
f 235 239 236
f 235 238 239
f 236 239 240
f 239 268 240
f 229 234 241
f 229 241 243
f 241 242 243
f 236 242 241
f 243 244 254
f 242 244 243
f 242 246 244
f 236 245 242
f 242 245 246
f 244 246 263
f 245 247 246
f 246 247 264
f 247 278 264
f 236 240 245
f 240 279 245
f 245 279 247
f 189 220 248
f 220 221 248
f 248 249 251
f 221 249 248
f 191 248 251
f 224 250 249
f 249 250 252
f 192 251 259
f 251 252 259
f 249 252 251
f 252 256 253
f 252 253 259
f 250 256 252
f 250 254 256
f 225 254 250
f 244 255 254
f 254 255 256
f 255 257 256
f 253 256 257
f 255 263 258
f 257 258 262
f 255 258 257
f 258 325 262
f 258 265 325
f 194 259 260
f 253 260 259
f 253 257 261
f 253 261 260
f 257 262 261
f 244 263 255
f 246 264 263
f 263 264 265
f 264 342 265
f 264 278 342
f 258 263 265
f 238 266 267
f 239 267 268
f 266 271 267
f 267 271 272
f 267 272 268
f 268 272 273
f 240 268 269
f 240 269 279
f 269 270 279
f 268 273 269
f 269 274 270
f 271 287 272
f 272 288 273
f 272 287 288
f 273 288 289
f 273 289 274
f 274 289 290
f 269 273 274
f 270 274 275
f 270 275 281
f 275 276 281
f 274 290 275
f 275 291 276
f 270 280 279
f 247 279 280
f 270 281 280
f 280 281 282
f 281 283 282
f 247 280 278
f 278 280 282
f 278 282 343
f 282 285 343
f 283 284 285
f 276 283 281
f 276 277 283
f 277 284 283
f 277 314 284
f 284 314 317
f 282 283 285
f 284 286 285
f 285 286 346
f 284 317 286
f 286 317 357
f 287 296 288
f 288 297 289
f 289 298 290
f 288 296 297
f 289 297 298
f 290 298 299
f 290 299 291
f 291 300 292
f 291 299 300
f 292 300 301
f 275 290 291
f 276 291 292
f 277 292 293
f 276 292 277
f 277 293 314
f 292 301 293
f 293 302 294
f 293 294 314
f 294 295 315
f 295 310 316
f 296 305 297
f 297 305 298
f 298 305 299
f 299 305 300
f 300 305 301
f 293 301 302
f 294 302 303
f 301 305 302
f 302 305 303
f 303 305 304
f 304 305 306
f 305 307 306
f 305 308 307
f 305 309 308
f 305 566 309
f 294 303 295
f 295 304 310
f 295 303 304
f 304 306 310
f 306 311 310
f 306 307 311
f 307 308 312
f 308 309 313
f 307 312 311
f 308 313 312
f 309 579 313
f 294 315 314
f 314 315 317
f 315 318 317
f 295 316 315
f 315 316 318
f 316 320 319
f 317 318 357
f 318 358 357
f 318 319 358
f 316 319 318
f 310 311 320
f 310 320 316
f 311 321 320
f 311 312 321
f 312 313 322
f 312 322 321
f 313 592 322
f 319 323 359
f 323 324 360
f 319 320 323
f 320 321 323
f 321 322 324
f 321 324 323
f 322 595 324
f 325 344 331
f 260 261 326
f 261 327 326
f 261 262 327
f 199 260 326
f 326 327 328
f 201 326 328
f 202 328 334
f 328 329 334
f 327 329 328
f 327 330 329
f 329 333 335
f 262 325 330
f 262 330 327
f 325 331 330
f 330 331 333
f 331 348 332
f 331 332 333
f 329 330 333
f 334 335 336
f 329 335 334
f 335 339 337
f 204 334 336
f 336 337 624
f 335 337 336
f 337 340 625
f 332 350 338
f 338 361 341
f 333 339 335
f 332 339 333
f 338 340 339
f 332 338 339
f 341 362 629
f 337 339 340
f 340 341 628
f 338 341 340
f 278 343 342
f 342 343 345
f 343 346 345
f 265 342 344
f 342 345 344
f 265 344 325
f 331 344 348
f 344 345 348
f 345 346 349
f 346 347 349
f 345 349 348
f 348 349 350
f 349 352 350
f 347 352 349
f 285 346 343
f 286 347 346
f 286 357 347
f 332 348 350
f 347 351 352
f 351 353 352
f 351 354 353
f 353 354 356
f 354 355 356
f 355 642 356
f 347 357 351
f 351 357 358
f 319 359 358
f 351 358 354
f 354 358 359
f 323 360 359
f 324 647 360
f 355 359 360
f 354 359 355
f 355 360 641
f 350 352 361
f 338 350 361
f 352 353 361
f 353 362 361
f 353 356 362
f 341 361 362
f 356 651 362
f 23 363 365
f 363 364 367
f 364 371 370
f 23 365 30
f 363 366 365
f 363 367 366
f 30 365 391
f 365 366 391
f 366 367 393
f 364 368 367
f 364 369 368
f 364 370 369
f 370 371 374
f 367 368 399
f 368 369 399
f 369 370 401
f 370 374 401
f 22 537 23
f 23 537 363
f 363 537 364
f 364 537 371
f 371 372 375
f 372 373 378
f 373 381 380
f 371 375 374
f 372 376 375
f 372 377 376
f 374 375 483
f 375 376 485
f 376 377 485
f 372 378 377
f 377 378 488
f 378 379 488
f 373 379 378
f 373 380 379
f 380 381 384
f 379 380 495
f 380 384 501
f 371 537 372
f 372 537 373
f 373 537 381
f 381 382 386
f 382 383 388
f 383 545 390
f 381 385 384
f 381 386 385
f 382 387 386
f 382 388 387
f 384 385 501
f 385 386 503
f 386 387 503
f 387 388 509
f 383 389 388
f 383 390 389
f 390 545 548
f 388 389 509
f 389 390 511
f 390 548 662
f 94 391 392
f 95 392 395
f 391 394 392
f 366 393 391
f 391 393 394
f 367 399 393
f 392 394 397
f 393 400 394
f 98 395 396
f 392 397 395
f 395 398 396
f 99 396 408
f 395 397 398
f 394 403 397
f 397 403 404
f 397 404 398
f 396 398 409
f 398 404 420
f 393 399 400
f 369 401 399
f 394 400 403
f 399 402 400
f 400 402 405
f 399 401 402
f 374 483 401
f 401 483 484
f 401 484 402
f 402 484 486
f 400 405 403
f 403 405 406
f 403 406 404
f 404 406 421
f 402 486 405
f 405 486 407
f 405 407 406
f 406 407 425
f 110 408 410
f 396 409 408
f 408 413 410
f 408 409 413
f 409 414 413
f 398 420 409
f 409 420 414
f 115 410 411
f 410 413 412
f 410 412 411
f 412 413 415
f 413 414 415
f 414 423 415
f 116 411 416
f 411 417 416
f 120 416 429
f 411 412 417
f 416 417 430
f 412 418 417
f 412 415 418
f 417 418 434
f 415 423 419
f 415 419 418
f 404 421 420
f 414 420 422
f 420 421 422
f 421 426 422
f 414 422 423
f 422 426 424
f 422 424 423
f 406 425 421
f 421 425 426
f 407 498 425
f 425 428 426
f 425 498 428
f 426 428 427
f 424 426 427
f 427 428 464
f 419 423 465
f 423 424 465
f 424 427 466
f 416 430 429
f 417 434 430
f 147 429 431
f 429 430 432
f 429 432 431
f 430 433 432
f 430 434 433
f 150 431 440
f 431 441 440
f 431 432 441
f 432 442 441
f 432 433 442
f 433 437 443
f 433 443 442
f 418 435 434
f 418 419 435
f 419 436 435
f 434 435 437
f 433 434 437
f 435 438 437
f 437 438 456
f 435 436 438
f 436 439 438
f 438 439 457
f 162 440 444
f 440 441 445
f 441 442 446
f 440 445 444
f 441 446 445
f 442 447 446
f 442 443 447
f 443 448 447
f 448 456 449
f 443 456 448
f 449 456 457
f 305 444 445
f 305 445 446
f 305 446 447
f 305 447 448
f 305 448 449
f 305 449 450
f 305 450 451
f 449 457 450
f 450 458 451
f 305 451 452
f 305 452 453
f 305 453 454
f 305 454 455
f 305 455 570
f 437 456 443
f 438 457 456
f 439 458 457
f 450 457 458
f 439 473 458
f 459 473 474
f 458 473 459
f 459 474 460
f 451 458 459
f 451 459 452
f 452 460 453
f 452 459 460
f 453 460 461
f 453 461 454
f 454 462 455
f 455 463 570
f 460 475 461
f 454 461 462
f 455 462 463
f 463 583 570
f 419 465 436
f 436 465 467
f 424 466 465
f 465 466 467
f 466 469 468
f 466 468 467
f 436 467 439
f 439 467 473
f 467 468 473
f 468 474 473
f 468 472 474
f 427 469 466
f 427 464 469
f 464 470 469
f 464 517 470
f 468 469 472
f 469 470 472
f 470 479 472
f 470 517 471
f 470 471 479
f 460 474 475
f 461 475 476
f 472 475 474
f 472 479 475
f 475 479 476
f 476 480 477
f 461 476 462
f 462 476 477
f 462 477 463
f 463 478 583
f 463 477 478
f 478 603 583
f 471 480 479
f 471 529 480
f 480 529 481
f 476 479 480
f 481 530 482
f 482 531 610
f 477 481 478
f 477 480 481
f 478 481 482
f 478 482 603
f 482 610 603
f 375 485 483
f 483 485 487
f 483 487 484
f 484 487 490
f 484 490 486
f 377 488 485
f 485 488 489
f 485 489 487
f 487 489 492
f 488 496 489
f 489 496 497
f 486 490 491
f 407 486 491
f 407 491 498
f 490 493 491
f 491 493 499
f 487 492 490
f 490 492 493
f 489 497 492
f 492 497 494
f 492 494 493
f 493 494 520
f 379 495 488
f 488 495 496
f 380 501 495
f 495 501 502
f 495 502 496
f 496 505 497
f 491 499 498
f 428 498 500
f 498 499 500
f 499 518 500
f 428 500 464
f 493 520 499
f 494 497 506
f 494 506 521
f 496 502 505
f 501 504 502
f 502 504 507
f 385 503 501
f 501 503 504
f 387 509 503
f 503 509 510
f 503 510 504
f 504 510 514
f 497 505 506
f 502 507 505
f 505 508 506
f 505 507 508
f 506 508 532
f 507 513 508
f 504 514 507
f 507 514 513
f 389 511 509
f 509 511 512
f 509 512 510
f 510 512 515
f 390 662 511
f 511 662 663
f 511 663 512
f 512 663 669
f 508 513 533
f 513 516 534
f 516 671 700
f 510 515 514
f 514 515 516
f 513 514 516
f 515 669 671
f 512 669 515
f 515 671 516
f 499 520 518
f 464 500 517
f 500 518 517
f 517 518 519
f 518 522 519
f 519 522 524
f 518 520 522
f 520 521 522
f 494 521 520
f 521 523 522
f 521 532 523
f 523 532 526
f 522 523 524
f 471 517 519
f 471 519 529
f 519 524 529
f 523 525 524
f 525 526 527
f 523 526 525
f 526 528 527
f 528 685 683
f 527 528 683
f 481 529 530
f 524 530 529
f 524 525 530
f 482 530 531
f 531 689 610
f 525 531 530
f 525 527 531
f 527 689 531
f 527 683 689
f 506 532 521
f 508 533 532
f 526 532 533
f 526 533 528
f 528 533 534
f 513 534 533
f 528 534 685
f 534 700 685
f 516 700 534
f 197 535 536
f 197 536 537
f 198 538 535
f 535 540 536
f 536 544 537
f 535 538 539
f 535 539 540
f 536 540 541
f 538 624 539
f 539 626 540
f 540 626 541
f 536 541 542
f 536 542 544
f 537 544 543
f 537 543 561
f 541 633 542
f 542 633 544
f 543 544 635
f 381 537 382
f 382 537 383
f 545 546 550
f 383 537 545
f 537 546 545
f 546 556 558
f 546 558 547
f 546 547 551
f 547 558 555
f 545 549 548
f 545 550 549
f 546 552 550
f 546 551 552
f 548 549 662
f 549 550 665
f 550 552 665
f 551 666 552
f 547 553 551
f 547 555 554
f 547 554 553
f 551 553 676
f 553 554 676
f 554 555 674
f 537 557 546
f 537 561 557
f 556 557 563
f 546 557 556
f 556 564 558
f 556 563 560
f 556 560 559
f 560 563 714
f 559 560 705
f 557 562 563
f 557 561 562
f 543 712 561
f 561 712 562
f 562 714 563
f 555 558 565
f 558 564 565
f 556 559 564
f 555 565 674
f 564 716 565
f 559 705 564
f 305 578 575
f 305 575 577
f 305 567 566
f 305 569 568
f 305 568 567
f 305 576 569
f 305 577 576
f 305 571 574
f 305 570 572
f 305 572 571
f 305 573 578
f 305 574 573
f 575 589 577
f 309 566 579
f 566 567 580
f 567 568 581
f 566 580 579
f 567 581 580
f 568 569 582
f 569 576 590
f 568 582 581
f 576 577 588
f 569 590 582
f 576 588 590
f 571 585 574
f 570 583 572
f 571 572 584
f 573 586 578
f 573 574 587
f 575 578 591
f 573 587 586
f 578 586 591
f 572 583 584
f 571 584 585
f 574 585 587
f 577 589 588
f 575 591 589
f 582 590 598
f 588 599 590
f 589 591 608
f 586 606 591
f 588 589 607
f 588 607 599
f 589 608 607
f 313 579 592
f 579 580 593
f 579 593 592
f 580 581 594
f 580 594 593
f 581 582 597
f 581 597 594
f 324 595 647
f 595 596 648
f 322 592 595
f 592 593 596
f 592 596 595
f 593 594 600
f 593 600 596
f 582 598 597
f 590 599 598
f 594 597 601
f 598 599 616
f 597 598 602
f 598 616 602
f 596 600 649
f 600 601 650
f 601 618 650
f 594 601 600
f 597 602 601
f 583 603 584
f 584 604 585
f 585 605 587
f 586 587 609
f 585 604 605
f 587 605 609
f 584 603 604
f 605 612 609
f 591 606 608
f 586 609 606
f 607 608 622
f 606 609 613
f 606 614 608
f 608 614 622
f 610 689 611
f 611 690 612
f 603 610 604
f 604 610 611
f 604 611 605
f 605 611 612
f 612 691 613
f 613 692 614
f 614 692 620
f 609 612 613
f 606 613 614
f 615 720 657
f 616 617 623
f 599 607 617
f 599 617 616
f 607 622 617
f 601 602 618
f 602 616 619
f 602 619 618
f 616 623 619
f 618 619 657
f 617 622 621
f 614 620 622
f 617 621 623
f 620 621 622
f 621 694 623
f 615 619 623
f 615 657 619
f 615 623 694
f 336 624 538
f 539 624 626
f 624 625 626
f 337 625 624
f 625 628 627
f 626 627 633
f 625 627 626
f 627 631 634
f 629 651 630
f 340 628 625
f 628 629 631
f 341 629 628
f 630 637 638
f 630 652 637
f 627 628 631
f 630 638 631
f 629 630 631
f 632 659 708
f 541 626 633
f 633 634 635
f 627 634 633
f 634 638 636
f 635 636 712
f 636 713 712
f 636 639 713
f 544 633 635
f 543 635 712
f 634 636 635
f 636 638 639
f 637 639 638
f 637 661 640
f 637 640 639
f 631 638 634
f 639 640 715
f 639 715 713
f 632 640 655
f 632 715 640
f 355 641 642
f 641 643 644
f 641 644 642
f 644 646 661
f 643 645 646
f 643 646 644
f 595 648 647
f 360 647 641
f 596 649 648
f 643 647 648
f 641 647 643
f 600 650 649
f 643 648 645
f 645 648 649
f 649 650 653
f 645 649 653
f 356 642 651
f 362 651 629
f 642 652 651
f 642 644 652
f 630 651 652
f 644 661 652
f 637 652 661
f 653 654 660
f 646 655 661
f 646 656 655
f 655 656 659
f 645 656 646
f 645 653 656
f 653 660 656
f 658 721 660
f 654 657 658
f 654 658 660
f 657 720 658
f 656 660 659
f 632 655 659
f 659 660 721
f 618 654 650
f 650 654 653
f 618 657 654
f 640 661 655
f 681 710 698
f 549 665 662
f 662 665 664
f 662 664 663
f 663 664 670
f 552 666 665
f 665 666 667
f 664 667 673
f 664 665 667
f 671 672 701
f 668 702 672
f 669 670 672
f 663 670 669
f 669 672 671
f 664 673 670
f 668 670 673
f 668 672 670
f 675 680 677
f 666 676 677
f 551 676 666
f 666 677 667
f 667 677 678
f 554 674 676
f 674 675 676
f 675 677 676
f 673 678 679
f 668 673 679
f 668 679 703
f 678 681 679
f 675 718 680
f 677 680 678
f 678 680 681
f 679 681 699
f 680 710 681
f 667 678 673
f 684 686 687
f 684 685 686
f 683 685 684
f 688 702 697
f 682 688 697
f 682 687 688
f 686 688 687
f 611 689 690
f 612 690 691
f 683 690 689
f 684 691 690
f 613 691 692
f 620 692 682
f 687 692 691
f 684 687 691
f 682 692 687
f 683 684 690
f 693 696 694
f 695 698 720
f 615 694 695
f 615 695 720
f 694 696 695
f 696 697 703
f 696 703 699
f 682 697 693
f 693 697 696
f 695 696 699
f 695 699 698
f 681 698 699
f 620 693 621
f 621 693 694
f 620 682 693
f 685 700 686
f 686 700 701
f 671 701 700
f 686 701 688
f 688 701 702
f 668 703 702
f 672 702 701
f 697 702 703
f 679 699 703
f 704 705 714
f 705 706 716
f 560 714 705
f 704 706 705
f 704 707 706
f 706 711 717
f 707 708 711
f 632 708 707
f 708 721 709
f 711 718 717
f 709 718 711
f 709 719 710
f 709 710 718
f 706 707 711
f 708 709 711
f 712 713 714
f 562 712 714
f 704 713 715
f 704 714 713
f 632 707 715
f 704 715 707
f 564 705 716
f 565 716 674
f 674 716 717
f 675 717 718
f 706 717 716
f 674 717 675
f 680 718 710
f 658 720 719
f 658 719 721
f 698 719 720
f 709 721 719
f 659 721 708
f 698 710 719
