# palm_pad.obj  (48 v, 92 f)  units: metres
v 0.010800000 -0.048000000 -0.083999999
v 0.011385786 -0.049414214 -0.083999999
v 0.011385786 -0.048000000 -0.085414216
v 0.012800000 -0.049414214 -0.085414216
v 0.012800000 -0.050000001 -0.083999999
v 0.012800000 -0.048000000 -0.086000003
v 0.010800000 -0.048000000 -0.008000000
v 0.011385786 -0.049414214 -0.008000000
v 0.011385786 -0.048000000 -0.006585787
v 0.012800000 -0.050000001 -0.008000000
v 0.012800000 -0.049414214 -0.006585787
v 0.012800000 -0.048000000 -0.006000000
v 0.010800000 0.048000000 -0.083999999
v 0.011385786 0.048000000 -0.085414216
v 0.011385786 0.049414214 -0.083999999
v 0.012800000 0.048000000 -0.086000003
v 0.012800000 0.049414214 -0.085414216
v 0.012800000 0.050000001 -0.083999999
v 0.010800000 0.048000000 -0.008000000
v 0.011385786 0.048000000 -0.006585787
v 0.011385786 0.049414214 -0.008000000
v 0.012800000 0.048000000 -0.006000000
v 0.012800000 0.050000001 -0.008000000
v 0.012800000 0.049414214 -0.006585787
v 0.013300000 -0.049414214 -0.085414216
v 0.013300000 -0.050000001 -0.083999999
v 0.013300000 -0.048000000 -0.086000003
v 0.014714214 -0.049414214 -0.083999999
v 0.014714214 -0.048000000 -0.085414216
v 0.015300000 -0.048000000 -0.083999999
v 0.013300000 -0.050000001 -0.008000000
v 0.013300000 -0.049414214 -0.006585787
v 0.013300000 -0.048000000 -0.006000000
v 0.014714214 -0.049414214 -0.008000000
v 0.014714214 -0.048000000 -0.006585787
v 0.015300000 -0.048000000 -0.008000000
v 0.013300000 0.048000000 -0.086000003
v 0.013300000 0.049414214 -0.085414216
v 0.013300000 0.050000001 -0.083999999
v 0.014714214 0.048000000 -0.085414216
v 0.014714214 0.049414214 -0.083999999
v 0.015300000 0.048000000 -0.083999999
v 0.013300000 0.048000000 -0.006000000
v 0.013300000 0.050000001 -0.008000000
v 0.013300000 0.049414214 -0.006585787
v 0.014714214 0.048000000 -0.006585787
v 0.014714214 0.049414214 -0.008000000
v 0.015300000 0.048000000 -0.008000000
f 1 3 2
f 2 3 4
f 1 2 8
f 2 5 8
f 1 13 3
f 3 6 4
f 2 4 5
f 4 25 5
f 4 6 27
f 3 16 6
f 6 16 27
f 1 8 7
f 7 8 9
f 8 11 9
f 1 7 19
f 7 9 19
f 5 10 8
f 5 31 10
f 8 10 11
f 9 11 12
f 10 32 11
f 11 32 12
f 9 12 22
f 3 13 14
f 3 14 16
f 1 19 13
f 13 15 14
f 14 15 17
f 13 19 15
f 15 21 18
f 14 17 16
f 15 18 17
f 16 17 38
f 17 18 38
f 9 20 19
f 9 22 20
f 15 19 21
f 19 20 21
f 20 24 21
f 12 43 22
f 18 21 23
f 18 23 44
f 21 24 23
f 20 22 24
f 23 24 44
f 22 43 24
f 4 27 25
f 5 25 26
f 25 27 29
f 25 28 26
f 5 26 31
f 26 28 31
f 25 29 28
f 28 29 30
f 28 30 36
f 27 40 29
f 29 42 30
f 30 42 36
f 10 31 32
f 12 32 33
f 31 34 32
f 32 35 33
f 12 33 43
f 33 35 43
f 28 34 31
f 28 36 34
f 32 34 35
f 34 36 35
f 35 36 48
f 16 37 27
f 27 37 40
f 16 38 37
f 18 39 38
f 37 38 40
f 38 39 41
f 18 44 39
f 39 44 41
f 29 40 42
f 38 41 40
f 40 41 42
f 41 47 42
f 24 43 45
f 24 45 44
f 44 45 47
f 43 46 45
f 36 42 48
f 35 46 43
f 35 48 46
f 41 44 47
f 42 47 48
f 45 46 47
f 46 48 47
