# rf_base_shaft.obj  (62 v, 120 f)  units: metres
v -0.001637709 -0.045404036 -0.001206672
v -0.001767767 -0.045304619 -0.001197974
v -0.001250000 -0.045700401 -0.001232600
v -0.002165064 -0.044788823 -0.001152847
v -0.002163932 -0.044790290 -0.001152976
v -0.002414815 -0.044188164 -0.001100296
v -0.002417365 -0.044168863 -0.001098608
v -0.000647048 -0.045949202 -0.001254368
v -0.000000000 -0.046034064 -0.001261792
v -0.000211645 -0.046006307 -0.001259364
v -0.002165064 -0.045120012 0.002632693
v -0.001767767 -0.045635808 0.002587566
v -0.002414815 -0.044519354 0.002685243
v -0.002500000 -0.043874770 0.002741637
v -0.001250000 -0.046031594 0.002552940
v -0.000647048 -0.046280395 0.002531172
v -0.002500000 -0.043543577 -0.001043903
v -0.002417366 -0.042918295 -0.000989197
v -0.002414815 -0.042898994 -0.000987509
v -0.002165064 -0.042298336 -0.000934958
v -0.001767767 -0.041782539 -0.000889831
v -0.001637711 -0.041683123 -0.000881134
v -0.001250000 -0.041386753 -0.000855205
v -0.000647048 -0.041137952 -0.000833438
v -0.000211635 -0.041080847 -0.000828442
v -0.000000000 -0.041053090 -0.000826013
v -0.002414815 -0.043230183 0.002798031
v -0.002165064 -0.042629525 0.002850582
v -0.001767767 -0.042113729 0.002895708
v -0.001250000 -0.041717947 0.002930335
v -0.000647048 -0.041469146 0.002952103
v 0.000211645 -0.046006307 -0.001259364
v 0.000647048 -0.045949202 -0.001254368
v 0.001250000 -0.045700401 -0.001232600
v 0.001637709 -0.045404036 -0.001206672
v 0.001767767 -0.045304619 -0.001197974
v 0.002165064 -0.044788823 -0.001152847
v 0.002163932 -0.044790290 -0.001152976
v 0.002414815 -0.044188164 -0.001100296
v 0.002417365 -0.044168863 -0.001098608
v 0.000000000 -0.046365257 0.002523748
v 0.000647048 -0.046280395 0.002531172
v 0.001250000 -0.046031594 0.002552940
v 0.001767767 -0.045635808 0.002587566
v 0.002165064 -0.045120012 0.002632693
v 0.002414815 -0.044519354 0.002685243
v 0.002500000 -0.043874770 0.002741637
v 0.000211635 -0.041080847 -0.000828442
v 0.000647048 -0.041137952 -0.000833438
v 0.001250000 -0.041386753 -0.000855205
v 0.002500000 -0.043543577 -0.001043903
v 0.002417366 -0.042918295 -0.000989197
v 0.002414815 -0.042898994 -0.000987509
v 0.001767767 -0.041782539 -0.000889831
v 0.001637711 -0.041683123 -0.000881134
v 0.002165064 -0.042298336 -0.000934958
v 0.000000000 -0.041384283 0.002959527
v 0.000647048 -0.041469146 0.002952103
v 0.002414815 -0.043230183 0.002798031
v 0.002165064 -0.042629525 0.002850582
v 0.001250000 -0.041717947 0.002930335
v 0.001767767 -0.042113729 0.002895708
f 8 33 10
f 9 10 32
f 3 1 35
f 2 36 1
f 3 35 8
f 4 37 5
f 4 6 40
f 6 7 40
f 7 17 51
f 2 5 38
f 15 16 44
f 12 15 45
f 13 11 61
f 11 12 61
f 17 18 52
f 19 56 18
f 19 20 56
f 23 49 22
f 20 21 56
f 21 22 55
f 23 24 49
f 24 25 48
f 26 48 25
f 28 27 58
f 29 28 57
f 14 13 61
f 27 14 61
f 30 29 31
f 31 29 57
f 28 58 57
f 27 61 58
f 33 32 10
f 8 34 33
f 36 35 1
f 34 8 35
f 38 36 2
f 37 38 5
f 39 37 4
f 4 40 39
f 51 40 7
f 16 41 43
f 41 42 43
f 16 43 44
f 15 44 45
f 12 45 46
f 12 46 47
f 12 59 60
f 12 47 59
f 17 52 51
f 53 52 18
f 56 53 18
f 21 55 54
f 50 22 49
f 24 48 49
f 50 55 22
f 54 56 21
f 12 62 61
f 12 60 62
f 2 11 5
f 12 2 1
f 3 12 1
f 4 13 6
f 11 4 5
f 6 13 7
f 7 14 17
f 15 3 8
f 8 10 16
f 9 41 10
f 11 2 12
f 3 15 12
f 13 4 11
f 14 7 13
f 8 16 15
f 16 10 41
f 17 27 18
f 27 19 18
f 19 28 20
f 20 28 21
f 21 29 22
f 30 23 22
f 23 31 24
f 24 57 25
f 57 26 25
f 27 17 14
f 28 19 27
f 29 21 28
f 30 22 29
f 23 30 31
f 24 31 57
f 9 32 41
f 33 41 32
f 34 42 33
f 34 35 43
f 43 35 36
f 38 44 36
f 37 45 38
f 39 45 37
f 39 40 46
f 46 40 51
f 33 42 41
f 34 43 42
f 43 36 44
f 44 38 45
f 45 39 46
f 46 51 47
f 57 48 26
f 48 58 49
f 61 50 49
f 51 52 47
f 59 53 56
f 59 52 53
f 50 62 55
f 54 55 62
f 60 56 54
f 48 57 58
f 49 58 61
f 47 52 59
f 59 56 60
f 61 62 50
f 60 54 62
