# rf_base.obj  (707 v, 1410 f)  units: metres
v -0.009800000 -0.056898817 -0.002714245
v -0.009800000 -0.055281200 0.001743704
v -0.007391036 -0.046549819 -0.001808825
v -0.007391036 -0.046593394 -0.001310727
v -0.007778959 -0.045360457 -0.001704769
v -0.007778959 -0.045404036 -0.001206672
v -0.007608452 -0.045962729 -0.001757461
v -0.007608452 -0.046006307 -0.001259364
v -0.007901506 -0.044746712 -0.001651073
v -0.007901506 -0.044790290 -0.001152976
v -0.006472136 -0.048184387 -0.001951831
v -0.006472136 -0.048227966 -0.001453734
v -0.005656854 -0.049135327 -0.002035028
v -0.005656854 -0.049178906 -0.001536930
v -0.006083248 -0.048675813 -0.001994825
v -0.006083248 -0.048719391 -0.001496728
v -0.005195585 -0.049560100 -0.002072190
v -0.005195585 -0.049603678 -0.001574093
v -0.007128052 -0.047161680 -0.001360446
v -0.006821121 -0.047664084 -0.001906310
v -0.006821121 -0.047707662 -0.001408213
v -0.007128052 -0.047118105 -0.001858543
v -0.003737427 -0.055945955 0.009341890
v -0.003487058 -0.055930100 0.009160678
v -0.003233841 -0.055914067 0.008977404
v -0.002668081 -0.056205217 0.008963570
v -0.002649645 -0.056215722 0.008996314
v -0.002723524 -0.055885337 0.008649018
v -0.002694153 -0.055884235 0.008636395
v -0.002985017 -0.055898309 0.008797311
v -0.002862877 -0.055890575 0.008708909
v -0.002683710 -0.056093276 0.008725005
v -0.002694153 -0.056059301 0.008708909
v -0.002668081 -0.056117348 0.008751438
v -0.002449019 -0.055875774 0.008539707
v -0.002199436 -0.055867162 0.008441266
v -0.001377311 -0.056160677 0.008454463
v -0.001367794 -0.056171488 0.008490724
v -0.001385379 -0.056048475 0.008212917
v -0.001390770 -0.056014325 0.008194827
v -0.001390770 -0.055839255 0.008122310
v -0.001377311 -0.056072809 0.008242331
v -0.000695385 -0.055900600 0.008063380
v -0.004702282 -0.049947508 -0.002106084
v -0.004702282 -0.049991086 -0.001607987
v -0.004179989 -0.050295163 -0.002136500
v -0.004179989 -0.050338741 -0.001638403
v -0.003631924 -0.050600927 -0.002163251
v -0.003631924 -0.050644506 -0.001665154
v -0.003061468 -0.050862912 -0.002186172
v -0.002472136 -0.051079500 -0.002205121
v -0.003061468 -0.050906491 -0.001688074
v -0.002472136 -0.051123079 -0.001707023
v -0.001867563 -0.051249359 -0.002219981
v -0.001867563 -0.051292937 -0.001721884
v -0.001251476 -0.051371440 -0.002230662
v -0.001251476 -0.051415015 -0.001732565
v -0.000627673 -0.051444989 -0.002237097
v -0.000627673 -0.051488567 -0.001739000
v -0.000000000 -0.051469557 -0.002239246
v -0.000000000 -0.051513135 -0.001741149
v -0.004915638 -0.056258585 0.010826634
v -0.004933941 -0.056225255 0.010817891
v -0.004915638 -0.056058332 0.010626384
v -0.004933941 -0.056060690 0.010653328
v -0.005530809 -0.056171242 0.011916911
v -0.005593009 -0.056185637 0.012081473
v -0.005530809 -0.056335803 0.012081473
v -0.005510192 -0.056368705 0.012085319
v -0.005479337 -0.056391176 0.012093416
v -0.005267205 -0.056479044 0.012093416
v -0.005230810 -0.056487657 0.012104534
v -0.005855685 -0.056305651 0.013453227
v -0.005832212 -0.056338169 0.013824899
v -0.005527339 -0.056597896 0.013451896
v -0.005771850 -0.056488253 0.013451755
v -0.005793484 -0.056455817 0.013453227
v -0.005739471 -0.056510027 0.013451896
v -0.005503338 -0.056494534 0.012772656
v -0.005489146 -0.056605686 0.013453625
v -0.005823127 -0.056350753 0.013968769
v -0.005812119 -0.056366004 0.014143059
v -0.005799496 -0.056383491 0.014342936
v -0.005785677 -0.056402635 0.014561744
v -0.005705463 -0.056577753 0.014846961
v -0.005684169 -0.056609716 0.014840087
v -0.005652301 -0.056630783 0.014832142
v -0.005771166 -0.056422736 0.014791500
v -0.005767664 -0.056427587 0.014846961
v -0.005714660 -0.056441803 0.015009471
v -0.005645228 -0.056460429 0.015222345
v -0.005440169 -0.056718651 0.014832142
v -0.005402579 -0.056725606 0.014824335
v -0.009800000 -0.058554780 0.016213452
v -0.009778127 -0.058586296 0.016573688
v -0.009712826 -0.058617353 0.016928669
v -0.009605049 -0.058647495 0.017273219
v -0.009456368 -0.058676288 0.017602317
v -0.009268952 -0.058703311 0.017911164
v -0.009045532 -0.058728162 0.018195251
v -0.008789368 -0.058750492 0.018450441
v -0.009778127 -0.056593906 0.016747998
v -0.009800000 -0.056562390 0.016387764
v -0.009712826 -0.056624964 0.017102981
v -0.009605049 -0.056655105 0.017447531
v -0.009456368 -0.056683898 0.017776629
v -0.009268952 -0.056710921 0.018085476
v -0.009045532 -0.056735773 0.018369563
v -0.008789368 -0.056758102 0.018624753
v -0.008504194 -0.058769964 0.018673010
v -0.008194170 -0.058786295 0.018859714
v -0.007863815 -0.058799256 0.019007828
v -0.007517947 -0.058808647 0.019115197
v -0.008504194 -0.056777574 0.018847322
v -0.008194170 -0.056793906 0.019034024
v -0.007863815 -0.056806866 0.019182140
v -0.007517947 -0.056816258 0.019289507
v -0.005331738 -0.056732252 0.015489785
v -0.005272276 -0.056693949 0.016175101
v -0.005252661 -0.056725465 0.016163079
v -0.005223306 -0.056745853 0.016147429
v -0.005334476 -0.056543782 0.016175101
v -0.005011174 -0.056833722 0.016147429
v -0.004976548 -0.056839887 0.016130533
v -0.005272276 -0.056555863 0.016313184
v -0.007161610 -0.058814339 0.019180248
v -0.006800000 -0.058816247 0.019202039
v -0.007161610 -0.056821950 0.019354559
v -0.006800000 -0.056823857 0.019376349
v -0.005200000 -0.058816247 0.019202039
v -0.005200000 -0.056823857 0.019376349
v -0.004888246 -0.056281693 0.010842063
v -0.004676114 -0.056369562 0.010842063
v -0.004643803 -0.056378935 0.010861827
v -0.004676114 -0.056281693 0.010629931
v -0.004025546 -0.056164812 0.009754792
v -0.004003337 -0.056188468 0.009776462
v -0.003828253 -0.056131113 0.009529745
v -0.003791205 -0.056188468 0.009564330
v -0.003813414 -0.056164812 0.009542660
v -0.003791205 -0.056276336 0.009776462
v -0.003765008 -0.056286350 0.009803589
v -0.004168311 -0.055979602 0.009726457
v -0.004025546 -0.055964559 0.009554539
v -0.004014706 -0.055963520 0.009542660
v -0.003996977 -0.055962387 0.009529745
v -0.003977947 -0.055961184 0.009515972
v -0.004839085 -0.056615356 0.016993186
v -0.004479440 -0.056848016 0.017315114
v -0.004504438 -0.056828223 0.017337603
v -0.004521141 -0.056797106 0.017354196
v -0.004521141 -0.056659020 0.017492279
v -0.004340091 -0.056673840 0.017661648
v -0.004267308 -0.056935884 0.017315114
v -0.004237822 -0.056941338 0.017290149
v -0.004254818 -0.056680817 0.017741421
v -0.004160569 -0.056688532 0.017829591
v -0.003805783 -0.056717571 0.018161489
v -0.003232818 -0.057023592 0.018230319
v -0.003486513 -0.056911532 0.018289862
v -0.003467444 -0.056930840 0.018261826
v -0.003499255 -0.056880742 0.018310159
v -0.003386818 -0.056896135 0.018406076
v -0.003499255 -0.056742657 0.018448243
v -0.003255312 -0.057018708 0.018261826
v -0.003274381 -0.056999400 0.018289862
v -0.003274381 -0.056911532 0.018501995
v -0.003255312 -0.056930840 0.018473959
v -0.004385972 -0.058814183 0.019178443
v -0.004385972 -0.056821793 0.019352755
v -0.003574699 -0.058807995 0.019107735
v -0.002768926 -0.058797710 0.018990155
v -0.003418729 -0.056749135 0.018522292
v -0.003287123 -0.056880742 0.018522292
v -0.003354430 -0.056752216 0.018557506
v -0.003301685 -0.056754746 0.018586392
v -0.003574699 -0.056815606 0.019282047
v -0.002768926 -0.056805320 0.019164467
v -0.002718427 -0.056782693 0.018905820
v -0.002696994 -0.056783717 0.018917559
v -0.000411718 -0.058742661 0.018360946
v -0.000411718 -0.057047993 0.018509211
v -0.000298625 -0.057044078 0.018464454
v -0.001971378 -0.058783356 0.018826101
v -0.002024685 -0.057081480 0.018891970
v -0.002038772 -0.057076998 0.018928079
v -0.002038772 -0.057050660 0.018991662
v -0.001971378 -0.057065636 0.018976383
v -0.001914535 -0.057079777 0.018959856
v -0.001839830 -0.057085615 0.018939251
v -0.001849657 -0.057084847 0.018941961
v -0.002301896 -0.056933984 0.019056408
v -0.002308388 -0.056927636 0.019058309
v -0.002388892 -0.056798480 0.019086296
v -0.002267206 -0.056963097 0.019046670
v -0.002275934 -0.056959372 0.019048806
v -0.002227365 -0.056980092 0.019036926
v -0.001184755 -0.058764987 0.018616129
v -0.001184755 -0.057070319 0.018764393
v -0.000947870 -0.057063479 0.018686196
v -0.000875628 -0.057061393 0.018662348
v -0.000803280 -0.057059303 0.018638467
v -0.000728473 -0.057057142 0.018613772
v -0.007975339 -0.044125285 -0.001596705
v -0.008000000 -0.043499999 -0.001542000
v -0.007975339 -0.042874716 -0.001487295
v -0.007975339 -0.044168863 -0.001098608
v -0.008000000 -0.043543577 -0.001043903
v -0.007975339 -0.042918295 -0.000989197
v -0.007901506 -0.042253286 -0.001432927
v -0.007778959 -0.041639544 -0.001379231
v -0.007608452 -0.041037273 -0.001326539
v -0.007901506 -0.042296864 -0.000934829
v -0.007778959 -0.041683123 -0.000881134
v -0.007608452 -0.041080847 -0.000828442
v -0.007391036 -0.040450182 -0.001275175
v -0.007391036 -0.040493760 -0.000777078
v -0.007128052 -0.039881896 -0.001225457
v -0.007128052 -0.039925475 -0.000727359
v -0.006821121 -0.039335918 -0.001177690
v -0.006821121 -0.039379496 -0.000679592
v -0.006472136 -0.038815610 -0.001132169
v -0.006472136 -0.038859189 -0.000634072
v -0.006083248 -0.038324185 -0.001089175
v -0.006083248 -0.038367763 -0.000591077
v -0.005656854 -0.037864670 -0.001048972
v -0.005656854 -0.037908249 -0.000550875
v -0.005195585 -0.037439901 -0.001011810
v -0.005195585 -0.037483480 -0.000513712
v -0.009800000 -0.030101180 -0.000369755
v -0.009800000 -0.032667581 0.003722140
v -0.004702282 -0.037052494 -0.000977916
v -0.004702282 -0.037096072 -0.000479819
v -0.004179989 -0.036704835 -0.000947500
v -0.004179989 -0.036748413 -0.000449402
v -0.003631924 -0.036399070 -0.000920749
v -0.003631924 -0.036442649 -0.000422652
v -0.003061468 -0.036137089 -0.000897828
v -0.002472136 -0.035920501 -0.000878879
v -0.003061468 -0.036180668 -0.000399731
v -0.002472136 -0.035964079 -0.000380782
v -0.001867563 -0.035750642 -0.000864019
v -0.001867563 -0.035794221 -0.000365921
v -0.001251476 -0.035628561 -0.000853338
v -0.001251476 -0.035672139 -0.000355241
v -0.000627673 -0.035555009 -0.000846903
v -0.000627673 -0.035598587 -0.000348806
v -0.009800000 -0.033948768 0.018366201
v -0.009778127 -0.033980284 0.018726435
v -0.009712826 -0.034011342 0.019081416
v -0.009605049 -0.034041487 0.019425968
v -0.009456368 -0.034070279 0.019755065
v -0.009268952 -0.034097299 0.020063912
v -0.009045532 -0.034122154 0.020347999
v -0.008789368 -0.034144480 0.020603189
v -0.008504194 -0.034163952 0.020825759
v -0.008194170 -0.034180287 0.021012461
v -0.007863815 -0.034193244 0.021160576
v -0.007517947 -0.034202639 0.021267943
v -0.009268952 -0.031905670 0.020255655
v -0.009045532 -0.031930525 0.020539742
v -0.008789368 -0.031952851 0.020794932
v -0.009800000 -0.031757142 0.018557943
v -0.009778127 -0.031788658 0.018918179
v -0.009712826 -0.031819712 0.019273160
v -0.009605049 -0.031849857 0.019617710
v -0.009456368 -0.031878650 0.019946808
v -0.008504194 -0.031972323 0.021017501
v -0.008194170 -0.031988658 0.021204203
v -0.007863815 -0.032001618 0.021352319
v -0.007517947 -0.032011010 0.021459688
v -0.007161610 -0.034208331 0.021332996
v -0.006800000 -0.034210235 0.021354785
v -0.005200000 -0.034210235 0.021354785
v -0.007161610 -0.032016702 0.021524739
v -0.006800000 -0.032018609 0.021546528
v -0.005200000 -0.032018609 0.021546528
v -0.002725101 -0.033430334 0.012440475
v -0.002724644 -0.033431437 0.012439958
v -0.002725101 -0.033431474 0.012440375
v -0.003724314 -0.033595383 0.014326987
v -0.003724314 -0.033596519 0.014326887
v -0.003786060 -0.033632815 0.014754812
v -0.003786060 -0.033633951 0.014754713
v -0.003798450 -0.033670612 0.015186860
v -0.003798450 -0.033671752 0.015186761
v -0.003254126 -0.033490129 0.013123916
v -0.003254126 -0.033491265 0.013123817
v -0.003456602 -0.033523574 0.013506189
v -0.003456602 -0.033524711 0.013506089
v -0.003614015 -0.033558812 0.013908964
v -0.003614015 -0.033559948 0.013908864
v -0.003009229 -0.033458915 0.012767128
v -0.003009229 -0.033460051 0.012767028
v -0.002405447 -0.033404764 0.012148215
v -0.002405447 -0.033405904 0.012148116
v -0.002404945 -0.033405870 0.012147753
v -0.002054435 -0.033382539 0.011894161
v -0.002054435 -0.033383679 0.011894061
v -0.002053896 -0.033383649 0.011893758
v -0.001676640 -0.033363946 0.011681622
v -0.001676640 -0.033365082 0.011681522
v -0.001276988 -0.033349223 0.011513369
v -0.001276988 -0.033350363 0.011513270
v -0.001276393 -0.033350348 0.011513095
v -0.000860688 -0.033338569 0.011391599
v -0.000860688 -0.033339709 0.011391499
v -0.000433167 -0.033332121 0.011317895
v -0.000433167 -0.033333261 0.011317795
v -0.000432548 -0.033333257 0.011317760
v -0.000000000 -0.033329964 0.011293219
v -0.000000000 -0.033331100 0.011293120
v -0.003761322 -0.033708289 0.015617497
v -0.003761322 -0.033709425 0.015617398
v -0.003675158 -0.033745348 0.016041113
v -0.003675158 -0.033746488 0.016041012
v -0.003541083 -0.033781312 0.016452182
v -0.003541083 -0.033782452 0.016452083
v -0.003360845 -0.033815712 0.016845347
v -0.003360845 -0.033816848 0.016845249
v -0.003136793 -0.033848096 0.017215481
v -0.003136793 -0.033849232 0.017215382
v -0.002871848 -0.033878040 0.017557761
v -0.002871848 -0.033879176 0.017557662
v -0.002569465 -0.033905160 0.017867722
v -0.002569465 -0.033906296 0.017867623
v -0.004385972 -0.034208171 0.021331191
v -0.003574699 -0.034201987 0.021260483
v -0.002768926 -0.034191698 0.021142904
v -0.004385972 -0.032016546 0.021522934
v -0.003574699 -0.032010358 0.021452226
v -0.002768926 -0.032000072 0.021334646
v -0.002233584 -0.033929095 0.018141326
v -0.002233584 -0.033930231 0.018141227
v -0.001868585 -0.033949539 0.018375004
v -0.001868585 -0.033950675 0.018374905
v -0.001479226 -0.033966225 0.018565709
v -0.001479226 -0.033967361 0.018565610
v -0.001971378 -0.034177348 0.020978849
v -0.001070584 -0.033978932 0.018710958
v -0.001070584 -0.033980068 0.018710859
v -0.000647984 -0.033987496 0.018808855
v -0.000647984 -0.033988632 0.018808756
v -0.000216937 -0.033991806 0.018858125
v -0.000217553 -0.033992939 0.018857956
v -0.000216937 -0.033992942 0.018858027
v -0.001184755 -0.034158975 0.020768877
v -0.000411718 -0.034136649 0.020513695
v -0.001971378 -0.031985719 0.021170592
v -0.001184755 -0.031967349 0.020960620
v -0.000411718 -0.031945024 0.020705437
v 0.000000000 -0.056156430 0.008318590
v 0.000000000 -0.056145512 0.008281129
v 0.000000000 -0.056033220 0.008038568
v 0.000000000 -0.056057643 0.008068997
v 0.000000000 -0.055999011 0.008019800
v 0.000000000 -0.055823941 0.007947285
v 0.001377311 -0.056160677 0.008454463
v 0.001367794 -0.056171488 0.008490724
v 0.001377311 -0.056072809 0.008242331
v 0.001385379 -0.056048475 0.008212917
v 0.001390770 -0.056014325 0.008194827
v 0.001390770 -0.055839255 0.008122310
v 0.001824141 -0.055854209 0.008293241
v 0.002022247 -0.055861045 0.008371379
v 0.002254117 -0.055869050 0.008462834
v 0.002668081 -0.056205217 0.008963570
v 0.002649645 -0.056215722 0.008996314
v 0.002694153 -0.055884235 0.008636395
v 0.002668081 -0.056117348 0.008751438
v 0.002683710 -0.056093276 0.008725005
v 0.002694153 -0.056059301 0.008708909
v 0.002862876 -0.055890579 0.008708909
v 0.002931586 -0.055894930 0.008758640
v 0.003097137 -0.055905409 0.008878461
v 0.003288780 -0.055917546 0.009017169
v 0.003460676 -0.055928431 0.009141583
v 0.003658424 -0.055940952 0.009284709
v 0.000627673 -0.051444989 -0.002237097
v 0.000627673 -0.051488567 -0.001739000
v 0.001251476 -0.051371440 -0.002230662
v 0.001251476 -0.051415015 -0.001732565
v 0.001867563 -0.051249359 -0.002219981
v 0.001867563 -0.051292937 -0.001721884
v 0.002472136 -0.051079500 -0.002205121
v 0.003061468 -0.050862912 -0.002186172
v 0.002472136 -0.051123079 -0.001707023
v 0.003061468 -0.050906491 -0.001688074
v 0.003631924 -0.050600927 -0.002163251
v 0.003631924 -0.050644506 -0.001665154
v 0.004179989 -0.050295163 -0.002136500
v 0.004179989 -0.050338741 -0.001638403
v 0.004702282 -0.049947508 -0.002106084
v 0.004702282 -0.049991086 -0.001607987
v 0.009800000 -0.056898817 -0.002714245
v 0.008866987 -0.057295378 0.001818441
v 0.008946447 -0.057286352 0.001715281
v 0.009050000 -0.057279427 0.001636124
v 0.009170591 -0.057275075 0.001586364
v 0.009300000 -0.057273589 0.001569392
v 0.009800000 -0.057273589 0.001569392
v 0.008817037 -0.057305887 0.001938572
v 0.008800000 -0.057317168 0.002067489
v 0.009050000 -0.055287037 0.001810436
v 0.009170591 -0.055282686 0.001760676
v 0.009300000 -0.055281200 0.001743704
v 0.008866987 -0.055302989 0.001992752
v 0.008817037 -0.055313498 0.002112884
v 0.008800000 -0.055324778 0.002241801
v 0.008946447 -0.055293962 0.001889593
v 0.008800000 -0.057596065 0.005255313
v 0.008776315 -0.057667013 0.006066242
v 0.008800000 -0.055603676 0.005429624
v 0.008776315 -0.055674624 0.006240554
v 0.008211853 -0.057946019 0.009255278
v 0.008422628 -0.057877459 0.008471648
v 0.008422628 -0.055885069 0.008645960
v 0.008705337 -0.057737719 0.006874428
v 0.008587308 -0.057807948 0.007677136
v 0.008705337 -0.055745330 0.007048740
v 0.008587308 -0.055815559 0.007851447
v 0.005195585 -0.049560100 -0.002072190
v 0.005195585 -0.049603678 -0.001574093
v 0.005656854 -0.049135327 -0.002035028
v 0.005656854 -0.049178906 -0.001536930
v 0.006083248 -0.048675813 -0.001994825
v 0.006083248 -0.048719391 -0.001496728
v 0.006472136 -0.048184387 -0.001951831
v 0.006472136 -0.048227966 -0.001453734
v 0.006821121 -0.047664084 -0.001906310
v 0.006821121 -0.047707662 -0.001408213
v 0.007128052 -0.047161680 -0.001360446
v 0.007128052 -0.047118105 -0.001858543
v 0.007391036 -0.046549819 -0.001808825
v 0.007391036 -0.046593394 -0.001310727
v 0.007608452 -0.045962729 -0.001757461
v 0.007608452 -0.046006307 -0.001259364
v 0.007778959 -0.045360457 -0.001704769
v 0.007778959 -0.045404036 -0.001206672
v 0.007901506 -0.044746712 -0.001651073
v 0.007901506 -0.044790290 -0.001152976
v 0.003791205 -0.056188468 0.009564330
v 0.003813414 -0.056164812 0.009542660
v 0.003791205 -0.056276336 0.009776462
v 0.003828253 -0.056131113 0.009529745
v 0.003908375 -0.056176640 0.009659560
v 0.003765008 -0.056286350 0.009803589
v 0.004003337 -0.056188468 0.009776462
v 0.004025546 -0.056164812 0.009754792
v 0.003849410 -0.055953044 0.009422941
v 0.003996975 -0.055962391 0.009529745
v 0.004014705 -0.055963520 0.009542660
v 0.004025546 -0.055964559 0.009554540
v 0.004053268 -0.055967480 0.009587922
v 0.004193340 -0.055982236 0.009756596
v 0.004643803 -0.056378935 0.010861827
v 0.004676114 -0.056369562 0.010842063
v 0.004676114 -0.056281693 0.010629931
v 0.004888246 -0.056281693 0.010842063
v 0.004361178 -0.055999920 0.009958705
v 0.004559842 -0.056020848 0.010197937
v 0.004690274 -0.056034591 0.010355002
v 0.004407383 -0.058483593 0.015399793
v 0.000345117 -0.058716454 0.018061422
v 0.000345117 -0.057021789 0.018209685
v 0.001083189 -0.058686458 0.017718561
v 0.000455407 -0.057017304 0.018158451
v 0.000481176 -0.057016257 0.018146480
v 0.000616704 -0.057010751 0.018083522
v 0.000766351 -0.057004668 0.018014006
v 0.000938138 -0.056997687 0.017934207
v 0.001146122 -0.056988835 0.017833021
v 0.001083189 -0.056991793 0.017866826
v 0.001800000 -0.058652773 0.017333530
v 0.001420492 -0.056975942 0.017685644
v 0.001800000 -0.056958105 0.017481795
v 0.001808645 -0.056957640 0.017476482
v 0.002493126 -0.058615513 0.016907632
v 0.003160220 -0.058574799 0.016442304
v 0.003160220 -0.056880131 0.016590569
v 0.002493126 -0.056920845 0.017055897
v 0.002504008 -0.056920178 0.017048307
v 0.003799027 -0.058530778 0.015939124
v 0.003799027 -0.056836110 0.016087389
v 0.004407383 -0.056788925 0.015548058
v 0.004915638 -0.056258585 0.010826634
v 0.004933941 -0.056225255 0.010817891
v 0.004918030 -0.056058642 0.010629903
v 0.004915638 -0.056058332 0.010626383
v 0.004933941 -0.056060690 0.010653327
v 0.004999639 -0.056072857 0.010792410
v 0.005412582 -0.056149345 0.011666622
v 0.005478496 -0.056161553 0.011806165
v 0.005230810 -0.056487657 0.012104534
v 0.005267205 -0.056479044 0.012093416
v 0.005479337 -0.056391176 0.012093416
v 0.005510192 -0.056368705 0.012085319
v 0.005156528 -0.056101918 0.011124549
v 0.005230323 -0.056115586 0.011280776
v 0.005530809 -0.056171242 0.011916911
v 0.005530809 -0.056335803 0.012081473
v 0.005593009 -0.056185637 0.012081473
v 0.005629187 -0.056202166 0.012270400
v 0.005650894 -0.056212086 0.012383759
v 0.007310857 -0.058143683 0.011514591
v 0.006924356 -0.058206156 0.012228674
v 0.007310857 -0.056151293 0.011688903
v 0.006924356 -0.056213766 0.012402986
v 0.006029725 -0.058324706 0.013583719
v 0.004983231 -0.058433406 0.014826137
v 0.005524622 -0.058380384 0.014220095
v 0.005489146 -0.056605686 0.013453625
v 0.005757201 -0.056260653 0.012938919
v 0.005772003 -0.056267418 0.013016222
v 0.005527339 -0.056597896 0.013451896
v 0.005739471 -0.056510027 0.013451896
v 0.005771850 -0.056488253 0.013451755
v 0.005793484 -0.056455817 0.013453227
v 0.005855686 -0.056305651 0.013453227
v 0.005840504 -0.056326680 0.013693608
v 0.005839050 -0.056328695 0.013716637
v 0.006029725 -0.056332316 0.013758030
v 0.005424282 -0.056695540 0.014480682
v 0.005434881 -0.056692541 0.014468989
v 0.005465218 -0.056683950 0.014435520
v 0.004983231 -0.056738734 0.014974401
v 0.005524622 -0.056655388 0.014371012
v 0.005742021 -0.056528270 0.014106138
v 0.005712126 -0.056559455 0.014141361
v 0.005729631 -0.056546737 0.014120252
v 0.005753043 -0.056511842 0.014093583
v 0.005694592 -0.056572195 0.014162507
v 0.005819726 -0.056355465 0.014022606
v 0.006496829 -0.058266565 0.012919163
v 0.006496829 -0.056274176 0.013093475
v 0.007955696 -0.058013391 0.010025373
v 0.007655025 -0.058079354 0.010779328
v 0.007955696 -0.056021001 0.010199685
v 0.008211853 -0.055953629 0.009429590
v 0.007655025 -0.056086965 0.010953640
v 0.000000000 -0.035530441 -0.000844754
v 0.000000000 -0.035574019 -0.000346656
v 0.000627673 -0.035555009 -0.000846903
v 0.000627673 -0.035598587 -0.000348806
v 0.001251476 -0.035628561 -0.000853338
v 0.001251476 -0.035672139 -0.000355241
v 0.001867563 -0.035750642 -0.000864019
v 0.001867563 -0.035794221 -0.000365921
v 0.002472136 -0.035920501 -0.000878879
v 0.003061468 -0.036137089 -0.000897828
v 0.002472136 -0.035964079 -0.000380782
v 0.003061468 -0.036180668 -0.000399731
v 0.003631924 -0.036399070 -0.000920749
v 0.003631924 -0.036442649 -0.000422652
v 0.004179989 -0.036704835 -0.000947500
v 0.004179989 -0.036748413 -0.000449402
v 0.004702282 -0.037052494 -0.000977916
v 0.004702282 -0.037096072 -0.000479819
v 0.005195585 -0.037439901 -0.001011810
v 0.005195585 -0.037483480 -0.000513712
v 0.006083248 -0.038324185 -0.001089175
v 0.006083248 -0.038367763 -0.000591077
v 0.005656854 -0.037864670 -0.001048972
v 0.005656854 -0.037908249 -0.000550875
v 0.007128052 -0.039881896 -0.001225457
v 0.006821121 -0.039335918 -0.001177690
v 0.006821121 -0.039379496 -0.000679592
v 0.007128052 -0.039925475 -0.000727359
v 0.006472136 -0.038815610 -0.001132169
v 0.006472136 -0.038859189 -0.000634072
v 0.007975339 -0.044125285 -0.001596705
v 0.008000000 -0.043499999 -0.001542000
v 0.007975339 -0.042874716 -0.001487295
v 0.007975339 -0.044168863 -0.001098608
v 0.008000000 -0.043543577 -0.001043903
v 0.007975339 -0.042918295 -0.000989197
v 0.007901506 -0.042253286 -0.001432927
v 0.007608452 -0.041037273 -0.001326539
v 0.007778959 -0.041639544 -0.001379231
v 0.007901506 -0.042296864 -0.000934829
v 0.007608452 -0.041080847 -0.000828442
v 0.007778959 -0.041683123 -0.000881134
v 0.007391036 -0.040450182 -0.001275175
v 0.007391036 -0.040493760 -0.000777078
v 0.009800000 -0.030101180 -0.000369755
v 0.008866987 -0.032689366 0.003971189
v 0.008817037 -0.032699879 0.004091320
v 0.008866987 -0.032490131 0.003988620
v 0.008817037 -0.032500640 0.004108751
v 0.008946447 -0.032680344 0.003868029
v 0.008946447 -0.032481104 0.003885460
v 0.009050000 -0.032673419 0.003788872
v 0.009170591 -0.032669064 0.003739112
v 0.009050000 -0.032474179 0.003806303
v 0.009170591 -0.032469824 0.003756543
v 0.008800000 -0.032711156 0.004220237
v 0.009300000 -0.032667581 0.003722140
v 0.008946447 -0.030488715 0.004059772
v 0.009050000 -0.030481789 0.003980615
v 0.009170591 -0.030477436 0.003930855
v 0.008866987 -0.030497739 0.004162931
v 0.008817037 -0.030508250 0.004283063
v 0.008800000 -0.030519528 0.004411980
v 0.009300000 -0.030475952 0.003913883
v 0.009800000 -0.030475952 0.003913883
v 0.008800000 -0.032990057 0.007408061
v 0.008776315 -0.033061001 0.008218990
v 0.008705337 -0.033131711 0.009027177
v 0.008800000 -0.030798428 0.007599803
v 0.008776315 -0.030869374 0.008410733
v 0.008705337 -0.030940082 0.009218919
v 0.000000618 -0.033331104 0.011293155
v 0.000433167 -0.033332121 0.011317895
v 0.000433167 -0.033333261 0.011317795
v 0.000860688 -0.033338569 0.011391599
v 0.000860688 -0.033339709 0.011391499
v 0.000861283 -0.033339724 0.011391673
v 0.001276988 -0.033349223 0.011513369
v 0.001276988 -0.033350363 0.011513270
v 0.001676640 -0.033363946 0.011681622
v 0.001676640 -0.033365082 0.011681522
v 0.001677179 -0.033365108 0.011681826
v 0.002054435 -0.033382539 0.011894161
v 0.002054435 -0.033383679 0.011894061
v 0.002054936 -0.033383708 0.011894424
v 0.002405447 -0.033404764 0.012148215
v 0.002405905 -0.033405941 0.012148534
v 0.002405447 -0.033405904 0.012148116
v 0.002725101 -0.033430334 0.012440475
v 0.002725101 -0.033431474 0.012440375
v 0.003009229 -0.033458915 0.012767128
v 0.003009229 -0.033460051 0.012767028
v 0.003254126 -0.033490129 0.013123916
v 0.003254126 -0.033491265 0.013123817
v 0.003456602 -0.033523574 0.013506189
v 0.003456602 -0.033524711 0.013506089
v 0.003614015 -0.033558812 0.013908964
v 0.003614015 -0.033559948 0.013908864
v 0.003724314 -0.033595383 0.014326987
v 0.003724314 -0.033596519 0.014326887
v 0.003786060 -0.033632815 0.014754812
v 0.003786060 -0.033633951 0.014754713
v 0.003798450 -0.033670612 0.015186860
v 0.003798450 -0.033671752 0.015186761
v 0.001868585 -0.033949539 0.018375004
v 0.001868585 -0.033950675 0.018374905
v 0.002233584 -0.033929095 0.018141326
v 0.002233584 -0.033930231 0.018141227
v 0.000216937 -0.033991806 0.018858125
v 0.000216937 -0.033992942 0.018858027
v 0.000647984 -0.033987496 0.018808855
v 0.000647369 -0.033988640 0.018808825
v 0.000647984 -0.033988632 0.018808756
v 0.001070584 -0.033978932 0.018710958
v 0.001070584 -0.033980068 0.018710859
v 0.001083189 -0.034080449 0.019871309
v 0.000345117 -0.034110446 0.020214168
v 0.001479226 -0.033966225 0.018565709
v 0.001479226 -0.033967361 0.018565610
v 0.001800000 -0.034046762 0.019486278
v 0.000345117 -0.031918816 0.020405913
v 0.001083189 -0.031888820 0.020063052
v 0.001800000 -0.031855136 0.019678021
v 0.003360845 -0.033815712 0.016845347
v 0.003360845 -0.033816848 0.016845249
v 0.003541083 -0.033781312 0.016452182
v 0.003541083 -0.033782452 0.016452083
v 0.002871848 -0.033878040 0.017557761
v 0.002871848 -0.033879176 0.017557662
v 0.002569465 -0.033905160 0.017867722
v 0.002569465 -0.033906296 0.017867623
v 0.003136793 -0.033848096 0.017215481
v 0.003136793 -0.033849232 0.017215382
v 0.003761322 -0.033708289 0.015617497
v 0.003761322 -0.033709425 0.015617398
v 0.003675158 -0.033745348 0.016041113
v 0.003675158 -0.033746488 0.016041012
v 0.003799027 -0.033924770 0.018091872
v 0.004407383 -0.033877581 0.017552542
v 0.002493126 -0.034009501 0.019060381
v 0.003160220 -0.033968791 0.018595053
v 0.003799027 -0.031733140 0.018283615
v 0.004407383 -0.031685956 0.017744284
v 0.002493126 -0.031817872 0.019252123
v 0.003160220 -0.031777162 0.018786795
v 0.007310857 -0.033537671 0.013667339
v 0.006496829 -0.033660557 0.015071912
v 0.006924356 -0.033600148 0.014381423
v 0.007310857 -0.031346042 0.013859082
v 0.006496829 -0.031468928 0.015263654
v 0.006924356 -0.031408519 0.014573165
v 0.008422628 -0.033271447 0.010624397
v 0.007955696 -0.033407383 0.012178121
v 0.008211853 -0.033340007 0.011408026
v 0.008422628 -0.031079819 0.010816139
v 0.007955696 -0.031215753 0.012369864
v 0.008211853 -0.031148380 0.011599769
v 0.008587308 -0.033201937 0.009829883
v 0.008587308 -0.031010309 0.010021627
v 0.007655025 -0.033473346 0.012932076
v 0.007655025 -0.031281717 0.013123819
v 0.004983231 -0.033827394 0.016978884
v 0.006029725 -0.033718698 0.015736466
v 0.005524622 -0.033774372 0.016372843
v 0.006029725 -0.031527068 0.015928209
v 0.005524622 -0.031582743 0.016564585
v 0.004983231 -0.031635765 0.017170627
f 1 13 17
f 1 17 44
f 1 44 46
f 1 46 48
f 1 48 50
f 1 50 51
f 1 94 2
f 2 31 28
f 2 28 29
f 2 29 35
f 2 65 64
f 2 64 143
f 2 66 65
f 2 67 66
f 2 73 67
f 2 143 144
f 2 145 146
f 2 144 145
f 2 146 147
f 2 147 23
f 2 23 24
f 2 24 25
f 2 25 30
f 2 30 31
f 1 205 204
f 1 3 22
f 1 20 11
f 1 11 15
f 1 22 20
f 1 5 7
f 1 9 5
f 1 7 3
f 1 204 9
f 1 2 231
f 3 7 4
f 5 8 7
f 5 6 8
f 4 7 8
f 5 9 6
f 6 9 10
f 9 204 10
f 1 15 13
f 11 16 15
f 11 12 16
f 13 15 14
f 14 15 16
f 13 18 17
f 13 14 18
f 17 18 45
f 20 22 21
f 19 21 22
f 3 19 22
f 3 4 19
f 11 20 12
f 12 20 21
f 1 51 54
f 1 54 56
f 1 56 58
f 1 58 60
f 1 60 395
f 2 35 36
f 2 36 41
f 2 41 357
f 2 357 363
f 1 510 463
f 44 47 46
f 44 45 47
f 46 49 48
f 46 47 49
f 17 45 44
f 48 52 50
f 48 49 52
f 50 53 51
f 50 52 53
f 4 8 437
f 6 439 8
f 6 10 441
f 51 55 54
f 51 53 55
f 54 57 56
f 54 55 57
f 45 394 47
f 14 16 427
f 12 429 16
f 18 423 45
f 14 425 18
f 56 59 58
f 56 57 59
f 52 388 53
f 53 387 55
f 47 392 49
f 49 390 52
f 58 61 60
f 58 59 61
f 55 384 57
f 57 382 59
f 59 380 61
f 12 21 431
f 19 432 21
f 4 435 19
f 2 94 103
f 2 103 73
f 1 466 94
f 103 74 73
f 103 81 74
f 103 82 81
f 103 83 82
f 103 84 83
f 103 88 84
f 103 89 88
f 103 90 89
f 94 96 95
f 94 97 96
f 95 96 102
f 94 95 103
f 95 102 103
f 96 104 102
f 94 98 97
f 94 99 98
f 96 97 104
f 97 98 105
f 94 100 99
f 94 101 100
f 98 99 106
f 99 100 107
f 97 105 104
f 98 106 105
f 99 107 106
f 94 110 101
f 94 111 110
f 94 112 111
f 100 101 109
f 100 108 107
f 100 109 108
f 102 129 103
f 102 104 129
f 104 105 129
f 105 106 129
f 94 113 112
f 94 126 113
f 94 127 126
f 106 107 129
f 101 110 109
f 109 110 114
f 110 111 114
f 111 112 115
f 111 115 114
f 112 116 115
f 112 113 116
f 113 126 117
f 113 117 116
f 107 108 129
f 108 109 129
f 109 114 129
f 114 115 129
f 115 116 129
f 116 117 129
f 94 130 127
f 94 169 130
f 103 91 90
f 103 122 91
f 103 125 122
f 103 129 125
f 94 171 169
f 94 172 171
f 129 148 125
f 129 152 148
f 126 127 128
f 117 126 128
f 127 129 128
f 127 131 129
f 117 128 129
f 127 130 131
f 130 169 131
f 129 131 152
f 1 474 466
f 1 478 474
f 1 479 478
f 1 483 479
f 1 463 483
f 94 184 172
f 94 198 184
f 94 181 198
f 131 153 152
f 131 156 153
f 131 157 156
f 170 158 157
f 94 464 181
f 94 466 464
f 131 169 170
f 169 171 170
f 170 171 177
f 131 170 157
f 170 164 158
f 170 173 164
f 170 177 173
f 171 172 177
f 172 184 178
f 172 178 177
f 177 175 173
f 177 176 175
f 177 178 176
f 178 179 176
f 178 180 179
f 178 194 180
f 181 464 183
f 181 182 203
f 181 183 182
f 184 193 194
f 184 196 192
f 184 192 193
f 184 195 196
f 184 197 195
f 178 184 194
f 184 187 197
f 184 188 187
f 184 189 188
f 184 198 189
f 198 191 189
f 198 190 191
f 198 199 190
f 181 199 198
f 181 200 199
f 181 201 200
f 181 202 201
f 181 203 202
f 1 230 205
f 204 208 207
f 204 205 208
f 205 206 209
f 10 204 207
f 206 210 209
f 205 209 208
f 210 211 213
f 209 210 213
f 211 214 213
f 211 212 214
f 212 215 214
f 1 231 230
f 205 230 206
f 212 216 215
f 215 216 217
f 206 230 210
f 210 230 211
f 211 230 212
f 216 218 217
f 217 218 219
f 218 220 219
f 219 220 221
f 220 222 221
f 221 222 223
f 222 224 223
f 223 224 225
f 224 226 225
f 225 226 227
f 226 228 227
f 227 228 229
f 228 232 229
f 212 230 216
f 216 230 218
f 218 230 220
f 220 230 222
f 222 230 224
f 224 230 226
f 226 230 228
f 228 230 232
f 230 234 232
f 230 236 234
f 230 238 236
f 230 239 238
f 230 231 263
f 10 207 574
f 207 208 575
f 208 209 576
f 209 213 580
f 213 214 582
f 214 215 581
f 215 217 584
f 217 219 568
f 2 597 231
f 219 221 567
f 221 223 570
f 223 225 562
f 225 227 564
f 227 229 560
f 229 232 233
f 232 234 233
f 233 234 235
f 234 236 235
f 235 236 237
f 230 242 239
f 230 244 242
f 230 246 244
f 236 238 237
f 237 238 240
f 238 239 240
f 239 241 240
f 230 541 246
f 239 242 241
f 241 242 243
f 229 233 558
f 233 235 556
f 235 237 554
f 242 244 243
f 243 244 245
f 244 246 245
f 245 246 247
f 237 240 552
f 240 241 551
f 241 243 548
f 243 245 546
f 246 541 247
f 247 541 542
f 245 247 544
f 231 298 295
f 231 301 298
f 231 303 301
f 231 306 303
f 231 308 306
f 231 311 308
f 231 587 311
f 231 289 248
f 231 248 263
f 231 287 289
f 231 293 287
f 231 278 293
f 231 295 278
f 230 263 662
f 248 289 291
f 248 319 249
f 249 319 250
f 250 319 251
f 251 319 252
f 252 319 253
f 249 250 264
f 250 251 265
f 248 249 263
f 251 252 266
f 252 253 267
f 249 264 263
f 250 265 264
f 251 266 265
f 252 267 266
f 253 254 260
f 253 260 267
f 254 255 262
f 255 256 262
f 254 261 260
f 254 262 261
f 263 268 269
f 263 269 270
f 256 268 262
f 263 264 265
f 263 265 266
f 263 266 267
f 260 263 267
f 260 261 263
f 261 262 263
f 262 268 263
f 256 257 268
f 257 258 269
f 263 270 271
f 263 271 275
f 257 269 268
f 258 270 269
f 258 259 270
f 259 272 271
f 263 275 276
f 259 271 270
f 248 291 281
f 248 281 283
f 248 283 285
f 248 285 313
f 248 313 315
f 248 315 317
f 248 317 319
f 253 319 254
f 254 319 255
f 255 319 256
f 256 319 257
f 257 319 258
f 258 319 259
f 259 319 272
f 272 319 273
f 273 321 274
f 272 273 275
f 263 276 277
f 271 272 275
f 273 276 275
f 263 277 330
f 273 277 276
f 273 274 277
f 263 330 331
f 274 327 277
f 263 331 332
f 285 314 313
f 278 279 280
f 278 295 279
f 295 296 279
f 281 291 282
f 281 282 284
f 281 284 283
f 283 284 286
f 283 286 285
f 285 286 314
f 287 293 288
f 293 294 288
f 287 290 289
f 289 292 291
f 289 290 292
f 287 288 290
f 278 294 293
f 278 280 294
f 291 292 282
f 295 298 297
f 298 299 297
f 295 297 296
f 298 300 299
f 298 301 300
f 301 303 302
f 303 304 302
f 303 305 304
f 301 302 300
f 303 306 305
f 306 307 305
f 306 308 307
f 308 309 307
f 308 310 309
f 308 311 310
f 311 312 310
f 230 685 682
f 230 683 707
f 230 682 683
f 230 662 663
f 230 663 684
f 230 684 685
f 313 314 316
f 313 316 315
f 273 319 321
f 315 316 318
f 315 318 317
f 317 318 320
f 317 320 319
f 319 320 322
f 319 322 321
f 321 322 324
f 321 324 323
f 323 324 326
f 323 326 325
f 325 326 334
f 274 321 323
f 274 323 327
f 323 325 327
f 325 333 328
f 325 328 327
f 328 333 329
f 263 332 349
f 263 349 350
f 277 327 330
f 327 328 330
f 328 331 330
f 263 350 351
f 328 329 331
f 329 339 332
f 329 332 331
f 263 351 661
f 263 661 662
f 325 334 333
f 333 334 336
f 333 336 335
f 335 336 338
f 335 338 337
f 329 333 335
f 337 338 341
f 335 337 339
f 337 340 347
f 329 335 339
f 337 347 339
f 337 341 340
f 340 341 343
f 340 343 342
f 340 342 347
f 342 343 345
f 342 345 344
f 344 345 346
f 344 346 650
f 342 344 348
f 344 657 348
f 342 348 347
f 332 339 349
f 339 347 349
f 347 350 349
f 347 348 350
f 348 351 350
f 348 657 351
f 1 395 396
f 1 396 402
f 1 402 403
f 1 403 411
f 1 411 412
f 2 410 404
f 2 404 405
f 2 405 406
f 2 407 410
f 2 408 407
f 2 409 408
f 60 379 395
f 379 381 395
f 381 383 395
f 383 385 395
f 2 363 409
f 1 419 416
f 1 415 536
f 1 416 415
f 1 536 537
f 1 506 534
f 1 509 511
f 1 511 510
f 1 534 509
f 1 505 506
f 1 537 505
f 1 418 419
f 1 412 418
f 409 364 365
f 409 363 364
f 409 365 366
f 413 366 369
f 413 369 373
f 413 373 374
f 60 380 379
f 60 61 380
f 59 382 380
f 379 382 381
f 57 384 382
f 379 380 382
f 55 387 384
f 53 388 387
f 52 390 388
f 381 384 383
f 381 382 384
f 49 392 390
f 47 394 392
f 45 423 394
f 383 387 385
f 383 384 387
f 18 425 423
f 14 427 425
f 16 429 427
f 12 431 429
f 21 432 431
f 385 388 386
f 385 387 388
f 386 388 390
f 386 390 389
f 389 392 391
f 389 390 392
f 391 392 394
f 391 394 393
f 393 394 423
f 19 435 432
f 4 437 435
f 8 439 437
f 6 441 439
f 10 574 441
f 2 406 597
f 385 386 395
f 386 389 395
f 389 391 395
f 391 393 395
f 393 422 395
f 395 422 424
f 395 397 396
f 395 398 397
f 395 399 398
f 395 400 399
f 395 401 400
f 396 397 410
f 397 398 404
f 398 399 405
f 397 404 410
f 398 405 404
f 399 400 406
f 400 401 406
f 399 406 405
f 396 407 402
f 402 408 403
f 403 409 411
f 402 407 408
f 403 408 409
f 396 410 407
f 409 366 413
f 413 374 375
f 413 375 376
f 414 376 377
f 420 377 378
f 420 378 450
f 421 450 451
f 421 451 452
f 421 452 453
f 421 453 454
f 421 454 455
f 413 376 414
f 414 377 420
f 420 450 421
f 417 460 539
f 417 421 455
f 409 413 411
f 411 414 412
f 411 413 414
f 416 419 417
f 415 416 539
f 417 419 421
f 416 417 539
f 412 420 418
f 418 421 419
f 412 414 420
f 418 420 421
f 393 423 422
f 422 423 425
f 422 425 424
f 424 425 427
f 424 427 426
f 395 424 426
f 426 427 429
f 426 429 428
f 428 429 431
f 428 431 430
f 430 432 433
f 430 431 432
f 433 435 434
f 432 435 433
f 395 426 428
f 395 428 430
f 395 430 433
f 395 433 434
f 395 434 436
f 395 436 438
f 395 438 440
f 395 440 571
f 395 571 572
f 395 605 401
f 401 597 406
f 434 435 437
f 434 437 436
f 436 437 439
f 436 439 438
f 438 439 441
f 438 441 440
f 440 441 574
f 463 510 485
f 510 526 485
f 464 465 183
f 464 467 465
f 464 466 467
f 466 468 467
f 466 469 468
f 466 470 469
f 466 471 470
f 466 473 471
f 466 472 473
f 466 474 472
f 474 475 472
f 474 476 475
f 474 477 476
f 474 478 477
f 478 481 477
f 478 479 482
f 479 480 482
f 479 483 480
f 483 484 480
f 478 482 481
f 463 484 483
f 463 485 484
f 417 455 460
f 539 460 461
f 539 461 462
f 538 462 489
f 538 489 488
f 538 488 490
f 538 490 491
f 507 499 492
f 507 492 493
f 507 493 500
f 508 502 503
f 508 503 504
f 540 491 498
f 540 498 499
f 505 508 506
f 538 539 462
f 538 491 540
f 507 500 502
f 507 502 508
f 507 540 499
f 505 507 508
f 509 529 532
f 509 530 529
f 509 528 530
f 509 531 528
f 509 533 531
f 510 511 526
f 511 527 525
f 511 523 526
f 511 524 523
f 511 525 524
f 509 527 511
f 509 532 527
f 535 504 513
f 535 513 514
f 535 514 519
f 509 522 533
f 522 519 520
f 522 520 521
f 522 521 533
f 506 535 534
f 509 534 522
f 508 504 535
f 522 534 535
f 522 535 519
f 506 508 535
f 536 540 537
f 415 538 536
f 505 537 507
f 536 538 540
f 415 539 538
f 507 537 540
f 217 568 584
f 219 567 568
f 221 570 567
f 227 560 564
f 229 558 560
f 223 562 570
f 225 564 562
f 207 575 574
f 208 576 575
f 209 580 576
f 213 582 580
f 214 581 582
f 215 584 581
f 541 543 542
f 542 543 544
f 247 542 544
f 245 544 546
f 243 546 548
f 235 554 556
f 543 545 544
f 544 545 546
f 240 551 552
f 241 548 551
f 237 552 554
f 233 556 558
f 545 547 546
f 546 547 548
f 547 549 548
f 548 549 551
f 230 585 541
f 549 550 551
f 550 552 551
f 550 553 552
f 552 553 554
f 541 585 543
f 553 555 554
f 554 555 556
f 555 557 556
f 556 557 558
f 557 559 558
f 543 585 545
f 545 585 547
f 547 585 549
f 230 601 585
f 230 602 601
f 230 603 602
f 230 695 699
f 230 696 697
f 230 697 695
f 230 691 689
f 230 689 701
f 230 701 696
f 231 590 586
f 231 592 590
f 231 586 587
f 231 597 593
f 231 593 592
f 230 609 603
f 230 610 609
f 230 611 610
f 230 699 611
f 311 596 613
f 596 615 613
f 558 559 560
f 560 563 564
f 559 563 560
f 561 562 564
f 561 564 563
f 566 567 570
f 568 583 584
f 565 583 568
f 565 567 566
f 565 568 567
f 562 569 570
f 561 569 562
f 566 570 569
f 440 574 571
f 571 574 575
f 571 575 572
f 572 576 573
f 573 576 580
f 572 575 576
f 573 580 577
f 577 582 579
f 577 580 582
f 578 581 584
f 579 582 581
f 578 579 581
f 395 572 585
f 578 584 583
f 573 577 585
f 577 579 585
f 578 585 579
f 395 585 605
f 572 573 585
f 401 605 597
f 549 585 550
f 550 585 553
f 553 585 555
f 555 585 557
f 557 585 559
f 559 585 563
f 561 563 585
f 565 566 585
f 561 585 569
f 566 569 585
f 578 583 585
f 565 585 583
f 585 598 599
f 585 599 600
f 585 600 604
f 585 604 605
f 585 601 598
f 311 587 596
f 596 606 615
f 606 607 620
f 586 588 587
f 587 588 589
f 586 590 591
f 590 592 594
f 590 594 591
f 586 591 588
f 592 593 595
f 592 595 594
f 587 589 596
f 589 603 596
f 593 597 595
f 596 603 606
f 588 601 589
f 591 594 599
f 588 591 598
f 594 595 600
f 588 598 601
f 591 599 598
f 594 600 599
f 589 601 602
f 589 602 603
f 595 597 604
f 595 604 600
f 597 605 604
f 606 610 607
f 607 611 608
f 603 609 606
f 606 609 610
f 607 610 611
f 311 612 312
f 311 613 612
f 613 614 612
f 613 615 614
f 615 616 614
f 615 617 616
f 615 618 617
f 618 619 617
f 230 706 705
f 230 705 690
f 230 690 691
f 230 707 706
f 618 620 619
f 620 621 619
f 620 622 621
f 620 623 622
f 623 624 622
f 623 625 624
f 623 626 625
f 626 628 625
f 626 627 628
f 674 675 644
f 606 618 615
f 626 629 627
f 629 630 627
f 606 620 618
f 607 623 620
f 623 698 626
f 626 692 629
f 629 694 631
f 629 631 630
f 631 632 630
f 631 633 632
f 633 634 632
f 633 635 634
f 635 636 634
f 635 637 636
f 637 638 636
f 637 639 638
f 631 693 633
f 633 700 635
f 635 686 637
f 639 640 638
f 639 641 640
f 641 642 640
f 641 643 642
f 643 644 642
f 643 674 644
f 637 688 639
f 639 687 641
f 641 703 643
f 658 659 646
f 645 658 646
f 645 646 648
f 645 648 647
f 647 648 671
f 344 650 649
f 649 650 652
f 649 652 651
f 344 649 657
f 649 656 657
f 651 652 653
f 651 653 655
f 649 651 656
f 651 655 654
f 654 655 659
f 651 654 656
f 654 659 658
f 654 658 660
f 654 660 656
f 645 680 658
f 658 680 660
f 645 647 680
f 656 661 657
f 351 657 661
f 656 662 661
f 656 660 662
f 660 663 662
f 660 680 663
f 663 680 684
f 666 677 676
f 664 672 665
f 664 667 666
f 666 667 677
f 664 665 667
f 668 673 672
f 668 670 669
f 668 669 673
f 647 671 670
f 670 671 669
f 647 670 681
f 668 681 670
f 672 673 665
f 668 672 678
f 664 679 672
f 668 678 681
f 674 676 675
f 676 677 675
f 664 666 679
f 666 676 702
f 643 703 674
f 674 704 676
f 666 702 679
f 676 704 702
f 672 679 678
f 647 681 680
f 678 685 681
f 678 682 685
f 678 679 682
f 679 683 682
f 679 702 707
f 679 707 683
f 680 681 684
f 681 685 684
f 607 608 623
f 626 698 692
f 608 698 623
f 629 692 694
f 631 694 693
f 641 687 703
f 639 688 687
f 637 686 688
f 633 693 700
f 635 700 686
f 687 688 690
f 687 690 705
f 686 691 688
f 686 689 691
f 688 691 690
f 692 698 695
f 692 697 694
f 693 694 696
f 694 697 696
f 695 698 699
f 692 695 697
f 608 699 698
f 608 611 699
f 693 701 700
f 693 696 701
f 686 700 689
f 689 700 701
f 674 703 704
f 702 704 707
f 704 706 707
f 703 706 704
f 703 705 706
f 687 705 703
f 138 140 32
f 139 34 140
f 138 33 23
f 138 32 33
f 33 25 24
f 33 24 23
f 140 34 32
f 139 26 34
f 141 27 26
f 33 35 29
f 33 30 25
f 33 31 30
f 33 28 31
f 33 29 28
f 34 26 42
f 26 27 38
f 32 39 33
f 32 34 42
f 33 40 35
f 40 36 35
f 26 37 42
f 26 38 37
f 40 41 36
f 33 39 40
f 32 42 39
f 42 37 353
f 37 38 352
f 40 43 41
f 39 42 355
f 39 354 40
f 40 356 43
f 43 357 41
f 37 352 353
f 40 354 356
f 39 355 354
f 42 353 355
f 43 356 357
f 62 64 63
f 63 64 65
f 68 66 67
f 70 71 132
f 68 69 62
f 69 70 132
f 68 65 66
f 68 63 65
f 69 132 62
f 68 62 63
f 71 133 132
f 71 72 134
f 79 71 70
f 77 69 68
f 76 70 69
f 78 79 70
f 77 68 67
f 76 69 77
f 77 67 73
f 76 78 70
f 77 73 74
f 78 92 75
f 78 75 79
f 76 77 85
f 76 86 78
f 79 75 71
f 75 72 71
f 75 80 72
f 80 93 72
f 75 92 80
f 78 86 87
f 78 87 92
f 77 74 85
f 85 74 81
f 85 81 82
f 85 82 83
f 76 85 86
f 85 83 84
f 86 85 119
f 86 120 87
f 85 84 88
f 85 88 89
f 85 89 90
f 85 90 119
f 119 90 91
f 80 92 93
f 72 93 124
f 87 118 92
f 93 92 123
f 87 121 118
f 87 120 121
f 86 119 120
f 92 118 123
f 119 122 125
f 119 91 122
f 93 123 124
f 118 121 123
f 120 119 151
f 120 150 121
f 119 125 151
f 62 136 143
f 62 137 136
f 62 132 137
f 132 133 135
f 132 135 139
f 133 141 135
f 133 134 142
f 62 143 64
f 132 139 137
f 135 141 139
f 133 142 141
f 136 137 139
f 136 139 140
f 136 144 143
f 140 145 144
f 138 147 146
f 140 146 145
f 138 23 147
f 138 146 140
f 136 140 144
f 71 134 133
f 141 142 27
f 141 26 139
f 72 155 134
f 72 124 155
f 134 155 159
f 134 201 142
f 27 203 38
f 38 469 352
f 27 142 202
f 27 202 203
f 38 203 182
f 38 182 183
f 38 183 465
f 38 465 467
f 38 468 469
f 38 467 468
f 121 154 123
f 123 154 124
f 151 125 148
f 120 151 150
f 121 150 149
f 121 149 154
f 124 154 155
f 151 148 152
f 151 152 153
f 150 160 149
f 151 162 150
f 149 165 154
f 154 165 155
f 151 153 162
f 162 153 156
f 150 162 160
f 162 156 157
f 149 160 161
f 149 161 165
f 162 157 158
f 165 186 159
f 134 159 185
f 134 185 190
f 134 190 199
f 155 165 159
f 162 158 164
f 165 161 160
f 160 162 163
f 162 174 163
f 160 163 167
f 162 173 174
f 162 164 173
f 165 160 166
f 166 160 167
f 163 174 167
f 165 166 167
f 165 167 168
f 174 173 175
f 174 175 176
f 174 176 179
f 168 167 196
f 174 193 167
f 165 168 186
f 174 179 180
f 174 180 193
f 167 193 192
f 167 192 196
f 168 196 195
f 168 195 197
f 168 197 186
f 194 193 180
f 134 199 200
f 134 200 201
f 142 201 202
f 159 186 185
f 186 197 187
f 185 186 189
f 186 187 188
f 186 188 189
f 185 189 191
f 185 191 190
f 282 318 284
f 284 316 286
f 288 322 290
f 288 294 322
f 292 320 282
f 290 320 292
f 280 324 294
f 279 326 280
f 279 296 326
f 296 297 655
f 304 646 302
f 304 305 646
f 307 646 305
f 299 659 297
f 299 300 646
f 302 646 300
f 286 316 314
f 284 318 316
f 282 320 318
f 290 322 320
f 294 324 322
f 280 326 324
f 296 334 326
f 296 336 334
f 296 338 336
f 296 341 338
f 296 343 341
f 296 345 343
f 296 346 345
f 296 650 346
f 296 652 650
f 296 653 652
f 296 655 653
f 352 359 353
f 355 360 354
f 355 353 358
f 354 361 356
f 356 363 357
f 353 359 358
f 355 358 360
f 354 360 361
f 356 361 362
f 356 362 363
f 358 359 368
f 362 364 363
f 362 365 364
f 360 370 361
f 361 371 362
f 360 358 370
f 358 367 370
f 358 368 367
f 362 366 365
f 362 369 366
f 361 370 371
f 362 371 372
f 362 372 369
f 370 442 371
f 370 367 442
f 367 368 447
f 372 373 369
f 372 374 373
f 371 442 443
f 371 443 372
f 372 445 374
f 445 375 374
f 445 376 375
f 372 443 445
f 445 377 376
f 445 378 377
f 445 450 378
f 352 469 359
f 359 470 368
f 359 469 470
f 368 470 471
f 447 471 473
f 447 473 472
f 456 472 475
f 367 447 444
f 367 444 442
f 368 471 447
f 442 446 443
f 442 448 446
f 443 446 449
f 446 448 449
f 444 458 442
f 447 456 444
f 442 458 448
f 445 451 450
f 443 452 445
f 445 452 451
f 443 453 452
f 443 449 453
f 449 454 453
f 449 455 454
f 449 460 455
f 448 459 449
f 444 457 458
f 444 456 457
f 448 458 459
f 449 486 489
f 449 459 486
f 457 459 458
f 449 461 460
f 449 462 461
f 449 489 462
f 456 494 457
f 447 472 456
f 456 475 494
f 494 477 512
f 512 480 484
f 512 484 485
f 494 475 476
f 494 476 477
f 512 477 481
f 512 481 482
f 512 482 480
f 486 488 489
f 488 486 490
f 486 487 490
f 487 498 491
f 487 491 490
f 457 495 459
f 487 499 498
f 459 496 486
f 486 497 487
f 487 492 499
f 457 494 495
f 459 495 496
f 487 493 492
f 486 496 497
f 487 497 501
f 487 501 500
f 487 500 493
f 501 502 500
f 501 503 502
f 501 504 503
f 494 512 495
f 495 516 496
f 495 512 515
f 495 515 516
f 512 524 515
f 496 516 497
f 497 517 501
f 501 513 504
f 501 514 513
f 497 516 517
f 501 517 518
f 501 518 519
f 501 519 514
f 515 532 516
f 516 529 517
f 517 528 518
f 518 531 521
f 517 529 530
f 516 532 529
f 517 530 528
f 518 528 531
f 521 531 533
f 518 520 519
f 518 521 520
f 512 485 526
f 512 526 523
f 512 523 524
f 515 525 527
f 515 524 525
f 515 527 532
f 309 646 307
f 309 310 646
f 310 312 646
f 612 646 312
f 612 614 646
f 616 646 614
f 616 617 646
f 619 646 617
f 621 646 619
f 621 622 646
f 624 646 622
f 624 625 646
f 625 628 648
f 627 648 628
f 627 630 671
f 630 632 669
f 632 634 667
f 634 636 677
f 636 638 644
f 632 667 665
f 636 644 675
f 636 675 677
f 634 677 667
f 638 640 642
f 638 642 644
f 655 297 659
f 299 646 659
f 625 648 646
f 627 671 648
f 630 669 671
f 632 673 669
f 632 665 673
