# rf_distal_shaft.obj  (147 v, 286 f)  units: metres
v -0.002165064 -0.066272423 0.104426496
v -0.001900536 -0.062556460 0.104405545
v -0.002165064 -0.062586501 0.104748972
v -0.001767767 -0.066227295 0.103910699
v -0.001608340 -0.066216633 0.103788830
v -0.001767767 -0.062541381 0.104233176
v -0.002414815 -0.066324972 0.105027154
v -0.002500000 -0.066381365 0.105671741
v -0.002497477 -0.066383034 0.105690829
v -0.002414815 -0.066437759 0.106316321
v -0.002366140 -0.062628813 0.105232567
v -0.002414815 -0.062639058 0.105349630
v -0.002500000 -0.062695451 0.105994217
v -0.002474835 -0.062712111 0.106184632
v -0.002414815 -0.062751845 0.106638797
v -0.001250000 -0.066192672 0.103514910
v -0.000647048 -0.066170901 0.103266113
v -0.001250000 -0.062506750 0.103837386
v -0.001165894 -0.062503710 0.103802681
v -0.000647048 -0.062484980 0.103588589
v 0.000000000 -0.066163480 0.103181250
v -0.000240318 -0.062480316 0.103535242
v 0.000000000 -0.062477555 0.103503726
v -0.002165064 -0.066490315 0.106916979
v -0.002213600 -0.062794179 0.107122727
v -0.002165064 -0.062804393 0.107239455
v -0.001767767 -0.066535443 0.107432775
v -0.001696287 -0.066540219 0.107487418
v -0.001767767 -0.062849514 0.107755251
v -0.001558476 -0.062863514 0.107915238
v -0.001250000 -0.066570066 0.107828565
v -0.000647048 -0.066591837 0.108077362
v -0.001250000 -0.062884144 0.108151041
v -0.000647048 -0.062905915 0.108399838
v -0.000324135 -0.066595539 0.108119711
v 0.000000000 -0.066599257 0.108162224
v -0.000540351 -0.062907137 0.108413830
v -0.002235718 -0.042478237 0.106679440
v -0.001878028 -0.042430770 0.106136866
v -0.002005926 -0.042445298 0.106302917
v -0.002132768 -0.042459704 0.106467590
v -0.002165064 -0.042463373 0.106509514
v -0.002165064 -0.039474785 0.106770985
v -0.001488101 -0.042399541 0.105779938
v -0.001767767 -0.042418245 0.105993718
v -0.001729943 -0.042415716 0.105964810
v -0.001767767 -0.039429661 0.106255189
v -0.001608341 -0.039418999 0.106133319
v -0.001250000 -0.042383619 0.105597936
v -0.001084571 -0.042377647 0.105529673
v -0.001250000 -0.039395034 0.105859406
v -0.000647048 -0.042361852 0.105349138
v -0.000647048 -0.039373267 0.105610602
v -0.002348032 -0.042501871 0.106949560
v -0.002414815 -0.042515922 0.107110173
v -0.002456323 -0.042543400 0.107424267
v -0.002500000 -0.042572316 0.107754759
v -0.002414815 -0.039527338 0.107371643
v -0.002414815 -0.042628709 0.108399346
v -0.002500000 -0.039583731 0.108016230
v -0.002414815 -0.039640125 0.108660817
v -0.002165064 -0.042681258 0.109000005
v -0.002165064 -0.039692678 0.109261468
v -0.001778831 -0.042725131 0.109501436
v -0.001767767 -0.042726386 0.109515801
v -0.001767767 -0.039737802 0.109777272
v -0.001696288 -0.039742582 0.109831907
v -0.000721501 -0.042780094 0.110129662
v -0.000647048 -0.042782784 0.110160388
v -0.001250000 -0.042761013 0.109911583
v -0.001250000 -0.039772429 0.110173054
v -0.000647048 -0.039794195 0.110421851
v -0.000324136 -0.039797898 0.110464200
v 0.000647048 -0.066170901 0.103266113
v 0.000752627 -0.066174716 0.103309676
v 0.001250000 -0.066192672 0.103514910
v 0.000647048 -0.062484980 0.103588589
v 0.000729825 -0.062487971 0.103622742
v 0.001250000 -0.062506750 0.103837386
v 0.001767767 -0.066227295 0.103910699
v 0.001627416 -0.062531985 0.104125887
v 0.001767767 -0.062541373 0.104233176
v 0.001833284 -0.062548816 0.104318231
v 0.002165064 -0.066272423 0.104426496
v 0.002225045 -0.066285044 0.104570754
v 0.002165064 -0.062586501 0.104748972
v 0.002414815 -0.066324972 0.105027154
v 0.002500000 -0.066381365 0.105671741
v 0.002414815 -0.066437759 0.106316321
v 0.002414815 -0.062639050 0.105349630
v 0.002500000 -0.062695444 0.105994217
v 0.002485556 -0.062705010 0.106103510
v 0.002414815 -0.062751837 0.106638797
v 0.000000000 -0.062913336 0.108484700
v 0.000647048 -0.066591837 0.108077362
v 0.001250000 -0.066570066 0.107828565
v 0.000647048 -0.062905915 0.108399838
v 0.001250000 -0.062884144 0.108151041
v 0.001767767 -0.066535436 0.107432775
v 0.001767767 -0.062849514 0.107755251
v 0.001787226 -0.062847309 0.107729994
v 0.001845197 -0.062840723 0.107654728
v 0.001337797 -0.062878273 0.108083926
v 0.001558476 -0.062863514 0.107915238
v 0.001696685 -0.062854268 0.107809588
v 0.002165064 -0.066490315 0.106916979
v 0.002165064 -0.062804393 0.107239455
v 0.002174502 -0.062802404 0.107216761
v 0.001956735 -0.062828057 0.107509926
v 0.002017506 -0.062821150 0.107431024
v 0.001900536 -0.062834434 0.107582882
v 0.002087853 -0.062813163 0.107339695
v 0.000000000 -0.042354427 0.105264276
v 0.000000000 -0.039365843 0.105525739
v 0.000647048 -0.042361852 0.105349138
v 0.000647048 -0.039373267 0.105610602
v 0.000752626 -0.039377078 0.105654165
v 0.001084571 -0.042377647 0.105529673
v 0.001250000 -0.042383619 0.105597936
v 0.001250000 -0.039395034 0.105859406
v 0.001767767 -0.042418245 0.105993718
v 0.001767767 -0.039429661 0.106255189
v 0.002030761 -0.042448115 0.106335156
v 0.002165064 -0.042463370 0.106509514
v 0.002165064 -0.039474785 0.106770985
v 0.000000000 -0.042790204 0.110245250
v 0.000333032 -0.042786382 0.110201567
v 0.000000000 -0.039801620 0.110506713
v 0.000647048 -0.042782780 0.110160388
v 0.000647048 -0.039794195 0.110421851
v 0.002414815 -0.042515922 0.107110173
v 0.002441905 -0.042533856 0.107315168
v 0.002500000 -0.042572316 0.107754759
v 0.002225044 -0.039487407 0.106915243
v 0.002414815 -0.039527334 0.107371643
v 0.002414815 -0.042628709 0.108399346
v 0.002425154 -0.042621866 0.108321108
v 0.002500000 -0.039583731 0.108016230
v 0.002414815 -0.039640125 0.108660817
v 0.001767767 -0.042726386 0.109515801
v 0.001250000 -0.042761013 0.109911583
v 0.001292087 -0.042758197 0.109879412
v 0.001250000 -0.039772429 0.110173054
v 0.001767767 -0.039737802 0.109777272
v 0.002165064 -0.042681262 0.109000005
v 0.002005927 -0.042699337 0.109206609
v 0.002165064 -0.039692674 0.109261468
f 4 5 9
f 8 1 4
f 16 9 5
f 10 16 17
f 8 7 1
f 4 9 8
f 10 9 16
f 24 10 17
f 27 24 21
f 24 17 21
f 27 21 74
f 74 75 28
f 27 74 28
f 31 28 75
f 3 11 102
f 2 3 102
f 11 12 102
f 12 13 102
f 13 14 102
f 32 31 80
f 6 2 109
f 18 6 109
f 18 109 19
f 14 15 101
f 15 25 101
f 25 26 105
f 26 29 105
f 29 30 105
f 30 33 104
f 33 34 103
f 58 47 43
f 61 53 51
f 63 114 53
f 44 49 119
f 49 50 118
f 50 52 118
f 124 46 44
f 39 45 132
f 45 46 132
f 58 60 47
f 47 60 61
f 47 61 48
f 57 56 64
f 59 57 64
f 70 56 55
f 70 55 54
f 61 51 48
f 42 41 127
f 61 63 53
f 126 54 38
f 38 42 127
f 63 66 114
f 64 62 59
f 65 64 56
f 70 65 56
f 68 70 54
f 40 39 146
f 41 40 146
f 66 67 117
f 71 117 67
f 66 116 114
f 66 117 116
f 69 68 54
f 69 54 126
f 126 38 127
f 129 127 41
f 141 129 41
f 71 72 122
f 31 75 76
f 20 19 109
f 22 20 109
f 23 22 110
f 77 23 110
f 77 112 78
f 31 76 80
f 2 102 111
f 32 80 84
f 2 111 109
f 109 110 22
f 79 78 112
f 93 82 81
f 84 85 35
f 36 85 87
f 99 96 87
f 81 79 112
f 77 110 112
f 106 99 88
f 99 87 88
f 106 88 89
f 93 83 82
f 91 86 83
f 91 90 86
f 93 92 83
f 91 83 92
f 107 108 81
f 112 107 81
f 108 93 81
f 32 84 35
f 102 14 101
f 100 25 105
f 100 101 25
f 34 37 103
f 37 94 97
f 104 105 30
f 33 103 104
f 97 98 37
f 36 35 85
f 36 87 95
f 98 103 37
f 96 95 87
f 52 113 118
f 113 115 118
f 49 118 119
f 119 121 44
f 121 123 44
f 123 124 44
f 124 131 46
f 131 132 46
f 71 120 117
f 71 122 120
f 140 142 41
f 146 140 41
f 133 39 132
f 133 137 39
f 136 39 137
f 145 146 39
f 136 145 39
f 72 125 122
f 141 41 142
f 72 73 125
f 128 134 73
f 128 130 147
f 130 143 144
f 125 73 134
f 128 135 134
f 128 138 135
f 128 147 139
f 128 139 138
f 130 144 147
f 7 11 1
f 1 11 3
f 1 2 4
f 1 3 2
f 18 4 6
f 18 5 4
f 18 16 5
f 6 4 2
f 8 12 7
f 8 9 13
f 7 12 11
f 8 13 12
f 10 14 9
f 24 25 10
f 13 9 14
f 10 15 14
f 10 25 15
f 16 19 20
f 16 18 19
f 16 20 17
f 17 20 22
f 17 22 21
f 21 22 23
f 27 26 24
f 24 26 25
f 27 29 26
f 27 28 30
f 27 30 29
f 31 30 28
f 31 33 30
f 32 33 31
f 32 34 33
f 32 35 37
f 32 37 34
f 36 37 35
f 36 94 37
f 43 42 38
f 43 38 54
f 47 39 40
f 43 41 42
f 43 40 41
f 47 40 43
f 51 49 44
f 51 44 48
f 47 45 39
f 47 46 45
f 47 44 46
f 47 48 44
f 51 50 49
f 53 50 51
f 53 52 50
f 114 52 53
f 114 113 52
f 58 54 55
f 58 55 56
f 60 56 57
f 43 54 58
f 58 56 60
f 61 57 59
f 60 57 61
f 61 59 62
f 61 62 63
f 63 62 64
f 63 64 66
f 66 64 65
f 66 65 70
f 66 70 67
f 70 71 67
f 68 71 70
f 69 72 68
f 68 72 71
f 69 126 72
f 126 73 72
f 126 128 73
f 77 21 23
f 21 77 74
f 74 79 75
f 74 77 78
f 79 74 78
f 76 75 79
f 81 76 79
f 76 81 82
f 76 82 80
f 80 82 83
f 80 86 84
f 80 83 86
f 84 90 85
f 87 85 90
f 84 86 90
f 88 87 91
f 87 90 91
f 88 91 92
f 89 88 93
f 89 108 106
f 88 92 93
f 89 93 108
f 36 95 94
f 94 95 97
f 96 97 95
f 97 96 98
f 104 99 105
f 99 101 100
f 99 100 105
f 99 102 101
f 99 98 96
f 99 103 98
f 99 104 103
f 106 102 99
f 106 110 109
f 106 112 110
f 106 107 112
f 106 108 107
f 106 111 102
f 106 109 111
f 116 113 114
f 113 116 115
f 115 117 118
f 116 117 115
f 118 120 119
f 120 118 117
f 122 119 120
f 119 122 121
f 122 123 121
f 125 124 123
f 125 123 122
f 125 134 124
f 126 127 128
f 130 127 129
f 128 127 130
f 141 130 129
f 130 141 143
f 135 131 124
f 135 132 131
f 133 132 138
f 135 124 134
f 138 132 135
f 139 137 133
f 136 137 139
f 139 133 138
f 144 140 146
f 143 141 142
f 140 143 142
f 143 140 144
f 147 146 145
f 144 146 147
f 147 145 136
f 147 136 139
