# rf_distal_pad.obj  (92 v, 180 f)  units: metres
v 0.009492074 -0.064414620 0.109594367
v 0.009547342 -0.064402990 0.109461449
v 0.009565034 -0.064399272 0.109418899
v 0.009521758 -0.064408377 0.109522976
v 0.009300000 -0.064605601 0.110043138
v 0.009300000 -0.064455040 0.110056311
v 0.009651472 -0.065450907 0.109969184
v 0.009651472 -0.064531647 0.109197840
v 0.009651472 -0.064381085 0.109211013
v 0.009662531 -0.064380683 0.109206453
v 0.009718792 -0.064378649 0.109183237
v 0.009764086 -0.064377017 0.109164543
v 0.009791455 -0.064376026 0.109153248
v 0.009800000 -0.064375721 0.109149724
v 0.009800000 -0.064422451 0.109683879
v 0.009555283 -0.064557113 0.111223087
v 0.009300000 -0.064600781 0.111722201
v 0.009300000 -0.064549200 0.112136945
v 0.009412317 -0.064423919 0.112023421
v 0.009767415 -0.064469248 0.111223087
v 0.009767415 -0.064257115 0.111435220
v 0.009855283 -0.064257115 0.111223087
v 0.010012132 -0.064280860 0.109069824
v 0.010012132 -0.064334586 0.109683879
v 0.010100001 -0.064067170 0.109051980
v 0.010100001 -0.064122453 0.109683879
v 0.009300000 -0.064337067 0.112349078
v 0.010500000 -0.065376952 0.109123886
v 0.010500000 -0.065801039 0.109938554
v 0.010500000 -0.064501017 0.108847708
v 0.009300000 -0.065442301 0.119606607
v 0.009651472 -0.066287600 0.119532652
v 0.009651472 -0.065516256 0.120451905
v 0.010500000 -0.066637732 0.119502023
v 0.010500000 -0.066361554 0.120377958
v 0.010500000 -0.065546885 0.120802045
v 0.009300000 -0.042142551 0.112008400
v 0.009300000 -0.042091604 0.112012863
v 0.009651472 -0.042068593 0.111163102
v 0.009651472 -0.042017650 0.111167565
v 0.009675937 -0.042067710 0.111153007
v 0.009726711 -0.042065877 0.111132056
v 0.009767588 -0.042064402 0.111115187
v 0.009800000 -0.042063233 0.111101814
v 0.009792289 -0.042063512 0.111104995
v 0.009651472 -0.041246306 0.112086818
v 0.009800000 -0.042105407 0.111583881
v 0.010012132 -0.042142775 0.111006655
v 0.010100001 -0.042350125 0.110951975
v 0.010012132 -0.042193275 0.111583881
v 0.010100001 -0.042405408 0.111583881
v 0.009555283 -0.042240072 0.113123082
v 0.009300000 -0.042283740 0.113622196
v 0.009300000 -0.042407893 0.114036940
v 0.009855283 -0.042540073 0.113123082
v 0.009767415 -0.042540073 0.113335215
v 0.009767415 -0.042327940 0.113123082
v 0.009300000 -0.042620026 0.114249073
v 0.009933707 -0.042366676 0.112353481
v 0.010500000 -0.041987017 0.110817425
v 0.010500000 -0.041172352 0.111241519
v 0.010500000 -0.040896170 0.112117447
v 0.009300000 -0.042928301 0.121576332
v 0.009651472 -0.043002255 0.122421630
v 0.009651472 -0.042082999 0.121650286
v 0.010500000 -0.043032885 0.122771762
v 0.010500000 -0.041732866 0.121680915
v 0.010500000 -0.042156953 0.122495584
v 0.012600000 -0.065376952 0.109123886
v 0.012600000 -0.065801039 0.109938554
v 0.012600000 -0.064501017 0.108847708
v 0.013448528 -0.065450907 0.109969184
v 0.013448528 -0.064531647 0.109197840
v 0.013800000 -0.064605601 0.110043138
v 0.012600000 -0.066637732 0.119502023
v 0.012600000 -0.066361554 0.120377958
v 0.012600000 -0.065546885 0.120802045
v 0.013448528 -0.066287600 0.119532652
v 0.013448528 -0.065516256 0.120451905
v 0.013800000 -0.065442301 0.119606607
v 0.012600000 -0.041987017 0.110817425
v 0.012600000 -0.041172352 0.111241519
v 0.012600000 -0.040896170 0.112117447
v 0.013448528 -0.042017650 0.111167565
v 0.013448528 -0.041246306 0.112086818
v 0.013800000 -0.042091604 0.112012863
v 0.012600000 -0.043032885 0.122771762
v 0.012600000 -0.041732866 0.121680915
v 0.012600000 -0.042156953 0.122495584
v 0.013448528 -0.043002255 0.122421630
v 0.013448528 -0.042082999 0.121650286
v 0.013800000 -0.042928301 0.121576332
f 5 4 2
f 5 2 3
f 5 3 9
f 5 9 8
f 5 6 1
f 5 1 4
f 5 8 7
f 8 9 10
f 8 10 11
f 8 11 12
f 8 12 13
f 5 17 6
f 8 28 7
f 8 13 30
f 30 13 14
f 30 14 23
f 7 28 29
f 30 23 25
f 8 30 28
f 5 7 31
f 5 31 17
f 31 18 17
f 31 27 18
f 7 29 34
f 30 25 49
f 28 30 69
f 28 69 29
f 7 32 31
f 7 34 32
f 31 32 33
f 32 35 33
f 32 34 35
f 33 35 36
f 31 63 27
f 31 33 64
f 33 36 64
f 29 75 34
f 34 75 35
f 35 77 36
f 36 77 66
f 30 49 60
f 40 39 37
f 38 40 37
f 38 46 40
f 40 41 39
f 40 42 41
f 60 43 42
f 40 60 42
f 60 45 43
f 60 44 45
f 60 48 44
f 40 46 61
f 60 49 48
f 40 61 60
f 46 62 61
f 38 37 63
f 38 63 46
f 63 37 53
f 46 67 62
f 30 60 81
f 60 61 81
f 61 62 82
f 62 67 83
f 63 58 27
f 31 64 63
f 36 66 64
f 63 53 54
f 63 54 58
f 46 63 65
f 46 65 67
f 63 64 65
f 65 64 68
f 64 66 68
f 65 68 67
f 66 87 68
f 67 68 88
f 29 69 70
f 30 71 69
f 29 70 75
f 30 81 71
f 69 72 70
f 69 71 73
f 69 73 72
f 73 74 72
f 70 72 75
f 72 74 78
f 71 84 73
f 73 86 74
f 74 86 80
f 35 75 76
f 35 76 77
f 72 78 75
f 74 80 78
f 75 78 76
f 76 79 77
f 76 78 79
f 78 80 79
f 77 79 87
f 79 80 92
f 61 82 81
f 62 83 82
f 71 81 84
f 73 84 86
f 81 82 84
f 82 83 85
f 82 85 84
f 84 85 86
f 83 91 85
f 85 92 86
f 66 77 87
f 67 88 83
f 68 89 88
f 68 87 89
f 80 86 92
f 79 90 87
f 79 92 90
f 83 88 91
f 85 91 92
f 87 90 89
f 88 89 91
f 89 90 91
f 91 90 92
f 1 6 17
f 15 4 1
f 15 2 4
f 15 3 2
f 15 9 3
f 15 10 9
f 15 11 10
f 15 12 11
f 15 13 12
f 15 14 13
f 16 15 1
f 15 20 24
f 16 1 17
f 16 17 20
f 19 18 27
f 20 17 18
f 20 18 19
f 21 19 27
f 16 20 15
f 20 21 22
f 20 19 21
f 15 23 14
f 15 24 23
f 24 26 23
f 26 25 23
f 22 26 24
f 20 22 24
f 21 55 22
f 26 49 25
f 22 55 26
f 21 27 56
f 26 51 49
f 26 55 51
f 56 27 58
f 21 56 55
f 47 52 37
f 47 39 41
f 47 41 42
f 47 42 43
f 47 43 45
f 47 45 44
f 47 37 39
f 47 50 57
f 47 44 50
f 50 44 48
f 51 48 49
f 50 48 51
f 50 51 59
f 56 58 54
f 52 53 37
f 52 54 53
f 52 57 54
f 47 57 52
f 57 59 55
f 56 57 55
f 56 54 57
f 50 59 57
f 51 55 59
