# rf_distal.obj  (180 v, 360 f)  units: metres
v -0.009653170 -0.066012956 0.101460770
v -0.009800000 -0.066093758 0.102384292
v -0.009227051 -0.065940067 0.100627646
v -0.008563356 -0.065882221 0.099966481
v -0.007727051 -0.065845087 0.099541984
v -0.009227051 -0.063947678 0.100801960
v -0.009653170 -0.064020567 0.101635084
v -0.008563356 -0.063889831 0.100140788
v -0.007727051 -0.063852698 0.099716291
v -0.009800000 -0.064101368 0.102558605
v -0.006800000 -0.065832287 0.099395707
v -0.006800000 -0.063839898 0.099570021
v -0.004200000 -0.065832287 0.099395707
v -0.002819078 -0.064299554 0.104823895
v -0.004200000 -0.063839898 0.099570021
v -0.002819078 -0.062606022 0.104972057
v -0.002009918 -0.065847307 0.099567421
v -0.002298133 -0.064220913 0.103925027
v -0.001500000 -0.064162545 0.103257857
v -0.002009918 -0.063854918 0.099741727
v -0.001500000 -0.062469009 0.103406027
v -0.002298133 -0.062527381 0.104073189
v -0.000520945 -0.064131483 0.102902867
v -0.000520945 -0.062437952 0.103051037
v -0.003000000 -0.064388976 0.105846047
v -0.002819078 -0.064478405 0.106868207
v -0.003000000 -0.062695451 0.105994217
v -0.002819078 -0.062784873 0.107016370
v -0.002298133 -0.064557046 0.107767075
v -0.001500000 -0.064615414 0.108434238
v -0.000520945 -0.064646475 0.108789228
v -0.002298133 -0.062863514 0.107915238
v -0.001500000 -0.062921889 0.108582400
v -0.000520945 -0.062952943 0.108937398
v -0.009800000 -0.065234393 0.115509138
v -0.009800000 -0.064835913 0.115543999
v -0.009800000 -0.064984076 0.117237531
v -0.009800000 -0.067749716 0.121311992
v -0.000866025 -0.054474223 0.118157022
v -0.001000000 -0.053976126 0.118200600
v -0.000866025 -0.053478029 0.118244179
v -0.000500000 -0.054838855 0.118125126
v -0.000000000 -0.054972321 0.118113443
v -0.000500000 -0.055213626 0.122408763
v -0.000000000 -0.055347089 0.122397080
v -0.001000000 -0.054350894 0.122484237
v -0.000866025 -0.054848991 0.122440659
v -0.000866025 -0.053852797 0.122527815
v -0.000500000 -0.053488165 0.122559719
v -0.008563356 -0.041276213 0.102119230
v -0.007727051 -0.041239075 0.101694733
v -0.008563356 -0.039084584 0.102310970
v -0.007727051 -0.039047446 0.101886474
v -0.009227051 -0.041334059 0.102780394
v -0.009653170 -0.041406948 0.103613518
v -0.009800000 -0.041487746 0.104537040
v -0.009227051 -0.039142430 0.102972142
v -0.009653170 -0.039215319 0.103805259
v -0.009800000 -0.039296117 0.104728788
v -0.006800000 -0.041226279 0.101548456
v -0.006800000 -0.039034650 0.101740204
v -0.004200000 -0.041226279 0.101548456
v -0.004200000 -0.039034650 0.101740204
v -0.002009918 -0.041241299 0.101720169
v -0.002009918 -0.039049670 0.101911910
v -0.002233584 -0.042304374 0.104692191
v -0.002233584 -0.041507419 0.104761921
v -0.001174265 -0.042257331 0.104154497
v -0.001174265 -0.041460376 0.104224220
v -0.000000000 -0.042241123 0.103969224
v -0.000000000 -0.041444167 0.104038946
v -0.003614015 -0.042674661 0.108924560
v -0.003074265 -0.042766985 0.109979846
v -0.003800000 -0.042572316 0.107754759
v -0.003800000 -0.041775361 0.107824482
v -0.003074265 -0.042377647 0.105529673
v -0.003614015 -0.042469971 0.106584966
v -0.003074265 -0.041580688 0.105599403
v -0.003614015 -0.041673016 0.106654689
v -0.003614015 -0.041877702 0.108994283
v -0.003074265 -0.041970029 0.110049568
v -0.002233584 -0.042840254 0.110817328
v -0.001174265 -0.042887297 0.111355022
v -0.002233584 -0.042043298 0.110887051
v -0.001174265 -0.042090341 0.111424744
v -0.009800000 -0.042768937 0.119181104
v -0.009800000 -0.040952075 0.123656482
v -0.000500000 -0.053113397 0.118276082
v -0.000000000 -0.052979931 0.118287757
v -0.000000000 -0.053354699 0.122571394
v -0.000000000 -0.042903509 0.111540303
v -0.000000000 -0.042106550 0.111610025
v 0.000126238 -0.065892003 0.100078315
v 0.002155867 -0.065965280 0.100915812
v 0.001500000 -0.064162545 0.103257857
v 0.002298133 -0.064220913 0.103925027
v 0.000126238 -0.063899614 0.100252621
v 0.002155867 -0.063972890 0.101090126
v 0.000520945 -0.064131483 0.102902867
v 0.000520945 -0.062437952 0.103051037
v 0.001500000 -0.062469009 0.103406027
v 0.002298133 -0.062527381 0.104073189
v 0.004028994 -0.066065319 0.102059297
v 0.002819078 -0.064299554 0.104823895
v 0.004028994 -0.064072929 0.102233611
v 0.002819078 -0.062606022 0.104972057
v 0.001500000 -0.064615414 0.108434238
v 0.002298133 -0.064557046 0.107767075
v 0.000520945 -0.064646475 0.108789228
v 0.002298133 -0.062863514 0.107915238
v 0.000520945 -0.062952943 0.108937398
v 0.001500000 -0.062921889 0.108582400
v 0.003000000 -0.064388976 0.105846047
v 0.002819078 -0.064478405 0.106868207
v 0.003000000 -0.062695451 0.105994217
v 0.002819078 -0.062784873 0.107016370
v 0.005699495 -0.066189669 0.103480615
v 0.005699495 -0.064197280 0.103654921
v 0.007126238 -0.066335261 0.105144754
v 0.007126238 -0.064342871 0.105319068
v 0.008274091 -0.066498518 0.107010752
v 0.008274091 -0.064506128 0.107185066
v 0.009114792 -0.066675410 0.109032661
v 0.009627637 -0.066861592 0.111160688
v 0.009114792 -0.064683020 0.109206975
v 0.009627637 -0.064869203 0.111335002
v 0.000500000 -0.054838855 0.118125126
v 0.000866025 -0.054474223 0.118157022
v 0.000866025 -0.053478029 0.118244179
v 0.001000000 -0.053976126 0.118200600
v 0.000500000 -0.055213626 0.122408763
v 0.000500000 -0.053488165 0.122559719
v 0.000866025 -0.054848991 0.122440659
v 0.001000000 -0.054350894 0.122484237
v 0.000866025 -0.053852797 0.122527815
v 0.009800000 -0.067052469 0.113342434
v 0.009800000 -0.065060079 0.113516748
v 0.009800000 -0.065234393 0.115509138
v 0.009800000 -0.064835913 0.115543999
v 0.009800000 -0.064984076 0.117237531
v 0.009800000 -0.067749716 0.121311992
v 0.000126238 -0.041285999 0.102231063
v 0.000126238 -0.039094370 0.102422804
v 0.001174265 -0.042257331 0.104154497
v 0.001174265 -0.041460376 0.104224220
v 0.002155867 -0.041359268 0.103068560
v 0.002233584 -0.042304374 0.104692191
v 0.002233584 -0.041507419 0.104761921
v 0.002155867 -0.039167643 0.103260301
v 0.004028994 -0.041459311 0.104212046
v 0.004028994 -0.039267682 0.104403786
v 0.001174265 -0.042887297 0.111355022
v 0.002233584 -0.042840254 0.110817328
v 0.001174265 -0.042090341 0.111424744
v 0.002233584 -0.042043298 0.110887051
v 0.003614015 -0.042674661 0.108924560
v 0.003074265 -0.042766985 0.109979846
v 0.003074265 -0.042377647 0.105529673
v 0.003614015 -0.042469971 0.106584966
v 0.003074265 -0.041580688 0.105599403
v 0.003614015 -0.041673016 0.106654689
v 0.003800000 -0.042572316 0.107754759
v 0.003800000 -0.041775361 0.107824482
v 0.003614015 -0.041877702 0.108994283
v 0.003074265 -0.041970029 0.110049568
v 0.005699495 -0.041583661 0.105633363
v 0.005699495 -0.039392032 0.105825104
v 0.007126238 -0.041729253 0.107297502
v 0.007126238 -0.039537627 0.107489251
v 0.008274091 -0.041892506 0.109163500
v 0.008274091 -0.039700881 0.109355249
v 0.009114792 -0.042069402 0.111185409
v 0.009114792 -0.039877772 0.111377150
v 0.000500000 -0.053113397 0.118276082
v 0.009627637 -0.042255580 0.113313437
v 0.009627637 -0.040063951 0.113505177
v 0.009800000 -0.042446457 0.115495183
v 0.009800000 -0.040254831 0.115686931
v 0.009800000 -0.042768937 0.119181104
v 0.009800000 -0.040952075 0.123656482
f 1 5 2
f 3 4 1
f 1 4 5
f 3 8 4
f 3 6 8
f 1 6 3
f 2 7 1
f 1 7 6
f 2 10 7
f 4 9 5
f 2 5 11
f 4 8 9
f 5 9 12
f 10 14 7
f 5 12 11
f 2 11 13
f 11 12 13
f 13 12 15
f 7 14 18
f 10 25 14
f 26 25 10
f 7 18 6
f 6 18 8
f 18 9 8
f 18 12 9
f 10 2 35
f 13 38 2
f 35 26 10
f 13 17 38
f 35 29 26
f 13 15 20
f 13 20 17
f 18 15 12
f 19 20 15
f 19 15 18
f 14 22 18
f 25 16 14
f 14 16 22
f 17 20 97
f 17 97 93
f 23 20 19
f 23 97 20
f 18 22 21
f 18 21 19
f 19 24 23
f 19 21 24
f 23 24 100
f 110 21 22
f 38 17 93
f 38 93 94
f 30 29 35
f 35 31 30
f 35 109 31
f 26 27 25
f 26 28 27
f 25 27 16
f 29 28 26
f 29 32 28
f 94 103 38
f 38 103 117
f 30 32 29
f 30 33 32
f 110 22 16
f 16 27 110
f 110 27 28
f 110 28 32
f 33 110 32
f 31 33 30
f 31 34 33
f 109 34 31
f 35 2 38
f 35 38 36
f 36 38 37
f 37 38 86
f 86 41 37
f 38 47 87
f 36 139 35
f 140 36 37
f 37 43 140
f 39 42 37
f 37 40 39
f 37 41 40
f 37 42 43
f 38 44 47
f 38 45 44
f 38 131 45
f 44 42 39
f 47 39 40
f 46 40 41
f 48 41 88
f 45 43 42
f 47 40 46
f 44 39 47
f 46 41 48
f 48 88 49
f 45 42 44
f 54 52 50
f 50 53 51
f 50 52 53
f 51 53 61
f 55 57 54
f 55 58 57
f 54 57 52
f 52 57 58
f 58 53 52
f 59 61 58
f 56 58 55
f 56 59 58
f 78 56 55
f 58 61 53
f 51 61 60
f 61 62 60
f 63 62 61
f 54 50 78
f 51 78 50
f 78 55 54
f 59 63 61
f 60 78 51
f 56 87 59
f 56 75 86
f 87 63 59
f 56 79 75
f 79 56 78
f 65 63 87
f 62 63 65
f 62 65 64
f 62 67 60
f 60 67 78
f 64 69 62
f 62 69 67
f 67 76 78
f 67 66 76
f 64 65 143
f 64 143 142
f 69 66 67
f 69 68 66
f 142 71 64
f 64 71 69
f 66 68 70
f 66 147 76
f 71 68 69
f 70 144 66
f 71 70 68
f 76 82 73
f 79 77 74
f 79 74 75
f 75 74 72
f 78 76 77
f 76 74 77
f 78 77 79
f 76 72 74
f 73 72 76
f 75 72 80
f 87 143 65
f 80 72 73
f 80 73 81
f 81 73 82
f 81 82 84
f 87 149 143
f 76 83 82
f 91 83 76
f 76 152 91
f 85 83 91
f 84 82 83
f 84 83 85
f 85 91 92
f 151 149 87
f 87 167 151
f 86 38 87
f 86 87 56
f 75 80 86
f 86 80 81
f 86 81 84
f 87 47 46
f 86 88 41
f 89 88 86
f 86 174 89
f 87 46 48
f 48 49 87
f 87 49 90
f 49 88 89
f 49 89 90
f 84 85 86
f 86 85 92
f 86 92 179
f 87 90 180
f 93 97 98
f 93 98 94
f 99 97 23
f 99 98 97
f 95 98 99
f 23 100 99
f 99 101 95
f 99 100 101
f 110 24 21
f 100 24 110
f 95 101 102
f 95 102 96
f 110 101 100
f 106 102 101
f 116 106 101
f 94 98 105
f 94 105 103
f 104 118 96
f 96 118 105
f 103 105 118
f 113 120 104
f 95 105 98
f 96 105 95
f 96 106 104
f 96 102 106
f 104 106 115
f 38 117 119
f 119 121 38
f 34 110 33
f 34 112 110
f 116 101 110
f 108 112 107
f 108 110 112
f 109 111 34
f 111 112 34
f 107 111 109
f 107 112 111
f 114 122 113
f 138 107 109
f 108 107 138
f 104 115 113
f 113 116 114
f 113 115 116
f 115 106 116
f 114 110 108
f 114 116 110
f 103 118 117
f 104 120 118
f 117 120 119
f 117 118 120
f 113 122 120
f 114 125 122
f 108 126 114
f 126 125 114
f 108 137 126
f 119 120 122
f 119 122 121
f 121 122 125
f 121 125 123
f 123 126 124
f 123 125 126
f 138 109 35
f 38 121 123
f 38 123 124
f 136 38 124
f 35 139 138
f 139 36 140
f 141 131 38
f 136 141 38
f 131 127 43
f 133 128 127
f 135 129 130
f 134 130 128
f 131 43 45
f 133 127 131
f 134 128 133
f 132 129 135
f 135 130 134
f 140 43 127
f 140 127 128
f 140 128 130
f 141 133 131
f 141 134 133
f 138 137 108
f 124 137 136
f 124 126 137
f 136 137 141
f 141 137 138
f 139 141 138
f 140 141 139
f 140 130 179
f 180 134 141
f 140 180 141
f 142 145 71
f 146 145 142
f 66 144 147
f 145 70 71
f 145 144 70
f 76 147 158
f 142 143 149
f 148 144 145
f 148 147 144
f 146 148 145
f 142 149 146
f 160 147 148
f 160 158 147
f 150 148 146
f 150 160 148
f 146 149 151
f 146 151 150
f 150 151 167
f 153 152 76
f 76 157 153
f 92 91 152
f 76 158 159
f 76 156 157
f 159 162 76
f 162 156 76
f 92 152 154
f 154 152 153
f 154 153 155
f 161 158 160
f 161 159 158
f 161 160 150
f 166 161 150
f 163 161 166
f 163 162 159
f 163 159 161
f 164 162 163
f 165 157 156
f 165 156 164
f 155 153 157
f 155 157 165
f 164 156 162
f 150 167 166
f 166 168 163
f 166 169 168
f 163 168 170
f 166 167 169
f 163 170 164
f 164 172 165
f 164 170 172
f 165 172 175
f 168 169 171
f 168 171 170
f 170 171 173
f 170 173 172
f 90 89 174
f 132 174 129
f 90 174 132
f 179 174 86
f 130 129 179
f 179 129 174
f 180 90 132
f 180 135 134
f 132 135 180
f 87 169 167
f 171 169 87
f 154 179 92
f 155 179 154
f 87 173 171
f 87 176 173
f 178 176 87
f 87 180 178
f 179 180 140
f 165 177 155
f 155 177 179
f 165 175 177
f 172 176 175
f 175 176 178
f 172 173 176
f 175 178 177
f 177 178 179
f 179 178 180
