# rf_medial_shaft.obj  (128 v, 248 f)  units: metres
v -0.002165064 -0.063025258 0.066163905
v -0.002264181 -0.059360195 0.066724762
v -0.002000015 -0.059320595 0.066272102
v -0.002165064 -0.059339341 0.066486381
v -0.001767767 -0.062980130 0.065648109
v -0.001767767 -0.059294216 0.065970585
v -0.002414815 -0.063077807 0.066764563
v -0.002500000 -0.063134208 0.067409143
v -0.002414815 -0.063190602 0.068053730
v -0.002414815 -0.059391890 0.067087039
v -0.002500000 -0.059448287 0.067731619
v -0.002414815 -0.059504677 0.068376206
v -0.001250000 -0.062945507 0.065252319
v -0.000647048 -0.062923737 0.065003522
v -0.001250000 -0.059259586 0.065574795
v -0.001199298 -0.059257757 0.065553874
v -0.000647048 -0.059237819 0.065325998
v -0.000353466 -0.062920369 0.064965017
v 0.000000000 -0.062916316 0.064918660
v 0.000000000 -0.059230398 0.065241136
v -0.002165064 -0.063243151 0.068654388
v -0.002165064 -0.059557229 0.068976864
v -0.002108056 -0.059563704 0.069050878
v -0.002039154 -0.059571531 0.069140330
v -0.001972519 -0.059579097 0.069226839
v -0.001767767 -0.063288279 0.069170184
v -0.001767767 -0.059602354 0.069492660
v -0.001250000 -0.063322902 0.069565967
v -0.000647048 -0.063344672 0.069814771
v -0.001250000 -0.059636980 0.069888450
v -0.000647048 -0.059658751 0.070137247
v 0.000000000 -0.063352093 0.069899634
v -0.002008381 -0.039098792 0.068052225
v -0.002165064 -0.039116587 0.068255641
v -0.002041077 -0.036113922 0.068356141
v -0.002165064 -0.036128003 0.068517111
v -0.001767767 -0.039071463 0.067739844
v -0.001767767 -0.036082879 0.068001315
v -0.001250000 -0.039036833 0.067344062
v -0.001250000 -0.036048252 0.067605525
v -0.000864916 -0.039022934 0.067185156
v -0.000647048 -0.039015066 0.067095257
v -0.000647048 -0.036026485 0.067356728
v -0.000353463 -0.036023114 0.067318223
v -0.002414815 -0.039169140 0.068856299
v -0.002500000 -0.039225534 0.069500886
v -0.002414815 -0.036180556 0.069117770
v -0.002414815 -0.039281927 0.070145473
v -0.002500000 -0.036236949 0.069762349
v -0.002414815 -0.036293343 0.070406936
v -0.002189355 -0.039329369 0.070687704
v -0.002165064 -0.039334480 0.070746131
v -0.002165064 -0.036345895 0.071007594
v -0.001767767 -0.039379604 0.071261927
v -0.001767767 -0.036391020 0.071523391
v -0.001312026 -0.039410081 0.071610294
v -0.000647048 -0.039435998 0.071906507
v -0.001250000 -0.039414231 0.071657710
v -0.001250000 -0.036425646 0.071919173
v -0.000647048 -0.036447413 0.072167978
v -0.000332921 -0.036451019 0.072209172
v 0.000256792 -0.059233345 0.065274812
v 0.000611928 -0.059237417 0.065321393
v 0.000647048 -0.062923737 0.065003522
v 0.001250000 -0.062945507 0.065252319
v 0.000647048 -0.059237819 0.065325998
v 0.001250000 -0.059259586 0.065574795
v 0.001767767 -0.062980138 0.065648109
v 0.001620314 -0.059284352 0.065857865
v 0.001767767 -0.059294213 0.065970585
v 0.002165064 -0.063025258 0.066163905
v 0.002165064 -0.059339341 0.066486381
v 0.002414815 -0.063077815 0.066764563
v 0.002500000 -0.063134208 0.067409143
v 0.002453465 -0.063165009 0.067761265
v 0.002414815 -0.063190602 0.068053730
v 0.002286103 -0.059364811 0.066777483
v 0.002381916 -0.059384968 0.067007914
v 0.002414815 -0.059391890 0.067087039
v 0.002430934 -0.059402563 0.067209013
v 0.002492837 -0.059443545 0.067677423
v 0.002500000 -0.059448287 0.067731619
v 0.002414815 -0.059504680 0.068376206
v 0.000000000 -0.059666175 0.070222110
v 0.000041738 -0.059665695 0.070216633
v 0.000647048 -0.063344672 0.069814771
v 0.001250000 -0.063322902 0.069565967
v 0.000647048 -0.059658751 0.070137247
v 0.001229665 -0.059637714 0.069896840
v 0.001250000 -0.059636980 0.069888450
v 0.001767767 -0.063288279 0.069170184
v 0.001767767 -0.059602357 0.069492660
v 0.002165064 -0.063243151 0.068654388
v 0.002165064 -0.059557229 0.068976864
v 0.002268820 -0.059535399 0.068727329
v 0.000000000 -0.039007645 0.067010395
v 0.000000000 -0.036019061 0.067271866
v 0.000647048 -0.039015070 0.067095257
v 0.000647048 -0.036026485 0.067356728
v 0.001250000 -0.039036836 0.067344062
v 0.001250000 -0.036048252 0.067605525
v 0.001709486 -0.039067563 0.067695297
v 0.001767767 -0.039071463 0.067739844
v 0.001767767 -0.036082879 0.068001315
v 0.002008381 -0.039098792 0.068052225
v 0.002165064 -0.039116587 0.068255641
v 0.002165064 -0.036128003 0.068517111
v 0.000000000 -0.039443422 0.071991369
v 0.000072842 -0.039442588 0.071981817
v 0.000000000 -0.036454838 0.072252840
v 0.000647048 -0.039435998 0.071906507
v 0.000647048 -0.036447413 0.072167978
v 0.002414815 -0.039169140 0.068856299
v 0.002500000 -0.039225534 0.069500886
v 0.002414815 -0.036180556 0.069117770
v 0.002465041 -0.039248675 0.069765411
v 0.002414815 -0.039281927 0.070145473
v 0.002425019 -0.039275173 0.070068255
v 0.002500000 -0.036236949 0.069762349
v 0.002453466 -0.036267757 0.070114471
v 0.002414815 -0.036293343 0.070406936
v 0.001767767 -0.039379604 0.071261927
v 0.001250000 -0.039414231 0.071657710
v 0.001250000 -0.036425646 0.071919173
v 0.001767767 -0.036391020 0.071523391
v 0.002165064 -0.039334476 0.070746131
v 0.002165064 -0.036345895 0.071007594
v 0.002255307 -0.039315488 0.070529088
f 15 6 16
f 17 16 3
f 6 3 16
f 3 4 17
f 4 2 17
f 10 11 63
f 2 10 63
f 7 1 86
f 8 7 86
f 9 8 86
f 11 12 63
f 12 22 63
f 20 17 2
f 62 20 2
f 13 14 86
f 14 18 86
f 2 63 62
f 66 63 23
f 67 66 24
f 1 5 86
f 5 13 86
f 22 23 63
f 66 23 24
f 24 25 69
f 25 27 77
f 21 9 86
f 26 21 86
f 28 26 32
f 28 32 29
f 26 86 32
f 27 30 77
f 34 33 105
f 45 34 106
f 41 42 98
f 39 41 103
f 33 37 105
f 37 39 105
f 50 47 49
f 53 36 47
f 50 53 47
f 53 55 36
f 36 61 35
f 38 35 61
f 55 59 36
f 59 60 36
f 46 45 106
f 48 46 106
f 51 48 106
f 52 51 116
f 40 38 125
f 60 61 36
f 110 38 61
f 54 52 116
f 38 110 112
f 56 54 116
f 58 56 118
f 19 64 71
f 74 18 19
f 64 65 68
f 87 86 18
f 69 67 24
f 70 69 25
f 93 91 18
f 91 87 18
f 72 70 25
f 77 72 25
f 64 68 71
f 19 71 73
f 74 75 18
f 74 19 73
f 76 18 75
f 76 93 18
f 84 78 77
f 88 79 78
f 88 80 79
f 92 94 80
f 94 81 80
f 95 82 81
f 94 95 81
f 95 83 82
f 30 31 77
f 31 84 77
f 84 85 78
f 85 88 78
f 88 89 80
f 90 80 89
f 90 92 80
f 42 96 98
f 41 98 100
f 43 121 44
f 100 102 41
f 103 41 102
f 39 103 105
f 34 105 106
f 97 44 120
f 99 97 119
f 101 99 119
f 115 104 101
f 115 107 104
f 43 40 127
f 106 113 51
f 114 51 113
f 114 116 51
f 40 125 127
f 57 58 118
f 38 112 124
f 57 118 108
f 38 124 125
f 116 118 56
f 108 128 109
f 111 109 128
f 121 120 44
f 119 97 120
f 43 127 121
f 101 119 115
f 108 117 128
f 108 118 117
f 123 126 122
f 123 111 128
f 123 128 126
f 7 2 1
f 4 1 2
f 1 3 5
f 3 1 4
f 15 5 6
f 15 13 5
f 6 5 3
f 10 7 8
f 2 7 10
f 10 8 11
f 11 8 9
f 12 9 21
f 11 9 12
f 13 15 16
f 17 13 16
f 17 14 13
f 20 18 14
f 20 14 17
f 20 19 18
f 12 21 22
f 26 23 21
f 22 21 23
f 26 24 23
f 26 25 24
f 27 26 28
f 25 26 27
f 27 28 30
f 30 28 31
f 29 31 28
f 29 32 31
f 32 84 31
f 45 36 34
f 34 35 33
f 34 36 35
f 33 35 38
f 37 40 39
f 33 38 37
f 37 38 40
f 39 40 41
f 41 43 42
f 43 41 40
f 42 43 44
f 42 44 97
f 42 97 96
f 46 47 45
f 45 47 36
f 47 46 49
f 48 49 46
f 51 50 48
f 48 50 49
f 50 51 53
f 52 53 51
f 54 53 52
f 54 55 53
f 56 55 54
f 58 59 56
f 56 59 55
f 57 59 58
f 57 60 59
f 57 108 60
f 108 61 60
f 108 110 61
f 19 62 64
f 62 19 20
f 64 62 63
f 64 63 66
f 67 64 66
f 64 67 65
f 69 65 67
f 65 69 70
f 65 70 68
f 68 72 71
f 68 70 72
f 71 77 73
f 71 72 77
f 74 73 80
f 73 77 78
f 73 78 79
f 73 79 80
f 74 80 81
f 74 81 82
f 74 83 75
f 76 75 83
f 76 95 93
f 74 82 83
f 76 83 95
f 32 86 84
f 84 86 85
f 85 86 88
f 87 88 86
f 88 87 89
f 87 90 89
f 91 90 87
f 90 91 92
f 93 92 91
f 93 94 92
f 93 95 94
f 99 96 97
f 96 99 98
f 101 98 99
f 98 101 100
f 104 100 101
f 100 104 102
f 103 102 104
f 103 104 105
f 105 107 106
f 107 105 104
f 108 109 110
f 111 110 109
f 110 111 112
f 123 112 111
f 112 123 124
f 106 115 113
f 114 113 119
f 115 106 107
f 113 115 119
f 114 119 116
f 116 121 118
f 117 118 121
f 117 121 128
f 119 120 116
f 116 120 121
f 122 124 123
f 124 122 125
f 126 125 122
f 126 127 125
f 128 127 126
f 127 128 121
