# rf_medial.obj  (761 v, 1518 f)  units: metres
v -0.009571639 -0.062746532 0.062978022
v -0.009800000 -0.062846594 0.064121701
v -0.008921321 -0.062661707 0.062008455
v -0.007948050 -0.062605031 0.061360613
v -0.009571639 -0.060754143 0.063152336
v -0.009800000 -0.060854200 0.064296015
v -0.008921321 -0.060669318 0.062182765
v -0.007948050 -0.060612638 0.061534923
v -0.006800000 -0.062585123 0.061133120
v -0.006800000 -0.060592733 0.061307430
v -0.009800000 -0.061987229 0.077246547
v -0.009800000 -0.061588749 0.077281408
v -0.009571639 -0.061898321 0.080819845
v -0.008921321 -0.061813496 0.079850279
v -0.007948050 -0.061756816 0.079202428
v -0.009800000 -0.061998382 0.081963524
v -0.006800000 -0.061736915 0.078974940
v -0.004200000 -0.062585123 0.061133120
v -0.004200000 -0.060592733 0.061307430
v -0.002934443 -0.061087456 0.066962093
v -0.002934443 -0.059393924 0.067110263
v -0.002934443 -0.061196178 0.068204820
v -0.002934443 -0.059502646 0.068352982
v -0.001468736 -0.062608570 0.061401103
v -0.001468736 -0.060616180 0.061575413
v -0.002427051 -0.060988128 0.065826811
v -0.001500000 -0.060915377 0.064995266
v -0.002427051 -0.059294600 0.065974973
v -0.001500000 -0.059221849 0.065143429
v -0.000313585 -0.060881782 0.064611241
v -0.000313585 -0.059188250 0.064759411
v -0.002427051 -0.061295502 0.069340102
v -0.001500000 -0.061368253 0.070171647
v -0.002427051 -0.059601970 0.069488265
v -0.001500000 -0.059674721 0.070319809
v -0.000313585 -0.061401851 0.070555672
v -0.000313585 -0.059708320 0.070703834
v -0.009800000 -0.065347962 0.092712492
v -0.009555283 -0.065482624 0.094251692
v -0.008845085 -0.065604106 0.095640235
v -0.009800000 -0.062658235 0.092947811
v -0.009555283 -0.062792897 0.094487019
v -0.008845085 -0.062914379 0.095875554
v -0.007738926 -0.065700516 0.096742183
v -0.007738926 -0.063010789 0.096977502
v -0.006345085 -0.065762416 0.097449675
v -0.006345085 -0.063072689 0.097685002
v -0.009800000 -0.064122453 0.109683879
v -0.009555283 -0.064257115 0.111223087
v -0.008845085 -0.064378597 0.112611622
v -0.007738926 -0.064475007 0.113713570
v -0.005523811 -0.064032324 0.105198465
v -0.005600000 -0.064091258 0.105872095
v -0.005250333 -0.063930534 0.104034960
v -0.005146066 -0.063904561 0.103738114
v -0.005459596 -0.063982651 0.104630716
v -0.005462411 -0.063984826 0.104655601
v -0.005459596 -0.064199865 0.107113473
v -0.005459596 -0.063999489 0.107131004
v -0.005452175 -0.063961215 0.107132651
v -0.005431041 -0.063928477 0.107130669
v -0.005399412 -0.063906252 0.107125372
v -0.005294011 -0.064040728 0.107602417
v -0.005045426 -0.064303026 0.108292595
v -0.005045426 -0.064102650 0.108310126
v -0.005038567 -0.064064234 0.108310178
v -0.005019037 -0.064031102 0.108303636
v -0.004989807 -0.064008281 0.108291499
v -0.004955329 -0.063999251 0.108275622
v -0.005600000 -0.063890882 0.105889626
v -0.005592388 -0.063852757 0.105892964
v -0.005570711 -0.063820437 0.105895795
v -0.005538268 -0.063798845 0.105897680
v -0.005294011 -0.063741028 0.104176842
v -0.005045426 -0.063879490 0.103451595
v -0.005045426 -0.063679114 0.103469126
v -0.005038567 -0.063641280 0.103475749
v -0.005019037 -0.063609779 0.103487946
v -0.004989807 -0.063589416 0.103503861
v -0.004955329 -0.063583277 0.103521064
v -0.005459596 -0.063782275 0.104648247
v -0.005452175 -0.063744299 0.104653277
v -0.005431041 -0.063712403 0.104660906
v -0.005399412 -0.063691437 0.104669988
v -0.005362104 -0.063684598 0.104679137
v -0.005500000 -0.063791260 0.105898343
v -0.005362104 -0.063897930 0.107117549
v -0.006345085 -0.064536907 0.114421070
v -0.004800000 -0.065783739 0.097693466
v -0.004800000 -0.063094012 0.097928785
v -0.004503758 -0.063804358 0.102592811
v -0.004511421 -0.063605048 0.102622494
v -0.004378256 -0.063786954 0.102393843
v -0.004332294 -0.063782945 0.102348059
v -0.004378256 -0.063586570 0.102411374
v -0.004372305 -0.063548863 0.102419436
v -0.004355357 -0.063517727 0.102435723
v -0.004329992 -0.063497894 0.102457762
v -0.004300073 -0.063492388 0.102482200
v -0.004133254 -0.063765600 0.102149770
v -0.003491543 -0.063709669 0.101510502
v -0.003382409 -0.063703693 0.101442188
v -0.003491543 -0.063509293 0.101528034
v -0.003486797 -0.063471690 0.101537295
v -0.003473281 -0.063440844 0.101557001
v -0.003453054 -0.063421458 0.101584166
v -0.003429194 -0.063416488 0.101614632
v -0.003279612 -0.063698061 0.101377845
v -0.003279612 -0.063497685 0.101395376
v -0.003003133 -0.063682921 0.101204783
v -0.002852251 -0.063674659 0.101110339
v -0.002429749 -0.063651517 0.100845866
v -0.002429749 -0.063451141 0.100863397
v -0.002426446 -0.063413620 0.100873567
v -0.002417041 -0.063383006 0.100895852
v -0.002402965 -0.063363954 0.100926861
v -0.002386361 -0.063359380 0.100961871
v -0.001877699 -0.063634686 0.100653432
v -0.001719331 -0.063629851 0.100598231
v -0.001622399 -0.063626900 0.100564443
v -0.001719331 -0.063429475 0.100615762
v -0.001246117 -0.063615419 0.100433275
v -0.001246117 -0.063415043 0.100450806
v -0.001244423 -0.063377574 0.100461535
v -0.001239600 -0.063347094 0.100485414
v -0.001232381 -0.063328259 0.100518815
v -0.001223865 -0.063323922 0.100556642
v -0.000630242 -0.063811183 0.102670826
v -0.000000000 -0.063603185 0.100293405
v -0.000000000 -0.063402809 0.100310937
v -0.000000000 -0.063365348 0.100321852
v -0.000000000 -0.063334920 0.100346275
v -0.000000000 -0.063316151 0.100380488
v -0.000000000 -0.063311905 0.100419275
v -0.000520945 -0.063807718 0.102631196
v -0.000454603 -0.063807718 0.102631196
v -0.000321757 -0.063807718 0.102631196
v -0.004378256 -0.064395562 0.109350353
v -0.004573850 -0.064368434 0.109040253
v -0.004511421 -0.064176716 0.109156758
v -0.004378256 -0.064195186 0.109367885
v -0.004372305 -0.064156651 0.109366491
v -0.004355357 -0.064123154 0.109355852
v -0.004329992 -0.064099796 0.109337598
v -0.004300073 -0.064090140 0.109314486
v -0.004100451 -0.064419776 0.109627098
v -0.004844074 -0.063851565 0.103132367
v -0.004669792 -0.063827388 0.102856047
v -0.003119078 -0.064001828 0.104849942
v -0.003073718 -0.063992321 0.104741268
v -0.003268194 -0.064075537 0.105692402
v -0.003272105 -0.064077467 0.105714500
v -0.003300000 -0.064091258 0.105872095
v -0.002534453 -0.063908428 0.103782289
v -0.002568409 -0.063913554 0.103840880
v -0.002551098 -0.063910939 0.103811011
v -0.002518271 -0.063905984 0.103754364
v -0.002510265 -0.063904770 0.103740551
v -0.002498765 -0.063903935 0.103730939
v -0.003031210 -0.063983411 0.104639418
v -0.003047436 -0.063986816 0.104678296
v -0.003061076 -0.063989677 0.104710974
v -0.002933963 -0.063968733 0.104471624
v -0.003161056 -0.064159937 0.106657088
v -0.003150884 -0.064164966 0.106714562
v -0.003119078 -0.064180687 0.106894255
v -0.003103797 -0.064183883 0.106930867
v -0.003031210 -0.064199105 0.107104778
v -0.003022433 -0.064200424 0.107119918
v -0.002596181 -0.064264774 0.107855402
v -0.002510265 -0.064277746 0.108003646
v -0.002516664 -0.064276777 0.107992604
v -0.003119078 -0.062606022 0.104972057
v -0.003300000 -0.062695451 0.105994217
v -0.003212132 -0.062483318 0.105994217
v -0.002510265 -0.062527381 0.103861056
v -0.002510265 -0.062315248 0.104073189
v -0.003031210 -0.062606022 0.104759924
v -0.003031210 -0.062393889 0.104972057
v -0.002819078 -0.062306020 0.104972057
v -0.003000000 -0.062395450 0.105994217
v -0.003119078 -0.062784873 0.107016370
v -0.003031210 -0.062572740 0.107016370
v -0.003031210 -0.062784873 0.107228503
v -0.002819078 -0.062484872 0.107016370
v -0.002510265 -0.062863514 0.108127370
v -0.002510265 -0.062651381 0.107915238
v -0.004800000 -0.064558230 0.114664860
v -0.003546650 -0.064468041 0.110178798
v -0.003491543 -0.064472847 0.110233694
v -0.003491543 -0.064272471 0.110251226
v -0.003486797 -0.064233832 0.110248625
v -0.003473281 -0.064200036 0.110234573
v -0.003453054 -0.064176232 0.110211194
v -0.003429194 -0.064166039 0.110182054
v -0.003279612 -0.064484455 0.110366352
v -0.003279612 -0.064284079 0.110383883
v -0.002968012 -0.064501524 0.110561401
v -0.002857105 -0.064507596 0.110630825
v -0.001843763 -0.064326487 0.108560771
v -0.001745151 -0.064333692 0.108643204
v -0.001712132 -0.064336114 0.108670808
v -0.001500000 -0.064343743 0.108758003
v -0.002413880 -0.063897721 0.103659987
v -0.002361274 -0.063893877 0.103616014
v -0.002298133 -0.062315248 0.103861056
v -0.002298133 -0.062227380 0.104073189
v -0.002005133 -0.062392130 0.103527479
v -0.001712132 -0.063846402 0.103073388
v -0.001652889 -0.063844278 0.103049032
v -0.001537182 -0.063840114 0.103001468
v -0.001598769 -0.063357450 0.103069209
v -0.001500000 -0.063838772 0.102986187
v -0.001312825 -0.063832834 0.102918319
v -0.001712132 -0.062469009 0.103193894
v -0.001712132 -0.062256876 0.103406027
v -0.001500000 -0.062469009 0.103106029
v -0.001500000 -0.062256876 0.103193894
v -0.001500000 -0.062169008 0.103406027
v -0.002298133 -0.062651381 0.108127370
v -0.002298133 -0.062563516 0.107915238
v -0.001712132 -0.062921889 0.108794533
v -0.001500000 -0.062621891 0.108582400
v -0.001500000 -0.062921889 0.108882397
v -0.001500000 -0.062709756 0.108794533
v -0.000818858 -0.064365350 0.109004974
v -0.000678004 -0.064369820 0.109056048
v -0.000520945 -0.064374804 0.109113000
v -0.000520945 -0.062437952 0.102751039
v -0.000520945 -0.062225819 0.102838904
v -0.000520945 -0.062137950 0.103051037
v -0.000520945 -0.062740810 0.109149531
v -0.000520945 -0.062952943 0.109237395
v -0.000520945 -0.062652946 0.108937398
v -0.002429749 -0.064530998 0.110898323
v -0.002429749 -0.064330623 0.110915855
v -0.002426446 -0.064291902 0.110912360
v -0.002417041 -0.064257875 0.110895731
v -0.002402965 -0.064233735 0.110868499
v -0.002386361 -0.064223148 0.110834815
v -0.002076571 -0.064541772 0.111021437
v -0.001719331 -0.064552665 0.111145966
v -0.001719331 -0.064352289 0.111163497
v -0.001484076 -0.064559840 0.111227967
v -0.001246117 -0.064567097 0.111310914
v -0.001246117 -0.064366721 0.111328445
v -0.001244423 -0.064327948 0.111324392
v -0.001239600 -0.064293787 0.111306168
v -0.001232381 -0.064269438 0.111276545
v -0.001223865 -0.064258598 0.111240044
v -0.000626623 -0.064573176 0.111380450
v -0.000000000 -0.064579330 0.111450784
v -0.000000000 -0.064378954 0.111468315
v -0.000000000 -0.064340167 0.111464068
v -0.000000000 -0.064305961 0.111445300
v -0.000000000 -0.064281538 0.111414872
v -0.000000000 -0.064270616 0.111377418
v -0.008921321 -0.037956078 0.064169921
v -0.009571639 -0.038040902 0.065139487
v -0.009800000 -0.038140964 0.066283166
v -0.008921321 -0.035764448 0.064361662
v -0.009571639 -0.035849273 0.065331228
v -0.009800000 -0.035949335 0.066474907
v -0.007948050 -0.037899397 0.063522078
v -0.007948050 -0.035707768 0.063713819
v -0.006800000 -0.037879497 0.063294582
v -0.006800000 -0.035687868 0.063486323
v -0.009800000 -0.041215304 0.080770351
v -0.008921321 -0.041291885 0.081645682
v -0.007948050 -0.041235209 0.080997840
v -0.009571639 -0.041376714 0.082615249
v -0.009800000 -0.041476771 0.083758935
v -0.009800000 -0.039422154 0.080927230
v -0.006800000 -0.041215304 0.080770351
v -0.002687006 -0.039459720 0.072177663
v -0.004200000 -0.037879497 0.063294582
v -0.004200000 -0.035687868 0.063486323
v -0.003510742 -0.039098792 0.068052225
v -0.002687006 -0.038991343 0.066824101
v -0.002687006 -0.038194388 0.066893831
v -0.003800000 -0.039225534 0.069500886
v -0.003800000 -0.038428575 0.069570608
v -0.003510742 -0.039352275 0.070949547
v -0.003510742 -0.038555317 0.071019270
v -0.003510742 -0.038301837 0.068121947
v -0.002687006 -0.038662765 0.072247393
v -0.001454197 -0.039531514 0.072998270
v -0.000000000 -0.039556723 0.073286422
v -0.001468736 -0.037902940 0.063562565
v -0.001454197 -0.038919553 0.066003501
v -0.001454197 -0.038122594 0.066073224
v -0.001468736 -0.035711311 0.063754305
v -0.000000000 -0.038894340 0.065715343
v -0.000000000 -0.038097385 0.065785073
v -0.001454197 -0.038734559 0.073067993
v -0.000000000 -0.038759768 0.073356152
v -0.009800000 -0.040941194 0.094847806
v -0.009555283 -0.041075855 0.096387014
v -0.008845085 -0.041197337 0.097775549
v -0.007738926 -0.041293744 0.098877497
v -0.009800000 -0.038450707 0.095065698
v -0.009555283 -0.038585369 0.096604899
v -0.008845085 -0.038706850 0.097993441
v -0.007738926 -0.038803257 0.099095389
v -0.006345085 -0.041355643 0.099584997
v -0.006345085 -0.038865156 0.099802881
v -0.009800000 -0.042405408 0.111583881
v -0.009555283 -0.042540073 0.113123082
v -0.008845085 -0.042661555 0.114511617
v -0.007738926 -0.042757962 0.115613572
v -0.006345085 -0.042819861 0.116321065
v -0.004800000 -0.041376971 0.099828780
v -0.004800000 -0.038886484 0.100046672
v -0.004012132 -0.042784449 0.107754759
v -0.004100000 -0.042572316 0.107754759
v -0.003800000 -0.042872317 0.107754759
v -0.003914015 -0.042469971 0.106584966
v -0.003826147 -0.042682104 0.106584966
v -0.003826147 -0.042469971 0.106372833
v -0.003963073 -0.042627208 0.107169867
v -0.003826147 -0.042886794 0.108924560
v -0.003914015 -0.042674661 0.108924560
v -0.003826147 -0.042674661 0.109136693
v -0.004100000 -0.042074218 0.107798338
v -0.003914015 -0.041971873 0.106628545
v -0.003826147 -0.041953456 0.106418021
v -0.003914015 -0.042176560 0.108968139
v -0.003826147 -0.042194981 0.109178655
v -0.003286397 -0.042589780 0.105529673
v -0.003286397 -0.042377647 0.105317540
v -0.003074265 -0.042677648 0.105529673
v -0.003074265 -0.042589780 0.105317540
v -0.003286397 -0.041861128 0.105362736
v -0.002759990 -0.042447075 0.104898803
v -0.003614015 -0.042769972 0.106584966
v -0.003614015 -0.042974662 0.108924560
v -0.004800000 -0.042841189 0.116564855
v -0.003286397 -0.042979117 0.109979846
v -0.003286397 -0.042766985 0.110191979
v -0.003074265 -0.043066986 0.109979846
v -0.003286397 -0.042287305 0.110233940
v -0.002445716 -0.042304374 0.104480058
v -0.002233584 -0.042516507 0.104480058
v -0.002233584 -0.042604376 0.104692191
v -0.002445716 -0.041787859 0.104525253
v -0.001759160 -0.041757371 0.104176760
v -0.001386397 -0.042257331 0.103942364
v -0.001386397 -0.041858852 0.103977226
v -0.001280331 -0.041858852 0.103933290
v -0.001386397 -0.041740816 0.103987552
v -0.001174265 -0.042557333 0.104154497
v -0.001174265 -0.042469464 0.103942364
v -0.001174265 -0.042257331 0.103854500
v -0.001174265 -0.041733187 0.103900351
v -0.000587132 -0.042505294 0.103955798
v -0.000000000 -0.042541124 0.103969224
v -0.000000000 -0.042453256 0.103757091
v -0.000000000 -0.042241123 0.103669226
v -0.000000000 -0.041716978 0.103715077
v -0.002445716 -0.043052386 0.110817328
v -0.002445716 -0.042840254 0.111029461
v -0.002233584 -0.043140255 0.110817328
v -0.002233584 -0.043052386 0.111029461
v -0.002445716 -0.042360574 0.111071423
v -0.001386397 -0.042887297 0.111567155
v -0.001386397 -0.042407617 0.111609116
v -0.001174265 -0.043187298 0.111355022
v -0.001174265 -0.043099429 0.111567155
v -0.001174265 -0.042887297 0.111655019
v -0.001174265 -0.042415246 0.111696318
v -0.000695538 -0.042421855 0.111771852
v -0.000000000 -0.043203510 0.111540303
v -0.000000000 -0.043115642 0.111752436
v -0.000000000 -0.042903509 0.111840300
v -0.000000000 -0.042431455 0.111881599
v 0.001157568 -0.062678002 0.062194750
v 0.001157568 -0.060685616 0.062369063
v 0.000927051 -0.060893144 0.064741142
v 0.000927051 -0.059199616 0.064889312
v 0.002007392 -0.060947508 0.065362506
v 0.002007392 -0.059253976 0.065510668
v 0.000927051 -0.061390486 0.070425771
v 0.000927051 -0.059696954 0.070573933
v 0.002007392 -0.061336122 0.069804408
v 0.002007392 -0.059642594 0.069952570
v 0.003577983 -0.062790759 0.063483566
v 0.003577983 -0.060798373 0.063657880
v 0.003000000 -0.061141815 0.067583457
v 0.002740636 -0.061035469 0.066367887
v 0.002740636 -0.059341937 0.066516057
v 0.003000000 -0.059448287 0.067731619
v 0.002740636 -0.061248165 0.068799026
v 0.002740636 -0.059554633 0.068947189
v 0.005699495 -0.062942505 0.065218024
v 0.005699495 -0.060950119 0.065392330
v 0.007440574 -0.063127406 0.067331456
v 0.008734314 -0.063338362 0.069742665
v 0.009530994 -0.063567258 0.072358973
v 0.007440574 -0.061135020 0.067505769
v 0.008734314 -0.061345972 0.069916978
v 0.009530994 -0.061574869 0.072533287
v 0.006800000 -0.061736915 0.078974940
v 0.009800000 -0.063805304 0.075079843
v 0.007948050 -0.061756816 0.079202428
v 0.009800000 -0.061812915 0.075254157
v 0.009800000 -0.061987229 0.077246547
v 0.009800000 -0.061588749 0.077281408
v 0.008921321 -0.061813496 0.079850279
v 0.009571639 -0.061898321 0.080819845
v 0.009800000 -0.061998382 0.081963524
v 0.000113176 -0.063604295 0.100306109
v 0.000134562 -0.063604504 0.100308508
v 0.000309181 -0.063606218 0.100328110
v 0.000480484 -0.063807718 0.102631196
v 0.000520945 -0.063807718 0.102631196
v 0.000984598 -0.063718468 0.100394681
v 0.001085676 -0.063811950 0.100397937
v 0.001147356 -0.063848317 0.100408770
v 0.001152575 -0.063851394 0.100409687
v 0.001223865 -0.063323922 0.100556642
v 0.000708120 -0.063813657 0.102699064
v 0.000705587 -0.063813575 0.102698140
v 0.001976138 -0.063933492 0.100727104
v 0.002346047 -0.063950941 0.100877993
v 0.002389457 -0.063955121 0.100903295
v 0.002402964 -0.063946508 0.100875892
v 0.002417041 -0.063922361 0.100848660
v 0.001244423 -0.063852295 0.100419998
v 0.001240469 -0.063880295 0.100434944
v 0.001246117 -0.063813522 0.100415945
v 0.001334332 -0.063889347 0.100471251
v 0.001450926 -0.063897364 0.100517735
v 0.001246117 -0.063415043 0.100450806
v 0.001244423 -0.063377574 0.100461535
v 0.001239600 -0.063347094 0.100485414
v 0.001232381 -0.063328259 0.100518815
v 0.001719331 -0.063827954 0.100580901
v 0.001719331 -0.063429475 0.100615762
v 0.002155867 -0.063760757 0.100877993
v 0.002426446 -0.063888341 0.100832030
v 0.002429749 -0.063849621 0.100828536
v 0.002429749 -0.063451141 0.100863397
v 0.002386361 -0.063359380 0.100961871
v 0.002402965 -0.063363954 0.100926861
v 0.002426446 -0.063413620 0.100873567
v 0.002417041 -0.063383006 0.100895852
v 0.002155867 -0.063672893 0.101090126
v 0.003029166 -0.063987814 0.101294763
v 0.003198496 -0.063916847 0.101449735
v 0.003441619 -0.064008899 0.101547167
v 0.003473281 -0.063980207 0.101509817
v 0.003453053 -0.064004011 0.101533197
v 0.003504151 -0.064009205 0.101587288
v 0.003513155 -0.064009249 0.101593070
v 0.003486797 -0.063946411 0.101495765
v 0.003491543 -0.063907772 0.101493165
v 0.003632988 -0.063998893 0.101677030
v 0.003660445 -0.063996516 0.101696268
v 0.003279612 -0.063896164 0.101360507
v 0.003279612 -0.063497685 0.101395376
v 0.003473281 -0.063440844 0.101557001
v 0.003491543 -0.063509293 0.101528034
v 0.003486797 -0.063471690 0.101537295
v 0.003429194 -0.063416488 0.101614632
v 0.003453054 -0.063421458 0.101584166
v 0.004800000 -0.065783739 0.097693466
v 0.003746571 -0.063979514 0.101762779
v 0.003783328 -0.063972257 0.101791166
v 0.003832253 -0.063952573 0.101835415
v 0.003863106 -0.063940153 0.101863317
v 0.004800000 -0.063094012 0.097928785
v 0.003989615 -0.063858695 0.101997443
v 0.004028994 -0.063854218 0.102037363
v 0.004028994 -0.063772932 0.102233611
v 0.004134092 -0.063854046 0.102142878
v 0.004224468 -0.063853897 0.102233611
v 0.004378256 -0.063856021 0.102387801
v 0.004300073 -0.063492388 0.102482200
v 0.004329992 -0.063497894 0.102457762
v 0.004355357 -0.063517727 0.102435723
v 0.004378256 -0.063586570 0.102411374
v 0.004372305 -0.063548863 0.102419436
v 0.004458381 -0.063837446 0.102517426
v 0.004511421 -0.063825145 0.102603242
v 0.004564660 -0.063812807 0.102689371
v 0.004511421 -0.063605048 0.102622494
v 0.000023675 -0.064374804 0.109113000
v 0.000353806 -0.064374804 0.109113000
v 0.000520945 -0.064374804 0.109113000
v 0.000818859 -0.064365350 0.109004974
v 0.000000000 -0.062331885 0.102794968
v 0.000520945 -0.062437952 0.102751039
v 0.000520945 -0.062225819 0.102838904
v 0.000520945 -0.062137950 0.103051037
v 0.000520945 -0.062740810 0.109149531
v 0.000520945 -0.062952943 0.109237395
v 0.000520945 -0.062652946 0.108937398
v 0.001500000 -0.064343743 0.108758003
v 0.001342942 -0.064348720 0.108814955
v 0.001534184 -0.064342514 0.108743951
v 0.001712132 -0.064336114 0.108670808
v 0.001745151 -0.064333692 0.108643204
v 0.002378634 -0.064287372 0.108113676
v 0.001500000 -0.063838772 0.102986187
v 0.001573105 -0.063841403 0.103016235
v 0.001712132 -0.063846402 0.103073388
v 0.001791557 -0.063852213 0.103139773
v 0.001500000 -0.062469009 0.103106029
v 0.001500000 -0.062256876 0.103193894
v 0.001500000 -0.062169008 0.103406027
v 0.001712132 -0.062469009 0.103193894
v 0.001712132 -0.062256876 0.103406027
v 0.001861123 -0.063857302 0.103197925
v 0.002005133 -0.062242128 0.103739604
v 0.002298133 -0.062315248 0.103861056
v 0.002298133 -0.062227380 0.104073189
v 0.001500000 -0.062621891 0.108582400
v 0.001500000 -0.062921889 0.108882397
v 0.001500000 -0.062709756 0.108794533
v 0.001712132 -0.062921889 0.108794533
v 0.002005133 -0.062786639 0.108460948
v 0.002298133 -0.062651381 0.108127370
v 0.002298133 -0.062563516 0.107915238
v 0.001223865 -0.064258598 0.111240044
v 0.000619506 -0.064573251 0.111381248
v 0.001246117 -0.064567097 0.111310914
v 0.001481372 -0.064559922 0.111228913
v 0.001246117 -0.064366721 0.111328445
v 0.001244423 -0.064327948 0.111324392
v 0.001239600 -0.064293787 0.111306168
v 0.001232381 -0.064269438 0.111276545
v 0.001719331 -0.064552665 0.111145966
v 0.001719331 -0.064352289 0.111163497
v 0.002072510 -0.064541891 0.111022852
v 0.002429749 -0.064530998 0.110898323
v 0.002429749 -0.064330623 0.110915855
v 0.002426446 -0.064291902 0.110912360
v 0.002417041 -0.064257875 0.110895731
v 0.002386361 -0.064223148 0.110834815
v 0.002402965 -0.064233735 0.110868499
v 0.002497677 -0.063903853 0.103730030
v 0.002510265 -0.063904770 0.103740551
v 0.002603141 -0.063918792 0.103900805
v 0.002607513 -0.063919455 0.103908353
v 0.003031210 -0.063983411 0.104639418
v 0.003066325 -0.063990772 0.104723550
v 0.003119078 -0.064001828 0.104849942
v 0.003120603 -0.064002588 0.104858562
v 0.003150884 -0.064017549 0.105029635
v 0.003288860 -0.064085744 0.105809160
v 0.003291511 -0.064095452 0.105920061
v 0.003268194 -0.064106978 0.106051788
v 0.003300000 -0.064091258 0.105872095
v 0.002570522 -0.064268649 0.107899673
v 0.002945294 -0.064212069 0.107253022
v 0.003031210 -0.064199105 0.107104778
v 0.003045861 -0.064196028 0.107069671
v 0.002510265 -0.064277746 0.108003646
v 0.002516664 -0.064276777 0.107992604
v 0.002539955 -0.064273261 0.107952416
v 0.003063123 -0.064192414 0.107028313
v 0.003088218 -0.064187154 0.106968187
v 0.003119078 -0.064180687 0.106894255
v 0.003120588 -0.064179935 0.106885724
v 0.002510265 -0.062527381 0.103861056
v 0.002510265 -0.062315248 0.104073189
v 0.003031210 -0.062606022 0.104759924
v 0.002819078 -0.062306020 0.104972057
v 0.003031210 -0.062393889 0.104972057
v 0.003000000 -0.062395450 0.105994217
v 0.003119078 -0.062606022 0.104972057
v 0.003300000 -0.062695451 0.105994217
v 0.003212132 -0.062483318 0.105994217
v 0.003031210 -0.062572740 0.107016370
v 0.003031210 -0.062784873 0.107228503
v 0.002819078 -0.062484872 0.107016370
v 0.002510265 -0.062863514 0.108127370
v 0.002510265 -0.062651381 0.107915238
v 0.003119078 -0.062784873 0.107016370
v 0.004100452 -0.064419776 0.109627098
v 0.004378256 -0.064395562 0.109350353
v 0.004372017 -0.064396106 0.109356567
v 0.004378256 -0.064195186 0.109367885
v 0.004372305 -0.064156651 0.109366491
v 0.004300073 -0.064090140 0.109314486
v 0.004329992 -0.064099796 0.109337598
v 0.004355357 -0.064123154 0.109355852
v 0.004511421 -0.064176716 0.109156758
v 0.004653657 -0.064357363 0.108913720
v 0.002852249 -0.064507857 0.110633858
v 0.002968012 -0.064501524 0.110561401
v 0.003279612 -0.064484455 0.110366352
v 0.003279612 -0.064284079 0.110383883
v 0.003491543 -0.064472847 0.110233694
v 0.003546651 -0.064468041 0.110178798
v 0.003429194 -0.064166039 0.110182054
v 0.003491543 -0.064272471 0.110251226
v 0.003473281 -0.064200036 0.110234573
v 0.003453054 -0.064176232 0.110211194
v 0.003486797 -0.064233832 0.110248625
v 0.004800000 -0.064558230 0.114664860
v 0.006345085 -0.065762416 0.097449675
v 0.006345085 -0.063072689 0.097685002
v 0.008845085 -0.065604106 0.095640235
v 0.009800000 -0.065347962 0.092712492
v 0.009555283 -0.065482624 0.094251692
v 0.009800000 -0.062658235 0.092947811
v 0.009555283 -0.062792897 0.094487019
v 0.007738926 -0.065700516 0.096742183
v 0.007738926 -0.063010789 0.096977502
v 0.008845085 -0.062914379 0.095875554
v 0.005189539 -0.063915387 0.103861876
v 0.005459596 -0.063982651 0.104630716
v 0.005516520 -0.064026684 0.105134003
v 0.005560074 -0.064060368 0.105519086
v 0.005600000 -0.064091258 0.105872095
v 0.005469922 -0.064191878 0.107022181
v 0.005231023 -0.064256795 0.107764207
v 0.005294011 -0.064040728 0.107602417
v 0.005459596 -0.064199865 0.107113473
v 0.005399412 -0.063906252 0.107125372
v 0.005431041 -0.063928477 0.107130669
v 0.005459596 -0.063999489 0.107131004
v 0.005452175 -0.063961215 0.107132651
v 0.005029267 -0.064305268 0.108318217
v 0.005045426 -0.064303026 0.108292595
v 0.004955329 -0.063999251 0.108275622
v 0.005045426 -0.064102650 0.108310126
v 0.005019037 -0.064031102 0.108303636
v 0.005038567 -0.064064234 0.108310178
v 0.004989807 -0.064008281 0.108291499
v 0.005530288 -0.064145178 0.106488451
v 0.005045426 -0.063879490 0.103451595
v 0.005045426 -0.063679114 0.103469126
v 0.004955329 -0.063583277 0.103521064
v 0.004989807 -0.063589416 0.103503861
v 0.005019037 -0.063609779 0.103487946
v 0.005038567 -0.063641280 0.103475749
v 0.005132656 -0.063901216 0.103699937
v 0.005294011 -0.063741028 0.104176842
v 0.005362104 -0.063684598 0.104679137
v 0.005399412 -0.063691437 0.104669988
v 0.005431041 -0.063712403 0.104660906
v 0.005452175 -0.063744299 0.104653277
v 0.005459596 -0.063782275 0.104648247
v 0.005500000 -0.063791260 0.105898343
v 0.005538268 -0.063798845 0.105897680
v 0.005570711 -0.063820437 0.105895795
v 0.005600000 -0.063890882 0.105889626
v 0.005592388 -0.063852757 0.105892964
v 0.005362104 -0.063897930 0.107117549
v 0.006345085 -0.064536907 0.114421070
v 0.007738926 -0.064475007 0.113713570
v 0.008845085 -0.064378597 0.112611622
v 0.009800000 -0.064122453 0.109683879
v 0.009555283 -0.064257115 0.111223087
v 0.001454197 -0.039531514 0.072998270
v 0.001157568 -0.037972376 0.064356215
v 0.001157568 -0.035780746 0.064547956
v 0.001454197 -0.038919553 0.066003501
v 0.001454197 -0.038122594 0.066073224
v 0.001454197 -0.038734559 0.073067993
v 0.002687006 -0.039459720 0.072177663
v 0.002687006 -0.038991343 0.066824101
v 0.002687006 -0.038194388 0.066893831
v 0.003510742 -0.039098792 0.068052225
v 0.003577983 -0.038085133 0.065645032
v 0.003577983 -0.035893504 0.065836772
v 0.003510742 -0.039352275 0.070949547
v 0.003510742 -0.038555317 0.071019270
v 0.003510742 -0.038301837 0.068121947
v 0.002687006 -0.038662765 0.072247393
v 0.003800000 -0.039225534 0.069500886
v 0.003800000 -0.038428575 0.069570608
v 0.005699495 -0.038236879 0.067379482
v 0.005699495 -0.036045250 0.067571230
v 0.007440574 -0.038421780 0.069492921
v 0.007440574 -0.036230151 0.069684662
v 0.008734314 -0.038632732 0.071904130
v 0.009530994 -0.038861632 0.074520439
v 0.008734314 -0.036441106 0.072095871
v 0.009530994 -0.036670003 0.074712180
v 0.006800000 -0.041215304 0.080770351
v 0.007948050 -0.041235209 0.080997840
v 0.008921321 -0.041291885 0.081645682
v 0.009800000 -0.041215304 0.080770351
v 0.009571639 -0.041376714 0.082615249
v 0.009800000 -0.041476771 0.083758935
v 0.009800000 -0.039099675 0.077241309
v 0.009800000 -0.039422154 0.080927230
v 0.009800000 -0.036908049 0.077433050
v 0.004800000 -0.041376971 0.099828780
v 0.004800000 -0.038886484 0.100046672
v 0.001174265 -0.042557333 0.104154497
v 0.001174265 -0.042469464 0.103942364
v 0.001174265 -0.042257331 0.103854500
v 0.001174265 -0.041733187 0.103900351
v 0.001703924 -0.042536918 0.104317278
v 0.001386397 -0.042257331 0.103942364
v 0.001386397 -0.041740816 0.103987552
v 0.002233584 -0.042516507 0.104480058
v 0.002233584 -0.042604376 0.104692191
v 0.002445716 -0.042304374 0.104480058
v 0.002072953 -0.041771304 0.104336046
v 0.002445716 -0.041787859 0.104525253
v 0.000478729 -0.042424846 0.111806065
v 0.001174265 -0.043187298 0.111355022
v 0.001174265 -0.043099429 0.111567155
v 0.001174265 -0.042887297 0.111655019
v 0.001174265 -0.042415246 0.111696318
v 0.001703924 -0.043119840 0.111192241
v 0.001386397 -0.042887297 0.111567155
v 0.001386397 -0.042407617 0.111609116
v 0.002233584 -0.043140255 0.110817328
v 0.002233584 -0.043052386 0.111029461
v 0.002445716 -0.043052386 0.110817328
v 0.002445716 -0.042840254 0.111029461
v 0.002445716 -0.042360574 0.111071423
v 0.003074265 -0.042677648 0.105529673
v 0.003074265 -0.042589780 0.105317540
v 0.003286397 -0.042589780 0.105529673
v 0.003286397 -0.042377647 0.105317540
v 0.003286397 -0.041861128 0.105362736
v 0.003614015 -0.042769972 0.106584966
v 0.003614015 -0.042974662 0.108924560
v 0.003800000 -0.042872317 0.107754759
v 0.003826147 -0.042682104 0.106584966
v 0.003826147 -0.042469971 0.106372833
v 0.003914015 -0.042469971 0.106584966
v 0.004012132 -0.042784449 0.107754759
v 0.004100000 -0.042572316 0.107754759
v 0.003813074 -0.042879555 0.108339660
v 0.003826147 -0.042886794 0.108924560
v 0.003963073 -0.042729553 0.108339660
v 0.003826147 -0.042674661 0.109136693
v 0.003914015 -0.042674661 0.108924560
v 0.003826147 -0.041953456 0.106418021
v 0.003914015 -0.041971873 0.106628545
v 0.004100000 -0.042074218 0.107798338
v 0.003826147 -0.042194981 0.109178655
v 0.003914015 -0.042176560 0.108968139
v 0.003074265 -0.043066986 0.109979846
v 0.003286397 -0.042979117 0.109979846
v 0.003286397 -0.042766985 0.110191979
v 0.003286397 -0.042287305 0.110233940
v 0.004800000 -0.042841189 0.116564855
v 0.006345085 -0.041355643 0.099584997
v 0.006345085 -0.038865156 0.099802881
v 0.009800000 -0.040941194 0.094847806
v 0.007738926 -0.041293744 0.098877497
v 0.008845085 -0.041197337 0.097775549
v 0.009555283 -0.041075855 0.096387014
v 0.009800000 -0.038450707 0.095065698
v 0.007738926 -0.038803257 0.099095389
v 0.008845085 -0.038706850 0.097993441
v 0.009555283 -0.038585369 0.096604899
v 0.006345085 -0.042819861 0.116321065
v 0.007738926 -0.042757962 0.115613572
v 0.009800000 -0.042405408 0.111583881
v 0.008845085 -0.042661555 0.114511617
v 0.009555283 -0.042540073 0.113123082
f 1 2 5
f 1 3 2
f 2 3 4
f 1 7 3
f 2 4 9
f 2 18 38
f 1 5 7
f 2 6 5
f 5 6 7
f 3 7 8
f 3 8 4
f 4 8 10
f 2 11 6
f 6 11 22
f 2 9 18
f 4 10 9
f 6 20 7
f 7 20 8
f 9 10 18
f 8 26 10
f 10 19 18
f 6 22 20
f 11 32 22
f 2 38 11
f 11 38 16
f 11 16 12
f 12 16 13
f 12 13 14
f 12 14 15
f 12 15 17
f 18 46 38
f 13 16 271
f 13 269 14
f 14 270 15
f 16 38 272
f 15 274 17
f 10 26 19
f 8 20 26
f 18 19 25
f 19 26 27
f 20 28 26
f 20 22 21
f 20 21 28
f 21 22 23
f 11 33 32
f 11 36 33
f 22 32 23
f 11 382 36
f 21 23 34
f 23 32 34
f 18 25 24
f 19 27 25
f 26 29 27
f 26 28 29
f 21 31 28
f 28 31 29
f 21 34 379
f 25 27 30
f 24 25 377
f 25 30 377
f 27 31 30
f 27 29 31
f 21 379 31
f 32 33 34
f 33 35 34
f 33 36 35
f 35 36 37
f 34 35 390
f 11 12 407
f 18 403 46
f 12 17 407
f 38 39 41
f 39 40 42
f 39 42 41
f 40 43 42
f 38 46 39
f 41 42 48
f 42 43 48
f 43 45 48
f 39 46 40
f 40 44 43
f 40 46 44
f 43 44 45
f 45 47 48
f 44 46 45
f 45 46 47
f 46 89 47
f 47 89 90
f 47 99 80
f 48 87 49
f 49 69 50
f 48 86 87
f 49 87 69
f 47 80 48
f 48 80 85
f 48 85 86
f 70 52 53
f 81 56 57
f 81 57 52
f 70 53 58
f 59 70 58
f 59 60 70
f 60 61 71
f 59 63 60
f 59 58 64
f 60 67 61
f 59 64 63
f 60 63 66
f 61 68 62
f 62 69 87
f 62 68 69
f 63 64 65
f 60 66 67
f 61 67 68
f 63 65 66
f 70 81 52
f 70 71 81
f 71 72 82
f 72 73 83
f 74 55 54
f 74 54 56
f 77 82 83
f 78 83 84
f 74 82 77
f 79 84 85
f 76 75 55
f 76 147 75
f 74 76 55
f 74 77 76
f 77 83 78
f 78 84 79
f 79 85 80
f 74 56 81
f 74 81 82
f 71 82 81
f 72 83 82
f 73 84 83
f 84 86 85
f 73 86 84
f 60 71 70
f 61 72 71
f 62 73 72
f 73 87 86
f 61 62 72
f 62 87 73
f 50 145 51
f 50 69 145
f 51 195 88
f 51 145 195
f 38 41 272
f 41 48 297
f 48 49 307
f 49 50 308
f 50 51 309
f 51 88 310
f 88 188 311
f 47 90 117
f 47 107 99
f 92 91 148
f 92 95 91
f 95 93 91
f 95 94 93
f 92 96 95
f 47 117 107
f 95 100 94
f 95 96 103
f 96 97 104
f 95 103 100
f 97 98 105
f 98 99 106
f 96 104 103
f 103 101 100
f 97 105 104
f 98 106 105
f 99 107 106
f 103 109 101
f 109 102 101
f 103 104 109
f 109 108 102
f 109 110 108
f 104 105 114
f 104 114 109
f 105 106 115
f 106 107 116
f 90 127 117
f 113 112 111
f 109 111 110
f 109 113 111
f 105 115 114
f 106 116 115
f 109 114 113
f 107 117 116
f 89 471 90
f 113 121 112
f 113 114 121
f 121 118 112
f 90 134 127
f 114 115 124
f 115 116 125
f 116 117 126
f 121 119 118
f 121 120 119
f 114 124 121
f 115 125 124
f 116 126 125
f 117 127 126
f 121 123 120
f 123 122 120
f 121 124 123
f 46 605 89
f 90 420 134
f 123 130 122
f 123 124 130
f 124 125 131
f 125 126 132
f 126 127 133
f 130 129 122
f 124 131 130
f 125 132 131
f 126 133 132
f 127 134 133
f 65 64 139
f 65 140 66
f 66 143 67
f 67 144 68
f 68 145 69
f 65 139 140
f 66 140 142
f 140 139 138
f 68 144 145
f 66 142 143
f 67 143 144
f 140 138 141
f 140 141 142
f 141 138 146
f 143 194 144
f 144 195 145
f 76 148 147
f 77 78 96
f 76 77 92
f 78 79 97
f 79 80 98
f 76 92 148
f 77 96 92
f 78 97 96
f 79 98 97
f 80 99 98
f 88 195 188
f 141 192 142
f 142 193 143
f 141 146 191
f 191 146 189
f 141 191 192
f 142 192 193
f 143 193 194
f 144 194 195
f 191 189 190
f 191 190 196
f 191 197 192
f 197 196 198
f 191 196 197
f 192 238 193
f 193 239 194
f 194 240 195
f 192 197 237
f 188 195 240
f 197 198 236
f 192 237 238
f 193 238 239
f 236 198 199
f 236 199 235
f 197 236 237
f 194 239 240
f 188 240 250
f 236 235 241
f 236 243 237
f 236 241 243
f 243 241 242
f 237 248 238
f 238 249 239
f 239 250 240
f 243 242 244
f 237 243 247
f 237 247 248
f 238 248 249
f 239 249 250
f 243 244 246
f 246 244 245
f 243 246 247
f 246 245 251
f 247 255 248
f 248 256 249
f 249 257 250
f 246 251 253
f 246 254 247
f 249 256 257
f 246 253 254
f 247 254 255
f 248 255 256
f 253 251 252
f 188 250 601
f 13 271 269
f 14 269 270
f 15 270 274
f 16 272 271
f 258 259 261
f 258 261 265
f 261 262 265
f 259 260 262
f 260 263 262
f 259 262 261
f 262 263 265
f 259 285 260
f 258 265 264
f 263 267 265
f 264 265 267
f 260 273 263
f 260 282 273
f 258 285 259
f 258 264 285
f 264 267 266
f 263 277 267
f 264 266 280
f 260 285 282
f 266 267 276
f 267 277 276
f 273 282 284
f 273 284 286
f 268 272 273
f 268 269 271
f 268 270 269
f 268 273 274
f 268 274 270
f 268 271 272
f 272 301 273
f 263 273 301
f 263 301 306
f 263 306 277
f 277 306 313
f 17 274 683
f 266 276 291
f 264 280 285
f 278 285 280
f 266 291 280
f 278 280 279
f 276 277 292
f 281 282 285
f 281 283 282
f 278 281 285
f 282 283 284
f 275 284 283
f 275 286 284
f 276 289 294
f 279 291 290
f 276 294 291
f 279 280 291
f 276 292 289
f 278 279 666
f 290 291 294
f 290 294 293
f 279 290 666
f 289 661 294
f 289 292 659
f 278 666 281
f 281 666 283
f 275 287 286
f 286 287 295
f 275 283 673
f 287 288 295
f 288 296 295
f 275 673 287
f 273 683 274
f 273 286 295
f 273 295 296
f 273 296 690
f 277 313 693
f 41 297 272
f 48 307 297
f 49 308 307
f 50 309 308
f 51 310 309
f 88 311 310
f 188 337 311
f 272 297 301
f 297 298 301
f 297 307 298
f 298 307 299
f 298 299 302
f 299 303 302
f 299 300 303
f 300 304 303
f 298 302 301
f 301 302 303
f 301 303 304
f 301 304 306
f 300 305 304
f 304 305 306
f 305 312 306
f 306 312 313
f 299 307 300
f 300 307 305
f 307 308 312
f 308 309 312
f 305 307 312
f 309 310 312
f 310 311 312
f 311 337 312
f 188 746 337
f 312 346 350
f 312 350 354
f 312 354 359
f 312 693 313
f 312 359 697
f 312 325 326
f 312 326 333
f 312 324 325
f 312 337 324
f 312 333 345
f 312 345 346
f 337 327 324
f 337 328 327
f 337 341 328
f 337 364 341
f 337 366 364
f 337 370 366
f 337 746 370
f 18 24 403
f 24 377 376
f 30 378 377
f 30 379 378
f 30 31 379
f 34 381 379
f 34 390 381
f 376 377 387
f 377 378 387
f 378 380 387
f 378 381 380
f 378 379 381
f 380 381 390
f 36 382 37
f 37 382 383
f 11 406 382
f 35 37 390
f 37 383 390
f 382 384 383
f 383 384 385
f 384 392 385
f 383 385 390
f 376 387 386
f 24 376 403
f 376 386 403
f 380 390 389
f 388 389 391
f 380 389 395
f 389 390 391
f 386 387 395
f 380 395 387
f 388 399 389
f 385 392 393
f 388 393 392
f 385 391 390
f 385 393 391
f 388 391 393
f 388 392 400
f 384 405 392
f 382 406 384
f 46 403 605
f 11 407 406
f 17 402 407
f 17 683 402
f 386 395 394
f 386 394 396
f 386 396 397
f 394 399 396
f 386 397 398
f 389 399 395
f 394 395 399
f 388 400 399
f 392 401 400
f 384 406 405
f 386 398 403
f 396 400 397
f 397 400 401
f 398 405 403
f 397 401 398
f 398 401 405
f 396 399 400
f 392 405 401
f 403 405 406
f 403 406 605
f 406 410 605
f 402 404 407
f 404 408 407
f 407 408 409
f 406 407 410
f 407 409 410
f 402 684 404
f 404 685 408
f 408 687 409
f 409 688 410
f 90 471 420
f 130 411 129
f 130 412 411
f 130 413 412
f 130 416 413
f 130 131 433
f 131 132 434
f 132 133 435
f 133 134 436
f 130 433 416
f 131 434 433
f 132 435 434
f 134 420 436
f 133 436 435
f 430 417 416
f 428 419 418
f 430 418 417
f 428 429 419
f 428 418 430
f 430 416 433
f 89 466 471
f 427 432 431
f 426 423 432
f 426 432 427
f 426 424 423
f 426 425 424
f 428 431 429
f 428 430 437
f 430 433 437
f 433 434 438
f 427 431 428
f 433 438 437
f 428 437 440
f 434 435 445
f 435 436 446
f 420 444 436
f 434 445 438
f 437 438 441
f 427 428 440
f 435 446 445
f 420 443 444
f 436 444 446
f 437 441 440
f 438 442 441
f 438 445 442
f 89 605 466
f 426 448 425
f 427 440 451
f 426 427 452
f 426 452 448
f 440 459 455
f 427 451 452
f 440 455 451
f 452 450 448
f 455 459 456
f 451 454 452
f 452 453 450
f 452 454 453
f 451 457 454
f 451 455 458
f 455 456 468
f 451 458 457
f 455 467 458
f 455 468 467
f 420 471 443
f 440 441 459
f 441 442 459
f 442 445 460
f 443 465 444
f 442 460 459
f 444 461 446
f 445 446 463
f 443 471 464
f 445 463 460
f 456 459 460
f 443 464 465
f 444 465 461
f 446 461 463
f 456 460 462
f 460 463 462
f 456 462 470
f 456 469 468
f 456 470 469
f 464 471 603
f 462 472 470
f 462 463 481
f 461 482 463
f 464 479 465
f 461 465 480
f 462 473 472
f 462 475 473
f 462 476 475
f 462 481 476
f 465 479 480
f 464 478 479
f 461 480 482
f 463 482 481
f 464 603 478
f 481 477 476
f 481 483 477
f 481 482 486
f 481 486 483
f 486 484 483
f 486 485 484
f 256 524 257
f 253 252 525
f 253 529 254
f 254 530 255
f 255 531 256
f 254 529 530
f 256 531 524
f 255 530 531
f 528 525 526
f 253 525 528
f 253 528 529
f 250 257 601
f 528 526 527
f 528 527 533
f 528 533 529
f 533 527 532
f 533 532 534
f 530 540 531
f 529 538 530
f 524 531 539
f 529 533 537
f 533 534 536
f 530 538 540
f 529 537 538
f 531 540 539
f 536 534 535
f 533 536 537
f 257 524 601
f 585 599 586
f 583 580 582
f 583 582 581
f 583 588 584
f 583 589 588
f 583 581 589
f 585 586 627
f 584 629 587
f 586 587 631
f 588 625 628
f 586 631 627
f 584 630 629
f 587 629 631
f 588 628 630
f 588 589 625
f 584 588 630
f 480 638 482
f 478 636 479
f 479 637 480
f 486 634 485
f 482 638 486
f 634 633 485
f 480 637 638
f 478 635 636
f 479 636 637
f 486 638 634
f 536 535 590
f 536 593 537
f 539 540 596
f 536 590 593
f 593 590 591
f 537 598 538
f 538 599 540
f 524 539 601
f 593 591 592
f 593 592 594
f 540 599 596
f 538 598 599
f 537 600 598
f 537 593 600
f 597 594 595
f 593 594 597
f 593 597 600
f 597 595 580
f 585 596 599
f 584 600 597
f 586 599 598
f 587 598 600
f 583 597 580
f 586 598 587
f 583 584 597
f 584 587 600
f 539 596 652
f 539 652 601
f 188 601 746
f 466 602 471
f 471 602 603
f 478 603 635
f 603 641 635
f 466 605 602
f 602 609 603
f 603 609 610
f 602 605 609
f 604 609 606
f 605 606 609
f 604 606 611
f 605 608 606
f 410 607 605
f 605 607 608
f 606 608 611
f 604 610 609
f 604 611 610
f 603 610 655
f 607 655 608
f 610 611 655
f 608 655 611
f 645 614 613
f 645 615 614
f 645 649 615
f 649 632 616
f 649 616 615
f 627 631 651
f 619 628 618
f 623 617 632
f 622 624 648
f 623 650 624
f 619 618 620
f 619 624 630
f 621 651 631
f 622 630 624
f 621 629 622
f 619 620 623
f 619 623 624
f 623 620 617
f 628 625 626
f 628 626 618
f 619 630 628
f 621 631 629
f 622 629 630
f 623 649 650
f 623 632 649
f 634 639 633
f 634 612 639
f 634 638 640
f 634 640 612
f 635 642 636
f 636 643 637
f 637 644 638
f 638 644 640
f 640 645 612
f 637 643 644
f 635 641 642
f 636 642 643
f 645 613 612
f 640 644 645
f 641 647 642
f 644 649 645
f 642 648 643
f 643 650 644
f 641 646 647
f 642 647 648
f 643 648 650
f 644 650 649
f 621 647 646
f 621 646 651
f 621 622 647
f 622 648 647
f 624 650 648
f 585 627 656
f 627 651 655
f 646 655 651
f 603 655 641
f 641 655 646
f 585 653 596
f 596 653 652
f 585 654 653
f 585 656 654
f 627 655 656
f 410 749 607
f 607 749 655
f 601 652 746
f 652 653 757
f 653 654 758
f 654 656 760
f 655 761 656
f 288 663 657
f 293 294 661
f 289 658 661
f 293 661 660
f 290 293 666
f 289 659 658
f 293 660 664
f 658 665 661
f 293 664 666
f 660 665 664
f 660 661 665
f 658 659 668
f 288 657 296
f 287 673 288
f 296 657 662
f 283 666 673
f 657 663 662
f 288 673 663
f 662 663 672
f 277 691 292
f 658 667 665
f 664 665 671
f 664 671 666
f 665 667 671
f 658 668 667
f 659 676 668
f 667 675 671
f 667 668 676
f 659 678 676
f 666 671 674
f 663 673 669
f 669 670 672
f 669 673 670
f 663 669 672
f 292 691 659
f 666 674 673
f 670 673 674
f 671 675 674
f 273 690 683
f 296 662 690
f 662 672 690
f 277 693 753
f 402 683 684
f 404 684 685
f 408 685 687
f 409 687 688
f 410 688 753
f 667 676 675
f 670 674 679
f 674 675 677
f 670 680 672
f 659 681 678
f 674 677 679
f 675 678 677
f 670 679 680
f 672 680 689
f 675 676 678
f 659 682 681
f 659 691 682
f 677 681 679
f 677 678 681
f 679 682 680
f 679 681 682
f 277 753 691
f 683 686 684
f 683 690 686
f 684 686 685
f 685 686 687
f 686 688 687
f 686 753 688
f 686 690 753
f 672 689 690
f 680 691 689
f 689 691 690
f 680 682 691
f 690 691 753
f 312 697 692
f 312 692 693
f 692 697 700
f 746 371 370
f 746 375 371
f 746 706 375
f 746 710 706
f 692 700 704
f 692 704 705
f 692 705 723
f 692 723 737
f 692 737 738
f 692 738 739
f 692 739 746
f 746 718 713
f 746 745 718
f 746 713 710
f 746 739 741
f 746 740 745
f 746 741 740
f 410 753 749
f 652 757 746
f 653 758 757
f 655 749 759
f 654 760 758
f 656 761 760
f 655 759 761
f 692 747 693
f 693 747 748
f 747 750 748
f 748 750 754
f 693 748 756
f 750 751 754
f 751 755 754
f 749 752 759
f 751 759 752
f 751 752 755
f 752 756 755
f 749 756 752
f 749 753 756
f 748 754 755
f 693 756 753
f 748 755 756
f 692 761 747
f 692 746 757
f 692 757 758
f 692 758 760
f 747 759 750
f 692 760 761
f 747 761 759
f 750 759 751
f 159 100 101
f 204 101 102
f 209 102 108
f 210 110 111
f 209 108 110
f 210 111 112
f 211 112 118
f 209 110 210
f 210 112 211
f 211 118 213
f 214 213 118
f 128 118 119
f 128 119 120
f 214 118 128
f 136 120 122
f 128 120 135
f 135 120 136
f 136 122 129
f 128 135 229
f 135 136 229
f 136 137 229
f 136 129 411
f 136 411 137
f 162 54 55
f 163 55 75
f 152 52 57
f 149 56 54
f 151 57 56
f 164 53 52
f 161 55 160
f 161 162 55
f 163 160 55
f 151 152 57
f 152 153 52
f 153 164 52
f 149 151 56
f 149 54 150
f 162 150 54
f 164 58 53
f 164 64 58
f 164 139 64
f 170 138 139
f 170 146 138
f 155 147 148
f 163 75 147
f 154 148 91
f 154 91 93
f 157 93 94
f 163 147 155
f 164 165 139
f 165 166 139
f 166 167 139
f 168 169 139
f 167 168 139
f 171 189 146
f 169 170 139
f 170 172 146
f 171 146 172
f 171 200 189
f 158 94 100
f 155 148 156
f 154 156 148
f 154 93 157
f 157 94 158
f 149 150 173
f 162 173 150
f 161 173 162
f 149 173 151
f 173 152 151
f 152 174 153
f 161 178 173
f 173 174 152
f 173 175 174
f 173 179 175
f 179 181 175
f 158 100 159
f 159 101 204
f 163 176 178
f 204 102 205
f 205 102 209
f 163 155 176
f 154 176 156
f 155 156 176
f 157 158 176
f 158 159 176
f 159 204 176
f 154 157 176
f 163 178 160
f 161 160 178
f 178 176 177
f 180 177 207
f 178 179 173
f 178 177 179
f 179 177 180
f 179 180 181
f 153 174 164
f 164 174 165
f 165 182 166
f 166 182 167
f 174 182 165
f 167 182 184
f 174 175 182
f 182 175 183
f 168 184 169
f 167 184 168
f 169 184 170
f 170 184 186
f 170 186 172
f 171 172 186
f 183 175 185
f 182 183 184
f 184 183 187
f 183 185 187
f 175 181 185
f 184 187 186
f 185 221 187
f 201 190 189
f 202 196 190
f 203 198 196
f 200 201 189
f 201 202 190
f 202 203 196
f 203 226 198
f 226 227 199
f 204 205 176
f 205 215 176
f 205 209 215
f 176 206 177
f 208 206 176
f 208 176 215
f 208 218 206
f 216 177 218
f 218 177 206
f 219 207 177
f 216 219 177
f 210 211 212
f 209 210 215
f 210 212 215
f 211 217 212
f 211 213 217
f 214 217 213
f 212 217 215
f 208 215 218
f 215 217 218
f 216 218 219
f 171 186 200
f 186 222 200
f 187 220 186
f 187 221 220
f 186 220 225
f 221 225 220
f 186 225 222
f 200 222 201
f 201 222 202
f 202 222 203
f 203 222 224
f 203 224 226
f 221 223 225
f 222 225 224
f 214 128 229
f 214 229 217
f 217 229 218
f 218 231 219
f 218 229 230
f 218 230 231
f 180 207 523
f 229 491 230
f 137 492 229
f 230 493 231
f 219 523 207
f 224 227 226
f 224 233 227
f 185 523 221
f 180 523 181
f 181 523 185
f 225 232 224
f 223 232 225
f 224 232 233
f 223 234 232
f 227 233 228
f 228 233 487
f 233 488 487
f 221 523 223
f 232 496 233
f 234 495 232
f 226 199 198
f 227 235 199
f 488 241 235
f 227 228 235
f 489 242 241
f 228 487 235
f 489 244 242
f 487 488 235
f 489 245 244
f 488 489 241
f 489 251 245
f 489 252 251
f 317 315 320
f 320 315 314
f 318 316 335
f 318 314 316
f 319 317 318
f 318 317 320
f 319 326 317
f 317 325 315
f 318 320 314
f 315 324 322
f 314 315 321
f 316 314 336
f 314 321 336
f 321 322 323
f 315 322 321
f 322 324 327
f 322 327 323
f 323 327 328
f 315 325 324
f 317 326 325
f 319 318 329
f 318 331 329
f 319 329 330
f 329 332 330
f 329 331 332
f 319 333 326
f 319 330 333
f 334 330 332
f 344 332 331
f 334 342 330
f 334 332 343
f 343 332 344
f 334 343 342
f 342 333 330
f 342 345 333
f 316 331 335
f 316 336 331
f 318 335 331
f 321 323 338
f 321 338 340
f 321 340 336
f 323 328 339
f 331 336 340
f 331 340 362
f 323 339 338
f 339 328 341
f 338 360 340
f 338 339 360
f 339 341 361
f 339 361 360
f 340 360 362
f 361 341 364
f 343 347 342
f 343 344 351
f 342 346 345
f 342 350 346
f 343 352 347
f 343 351 352
f 352 353 347
f 342 347 348
f 342 348 350
f 347 353 349
f 347 349 348
f 349 354 348
f 348 354 350
f 331 362 367
f 331 367 372
f 344 356 351
f 352 351 355
f 357 353 352
f 344 331 702
f 349 353 354
f 353 359 354
f 351 356 355
f 357 352 355
f 344 694 356
f 357 358 353
f 357 355 356
f 358 359 353
f 331 372 707
f 360 363 362
f 360 361 363
f 363 361 368
f 362 363 368
f 361 364 365
f 362 368 367
f 361 365 368
f 365 364 366
f 365 369 368
f 365 366 369
f 369 366 370
f 369 370 371
f 367 368 373
f 368 369 374
f 369 371 374
f 367 373 372
f 368 374 373
f 374 371 375
f 414 411 412
f 137 411 414
f 137 414 492
f 414 412 415
f 414 415 492
f 415 422 492
f 447 412 413
f 439 413 416
f 447 415 412
f 447 422 415
f 447 421 422
f 429 432 423
f 429 431 432
f 417 423 416
f 418 423 417
f 418 419 423
f 429 423 419
f 439 447 413
f 439 416 423
f 447 504 421
f 447 505 504
f 447 506 505
f 439 423 424
f 449 424 425
f 449 425 448
f 449 448 450
f 449 450 458
f 450 453 458
f 457 453 454
f 449 458 467
f 449 467 468
f 457 458 453
f 449 468 469
f 449 469 470
f 439 424 449
f 447 474 506
f 439 474 447
f 439 449 472
f 439 472 474
f 449 470 472
f 474 472 473
f 474 473 475
f 474 475 476
f 474 476 477
f 474 477 483
f 484 474 483
f 474 484 485
f 229 492 491
f 230 491 493
f 231 493 494
f 491 492 493
f 219 231 523
f 421 492 422
f 421 508 492
f 492 509 493
f 493 510 494
f 492 508 509
f 493 509 510
f 231 494 523
f 233 496 488
f 488 496 489
f 223 523 234
f 232 495 496
f 234 497 495
f 234 517 497
f 489 496 490
f 496 499 490
f 496 518 499
f 495 519 496
f 497 517 495
f 234 523 517
f 496 519 518
f 495 517 519
f 490 499 592
f 498 594 499
f 498 500 594
f 500 501 594
f 501 502 595
f 421 504 508
f 504 505 508
f 505 506 508
f 506 507 511
f 506 511 508
f 508 511 509
f 509 512 510
f 510 512 514
f 494 510 523
f 507 513 565
f 513 541 565
f 507 565 511
f 509 511 565
f 509 566 512
f 510 514 516
f 509 565 515
f 512 566 514
f 509 515 566
f 514 566 516
f 510 516 568
f 515 565 566
f 510 568 576
f 510 576 523
f 498 499 518
f 498 518 500
f 500 518 501
f 501 520 502
f 501 518 520
f 519 521 520
f 522 519 517
f 519 520 518
f 503 502 520
f 503 520 577
f 522 521 519
f 577 520 521
f 523 522 517
f 522 577 521
f 523 578 522
f 578 577 522
f 489 525 252
f 489 526 525
f 489 527 526
f 489 490 535
f 489 532 527
f 489 534 532
f 489 535 534
f 490 590 535
f 490 591 590
f 490 592 591
f 543 639 544
f 544 639 545
f 503 595 502
f 558 559 580
f 558 580 503
f 555 625 554
f 555 556 625
f 503 580 595
f 559 560 582
f 560 554 589
f 559 582 580
f 506 474 507
f 507 474 513
f 541 542 565
f 542 543 565
f 565 543 544
f 565 544 567
f 513 474 541
f 541 474 542
f 544 545 567
f 545 546 567
f 516 566 569
f 565 569 566
f 516 569 568
f 565 567 569
f 567 571 569
f 568 570 576
f 568 569 570
f 542 633 543
f 546 547 567
f 548 571 547
f 548 549 571
f 549 550 572
f 551 552 572
f 550 553 572
f 553 551 572
f 547 571 567
f 549 572 571
f 571 573 569
f 571 572 573
f 569 573 570
f 577 555 554
f 555 575 556
f 577 575 555
f 556 575 579
f 558 503 577
f 559 577 560
f 558 577 559
f 577 554 560
f 523 576 578
f 578 575 577
f 574 576 573
f 578 576 574
f 578 574 575
f 579 575 574
f 570 573 576
f 561 579 562
f 563 562 579
f 564 563 579
f 552 564 579
f 556 579 557
f 561 557 579
f 552 579 572
f 572 579 573
f 579 574 573
f 545 639 546
f 546 612 547
f 548 547 612
f 548 614 549
f 549 614 550
f 550 615 553
f 553 615 551
f 551 632 552
f 546 639 612
f 548 612 613
f 548 613 614
f 550 614 615
f 551 615 632
f 564 617 563
f 563 617 562
f 552 617 564
f 561 562 618
f 561 625 557
f 556 557 625
f 560 589 581
f 560 581 582
f 554 625 589
f 561 626 625
f 562 620 618
f 561 618 626
f 562 617 620
f 552 632 617
f 542 474 485
f 542 485 633
f 543 633 639
f 499 594 592
f 501 595 594
f 616 632 615
f 357 356 695
f 357 695 358
f 344 702 694
f 358 697 359
f 356 694 695
f 358 695 696
f 331 719 702
f 331 724 719
f 358 696 697
f 331 707 714
f 331 714 742
f 331 742 725
f 695 694 698
f 695 699 696
f 695 703 699
f 694 702 698
f 695 698 701
f 696 699 700
f 696 700 697
f 699 704 700
f 695 701 703
f 698 702 701
f 699 703 704
f 703 705 704
f 331 726 724
f 331 725 726
f 374 375 706
f 372 373 707
f 373 374 708
f 374 706 709
f 373 708 707
f 374 709 708
f 709 706 710
f 707 711 714
f 711 708 715
f 707 708 711
f 708 709 712
f 709 710 712
f 712 710 713
f 717 708 712
f 717 712 713
f 715 708 717
f 711 715 714
f 717 713 718
f 714 715 716
f 715 717 716
f 701 702 719
f 701 722 703
f 701 719 720
f 701 720 722
f 703 722 705
f 722 723 705
f 719 721 720
f 720 721 722
f 719 727 721
f 721 727 722
f 728 722 727
f 728 723 722
f 728 737 723
f 719 724 727
f 725 742 743
f 725 743 733
f 744 735 733
f 744 740 735
f 724 726 727
f 727 726 730
f 728 727 729
f 727 731 729
f 728 729 738
f 727 730 731
f 729 731 739
f 726 725 732
f 732 725 733
f 726 732 730
f 732 733 730
f 734 733 736
f 730 733 734
f 733 735 736
f 736 741 739
f 736 735 740
f 736 740 741
f 730 734 731
f 731 734 736
f 731 736 739
f 728 738 737
f 729 739 738
f 714 716 743
f 716 717 743
f 717 718 744
f 714 743 742
f 717 744 743
f 744 718 745
f 743 744 733
f 744 745 740
