# rf_proximal_shaft.obj  (64 v, 124 f)  units: metres
v -0.002165064 -0.056226838 0.012552416
v -0.002007790 -0.056208976 0.012348233
v -0.001767767 -0.056181714 0.012036619
v -0.002414815 -0.056279391 0.013153073
v -0.002489129 -0.056328587 0.013715399
v -0.002500000 -0.056335784 0.013797659
v -0.002414815 -0.056392178 0.014442245
v -0.001250000 -0.056147087 0.011640835
v -0.001170910 -0.056144230 0.011608199
v -0.000800130 -0.056130845 0.011455202
v -0.000647048 -0.056125320 0.011392034
v 0.000000000 -0.056117896 0.011307172
v -0.002165064 -0.056444731 0.015042903
v -0.001976159 -0.056466185 0.015288151
v -0.001767767 -0.056489855 0.015558699
v -0.001328761 -0.056519214 0.015894279
v -0.001250000 -0.056524482 0.015954483
v -0.000886960 -0.056537587 0.016104288
v -0.000647048 -0.056546248 0.016203284
v 0.000000000 -0.056553673 0.016288146
v -0.002165064 -0.033912078 0.014504706
v -0.001767767 -0.033866953 0.013988908
v -0.001250000 -0.033832327 0.013593124
v -0.000647048 -0.033810560 0.013344323
v -0.002414815 -0.033964630 0.015105364
v -0.002500000 -0.034021024 0.015749948
v -0.002414815 -0.034077417 0.016394535
v -0.002165064 -0.034129966 0.016995192
v -0.001767767 -0.034175094 0.017510990
v -0.001250000 -0.034209721 0.017906774
v -0.000647048 -0.034231488 0.018155575
v 0.000190320 -0.056120079 0.011332133
v 0.000647048 -0.056125320 0.011392034
v 0.001170910 -0.056144230 0.011608199
v 0.001250000 -0.056147087 0.011640835
v 0.001767767 -0.056181714 0.012036619
v 0.002007790 -0.056208976 0.012348233
v 0.002165064 -0.056226838 0.012552416
v 0.002414815 -0.056279391 0.013153073
v 0.002489129 -0.056328587 0.013715399
v 0.002500000 -0.056335784 0.013797659
v 0.002414815 -0.056392178 0.014442245
v 0.000122255 -0.056552272 0.016272113
v 0.000499183 -0.056547947 0.016222678
v 0.000647048 -0.056546252 0.016203284
v 0.000886960 -0.056537587 0.016104288
v 0.001250000 -0.056524482 0.015954483
v 0.001767767 -0.056489855 0.015558699
v 0.001328761 -0.056519214 0.015894279
v 0.002165064 -0.056444731 0.015042903
v 0.001976159 -0.056466185 0.015288151
v 0.000000000 -0.033803135 0.013259462
v 0.000647048 -0.033810560 0.013344323
v 0.001250000 -0.033832327 0.013593124
v 0.001767767 -0.033866953 0.013988908
v 0.002165064 -0.033912078 0.014504706
v 0.000000000 -0.034238912 0.018240435
v 0.000647048 -0.034231488 0.018155575
v 0.002414815 -0.033964630 0.015105364
v 0.002500000 -0.034021024 0.015749948
v 0.002414815 -0.034077417 0.016394535
v 0.001250000 -0.034209721 0.017906774
v 0.001767767 -0.034175094 0.017510990
v 0.002165064 -0.034129966 0.016995192
f 4 1 16
f 6 5 14
f 15 5 4
f 7 6 14
f 17 2 3
f 1 2 16
f 3 8 18
f 17 16 2
f 17 3 18
f 11 44 10
f 11 12 44
f 8 9 18
f 19 9 10
f 19 18 9
f 19 10 20
f 20 10 43
f 44 43 10
f 7 14 13
f 15 14 5
f 15 4 16
f 25 22 21
f 27 23 22
f 25 26 22
f 26 27 22
f 27 28 23
f 28 29 23
f 29 30 23
f 23 62 24
f 30 31 23
f 31 57 23
f 23 57 58
f 12 32 44
f 33 44 32
f 45 44 33
f 45 33 34
f 35 46 34
f 45 34 46
f 35 36 46
f 47 36 37
f 38 49 37
f 47 46 36
f 47 37 49
f 38 39 49
f 48 39 40
f 41 51 40
f 42 51 41
f 48 49 39
f 48 40 51
f 50 51 42
f 52 24 63
f 63 53 52
f 63 54 53
f 24 62 63
f 23 58 62
f 63 55 54
f 63 56 55
f 64 59 56
f 63 64 56
f 64 60 59
f 64 61 60
f 1 22 2
f 22 3 2
f 3 23 8
f 4 21 1
f 25 4 5
f 6 25 5
f 7 26 6
f 24 10 9
f 24 11 10
f 8 24 9
f 11 52 12
f 13 27 7
f 28 13 14
f 15 28 14
f 29 15 16
f 17 29 16
f 30 17 18
f 19 30 18
f 19 20 31
f 1 21 22
f 4 25 21
f 3 22 23
f 8 23 24
f 11 24 52
f 6 26 25
f 7 27 26
f 13 28 27
f 15 29 28
f 17 30 29
f 19 31 30
f 20 57 31
f 12 53 32
f 33 32 53
f 33 54 34
f 35 34 54
f 35 55 36
f 36 56 37
f 56 38 37
f 38 59 39
f 39 60 40
f 41 40 60
f 20 43 57
f 57 43 44
f 57 44 45
f 58 45 46
f 47 58 46
f 48 62 49
f 63 48 51
f 42 41 61
f 42 64 50
f 50 63 51
f 62 47 49
f 12 52 53
f 33 53 54
f 35 54 55
f 36 55 56
f 38 56 59
f 39 59 60
f 57 45 58
f 58 47 62
f 41 60 61
f 42 61 64
f 48 63 62
f 50 64 63
