# rf_proximal.obj  (915 v, 1826 f)  units: metres
v -0.007738926 -0.059208266 0.022535471
v -0.009555283 -0.055272214 0.008525208
v -0.008845085 -0.055150732 0.007136670
v -0.009800000 -0.055406876 0.010064413
v -0.007738926 -0.055054322 0.006034721
v -0.007738926 -0.056518540 0.022770792
v -0.006345085 -0.059146367 0.021827975
v -0.006345085 -0.054992426 0.005327225
v -0.005581352 -0.056243684 0.013453227
v -0.005559718 -0.056276120 0.013451755
v -0.005588950 -0.056205519 0.013456086
v -0.005527339 -0.056297895 0.013451896
v -0.005566958 -0.056235984 0.013804303
v -0.005566958 -0.055837505 0.013839167
v -0.005588950 -0.055807039 0.013490948
v -0.005575579 -0.055757303 0.013496144
v -0.005539048 -0.055721041 0.013501624
v -0.005243178 -0.056070019 0.011907305
v -0.005489146 -0.056305684 0.013453625
v -0.005325917 -0.056085341 0.012082465
v -0.005298060 -0.056156572 0.012085319
v -0.005318677 -0.056123670 0.012081473
v -0.005230810 -0.056187656 0.012104534
v -0.005267205 -0.056179043 0.012093416
v -0.005243178 -0.055671539 0.011942167
v -0.005325917 -0.055686865 0.012117327
v -0.005313175 -0.055637415 0.012125809
v -0.005278364 -0.055601936 0.012140267
v -0.005230811 -0.055589937 0.012156826
v -0.005489147 -0.055707969 0.013505919
v -0.006345085 -0.056456644 0.022063296
v -0.005493331 -0.056365620 0.014846961
v -0.005500809 -0.056327622 0.014851717
v -0.005472037 -0.056397583 0.014840087
v -0.005440169 -0.056418650 0.014832142
v -0.005402579 -0.056425605 0.014824335
v -0.005223527 -0.056401998 0.015701856
v -0.005500809 -0.055929143 0.014886579
v -0.005487648 -0.055879112 0.014888437
v -0.005451694 -0.055842053 0.014884794
v -0.005223527 -0.056003518 0.015736718
v -0.005060144 -0.056481816 0.016175101
v -0.005067031 -0.056443974 0.016181666
v -0.004976548 -0.056539886 0.016130533
v -0.005040529 -0.056513332 0.016163079
v -0.005011174 -0.056533720 0.016147429
v -0.005067031 -0.056045499 0.016216528
v -0.005054909 -0.055995192 0.016215203
v -0.005021790 -0.055957370 0.016202867
v -0.004976549 -0.055942167 0.016182827
v -0.005402580 -0.055827890 0.014876628
v -0.009555283 -0.059426155 0.025025958
v -0.009800000 -0.059560817 0.026565162
v -0.008845085 -0.059304673 0.023637421
v -0.009800000 -0.056871094 0.026800483
v -0.009555283 -0.056736428 0.025261277
v -0.008845085 -0.056614947 0.023872741
v -0.009571639 -0.058228724 0.038876161
v -0.009800000 -0.058128666 0.037732478
v -0.008921321 -0.058313549 0.039845727
v -0.008921321 -0.058466714 0.041596398
v -0.007948050 -0.058370229 0.040493570
v -0.007948050 -0.058410034 0.040948555
v -0.006800000 -0.058390133 0.040721063
v -0.004800000 -0.059125040 0.021584190
v -0.004800000 -0.054971095 0.005083439
v -0.004676114 -0.056069560 0.010842063
v -0.004643803 -0.056078933 0.010861827
v -0.004721809 -0.056013122 0.010817891
v -0.004728236 -0.055974644 0.010817163
v -0.004703506 -0.056046452 0.010826634
v -0.004728236 -0.055576164 0.010852026
v -0.004716924 -0.055526979 0.010863534
v -0.004686020 -0.055492226 0.010886263
v -0.004643803 -0.055481214 0.010914120
v -0.004255930 -0.055924885 0.010248415
v -0.003828253 -0.055918980 0.009741877
v -0.003833464 -0.055880375 0.009739685
v -0.003813414 -0.055952679 0.009754792
v -0.003791205 -0.055976335 0.009776462
v -0.003765008 -0.055986349 0.009803589
v -0.004255930 -0.055526406 0.010283277
v -0.003833464 -0.055481896 0.009774547
v -0.003824293 -0.055432938 0.009788634
v -0.003799236 -0.055398799 0.009818404
v -0.003765009 -0.055388633 0.009855882
v -0.002683710 -0.055881143 0.008937137
v -0.002694153 -0.055847168 0.008921041
v -0.002668081 -0.055905215 0.008963570
v -0.002649645 -0.055915721 0.008996314
v -0.002792076 -0.055814434 0.008985952
v -0.002792076 -0.055415954 0.009020814
v -0.002697821 -0.055808462 0.008917731
v -0.002697821 -0.055409987 0.008952593
v -0.002691366 -0.055361200 0.008968647
v -0.002673733 -0.055327531 0.009003790
v -0.002649645 -0.055318005 0.009048606
v -0.004292306 -0.056616090 0.017337603
v -0.004309009 -0.056584973 0.017354196
v -0.004314874 -0.056547273 0.017362365
v -0.004314874 -0.056148797 0.017397229
v -0.004304551 -0.056098241 0.017393079
v -0.004267308 -0.056635883 0.017315114
v -0.004237822 -0.056641337 0.017290149
v -0.004286587 -0.056549590 0.017388828
v -0.004286587 -0.056151111 0.017423689
v -0.004276348 -0.056059744 0.017373025
v -0.004237823 -0.056043621 0.017342445
v -0.004800000 -0.056435313 0.021819511
v -0.003232818 -0.056723591 0.018230319
v -0.003255312 -0.056718707 0.018261826
v -0.003274381 -0.056699399 0.018289862
v -0.003287123 -0.056668609 0.018310159
v -0.003291597 -0.056631025 0.018319629
v -0.003291597 -0.056232546 0.018354492
v -0.003283723 -0.056181792 0.018348053
v -0.003262208 -0.056142747 0.018321743
v -0.003232819 -0.056125876 0.018282615
v -0.002779318 -0.056655571 0.018600186
v -0.002779318 -0.056257091 0.018635048
v -0.001385379 -0.055836342 0.008425049
v -0.001367794 -0.055871487 0.008490724
v -0.001377311 -0.055860676 0.008454463
v -0.001390770 -0.055802193 0.008406959
v -0.001392663 -0.055763427 0.008402949
v -0.001392663 -0.055364948 0.008437811
v -0.001389332 -0.055316269 0.008455097
v -0.001380229 -0.055282895 0.008493604
v -0.001367794 -0.055273771 0.008543016
v -0.000967733 -0.055758748 0.008349473
v -0.000967733 -0.055360269 0.008384335
v -0.002038772 -0.056776997 0.018928079
v -0.002024685 -0.056781478 0.018891970
v -0.002050715 -0.056758031 0.018960018
v -0.002058695 -0.056727469 0.018982925
v -0.002061497 -0.056689963 0.018993311
v -0.002061497 -0.056291483 0.019028172
v -0.002056566 -0.056240588 0.019020120
v -0.002043091 -0.056201160 0.018989408
v -0.002024685 -0.056183763 0.018944263
v -0.000689333 -0.056811363 0.019233525
v -0.000694129 -0.056807086 0.019272011
v -0.000698195 -0.056788299 0.019305965
v -0.000965553 -0.056714486 0.019273629
v -0.000965553 -0.056316011 0.019308493
v -0.000700912 -0.056757852 0.019330217
v -0.000701866 -0.056720387 0.019341076
v -0.000701866 -0.056321912 0.019375937
v -0.000700187 -0.056270942 0.019367054
v -0.000689333 -0.056213643 0.019285820
v -0.000695599 -0.056231312 0.019334069
v -0.009800000 -0.062001180 0.054458614
v -0.009555283 -0.062135842 0.055997819
v -0.008845085 -0.062257323 0.057386357
v -0.009800000 -0.059311453 0.054693937
v -0.009555283 -0.059446119 0.056233138
v -0.008845085 -0.059567600 0.057621680
v -0.007738926 -0.062353734 0.058488306
v -0.007738926 -0.059664007 0.058723629
v -0.009571639 -0.058551539 0.042565968
v -0.009800000 -0.058651600 0.043709647
v -0.006345085 -0.062415630 0.059195802
v -0.006345085 -0.059725907 0.059431121
v -0.009800000 -0.060775671 0.071430005
v -0.009555283 -0.060910337 0.072969213
v -0.008845085 -0.061031815 0.074357748
v -0.007738926 -0.061128225 0.075459696
v -0.005588950 -0.060813449 0.067259215
v -0.005491273 -0.060768820 0.066749126
v -0.005325917 -0.060693271 0.065885589
v -0.005352265 -0.060705312 0.066023186
v -0.005040317 -0.060640376 0.065280974
v -0.005500809 -0.060935549 0.068654843
v -0.005500809 -0.060635556 0.068681091
v -0.005487648 -0.060585525 0.068682954
v -0.005588950 -0.060513452 0.067285463
v -0.005575579 -0.060463715 0.067290656
v -0.005539048 -0.060427453 0.067296140
v -0.005566958 -0.060543917 0.067633681
v -0.005325917 -0.060393278 0.065911837
v -0.005313175 -0.060343828 0.065920323
v -0.005243178 -0.060377952 0.065736681
v -0.005278364 -0.060308348 0.065934777
v -0.005230811 -0.060296349 0.065951340
v -0.005489147 -0.060414381 0.067300431
v -0.005451694 -0.060548466 0.068679303
v -0.005402580 -0.060534302 0.068671137
v -0.006345085 -0.061190121 0.076167196
v -0.005223527 -0.060709931 0.069531232
v -0.005067031 -0.061051905 0.069984794
v -0.005067031 -0.060751911 0.070011042
v -0.005054909 -0.060701605 0.070009716
v -0.005021790 -0.060663782 0.069997385
v -0.004976549 -0.060648579 0.069977343
v -0.004800000 -0.062436961 0.059439588
v -0.004800000 -0.059747234 0.059674907
v -0.004434345 -0.060551610 0.064266391
v -0.004853269 -0.060605731 0.064884990
v -0.004728236 -0.060582574 0.064620294
v -0.004204603 -0.060527407 0.063989736
v -0.004255930 -0.060232818 0.064077795
v -0.003833464 -0.060488306 0.063542813
v -0.003833464 -0.060188308 0.063569061
v -0.003824293 -0.060139351 0.063583151
v -0.003799236 -0.060105212 0.063612916
v -0.003765009 -0.060095046 0.063650392
v -0.004728236 -0.060282577 0.064646542
v -0.004716924 -0.060233392 0.064658046
v -0.004686020 -0.060198639 0.064680777
v -0.004643803 -0.060187627 0.064708635
v -0.003183245 -0.060779002 0.066865474
v -0.003163434 -0.060774852 0.066818014
v -0.003151311 -0.060772307 0.066788964
v -0.003147462 -0.060771503 0.066779748
v -0.003146575 -0.060771316 0.066777624
v -0.003151109 -0.060713734 0.066793606
v -0.003132973 -0.060768653 0.066747189
v -0.003234443 -0.060789734 0.066988140
v -0.003234443 -0.060879342 0.068012401
v -0.003208844 -0.060784370 0.066926807
v -0.003234443 -0.060881235 0.068034023
v -0.003234443 -0.060898457 0.068230867
v -0.003146575 -0.060916875 0.068441391
v -0.003134533 -0.060919233 0.068468332
v -0.003051857 -0.060752776 0.066565692
v -0.002645673 -0.060673259 0.065656856
v -0.002639183 -0.060671989 0.065642335
v -0.002621176 -0.060670577 0.065626182
v -0.002535799 -0.060663875 0.065549605
v -0.002466126 -0.060658406 0.065487109
v -0.003435934 -0.060463130 0.063255094
v -0.003003301 -0.060435735 0.062941961
v -0.002792076 -0.060422361 0.062789075
v -0.002792076 -0.060122367 0.062815323
v -0.002721115 -0.060417868 0.062737718
v -0.002697821 -0.060416393 0.062720858
v -0.002697821 -0.060116399 0.062747106
v -0.002691366 -0.060067613 0.062763162
v -0.002673733 -0.060033944 0.062798306
v -0.002649645 -0.060024418 0.062843122
v -0.003172534 -0.060374428 0.066875018
v -0.003234443 -0.059393924 0.067110263
v -0.003146575 -0.059393924 0.066898130
v -0.003146575 -0.059181791 0.067110263
v -0.003234443 -0.059502646 0.068352982
v -0.003146575 -0.059502646 0.068565115
v -0.003146575 -0.059290513 0.068352982
v -0.002727051 -0.059294600 0.065974973
v -0.002639183 -0.059294600 0.065762840
v -0.002639183 -0.059082467 0.065974973
v -0.002934443 -0.059202645 0.068352982
v -0.002934443 -0.059093922 0.067110263
v -0.004710719 -0.061100841 0.070544124
v -0.004314874 -0.061155204 0.071165495
v -0.004307883 -0.061155777 0.071172036
v -0.004314874 -0.060855210 0.071191743
v -0.004304551 -0.060804654 0.071187593
v -0.004286587 -0.061157517 0.071191952
v -0.004215747 -0.061163317 0.071258225
v -0.004040676 -0.061177645 0.071422003
v -0.004286587 -0.060857523 0.071218200
v -0.004237823 -0.060750034 0.071136959
v -0.004276348 -0.060766157 0.071167544
v -0.004800000 -0.061211452 0.076410979
v -0.003528725 -0.061219547 0.071900927
v -0.003291597 -0.061238956 0.072122760
v -0.003164988 -0.061245020 0.072192095
v -0.003291597 -0.060938958 0.072149009
v -0.003283723 -0.060888205 0.072142564
v -0.003262208 -0.060849160 0.072116256
v -0.003232819 -0.060832288 0.072077125
v -0.002722864 -0.060999818 0.069389433
v -0.002641928 -0.061015662 0.069570526
v -0.002639183 -0.061016198 0.069576673
v -0.002865939 -0.061259348 0.072355874
v -0.002779318 -0.061263498 0.072403312
v -0.002779318 -0.060963504 0.072429560
v -0.002458962 -0.061278850 0.072578758
v -0.002639183 -0.059601970 0.069700398
v -0.002639183 -0.059389837 0.069488265
v -0.001712132 -0.060599238 0.064810790
v -0.001652890 -0.060597107 0.064786442
v -0.001500000 -0.060591608 0.064723589
v -0.001497509 -0.060591538 0.064722784
v -0.001273182 -0.060585186 0.064650178
v -0.001474797 -0.060374189 0.062238473
v -0.001392663 -0.060371358 0.062206078
v -0.001236254 -0.060369633 0.062186394
v -0.001392663 -0.060071360 0.062232323
v -0.001389332 -0.060022682 0.062249608
v -0.001380229 -0.059989307 0.062288117
v -0.001715233 -0.060382485 0.062333308
v -0.001367794 -0.059980184 0.062337529
v -0.002427051 -0.059082467 0.065762840
v -0.002427051 -0.058994599 0.065974973
v -0.001664958 -0.060316939 0.064815953
v -0.001712132 -0.059918176 0.064870380
v -0.001604636 -0.059916481 0.064825997
v -0.001712132 -0.059221849 0.064931296
v -0.001712132 -0.059009716 0.065143429
v -0.001500000 -0.059221849 0.064843431
v -0.001500000 -0.059115782 0.064887360
v -0.001500000 -0.059009716 0.064931296
v -0.001500000 -0.058921847 0.065143429
v -0.000405623 -0.060560621 0.064369358
v -0.000313585 -0.060558014 0.064339571
v -0.000146792 -0.060559541 0.064357035
v -0.000076401 -0.060560185 0.064364403
v -0.000967733 -0.060366679 0.062152602
v -0.000967733 -0.060066681 0.062178846
v -0.000000000 -0.060356025 0.062030815
v -0.000000000 -0.060056027 0.062057059
v -0.000000000 -0.060007386 0.062074762
v -0.000000000 -0.059974112 0.062114418
v -0.000000000 -0.059965122 0.062165398
v -0.000313585 -0.059188250 0.064459413
v -0.000313585 -0.058976118 0.064547278
v -0.000313585 -0.058888249 0.064759411
v -0.001865024 -0.061076950 0.070271075
v -0.002061497 -0.061297894 0.072796434
v -0.002061497 -0.060997896 0.072822683
v -0.002056566 -0.060947001 0.072814636
v -0.002043091 -0.060907573 0.072783917
v -0.002024685 -0.060890175 0.072738774
v -0.001743999 -0.061086450 0.070379630
v -0.001712132 -0.061088949 0.070408218
v -0.001500000 -0.061096579 0.070495412
v -0.001790638 -0.061303955 0.072865717
v -0.002427051 -0.059389837 0.069700398
v -0.002427051 -0.059301969 0.069488265
v -0.001963526 -0.059382278 0.070010103
v -0.001606066 -0.060521487 0.070501797
v -0.001712132 -0.059674721 0.070531942
v -0.001500000 -0.060521487 0.070545726
v -0.001500000 -0.059674721 0.070619807
v -0.001500000 -0.059462588 0.070531942
v -0.001500000 -0.059374720 0.070319809
v -0.000628230 -0.061121266 0.070777595
v -0.000965553 -0.061322417 0.073076755
v -0.000965553 -0.061022423 0.073103003
v -0.000701866 -0.061328318 0.073144205
v -0.000701866 -0.061028324 0.073170453
v -0.000700187 -0.060977355 0.073161572
v -0.000695599 -0.060937725 0.073128581
v -0.000689333 -0.060920056 0.073080331
v -0.000503908 -0.061124787 0.070817836
v -0.000313585 -0.061130177 0.070879437
v -0.000313585 -0.059708320 0.071003832
v -0.000313585 -0.059408318 0.070703834
v -0.000313585 -0.059496187 0.070915967
v -0.008845085 -0.033433687 0.009036666
v -0.009555283 -0.033555169 0.010425203
v -0.009800000 -0.033689830 0.011964409
v -0.007738926 -0.033337280 0.007934717
v -0.006345085 -0.033275381 0.007227222
v -0.009800000 -0.037607055 0.039527889
v -0.009571639 -0.037707113 0.040671568
v -0.008921321 -0.037791941 0.041641135
v -0.009555283 -0.035019387 0.027161274
v -0.008845085 -0.034897905 0.025772737
v -0.009800000 -0.035154048 0.028700480
v -0.009555283 -0.032528900 0.027379164
v -0.008845085 -0.032407418 0.025990628
v -0.009800000 -0.032663561 0.028918369
v -0.007738926 -0.034801494 0.024670787
v -0.007738926 -0.032311007 0.024888678
v -0.006345085 -0.034739599 0.023963293
v -0.006345085 -0.032249112 0.024181182
v -0.004800000 -0.033254053 0.006983436
v -0.004800000 -0.034718268 0.023719506
v -0.004800000 -0.032227781 0.023937397
v -0.009571639 -0.038029931 0.044361375
v -0.009800000 -0.038129989 0.045505054
v -0.008921321 -0.037945103 0.043391809
v -0.007948050 -0.037848618 0.042288978
v -0.007948050 -0.037888426 0.042743962
v -0.009800000 -0.037594412 0.056593932
v -0.009555283 -0.037729073 0.058133136
v -0.008845085 -0.037850555 0.059521675
v -0.009800000 -0.035103925 0.056811821
v -0.009555283 -0.035238586 0.058351025
v -0.008845085 -0.035360068 0.059739564
v -0.006800000 -0.037868522 0.042516474
v -0.007738926 -0.037946962 0.060623623
v -0.009800000 -0.039058626 0.073330000
v -0.009555283 -0.039193291 0.074869208
v -0.008845085 -0.039314773 0.076257743
v -0.007738926 -0.039411180 0.077359699
v -0.007738926 -0.035456475 0.060841512
v -0.006345085 -0.038008861 0.061331119
v -0.006345085 -0.039473079 0.078067191
v -0.006345085 -0.035518374 0.061549008
v -0.001454197 -0.039831515 0.072998270
v -0.000000000 -0.039856724 0.073286422
v -0.004800000 -0.038030189 0.061574906
v -0.003722874 -0.039310925 0.068052225
v -0.003722874 -0.039098792 0.067840092
v -0.003810742 -0.039098792 0.068052225
v -0.003722874 -0.038582277 0.067885280
v -0.003810742 -0.038600694 0.068095803
v -0.003510742 -0.039398793 0.068052225
v -0.002899138 -0.039203476 0.066824101
v -0.002899138 -0.038991343 0.066611968
v -0.002687006 -0.039291345 0.066824101
v -0.002687006 -0.039203476 0.066611968
v -0.002899138 -0.038474828 0.066657163
v -0.004012132 -0.039437667 0.069500886
v -0.004100000 -0.039225534 0.069500886
v -0.003800000 -0.039525535 0.069500886
v -0.003722874 -0.039564408 0.070949547
v -0.003810742 -0.039352275 0.070949547
v -0.003722874 -0.039352275 0.071161680
v -0.003810742 -0.038854178 0.070993125
v -0.003722874 -0.038872596 0.071203642
v -0.004100000 -0.038727436 0.069544464
v -0.004800000 -0.039494406 0.078310974
v -0.003510742 -0.039652277 0.070949547
v -0.003311006 -0.039512064 0.071669668
v -0.003204940 -0.039662063 0.071563601
v -0.002899138 -0.039671853 0.072177663
v -0.002899138 -0.039459720 0.072389796
v -0.002899138 -0.038980041 0.072431765
v -0.002687006 -0.039759722 0.072177663
v -0.002687006 -0.039671853 0.072389796
v -0.004800000 -0.035539702 0.061792795
v -0.002100142 -0.038428299 0.066125318
v -0.001666329 -0.038919553 0.065791368
v -0.001454197 -0.038919553 0.065703504
v -0.001454197 -0.039219555 0.066003501
v -0.001454197 -0.039131686 0.065791368
v -0.001666329 -0.038403034 0.065836556
v -0.001454197 -0.038395405 0.065749355
v -0.000000000 -0.039194342 0.065715343
v -0.000000000 -0.039106473 0.065503210
v -0.000000000 -0.038894340 0.065415345
v -0.000497794 -0.038378827 0.065559842
v -0.000000000 -0.038370196 0.065461203
v -0.002408343 -0.039008625 0.072758459
v -0.001666329 -0.039531514 0.073210403
v -0.001666329 -0.039051834 0.073252365
v -0.001454197 -0.039743647 0.073210403
v -0.001454197 -0.039531514 0.073298268
v -0.001454197 -0.039059464 0.073339567
v -0.000861344 -0.039069742 0.073457040
v -0.000000000 -0.039768856 0.073498555
v -0.000000000 -0.039556723 0.073586419
v -0.000000000 -0.039084673 0.073627725
v 0.000000000 -0.055845510 0.008281129
v 0.000000000 -0.055856429 0.008318590
v 0.000000000 -0.055748094 0.008227685
v 0.000000000 -0.055821087 0.008250700
v 0.000000000 -0.055786878 0.008231932
v 0.000000000 -0.055349614 0.008262547
v 0.000000000 -0.055300973 0.008280251
v 0.000000000 -0.055267699 0.008319905
v 0.000000000 -0.055258710 0.008370882
v 0.000967733 -0.055758748 0.008349473
v 0.000967733 -0.055360269 0.008384335
v 0.001367794 -0.055871487 0.008490724
v 0.001377311 -0.055860676 0.008454463
v 0.001385379 -0.055836342 0.008425049
v 0.001390770 -0.055802193 0.008406959
v 0.001392663 -0.055763427 0.008402949
v 0.001392663 -0.055364948 0.008437811
v 0.001389332 -0.055316269 0.008455097
v 0.001380229 -0.055282895 0.008493604
v 0.001367794 -0.055273771 0.008543016
v 0.000689333 -0.056811363 0.019233525
v 0.000694129 -0.056807086 0.019272011
v 0.000698195 -0.056788299 0.019305965
v 0.000700912 -0.056757852 0.019330217
v 0.000701866 -0.056720387 0.019341076
v 0.000701866 -0.056321912 0.019375937
v 0.000700187 -0.056270942 0.019367054
v 0.000689333 -0.056213643 0.019285820
v 0.000695599 -0.056231312 0.019334069
v 0.000965553 -0.056714486 0.019273629
v 0.000965553 -0.056316011 0.019308493
v 0.002024685 -0.056781478 0.018891970
v 0.002038772 -0.056776997 0.018928079
v 0.002050715 -0.056758031 0.018960018
v 0.002058695 -0.056727469 0.018982925
v 0.002061497 -0.056689963 0.018993311
v 0.002024685 -0.056183763 0.018944263
v 0.002061497 -0.056291483 0.019028172
v 0.002043091 -0.056201160 0.018989408
v 0.002056566 -0.056240588 0.019020120
v 0.004800000 -0.059125040 0.021584190
v 0.002649645 -0.055915721 0.008996314
v 0.002668081 -0.055905215 0.008963570
v 0.002683710 -0.055881143 0.008937137
v 0.002694153 -0.055847168 0.008921041
v 0.002697821 -0.055808462 0.008917731
v 0.002697821 -0.055409987 0.008952593
v 0.002691366 -0.055361200 0.008968647
v 0.002649645 -0.055318005 0.009048606
v 0.002673733 -0.055327531 0.009003790
v 0.002792076 -0.055814434 0.008985952
v 0.002792076 -0.055415954 0.009020814
v 0.004800000 -0.054971095 0.005083439
v 0.003765008 -0.055986349 0.009803589
v 0.003791205 -0.055976335 0.009776462
v 0.003813414 -0.055952679 0.009754792
v 0.003828253 -0.055918980 0.009741877
v 0.003833464 -0.055880375 0.009739685
v 0.004255930 -0.055924885 0.010248415
v 0.003765009 -0.055388633 0.009855882
v 0.003824293 -0.055432938 0.009788634
v 0.003799236 -0.055398799 0.009818404
v 0.003833464 -0.055481896 0.009774547
v 0.004255930 -0.055526406 0.010283277
v 0.004643803 -0.056078933 0.010861827
v 0.004676114 -0.056069560 0.010842063
v 0.004703506 -0.056046452 0.010826634
v 0.004721809 -0.056013122 0.010817891
v 0.004728236 -0.055974644 0.010817163
v 0.004643803 -0.055481214 0.010914120
v 0.004686020 -0.055492226 0.010886263
v 0.004728236 -0.055576164 0.010852026
v 0.004716924 -0.055526979 0.010863534
v 0.002779318 -0.056655571 0.018600186
v 0.002779318 -0.056257091 0.018635048
v 0.003232818 -0.056723591 0.018230319
v 0.003255312 -0.056718707 0.018261826
v 0.003274381 -0.056699399 0.018289862
v 0.003287123 -0.056668609 0.018310159
v 0.003291597 -0.056631025 0.018319629
v 0.003291597 -0.056232546 0.018354492
v 0.003232819 -0.056125876 0.018282615
v 0.003262208 -0.056142747 0.018321743
v 0.003283723 -0.056181792 0.018348053
v 0.004237822 -0.056641337 0.017290149
v 0.004267308 -0.056635883 0.017315114
v 0.004286587 -0.056549590 0.017388828
v 0.004286587 -0.056151111 0.017423689
v 0.004237823 -0.056043621 0.017342445
v 0.004276348 -0.056059744 0.017373025
v 0.004292306 -0.056616090 0.017337603
v 0.004309009 -0.056584973 0.017354196
v 0.004314874 -0.056547273 0.017362365
v 0.004314874 -0.056148797 0.017397229
v 0.004304551 -0.056098241 0.017393079
v 0.004800000 -0.056435313 0.021819511
v 0.006345085 -0.059146367 0.021827975
v 0.005243178 -0.056070019 0.011907305
v 0.005489146 -0.056305684 0.013453625
v 0.005230810 -0.056187656 0.012104534
v 0.005267205 -0.056179043 0.012093416
v 0.005298060 -0.056156572 0.012085319
v 0.005318677 -0.056123670 0.012081473
v 0.005325917 -0.056085341 0.012082465
v 0.005243178 -0.055671539 0.011942167
v 0.005278364 -0.055601936 0.012140267
v 0.005313175 -0.055637415 0.012125809
v 0.005325917 -0.055686865 0.012117327
v 0.005230811 -0.055589937 0.012156826
v 0.005489147 -0.055707969 0.013505919
v 0.005527339 -0.056297895 0.013451896
v 0.005559718 -0.056276120 0.013451755
v 0.005581352 -0.056243684 0.013453227
v 0.005588950 -0.056205519 0.013456086
v 0.005566958 -0.056235984 0.013804303
v 0.005600000 -0.055837687 0.013841237
v 0.005539048 -0.055721041 0.013501624
v 0.005588950 -0.055807039 0.013490948
v 0.005575579 -0.055757303 0.013496144
v 0.006345085 -0.054992426 0.005327225
v 0.004976548 -0.056539886 0.016130533
v 0.005011174 -0.056533720 0.016147429
v 0.005040529 -0.056513332 0.016163079
v 0.005060144 -0.056481816 0.016175101
v 0.005067031 -0.056443974 0.016181666
v 0.004976549 -0.055942167 0.016182827
v 0.005021790 -0.055957370 0.016202867
v 0.005067031 -0.056045499 0.016216528
v 0.005054909 -0.055995192 0.016215203
v 0.005402579 -0.056425605 0.014824335
v 0.005440169 -0.056418650 0.014832142
v 0.005472037 -0.056397583 0.014840087
v 0.005493331 -0.056365620 0.014846961
v 0.005500809 -0.056327622 0.014851717
v 0.005223527 -0.056401998 0.015701856
v 0.005451694 -0.055842053 0.014884794
v 0.005500809 -0.055929143 0.014886579
v 0.005487648 -0.055879112 0.014888437
v 0.005223527 -0.056003518 0.015736718
v 0.005402580 -0.055827890 0.014876628
v 0.006345085 -0.056456644 0.022063296
v 0.007738926 -0.059208266 0.022535471
v 0.007738926 -0.055054322 0.006034721
v 0.008845085 -0.055150732 0.007136670
v 0.009555283 -0.055272214 0.008525208
v 0.009800000 -0.055406876 0.010064413
v 0.007738926 -0.056518540 0.022770792
v 0.006800000 -0.058390133 0.040721063
v 0.008845085 -0.059304673 0.023637421
v 0.009555283 -0.059426155 0.025025958
v 0.009800000 -0.059560817 0.026565162
v 0.009800000 -0.056871094 0.026800483
v 0.008845085 -0.056614947 0.023872741
v 0.009555283 -0.056736428 0.025261277
v 0.007948050 -0.058370229 0.040493570
v 0.007948050 -0.058410034 0.040948555
v 0.008921321 -0.058313549 0.039845727
v 0.008921321 -0.058466714 0.041596398
v 0.009571639 -0.058228724 0.038876161
v 0.009800000 -0.058128666 0.037732478
v 0.004800000 -0.062436961 0.059439588
v 0.004800000 -0.059747234 0.059674907
v 0.000927051 -0.060569376 0.064469472
v 0.000952438 -0.060570288 0.064479902
v 0.001107106 -0.060575850 0.064543486
v 0.001139183 -0.060577005 0.064556673
v 0.000065550 -0.060356744 0.062039062
v 0.000967733 -0.060449500 0.062145356
v 0.001138356 -0.060467038 0.062165458
v 0.001157568 -0.060468879 0.062168054
v 0.001186437 -0.060474828 0.062172305
v 0.001209831 -0.060490023 0.062176883
v 0.000967733 -0.060066681 0.062178846
v 0.001157568 -0.060385615 0.062369063
v 0.000927051 -0.059199616 0.064589314
v 0.001139183 -0.059199616 0.064677179
v 0.000927051 -0.058987483 0.064677179
v 0.000927051 -0.058899615 0.064889312
v 0.001380979 -0.060556024 0.062235605
v 0.001526472 -0.060572237 0.062307812
v 0.001576450 -0.060575705 0.062333785
v 0.001845779 -0.060594395 0.062473767
v 0.001238583 -0.060582008 0.064613841
v 0.001340855 -0.060587153 0.064672664
v 0.002191965 -0.060629983 0.065162182
v 0.002219524 -0.060631368 0.065178029
v 0.002356118 -0.060647756 0.065365322
v 0.002356402 -0.060647789 0.065365709
v 0.001235813 -0.060506899 0.062181968
v 0.001320449 -0.060540434 0.062210508
v 0.001324611 -0.060542081 0.062211912
v 0.001385379 -0.060542751 0.062219560
v 0.001390770 -0.060508605 0.062201470
v 0.001392663 -0.060469840 0.062197462
v 0.001392663 -0.060071360 0.062232323
v 0.001389332 -0.060022682 0.062249608
v 0.001380229 -0.059989307 0.062288117
v 0.001367794 -0.059980184 0.062337529
v 0.002367776 -0.060485929 0.062907405
v 0.002007392 -0.059041843 0.065298535
v 0.002007392 -0.058953974 0.065510668
v 0.002219524 -0.059253976 0.065298535
v 0.002219524 -0.059041843 0.065510668
v 0.000317483 -0.061124396 0.070813365
v 0.000728030 -0.061120637 0.070770375
v 0.000927051 -0.061118811 0.070749536
v 0.001139183 -0.061111182 0.070662342
v 0.001193875 -0.061108429 0.070630886
v 0.000701866 -0.061328318 0.073144205
v 0.000701866 -0.061028324 0.073170453
v 0.000700187 -0.060977355 0.073161572
v 0.000695599 -0.060937725 0.073128581
v 0.000689333 -0.060920056 0.073080331
v 0.000965553 -0.061322417 0.073076755
v 0.000965553 -0.061022423 0.073103003
v 0.000927051 -0.059696954 0.070873931
v 0.001139183 -0.059696954 0.070786066
v 0.000927051 -0.059396952 0.070573933
v 0.000927051 -0.059484821 0.070786066
v 0.001236408 -0.061316356 0.073007479
v 0.002041350 -0.061065786 0.070143454
v 0.002219524 -0.061056819 0.070040978
v 0.002262129 -0.061051708 0.069982558
v 0.002234130 -0.061055068 0.070020951
v 0.002061497 -0.061297894 0.072796434
v 0.002061497 -0.060997896 0.072822683
v 0.002043091 -0.060907573 0.072783917
v 0.002056566 -0.060947001 0.072814636
v 0.002024685 -0.060890175 0.072738774
v 0.002219524 -0.059642594 0.070164703
v 0.002007392 -0.059430461 0.070164703
v 0.002007392 -0.059342593 0.069952570
v 0.002219524 -0.059430461 0.069952570
v 0.002649645 -0.060622133 0.062790826
v 0.002668081 -0.060611628 0.062758081
v 0.002694153 -0.060553581 0.062715553
v 0.002683710 -0.060587555 0.062731653
v 0.002630359 -0.060630944 0.062891535
v 0.003229776 -0.060658868 0.063210711
v 0.003333028 -0.060660809 0.063267298
v 0.003491961 -0.060663797 0.063354388
v 0.003548473 -0.060661886 0.063387021
v 0.003577983 -0.060586240 0.063445747
v 0.003650183 -0.060658440 0.063445747
v 0.002952768 -0.060719330 0.066183418
v 0.002968995 -0.060722731 0.066222288
v 0.002994789 -0.060728136 0.066284090
v 0.003040636 -0.060737748 0.066393934
v 0.003051118 -0.060742047 0.066443056
v 0.002965635 -0.060966164 0.069004767
v 0.002952768 -0.060968861 0.069035597
v 0.003029054 -0.060952872 0.068852820
v 0.003040636 -0.060950443 0.068825074
v 0.002993473 -0.060960330 0.068938069
v 0.002991410 -0.060889058 0.068949290
v 0.002983763 -0.060624998 0.068990849
v 0.003086232 -0.060756445 0.066607632
v 0.003281146 -0.060851824 0.067697868
v 0.003254404 -0.060862791 0.067823201
v 0.003300000 -0.060844094 0.067609504
v 0.003293348 -0.060841367 0.067578323
v 0.002697821 -0.060514875 0.062712245
v 0.002697821 -0.060116399 0.062747106
v 0.002649645 -0.060024418 0.062843122
v 0.002673733 -0.060033944 0.062798306
v 0.002691366 -0.060067613 0.062763162
v 0.002792076 -0.060520846 0.062780462
v 0.002792076 -0.060122367 0.062815323
v 0.003577983 -0.060498372 0.063657880
v 0.002996702 -0.060188703 0.066335909
v 0.002740636 -0.059041936 0.066516057
v 0.002952768 -0.059341937 0.066303924
v 0.003040636 -0.059341937 0.066516057
v 0.002952768 -0.059129804 0.066516057
v 0.002740636 -0.059254631 0.068947189
v 0.003000000 -0.059148286 0.067731619
v 0.003040636 -0.059554633 0.068947189
v 0.002976384 -0.059245393 0.068339407
v 0.002952768 -0.059342500 0.068947189
v 0.003212132 -0.059236154 0.067731619
v 0.003300000 -0.059448287 0.067731619
v 0.003799241 -0.060674187 0.063563131
v 0.003813414 -0.060659092 0.063549303
v 0.003892766 -0.060669843 0.063649312
v 0.003828253 -0.060625393 0.063536391
v 0.003833464 -0.060586788 0.063534200
v 0.003908514 -0.060669109 0.063663825
v 0.004023818 -0.060653877 0.063778765
v 0.004056995 -0.060649492 0.063811839
v 0.004129683 -0.060629554 0.063893400
v 0.004140820 -0.060626499 0.063905895
v 0.004181989 -0.060623508 0.063953884
v 0.004242927 -0.060617663 0.064028338
v 0.004255930 -0.060616415 0.064044230
v 0.004671291 -0.060576573 0.064551719
v 0.004728236 -0.060582574 0.064620294
v 0.003765009 -0.060095046 0.063650392
v 0.003824293 -0.060139351 0.063583151
v 0.003799236 -0.060105212 0.063612916
v 0.003833464 -0.060188308 0.063569061
v 0.004255930 -0.060232818 0.064077795
v 0.004643803 -0.060187627 0.064708635
v 0.004686020 -0.060198639 0.064680777
v 0.004728236 -0.060282577 0.064646542
v 0.004716924 -0.060233392 0.064658046
v 0.002831839 -0.060983367 0.069201402
v 0.002779318 -0.061263498 0.072403312
v 0.002905928 -0.061257433 0.072333977
v 0.002779318 -0.060963504 0.072429560
v 0.003199924 -0.061243344 0.072172962
v 0.003291597 -0.061238952 0.072122760
v 0.003291597 -0.060938958 0.072149009
v 0.003232819 -0.060832288 0.072077125
v 0.003262208 -0.060849160 0.072116256
v 0.003283723 -0.060888205 0.072142564
v 0.003537510 -0.061218828 0.071892709
v 0.002952768 -0.059554633 0.069159321
v 0.004160333 -0.061167851 0.071310066
v 0.004286587 -0.061157517 0.071191952
v 0.004286587 -0.060857523 0.071218200
v 0.004237823 -0.060750034 0.071136959
v 0.004276348 -0.060766157 0.071167544
v 0.003869165 -0.061191682 0.071582451
v 0.004293579 -0.061156947 0.071185417
v 0.004314874 -0.061155204 0.071165495
v 0.004314874 -0.060855210 0.071191743
v 0.004304551 -0.060804654 0.071187593
v 0.004688030 -0.061103955 0.070579737
v 0.004800000 -0.061211452 0.076410979
v 0.006345085 -0.062415630 0.059195802
v 0.006345085 -0.059725907 0.059431121
v 0.007738926 -0.062353734 0.058488306
v 0.007738926 -0.059664007 0.058723629
v 0.009800000 -0.062001180 0.054458614
v 0.008845085 -0.062257323 0.057386357
v 0.009555283 -0.062135842 0.055997819
v 0.009800000 -0.059311453 0.054693937
v 0.008845085 -0.059567600 0.057621680
v 0.009555283 -0.059446119 0.056233138
v 0.009571639 -0.058551539 0.042565968
v 0.009800000 -0.058651600 0.043709647
v 0.005090593 -0.060649689 0.065387413
v 0.005174655 -0.060665257 0.065565370
v 0.005325917 -0.060693275 0.065885589
v 0.005500809 -0.060935549 0.068654843
v 0.005505716 -0.060931027 0.068603136
v 0.005500809 -0.060635556 0.068681091
v 0.005487648 -0.060585525 0.068682954
v 0.005548443 -0.060794942 0.067047670
v 0.005588950 -0.060813449 0.067259215
v 0.005575124 -0.060843959 0.067607947
v 0.005572393 -0.060836386 0.067521378
v 0.005572931 -0.060837880 0.067538440
v 0.005525324 -0.060912948 0.068396494
v 0.005243178 -0.060377952 0.065736681
v 0.005313175 -0.060343828 0.065920323
v 0.005325917 -0.060393278 0.065911837
v 0.005230811 -0.060296349 0.065951340
v 0.005278364 -0.060308348 0.065934777
v 0.005489147 -0.060414381 0.067300431
v 0.005402580 -0.060534302 0.068671137
v 0.005451694 -0.060548466 0.068679303
v 0.005588950 -0.060513452 0.067285463
v 0.005575579 -0.060463715 0.067290656
v 0.005539048 -0.060427453 0.067296140
v 0.005600000 -0.060544100 0.067635752
v 0.005022875 -0.061057970 0.070054114
v 0.005067031 -0.061051905 0.069984794
v 0.004976549 -0.060648579 0.069977343
v 0.005021790 -0.060663782 0.069997385
v 0.005067031 -0.060751911 0.070011042
v 0.005054909 -0.060701605 0.070009716
v 0.005298191 -0.060989901 0.069276065
v 0.005223527 -0.060709931 0.069531232
v 0.006345085 -0.061190121 0.076167196
v 0.007738926 -0.061128225 0.075459696
v 0.009800000 -0.060775671 0.071430005
v 0.009555283 -0.060910337 0.072969213
v 0.008845085 -0.061031815 0.074357748
v 0.004800000 -0.033254053 0.006983436
v 0.004800000 -0.034718268 0.023719506
v 0.004800000 -0.032227781 0.023937397
v 0.006345085 -0.033275381 0.007227222
v 0.007738926 -0.033337280 0.007934717
v 0.008845085 -0.033433687 0.009036666
v 0.009555283 -0.033555169 0.010425203
v 0.009800000 -0.033689830 0.011964409
v 0.006345085 -0.034739599 0.023963293
v 0.006345085 -0.032249112 0.024181182
v 0.008921321 -0.037791941 0.041641135
v 0.009800000 -0.037607055 0.039527889
v 0.009571639 -0.037707113 0.040671568
v 0.007738926 -0.034801494 0.024670787
v 0.007738926 -0.032311007 0.024888678
v 0.008845085 -0.034897905 0.025772737
v 0.009555283 -0.035019387 0.027161274
v 0.009800000 -0.035154048 0.028700480
v 0.008845085 -0.032407418 0.025990628
v 0.009555283 -0.032528900 0.027379164
v 0.009800000 -0.032663561 0.028918369
v 0.001454197 -0.039831515 0.072998270
v 0.000956401 -0.038386777 0.065650716
v 0.001454197 -0.038919553 0.065703504
v 0.001454197 -0.039219555 0.066003501
v 0.001454197 -0.039131686 0.065791368
v 0.001666329 -0.038919553 0.065791368
v 0.001454197 -0.038395405 0.065749355
v 0.001666329 -0.038403034 0.065836556
v 0.000592854 -0.039074399 0.073510252
v 0.001454197 -0.039743647 0.073210403
v 0.001454197 -0.039531514 0.073298268
v 0.001454197 -0.039059464 0.073339567
v 0.001666329 -0.039531514 0.073210403
v 0.001666329 -0.039051834 0.073252365
v 0.002157123 -0.039023254 0.072925672
v 0.002687006 -0.039291345 0.066824101
v 0.002687006 -0.039203476 0.066611968
v 0.002899138 -0.039203476 0.066824101
v 0.002899138 -0.038991343 0.066611968
v 0.002465326 -0.038449567 0.066368401
v 0.002899138 -0.038474828 0.066657163
v 0.003510742 -0.039398793 0.068052225
v 0.004800000 -0.038030189 0.061574906
v 0.003722874 -0.039310925 0.068052225
v 0.003722874 -0.039098792 0.067840092
v 0.003810742 -0.039098792 0.068052225
v 0.003722874 -0.038582277 0.067885280
v 0.003810742 -0.038600694 0.068095803
v 0.002687006 -0.039759722 0.072177663
v 0.002687006 -0.039671853 0.072389796
v 0.002899138 -0.039671853 0.072177663
v 0.002899138 -0.039459720 0.072389796
v 0.002899138 -0.038980041 0.072431765
v 0.003510742 -0.039652277 0.070949547
v 0.003204940 -0.039662063 0.071563601
v 0.003311006 -0.039512064 0.071669668
v 0.003800000 -0.039525535 0.069500886
v 0.003722874 -0.039564408 0.070949547
v 0.003722874 -0.039352275 0.071161680
v 0.003810742 -0.039352275 0.070949547
v 0.003722874 -0.038872596 0.071203642
v 0.003810742 -0.038854178 0.070993125
v 0.004012132 -0.039437667 0.069500886
v 0.004100000 -0.039225534 0.069500886
v 0.004100000 -0.038727436 0.069544464
v 0.004800000 -0.039494406 0.078310974
v 0.004800000 -0.035539702 0.061792795
v 0.006800000 -0.037868522 0.042516474
v 0.007948050 -0.037848618 0.042288978
v 0.007948050 -0.037888426 0.042743962
v 0.008921321 -0.037945103 0.043391809
v 0.009571639 -0.038029931 0.044361375
v 0.009800000 -0.038129989 0.045505054
v 0.008845085 -0.037850555 0.059521675
v 0.009800000 -0.037594412 0.056593932
v 0.009555283 -0.037729073 0.058133136
v 0.008845085 -0.035360068 0.059739564
v 0.009800000 -0.035103925 0.056811821
v 0.009555283 -0.035238586 0.058351025
v 0.006345085 -0.038008861 0.061331119
v 0.006345085 -0.039473079 0.078067191
v 0.006345085 -0.035518374 0.061549008
v 0.007738926 -0.037946962 0.060623623
v 0.007738926 -0.039411180 0.077359699
v 0.009800000 -0.039058626 0.073330000
v 0.008845085 -0.039314773 0.076257743
v 0.009555283 -0.039193291 0.074869208
v 0.007738926 -0.035456475 0.060841512
f 2 3 75
f 2 75 4
f 4 56 55
f 4 57 56
f 4 6 57
f 1 54 6
f 4 31 6
f 1 65 54
f 1 7 65
f 3 5 86
f 4 29 30
f 4 30 51
f 4 75 29
f 5 8 86
f 3 86 75
f 10 12 34
f 9 13 11
f 9 10 32
f 9 32 13
f 11 13 14
f 11 14 15
f 13 38 14
f 14 16 15
f 14 39 16
f 16 40 17
f 18 69 22
f 21 22 71
f 21 67 24
f 18 25 70
f 23 24 68
f 22 69 71
f 19 23 36
f 12 19 35
f 9 11 22
f 9 21 10
f 10 24 12
f 10 21 24
f 12 23 19
f 9 22 21
f 11 20 22
f 11 15 20
f 15 26 20
f 18 22 20
f 12 24 23
f 18 20 26
f 25 27 73
f 27 28 73
f 28 29 74
f 15 16 26
f 16 17 27
f 16 27 26
f 17 28 27
f 17 30 28
f 25 26 27
f 18 26 25
f 28 30 29
f 17 51 30
f 1 31 7
f 1 6 31
f 4 51 31
f 7 31 109
f 7 109 65
f 13 32 33
f 13 33 38
f 14 38 39
f 31 51 50
f 12 35 34
f 10 34 32
f 19 36 35
f 32 37 33
f 34 35 45
f 35 36 46
f 32 34 42
f 32 42 37
f 33 41 38
f 38 41 39
f 39 49 40
f 40 50 51
f 33 37 41
f 39 41 48
f 23 44 36
f 34 45 42
f 35 46 45
f 36 44 46
f 37 42 43
f 37 47 41
f 37 43 47
f 39 48 49
f 40 49 50
f 41 47 48
f 31 50 108
f 16 39 40
f 17 40 51
f 52 65 53
f 52 54 65
f 53 152 59
f 52 53 56
f 53 55 56
f 52 56 57
f 52 57 54
f 53 59 55
f 6 54 57
f 58 59 161
f 58 160 60
f 60 160 61
f 60 61 62
f 61 63 62
f 62 63 64
f 2 351 3
f 2 4 352
f 3 354 5
f 4 55 361
f 5 355 8
f 8 369 66
f 58 356 59
f 58 60 357
f 60 62 358
f 62 64 375
f 55 59 356
f 63 383 64
f 8 66 97
f 8 97 86
f 21 71 67
f 24 67 68
f 18 70 69
f 69 70 76
f 69 79 71
f 67 71 80
f 67 81 68
f 23 68 104
f 25 72 70
f 25 73 72
f 28 74 73
f 29 75 74
f 70 72 76
f 72 73 82
f 72 82 76
f 73 74 84
f 74 75 85
f 69 76 77
f 69 77 79
f 71 79 80
f 67 80 81
f 76 78 77
f 73 84 82
f 76 82 78
f 74 85 84
f 75 86 85
f 78 82 83
f 82 84 83
f 77 78 88
f 80 90 81
f 77 87 79
f 79 89 80
f 78 91 88
f 77 88 87
f 78 83 91
f 83 84 92
f 84 85 95
f 85 86 96
f 83 92 91
f 84 95 92
f 79 87 89
f 80 89 90
f 85 96 95
f 91 92 93
f 66 129 97
f 86 97 96
f 88 91 93
f 92 94 93
f 92 95 94
f 68 81 141
f 23 104 44
f 45 46 98
f 44 103 46
f 42 100 43
f 42 45 99
f 43 101 47
f 47 102 48
f 48 107 49
f 49 108 50
f 42 99 100
f 45 98 99
f 46 103 98
f 44 104 103
f 43 100 101
f 99 105 100
f 100 105 106
f 47 101 102
f 48 102 107
f 49 107 108
f 100 106 101
f 101 106 102
f 68 110 104
f 103 104 111
f 98 113 99
f 98 103 112
f 99 114 105
f 105 115 106
f 107 118 108
f 102 106 116
f 102 117 107
f 31 118 109
f 31 108 118
f 68 133 110
f 98 112 113
f 103 111 112
f 99 113 114
f 104 110 111
f 105 114 115
f 106 115 116
f 102 116 117
f 107 117 118
f 113 119 114
f 114 120 115
f 115 120 116
f 68 141 133
f 114 119 120
f 111 134 112
f 110 132 111
f 112 135 113
f 117 140 118
f 116 139 117
f 113 135 119
f 112 134 135
f 119 137 120
f 116 120 138
f 116 138 139
f 109 118 140
f 87 123 89
f 87 88 121
f 89 122 90
f 66 456 129
f 88 93 124
f 93 94 125
f 94 95 126
f 95 96 127
f 96 97 128
f 87 121 123
f 89 123 122
f 88 124 121
f 93 125 124
f 94 126 125
f 95 127 126
f 96 128 127
f 97 129 128
f 124 125 130
f 125 126 130
f 126 127 131
f 81 90 141
f 90 122 141
f 121 448 123
f 122 123 449
f 66 467 456
f 126 131 130
f 121 124 451
f 127 128 454
f 124 130 452
f 130 131 450
f 128 129 455
f 127 454 131
f 121 451 448
f 123 448 449
f 124 452 451
f 130 450 452
f 131 453 450
f 128 455 454
f 129 456 455
f 131 454 453
f 122 449 468
f 65 109 488
f 132 143 134
f 132 133 142
f 111 132 134
f 110 133 132
f 117 139 140
f 119 135 136
f 119 136 137
f 120 137 138
f 135 144 136
f 136 145 137
f 134 146 135
f 137 145 138
f 139 150 140
f 138 151 139
f 136 144 145
f 135 146 144
f 138 145 149
f 133 141 142
f 132 142 143
f 141 469 142
f 142 470 143
f 122 468 141
f 134 143 146
f 138 149 151
f 139 151 150
f 144 146 147
f 144 147 148
f 144 148 145
f 145 148 149
f 109 140 543
f 143 471 146
f 146 472 147
f 147 473 148
f 148 474 149
f 149 476 151
f 150 151 475
f 53 598 152
f 53 65 598
f 66 369 500
f 59 152 161
f 152 153 155
f 153 154 156
f 153 156 155
f 154 157 156
f 152 195 153
f 154 158 157
f 153 195 154
f 154 162 158
f 157 158 159
f 58 161 160
f 158 162 159
f 159 162 163
f 154 195 162
f 162 195 163
f 163 195 196
f 155 156 164
f 156 157 164
f 157 159 164
f 159 163 164
f 164 187 165
f 165 194 166
f 164 185 187
f 163 184 164
f 164 184 185
f 176 169 168
f 176 168 173
f 176 173 179
f 174 179 173
f 174 175 179
f 180 171 169
f 176 180 169
f 180 170 171
f 182 172 170
f 174 189 175
f 174 173 190
f 175 193 186
f 186 194 187
f 163 210 184
f 163 206 210
f 176 179 177
f 175 177 179
f 177 186 178
f 176 177 180
f 177 178 181
f 177 181 180
f 178 183 181
f 178 185 183
f 180 182 170
f 180 181 182
f 183 185 184
f 181 208 182
f 181 183 208
f 183 184 209
f 182 207 198
f 182 198 172
f 178 187 185
f 175 186 177
f 178 186 187
f 166 262 167
f 165 187 194
f 166 194 262
f 174 190 189
f 175 189 192
f 189 190 191
f 175 192 193
f 186 193 194
f 189 191 192
f 191 190 253
f 167 262 271
f 167 271 188
f 160 161 372
f 61 160 374
f 152 373 161
f 61 376 63
f 152 155 373
f 155 164 377
f 164 165 385
f 165 166 386
f 166 167 387
f 167 188 388
f 188 264 391
f 152 608 195
f 195 609 196
f 163 196 240
f 207 197 199
f 201 197 207
f 201 207 208
f 201 200 197
f 204 208 209
f 205 209 210
f 163 240 206
f 201 208 204
f 201 203 200
f 204 209 205
f 205 210 206
f 203 202 200
f 201 204 203
f 203 231 202
f 207 199 198
f 182 208 207
f 183 209 208
f 184 210 209
f 203 232 231
f 203 204 234
f 204 205 238
f 205 206 239
f 203 234 232
f 204 238 234
f 196 293 240
f 234 233 232
f 234 235 233
f 205 239 238
f 206 240 239
f 237 236 235
f 234 237 235
f 234 238 237
f 191 257 192
f 192 263 193
f 191 253 256
f 193 262 194
f 256 253 254
f 256 254 255
f 261 255 258
f 191 256 257
f 192 257 263
f 193 263 262
f 256 255 261
f 256 261 257
f 261 258 259
f 261 259 260
f 257 261 269
f 257 270 263
f 261 260 268
f 262 263 271
f 188 271 264
f 268 260 265
f 268 265 266
f 261 268 269
f 257 269 270
f 263 270 271
f 268 266 267
f 268 267 277
f 268 277 269
f 277 267 275
f 277 275 276
f 269 323 270
f 270 324 271
f 277 276 278
f 269 277 322
f 269 322 323
f 264 271 324
f 264 324 345
f 196 315 293
f 237 292 236
f 237 238 289
f 238 239 290
f 239 240 291
f 237 289 292
f 289 286 292
f 289 287 286
f 289 288 287
f 289 290 310
f 238 290 289
f 239 291 290
f 240 293 291
f 289 310 288
f 310 309 288
f 196 645 315
f 290 291 313
f 310 312 309
f 291 293 314
f 290 313 310
f 312 311 309
f 291 314 313
f 293 315 314
f 310 313 312
f 277 278 321
f 321 278 320
f 270 323 324
f 277 321 322
f 321 320 328
f 321 328 340
f 321 340 322
f 323 345 324
f 322 344 323
f 340 328 339
f 322 340 343
f 322 343 344
f 323 344 345
f 340 339 341
f 340 341 342
f 340 342 343
f 342 341 656
f 343 659 344
f 344 660 345
f 342 658 343
f 264 345 776
f 2 352 351
f 4 353 352
f 3 351 354
f 4 361 353
f 5 354 355
f 8 355 369
f 58 357 356
f 60 358 357
f 62 375 358
f 55 356 361
f 353 361 359
f 353 359 360
f 353 360 365
f 353 365 367
f 352 353 367
f 351 352 370
f 351 370 354
f 354 370 355
f 355 370 369
f 352 367 370
f 359 361 362
f 356 364 361
f 359 362 363
f 359 363 360
f 361 364 362
f 360 363 366
f 360 366 365
f 362 364 371
f 362 371 363
f 365 368 367
f 365 366 368
f 363 371 366
f 366 371 368
f 367 368 371
f 367 371 370
f 369 370 828
f 364 829 371
f 370 371 828
f 160 372 374
f 161 373 372
f 61 374 376
f 63 376 383
f 155 377 373
f 64 383 375
f 164 385 377
f 165 386 385
f 166 387 386
f 167 388 387
f 188 391 388
f 264 416 391
f 357 372 373
f 358 374 372
f 356 357 373
f 357 358 372
f 358 376 374
f 356 373 380
f 358 375 376
f 375 383 376
f 373 377 380
f 377 378 380
f 378 381 380
f 378 379 381
f 379 382 381
f 379 384 382
f 356 380 364
f 380 381 382
f 380 382 389
f 380 389 392
f 377 385 378
f 378 385 379
f 379 385 384
f 384 385 390
f 382 384 389
f 385 386 395
f 386 387 395
f 385 395 390
f 384 390 389
f 389 390 392
f 390 395 392
f 392 395 425
f 387 388 395
f 388 391 395
f 391 416 395
f 380 392 425
f 264 893 416
f 364 380 905
f 380 425 905
f 395 415 400
f 395 400 399
f 395 399 406
f 395 426 431
f 395 431 432
f 395 406 426
f 395 416 415
f 416 413 415
f 416 414 413
f 416 422 414
f 416 438 422
f 416 440 438
f 416 443 440
f 395 432 436
f 395 436 437
f 395 894 425
f 395 437 870
f 416 444 443
f 416 893 444
f 448 451 460
f 448 459 449
f 66 500 467
f 450 457 452
f 450 453 457
f 451 452 461
f 453 454 458
f 454 455 465
f 455 456 466
f 448 460 459
f 451 461 460
f 453 458 457
f 452 457 462
f 454 465 458
f 456 467 466
f 452 462 461
f 457 458 463
f 455 466 465
f 449 459 468
f 459 460 489
f 460 461 490
f 461 462 491
f 457 463 462
f 458 464 463
f 458 465 464
f 462 463 492
f 463 464 493
f 464 465 494
f 465 466 495
f 466 467 497
f 461 491 490
f 462 492 491
f 460 490 489
f 463 493 492
f 464 494 493
f 465 495 494
f 467 496 497
f 466 497 495
f 459 489 468
f 468 489 501
f 141 468 469
f 142 469 470
f 143 470 471
f 468 480 469
f 469 481 470
f 146 471 472
f 147 472 473
f 148 473 474
f 149 474 476
f 151 476 475
f 471 477 472
f 472 477 478
f 472 478 473
f 473 478 474
f 470 482 471
f 474 486 476
f 475 476 484
f 140 150 588
f 468 479 480
f 469 480 481
f 109 543 488
f 468 532 479
f 479 524 480
f 484 486 529
f 471 482 477
f 477 485 478
f 474 478 487
f 470 481 482
f 477 482 483
f 477 483 485
f 476 486 484
f 474 487 486
f 478 485 487
f 150 475 588
f 482 521 483
f 483 522 485
f 485 522 487
f 65 488 598
f 490 491 502
f 489 490 501
f 492 493 498
f 493 494 498
f 494 495 499
f 494 499 498
f 467 500 496
f 496 509 497
f 491 492 503
f 492 498 504
f 490 502 501
f 491 503 502
f 492 504 503
f 498 505 504
f 498 499 505
f 495 497 508
f 495 510 499
f 499 510 505
f 496 507 509
f 497 509 508
f 495 508 510
f 468 501 512
f 468 512 547
f 496 567 507
f 496 500 567
f 504 505 506
f 501 502 512
f 502 503 513
f 503 504 514
f 504 506 515
f 505 510 506
f 508 511 510
f 506 510 511
f 507 518 509
f 508 509 520
f 508 520 511
f 502 513 512
f 503 514 513
f 504 515 514
f 506 516 515
f 512 513 547
f 513 514 548
f 515 516 545
f 516 519 545
f 506 511 516
f 507 517 518
f 509 518 520
f 511 519 516
f 511 520 519
f 519 520 552
f 517 553 518
f 480 525 481
f 481 526 482
f 483 521 522
f 482 526 521
f 486 487 530
f 487 522 531
f 479 523 524
f 480 524 525
f 481 525 526
f 521 528 522
f 487 531 530
f 486 530 529
f 468 568 532
f 479 532 523
f 521 526 527
f 521 527 528
f 522 528 531
f 523 533 524
f 524 538 525
f 525 539 526
f 526 534 527
f 527 535 528
f 529 530 536
f 530 531 537
f 528 542 531
f 140 588 543
f 475 484 588
f 468 547 546
f 468 546 577
f 468 577 568
f 523 532 533
f 524 533 538
f 525 538 539
f 526 539 534
f 527 534 535
f 530 537 536
f 528 535 542
f 531 542 537
f 532 568 569
f 534 539 540
f 534 540 541
f 532 569 533
f 533 570 538
f 538 571 539
f 539 572 540
f 534 541 535
f 535 541 542
f 540 575 541
f 541 576 542
f 536 537 573
f 537 542 574
f 533 569 570
f 538 570 571
f 539 571 572
f 540 572 575
f 537 574 573
f 542 576 574
f 541 575 576
f 484 529 594
f 488 544 598
f 507 567 590
f 507 591 517
f 514 515 549
f 515 545 550
f 515 550 549
f 513 548 547
f 514 549 548
f 546 558 577
f 558 559 578
f 545 551 550
f 546 547 548
f 545 552 551
f 548 549 558
f 549 550 559
f 546 548 558
f 550 551 560
f 549 559 558
f 550 560 559
f 551 561 560
f 551 555 561
f 555 565 561
f 518 554 520
f 517 556 553
f 519 552 545
f 520 554 552
f 518 553 554
f 551 552 555
f 552 554 555
f 553 556 564
f 553 566 554
f 554 565 555
f 556 557 564
f 554 566 565
f 553 564 566
f 557 583 564
f 559 560 579
f 560 561 562
f 561 565 562
f 560 562 580
f 562 563 581
f 562 565 563
f 563 565 566
f 564 585 566
f 563 566 585
f 507 590 591
f 517 592 556
f 556 593 557
f 557 593 587
f 488 543 588
f 488 588 544
f 568 578 569
f 569 579 570
f 570 580 571
f 571 582 572
f 572 582 586
f 572 586 575
f 573 574 587
f 574 576 583
f 575 586 576
f 568 577 578
f 569 578 579
f 570 579 580
f 558 578 577
f 559 579 578
f 580 581 582
f 571 580 582
f 574 583 587
f 576 585 583
f 581 584 582
f 584 585 586
f 582 584 586
f 576 586 585
f 557 587 583
f 564 583 585
f 560 580 579
f 562 581 580
f 563 584 581
f 563 585 584
f 529 536 594
f 484 594 588
f 536 573 600
f 544 594 589
f 544 588 594
f 573 587 600
f 536 600 594
f 544 589 596
f 517 591 592
f 556 592 593
f 589 600 596
f 589 594 600
f 587 593 600
f 593 601 600
f 593 599 601
f 544 596 597
f 544 597 598
f 598 607 781
f 596 600 601
f 596 601 597
f 597 599 598
f 597 601 599
f 595 603 602
f 602 603 604
f 603 605 604
f 604 605 787
f 604 787 606
f 606 788 607
f 500 830 567
f 567 831 590
f 590 832 591
f 591 833 592
f 592 834 593
f 593 844 599
f 595 602 895
f 598 599 838
f 595 897 603
f 602 604 896
f 598 838 607
f 604 606 837
f 606 607 839
f 152 781 608
f 195 608 609
f 152 598 781
f 312 614 311
f 312 620 614
f 196 609 645
f 312 313 620
f 313 314 643
f 314 315 644
f 620 615 614
f 313 643 620
f 315 645 644
f 620 641 615
f 641 616 615
f 314 644 643
f 639 627 626
f 639 682 627
f 682 628 627
f 681 629 628
f 639 684 682
f 640 683 684
f 681 628 682
f 681 685 629
f 641 617 616
f 641 618 617
f 641 619 618
f 640 636 619
f 640 637 636
f 640 619 641
f 639 638 637
f 639 637 640
f 639 626 638
f 620 642 641
f 620 643 642
f 639 640 684
f 640 641 683
f 641 642 709
f 642 643 710
f 643 644 713
f 644 645 712
f 641 709 683
f 642 710 709
f 644 712 713
f 645 711 712
f 643 713 710
f 342 656 657
f 343 658 659
f 344 659 660
f 342 657 658
f 657 656 661
f 657 661 662
f 657 662 658
f 662 661 667
f 659 676 660
f 658 674 659
f 662 667 673
f 658 662 675
f 673 667 672
f 659 674 676
f 658 675 674
f 662 673 675
f 673 672 754
f 674 760 676
f 673 756 675
f 345 660 776
f 681 682 686
f 681 686 685
f 682 684 688
f 682 687 686
f 683 730 684
f 683 714 732
f 682 688 687
f 684 689 688
f 684 691 689
f 684 730 691
f 683 732 730
f 714 733 732
f 609 711 645
f 683 709 714
f 709 710 714
f 710 713 715
f 710 715 714
f 711 746 712
f 714 715 733
f 712 745 713
f 713 747 715
f 712 746 745
f 715 747 733
f 713 745 747
f 711 744 746
f 730 729 691
f 730 731 729
f 730 732 734
f 730 734 731
f 732 735 734
f 732 733 737
f 732 736 735
f 732 737 736
f 733 738 737
f 733 739 738
f 733 740 739
f 609 744 711
f 733 747 740
f 745 748 747
f 747 748 740
f 744 750 746
f 745 746 752
f 748 741 740
f 745 752 748
f 748 751 741
f 744 749 750
f 746 750 752
f 751 742 741
f 748 752 751
f 751 743 742
f 751 789 743
f 751 752 802
f 749 806 750
f 673 754 756
f 674 675 761
f 675 756 762
f 756 754 755
f 756 755 759
f 674 761 760
f 675 762 761
f 759 755 757
f 759 757 758
f 756 759 762
f 759 758 763
f 760 761 768
f 759 774 762
f 761 762 769
f 660 676 776
f 767 770 765
f 767 765 766
f 767 763 770
f 759 763 767
f 761 769 768
f 759 767 774
f 762 774 769
f 676 760 822
f 767 766 771
f 773 771 772
f 773 772 775
f 767 771 773
f 767 773 774
f 773 819 774
f 768 769 816
f 769 774 817
f 773 775 818
f 769 817 816
f 773 818 819
f 774 819 817
f 676 822 776
f 264 776 893
f 608 777 609
f 609 777 778
f 608 781 777
f 777 779 778
f 778 779 780
f 607 788 781
f 777 781 779
f 779 782 780
f 780 782 785
f 779 783 782
f 779 781 783
f 782 783 785
f 781 786 783
f 781 788 784
f 781 784 786
f 783 786 785
f 606 787 788
f 804 791 790
f 804 796 791
f 804 810 796
f 808 817 809
f 795 809 819
f 794 793 801
f 794 820 792
f 794 792 793
f 794 795 821
f 810 797 796
f 810 799 797
f 813 800 799
f 813 798 800
f 813 801 798
f 810 813 799
f 794 801 813
f 794 813 795
f 609 778 744
f 744 778 749
f 749 778 805
f 778 807 805
f 751 790 789
f 751 802 790
f 750 803 752
f 749 805 806
f 752 803 802
f 750 806 803
f 802 804 790
f 802 803 804
f 805 812 806
f 803 806 811
f 803 810 804
f 805 807 812
f 803 811 810
f 806 812 811
f 807 809 812
f 807 808 809
f 795 812 809
f 810 811 813
f 795 811 812
f 795 813 811
f 807 824 808
f 778 824 807
f 818 775 814
f 818 814 815
f 818 820 821
f 818 815 820
f 808 816 817
f 809 817 819
f 818 821 819
f 795 819 821
f 794 821 820
f 760 768 823
f 760 823 822
f 768 816 825
f 808 824 816
f 768 826 823
f 778 780 824
f 780 785 824
f 785 786 824
f 784 824 786
f 768 825 826
f 816 824 825
f 603 898 605
f 605 899 787
f 787 900 788
f 784 788 900
f 776 822 893
f 822 823 908
f 784 902 824
f 823 826 911
f 824 914 825
f 825 913 826
f 369 827 500
f 369 828 827
f 371 829 828
f 364 847 829
f 364 905 847
f 500 827 830
f 567 830 831
f 590 831 832
f 591 832 833
f 592 833 834
f 593 834 844
f 604 837 896
f 606 839 837
f 607 838 839
f 599 844 838
f 827 828 830
f 828 831 830
f 828 832 831
f 828 835 834
f 834 835 840
f 828 833 832
f 828 834 833
f 834 840 842
f 834 842 843
f 834 843 844
f 828 829 836
f 828 836 835
f 829 841 836
f 835 841 840
f 835 836 841
f 829 845 841
f 829 846 845
f 840 841 845
f 840 845 842
f 829 847 846
f 842 846 843
f 838 844 847
f 843 847 844
f 842 845 846
f 843 846 847
f 870 437 849
f 870 849 854
f 395 870 894
f 893 447 444
f 893 856 447
f 893 859 856
f 870 854 855
f 870 855 867
f 870 867 868
f 870 868 874
f 870 874 875
f 870 875 892
f 893 861 859
f 893 862 861
f 893 880 862
f 893 889 888
f 893 892 889
f 870 892 893
f 893 888 880
f 425 894 905
f 595 895 897
f 602 896 895
f 603 897 898
f 605 898 899
f 787 899 900
f 784 900 902
f 822 908 893
f 823 911 908
f 824 902 912
f 826 913 911
f 824 912 914
f 825 914 913
f 896 898 897
f 895 896 897
f 837 899 898
f 839 900 899
f 837 898 896
f 837 839 899
f 838 900 839
f 838 905 900
f 900 905 902
f 901 903 904
f 902 906 903
f 903 906 904
f 838 847 905
f 894 906 905
f 904 906 909
f 902 905 906
f 870 907 894
f 894 907 909
f 870 914 907
f 907 910 909
f 909 910 915
f 870 893 908
f 870 908 911
f 870 911 913
f 894 909 906
f 907 912 910
f 901 915 910
f 901 904 915
f 901 910 912
f 901 912 903
f 902 903 912
f 870 913 914
f 907 914 912
f 904 909 915
f 213 171 170
f 211 169 171
f 217 172 198
f 213 170 172
f 221 168 169
f 221 173 168
f 221 190 173
f 226 198 199
f 226 199 197
f 228 197 200
f 220 169 211
f 212 171 213
f 212 211 171
f 213 172 214
f 214 172 215
f 215 172 217
f 217 198 225
f 218 219 169
f 221 169 219
f 220 218 169
f 221 222 253
f 222 223 253
f 228 200 202
f 230 231 281
f 226 225 198
f 227 226 197
f 227 197 228
f 213 214 216
f 214 215 216
f 212 213 241
f 212 241 211
f 241 213 216
f 223 224 253
f 228 202 229
f 229 231 230
f 229 202 231
f 281 231 232
f 282 232 233
f 215 217 243
f 215 243 216
f 241 216 243
f 217 225 243
f 220 242 218
f 218 242 219
f 242 221 219
f 220 211 242
f 211 241 242
f 221 245 222
f 222 246 223
f 223 246 224
f 242 245 221
f 241 243 242
f 222 245 246
f 242 247 245
f 242 244 247
f 244 251 247
f 245 247 246
f 226 249 225
f 225 249 243
f 227 249 226
f 227 228 249
f 224 246 272
f 242 248 244
f 242 243 249
f 242 249 248
f 248 250 244
f 250 252 244
f 248 249 250
f 249 294 250
f 250 295 252
f 244 252 251
f 246 247 279
f 252 330 251
f 247 251 330
f 280 247 330
f 221 253 190
f 272 254 253
f 273 255 254
f 273 258 255
f 273 259 258
f 274 260 259
f 224 272 253
f 272 273 254
f 274 259 273
f 319 265 260
f 274 319 260
f 325 266 265
f 327 267 266
f 327 275 267
f 272 246 279
f 272 279 273
f 274 273 279
f 280 279 247
f 280 329 279
f 280 330 329
f 282 235 236
f 282 233 235
f 282 236 292
f 281 232 282
f 284 292 286
f 282 292 283
f 283 292 284
f 285 286 287
f 285 287 288
f 284 286 285
f 228 229 299
f 229 230 299
f 228 299 249
f 230 281 297
f 230 297 299
f 250 300 295
f 249 303 294
f 250 294 303
f 249 299 303
f 250 303 300
f 295 300 304
f 252 295 318
f 281 296 297
f 281 282 296
f 282 298 296
f 282 283 301
f 296 299 297
f 282 301 298
f 296 298 299
f 283 284 301
f 298 301 299
f 299 301 302
f 299 302 303
f 300 303 304
f 295 304 318
f 252 625 330
f 285 288 305
f 306 288 309
f 305 288 306
f 285 305 316
f 306 309 311
f 305 306 316
f 306 311 614
f 306 307 316
f 307 308 316
f 284 285 316
f 284 316 301
f 301 317 302
f 302 317 303
f 303 317 304
f 252 318 625
f 301 316 317
f 304 317 318
f 330 718 337
f 319 325 265
f 325 326 266
f 326 327 266
f 274 279 319
f 338 276 275
f 346 278 276
f 327 338 275
f 319 333 325
f 325 333 326
f 326 332 327
f 332 334 327
f 338 346 276
f 651 320 278
f 279 333 319
f 279 329 336
f 329 330 331
f 279 336 333
f 329 331 336
f 331 330 337
f 326 333 332
f 332 335 334
f 332 333 335
f 331 337 336
f 333 336 335
f 346 347 278
f 327 334 338
f 347 651 278
f 334 346 338
f 655 328 320
f 346 348 347
f 652 653 320
f 347 348 651
f 655 339 328
f 651 652 320
f 655 341 339
f 334 335 346
f 335 336 348
f 335 348 346
f 337 350 336
f 336 350 348
f 337 349 350
f 393 441 394
f 441 445 394
f 408 398 415
f 407 401 396
f 407 409 401
f 396 397 398
f 398 397 399
f 407 396 398
f 408 407 398
f 398 399 400
f 398 400 415
f 396 402 397
f 404 396 401
f 402 403 397
f 404 402 396
f 403 406 397
f 397 406 399
f 404 405 402
f 402 405 403
f 403 426 406
f 408 415 411
f 408 411 407
f 407 417 409
f 407 411 410
f 407 410 417
f 411 412 410
f 411 415 413
f 411 413 412
f 412 413 414
f 410 412 418
f 410 419 417
f 412 414 422
f 410 418 420
f 410 420 419
f 412 421 418
f 417 419 423
f 412 422 421
f 419 420 423
f 418 421 420
f 420 424 423
f 420 421 424
f 421 422 439
f 403 405 430
f 404 430 405
f 403 430 427
f 404 429 430
f 403 431 426
f 403 427 431
f 427 430 428
f 409 869 401
f 427 432 431
f 427 428 432
f 430 435 428
f 430 429 434
f 404 401 869
f 428 436 432
f 428 437 436
f 430 434 435
f 429 433 434
f 404 869 429
f 428 435 437
f 423 424 393
f 421 441 424
f 439 422 438
f 421 439 441
f 424 441 393
f 439 438 440
f 409 417 869
f 439 440 442
f 439 442 441
f 442 440 443
f 442 443 444
f 417 423 884
f 441 442 446
f 442 444 446
f 441 446 445
f 423 393 884
f 446 444 447
f 306 614 621
f 306 621 307
f 308 622 316
f 307 621 308
f 308 610 622
f 316 624 317
f 316 622 624
f 621 614 615
f 621 615 616
f 621 616 617
f 308 621 610
f 621 611 610
f 610 611 622
f 611 612 622
f 621 612 611
f 621 613 612
f 621 630 613
f 317 625 318
f 330 625 648
f 317 624 625
f 612 613 623
f 613 630 623
f 612 623 622
f 622 623 624
f 330 648 718
f 628 626 627
f 637 638 629
f 638 626 629
f 626 628 629
f 630 716 631
f 690 637 629
f 631 716 632
f 621 617 646
f 646 617 618
f 690 619 636
f 690 618 619
f 690 636 637
f 621 716 630
f 646 618 690
f 621 646 716
f 630 631 649
f 630 649 623
f 624 647 625
f 624 623 647
f 623 649 647
f 625 647 648
f 631 632 649
f 632 633 649
f 633 634 649
f 647 650 648
f 647 649 650
f 648 650 721
f 665 718 679
f 653 654 320
f 654 655 320
f 348 652 651
f 348 653 652
f 655 656 341
f 653 663 654
f 654 664 655
f 655 661 656
f 655 667 661
f 348 663 653
f 348 666 663
f 349 665 350
f 348 350 666
f 337 718 349
f 350 665 666
f 654 663 664
f 663 666 664
f 349 718 665
f 655 664 668
f 655 672 667
f 655 668 757
f 668 677 669
f 671 669 677
f 671 677 670
f 670 677 753
f 655 754 672
f 655 755 754
f 655 757 755
f 666 677 664
f 664 677 668
f 665 678 666
f 665 679 678
f 666 678 677
f 678 679 680
f 678 680 677
f 680 679 726
f 685 687 629
f 690 629 687
f 686 687 685
f 690 687 688
f 690 688 689
f 690 689 691
f 634 716 742
f 632 716 633
f 633 716 634
f 694 695 717
f 697 702 701
f 698 703 697
f 697 703 702
f 701 702 699
f 634 789 635
f 789 692 635
f 692 789 693
f 646 690 716
f 634 635 719
f 635 692 719
f 634 719 649
f 692 693 717
f 693 694 717
f 692 717 719
f 695 696 720
f 696 704 720
f 695 720 717
f 717 720 719
f 753 764 698
f 698 764 703
f 702 724 699
f 699 724 700
f 702 703 724
f 703 764 724
f 649 719 650
f 650 719 721
f 648 721 718
f 719 720 721
f 679 718 723
f 679 723 722
f 721 727 723
f 723 725 722
f 722 725 726
f 764 726 724
f 727 726 725
f 718 721 723
f 704 708 728
f 706 728 705
f 708 707 728
f 707 705 728
f 706 700 724
f 704 728 720
f 706 724 728
f 721 720 727
f 720 728 727
f 723 727 725
f 727 724 726
f 728 724 727
f 690 691 729
f 690 741 716
f 690 729 738
f 729 731 736
f 731 734 735
f 690 738 739
f 729 736 737
f 731 735 736
f 690 739 740
f 729 737 738
f 690 740 741
f 716 741 742
f 634 742 743
f 693 789 694
f 694 790 695
f 695 790 696
f 696 796 704
f 634 743 789
f 704 796 708
f 699 700 820
f 701 699 820
f 706 792 700
f 707 800 705
f 708 800 707
f 706 705 793
f 694 789 790
f 696 790 791
f 696 791 796
f 708 796 797
f 705 800 798
f 708 797 799
f 708 799 800
f 705 798 801
f 700 792 820
f 706 793 792
f 705 801 793
f 668 669 770
f 671 770 669
f 671 670 765
f 668 763 758
f 668 758 757
f 670 753 775
f 668 770 763
f 671 765 770
f 670 766 765
f 670 771 766
f 670 772 771
f 753 698 775
f 698 697 775
f 697 701 814
f 677 764 753
f 677 680 726
f 679 722 726
f 677 726 764
f 670 775 772
f 697 814 775
f 701 815 814
f 701 820 815
f 394 445 848
f 445 857 848
f 394 848 876
f 434 850 435
f 434 433 851
f 435 849 437
f 429 869 433
f 434 852 850
f 434 851 852
f 435 854 849
f 435 850 854
f 433 863 851
f 852 853 850
f 850 855 854
f 850 853 855
f 852 851 864
f 433 869 863
f 852 866 853
f 851 863 864
f 852 864 866
f 853 867 855
f 853 866 867
f 446 447 856
f 445 446 858
f 393 394 884
f 446 856 858
f 445 858 857
f 858 856 859
f 417 884 869
f 857 858 860
f 858 859 860
f 860 859 861
f 860 861 862
f 848 857 877
f 857 860 879
f 394 876 884
f 848 877 876
f 860 862 879
f 857 879 877
f 863 865 864
f 864 865 866
f 863 869 865
f 866 868 867
f 871 866 865
f 869 871 865
f 871 872 866
f 866 872 874
f 866 874 868
f 869 890 871
f 869 884 890
f 871 873 872
f 872 873 875
f 871 890 873
f 890 891 873
f 891 892 873
f 872 875 874
f 873 892 875
f 879 862 880
f 876 877 878
f 877 879 878
f 876 878 882
f 878 879 883
f 881 884 876
f 881 882 885
f 885 883 886
f 881 876 882
f 885 882 878
f 885 878 883
f 886 883 879
f 886 879 880
f 886 880 888
f 881 890 884
f 890 887 891
f 881 885 890
f 885 886 887
f 885 887 890
f 886 888 887
f 887 888 889
f 891 887 889
f 891 889 892
