# rf_proximal_pad.obj  (48 v, 92 f)  units: metres
v 0.009651472 -0.057833489 0.022901770
v 0.009300000 -0.056988187 0.022975724
v 0.009651472 -0.056914233 0.022130424
v 0.010500000 -0.058183622 0.022871137
v 0.010500000 -0.057759535 0.022056470
v 0.010500000 -0.056883600 0.021780290
v 0.009300000 -0.060090933 0.058440253
v 0.009651472 -0.060936235 0.058366302
v 0.009651472 -0.060164887 0.059285555
v 0.010500000 -0.061286367 0.058335669
v 0.010500000 -0.061010189 0.059211601
v 0.010500000 -0.060195521 0.059635688
v 0.009300000 -0.034474187 0.024945445
v 0.009651472 -0.034400232 0.024100145
v 0.009651472 -0.033628888 0.025019398
v 0.010500000 -0.034369603 0.023750011
v 0.010500000 -0.033554934 0.024174100
v 0.010500000 -0.033278756 0.025050031
v 0.009300000 -0.037576932 0.060409974
v 0.009651472 -0.037650887 0.061255276
v 0.009651472 -0.036731634 0.060483929
v 0.010500000 -0.037681520 0.061605409
v 0.010500000 -0.036805589 0.061329231
v 0.010500000 -0.036381502 0.060514562
v 0.012600000 -0.058183622 0.022871137
v 0.012600000 -0.057759535 0.022056470
v 0.012600000 -0.056883600 0.021780290
v 0.013448528 -0.057833489 0.022901770
v 0.013448528 -0.056914233 0.022130424
v 0.013800000 -0.056988187 0.022975724
v 0.012600000 -0.061286367 0.058335669
v 0.012600000 -0.061010189 0.059211601
v 0.012600000 -0.060195521 0.059635688
v 0.013448528 -0.060936235 0.058366302
v 0.013448528 -0.060164887 0.059285555
v 0.013800000 -0.060090933 0.058440253
v 0.012600000 -0.034369603 0.023750011
v 0.012600000 -0.033554934 0.024174100
v 0.012600000 -0.033278756 0.025050031
v 0.013448528 -0.034400232 0.024100145
v 0.013448528 -0.033628888 0.025019398
v 0.013800000 -0.034474187 0.024945445
v 0.012600000 -0.037681520 0.061605409
v 0.012600000 -0.036805589 0.061329231
v 0.012600000 -0.036381502 0.060514562
v 0.013448528 -0.037650887 0.061255276
v 0.013800000 -0.037576932 0.060409974
v 0.013448528 -0.036731634 0.060483929
f 2 3 1
f 1 5 4
f 1 3 5
f 3 6 5
f 2 1 8
f 1 4 8
f 2 14 3
f 3 14 6
f 5 26 4
f 5 6 26
f 2 8 7
f 4 10 8
f 7 8 9
f 8 11 9
f 8 10 11
f 9 11 12
f 2 7 19
f 7 9 20
f 9 12 20
f 4 31 10
f 10 32 11
f 11 32 12
f 12 33 22
f 2 13 14
f 6 14 16
f 2 19 13
f 13 15 14
f 14 15 17
f 14 17 16
f 15 18 17
f 13 19 15
f 15 24 18
f 6 16 37
f 16 17 38
f 17 18 38
f 18 24 39
f 7 20 19
f 12 22 20
f 15 19 21
f 15 21 24
f 19 20 21
f 20 23 21
f 20 22 23
f 21 23 24
f 22 43 23
f 24 23 45
f 4 26 25
f 6 27 26
f 4 25 31
f 6 37 27
f 26 28 25
f 26 27 29
f 26 29 28
f 28 29 30
f 25 28 31
f 28 30 36
f 27 37 29
f 29 42 30
f 30 42 36
f 10 31 32
f 12 32 33
f 28 34 31
f 28 36 34
f 31 34 32
f 32 35 33
f 32 34 35
f 34 36 35
f 33 35 43
f 35 36 47
f 16 38 37
f 18 39 38
f 29 37 40
f 29 40 42
f 37 38 40
f 38 39 41
f 38 41 40
f 40 41 42
f 39 48 41
f 41 47 42
f 22 33 43
f 24 45 39
f 23 43 44
f 23 44 45
f 36 42 47
f 35 46 43
f 35 47 46
f 39 45 48
f 41 48 47
f 43 46 44
f 44 46 48
f 45 44 48
f 46 47 48
