# rf_tip_core.obj  (721 v, 1438 f)  units: metres
v -0.005816826 -0.059166249 0.126241937
v -0.003815971 -0.060907692 0.126089588
v -0.004895064 -0.060126670 0.126157925
v -0.005806438 -0.059752092 0.133036748
v -0.006019087 -0.059496023 0.133059144
v -0.004888297 -0.060713891 0.132952601
v -0.004742434 -0.060850345 0.132940665
v -0.003986551 -0.061397437 0.132892802
v -0.003811208 -0.061493464 0.132884383
v -0.005423526 -0.060213190 0.132996395
v -0.006551631 -0.058057304 0.126338959
v -0.007075861 -0.056835476 0.126445860
v -0.007372666 -0.055540033 0.126559198
v -0.006519722 -0.058710147 0.133127898
v -0.006548107 -0.058650054 0.133133158
v -0.006917537 -0.057867967 0.133201584
v -0.007061898 -0.057425357 0.133240297
v -0.007206259 -0.056982752 0.133279026
v -0.007368841 -0.056133710 0.133353308
v -0.007381334 -0.056068469 0.133359015
v -0.002614229 -0.061484218 0.126039147
v -0.001328463 -0.061837718 0.126008227
v -0.000000000 -0.061956827 0.125997797
v -0.003167798 -0.061845839 0.132853553
v -0.002609266 -0.062066130 0.132834285
v -0.002299086 -0.062188476 0.132823586
v -0.001394117 -0.062419947 0.132803336
v -0.001327975 -0.062428270 0.132802606
v -0.000467161 -0.062536605 0.132793128
v -0.000000000 -0.062551230 0.132791847
v -0.006472186 -0.058762275 0.134023562
v -0.005975200 -0.059542418 0.133955300
v -0.006330270 -0.058761574 0.134910703
v -0.005844183 -0.059524611 0.134843960
v -0.005627944 -0.059442859 0.135712132
v -0.004707857 -0.060886864 0.133837670
v -0.003957485 -0.061429974 0.133790165
v -0.004604628 -0.060839582 0.134728909
v -0.003870710 -0.061370775 0.134682432
v -0.004434253 -0.060709175 0.135601342
v -0.003727490 -0.061220717 0.135556594
v -0.005383983 -0.060254358 0.133893013
v -0.005265929 -0.060220942 0.134783030
v -0.005071085 -0.060113426 0.135653466
v -0.004802295 -0.059933379 0.136491627
v -0.005329636 -0.059298355 0.136547193
v -0.004199217 -0.060497548 0.136442259
v -0.004953611 -0.059093207 0.137336940
v -0.004463475 -0.059683427 0.137285292
v -0.003902947 -0.060207795 0.137239426
v -0.004505351 -0.058830410 0.138069868
v -0.004059568 -0.059367217 0.138022885
v -0.006867100 -0.057926230 0.134096697
v -0.006716526 -0.057943862 0.134982258
v -0.007153717 -0.057047475 0.134173587
v -0.006996858 -0.057084374 0.135057449
v -0.006737969 -0.057092912 0.135917723
v -0.006096046 -0.058708057 0.135776415
v -0.006468009 -0.057920601 0.135845318
v -0.006125175 -0.057856783 0.136673301
v -0.005772927 -0.058602501 0.136608064
v -0.006380825 -0.057072967 0.136741892
v -0.007327515 -0.056139860 0.134252995
v -0.007166845 -0.056196660 0.135135114
v -0.007440000 -0.055139542 0.133440286
v -0.007385754 -0.055217702 0.134333670
v -0.007223807 -0.055294722 0.135214031
v -0.006901667 -0.056238044 0.135992512
v -0.006535846 -0.056263413 0.136812717
v -0.006956521 -0.055369481 0.136068508
v -0.006587793 -0.055440884 0.136884674
v -0.005693022 -0.057753343 0.137454152
v -0.005930635 -0.057024829 0.137517899
v -0.006074718 -0.056272391 0.137583718
v -0.006123000 -0.055507895 0.137650609
v -0.005365625 -0.058446448 0.137393519
v -0.004880082 -0.058242176 0.138121322
v -0.005177851 -0.057611790 0.138176471
v -0.005393962 -0.056949198 0.138234437
v -0.004778633 -0.056847177 0.138881087
v -0.004323375 -0.057992656 0.138780862
v -0.003991392 -0.058513787 0.138735265
v -0.004587175 -0.057434183 0.138829723
v -0.003929609 -0.057223115 0.139404386
v -0.005525007 -0.056264851 0.138294309
v -0.004894729 -0.056240898 0.138934121
v -0.005568920 -0.055569537 0.138355136
v -0.005525007 -0.054874219 0.138415977
v -0.004933632 -0.055624902 0.138988018
v -0.004894729 -0.055008911 0.139041916
v -0.004193075 -0.056200888 0.139493823
v -0.004093622 -0.056720261 0.139448375
v -0.004226402 -0.055673197 0.139539987
v -0.004193075 -0.055145502 0.139586151
v -0.003144701 -0.061875101 0.133751214
v -0.003075748 -0.061806146 0.134644344
v -0.002282324 -0.062215239 0.133721456
v -0.002232279 -0.062138826 0.134615242
v -0.002961942 -0.061639976 0.135519907
v -0.003529916 -0.060981978 0.136399895
v -0.002804946 -0.061379015 0.136365145
v -0.002149683 -0.061960347 0.135491878
v -0.002035740 -0.061682407 0.136338606
v -0.001892111 -0.061309054 0.137143075
v -0.001383952 -0.062445026 0.133701354
v -0.001353606 -0.062363572 0.134595573
v -0.000463755 -0.062560834 0.133691221
v -0.000453587 -0.062476840 0.134585679
v -0.001303522 -0.062176779 0.135472953
v -0.001234429 -0.061887369 0.136320680
v -0.001147336 -0.061499555 0.137126401
v -0.000436804 -0.062285855 0.135463402
v -0.000413651 -0.061990660 0.136311635
v -0.000384466 -0.061595559 0.137118012
v -0.003280868 -0.060658045 0.137200028
v -0.002607047 -0.061027072 0.137167752
v -0.003549763 -0.059844133 0.137981176
v -0.002983977 -0.060253639 0.137945339
v -0.003596463 -0.058989357 0.138693675
v -0.003144816 -0.059411868 0.138656706
v -0.002371131 -0.060589273 0.137915984
v -0.002643573 -0.059774656 0.138624966
v -0.002100639 -0.060072001 0.138598949
v -0.002694010 -0.058917303 0.139256164
v -0.002264619 -0.059228085 0.139228985
v -0.001720891 -0.060845740 0.137893543
v -0.001043512 -0.061018996 0.137878373
v -0.000349675 -0.061106317 0.137870744
v -0.001524576 -0.060299214 0.138579071
v -0.000924471 -0.060452703 0.138565645
v -0.000309785 -0.060530066 0.138558879
v -0.001306030 -0.059677448 0.139189661
v -0.001799514 -0.059482805 0.139206693
v -0.001472149 -0.058830276 0.139730349
v -0.001068439 -0.058989510 0.139716417
v -0.000791949 -0.059808936 0.139178157
v -0.000265378 -0.059875205 0.139172360
v -0.000647878 -0.059097078 0.139707014
v -0.000217101 -0.059151292 0.139702260
v -0.003419231 -0.058147959 0.139323473
v -0.003080914 -0.058555357 0.139287829
v -0.003703624 -0.057701532 0.139362529
v -0.003029866 -0.057373051 0.139857844
v -0.002797209 -0.057738263 0.139825881
v -0.003214740 -0.056981668 0.139892071
v -0.002520439 -0.058071546 0.139796719
v -0.002203919 -0.058367647 0.139770821
v -0.002134397 -0.057290673 0.140235186
v -0.001923209 -0.057544980 0.140212923
v -0.002311925 -0.057011999 0.140259564
v -0.003348915 -0.056570288 0.139928073
v -0.003430277 -0.056145400 0.139965236
v -0.003457540 -0.055713706 0.140003011
v -0.003430277 -0.055282008 0.140040785
v -0.002452992 -0.056713354 0.140285701
v -0.002555375 -0.056399453 0.140313148
v -0.002617457 -0.056075245 0.140341520
v -0.002638260 -0.055745844 0.140370339
v -0.002617457 -0.055416439 0.140399158
v -0.002555375 -0.055092227 0.140427515
v -0.001852643 -0.058621895 0.139748588
v -0.001681690 -0.057770923 0.140193164
v -0.001413651 -0.057964921 0.140176192
v -0.001123317 -0.058123928 0.140162289
v -0.001440462 -0.056811713 0.140545398
v -0.001297935 -0.056983341 0.140530378
v -0.001134939 -0.057135820 0.140517041
v -0.000954044 -0.057266749 0.140505582
v -0.000815267 -0.058245428 0.140151650
v -0.000494361 -0.058327511 0.140144467
v -0.000165658 -0.058368877 0.140140846
v -0.000758104 -0.057374060 0.140496194
v -0.000550207 -0.057456058 0.140489012
v -0.000333634 -0.057511453 0.140484169
v -0.000111799 -0.057539370 0.140481725
v -0.001655475 -0.056422092 0.140579477
v -0.001560272 -0.056623638 0.140561849
v -0.001724571 -0.056210246 0.140598014
v -0.001766469 -0.055991445 0.140617162
v -0.001780508 -0.055769138 0.140636608
v -0.001766469 -0.055546828 0.140656054
v -0.001724571 -0.055328030 0.140675202
v -0.001655475 -0.055116184 0.140693724
v -0.001560272 -0.054914635 0.140711367
v -0.000725521 -0.056308366 0.140752003
v -0.000653734 -0.056394812 0.140744433
v -0.000571637 -0.056471612 0.140737712
v -0.000480526 -0.056537557 0.140731946
v -0.000833817 -0.056112129 0.140769169
v -0.000785866 -0.056213640 0.140760288
v -0.000868619 -0.056005426 0.140778497
v -0.000889721 -0.055895220 0.140788138
v -0.000381836 -0.056591608 0.140727207
v -0.000277124 -0.056632906 0.140723601
v -0.000168042 -0.056660809 0.140721157
v -0.000056310 -0.056674868 0.140719935
v -0.000896793 -0.055783253 0.140797928
v -0.000889721 -0.055671282 0.140807733
v -0.000868619 -0.055561077 0.140817374
v -0.000833817 -0.055454377 0.140826717
v -0.000785866 -0.055352863 0.140835598
v -0.000725521 -0.055258136 0.140843883
v -0.000653734 -0.055171691 0.140851438
v -0.000571637 -0.055094890 0.140858158
v -0.000480526 -0.055028945 0.140863925
v -0.000000000 -0.055787981 0.140851974
v -0.000381836 -0.054974895 0.140868664
v -0.000277124 -0.054933596 0.140872270
v -0.000168042 -0.054905698 0.140874714
v -0.000056310 -0.054891635 0.140875950
v -0.007432509 -0.054212615 0.126675338
v -0.007253463 -0.052895881 0.126790538
v -0.006841287 -0.051632158 0.126901090
v -0.006209225 -0.050462060 0.127003461
v -0.005377594 -0.049423199 0.127094358
v -0.004373122 -0.048548955 0.127170831
v -0.003228095 -0.047867440 0.127230465
v -0.001979314 -0.047400545 0.127271309
v -0.000666916 -0.047163285 0.127292067
v -0.007419053 -0.054807857 0.133469313
v -0.007381334 -0.054210611 0.133521557
v -0.007166845 -0.054392785 0.135292932
v -0.007327515 -0.054295544 0.134414345
v -0.007243752 -0.053492129 0.133584410
v -0.007206259 -0.053296328 0.133601546
v -0.007153717 -0.053387929 0.134493753
v -0.006901667 -0.054500915 0.136144504
v -0.006535846 -0.054618359 0.136956632
v -0.006996858 -0.053505071 0.135370597
v -0.006737969 -0.053646047 0.136219293
v -0.006380825 -0.053808801 0.137027457
v -0.006125175 -0.053024985 0.137096033
v -0.006917537 -0.052411117 0.133678988
v -0.006832341 -0.052230753 0.133694768
v -0.006867100 -0.052509170 0.134570628
v -0.006519722 -0.051568933 0.133752674
v -0.006197841 -0.051063661 0.133796886
v -0.006472186 -0.051673125 0.134643778
v -0.006716526 -0.052645579 0.135445789
v -0.006468009 -0.052818358 0.136291698
v -0.006096046 -0.052030902 0.136360601
v -0.006330270 -0.051827870 0.135517329
v -0.005844183 -0.051064834 0.135584086
v -0.005627944 -0.051296100 0.136424884
v -0.006074718 -0.054743402 0.137717500
v -0.005930635 -0.053990960 0.137783319
v -0.005693022 -0.053262446 0.137847066
v -0.005772927 -0.052279267 0.137161285
v -0.005393962 -0.054189872 0.138475850
v -0.005177851 -0.053527281 0.138533816
v -0.004778633 -0.054402627 0.139094949
v -0.004093622 -0.054626130 0.139631599
v -0.003929609 -0.054123275 0.139675587
v -0.004587175 -0.053815626 0.139146313
v -0.004323375 -0.053257152 0.139195159
v -0.005365625 -0.052569341 0.137907699
v -0.004880082 -0.052896895 0.138588980
v -0.005329636 -0.051583413 0.137222156
v -0.004953611 -0.051922582 0.137964278
v -0.004505351 -0.052308664 0.138640434
v -0.004463475 -0.051332362 0.138015911
v -0.004059568 -0.051771853 0.138687402
v -0.003991392 -0.052736022 0.139240757
v -0.006019087 -0.050783057 0.133821428
v -0.005975200 -0.050892983 0.134712026
v -0.005423526 -0.050065890 0.133884177
v -0.005383983 -0.050181042 0.134774312
v -0.005374928 -0.050020427 0.133888155
v -0.004742434 -0.049428735 0.133939922
v -0.004707857 -0.049548533 0.134829655
v -0.004364493 -0.049155191 0.133963853
v -0.005265929 -0.050368503 0.135645017
v -0.005071085 -0.050625537 0.136483550
v -0.004604628 -0.049749862 0.135699138
v -0.003870710 -0.049218670 0.135745615
v -0.004434253 -0.050029784 0.136535674
v -0.003727490 -0.049518246 0.136580423
v -0.003986551 -0.048881646 0.133987784
v -0.003957485 -0.049005430 0.134877175
v -0.004802295 -0.050948389 0.137277707
v -0.004199217 -0.050384220 0.137327075
v -0.003902947 -0.050807998 0.138061792
v -0.003348915 -0.054857120 0.140077949
v -0.003214740 -0.054445744 0.140113950
v -0.003029866 -0.054054361 0.140148178
v -0.003703624 -0.053644858 0.139717445
v -0.003419231 -0.053198431 0.139756501
v -0.002797209 -0.053689145 0.140180141
v -0.002452992 -0.054778330 0.140454978
v -0.002311925 -0.054479685 0.140481114
v -0.002134397 -0.054201011 0.140505493
v -0.001923209 -0.053946700 0.140527740
v -0.002520439 -0.053355861 0.140209302
v -0.002203919 -0.053059760 0.140235201
v -0.003549763 -0.051294938 0.138729125
v -0.003596463 -0.052260451 0.139282376
v -0.003080914 -0.052791033 0.139792144
v -0.003144816 -0.051837940 0.139319330
v -0.002694010 -0.052429087 0.139823809
v -0.002264619 -0.052118305 0.139851004
v -0.002643573 -0.051475152 0.139351070
v -0.002100639 -0.051177807 0.139377087
v -0.001440462 -0.054726563 0.140727818
v -0.001297935 -0.054554932 0.140742838
v -0.001134939 -0.054402452 0.140756175
v -0.000954044 -0.054271527 0.140767634
v -0.001681690 -0.053720761 0.140547514
v -0.001413651 -0.053526763 0.140564486
v -0.001123317 -0.053367756 0.140578389
v -0.000758104 -0.054164216 0.140777022
v -0.000550207 -0.054082219 0.140784204
v -0.000333634 -0.054026820 0.140789032
v -0.000111799 -0.053998906 0.140791491
v -0.000815267 -0.053246252 0.140589014
v -0.000494361 -0.053164173 0.140596211
v -0.000165658 -0.053122807 0.140599817
v -0.001852643 -0.052805517 0.140257448
v -0.001472149 -0.052597135 0.140275672
v -0.001068439 -0.052437901 0.140289605
v -0.001799514 -0.051863585 0.139873281
v -0.001306030 -0.051668942 0.139890313
v -0.000647878 -0.052330330 0.140299022
v -0.000217101 -0.052276120 0.140303761
v -0.000791949 -0.051537454 0.139901817
v -0.000265378 -0.051471185 0.139907613
v -0.002961942 -0.049098983 0.136617109
v -0.003226219 -0.048465241 0.134024218
v -0.003167798 -0.048433244 0.134027019
v -0.003144701 -0.048560303 0.134916112
v -0.002282324 -0.048220161 0.134945869
v -0.002299086 -0.048090603 0.134057000
v -0.001975961 -0.048007958 0.134064212
v -0.003075748 -0.048783299 0.135783687
v -0.002232279 -0.048450615 0.135812804
v -0.002149683 -0.048778612 0.136645138
v -0.001394117 -0.047859132 0.134077251
v -0.001383952 -0.047990374 0.134965971
v -0.000665677 -0.047767460 0.134085268
v -0.000467161 -0.047742479 0.134087443
v -0.000463755 -0.047874570 0.134976104
v -0.001353606 -0.048225872 0.135832459
v -0.001303522 -0.048562180 0.136664063
v -0.000436804 -0.048453107 0.136673614
v -0.000453587 -0.048112605 0.135842383
v -0.003280868 -0.050357748 0.138101190
v -0.002983977 -0.050885431 0.138764948
v -0.003529916 -0.049899794 0.137369454
v -0.002804946 -0.049502753 0.137404189
v -0.002371131 -0.050549798 0.138794318
v -0.002035740 -0.049199365 0.137430742
v -0.002607047 -0.049988724 0.138133466
v -0.001892111 -0.049706735 0.138158143
v -0.001720891 -0.050293334 0.138816759
v -0.001043512 -0.050120071 0.138831913
v -0.001147336 -0.049516238 0.138174817
v -0.000349675 -0.050032753 0.138839558
v -0.000384466 -0.049420230 0.138183206
v -0.001524576 -0.050950594 0.139396966
v -0.000924471 -0.050797101 0.139410406
v -0.000309785 -0.050719742 0.139417157
v -0.001234429 -0.048994407 0.137448668
v -0.000413651 -0.048891108 0.137457699
v 0.001328463 -0.061837718 0.126008227
v 0.002614229 -0.061484218 0.126039147
v 0.000467161 -0.062536605 0.132793128
v 0.001327975 -0.062428270 0.132802606
v 0.001394117 -0.062419947 0.132803336
v 0.002299086 -0.062188476 0.132823586
v 0.002609266 -0.062066130 0.132834285
v 0.003167798 -0.061845839 0.132853553
v 0.003815971 -0.060907692 0.126089588
v 0.004895064 -0.060126670 0.126157925
v 0.005816826 -0.059166249 0.126241937
v 0.003811208 -0.061493464 0.132884383
v 0.003986551 -0.061397437 0.132892802
v 0.004742434 -0.060850345 0.132940665
v 0.004888297 -0.060713891 0.132952601
v 0.005423526 -0.060213190 0.132996395
v 0.005806438 -0.059752092 0.133036748
v 0.006019087 -0.059496023 0.133059144
v 0.006551631 -0.058057304 0.126338959
v 0.007075861 -0.056835476 0.126445860
v 0.007372666 -0.055540033 0.126559198
v 0.006519722 -0.058710147 0.133127898
v 0.006548107 -0.058650054 0.133133158
v 0.006917537 -0.057867967 0.133201584
v 0.007061898 -0.057425357 0.133240297
v 0.007206259 -0.056982752 0.133279026
v 0.007368841 -0.056133710 0.133353308
v 0.007381334 -0.056068469 0.133359015
v 0.000463755 -0.062560834 0.133691221
v 0.000453587 -0.062476840 0.134585679
v 0.001383952 -0.062445026 0.133701354
v 0.001353606 -0.062363572 0.134595573
v 0.000436804 -0.062285855 0.135463402
v 0.000413651 -0.061990660 0.136311635
v 0.000384466 -0.061595559 0.137118012
v 0.001303522 -0.062176779 0.135472953
v 0.001234429 -0.061887369 0.136320680
v 0.001147336 -0.061499555 0.137126401
v 0.002282324 -0.062215239 0.133721456
v 0.002232279 -0.062138826 0.134615242
v 0.003144701 -0.061875101 0.133751214
v 0.003075748 -0.061806146 0.134644344
v 0.002149683 -0.061960347 0.135491878
v 0.002035740 -0.061682407 0.136338606
v 0.001892111 -0.061309054 0.137143075
v 0.002961942 -0.061639976 0.135519907
v 0.002804946 -0.061379015 0.136365145
v 0.003529916 -0.060981978 0.136399895
v 0.000349675 -0.061106317 0.137870744
v 0.001043512 -0.061018996 0.137878373
v 0.001720891 -0.060845740 0.137893543
v 0.000309785 -0.060530066 0.138558879
v 0.000924471 -0.060452703 0.138565645
v 0.001524576 -0.060299214 0.138579071
v 0.000265378 -0.059875205 0.139172360
v 0.000791949 -0.059808936 0.139178157
v 0.000217101 -0.059151292 0.139702260
v 0.000647878 -0.059097078 0.139707014
v 0.001306030 -0.059677448 0.139189661
v 0.001068439 -0.058989510 0.139716417
v 0.001799514 -0.059482805 0.139206693
v 0.001472149 -0.058830276 0.139730349
v 0.002607047 -0.061027072 0.137167752
v 0.003280868 -0.060658045 0.137200028
v 0.002371131 -0.060589273 0.137915984
v 0.002100639 -0.060072001 0.138598949
v 0.002643573 -0.059774656 0.138624966
v 0.002983977 -0.060253639 0.137945339
v 0.003549763 -0.059844133 0.137981176
v 0.003144816 -0.059411868 0.138656706
v 0.003596463 -0.058989357 0.138693675
v 0.002264619 -0.059228085 0.139228985
v 0.002694010 -0.058917303 0.139256164
v 0.000165658 -0.058368877 0.140140846
v 0.000494361 -0.058327511 0.140144467
v 0.000815267 -0.058245428 0.140151650
v 0.000111799 -0.057539370 0.140481725
v 0.000333634 -0.057511453 0.140484169
v 0.000550207 -0.057456058 0.140489012
v 0.000758104 -0.057374060 0.140496194
v 0.001852643 -0.058621895 0.139748588
v 0.001123317 -0.058123928 0.140162289
v 0.001413651 -0.057964921 0.140176192
v 0.001681690 -0.057770923 0.140193164
v 0.000954044 -0.057266749 0.140505582
v 0.001134939 -0.057135820 0.140517041
v 0.001297935 -0.056983341 0.140530378
v 0.001440462 -0.056811713 0.140545398
v 0.000056310 -0.056674868 0.140719935
v 0.000168042 -0.056660809 0.140721157
v 0.000277124 -0.056632906 0.140723601
v 0.000381836 -0.056591608 0.140727207
v 0.000480526 -0.056537557 0.140731946
v 0.000571637 -0.056471612 0.140737712
v 0.000653734 -0.056394812 0.140744433
v 0.000725521 -0.056308366 0.140752003
v 0.000785866 -0.056213640 0.140760288
v 0.000833817 -0.056112129 0.140769169
v 0.000868619 -0.056005426 0.140778497
v 0.000889721 -0.055895220 0.140788138
v 0.000056310 -0.054891635 0.140875950
v 0.000168042 -0.054905698 0.140874714
v 0.000277124 -0.054933596 0.140872270
v 0.000381836 -0.054974895 0.140868664
v 0.000896793 -0.055783253 0.140797928
v 0.000889721 -0.055671282 0.140807733
v 0.000785866 -0.055352863 0.140835598
v 0.000868619 -0.055561077 0.140817374
v 0.000833817 -0.055454377 0.140826717
v 0.000653734 -0.055171691 0.140851438
v 0.000480526 -0.055028945 0.140863925
v 0.000571637 -0.055094890 0.140858158
v 0.000725521 -0.055258136 0.140843883
v 0.001560272 -0.056623638 0.140561849
v 0.001655475 -0.056422092 0.140579477
v 0.001724571 -0.056210246 0.140598014
v 0.001766469 -0.055991445 0.140617162
v 0.001780508 -0.055769138 0.140636608
v 0.001766469 -0.055546828 0.140656054
v 0.001560272 -0.054914635 0.140711367
v 0.001724571 -0.055328030 0.140675202
v 0.001655475 -0.055116184 0.140693724
v 0.002203919 -0.058367647 0.139770821
v 0.002520439 -0.058071546 0.139796719
v 0.001923209 -0.057544980 0.140212923
v 0.002134397 -0.057290673 0.140235186
v 0.002311925 -0.057011999 0.140259564
v 0.003080914 -0.058555357 0.139287829
v 0.003419231 -0.058147959 0.139323473
v 0.002797209 -0.057738263 0.139825881
v 0.003029866 -0.057373051 0.139857844
v 0.003214740 -0.056981668 0.139892071
v 0.003703624 -0.057701532 0.139362529
v 0.002452992 -0.056713354 0.140285701
v 0.002555375 -0.056399453 0.140313148
v 0.002617457 -0.056075245 0.140341520
v 0.002638260 -0.055745844 0.140370339
v 0.002617457 -0.055416439 0.140399158
v 0.002555375 -0.055092227 0.140427515
v 0.003348915 -0.056570288 0.139928073
v 0.003430277 -0.056145400 0.139965236
v 0.003457540 -0.055713706 0.140003011
v 0.003430277 -0.055282008 0.140040785
v 0.003957485 -0.061429974 0.133790165
v 0.003870710 -0.061370775 0.134682432
v 0.004604628 -0.060839582 0.134728909
v 0.004707857 -0.060886864 0.133837670
v 0.003727490 -0.061220717 0.135556594
v 0.004434253 -0.060709175 0.135601342
v 0.005383983 -0.060254358 0.133893013
v 0.005265929 -0.060220942 0.134783030
v 0.004199217 -0.060497548 0.136442259
v 0.005071085 -0.060113426 0.135653466
v 0.004802295 -0.059933379 0.136491627
v 0.005329636 -0.059298355 0.136547193
v 0.005975200 -0.059542418 0.133955300
v 0.006472186 -0.058762275 0.134023562
v 0.005844183 -0.059524611 0.134843960
v 0.006330270 -0.058761574 0.134910703
v 0.005627944 -0.059442859 0.135712132
v 0.003902947 -0.060207795 0.137239426
v 0.004463475 -0.059683427 0.137285292
v 0.004059568 -0.059367217 0.138022885
v 0.004505351 -0.058830410 0.138069868
v 0.004953611 -0.059093207 0.137336940
v 0.006867100 -0.057926230 0.134096697
v 0.006716526 -0.057943862 0.134982258
v 0.007153717 -0.057047475 0.134173587
v 0.006996858 -0.057084374 0.135057449
v 0.006096046 -0.058708057 0.135776415
v 0.006468009 -0.057920601 0.135845318
v 0.005772927 -0.058602501 0.136608064
v 0.006125175 -0.057856783 0.136673301
v 0.006380825 -0.057072967 0.136741892
v 0.006737969 -0.057092912 0.135917723
v 0.007327515 -0.056139860 0.134252995
v 0.007166845 -0.056196660 0.135135114
v 0.007440000 -0.055139542 0.133440286
v 0.007385754 -0.055217702 0.134333670
v 0.007223807 -0.055294722 0.135214031
v 0.006901667 -0.056238044 0.135992512
v 0.006535846 -0.056263413 0.136812717
v 0.006956521 -0.055369481 0.136068508
v 0.006587793 -0.055440884 0.136884674
v 0.003991392 -0.058513787 0.138735265
v 0.004323375 -0.057992656 0.138780862
v 0.004587175 -0.057434183 0.138829723
v 0.005365625 -0.058446448 0.137393519
v 0.004880082 -0.058242176 0.138121322
v 0.004778633 -0.056847177 0.138881087
v 0.005177851 -0.057611790 0.138176471
v 0.005393962 -0.056949198 0.138234437
v 0.003929609 -0.057223115 0.139404386
v 0.004894729 -0.056240898 0.138934121
v 0.005525007 -0.056264851 0.138294309
v 0.004933632 -0.055624902 0.138988018
v 0.005568920 -0.055569537 0.138355136
v 0.005525007 -0.054874219 0.138415977
v 0.004093622 -0.056720261 0.139448375
v 0.004193075 -0.056200888 0.139493823
v 0.004226402 -0.055673197 0.139539987
v 0.004193075 -0.055145502 0.139586151
v 0.004894729 -0.055008911 0.139041916
v 0.005693022 -0.057753343 0.137454152
v 0.005930635 -0.057024829 0.137517899
v 0.006074718 -0.056272391 0.137583718
v 0.006123000 -0.055507895 0.137650609
v 0.000666916 -0.047163285 0.127292067
v 0.001979314 -0.047400545 0.127271309
v 0.003228095 -0.047867440 0.127230465
v 0.007432509 -0.054212615 0.126675338
v 0.007253463 -0.052895881 0.126790538
v 0.006841287 -0.051632158 0.126901090
v 0.005377594 -0.049423199 0.127094358
v 0.004373122 -0.048548955 0.127170831
v 0.006209225 -0.050462060 0.127003461
v 0.000111799 -0.053998906 0.140791491
v 0.000333634 -0.054026820 0.140789032
v 0.000550207 -0.054082219 0.140784204
v 0.000758104 -0.054164216 0.140777022
v 0.000165658 -0.053122807 0.140599817
v 0.000494361 -0.053164173 0.140596211
v 0.000815267 -0.053246252 0.140589014
v 0.001134939 -0.054402452 0.140756175
v 0.001297935 -0.054554932 0.140742838
v 0.000954044 -0.054271527 0.140767634
v 0.001440462 -0.054726563 0.140727818
v 0.001123317 -0.053367756 0.140578389
v 0.001413651 -0.053526763 0.140564486
v 0.001681690 -0.053720761 0.140547514
v 0.000217101 -0.052276120 0.140303761
v 0.000647878 -0.052330330 0.140299022
v 0.000265378 -0.051471185 0.139907613
v 0.000791949 -0.051537454 0.139901817
v 0.001068439 -0.052437901 0.140289605
v 0.001472149 -0.052597135 0.140275672
v 0.001852643 -0.052805517 0.140257448
v 0.001306030 -0.051668942 0.139890313
v 0.001799514 -0.051863585 0.139873281
v 0.002311925 -0.054479685 0.140481114
v 0.001923209 -0.053946700 0.140527740
v 0.002134397 -0.054201011 0.140505493
v 0.002452992 -0.054778330 0.140454978
v 0.002203919 -0.053059760 0.140235201
v 0.002520439 -0.053355861 0.140209302
v 0.003214740 -0.054445744 0.140113950
v 0.003029866 -0.054054361 0.140148178
v 0.003348915 -0.054857120 0.140077949
v 0.003703624 -0.053644858 0.139717445
v 0.003419231 -0.053198431 0.139756501
v 0.002797209 -0.053689145 0.140180141
v 0.003549763 -0.051294938 0.138729125
v 0.002264619 -0.052118305 0.139851004
v 0.002694010 -0.052429087 0.139823809
v 0.002100639 -0.051177807 0.139377087
v 0.002643573 -0.051475152 0.139351070
v 0.003080914 -0.052791033 0.139792144
v 0.003596463 -0.052260451 0.139282376
v 0.003144816 -0.051837940 0.139319330
v 0.000467161 -0.047742479 0.134087443
v 0.000665677 -0.047767460 0.134085268
v 0.000463755 -0.047874570 0.134976104
v 0.001394117 -0.047859132 0.134077251
v 0.001383952 -0.047990374 0.134965971
v 0.000436804 -0.048453107 0.136673614
v 0.000453587 -0.048112605 0.135842383
v 0.001353606 -0.048225872 0.135832459
v 0.001303522 -0.048562180 0.136664063
v 0.002961942 -0.049098983 0.136617109
v 0.002282324 -0.048220161 0.134945869
v 0.001975961 -0.048007958 0.134064212
v 0.002299086 -0.048090603 0.134057000
v 0.003167798 -0.048433244 0.134027019
v 0.003226219 -0.048465241 0.134024218
v 0.003144701 -0.048560303 0.134916112
v 0.002232279 -0.048450615 0.135812804
v 0.002149683 -0.048778612 0.136645138
v 0.003075748 -0.048783299 0.135783687
v 0.000349675 -0.050032753 0.138839558
v 0.000384466 -0.049420230 0.138183206
v 0.001043512 -0.050120071 0.138831913
v 0.001720891 -0.050293334 0.138816759
v 0.001147336 -0.049516238 0.138174817
v 0.000309785 -0.050719742 0.139417157
v 0.000924471 -0.050797101 0.139410406
v 0.001524576 -0.050950594 0.139396966
v 0.000413651 -0.048891108 0.137457699
v 0.001234429 -0.048994407 0.137448668
v 0.002371131 -0.050549798 0.138794318
v 0.002035740 -0.049199365 0.137430742
v 0.001892111 -0.049706735 0.138158143
v 0.002607047 -0.049988724 0.138133466
v 0.002983977 -0.050885431 0.138764948
v 0.003280868 -0.050357748 0.138101190
v 0.002804946 -0.049502753 0.137404189
v 0.003529916 -0.049899794 0.137369454
v 0.007419053 -0.054807857 0.133469313
v 0.007381334 -0.054210611 0.133521557
v 0.007166845 -0.054392785 0.135292932
v 0.007327515 -0.054295544 0.134414345
v 0.007243752 -0.053492129 0.133584410
v 0.007206259 -0.053296328 0.133601546
v 0.007153717 -0.053387929 0.134493753
v 0.006380825 -0.053808801 0.137027457
v 0.006125175 -0.053024985 0.137096033
v 0.006901667 -0.054500915 0.136144504
v 0.006535846 -0.054618359 0.136956632
v 0.006737969 -0.053646047 0.136219293
v 0.006996858 -0.053505071 0.135370597
v 0.006197841 -0.051063661 0.133796886
v 0.006472186 -0.051673125 0.134643778
v 0.006832341 -0.052230753 0.133694768
v 0.006917537 -0.052411117 0.133678988
v 0.006867100 -0.052509170 0.134570628
v 0.006519722 -0.051568933 0.133752674
v 0.006468009 -0.052818358 0.136291698
v 0.006096046 -0.052030902 0.136360601
v 0.005844183 -0.051064834 0.135584086
v 0.006330270 -0.051827870 0.135517329
v 0.005627944 -0.051296100 0.136424884
v 0.006716526 -0.052645579 0.135445789
v 0.005393962 -0.054189872 0.138475850
v 0.005177851 -0.053527281 0.138533816
v 0.004093622 -0.054626130 0.139631599
v 0.003929609 -0.054123275 0.139675587
v 0.004587175 -0.053815626 0.139146313
v 0.004323375 -0.053257152 0.139195159
v 0.004778633 -0.054402627 0.139094949
v 0.004505351 -0.052308664 0.138640434
v 0.004463475 -0.051332362 0.138015911
v 0.004059568 -0.051771853 0.138687402
v 0.005365625 -0.052569341 0.137907699
v 0.004880082 -0.052896895 0.138588980
v 0.004953611 -0.051922582 0.137964278
v 0.005329636 -0.051583413 0.137222156
v 0.003991392 -0.052736022 0.139240757
v 0.005930635 -0.053990960 0.137783319
v 0.006074718 -0.054743402 0.137717500
v 0.005693022 -0.053262446 0.137847066
v 0.005772927 -0.052279267 0.137161285
v 0.004364493 -0.049155191 0.133963853
v 0.005423526 -0.050065890 0.133884177
v 0.005383983 -0.050181042 0.134774312
v 0.004742434 -0.049428735 0.133939922
v 0.005374928 -0.050020427 0.133888155
v 0.004707857 -0.049548533 0.134829655
v 0.003870710 -0.049218670 0.135745615
v 0.004604628 -0.049749862 0.135699138
v 0.003727490 -0.049518246 0.136580423
v 0.004434253 -0.050029784 0.136535674
v 0.005265929 -0.050368503 0.135645017
v 0.005071085 -0.050625537 0.136483550
v 0.003986551 -0.048881646 0.133987784
v 0.003957485 -0.049005430 0.134877175
v 0.006019087 -0.050783057 0.133821428
v 0.005975200 -0.050892983 0.134712026
v 0.003902947 -0.050807998 0.138061792
v 0.004199217 -0.050384220 0.137327075
v 0.004802295 -0.050948389 0.137277707
f 1 3 10
f 2 7 3
f 1 10 4
f 1 5 14
f 1 4 5
f 5 32 14
f 4 32 5
f 2 9 8
f 2 8 7
f 6 7 36
f 7 8 37
f 8 9 37
f 3 6 10
f 3 7 6
f 6 42 10
f 4 10 42
f 11 16 12
f 1 14 11
f 12 18 13
f 13 65 211
f 11 14 15
f 11 15 16
f 12 16 17
f 12 17 18
f 14 31 15
f 13 18 19
f 13 19 20
f 13 20 65
f 2 21 24
f 21 22 26
f 22 23 29
f 21 25 24
f 2 24 9
f 21 26 25
f 9 24 95
f 24 25 95
f 25 26 97
f 25 97 95
f 26 105 97
f 22 27 26
f 22 28 27
f 22 29 28
f 23 30 29
f 26 27 105
f 27 28 105
f 28 107 105
f 28 29 107
f 29 30 107
f 30 391 107
f 1 11 572
f 1 572 3
f 21 572 22
f 2 3 572
f 2 572 21
f 4 42 32
f 32 43 34
f 31 32 34
f 14 32 31
f 31 34 33
f 33 34 35
f 33 35 58
f 35 46 58
f 46 61 58
f 36 38 42
f 7 37 36
f 36 37 39
f 36 39 38
f 38 41 40
f 38 39 41
f 40 100 47
f 40 41 100
f 32 42 43
f 6 36 42
f 34 43 44
f 38 43 42
f 38 40 43
f 34 44 35
f 35 44 45
f 40 44 43
f 44 47 45
f 35 45 46
f 46 48 61
f 48 76 61
f 46 49 48
f 45 49 46
f 40 47 44
f 45 47 50
f 45 50 49
f 47 115 50
f 48 51 76
f 49 50 117
f 48 49 52
f 48 52 51
f 49 117 52
f 51 52 119
f 51 119 82
f 15 31 53
f 31 33 53
f 15 53 16
f 33 54 53
f 17 53 55
f 17 55 18
f 16 53 17
f 53 54 55
f 54 56 55
f 54 59 56
f 33 58 54
f 56 59 57
f 56 57 64
f 57 62 68
f 58 61 59
f 54 58 59
f 59 61 60
f 60 61 76
f 57 59 60
f 57 60 62
f 60 72 62
f 62 73 69
f 18 55 19
f 19 55 63
f 19 63 20
f 55 56 63
f 56 64 63
f 63 64 66
f 20 63 65
f 63 66 65
f 65 66 220
f 64 67 66
f 66 67 223
f 64 68 67
f 57 68 64
f 62 69 68
f 68 69 70
f 67 68 70
f 67 70 222
f 69 71 70
f 70 71 227
f 69 74 71
f 60 76 72
f 62 72 73
f 72 78 73
f 69 73 74
f 73 79 74
f 74 79 85
f 74 85 75
f 71 74 75
f 71 75 228
f 75 245 228
f 75 87 245
f 75 85 87
f 87 88 245
f 72 76 77
f 72 77 78
f 51 77 76
f 77 81 78
f 73 78 79
f 78 83 79
f 78 81 83
f 79 83 80
f 51 82 77
f 77 82 81
f 81 82 140
f 81 142 83
f 81 140 142
f 80 83 84
f 80 84 92
f 83 142 84
f 84 145 92
f 79 80 85
f 85 86 87
f 80 86 85
f 86 89 87
f 87 89 88
f 88 89 90
f 86 91 89
f 89 93 90
f 80 92 86
f 86 92 91
f 89 91 93
f 91 92 151
f 91 152 93
f 90 93 94
f 93 153 94
f 94 154 252
f 9 95 37
f 37 95 96
f 95 98 96
f 39 96 99
f 37 96 39
f 39 99 41
f 95 97 98
f 97 106 98
f 96 102 99
f 96 98 102
f 98 109 102
f 41 101 100
f 41 99 101
f 47 100 115
f 100 101 116
f 100 116 115
f 99 102 103
f 99 103 101
f 101 104 116
f 101 103 104
f 97 105 106
f 105 108 106
f 98 106 109
f 106 112 109
f 105 107 108
f 107 392 108
f 106 108 112
f 108 395 112
f 102 110 103
f 102 109 110
f 109 113 110
f 103 110 111
f 103 111 104
f 109 112 113
f 112 396 113
f 110 113 114
f 110 114 111
f 113 397 114
f 115 116 121
f 104 126 116
f 116 126 121
f 50 115 118
f 50 118 117
f 115 121 118
f 117 118 122
f 117 122 120
f 52 117 120
f 52 120 119
f 119 120 124
f 118 121 123
f 118 123 122
f 121 126 129
f 121 129 123
f 122 123 133
f 120 122 125
f 119 124 141
f 120 125 124
f 122 133 125
f 124 125 161
f 125 134 161
f 104 127 126
f 104 111 127
f 126 127 130
f 111 114 128
f 111 128 127
f 114 411 128
f 127 131 130
f 127 128 131
f 128 414 131
f 123 129 132
f 123 132 133
f 126 130 129
f 129 130 136
f 129 136 132
f 130 131 137
f 130 137 136
f 131 417 137
f 125 133 134
f 133 135 134
f 132 135 133
f 132 138 135
f 132 136 138
f 136 139 138
f 135 138 170
f 136 137 139
f 137 419 139
f 138 139 171
f 82 119 141
f 82 141 140
f 140 144 142
f 140 141 146
f 140 146 144
f 84 142 143
f 84 143 145
f 142 144 143
f 143 150 145
f 124 147 141
f 141 147 146
f 144 146 149
f 124 161 147
f 146 147 162
f 146 162 149
f 143 144 148
f 145 150 155
f 143 148 150
f 144 149 148
f 148 165 150
f 92 145 151
f 91 151 152
f 93 152 153
f 151 156 152
f 145 155 151
f 152 157 153
f 152 156 157
f 153 157 158
f 94 153 154
f 154 283 252
f 153 158 154
f 154 158 159
f 154 159 283
f 159 160 283
f 151 155 156
f 157 179 158
f 150 177 155
f 155 176 156
f 155 177 176
f 156 176 178
f 156 178 157
f 157 178 179
f 158 179 180
f 158 180 159
f 159 181 160
f 159 180 181
f 160 182 289
f 160 181 182
f 182 183 289
f 147 161 163
f 134 164 161
f 134 135 169
f 161 164 163
f 147 163 162
f 134 169 164
f 163 164 172
f 148 149 166
f 149 162 167
f 150 165 177
f 148 166 165
f 149 167 166
f 162 163 168
f 162 168 167
f 163 172 168
f 166 167 187
f 135 170 169
f 164 169 173
f 169 170 174
f 138 171 170
f 139 436 171
f 170 171 175
f 170 175 174
f 171 439 175
f 164 173 172
f 169 174 173
f 168 172 193
f 167 168 188
f 172 173 194
f 168 193 188
f 172 194 193
f 173 174 195
f 173 195 194
f 174 175 196
f 174 196 195
f 175 451 196
f 176 189 178
f 178 191 179
f 179 192 180
f 165 185 177
f 176 177 190
f 165 166 186
f 165 186 185
f 177 185 190
f 179 191 192
f 176 190 189
f 178 189 191
f 180 197 181
f 181 198 182
f 182 199 183
f 180 192 197
f 181 197 198
f 182 198 199
f 183 199 200
f 183 200 184
f 184 201 303
f 184 200 201
f 201 202 303
f 166 187 186
f 167 188 187
f 185 206 190
f 191 206 192
f 189 190 206
f 189 206 191
f 188 193 206
f 193 194 206
f 194 195 206
f 195 196 206
f 196 451 206
f 186 187 206
f 187 188 206
f 185 186 206
f 192 206 197
f 197 206 198
f 198 206 199
f 199 206 200
f 200 206 201
f 201 206 202
f 202 203 304
f 203 204 305
f 202 206 203
f 203 206 204
f 204 206 205
f 205 206 207
f 206 208 207
f 206 209 208
f 206 210 209
f 206 463 210
f 211 221 212
f 212 233 213
f 213 236 214
f 12 13 572
f 13 211 572
f 211 212 572
f 65 220 211
f 211 220 221
f 212 221 224
f 212 224 225
f 212 225 233
f 213 233 234
f 213 234 236
f 214 236 237
f 214 266 215
f 215 269 216
f 216 278 217
f 214 237 264
f 214 264 266
f 215 266 268
f 215 268 269
f 216 269 271
f 216 271 278
f 11 12 572
f 212 213 572
f 213 214 572
f 214 215 572
f 215 216 572
f 217 331 218
f 216 217 572
f 217 218 572
f 218 219 570
f 218 336 219
f 217 278 327
f 217 327 328
f 217 328 331
f 218 331 332
f 218 332 336
f 219 336 338
f 219 338 339
f 219 339 622
f 220 223 221
f 66 223 220
f 221 223 224
f 67 222 223
f 222 226 223
f 223 226 224
f 224 226 225
f 225 226 233
f 222 229 226
f 226 229 235
f 70 227 222
f 222 227 229
f 71 228 227
f 227 228 230
f 228 231 230
f 227 230 229
f 229 230 239
f 230 240 239
f 230 231 240
f 231 232 240
f 226 235 233
f 233 235 234
f 234 235 238
f 229 239 235
f 235 239 238
f 234 238 236
f 238 239 242
f 236 238 237
f 237 238 265
f 238 242 265
f 242 243 265
f 239 240 242
f 240 241 242
f 232 241 240
f 232 248 241
f 241 243 242
f 241 244 243
f 241 248 244
f 244 248 258
f 244 258 273
f 258 280 273
f 228 245 231
f 231 245 246
f 88 246 245
f 88 249 246
f 231 246 232
f 232 246 247
f 246 249 247
f 232 247 248
f 247 256 248
f 88 90 249
f 249 251 250
f 90 251 249
f 250 251 254
f 247 249 250
f 247 250 256
f 250 257 256
f 250 254 257
f 254 255 257
f 90 94 251
f 94 252 251
f 251 252 254
f 252 253 254
f 252 283 253
f 253 255 254
f 253 286 255
f 255 286 263
f 248 256 258
f 256 259 258
f 256 257 259
f 257 260 259
f 258 259 280
f 259 261 280
f 255 260 257
f 260 263 262
f 259 260 261
f 260 262 261
f 262 296 295
f 261 262 282
f 262 295 282
f 255 263 260
f 262 263 296
f 237 265 264
f 264 265 266
f 243 267 265
f 265 267 266
f 266 267 268
f 268 270 269
f 267 270 268
f 267 272 270
f 269 270 271
f 270 279 271
f 270 274 279
f 243 272 267
f 243 244 272
f 244 273 272
f 272 273 274
f 273 280 276
f 273 276 274
f 270 272 274
f 276 280 281
f 274 276 275
f 274 275 279
f 275 276 277
f 276 281 277
f 277 281 347
f 271 279 278
f 278 279 327
f 261 281 280
f 261 282 281
f 281 282 347
f 253 284 286
f 253 283 284
f 284 285 286
f 160 284 283
f 284 289 285
f 285 287 286
f 263 286 287
f 287 288 297
f 285 288 287
f 288 293 297
f 160 289 284
f 285 289 290
f 285 290 288
f 288 290 291
f 183 290 289
f 184 291 290
f 288 291 293
f 293 294 299
f 292 294 293
f 291 292 293
f 292 307 294
f 294 307 317
f 295 298 346
f 263 287 296
f 287 297 296
f 296 297 298
f 297 299 298
f 295 296 298
f 298 299 301
f 298 301 346
f 293 299 297
f 299 300 301
f 294 300 299
f 294 317 300
f 300 317 320
f 300 302 301
f 301 302 349
f 300 320 302
f 183 184 290
f 184 303 291
f 292 303 304
f 291 303 292
f 292 304 307
f 202 304 303
f 203 305 304
f 304 305 307
f 305 306 308
f 306 310 309
f 305 308 307
f 308 318 317
f 307 308 317
f 306 309 308
f 308 309 318
f 309 314 319
f 204 306 305
f 205 310 306
f 204 205 306
f 205 207 310
f 207 311 310
f 207 208 311
f 208 209 312
f 209 210 313
f 208 312 311
f 209 313 312
f 210 579 313
f 310 311 314
f 309 310 314
f 311 315 314
f 311 312 315
f 312 316 315
f 312 313 316
f 313 583 316
f 317 318 320
f 318 321 320
f 309 319 318
f 318 319 321
f 320 321 358
f 302 320 358
f 321 359 358
f 321 324 359
f 319 324 321
f 314 322 319
f 314 315 322
f 319 322 324
f 315 323 322
f 316 593 323
f 315 316 323
f 322 323 325
f 324 360 359
f 324 325 360
f 322 325 324
f 323 595 325
f 275 277 333
f 277 326 333
f 277 347 326
f 326 347 348
f 326 348 335
f 327 329 328
f 328 329 331
f 279 329 327
f 275 329 279
f 329 333 330
f 329 330 331
f 330 334 337
f 330 332 331
f 330 337 332
f 275 333 329
f 326 334 333
f 330 333 334
f 334 335 341
f 326 335 334
f 332 337 336
f 336 337 338
f 337 341 340
f 337 340 338
f 338 340 339
f 339 340 622
f 340 344 624
f 334 341 337
f 341 342 344
f 335 350 342
f 335 342 341
f 342 361 343
f 343 628 344
f 342 343 344
f 343 362 627
f 340 341 344
f 282 345 347
f 282 295 345
f 295 346 345
f 345 346 351
f 345 348 347
f 345 351 348
f 301 349 346
f 346 349 351
f 302 353 349
f 349 352 351
f 349 353 352
f 335 348 350
f 348 351 350
f 350 351 352
f 353 358 354
f 350 352 361
f 352 355 361
f 355 362 361
f 352 353 355
f 353 354 355
f 355 357 362
f 354 357 355
f 354 356 357
f 356 642 357
f 302 358 353
f 354 358 359
f 354 359 356
f 356 359 360
f 325 646 360
f 356 360 641
f 342 350 361
f 343 361 362
f 357 649 362
f 23 363 365
f 363 364 367
f 364 371 370
f 23 365 30
f 363 366 365
f 363 367 366
f 30 365 391
f 365 366 391
f 366 393 391
f 366 367 393
f 367 401 393
f 364 368 367
f 364 369 368
f 364 370 369
f 370 371 374
f 367 368 401
f 368 369 401
f 369 403 401
f 369 370 403
f 370 374 403
f 22 572 23
f 23 572 363
f 363 572 364
f 364 572 371
f 371 372 375
f 372 373 378
f 373 381 380
f 371 375 374
f 372 376 375
f 374 375 506
f 375 376 509
f 376 377 509
f 372 377 376
f 372 378 377
f 377 378 512
f 378 379 512
f 373 379 378
f 373 380 379
f 380 381 384
f 379 380 518
f 380 384 519
f 371 572 372
f 372 572 373
f 373 572 381
f 381 382 386
f 382 383 388
f 383 573 390
f 381 385 384
f 381 386 385
f 382 387 386
f 382 388 387
f 384 385 519
f 383 389 388
f 383 390 389
f 390 573 540
f 107 391 392
f 391 394 392
f 108 392 395
f 392 398 395
f 391 393 394
f 393 402 394
f 392 394 398
f 394 405 398
f 112 395 396
f 395 399 396
f 113 396 397
f 396 400 397
f 395 398 399
f 398 406 399
f 398 405 406
f 396 399 400
f 399 406 407
f 399 407 400
f 393 401 402
f 401 404 402
f 394 402 405
f 402 408 405
f 402 404 408
f 401 403 404
f 374 506 403
f 403 507 404
f 403 506 507
f 404 510 408
f 404 507 510
f 405 409 406
f 405 408 409
f 406 425 407
f 406 409 425
f 408 410 409
f 408 510 410
f 409 410 426
f 409 426 425
f 410 523 426
f 114 397 411
f 397 400 412
f 397 412 411
f 128 411 414
f 411 415 414
f 411 412 415
f 400 413 412
f 400 407 413
f 412 413 416
f 131 414 417
f 414 418 417
f 414 415 418
f 412 416 415
f 415 421 418
f 415 416 421
f 413 428 416
f 416 423 421
f 416 428 423
f 137 417 419
f 417 420 419
f 139 419 436
f 419 420 437
f 417 418 420
f 418 422 420
f 420 422 438
f 418 421 422
f 421 424 422
f 421 423 424
f 423 443 424
f 407 425 427
f 407 427 413
f 425 426 430
f 425 430 427
f 413 427 428
f 427 430 429
f 427 429 428
f 428 429 434
f 423 428 434
f 426 523 431
f 426 431 430
f 429 430 432
f 430 431 432
f 429 432 435
f 431 433 432
f 432 433 490
f 423 434 443
f 434 485 443
f 429 435 434
f 434 435 485
f 432 490 435
f 419 437 436
f 171 436 439
f 436 440 439
f 436 437 440
f 437 441 440
f 420 438 437
f 437 438 441
f 438 444 442
f 175 439 451
f 439 440 452
f 439 452 451
f 440 441 453
f 440 453 452
f 441 454 453
f 438 442 441
f 441 442 454
f 442 455 454
f 442 447 455
f 447 448 456
f 422 424 444
f 424 443 445
f 422 444 438
f 424 445 444
f 444 445 447
f 443 446 445
f 442 444 447
f 445 448 447
f 446 449 448
f 448 449 457
f 445 446 448
f 446 487 449
f 450 487 488
f 449 487 450
f 450 488 476
f 206 451 452
f 206 452 453
f 206 453 454
f 206 454 455
f 206 455 456
f 206 456 457
f 206 457 458
f 447 456 455
f 448 457 456
f 449 458 457
f 206 458 459
f 206 459 460
f 206 460 461
f 206 461 462
f 206 475 472
f 206 472 474
f 206 464 463
f 206 466 465
f 206 465 464
f 206 473 466
f 206 474 473
f 206 470 471
f 206 462 467
f 206 467 468
f 206 468 470
f 206 469 475
f 206 471 469
f 472 587 474
f 449 450 458
f 450 459 458
f 459 476 460
f 450 476 459
f 460 476 477
f 460 477 461
f 461 478 462
f 462 479 467
f 476 489 477
f 461 477 478
f 462 478 479
f 467 479 480
f 470 483 471
f 467 480 468
f 468 481 470
f 469 482 475
f 469 471 484
f 472 475 589
f 469 484 482
f 475 482 589
f 468 480 481
f 470 481 483
f 471 483 484
f 433 547 491
f 443 485 446
f 485 486 487
f 435 490 486
f 435 486 485
f 446 485 487
f 486 488 487
f 476 488 489
f 486 492 488
f 488 492 489
f 489 492 493
f 489 493 496
f 490 491 492
f 486 490 492
f 491 493 492
f 433 491 490
f 491 547 495
f 491 495 493
f 493 495 494
f 494 495 555
f 494 555 502
f 493 494 496
f 477 489 496
f 478 496 497
f 477 496 478
f 478 497 479
f 479 498 480
f 479 497 498
f 494 497 496
f 480 498 499
f 480 499 481
f 481 500 483
f 483 501 484
f 482 484 605
f 483 500 501
f 484 501 605
f 481 499 500
f 501 610 605
f 502 561 503
f 503 562 504
f 497 502 498
f 494 502 497
f 498 503 499
f 498 502 503
f 499 503 504
f 504 563 505
f 505 564 610
f 499 504 500
f 500 504 505
f 500 505 501
f 501 505 610
f 375 509 506
f 506 509 508
f 506 508 507
f 507 511 510
f 507 508 511
f 508 509 513
f 410 510 514
f 510 511 514
f 377 512 509
f 509 512 513
f 508 513 515
f 512 520 513
f 513 520 522
f 511 516 514
f 410 514 523
f 514 524 523
f 514 516 524
f 508 515 511
f 511 515 516
f 513 522 515
f 515 517 516
f 515 522 517
f 516 527 524
f 516 517 527
f 517 522 534
f 517 550 527
f 517 534 550
f 379 518 512
f 512 518 520
f 380 519 518
f 518 519 521
f 518 521 520
f 520 521 532
f 520 532 522
f 522 532 534
f 523 524 525
f 431 523 525
f 524 527 526
f 524 526 525
f 431 525 433
f 433 525 547
f 525 526 547
f 526 527 551
f 519 529 521
f 521 529 533
f 385 528 519
f 385 386 528
f 519 528 529
f 386 387 528
f 387 530 528
f 387 388 530
f 528 531 529
f 528 530 531
f 521 533 532
f 532 533 535
f 532 535 534
f 534 566 550
f 534 535 566
f 533 536 535
f 535 536 567
f 529 537 533
f 529 531 537
f 533 537 536
f 531 543 537
f 536 537 544
f 388 389 530
f 389 538 530
f 389 390 538
f 530 539 531
f 530 538 539
f 538 542 539
f 390 540 541
f 390 541 538
f 540 659 541
f 538 541 542
f 541 661 542
f 536 544 568
f 544 546 569
f 531 539 543
f 539 545 543
f 537 543 544
f 543 546 544
f 539 542 545
f 542 668 545
f 543 545 546
f 545 669 546
f 495 547 548
f 526 548 547
f 526 551 548
f 548 551 549
f 548 549 555
f 527 550 551
f 550 553 551
f 550 566 553
f 549 551 553
f 553 566 554
f 549 553 552
f 552 553 554
f 495 548 555
f 502 555 561
f 549 561 555
f 549 552 561
f 552 554 556
f 554 557 556
f 556 557 558
f 557 559 558
f 558 559 565
f 559 560 565
f 503 561 562
f 504 562 563
f 552 562 561
f 552 556 562
f 556 563 562
f 505 563 564
f 564 686 610
f 558 564 563
f 564 565 686
f 556 558 563
f 558 565 564
f 535 567 566
f 554 566 567
f 536 568 567
f 554 567 557
f 557 567 568
f 557 568 559
f 544 569 568
f 559 568 569
f 560 569 700
f 546 700 569
f 546 669 700
f 559 569 560
f 218 570 571
f 218 571 572
f 219 622 570
f 570 625 571
f 571 635 572
f 570 622 623
f 570 623 625
f 571 625 633
f 571 633 634
f 571 634 635
f 572 635 636
f 572 636 715
f 381 572 382
f 382 572 383
f 573 574 660
f 383 572 573
f 572 574 573
f 574 578 575
f 574 575 664
f 575 578 677
f 540 573 659
f 573 660 659
f 574 663 660
f 574 664 663
f 578 672 677
f 575 674 675
f 575 675 664
f 575 677 674
f 572 577 574
f 576 577 706
f 572 715 577
f 574 577 576
f 574 576 578
f 576 717 578
f 576 706 707
f 576 707 704
f 577 715 703
f 577 703 706
f 578 717 672
f 576 704 717
f 210 463 579
f 463 464 580
f 464 465 581
f 463 580 579
f 464 581 580
f 465 466 582
f 466 473 588
f 465 582 581
f 473 474 586
f 466 588 582
f 473 586 588
f 313 579 583
f 579 580 584
f 579 584 583
f 580 581 585
f 580 585 584
f 581 582 590
f 581 590 585
f 584 585 597
f 474 587 586
f 472 589 587
f 582 588 591
f 586 592 588
f 587 589 604
f 482 602 589
f 586 587 603
f 586 603 592
f 587 604 603
f 582 591 590
f 588 592 591
f 585 590 598
f 591 592 606
f 591 606 599
f 590 591 599
f 583 594 593
f 316 583 593
f 583 584 594
f 323 593 595
f 584 597 594
f 593 594 596
f 325 595 646
f 595 596 647
f 593 596 595
f 594 600 596
f 585 598 597
f 594 597 600
f 597 601 600
f 590 599 598
f 597 598 601
f 598 615 601
f 596 648 647
f 596 600 648
f 600 601 617
f 600 617 648
f 589 602 604
f 482 605 602
f 603 604 613
f 602 605 608
f 602 609 604
f 604 609 613
f 592 603 607
f 592 607 606
f 603 613 607
f 606 607 619
f 608 610 686
f 609 687 611
f 605 610 608
f 602 608 609
f 608 687 609
f 607 612 619
f 611 612 613
f 609 611 613
f 607 613 612
f 614 655 618
f 614 621 693
f 615 616 621
f 598 599 615
f 599 606 616
f 599 616 615
f 606 619 616
f 601 615 618
f 601 618 617
f 615 621 618
f 617 618 655
f 616 619 620
f 616 620 621
f 619 698 620
f 612 698 619
f 614 618 621
f 620 693 621
f 340 624 622
f 622 624 623
f 623 624 626
f 624 628 626
f 626 629 632
f 623 626 625
f 625 626 633
f 627 629 628
f 343 627 628
f 627 649 630
f 344 628 624
f 629 630 638
f 627 630 629
f 630 650 639
f 626 628 629
f 631 652 657
f 631 657 711
f 657 658 711
f 631 711 709
f 632 635 634
f 632 638 637
f 632 634 633
f 626 632 633
f 635 637 636
f 632 637 635
f 636 637 716
f 637 640 716
f 629 638 632
f 638 639 640
f 630 639 638
f 631 640 639
f 631 639 652
f 637 638 640
f 640 709 716
f 631 709 640
f 357 642 649
f 642 650 649
f 642 645 650
f 356 641 642
f 641 645 642
f 641 643 645
f 645 652 650
f 645 653 652
f 643 653 645
f 643 644 653
f 360 646 641
f 643 646 647
f 595 647 646
f 641 646 643
f 644 647 648
f 643 647 644
f 362 649 627
f 630 649 650
f 639 650 652
f 644 648 651
f 644 651 654
f 617 655 651
f 651 656 654
f 652 653 657
f 653 654 657
f 644 654 653
f 654 656 658
f 656 720 658
f 651 655 656
f 614 719 655
f 655 719 656
f 654 658 657
f 617 651 648
f 682 721 697
f 659 660 662
f 541 659 662
f 660 663 662
f 541 662 661
f 661 662 671
f 662 663 665
f 663 664 665
f 664 676 665
f 665 683 671
f 662 665 671
f 666 670 667
f 667 670 678
f 661 670 668
f 542 661 668
f 545 668 669
f 666 668 670
f 666 669 668
f 661 671 670
f 671 683 678
f 670 671 678
f 672 673 677
f 673 680 681
f 672 718 673
f 673 718 680
f 673 676 674
f 674 676 675
f 664 675 676
f 665 676 683
f 676 681 683
f 673 681 676
f 673 674 677
f 678 683 679
f 679 683 681
f 667 678 702
f 678 679 702
f 679 681 682
f 680 682 681
f 679 682 697
f 679 697 702
f 689 695 698
f 560 690 565
f 684 688 690
f 560 684 690
f 684 699 685
f 685 689 688
f 684 685 688
f 685 695 689
f 685 701 695
f 608 686 687
f 686 690 687
f 565 690 686
f 687 690 688
f 611 687 688
f 612 689 698
f 611 689 612
f 611 688 689
f 620 691 693
f 691 698 695
f 691 696 693
f 692 721 719
f 614 693 692
f 614 692 719
f 692 693 696
f 694 702 696
f 691 695 694
f 691 694 696
f 694 695 701
f 692 696 697
f 692 697 721
f 696 702 697
f 620 698 691
f 684 700 699
f 669 699 700
f 666 699 669
f 560 700 684
f 666 701 699
f 685 699 701
f 667 694 701
f 666 667 701
f 667 702 694
f 703 708 706
f 708 716 709
f 703 716 708
f 704 707 705
f 705 713 718
f 706 708 707
f 705 708 710
f 705 707 708
f 658 720 712
f 712 720 714
f 709 711 710
f 708 709 710
f 658 712 711
f 710 711 712
f 705 710 713
f 712 714 713
f 680 714 682
f 680 713 714
f 714 720 721
f 682 714 721
f 710 712 713
f 636 716 715
f 703 715 716
f 704 705 717
f 672 717 718
f 705 718 717
f 680 718 713
f 656 719 720
f 719 721 720
