# rf_tip_rubber.obj  (1442 v, 2876 f)  units: metres
v -0.009381978 -0.061804302 0.121832147
v -0.006154791 -0.064613082 0.121586412
v -0.007895265 -0.063353367 0.121696629
v -0.009365222 -0.062749207 0.132791504
v -0.009708204 -0.062336192 0.132827640
v -0.007884350 -0.064300500 0.132655784
v -0.007649088 -0.064520583 0.132636532
v -0.006429921 -0.065402992 0.132559329
v -0.006147109 -0.065557875 0.132545769
v -0.008747623 -0.063492917 0.132726431
v -0.010567146 -0.060015682 0.121988632
v -0.011412678 -0.058044989 0.122161046
v -0.011891397 -0.055955566 0.122343846
v -0.006551631 -0.058057304 0.126338959
v -0.007075861 -0.056835476 0.126445860
v -0.007372666 -0.055540033 0.126559198
v -0.010515681 -0.061068654 0.132938534
v -0.010561463 -0.060971729 0.132947013
v -0.011157318 -0.059710294 0.133057371
v -0.011390158 -0.058996413 0.133119822
v -0.011622998 -0.058282532 0.133182287
v -0.011885228 -0.056913108 0.133302093
v -0.011905377 -0.056807883 0.133311301
v -0.006019087 -0.059496023 0.133059144
v -0.006519722 -0.058710147 0.133127898
v -0.006548107 -0.058650054 0.133133158
v -0.006917537 -0.057867967 0.133201584
v -0.007061898 -0.057425357 0.133240297
v -0.007206259 -0.056982752 0.133279026
v -0.007368841 -0.056133710 0.133353308
v -0.007381334 -0.056068469 0.133359015
v -0.004216498 -0.065542959 0.121505059
v -0.002142683 -0.066113122 0.121455178
v -0.000000000 -0.066305235 0.121438369
v -0.002614229 -0.061484218 0.126039147
v -0.001328463 -0.061837718 0.126008227
v -0.000000000 -0.061956827 0.125997797
v -0.005109352 -0.066126220 0.132496044
v -0.004208493 -0.066481531 0.132464960
v -0.003708204 -0.066678859 0.132447705
v -0.003811208 -0.061493464 0.132884383
v -0.003986551 -0.061397437 0.132892802
v -0.003167798 -0.061845839 0.132853553
v -0.002248576 -0.067052200 0.132415041
v -0.002141895 -0.067065626 0.132413864
v -0.000753486 -0.067240357 0.132398576
v -0.000000000 -0.067263946 0.132396504
v -0.002609266 -0.062066130 0.132834285
v -0.002299086 -0.062188476 0.132823586
v -0.001394117 -0.062419947 0.132803336
v -0.001327975 -0.062428270 0.132802606
v -0.000467161 -0.062536605 0.132793128
v -0.000000000 -0.062551230 0.132791847
v -0.004895064 -0.060126670 0.126157925
v -0.005816826 -0.059166249 0.126241937
v -0.003815971 -0.060907692 0.126089588
v -0.005806438 -0.059752092 0.133036748
v -0.005423526 -0.060213190 0.132996395
v -0.004888297 -0.060713891 0.132952601
v -0.004742434 -0.060850345 0.132940665
v -0.010439009 -0.061152730 0.134383142
v -0.009637420 -0.062411025 0.134273052
v -0.010210114 -0.061151601 0.135814026
v -0.009426101 -0.062382303 0.135706365
v -0.009077328 -0.062250447 0.137106642
v -0.007593317 -0.064579487 0.134083331
v -0.006383040 -0.065455467 0.134006694
v -0.007426819 -0.064503223 0.135520801
v -0.006243080 -0.065359987 0.135445848
v -0.007152021 -0.064292893 0.136927962
v -0.006012081 -0.065117955 0.136855781
v -0.008683844 -0.063559316 0.134172589
v -0.008493434 -0.063505419 0.135608092
v -0.008179170 -0.063332006 0.137012020
v -0.007745636 -0.063041605 0.138363898
v -0.008596187 -0.062017377 0.138453513
v -0.006772931 -0.063951559 0.138284281
v -0.007989695 -0.061686493 0.139727294
v -0.007199153 -0.062638462 0.139644012
v -0.006295076 -0.063484214 0.139570013
v -0.007266695 -0.061262622 0.140909433
v -0.006547690 -0.062128443 0.140833676
v -0.011075969 -0.059804272 0.134501114
v -0.010833106 -0.059832711 0.135929421
v -0.011538253 -0.058386922 0.134625122
v -0.011285255 -0.058446437 0.136050701
v -0.010867692 -0.058460210 0.137438253
v -0.009832332 -0.061065279 0.137210339
v -0.010432273 -0.059795190 0.137321457
v -0.009879314 -0.059692260 0.138656929
v -0.009311172 -0.060895029 0.138551697
v -0.010291654 -0.058428042 0.138767540
v -0.011818573 -0.056923028 0.134753197
v -0.011559428 -0.057014640 0.136175960
v -0.012000000 -0.055309609 0.133442387
v -0.011912506 -0.055435676 0.134883314
v -0.011651302 -0.055559903 0.136303246
v -0.011131721 -0.057081390 0.137558877
v -0.010541688 -0.057122305 0.138881773
v -0.011220195 -0.055680480 0.137681454
v -0.010625472 -0.055795647 0.138997838
v -0.006472186 -0.058762275 0.134023562
v -0.006330270 -0.058761574 0.134910703
v -0.006096046 -0.058708057 0.135776415
v -0.006867100 -0.057926230 0.134096697
v -0.007153717 -0.057047475 0.134173587
v -0.006996858 -0.057084374 0.135057449
v -0.006716526 -0.057943862 0.134982258
v -0.006468009 -0.057920601 0.135845318
v -0.006737969 -0.057092912 0.135917723
v -0.007327515 -0.056139860 0.134252995
v -0.007440000 -0.055139542 0.133440286
v -0.007385754 -0.055217702 0.134333670
v -0.007166845 -0.056196660 0.135135114
v -0.006901667 -0.056238044 0.135992512
v -0.007223807 -0.055294722 0.135214031
v -0.006956521 -0.055369481 0.136068508
v -0.006125175 -0.057856783 0.136673301
v -0.006380825 -0.057072967 0.136741892
v -0.006535846 -0.056263413 0.136812717
v -0.006074718 -0.056272391 0.137583718
v -0.006587793 -0.055440884 0.136884674
v -0.006123000 -0.055507895 0.137650609
v -0.009182293 -0.059525423 0.139916360
v -0.009565540 -0.058350399 0.140019163
v -0.009797933 -0.057136789 0.140125334
v -0.009875806 -0.055903729 0.140233219
v -0.008654235 -0.060643334 0.139818549
v -0.007871100 -0.060313858 0.140992433
v -0.008351373 -0.059297107 0.141081393
v -0.008699939 -0.058228415 0.141174883
v -0.007707473 -0.058063865 0.142217860
v -0.006973186 -0.059911408 0.142056212
v -0.006437730 -0.060751941 0.141982675
v -0.007398670 -0.059010647 0.142135024
v -0.006338079 -0.058670215 0.143061891
v -0.008911302 -0.057124626 0.141271457
v -0.007894725 -0.057085995 0.142303407
v -0.008982129 -0.056003150 0.141369566
v -0.008911302 -0.054881673 0.141467690
v -0.007957472 -0.056092452 0.142390326
v -0.007894725 -0.055098914 0.142477259
v -0.006763025 -0.057021461 0.143206149
v -0.006602616 -0.057859156 0.143132851
v -0.006816777 -0.056170344 0.143280610
v -0.006763025 -0.055319224 0.143355072
v -0.005072099 -0.066173419 0.133943886
v -0.004960883 -0.066062197 0.135384411
v -0.003681167 -0.066722028 0.133895889
v -0.003600450 -0.066598780 0.135337457
v -0.004777327 -0.065794185 0.136796609
v -0.005693413 -0.064732894 0.138215929
v -0.004524106 -0.065373279 0.138159901
v -0.003467231 -0.066310912 0.136751398
v -0.003283452 -0.065862618 0.138117090
v -0.003051792 -0.065260440 0.139414608
v -0.003957485 -0.061429974 0.133790165
v -0.003870710 -0.061370775 0.134682432
v -0.003144701 -0.061875101 0.133751214
v -0.003075748 -0.061806146 0.134644344
v -0.003727490 -0.061220717 0.135556594
v -0.002232181 -0.067092650 0.133863464
v -0.002183236 -0.066961274 0.135305747
v -0.000747992 -0.067279436 0.133847117
v -0.000731591 -0.067143962 0.135289773
v -0.002102455 -0.066659994 0.136720866
v -0.001991015 -0.066193201 0.138088167
v -0.001850542 -0.065567695 0.139387727
v -0.000704522 -0.066835925 0.136705473
v -0.000667179 -0.066359803 0.138073593
v -0.000620107 -0.065722540 0.139374182
v -0.002282324 -0.062215239 0.133721456
v -0.002232279 -0.062138826 0.134615242
v -0.002961942 -0.061639976 0.135519907
v -0.002804946 -0.061379015 0.136365145
v -0.002149683 -0.061960347 0.135491878
v -0.002035740 -0.061682407 0.136338606
v -0.001383952 -0.062445026 0.133701354
v -0.001353606 -0.062363572 0.134595573
v -0.000463755 -0.062560834 0.133691221
v -0.000453587 -0.062476840 0.134585679
v -0.001303522 -0.062176779 0.135472953
v -0.001234429 -0.061887369 0.136320680
v -0.000436804 -0.062285855 0.135463402
v -0.000413651 -0.061990660 0.136311635
v -0.001892111 -0.061309054 0.137143075
v -0.001147336 -0.061499555 0.137126401
v -0.000384466 -0.061595559 0.137118012
v -0.000349675 -0.061106317 0.137870744
v -0.005291722 -0.064210422 0.139506474
v -0.004204914 -0.064805627 0.139454409
v -0.005725424 -0.062897660 0.140766382
v -0.004812866 -0.063558154 0.140708596
v -0.005800747 -0.061518990 0.141915575
v -0.005072284 -0.062200461 0.141855955
v -0.003824404 -0.064099498 0.140661240
v -0.004263827 -0.062785603 0.141804755
v -0.003388127 -0.063265190 0.141762793
v -0.004345177 -0.061402772 0.142822832
v -0.003652612 -0.061904036 0.142778978
v -0.002775630 -0.064513154 0.140625045
v -0.001683083 -0.064792603 0.140600592
v -0.000563993 -0.064933442 0.140588269
v -0.002458994 -0.063631661 0.141730741
v -0.001491082 -0.063879229 0.141709074
v -0.000499654 -0.064004004 0.141698167
v -0.002106500 -0.062628813 0.142715558
v -0.002902442 -0.062314875 0.142743036
v -0.002374434 -0.061262406 0.143587634
v -0.001723288 -0.061519235 0.143565163
v -0.001277337 -0.062840894 0.142697006
v -0.000428029 -0.062947780 0.142687663
v -0.001044965 -0.061692733 0.143549994
v -0.000350163 -0.061780173 0.143542334
v -0.005975200 -0.059542418 0.133955300
v -0.005383983 -0.060254358 0.133893013
v -0.005844183 -0.059524611 0.134843960
v -0.005265929 -0.060220942 0.134783030
v -0.004707857 -0.060886864 0.133837670
v -0.004604628 -0.060839582 0.134728909
v -0.005071085 -0.060113426 0.135653466
v -0.005627944 -0.059442859 0.135712132
v -0.004434253 -0.060709175 0.135601342
v -0.003529916 -0.060981978 0.136399895
v -0.004802295 -0.059933379 0.136491627
v -0.005329636 -0.059298355 0.136547193
v -0.005772927 -0.058602501 0.136608064
v -0.005365625 -0.058446448 0.137393519
v -0.004953611 -0.059093207 0.137336940
v -0.004505351 -0.058830410 0.138069868
v -0.004880082 -0.058242176 0.138121322
v -0.004199217 -0.060497548 0.136442259
v -0.004463475 -0.059683427 0.137285292
v -0.003902947 -0.060207795 0.137239426
v -0.003280868 -0.060658045 0.137200028
v -0.003549763 -0.059844133 0.137981176
v -0.004059568 -0.059367217 0.138022885
v -0.004323375 -0.057992656 0.138780862
v -0.003991392 -0.058513787 0.138735265
v -0.003144816 -0.059411868 0.138656706
v -0.003596463 -0.058989357 0.138693675
v -0.003419231 -0.058147959 0.139323473
v -0.003080914 -0.058555357 0.139287829
v -0.005693022 -0.057753343 0.137454152
v -0.005930635 -0.057024829 0.137517899
v -0.005393962 -0.056949198 0.138234437
v -0.005177851 -0.057611790 0.138176471
v -0.004587175 -0.057434183 0.138829723
v -0.004778633 -0.056847177 0.138881087
v -0.005525007 -0.056264851 0.138294309
v -0.005568920 -0.055569537 0.138355136
v -0.005525007 -0.054874219 0.138415977
v -0.004894729 -0.056240898 0.138934121
v -0.004933632 -0.055624902 0.138988018
v -0.004894729 -0.055008911 0.139041916
v -0.003929609 -0.057223115 0.139404386
v -0.003703624 -0.057701532 0.139362529
v -0.002607047 -0.061027072 0.137167752
v -0.002371131 -0.060589273 0.137915984
v -0.001720891 -0.060845740 0.137893543
v -0.002983977 -0.060253639 0.137945339
v -0.002643573 -0.059774656 0.138624966
v -0.001524576 -0.060299214 0.138579071
v -0.002100639 -0.060072001 0.138598949
v -0.002694010 -0.058917303 0.139256164
v -0.002264619 -0.059228085 0.139228985
v -0.001799514 -0.059482805 0.139206693
v -0.001043512 -0.061018996 0.137878373
v -0.000924471 -0.060452703 0.138565645
v -0.001306030 -0.059677448 0.139189661
v -0.000791949 -0.059808936 0.139178157
v -0.000309785 -0.060530066 0.138558879
v -0.000265378 -0.059875205 0.139172360
v -0.005514889 -0.060161896 0.142931387
v -0.004969216 -0.060818989 0.142873898
v -0.005973587 -0.059441853 0.142994389
v -0.004886880 -0.058912043 0.143793270
v -0.004511627 -0.059501097 0.143741727
v -0.005185064 -0.058280781 0.143848494
v -0.004065224 -0.060038652 0.143694699
v -0.003554708 -0.060516234 0.143652916
v -0.003442577 -0.058779176 0.144401893
v -0.003101950 -0.059189353 0.144365996
v -0.003728912 -0.058329701 0.144441217
v -0.004093622 -0.056720261 0.139448375
v -0.003029866 -0.057373051 0.139857844
v -0.003214740 -0.056981668 0.139892071
v -0.003348915 -0.056570288 0.139928073
v -0.004193075 -0.056200888 0.139493823
v -0.004226402 -0.055673197 0.139539987
v -0.004193075 -0.055145502 0.139586151
v -0.003430277 -0.056145400 0.139965236
v -0.003457540 -0.055713706 0.140003011
v -0.003430277 -0.055282008 0.140040785
v -0.005401476 -0.057617266 0.143906549
v -0.005532704 -0.056931965 0.143966496
v -0.005576678 -0.056235682 0.144027427
v -0.005532704 -0.055539396 0.144088343
v -0.003956439 -0.057848018 0.144483358
v -0.004121572 -0.057341728 0.144527644
v -0.004221705 -0.056818809 0.144573390
v -0.004255258 -0.056287516 0.144619882
v -0.004221705 -0.055756219 0.144666359
v -0.004121572 -0.055233300 0.144712105
v -0.002520439 -0.058071546 0.139796719
v -0.002203919 -0.058367647 0.139770821
v -0.001852643 -0.058621895 0.139748588
v -0.001472149 -0.058830276 0.139730349
v -0.001068439 -0.058989510 0.139716417
v -0.001123317 -0.058123928 0.140162289
v -0.000815267 -0.058245428 0.140151650
v -0.000647878 -0.059097078 0.139707014
v -0.000217101 -0.059151292 0.139702260
v -0.000494361 -0.058327511 0.140144467
v -0.000165658 -0.058368877 0.140140846
v -0.002988134 -0.060926307 0.143617049
v -0.002712404 -0.059553772 0.144334123
v -0.002280082 -0.059866674 0.144306749
v -0.001811801 -0.060123134 0.144284308
v -0.002323325 -0.058006659 0.144902229
v -0.002093443 -0.058283482 0.144878015
v -0.001830547 -0.058529418 0.144856498
v -0.001538781 -0.058740590 0.144838020
v -0.001314947 -0.060319107 0.144267157
v -0.000797356 -0.060451496 0.144255579
v -0.000267190 -0.060518216 0.144249737
v -0.001222748 -0.058913670 0.144822881
v -0.000887431 -0.059045926 0.144811302
v -0.000538119 -0.059135273 0.144803479
v -0.000180321 -0.059180301 0.144799545
v -0.002797209 -0.057738263 0.139825881
v -0.002311925 -0.057011999 0.140259564
v -0.002452992 -0.056713354 0.140285701
v -0.002134397 -0.057290673 0.140235186
v -0.001923209 -0.057544980 0.140212923
v -0.001681690 -0.057770923 0.140193164
v -0.001560272 -0.056623638 0.140561849
v -0.001655475 -0.056422092 0.140579477
v -0.002638260 -0.055745844 0.140370339
v -0.002555375 -0.056399453 0.140313148
v -0.002617457 -0.056075245 0.140341520
v -0.002617457 -0.055416439 0.140399158
v -0.002555375 -0.055092227 0.140427515
v -0.001724571 -0.056210246 0.140598014
v -0.001766469 -0.055991445 0.140617162
v -0.001780508 -0.055769138 0.140636608
v -0.001766469 -0.055546828 0.140656054
v -0.001724571 -0.055328030 0.140675202
v -0.001655475 -0.055116184 0.140693724
v -0.001560272 -0.054914635 0.140711367
v -0.001413651 -0.057964921 0.140176192
v -0.000954044 -0.057266749 0.140505582
v -0.000758104 -0.057374060 0.140496194
v -0.001440462 -0.056811713 0.140545398
v -0.001134939 -0.057135820 0.140517041
v -0.001297935 -0.056983341 0.140530378
v -0.000550207 -0.057456058 0.140489012
v -0.000333634 -0.057511453 0.140484169
v -0.000111799 -0.057539370 0.140481725
v -0.000571637 -0.056471612 0.140737712
v -0.000480526 -0.056537557 0.140731946
v -0.000381836 -0.056591608 0.140727207
v -0.000277124 -0.056632906 0.140723601
v -0.000168042 -0.056660809 0.140721157
v -0.000056310 -0.056674868 0.140719935
v -0.000785866 -0.056213640 0.140760288
v -0.000833817 -0.056112129 0.140769169
v -0.000868619 -0.056005426 0.140778497
v -0.000889721 -0.055895220 0.140788138
v -0.000896793 -0.055783253 0.140797928
v -0.000889721 -0.055671282 0.140807733
v -0.000868619 -0.055561077 0.140817374
v -0.000833817 -0.055454377 0.140826717
v -0.000785866 -0.055352863 0.140835598
v -0.000653734 -0.056394812 0.140744433
v -0.000725521 -0.056308366 0.140752003
v -0.000000000 -0.055787981 0.140851974
v -0.000725521 -0.055258136 0.140843883
v -0.000653734 -0.055171691 0.140851438
v -0.000571637 -0.055094890 0.140858158
v -0.000480526 -0.055028945 0.140863925
v -0.000381836 -0.054974895 0.140868664
v -0.000277124 -0.054933596 0.140872270
v -0.000168042 -0.054905698 0.140874714
v -0.000056310 -0.054891635 0.140875950
v -0.002670121 -0.057378240 0.144957200
v -0.002516567 -0.057703316 0.144928768
v -0.002781566 -0.057036556 0.144987106
v -0.002849143 -0.056683648 0.145017982
v -0.002871788 -0.056325089 0.145049348
v -0.002849143 -0.055966526 0.145080715
v -0.002781566 -0.055613622 0.145111591
v -0.002670121 -0.055271935 0.145141482
v -0.002516567 -0.054946858 0.145169929
v -0.001170195 -0.057194814 0.145235464
v -0.001054410 -0.057334241 0.145223260
v -0.000921996 -0.057458114 0.145212427
v -0.000775041 -0.057564475 0.145203114
v -0.001344866 -0.056878299 0.145263150
v -0.001267525 -0.057042029 0.145248830
v -0.001400998 -0.056706198 0.145278201
v -0.001435035 -0.056528449 0.145293757
v -0.000615864 -0.057651650 0.145195484
v -0.000446975 -0.057718266 0.145189658
v -0.000271036 -0.057763267 0.145185724
v -0.000090823 -0.057785947 0.145183742
v -0.001446440 -0.056347854 0.145309553
v -0.001435035 -0.056167256 0.145325363
v -0.001400998 -0.055989508 0.145340905
v -0.001344866 -0.055817410 0.145355970
v -0.001267525 -0.055653676 0.145370290
v -0.001170195 -0.055500891 0.145383656
v -0.001054410 -0.055361465 0.145395860
v -0.000921996 -0.055237591 0.145406693
v -0.000775041 -0.055131231 0.145415992
v -0.000000000 -0.056355480 0.145396724
v -0.000615864 -0.055044055 0.145423621
v -0.000446975 -0.054977443 0.145429447
v -0.000271036 -0.054932442 0.145433396
v -0.000090823 -0.054909762 0.145435378
v -0.011987917 -0.053814568 0.122531161
v -0.011699134 -0.051690806 0.122716971
v -0.011034333 -0.049652543 0.122895293
v -0.007432509 -0.054212615 0.126675338
v -0.007253463 -0.052895881 0.126790538
v -0.006841287 -0.051632158 0.126901090
v -0.006209225 -0.050462060 0.127003461
v -0.010014879 -0.047765289 0.123060405
v -0.008673538 -0.046089701 0.123207003
v -0.007053423 -0.044679634 0.123330362
v -0.005377594 -0.049423199 0.127094358
v -0.004373122 -0.048548955 0.127170831
v -0.003228095 -0.047867440 0.127230465
v -0.005206605 -0.043580413 0.123426534
v -0.003192442 -0.042827360 0.123492420
v -0.001979314 -0.047400545 0.127271309
v -0.000666916 -0.047163285 0.127292067
v -0.001075672 -0.042444684 0.123525895
v -0.011966214 -0.054774638 0.133489192
v -0.011905377 -0.053811334 0.133573458
v -0.011559428 -0.054105163 0.136430517
v -0.011818573 -0.053948324 0.135013446
v -0.011683472 -0.052652497 0.133674845
v -0.011622998 -0.052336685 0.133702472
v -0.011538253 -0.052484427 0.135141522
v -0.011131721 -0.054279566 0.137804016
v -0.010541688 -0.054468993 0.139113903
v -0.011285255 -0.052673366 0.136555776
v -0.010867692 -0.052900750 0.137924641
v -0.010291654 -0.053163256 0.139228135
v -0.009879314 -0.051899035 0.139338747
v -0.011157318 -0.050908923 0.133827388
v -0.011019905 -0.050618019 0.133852839
v -0.011075969 -0.051067077 0.135265514
v -0.010515681 -0.049550563 0.133946240
v -0.009996518 -0.048735607 0.134017527
v -0.010439009 -0.049718618 0.135383502
v -0.010833106 -0.051287092 0.136677057
v -0.010432273 -0.051565766 0.138041437
v -0.009832332 -0.050295677 0.138152555
v -0.010210114 -0.049968205 0.136792451
v -0.009426101 -0.048737500 0.136900127
v -0.009077328 -0.049110509 0.138256252
v -0.007419053 -0.054807857 0.133469313
v -0.007381334 -0.054210611 0.133521557
v -0.007327515 -0.054295544 0.134414345
v -0.007243752 -0.053492129 0.133584410
v -0.007153717 -0.053387929 0.134493753
v -0.007166845 -0.054392785 0.135292932
v -0.006901667 -0.054500915 0.136144504
v -0.006996858 -0.053505071 0.135370597
v -0.006737969 -0.053646047 0.136219293
v -0.007206259 -0.053296328 0.133601546
v -0.006917537 -0.052411117 0.133678988
v -0.006832341 -0.052230753 0.133694768
v -0.006867100 -0.052509170 0.134570628
v -0.006716526 -0.052645579 0.135445789
v -0.006468009 -0.052818358 0.136291698
v -0.006330270 -0.051827870 0.135517329
v -0.006096046 -0.052030902 0.136360601
v -0.006535846 -0.054618359 0.136956632
v -0.006074718 -0.054743402 0.137717500
v -0.006380825 -0.053808801 0.137027457
v -0.006125175 -0.053024985 0.137096033
v -0.006519722 -0.051568933 0.133752674
v -0.006197841 -0.051063661 0.133796886
v -0.006472186 -0.051673125 0.134643778
v -0.006019087 -0.050783057 0.133821428
v -0.009797933 -0.054670673 0.140341103
v -0.009565540 -0.053457063 0.140447274
v -0.009182293 -0.052282039 0.140550077
v -0.009311172 -0.050696269 0.139443979
v -0.008699939 -0.053777885 0.141564265
v -0.008351373 -0.052709188 0.141657755
v -0.007707473 -0.054121040 0.142562807
v -0.006602616 -0.054481529 0.143428355
v -0.006338079 -0.053670470 0.143499315
v -0.007398670 -0.053174261 0.142645642
v -0.006973186 -0.052273501 0.142724440
v -0.008654235 -0.051164128 0.140647873
v -0.007871100 -0.051692441 0.141746715
v -0.008596187 -0.049573921 0.139542162
v -0.007989695 -0.050120965 0.140739143
v -0.007266695 -0.050743677 0.141829714
v -0.007199153 -0.049169000 0.140822425
v -0.006547690 -0.049877856 0.141905472
v -0.006437730 -0.051432967 0.142797977
v -0.009708204 -0.048283026 0.134057134
v -0.009637420 -0.048460323 0.135493577
v -0.008747623 -0.047126304 0.134158328
v -0.008683844 -0.047312032 0.135594040
v -0.008669239 -0.047052976 0.134164751
v -0.007649088 -0.046098635 0.134248242
v -0.007593317 -0.046291858 0.135683298
v -0.007039505 -0.045657434 0.134286836
v -0.008493434 -0.047614388 0.136998385
v -0.008179170 -0.048028957 0.138350874
v -0.007426819 -0.046616580 0.137085676
v -0.006243080 -0.045759816 0.137160644
v -0.007152021 -0.047068067 0.138434932
v -0.006012081 -0.046243005 0.138507113
v -0.006429921 -0.045216229 0.134325445
v -0.006383040 -0.045415886 0.135759935
v -0.007745636 -0.048549689 0.139631778
v -0.006772931 -0.047639735 0.139711395
v -0.006295076 -0.048323248 0.140896425
v -0.005930635 -0.053990960 0.137783319
v -0.005393962 -0.054189872 0.138475850
v -0.004778633 -0.054402627 0.139094949
v -0.005177851 -0.053527281 0.138533816
v -0.004587175 -0.053815626 0.139146313
v -0.005693022 -0.053262446 0.137847066
v -0.005365625 -0.052569341 0.137907699
v -0.005772927 -0.052279267 0.137161285
v -0.004880082 -0.052896895 0.138588980
v -0.004953611 -0.051922582 0.137964278
v -0.004505351 -0.052308664 0.138640434
v -0.004323375 -0.053257152 0.139195159
v -0.003991392 -0.052736022 0.139240757
v -0.004059568 -0.051771853 0.138687402
v -0.003596463 -0.052260451 0.139282376
v -0.003144816 -0.051837940 0.139319330
v -0.005975200 -0.050892983 0.134712026
v -0.005844183 -0.051064834 0.135584086
v -0.005627944 -0.051296100 0.136424884
v -0.005265929 -0.050368503 0.135645017
v -0.005423526 -0.050065890 0.133884177
v -0.005374928 -0.050020427 0.133888155
v -0.005383983 -0.050181042 0.134774312
v -0.004707857 -0.049548533 0.134829655
v -0.004742434 -0.049428735 0.133939922
v -0.004604628 -0.049749862 0.135699138
v -0.004364493 -0.049155191 0.133963853
v -0.003986551 -0.048881646 0.133987784
v -0.003957485 -0.049005430 0.134877175
v -0.003870710 -0.049218670 0.135745615
v -0.003075748 -0.048783299 0.135783687
v -0.005329636 -0.051583413 0.137222156
v -0.005071085 -0.050625537 0.136483550
v -0.004802295 -0.050948389 0.137277707
v -0.004199217 -0.050384220 0.137327075
v -0.004463475 -0.051332362 0.138015911
v -0.003902947 -0.050807998 0.138061792
v -0.003549763 -0.051294938 0.138729125
v -0.003280868 -0.050357748 0.138101190
v -0.004434253 -0.050029784 0.136535674
v -0.003727490 -0.049518246 0.136580423
v -0.003529916 -0.049899794 0.137369454
v -0.002643573 -0.051475152 0.139351070
v -0.002983977 -0.050885431 0.138764948
v -0.002371131 -0.050549798 0.138794318
v -0.002100639 -0.051177807 0.139377087
v -0.001524576 -0.050950594 0.139396966
v -0.001720891 -0.050293334 0.138816759
v -0.002804946 -0.049502753 0.137404189
v -0.002961942 -0.049098983 0.136617109
v -0.002149683 -0.048778612 0.136645138
v -0.002035740 -0.049199365 0.137430742
v -0.002607047 -0.049988724 0.138133466
v -0.001892111 -0.049706735 0.138158143
v -0.000924471 -0.050797101 0.139410406
v -0.000309785 -0.050719742 0.139417157
v -0.001234429 -0.048994407 0.137448668
v -0.000413651 -0.048891108 0.137457699
v -0.001147336 -0.049516238 0.138174817
v -0.001043512 -0.050120071 0.138831913
v -0.000349675 -0.050032753 0.138839558
v -0.000384466 -0.049420230 0.138183206
v -0.004093622 -0.054626130 0.139631599
v -0.003929609 -0.054123275 0.139675587
v -0.003348915 -0.054857120 0.140077949
v -0.003214740 -0.054445744 0.140113950
v -0.003703624 -0.053644858 0.139717445
v -0.003029866 -0.054054361 0.140148178
v -0.003419231 -0.053198431 0.139756501
v -0.003080914 -0.052791033 0.139792144
v -0.005401476 -0.054854095 0.144148290
v -0.005185064 -0.054190580 0.144206345
v -0.004886880 -0.053559318 0.144261569
v -0.005973587 -0.052898832 0.143566832
v -0.005514889 -0.052178789 0.143629819
v -0.004511627 -0.052970264 0.144313112
v -0.003956439 -0.054727010 0.144756407
v -0.003728912 -0.054245327 0.144798547
v -0.003442577 -0.053795852 0.144837871
v -0.003101950 -0.053385675 0.144873753
v -0.004065224 -0.052432708 0.144360140
v -0.003554708 -0.051955126 0.144401923
v -0.005725424 -0.049108636 0.141972765
v -0.005800747 -0.050665919 0.142865092
v -0.004969216 -0.051521696 0.143687308
v -0.005072284 -0.049984448 0.142924711
v -0.004345177 -0.050937913 0.143738389
v -0.003652612 -0.050436649 0.143782243
v -0.004263827 -0.049399305 0.142975911
v -0.003388127 -0.048919715 0.143017858
v -0.002452992 -0.054778330 0.140454978
v -0.002311925 -0.054479685 0.140481114
v -0.002797209 -0.053689145 0.140180141
v -0.002520439 -0.053355861 0.140209302
v -0.002134397 -0.054201011 0.140505493
v -0.001923209 -0.053946700 0.140527740
v -0.001681690 -0.053720761 0.140547514
v -0.002694010 -0.052429087 0.139823809
v -0.002264619 -0.052118305 0.139851004
v -0.002203919 -0.053059760 0.140235201
v -0.001852643 -0.052805517 0.140257448
v -0.001799514 -0.051863585 0.139873281
v -0.001440462 -0.054726563 0.140727818
v -0.001297935 -0.054554932 0.140742838
v -0.001134939 -0.054402452 0.140756175
v -0.000954044 -0.054271527 0.140767634
v -0.000758104 -0.054164216 0.140777022
v -0.001413651 -0.053526763 0.140564486
v -0.001123317 -0.053367756 0.140578389
v -0.000550207 -0.054082219 0.140784204
v -0.000333634 -0.054026820 0.140789032
v -0.000111799 -0.053998906 0.140791491
v -0.001472149 -0.052597135 0.140275672
v -0.000815267 -0.053246252 0.140589014
v -0.001068439 -0.052437901 0.140289605
v -0.000494361 -0.053164173 0.140596211
v -0.000165658 -0.053122807 0.140599817
v -0.000647878 -0.052330330 0.140299022
v -0.000217101 -0.052276120 0.140303761
v -0.002323325 -0.054643515 0.145196468
v -0.002093443 -0.054366693 0.145220682
v -0.001830547 -0.054120757 0.145242199
v -0.001538781 -0.053909585 0.145260677
v -0.002712404 -0.053021256 0.144905642
v -0.002280082 -0.052708354 0.144933015
v -0.001811801 -0.052451894 0.144955456
v -0.001222748 -0.053736504 0.145275816
v -0.000887431 -0.053604249 0.145287395
v -0.000538119 -0.053514902 0.145295203
v -0.000180321 -0.053469874 0.145299152
v -0.001314947 -0.052255921 0.144972593
v -0.000797356 -0.052123532 0.144984186
v -0.000267190 -0.052056812 0.144990012
v -0.001306030 -0.051668942 0.139890313
v -0.000791949 -0.051537454 0.139901817
v -0.000265378 -0.051471185 0.139907613
v -0.002988134 -0.051545054 0.144437790
v -0.002374434 -0.051208954 0.144467205
v -0.001723288 -0.050952125 0.144489676
v -0.002902442 -0.050025810 0.143818185
v -0.002106500 -0.049711872 0.143845648
v -0.001044965 -0.050778627 0.144504845
v -0.000350163 -0.050691187 0.144512504
v -0.001277337 -0.049499791 0.143864200
v -0.000428029 -0.049392905 0.143873557
v -0.003226219 -0.048465241 0.134024218
v -0.003167798 -0.048433244 0.134027019
v -0.003144701 -0.048560303 0.134916112
v -0.004777327 -0.045566775 0.138566285
v -0.005203579 -0.044544607 0.134384200
v -0.005109352 -0.044493001 0.134388715
v -0.005072099 -0.044697933 0.135822743
v -0.003681167 -0.044149321 0.135870740
v -0.003708204 -0.043940358 0.134437069
v -0.003187034 -0.043807056 0.134448722
v -0.004960883 -0.045057606 0.137222067
v -0.003600450 -0.044521023 0.137269020
v -0.003467231 -0.045050047 0.138611495
v -0.002299086 -0.048090603 0.134057000
v -0.001975961 -0.048007958 0.134064212
v -0.002282324 -0.048220161 0.134945869
v -0.002232279 -0.048450615 0.135812804
v -0.001394117 -0.047859132 0.134077251
v -0.000665677 -0.047767460 0.134085268
v -0.000467161 -0.047742479 0.134087443
v -0.001383952 -0.047990374 0.134965971
v -0.001353606 -0.048225872 0.135832459
v -0.000453587 -0.048112605 0.135842383
v -0.000463755 -0.047874570 0.134976104
v -0.001303522 -0.048562180 0.136664063
v -0.000436804 -0.048453107 0.136673614
v -0.002248576 -0.043567017 0.134469733
v -0.002232181 -0.043778699 0.135903165
v -0.001073673 -0.043419156 0.134482667
v -0.000753486 -0.043378863 0.134486184
v -0.000747992 -0.043591917 0.135919511
v -0.002183236 -0.044158529 0.137300730
v -0.002102455 -0.044700965 0.138642028
v -0.000704522 -0.044525038 0.138657421
v -0.000731591 -0.043975841 0.137316719
v -0.005291722 -0.047597043 0.140959963
v -0.004812866 -0.048448145 0.142030552
v -0.005693413 -0.046858404 0.139779747
v -0.004524106 -0.046218019 0.139835775
v -0.003824404 -0.047906801 0.142077908
v -0.003283452 -0.045728680 0.139878586
v -0.004204914 -0.047001839 0.141012028
v -0.003051792 -0.046547022 0.141051829
v -0.002775630 -0.047493145 0.142114103
v -0.001683083 -0.047213692 0.142138556
v -0.001850542 -0.046239767 0.141078711
v -0.000563993 -0.047072858 0.142150879
v -0.000620107 -0.046084918 0.141092256
v -0.002458994 -0.048553247 0.143049926
v -0.001491082 -0.048305675 0.143071592
v -0.000499654 -0.048180904 0.143082500
v -0.001991015 -0.045398101 0.139907509
v -0.000667179 -0.045231495 0.139922082
v 0.002142683 -0.066113122 0.121455178
v 0.001328463 -0.061837718 0.126008227
v 0.002614229 -0.061484218 0.126039147
v 0.004216498 -0.065542959 0.121505059
v 0.000753486 -0.067240357 0.132398576
v 0.002141895 -0.067065626 0.132413864
v 0.002248576 -0.067052200 0.132415041
v 0.000467161 -0.062536605 0.132793128
v 0.001327975 -0.062428270 0.132802606
v 0.001394117 -0.062419947 0.132803336
v 0.002299086 -0.062188476 0.132823586
v 0.002609266 -0.062066130 0.132834285
v 0.003708204 -0.066678859 0.132447705
v 0.004208493 -0.066481531 0.132464960
v 0.005109352 -0.066126220 0.132496044
v 0.003167798 -0.061845839 0.132853553
v 0.003811208 -0.061493464 0.132884383
v 0.003986551 -0.061397437 0.132892802
v 0.003815971 -0.060907692 0.126089588
v 0.004895064 -0.060126670 0.126157925
v 0.005816826 -0.059166249 0.126241937
v 0.004742434 -0.060850345 0.132940665
v 0.004888297 -0.060713891 0.132952601
v 0.005423526 -0.060213190 0.132996395
v 0.005806438 -0.059752092 0.133036748
v 0.006154791 -0.064613082 0.121586412
v 0.007895265 -0.063353367 0.121696629
v 0.009381978 -0.061804302 0.121832147
v 0.006147109 -0.065557875 0.132545769
v 0.006429921 -0.065402992 0.132559329
v 0.007649088 -0.064520583 0.132636532
v 0.007884350 -0.064300500 0.132655784
v 0.008747623 -0.063492917 0.132726431
v 0.009365222 -0.062749207 0.132791504
v 0.009708204 -0.062336192 0.132827640
v 0.006551631 -0.058057304 0.126338959
v 0.007075861 -0.056835476 0.126445860
v 0.007372666 -0.055540033 0.126559198
v 0.010567146 -0.060015682 0.121988632
v 0.011412678 -0.058044989 0.122161046
v 0.011891397 -0.055955566 0.122343846
v 0.006019087 -0.059496023 0.133059144
v 0.006519722 -0.058710147 0.133127898
v 0.006548107 -0.058650054 0.133133158
v 0.006917537 -0.057867967 0.133201584
v 0.007061898 -0.057425357 0.133240297
v 0.007206259 -0.056982752 0.133279026
v 0.007368841 -0.056133710 0.133353308
v 0.007381334 -0.056068469 0.133359015
v 0.010515681 -0.061068654 0.132938534
v 0.010561463 -0.060971729 0.132947013
v 0.011157318 -0.059710294 0.133057371
v 0.011390158 -0.058996413 0.133119822
v 0.011622998 -0.058282532 0.133182287
v 0.011885228 -0.056913108 0.133302093
v 0.011905377 -0.056807883 0.133311301
v 0.000747992 -0.067279436 0.133847117
v 0.000731591 -0.067143962 0.135289773
v 0.002232181 -0.067092650 0.133863464
v 0.002183236 -0.066961274 0.135305747
v 0.000704522 -0.066835925 0.136705473
v 0.000667179 -0.066359803 0.138073593
v 0.000620107 -0.065722540 0.139374182
v 0.002102455 -0.066659994 0.136720866
v 0.001991015 -0.066193201 0.138088167
v 0.001850542 -0.065567695 0.139387727
v 0.000463755 -0.062560834 0.133691221
v 0.000453587 -0.062476840 0.134585679
v 0.001383952 -0.062445026 0.133701354
v 0.001353606 -0.062363572 0.134595573
v 0.000436804 -0.062285855 0.135463402
v 0.000413651 -0.061990660 0.136311635
v 0.001303522 -0.062176779 0.135472953
v 0.001234429 -0.061887369 0.136320680
v 0.002232279 -0.062138826 0.134615242
v 0.002282324 -0.062215239 0.133721456
v 0.002149683 -0.061960347 0.135491878
v 0.002035740 -0.061682407 0.136338606
v 0.002961942 -0.061639976 0.135519907
v 0.002804946 -0.061379015 0.136365145
v 0.000384466 -0.061595559 0.137118012
v 0.000349675 -0.061106317 0.137870744
v 0.001147336 -0.061499555 0.137126401
v 0.001892111 -0.061309054 0.137143075
v 0.003681167 -0.066722028 0.133895889
v 0.003600450 -0.066598780 0.135337457
v 0.005072099 -0.066173419 0.133943886
v 0.004960883 -0.066062197 0.135384411
v 0.003467231 -0.066310912 0.136751398
v 0.003283452 -0.065862618 0.138117090
v 0.003051792 -0.065260440 0.139414608
v 0.004777327 -0.065794185 0.136796609
v 0.004524106 -0.065373279 0.138159901
v 0.005693413 -0.064732894 0.138215929
v 0.003144701 -0.061875101 0.133751214
v 0.003075748 -0.061806146 0.134644344
v 0.003957485 -0.061429974 0.133790165
v 0.003870710 -0.061370775 0.134682432
v 0.003727490 -0.061220717 0.135556594
v 0.000563993 -0.064933442 0.140588269
v 0.001683083 -0.064792603 0.140600592
v 0.002775630 -0.064513154 0.140625045
v 0.000499654 -0.064004004 0.141698167
v 0.001491082 -0.063879229 0.141709074
v 0.002458994 -0.063631661 0.141730741
v 0.000428029 -0.062947780 0.142687663
v 0.001277337 -0.062840894 0.142697006
v 0.000350163 -0.061780173 0.143542334
v 0.001044965 -0.061692733 0.143549994
v 0.002106500 -0.062628813 0.142715558
v 0.001723288 -0.061519235 0.143565163
v 0.002902442 -0.062314875 0.142743036
v 0.002374434 -0.061262406 0.143587634
v 0.004204914 -0.064805627 0.139454409
v 0.005291722 -0.064210422 0.139506474
v 0.003824404 -0.064099498 0.140661240
v 0.003388127 -0.063265190 0.141762793
v 0.004263827 -0.062785603 0.141804755
v 0.004812866 -0.063558154 0.140708596
v 0.005725424 -0.062897660 0.140766382
v 0.005072284 -0.062200461 0.141855955
v 0.005800747 -0.061518990 0.141915575
v 0.003652612 -0.061904036 0.142778978
v 0.004345177 -0.061402772 0.142822832
v 0.001043512 -0.061018996 0.137878373
v 0.000309785 -0.060530066 0.138558879
v 0.000265378 -0.059875205 0.139172360
v 0.000924471 -0.060452703 0.138565645
v 0.000791949 -0.059808936 0.139178157
v 0.001306030 -0.059677448 0.139189661
v 0.001720891 -0.060845740 0.137893543
v 0.002607047 -0.061027072 0.137167752
v 0.002371131 -0.060589273 0.137915984
v 0.001524576 -0.060299214 0.138579071
v 0.002100639 -0.060072001 0.138598949
v 0.002983977 -0.060253639 0.137945339
v 0.002643573 -0.059774656 0.138624966
v 0.001799514 -0.059482805 0.139206693
v 0.002264619 -0.059228085 0.139228985
v 0.002694010 -0.058917303 0.139256164
v 0.003529916 -0.060981978 0.136399895
v 0.004434253 -0.060709175 0.135601342
v 0.004707857 -0.060886864 0.133837670
v 0.004604628 -0.060839582 0.134728909
v 0.005383983 -0.060254358 0.133893013
v 0.005975200 -0.059542418 0.133955300
v 0.005265929 -0.060220942 0.134783030
v 0.005844183 -0.059524611 0.134843960
v 0.005071085 -0.060113426 0.135653466
v 0.005627944 -0.059442859 0.135712132
v 0.003280868 -0.060658045 0.137200028
v 0.004199217 -0.060497548 0.136442259
v 0.003902947 -0.060207795 0.137239426
v 0.004463475 -0.059683427 0.137285292
v 0.003549763 -0.059844133 0.137981176
v 0.003144816 -0.059411868 0.138656706
v 0.003596463 -0.058989357 0.138693675
v 0.003080914 -0.058555357 0.139287829
v 0.003419231 -0.058147959 0.139323473
v 0.004059568 -0.059367217 0.138022885
v 0.003991392 -0.058513787 0.138735265
v 0.004323375 -0.057992656 0.138780862
v 0.004802295 -0.059933379 0.136491627
v 0.004953611 -0.059093207 0.137336940
v 0.005329636 -0.059298355 0.136547193
v 0.005772927 -0.058602501 0.136608064
v 0.005365625 -0.058446448 0.137393519
v 0.004505351 -0.058830410 0.138069868
v 0.004880082 -0.058242176 0.138121322
v 0.003703624 -0.057701532 0.139362529
v 0.003929609 -0.057223115 0.139404386
v 0.005693022 -0.057753343 0.137454152
v 0.005930635 -0.057024829 0.137517899
v 0.005177851 -0.057611790 0.138176471
v 0.004587175 -0.057434183 0.138829723
v 0.004778633 -0.056847177 0.138881087
v 0.005393962 -0.056949198 0.138234437
v 0.004894729 -0.056240898 0.138934121
v 0.004933632 -0.055624902 0.138988018
v 0.004894729 -0.055008911 0.139041916
v 0.005525007 -0.056264851 0.138294309
v 0.005568920 -0.055569537 0.138355136
v 0.005525007 -0.054874219 0.138415977
v 0.000217101 -0.059151292 0.139702260
v 0.000647878 -0.059097078 0.139707014
v 0.000165658 -0.058368877 0.140140846
v 0.000494361 -0.058327511 0.140144467
v 0.001068439 -0.058989510 0.139716417
v 0.001472149 -0.058830276 0.139730349
v 0.000815267 -0.058245428 0.140151650
v 0.001123317 -0.058123928 0.140162289
v 0.001852643 -0.058621895 0.139748588
v 0.002203919 -0.058367647 0.139770821
v 0.002520439 -0.058071546 0.139796719
v 0.000267190 -0.060518216 0.144249737
v 0.000797356 -0.060451496 0.144255579
v 0.001314947 -0.060319107 0.144267157
v 0.000180321 -0.059180301 0.144799545
v 0.000538119 -0.059135273 0.144803479
v 0.000887431 -0.059045926 0.144811302
v 0.001222748 -0.058913670 0.144822881
v 0.002988134 -0.060926307 0.143617049
v 0.001811801 -0.060123134 0.144284308
v 0.002280082 -0.059866674 0.144306749
v 0.002712404 -0.059553772 0.144334123
v 0.001538781 -0.058740590 0.144838020
v 0.001830547 -0.058529418 0.144856498
v 0.002093443 -0.058283482 0.144878015
v 0.002323325 -0.058006659 0.144902229
v 0.000111799 -0.057539370 0.140481725
v 0.000333634 -0.057511453 0.140484169
v 0.000550207 -0.057456058 0.140489012
v 0.000056310 -0.056674868 0.140719935
v 0.000168042 -0.056660809 0.140721157
v 0.000277124 -0.056632906 0.140723601
v 0.000381836 -0.056591608 0.140727207
v 0.000480526 -0.056537557 0.140731946
v 0.000571637 -0.056471612 0.140737712
v 0.001413651 -0.057964921 0.140176192
v 0.000758104 -0.057374060 0.140496194
v 0.000954044 -0.057266749 0.140505582
v 0.001134939 -0.057135820 0.140517041
v 0.001297935 -0.056983341 0.140530378
v 0.001440462 -0.056811713 0.140545398
v 0.000653734 -0.056394812 0.140744433
v 0.000725521 -0.056308366 0.140752003
v 0.000056310 -0.054891635 0.140875950
v 0.000168042 -0.054905698 0.140874714
v 0.000277124 -0.054933596 0.140872270
v 0.000725521 -0.055258136 0.140843883
v 0.000381836 -0.054974895 0.140868664
v 0.000480526 -0.055028945 0.140863925
v 0.000653734 -0.055171691 0.140851438
v 0.000571637 -0.055094890 0.140858158
v 0.000785866 -0.056213640 0.140760288
v 0.000833817 -0.056112129 0.140769169
v 0.000868619 -0.056005426 0.140778497
v 0.000889721 -0.055895220 0.140788138
v 0.000896793 -0.055783253 0.140797928
v 0.000889721 -0.055671282 0.140807733
v 0.000833817 -0.055454377 0.140826717
v 0.000868619 -0.055561077 0.140817374
v 0.000785866 -0.055352863 0.140835598
v 0.001681690 -0.057770923 0.140193164
v 0.001923209 -0.057544980 0.140212923
v 0.002134397 -0.057290673 0.140235186
v 0.001560272 -0.056623638 0.140561849
v 0.001655475 -0.056422092 0.140579477
v 0.002797209 -0.057738263 0.139825881
v 0.002311925 -0.057011999 0.140259564
v 0.002452992 -0.056713354 0.140285701
v 0.001724571 -0.056210246 0.140598014
v 0.001766469 -0.055991445 0.140617162
v 0.001780508 -0.055769138 0.140636608
v 0.001766469 -0.055546828 0.140656054
v 0.001724571 -0.055328030 0.140675202
v 0.001655475 -0.055116184 0.140693724
v 0.001560272 -0.054914635 0.140711367
v 0.002555375 -0.056399453 0.140313148
v 0.002617457 -0.056075245 0.140341520
v 0.002638260 -0.055745844 0.140370339
v 0.002617457 -0.055416439 0.140399158
v 0.002555375 -0.055092227 0.140427515
v 0.000090823 -0.057785947 0.145183742
v 0.000271036 -0.057763267 0.145185724
v 0.000446975 -0.057718266 0.145189658
v 0.000615864 -0.057651650 0.145195484
v 0.000775041 -0.057564475 0.145203114
v 0.000921996 -0.057458114 0.145212427
v 0.001054410 -0.057334241 0.145223260
v 0.001170195 -0.057194814 0.145235464
v 0.001267525 -0.057042029 0.145248830
v 0.001344866 -0.056878299 0.145263150
v 0.001400998 -0.056706198 0.145278201
v 0.001435035 -0.056528449 0.145293757
v 0.000090823 -0.054909762 0.145435378
v 0.000271036 -0.054932442 0.145433396
v 0.000446975 -0.054977443 0.145429447
v 0.000615864 -0.055044055 0.145423621
v 0.001446440 -0.056347854 0.145309553
v 0.001435035 -0.056167256 0.145325363
v 0.001267525 -0.055653676 0.145370290
v 0.001400998 -0.055989508 0.145340905
v 0.001344866 -0.055817410 0.145355970
v 0.001054410 -0.055361465 0.145395860
v 0.000775041 -0.055131231 0.145415992
v 0.000921996 -0.055237591 0.145406693
v 0.001170195 -0.055500891 0.145383656
v 0.002516567 -0.057703316 0.144928768
v 0.002670121 -0.057378240 0.144957200
v 0.002781566 -0.057036556 0.144987106
v 0.002849143 -0.056683648 0.145017982
v 0.002871788 -0.056325089 0.145049348
v 0.002849143 -0.055966526 0.145080715
v 0.002516567 -0.054946858 0.145169929
v 0.002781566 -0.055613622 0.145111591
v 0.002670121 -0.055271935 0.145141482
v 0.003554708 -0.060516234 0.143652916
v 0.004065224 -0.060038652 0.143694699
v 0.003101950 -0.059189353 0.144365996
v 0.003442577 -0.058779176 0.144401893
v 0.003728912 -0.058329701 0.144441217
v 0.004969216 -0.060818989 0.142873898
v 0.005514889 -0.060161896 0.142931387
v 0.004511627 -0.059501097 0.143741727
v 0.004886880 -0.058912043 0.143793270
v 0.005185064 -0.058280781 0.143848494
v 0.005973587 -0.059441853 0.142994389
v 0.003029866 -0.057373051 0.139857844
v 0.003214740 -0.056981668 0.139892071
v 0.003348915 -0.056570288 0.139928073
v 0.004093622 -0.056720261 0.139448375
v 0.003430277 -0.056145400 0.139965236
v 0.003457540 -0.055713706 0.140003011
v 0.003430277 -0.055282008 0.140040785
v 0.004193075 -0.056200888 0.139493823
v 0.004226402 -0.055673197 0.139539987
v 0.004193075 -0.055145502 0.139586151
v 0.003956439 -0.057848018 0.144483358
v 0.004121572 -0.057341728 0.144527644
v 0.004221705 -0.056818809 0.144573390
v 0.004255258 -0.056287516 0.144619882
v 0.004221705 -0.055756219 0.144666359
v 0.004121572 -0.055233300 0.144712105
v 0.005401476 -0.057617266 0.143906549
v 0.005532704 -0.056931965 0.143966496
v 0.005576678 -0.056235682 0.144027427
v 0.005532704 -0.055539396 0.144088343
v 0.006383040 -0.065455467 0.134006694
v 0.006243080 -0.065359987 0.135445848
v 0.007426819 -0.064503223 0.135520801
v 0.007593317 -0.064579487 0.134083331
v 0.006012081 -0.065117955 0.136855781
v 0.007152021 -0.064292893 0.136927962
v 0.008683844 -0.063559316 0.134172589
v 0.008493434 -0.063505419 0.135608092
v 0.006772931 -0.063951559 0.138284281
v 0.008179170 -0.063332006 0.137012020
v 0.007745636 -0.063041605 0.138363898
v 0.008596187 -0.062017377 0.138453513
v 0.009637420 -0.062411025 0.134273052
v 0.010439009 -0.061152730 0.134383142
v 0.009426101 -0.062382303 0.135706365
v 0.010210114 -0.061151601 0.135814026
v 0.009077328 -0.062250447 0.137106642
v 0.006295076 -0.063484214 0.139570013
v 0.007199153 -0.062638462 0.139644012
v 0.006547690 -0.062128443 0.140833676
v 0.007266695 -0.061262622 0.140909433
v 0.007989695 -0.061686493 0.139727294
v 0.006472186 -0.058762275 0.134023562
v 0.006330270 -0.058761574 0.134910703
v 0.006096046 -0.058708057 0.135776415
v 0.006867100 -0.057926230 0.134096697
v 0.007153717 -0.057047475 0.134173587
v 0.006716526 -0.057943862 0.134982258
v 0.006468009 -0.057920601 0.135845318
v 0.006737969 -0.057092912 0.135917723
v 0.006996858 -0.057084374 0.135057449
v 0.007327515 -0.056139860 0.134252995
v 0.007440000 -0.055139542 0.133440286
v 0.007385754 -0.055217702 0.134333670
v 0.007166845 -0.056196660 0.135135114
v 0.006901667 -0.056238044 0.135992512
v 0.007223807 -0.055294722 0.135214031
v 0.006956521 -0.055369481 0.136068508
v 0.006125175 -0.057856783 0.136673301
v 0.006380825 -0.057072967 0.136741892
v 0.006535846 -0.056263413 0.136812717
v 0.006074718 -0.056272391 0.137583718
v 0.006587793 -0.055440884 0.136884674
v 0.006123000 -0.055507895 0.137650609
v 0.011075969 -0.059804272 0.134501114
v 0.010833106 -0.059832711 0.135929421
v 0.011538253 -0.058386922 0.134625122
v 0.011285255 -0.058446437 0.136050701
v 0.009832332 -0.061065279 0.137210339
v 0.010432273 -0.059795190 0.137321457
v 0.009311172 -0.060895029 0.138551697
v 0.009879314 -0.059692260 0.138656929
v 0.010291654 -0.058428042 0.138767540
v 0.010867692 -0.058460210 0.137438253
v 0.011818573 -0.056923028 0.134753197
v 0.011559428 -0.057014640 0.136175960
v 0.012000000 -0.055309609 0.133442387
v 0.011912506 -0.055435676 0.134883314
v 0.011651302 -0.055559903 0.136303246
v 0.011131721 -0.057081390 0.137558877
v 0.010541688 -0.057122305 0.138881773
v 0.011220195 -0.055680480 0.137681454
v 0.010625472 -0.055795647 0.138997838
v 0.006437730 -0.060751941 0.141982675
v 0.006973186 -0.059911408 0.142056212
v 0.007398670 -0.059010647 0.142135024
v 0.008654235 -0.060643334 0.139818549
v 0.007871100 -0.060313858 0.140992433
v 0.007707473 -0.058063865 0.142217860
v 0.008351373 -0.059297107 0.141081393
v 0.008699939 -0.058228415 0.141174883
v 0.006338079 -0.058670215 0.143061891
v 0.007894725 -0.057085995 0.142303407
v 0.008911302 -0.057124626 0.141271457
v 0.007957472 -0.056092452 0.142390326
v 0.008982129 -0.056003150 0.141369566
v 0.008911302 -0.054881673 0.141467690
v 0.006602616 -0.057859156 0.143132851
v 0.006763025 -0.057021461 0.143206149
v 0.006816777 -0.056170344 0.143280610
v 0.006763025 -0.055319224 0.143355072
v 0.007894725 -0.055098914 0.142477259
v 0.009182293 -0.059525423 0.139916360
v 0.009565540 -0.058350399 0.140019163
v 0.009797933 -0.057136789 0.140125334
v 0.009875806 -0.055903729 0.140233219
v 0.005377594 -0.049423199 0.127094358
v 0.000666916 -0.047163285 0.127292067
v 0.001979314 -0.047400545 0.127271309
v 0.001075672 -0.042444684 0.123525895
v 0.003228095 -0.047867440 0.127230465
v 0.004373122 -0.048548955 0.127170831
v 0.003192442 -0.042827360 0.123492420
v 0.005206605 -0.043580413 0.123426534
v 0.007432509 -0.054212615 0.126675338
v 0.007253463 -0.052895881 0.126790538
v 0.006209225 -0.050462060 0.127003461
v 0.006841287 -0.051632158 0.126901090
v 0.011987917 -0.053814568 0.122531161
v 0.011699134 -0.051690806 0.122716971
v 0.011034333 -0.049652543 0.122895293
v 0.008673538 -0.046089701 0.123207003
v 0.007053423 -0.044679634 0.123330362
v 0.010014879 -0.047765289 0.123060405
v 0.000309785 -0.050719742 0.139417157
v 0.000924471 -0.050797101 0.139410406
v 0.000413651 -0.048891108 0.137457699
v 0.001234429 -0.048994407 0.137448668
v 0.000349675 -0.050032753 0.138839558
v 0.000384466 -0.049420230 0.138183206
v 0.001147336 -0.049516238 0.138174817
v 0.001043512 -0.050120071 0.138831913
v 0.002100639 -0.051177807 0.139377087
v 0.001524576 -0.050950594 0.139396966
v 0.001720891 -0.050293334 0.138816759
v 0.002643573 -0.051475152 0.139351070
v 0.002371131 -0.050549798 0.138794318
v 0.002983977 -0.050885431 0.138764948
v 0.002149683 -0.048778612 0.136645138
v 0.002035740 -0.049199365 0.137430742
v 0.002804946 -0.049502753 0.137404189
v 0.002961942 -0.049098983 0.136617109
v 0.001892111 -0.049706735 0.138158143
v 0.002607047 -0.049988724 0.138133466
v 0.003144816 -0.051837940 0.139319330
v 0.003596463 -0.052260451 0.139282376
v 0.003991392 -0.052736022 0.139240757
v 0.004323375 -0.053257152 0.139195159
v 0.004059568 -0.051771853 0.138687402
v 0.005930635 -0.053990960 0.137783319
v 0.004778633 -0.054402627 0.139094949
v 0.005177851 -0.053527281 0.138533816
v 0.004587175 -0.053815626 0.139146313
v 0.005393962 -0.054189872 0.138475850
v 0.005365625 -0.052569341 0.137907699
v 0.005693022 -0.053262446 0.137847066
v 0.005772927 -0.052279267 0.137161285
v 0.004880082 -0.052896895 0.138588980
v 0.004505351 -0.052308664 0.138640434
v 0.004953611 -0.051922582 0.137964278
v 0.003986551 -0.048881646 0.133987784
v 0.004364493 -0.049155191 0.133963853
v 0.003957485 -0.049005430 0.134877175
v 0.003075748 -0.048783299 0.135783687
v 0.003870710 -0.049218670 0.135745615
v 0.005975200 -0.050892983 0.134712026
v 0.005844183 -0.051064834 0.135584086
v 0.005627944 -0.051296100 0.136424884
v 0.005265929 -0.050368503 0.135645017
v 0.004707857 -0.049548533 0.134829655
v 0.004742434 -0.049428735 0.133939922
v 0.005374928 -0.050020427 0.133888155
v 0.005423526 -0.050065890 0.133884177
v 0.005383983 -0.050181042 0.134774312
v 0.004604628 -0.049749862 0.135699138
v 0.004199217 -0.050384220 0.137327075
v 0.003549763 -0.051294938 0.138729125
v 0.003280868 -0.050357748 0.138101190
v 0.004463475 -0.051332362 0.138015911
v 0.003902947 -0.050807998 0.138061792
v 0.003727490 -0.049518246 0.136580423
v 0.003529916 -0.049899794 0.137369454
v 0.004434253 -0.050029784 0.136535674
v 0.005071085 -0.050625537 0.136483550
v 0.004802295 -0.050948389 0.137277707
v 0.005329636 -0.051583413 0.137222156
v 0.000111799 -0.053998906 0.140791491
v 0.000333634 -0.054026820 0.140789032
v 0.000550207 -0.054082219 0.140784204
v 0.000758104 -0.054164216 0.140777022
v 0.000954044 -0.054271527 0.140767634
v 0.001297935 -0.054554932 0.140742838
v 0.001440462 -0.054726563 0.140727818
v 0.001134939 -0.054402452 0.140756175
v 0.001123317 -0.053367756 0.140578389
v 0.001413651 -0.053526763 0.140564486
v 0.000165658 -0.053122807 0.140599817
v 0.000494361 -0.053164173 0.140596211
v 0.000217101 -0.052276120 0.140303761
v 0.000647878 -0.052330330 0.140299022
v 0.000815267 -0.053246252 0.140589014
v 0.001472149 -0.052597135 0.140275672
v 0.001068439 -0.052437901 0.140289605
v 0.002134397 -0.054201011 0.140505493
v 0.001681690 -0.053720761 0.140547514
v 0.001923209 -0.053946700 0.140527740
v 0.002311925 -0.054479685 0.140481114
v 0.002452992 -0.054778330 0.140454978
v 0.002797209 -0.053689145 0.140180141
v 0.002520439 -0.053355861 0.140209302
v 0.001852643 -0.052805517 0.140257448
v 0.002203919 -0.053059760 0.140235201
v 0.001799514 -0.051863585 0.139873281
v 0.002264619 -0.052118305 0.139851004
v 0.002694010 -0.052429087 0.139823809
v 0.000180321 -0.053469874 0.145299152
v 0.000538119 -0.053514902 0.145295203
v 0.000887431 -0.053604249 0.145287395
v 0.001222748 -0.053736504 0.145275816
v 0.000267190 -0.052056812 0.144990012
v 0.000797356 -0.052123532 0.144984186
v 0.001314947 -0.052255921 0.144972593
v 0.001830547 -0.054120757 0.145242199
v 0.002093443 -0.054366693 0.145220682
v 0.001538781 -0.053909585 0.145260677
v 0.002323325 -0.054643515 0.145196468
v 0.001811801 -0.052451894 0.144955456
v 0.002280082 -0.052708354 0.144933015
v 0.002712404 -0.053021256 0.144905642
v 0.000265378 -0.051471185 0.139907613
v 0.000791949 -0.051537454 0.139901817
v 0.001306030 -0.051668942 0.139890313
v 0.000350163 -0.050691187 0.144512504
v 0.001044965 -0.050778627 0.144504845
v 0.000428029 -0.049392905 0.143873557
v 0.001277337 -0.049499791 0.143864200
v 0.001723288 -0.050952125 0.144489676
v 0.002374434 -0.051208954 0.144467205
v 0.002988134 -0.051545054 0.144437790
v 0.002106500 -0.049711872 0.143845648
v 0.002902442 -0.050025810 0.143818185
v 0.003348915 -0.054857120 0.140077949
v 0.003214740 -0.054445744 0.140113950
v 0.003029866 -0.054054361 0.140148178
v 0.003703624 -0.053644858 0.139717445
v 0.004093622 -0.054626130 0.139631599
v 0.003929609 -0.054123275 0.139675587
v 0.003080914 -0.052791033 0.139792144
v 0.003419231 -0.053198431 0.139756501
v 0.003728912 -0.054245327 0.144798547
v 0.003101950 -0.053385675 0.144873753
v 0.003442577 -0.053795852 0.144837871
v 0.003956439 -0.054727010 0.144756407
v 0.003554708 -0.051955126 0.144401923
v 0.004065224 -0.052432708 0.144360140
v 0.005185064 -0.054190580 0.144206345
v 0.004886880 -0.053559318 0.144261569
v 0.005401476 -0.054854095 0.144148290
v 0.005973587 -0.052898832 0.143566832
v 0.005514889 -0.052178789 0.143629819
v 0.004511627 -0.052970264 0.144313112
v 0.005725424 -0.049108636 0.141972765
v 0.003652612 -0.050436649 0.143782243
v 0.004345177 -0.050937913 0.143738389
v 0.003388127 -0.048919715 0.143017858
v 0.004263827 -0.049399305 0.142975911
v 0.004969216 -0.051521696 0.143687308
v 0.005800747 -0.050665919 0.142865092
v 0.005072284 -0.049984448 0.142924711
v 0.000467161 -0.047742479 0.134087443
v 0.000665677 -0.047767460 0.134085268
v 0.001394117 -0.047859132 0.134077251
v 0.000453587 -0.048112605 0.135842383
v 0.000463755 -0.047874570 0.134976104
v 0.001383952 -0.047990374 0.134965971
v 0.001353606 -0.048225872 0.135832459
v 0.001975961 -0.048007958 0.134064212
v 0.002299086 -0.048090603 0.134057000
v 0.002232279 -0.048450615 0.135812804
v 0.002282324 -0.048220161 0.134945869
v 0.000436804 -0.048453107 0.136673614
v 0.001303522 -0.048562180 0.136664063
v 0.000753486 -0.043378863 0.134486184
v 0.001073673 -0.043419156 0.134482667
v 0.000747992 -0.043591917 0.135919511
v 0.002248576 -0.043567017 0.134469733
v 0.002232181 -0.043778699 0.135903165
v 0.000704522 -0.044525038 0.138657421
v 0.000731591 -0.043975841 0.137316719
v 0.002183236 -0.044158529 0.137300730
v 0.002102455 -0.044700965 0.138642028
v 0.003167798 -0.048433244 0.134027019
v 0.003226219 -0.048465241 0.134024218
v 0.003144701 -0.048560303 0.134916112
v 0.004777327 -0.045566775 0.138566285
v 0.003681167 -0.044149321 0.135870740
v 0.003187034 -0.043807056 0.134448722
v 0.003708204 -0.043940358 0.134437069
v 0.005109352 -0.044493001 0.134388715
v 0.005203579 -0.044544607 0.134384200
v 0.005072099 -0.044697933 0.135822743
v 0.003600450 -0.044521023 0.137269020
v 0.003467231 -0.045050047 0.138611495
v 0.004960883 -0.045057606 0.137222067
v 0.000563993 -0.047072858 0.142150879
v 0.000620107 -0.046084918 0.141092256
v 0.001683083 -0.047213692 0.142138556
v 0.002775630 -0.047493145 0.142114103
v 0.001850542 -0.046239767 0.141078711
v 0.000499654 -0.048180904 0.143082500
v 0.001491082 -0.048305675 0.143071592
v 0.002458994 -0.048553247 0.143049926
v 0.000667179 -0.045231495 0.139922082
v 0.001991015 -0.045398101 0.139907509
v 0.003824404 -0.047906801 0.142077908
v 0.003283452 -0.045728680 0.139878586
v 0.003051792 -0.046547022 0.141051829
v 0.004204914 -0.047001839 0.141012028
v 0.004812866 -0.048448145 0.142030552
v 0.005291722 -0.047597043 0.140959963
v 0.004524106 -0.046218019 0.139835775
v 0.005693413 -0.046858404 0.139779747
v 0.007419053 -0.054807857 0.133469313
v 0.007381334 -0.054210611 0.133521557
v 0.007327515 -0.054295544 0.134414345
v 0.007243752 -0.053492129 0.133584410
v 0.007153717 -0.053387929 0.134493753
v 0.006737969 -0.053646047 0.136219293
v 0.007166845 -0.054392785 0.135292932
v 0.006901667 -0.054500915 0.136144504
v 0.006996858 -0.053505071 0.135370597
v 0.007206259 -0.053296328 0.133601546
v 0.006917537 -0.052411117 0.133678988
v 0.006832341 -0.052230753 0.133694768
v 0.006867100 -0.052509170 0.134570628
v 0.006716526 -0.052645579 0.135445789
v 0.006468009 -0.052818358 0.136291698
v 0.006330270 -0.051827870 0.135517329
v 0.006096046 -0.052030902 0.136360601
v 0.006535846 -0.054618359 0.136956632
v 0.006074718 -0.054743402 0.137717500
v 0.006380825 -0.053808801 0.137027457
v 0.006125175 -0.053024985 0.137096033
v 0.006197841 -0.051063661 0.133796886
v 0.006519722 -0.051568933 0.133752674
v 0.006472186 -0.051673125 0.134643778
v 0.006019087 -0.050783057 0.133821428
v 0.011966214 -0.054774638 0.133489192
v 0.011905377 -0.053811334 0.133573458
v 0.011559428 -0.054105163 0.136430517
v 0.011818573 -0.053948324 0.135013446
v 0.011683472 -0.052652497 0.133674845
v 0.011622998 -0.052336685 0.133702472
v 0.011538253 -0.052484427 0.135141522
v 0.010291654 -0.053163256 0.139228135
v 0.009879314 -0.051899035 0.139338747
v 0.011131721 -0.054279566 0.137804016
v 0.010541688 -0.054468993 0.139113903
v 0.010867692 -0.052900750 0.137924641
v 0.011285255 -0.052673366 0.136555776
v 0.009996518 -0.048735607 0.134017527
v 0.010439009 -0.049718618 0.135383502
v 0.011019905 -0.050618019 0.133852839
v 0.011157318 -0.050908923 0.133827388
v 0.011075969 -0.051067077 0.135265514
v 0.010515681 -0.049550563 0.133946240
v 0.010432273 -0.051565766 0.138041437
v 0.009832332 -0.050295677 0.138152555
v 0.009426101 -0.048737500 0.136900127
v 0.010210114 -0.049968205 0.136792451
v 0.009077328 -0.049110509 0.138256252
v 0.010833106 -0.051287092 0.136677057
v 0.008699939 -0.053777885 0.141564265
v 0.008351373 -0.052709188 0.141657755
v 0.006602616 -0.054481529 0.143428355
v 0.006338079 -0.053670470 0.143499315
v 0.007398670 -0.053174261 0.142645642
v 0.006973186 -0.052273501 0.142724440
v 0.007707473 -0.054121040 0.142562807
v 0.007266695 -0.050743677 0.141829714
v 0.007199153 -0.049169000 0.140822425
v 0.006547690 -0.049877856 0.141905472
v 0.008654235 -0.051164128 0.140647873
v 0.007871100 -0.051692441 0.141746715
v 0.007989695 -0.050120965 0.140739143
v 0.008596187 -0.049573921 0.139542162
v 0.006437730 -0.051432967 0.142797977
v 0.009565540 -0.053457063 0.140447274
v 0.009797933 -0.054670673 0.140341103
v 0.009182293 -0.052282039 0.140550077
v 0.009311172 -0.050696269 0.139443979
v 0.007039505 -0.045657434 0.134286836
v 0.008747623 -0.047126304 0.134158328
v 0.008683844 -0.047312032 0.135594040
v 0.007649088 -0.046098635 0.134248242
v 0.008669239 -0.047052976 0.134164751
v 0.007593317 -0.046291858 0.135683298
v 0.006243080 -0.045759816 0.137160644
v 0.007426819 -0.046616580 0.137085676
v 0.006012081 -0.046243005 0.138507113
v 0.007152021 -0.047068067 0.138434932
v 0.008493434 -0.047614388 0.136998385
v 0.008179170 -0.048028957 0.138350874
v 0.006429921 -0.045216229 0.134325445
v 0.006383040 -0.045415886 0.135759935
v 0.009708204 -0.048283026 0.134057134
v 0.009637420 -0.048460323 0.135493577
v 0.006295076 -0.048323248 0.140896425
v 0.006772931 -0.047639735 0.139711395
v 0.007745636 -0.048549689 0.139631778
f 1 3 10
f 2 7 3
f 1 10 4
f 1 5 17
f 1 4 5
f 5 62 17
f 4 62 5
f 2 9 8
f 2 8 7
f 6 7 66
f 7 8 67
f 8 9 67
f 3 6 10
f 3 7 6
f 6 72 10
f 4 10 72
f 11 19 12
f 1 17 11
f 12 21 13
f 13 95 421
f 11 17 18
f 11 18 19
f 12 19 20
f 12 20 21
f 17 61 18
f 13 21 22
f 13 22 23
f 13 23 95
f 2 32 38
f 32 33 40
f 33 34 46
f 32 39 38
f 2 38 9
f 32 40 39
f 9 38 147
f 38 39 147
f 39 40 149
f 39 149 147
f 40 162 149
f 33 44 40
f 33 45 44
f 33 46 45
f 34 47 46
f 40 44 162
f 44 45 162
f 45 164 162
f 45 46 164
f 46 47 164
f 47 781 164
f 1 11 1146
f 1 1146 3
f 32 1146 33
f 2 3 1146
f 2 1146 32
f 4 72 62
f 62 73 64
f 61 62 64
f 17 62 61
f 61 64 63
f 63 64 65
f 63 65 88
f 65 76 88
f 76 91 88
f 66 68 72
f 7 67 66
f 66 67 69
f 66 69 68
f 68 71 70
f 68 69 71
f 70 152 77
f 70 71 152
f 62 72 73
f 6 66 72
f 64 73 74
f 68 73 72
f 68 70 73
f 64 74 65
f 65 74 75
f 70 74 73
f 74 77 75
f 65 75 76
f 76 78 91
f 78 128 91
f 76 79 78
f 75 79 76
f 70 77 74
f 75 77 80
f 75 80 79
f 77 190 80
f 78 81 128
f 79 80 192
f 78 79 82
f 78 82 81
f 79 192 82
f 81 82 194
f 81 194 134
f 18 61 83
f 61 63 83
f 18 83 19
f 63 84 83
f 20 83 85
f 20 85 21
f 19 83 20
f 83 84 85
f 84 86 85
f 84 89 86
f 63 88 84
f 86 89 87
f 86 87 94
f 87 92 98
f 88 91 89
f 84 88 89
f 89 91 90
f 90 91 128
f 87 89 90
f 87 90 92
f 90 124 92
f 92 125 99
f 21 85 22
f 22 85 93
f 22 93 23
f 85 86 93
f 86 94 93
f 93 94 96
f 23 93 95
f 93 96 95
f 95 96 439
f 94 97 96
f 96 97 442
f 94 98 97
f 87 98 94
f 92 99 98
f 98 99 100
f 97 98 100
f 97 100 441
f 99 101 100
f 100 101 446
f 99 126 101
f 90 128 124
f 92 124 125
f 124 130 125
f 99 125 126
f 125 131 126
f 126 131 137
f 126 137 127
f 101 126 127
f 101 127 447
f 127 489 447
f 127 139 489
f 127 137 139
f 139 140 489
f 124 128 129
f 124 129 130
f 81 129 128
f 129 133 130
f 125 130 131
f 130 135 131
f 130 133 135
f 131 135 132
f 81 134 129
f 129 134 133
f 133 134 274
f 133 276 135
f 133 274 276
f 132 135 136
f 132 136 144
f 135 276 136
f 136 279 144
f 131 132 137
f 137 138 139
f 132 138 137
f 138 141 139
f 139 141 140
f 140 141 142
f 138 143 141
f 141 145 142
f 132 144 138
f 138 144 143
f 141 143 145
f 143 144 295
f 143 296 145
f 142 145 146
f 145 297 146
f 146 298 496
f 9 147 67
f 67 147 148
f 147 150 148
f 69 148 151
f 67 148 69
f 69 151 71
f 147 149 150
f 149 163 150
f 148 154 151
f 148 150 154
f 150 166 154
f 71 153 152
f 71 151 153
f 77 152 190
f 152 153 191
f 152 191 190
f 151 154 155
f 151 155 153
f 153 156 191
f 153 155 156
f 149 162 163
f 162 165 163
f 150 163 166
f 163 169 166
f 162 164 165
f 164 782 165
f 163 165 169
f 165 785 169
f 154 167 155
f 154 166 167
f 166 170 167
f 155 167 168
f 155 168 156
f 166 169 170
f 169 786 170
f 167 170 171
f 167 171 168
f 170 787 171
f 190 191 196
f 156 201 191
f 191 201 196
f 80 190 193
f 80 193 192
f 190 196 193
f 192 193 197
f 192 197 195
f 82 192 195
f 82 195 194
f 194 195 199
f 193 196 198
f 193 198 197
f 196 201 204
f 196 204 198
f 197 198 208
f 195 197 200
f 194 199 275
f 195 200 199
f 197 208 200
f 199 200 316
f 200 209 316
f 156 202 201
f 156 168 202
f 201 202 205
f 168 171 203
f 168 203 202
f 171 824 203
f 202 206 205
f 202 203 206
f 203 827 206
f 198 204 207
f 198 207 208
f 201 205 204
f 204 205 211
f 204 211 207
f 205 206 212
f 205 212 211
f 206 830 212
f 200 208 209
f 208 210 209
f 207 210 208
f 207 213 210
f 207 211 213
f 211 214 213
f 210 213 325
f 211 212 214
f 212 832 214
f 213 214 326
f 134 194 275
f 134 275 274
f 274 278 276
f 274 275 280
f 274 280 278
f 136 276 277
f 136 277 279
f 276 278 277
f 277 284 279
f 199 281 275
f 275 281 280
f 278 280 283
f 199 316 281
f 280 281 317
f 280 317 283
f 277 278 282
f 279 284 299
f 277 282 284
f 278 283 282
f 282 320 284
f 144 279 295
f 143 295 296
f 145 296 297
f 295 300 296
f 279 299 295
f 296 301 297
f 296 300 301
f 297 301 302
f 146 297 298
f 298 597 496
f 297 302 298
f 298 302 303
f 298 303 597
f 303 304 597
f 295 299 300
f 301 389 302
f 284 387 299
f 299 386 300
f 299 387 386
f 300 386 388
f 300 388 301
f 301 388 389
f 302 389 390
f 302 390 303
f 303 391 304
f 303 390 391
f 304 392 603
f 304 391 392
f 392 393 603
f 281 316 318
f 209 319 316
f 209 210 324
f 316 319 318
f 281 318 317
f 209 324 319
f 318 319 327
f 282 283 321
f 283 317 322
f 284 320 387
f 282 321 320
f 283 322 321
f 317 318 323
f 317 323 322
f 318 327 323
f 321 322 397
f 210 325 324
f 319 324 328
f 324 325 329
f 213 326 325
f 214 919 326
f 325 326 330
f 325 330 329
f 326 922 330
f 319 328 327
f 324 329 328
f 323 327 403
f 322 323 398
f 327 328 404
f 323 403 398
f 327 404 403
f 328 329 405
f 328 405 404
f 329 330 406
f 329 406 405
f 330 988 406
f 386 399 388
f 388 401 389
f 389 402 390
f 320 395 387
f 386 387 400
f 320 321 396
f 320 396 395
f 387 395 400
f 389 401 402
f 386 400 399
f 388 399 401
f 390 407 391
f 391 408 392
f 392 409 393
f 390 402 407
f 391 407 408
f 392 408 409
f 393 409 410
f 393 410 394
f 394 411 646
f 394 410 411
f 411 412 646
f 321 397 396
f 322 398 397
f 395 416 400
f 401 416 402
f 399 400 416
f 399 416 401
f 398 403 416
f 403 404 416
f 404 405 416
f 405 406 416
f 406 988 416
f 396 397 416
f 397 398 416
f 395 396 416
f 402 416 407
f 407 416 408
f 408 416 409
f 409 416 410
f 410 416 411
f 411 416 412
f 412 413 647
f 413 414 648
f 412 416 413
f 413 416 414
f 414 416 415
f 415 416 417
f 416 418 417
f 416 419 418
f 416 420 419
f 416 1000 420
f 421 440 422
f 422 452 423
f 423 455 428
f 12 13 1146
f 13 421 1146
f 421 422 1146
f 95 439 421
f 421 439 440
f 422 440 443
f 422 443 444
f 422 444 452
f 423 452 453
f 423 453 455
f 428 455 456
f 428 510 429
f 429 513 430
f 430 522 434
f 428 456 508
f 428 508 510
f 429 510 512
f 429 512 513
f 430 513 515
f 430 515 522
f 11 12 1146
f 422 423 1146
f 423 428 1146
f 428 429 1146
f 429 430 1146
f 434 680 435
f 430 434 1146
f 434 435 1146
f 435 438 1142
f 435 698 438
f 434 522 676
f 434 676 677
f 434 677 680
f 435 680 681
f 435 681 698
f 438 698 700
f 438 700 701
f 438 701 1315
f 439 442 440
f 96 442 439
f 440 442 443
f 97 441 442
f 441 445 442
f 442 445 443
f 443 445 444
f 444 445 452
f 441 448 445
f 445 448 454
f 100 446 441
f 441 446 448
f 101 447 446
f 446 447 449
f 447 450 449
f 446 449 448
f 448 449 458
f 449 459 458
f 449 450 459
f 450 451 459
f 445 454 452
f 452 454 453
f 453 454 457
f 448 458 454
f 454 458 457
f 453 457 455
f 457 458 461
f 455 457 456
f 456 457 509
f 457 461 509
f 461 462 509
f 458 459 461
f 459 460 461
f 451 460 459
f 451 492 460
f 460 462 461
f 460 463 462
f 460 492 463
f 463 492 502
f 463 502 517
f 502 524 517
f 447 489 450
f 450 489 490
f 140 490 489
f 140 493 490
f 450 490 451
f 451 490 491
f 490 493 491
f 451 491 492
f 491 500 492
f 140 142 493
f 493 495 494
f 142 495 493
f 494 495 498
f 491 493 494
f 491 494 500
f 494 501 500
f 494 498 501
f 498 499 501
f 142 146 495
f 146 496 495
f 495 496 498
f 496 497 498
f 496 597 497
f 497 499 498
f 497 600 499
f 499 600 507
f 492 500 502
f 500 503 502
f 500 501 503
f 501 504 503
f 502 503 524
f 503 505 524
f 499 504 501
f 504 507 506
f 503 504 505
f 504 506 505
f 506 610 609
f 505 506 526
f 506 609 526
f 499 507 504
f 506 507 610
f 456 509 508
f 508 509 510
f 462 511 509
f 509 511 510
f 510 511 512
f 512 514 513
f 511 514 512
f 511 516 514
f 513 514 515
f 514 523 515
f 514 518 523
f 462 516 511
f 462 463 516
f 463 517 516
f 516 517 518
f 517 524 520
f 517 520 518
f 514 516 518
f 520 524 525
f 518 520 519
f 518 519 523
f 519 520 521
f 520 525 521
f 521 525 709
f 515 523 522
f 522 523 676
f 505 525 524
f 505 526 525
f 525 526 709
f 497 598 600
f 497 597 598
f 598 599 600
f 304 598 597
f 598 603 599
f 599 601 600
f 507 600 601
f 601 602 611
f 599 602 601
f 602 607 611
f 304 603 598
f 599 603 604
f 599 604 602
f 602 604 605
f 393 604 603
f 394 605 604
f 602 605 607
f 607 608 613
f 606 608 607
f 605 606 607
f 606 650 608
f 608 650 663
f 609 612 708
f 507 601 610
f 601 611 610
f 610 611 612
f 611 613 612
f 609 610 612
f 612 613 615
f 612 615 708
f 607 613 611
f 613 614 615
f 608 614 613
f 608 663 614
f 614 663 666
f 614 616 615
f 615 616 711
f 614 666 616
f 393 394 604
f 394 646 605
f 606 646 647
f 605 646 606
f 606 647 650
f 412 647 646
f 413 648 647
f 647 648 650
f 648 649 651
f 649 653 652
f 648 651 650
f 651 664 663
f 650 651 663
f 649 652 651
f 651 652 664
f 652 657 665
f 414 649 648
f 415 653 649
f 414 415 649
f 415 417 653
f 417 654 653
f 417 418 654
f 418 419 655
f 419 420 656
f 418 655 654
f 419 656 655
f 420 1248 656
f 653 654 657
f 652 653 657
f 654 658 657
f 654 655 658
f 655 659 658
f 655 656 659
f 656 1252 659
f 663 664 666
f 664 667 666
f 652 665 664
f 664 665 667
f 666 667 720
f 616 666 720
f 667 721 720
f 667 670 721
f 665 670 667
f 657 668 665
f 657 658 668
f 665 668 670
f 658 669 668
f 659 1265 669
f 658 659 669
f 668 669 671
f 670 722 721
f 670 671 722
f 668 671 670
f 669 1267 671
f 519 521 682
f 521 675 682
f 521 709 675
f 675 709 710
f 675 710 684
f 676 678 677
f 677 678 680
f 523 678 676
f 519 678 523
f 678 682 679
f 678 679 680
f 679 683 699
f 679 681 680
f 679 699 681
f 519 682 678
f 675 683 682
f 679 682 683
f 683 684 703
f 675 684 683
f 681 699 698
f 698 699 700
f 699 703 702
f 699 702 700
f 700 702 701
f 701 702 1315
f 702 706 1317
f 683 703 699
f 703 704 706
f 684 712 704
f 684 704 703
f 704 723 705
f 705 1321 706
f 704 705 706
f 705 724 1320
f 702 703 706
f 526 707 709
f 526 609 707
f 609 708 707
f 707 708 713
f 707 710 709
f 707 713 710
f 615 711 708
f 708 711 713
f 616 715 711
f 711 714 713
f 711 715 714
f 684 710 712
f 710 713 712
f 712 713 714
f 715 720 716
f 712 714 723
f 714 717 723
f 717 724 723
f 714 715 717
f 715 716 717
f 717 719 724
f 716 719 717
f 716 718 719
f 718 1338 719
f 616 720 715
f 716 720 721
f 716 721 718
f 718 721 722
f 671 1342 722
f 718 722 1337
f 704 712 723
f 705 723 724
f 719 1345 724
f 34 725 729
f 725 728 731
f 728 750 739
f 34 729 47
f 725 730 729
f 725 731 730
f 47 729 781
f 729 730 781
f 730 783 781
f 730 731 783
f 731 809 783
f 728 737 731
f 728 738 737
f 728 739 738
f 739 750 753
f 731 737 809
f 737 738 809
f 738 811 809
f 738 739 811
f 739 753 811
f 33 1146 34
f 34 1146 725
f 725 1146 728
f 728 1146 750
f 750 751 754
f 751 752 757
f 752 763 759
f 750 754 753
f 751 755 754
f 753 754 1053
f 754 755 1056
f 755 756 1056
f 751 756 755
f 751 757 756
f 756 757 1059
f 757 758 1059
f 752 758 757
f 752 759 758
f 759 763 774
f 758 759 1065
f 759 774 1066
f 750 1146 751
f 751 1146 752
f 752 1146 763
f 763 764 776
f 764 765 778
f 765 1151 780
f 763 775 774
f 763 776 775
f 764 777 776
f 764 778 777
f 774 775 1066
f 765 779 778
f 765 780 779
f 780 1151 1109
f 164 781 782
f 781 784 782
f 165 782 785
f 782 788 785
f 781 783 784
f 783 810 784
f 782 784 788
f 784 813 788
f 169 785 786
f 785 789 786
f 170 786 787
f 786 790 787
f 785 788 789
f 788 814 789
f 788 813 814
f 786 789 790
f 789 814 815
f 789 815 790
f 783 809 810
f 809 812 810
f 784 810 813
f 810 816 813
f 810 812 816
f 809 811 812
f 753 1053 811
f 811 1054 812
f 811 1053 1054
f 812 1057 816
f 812 1054 1057
f 813 817 814
f 813 816 817
f 814 838 815
f 814 817 838
f 816 818 817
f 816 1057 818
f 817 818 839
f 817 839 838
f 818 1070 839
f 171 787 824
f 787 790 825
f 787 825 824
f 203 824 827
f 824 828 827
f 824 825 828
f 790 826 825
f 790 815 826
f 825 826 829
f 206 827 830
f 827 831 830
f 827 828 831
f 825 829 828
f 828 834 831
f 828 829 834
f 826 841 829
f 829 836 834
f 829 841 836
f 212 830 832
f 830 833 832
f 214 832 919
f 832 833 920
f 830 831 833
f 831 835 833
f 833 835 921
f 831 834 835
f 834 837 835
f 834 836 837
f 836 926 837
f 815 838 840
f 815 840 826
f 838 839 843
f 838 843 840
f 826 840 841
f 840 843 842
f 840 842 841
f 841 842 847
f 836 841 847
f 839 1070 844
f 839 844 843
f 842 843 845
f 843 844 845
f 842 845 848
f 844 846 845
f 845 846 1027
f 836 847 926
f 847 1022 926
f 842 848 847
f 847 848 1022
f 845 1027 848
f 832 920 919
f 326 919 922
f 919 923 922
f 919 920 923
f 920 924 923
f 833 921 920
f 920 921 924
f 921 927 925
f 330 922 988
f 922 923 989
f 922 989 988
f 923 924 990
f 923 990 989
f 924 991 990
f 921 925 924
f 924 925 991
f 925 992 991
f 925 930 992
f 930 931 993
f 835 837 927
f 837 926 928
f 835 927 921
f 837 928 927
f 927 928 930
f 926 929 928
f 925 927 930
f 928 931 930
f 929 932 931
f 931 932 994
f 928 929 931
f 929 1024 932
f 933 1024 1025
f 932 1024 933
f 933 1025 1013
f 416 988 989
f 416 989 990
f 416 990 991
f 416 991 992
f 416 992 993
f 416 993 994
f 416 994 995
f 930 993 992
f 931 994 993
f 932 995 994
f 416 995 996
f 416 996 997
f 416 997 998
f 416 998 999
f 416 1012 1009
f 416 1009 1011
f 416 1001 1000
f 416 1003 1002
f 416 1002 1001
f 416 1010 1003
f 416 1011 1010
f 416 1007 1008
f 416 999 1004
f 416 1004 1005
f 416 1005 1007
f 416 1006 1012
f 416 1008 1006
f 1009 1256 1011
f 932 933 995
f 933 996 995
f 996 1013 997
f 933 1013 996
f 997 1013 1014
f 997 1014 998
f 998 1015 999
f 999 1016 1004
f 1013 1026 1014
f 998 1014 1015
f 999 1015 1016
f 1004 1016 1017
f 1007 1020 1008
f 1004 1017 1005
f 1005 1018 1007
f 1006 1019 1012
f 1006 1008 1021
f 1009 1012 1258
f 1006 1021 1019
f 1012 1019 1258
f 1005 1017 1018
f 1007 1018 1020
f 1008 1020 1021
f 846 1116 1028
f 926 1022 929
f 1022 1023 1024
f 848 1027 1023
f 848 1023 1022
f 929 1022 1024
f 1023 1025 1024
f 1013 1025 1026
f 1023 1029 1025
f 1025 1029 1026
f 1026 1029 1030
f 1026 1030 1043
f 1027 1028 1029
f 1023 1027 1029
f 1028 1030 1029
f 846 1028 1027
f 1028 1116 1032
f 1028 1032 1030
f 1030 1032 1031
f 1031 1032 1124
f 1031 1124 1049
f 1030 1031 1043
f 1014 1026 1043
f 1015 1043 1044
f 1014 1043 1015
f 1015 1044 1016
f 1016 1045 1017
f 1016 1044 1045
f 1031 1044 1043
f 1017 1045 1046
f 1017 1046 1018
f 1018 1047 1020
f 1020 1048 1021
f 1019 1021 1285
f 1020 1047 1048
f 1021 1048 1285
f 1018 1046 1047
f 1048 1290 1285
f 1049 1130 1050
f 1050 1131 1051
f 1044 1049 1045
f 1031 1049 1044
f 1045 1050 1046
f 1045 1049 1050
f 1046 1050 1051
f 1051 1132 1052
f 1052 1133 1290
f 1046 1051 1047
f 1047 1051 1052
f 1047 1052 1048
f 1048 1052 1290
f 754 1056 1053
f 1053 1056 1055
f 1053 1055 1054
f 1054 1058 1057
f 1054 1055 1058
f 1055 1056 1060
f 818 1057 1061
f 1057 1058 1061
f 756 1059 1056
f 1056 1059 1060
f 1055 1060 1062
f 1059 1067 1060
f 1060 1067 1069
f 1058 1063 1061
f 818 1061 1070
f 1061 1071 1070
f 1061 1063 1071
f 1055 1062 1058
f 1058 1062 1063
f 1060 1069 1062
f 1062 1064 1063
f 1062 1069 1064
f 1063 1074 1071
f 1063 1064 1074
f 1064 1069 1103
f 1064 1119 1074
f 1064 1103 1119
f 758 1065 1059
f 1059 1065 1067
f 759 1066 1065
f 1065 1066 1068
f 1065 1068 1067
f 1067 1068 1101
f 1067 1101 1069
f 1069 1101 1103
f 1070 1071 1072
f 844 1070 1072
f 1071 1074 1073
f 1071 1073 1072
f 844 1072 846
f 846 1072 1116
f 1072 1073 1116
f 1073 1074 1120
f 1066 1098 1068
f 1068 1098 1102
f 775 1097 1066
f 775 776 1097
f 1066 1097 1098
f 776 777 1097
f 777 1099 1097
f 777 778 1099
f 1097 1100 1098
f 1097 1099 1100
f 1068 1102 1101
f 1101 1102 1104
f 1101 1104 1103
f 1103 1135 1119
f 1103 1104 1135
f 1102 1105 1104
f 1104 1105 1136
f 1098 1106 1102
f 1098 1100 1106
f 1102 1106 1105
f 1100 1112 1106
f 1105 1106 1113
f 778 779 1099
f 779 1107 1099
f 779 780 1107
f 1099 1108 1100
f 1099 1107 1108
f 1107 1111 1108
f 780 1109 1110
f 780 1110 1107
f 1109 1380 1110
f 1107 1110 1111
f 1110 1382 1111
f 1105 1113 1137
f 1113 1115 1138
f 1100 1108 1112
f 1108 1114 1112
f 1106 1112 1113
f 1112 1115 1113
f 1108 1111 1114
f 1111 1389 1114
f 1112 1114 1115
f 1114 1390 1115
f 1032 1116 1117
f 1073 1117 1116
f 1073 1120 1117
f 1117 1120 1118
f 1117 1118 1124
f 1074 1119 1120
f 1119 1122 1120
f 1119 1135 1122
f 1118 1120 1122
f 1122 1135 1123
f 1118 1122 1121
f 1121 1122 1123
f 1032 1117 1124
f 1049 1124 1130
f 1118 1130 1124
f 1118 1121 1130
f 1121 1123 1125
f 1123 1126 1125
f 1125 1126 1127
f 1126 1128 1127
f 1127 1128 1134
f 1128 1129 1134
f 1050 1130 1131
f 1051 1131 1132
f 1121 1131 1130
f 1121 1125 1131
f 1125 1132 1131
f 1052 1132 1133
f 1133 1407 1290
f 1127 1133 1132
f 1133 1134 1407
f 1125 1127 1132
f 1127 1134 1133
f 1104 1136 1135
f 1123 1135 1136
f 1105 1137 1136
f 1123 1136 1126
f 1126 1136 1137
f 1126 1137 1128
f 1113 1138 1137
f 1128 1137 1138
f 1129 1138 1421
f 1115 1421 1138
f 1115 1390 1421
f 1128 1138 1129
f 435 1142 1145
f 435 1145 1146
f 438 1315 1142
f 1142 1318 1145
f 1145 1331 1146
f 1142 1315 1316
f 1142 1316 1318
f 1145 1318 1329
f 1145 1329 1330
f 1145 1330 1331
f 1146 1331 1332
f 1146 1332 1436
f 763 1146 764
f 764 1146 765
f 1151 1152 1381
f 765 1146 1151
f 1146 1152 1151
f 1152 1156 1153
f 1152 1153 1385
f 1153 1156 1398
f 1109 1151 1380
f 1151 1381 1380
f 1152 1384 1381
f 1152 1385 1384
f 1156 1393 1398
f 1153 1395 1396
f 1153 1396 1385
f 1153 1398 1395
f 1146 1155 1152
f 1154 1155 1427
f 1146 1436 1155
f 1152 1155 1154
f 1152 1154 1156
f 1154 1438 1156
f 1154 1427 1428
f 1154 1428 1425
f 1155 1436 1424
f 1155 1424 1427
f 1156 1438 1393
f 1154 1425 1438
f 420 1000 1248
f 1000 1001 1249
f 1001 1002 1250
f 1000 1249 1248
f 1001 1250 1249
f 1002 1003 1251
f 1003 1010 1257
f 1002 1251 1250
f 1010 1011 1255
f 1003 1257 1251
f 1010 1255 1257
f 656 1248 1252
f 1248 1249 1253
f 1248 1253 1252
f 1249 1250 1254
f 1249 1254 1253
f 1250 1251 1259
f 1250 1259 1254
f 1253 1254 1269
f 1011 1256 1255
f 1009 1258 1256
f 1251 1257 1260
f 1255 1261 1257
f 1256 1258 1284
f 1019 1282 1258
f 1255 1256 1283
f 1255 1283 1261
f 1256 1284 1283
f 1251 1260 1259
f 1257 1261 1260
f 1254 1259 1270
f 1260 1261 1286
f 1260 1286 1271
f 1259 1260 1271
f 1252 1266 1265
f 659 1252 1265
f 1252 1253 1266
f 669 1265 1267
f 1253 1269 1266
f 1265 1266 1268
f 671 1267 1342
f 1267 1268 1343
f 1265 1268 1267
f 1266 1272 1268
f 1254 1270 1269
f 1266 1269 1272
f 1269 1273 1272
f 1259 1271 1270
f 1269 1270 1273
f 1270 1295 1273
f 1268 1344 1343
f 1268 1272 1344
f 1272 1273 1297
f 1272 1297 1344
f 1258 1282 1284
f 1019 1285 1282
f 1283 1284 1293
f 1282 1285 1288
f 1282 1289 1284
f 1284 1289 1293
f 1261 1283 1287
f 1261 1287 1286
f 1283 1293 1287
f 1286 1287 1299
f 1288 1290 1407
f 1289 1408 1291
f 1285 1290 1288
f 1282 1288 1289
f 1288 1408 1289
f 1287 1292 1299
f 1291 1292 1293
f 1289 1291 1293
f 1287 1293 1292
f 1294 1351 1298
f 1294 1301 1414
f 1295 1296 1301
f 1270 1271 1295
f 1271 1286 1296
f 1271 1296 1295
f 1286 1299 1296
f 1273 1295 1298
f 1273 1298 1297
f 1295 1301 1298
f 1297 1298 1351
f 1296 1299 1300
f 1296 1300 1301
f 1299 1419 1300
f 1292 1419 1299
f 1294 1298 1301
f 1300 1414 1301
f 702 1317 1315
f 1315 1317 1316
f 1316 1317 1319
f 1317 1321 1319
f 1319 1322 1328
f 1316 1319 1318
f 1318 1319 1329
f 1320 1322 1321
f 705 1320 1321
f 1320 1345 1323
f 706 1321 1317
f 1322 1323 1334
f 1320 1323 1322
f 1323 1346 1335
f 1319 1321 1322
f 1327 1348 1353
f 1327 1353 1432
f 1353 1354 1432
f 1327 1432 1430
f 1328 1331 1330
f 1328 1334 1333
f 1328 1330 1329
f 1319 1328 1329
f 1331 1333 1332
f 1328 1333 1331
f 1332 1333 1437
f 1333 1336 1437
f 1322 1334 1328
f 1334 1335 1336
f 1323 1335 1334
f 1327 1336 1335
f 1327 1335 1348
f 1333 1334 1336
f 1336 1430 1437
f 1327 1430 1336
f 719 1338 1345
f 1338 1346 1345
f 1338 1341 1346
f 718 1337 1338
f 1337 1341 1338
f 1337 1339 1341
f 1341 1348 1346
f 1341 1349 1348
f 1339 1349 1341
f 1339 1340 1349
f 722 1342 1337
f 1339 1342 1343
f 1267 1343 1342
f 1337 1342 1339
f 1340 1343 1344
f 1339 1343 1340
f 724 1345 1320
f 1323 1345 1346
f 1335 1346 1348
f 1340 1344 1347
f 1340 1347 1350
f 1297 1351 1347
f 1347 1352 1350
f 1348 1349 1353
f 1349 1350 1353
f 1340 1350 1349
f 1350 1352 1354
f 1352 1441 1354
f 1347 1351 1352
f 1294 1440 1351
f 1351 1440 1352
f 1350 1354 1353
f 1297 1347 1344
f 1403 1442 1418
f 1380 1381 1383
f 1110 1380 1383
f 1381 1384 1383
f 1110 1383 1382
f 1382 1383 1392
f 1383 1384 1386
f 1384 1385 1386
f 1385 1397 1386
f 1386 1404 1392
f 1383 1386 1392
f 1387 1391 1388
f 1388 1391 1399
f 1382 1391 1389
f 1111 1382 1389
f 1114 1389 1390
f 1387 1389 1391
f 1387 1390 1389
f 1382 1392 1391
f 1392 1404 1399
f 1391 1392 1399
f 1393 1394 1398
f 1394 1401 1402
f 1393 1439 1394
f 1394 1439 1401
f 1394 1397 1395
f 1395 1397 1396
f 1385 1396 1397
f 1386 1397 1404
f 1397 1402 1404
f 1394 1402 1397
f 1394 1395 1398
f 1399 1404 1400
f 1400 1404 1402
f 1388 1399 1423
f 1399 1400 1423
f 1400 1402 1403
f 1401 1403 1402
f 1400 1403 1418
f 1400 1418 1423
f 1410 1416 1419
f 1129 1411 1134
f 1405 1409 1411
f 1129 1405 1411
f 1405 1420 1406
f 1406 1410 1409
f 1405 1406 1409
f 1406 1416 1410
f 1406 1422 1416
f 1288 1407 1408
f 1407 1411 1408
f 1134 1411 1407
f 1408 1411 1409
f 1291 1408 1409
f 1292 1410 1419
f 1291 1410 1292
f 1291 1409 1410
f 1300 1412 1414
f 1412 1419 1416
f 1412 1417 1414
f 1413 1442 1440
f 1294 1414 1413
f 1294 1413 1440
f 1413 1414 1417
f 1415 1423 1417
f 1412 1416 1415
f 1412 1415 1417
f 1415 1416 1422
f 1413 1417 1418
f 1413 1418 1442
f 1417 1423 1418
f 1300 1419 1412
f 1405 1421 1420
f 1390 1420 1421
f 1387 1420 1390
f 1129 1421 1405
f 1387 1422 1420
f 1406 1420 1422
f 1388 1415 1422
f 1387 1388 1422
f 1388 1423 1415
f 1424 1429 1427
f 1429 1437 1430
f 1424 1437 1429
f 1425 1428 1426
f 1426 1434 1439
f 1427 1429 1428
f 1426 1429 1431
f 1426 1428 1429
f 1354 1441 1433
f 1433 1441 1435
f 1430 1432 1431
f 1429 1430 1431
f 1354 1433 1432
f 1431 1432 1433
f 1426 1431 1434
f 1433 1435 1434
f 1401 1435 1403
f 1401 1434 1435
f 1435 1441 1442
f 1403 1435 1442
f 1431 1433 1434
f 1332 1437 1436
f 1424 1436 1437
f 1425 1426 1438
f 1393 1438 1439
f 1426 1439 1438
f 1401 1439 1434
f 1352 1440 1441
f 1440 1442 1441
f 55 14 25
f 55 25 24
f 14 26 25
f 14 27 26
f 24 25 215
f 25 26 102
f 14 15 27
f 15 16 29
f 16 424 112
f 15 28 27
f 15 29 28
f 16 30 29
f 16 31 30
f 16 112 31
f 56 43 35
f 56 42 41
f 56 41 43
f 60 157 42
f 42 157 41
f 41 159 43
f 35 49 36
f 36 52 37
f 35 48 49
f 35 43 48
f 36 49 50
f 43 159 48
f 48 159 172
f 48 172 49
f 49 172 178
f 49 178 50
f 36 50 51
f 36 51 52
f 37 52 53
f 50 178 51
f 51 178 180
f 51 180 52
f 52 180 53
f 53 180 791
f 55 1143 14
f 55 54 1143
f 56 1143 54
f 56 35 1143
f 35 36 1143
f 55 58 54
f 56 54 60
f 55 57 58
f 54 58 59
f 54 59 60
f 57 24 215
f 57 216 58
f 59 58 216
f 59 219 60
f 55 24 57
f 56 60 42
f 26 27 105
f 25 102 215
f 102 217 215
f 102 103 217
f 26 105 102
f 102 105 103
f 103 105 108
f 103 104 222
f 103 108 104
f 108 109 104
f 104 109 227
f 109 118 227
f 27 28 105
f 28 106 105
f 105 106 108
f 108 106 107
f 28 29 106
f 29 30 106
f 30 111 106
f 106 111 107
f 107 111 114
f 107 114 110
f 110 114 115
f 108 107 109
f 107 110 109
f 110 118 109
f 110 115 119
f 30 31 111
f 31 112 111
f 111 113 114
f 111 112 113
f 112 464 113
f 114 113 116
f 113 466 116
f 114 116 115
f 115 117 120
f 116 469 117
f 116 117 115
f 117 470 122
f 110 119 118
f 118 119 244
f 119 245 244
f 119 115 120
f 119 120 245
f 120 121 245
f 120 117 122
f 120 122 121
f 122 123 121
f 122 481 123
f 123 481 482
f 219 158 157
f 41 157 159
f 157 160 159
f 157 158 160
f 220 161 158
f 158 161 174
f 158 174 160
f 161 175 174
f 161 224 175
f 159 173 172
f 159 160 173
f 160 176 173
f 172 179 178
f 172 173 179
f 173 182 179
f 160 174 176
f 174 177 176
f 174 175 177
f 173 176 182
f 176 183 182
f 176 177 183
f 178 181 180
f 178 179 181
f 179 184 181
f 180 181 792
f 179 182 184
f 182 183 185
f 181 184 795
f 182 185 184
f 184 185 796
f 224 258 175
f 175 258 186
f 175 186 177
f 177 186 187
f 177 187 183
f 183 187 188
f 186 268 187
f 187 268 189
f 183 188 185
f 185 188 805
f 187 189 188
f 188 189 806
f 57 215 216
f 215 217 218
f 215 218 216
f 59 216 219
f 219 216 220
f 220 216 218
f 217 221 218
f 217 222 221
f 222 226 225
f 223 218 221
f 220 218 223
f 223 221 232
f 222 225 221
f 221 225 232
f 103 222 217
f 222 104 226
f 226 104 227
f 60 219 157
f 219 220 158
f 220 223 161
f 223 224 161
f 223 232 224
f 225 226 233
f 226 227 229
f 118 228 227
f 118 244 228
f 229 227 228
f 244 231 228
f 226 229 233
f 229 228 230
f 229 230 237
f 230 228 231
f 232 234 235
f 225 234 232
f 225 233 234
f 233 236 234
f 233 237 236
f 232 235 224
f 224 235 258
f 234 261 235
f 234 236 261
f 237 240 236
f 236 262 261
f 236 240 262
f 229 237 233
f 230 241 237
f 230 239 241
f 230 231 239
f 231 238 239
f 238 242 239
f 237 241 240
f 241 265 240
f 241 243 265
f 239 243 241
f 239 242 243
f 244 247 231
f 244 245 247
f 245 121 246
f 245 246 247
f 121 250 246
f 247 246 248
f 231 247 238
f 247 248 238
f 246 249 248
f 246 250 249
f 249 250 253
f 249 253 285
f 121 123 250
f 123 482 251
f 123 251 250
f 250 251 253
f 251 482 252
f 251 252 254
f 253 251 254
f 253 254 289
f 252 255 254
f 254 255 290
f 238 248 257
f 238 257 242
f 248 256 257
f 249 256 248
f 249 285 256
f 253 289 285
f 254 290 289
f 255 291 290
f 235 259 258
f 235 261 259
f 186 258 260
f 258 259 260
f 186 260 268
f 261 264 259
f 261 262 264
f 259 264 263
f 259 263 260
f 262 267 264
f 264 270 263
f 264 267 270
f 240 266 262
f 240 265 266
f 265 307 266
f 262 266 267
f 266 308 267
f 260 269 268
f 260 263 269
f 268 269 272
f 263 270 271
f 263 271 269
f 270 312 271
f 268 272 189
f 189 272 850
f 269 271 273
f 269 273 272
f 271 313 273
f 272 273 851
f 270 267 309
f 242 305 243
f 289 288 285
f 256 286 257
f 256 287 286
f 242 257 331
f 257 286 331
f 256 285 287
f 285 288 287
f 287 288 333
f 289 290 292
f 290 291 293
f 291 589 294
f 289 292 288
f 290 293 292
f 288 292 340
f 292 293 341
f 291 294 293
f 294 589 591
f 293 294 339
f 294 591 342
f 265 243 306
f 242 331 305
f 265 306 307
f 243 305 306
f 266 307 308
f 305 336 306
f 306 351 307
f 306 336 351
f 267 308 309
f 270 309 312
f 308 307 310
f 308 310 311
f 307 351 310
f 308 311 309
f 309 311 314
f 271 312 313
f 309 314 312
f 273 313 908
f 312 315 313
f 312 314 315
f 313 315 910
f 311 358 314
f 314 359 315
f 286 334 331
f 331 335 305
f 286 332 334
f 331 334 335
f 286 287 332
f 287 333 332
f 288 340 333
f 305 335 336
f 334 356 335
f 335 355 336
f 334 332 354
f 332 333 337
f 333 340 338
f 333 338 337
f 332 337 354
f 334 354 356
f 292 341 340
f 293 339 341
f 340 341 344
f 341 339 345
f 339 342 346
f 294 342 339
f 342 591 343
f 342 343 347
f 340 344 338
f 341 345 344
f 339 346 345
f 342 347 346
f 343 348 347
f 343 617 348
f 348 617 349
f 336 352 351
f 335 356 355
f 336 355 352
f 351 353 310
f 310 357 311
f 310 353 357
f 351 352 353
f 338 366 337
f 354 375 356
f 354 337 376
f 356 360 355
f 355 361 352
f 354 376 375
f 356 375 360
f 311 357 358
f 314 358 359
f 315 359 934
f 357 364 358
f 358 365 359
f 352 362 353
f 353 363 357
f 353 362 363
f 355 360 361
f 352 361 362
f 357 363 364
f 358 364 365
f 359 365 937
f 338 344 367
f 344 345 368
f 344 368 367
f 345 346 369
f 346 347 370
f 345 369 368
f 346 370 369
f 347 371 370
f 338 367 366
f 337 366 376
f 347 348 371
f 348 349 372
f 348 372 371
f 349 350 373
f 350 629 374
f 349 373 372
f 350 374 373
f 374 629 378
f 378 630 379
f 379 631 380
f 367 377 366
f 376 366 377
f 376 377 375
f 375 377 360
f 367 368 377
f 368 369 377
f 369 370 377
f 370 371 377
f 371 372 377
f 360 377 361
f 361 377 362
f 362 377 363
f 363 377 364
f 364 377 365
f 365 377 937
f 372 373 377
f 373 374 377
f 374 378 377
f 378 379 377
f 379 380 377
f 380 381 377
f 381 382 377
f 377 382 383
f 377 383 384
f 377 384 385
f 377 385 951
f 424 425 465
f 425 426 474
f 112 424 464
f 424 465 464
f 425 467 465
f 425 473 467
f 425 474 473
f 426 475 474
f 426 485 475
f 426 427 485
f 427 486 485
f 427 488 486
f 14 1143 15
f 15 1143 16
f 16 1143 424
f 424 1143 425
f 425 1143 426
f 426 1143 427
f 427 1143 431
f 427 431 547
f 431 432 551
f 427 547 488
f 431 548 547
f 431 551 548
f 432 553 551
f 432 554 553
f 431 1143 432
f 432 1143 433
f 433 1143 436
f 436 1140 437
f 432 433 554
f 433 672 554
f 433 673 672
f 433 436 685
f 436 437 689
f 433 685 673
f 436 686 685
f 436 689 686
f 437 690 689
f 437 691 690
f 437 1302 691
f 113 464 466
f 464 465 466
f 465 467 466
f 466 467 468
f 467 473 468
f 469 466 468
f 116 466 469
f 469 471 470
f 117 469 470
f 469 468 471
f 470 471 472
f 473 474 468
f 468 476 471
f 468 474 476
f 474 475 476
f 475 485 487
f 476 487 477
f 475 487 476
f 471 477 472
f 471 476 477
f 472 477 478
f 487 479 477
f 477 479 478
f 478 479 480
f 122 470 481
f 470 472 481
f 481 483 482
f 483 527 482
f 481 472 483
f 472 478 483
f 483 484 527
f 483 478 484
f 484 478 480
f 485 486 487
f 486 543 487
f 486 488 543
f 487 543 479
f 479 543 544
f 480 479 544
f 484 532 527
f 252 482 527
f 252 528 255
f 252 527 528
f 527 532 528
f 532 530 528
f 255 528 529
f 255 529 291
f 528 530 529
f 530 535 531
f 530 531 529
f 531 535 538
f 484 534 532
f 532 534 533
f 484 480 534
f 480 545 534
f 534 558 533
f 533 558 536
f 532 533 530
f 530 533 535
f 538 535 537
f 533 536 535
f 535 536 537
f 536 562 537
f 529 531 589
f 590 531 538
f 538 537 539
f 538 539 593
f 537 562 540
f 537 540 539
f 540 541 539
f 539 541 595
f 540 564 541
f 564 542 541
f 488 547 543
f 543 547 549
f 480 544 545
f 544 543 549
f 544 549 546
f 544 546 545
f 545 546 559
f 546 552 559
f 547 548 549
f 549 548 550
f 548 551 550
f 551 553 550
f 549 550 546
f 550 552 546
f 559 552 566
f 550 553 555
f 553 554 555
f 554 672 555
f 555 672 674
f 550 555 552
f 552 556 566
f 556 567 566
f 552 555 556
f 556 555 674
f 556 674 557
f 556 557 567
f 567 557 576
f 545 558 534
f 545 559 558
f 558 559 560
f 558 560 536
f 536 560 562
f 559 566 560
f 566 561 560
f 562 560 561
f 562 561 563
f 561 568 563
f 563 568 565
f 562 563 540
f 540 563 564
f 564 570 542
f 563 565 564
f 564 565 570
f 566 567 561
f 567 568 561
f 567 576 568
f 576 575 568
f 565 568 575
f 576 557 688
f 576 688 577
f 542 570 569
f 569 571 572
f 565 579 570
f 570 579 571
f 569 570 571
f 572 571 574
f 572 574 573
f 565 575 579
f 575 578 579
f 576 577 575
f 577 578 575
f 578 580 579
f 577 696 578
f 696 583 578
f 578 583 580
f 571 579 580
f 571 580 574
f 580 585 574
f 586 581 573
f 574 586 573
f 586 587 581
f 587 582 581
f 587 1161 582
f 696 697 583
f 580 583 585
f 585 583 584
f 697 584 583
f 588 584 1159
f 574 585 586
f 586 585 588
f 586 588 587
f 587 588 1162
f 585 584 588
f 291 529 589
f 589 531 590
f 589 590 591
f 590 538 593
f 590 592 591
f 343 591 592
f 590 593 592
f 594 593 595
f 592 593 594
f 594 595 619
f 539 595 593
f 595 596 619
f 595 541 596
f 541 542 596
f 343 592 617
f 592 594 617
f 594 618 617
f 619 621 618
f 594 619 618
f 619 620 621
f 349 617 618
f 350 618 621
f 349 618 350
f 350 621 629
f 621 622 629
f 622 630 629
f 621 620 622
f 622 620 626
f 622 626 623
f 622 623 630
f 623 627 634
f 619 596 620
f 620 596 624
f 620 624 626
f 626 624 625
f 596 542 624
f 542 569 624
f 624 569 625
f 626 625 627
f 626 627 623
f 634 627 639
f 625 628 627
f 627 628 639
f 639 628 660
f 378 629 630
f 630 623 631
f 379 630 631
f 380 631 632
f 631 623 634
f 631 634 632
f 632 634 635
f 632 635 633
f 635 640 633
f 380 632 381
f 381 632 633
f 381 633 382
f 382 636 383
f 382 633 636
f 383 636 637
f 383 637 384
f 384 638 385
f 384 637 638
f 385 638 1219
f 633 640 636
f 636 642 637
f 636 640 642
f 637 643 638
f 637 642 643
f 638 643 1229
f 634 639 635
f 635 639 641
f 635 641 640
f 640 641 644
f 639 660 641
f 641 660 661
f 641 661 644
f 640 644 642
f 642 644 645
f 642 645 643
f 643 645 1231
f 644 661 662
f 644 662 645
f 625 569 572
f 625 572 628
f 628 573 660
f 572 573 628
f 660 573 581
f 660 581 661
f 661 581 582
f 661 582 662
f 645 662 1262
f 662 582 1157
f 672 673 674
f 673 685 674
f 674 685 687
f 687 685 686
f 687 686 692
f 686 689 692
f 674 687 557
f 687 688 557
f 687 692 688
f 688 692 693
f 688 693 577
f 577 693 696
f 692 690 695
f 689 690 692
f 690 691 695
f 691 1302 695
f 692 695 693
f 695 694 693
f 693 694 696
f 695 1306 694
f 696 694 697
f 697 694 1305
f 697 1313 584
f 37 732 726
f 726 734 727
f 37 53 732
f 726 732 733
f 726 733 734
f 53 791 732
f 732 791 733
f 733 791 793
f 733 793 734
f 727 734 735
f 727 735 736
f 727 736 740
f 734 793 800
f 734 800 735
f 735 800 736
f 736 800 819
f 736 819 740
f 727 740 743
f 740 741 743
f 743 741 742
f 740 819 741
f 741 821 742
f 36 37 1143
f 37 726 1143
f 726 727 1143
f 727 743 1143
f 743 744 1143
f 744 745 1143
f 745 760 1143
f 743 742 744
f 744 748 745
f 742 867 746
f 744 742 746
f 744 746 747
f 744 747 748
f 745 748 749
f 746 867 747
f 747 869 748
f 748 869 749
f 749 870 766
f 745 749 766
f 745 766 760
f 766 767 760
f 760 767 768
f 760 768 769
f 766 1075 767
f 767 1075 768
f 760 769 761
f 761 771 762
f 762 773 1147
f 761 769 770
f 761 770 771
f 762 771 772
f 762 772 773
f 773 1085 1147
f 180 792 791
f 181 795 792
f 791 794 793
f 791 792 794
f 792 797 794
f 792 795 797
f 184 796 795
f 795 796 798
f 795 798 797
f 793 799 800
f 793 794 799
f 794 801 799
f 800 820 819
f 800 799 820
f 799 803 820
f 794 797 801
f 797 798 802
f 797 802 801
f 799 801 803
f 801 802 804
f 801 804 803
f 185 805 796
f 796 805 807
f 188 806 805
f 805 806 849
f 796 807 798
f 798 807 808
f 805 849 807
f 807 849 855
f 798 808 802
f 802 808 856
f 807 855 808
f 802 856 804
f 741 819 821
f 819 822 821
f 819 820 822
f 742 821 867
f 821 822 868
f 820 803 823
f 820 823 822
f 803 804 865
f 803 865 823
f 822 823 866
f 189 850 806
f 806 850 852
f 272 851 850
f 273 908 851
f 850 851 853
f 850 853 852
f 851 909 853
f 806 852 849
f 849 858 855
f 849 852 858
f 852 853 854
f 852 854 858
f 853 912 854
f 808 855 857
f 804 856 875
f 808 857 856
f 856 860 875
f 856 857 860
f 855 858 859
f 855 859 857
f 858 862 859
f 858 854 862
f 862 863 859
f 857 859 861
f 857 861 860
f 861 880 860
f 859 863 861
f 854 913 862
f 862 916 863
f 861 863 864
f 863 917 864
f 861 864 880
f 880 864 882
f 821 868 867
f 822 866 868
f 823 876 866
f 865 876 823
f 866 876 887
f 747 867 869
f 867 871 869
f 868 871 867
f 749 869 870
f 869 871 872
f 869 872 870
f 868 866 873
f 868 873 871
f 866 887 873
f 873 887 889
f 871 873 874
f 871 874 872
f 873 889 874
f 872 874 1077
f 889 890 874
f 874 890 1077
f 1077 890 1091
f 804 875 865
f 865 875 877
f 875 860 879
f 875 879 877
f 865 877 876
f 876 878 887
f 876 877 878
f 879 884 877
f 877 884 878
f 860 880 879
f 878 884 892
f 879 881 884
f 879 880 881
f 880 882 881
f 881 882 883
f 881 883 885
f 883 894 885
f 881 885 884
f 884 885 892
f 892 885 886
f 894 886 885
f 887 878 888
f 887 888 889
f 889 888 891
f 878 892 888
f 892 893 888
f 888 893 891
f 891 893 898
f 889 891 890
f 890 891 896
f 890 896 1091
f 892 886 893
f 894 895 886
f 886 895 899
f 899 1036 900
f 899 895 1036
f 900 1036 1040
f 902 1040 1041
f 903 1041 1042
f 1042 1278 904
f 891 898 896
f 1091 896 897
f 901 897 896
f 905 1094 897
f 886 899 893
f 899 900 898
f 899 898 893
f 900 901 898
f 900 902 901
f 900 1040 902
f 898 901 896
f 901 905 897
f 901 902 905
f 906 1096 1094
f 907 1373 1096
f 902 1041 903
f 902 903 905
f 903 1042 904
f 903 904 906
f 905 903 906
f 905 906 1094
f 906 904 907
f 906 907 1096
f 313 910 908
f 851 908 909
f 908 911 909
f 908 910 911
f 909 911 914
f 315 934 910
f 910 935 911
f 911 936 914
f 853 909 912
f 909 914 912
f 854 912 913
f 912 914 915
f 912 915 913
f 913 915 943
f 862 913 916
f 913 943 916
f 916 943 968
f 863 916 917
f 916 968 917
f 917 969 918
f 864 917 918
f 864 918 882
f 918 973 882
f 910 934 935
f 359 937 934
f 934 938 935
f 911 935 936
f 914 936 944
f 935 939 936
f 934 937 938
f 935 938 939
f 936 939 940
f 944 940 941
f 936 940 944
f 944 941 945
f 945 941 942
f 914 944 915
f 944 945 915
f 915 945 943
f 943 946 968
f 943 945 946
f 968 946 947
f 945 942 946
f 946 949 947
f 946 942 949
f 947 949 950
f 948 950 959
f 947 950 948
f 948 959 971
f 377 938 937
f 377 939 938
f 377 940 939
f 377 941 940
f 377 942 941
f 377 949 942
f 377 950 949
f 377 959 950
f 377 960 959
f 377 961 960
f 377 962 961
f 377 963 962
f 377 964 963
f 377 966 964
f 377 955 956
f 377 956 958
f 377 951 952
f 377 952 953
f 377 953 955
f 377 967 965
f 377 954 967
f 377 958 957
f 377 957 954
f 377 965 966
f 959 960 971
f 960 961 972
f 961 962 976
f 960 972 971
f 961 976 972
f 962 977 976
f 962 963 977
f 963 964 978
f 963 978 977
f 964 979 978
f 967 981 965
f 957 958 1224
f 967 954 982
f 957 1225 954
f 964 966 979
f 966 965 980
f 966 980 979
f 965 981 980
f 954 1225 982
f 967 982 981
f 968 969 917
f 918 969 970
f 968 947 969
f 948 970 969
f 947 948 969
f 948 971 970
f 971 972 974
f 971 974 970
f 972 976 975
f 972 975 974
f 976 983 975
f 918 970 973
f 970 974 973
f 974 1033 973
f 974 975 1033
f 1033 975 1034
f 1034 975 983
f 976 977 983
f 977 978 984
f 978 979 985
f 979 980 986
f 981 1240 987
f 980 981 987
f 982 1240 981
f 977 984 983
f 978 985 984
f 983 984 1035
f 984 985 1037
f 979 986 985
f 980 987 986
f 985 986 1038
f 986 987 1039
f 987 1240 1274
f 882 973 883
f 883 973 1033
f 1033 1034 894
f 883 1033 894
f 1034 895 894
f 1034 983 1035
f 1034 1035 895
f 1035 1037 1036
f 1035 1036 895
f 984 1037 1035
f 985 1038 1037
f 1037 1038 1040
f 986 1039 1038
f 987 1274 1039
f 1038 1039 1041
f 1039 1274 1042
f 1037 1040 1036
f 1038 1041 1040
f 1039 1042 1041
f 1042 1274 1278
f 766 870 1075
f 870 872 1076
f 870 1076 1075
f 768 1075 1078
f 1075 1076 1080
f 1075 1080 1078
f 768 1078 769
f 872 1077 1076
f 1076 1077 1081
f 1076 1081 1080
f 1077 1091 1081
f 769 1078 770
f 770 1078 1079
f 1078 1080 1083
f 1078 1083 1079
f 770 1079 771
f 771 1079 772
f 772 1079 1084
f 1079 1083 1087
f 1079 1087 1084
f 1080 1081 1082
f 1081 1091 1092
f 1081 1092 1082
f 1082 1093 1088
f 1080 1082 1083
f 1083 1082 1088
f 1083 1088 1087
f 772 1084 773
f 773 1084 1086
f 1084 1087 1089
f 773 1086 1085
f 1085 1086 1355
f 1084 1089 1086
f 1087 1088 1090
f 1088 1095 1090
f 1087 1090 1089
f 1086 1089 1361
f 1089 1090 1362
f 1091 897 1092
f 1092 1094 1093
f 1092 1093 1082
f 1092 897 1094
f 1088 1093 1095
f 1093 1096 1095
f 1093 1094 1096
f 1090 1095 1372
f 1095 1373 1372
f 1095 1096 1373
f 760 761 1143
f 761 762 1143
f 1143 1147 1148
f 1148 1139 1144
f 1143 1148 1144
f 1139 1149 1379
f 1139 1203 1144
f 1144 1203 1194
f 1144 1194 1193
f 1139 1204 1203
f 1139 1205 1204
f 1139 1379 1205
f 436 1141 1140
f 436 1143 1141
f 437 1140 1302
f 1140 1141 1304
f 1141 1143 1324
f 1140 1303 1302
f 1140 1304 1303
f 1141 1309 1304
f 1141 1310 1309
f 1141 1324 1310
f 1143 1144 1193
f 1143 1325 1324
f 1143 1193 1325
f 762 1147 1143
f 1148 1149 1139
f 1148 1150 1149
f 1147 1356 1148
f 1148 1364 1150
f 1085 1355 1147
f 1147 1355 1356
f 1148 1356 1358
f 1150 1366 1377
f 1148 1358 1364
f 1150 1364 1365
f 1150 1365 1366
f 1150 1377 1149
f 1149 1377 1376
f 1149 1376 1379
f 1311 1196 1171
f 1174 1171 1196
f 582 1161 1157
f 1161 1164 1157
f 1164 1158 1157
f 1167 1166 1158
f 1164 1167 1158
f 584 1313 1159
f 1162 1159 1160
f 1162 1160 1163
f 1314 1160 1159
f 1163 1160 1172
f 587 1162 1161
f 1161 1162 1163
f 588 1159 1162
f 1161 1163 1164
f 1164 1163 1175
f 1167 1176 1169
f 1167 1169 1166
f 1165 1166 1169
f 1165 1170 1168
f 1169 1210 1170
f 1169 1176 1210
f 1165 1169 1170
f 1163 1172 1175
f 1172 1173 1175
f 1314 1171 1160
f 1171 1172 1160
f 1175 1173 1176
f 1176 1173 1214
f 1174 1173 1172
f 1174 1172 1171
f 1164 1175 1167
f 1167 1175 1176
f 1279 1185 1183
f 1277 1180 1185
f 1178 1177 1181
f 1281 1179 1180
f 1180 1179 1190
f 1191 1190 1179
f 1178 1191 1179
f 1178 1181 1191
f 907 1183 1186
f 904 1278 1183
f 907 904 1183
f 1186 1183 1185
f 1184 1185 1180
f 1186 1185 1184
f 907 1186 1373
f 1186 1182 1373
f 1186 1184 1182
f 1184 1188 1182
f 1375 1188 1187
f 1375 1187 1189
f 1371 1189 1218
f 1187 1192 1189
f 1192 1218 1189
f 1191 1187 1190
f 1184 1180 1190
f 1191 1181 1192
f 1191 1192 1187
f 1184 1190 1188
f 1187 1188 1190
f 1325 1193 1195
f 1325 1195 1326
f 1194 1195 1193
f 1194 1202 1195
f 1326 1195 1196
f 1196 1195 1197
f 1174 1196 1197
f 1174 1197 1213
f 1202 1207 1197
f 1197 1207 1213
f 1207 1215 1213
f 1202 1197 1195
f 1205 1379 1206
f 1206 1379 1198
f 1215 1201 1216
f 1199 1200 1216
f 1199 1370 1200
f 1206 1198 1201
f 1199 1201 1198
f 1199 1216 1201
f 1206 1202 1204
f 1203 1204 1202
f 1194 1203 1202
f 1205 1206 1204
f 1206 1207 1202
f 1206 1201 1207
f 1207 1201 1215
f 1210 1214 1208
f 1211 1212 1217
f 1210 1208 1212
f 1212 1208 1217
f 1209 1170 1212
f 1209 1177 1168
f 1209 1168 1170
f 1209 1181 1177
f 1170 1210 1212
f 1209 1211 1181
f 1209 1212 1211
f 1211 1192 1181
f 1173 1213 1214
f 1176 1214 1210
f 1174 1213 1173
f 1214 1215 1208
f 1214 1213 1215
f 1211 1217 1218
f 1211 1218 1192
f 1216 1217 1208
f 1215 1216 1208
f 1200 1217 1216
f 1200 1218 1217
f 1371 1218 1200
f 385 1219 951
f 951 1220 952
f 952 1221 953
f 951 1219 1220
f 952 1220 1221
f 953 1222 955
f 955 1223 956
f 956 1226 958
f 953 1221 1222
f 955 1222 1223
f 638 1229 1219
f 1219 1230 1220
f 1219 1229 1230
f 1220 1233 1221
f 1220 1230 1233
f 956 1223 1226
f 958 1226 1224
f 957 1224 1225
f 1226 1223 1237
f 1226 1238 1224
f 1221 1227 1222
f 1222 1228 1223
f 1221 1233 1227
f 1222 1227 1228
f 1223 1228 1237
f 643 1231 1229
f 1229 1231 1232
f 1229 1232 1230
f 1230 1232 1235
f 645 1262 1231
f 1231 1263 1232
f 1231 1262 1263
f 1230 1235 1233
f 1233 1235 1234
f 1233 1234 1227
f 1227 1243 1228
f 1227 1234 1243
f 1232 1263 1264
f 1232 1264 1235
f 1235 1245 1234
f 1235 1264 1245
f 1224 1236 1225
f 982 1225 1239
f 1224 1238 1236
f 982 1239 1240
f 1225 1236 1239
f 1226 1237 1238
f 1228 1244 1237
f 1237 1242 1238
f 1237 1244 1242
f 1239 1236 1276
f 1239 1275 1240
f 1239 1276 1275
f 1242 1281 1241
f 1238 1241 1236
f 1238 1242 1241
f 1236 1241 1276
f 1228 1243 1244
f 1234 1246 1243
f 1234 1245 1246
f 1245 1168 1246
f 1244 1280 1242
f 1243 1247 1244
f 1244 1247 1280
f 1243 1246 1247
f 1246 1177 1247
f 1246 1168 1177
f 662 1157 1262
f 1262 1157 1158
f 1262 1158 1263
f 1263 1158 1166
f 1263 1166 1264
f 1264 1165 1245
f 1264 1166 1165
f 1245 1165 1168
f 1275 1278 1274
f 1275 1279 1278
f 1275 1276 1279
f 1240 1275 1274
f 1276 1241 1277
f 1277 1241 1281
f 1276 1277 1279
f 1278 1279 1183
f 1277 1185 1279
f 1277 1281 1180
f 1242 1280 1281
f 1281 1280 1179
f 1280 1178 1179
f 1247 1178 1280
f 1247 1177 1178
f 695 1302 1306
f 1302 1303 1306
f 1303 1307 1306
f 1303 1304 1307
f 694 1306 1305
f 697 1305 1313
f 1313 1305 1308
f 1306 1307 1305
f 1307 1308 1305
f 1313 1308 1314
f 1304 1309 1307
f 1312 1309 1310
f 1307 1309 1312
f 1312 1310 1324
f 1312 1324 1326
f 1307 1312 1308
f 1308 1312 1311
f 1308 1311 1314
f 1314 1311 1171
f 1312 1326 1311
f 1326 1196 1311
f 1313 1314 1159
f 1324 1325 1326
f 1086 1357 1355
f 1355 1357 1356
f 1086 1361 1357
f 1357 1359 1358
f 1356 1357 1358
f 1358 1359 1364
f 1357 1363 1359
f 1360 1369 1363
f 1089 1362 1361
f 1090 1372 1362
f 1361 1362 1360
f 1361 1360 1363
f 1361 1363 1357
f 1378 1377 1366
f 1378 1366 1367
f 1378 1367 1370
f 1364 1367 1365
f 1364 1359 1367
f 1359 1368 1367
f 1366 1365 1367
f 1363 1369 1368
f 1367 1368 1370
f 1369 1371 1368
f 1371 1370 1368
f 1359 1363 1368
f 1374 1362 1372
f 1372 1373 1182
f 1374 1372 1182
f 1374 1360 1362
f 1374 1375 1360
f 1374 1182 1188
f 1374 1188 1375
f 1375 1189 1369
f 1375 1369 1360
f 1369 1189 1371
f 1376 1377 1378
f 1376 1378 1198
f 1376 1198 1379
f 1378 1370 1199
f 1378 1199 1198
f 1371 1200 1370
