# th_base_shaft.obj  (84 v, 164 f)  units: metres
v -0.020365063 0.016780403 -0.060820974
v -0.019967766 0.016264606 -0.060775846
v -0.019450000 0.015868820 -0.060741220
v -0.020614814 0.017381061 -0.060873523
v -0.020700000 0.018025646 -0.060929921
v -0.020614814 0.018670231 -0.060986314
v -0.018847048 0.015620020 -0.060719449
v -0.018200001 0.015535159 -0.060712025
v -0.020418808 0.018696375 -0.040410291
v -0.020365063 0.018567121 -0.040398981
v -0.019967766 0.018051323 -0.040353857
v -0.019907024 0.018004891 -0.040349796
v -0.019470681 0.017671347 -0.040320612
v -0.019450000 0.017655538 -0.040319230
v -0.020048559 0.018156214 -0.040363036
v -0.019345354 0.017612359 -0.040315453
v -0.018869923 0.017416177 -0.040298287
v -0.018847048 0.017406737 -0.040297460
v -0.018752111 0.017394288 -0.040296372
v -0.018257789 0.017329456 -0.040290702
v -0.018200001 0.017321877 -0.040290039
v -0.020365063 0.019270888 -0.061038867
v -0.019967766 0.019786686 -0.061083991
v -0.019450000 0.020182470 -0.061118618
v -0.018847048 0.020431271 -0.061140388
v -0.020614814 0.019167779 -0.040451534
v -0.020600561 0.019133499 -0.040448535
v -0.020700000 0.019812364 -0.040507931
v -0.020643216 0.020242043 -0.040545523
v -0.020614814 0.020456949 -0.040564325
v -0.020365063 0.021057606 -0.040616877
v -0.020326002 0.021108318 -0.040621314
v -0.020169944 0.021310924 -0.040639039
v -0.019967766 0.021573404 -0.040662002
v -0.019763716 0.021729382 -0.040675651
v -0.019630734 0.021831034 -0.040684544
v -0.019450000 0.021969188 -0.040696628
v -0.019173322 0.022083355 -0.040706620
v -0.019051440 0.022133648 -0.040711019
v -0.018847048 0.022217989 -0.040718399
v -0.018565087 0.022254968 -0.040721633
v -0.018447900 0.022270337 -0.040722977
v -0.017552953 0.015620020 -0.060719449
v -0.016950000 0.015868820 -0.060741220
v -0.016432233 0.016264606 -0.060775846
v -0.016034937 0.016780403 -0.060820974
v -0.015785186 0.017381061 -0.060873523
v -0.015699999 0.018025646 -0.060929921
v -0.015785186 0.018670231 -0.060986314
v -0.018142212 0.017329456 -0.040290702
v -0.017647889 0.017394288 -0.040296372
v -0.017552953 0.017406737 -0.040297460
v -0.017530076 0.017416177 -0.040298287
v -0.017054645 0.017612359 -0.040315453
v -0.016950000 0.017655538 -0.040319230
v -0.016929321 0.017671347 -0.040320612
v -0.016492976 0.018004891 -0.040349796
v -0.016432233 0.018051323 -0.040353857
v -0.016351441 0.018156214 -0.040363036
v -0.016034937 0.018567121 -0.040398981
v -0.015981192 0.018696375 -0.040410291
v -0.018200001 0.020516131 -0.061147813
v -0.017552953 0.020431271 -0.061140388
v -0.016950000 0.020182470 -0.061118618
v -0.016432233 0.019786686 -0.061083991
v -0.016034937 0.019270888 -0.061038867
v -0.018200001 0.022302849 -0.040725823
v -0.017952099 0.022270337 -0.040722977
v -0.017834913 0.022254968 -0.040721633
v -0.017552953 0.022217989 -0.040718399
v -0.017348560 0.022133648 -0.040711019
v -0.017226677 0.022083355 -0.040706620
v -0.015799439 0.019133501 -0.040448535
v -0.015785186 0.019167779 -0.040451534
v -0.015699999 0.019812364 -0.040507931
v -0.015756784 0.020242041 -0.040545523
v -0.015785186 0.020456949 -0.040564325
v -0.016769268 0.021831036 -0.040684544
v -0.016950000 0.021969188 -0.040696628
v -0.016636286 0.021729384 -0.040675651
v -0.016432233 0.021573404 -0.040662002
v -0.016230056 0.021310924 -0.040639039
v -0.016073998 0.021108318 -0.040621314
v -0.016034937 0.021057606 -0.040616877
f 28 26 27
f 30 27 9
f 28 27 29
f 10 32 9
f 10 15 33
f 30 29 27
f 31 30 9
f 31 9 32
f 10 33 32
f 34 11 12
f 34 15 11
f 12 13 36
f 37 13 14
f 34 33 15
f 34 12 35
f 12 36 35
f 37 36 13
f 37 14 16
f 16 17 39
f 40 17 18
f 37 16 38
f 16 39 38
f 40 39 17
f 40 18 19
f 19 20 42
f 21 42 20
f 21 50 42
f 40 19 41
f 19 42 41
f 67 42 50
f 50 51 68
f 52 71 51
f 52 53 71
f 53 54 71
f 70 51 71
f 72 71 54
f 79 72 54
f 67 50 68
f 68 51 69
f 70 69 51
f 55 78 54
f 55 56 78
f 56 57 78
f 58 82 57
f 58 59 82
f 79 54 78
f 80 78 57
f 81 80 57
f 81 57 82
f 59 60 82
f 83 60 61
f 77 61 73
f 75 73 74
f 75 76 73
f 83 82 60
f 84 83 61
f 77 84 61
f 77 73 76
f 1 2 10
f 2 3 11
f 6 1 4
f 6 4 5
f 22 2 1
f 6 22 1
f 23 2 22
f 23 3 2
f 23 24 3
f 4 1 27
f 5 4 28
f 24 7 3
f 25 8 7
f 3 7 14
f 7 8 18
f 24 25 7
f 25 62 8
f 3 13 12
f 3 14 13
f 1 10 9
f 2 15 10
f 1 9 27
f 4 27 26
f 4 26 28
f 2 11 15
f 3 12 11
f 7 16 14
f 7 17 16
f 7 18 17
f 8 19 18
f 8 20 19
f 8 21 20
f 6 5 30
f 6 31 22
f 23 22 34
f 23 37 24
f 24 40 25
f 25 67 62
f 5 28 29
f 5 29 30
f 6 30 31
f 22 31 32
f 22 32 33
f 22 33 34
f 23 34 35
f 23 35 36
f 23 36 37
f 24 37 38
f 24 38 39
f 24 39 40
f 25 40 41
f 25 41 42
f 25 42 67
f 62 43 8
f 8 43 50
f 43 44 53
f 62 63 43
f 63 44 43
f 63 64 44
f 45 56 44
f 45 46 59
f 64 45 44
f 64 65 45
f 65 46 45
f 66 47 46
f 49 48 47
f 65 66 46
f 66 49 47
f 47 61 46
f 48 74 47
f 49 75 48
f 8 50 21
f 43 51 50
f 43 52 51
f 43 53 52
f 44 54 53
f 44 55 54
f 44 56 55
f 45 57 56
f 45 58 57
f 45 59 58
f 46 60 59
f 46 61 60
f 47 73 61
f 47 74 73
f 62 70 63
f 63 79 64
f 64 81 65
f 66 77 49
f 65 83 66
f 62 67 68
f 62 68 69
f 62 69 70
f 63 70 71
f 63 71 72
f 63 72 79
f 48 75 74
f 49 76 75
f 66 83 84
f 77 76 49
f 66 84 77
f 64 79 78
f 64 80 81
f 64 78 80
f 65 81 82
f 65 82 83
