# th_distal_pad.obj  (48 v, 92 f)  units: metres
v -0.025348527 0.131586373 -0.073222838
v -0.024499999 0.131555751 -0.073572971
v -0.024499999 0.130741075 -0.073148884
v -0.025699999 0.131660327 -0.072377540
v -0.025348527 0.130815029 -0.072303586
v -0.024499999 0.130464897 -0.072272949
v -0.025348527 0.130998060 -0.070211574
v -0.025699999 0.131843358 -0.070285529
v -0.024499999 0.130647928 -0.070180938
v -0.025348527 0.131917313 -0.069440231
v -0.024499999 0.131072015 -0.069366276
v -0.024499999 0.131947950 -0.069090098
v -0.025348527 0.155096576 -0.075279742
v -0.024499999 0.155065939 -0.075629875
v -0.024499999 0.155941874 -0.075353697
v -0.025699999 0.155170530 -0.074434444
v -0.025348527 0.156015828 -0.074508399
v -0.024499999 0.156365961 -0.074539028
v -0.025348527 0.156198859 -0.072416387
v -0.024499999 0.156548992 -0.072447024
v -0.025699999 0.155353561 -0.072342433
v -0.024499999 0.156272814 -0.071571089
v -0.025348527 0.155427516 -0.071497135
v -0.024499999 0.155458137 -0.071147002
v -0.001900000 0.131555751 -0.073572971
v -0.001051472 0.131586373 -0.073222838
v -0.001900000 0.130741075 -0.073148884
v -0.000700000 0.131660327 -0.072377540
v -0.001900000 0.130464897 -0.072272949
v -0.001051472 0.130815029 -0.072303586
v -0.001900000 0.130647928 -0.070180938
v -0.001051472 0.130998060 -0.070211574
v -0.000700000 0.131843358 -0.070285529
v -0.001900000 0.131072015 -0.069366276
v -0.001900000 0.131947950 -0.069090098
v -0.001051472 0.131917313 -0.069440231
v -0.001900000 0.155065939 -0.075629875
v -0.001900000 0.155941874 -0.075353697
v -0.001051472 0.155096576 -0.075279742
v -0.001900000 0.156365961 -0.074539028
v -0.000700000 0.155170530 -0.074434444
v -0.001051472 0.156015828 -0.074508399
v -0.001900000 0.156548992 -0.072447024
v -0.001051472 0.156198859 -0.072416387
v -0.000700000 0.155353561 -0.072342433
v -0.001900000 0.156272814 -0.071571089
v -0.001900000 0.155458137 -0.071147002
v -0.001051472 0.155427516 -0.071497135
f 2 3 1
f 1 3 5
f 1 5 4
f 3 6 5
f 2 1 13
f 1 4 13
f 2 27 3
f 3 27 6
f 5 7 4
f 5 6 7
f 4 7 8
f 6 9 7
f 7 10 8
f 7 9 11
f 7 11 10
f 10 11 12
f 4 8 21
f 8 10 21
f 10 12 24
f 6 31 9
f 9 31 11
f 11 35 12
f 12 35 24
f 2 13 14
f 4 16 13
f 4 21 16
f 14 13 15
f 13 17 15
f 13 16 17
f 15 17 18
f 17 19 18
f 16 19 17
f 16 21 19
f 18 19 20
f 2 14 37
f 14 15 38
f 15 18 38
f 18 20 40
f 10 23 21
f 10 24 23
f 21 23 19
f 19 22 20
f 19 23 22
f 23 24 22
f 20 22 43
f 22 24 47
f 2 25 27
f 6 27 29
f 2 37 25
f 25 26 27
f 27 26 30
f 27 30 29
f 26 28 30
f 25 37 26
f 26 41 28
f 28 41 33
f 6 29 31
f 11 31 34
f 11 34 35
f 29 30 32
f 30 28 32
f 29 32 31
f 28 33 32
f 31 32 34
f 32 33 36
f 32 36 34
f 34 36 35
f 33 48 36
f 36 47 35
f 14 38 37
f 18 40 38
f 40 20 43
f 26 37 39
f 26 39 41
f 37 38 39
f 38 42 39
f 38 40 42
f 39 42 41
f 40 43 42
f 41 42 45
f 42 43 44
f 42 44 45
f 24 35 47
f 22 46 43
f 22 47 46
f 41 45 33
f 33 45 48
f 36 48 47
f 43 46 44
f 45 44 48
f 44 46 48
f 46 47 48
