# th_distal.obj  (434 v, 864 f)  units: metres
v -0.023950001 0.117075242 -0.089410089
v -0.023950001 0.118080780 -0.090608448
v -0.023950001 0.119407415 -0.091437422
v -0.023950001 0.120925292 -0.091815874
v -0.023950001 0.116489224 -0.087959655
v -0.023950001 0.116380103 -0.086399116
v -0.024542389 0.121141911 -0.085717373
v -0.024488268 0.121098690 -0.085749939
v -0.024520712 0.121115997 -0.085736893
v -0.024450000 0.121092610 -0.085754521
v -0.024550000 0.121172473 -0.085694343
v -0.024450000 0.121037945 -0.085663542
v -0.024050001 0.121092610 -0.085754521
v -0.024000000 0.121103309 -0.085746460
v -0.023963397 0.121132538 -0.085724436
v -0.024050001 0.121037945 -0.085663542
v -0.023950001 0.121172473 -0.085694343
v -0.024542389 0.120168649 -0.083630197
v -0.024550000 0.120205939 -0.083621591
v -0.024520712 0.120137036 -0.083637498
v -0.024488268 0.120115913 -0.083642371
v -0.024450000 0.120108500 -0.083644085
v -0.024542389 0.120545596 -0.084724933
v -0.024550000 0.120580278 -0.084708758
v -0.024520712 0.120516188 -0.084738642
v -0.024488268 0.120496541 -0.084747806
v -0.024450000 0.120489642 -0.084751017
v -0.024450000 0.120316431 -0.084247962
v -0.024050001 0.120108500 -0.083644085
v -0.024000000 0.120121554 -0.083641067
v -0.023963397 0.120157219 -0.083632834
v -0.023950001 0.120205931 -0.083621591
v -0.024050001 0.120489642 -0.084751017
v -0.024000000 0.120501786 -0.084745362
v -0.023963397 0.120534964 -0.084729888
v -0.023950001 0.120580278 -0.084708758
v -0.024050001 0.120316431 -0.084247962
v -0.024542389 0.121931538 -0.086564146
v -0.024550000 0.121956646 -0.086535260
v -0.024450000 0.122152261 -0.086793646
v -0.024520712 0.121910252 -0.086588629
v -0.024488268 0.121896029 -0.086604990
v -0.024450000 0.121891037 -0.086610734
v -0.024542389 0.122879960 -0.087228239
v -0.024550000 0.122898512 -0.087194771
v -0.024542389 0.123945735 -0.087680638
v -0.024550000 0.123956919 -0.087644041
v -0.024520712 0.122864231 -0.087256618
v -0.024488268 0.122853719 -0.087275572
v -0.024450000 0.122850031 -0.087282233
v -0.024450000 0.123536058 -0.087573431
v -0.024488268 0.123929910 -0.087732390
v -0.024450000 0.123927683 -0.087739669
v -0.024520712 0.123936243 -0.087711662
v -0.024050001 0.122152261 -0.086793646
v -0.024050001 0.121891037 -0.086610734
v -0.024000000 0.121899828 -0.086600624
v -0.023963397 0.121923842 -0.086572997
v -0.023950001 0.121956639 -0.086535260
v -0.024050001 0.122850031 -0.087282233
v -0.024000000 0.122856528 -0.087270513
v -0.023963397 0.122874275 -0.087238498
v -0.023950001 0.122898512 -0.087194771
v -0.024050001 0.123536058 -0.087573431
v -0.024050001 0.123927683 -0.087739669
v -0.024000000 0.123931602 -0.087726854
v -0.023963397 0.123942301 -0.087691851
v -0.023950001 0.123956919 -0.087644041
v -0.024542389 0.125082269 -0.087901555
v -0.024550000 0.125085607 -0.087863430
v -0.024488268 0.125077561 -0.087955475
v -0.024520712 0.125079438 -0.087933876
v -0.024450000 0.125076890 -0.087963052
v -0.024542389 0.126239911 -0.087881349
v -0.024550000 0.126235247 -0.087843366
v -0.024520712 0.126243860 -0.087913550
v -0.024488268 0.126246512 -0.087935068
v -0.024450000 0.126247436 -0.087942623
v -0.024450000 0.126661971 -0.087846920
v -0.024050001 0.125076890 -0.087963052
v -0.024000000 0.125078067 -0.087949708
v -0.023963397 0.125081256 -0.087913245
v -0.023950001 0.125085607 -0.087863438
v -0.024050001 0.126247436 -0.087942623
v -0.024000000 0.126245797 -0.087929323
v -0.023963397 0.126241341 -0.087892994
v -0.023950001 0.126235247 -0.087843366
v -0.024050001 0.126661971 -0.087846920
v -0.026650000 0.134816855 -0.092072681
v -0.026650000 0.136143491 -0.092901662
v -0.023950001 0.134816855 -0.092072681
v -0.023950001 0.136143491 -0.092901662
v -0.026650000 0.133811310 -0.090874322
v -0.026650000 0.133225292 -0.089423887
v -0.023950001 0.133811310 -0.090874322
v -0.023950001 0.133225292 -0.089423887
v -0.024542389 0.127368048 -0.087620899
v -0.024550000 0.127355590 -0.087584719
v -0.024520712 0.127378613 -0.087651581
v -0.024488268 0.127385676 -0.087672077
v -0.024450000 0.127388149 -0.087679274
v -0.024542389 0.128417388 -0.087131590
v -0.024450000 0.128160164 -0.087319277
v -0.024520712 0.128434092 -0.087159403
v -0.024488268 0.128445253 -0.087177977
v -0.024450000 0.128449172 -0.087184504
v -0.024550000 0.128397673 -0.087098785
v -0.024050001 0.127388149 -0.087679274
v -0.024000000 0.127383783 -0.087666601
v -0.023963397 0.127371863 -0.087631993
v -0.023950001 0.127355590 -0.087584719
v -0.024050001 0.128160164 -0.087319277
v -0.024050001 0.128449172 -0.087184504
v -0.024000000 0.128442273 -0.087173022
v -0.023963397 0.128423423 -0.087141648
v -0.023950001 0.128397673 -0.087098785
v -0.024550000 0.129315957 -0.086406812
v -0.024542389 0.129342049 -0.086434804
v -0.024520712 0.129364178 -0.086458527
v -0.024488268 0.129378960 -0.086474381
v -0.024450000 0.129384160 -0.086479947
v -0.024050001 0.129384160 -0.086479947
v -0.024000000 0.129375026 -0.086470149
v -0.023963397 0.129350051 -0.086443380
v -0.023950001 0.129315957 -0.086406812
v -0.024450000 0.129453793 -0.086399846
v -0.024542389 0.130101651 -0.085560992
v -0.024550000 0.130070299 -0.085539043
v -0.024520712 0.130128220 -0.085579596
v -0.024488268 0.130145982 -0.085592031
v -0.024450000 0.130152225 -0.085596398
v -0.024450000 0.130410165 -0.085131057
v -0.024050001 0.129453793 -0.086399846
v -0.024050001 0.130152225 -0.085596398
v -0.024000000 0.130141243 -0.085588716
v -0.023963397 0.130111262 -0.085567720
v -0.023950001 0.130070299 -0.085539043
v -0.024050001 0.130410165 -0.085131057
v -0.024550000 0.130627751 -0.084533393
v -0.024542389 0.130662978 -0.084548347
v -0.024520712 0.130692840 -0.084561020
v -0.024488268 0.130712792 -0.084569491
v -0.024450000 0.130719796 -0.084572464
v -0.024450000 0.130999967 -0.083656073
v -0.024050001 0.130719796 -0.084572464
v -0.024000000 0.130707458 -0.084567234
v -0.023963397 0.130673766 -0.084552929
v -0.023950001 0.130627751 -0.084533393
v -0.024050001 0.130999967 -0.083656073
v -0.026650000 0.133116171 -0.087863356
v -0.023950001 0.133116171 -0.087863356
v -0.024542389 0.120027550 -0.082481012
v -0.024550000 0.120065808 -0.082480349
v -0.024450000 0.119991712 -0.082692958
v -0.024520712 0.119995110 -0.082481578
v -0.024488268 0.119973436 -0.082481958
v -0.024450000 0.119965822 -0.082482092
v -0.024050001 0.119991712 -0.082692958
v -0.024050001 0.119965822 -0.082482092
v -0.024000000 0.119979218 -0.082481861
v -0.023963397 0.120015815 -0.082481220
v -0.023950001 0.120065808 -0.082480349
v -0.024542389 0.120128460 -0.081327610
v -0.024550000 0.120166026 -0.081334911
v -0.024488268 0.120075330 -0.081317283
v -0.024450000 0.120067865 -0.081315830
v -0.024520712 0.120096609 -0.081321418
v -0.024450000 0.120129973 -0.081112660
v -0.024050001 0.120067865 -0.081315830
v -0.024000000 0.120081015 -0.081318386
v -0.023963397 0.120116942 -0.081325367
v -0.023950001 0.120166026 -0.081334911
v -0.024050001 0.120129973 -0.081112660
v -0.024550000 0.120502196 -0.080235340
v -0.024542389 0.120466970 -0.080220386
v -0.024520712 0.120437108 -0.080207705
v -0.024488268 0.120417155 -0.080199242
v -0.024450000 0.120410144 -0.080196261
v -0.024450000 0.120719783 -0.079637669
v -0.023950001 0.120502196 -0.080235340
v -0.024050001 0.120410144 -0.080196261
v -0.024000000 0.120422482 -0.080201499
v -0.023963397 0.120456174 -0.080215804
v -0.024050001 0.120719783 -0.079637669
v -0.024542389 0.121028289 -0.079207741
v -0.024550000 0.121059641 -0.079229690
v -0.024520712 0.121001720 -0.079189129
v -0.024488268 0.120983958 -0.079176694
v -0.024450000 0.120977722 -0.079172328
v -0.024050001 0.120977722 -0.079172328
v -0.024000000 0.120988697 -0.079180017
v -0.023963397 0.121018685 -0.079201013
v -0.023950001 0.121059641 -0.079229690
v -0.024550000 0.121813983 -0.078361914
v -0.024542389 0.121787891 -0.078333929
v -0.024450000 0.121676154 -0.078368887
v -0.024520712 0.121765763 -0.078310199
v -0.024488268 0.121750981 -0.078294344
v -0.024450000 0.121745788 -0.078288779
v -0.024050001 0.121676154 -0.078368887
v -0.024000000 0.121754922 -0.078298576
v -0.023963397 0.121779889 -0.078325346
v -0.023950001 0.121813983 -0.078361914
v -0.024050001 0.121745788 -0.078288779
v -0.023950001 0.117216811 -0.076835647
v -0.023950001 0.117595263 -0.075317770
v -0.023950001 0.118424244 -0.073991135
v -0.023950001 0.119622603 -0.072985597
v -0.023950001 0.121073037 -0.072399579
v -0.024550000 0.122732267 -0.077669941
v -0.024542389 0.122712560 -0.077637136
v -0.024520712 0.122695848 -0.077609330
v -0.024488268 0.122684687 -0.077590749
v -0.024450000 0.122680761 -0.077584222
v -0.024450000 0.122969784 -0.077449448
v -0.024550000 0.123774357 -0.077184014
v -0.024542389 0.123761892 -0.077147827
v -0.024520712 0.123751335 -0.077117153
v -0.024488268 0.123744272 -0.077096656
v -0.024450000 0.123741798 -0.077089459
v -0.024050001 0.122680761 -0.077584222
v -0.024000000 0.122687668 -0.077595711
v -0.023963397 0.122706518 -0.077627085
v -0.023950001 0.122732267 -0.077669941
v -0.024050001 0.122969784 -0.077449448
v -0.024050001 0.123741798 -0.077089459
v -0.023950001 0.123774357 -0.077184014
v -0.024000000 0.123746157 -0.077102125
v -0.023963397 0.123758078 -0.077136733
v -0.024550000 0.124894701 -0.076925360
v -0.024542389 0.124890037 -0.076887377
v -0.024450000 0.124467969 -0.076921813
v -0.024520712 0.124886081 -0.076855175
v -0.024488268 0.124883436 -0.076833658
v -0.024450000 0.124882512 -0.076826103
v -0.024550000 0.126044333 -0.076905295
v -0.024542389 0.126047671 -0.076867171
v -0.024520712 0.126050502 -0.076834850
v -0.024488268 0.126052395 -0.076813258
v -0.024450000 0.126053050 -0.076805674
v -0.024050001 0.124467969 -0.076921813
v -0.023950001 0.124894693 -0.076925360
v -0.024050001 0.124882512 -0.076826103
v -0.024000000 0.124884143 -0.076839402
v -0.023963397 0.124888606 -0.076875731
v -0.023950001 0.126044333 -0.076905295
v -0.024050001 0.126053050 -0.076805674
v -0.023963397 0.126048699 -0.076855488
v -0.024000000 0.126051888 -0.076819025
v -0.023950001 0.122633569 -0.072290458
v -0.024550000 0.130963922 -0.083433822
v -0.024542389 0.131001487 -0.083441123
v -0.024488268 0.131054610 -0.083451450
v -0.024520712 0.131033331 -0.083447315
v -0.024450000 0.131062075 -0.083452903
v -0.024550000 0.131064132 -0.082288384
v -0.024542389 0.131102398 -0.082287714
v -0.024520712 0.131134838 -0.082287148
v -0.024488268 0.131156504 -0.082286768
v -0.024450000 0.131164119 -0.082286641
v -0.024050001 0.131062075 -0.083452903
v -0.023963397 0.131013006 -0.083443359
v -0.023950001 0.130963922 -0.083433822
v -0.024000000 0.131048933 -0.083450347
v -0.024050001 0.131164119 -0.082286641
v -0.024000000 0.131150723 -0.082286872
v -0.023963397 0.131114125 -0.082287513
v -0.023950001 0.131064132 -0.082288384
v -0.024450000 0.131138220 -0.082075767
v -0.024550000 0.130924001 -0.081147142
v -0.024542389 0.130961299 -0.081138529
v -0.024520712 0.130992904 -0.081131235
v -0.024488268 0.131014034 -0.081126355
v -0.024450000 0.131021440 -0.081124648
v -0.024050001 0.131138220 -0.082075767
v -0.024050001 0.131021440 -0.081124648
v -0.024000000 0.131008387 -0.081127658
v -0.023963397 0.130972728 -0.081135891
v -0.023950001 0.130924016 -0.081147142
v -0.024550000 0.129173294 -0.078233466
v -0.024542389 0.129198402 -0.078204587
v -0.024520712 0.129219696 -0.078180104
v -0.024488268 0.129233912 -0.078163743
v -0.024450000 0.129238904 -0.078157999
v -0.024450000 0.128977686 -0.077975079
v -0.024050001 0.129238904 -0.078157999
v -0.023950001 0.129173309 -0.078233466
v -0.024000000 0.129230112 -0.078168109
v -0.023963397 0.129206106 -0.078195728
v -0.024050001 0.128977686 -0.077975079
v -0.024550000 0.130549669 -0.080059968
v -0.024450000 0.130813509 -0.080520771
v -0.024542389 0.130584344 -0.080043800
v -0.024520712 0.130613759 -0.080030084
v -0.024488268 0.130633399 -0.080020927
v -0.024450000 0.130640298 -0.080017708
v -0.024050001 0.130813509 -0.080520771
v -0.023950001 0.130549669 -0.080059968
v -0.024050001 0.130640298 -0.080017708
v -0.024000000 0.130628154 -0.080023371
v -0.023963397 0.130594984 -0.080038838
v -0.024550000 0.129957467 -0.079074390
v -0.024542389 0.129988030 -0.079051360
v -0.024520712 0.130013943 -0.079031833
v -0.024488268 0.130031258 -0.079018787
v -0.024450000 0.130037338 -0.079014204
v -0.024450000 0.130091995 -0.079105183
v -0.024050001 0.130037338 -0.079014204
v -0.024050001 0.130091995 -0.079105183
v -0.023963397 0.129997402 -0.079044297
v -0.024000000 0.130026639 -0.079022266
v -0.023950001 0.129957467 -0.079074390
v -0.026650000 0.133952886 -0.078299887
v -0.023950001 0.133952886 -0.078299887
v -0.024550000 0.127173021 -0.077124692
v -0.024542389 0.127184212 -0.077088095
v -0.024520712 0.127193689 -0.077057071
v -0.024488268 0.127200037 -0.077036336
v -0.024450000 0.127202258 -0.077029057
v -0.024450000 0.127593890 -0.077195294
v -0.024550000 0.128231436 -0.077573963
v -0.024542389 0.128249988 -0.077540487
v -0.024520712 0.128265709 -0.077512115
v -0.024488268 0.128276214 -0.077493154
v -0.024450000 0.128279909 -0.077486500
v -0.023963397 0.127187639 -0.077076875
v -0.023950001 0.127173021 -0.077124692
v -0.024050001 0.127202258 -0.077029057
v -0.024000000 0.127198339 -0.077041872
v -0.024050001 0.127593890 -0.077195294
v -0.024050001 0.128279909 -0.077486500
v -0.024000000 0.128273413 -0.077498212
v -0.023963397 0.128255665 -0.077530228
v -0.023950001 0.128231436 -0.077573963
v -0.026650000 0.134331331 -0.076782010
v -0.026650000 0.135160312 -0.075455375
v -0.023950001 0.134331331 -0.076782010
v -0.023950001 0.135160312 -0.075455375
v -0.026650000 0.136358663 -0.074449830
v -0.023950001 0.136358663 -0.074449830
v -0.026650000 0.137661368 -0.093280114
v -0.023950001 0.137661368 -0.093280114
v -0.024250001 0.148619503 -0.094238840
v -0.024250001 0.149783090 -0.094111405
v -0.024250001 0.150809333 -0.093548395
v -0.024250001 0.151608095 -0.094500311
v -0.024250001 0.151542008 -0.092635505
v -0.024250001 0.151869565 -0.091511726
v -0.026650000 0.155891731 -0.094875082
v -0.013600000 0.154677987 -0.085800797
v -0.013966026 0.154709890 -0.085436165
v -0.014100000 0.154753476 -0.084938064
v -0.013966026 0.154797047 -0.084439971
v -0.013600000 0.154828951 -0.084075332
v -0.014100000 0.156745866 -0.085112378
v -0.013600000 0.156670377 -0.085975111
v -0.013966026 0.156702280 -0.085610479
v -0.013966026 0.156789437 -0.084614284
v -0.013600000 0.156821340 -0.084249645
v -0.026650000 0.137809113 -0.073863819
v -0.026650000 0.139369637 -0.073754698
v -0.023950001 0.137809113 -0.073863819
v -0.023950001 0.139369637 -0.073754698
v -0.024250001 0.153054893 -0.077963479
v -0.024250001 0.152364448 -0.075773649
v -0.024250001 0.150327787 -0.074713424
v -0.024250001 0.151451558 -0.075040981
v -0.026650000 0.157600001 -0.075349674
v -0.024250001 0.152927458 -0.076799892
v -0.024250001 0.153316364 -0.074974895
v -0.002150000 0.117075242 -0.089410089
v -0.002150000 0.118080780 -0.090608448
v -0.002150000 0.119407415 -0.091437422
v -0.002150000 0.120925292 -0.091815874
v -0.002150000 0.116489224 -0.087959655
v -0.002150000 0.116380103 -0.086399116
v -0.002150000 0.134816855 -0.092072681
v -0.002150000 0.136143491 -0.092901662
v 0.000350000 0.134816855 -0.092072681
v 0.000350000 0.136143491 -0.092901662
v -0.002150000 0.133811310 -0.090874322
v -0.002150000 0.133225292 -0.089423887
v 0.000350000 0.133811310 -0.090874322
v 0.000350000 0.133225292 -0.089423887
v -0.002150000 0.133116171 -0.087863356
v 0.000350000 0.133116171 -0.087863356
v -0.002150000 0.117216811 -0.076835647
v -0.002150000 0.117595263 -0.075317770
v -0.002150000 0.118424244 -0.073991135
v -0.002150000 0.119622603 -0.072985597
v -0.002150000 0.121073037 -0.072399579
v -0.002150000 0.122633569 -0.072290458
v -0.002150000 0.133952886 -0.078299887
v 0.000350000 0.133952886 -0.078299887
v -0.002150000 0.134331331 -0.076782010
v -0.002150000 0.135160312 -0.075455375
v 0.000350000 0.134331331 -0.076782010
v 0.000350000 0.135160312 -0.075455375
v -0.002150000 0.136358663 -0.074449830
v 0.000350000 0.136358663 -0.074449830
v -0.013100000 0.154666319 -0.085934259
v -0.012600000 0.154677987 -0.085800797
v -0.012233974 0.154709890 -0.085436165
v -0.013100000 0.154840633 -0.083941869
v -0.012600000 0.154828951 -0.084075332
v -0.012100000 0.154753476 -0.084938064
v -0.012233974 0.154797047 -0.084439971
v -0.013100000 0.156658709 -0.086108573
v -0.012600000 0.156670377 -0.085975111
v -0.012233974 0.156702280 -0.085610479
v -0.012100000 0.156745866 -0.085112378
v -0.013100000 0.156833023 -0.084116183
v -0.012600000 0.156821340 -0.084249645
v -0.012233974 0.156789437 -0.084614284
v -0.002150000 0.137661368 -0.093280114
v 0.000350000 0.137661368 -0.093280114
v -0.003650000 0.148619503 -0.094238840
v -0.003650000 0.149783090 -0.094111405
v -0.003650000 0.150809333 -0.093548395
v -0.003650000 0.151608095 -0.094500311
v -0.003650000 0.151542008 -0.092635505
v -0.003650000 0.151869565 -0.091511726
v 0.000350000 0.155891731 -0.094875082
v -0.002150000 0.137809113 -0.073863819
v -0.002150000 0.139369637 -0.073754698
v 0.000350000 0.137809113 -0.073863819
v 0.000350000 0.139369637 -0.073754698
v -0.003650000 0.153054893 -0.077963479
v -0.003650000 0.152364448 -0.075773649
v -0.003650000 0.150327787 -0.074713424
v -0.003650000 0.151451558 -0.075040981
v -0.003650000 0.152927458 -0.076799892
v -0.003650000 0.153316364 -0.074974895
v 0.000350000 0.157600001 -0.075349674
f 59 3 2
f 63 4 3
f 17 2 1
f 17 1 5
f 63 3 59
f 59 2 17
f 6 36 5
f 162 32 6
f 11 38 7
f 8 10 12
f 42 8 9
f 43 10 8
f 9 7 41
f 13 12 10
f 13 10 56
f 23 24 7
f 11 7 24
f 8 12 26
f 16 27 12
f 9 25 23
f 8 26 25
f 26 12 27
f 33 27 16
f 23 7 9
f 9 8 25
f 16 12 13
f 5 36 17
f 14 16 13
f 14 13 57
f 14 58 15
f 15 59 17
f 33 16 14
f 34 33 14
f 34 15 35
f 35 17 36
f 14 15 34
f 15 17 35
f 21 28 22
f 29 22 37
f 19 24 23
f 26 27 28
f 20 25 26
f 18 23 25
f 33 28 27
f 37 28 33
f 19 23 18
f 21 26 28
f 18 25 20
f 20 26 21
f 37 22 28
f 6 32 36
f 30 29 37
f 34 37 33
f 34 35 30
f 35 36 31
f 30 37 34
f 30 35 31
f 31 36 32
f 68 4 63
f 68 83 4
f 4 83 87
f 40 49 50
f 60 40 50
f 44 38 39
f 44 39 45
f 40 43 42
f 55 43 40
f 56 43 55
f 42 49 40
f 48 41 38
f 42 41 49
f 49 41 48
f 48 38 44
f 55 40 60
f 45 46 44
f 45 47 46
f 49 52 51
f 64 50 51
f 49 51 50
f 48 52 49
f 44 54 48
f 60 50 64
f 48 54 52
f 44 46 54
f 52 53 51
f 64 51 65
f 65 51 53
f 55 60 61
f 57 56 55
f 57 55 61
f 57 62 58
f 58 63 59
f 61 62 57
f 62 63 58
f 61 64 66
f 61 60 64
f 61 67 62
f 62 68 63
f 66 67 61
f 67 68 62
f 66 64 65
f 71 54 72
f 72 46 69
f 71 73 52
f 80 53 73
f 69 70 74
f 70 75 74
f 72 69 76
f 71 72 77
f 71 78 73
f 77 72 76
f 77 78 71
f 69 74 76
f 80 73 84
f 84 73 78
f 77 79 78
f 77 76 100
f 88 78 79
f 84 78 88
f 81 65 80
f 81 82 66
f 82 83 67
f 81 80 85
f 81 86 82
f 82 87 83
f 85 80 84
f 85 86 81
f 86 87 82
f 85 84 88
f 85 110 86
f 46 47 69
f 47 70 69
f 54 46 72
f 52 54 71
f 52 73 53
f 65 53 80
f 74 75 97
f 76 74 99
f 66 65 81
f 66 82 67
f 67 83 68
f 86 111 87
f 39 38 11
f 42 43 8
f 7 38 41
f 9 41 42
f 56 10 43
f 13 56 57
f 57 58 14
f 58 59 15
f 291 70 47
f 45 39 291
f 291 39 11
f 47 45 291
f 4 91 92
f 92 342 4
f 4 87 96
f 4 95 91
f 96 95 4
f 91 89 90
f 92 90 341
f 91 90 92
f 95 93 89
f 150 89 93
f 150 93 94
f 96 94 93
f 150 341 90
f 90 89 150
f 96 93 95
f 95 89 91
f 100 79 77
f 96 87 111
f 98 97 75
f 102 97 98
f 76 99 100
f 74 97 99
f 100 101 79
f 88 79 108
f 108 79 101
f 103 101 100
f 99 97 104
f 100 99 105
f 108 101 112
f 112 101 103
f 98 107 102
f 100 105 103
f 102 104 97
f 99 104 105
f 105 106 103
f 112 103 113
f 113 103 106
f 75 139 98
f 102 107 118
f 107 117 118
f 105 104 120
f 105 121 106
f 119 104 102
f 113 106 122
f 102 118 119
f 119 120 104
f 120 121 105
f 122 106 121
f 109 85 88
f 109 110 85
f 110 111 86
f 88 108 109
f 109 108 112
f 109 115 110
f 110 116 111
f 109 112 114
f 114 115 109
f 115 116 110
f 114 112 113
f 114 113 123
f 114 124 115
f 115 125 116
f 113 122 123
f 123 124 114
f 124 125 115
f 111 116 96
f 120 126 121
f 133 121 126
f 122 121 133
f 96 116 125
f 123 122 133
f 151 125 137
f 291 75 70
f 98 139 107
f 117 107 128
f 118 117 127
f 128 107 139
f 117 128 127
f 119 118 129
f 130 120 119
f 131 126 120
f 133 126 134
f 119 129 130
f 130 131 120
f 118 127 129
f 134 126 131
f 75 251 139
f 127 128 140
f 132 131 130
f 134 131 138
f 129 127 141
f 130 129 142
f 130 142 132
f 138 131 132
f 124 137 125
f 123 133 135
f 123 136 124
f 135 136 123
f 136 137 124
f 133 134 135
f 135 134 138
f 135 147 136
f 136 148 137
f 135 138 146
f 151 137 148
f 263 151 148
f 256 251 75
f 128 139 140
f 127 140 141
f 129 141 142
f 138 132 145
f 270 256 75
f 142 143 132
f 145 132 143
f 140 139 252
f 251 252 139
f 142 144 143
f 141 140 254
f 142 141 253
f 145 143 149
f 149 143 144
f 253 144 142
f 140 252 254
f 141 254 253
f 149 144 261
f 146 147 135
f 147 148 136
f 138 145 146
f 146 145 149
f 146 262 147
f 147 263 148
f 146 149 264
f 264 262 146
f 262 263 147
f 151 150 94
f 151 94 96
f 96 125 151
f 151 313 150
f 150 361 341
f 372 2 3
f 371 1 2
f 373 3 4
f 375 5 1
f 376 6 5
f 415 4 342
f 6 172 162
f 205 172 6
f 18 153 19
f 154 21 22
f 21 155 20
f 20 152 18
f 29 154 22
f 156 21 154
f 158 154 29
f 18 152 153
f 20 155 152
f 156 155 21
f 157 156 154
f 158 157 154
f 159 157 158
f 158 29 30
f 30 31 160
f 31 32 161
f 160 158 30
f 160 31 161
f 161 32 162
f 160 159 158
f 153 152 164
f 164 152 163
f 163 152 155
f 167 155 156
f 165 156 157
f 159 166 157
f 167 163 155
f 165 167 156
f 157 166 165
f 169 166 159
f 165 166 168
f 169 168 166
f 173 168 169
f 175 163 167
f 176 167 165
f 165 168 177
f 173 178 168
f 164 163 174
f 169 159 160
f 160 161 170
f 161 162 171
f 170 169 160
f 170 161 171
f 171 162 172
f 170 173 169
f 170 171 182
f 182 173 170
f 171 172 183
f 175 174 163
f 177 176 165
f 176 175 167
f 177 168 178
f 181 178 173
f 186 174 175
f 185 186 175
f 177 178 179
f 185 175 176
f 187 176 177
f 181 179 178
f 184 179 181
f 188 177 179
f 187 185 176
f 188 187 177
f 184 189 179
f 205 180 172
f 183 172 180
f 182 181 173
f 182 171 183
f 184 181 182
f 183 180 192
f 182 183 191
f 191 184 182
f 191 183 192
f 192 180 193
f 194 186 185
f 179 189 188
f 190 189 184
f 195 185 187
f 197 187 188
f 188 189 198
f 190 196 189
f 197 195 187
f 188 198 197
f 189 196 198
f 200 196 190
f 205 193 180
f 191 190 184
f 200 190 191
f 192 193 202
f 191 192 201
f 201 200 191
f 201 192 202
f 291 11 24
f 19 291 24
f 153 291 19
f 153 164 291
f 291 164 174
f 291 174 186
f 195 194 185
f 210 194 195
f 198 196 199
f 200 199 196
f 204 199 200
f 211 195 197
f 197 198 212
f 198 199 213
f 204 214 199
f 202 193 203
f 201 204 200
f 221 204 201
f 201 202 222
f 202 203 223
f 186 194 291
f 291 194 210
f 291 210 216
f 216 230 291
f 206 193 205
f 206 203 193
f 224 203 207
f 207 203 206
f 208 224 207
f 209 224 208
f 211 210 195
f 197 212 211
f 213 212 198
f 213 199 214
f 221 214 204
f 213 214 215
f 221 215 214
f 216 210 211
f 211 217 216
f 211 212 217
f 218 212 213
f 219 213 215
f 218 217 212
f 219 218 213
f 225 215 221
f 225 220 215
f 215 220 219
f 219 220 232
f 226 220 225
f 226 232 220
f 222 221 201
f 222 202 223
f 223 203 224
f 222 225 221
f 222 223 228
f 223 224 229
f 228 225 222
f 229 224 227
f 228 223 229
f 228 226 225
f 241 226 228
f 209 227 224
f 250 242 227
f 216 217 230
f 231 230 217
f 236 230 231
f 231 217 218
f 233 218 219
f 219 232 234
f 233 231 218
f 234 233 219
f 241 232 226
f 241 235 232
f 234 232 235
f 243 235 241
f 237 231 233
f 238 233 234
f 234 235 239
f 243 240 235
f 237 236 231
f 315 236 237
f 238 237 233
f 239 238 234
f 239 235 240
f 247 240 243
f 316 237 238
f 239 317 238
f 239 240 318
f 247 319 240
f 229 227 245
f 244 241 228
f 228 229 244
f 245 227 242
f 244 229 245
f 244 243 241
f 245 242 248
f 247 243 244
f 244 245 249
f 248 242 246
f 249 247 244
f 249 245 248
f 249 328 247
f 249 248 329
f 248 246 326
f 246 242 250
f 250 327 246
f 250 334 327
f 250 227 209
f 270 75 291
f 251 257 252
f 253 255 144
f 261 144 255
f 254 252 258
f 253 254 259
f 260 255 253
f 261 255 265
f 256 257 251
f 252 257 258
f 254 258 259
f 253 259 260
f 265 255 260
f 260 259 269
f 265 260 275
f 264 149 261
f 264 261 266
f 262 268 263
f 264 267 262
f 261 265 266
f 266 267 264
f 267 268 262
f 266 265 275
f 271 257 256
f 271 256 270
f 272 258 257
f 259 258 273
f 259 273 269
f 275 260 269
f 272 257 271
f 273 258 272
f 275 269 276
f 270 293 271
f 269 273 274
f 276 269 274
f 271 294 272
f 273 292 274
f 276 274 297
f 266 275 277
f 267 279 268
f 266 278 267
f 278 279 267
f 277 278 266
f 275 276 277
f 277 301 278
f 278 298 279
f 277 276 297
f 291 230 236
f 291 236 315
f 315 321 291
f 322 281 280
f 323 282 281
f 283 282 324
f 285 284 283
f 290 284 285
f 286 284 290
f 288 333 289
f 289 334 287
f 288 286 290
f 293 291 303
f 302 303 291
f 304 294 293
f 295 307 296
f 299 296 309
f 293 303 304
f 304 305 294
f 305 295 294
f 305 307 295
f 309 296 307
f 270 291 293
f 273 295 292
f 272 295 273
f 297 274 292
f 271 293 294
f 272 294 295
f 295 296 292
f 297 292 299
f 299 292 296
f 301 312 298
f 300 310 301
f 311 310 300
f 310 312 301
f 300 299 311
f 299 309 311
f 277 297 300
f 301 298 278
f 300 301 277
f 300 297 299
f 314 279 298
f 291 280 302
f 302 281 303
f 304 303 282
f 283 305 304
f 284 306 305
f 308 306 286
f 305 306 307
f 308 307 306
f 309 307 308
f 291 321 280
f 280 281 302
f 303 281 282
f 304 282 283
f 283 284 305
f 286 306 284
f 311 308 288
f 311 289 310
f 310 287 312
f 311 309 308
f 289 287 310
f 308 286 288
f 288 289 311
f 312 287 337
f 337 298 312
f 263 314 151
f 314 313 151
f 268 314 263
f 313 361 150
f 268 279 314
f 314 298 337
f 321 315 316
f 321 316 322
f 324 318 320
f 322 317 323
f 323 318 324
f 330 325 320
f 316 315 237
f 238 317 316
f 318 317 239
f 318 240 319
f 328 319 247
f 318 319 320
f 322 316 317
f 323 317 318
f 328 320 319
f 330 320 328
f 322 280 321
f 323 281 322
f 324 282 323
f 285 324 325
f 331 285 325
f 324 320 325
f 331 325 330
f 283 324 285
f 290 285 331
f 326 327 333
f 333 327 334
f 332 330 329
f 332 326 333
f 329 328 249
f 329 248 326
f 326 246 327
f 329 330 328
f 329 326 332
f 333 334 289
f 290 331 332
f 332 333 288
f 332 331 330
f 288 290 332
f 337 334 250
f 337 287 334
f 338 337 250
f 250 340 338
f 313 337 335
f 335 360 313
f 336 339 335
f 335 338 336
f 313 314 337
f 335 337 338
f 336 338 340
f 335 339 360
f 336 340 339
f 250 362 340
f 363 362 250
f 339 340 362
f 376 205 6
f 205 388 206
f 206 389 207
f 207 390 208
f 208 391 209
f 209 392 250
f 425 363 250
f 92 341 342
f 342 341 343
f 361 349 341
f 343 341 349
f 343 349 346
f 346 344 343
f 346 345 344
f 347 345 346
f 346 348 347
f 368 355 349
f 417 342 343
f 344 417 343
f 345 418 344
f 346 420 348
f 347 419 345
f 348 421 347
f 346 349 420
f 349 356 423
f 355 357 349
f 349 357 356
f 351 352 350
f 350 352 353
f 350 353 401
f 401 353 402
f 403 353 354
f 355 352 351
f 355 351 357
f 357 350 356
f 356 350 401
f 356 401 408
f 357 351 350
f 358 353 352
f 358 352 355
f 359 353 358
f 359 354 353
f 412 404 354
f 412 354 359
f 313 360 361
f 339 362 360
f 360 363 361
f 360 362 363
f 368 349 361
f 367 365 370
f 366 368 361
f 370 366 367
f 370 369 364
f 370 365 369
f 370 368 366
f 430 361 363
f 366 361 430
f 368 358 355
f 359 358 368
f 368 412 359
f 367 429 365
f 366 431 367
f 369 428 364
f 428 370 364
f 365 432 369
f 370 434 368
f 371 2 372
f 372 3 373
f 373 4 374
f 374 4 415
f 375 1 371
f 376 5 375
f 372 385 371
f 373 385 372
f 374 382 373
f 385 375 371
f 385 376 375
f 385 387 376
f 377 374 378
f 378 374 415
f 373 382 385
f 377 381 374
f 374 381 382
f 379 377 378
f 380 378 415
f 379 378 380
f 383 381 377
f 384 382 381
f 384 381 383
f 379 386 383
f 383 386 384
f 383 377 379
f 416 386 380
f 380 386 379
f 386 385 382
f 386 382 384
f 416 394 386
f 386 393 385
f 387 205 376
f 205 387 388
f 206 388 389
f 207 389 390
f 208 390 391
f 209 391 392
f 425 250 392
f 393 388 387
f 389 388 393
f 393 390 389
f 393 391 390
f 392 391 393
f 393 387 385
f 394 393 386
f 393 395 392
f 392 395 396
f 392 396 399
f 393 397 395
f 393 394 397
f 395 398 396
f 395 397 398
f 396 398 400
f 427 397 394
f 398 397 427
f 424 392 399
f 424 425 392
f 396 400 399
f 400 398 426
f 399 400 426
f 415 342 417
f 344 418 417
f 345 419 418
f 347 421 419
f 348 420 422
f 348 422 421
f 420 349 423
f 402 353 403
f 406 354 405
f 403 354 406
f 406 405 407
f 354 404 405
f 408 401 402
f 408 402 409
f 409 402 403
f 409 403 410
f 410 403 406
f 410 406 411
f 414 407 405
f 414 405 413
f 413 405 404
f 413 404 412
f 411 406 407
f 411 407 414
f 423 356 408
f 423 408 409
f 423 409 410
f 417 416 415
f 380 415 416
f 420 417 418
f 418 419 420
f 420 419 421
f 420 421 422
f 420 423 417
f 417 423 416
f 423 410 434
f 423 434 416
f 430 363 425
f 434 412 368
f 434 413 412
f 414 413 434
f 434 410 411
f 434 411 414
f 367 431 429
f 366 430 431
f 369 432 428
f 365 429 432
f 433 370 428
f 433 434 370
f 427 394 416
f 416 434 427
f 399 426 424
f 424 427 425
f 426 398 427
f 424 426 427
f 425 427 430
f 433 429 431
f 433 431 430
f 433 428 432
f 432 429 433
f 430 427 434
f 430 434 433
