# th_distal_shaft.obj  (48 v, 92 f)  units: metres
v -0.024550000 0.123399906 -0.083634362
v -0.024550000 0.123797208 -0.084152132
v -0.024550000 0.123150155 -0.083031416
v -0.024550000 0.123064972 -0.082384363
v -0.024550000 0.124314971 -0.084549427
v -0.024550000 0.124917924 -0.084799178
v -0.024550000 0.123150155 -0.081737317
v -0.024550000 0.123399906 -0.081134364
v -0.024550000 0.123797208 -0.080616601
v -0.024550000 0.124314971 -0.080219299
v -0.024550000 0.124917924 -0.079969548
v -0.024550000 0.125564978 -0.084884368
v -0.024550000 0.126212016 -0.084799178
v -0.024550000 0.126814976 -0.084549427
v -0.024550000 0.127332732 -0.084152132
v -0.024550000 0.127730042 -0.083634362
v -0.024550000 0.127979785 -0.083031416
v -0.024550000 0.128064975 -0.082384363
v -0.024550000 0.125564978 -0.079884365
v -0.024550000 0.126212016 -0.079969548
v -0.024550000 0.127730042 -0.081134364
v -0.024550000 0.127979785 -0.081737317
v -0.024550000 0.127332732 -0.080616601
v -0.024550000 0.126814976 -0.080219299
v -0.002150000 0.123797208 -0.084152132
v -0.002150000 0.123150155 -0.083031416
v -0.002150000 0.123399906 -0.083634362
v -0.002150000 0.124314971 -0.084549427
v -0.002150000 0.124917924 -0.084799178
v -0.002150000 0.123064972 -0.082384363
v -0.002150000 0.123150155 -0.081737317
v -0.002150000 0.123399906 -0.081134364
v -0.002150000 0.123797208 -0.080616601
v -0.002150000 0.124314971 -0.080219299
v -0.002150000 0.124917924 -0.079969548
v -0.002150000 0.125564978 -0.084884368
v -0.002150000 0.126212016 -0.084799178
v -0.002150000 0.126814976 -0.084549427
v -0.002150000 0.127332732 -0.084152132
v -0.002150000 0.127730042 -0.083634362
v -0.002150000 0.127979785 -0.083031416
v -0.002150000 0.125564978 -0.079884365
v -0.002150000 0.126212016 -0.079969548
v -0.002150000 0.128064975 -0.082384363
v -0.002150000 0.127979785 -0.081737317
v -0.002150000 0.127332732 -0.080616601
v -0.002150000 0.126814976 -0.080219299
v -0.002150000 0.127730042 -0.081134364
f 21 1 3
f 5 2 21
f 2 1 21
f 4 23 3
f 7 23 4
f 7 8 23
f 9 24 8
f 11 19 10
f 9 10 24
f 19 20 10
f 22 6 5
f 6 22 12
f 12 22 13
f 22 5 21
f 13 18 14
f 17 15 14
f 13 22 18
f 17 16 15
f 14 18 17
f 21 3 23
f 8 24 23
f 10 20 24
f 31 26 27
f 32 27 25
f 32 25 28
f 32 28 29
f 32 29 36
f 32 36 37
f 32 37 38
f 31 30 26
f 32 31 27
f 32 39 33
f 34 33 40
f 32 38 39
f 40 33 39
f 48 40 41
f 35 34 40
f 42 35 40
f 43 42 40
f 47 43 40
f 46 47 40
f 48 46 40
f 45 41 44
f 45 48 41
f 2 27 1
f 5 25 2
f 26 3 1
f 4 3 30
f 28 5 6
f 6 12 29
f 7 4 31
f 7 32 8
f 33 9 8
f 9 34 10
f 35 11 10
f 11 42 19
f 12 13 36
f 37 13 14
f 15 38 14
f 16 39 15
f 17 40 16
f 17 18 41
f 19 43 20
f 47 24 20
f 18 22 44
f 45 22 21
f 46 23 24
f 48 21 23
f 2 25 27
f 5 28 25
f 1 27 26
f 3 26 30
f 6 29 28
f 12 36 29
f 4 30 31
f 7 31 32
f 8 32 33
f 9 33 34
f 10 34 35
f 11 35 42
f 13 37 36
f 14 38 37
f 15 39 38
f 16 40 39
f 17 41 40
f 18 44 41
f 19 42 43
f 20 43 47
f 22 45 44
f 21 48 45
f 24 47 46
f 23 46 48
