# th_medial.obj  (627 v, 1250 f)  units: metres
v -0.023950001 0.068203017 -0.086957559
v -0.023950001 0.069720894 -0.087336004
v -0.023950001 0.066876374 -0.086128578
v -0.023950001 0.065870836 -0.084930219
v -0.023950001 0.065284826 -0.083479784
v -0.023950001 0.065175705 -0.081919245
v -0.024542389 0.069293275 -0.080139428
v -0.024450000 0.069296800 -0.080264211
v -0.024520712 0.069263592 -0.080152526
v -0.024488268 0.069243759 -0.080161273
v -0.024450000 0.069236793 -0.080164343
v -0.024050001 0.069296800 -0.080264211
v -0.024050001 0.069236793 -0.080164343
v -0.024000000 0.069249049 -0.080158934
v -0.023963397 0.069282539 -0.080144167
v -0.024542389 0.070996754 -0.082304172
v -0.024550000 0.071020000 -0.082273774
v -0.024488268 0.070963882 -0.082347170
v -0.024450000 0.070959263 -0.082353212
v -0.024520712 0.070977047 -0.082329944
v -0.024450000 0.070431679 -0.081832945
v -0.024542389 0.072196588 -0.083002493
v -0.024550000 0.072211541 -0.082967266
v -0.024520712 0.072183914 -0.083032362
v -0.024488268 0.072175443 -0.083052315
v -0.024450000 0.072172470 -0.083059318
v -0.024450000 0.072004519 -0.082961574
v -0.024050001 0.070959263 -0.082353212
v -0.024000000 0.070967399 -0.082342573
v -0.023963397 0.070989631 -0.082313493
v -0.023950001 0.071020000 -0.082273774
v -0.024050001 0.070431679 -0.081832945
v -0.024050001 0.072172470 -0.083059318
v -0.024000000 0.072177701 -0.083046988
v -0.023963397 0.072192006 -0.083013296
v -0.024050001 0.072004519 -0.082961574
v -0.023950001 0.072211541 -0.082967274
v -0.024542389 0.070008278 -0.081329405
v -0.024550000 0.070038356 -0.081305735
v -0.024488268 0.069965750 -0.081362873
v -0.024520712 0.069982782 -0.081349462
v -0.024450000 0.069959767 -0.081367575
v -0.024550000 0.069328293 -0.080123991
v -0.024050001 0.069959767 -0.081367575
v -0.024000000 0.069970295 -0.081359290
v -0.023963397 0.069999062 -0.081336655
v -0.023950001 0.070038356 -0.081305735
v -0.023950001 0.069328286 -0.080123991
v -0.024542389 0.073532395 -0.083380491
v -0.024550000 0.073538117 -0.083342656
v -0.024542389 0.074920237 -0.083414413
v -0.024550000 0.074916370 -0.083376341
v -0.024520712 0.073527545 -0.083412573
v -0.024488268 0.073524304 -0.083434001
v -0.024450000 0.073523164 -0.083441533
v -0.024450000 0.073873296 -0.083450086
v -0.024520712 0.074923515 -0.083446689
v -0.024488268 0.074925706 -0.083468258
v -0.024450000 0.074926481 -0.083475828
v -0.024450000 0.075800784 -0.083273977
v -0.024050001 0.073523164 -0.083441533
v -0.024050001 0.073873296 -0.083450086
v -0.024000000 0.073525168 -0.083428286
v -0.023963397 0.073530644 -0.083392091
v -0.023950001 0.073538117 -0.083342656
v -0.024050001 0.074926481 -0.083475828
v -0.024000000 0.074925125 -0.083462499
v -0.023963397 0.074921422 -0.083426088
v -0.023950001 0.074916370 -0.083376341
v -0.024050001 0.075800784 -0.083273977
v -0.024542389 0.076272920 -0.083102122
v -0.024550000 0.076259702 -0.083066210
v -0.024542389 0.077505432 -0.082463250
v -0.024550000 0.077483706 -0.082431749
v -0.024488268 0.076291606 -0.083152913
v -0.024520712 0.076284118 -0.083132572
v -0.024450000 0.076294236 -0.083160058
v -0.024520712 0.077523857 -0.082489952
v -0.024488268 0.077536166 -0.082507797
v -0.024450000 0.077540487 -0.082514063
v -0.024450000 0.077569418 -0.082488202
v -0.024050001 0.076294236 -0.083160058
v -0.024000000 0.076289609 -0.083147489
v -0.023963397 0.076276965 -0.083113134
v -0.023950001 0.076259702 -0.083066210
v -0.024050001 0.077540487 -0.082514063
v -0.024050001 0.077569418 -0.082488202
v -0.024000000 0.077532880 -0.082503036
v -0.023963397 0.077512100 -0.082472906
v -0.023950001 0.077483706 -0.082431749
v -0.024550000 0.078511469 -0.081512824
v -0.024542389 0.078540348 -0.081537932
v -0.024488268 0.078581192 -0.081573434
v -0.024450000 0.078586936 -0.081578434
v -0.024520712 0.078564830 -0.081559218
v -0.024450000 0.078912146 -0.081092648
v -0.024550000 0.079278417 -0.080367178
v -0.024542389 0.079312630 -0.080384314
v -0.024450000 0.079367831 -0.080411956
v -0.024520712 0.079341643 -0.080398835
v -0.024488268 0.079361022 -0.080408543
v -0.024050001 0.078586936 -0.081578434
v -0.024000000 0.078576826 -0.081569642
v -0.023963397 0.078549206 -0.081545629
v -0.023950001 0.078511469 -0.081512824
v -0.024050001 0.078912146 -0.081092648
v -0.024050001 0.079367831 -0.080411956
v -0.024000000 0.079355851 -0.080405958
v -0.023963397 0.079323120 -0.080389567
v -0.023950001 0.079278417 -0.080367178
v -0.026650000 0.084939085 -0.088421792
v -0.026650000 0.083612449 -0.087592818
v -0.026650000 0.082606904 -0.086394459
v -0.026650000 0.086456962 -0.088800244
v -0.023950001 0.084939085 -0.088421792
v -0.023950001 0.083612449 -0.087592818
v -0.023950001 0.082606904 -0.086394459
v -0.023950001 0.086456962 -0.088800244
v -0.024250001 0.097415105 -0.089758970
v -0.026650000 0.082020894 -0.084944017
v -0.026650000 0.081911772 -0.083383486
v -0.023950001 0.082020894 -0.084944017
v -0.023950001 0.081911772 -0.083383486
v -0.024542389 0.068896666 -0.078809030
v -0.024550000 0.068934426 -0.078802779
v -0.024520712 0.068864658 -0.078814328
v -0.024488268 0.068843275 -0.078817874
v -0.024450000 0.068835765 -0.078819111
v -0.024050001 0.068835765 -0.078819111
v -0.024000000 0.068848982 -0.078816928
v -0.023963397 0.068885095 -0.078810945
v -0.023950001 0.068934418 -0.078802779
v -0.024450000 0.068819322 -0.078391120
v -0.024542389 0.068843380 -0.077421799
v -0.024550000 0.068881504 -0.077425130
v -0.024488268 0.068789467 -0.077417083
v -0.024450000 0.068781883 -0.077416420
v -0.024520712 0.068811059 -0.077418968
v -0.024050001 0.068819322 -0.078391120
v -0.024050001 0.068781883 -0.077416420
v -0.024000000 0.068795227 -0.077417582
v -0.023963397 0.068831690 -0.077420771
v -0.023950001 0.068881497 -0.077425130
v -0.024450000 0.068988010 -0.076463021
v -0.024550000 0.069172852 -0.076077603
v -0.024542389 0.069136754 -0.076064892
v -0.024520712 0.069106154 -0.076054119
v -0.024488268 0.069085702 -0.076046914
v -0.024450000 0.069078527 -0.076044388
v -0.024050001 0.068988010 -0.076463021
v -0.024050001 0.069078527 -0.076044388
v -0.024000000 0.069091164 -0.076048836
v -0.023963397 0.069125690 -0.076060995
v -0.023950001 0.069172844 -0.076077603
v -0.024550000 0.069790162 -0.074844867
v -0.024542389 0.069758363 -0.074823573
v -0.024520712 0.069731399 -0.074805528
v -0.024488268 0.069713384 -0.074793473
v -0.024450000 0.069707058 -0.074789234
v -0.024450000 0.069783494 -0.074701309
v -0.024050001 0.069707058 -0.074789234
v -0.023950001 0.069790162 -0.074844867
v -0.024000000 0.069718197 -0.074796692
v -0.023963397 0.069748610 -0.074817047
v -0.024050001 0.069783494 -0.074701309
v -0.024550000 0.079736352 -0.079066791
v -0.024542389 0.079773761 -0.079074875
v -0.024450000 0.079743668 -0.079344705
v -0.024520712 0.079805471 -0.079081729
v -0.024488268 0.079826660 -0.079086311
v -0.024450000 0.079834096 -0.079087920
v -0.024050001 0.079743668 -0.079344705
v -0.024050001 0.079834096 -0.079087920
v -0.023963397 0.079785228 -0.079077356
v -0.024000000 0.079821005 -0.079085089
v -0.023950001 0.079736359 -0.079066791
v -0.024550000 0.079856515 -0.077693373
v -0.024542389 0.079894759 -0.077691898
v -0.024520712 0.079927176 -0.077690654
v -0.024488268 0.079948835 -0.077689826
v -0.024450000 0.079956442 -0.077689528
v -0.024450000 0.079911977 -0.077420950
v -0.024050001 0.079956442 -0.077689528
v -0.023963397 0.079906479 -0.077691451
v -0.023950001 0.079856515 -0.077693373
v -0.024000000 0.079943053 -0.077690043
v -0.024050001 0.079911977 -0.077420950
v -0.024550000 0.079631343 -0.076333217
v -0.024542389 0.079668015 -0.076322287
v -0.024450000 0.079396620 -0.075555161
v -0.024520712 0.079699107 -0.076313019
v -0.024488268 0.079719886 -0.076306820
v -0.024450000 0.079727180 -0.076304644
v -0.023950001 0.079631343 -0.076333217
v -0.024050001 0.079396620 -0.075555161
v -0.024050001 0.079727180 -0.076304644
v -0.024000000 0.079714336 -0.076308474
v -0.023963397 0.079679266 -0.076318935
v -0.024550000 0.079074994 -0.075071797
v -0.024542389 0.079107799 -0.075052083
v -0.024520712 0.079135604 -0.075035371
v -0.024488268 0.079154186 -0.075024210
v -0.024450000 0.079160713 -0.075020291
v -0.024550000 0.078222416 -0.073988356
v -0.024000000 0.079149224 -0.075027190
v -0.023963397 0.079117849 -0.075046040
v -0.023950001 0.079074994 -0.075071789
v -0.024050001 0.079160713 -0.075020291
v -0.023950001 0.078222416 -0.073988356
v -0.023950001 0.066012412 -0.072355777
v -0.024542389 0.070669137 -0.073775843
v -0.024550000 0.070694648 -0.073804371
v -0.024520712 0.070647515 -0.073751658
v -0.024488268 0.070633069 -0.073735498
v -0.024450000 0.070627995 -0.073729828
v -0.024450000 0.071173541 -0.073353477
v -0.024550000 0.071829475 -0.073021509
v -0.024542389 0.071811870 -0.072987534
v -0.024550000 0.073123343 -0.072545461
v -0.024542389 0.073114738 -0.072508171
v -0.024520712 0.071796939 -0.072958730
v -0.024488268 0.071786962 -0.072939485
v -0.024450000 0.071783461 -0.072932728
v -0.024450000 0.072918482 -0.072515123
v -0.024520712 0.073107436 -0.072476558
v -0.024488268 0.073102564 -0.072455436
v -0.024450000 0.073100850 -0.072448023
v -0.023950001 0.070694648 -0.073804371
v -0.024050001 0.070627995 -0.073729828
v -0.024000000 0.070636921 -0.073739812
v -0.023963397 0.070661321 -0.073767103
v -0.024050001 0.071173541 -0.073353477
v -0.023950001 0.071829475 -0.073021509
v -0.024050001 0.071783461 -0.072932728
v -0.023963397 0.071806468 -0.072977118
v -0.024000000 0.071789622 -0.072944619
v -0.024050001 0.072918482 -0.072515123
v -0.024050001 0.073100850 -0.072448023
v -0.023950001 0.073123343 -0.072545461
v -0.023963397 0.073112100 -0.072496742
v -0.024000000 0.073103867 -0.072461076
v -0.023950001 0.066390865 -0.070837907
v -0.023950001 0.067219839 -0.069511265
v -0.023950001 0.068418197 -0.068505727
v -0.023950001 0.069868632 -0.067919716
v -0.023950001 0.071429171 -0.067810595
v -0.024550000 0.075858116 -0.072612301
v -0.024542389 0.075868540 -0.072575480
v -0.024550000 0.077127188 -0.073150992
v -0.024542389 0.077146433 -0.073117912
v -0.024520712 0.075877368 -0.072544262
v -0.024488268 0.075883277 -0.072523400
v -0.024450000 0.075885348 -0.072516076
v -0.024450000 0.076711319 -0.072866686
v -0.024520712 0.077162758 -0.073089875
v -0.024488268 0.077173658 -0.073071137
v -0.024450000 0.077177487 -0.073064558
v -0.024050001 0.075885348 -0.072516076
v -0.024000000 0.075881697 -0.072528966
v -0.023963397 0.075871728 -0.072564185
v -0.023950001 0.075858116 -0.072612301
v -0.024050001 0.076711319 -0.072866686
v -0.024050001 0.077177487 -0.073064558
v -0.023963397 0.077152334 -0.073107772
v -0.023950001 0.077127188 -0.073150985
v -0.024000000 0.077170752 -0.073076136
v -0.024550000 0.074494950 -0.072406135
v -0.024542389 0.074495889 -0.072367884
v -0.024520712 0.074496679 -0.072335452
v -0.024488268 0.074497208 -0.072313778
v -0.024450000 0.074497394 -0.072306171
v -0.024450000 0.074843697 -0.072358541
v -0.024050001 0.074497394 -0.072306171
v -0.023963397 0.074496172 -0.072356150
v -0.023950001 0.074494950 -0.072406135
v -0.024000000 0.074497066 -0.072319560
v -0.024050001 0.074848652 -0.072325803
v -0.024542389 0.078249283 -0.073961109
v -0.024520712 0.078272067 -0.073938012
v -0.024488268 0.078287289 -0.073922575
v -0.024450000 0.078316629 -0.073947653
v -0.024450000 0.078292631 -0.073917158
v -0.024050001 0.078316629 -0.073947653
v -0.024050001 0.078292631 -0.073917158
v -0.024000000 0.078283228 -0.073926695
v -0.023963397 0.078257523 -0.073952757
v -0.026650000 0.082748480 -0.073820017
v -0.026650000 0.083126932 -0.072302140
v -0.026650000 0.083955906 -0.070975505
v -0.023950001 0.082748480 -0.073820017
v -0.023950001 0.083126932 -0.072302140
v -0.023950001 0.083955906 -0.070975505
v -0.026650000 0.085154265 -0.069969960
v -0.026650000 0.086604707 -0.069383949
v -0.026650000 0.088165238 -0.069274828
v -0.023950001 0.085154265 -0.069969960
v -0.023950001 0.086604707 -0.069383949
v -0.023950001 0.088165238 -0.069274828
v -0.024250001 0.098578684 -0.089631543
v -0.024650000 0.102097213 -0.090168610
v -0.024250001 0.102097213 -0.090168610
v -0.024250001 0.099604934 -0.089068525
v -0.024250001 0.100337602 -0.088155635
v -0.024250001 0.100665160 -0.087031856
v -0.024754522 0.122879960 -0.087440372
v -0.024700401 0.122853719 -0.087487705
v -0.024732845 0.122864231 -0.087468751
v -0.024650000 0.122803316 -0.087487705
v -0.024842389 0.122879960 -0.087228239
v -0.024850000 0.122898512 -0.087194771
v -0.024754522 0.121931538 -0.086776279
v -0.024650000 0.121845625 -0.086817123
v -0.024650000 0.121827409 -0.086800762
v -0.024743684 0.121814832 -0.086682454
v -0.024650000 0.121698119 -0.086671472
v -0.024700401 0.121896029 -0.086817123
v -0.024732845 0.121910252 -0.086800762
v -0.024754522 0.121719405 -0.086564146
v -0.024842389 0.121931538 -0.086564146
v -0.024850000 0.121956646 -0.086535260
v -0.024732845 0.121698119 -0.086588629
v -0.026650000 0.127998278 -0.092434689
v -0.026650000 0.129161865 -0.092307262
v -0.026650000 0.130188107 -0.091744244
v -0.026650000 0.130920783 -0.090831354
v -0.026650000 0.131248325 -0.089707576
v -0.024650000 0.127998278 -0.092434689
v -0.024650000 0.129161865 -0.092307262
v -0.024650000 0.130188107 -0.091744244
v -0.024650000 0.130920783 -0.090831354
v -0.024650000 0.131248325 -0.089707576
v -0.026650000 0.131474942 -0.087117471
v -0.024754522 0.123945735 -0.087892771
v -0.024732845 0.123936243 -0.087923795
v -0.024700401 0.123929910 -0.087944523
v -0.024650000 0.123929910 -0.087965399
v -0.024650000 0.123879507 -0.087944523
v -0.024754522 0.125082269 -0.088113688
v -0.024842389 0.125082269 -0.087901555
v -0.024850000 0.125085607 -0.087863430
v -0.024700401 0.125077561 -0.088167608
v -0.024732845 0.125079438 -0.088146009
v -0.024650000 0.125077561 -0.088188484
v -0.024754522 0.126239911 -0.088093482
v -0.024842389 0.126239911 -0.087881349
v -0.024850000 0.126235247 -0.087843366
v -0.024732845 0.126243860 -0.088125683
v -0.024700401 0.126246512 -0.088147201
v -0.024650000 0.126246512 -0.088168077
v -0.024842389 0.123945735 -0.087680638
v -0.024850000 0.123956919 -0.087644041
v -0.024754522 0.127368048 -0.087833032
v -0.024700401 0.127385676 -0.087884210
v -0.024732845 0.127378613 -0.087863714
v -0.024650000 0.127385676 -0.087905087
v -0.024650000 0.127436072 -0.087884210
v -0.024842389 0.127368048 -0.087620899
v -0.024850000 0.127355590 -0.087584719
v -0.024754522 0.128417388 -0.087343723
v -0.024842389 0.128417388 -0.087131590
v -0.024850000 0.128397673 -0.087098785
v -0.024700401 0.128445253 -0.087390110
v -0.024732845 0.128434092 -0.087371536
v -0.024650000 0.128495649 -0.087390110
v -0.024732845 0.129364178 -0.086670659
v -0.024700401 0.129378960 -0.086686514
v -0.024754522 0.129342049 -0.086646937
v -0.024842389 0.129342049 -0.086434804
v -0.024850000 0.129315957 -0.086406812
v -0.024650000 0.131474942 -0.087117471
v -0.024650000 0.129429355 -0.086686514
v -0.024650000 0.129447028 -0.086670659
v -0.024754522 0.129554182 -0.086434804
v -0.024700401 0.129591092 -0.086474381
v -0.024650000 0.129576311 -0.086541370
v -0.024650000 0.129591092 -0.086524785
v -0.024732845 0.129576311 -0.086458527
v -0.024754522 0.120929778 -0.085717373
v -0.024650000 0.120903865 -0.085819736
v -0.024650000 0.120886557 -0.085800342
v -0.024700401 0.120886557 -0.085749939
v -0.024732845 0.120903865 -0.085736893
v -0.024700401 0.120284408 -0.084747806
v -0.024650000 0.120284408 -0.084798209
v -0.024650000 0.120263532 -0.084747806
v -0.024842389 0.121141911 -0.085717373
v -0.024850000 0.121172473 -0.085694343
v -0.024754522 0.120333463 -0.084724933
v -0.024842389 0.120545596 -0.084724933
v -0.024850000 0.120580278 -0.084708758
v -0.024732845 0.120304056 -0.084738642
v -0.024754522 0.119956516 -0.083630197
v -0.024732845 0.119924903 -0.083637498
v -0.024700401 0.119903781 -0.083642371
v -0.024650000 0.119882904 -0.083642371
v -0.024850000 0.120205939 -0.083621591
v -0.024842389 0.120168649 -0.083630197
v -0.024754522 0.119815417 -0.082481012
v -0.024850000 0.120065808 -0.082480349
v -0.024842389 0.120027550 -0.082481012
v -0.024732845 0.119782977 -0.082481578
v -0.024700401 0.119761303 -0.082481958
v -0.024650000 0.119740427 -0.082481958
v -0.024798455 0.119971938 -0.081904307
v -0.024754522 0.119916327 -0.081327610
v -0.024732845 0.119884476 -0.081321418
v -0.024700401 0.119863197 -0.081317283
v -0.024650000 0.119842321 -0.081317283
v -0.024842389 0.120128460 -0.081327610
v -0.024850000 0.120166026 -0.081334911
v -0.024754522 0.120254837 -0.080220386
v -0.024842389 0.120466970 -0.080220386
v -0.024850000 0.120502196 -0.080235340
v -0.024700401 0.120205022 -0.080199242
v -0.024732845 0.120224975 -0.080207705
v -0.024650000 0.120184146 -0.080199242
v -0.024650000 0.120205022 -0.080148838
v -0.026650000 0.131396785 -0.083983444
v -0.024842389 0.130101651 -0.085560992
v -0.024850000 0.130070299 -0.085539043
v -0.024754522 0.130313784 -0.085560992
v -0.024650000 0.130358115 -0.085642435
v -0.024732845 0.130340353 -0.085579596
v -0.024700401 0.130358115 -0.085592031
v -0.024798455 0.130488381 -0.085054666
v -0.024842389 0.130662978 -0.084548347
v -0.024754522 0.130875111 -0.084548347
v -0.024850000 0.130627751 -0.084533393
v -0.024732845 0.130904973 -0.084561020
v -0.024700401 0.130924925 -0.084569491
v -0.024650000 0.130924925 -0.084619895
v -0.024650000 0.130945802 -0.084569491
v -0.024650000 0.131396785 -0.083983444
v -0.024850000 0.130963922 -0.083433822
v -0.024842389 0.131001487 -0.083441123
v -0.024754522 0.131213620 -0.083441123
v -0.024754522 0.131225154 -0.083309367
v -0.024650000 0.131273270 -0.083498374
v -0.024732845 0.131245464 -0.083447315
v -0.024700673 0.131263703 -0.083460778
v -0.024700401 0.131263793 -0.083461121
v -0.024709091 0.131261036 -0.083450340
v -0.024731696 0.131249815 -0.083406270
v -0.024732845 0.131249249 -0.083404034
v -0.026650000 0.130623206 -0.080945380
v -0.024842389 0.131067261 -0.082689315
v -0.024850000 0.131038830 -0.082577638
v -0.024850000 0.130623206 -0.080945380
v -0.024250001 0.101850495 -0.073483609
v -0.024250001 0.101723060 -0.072320029
v -0.024250001 0.101160042 -0.071293779
v -0.024250001 0.099123381 -0.070233554
v -0.024250001 0.100247160 -0.070561111
v -0.024650000 0.103805490 -0.070643194
v -0.024250001 0.103805490 -0.070643194
v -0.024754522 0.120816156 -0.079207741
v -0.024850000 0.121059641 -0.079229690
v -0.024842389 0.121028289 -0.079207741
v -0.024732845 0.120789587 -0.079189129
v -0.024700401 0.120771825 -0.079176694
v -0.024650000 0.120771825 -0.079126291
v -0.024754522 0.121575758 -0.078333929
v -0.024850000 0.121813983 -0.078361914
v -0.024842389 0.121787891 -0.078333929
v -0.024732845 0.121553630 -0.078310199
v -0.024700401 0.121538848 -0.078294344
v -0.024650000 0.121538848 -0.078243941
v -0.024650000 0.121553630 -0.078227356
v -0.024754522 0.121787891 -0.078121796
v -0.024700401 0.121750981 -0.078082211
v -0.024732845 0.121765763 -0.078098066
v -0.024650000 0.121682920 -0.078098066
v -0.024650000 0.121700577 -0.078082211
v -0.024850000 0.122732267 -0.077669941
v -0.024842389 0.122712560 -0.077637136
v -0.024754522 0.122712560 -0.077425003
v -0.024650000 0.122634284 -0.077378616
v -0.024732845 0.122695848 -0.077397197
v -0.024700401 0.122684687 -0.077378616
v -0.026650000 0.129192978 -0.078155622
v -0.024842389 0.123761892 -0.077147827
v -0.024850000 0.123774357 -0.077184014
v -0.024850000 0.127173021 -0.077124692
v -0.024842389 0.127184212 -0.077088095
v -0.024850000 0.129305661 -0.078375407
v -0.024842389 0.129242107 -0.078251459
v -0.024850000 0.129173294 -0.078233466
v -0.024842389 0.129198402 -0.078204587
v -0.024834238 0.129218087 -0.078204587
v -0.024823681 0.129192978 -0.078155622
v -0.024826489 0.129198402 -0.078166202
v -0.024850000 0.128231436 -0.077573963
v -0.024842389 0.128249988 -0.077540487
v -0.024754522 0.128249988 -0.077328354
v -0.024732845 0.128265709 -0.077299982
v -0.024700401 0.128276214 -0.077281021
v -0.024650000 0.128326610 -0.077281021
v -0.024754522 0.128853306 -0.077750809
v -0.024716565 0.128746316 -0.077623300
v -0.024732845 0.128773168 -0.077655315
v -0.024700401 0.128719628 -0.077591509
v -0.024650000 0.128647834 -0.077505946
v -0.026650000 0.127177849 -0.075754069
v -0.024754522 0.123761892 -0.076935694
v -0.024650000 0.123693869 -0.076884523
v -0.024732845 0.123751335 -0.076905020
v -0.024700401 0.123744272 -0.076884523
v -0.024650000 0.123744272 -0.076863647
v -0.024850000 0.124894701 -0.076925360
v -0.024842389 0.124890037 -0.076887377
v -0.024754522 0.124890037 -0.076675244
v -0.024732845 0.124886081 -0.076643042
v -0.024700401 0.124883436 -0.076621525
v -0.024650000 0.124883436 -0.076600648
v -0.024850000 0.126044333 -0.076905295
v -0.024842389 0.126047671 -0.076867171
v -0.024754522 0.126047671 -0.076655038
v -0.024700401 0.125467911 -0.076611325
v -0.024732845 0.126050502 -0.076622717
v -0.024700401 0.126052395 -0.076601125
v -0.024650000 0.126052395 -0.076580249
v -0.024798455 0.126615942 -0.076871566
v -0.024754522 0.126615942 -0.076765500
v -0.024754522 0.127184212 -0.076875962
v -0.024732845 0.127193689 -0.076844938
v -0.024700401 0.127200037 -0.076824203
v -0.024650000 0.127200037 -0.076803327
v -0.024650000 0.127250433 -0.076824203
v -0.024650000 0.127177849 -0.075754069
v -0.026650000 0.118748412 -0.071950547
v -0.026650000 0.121821262 -0.072571740
v -0.024650000 0.118748412 -0.071950547
v -0.024650000 0.121821262 -0.072571740
v -0.026650000 0.124678828 -0.073861130
v -0.024650000 0.124678828 -0.073861130
v -0.002150000 0.068203017 -0.086957559
v -0.002150000 0.069720894 -0.087336004
v -0.002150000 0.066876374 -0.086128578
v -0.002150000 0.065870836 -0.084930219
v -0.002150000 0.065284826 -0.083479784
v -0.002150000 0.065175705 -0.081919245
v -0.003650000 0.097415105 -0.089758970
v -0.002150000 0.084939085 -0.088421792
v -0.002150000 0.083612449 -0.087592818
v -0.002150000 0.082606904 -0.086394459
v -0.002150000 0.086456962 -0.088800244
v 0.000350000 0.084939085 -0.088421792
v 0.000350000 0.083612449 -0.087592818
v 0.000350000 0.082606904 -0.086394459
v 0.000350000 0.086456962 -0.088800244
v -0.002150000 0.082020894 -0.084944017
v -0.002150000 0.081911772 -0.083383486
v 0.000350000 0.082020894 -0.084944017
v 0.000350000 0.081911772 -0.083383486
v -0.002150000 0.066012412 -0.072355777
v -0.002150000 0.066390865 -0.070837907
v -0.002150000 0.067219839 -0.069511265
v -0.002150000 0.068418197 -0.068505727
v -0.002150000 0.069868632 -0.067919716
v -0.002150000 0.071429171 -0.067810595
v -0.002150000 0.082748480 -0.073820017
v -0.002150000 0.083126932 -0.072302140
v -0.002150000 0.083955906 -0.070975505
v 0.000350000 0.082748480 -0.073820017
v 0.000350000 0.083126932 -0.072302140
v 0.000350000 0.083955906 -0.070975505
v -0.002150000 0.085154265 -0.069969960
v -0.002150000 0.086604707 -0.069383949
v -0.002150000 0.088165238 -0.069274828
v 0.000350000 0.085154265 -0.069969960
v 0.000350000 0.086604707 -0.069383949
v 0.000350000 0.088165238 -0.069274828
v -0.003650000 0.098578684 -0.089631543
v -0.003650000 0.100403689 -0.090020441
v -0.003650000 0.099604934 -0.089068525
v -0.003650000 0.100337602 -0.088155635
v -0.003650000 0.100665160 -0.087031856
v -0.001850000 0.100403689 -0.090020441
v -0.001850000 0.127998278 -0.092434689
v -0.001850000 0.129161865 -0.092307262
v -0.001850000 0.130188107 -0.091744244
v -0.001850000 0.130920783 -0.090831354
v -0.001850000 0.131248325 -0.089707576
v 0.000350000 0.127998278 -0.092434689
v 0.000350000 0.129161865 -0.092307262
v 0.000350000 0.130188107 -0.091744244
v 0.000350000 0.130920783 -0.090831354
v 0.000350000 0.131248325 -0.089707576
v -0.001850000 0.131474942 -0.087117471
v 0.000350000 0.131474942 -0.087117471
v -0.001850000 0.122530155 -0.084671259
v -0.001850000 0.121862367 -0.083239175
v -0.001850000 0.121834792 -0.081659287
v -0.001850000 0.122452199 -0.080204770
v -0.001850000 0.123722695 -0.085707918
v -0.001850000 0.125233769 -0.086169906
v -0.001850000 0.126802132 -0.085977338
v -0.001850000 0.128156558 -0.085163511
v -0.001850000 0.129062891 -0.083869144
v -0.001850000 0.131396785 -0.083983444
v 0.000350000 0.131396785 -0.083983444
v -0.001850000 0.129364386 -0.082318053
v -0.001850000 0.129008949 -0.080778420
v -0.001850000 0.130623206 -0.080945380
v 0.000350000 0.130623206 -0.080945380
v -0.003650000 0.101850495 -0.073483609
v -0.003650000 0.101723060 -0.072320029
v -0.003650000 0.101160042 -0.071293779
v -0.003650000 0.099123381 -0.070233554
v -0.003650000 0.100247160 -0.070561111
v -0.003650000 0.102111965 -0.070495024
v -0.001850000 0.102111965 -0.070495024
v -0.001850000 0.123607829 -0.079127125
v -0.001850000 0.125101879 -0.078612693
v -0.001850000 0.125896171 -0.078598827
v -0.001850000 0.126675993 -0.078750409
v -0.001850000 0.128058001 -0.079516470
v -0.001850000 0.129192978 -0.078155622
v 0.000350000 0.129192978 -0.078155622
v -0.001850000 0.127177849 -0.075754069
v 0.000350000 0.127177849 -0.075754069
v -0.001850000 0.118748412 -0.071950547
v -0.001850000 0.121821262 -0.072571740
v 0.000350000 0.118748412 -0.071950547
v 0.000350000 0.121821262 -0.072571740
v -0.001850000 0.124678828 -0.073861130
v 0.000350000 0.124678828 -0.073861130
f 2 115 118
f 2 116 115
f 2 117 116
f 1 3 31
f 4 5 47
f 3 4 47
f 3 47 31
f 1 31 2
f 23 50 49
f 25 54 55
f 22 49 53
f 24 53 54
f 26 55 61
f 2 31 37
f 2 37 65
f 2 65 69
f 33 61 63
f 34 63 64
f 35 64 65
f 5 6 48
f 8 11 10
f 8 12 11
f 11 12 13
f 5 48 47
f 6 132 48
f 12 14 13
f 18 20 25
f 16 24 20
f 18 27 19
f 19 36 28
f 16 39 17
f 20 41 38
f 18 40 41
f 21 32 42
f 18 19 21
f 19 28 21
f 18 41 20
f 16 20 38
f 18 21 40
f 21 28 32
f 17 23 22
f 16 17 22
f 22 23 49
f 25 26 27
f 26 33 27
f 27 33 36
f 20 24 25
f 16 22 24
f 18 25 27
f 19 27 36
f 24 54 25
f 22 53 24
f 25 55 26
f 26 61 33
f 17 39 91
f 28 36 29
f 29 35 30
f 30 46 45
f 28 29 32
f 29 30 45
f 30 31 46
f 29 45 32
f 33 34 36
f 29 36 34
f 29 34 35
f 30 35 37
f 30 37 31
f 33 63 34
f 34 64 35
f 35 65 37
f 16 38 39
f 38 43 39
f 21 42 40
f 32 44 42
f 9 41 40
f 7 38 41
f 10 40 42
f 8 42 44
f 7 43 38
f 9 40 10
f 7 41 9
f 8 10 42
f 8 44 12
f 39 43 97
f 32 45 44
f 31 47 46
f 12 44 45
f 14 45 46
f 15 46 47
f 12 45 14
f 14 46 15
f 15 47 48
f 2 69 122
f 49 50 51
f 50 52 51
f 50 72 52
f 51 52 71
f 54 56 55
f 49 57 53
f 53 58 54
f 54 58 56
f 53 57 58
f 49 51 57
f 55 56 62
f 55 62 61
f 56 66 62
f 56 58 59
f 58 60 59
f 57 75 58
f 51 76 57
f 56 59 66
f 59 70 66
f 59 60 70
f 58 75 60
f 51 71 76
f 57 76 75
f 60 82 70
f 61 62 63
f 62 67 63
f 63 68 64
f 63 67 68
f 64 68 69
f 64 69 65
f 62 66 67
f 66 70 67
f 67 84 68
f 68 85 69
f 67 70 83
f 67 83 84
f 68 84 85
f 2 122 117
f 69 85 122
f 85 90 122
f 105 123 122
f 23 91 50
f 17 91 23
f 52 72 71
f 50 74 72
f 71 72 73
f 72 74 73
f 60 75 77
f 60 77 82
f 75 76 79
f 75 80 77
f 71 78 76
f 77 86 82
f 75 79 80
f 71 73 78
f 76 78 79
f 79 81 80
f 77 80 86
f 80 81 87
f 80 87 86
f 50 91 74
f 70 82 83
f 82 88 83
f 83 89 84
f 84 90 85
f 82 86 88
f 83 88 89
f 84 89 90
f 86 87 88
f 39 97 91
f 73 74 92
f 74 91 92
f 73 95 78
f 78 93 79
f 79 94 81
f 81 102 87
f 78 95 93
f 79 93 94
f 73 92 95
f 81 94 102
f 90 105 122
f 87 103 88
f 88 104 89
f 89 105 90
f 87 102 103
f 88 103 104
f 89 104 105
f 105 110 123
f 91 98 92
f 93 96 94
f 94 106 102
f 92 100 95
f 93 95 101
f 93 101 96
f 94 96 106
f 91 97 98
f 92 98 100
f 95 100 101
f 96 101 99
f 96 107 106
f 96 99 107
f 102 106 103
f 103 109 104
f 104 110 105
f 103 106 108
f 103 108 109
f 104 109 110
f 106 107 108
f 111 113 114
f 111 116 112
f 111 114 115
f 111 112 113
f 113 120 114
f 112 117 113
f 111 115 116
f 112 116 117
f 114 118 115
f 114 300 119
f 114 119 118
f 114 120 121
f 113 122 120
f 120 123 121
f 113 117 122
f 120 122 123
f 121 123 287
f 1 2 536
f 1 538 3
f 2 118 546
f 3 539 4
f 4 540 5
f 5 541 6
f 119 299 542
f 118 119 546
f 7 125 43
f 7 9 124
f 9 10 126
f 10 11 127
f 11 13 128
f 7 124 125
f 9 126 124
f 10 127 126
f 11 128 127
f 13 129 128
f 127 128 133
f 128 129 133
f 6 143 132
f 13 14 129
f 14 15 130
f 15 48 131
f 14 130 129
f 15 131 130
f 48 132 131
f 129 130 139
f 124 135 125
f 124 134 135
f 124 126 134
f 126 127 138
f 127 133 136
f 129 139 133
f 126 138 134
f 127 136 138
f 133 139 137
f 133 137 136
f 137 139 140
f 136 137 144
f 137 140 144
f 6 154 143
f 130 141 139
f 130 131 141
f 131 132 142
f 131 142 141
f 132 143 142
f 139 141 140
f 140 141 150
f 43 125 97
f 125 135 177
f 135 145 177
f 134 145 135
f 134 146 145
f 134 138 146
f 136 147 138
f 140 150 144
f 136 144 148
f 138 147 146
f 136 148 147
f 144 150 149
f 144 149 148
f 149 150 151
f 147 148 157
f 148 149 158
f 149 151 159
f 6 210 154
f 141 142 152
f 142 143 153
f 141 152 150
f 142 153 152
f 143 154 153
f 150 152 151
f 151 152 161
f 152 153 163
f 154 210 162
f 145 146 155
f 146 147 156
f 145 155 177
f 153 154 164
f 146 156 155
f 147 157 156
f 148 158 157
f 149 159 158
f 151 161 159
f 158 159 160
f 159 161 160
f 155 156 212
f 156 211 212
f 156 157 211
f 157 158 213
f 158 160 214
f 160 161 165
f 160 165 215
f 157 213 211
f 158 214 213
f 160 215 214
f 165 229 215
f 155 212 177
f 152 163 161
f 153 164 163
f 154 162 164
f 161 163 165
f 163 229 165
f 163 164 230
f 162 231 164
f 163 230 229
f 164 231 230
f 162 228 231
f 97 125 166
f 125 177 166
f 97 167 98
f 97 166 167
f 99 101 168
f 98 169 100
f 100 170 101
f 99 172 107
f 101 170 168
f 98 167 169
f 100 169 170
f 99 168 172
f 166 178 167
f 168 170 171
f 168 171 173
f 168 173 172
f 167 179 169
f 169 180 170
f 170 181 171
f 171 183 173
f 107 172 108
f 108 174 109
f 109 176 110
f 108 172 175
f 108 175 174
f 109 174 176
f 172 173 175
f 173 186 175
f 174 175 184
f 174 185 176
f 110 290 123
f 166 177 178
f 167 178 179
f 169 179 180
f 170 180 181
f 171 181 183
f 177 189 178
f 180 182 181
f 181 182 187
f 181 187 183
f 178 191 179
f 179 192 180
f 180 192 182
f 182 196 187
f 173 183 186
f 175 186 184
f 174 184 185
f 183 187 186
f 184 194 185
f 186 187 197
f 184 186 198
f 110 176 291
f 177 212 217
f 177 217 219
f 177 219 267
f 177 267 247
f 177 247 188
f 188 200 189
f 190 193 192
f 193 195 196
f 189 201 191
f 191 202 192
f 190 192 202
f 190 195 193
f 177 188 189
f 178 189 191
f 179 191 192
f 182 192 193
f 182 193 196
f 195 197 196
f 197 206 198
f 194 198 207
f 195 205 197
f 187 196 197
f 186 197 198
f 184 198 194
f 176 185 291
f 188 199 200
f 189 200 201
f 191 201 202
f 190 202 203
f 190 208 195
f 190 203 208
f 188 247 199
f 199 204 278
f 199 278 200
f 200 278 279
f 201 279 280
f 202 280 281
f 203 281 283
f 200 279 201
f 201 280 202
f 202 281 203
f 203 283 208
f 197 205 206
f 198 206 207
f 195 208 205
f 208 283 285
f 205 285 286
f 206 286 209
f 205 208 285
f 205 286 206
f 206 209 207
f 185 194 291
f 110 291 290
f 194 207 292
f 162 210 242
f 162 242 228
f 228 242 243
f 211 217 212
f 214 215 216
f 215 229 216
f 211 213 218
f 213 214 221
f 214 216 222
f 216 229 232
f 216 232 223
f 211 218 217
f 213 221 218
f 214 222 221
f 217 218 219
f 218 220 219
f 216 223 222
f 218 221 220
f 223 232 234
f 222 223 224
f 221 222 225
f 223 234 224
f 220 221 225
f 222 226 225
f 222 224 226
f 224 227 226
f 224 234 237
f 224 237 227
f 227 237 238
f 229 230 232
f 228 235 231
f 230 231 236
f 230 236 232
f 231 235 236
f 228 233 235
f 232 236 234
f 233 240 235
f 234 236 237
f 235 241 236
f 236 241 237
f 235 240 241
f 233 239 240
f 237 241 238
f 228 244 233
f 233 245 239
f 239 246 275
f 228 243 244
f 233 244 245
f 239 245 246
f 219 220 267
f 247 267 268
f 247 268 248
f 220 225 268
f 248 269 251
f 251 270 252
f 204 247 249
f 204 249 250
f 250 255 278
f 255 256 279
f 256 257 280
f 257 263 282
f 247 248 249
f 248 250 249
f 252 272 253
f 248 251 250
f 251 252 255
f 252 253 254
f 253 277 258
f 253 258 254
f 254 258 262
f 250 251 255
f 252 256 255
f 252 254 256
f 254 257 256
f 254 262 257
f 257 262 263
f 239 274 240
f 239 275 274
f 260 274 275
f 260 275 261
f 259 274 260
f 264 265 286
f 263 266 284
f 264 285 266
f 258 277 259
f 258 259 262
f 259 260 266
f 260 261 264
f 259 266 262
f 262 266 263
f 260 264 266
f 261 265 264
f 220 268 267
f 225 226 269
f 226 227 270
f 225 269 268
f 226 270 269
f 227 271 270
f 227 238 271
f 238 273 271
f 270 271 272
f 248 268 269
f 251 269 270
f 252 270 272
f 271 273 272
f 272 273 277
f 253 272 277
f 238 241 273
f 240 276 241
f 241 276 273
f 240 274 276
f 273 276 277
f 259 276 274
f 259 277 276
f 246 261 275
f 199 247 204
f 204 250 278
f 255 279 278
f 256 280 279
f 257 282 280
f 280 282 281
f 263 284 282
f 281 282 284
f 281 284 283
f 266 285 284
f 209 286 265
f 264 286 285
f 283 284 285
f 207 209 292
f 209 265 296
f 261 297 265
f 246 297 261
f 123 290 287
f 121 287 530
f 287 291 288
f 287 288 289
f 287 289 293
f 287 293 294
f 288 292 289
f 287 290 291
f 194 292 291
f 288 291 292
f 209 296 292
f 287 294 295
f 289 296 293
f 293 297 294
f 294 298 295
f 289 292 296
f 293 296 297
f 265 297 296
f 246 298 297
f 294 297 298
f 287 295 530
f 295 452 454
f 6 541 210
f 210 556 242
f 242 557 243
f 243 558 244
f 244 559 245
f 245 560 246
f 246 569 298
f 295 298 609
f 295 609 452
f 114 322 300
f 119 301 299
f 299 301 302
f 119 300 301
f 114 121 322
f 301 303 302
f 301 304 303
f 300 315 379
f 300 379 380
f 300 380 384
f 300 384 385
f 301 449 304
f 300 454 301
f 300 385 395
f 300 395 403
f 300 403 408
f 300 408 416
f 121 530 322
f 300 416 454
f 300 322 327
f 300 327 343
f 300 336 337
f 300 312 313
f 300 313 315
f 300 308 312
f 300 337 308
f 300 343 336
f 322 324 323
f 322 323 327
f 323 324 328
f 324 325 329
f 323 328 327
f 324 329 328
f 325 330 329
f 325 326 330
f 326 331 330
f 327 349 343
f 327 328 349
f 328 329 356
f 328 355 349
f 328 356 355
f 329 330 356
f 326 332 370
f 326 370 331
f 330 364 356
f 330 331 364
f 331 371 364
f 331 370 371
f 370 372 371
f 370 375 372
f 370 376 375
f 370 422 376
f 322 530 324
f 324 530 325
f 325 530 326
f 332 418 370
f 370 418 433
f 370 431 422
f 370 432 431
f 370 433 432
f 433 438 432
f 433 440 441
f 433 441 438
f 433 442 440
f 326 530 332
f 332 530 418
f 418 445 433
f 433 445 442
f 445 443 442
f 445 444 443
f 445 437 444
f 445 447 446
f 445 446 437
f 445 448 447
f 299 302 573
f 302 303 575
f 303 304 576
f 304 449 577
f 301 455 449
f 301 454 455
f 454 416 417
f 449 455 450
f 450 455 451
f 295 454 530
f 452 453 455
f 452 455 454
f 451 455 453
f 454 532 530
f 454 461 532
f 454 417 461
f 532 461 467
f 532 467 468
f 532 468 472
f 532 472 473
f 532 473 477
f 533 477 505
f 532 477 533
f 533 505 508
f 418 530 445
f 445 480 448
f 480 485 448
f 445 534 480
f 480 503 490
f 480 486 485
f 480 489 486
f 480 491 489
f 480 490 491
f 503 498 490
f 503 500 498
f 445 531 534
f 480 534 503
f 445 530 531
f 503 534 529
f 529 534 535
f 503 499 500
f 503 501 499
f 503 502 501
f 503 529 502
f 535 508 514
f 535 514 521
f 529 527 528
f 535 521 527
f 533 508 535
f 529 535 527
f 529 497 502
f 529 528 497
f 531 533 535
f 530 533 531
f 530 532 533
f 531 535 534
f 449 450 606
f 450 451 607
f 451 453 608
f 452 610 453
f 2 537 536
f 1 536 538
f 2 546 537
f 3 538 539
f 4 539 540
f 5 540 541
f 299 573 542
f 119 542 550
f 119 550 546
f 536 537 551
f 537 546 543
f 537 543 544
f 537 544 545
f 536 552 538
f 538 552 539
f 539 552 540
f 540 552 541
f 536 551 552
f 537 545 551
f 543 548 544
f 543 546 547
f 543 547 548
f 544 549 545
f 544 548 549
f 548 553 549
f 547 553 548
f 547 550 553
f 546 550 547
f 542 578 550
f 545 553 551
f 545 549 553
f 550 554 553
f 551 554 552
f 551 553 554
f 550 564 554
f 552 554 561
f 210 541 555
f 210 555 556
f 242 556 557
f 243 557 558
f 244 558 559
f 245 559 560
f 246 560 569
f 298 569 609
f 541 552 555
f 552 561 555
f 555 561 556
f 556 561 557
f 557 561 558
f 560 561 562
f 558 561 559
f 559 561 560
f 560 562 563
f 560 563 567
f 560 567 568
f 554 564 561
f 550 624 564
f 561 565 562
f 561 564 565
f 562 566 563
f 562 565 566
f 564 566 565
f 564 570 566
f 564 571 570
f 560 568 569
f 563 570 567
f 563 566 570
f 564 572 571
f 567 570 571
f 567 571 568
f 568 572 569
f 568 571 572
f 564 624 572
f 569 572 609
f 572 612 609
f 302 575 573
f 303 576 575
f 304 577 576
f 542 573 574
f 573 575 574
f 542 574 578
f 574 575 576
f 574 577 578
f 574 576 577
f 550 578 584
f 577 606 578
f 578 593 592
f 550 584 624
f 578 612 593
f 578 595 579
f 578 579 584
f 578 591 595
f 580 582 581
f 579 596 580
f 580 597 582
f 579 580 584
f 580 581 585
f 581 582 586
f 580 585 584
f 581 586 585
f 582 587 586
f 585 586 587
f 582 583 587
f 583 588 587
f 579 595 596
f 580 596 597
f 582 597 583
f 583 597 598
f 583 598 589
f 583 589 590
f 583 590 588
f 578 592 591
f 589 598 600
f 598 599 600
f 599 602 600
f 584 585 624
f 585 587 624
f 587 588 624
f 589 600 590
f 590 600 601
f 600 602 604
f 602 603 604
f 588 590 624
f 590 601 624
f 600 604 601
f 601 604 605
f 449 606 577
f 450 607 606
f 451 608 607
f 452 609 610
f 453 610 608
f 578 606 612
f 606 607 611
f 607 608 611
f 606 611 612
f 608 610 611
f 609 611 610
f 609 612 611
f 572 624 612
f 612 622 613
f 612 624 622
f 593 612 594
f 594 612 613
f 613 622 623
f 616 620 617
f 615 620 616
f 603 617 618
f 603 618 604
f 617 620 618
f 601 605 624
f 604 618 605
f 605 618 619
f 618 620 619
f 613 623 614
f 614 626 615
f 615 626 620
f 614 623 626
f 605 619 624
f 620 626 621
f 619 621 624
f 621 627 625
f 621 626 627
f 619 620 621
f 621 625 624
f 623 625 627
f 622 625 623
f 622 624 625
f 623 627 626
f 311 305 309
f 317 306 307
f 306 312 308
f 311 307 305
f 316 313 312
f 317 313 316
f 311 314 317
f 317 314 321
f 311 318 314
f 317 321 315
f 317 315 313
f 386 318 319
f 319 318 311
f 378 321 318
f 321 379 315
f 314 318 321
f 319 311 309
f 320 309 310
f 320 319 309
f 311 317 307
f 317 316 306
f 316 312 306
f 335 337 336
f 350 333 339
f 338 339 333
f 335 341 334
f 335 336 341
f 341 336 343
f 341 342 334
f 338 333 342
f 342 333 334
f 338 345 339
f 340 339 345
f 338 344 345
f 340 345 346
f 338 342 347
f 341 348 342
f 341 343 348
f 338 347 344
f 342 348 347
f 348 343 349
f 344 357 345
f 344 352 357
f 347 354 344
f 347 348 353
f 348 349 353
f 344 354 352
f 347 353 354
f 353 349 355
f 305 333 350
f 309 305 350
f 310 350 351
f 306 335 307
f 306 308 335
f 307 335 334
f 305 334 333
f 335 308 337
f 305 307 334
f 309 350 310
f 350 339 351
f 351 339 340
f 346 345 357
f 346 357 358
f 353 355 356
f 357 352 359
f 358 357 360
f 354 363 352
f 354 353 362
f 353 356 362
f 354 362 363
f 352 363 359
f 362 356 364
f 357 359 360
f 358 360 361
f 362 366 363
f 362 364 366
f 359 363 365
f 346 358 428
f 359 368 360
f 360 368 361
f 359 367 368
f 363 366 365
f 359 365 367
f 366 364 371
f 365 366 371
f 358 361 428
f 361 368 369
f 361 369 420
f 365 371 372
f 367 373 368
f 365 373 367
f 365 372 375
f 365 377 373
f 365 375 377
f 377 375 374
f 374 375 376
f 382 380 379
f 381 380 382
f 386 387 390
f 386 389 378
f 381 384 380
f 378 388 382
f 381 382 391
f 386 390 389
f 378 389 388
f 381 391 383
f 382 388 391
f 381 383 384
f 383 385 384
f 386 378 318
f 386 319 387
f 387 319 320
f 382 379 321
f 378 382 321
f 392 393 391
f 394 383 393
f 394 395 383
f 392 388 389
f 392 391 388
f 393 383 391
f 383 395 385
f 390 396 389
f 389 396 397
f 392 389 397
f 392 397 398
f 392 398 393
f 394 393 401
f 394 403 395
f 396 399 397
f 397 400 398
f 394 401 402
f 394 402 403
f 393 398 401
f 397 399 400
f 398 400 404
f 401 406 402
f 402 408 403
f 398 405 401
f 400 409 404
f 398 404 405
f 401 405 406
f 402 406 407
f 402 407 408
f 399 410 400
f 400 410 409
f 404 409 405
f 405 411 406
f 406 415 407
f 407 416 408
f 409 410 413
f 405 409 411
f 409 412 411
f 409 413 412
f 406 411 415
f 407 415 414
f 407 414 416
f 414 417 416
f 320 310 448
f 340 346 448
f 310 351 448
f 351 340 448
f 387 320 448
f 387 448 390
f 346 428 434
f 369 368 419
f 368 373 419
f 374 376 424
f 373 377 423
f 377 374 424
f 424 376 422
f 369 419 420
f 361 420 428
f 373 421 419
f 373 423 421
f 377 424 423
f 419 421 425
f 420 419 426
f 419 425 426
f 423 429 421
f 423 424 430
f 424 422 430
f 421 427 425
f 420 426 428
f 430 422 431
f 421 429 427
f 423 430 429
f 346 447 448
f 346 434 447
f 425 427 426
f 430 431 432
f 428 426 435
f 426 427 436
f 427 429 439
f 429 430 441
f 430 432 441
f 428 435 434
f 426 436 435
f 429 441 440
f 427 439 436
f 429 440 439
f 441 432 438
f 435 436 437
f 439 440 442
f 436 439 444
f 439 443 444
f 439 442 443
f 436 444 437
f 390 448 396
f 396 448 399
f 399 448 410
f 410 448 413
f 413 448 457
f 434 435 446
f 435 437 446
f 434 446 447
f 412 458 411
f 412 413 457
f 411 456 415
f 415 459 414
f 414 461 417
f 412 457 458
f 411 458 456
f 414 459 460
f 414 460 461
f 415 456 459
f 456 462 459
f 459 465 460
f 460 467 461
f 457 463 458
f 458 462 456
f 458 464 462
f 458 463 464
f 459 462 465
f 460 465 466
f 464 469 462
f 460 466 467
f 466 465 468
f 466 468 467
f 465 472 468
f 462 469 465
f 464 463 474
f 464 476 469
f 465 469 471
f 465 471 472
f 471 473 472
f 471 470 473
f 469 476 471
f 471 478 470
f 470 477 473
f 464 474 475
f 464 475 476
f 474 482 475
f 471 476 478
f 470 478 479
f 470 479 477
f 475 481 476
f 476 504 478
f 478 506 479
f 479 505 477
f 457 448 463
f 463 448 474
f 474 448 482
f 475 482 481
f 481 504 476
f 482 509 481
f 478 504 506
f 479 506 507
f 479 507 505
f 482 448 509
f 509 448 515
f 487 492 448
f 487 448 485
f 515 448 483
f 483 448 492
f 487 485 486
f 487 486 488
f 488 486 489
f 487 488 493
f 488 491 493
f 493 491 490
f 493 490 498
f 488 489 491
f 483 492 484
f 484 494 524
f 484 492 493
f 484 493 494
f 525 494 495
f 526 495 496
f 526 496 497
f 487 493 492
f 493 498 494
f 494 498 500
f 495 500 499
f 496 499 501
f 496 501 502
f 494 500 495
f 495 499 496
f 496 502 497
f 481 511 504
f 507 508 505
f 506 504 511
f 506 512 507
f 507 514 508
f 481 509 510
f 481 510 511
f 506 511 512
f 507 512 513
f 507 513 514
f 509 515 510
f 510 515 516
f 510 516 511
f 511 516 517
f 516 523 517
f 517 523 519
f 511 517 512
f 512 519 513
f 513 519 518
f 513 521 514
f 513 518 521
f 512 517 519
f 518 519 520
f 518 520 521
f 515 483 516
f 516 483 484
f 516 484 522
f 516 522 523
f 522 524 523
f 484 524 522
f 519 525 520
f 520 527 521
f 519 524 525
f 519 523 524
f 520 525 526
f 520 526 527
f 526 528 527
f 524 494 525
f 525 495 526
f 526 497 528
f 595 597 596
f 591 597 595
f 591 598 597
f 592 598 591
f 593 598 592
f 593 594 598
f 599 598 594
f 599 594 602
f 602 594 613
f 602 614 603
f 602 613 614
f 614 615 603
f 616 617 615
f 615 617 603
