# th_medial_shaft.obj  (48 v, 92 f)  units: metres
v -0.024550000 0.072195508 -0.079154499
v -0.024550000 0.072592802 -0.079672262
v -0.024550000 0.071945757 -0.078551546
v -0.024550000 0.071860567 -0.077904493
v -0.024550000 0.073110573 -0.080069557
v -0.024550000 0.073713519 -0.080319308
v -0.024550000 0.071945757 -0.077257447
v -0.024550000 0.072195508 -0.076654494
v -0.024550000 0.072592802 -0.076136731
v -0.024550000 0.073110573 -0.075739436
v -0.024550000 0.073713519 -0.075489685
v -0.024550000 0.074360572 -0.080404498
v -0.024550000 0.075007617 -0.080319308
v -0.024550000 0.075610571 -0.080069557
v -0.024550000 0.076128334 -0.079672262
v -0.024550000 0.076525636 -0.079154499
v -0.024550000 0.076775387 -0.078551546
v -0.024550000 0.076860569 -0.077904493
v -0.024550000 0.074360572 -0.075404495
v -0.024550000 0.075007617 -0.075489685
v -0.024550000 0.076525636 -0.076654494
v -0.024550000 0.076775387 -0.077257447
v -0.024550000 0.076128334 -0.076136731
v -0.024550000 0.075610571 -0.075739436
v -0.002150000 0.072592802 -0.079672262
v -0.002150000 0.071945757 -0.078551546
v -0.002150000 0.072195508 -0.079154499
v -0.002150000 0.073110573 -0.080069557
v -0.002150000 0.073713519 -0.080319308
v -0.002150000 0.071860567 -0.077904493
v -0.002150000 0.071945757 -0.077257447
v -0.002150000 0.072195508 -0.076654494
v -0.002150000 0.072592802 -0.076136731
v -0.002150000 0.073110573 -0.075739436
v -0.002150000 0.073713519 -0.075489685
v -0.002150000 0.074360572 -0.080404498
v -0.002150000 0.075007617 -0.080319308
v -0.002150000 0.075610571 -0.080069557
v -0.002150000 0.076128334 -0.079672262
v -0.002150000 0.076525636 -0.079154499
v -0.002150000 0.076775387 -0.078551546
v -0.002150000 0.074360572 -0.075404495
v -0.002150000 0.075007617 -0.075489685
v -0.002150000 0.076860569 -0.077904493
v -0.002150000 0.076775387 -0.077257447
v -0.002150000 0.076128334 -0.076136731
v -0.002150000 0.075610571 -0.075739436
v -0.002150000 0.076525636 -0.076654494
f 1 15 2
f 5 2 15
f 5 14 6
f 3 17 1
f 4 18 3
f 7 22 4
f 7 8 22
f 9 21 8
f 10 21 9
f 6 13 12
f 13 6 14
f 5 15 14
f 16 15 1
f 16 1 17
f 17 3 18
f 18 4 22
f 22 8 21
f 10 11 21
f 11 19 23
f 11 23 21
f 20 24 19
f 19 24 23
f 31 26 27
f 32 27 25
f 32 25 28
f 32 28 29
f 32 29 36
f 32 36 37
f 32 37 38
f 31 30 26
f 32 31 27
f 32 39 33
f 34 33 40
f 32 38 39
f 40 33 39
f 48 40 41
f 35 34 40
f 42 35 40
f 43 42 40
f 47 43 40
f 46 47 40
f 48 46 40
f 45 41 44
f 45 48 41
f 27 1 2
f 5 25 2
f 26 3 1
f 4 3 30
f 28 5 6
f 6 12 29
f 7 4 31
f 7 32 8
f 33 9 8
f 10 9 34
f 10 35 11
f 11 42 19
f 12 13 36
f 37 13 14
f 38 14 15
f 16 39 15
f 40 16 17
f 41 17 18
f 43 20 19
f 20 47 24
f 44 18 22
f 22 21 45
f 46 23 24
f 23 48 21
f 2 25 27
f 5 28 25
f 1 27 26
f 3 26 30
f 6 29 28
f 12 36 29
f 4 30 31
f 7 31 32
f 8 32 33
f 9 33 34
f 10 34 35
f 11 35 42
f 13 37 36
f 14 38 37
f 15 39 38
f 16 40 39
f 17 41 40
f 18 44 41
f 19 42 43
f 20 43 47
f 22 45 44
f 21 48 45
f 24 47 46
f 23 46 48
