# th_medial_pad.obj  (48 v, 92 f)  units: metres
v -0.025348527 0.084366754 -0.069091596
v -0.024499999 0.084336117 -0.069441728
v -0.024499999 0.083521456 -0.069017641
v -0.025348527 0.083595410 -0.068172343
v -0.025699999 0.084440708 -0.068246298
v -0.024499999 0.083245277 -0.068141706
v -0.025348527 0.083778441 -0.066080332
v -0.025699999 0.084623739 -0.066154286
v -0.024499999 0.083428301 -0.066049702
v -0.025348527 0.084697694 -0.065308988
v -0.024499999 0.083852395 -0.065235034
v -0.024499999 0.084728323 -0.064958856
v -0.025348527 0.116842695 -0.071932912
v -0.024499999 0.116812065 -0.072283052
v -0.024499999 0.117687993 -0.072006866
v -0.025699999 0.116916649 -0.071087614
v -0.025348527 0.117761955 -0.071161568
v -0.024499999 0.118112087 -0.071192205
v -0.024499999 0.118295118 -0.069100194
v -0.025699999 0.117099680 -0.068995602
v -0.025348527 0.117944978 -0.069069564
v -0.024499999 0.118018933 -0.068224259
v -0.025348527 0.117173634 -0.068150304
v -0.024499999 0.117204271 -0.067800172
v -0.001900000 0.084336117 -0.069441728
v -0.001051472 0.084366754 -0.069091596
v -0.001900000 0.083521456 -0.069017641
v -0.001051472 0.083595410 -0.068172343
v -0.000700000 0.084440708 -0.068246298
v -0.001900000 0.083245277 -0.068141706
v -0.001900000 0.083428301 -0.066049702
v -0.001051472 0.083778441 -0.066080332
v -0.000700000 0.084623739 -0.066154286
v -0.001900000 0.083852395 -0.065235034
v -0.001900000 0.084728323 -0.064958856
v -0.001051472 0.084697694 -0.065308988
v -0.001900000 0.116812065 -0.072283052
v -0.001900000 0.117687993 -0.072006866
v -0.001051472 0.116842695 -0.071932912
v -0.001900000 0.118112087 -0.071192205
v -0.000700000 0.116916649 -0.071087614
v -0.001051472 0.117761955 -0.071161568
v -0.001900000 0.118295118 -0.069100194
v -0.000700000 0.117099680 -0.068995602
v -0.001051472 0.117944978 -0.069069564
v -0.001900000 0.118018933 -0.068224259
v -0.001900000 0.117204271 -0.067800172
v -0.001051472 0.117173634 -0.068150304
f 2 3 1
f 1 3 4
f 2 1 13
f 1 5 13
f 2 27 3
f 3 27 6
f 1 4 5
f 3 6 4
f 4 7 5
f 4 6 7
f 5 7 8
f 6 9 7
f 7 11 10
f 7 10 8
f 7 9 11
f 10 11 12
f 5 8 20
f 8 10 20
f 10 12 24
f 6 31 9
f 9 31 11
f 11 35 12
f 12 35 24
f 2 13 14
f 5 16 13
f 5 20 16
f 14 13 15
f 13 16 17
f 13 17 15
f 15 17 18
f 17 21 18
f 16 21 17
f 16 20 21
f 18 21 19
f 20 23 21
f 21 22 19
f 2 14 37
f 14 15 38
f 15 18 38
f 18 19 40
f 19 22 43
f 10 23 20
f 10 24 23
f 21 23 22
f 23 24 22
f 22 24 47
f 2 25 27
f 2 37 25
f 25 26 27
f 27 26 28
f 25 37 26
f 26 41 29
f 6 27 30
f 6 30 31
f 11 31 34
f 11 34 35
f 27 28 30
f 26 29 28
f 28 29 32
f 30 28 32
f 29 33 32
f 30 32 31
f 31 32 34
f 32 36 34
f 32 33 36
f 34 36 35
f 29 41 33
f 33 44 36
f 36 47 35
f 14 38 37
f 18 40 38
f 40 19 43
f 26 37 39
f 26 39 41
f 41 44 33
f 37 38 39
f 38 40 42
f 39 42 41
f 38 42 39
f 40 43 42
f 41 42 44
f 42 43 45
f 42 45 44
f 43 46 45
f 44 45 48
f 24 35 47
f 22 46 43
f 22 47 46
f 36 44 48
f 36 48 47
f 45 46 48
f 46 47 48
