# th_proximal.obj  (317 v, 630 f)  units: metres
v -0.026650000 0.055707309 -0.086109959
v -0.024650000 0.059990946 -0.086484738
v -0.020631814 0.056303367 -0.079297088
v -0.020631814 0.056801464 -0.079340667
v -0.021094613 0.056448642 -0.077636585
v -0.021094613 0.056946740 -0.077680163
v -0.017324431 0.055963997 -0.083176024
v -0.017324431 0.056462094 -0.083219603
v -0.015754413 0.055900689 -0.083899625
v -0.015754413 0.056398787 -0.083943203
v -0.014064952 0.055868279 -0.084270090
v -0.014064952 0.056366377 -0.084313668
v -0.018701596 0.056055244 -0.082133114
v -0.018701596 0.056553338 -0.082176693
v -0.019821512 0.056170154 -0.080819666
v -0.019821512 0.056668252 -0.080863245
v -0.021188268 0.056599196 -0.075915791
v -0.021188268 0.057097293 -0.075959370
v -0.020908400 0.056747984 -0.074215166
v -0.020268096 0.056888048 -0.072614245
v -0.020908400 0.057246082 -0.074258745
v -0.020268096 0.057386145 -0.072657824
v -0.026650000 0.057415586 -0.066584542
v -0.026650000 0.061866954 -0.067910574
v -0.026650000 0.062110163 -0.067999095
v -0.026650000 0.061700586 -0.067712307
v -0.026650000 0.061655644 -0.067457415
v -0.026650000 0.061699223 -0.066959321
v -0.024650000 0.061866954 -0.067910574
v -0.024650000 0.062110163 -0.067999095
v -0.024650000 0.061700586 -0.067712307
v -0.024650000 0.061655644 -0.067457415
v -0.026650000 0.065297984 -0.068277992
v -0.024650000 0.065297984 -0.068277992
v -0.019297296 0.057012841 -0.071187869
v -0.019297296 0.057510938 -0.071231447
v -0.018041395 0.057116527 -0.070002742
v -0.018041395 0.057614625 -0.070046321
v -0.016559113 0.057194259 -0.069114275
v -0.016559113 0.057692356 -0.069157854
v -0.014919763 0.057740498 -0.068607599
v -0.014919763 0.057242401 -0.068564020
v -0.024700401 0.070963882 -0.082559302
v -0.024732845 0.070977047 -0.082542077
v -0.024754522 0.070996754 -0.082516305
v -0.024650000 0.070913479 -0.082559302
v -0.024650000 0.070894204 -0.082542077
v -0.024732845 0.072183914 -0.083244495
v -0.024700401 0.072175443 -0.083264448
v -0.024754522 0.072196588 -0.083214626
v -0.024650000 0.072125040 -0.083264448
v -0.024650000 0.072175443 -0.083285324
v -0.024842389 0.072196588 -0.083002493
v -0.024850000 0.072211541 -0.082967266
v -0.024798455 0.069544710 -0.080734417
v -0.024700401 0.069031626 -0.080161273
v -0.024650000 0.069010749 -0.080161273
v -0.024650000 0.069031626 -0.080211677
v -0.024842389 0.069293275 -0.080139428
v -0.024732845 0.069051459 -0.080152526
v -0.024754522 0.069081143 -0.080139428
v -0.024850000 0.069328293 -0.080123991
v -0.024650000 0.068610266 -0.078817874
v -0.024842389 0.068896666 -0.078809030
v -0.024850000 0.068934426 -0.078802779
v -0.024732845 0.068652526 -0.078814328
v -0.024754522 0.068684533 -0.078809030
v -0.024700401 0.068631142 -0.078817874
v -0.024842389 0.068870023 -0.078115419
v -0.024732845 0.068598926 -0.077418968
v -0.024700401 0.068577334 -0.077417083
v -0.024650000 0.068556458 -0.077417083
v -0.024850000 0.068881504 -0.077425130
v -0.024842389 0.068843380 -0.077421799
v -0.024754522 0.068631247 -0.077421799
v -0.024732845 0.069982782 -0.081561595
v -0.024754522 0.070008278 -0.081541538
v -0.024650000 0.069899939 -0.081561595
v -0.024842389 0.070008278 -0.081329405
v -0.024700401 0.069753617 -0.081362873
v -0.024732845 0.069770649 -0.081349462
v -0.024754522 0.069796145 -0.081329405
v -0.024650000 0.069753617 -0.081413276
v -0.024650000 0.069770649 -0.081432305
v -0.024850000 0.070038356 -0.081305735
v -0.024842389 0.070996754 -0.082304172
v -0.024850000 0.071020000 -0.082273774
v -0.026650000 0.074635006 -0.087765940
v -0.024650000 0.074635006 -0.087765940
v -0.024700401 0.073524304 -0.083646134
v -0.024650000 0.073524304 -0.083667010
v -0.024732845 0.073527545 -0.083624706
v -0.024754522 0.073532395 -0.083592623
v -0.024842389 0.073532395 -0.083380491
v -0.024850000 0.073538117 -0.083342656
v -0.024732845 0.074923515 -0.083658822
v -0.024700401 0.074925706 -0.083680391
v -0.024650000 0.074925706 -0.083701268
v -0.024754522 0.074920237 -0.083626546
v -0.024842389 0.074920237 -0.083414413
v -0.024850000 0.074916370 -0.083376341
v -0.026650000 0.075571328 -0.087700471
v -0.026650000 0.076441586 -0.087348863
v -0.026650000 0.077160604 -0.086745538
v -0.026650000 0.077657990 -0.085949555
v -0.024650000 0.075571328 -0.087700471
v -0.024650000 0.076441586 -0.087348863
v -0.024650000 0.077160604 -0.086745538
v -0.024650000 0.077657990 -0.085949555
v -0.026650000 0.077885062 -0.085038826
v -0.026650000 0.078024514 -0.083444916
v -0.024732845 0.076284118 -0.083344705
v -0.024754522 0.076272920 -0.083314255
v -0.024700401 0.076291606 -0.083365045
v -0.024650000 0.076291606 -0.083385922
v -0.024650000 0.076342009 -0.083365045
v -0.024842389 0.076272920 -0.083102122
v -0.024850000 0.076259702 -0.083066210
v -0.024650000 0.077885062 -0.085038826
v -0.024650000 0.078024514 -0.083444916
v -0.024754522 0.077505432 -0.082675382
v -0.024700401 0.077536166 -0.082719930
v -0.024732845 0.077523857 -0.082702085
v -0.024650000 0.077586569 -0.082719930
v -0.024650000 0.077606700 -0.082702085
v -0.026650000 0.078043684 -0.081248149
v -0.024850000 0.077483706 -0.082431749
v -0.024842389 0.077505432 -0.082463250
v -0.024650000 0.078034334 -0.082319736
v -0.024732845 0.078034982 -0.082245089
v -0.024754522 0.078035362 -0.082201570
v -0.024842389 0.078037232 -0.081987768
v -0.024850000 0.078037679 -0.081936441
v -0.024850000 0.078043684 -0.081248149
v -0.026650000 0.077718973 -0.079075418
v -0.024850000 0.077718973 -0.079075418
v -0.024798455 0.068884000 -0.076743349
v -0.024700401 0.068873569 -0.076046914
v -0.024754522 0.068924621 -0.076064892
v -0.024732845 0.068894021 -0.076054119
v -0.024650000 0.068852693 -0.076046914
v -0.024650000 0.068873569 -0.075996511
v -0.024842389 0.069136754 -0.076064892
v -0.024850000 0.069172852 -0.076077603
v -0.024798455 0.069341496 -0.075444236
v -0.024732845 0.069519266 -0.074805528
v -0.024754522 0.069546230 -0.074823573
v -0.024700401 0.069501251 -0.074793473
v -0.024650000 0.069501251 -0.074743070
v -0.024842389 0.069758363 -0.074823573
v -0.024850000 0.069790162 -0.074844867
v -0.024850000 0.070694648 -0.073804371
v -0.024842389 0.070669137 -0.073775843
v -0.024732845 0.070435382 -0.073751658
v -0.024700401 0.070420936 -0.073735498
v -0.024754522 0.070457004 -0.073775843
v -0.024732845 0.070506096 -0.073680945
v -0.024650000 0.070420936 -0.073685095
v -0.024650000 0.070435382 -0.073668815
v -0.024732845 0.070541449 -0.073645592
v -0.024732845 0.070647515 -0.073539525
v -0.024754522 0.070669137 -0.073563710
v -0.024650000 0.070564672 -0.073539525
v -0.024700401 0.070633069 -0.073523365
v -0.024650000 0.070582666 -0.073523365
v -0.024842389 0.071240500 -0.073381692
v -0.024798455 0.071240500 -0.073275626
v -0.024650000 0.071736559 -0.072727352
v -0.024850000 0.071829475 -0.073021509
v -0.024842389 0.071811870 -0.072987534
v -0.024732845 0.071796939 -0.072746597
v -0.024754522 0.071811870 -0.072775401
v -0.024700401 0.071786962 -0.072727352
v -0.024650000 0.071786962 -0.072706476
v -0.026650000 0.069548041 -0.069337659
v -0.024650000 0.069548041 -0.069337659
v -0.026650000 0.067464709 -0.068640582
v -0.024650000 0.067464709 -0.068640582
v -0.026650000 0.071496673 -0.070352055
v -0.024650000 0.071496673 -0.070352055
v -0.026650000 0.074802421 -0.073225707
v -0.024850000 0.073123343 -0.072545461
v -0.024842389 0.073114738 -0.072508171
v -0.024754522 0.073114738 -0.072296038
v -0.024732845 0.073107436 -0.072264425
v -0.024700401 0.073102564 -0.072243303
v -0.024650000 0.073102564 -0.072222427
v -0.024798455 0.073805317 -0.072331965
v -0.024754522 0.073818587 -0.072224550
v -0.024732845 0.073789679 -0.072195128
v -0.024716159 0.073779747 -0.072185025
v -0.024700401 0.073770359 -0.072175473
v -0.024650000 0.073751710 -0.072156489
v -0.024850000 0.074802421 -0.073225707
v -0.024842389 0.074008130 -0.072417431
v -0.024850000 0.074042223 -0.072452120
v -0.026650000 0.076078139 -0.075014204
v -0.026650000 0.077058367 -0.076980241
v -0.024850000 0.076078139 -0.075014204
v -0.024850000 0.077058367 -0.076980241
v -0.026650000 0.073262624 -0.071658798
v -0.024650000 0.073262624 -0.071658798
v -0.012335048 0.055868279 -0.084270090
v -0.012335048 0.056366377 -0.084313668
v -0.010645588 0.055900689 -0.083899625
v -0.010645588 0.056398787 -0.083943203
v -0.009075569 0.055963997 -0.083176024
v -0.009075569 0.056462094 -0.083219603
v -0.007698404 0.056055244 -0.082133114
v -0.007698404 0.056553338 -0.082176693
v -0.006578488 0.056170154 -0.080819666
v -0.006578488 0.056668252 -0.080863245
v 0.000250000 0.055707309 -0.086109959
v -0.001950000 0.059990946 -0.086484738
v -0.005768186 0.056303367 -0.079297088
v -0.005768186 0.056801464 -0.079340667
v -0.005305388 0.056448642 -0.077636585
v -0.005305388 0.056946740 -0.077680163
v -0.001950000 0.066664241 -0.086140707
v -0.001937868 0.066664241 -0.086128578
v -0.001950000 0.066864245 -0.086340711
v -0.001937868 0.065072693 -0.083479784
v -0.001950000 0.065067671 -0.083479784
v -0.001850000 0.065284826 -0.083479784
v -0.001950000 0.065653682 -0.084930219
v -0.001950000 0.065658703 -0.084942348
v -0.001937868 0.065658703 -0.084930219
v -0.001850000 0.065870836 -0.084930219
v -0.001937868 0.064963572 -0.081919245
v -0.001950000 0.064958550 -0.081919245
v -0.001850000 0.065175705 -0.081919245
v -0.013200000 0.057258703 -0.068377696
v -0.013200000 0.057756800 -0.068421274
v -0.011480236 0.057740498 -0.068607599
v -0.011480236 0.057242401 -0.068564020
v -0.009840887 0.057194259 -0.069114275
v -0.009840887 0.057692356 -0.069157854
v -0.008358606 0.057116527 -0.070002742
v -0.008358606 0.057614625 -0.070046321
v -0.007102704 0.057012841 -0.071187869
v -0.007102704 0.057510938 -0.071231447
v -0.005211732 0.056599196 -0.075915791
v -0.005211732 0.057097293 -0.075959370
v -0.005491600 0.056747984 -0.074215166
v -0.006131904 0.056888048 -0.072614245
v -0.005491600 0.057246082 -0.074258745
v -0.006131904 0.057386145 -0.072657824
v 0.000250000 0.057415586 -0.066584542
v -0.001937868 0.065800279 -0.072355777
v -0.001950000 0.065795258 -0.072355777
v -0.001850000 0.066012412 -0.072355777
v -0.001950000 0.061866954 -0.067910574
v -0.001950000 0.062110163 -0.067999095
v -0.001950000 0.061700586 -0.067712307
v -0.001950000 0.061655644 -0.067457415
v 0.000250000 0.061866954 -0.067910574
v 0.000250000 0.062110163 -0.067999095
v 0.000250000 0.061700586 -0.067712307
v 0.000250000 0.061655644 -0.067457415
v 0.000250000 0.061699223 -0.066959321
v -0.001893934 0.066095576 -0.071596846
v -0.001950000 0.066173710 -0.070837907
v -0.001937868 0.066178732 -0.070837907
v -0.001950000 0.066178732 -0.070825778
v -0.001850000 0.066390865 -0.070837907
v -0.001950000 0.065297984 -0.068277992
v 0.000250000 0.065297984 -0.068277992
v -0.001937868 0.068203017 -0.087169692
v -0.001950000 0.068190888 -0.087169692
v -0.001950000 0.068203017 -0.087174714
v -0.001850000 0.068203017 -0.086957559
v -0.001937868 0.066876374 -0.086340711
v -0.001850000 0.066876374 -0.086128578
v -0.001950000 0.068379074 -0.087218612
v -0.001937868 0.068410121 -0.087221324
v -0.001897151 0.069017529 -0.087274469
v -0.001850000 0.069720894 -0.087336004
v -0.001850000 0.074635006 -0.087765940
v 0.000250000 0.074635006 -0.087765940
v -0.001850000 0.075571328 -0.087700471
v -0.001850000 0.076441586 -0.087348863
v -0.001850000 0.077160604 -0.086745538
v -0.001850000 0.077657990 -0.085949555
v 0.000250000 0.075571328 -0.087700471
v 0.000250000 0.076441586 -0.087348863
v 0.000250000 0.077160604 -0.086745538
v 0.000250000 0.077657990 -0.085949555
v -0.001850000 0.077885062 -0.085038826
v -0.001850000 0.078024514 -0.083444916
v 0.000250000 0.077885062 -0.085038826
v 0.000250000 0.078024514 -0.083444916
v -0.001850000 0.078043684 -0.081248149
v 0.000250000 0.078043684 -0.081248149
v -0.001850000 0.077718973 -0.079075418
v 0.000250000 0.077718973 -0.079075418
v -0.001937868 0.067007706 -0.069511265
v -0.001950000 0.067007706 -0.069499135
v -0.001937868 0.067219839 -0.069299132
v -0.001950000 0.067207709 -0.069299132
v -0.001850000 0.067219839 -0.069511265
v -0.001850000 0.069548041 -0.069337659
v 0.000250000 0.069548041 -0.069337659
v -0.001950000 0.067464709 -0.068640582
v -0.001950000 0.067842066 -0.068766847
v -0.001937868 0.067850739 -0.068769746
v -0.001850000 0.068031475 -0.068830222
v 0.000250000 0.067464709 -0.068640582
v -0.001850000 0.071496673 -0.070352055
v 0.000250000 0.071496673 -0.070352055
v -0.001850000 0.074802421 -0.073225707
v 0.000250000 0.074802421 -0.073225707
v -0.001850000 0.076078139 -0.075014204
v -0.001850000 0.077058367 -0.076980241
v 0.000250000 0.076078139 -0.075014204
v 0.000250000 0.077058367 -0.076980241
v -0.001850000 0.073262624 -0.071658798
v 0.000250000 0.073262624 -0.071658798
f 1 13 15
f 1 7 13
f 1 15 3
f 1 3 5
f 4 15 16
f 3 4 6
f 3 15 4
f 3 6 5
f 1 89 2
f 2 78 84
f 2 84 83
f 2 83 58
f 2 58 57
f 2 57 63
f 2 63 72
f 2 72 141
f 1 2 213
f 1 9 7
f 1 11 9
f 1 203 11
f 7 14 13
f 7 8 14
f 7 9 8
f 9 11 10
f 8 9 10
f 10 11 12
f 11 203 12
f 13 16 15
f 13 14 16
f 8 243 14
f 4 16 243
f 4 243 6
f 14 243 16
f 1 5 23
f 1 23 26
f 1 26 24
f 1 24 25
f 1 25 33
f 2 31 32
f 2 29 31
f 5 6 18
f 5 18 17
f 17 18 21
f 17 21 19
f 5 17 23
f 17 19 23
f 19 22 20
f 19 21 22
f 20 22 36
f 23 27 26
f 23 28 27
f 19 20 23
f 20 35 23
f 23 35 37
f 23 37 39
f 2 141 29
f 1 33 177
f 1 177 175
f 1 179 201
f 1 175 179
f 29 141 142
f 29 142 149
f 24 30 25
f 24 29 30
f 24 26 29
f 26 27 31
f 27 28 32
f 26 31 29
f 27 32 31
f 25 30 33
f 29 149 30
f 30 149 34
f 30 34 33
f 33 178 177
f 33 34 178
f 2 32 255
f 6 243 18
f 18 247 21
f 21 247 22
f 22 247 36
f 20 36 35
f 35 36 38
f 35 38 37
f 37 38 40
f 37 40 39
f 23 39 42
f 23 42 232
f 23 248 28
f 36 247 38
f 38 247 40
f 39 40 41
f 39 41 42
f 41 233 42
f 42 233 232
f 28 260 32
f 1 88 89
f 1 110 88
f 2 89 52
f 2 46 47
f 2 51 46
f 2 52 51
f 2 47 78
f 1 111 110
f 1 126 111
f 1 197 198
f 1 181 197
f 1 135 126
f 1 198 135
f 88 102 89
f 89 106 91
f 106 107 91
f 89 91 52
f 107 98 91
f 88 104 102
f 102 103 106
f 102 104 103
f 88 105 104
f 89 102 106
f 103 107 106
f 103 104 107
f 104 105 108
f 104 108 107
f 88 110 105
f 105 110 109
f 105 109 108
f 109 110 119
f 107 108 98
f 108 109 98
f 110 111 120
f 110 120 119
f 111 126 120
f 119 115 98
f 109 119 98
f 119 116 115
f 119 120 116
f 120 124 116
f 120 125 124
f 120 129 125
f 126 132 131
f 120 126 129
f 126 130 129
f 126 131 130
f 126 133 132
f 126 134 133
f 126 135 134
f 135 136 134
f 135 198 136
f 198 200 136
f 1 201 181
f 34 149 158
f 176 158 159
f 176 159 163
f 176 163 165
f 180 168 174
f 34 158 178
f 176 178 158
f 176 177 178
f 175 177 176
f 175 180 179
f 175 176 180
f 179 180 202
f 176 165 168
f 176 168 180
f 180 174 187
f 201 189 195
f 201 195 196
f 201 191 190
f 201 190 189
f 201 192 191
f 201 193 192
f 181 194 199
f 181 201 194
f 201 196 194
f 202 187 193
f 197 199 200
f 197 200 198
f 181 199 197
f 179 202 201
f 201 202 193
f 180 187 202
f 1 213 203
f 12 203 204
f 203 205 204
f 204 205 206
f 205 207 206
f 206 207 208
f 207 209 208
f 208 209 210
f 203 213 205
f 205 213 207
f 2 214 213
f 10 12 243
f 8 10 243
f 12 204 243
f 204 206 243
f 206 208 243
f 209 211 210
f 210 211 212
f 208 210 243
f 210 212 243
f 2 255 214
f 207 213 209
f 209 213 211
f 211 215 212
f 212 215 216
f 211 213 215
f 213 217 215
f 213 242 217
f 212 216 243
f 215 217 216
f 216 217 218
f 216 218 243
f 214 225 226
f 213 214 279
f 214 230 223
f 214 223 225
f 214 221 269
f 214 269 270
f 214 226 219
f 214 219 221
f 214 270 274
f 214 274 275
f 214 275 276
f 214 276 277
f 214 254 230
f 18 243 246
f 18 246 247
f 40 247 41
f 41 239 237
f 41 241 239
f 41 237 233
f 232 233 234
f 232 234 235
f 23 232 248
f 233 237 234
f 234 237 235
f 235 237 236
f 41 247 241
f 236 237 239
f 236 239 238
f 238 241 240
f 240 241 247
f 238 239 241
f 235 236 248
f 232 235 248
f 28 248 260
f 32 260 255
f 217 242 218
f 218 242 243
f 242 244 243
f 243 244 246
f 244 245 246
f 240 247 245
f 245 247 246
f 242 248 244
f 213 248 242
f 213 256 248
f 214 255 254
f 213 257 256
f 213 267 257
f 238 240 248
f 244 248 245
f 240 245 248
f 236 238 248
f 248 256 258
f 248 258 259
f 248 259 260
f 252 230 254
f 213 307 267
f 213 302 307
f 213 317 309
f 213 309 302
f 252 250 230
f 252 253 264
f 252 257 253
f 252 256 257
f 252 254 256
f 254 255 258
f 254 258 256
f 255 259 258
f 255 260 259
f 253 257 266
f 252 262 250
f 252 264 262
f 253 297 264
f 253 299 297
f 253 266 303
f 253 303 299
f 257 267 266
f 266 307 303
f 266 267 307
f 214 277 279
f 213 279 291
f 213 291 293
f 213 315 314
f 213 314 311
f 213 293 295
f 213 295 315
f 279 277 278
f 279 278 280
f 284 280 281
f 279 280 284
f 284 281 285
f 279 284 290
f 284 285 290
f 285 281 282
f 286 282 283
f 285 282 286
f 285 286 287
f 287 283 288
f 285 287 290
f 279 290 291
f 286 283 287
f 287 288 290
f 290 288 289
f 290 289 291
f 291 289 292
f 291 292 293
f 293 292 294
f 293 294 295
f 295 294 313
f 295 313 315
f 213 311 317
f 303 304 299
f 303 305 304
f 302 303 307
f 302 305 303
f 302 306 305
f 302 301 306
f 309 308 301
f 302 309 301
f 309 317 308
f 311 316 317
f 311 314 310
f 311 310 316
f 314 315 312
f 315 313 312
f 314 312 310
f 317 316 308
f 43 47 46
f 44 47 43
f 45 53 86
f 86 53 87
f 45 44 48
f 44 43 49
f 43 46 49
f 49 46 51
f 49 51 52
f 45 50 53
f 44 49 48
f 45 48 50
f 87 53 54
f 56 58 80
f 60 81 61
f 60 56 80
f 80 58 83
f 60 80 81
f 82 61 81
f 82 55 61
f 79 59 55
f 79 62 59
f 55 59 61
f 56 57 58
f 60 66 56
f 60 61 67
f 56 63 57
f 61 64 67
f 56 66 68
f 56 68 63
f 60 67 66
f 59 64 61
f 59 62 65
f 59 65 64
f 68 72 63
f 68 70 71
f 68 71 72
f 64 75 67
f 65 73 64
f 67 75 66
f 66 70 68
f 64 69 75
f 64 73 69
f 66 75 70
f 69 74 75
f 69 73 74
f 74 137 75
f 44 77 76
f 44 76 78
f 76 84 78
f 79 82 77
f 81 83 84
f 76 81 84
f 80 83 81
f 76 82 81
f 77 82 76
f 86 79 77
f 86 85 79
f 44 78 47
f 45 77 44
f 45 86 77
f 86 87 85
f 79 55 82
f 85 62 79
f 62 134 65
f 65 136 73
f 73 136 144
f 53 50 94
f 48 49 90
f 49 52 90
f 48 92 50
f 48 90 92
f 50 92 93
f 90 52 91
f 50 93 94
f 54 94 95
f 53 94 54
f 92 90 97
f 90 91 97
f 93 92 96
f 94 93 100
f 94 100 95
f 100 93 99
f 92 97 96
f 97 91 98
f 93 96 99
f 95 100 101
f 95 101 118
f 54 95 133
f 97 114 96
f 97 98 114
f 99 96 112
f 100 99 113
f 101 100 117
f 114 98 115
f 100 113 117
f 101 117 118
f 99 112 113
f 96 114 112
f 95 118 127
f 114 115 116
f 95 127 133
f 112 114 122
f 114 116 122
f 113 128 117
f 117 128 118
f 113 112 123
f 113 121 128
f 113 123 121
f 112 122 123
f 122 116 124
f 118 128 127
f 123 122 124
f 123 124 125
f 123 130 121
f 123 125 130
f 87 133 85
f 87 54 133
f 85 134 62
f 65 134 136
f 144 136 200
f 85 133 134
f 121 131 128
f 127 128 132
f 128 131 132
f 121 130 131
f 129 130 125
f 127 132 133
f 73 144 74
f 70 140 71
f 71 141 72
f 75 139 70
f 75 137 139
f 74 143 137
f 71 140 138
f 71 138 141
f 70 139 140
f 138 142 141
f 74 144 143
f 137 143 139
f 139 143 145
f 140 146 138
f 139 147 140
f 138 149 142
f 139 145 147
f 138 146 148
f 138 148 149
f 144 151 143
f 143 150 145
f 143 151 150
f 140 147 146
f 145 150 147
f 144 200 151
f 150 153 147
f 147 156 146
f 146 154 148
f 148 158 149
f 151 152 150
f 147 153 156
f 146 156 154
f 148 154 155
f 148 155 158
f 150 152 153
f 153 162 156
f 154 159 155
f 154 157 159
f 155 159 158
f 156 162 154
f 154 162 157
f 157 160 163
f 157 163 159
f 157 162 160
f 160 162 161
f 160 161 163
f 161 164 165
f 161 165 163
f 153 166 162
f 162 166 167
f 162 172 161
f 161 171 164
f 164 168 165
f 152 169 153
f 153 169 166
f 162 167 172
f 166 170 167
f 164 171 173
f 164 173 168
f 166 169 170
f 167 170 172
f 161 172 171
f 173 174 168
f 169 182 170
f 170 183 172
f 172 184 171
f 171 185 173
f 173 187 174
f 151 200 152
f 152 200 169
f 169 200 199
f 169 199 182
f 170 182 183
f 183 184 172
f 171 184 185
f 173 185 186
f 173 186 187
f 182 195 183
f 183 188 184
f 185 191 186
f 184 190 185
f 186 193 187
f 183 195 188
f 184 188 189
f 182 196 195
f 184 189 190
f 185 190 191
f 186 192 193
f 186 191 192
f 182 199 194
f 182 194 196
f 188 195 189
f 227 219 226
f 220 227 228
f 272 219 220
f 272 221 219
f 272 220 273
f 220 219 227
f 220 228 273
f 227 225 222
f 222 225 223
f 228 222 224
f 222 223 229
f 222 229 224
f 227 226 225
f 227 222 228
f 229 223 230
f 224 229 231
f 229 230 249
f 229 251 231
f 249 230 250
f 229 249 251
f 249 261 251
f 249 250 263
f 249 263 261
f 251 261 265
f 263 250 262
f 263 262 264
f 263 265 261
f 263 264 296
f 263 296 265
f 296 264 297
f 265 296 300
f 272 269 221
f 271 272 273
f 268 274 270
f 268 270 269
f 268 269 272
f 268 272 271
f 268 275 274
f 268 271 275
f 271 276 275
f 271 277 276
f 271 273 289
f 271 288 277
f 273 228 289
f 228 224 292
f 224 231 292
f 231 251 294
f 277 280 278
f 277 281 280
f 277 282 281
f 277 283 282
f 277 288 283
f 271 289 288
f 228 292 289
f 231 294 292
f 251 310 312
f 251 316 310
f 296 297 299
f 296 298 300
f 296 299 298
f 251 265 316
f 265 300 308
f 300 301 308
f 298 299 305
f 298 306 300
f 299 304 305
f 298 305 306
f 300 306 301
f 265 308 316
f 251 313 294
f 251 312 313
