# th_proximal_shaft.obj  (60 v, 116 f)  units: metres
v -0.015002830 0.056909453 -0.078106351
v -0.014967767 0.056905471 -0.078151874
v -0.015365063 0.056950599 -0.077636071
v -0.015594503 0.056998875 -0.077084266
v -0.015614814 0.057003148 -0.077035420
v -0.013847047 0.056849077 -0.078796454
v -0.014450000 0.056870844 -0.078547657
v -0.013715478 0.056847565 -0.078813709
v -0.015699999 0.057059545 -0.076390833
v -0.015642980 0.057097293 -0.075959370
v -0.015614814 0.057115939 -0.075746246
v -0.015444690 0.057151735 -0.075337090
v -0.015365063 0.057168491 -0.075145587
v -0.014967767 0.057213619 -0.074629791
v -0.014904575 0.057217844 -0.074581489
v -0.014450000 0.057248246 -0.074234009
v -0.013847047 0.057270013 -0.073985204
v -0.015365063 0.060736138 -0.077967271
v -0.014967767 0.060691010 -0.078483067
v -0.015614814 0.060788691 -0.077366613
v -0.015699999 0.060845084 -0.076722026
v -0.014450000 0.060656384 -0.078878850
v -0.013847047 0.060634617 -0.079127654
v -0.015614814 0.060901478 -0.076077439
v -0.015365063 0.060954031 -0.075476781
v -0.014967767 0.060999159 -0.074960984
v -0.014450000 0.061033785 -0.074565202
v -0.013847047 0.061055552 -0.074316405
v -0.013200000 0.056841653 -0.078881316
v -0.012552952 0.056849077 -0.078796454
v -0.011950000 0.056870844 -0.078547657
v -0.011432233 0.056905471 -0.078151874
v -0.011323626 0.056917805 -0.078010872
v -0.011034937 0.056950599 -0.077636071
v -0.010852025 0.056989085 -0.077196166
v -0.010785186 0.057003152 -0.077035420
v -0.013200000 0.057277437 -0.073900342
v -0.012552952 0.057270013 -0.073985204
v -0.012425372 0.057265408 -0.074037850
v -0.010721874 0.057045061 -0.076556355
v -0.010700000 0.057059545 -0.076390833
v -0.010757020 0.057097293 -0.075959370
v -0.010785186 0.057115939 -0.075746246
v -0.011432233 0.057213619 -0.074629791
v -0.011950000 0.057248246 -0.074234009
v -0.011034937 0.057168491 -0.075145587
v -0.011238448 0.057191607 -0.074881375
v -0.013200000 0.060627192 -0.079212517
v -0.012552952 0.060634617 -0.079127654
v -0.011950000 0.060656384 -0.078878850
v -0.011432233 0.060691010 -0.078483067
v -0.011034937 0.060736138 -0.077967271
v -0.010785186 0.060788691 -0.077366613
v -0.010700000 0.060845084 -0.076722026
v -0.013200000 0.061062977 -0.074231543
v -0.012552952 0.061055552 -0.074316405
v -0.010785186 0.060901478 -0.076077439
v -0.011034937 0.060954031 -0.075476781
v -0.011950000 0.061033785 -0.074565202
v -0.011432233 0.060999159 -0.074960984
f 7 6 33
f 2 7 35
f 4 3 40
f 5 4 40
f 9 5 40
f 3 1 36
f 2 35 1
f 10 9 40
f 11 10 43
f 12 11 46
f 13 12 44
f 14 13 45
f 14 39 15
f 16 15 38
f 16 37 17
f 16 38 37
f 38 15 39
f 25 19 18
f 24 18 20
f 21 24 20
f 22 19 58
f 24 25 18
f 25 26 19
f 26 27 19
f 27 28 19
f 28 55 19
f 19 55 56
f 8 29 31
f 6 8 33
f 30 31 29
f 8 31 32
f 7 33 34
f 32 33 8
f 7 34 35
f 36 1 35
f 3 36 40
f 10 40 41
f 10 41 42
f 43 10 42
f 11 43 46
f 13 44 45
f 44 12 47
f 14 45 39
f 46 47 12
f 48 23 58
f 58 49 48
f 23 22 58
f 58 50 49
f 58 51 50
f 58 52 51
f 54 53 52
f 57 54 52
f 19 59 60
f 19 56 59
f 19 60 58
f 58 57 52
f 3 19 1
f 2 1 19
f 2 22 7
f 4 18 3
f 20 4 5
f 20 5 9
f 7 23 6
f 48 8 6
f 8 48 29
f 21 9 10
f 24 10 11
f 24 11 12
f 25 12 13
f 25 13 14
f 26 14 15
f 16 26 15
f 27 16 17
f 17 37 28
f 3 18 19
f 2 19 22
f 4 20 18
f 20 9 21
f 7 22 23
f 48 6 23
f 21 10 24
f 24 12 25
f 25 14 26
f 26 16 27
f 27 17 28
f 28 37 55
f 29 49 30
f 30 50 31
f 31 51 32
f 32 51 33
f 33 52 34
f 34 53 35
f 36 35 53
f 36 54 40
f 37 38 55
f 56 38 39
f 56 39 45
f 41 40 54
f 41 57 42
f 57 43 42
f 58 46 43
f 60 44 47
f 59 45 44
f 60 47 46
f 29 48 49
f 30 49 50
f 31 50 51
f 52 33 51
f 34 52 53
f 36 53 54
f 55 38 56
f 56 45 59
f 41 54 57
f 58 43 57
f 59 44 60
f 58 60 46
