# th_tip_core.obj  (721 v, 1438 f)  units: metres
v -0.018807352 0.160481468 -0.090180650
v -0.017843263 0.160401136 -0.091098905
v -0.020170087 0.160680249 -0.087908499
v -0.019591358 0.160575509 -0.089105666
v -0.020524936 0.160792321 -0.086627625
v -0.018800145 0.167276114 -0.090768322
v -0.018937118 0.167288825 -0.090623014
v -0.019486299 0.167354688 -0.089870013
v -0.019582696 0.167369977 -0.089695334
v -0.017577622 0.167177543 -0.091894805
v -0.017834669 0.167196080 -0.091682971
v -0.018297529 0.167229459 -0.091301516
v -0.019936413 0.167426050 -0.089054368
v -0.020280359 0.167501777 -0.088188961
v -0.020157551 0.167474747 -0.088497967
v -0.020512717 0.167580649 -0.087287433
v -0.020521073 0.167586416 -0.087221548
v -0.020629818 0.167661443 -0.086364016
v -0.016730083 0.160337076 -0.091830917
v -0.015503585 0.160291404 -0.092353150
v -0.014203195 0.160265535 -0.092648827
v -0.016788747 0.167133912 -0.092393540
v -0.016728424 0.167131439 -0.092421815
v -0.015943345 0.167099237 -0.092789836
v -0.015499048 0.167086661 -0.092933655
v -0.015054751 0.167074069 -0.093077466
v -0.014202465 0.167059898 -0.093239427
v -0.014136978 0.167058825 -0.093251869
v -0.020644499 0.160908103 -0.085304216
v -0.020524936 0.161023885 -0.083980806
v -0.020170087 0.161135957 -0.082699940
v -0.019591358 0.161240697 -0.081502765
v -0.018807352 0.161334738 -0.080427781
v -0.017843263 0.161415085 -0.079509526
v -0.016730083 0.161479130 -0.078777514
v -0.015503585 0.161524817 -0.078255281
v -0.014203195 0.161550686 -0.077959605
v -0.018895321 0.168185204 -0.090666726
v -0.019440498 0.168250605 -0.089919217
v -0.019303761 0.169138521 -0.089909792
v -0.019078085 0.170005500 -0.089841872
v -0.017545737 0.168074757 -0.091929249
v -0.017450547 0.168966532 -0.091875754
v -0.018260395 0.168126285 -0.091340281
v -0.018770538 0.169074565 -0.090640917
v -0.018149536 0.169016927 -0.091299705
v -0.017293440 0.169839859 -0.091735095
v -0.017076707 0.170682013 -0.091509327
v -0.018564591 0.169943899 -0.090545945
v -0.017966565 0.169888392 -0.091180354
v -0.018766757 0.170838878 -0.089716457
v -0.018280480 0.170780554 -0.090383209
v -0.017714154 0.170727983 -0.090983994
v -0.019887330 0.168321446 -0.089109525
v -0.020228768 0.168396622 -0.088250428
v -0.019740796 0.169207811 -0.089117855
v -0.020074749 0.169281334 -0.088277593
v -0.020459432 0.168474913 -0.087355472
v -0.020644499 0.167702153 -0.085898623
v -0.020575678 0.168555111 -0.086438775
v -0.020300353 0.169357911 -0.087402262
v -0.020414053 0.169436350 -0.086505666
v -0.019820545 0.170143008 -0.088270068
v -0.019498948 0.170072213 -0.089079238
v -0.019165313 0.170902073 -0.088994250
v -0.019469863 0.170969114 -0.088227972
v -0.020037802 0.170216769 -0.087427132
v -0.020147294 0.170292303 -0.086563714
v -0.020147294 0.170368448 -0.085693426
v -0.019779293 0.171110481 -0.086612053
v -0.019779293 0.171182588 -0.085787900
v -0.019675605 0.171038941 -0.087429710
v -0.018374320 0.171626523 -0.089535370
v -0.017922351 0.171572298 -0.090155087
v -0.017395983 0.171523452 -0.090713479
v -0.017495425 0.172307625 -0.089864880
v -0.017016686 0.172263190 -0.090372749
v -0.017005928 0.172975793 -0.089516848
v -0.019027818 0.171747550 -0.088151902
v -0.019315418 0.171878964 -0.086649992
v -0.019219045 0.171812475 -0.087409958
v -0.019315418 0.171945974 -0.085883982
v -0.018744756 0.171685249 -0.088864110
v -0.017906494 0.172356933 -0.089301243
v -0.018243410 0.172410354 -0.088690735
v -0.018500857 0.172467023 -0.088042967
v -0.017896663 0.173116997 -0.087902769
v -0.017370103 0.173019484 -0.089017510
v -0.017668584 0.173066795 -0.088476643
v -0.018674778 0.172526062 -0.087368168
v -0.018762430 0.172586530 -0.086676978
v -0.018050743 0.173169300 -0.087304950
v -0.018128397 0.173222885 -0.086692601
v -0.018762430 0.172647491 -0.085980281
v -0.018128397 0.173276886 -0.086075388
v -0.017028661 0.173645020 -0.088224955
v -0.017224045 0.173688024 -0.087733351
v -0.017422561 0.173778728 -0.086696655
v -0.017356040 0.173732832 -0.087221220
v -0.017422561 0.173824981 -0.086167924
v -0.017356040 0.173870876 -0.085643359
v -0.016762612 0.168031439 -0.092424348
v -0.016684594 0.168924153 -0.092359990
v -0.015923377 0.167997018 -0.092817754
v -0.015863759 0.168890491 -0.092744775
v -0.016555829 0.169799060 -0.092201419
v -0.016378192 0.170643389 -0.091950938
v -0.015765365 0.169766650 -0.092571966
v -0.015629627 0.170612678 -0.092301838
v -0.015458526 0.171416283 -0.091938347
v -0.015041262 0.167972028 -0.093103282
v -0.015000987 0.168866068 -0.093024045
v -0.014130180 0.167956889 -0.093276419
v -0.014109883 0.168851241 -0.093193382
v -0.014934516 0.169743121 -0.092840895
v -0.014842817 0.170590401 -0.092556521
v -0.014727227 0.171395585 -0.092175052
v -0.014076383 0.169728845 -0.093003973
v -0.014030169 0.170576885 -0.092710949
v -0.013971915 0.171383008 -0.092318587
v -0.016154276 0.171444818 -0.091612190
v -0.015254555 0.172165722 -0.091486774
v -0.016803509 0.171480730 -0.091201745
v -0.016477829 0.172224343 -0.090816833
v -0.016581804 0.172936425 -0.089966774
v -0.016104415 0.172902003 -0.090360202
v -0.015887348 0.172191679 -0.091190137
v -0.015581295 0.172873080 -0.090690918
v -0.016097670 0.173533320 -0.089501478
v -0.015688716 0.173503846 -0.089838512
v -0.015240584 0.173479065 -0.090121821
v -0.014589434 0.172146887 -0.091702059
v -0.013902470 0.172135472 -0.091832608
v -0.015020691 0.172850072 -0.090953715
v -0.014431444 0.172833398 -0.091144443
v -0.013822847 0.172823280 -0.091260098
v -0.014255562 0.173445061 -0.090510331
v -0.014760341 0.173459366 -0.090346947
v -0.014870182 0.174000800 -0.089491136
v -0.014477305 0.173984692 -0.089675307
v -0.013734207 0.173436388 -0.090609409
v -0.014064354 0.173972994 -0.089808971
v -0.013637844 0.173965901 -0.089890018
v -0.016772969 0.173604473 -0.088688292
v -0.016460998 0.173567042 -0.089116044
v -0.016123798 0.174103409 -0.088318393
v -0.016332977 0.174136564 -0.087939344
v -0.015868580 0.174072787 -0.088668332
v -0.015571348 0.174045205 -0.088983648
v -0.015236790 0.174021080 -0.089259364
v -0.015591669 0.174534291 -0.087623984
v -0.015237315 0.174485624 -0.088180222
v -0.015432056 0.174508989 -0.087913208
v -0.016492816 0.174171746 -0.087537169
v -0.016600797 0.174208403 -0.087118208
v -0.016655216 0.174245954 -0.086689070
v -0.016655216 0.174283803 -0.086256526
v -0.016600797 0.174321339 -0.085827388
v -0.015713634 0.174561143 -0.087317102
v -0.015796030 0.174589112 -0.086997412
v -0.015837554 0.174617767 -0.086669959
v -0.015837554 0.174646646 -0.086339906
v -0.015796030 0.174675286 -0.086012453
v -0.015713634 0.174703255 -0.085692771
v -0.014755229 0.174446180 -0.088631213
v -0.014475491 0.174430698 -0.088808067
v -0.014175707 0.174418405 -0.088948593
v -0.015010513 0.174464583 -0.088420831
v -0.014423341 0.174785346 -0.087821230
v -0.014576404 0.174799547 -0.087658852
v -0.014251055 0.174772918 -0.087963209
v -0.013860608 0.174409479 -0.089050584
v -0.013535161 0.174404070 -0.089112438
v -0.014062266 0.174762487 -0.088082567
v -0.013859948 0.174754187 -0.088177405
v -0.013647294 0.174748167 -0.088246241
v -0.013427656 0.174744517 -0.088287979
v -0.014897863 0.174850523 -0.087076344
v -0.014707833 0.174815327 -0.087478645
v -0.014815552 0.174832389 -0.087283447
v -0.014953470 0.174869388 -0.086860597
v -0.014981494 0.174888730 -0.086639605
v -0.014981494 0.174908221 -0.086416855
v -0.014953470 0.174927548 -0.086195871
v -0.014897863 0.174946427 -0.085980117
v -0.014815552 0.174964547 -0.085773014
v -0.013818396 0.175002813 -0.087193593
v -0.013895490 0.175009981 -0.087111808
v -0.013731620 0.174996570 -0.087265104
v -0.013961687 0.175017923 -0.087021045
v -0.014015942 0.175026521 -0.086922728
v -0.014085407 0.175045148 -0.086709745
v -0.014057400 0.175035641 -0.086818412
v -0.014099522 0.175054893 -0.086598441
v -0.013636532 0.174991310 -0.087325223
v -0.013534631 0.174987137 -0.087372988
v -0.013427522 0.174984097 -0.087407663
v -0.013316898 0.174982250 -0.087428682
v -0.014099522 0.175064713 -0.086486250
v -0.014085407 0.175074443 -0.086374938
v -0.014057400 0.175083950 -0.086266279
v -0.014015942 0.175093085 -0.086161964
v -0.013961687 0.175101683 -0.086063646
v -0.013895490 0.175109625 -0.085972890
v -0.013818396 0.175116777 -0.085891098
v -0.013731620 0.175123036 -0.085819587
v -0.013636532 0.175128296 -0.085759476
v -0.013534631 0.175132483 -0.085711703
v -0.013427522 0.175135508 -0.085677035
v -0.013316898 0.175137341 -0.085656010
v -0.020629818 0.167742863 -0.085433245
v -0.020521073 0.167817891 -0.084575705
v -0.020512717 0.167823657 -0.084509812
v -0.020575678 0.168635949 -0.085514799
v -0.020414053 0.169515416 -0.085601956
v -0.020459432 0.168716162 -0.084598102
v -0.020228768 0.168794453 -0.083703153
v -0.020280359 0.167902529 -0.083608285
v -0.020157551 0.167929575 -0.083299287
v -0.019936413 0.167978257 -0.082742885
v -0.019887330 0.168869615 -0.082844056
v -0.019582696 0.168034330 -0.082101926
v -0.019486299 0.168049619 -0.081927247
v -0.019440498 0.168940455 -0.082034364
v -0.020300353 0.169593871 -0.084705353
v -0.020037802 0.170443982 -0.084830008
v -0.020074749 0.169670448 -0.083830029
v -0.019820545 0.170517743 -0.083987065
v -0.019675605 0.171254128 -0.084970243
v -0.019469863 0.171323955 -0.084171981
v -0.019740796 0.169743955 -0.082989767
v -0.019303761 0.169813246 -0.082197830
v -0.019498948 0.170588538 -0.083177894
v -0.019165313 0.171391010 -0.083405703
v -0.019078085 0.170655251 -0.082415260
v -0.018937118 0.168115497 -0.081174240
v -0.018800145 0.168128207 -0.081028931
v -0.018895321 0.169005856 -0.081286848
v -0.018297529 0.168174848 -0.080495737
v -0.018260395 0.169064790 -0.080613293
v -0.017834669 0.168208227 -0.080114290
v -0.017577622 0.168226749 -0.079902448
v -0.017545737 0.169116318 -0.080024324
v -0.018770538 0.169877216 -0.081466705
v -0.018149536 0.169934839 -0.080807917
v -0.018564591 0.170716852 -0.081711188
v -0.017966565 0.170772359 -0.081076778
v -0.017450547 0.169985250 -0.080231868
v -0.017293440 0.170820892 -0.080522045
v -0.019219045 0.172012463 -0.085124016
v -0.019027818 0.172077373 -0.084382080
v -0.018674778 0.172707960 -0.085289091
v -0.018500857 0.172766998 -0.084614284
v -0.018243410 0.172823668 -0.083966516
v -0.018744756 0.172139689 -0.083669864
v -0.018374320 0.172198430 -0.082998604
v -0.018766757 0.171454191 -0.082683489
v -0.018280480 0.171512529 -0.082016736
v -0.017922351 0.172252640 -0.082378894
v -0.017906494 0.172877088 -0.083356008
v -0.017395983 0.172301486 -0.081820495
v -0.017495425 0.172926396 -0.082792372
v -0.017016686 0.172970831 -0.082284510
v -0.018050743 0.173330456 -0.085463047
v -0.017896663 0.173382759 -0.084865227
v -0.017224045 0.173915684 -0.085131228
v -0.017668584 0.173432961 -0.084291354
v -0.017370103 0.173480287 -0.083750486
v -0.017028661 0.173958704 -0.084639624
v -0.017005928 0.173523977 -0.083251148
v -0.017714154 0.171565086 -0.081415959
v -0.017076707 0.171611056 -0.080890618
v -0.016788747 0.168270394 -0.079403713
v -0.016728424 0.168272868 -0.079375438
v -0.016762612 0.169159636 -0.079529233
v -0.015943345 0.168305069 -0.079007417
v -0.015499048 0.168317646 -0.078863606
v -0.015923377 0.169194043 -0.079135820
v -0.016555829 0.170861676 -0.080055721
v -0.016684594 0.170027614 -0.079747632
v -0.015863759 0.170061275 -0.079362847
v -0.015765365 0.170894101 -0.079685174
v -0.015054751 0.168330222 -0.078719787
v -0.014202465 0.168344393 -0.078557827
v -0.015041262 0.169219032 -0.078850299
v -0.014136978 0.168345496 -0.078545384
v -0.014130180 0.169234186 -0.078677155
v -0.015000987 0.170085713 -0.079083577
v -0.014934516 0.170917630 -0.079416238
v -0.014109883 0.170100525 -0.078914240
v -0.014076383 0.170931891 -0.079253167
v -0.016477829 0.173009679 -0.081840418
v -0.016772969 0.173999220 -0.084176287
v -0.016460998 0.174036652 -0.083748534
v -0.016492816 0.174358010 -0.085408427
v -0.016332977 0.174393177 -0.085006252
v -0.016123798 0.174426347 -0.084627204
v -0.015591669 0.174730107 -0.085385896
v -0.015432056 0.174755409 -0.085096665
v -0.015237315 0.174778774 -0.084829643
v -0.015868580 0.174456969 -0.084277265
v -0.015571348 0.174484551 -0.083961949
v -0.016581804 0.173563331 -0.082801223
v -0.016097670 0.174070373 -0.083363101
v -0.016104415 0.173597753 -0.082407795
v -0.015688716 0.174099863 -0.083026066
v -0.015240584 0.174124658 -0.082742758
v -0.015581295 0.173626691 -0.082077079
v -0.015236790 0.174508676 -0.083686233
v -0.014707833 0.174981624 -0.085577823
v -0.014576404 0.174997389 -0.085397609
v -0.014423341 0.175011590 -0.085235238
v -0.014251055 0.175024018 -0.085093252
v -0.015010513 0.174799830 -0.084589049
v -0.014755229 0.174818233 -0.084378660
v -0.014475491 0.174833700 -0.084201813
v -0.014175707 0.174846008 -0.084061280
v -0.014062266 0.175034463 -0.084973902
v -0.013859948 0.175042763 -0.084879056
v -0.013647294 0.175048783 -0.084810227
v -0.013427656 0.175052434 -0.084768489
v -0.013860608 0.174854919 -0.083959281
v -0.013535161 0.174860328 -0.083897442
v -0.015020691 0.173649684 -0.081814274
v -0.014760341 0.174144343 -0.082517631
v -0.014255562 0.174158648 -0.082354248
v -0.014870182 0.174528942 -0.083454460
v -0.014477305 0.174545065 -0.083270296
v -0.013734207 0.174167305 -0.082255170
v -0.014064354 0.174556762 -0.083136626
v -0.013637844 0.174563855 -0.083055578
v -0.016803509 0.172344208 -0.081332229
v -0.016378192 0.171649694 -0.080449022
v -0.016154276 0.172380120 -0.080921777
v -0.015629627 0.171680391 -0.080098107
v -0.015887348 0.173042342 -0.081467114
v -0.015254555 0.173068300 -0.081170477
v -0.015458526 0.172408655 -0.080595627
v -0.014842817 0.171702668 -0.079843432
v -0.014589434 0.173087135 -0.080955192
v -0.014727227 0.172429368 -0.080358922
v -0.013902470 0.173098549 -0.080824643
v -0.013971915 0.172441930 -0.080215387
v -0.014030169 0.171716183 -0.079689004
v -0.014431444 0.173666373 -0.081623547
v -0.013822847 0.173676491 -0.081507899
v -0.012870705 0.160260305 -0.092708439
v -0.011548944 0.160275906 -0.092530079
v -0.010280393 0.160311848 -0.092119470
v -0.013204499 0.167053699 -0.093310311
v -0.012871551 0.167055532 -0.093289442
v -0.012272020 0.167058825 -0.093251869
v -0.011550796 0.167070806 -0.093114816
v -0.011354246 0.167074069 -0.093077466
v -0.010465653 0.167099237 -0.092789836
v -0.010284603 0.167106673 -0.092704967
v -0.009620252 0.167133912 -0.092393540
v -0.009105826 0.160366938 -0.091489814
v -0.008062993 0.160439417 -0.090661347
v -0.007185413 0.160526961 -0.089660697
v -0.006501291 0.160626754 -0.088520028
v -0.006032615 0.160735592 -0.087275997
v -0.005794451 0.160849974 -0.085968599
v -0.009113050 0.167161971 -0.092072882
v -0.008831377 0.167177543 -0.091894805
v -0.008111469 0.167229459 -0.091301516
v -0.008065832 0.167233691 -0.091253102
v -0.007471880 0.167288825 -0.090623014
v -0.007197290 0.167321756 -0.090246513
v -0.006922700 0.167354688 -0.089870013
v -0.006504703 0.167420968 -0.089112565
v -0.006472586 0.167426050 -0.089054368
v -0.006128639 0.167501777 -0.088188961
v -0.006045674 0.167529941 -0.087867066
v -0.005896282 0.167580649 -0.087287433
v -0.005804258 0.167644128 -0.086561769
v -0.005779181 0.167661443 -0.086364016
v -0.012870705 0.161555901 -0.077899992
v -0.011548944 0.161540300 -0.078078352
v -0.010280393 0.161504373 -0.078488961
v -0.005794451 0.160966232 -0.084639840
v -0.006032615 0.161080614 -0.083332434
v -0.006501291 0.161189452 -0.082088403
v -0.008062993 0.161376804 -0.079947084
v -0.009105826 0.161449283 -0.079118617
v -0.007185413 0.161289245 -0.080947734
v -0.013204499 0.167951807 -0.093334436
v -0.013204499 0.168846279 -0.093250126
v -0.012299116 0.168851241 -0.093193382
v -0.012278819 0.167956889 -0.093276419
v -0.011367737 0.167972028 -0.093103282
v -0.011408011 0.168866068 -0.093024045
v -0.013204499 0.169724062 -0.093058623
v -0.012332615 0.169728845 -0.093003973
v -0.013204499 0.170572370 -0.092762701
v -0.012378830 0.170576885 -0.092710949
v -0.013204499 0.171378806 -0.092366688
v -0.012437084 0.171383008 -0.092318587
v -0.011474483 0.169743121 -0.092840895
v -0.011566182 0.170590401 -0.092556521
v -0.011681771 0.171395585 -0.092175052
v -0.010485622 0.167997018 -0.092817754
v -0.010545239 0.168890491 -0.092744775
v -0.009646385 0.168031439 -0.092424348
v -0.009724404 0.168924153 -0.092359990
v -0.010643633 0.169766650 -0.092571966
v -0.010950472 0.171416283 -0.091938347
v -0.010779371 0.170612678 -0.092301838
v -0.009853169 0.169799060 -0.092201419
v -0.010030806 0.170643389 -0.091950938
v -0.013204499 0.172131643 -0.091876358
v -0.012506528 0.172135472 -0.091832608
v -0.011819566 0.172146887 -0.091702059
v -0.013204499 0.172819883 -0.091298856
v -0.012586151 0.172823280 -0.091260098
v -0.011977554 0.172833398 -0.091144443
v -0.011388307 0.172850072 -0.090953715
v -0.013204499 0.173433498 -0.090642609
v -0.012674791 0.173436388 -0.090609409
v -0.013204499 0.173963532 -0.089917183
v -0.012771155 0.173965901 -0.089890018
v -0.012344644 0.173972994 -0.089808971
v -0.012153435 0.173445061 -0.090510331
v -0.011931694 0.173984692 -0.089675307
v -0.011648657 0.173459366 -0.090346947
v -0.011538817 0.174000800 -0.089491136
v -0.011154443 0.172165722 -0.091486774
v -0.010254721 0.171444818 -0.091612190
v -0.010521651 0.172191679 -0.091190137
v -0.010827703 0.172873080 -0.090690918
v -0.009605490 0.171480730 -0.091201745
v -0.009931170 0.172224343 -0.090816833
v -0.010304582 0.172902003 -0.090360202
v -0.009827196 0.172936425 -0.089966774
v -0.011168415 0.173479065 -0.090121821
v -0.010720283 0.173503846 -0.089838512
v -0.010311328 0.173533320 -0.089501478
v -0.013204499 0.174402252 -0.089133158
v -0.012873837 0.174404070 -0.089112438
v -0.012548391 0.174409479 -0.089050584
v -0.013204499 0.174743280 -0.088301964
v -0.012981342 0.174744517 -0.088287979
v -0.012761705 0.174748167 -0.088246241
v -0.012549050 0.174754187 -0.088177405
v -0.012346732 0.174762487 -0.088082567
v -0.012233291 0.174418405 -0.088948593
v -0.011933507 0.174430698 -0.088808067
v -0.011653769 0.174446180 -0.088631213
v -0.012157943 0.174772918 -0.087963209
v -0.011985658 0.174785346 -0.087821230
v -0.011832594 0.174799547 -0.087658852
v -0.011398486 0.174464583 -0.088420831
v -0.013204499 0.174981639 -0.087435730
v -0.013092102 0.174982250 -0.087428682
v -0.012981476 0.174984097 -0.087407663
v -0.012874368 0.174987137 -0.087372988
v -0.012772466 0.174991310 -0.087325223
v -0.012677378 0.174996570 -0.087265104
v -0.012590602 0.175002813 -0.087193593
v -0.012513508 0.175009981 -0.087111808
v -0.012447312 0.175017923 -0.087021045
v -0.012393056 0.175026521 -0.086922728
v -0.012351599 0.175035641 -0.086818412
v -0.012323591 0.175045148 -0.086709745
v -0.012309476 0.175054893 -0.086598441
v -0.013204499 0.175113842 -0.086547077
v -0.013204499 0.175137967 -0.085648969
v -0.013092102 0.175137341 -0.085656010
v -0.012981476 0.175135508 -0.085677035
v -0.012874368 0.175132483 -0.085711703
v -0.012772466 0.175128296 -0.085759476
v -0.012309476 0.175064713 -0.086486250
v -0.012323591 0.175074443 -0.086374938
v -0.012351599 0.175083950 -0.086266279
v -0.012393056 0.175093085 -0.086161964
v -0.012590602 0.175116777 -0.085891098
v -0.012677378 0.175123036 -0.085819587
v -0.012447312 0.175101683 -0.086063646
v -0.012513508 0.175109625 -0.085972890
v -0.011701166 0.174815327 -0.087478645
v -0.011593447 0.174832389 -0.087283447
v -0.011511135 0.174850523 -0.087076344
v -0.011455528 0.174869388 -0.086860597
v -0.011427504 0.174888730 -0.086639605
v -0.011427504 0.174908221 -0.086416855
v -0.011455528 0.174927548 -0.086195871
v -0.011593447 0.174964547 -0.085773014
v -0.011511135 0.174946427 -0.085980117
v -0.011172208 0.174021080 -0.089259364
v -0.010837650 0.174045205 -0.088983648
v -0.010540418 0.174072787 -0.088668332
v -0.011171685 0.174485624 -0.088180222
v -0.010976942 0.174508989 -0.087913208
v -0.010817330 0.174534291 -0.087623984
v -0.009948001 0.173567042 -0.089116044
v -0.009636031 0.173604473 -0.088688292
v -0.010285201 0.174103409 -0.088318393
v -0.010076023 0.174136564 -0.087939344
v -0.010695364 0.174561143 -0.087317102
v -0.010612969 0.174589112 -0.086997412
v -0.010571445 0.174617767 -0.086669959
v -0.010571445 0.174646646 -0.086339906
v -0.010695364 0.174703255 -0.085692771
v -0.010612969 0.174675286 -0.086012453
v -0.009916183 0.174171746 -0.087537169
v -0.009808201 0.174208403 -0.087118208
v -0.009753781 0.174245954 -0.086689070
v -0.009753781 0.174283803 -0.086256526
v -0.009808201 0.174321339 -0.085827388
v -0.008863262 0.168074757 -0.091929249
v -0.008958451 0.168966532 -0.091875754
v -0.008148603 0.168126285 -0.091340281
v -0.008259463 0.169016927 -0.091299705
v -0.007638460 0.169074565 -0.090640917
v -0.009115559 0.169839859 -0.091735095
v -0.009332292 0.170682013 -0.091509327
v -0.008694844 0.170727983 -0.090983994
v -0.008442433 0.169888392 -0.091180354
v -0.007844407 0.169943899 -0.090545945
v -0.008128517 0.170780554 -0.090383209
v -0.007642242 0.170838878 -0.089716457
v -0.007513678 0.168185204 -0.090666726
v -0.006968501 0.168250605 -0.089919217
v -0.007105237 0.169138521 -0.089909792
v -0.007330914 0.170005500 -0.089841872
v -0.006521669 0.168321446 -0.089109525
v -0.006180230 0.168396622 -0.088250428
v -0.006668203 0.169207811 -0.089117855
v -0.006334250 0.169281334 -0.088277593
v -0.005949568 0.168474913 -0.087355472
v -0.005833319 0.168555111 -0.086438775
v -0.006108645 0.169357911 -0.087402262
v -0.005994947 0.169436350 -0.086505666
v -0.006910051 0.170072213 -0.089079238
v -0.007243686 0.170902073 -0.088994250
v -0.006939136 0.170969114 -0.088227972
v -0.006588455 0.170143008 -0.088270068
v -0.006733394 0.171038941 -0.087429710
v -0.006371197 0.170216769 -0.087427132
v -0.006261705 0.170292303 -0.086563714
v -0.006261705 0.170368448 -0.085693426
v -0.006629706 0.171110481 -0.086612053
v -0.006629706 0.171182588 -0.085787900
v -0.009013018 0.171523452 -0.090713479
v -0.009392311 0.172263190 -0.090372749
v -0.008913573 0.172307625 -0.089864880
v -0.009403070 0.172975793 -0.089516848
v -0.008486646 0.171572298 -0.090155087
v -0.008034679 0.171626523 -0.089535370
v -0.009038895 0.173019484 -0.089017510
v -0.008740415 0.173066795 -0.088476643
v -0.007664243 0.171685249 -0.088864110
v -0.008502505 0.172356933 -0.089301243
v -0.008165590 0.172410354 -0.088690735
v -0.008512336 0.173116997 -0.087902769
v -0.007908141 0.172467023 -0.088042967
v -0.008358255 0.173169300 -0.087304950
v -0.008280602 0.173222885 -0.086692601
v -0.007734220 0.172526062 -0.087368168
v -0.007646568 0.172586530 -0.086676978
v -0.008280602 0.173276886 -0.086075388
v -0.007646568 0.172647491 -0.085980281
v -0.009380337 0.173645020 -0.088224955
v -0.009184952 0.173688024 -0.087733351
v -0.009052958 0.173732832 -0.087221220
v -0.008986438 0.173778728 -0.086696655
v -0.009052958 0.173870876 -0.085643359
v -0.008986438 0.173824981 -0.086167924
v -0.007381180 0.171747550 -0.088151902
v -0.007189955 0.171812475 -0.087409958
v -0.007093581 0.171878964 -0.086649992
v -0.007093581 0.171945974 -0.085883982
v -0.013204499 0.168350592 -0.078486934
v -0.012871551 0.168348774 -0.078507803
v -0.013204499 0.169239253 -0.078619145
v -0.012272020 0.168345496 -0.078545384
v -0.011550796 0.168333501 -0.078682445
v -0.011354246 0.168330222 -0.078719787
v -0.012278819 0.169234186 -0.078677155
v -0.011367737 0.169219032 -0.078850299
v -0.012299116 0.170100525 -0.078914240
v -0.013204499 0.170105487 -0.078857489
v -0.013204499 0.170936689 -0.079198524
v -0.012332615 0.170931891 -0.079253167
v -0.011408011 0.170085713 -0.079083577
v -0.011474483 0.170917630 -0.079416238
v -0.010465653 0.168305069 -0.079007417
v -0.010485622 0.169194043 -0.079135820
v -0.010284603 0.168297648 -0.079092287
v -0.009620252 0.168270394 -0.079403713
v -0.009646385 0.169159636 -0.079529233
v -0.009853169 0.170861676 -0.080055721
v -0.010545239 0.170061275 -0.079362847
v -0.010643633 0.170894101 -0.079685174
v -0.009724404 0.170027614 -0.079747632
v -0.013204499 0.175053656 -0.084754497
v -0.012981342 0.175052434 -0.084768489
v -0.012761705 0.175048783 -0.084810227
v -0.012549050 0.175042763 -0.084879056
v -0.012346732 0.175034463 -0.084973902
v -0.013204499 0.174862146 -0.083876714
v -0.012873837 0.174860328 -0.083897442
v -0.012548391 0.174854919 -0.083959281
v -0.011832594 0.174997389 -0.085397609
v -0.011985658 0.175011590 -0.085235238
v -0.012157943 0.175024018 -0.085093252
v -0.011701166 0.174981624 -0.085577823
v -0.011933507 0.174833700 -0.084201813
v -0.012233291 0.174846008 -0.084061280
v -0.011653769 0.174818233 -0.084378660
v -0.011398486 0.174799830 -0.084589049
v -0.013204499 0.174170211 -0.082221970
v -0.012674791 0.174167305 -0.082255170
v -0.013204499 0.174566224 -0.083028413
v -0.012771155 0.174563855 -0.083055578
v -0.012344644 0.174556762 -0.083136626
v -0.012153435 0.174158648 -0.082354248
v -0.011388307 0.173649684 -0.081814274
v -0.011648657 0.174144343 -0.082517631
v -0.011931694 0.174545065 -0.083270296
v -0.011538817 0.174528942 -0.083454460
v -0.009931170 0.173009679 -0.081840418
v -0.011171685 0.174778774 -0.084829643
v -0.010976942 0.174755409 -0.085096665
v -0.010817330 0.174730107 -0.085385896
v -0.010540418 0.174456969 -0.084277265
v -0.010837650 0.174484551 -0.083961949
v -0.009636031 0.173999220 -0.084176287
v -0.009948001 0.174036652 -0.083748534
v -0.010076023 0.174393177 -0.085006252
v -0.009916183 0.174358010 -0.085408427
v -0.010285201 0.174426347 -0.084627204
v -0.011168415 0.174124658 -0.082742758
v -0.010720283 0.174099863 -0.083026066
v -0.010827703 0.173626691 -0.082077079
v -0.011172208 0.174508676 -0.083686233
v -0.010311328 0.174070373 -0.083363101
v -0.009827196 0.173563331 -0.082801223
v -0.010304582 0.173597753 -0.082407795
v -0.012506528 0.173098549 -0.080824643
v -0.013204499 0.172446132 -0.080167286
v -0.013204499 0.173102379 -0.080780894
v -0.012437084 0.172441930 -0.080215387
v -0.011566182 0.171702668 -0.079843432
v -0.011819566 0.173087135 -0.080955192
v -0.011681771 0.172429368 -0.080358922
v -0.013204499 0.171720713 -0.079637252
v -0.012378830 0.171716183 -0.079689004
v -0.013204499 0.173679888 -0.081469141
v -0.012586151 0.173676491 -0.081507899
v -0.011977554 0.173666373 -0.081623547
v -0.010779371 0.171680391 -0.080098107
v -0.011154443 0.173068300 -0.081170477
v -0.010521651 0.173042342 -0.081467114
v -0.010950472 0.172408655 -0.080595627
v -0.009605490 0.172344208 -0.081332229
v -0.010030806 0.171649694 -0.080449022
v -0.010254721 0.172380120 -0.080921777
v -0.005779181 0.167742863 -0.085433245
v -0.005804258 0.167760178 -0.085235484
v -0.005896282 0.167823657 -0.084509812
v -0.006045674 0.167874366 -0.083930179
v -0.005833319 0.168635949 -0.085514799
v -0.005994947 0.169515416 -0.085601956
v -0.005949568 0.168716162 -0.084598102
v -0.006180230 0.168794453 -0.083703153
v -0.006922700 0.168049619 -0.081927247
v -0.006968501 0.168940455 -0.082034364
v -0.006472586 0.167978257 -0.082742885
v -0.006128639 0.167902529 -0.083608285
v -0.006504703 0.167983338 -0.082684681
v -0.006521669 0.168869615 -0.082844056
v -0.006733394 0.171254128 -0.084970243
v -0.006939136 0.171323955 -0.084171981
v -0.006371197 0.170443982 -0.084830008
v -0.006108645 0.169593871 -0.084705353
v -0.006334250 0.169670448 -0.083830029
v -0.006588455 0.170517743 -0.083987065
v -0.007105237 0.169813246 -0.082197830
v -0.007243686 0.171391010 -0.083405703
v -0.006910051 0.170588538 -0.083177894
v -0.007330914 0.170655251 -0.082415260
v -0.006668203 0.169743955 -0.082989767
v -0.008831377 0.168226749 -0.079902448
v -0.008863262 0.169116318 -0.080024324
v -0.008111469 0.168174848 -0.080495737
v -0.008065832 0.168170616 -0.080544151
v -0.008148603 0.169064790 -0.080613293
v -0.009113050 0.168242335 -0.079724371
v -0.008958451 0.169985250 -0.080231868
v -0.009115559 0.170820892 -0.080522045
v -0.008259463 0.169934839 -0.080807917
v -0.007638460 0.169877216 -0.081466705
v -0.008442433 0.170772359 -0.081076778
v -0.007844407 0.170716852 -0.081711188
v -0.007197290 0.168082550 -0.081550740
v -0.007471880 0.168115497 -0.081174240
v -0.007513678 0.169005856 -0.081286848
v -0.007734220 0.172707960 -0.085289091
v -0.008165590 0.172823668 -0.083966516
v -0.007908141 0.172766998 -0.084614284
v -0.009013018 0.172301486 -0.081820495
v -0.008913573 0.172926396 -0.082792372
v -0.009392311 0.172970831 -0.082284510
v -0.007664243 0.172139689 -0.083669864
v -0.008034679 0.172198430 -0.082998604
v -0.008128517 0.171512529 -0.082016736
v -0.008486646 0.172252640 -0.082378894
v -0.007642242 0.171454191 -0.082683489
v -0.008502505 0.172877088 -0.083356008
v -0.009184952 0.173915684 -0.085131228
v -0.009038895 0.173480287 -0.083750486
v -0.009380337 0.173958704 -0.084639624
v -0.008740415 0.173432961 -0.084291354
v -0.008358255 0.173330456 -0.085463047
v -0.008512336 0.173382759 -0.084865227
v -0.009403070 0.173523977 -0.083251148
v -0.007189955 0.172012463 -0.085124016
v -0.007381180 0.172077373 -0.084382080
v -0.009332292 0.171611056 -0.080890618
v -0.008694844 0.171565086 -0.081415959
f 1 4 7
f 2 22 19
f 1 12 2
f 3 13 4
f 3 5 14
f 5 29 18
f 1 7 6
f 4 9 8
f 4 8 7
f 6 7 38
f 7 8 39
f 8 9 39
f 2 10 22
f 2 11 10
f 1 6 12
f 2 12 11
f 11 12 44
f 10 11 42
f 10 42 22
f 6 44 12
f 3 14 15
f 3 15 13
f 4 13 9
f 5 16 14
f 5 17 16
f 5 18 17
f 18 29 59
f 19 24 20
f 20 26 21
f 21 350 347
f 3 4 383
f 1 2 383
f 2 19 383
f 1 383 4
f 19 22 23
f 19 23 24
f 20 24 25
f 20 25 26
f 22 102 23
f 23 104 24
f 24 104 25
f 25 104 111
f 25 111 26
f 21 26 27
f 21 27 28
f 21 28 350
f 26 111 27
f 27 111 113
f 27 113 28
f 28 113 350
f 113 387 350
f 29 30 211
f 30 31 213
f 31 32 220
f 32 33 223
f 33 34 239
f 34 35 242
f 29 211 59
f 30 212 211
f 30 213 212
f 31 218 213
f 31 219 218
f 31 220 219
f 32 222 220
f 32 223 222
f 33 236 223
f 33 237 236
f 33 239 237
f 34 241 239
f 34 242 241
f 35 273 242
f 3 383 5
f 5 383 29
f 29 383 30
f 30 383 31
f 31 383 32
f 35 36 276
f 32 383 33
f 33 383 34
f 34 383 35
f 36 37 283
f 37 378 286
f 35 274 273
f 35 276 274
f 36 277 276
f 36 283 277
f 37 284 283
f 37 286 284
f 286 378 573
f 9 54 39
f 7 39 38
f 38 39 40
f 39 56 40
f 38 40 45
f 40 41 45
f 40 64 41
f 41 49 45
f 41 51 49
f 41 65 51
f 11 44 42
f 42 44 46
f 22 42 102
f 42 43 102
f 42 46 43
f 43 46 50
f 43 103 102
f 43 47 103
f 6 38 44
f 38 45 44
f 44 45 46
f 45 49 46
f 43 50 47
f 47 53 48
f 47 48 106
f 46 49 50
f 49 52 50
f 50 52 53
f 52 74 53
f 49 51 52
f 51 73 52
f 52 73 74
f 47 50 53
f 48 53 75
f 53 74 75
f 48 75 123
f 9 13 54
f 13 15 54
f 15 55 54
f 14 55 15
f 14 16 58
f 14 58 55
f 54 55 57
f 54 57 56
f 56 57 63
f 55 58 61
f 55 61 57
f 39 54 56
f 40 56 64
f 16 17 58
f 17 18 60
f 17 60 58
f 18 59 60
f 59 214 60
f 58 62 61
f 58 60 62
f 60 214 215
f 60 215 62
f 57 61 67
f 57 67 63
f 63 67 72
f 56 63 64
f 63 66 64
f 41 64 65
f 64 66 65
f 51 65 83
f 63 72 66
f 66 72 81
f 65 66 79
f 61 62 68
f 61 68 67
f 62 215 69
f 62 69 68
f 67 70 72
f 67 68 70
f 68 71 70
f 68 69 71
f 70 80 72
f 70 71 82
f 51 83 73
f 73 84 74
f 75 77 123
f 74 76 75
f 74 84 76
f 75 76 77
f 76 78 77
f 65 79 83
f 66 81 79
f 79 81 90
f 72 80 81
f 81 91 90
f 80 91 81
f 70 82 80
f 80 82 94
f 80 94 91
f 82 252 94
f 73 83 85
f 83 86 85
f 73 85 84
f 79 86 83
f 79 90 86
f 84 85 89
f 86 90 92
f 85 86 87
f 85 87 89
f 86 92 87
f 76 84 88
f 84 89 88
f 76 88 78
f 78 88 144
f 88 89 96
f 90 91 93
f 90 93 92
f 91 95 93
f 91 94 95
f 94 264 95
f 88 96 144
f 87 97 89
f 87 99 97
f 89 97 96
f 92 93 98
f 93 95 100
f 87 92 99
f 92 98 99
f 97 99 155
f 98 156 99
f 93 100 98
f 95 264 101
f 95 101 100
f 98 100 157
f 100 101 158
f 23 102 104
f 102 103 104
f 103 105 104
f 103 106 105
f 105 106 108
f 47 106 103
f 104 105 111
f 105 112 111
f 105 108 112
f 108 115 112
f 48 107 106
f 106 107 108
f 48 123 107
f 107 121 109
f 107 123 121
f 108 109 115
f 109 116 115
f 107 109 108
f 109 121 110
f 109 110 116
f 111 112 113
f 112 114 113
f 112 115 114
f 114 115 118
f 113 114 387
f 114 388 387
f 114 118 388
f 118 393 388
f 115 116 118
f 116 119 118
f 116 117 119
f 117 120 119
f 110 117 116
f 118 119 393
f 119 395 393
f 119 120 395
f 120 397 395
f 110 121 127
f 110 122 117
f 110 127 122
f 121 123 124
f 77 124 123
f 121 124 127
f 124 126 127
f 77 125 124
f 77 78 125
f 78 145 125
f 124 125 126
f 125 129 126
f 122 127 128
f 126 128 127
f 122 128 134
f 128 131 134
f 126 130 128
f 125 145 129
f 126 129 130
f 128 130 131
f 130 150 131
f 131 150 139
f 117 122 132
f 117 132 120
f 120 132 133
f 132 135 133
f 120 133 397
f 133 411 397
f 133 135 136
f 133 136 411
f 136 414 411
f 122 134 132
f 132 134 135
f 131 138 134
f 134 138 135
f 135 137 136
f 135 138 137
f 136 137 141
f 136 141 414
f 141 418 414
f 131 139 138
f 138 139 140
f 137 138 140
f 137 140 142
f 140 167 142
f 137 142 141
f 141 142 143
f 142 172 143
f 141 143 418
f 143 420 418
f 143 173 420
f 78 144 145
f 129 145 148
f 144 146 145
f 145 146 148
f 96 147 144
f 96 97 154
f 96 154 147
f 144 147 146
f 146 147 151
f 147 154 159
f 129 149 130
f 129 148 149
f 148 152 149
f 130 149 150
f 149 168 150
f 149 152 168
f 146 153 148
f 147 159 151
f 146 151 153
f 148 153 152
f 152 153 179
f 151 180 153
f 97 155 154
f 99 156 155
f 98 157 156
f 100 158 157
f 101 295 158
f 154 155 160
f 154 160 159
f 155 156 161
f 155 161 160
f 156 157 162
f 156 162 161
f 157 163 162
f 157 158 163
f 158 295 164
f 158 164 163
f 160 161 182
f 151 159 178
f 151 178 180
f 159 181 178
f 159 160 181
f 160 182 181
f 161 162 183
f 162 163 184
f 161 183 182
f 162 184 183
f 163 164 185
f 164 298 186
f 163 185 184
f 164 186 185
f 139 150 165
f 139 166 140
f 150 168 165
f 139 165 166
f 140 166 167
f 166 174 167
f 152 170 168
f 165 168 169
f 153 180 179
f 152 179 170
f 168 170 169
f 165 171 166
f 165 169 171
f 166 171 174
f 169 187 171
f 142 167 172
f 143 172 173
f 167 175 172
f 172 176 173
f 173 438 420
f 173 176 177
f 173 177 438
f 177 441 438
f 167 174 175
f 172 175 176
f 171 189 174
f 174 195 175
f 175 196 176
f 174 189 195
f 175 195 196
f 176 197 177
f 176 196 197
f 177 198 441
f 177 197 198
f 198 453 441
f 178 181 192
f 181 182 194
f 170 179 190
f 179 180 191
f 169 170 188
f 170 190 188
f 179 191 190
f 178 193 180
f 181 194 192
f 180 193 191
f 178 192 193
f 182 183 199
f 183 184 200
f 184 185 201
f 182 199 194
f 183 200 199
f 184 201 200
f 185 202 201
f 185 186 202
f 186 310 203
f 204 310 311
f 186 203 202
f 203 310 204
f 169 188 187
f 171 187 189
f 188 190 466
f 190 191 466
f 192 194 466
f 191 193 466
f 192 466 193
f 195 466 196
f 196 466 197
f 197 466 198
f 198 466 453
f 187 188 466
f 187 466 189
f 189 466 195
f 194 199 466
f 199 200 466
f 200 201 466
f 201 202 466
f 202 203 466
f 203 204 466
f 204 311 205
f 205 312 206
f 204 205 466
f 205 206 466
f 206 207 466
f 207 208 466
f 208 209 466
f 209 210 466
f 210 467 466
f 59 211 214
f 211 212 214
f 212 216 214
f 212 213 216
f 213 217 216
f 213 218 217
f 214 216 225
f 214 225 215
f 216 217 227
f 216 227 225
f 217 218 219
f 217 219 221
f 219 220 221
f 220 222 221
f 217 231 227
f 217 221 231
f 221 222 224
f 222 223 224
f 221 224 232
f 221 232 231
f 224 244 232
f 215 225 226
f 69 215 226
f 225 227 228
f 225 228 226
f 69 226 229
f 69 229 71
f 226 230 229
f 226 228 230
f 228 234 230
f 227 231 233
f 227 233 228
f 231 235 233
f 231 232 235
f 232 244 246
f 232 246 235
f 228 233 234
f 233 235 257
f 233 257 234
f 235 258 257
f 235 246 258
f 223 236 238
f 236 237 238
f 223 238 224
f 224 238 244
f 237 239 240
f 239 241 240
f 237 240 238
f 238 240 245
f 240 241 243
f 241 242 243
f 240 243 248
f 242 273 275
f 242 275 243
f 243 275 280
f 238 245 244
f 244 247 246
f 244 245 247
f 240 248 245
f 246 271 258
f 246 247 271
f 245 248 249
f 243 280 248
f 245 249 247
f 247 249 272
f 247 272 271
f 248 279 249
f 71 229 250
f 71 250 82
f 229 251 250
f 82 250 252
f 250 251 253
f 229 230 251
f 230 234 255
f 230 255 251
f 250 253 252
f 251 255 254
f 94 252 264
f 252 253 265
f 252 265 264
f 251 254 253
f 253 254 267
f 253 267 265
f 254 268 267
f 254 260 268
f 234 257 256
f 234 256 255
f 257 258 259
f 256 257 259
f 258 261 259
f 255 256 260
f 254 255 260
f 256 259 262
f 256 262 260
f 260 262 270
f 259 263 262
f 259 261 263
f 261 292 263
f 262 263 303
f 264 265 266
f 101 264 266
f 101 266 295
f 265 269 266
f 265 267 269
f 267 268 293
f 267 293 269
f 260 270 268
f 268 270 294
f 262 303 270
f 258 271 261
f 271 272 332
f 261 271 332
f 273 274 275
f 274 276 278
f 274 278 275
f 275 278 281
f 276 277 278
f 277 283 285
f 277 285 278
f 278 285 288
f 248 280 279
f 249 279 333
f 249 333 272
f 279 280 282
f 279 335 333
f 279 282 335
f 275 281 280
f 280 281 282
f 278 288 281
f 281 288 289
f 281 289 282
f 282 289 339
f 283 284 285
f 284 287 285
f 284 286 287
f 285 287 290
f 286 575 287
f 286 573 575
f 287 575 582
f 285 290 288
f 288 290 291
f 288 291 289
f 289 291 344
f 290 582 583
f 287 582 290
f 290 583 291
f 291 583 647
f 263 292 305
f 292 336 308
f 266 269 296
f 269 293 297
f 268 294 293
f 293 294 301
f 294 304 302
f 266 296 295
f 269 297 296
f 295 296 298
f 293 301 297
f 164 295 298
f 296 299 298
f 296 297 299
f 297 300 299
f 298 299 310
f 299 300 311
f 297 301 300
f 294 302 301
f 301 302 314
f 302 309 315
f 300 301 314
f 302 315 314
f 270 303 304
f 270 304 294
f 303 306 304
f 303 305 306
f 263 305 303
f 292 308 305
f 305 307 306
f 305 308 307
f 308 336 324
f 307 308 325
f 308 324 325
f 302 304 309
f 304 306 309
f 306 327 309
f 306 307 327
f 186 298 310
f 299 311 310
f 300 312 311
f 300 314 312
f 313 314 315
f 205 311 312
f 312 314 313
f 313 315 318
f 309 327 316
f 309 316 315
f 315 316 318
f 316 317 319
f 316 327 317
f 317 328 322
f 206 312 313
f 207 313 318
f 206 313 207
f 207 318 208
f 208 318 319
f 316 319 318
f 208 319 209
f 209 320 210
f 210 321 467
f 209 319 320
f 210 320 321
f 321 596 467
f 317 320 319
f 317 322 320
f 320 322 321
f 321 322 323
f 321 323 596
f 323 601 596
f 324 326 325
f 324 345 326
f 307 328 327
f 307 325 328
f 317 327 328
f 325 330 328
f 325 326 330
f 329 345 346
f 326 345 329
f 329 346 612
f 322 328 330
f 323 330 331
f 326 331 330
f 322 330 323
f 331 614 601
f 329 614 331
f 323 331 601
f 326 329 331
f 329 612 614
f 272 334 332
f 272 333 334
f 261 332 292
f 292 332 336
f 332 334 336
f 333 335 338
f 333 338 334
f 282 339 335
f 335 341 338
f 334 338 337
f 334 337 336
f 324 336 337
f 337 338 340
f 335 339 341
f 339 343 341
f 339 344 343
f 337 340 345
f 338 341 340
f 341 343 342
f 340 341 342
f 343 344 641
f 344 647 641
f 342 343 642
f 343 641 642
f 289 344 339
f 291 647 344
f 324 337 345
f 340 346 345
f 340 342 346
f 342 649 346
f 342 642 649
f 346 649 612
f 347 352 348
f 348 355 349
f 349 357 358
f 19 20 383
f 20 21 383
f 21 347 383
f 347 348 383
f 347 350 351
f 347 351 352
f 348 352 353
f 348 353 354
f 350 387 351
f 351 387 390
f 351 390 352
f 352 390 353
f 353 390 391
f 353 391 354
f 348 354 355
f 349 355 356
f 349 356 357
f 354 391 355
f 355 391 402
f 355 402 356
f 356 404 357
f 358 366 359
f 359 368 360
f 348 349 383
f 349 358 383
f 358 359 383
f 359 360 383
f 360 361 383
f 361 362 383
f 362 363 381
f 360 370 361
f 361 373 362
f 362 375 363
f 357 364 358
f 358 364 365
f 358 365 366
f 359 366 367
f 359 367 368
f 357 404 364
f 364 510 365
f 365 510 366
f 366 512 367
f 367 522 368
f 360 368 369
f 360 369 370
f 368 522 369
f 369 523 370
f 370 523 371
f 361 370 371
f 361 371 372
f 361 372 373
f 362 373 374
f 362 374 375
f 363 375 376
f 363 376 377
f 363 377 659
f 35 383 36
f 36 383 37
f 378 379 576
f 37 383 378
f 378 383 379
f 379 384 385
f 379 385 380
f 379 380 578
f 380 385 590
f 378 574 573
f 378 576 574
f 379 577 576
f 379 578 577
f 380 587 578
f 380 590 589
f 380 589 587
f 362 381 382
f 362 382 383
f 363 659 381
f 381 661 382
f 382 669 383
f 379 383 386
f 379 386 384
f 384 684 385
f 383 667 386
f 384 386 697
f 381 659 660
f 381 660 661
f 382 661 662
f 382 662 670
f 382 670 669
f 383 669 671
f 383 671 667
f 384 686 684
f 384 687 686
f 384 697 687
f 385 689 590
f 385 684 689
f 386 696 697
f 386 667 696
f 387 388 390
f 388 389 390
f 388 393 389
f 389 393 394
f 389 391 390
f 389 392 391
f 389 394 392
f 392 394 399
f 393 395 394
f 394 395 396
f 395 397 396
f 396 397 398
f 394 396 399
f 396 400 399
f 396 398 400
f 398 401 400
f 391 392 402
f 392 403 402
f 392 399 403
f 399 406 403
f 356 402 404
f 402 403 404
f 403 405 404
f 403 406 405
f 405 406 409
f 405 409 511
f 399 400 406
f 400 408 406
f 406 408 409
f 400 401 408
f 401 407 408
f 407 410 408
f 408 410 409
f 409 410 515
f 407 428 410
f 410 428 516
f 428 431 516
f 397 411 398
f 398 411 412
f 411 414 412
f 412 414 415
f 412 415 413
f 398 412 401
f 401 412 413
f 401 413 407
f 413 416 427
f 414 418 415
f 415 418 419
f 415 419 416
f 413 415 416
f 416 419 423
f 416 423 417
f 416 417 427
f 417 423 425
f 418 420 419
f 419 420 421
f 420 438 421
f 419 421 423
f 421 422 423
f 421 439 422
f 422 425 423
f 422 440 424
f 422 424 425
f 424 435 425
f 424 426 435
f 407 413 427
f 407 427 428
f 427 429 428
f 417 429 427
f 417 430 429
f 417 425 430
f 429 430 432
f 425 435 430
f 430 435 433
f 428 429 431
f 429 432 431
f 431 432 544
f 430 433 432
f 432 433 545
f 433 436 434
f 433 434 545
f 434 437 547
f 426 436 435
f 426 489 436
f 433 435 436
f 436 489 437
f 434 436 437
f 421 438 439
f 438 441 439
f 439 441 442
f 439 442 440
f 440 442 443
f 422 439 440
f 440 443 446
f 441 453 442
f 442 453 454
f 442 454 443
f 443 455 444
f 443 454 455
f 444 455 456
f 443 444 446
f 444 456 445
f 445 456 457
f 445 457 449
f 424 446 426
f 426 447 489
f 424 440 446
f 426 446 447
f 444 447 446
f 447 448 489
f 444 445 447
f 445 449 448
f 445 448 447
f 449 450 452
f 449 458 450
f 450 459 451
f 448 449 452
f 450 492 452
f 450 451 492
f 451 480 493
f 453 466 454
f 454 466 455
f 455 466 456
f 456 466 457
f 457 466 458
f 458 466 459
f 459 466 460
f 449 457 458
f 450 458 459
f 451 459 460
f 460 466 461
f 461 466 462
f 462 466 463
f 463 466 464
f 464 466 465
f 466 476 479
f 466 467 468
f 466 468 469
f 466 469 470
f 466 470 471
f 466 471 477
f 466 477 476
f 465 466 472
f 466 473 472
f 466 474 473
f 466 475 474
f 466 478 475
f 466 479 478
f 476 605 479
f 460 461 480
f 461 462 481
f 451 460 480
f 461 481 480
f 462 482 481
f 462 463 482
f 463 464 483
f 464 465 484
f 480 481 494
f 463 483 482
f 464 484 483
f 473 474 488
f 465 472 485
f 472 473 486
f 475 478 607
f 474 475 487
f 478 479 604
f 474 487 488
f 478 604 607
f 475 607 487
f 465 485 484
f 472 486 485
f 473 488 486
f 448 490 489
f 452 491 490
f 437 489 490
f 490 491 495
f 448 452 490
f 452 492 491
f 451 493 492
f 480 494 493
f 491 492 497
f 492 493 497
f 493 498 497
f 493 494 498
f 437 490 495
f 491 496 495
f 491 497 496
f 437 495 547
f 495 496 550
f 496 497 563
f 497 498 563
f 498 564 563
f 498 505 564
f 494 505 498
f 481 499 494
f 482 500 499
f 481 482 499
f 482 483 500
f 483 484 501
f 494 499 505
f 483 501 500
f 484 485 502
f 485 486 504
f 486 488 503
f 487 625 488
f 486 503 504
f 488 625 503
f 484 502 501
f 485 504 502
f 505 506 565
f 506 507 566
f 507 508 568
f 508 509 567
f 499 500 506
f 499 506 505
f 500 501 507
f 500 507 506
f 501 502 508
f 501 508 507
f 502 509 508
f 502 504 509
f 503 631 504
f 504 631 509
f 364 404 510
f 404 405 510
f 510 511 512
f 405 511 510
f 409 515 511
f 511 515 513
f 366 510 512
f 511 513 512
f 367 512 522
f 512 513 522
f 513 518 514
f 513 514 522
f 410 516 515
f 515 516 518
f 513 515 518
f 516 517 518
f 431 517 516
f 431 544 517
f 517 544 520
f 517 519 518
f 517 520 519
f 514 518 519
f 519 520 525
f 520 544 548
f 520 521 525
f 520 548 521
f 521 548 549
f 369 522 523
f 514 523 522
f 523 524 526
f 514 524 523
f 514 519 524
f 524 525 528
f 519 525 524
f 521 534 525
f 521 549 535
f 535 549 552
f 524 528 526
f 371 526 372
f 371 523 526
f 372 526 373
f 373 526 527
f 373 527 374
f 374 527 530
f 526 528 527
f 527 528 529
f 528 534 529
f 527 529 530
f 529 532 530
f 374 530 375
f 375 530 376
f 376 530 531
f 376 531 377
f 377 531 659
f 531 663 659
f 530 532 531
f 531 532 533
f 531 533 663
f 533 664 663
f 525 534 528
f 534 535 537
f 521 535 534
f 535 552 536
f 535 536 537
f 536 569 538
f 529 534 537
f 529 537 532
f 532 537 539
f 536 539 537
f 536 538 539
f 538 570 542
f 542 571 543
f 532 539 533
f 533 539 540
f 533 540 664
f 540 541 664
f 538 540 539
f 538 542 540
f 540 542 541
f 541 542 543
f 432 545 544
f 544 545 548
f 545 546 548
f 434 546 545
f 434 547 546
f 546 547 553
f 546 549 548
f 546 553 549
f 495 550 547
f 496 551 550
f 547 550 553
f 550 554 553
f 550 551 554
f 551 563 555
f 552 553 554
f 549 553 552
f 552 554 569
f 554 556 569
f 551 556 554
f 551 555 556
f 555 559 556
f 555 557 559
f 557 560 559
f 557 558 560
f 558 561 562
f 558 562 560
f 561 699 562
f 496 563 551
f 555 563 564
f 555 564 557
f 505 565 564
f 506 566 565
f 557 564 565
f 558 565 566
f 507 568 566
f 508 567 568
f 561 566 568
f 567 715 568
f 557 565 558
f 558 566 561
f 561 568 715
f 536 552 569
f 556 570 569
f 556 559 570
f 538 569 570
f 559 571 570
f 559 560 571
f 542 570 571
f 560 572 571
f 562 718 572
f 543 571 572
f 560 562 572
f 573 574 575
f 574 579 575
f 574 576 579
f 575 579 581
f 577 578 580
f 579 580 585
f 576 577 579
f 577 580 579
f 581 584 582
f 575 581 582
f 582 584 583
f 583 584 648
f 579 585 581
f 581 585 586
f 581 586 584
f 584 586 644
f 578 587 588
f 578 588 580
f 580 588 593
f 587 589 588
f 589 590 591
f 588 589 591
f 588 591 595
f 594 657 652
f 592 657 594
f 592 595 691
f 592 720 657
f 580 593 585
f 585 593 594
f 585 594 586
f 586 594 652
f 588 595 593
f 592 593 595
f 592 594 593
f 467 596 468
f 468 597 469
f 469 598 470
f 468 596 597
f 469 597 598
f 470 599 471
f 471 600 477
f 471 599 600
f 476 477 606
f 477 600 606
f 470 598 599
f 596 601 597
f 597 601 602
f 597 602 598
f 598 603 599
f 598 602 603
f 599 609 600
f 599 603 609
f 603 616 609
f 476 606 605
f 479 605 604
f 600 608 606
f 605 606 610
f 487 607 624
f 604 623 607
f 605 610 611
f 604 605 611
f 604 611 623
f 600 609 608
f 606 608 610
f 608 609 620
f 610 621 636
f 610 636 611
f 608 621 610
f 612 649 613
f 613 650 617
f 602 614 615
f 612 615 614
f 601 614 602
f 603 615 616
f 613 616 615
f 602 615 603
f 612 613 615
f 613 617 616
f 617 650 651
f 617 651 619
f 618 633 619
f 618 619 651
f 609 616 620
f 616 617 620
f 608 620 621
f 619 621 620
f 619 633 621
f 617 619 620
f 622 639 654
f 622 656 704
f 622 704 638
f 623 626 624
f 487 624 625
f 607 623 624
f 503 625 630
f 624 632 625
f 624 626 632
f 611 636 627
f 611 627 623
f 623 627 626
f 626 627 637
f 509 631 711
f 626 637 629
f 628 632 629
f 628 713 630
f 628 629 717
f 503 630 631
f 625 632 630
f 630 713 631
f 626 629 632
f 628 630 632
f 634 639 637
f 633 635 634
f 618 635 633
f 635 654 639
f 634 635 639
f 621 633 636
f 627 636 634
f 633 634 636
f 627 634 637
f 629 637 638
f 637 639 638
f 629 638 717
f 638 704 717
f 622 638 639
f 641 647 643
f 643 647 648
f 640 642 641
f 640 641 643
f 643 648 646
f 644 646 648
f 644 655 646
f 618 645 653
f 645 646 653
f 643 646 645
f 640 643 645
f 583 648 647
f 584 644 648
f 642 650 649
f 640 650 642
f 613 649 650
f 640 651 650
f 640 645 651
f 618 651 645
f 644 652 655
f 652 658 655
f 654 655 658
f 635 653 654
f 653 655 654
f 646 655 653
f 656 658 657
f 656 657 720
f 652 657 658
f 622 654 658
f 622 658 656
f 586 652 644
f 618 653 635
f 695 709 707
f 659 663 660
f 660 665 661
f 660 663 665
f 661 665 662
f 662 666 670
f 662 665 666
f 663 664 665
f 664 676 665
f 665 676 666
f 666 676 677
f 667 668 696
f 667 671 668
f 668 679 698
f 668 672 683
f 668 683 679
f 666 669 670
f 669 672 671
f 666 672 669
f 668 671 672
f 672 677 683
f 666 677 672
f 674 681 678
f 673 674 678
f 541 675 676
f 541 676 664
f 675 677 676
f 675 678 677
f 541 543 675
f 543 673 675
f 673 678 675
f 678 681 683
f 679 683 681
f 682 695 693
f 679 682 693
f 679 681 682
f 680 709 682
f 680 682 681
f 674 680 681
f 682 709 695
f 677 678 683
f 684 685 689
f 591 685 690
f 684 688 685
f 687 697 698
f 684 686 688
f 686 687 688
f 687 698 688
f 688 698 693
f 685 688 692
f 590 689 591
f 591 689 685
f 591 690 595
f 595 690 691
f 685 692 690
f 691 721 720
f 691 694 721
f 592 691 720
f 690 694 691
f 692 695 694
f 688 693 692
f 692 693 695
f 690 692 694
f 694 707 721
f 694 695 707
f 696 698 697
f 668 698 696
f 679 693 698
f 710 714 712
f 701 705 719
f 561 715 699
f 701 715 716
f 699 701 719
f 699 715 701
f 700 716 714
f 700 701 716
f 700 714 710
f 700 705 701
f 702 721 708
f 703 717 704
f 703 708 710
f 703 710 712
f 702 703 704
f 656 702 704
f 702 708 703
f 705 706 709
f 707 708 721
f 706 708 707
f 706 707 709
f 700 710 706
f 706 710 708
f 700 706 705
f 509 711 567
f 631 713 711
f 711 713 714
f 567 711 716
f 567 716 715
f 711 714 716
f 712 714 713
f 628 717 712
f 628 712 713
f 703 712 717
f 699 719 718
f 572 718 673
f 543 572 673
f 673 718 674
f 680 719 705
f 674 719 680
f 674 718 719
f 562 699 718
f 680 705 709
f 656 720 702
f 702 720 721
