# wrist.obj  (96 v, 188 f)  units: metres
v -0.032800600 -0.018262843 -0.116499998
v -0.027262842 -0.023800600 -0.116499998
v -0.030213203 -0.021213204 -0.116499998
v -0.036716387 -0.011480503 -0.116499998
v -0.037977774 -0.007764571 -0.116499998
v -0.034980763 -0.015000000 -0.116499998
v -0.038743347 -0.003915786 -0.116499998
v -0.020480502 -0.027716385 -0.116499998
v -0.024000000 -0.025980761 -0.116499998
v -0.016764572 -0.028977774 -0.116499998
v -0.012915785 -0.029743345 -0.116499998
v -0.032800600 -0.018262843 -0.094499998
v -0.027262842 -0.023800600 -0.094499998
v -0.030213203 -0.021213204 -0.094499998
v -0.036716387 -0.011480503 -0.094499998
v -0.037977774 -0.007764571 -0.094499998
v -0.034980763 -0.015000000 -0.094499998
v -0.038743347 -0.003915786 -0.094499998
v -0.020480502 -0.027716385 -0.094499998
v -0.024000000 -0.025980761 -0.094499998
v -0.016764572 -0.028977774 -0.094499998
v -0.012915785 -0.029743345 -0.094499998
v -0.039000001 0.000000000 -0.116499998
v -0.038743347 0.003915786 -0.116499998
v -0.037977774 0.007764571 -0.116499998
v -0.036716387 0.011480503 -0.116499998
v -0.034980763 0.015000000 -0.116499998
v -0.032800600 0.018262843 -0.116499998
v -0.030213203 0.021213204 -0.116499998
v -0.027262842 0.023800600 -0.116499998
v -0.024000000 0.025980761 -0.116499998
v -0.020480502 0.027716385 -0.116499998
v -0.016764572 0.028977774 -0.116499998
v -0.012915785 0.029743345 -0.116499998
v -0.039000001 0.000000000 -0.094499998
v -0.038743347 0.003915786 -0.094499998
v -0.037977774 0.007764571 -0.094499998
v -0.036716387 0.011480503 -0.094499998
v -0.034980763 0.015000000 -0.094499998
v -0.032800600 0.018262843 -0.094499998
v -0.030213203 0.021213204 -0.094499998
v -0.027262842 0.023800600 -0.094499998
v -0.024000000 0.025980761 -0.094499998
v -0.020480502 0.027716385 -0.094499998
v -0.016764572 0.028977774 -0.094499998
v -0.012915785 0.029743345 -0.094499998
v -0.009000000 -0.029999999 -0.116499998
v -0.005084214 -0.029743345 -0.116499998
v -0.001235429 -0.028977774 -0.116499998
v 0.002480503 -0.027716385 -0.116499998
v 0.006000000 -0.025980761 -0.116499998
v 0.009262843 -0.023800600 -0.116499998
v 0.012213203 -0.021213204 -0.116499998
v 0.014800600 -0.018262843 -0.116499998
v 0.016980762 -0.015000000 -0.116499998
v 0.018716386 -0.011480503 -0.116499998
v 0.019977774 -0.007764571 -0.116499998
v 0.020743346 -0.003915786 -0.116499998
v -0.009000000 -0.029999999 -0.094499998
v -0.005084214 -0.029743345 -0.094499998
v -0.001235429 -0.028977774 -0.094499998
v 0.002480503 -0.027716385 -0.094499998
v 0.006000000 -0.025980761 -0.094499998
v 0.009262843 -0.023800600 -0.094499998
v 0.012213203 -0.021213204 -0.094499998
v 0.014800600 -0.018262843 -0.094499998
v 0.016980762 -0.015000000 -0.094499998
v 0.018716386 -0.011480503 -0.094499998
v 0.019977774 -0.007764571 -0.094499998
v 0.020743346 -0.003915786 -0.094499998
v -0.009000000 0.029999999 -0.116499998
v -0.005084214 0.029743345 -0.116499998
v -0.001235429 0.028977774 -0.116499998
v 0.002480503 0.027716385 -0.116499998
v 0.021000000 0.000000000 -0.116499998
v 0.020743346 0.003915786 -0.116499998
v 0.019977774 0.007764571 -0.116499998
v 0.018716386 0.011480503 -0.116499998
v 0.012213203 0.021213204 -0.116499998
v 0.006000000 0.025980761 -0.116499998
v 0.009262843 0.023800600 -0.116499998
v 0.014800600 0.018262843 -0.116499998
v 0.016980762 0.015000000 -0.116499998
v -0.009000000 0.029999999 -0.094499998
v -0.005084214 0.029743345 -0.094499998
v -0.001235429 0.028977774 -0.094499998
v 0.002480503 0.027716385 -0.094499998
v 0.021000000 0.000000000 -0.094499998
v 0.020743346 0.003915786 -0.094499998
v 0.019977774 0.007764571 -0.094499998
v 0.018716386 0.011480503 -0.094499998
v 0.012213203 0.021213204 -0.094499998
v 0.006000000 0.025980761 -0.094499998
v 0.009262843 0.023800600 -0.094499998
v 0.014800600 0.018262843 -0.094499998
v 0.016980762 0.015000000 -0.094499998
f 12 1 3
f 17 6 1
f 13 2 9
f 14 3 2
f 27 6 4
f 26 4 5
f 25 5 7
f 28 1 6
f 31 9 2
f 29 3 1
f 30 2 3
f 15 4 6
f 16 5 4
f 18 7 5
f 35 23 7
f 20 9 8
f 19 8 10
f 21 10 11
f 22 11 47
f 32 8 9
f 33 10 8
f 34 11 10
f 71 47 11
f 12 17 1
f 13 14 2
f 20 13 9
f 14 12 3
f 17 15 6
f 15 16 4
f 16 18 5
f 18 35 7
f 39 15 17
f 38 16 15
f 37 18 16
f 40 17 12
f 43 13 20
f 41 12 14
f 42 14 13
f 19 20 8
f 21 19 10
f 22 21 11
f 59 22 47
f 44 20 19
f 45 19 21
f 46 21 22
f 84 22 59
f 24 7 23
f 25 7 24
f 26 5 25
f 27 4 26
f 28 6 27
f 29 1 28
f 30 3 29
f 31 2 30
f 36 24 23
f 37 25 24
f 38 26 25
f 39 27 26
f 40 28 27
f 41 29 28
f 42 30 29
f 43 31 30
f 32 9 31
f 33 8 32
f 34 10 33
f 71 11 34
f 44 32 31
f 45 33 32
f 46 34 33
f 84 71 34
f 35 36 23
f 36 37 24
f 37 38 25
f 38 39 26
f 36 35 18
f 37 36 18
f 38 37 16
f 39 38 15
f 40 39 17
f 41 40 12
f 42 41 14
f 43 42 13
f 39 40 27
f 40 41 28
f 41 42 29
f 42 43 30
f 44 43 20
f 45 44 19
f 46 45 21
f 84 46 22
f 43 44 31
f 44 45 32
f 45 46 33
f 46 84 34
f 59 47 48
f 60 48 49
f 61 49 50
f 62 50 51
f 72 48 47
f 73 49 48
f 74 50 49
f 80 51 50
f 63 51 52
f 64 52 53
f 65 53 54
f 66 54 55
f 81 52 51
f 79 53 52
f 82 54 53
f 83 55 54
f 78 56 55
f 77 57 56
f 76 58 57
f 67 55 56
f 68 56 57
f 69 57 58
f 70 58 75
f 60 59 48
f 61 60 49
f 62 61 50
f 63 62 51
f 85 59 60
f 86 60 61
f 87 61 62
f 93 62 63
f 64 63 52
f 65 64 53
f 66 65 54
f 67 66 55
f 68 67 56
f 69 68 57
f 70 69 58
f 88 70 75
f 94 63 64
f 92 64 65
f 95 65 66
f 96 66 67
f 91 67 68
f 90 68 69
f 89 69 70
f 72 47 71
f 73 48 72
f 74 49 73
f 80 50 74
f 85 72 71
f 86 73 72
f 87 74 73
f 93 80 74
f 79 52 81
f 82 53 79
f 81 51 80
f 83 54 82
f 75 58 76
f 76 57 77
f 77 56 78
f 78 55 83
f 88 75 76
f 89 76 77
f 90 77 78
f 91 78 83
f 92 79 81
f 94 81 80
f 96 83 82
f 95 82 79
f 85 84 59
f 86 85 60
f 87 86 61
f 93 87 62
f 84 85 71
f 85 86 72
f 86 87 73
f 87 93 74
f 89 88 76
f 90 89 77
f 91 90 78
f 96 91 83
f 92 94 64
f 95 92 65
f 94 93 63
f 96 95 66
f 88 89 70
f 89 90 69
f 90 91 68
f 91 96 67
f 92 95 79
f 93 94 80
f 94 92 81
f 95 96 82
