# sdm_hand.obj  (168 v, 332 f)  units: metres
v -0.059999999 -0.050000001 0.000000000
v -0.059999999 -0.050000001 0.020000000
v -0.052499998 -0.033000000 0.020000000
v -0.059999999 -0.035000000 0.028000001
v -0.052499998 -0.033000000 0.028000001
v -0.047499999 -0.033000000 0.020000000
v -0.047499999 -0.033000000 0.028000001
v -0.039999999 -0.035000000 0.028000001
v -0.052499998 -0.017000001 0.020000000
v -0.059999999 -0.015000000 0.028000001
v -0.052499998 -0.017000001 0.028000001
v -0.047499999 -0.017000001 0.020000000
v -0.047499999 -0.017000001 0.028000001
v -0.039999999 -0.015000000 0.028000001
v -0.059999999 -0.035000000 0.090000004
v -0.059999999 -0.035000000 0.097999997
v -0.053500000 -0.033000000 0.090000004
v -0.053500000 -0.033000000 0.097999997
v -0.046500001 -0.033000000 0.090000004
v -0.046500001 -0.033000000 0.097999997
v -0.039999999 -0.035000000 0.090000004
v -0.039999999 -0.035000000 0.097999997
v -0.039999999 -0.034000002 0.104999997
v -0.035500001 -0.034000002 0.104999997
v -0.059999999 -0.035000000 0.143000007
v -0.039999999 -0.035000000 0.143000007
v -0.039999999 -0.034000002 0.140000001
v -0.035500001 -0.034000002 0.140000001
v -0.059999999 -0.015000000 0.090000004
v -0.059999999 -0.015000000 0.097999997
v -0.053500000 -0.017000001 0.090000004
v -0.053500000 -0.017000001 0.097999997
v -0.046500001 -0.017000001 0.090000004
v -0.046500001 -0.017000001 0.097999997
v -0.039999999 -0.015000000 0.090000004
v -0.039999999 -0.015000000 0.097999997
v -0.039999999 -0.016000001 0.104999997
v -0.035500001 -0.016000001 0.104999997
v -0.059999999 -0.015000000 0.143000007
v -0.039999999 -0.016000001 0.140000001
v -0.039999999 -0.015000000 0.143000007
v -0.035500001 -0.016000001 0.140000001
v -0.052499998 0.017000001 0.020000000
v -0.059999999 0.015000000 0.028000001
v -0.052499998 0.017000001 0.028000001
v -0.047499999 0.017000001 0.020000000
v -0.047499999 0.017000001 0.028000001
v -0.039999999 0.015000000 0.028000001
v -0.052499998 0.033000000 0.020000000
v -0.059999999 0.035000000 0.028000001
v -0.052499998 0.033000000 0.028000001
v -0.047499999 0.033000000 0.020000000
v -0.047499999 0.033000000 0.028000001
v -0.059999999 0.050000001 0.000000000
v -0.059999999 0.050000001 0.020000000
v -0.039999999 0.035000000 0.028000001
v -0.059999999 0.015000000 0.090000004
v -0.059999999 0.015000000 0.097999997
v -0.053500000 0.017000001 0.090000004
v -0.053500000 0.017000001 0.097999997
v -0.046500001 0.017000001 0.090000004
v -0.046500001 0.017000001 0.097999997
v -0.039999999 0.015000000 0.090000004
v -0.039999999 0.015000000 0.097999997
v -0.039999999 0.016000001 0.104999997
v -0.035500001 0.016000001 0.104999997
v -0.059999999 0.015000000 0.143000007
v -0.039999999 0.015000000 0.143000007
v -0.039999999 0.016000001 0.140000001
v -0.035500001 0.016000001 0.140000001
v -0.059999999 0.035000000 0.090000004
v -0.059999999 0.035000000 0.097999997
v -0.053500000 0.033000000 0.090000004
v -0.053500000 0.033000000 0.097999997
v -0.046500001 0.033000000 0.090000004
v -0.046500001 0.033000000 0.097999997
v -0.039999999 0.035000000 0.090000004
v -0.039999999 0.035000000 0.097999997
v -0.039999999 0.034000002 0.104999997
v -0.035500001 0.034000002 0.104999997
v -0.059999999 0.035000000 0.143000007
v -0.039999999 0.034000002 0.140000001
v -0.039999999 0.035000000 0.143000007
v -0.035500001 0.034000002 0.140000001
v 0.039999999 -0.035000000 0.028000001
v 0.059999999 -0.050000001 0.000000000
v 0.059999999 -0.050000001 0.020000000
v 0.047499999 -0.033000000 0.020000000
v 0.047499999 -0.033000000 0.028000001
v 0.052499998 -0.033000000 0.020000000
v 0.052499998 -0.033000000 0.028000001
v 0.059999999 -0.035000000 0.028000001
v 0.039999999 -0.015000000 0.028000001
v 0.047499999 -0.017000001 0.020000000
v 0.047499999 -0.017000001 0.028000001
v 0.052499998 -0.017000001 0.020000000
v 0.052499998 -0.017000001 0.028000001
v 0.059999999 -0.015000000 0.028000001
v 0.035500001 -0.034000002 0.104999997
v 0.039999999 -0.035000000 0.090000004
v 0.039999999 -0.035000000 0.097999997
v 0.039999999 -0.034000002 0.104999997
v 0.046500001 -0.033000000 0.090000004
v 0.046500001 -0.033000000 0.097999997
v 0.053500000 -0.033000000 0.090000004
v 0.053500000 -0.033000000 0.097999997
v 0.059999999 -0.035000000 0.090000004
v 0.059999999 -0.035000000 0.097999997
v 0.035500001 -0.034000002 0.140000001
v 0.039999999 -0.035000000 0.143000007
v 0.039999999 -0.034000002 0.140000001
v 0.059999999 -0.035000000 0.143000007
v 0.035500001 -0.016000001 0.104999997
v 0.039999999 -0.015000000 0.090000004
v 0.039999999 -0.015000000 0.097999997
v 0.039999999 -0.016000001 0.104999997
v 0.046500001 -0.017000001 0.090000004
v 0.046500001 -0.017000001 0.097999997
v 0.053500000 -0.017000001 0.090000004
v 0.053500000 -0.017000001 0.097999997
v 0.059999999 -0.015000000 0.090000004
v 0.059999999 -0.015000000 0.097999997
v 0.035500001 -0.016000001 0.140000001
v 0.039999999 -0.016000001 0.140000001
v 0.039999999 -0.015000000 0.143000007
v 0.059999999 -0.015000000 0.143000007
v 0.039999999 0.015000000 0.028000001
v 0.047499999 0.017000001 0.020000000
v 0.047499999 0.017000001 0.028000001
v 0.052499998 0.017000001 0.020000000
v 0.052499998 0.017000001 0.028000001
v 0.059999999 0.015000000 0.028000001
v 0.039999999 0.035000000 0.028000001
v 0.047499999 0.033000000 0.020000000
v 0.047499999 0.033000000 0.028000001
v 0.052499998 0.033000000 0.020000000
v 0.052499998 0.033000000 0.028000001
v 0.059999999 0.035000000 0.028000001
v 0.059999999 0.050000001 0.000000000
v 0.059999999 0.050000001 0.020000000
v 0.035500001 0.016000001 0.104999997
v 0.039999999 0.015000000 0.090000004
v 0.039999999 0.015000000 0.097999997
v 0.039999999 0.016000001 0.104999997
v 0.046500001 0.017000001 0.090000004
v 0.046500001 0.017000001 0.097999997
v 0.053500000 0.017000001 0.090000004
v 0.053500000 0.017000001 0.097999997
v 0.059999999 0.015000000 0.090000004
v 0.059999999 0.015000000 0.097999997
v 0.035500001 0.016000001 0.140000001
v 0.039999999 0.015000000 0.143000007
v 0.039999999 0.016000001 0.140000001
v 0.059999999 0.015000000 0.143000007
v 0.035500001 0.034000002 0.104999997
v 0.039999999 0.035000000 0.090000004
v 0.039999999 0.035000000 0.097999997
v 0.039999999 0.034000002 0.104999997
v 0.046500001 0.033000000 0.090000004
v 0.046500001 0.033000000 0.097999997
v 0.053500000 0.033000000 0.090000004
v 0.053500000 0.033000000 0.097999997
v 0.059999999 0.035000000 0.090000004
v 0.059999999 0.035000000 0.097999997
v 0.035500001 0.034000002 0.140000001
v 0.039999999 0.034000002 0.140000001
v 0.039999999 0.035000000 0.143000007
v 0.059999999 0.035000000 0.143000007
f 2 6 3
f 2 3 9
f 1 2 55
f 2 9 43
f 9 12 43
f 1 86 2
f 2 87 6
f 87 12 6
f 1 54 86
f 87 46 12
f 2 43 55
f 12 46 43
f 1 55 54
f 55 43 49
f 55 49 52
f 55 52 87
f 87 52 46
f 54 55 140
f 2 86 87
f 55 87 88
f 87 90 88
f 87 96 90
f 86 139 87
f 94 96 128
f 87 140 96
f 55 88 94
f 55 94 128
f 54 139 86
f 55 128 134
f 55 134 136
f 54 140 139
f 55 136 140
f 96 130 128
f 87 139 140
f 140 130 96
f 140 136 130
f 4 5 7
f 4 10 5
f 4 7 8
f 8 7 13
f 4 8 15
f 4 15 29
f 8 21 15
f 8 14 21
f 10 11 5
f 10 14 11
f 14 13 11
f 8 13 14
f 4 29 10
f 10 35 14
f 10 29 35
f 14 35 21
f 15 17 31
f 15 21 17
f 21 19 17
f 21 35 19
f 15 31 29
f 29 31 33
f 29 33 35
f 35 33 19
f 16 18 20
f 16 30 18
f 16 20 22
f 22 20 34
f 22 36 23
f 16 22 25
f 16 25 39
f 25 26 39
f 22 26 25
f 22 23 27
f 22 27 26
f 26 27 40
f 30 32 18
f 30 36 32
f 36 34 32
f 22 34 36
f 36 37 23
f 16 39 30
f 30 41 36
f 30 39 41
f 26 41 39
f 36 41 37
f 26 40 41
f 41 40 37
f 5 9 3
f 7 5 3
f 3 6 7
f 7 6 13
f 5 11 9
f 6 12 13
f 11 12 9
f 13 12 11
f 17 18 31
f 17 19 20
f 20 18 17
f 19 34 20
f 18 32 31
f 19 33 34
f 33 31 32
f 33 32 34
f 24 23 38
f 24 27 23
f 24 38 28
f 28 40 27
f 24 28 27
f 38 23 37
f 38 37 42
f 42 37 40
f 28 38 42
f 28 42 40
f 44 45 47
f 44 50 45
f 44 47 48
f 48 47 53
f 44 48 57
f 44 57 71
f 48 63 57
f 48 56 63
f 50 51 45
f 50 56 51
f 56 53 51
f 48 53 56
f 44 71 50
f 50 77 56
f 50 71 77
f 56 77 63
f 57 59 73
f 57 63 59
f 63 61 59
f 63 77 61
f 57 73 71
f 71 73 75
f 71 75 77
f 77 75 61
f 58 60 62
f 58 72 60
f 58 62 64
f 64 62 76
f 64 78 65
f 58 64 67
f 58 67 81
f 67 68 81
f 64 68 67
f 64 65 69
f 64 69 68
f 68 69 82
f 72 74 60
f 72 78 74
f 78 76 74
f 64 76 78
f 78 79 65
f 58 81 72
f 72 83 78
f 72 81 83
f 68 83 81
f 78 83 79
f 68 82 83
f 83 82 79
f 43 45 49
f 47 45 43
f 43 46 47
f 46 53 47
f 45 51 49
f 46 52 53
f 49 51 52
f 52 51 53
f 59 60 73
f 59 61 62
f 62 60 59
f 61 76 62
f 60 74 73
f 61 75 76
f 75 73 74
f 74 76 75
f 66 65 80
f 66 69 65
f 66 80 70
f 70 82 69
f 66 70 69
f 80 65 79
f 80 79 84
f 84 79 82
f 70 80 84
f 70 84 82
f 85 93 89
f 85 89 91
f 85 91 92
f 92 91 97
f 85 100 114
f 85 92 100
f 92 98 107
f 92 107 100
f 93 95 89
f 93 98 95
f 92 97 98
f 98 97 95
f 85 114 93
f 93 121 98
f 93 114 121
f 98 121 107
f 100 103 117
f 100 107 103
f 107 105 103
f 107 121 105
f 100 117 114
f 114 117 119
f 114 119 121
f 121 119 105
f 101 115 104
f 101 102 116
f 101 104 106
f 101 106 108
f 108 106 120
f 101 110 102
f 110 111 102
f 110 125 111
f 101 108 110
f 108 122 112
f 110 112 125
f 108 112 110
f 115 118 104
f 101 116 115
f 115 122 118
f 108 120 122
f 122 120 118
f 115 116 124
f 125 124 111
f 115 124 125
f 115 126 122
f 115 125 126
f 112 122 126
f 112 126 125
f 91 89 88
f 88 90 91
f 89 94 88
f 91 90 97
f 89 95 94
f 95 96 94
f 97 96 95
f 90 96 97
f 103 105 106
f 106 104 103
f 103 104 117
f 105 120 106
f 104 118 117
f 119 117 118
f 119 118 120
f 105 119 120
f 99 116 102
f 99 102 109
f 99 109 123
f 109 111 123
f 109 102 111
f 99 113 116
f 99 123 113
f 113 124 116
f 113 123 124
f 123 111 124
f 127 133 129
f 127 129 131
f 127 131 132
f 132 131 137
f 127 142 156
f 127 132 142
f 132 138 149
f 132 149 142
f 133 135 129
f 133 138 135
f 132 137 138
f 138 137 135
f 127 156 133
f 133 163 138
f 133 156 163
f 138 163 149
f 142 145 159
f 142 149 145
f 149 147 145
f 149 163 147
f 142 159 156
f 156 159 161
f 156 161 163
f 163 161 147
f 143 157 146
f 143 144 158
f 143 146 148
f 143 148 150
f 150 148 162
f 143 152 144
f 152 153 144
f 152 167 153
f 143 150 152
f 150 164 154
f 152 154 167
f 150 154 152
f 157 160 146
f 143 158 157
f 157 164 160
f 150 162 164
f 164 162 160
f 157 158 166
f 167 166 153
f 157 166 167
f 157 168 164
f 157 167 168
f 154 164 168
f 154 168 167
f 131 129 128
f 128 130 131
f 128 129 134
f 130 137 131
f 129 135 134
f 134 135 136
f 136 135 137
f 130 136 137
f 145 147 148
f 148 146 145
f 145 146 159
f 147 162 148
f 146 160 159
f 161 159 160
f 160 162 161
f 147 161 162
f 141 158 144
f 141 144 151
f 141 151 165
f 151 153 165
f 151 144 153
f 141 155 158
f 141 165 155
f 155 166 158
f 155 165 166
f 165 153 166
