# sdm_hand_nopads.obj  (360 v, 716 f)  units: metres
v -0.131037846 -0.029360797 0.084297284
v -0.140955403 -0.019426635 0.076619104
v -0.113279238 -0.023149140 0.069396041
v -0.108970232 -0.021966197 0.065360807
v -0.118887790 -0.012032035 0.057682626
v -0.118234552 -0.010182180 0.059232246
v -0.120194815 -0.014218635 0.064877100
v -0.123196796 -0.013214978 0.061717860
v -0.122674204 -0.011735094 0.062957555
v -0.123044178 -0.011864504 0.063267998
v -0.117864579 -0.010052770 0.058921803
v -0.135990813 -0.005367735 0.088396206
v -0.120854475 -0.006581926 0.067274347
v -0.121084467 -0.006314937 0.067916855
v -0.115755163 -0.012665721 0.061151791
v -0.096689522 -0.004267463 0.039056070
v -0.108314641 -0.009090240 0.081173144
v -0.103744335 -0.007167355 0.077757753
v -0.063616410 -0.007399301 0.025626233
v -0.059176758 -0.005846387 0.021900922
v -0.082854904 -0.014128596 0.041769248
v -0.086771965 -0.014201626 0.046734251
v -0.093687549 -0.005271120 0.042215310
v -0.092772461 -0.004194433 0.034091067
v -0.089247897 -0.003718206 0.038490001
v -0.126073241 -0.015301897 0.096074387
v -0.118754782 -0.000635962 0.072255269
v -0.118232198 0.000843922 0.073494963
v -0.096536905 -0.002916989 0.040606208
v -0.096166939 -0.002787579 0.040295765
v -0.111835741 -0.001566589 0.070449501
v -0.116275392 -0.003119503 0.074174814
v -0.114315130 0.000916952 0.068529956
v -0.113945164 0.001046362 0.068219513
v -0.113661893 0.002766807 0.070079572
v -0.073533967 0.002534862 0.017948052
v -0.073381349 0.003885336 0.019498190
v -0.073011376 0.004014746 0.019187747
v -0.070531987 0.001531205 0.021107292
v -0.069094315 0.004087776 0.014222741
v -0.068354376 0.004346595 0.013601856
v -0.066092335 0.003084119 0.017381981
v -0.068571724 0.005567660 0.015462436
v -0.091727287 -0.001234665 0.036570456
v -0.091357313 -0.001105256 0.036260013
v -0.091428660 -0.000389017 0.037278853
v -0.081546076 0.000597216 0.059131201
v -0.089506835 0.006567954 0.052132871
v -0.092356190 0.008922085 0.050523765
v -0.091986224 0.009051494 0.050213326
v -0.085067183 0.008120868 0.048407558
v -0.076583833 0.003630015 0.056645583
v -0.063345835 0.020366503 0.027859384
v -0.062823243 0.021846386 0.029099079
v -0.062083300 0.022105206 0.028478192
v -0.091463633 0.010531379 0.051453020
v -0.087546572 0.010604409 0.046488013
v -0.086501390 0.013564177 0.048967402
v -0.057345338 0.010359310 0.040502571
v -0.068155453 0.018684179 0.031895138
v -0.067785487 0.018813588 0.031584695
v -0.065306097 0.016330047 0.033504240
v -0.060866442 0.017882962 0.029778929
v -0.067262895 0.020293472 0.032824390
v -0.059628095 0.022090085 0.033008493
v -0.025000000 0.002000000 -0.029999999
v -0.045000002 0.000000000 0.000000000
v -0.033000000 0.000000000 0.000000000
v -0.025000000 0.002000000 0.000000000
v -0.045000002 0.000000000 0.041233219
v -0.033000000 0.000000000 0.055534262
v -0.025000000 0.020000000 -0.029999999
v -0.045000002 0.022000000 0.000000000
v -0.033000000 0.022000000 0.000000000
v -0.025000000 0.020000000 0.000000000
v -0.045000002 0.022000000 0.050404027
v -0.036948022 0.022000000 0.059999999
v -0.033000000 0.022000000 0.059999999
v 0.025000000 0.002000000 -0.029999999
v 0.025000000 0.002000000 0.000000000
v 0.045000002 0.000000000 0.000000000
v 0.025000000 0.020000000 -0.029999999
v 0.025000000 0.020000000 0.000000000
v 0.045000002 0.022000000 0.000000000
v -0.045000002 0.000000000 0.094999999
v -0.041499998 0.002500000 0.101000004
v -0.041499998 0.002500000 0.141000003
v -0.041499998 0.002500000 0.147000000
v -0.022500001 0.002500000 0.101000004
v -0.020500001 0.002500000 0.101000004
v -0.022500001 0.002500000 0.141000003
v -0.022500001 0.002500000 0.147000000
v -0.020500001 0.002500000 0.145999998
v -0.041499998 0.002500000 0.172000006
v -0.041499998 0.002500000 0.178000003
v -0.041499998 0.002500000 0.197999999
v -0.020500001 0.002500000 0.151999995
v -0.022500001 0.002500000 0.172000006
v -0.022500001 0.002500000 0.178000003
v -0.020500001 0.002500000 0.180000007
v -0.020500001 0.002500000 0.186000004
v -0.022500001 0.002500000 0.197999999
v -0.020500001 0.002500000 0.208000004
v -0.039500002 0.016000001 0.094999999
v -0.039500002 0.016000001 0.101000004
v -0.045000002 0.022000000 0.094999999
v -0.041499998 0.019500000 0.101000004
v -0.039500002 0.019500000 0.101000004
v -0.039500002 0.019500000 0.101499997
v -0.039500002 0.021000000 0.094999999
v -0.039500002 0.021000000 0.101499997
v -0.039500002 0.016000001 0.141000003
v -0.039500002 0.016000001 0.147000000
v -0.041499998 0.019500000 0.141000003
v -0.039500002 0.019500000 0.140499994
v -0.039500002 0.019500000 0.141000003
v -0.041499998 0.019500000 0.147000000
v -0.039500002 0.019500000 0.147000000
v -0.039500002 0.019500000 0.147499993
v -0.039500002 0.021000000 0.140499994
v -0.039500002 0.021000000 0.147499993
v -0.024499999 0.016000001 0.094999999
v -0.024499999 0.016000001 0.101000004
v -0.018500000 0.016000001 0.094999999
v -0.018500000 0.016000001 0.101000004
v -0.024499999 0.019500000 0.101000004
v -0.024499999 0.019500000 0.101499997
v -0.022500001 0.019500000 0.101000004
v -0.020500001 0.019500000 0.101000004
v -0.024499999 0.021000000 0.094999999
v -0.024499999 0.021000000 0.101499997
v -0.018500000 0.019500000 0.101000004
v -0.018500000 0.019500000 0.101499997
v -0.018500000 0.021000000 0.094999999
v -0.018500000 0.021000000 0.101499997
v -0.002500000 0.016000001 0.094999999
v -0.002500000 0.016000001 0.101000004
v -0.002500000 0.019500000 0.101000004
v -0.002500000 0.019500000 0.101499997
v -0.002500000 0.021000000 0.094999999
v -0.002500000 0.021000000 0.101499997
v -0.024499999 0.016000001 0.141000003
v -0.024499999 0.016000001 0.147000000
v -0.018500000 0.016000001 0.145999998
v -0.024499999 0.019500000 0.140499994
v -0.024499999 0.019500000 0.141000003
v -0.022500001 0.019500000 0.141000003
v -0.024499999 0.019500000 0.147000000
v -0.024499999 0.019500000 0.147499993
v -0.022500001 0.019500000 0.147000000
v -0.020500001 0.019500000 0.145999998
v -0.024499999 0.021000000 0.140499994
v -0.024499999 0.021000000 0.147499993
v -0.018500000 0.019500000 0.145500004
v -0.018500000 0.019500000 0.145999998
v -0.018500000 0.021000000 0.145500004
v -0.002500000 0.016000001 0.145999998
v -0.002500000 0.019500000 0.145500004
v -0.002500000 0.019500000 0.145999998
v -0.002500000 0.021000000 0.145500004
v -0.039500002 0.016000001 0.172000006
v -0.039500002 0.016000001 0.178000003
v -0.041499998 0.019500000 0.172000006
v -0.039500002 0.019500000 0.171499997
v -0.039500002 0.019500000 0.172000006
v -0.041499998 0.019500000 0.178000003
v -0.039500002 0.019500000 0.178000003
v -0.039500002 0.021000000 0.171499997
v -0.039500002 0.019500000 0.178499997
v -0.039500002 0.021000000 0.178499997
v -0.041499998 0.019500000 0.197999999
v -0.018500000 0.016000001 0.151999995
v -0.024499999 0.016000001 0.172000006
v -0.024499999 0.016000001 0.178000003
v -0.020500001 0.019500000 0.151999995
v -0.018500000 0.019500000 0.151999995
v -0.018500000 0.019500000 0.152500004
v -0.018500000 0.021000000 0.152500004
v -0.024499999 0.019500000 0.171499997
v -0.024499999 0.019500000 0.172000006
v -0.022500001 0.019500000 0.172000006
v -0.024499999 0.019500000 0.178000003
v -0.022500001 0.019500000 0.178000003
v -0.024499999 0.021000000 0.171499997
v -0.002500000 0.016000001 0.151999995
v -0.002500000 0.019500000 0.151999995
v -0.002500000 0.019500000 0.152500004
v -0.002500000 0.021000000 0.152500004
v -0.018500000 0.016000001 0.180000007
v -0.018500000 0.016000001 0.186000004
v -0.024499999 0.019500000 0.178499997
v -0.020500001 0.019500000 0.180000007
v -0.020500001 0.019500000 0.186000004
v -0.024499999 0.021000000 0.178499997
v -0.018500000 0.019500000 0.179499999
v -0.018500000 0.019500000 0.180000007
v -0.018500000 0.019500000 0.186000004
v -0.018500000 0.019500000 0.186499998
v -0.018500000 0.021000000 0.179499999
v -0.018500000 0.021000000 0.186499998
v -0.022500001 0.019500000 0.197999999
v -0.020500001 0.019500000 0.208000004
v -0.002500000 0.016000001 0.180000007
v -0.002500000 0.016000001 0.186000004
v -0.002500000 0.019500000 0.179499999
v -0.002500000 0.019500000 0.180000007
v -0.002500000 0.019500000 0.186000004
v -0.002500000 0.019500000 0.186499998
v -0.002500000 0.021000000 0.179499999
v -0.002500000 0.021000000 0.186499998
v -0.000500000 0.002500000 0.101000004
v 0.001500000 0.002500000 0.101000004
v 0.020500001 0.002500000 0.101000004
v -0.000500000 0.002500000 0.145999998
v 0.001500000 0.002500000 0.143000007
v 0.020500001 0.002500000 0.143000007
v 0.023000000 0.002500000 0.101000004
v 0.039000001 0.002500000 0.101000004
v 0.045000002 0.000000000 0.094999999
v 0.023000000 0.002500000 0.133000001
v 0.023000000 0.002500000 0.138999999
v 0.039000001 0.002500000 0.133000001
v 0.039000001 0.002500000 0.138999999
v -0.000500000 0.002500000 0.151999995
v 0.001500000 0.002500000 0.149000004
v 0.001500000 0.002500000 0.174999997
v 0.020500001 0.002500000 0.149000004
v 0.020500001 0.002500000 0.174999997
v -0.000500000 0.002500000 0.180000007
v 0.001500000 0.002500000 0.180999994
v -0.000500000 0.002500000 0.186000004
v -0.000500000 0.002500000 0.208000004
v 0.001500000 0.002500000 0.202000007
v 0.020500001 0.002500000 0.180999994
v 0.020500001 0.002500000 0.202000007
v 0.023000000 0.002500000 0.158999994
v 0.023000000 0.002500000 0.165000007
v 0.039000001 0.002500000 0.158999994
v 0.039000001 0.002500000 0.165000007
v 0.023000000 0.002500000 0.182999998
v 0.039000001 0.002500000 0.182999998
v 0.003500000 0.016000001 0.094999999
v 0.003500000 0.016000001 0.101000004
v -0.000500000 0.019500000 0.101000004
v 0.001500000 0.019500000 0.101000004
v 0.003500000 0.019500000 0.101000004
v 0.003500000 0.019500000 0.101499997
v 0.003500000 0.021000000 0.094999999
v 0.003500000 0.021000000 0.101499997
v 0.018500000 0.016000001 0.094999999
v 0.018500000 0.016000001 0.101000004
v 0.018500000 0.019500000 0.101000004
v 0.018500000 0.019500000 0.101499997
v 0.020500001 0.019500000 0.101000004
v 0.018500000 0.021000000 0.094999999
v 0.018500000 0.021000000 0.101499997
v 0.003500000 0.016000001 0.143000007
v -0.000500000 0.019500000 0.145999998
v 0.001500000 0.019500000 0.143000007
v 0.003500000 0.019500000 0.142499998
v 0.003500000 0.019500000 0.143000007
v 0.003500000 0.021000000 0.142499998
v 0.018500000 0.016000001 0.143000007
v 0.018500000 0.019500000 0.142499998
v 0.018500000 0.019500000 0.143000007
v 0.020500001 0.019500000 0.143000007
v 0.018500000 0.021000000 0.142499998
v 0.025000000 0.016000001 0.094999999
v 0.025000000 0.016000001 0.101000004
v 0.023000000 0.019500000 0.101000004
v 0.025000000 0.019500000 0.101000004
v 0.025000000 0.019500000 0.101499997
v 0.025000000 0.021000000 0.094999999
v 0.025000000 0.021000000 0.101499997
v 0.037000000 0.016000001 0.094999999
v 0.037000000 0.016000001 0.101000004
v 0.037000000 0.019500000 0.101000004
v 0.037000000 0.019500000 0.101499997
v 0.039000001 0.019500000 0.101000004
v 0.037000000 0.021000000 0.094999999
v 0.037000000 0.021000000 0.101499997
v 0.045000002 0.022000000 0.094999999
v 0.025000000 0.016000001 0.133000001
v 0.025000000 0.016000001 0.138999999
v 0.023000000 0.019500000 0.133000001
v 0.025000000 0.019500000 0.132499993
v 0.025000000 0.019500000 0.133000001
v 0.025000000 0.021000000 0.132499993
v 0.023000000 0.019500000 0.138999999
v 0.025000000 0.019500000 0.138999999
v 0.025000000 0.019500000 0.139500007
v 0.025000000 0.021000000 0.139500007
v 0.037000000 0.016000001 0.133000001
v 0.037000000 0.016000001 0.138999999
v 0.037000000 0.019500000 0.132499993
v 0.037000000 0.019500000 0.133000001
v 0.039000001 0.019500000 0.133000001
v 0.037000000 0.021000000 0.132499993
v 0.037000000 0.019500000 0.138999999
v 0.037000000 0.019500000 0.139500007
v 0.039000001 0.019500000 0.138999999
v 0.037000000 0.021000000 0.139500007
v 0.003500000 0.016000001 0.149000004
v 0.003500000 0.016000001 0.174999997
v -0.000500000 0.019500000 0.151999995
v 0.001500000 0.019500000 0.149000004
v 0.003500000 0.019500000 0.149000004
v 0.003500000 0.019500000 0.149499997
v 0.003500000 0.021000000 0.149499997
v 0.003500000 0.019500000 0.174500003
v 0.001500000 0.019500000 0.174999997
v 0.003500000 0.019500000 0.174999997
v 0.003500000 0.021000000 0.174500003
v 0.018500000 0.016000001 0.149000004
v 0.018500000 0.016000001 0.174999997
v 0.018500000 0.019500000 0.149000004
v 0.018500000 0.019500000 0.149499997
v 0.020500001 0.019500000 0.149000004
v 0.018500000 0.021000000 0.149499997
v 0.018500000 0.019500000 0.174500003
v 0.018500000 0.019500000 0.174999997
v 0.020500001 0.019500000 0.174999997
v 0.018500000 0.021000000 0.174500003
v 0.003500000 0.016000001 0.180999994
v -0.000500000 0.019500000 0.180000007
v 0.001500000 0.019500000 0.180999994
v 0.003500000 0.019500000 0.180999994
v 0.003500000 0.019500000 0.181500003
v -0.000500000 0.019500000 0.186000004
v 0.003500000 0.021000000 0.181500003
v -0.000500000 0.019500000 0.208000004
v 0.001500000 0.019500000 0.202000007
v 0.018500000 0.016000001 0.180999994
v 0.018500000 0.019500000 0.180999994
v 0.018500000 0.019500000 0.181500003
v 0.020500001 0.019500000 0.180999994
v 0.018500000 0.021000000 0.181500003
v 0.020500001 0.019500000 0.202000007
v 0.025000000 0.016000001 0.158999994
v 0.025000000 0.016000001 0.165000007
v 0.023000000 0.019500000 0.158999994
v 0.025000000 0.019500000 0.158500001
v 0.025000000 0.019500000 0.158999994
v 0.025000000 0.021000000 0.158500001
v 0.023000000 0.019500000 0.165000007
v 0.025000000 0.019500000 0.165000007
v 0.025000000 0.019500000 0.165500000
v 0.025000000 0.021000000 0.165500000
v 0.037000000 0.016000001 0.158999994
v 0.037000000 0.016000001 0.165000007
v 0.037000000 0.019500000 0.158500001
v 0.037000000 0.019500000 0.158999994
v 0.039000001 0.019500000 0.158999994
v 0.037000000 0.021000000 0.158500001
v 0.037000000 0.019500000 0.165000007
v 0.037000000 0.019500000 0.165500000
v 0.039000001 0.019500000 0.165000007
v 0.037000000 0.021000000 0.165500000
v 0.023000000 0.019500000 0.182999998
v 0.039000001 0.019500000 0.182999998
f 66 69 75
f 66 79 69
f 66 72 79
f 66 75 72
f 72 75 83
f 79 80 69
f 79 82 80
f 72 82 79
f 72 83 82
f 82 83 80
f 67 73 68
f 73 69 68
f 68 69 80
f 68 81 71
f 70 71 85
f 70 85 106
f 85 71 81
f 73 75 69
f 73 74 75
f 74 83 75
f 74 78 84
f 70 106 76
f 76 106 77
f 77 106 78
f 106 282 78
f 68 80 81
f 81 80 84
f 85 81 219
f 81 84 219
f 74 84 83
f 84 80 83
f 84 78 282
f 219 84 282
f 85 219 122
f 85 104 106
f 85 122 104
f 106 104 110
f 106 110 130
f 130 122 124
f 130 124 134
f 106 130 282
f 219 124 122
f 219 136 124
f 219 242 136
f 136 242 140
f 140 242 248
f 282 130 134
f 282 134 140
f 250 268 255
f 282 140 248
f 219 250 242
f 219 268 250
f 219 275 268
f 219 282 275
f 255 268 273
f 282 248 255
f 282 255 273
f 282 273 280
f 282 280 275
f 20 40 67
f 67 40 41
f 67 41 73
f 40 73 41
f 40 43 73
f 43 53 73
f 53 54 73
f 73 54 55
f 54 65 55
f 55 65 78
f 20 67 68
f 20 68 71
f 73 55 74
f 55 78 74
f 65 77 78
f 20 42 40
f 40 42 43
f 20 63 42
f 20 70 63
f 54 53 63
f 70 54 63
f 70 65 54
f 70 76 65
f 20 71 70
f 65 76 77
f 105 108 104
f 108 111 104
f 111 110 104
f 108 109 111
f 105 104 122
f 105 122 123
f 109 127 111
f 111 131 110
f 131 130 110
f 111 127 131
f 123 122 130
f 123 130 126
f 126 131 127
f 126 130 131
f 86 89 87
f 87 89 91
f 86 105 89
f 86 87 114
f 87 91 142
f 89 128 91
f 86 108 105
f 86 107 108
f 86 114 107
f 89 105 123
f 87 112 114
f 87 142 112
f 107 109 108
f 107 147 109
f 109 147 127
f 114 112 116
f 107 114 115
f 114 116 115
f 107 115 145
f 107 145 147
f 89 123 128
f 91 128 147
f 91 147 142
f 123 126 128
f 126 127 128
f 127 147 128
f 142 147 146
f 145 146 147
f 112 113 118
f 112 121 116
f 112 118 121
f 115 116 120
f 118 119 121
f 116 121 120
f 112 142 113
f 113 142 143
f 119 149 121
f 115 120 152
f 120 121 153
f 115 152 145
f 120 153 152
f 121 149 153
f 142 146 143
f 143 146 152
f 143 152 148
f 145 152 146
f 148 153 149
f 152 153 148
f 88 113 92
f 88 92 94
f 92 98 94
f 88 94 163
f 94 98 173
f 92 150 98
f 88 118 113
f 88 117 118
f 92 113 143
f 117 119 118
f 92 143 150
f 143 148 150
f 148 149 150
f 88 163 117
f 94 161 163
f 94 173 161
f 163 161 165
f 117 163 164
f 163 165 164
f 117 181 119
f 117 164 179
f 119 181 149
f 117 179 181
f 98 150 181
f 98 181 173
f 173 181 180
f 149 181 150
f 179 180 181
f 161 162 167
f 161 170 165
f 161 167 170
f 164 165 168
f 165 170 168
f 161 173 162
f 162 173 174
f 164 168 184
f 168 170 194
f 164 184 179
f 168 194 184
f 167 169 170
f 169 191 170
f 170 191 194
f 173 180 174
f 174 180 184
f 174 184 182
f 179 184 180
f 182 184 194
f 182 194 191
f 95 99 96
f 96 99 102
f 95 162 99
f 95 96 171
f 96 102 171
f 99 183 102
f 95 167 162
f 95 166 167
f 99 162 174
f 95 171 166
f 102 201 171
f 166 169 167
f 166 201 169
f 166 171 201
f 169 201 191
f 99 174 183
f 102 183 201
f 174 182 183
f 182 191 183
f 183 191 201
f 125 132 124
f 125 124 136
f 132 135 124
f 135 134 124
f 132 133 135
f 133 139 135
f 135 141 134
f 125 136 137
f 137 136 140
f 137 140 138
f 141 140 134
f 135 139 141
f 138 141 139
f 138 140 141
f 90 211 93
f 93 211 214
f 90 125 211
f 90 93 151
f 93 214 157
f 90 132 125
f 90 129 132
f 90 151 129
f 125 137 211
f 93 157 144
f 93 144 151
f 129 133 132
f 129 258 133
f 137 138 244
f 138 139 244
f 133 258 139
f 144 155 151
f 129 151 154
f 129 154 158
f 151 155 154
f 157 258 159
f 129 158 258
f 158 159 258
f 211 244 214
f 211 137 244
f 214 244 258
f 214 258 157
f 139 258 244
f 144 157 172
f 144 178 155
f 154 155 156
f 155 178 156
f 154 156 160
f 157 159 185
f 159 160 185
f 154 160 158
f 156 188 160
f 158 160 159
f 144 172 176
f 144 176 178
f 176 177 178
f 177 187 178
f 156 178 188
f 172 157 185
f 160 186 185
f 178 187 188
f 186 188 187
f 160 188 186
f 97 224 100
f 100 224 229
f 97 172 224
f 97 100 192
f 100 229 203
f 97 176 172
f 97 175 176
f 97 192 175
f 172 185 224
f 100 203 189
f 100 189 192
f 175 177 176
f 175 325 177
f 175 192 195
f 175 195 205
f 185 186 305
f 186 187 305
f 177 325 187
f 175 205 325
f 189 196 192
f 192 196 195
f 203 325 206
f 205 206 325
f 224 305 229
f 224 185 305
f 229 305 325
f 229 325 203
f 305 187 325
f 189 190 197
f 189 203 190
f 189 200 196
f 189 197 200
f 195 196 199
f 197 198 200
f 198 208 200
f 196 200 199
f 195 199 209
f 199 200 210
f 190 203 204
f 203 206 204
f 204 206 209
f 204 209 207
f 195 209 205
f 199 210 209
f 200 208 210
f 205 209 206
f 207 210 208
f 209 210 207
f 101 231 103
f 103 231 232
f 101 190 231
f 101 103 202
f 103 232 202
f 101 197 190
f 101 193 197
f 101 202 193
f 190 204 231
f 202 232 331
f 193 198 197
f 193 331 198
f 193 202 331
f 204 207 329
f 207 208 329
f 198 331 208
f 231 329 232
f 231 204 329
f 232 329 331
f 208 331 329
f 243 246 242
f 246 249 242
f 243 242 250
f 249 248 242
f 246 247 249
f 247 253 249
f 249 256 248
f 243 250 251
f 251 250 255
f 251 255 252
f 256 255 248
f 249 253 256
f 252 256 253
f 252 255 256
f 212 213 215
f 215 213 216
f 212 243 213
f 213 254 216
f 212 215 259
f 215 216 263
f 212 246 243
f 212 245 246
f 212 259 245
f 213 243 251
f 213 251 254
f 215 263 257
f 215 257 259
f 216 254 266
f 216 266 263
f 245 247 246
f 245 266 247
f 251 252 254
f 252 253 254
f 247 266 253
f 253 266 254
f 257 261 259
f 245 259 260
f 245 260 264
f 259 261 260
f 263 266 265
f 245 264 266
f 264 265 266
f 257 303 307
f 257 309 261
f 257 307 309
f 257 263 303
f 260 261 262
f 261 309 262
f 260 262 267
f 262 309 319
f 263 314 303
f 263 265 314
f 265 267 314
f 267 316 314
f 260 267 264
f 262 319 267
f 264 267 265
f 267 319 316
f 307 308 309
f 308 317 309
f 309 317 319
f 316 319 317
f 225 227 226
f 226 227 228
f 225 303 227
f 225 226 311
f 227 318 228
f 226 228 315
f 226 315 304
f 225 307 303
f 225 306 307
f 225 311 306
f 226 304 311
f 227 303 314
f 227 314 318
f 228 318 322
f 228 322 315
f 304 312 311
f 306 308 307
f 306 322 308
f 306 311 310
f 311 312 310
f 306 310 320
f 314 316 318
f 315 322 321
f 308 322 317
f 316 317 318
f 317 322 318
f 306 320 322
f 320 321 322
f 304 330 312
f 304 315 324
f 310 312 313
f 312 330 313
f 310 313 323
f 315 321 333
f 321 323 333
f 310 323 320
f 313 337 323
f 320 323 321
f 304 324 327
f 304 327 330
f 327 328 330
f 328 335 330
f 313 330 337
f 324 315 333
f 323 334 333
f 330 335 337
f 334 337 335
f 323 337 334
f 230 234 233
f 233 234 235
f 230 324 234
f 230 233 332
f 233 235 332
f 234 336 235
f 230 327 324
f 230 326 327
f 230 332 326
f 234 324 333
f 234 333 336
f 235 338 332
f 235 336 338
f 326 328 327
f 326 338 328
f 326 332 338
f 333 334 336
f 328 338 335
f 334 335 336
f 335 338 336
f 269 271 268
f 271 274 268
f 269 268 275
f 269 275 276
f 274 273 268
f 271 272 274
f 272 278 274
f 274 281 273
f 281 280 273
f 274 278 281
f 276 275 280
f 276 280 277
f 277 281 278
f 277 280 281
f 217 218 220
f 218 222 220
f 217 269 218
f 218 279 222
f 217 220 285
f 220 222 293
f 217 271 269
f 217 270 271
f 217 285 270
f 218 269 276
f 218 276 279
f 220 293 283
f 220 283 285
f 222 279 297
f 222 297 293
f 270 272 271
f 270 297 272
f 276 277 279
f 277 278 279
f 272 297 278
f 278 297 279
f 283 287 285
f 270 285 286
f 285 287 286
f 270 286 295
f 270 295 297
f 293 297 296
f 295 296 297
f 283 284 290
f 283 292 287
f 283 290 292
f 283 293 284
f 284 293 294
f 286 287 288
f 286 298 295
f 286 288 298
f 290 291 292
f 287 292 288
f 291 300 292
f 288 292 302
f 288 302 298
f 292 300 302
f 293 296 294
f 294 296 298
f 294 298 299
f 295 298 296
f 299 302 300
f 298 302 299
f 221 223 236
f 221 284 223
f 223 301 238
f 223 238 236
f 221 236 341
f 236 238 349
f 221 290 284
f 221 289 290
f 221 341 289
f 223 284 294
f 223 294 301
f 289 291 290
f 289 353 291
f 294 299 301
f 299 300 301
f 291 353 300
f 300 353 301
f 236 349 339
f 236 339 341
f 238 301 353
f 238 353 349
f 339 343 341
f 289 341 342
f 341 343 342
f 289 342 351
f 289 351 353
f 349 353 352
f 351 352 353
f 339 340 346
f 339 348 343
f 339 346 348
f 339 349 340
f 340 349 350
f 342 343 344
f 343 348 344
f 342 354 351
f 342 344 354
f 344 348 358
f 344 358 354
f 346 347 348
f 347 356 348
f 348 356 358
f 349 352 350
f 350 352 354
f 350 354 355
f 351 354 352
f 354 358 355
f 355 358 356
f 237 239 240
f 239 241 240
f 237 240 359
f 237 340 239
f 239 357 241
f 240 241 359
f 237 346 340
f 237 345 346
f 237 359 345
f 239 340 350
f 239 350 357
f 241 357 360
f 241 360 359
f 345 347 346
f 345 360 347
f 345 359 360
f 350 355 357
f 355 356 357
f 347 360 356
f 356 360 357
f 38 37 60
f 39 38 42
f 38 43 42
f 39 42 63
f 38 60 43
f 39 63 62
f 60 61 43
f 61 53 43
f 62 53 61
f 62 63 53
f 21 25 24
f 21 52 25
f 19 21 24
f 19 59 21
f 24 45 36
f 19 24 36
f 36 38 39
f 36 37 38
f 36 58 37
f 19 36 39
f 19 39 59
f 24 44 45
f 24 25 44
f 36 45 46
f 25 52 51
f 21 59 52
f 36 46 57
f 36 57 58
f 51 52 58
f 51 58 57
f 37 58 60
f 52 64 58
f 58 64 60
f 52 59 64
f 39 62 59
f 59 62 64
f 62 61 64
f 60 64 61
f 25 23 30
f 29 46 30
f 44 25 30
f 44 46 45
f 44 30 46
f 25 51 23
f 29 49 46
f 51 48 23
f 46 49 50
f 46 50 57
f 57 50 48
f 51 57 48
f 5 6 11
f 22 4 5
f 22 5 16
f 4 15 5
f 4 31 15
f 5 15 6
f 4 18 31
f 16 5 11
f 16 11 34
f 16 30 23
f 4 47 18
f 22 47 4
f 22 16 23
f 22 23 47
f 16 34 35
f 16 29 30
f 16 35 29
f 18 35 31
f 35 33 31
f 35 34 33
f 18 56 35
f 35 49 29
f 35 56 49
f 47 23 48
f 18 47 56
f 47 48 56
f 56 48 50
f 56 50 49
f 7 9 15
f 9 6 15
f 9 10 13
f 9 13 6
f 13 11 6
f 10 14 13
f 13 27 11
f 7 15 31
f 7 31 32
f 27 33 11
f 11 33 34
f 27 32 33
f 32 31 33
f 1 2 3
f 1 26 2
f 2 8 3
f 3 8 7
f 1 17 26
f 1 3 17
f 2 26 12
f 2 12 8
f 8 12 10
f 7 8 9
f 8 10 9
f 10 12 14
f 13 14 27
f 12 26 28
f 3 7 17
f 7 32 17
f 17 28 26
f 17 32 28
f 14 28 27
f 27 28 32
f 12 28 14
