# palm.obj  (21 v, 38 f)  units: metres
v -0.059176758 -0.005846387 0.021900922
v -0.045000002 0.000000000 0.000000000
v -0.045000002 0.000000000 0.041233219
v -0.069094315 0.004087776 0.014222741
v -0.068354376 0.004346595 0.013601856
v -0.033000000 0.000000000 0.000000000
v -0.045000002 0.000000000 0.094999999
v -0.033000000 0.000000000 0.055534262
v -0.045000002 0.022000000 0.000000000
v -0.062823243 0.021846386 0.029099079
v -0.062083300 0.022105206 0.028478192
v -0.059628095 0.022090085 0.033008493
v -0.033000000 0.022000000 0.000000000
v -0.045000002 0.022000000 0.050404027
v -0.045000002 0.022000000 0.094999999
v -0.036948022 0.022000000 0.059999999
v -0.033000000 0.022000000 0.059999999
v 0.045000002 0.000000000 0.000000000
v 0.045000002 0.000000000 0.094999999
v 0.045000002 0.022000000 0.000000000
v 0.045000002 0.022000000 0.094999999
f 6 2 9
f 7 3 8
f 7 15 3
f 7 19 15
f 15 14 3
f 15 16 14
f 15 17 16
f 18 8 6
f 18 6 9
f 18 20 19
f 7 8 18
f 7 18 19
f 18 9 13
f 20 13 17
f 18 13 20
f 15 19 21
f 15 21 17
f 19 20 21
f 20 17 21
f 4 2 1
f 1 2 6
f 1 6 8
f 4 5 2
f 4 9 5
f 5 9 2
f 4 10 9
f 10 11 9
f 11 13 9
f 10 12 11
f 11 17 13
f 11 12 17
f 12 16 17
f 1 8 3
f 4 1 10
f 1 3 10
f 10 3 12
f 12 3 14
f 12 14 16
