# coarse_mesh4pde_1000.obj  (1000 v, 1704 f)  units: metres
v -0.026794152 0.034490892 -0.011614650
v -0.020920361 -0.049769534 -0.004961470
v -0.026518430 0.012587140 -0.005148044
v -0.028691434 0.023484914 -0.012545564
v -0.024386058 0.032500343 -0.011119988
v -0.029500000 -0.000479809 -0.029578917
v 0.001856966 -0.017692207 -0.108908316
v 0.000528539 -0.004349378 -0.090236701
v 0.015300000 0.022015420 -0.054076330
v 0.011909341 0.039757411 -0.085075815
v 0.015300000 0.001128106 -0.056489439
v 0.003339064 -0.025226207 -0.114312142
v 0.012356569 -0.048685680 -0.037667410
v 0.010800000 0.018850392 -0.061302348
v 0.007960722 0.016315813 -0.007211520
v 0.010428151 0.031375018 -0.004605679
v 0.009763456 0.044965122 -0.029028091
v 0.010809459 0.029509276 -0.084022835
v 0.014223117 0.047681088 -0.085203541
v 0.012070374 -0.048062697 -0.083487805
v 0.012278117 0.049029769 -0.083266844
v -0.022464785 -0.027512883 -0.085703341
v 0.014945073 -0.040002061 -0.083287830
v -0.005631482 0.005959206 -0.112601131
v -0.011496951 0.000453351 -0.116499998
v -0.004848182 -0.018648661 -0.090094156
v -0.014730705 -0.011170410 -0.080463819
v 0.015300000 0.015567681 -0.076997877
v 0.015006541 0.039122265 -0.084680181
v 0.010800000 0.022665552 -0.066818727
v -0.026595866 -0.009306882 -0.015493364
v 0.010800000 0.035795852 -0.062178538
v 0.015300000 0.038272772 -0.072876783
v 0.015300000 0.028572005 -0.078298476
v 0.015300000 0.040111355 -0.048402358
v 0.015300000 0.011365707 -0.064226269
v 0.015300000 0.043382375 -0.056783811
v 0.010800000 0.015247485 -0.066418707
v 0.005081345 0.000919065 -0.111208861
v 0.011437685 0.048832402 -0.077353917
v 0.015300000 0.001784346 -0.071851559
v -0.029500000 -0.019936059 -0.013894652
v 0.010793581 0.020892705 -0.083269002
v -0.003871562 -0.013284823 -0.116499998
v 0.007752484 -0.006686199 -0.016007161
v 0.008279031 -0.007747046 -0.062966513
v -0.026576422 -0.009351319 -0.000884123
v 0.015300000 0.008317848 -0.070752169
v -0.029500000 -0.033996492 -0.021283746
v 0.018531532 0.011668767 -0.100461454
v 0.009525472 -0.007559922 -0.110814338
v 0.010800887 0.029482828 -0.077191677
v 0.010800000 0.041824973 -0.064762323
v 0.020494082 -0.004915725 -0.099635866
v -0.006057722 -0.023468252 -0.109547711
v -0.026678095 0.017125749 -0.002166173
v 0.014866036 0.049040845 -0.049699752
v 0.013882107 0.049707108 -0.052325347
v 0.015300000 0.013941528 -0.040719776
v 0.001550745 0.006739346 -0.093609130
v -0.029500000 -0.028674460 -0.033639219
v 0.015300000 0.024310975 -0.065767204
v 0.011127261 0.048215961 -0.073428859
v 0.010800000 0.034720161 -0.068530993
v 0.012191694 0.049239047 -0.067473733
v 0.011092893 0.048141682 -0.063643218
v 0.013093068 0.049061560 -0.057557665
v 0.015300000 0.037824009 -0.058529054
v 0.012195702 0.049697915 -0.070759678
v -0.012359974 -0.043869655 -0.006077817
v -0.015702133 -0.020826925 -0.097772415
v 0.001535443 -0.001113518 -0.116499998
v 0.010801182 0.034164059 -0.078597505
v 0.015081272 0.021008913 -0.025469599
v 0.015300000 0.035813330 -0.077630436
v -0.025179437 -0.014824985 -0.007923235
v -0.029500000 -0.005561154 -0.013917533
v 0.010800000 0.044575567 -0.080184099
v 0.015123395 0.047029581 -0.065148994
v -0.009692577 -0.005766557 -0.110347177
v -0.029500000 -0.036323560 -0.012099101
v 0.012117853 -0.006273886 -0.094003321
v 0.015300000 0.037234884 -0.053044976
v -0.007805691 -0.029626097 -0.101984839
v -0.004638284 -0.015696487 -0.110649377
v 0.010800000 0.038556029 -0.057845560
v 0.011103888 -0.039343852 -0.084721611
v -0.006666914 -0.007282905 -0.092743023
v -0.000308954 -0.003416179 -0.106428597
v 0.015300000 0.030782995 -0.035568757
v 0.010800000 0.006954965 -0.061551347
v 0.010800000 0.037863401 -0.051743821
v -0.000871506 -0.028017661 -0.090430674
v -0.023043301 0.020432491 -0.095230293
v 0.004915236 -0.010987783 -0.079533923
v 0.015300000 -0.005705136 -0.045554127
v -0.005204691 -0.008819272 -0.109470380
v 0.005380837 -0.025820233 -0.109818226
v 0.015300000 0.022980808 -0.045493619
v 0.013577292 0.031756794 -0.085826343
v 0.013397251 0.025216364 -0.085843751
v 0.013050000 0.028128950 -0.086000003
v -0.010906459 -0.028000001 -0.094499998
v -0.023528611 -0.013183061 -0.010315278
v 0.015300000 0.047967173 -0.045743390
v 0.015300000 0.048000000 -0.077720393
v 0.015296694 0.048007980 -0.071361943
v -0.021580752 -0.042317674 -0.062301190
v 0.014563779 0.048846878 -0.037997199
v 0.012301154 0.049107748 -0.045122466
v 0.014029772 0.048243437 -0.060578777
v 0.015300000 0.015427394 -0.056531868
v 0.002204374 -0.009049896 -0.106741394
v 0.010988145 0.044037747 -0.084419834
v 0.003611530 -0.007815315 -0.093847749
v 0.010953829 0.035451244 -0.084371377
v 0.011656841 -0.000875166 -0.090761599
v 0.012917239 -0.040977045 -0.084307927
v 0.010800000 0.014783722 -0.050382281
v 0.015263794 0.005270178 -0.079388765
v -0.005147641 -0.003697210 -0.101914663
v 0.011344615 0.049352264 -0.042260007
v -0.000807662 0.041377985 -0.002364321
v 0.004398015 0.004274691 -0.081815093
v -0.021919782 0.000726119 -0.116499998
v 0.015300000 0.043972574 -0.035702480
v -0.001926320 -0.049745241 -0.006092871
v 0.015300000 0.018147915 -0.071104407
v -0.013622142 -0.009320048 -0.106719875
v 0.001829096 0.000657897 -0.099015289
v -0.010471594 -0.000787402 -0.110284912
v -0.013211737 0.005492930 -0.110261138
v 0.000121852 0.000655281 -0.112754798
v -0.001879267 -0.026355137 -0.080763308
v -0.014453835 -0.013583560 -0.086272144
v 0.011603516 -0.034135970 -0.085257026
v 0.014582565 0.044093295 -0.083614740
v 0.010937506 -0.043555656 -0.084331970
v 0.010800000 0.012828455 -0.060836970
v -0.003515755 0.004128987 -0.107762705
v -0.004486979 -0.019247990 -0.103130079
v -0.008870606 -0.002832026 -0.103444257
v 0.015300000 0.028602639 -0.050436492
v -0.021453844 -0.031807985 -0.011868249
v 0.012540186 -0.036737361 -0.006898820
v 0.010800000 0.030596888 -0.064617727
v -0.036145714 0.000818134 -0.101953113
v 0.015300000 0.004980123 -0.061135804
v -0.010004198 -0.024921065 -0.107009774
v -0.026509598 -0.024251826 -0.095452865
v 0.011314252 -0.022801671 -0.006596789
v 0.010800000 0.027617426 -0.081387179
v 0.015300000 0.037047363 -0.079508425
v -0.000070077 -0.020481524 -0.091642388
v -0.021297759 0.034976576 -0.005444254
v -0.024370023 -0.040617980 -0.016337607
v 0.005693773 -0.001741226 -0.097393402
v -0.027169002 -0.046117660 -0.032674506
v 0.010800000 0.008391713 -0.056290129
v 0.015300000 0.019855392 -0.060493733
v 0.015300000 0.027173824 -0.071104063
v -0.007146483 -0.022264710 -0.116499998
v 0.008702452 -0.004179174 -0.085948750
v 0.014112380 -0.048519562 -0.078077506
v -0.018517841 0.032274855 -0.026846037
v 0.010800000 0.005359725 -0.050245243
v 0.020382677 -0.005401402 -0.106420829
v 0.015300000 0.016753352 -0.050875569
v 0.008551377 0.033102720 -0.006926972
v 0.010800000 0.019886700 -0.077885964
v 0.010800000 0.037640208 -0.074909520
v 0.002220041 -0.019627650 -0.116499998
v 0.011854445 -0.018166115 -0.089796895
v 0.012165593 -0.045835265 -0.075107099
v -0.018886176 -0.020764240 -0.110949413
v 0.010800000 0.041954295 -0.073952875
v 0.014734794 0.049364530 -0.081617135
v 0.010800000 0.046199869 -0.046856590
v 0.010800000 0.023030507 -0.056659324
v 0.013591053 0.049853554 -0.076712964
v 0.010800000 0.032078171 -0.058148960
v 0.008299184 -0.025281745 -0.051273435
v -0.000803333 -0.035633710 -0.010481400
v 0.016855268 -0.011147925 -0.113638518
v 0.015300000 0.031298493 -0.060789045
v -0.035210864 -0.013537130 -0.105665363
v 0.008474612 0.013766070 -0.023158324
v 0.013660190 0.034894934 -0.085497839
v 0.010800000 0.021736123 -0.071946348
v 0.015300000 0.033652934 -0.068732762
v -0.005451559 0.000652798 -0.108836613
v 0.005532557 -0.006704750 -0.116499998
v 0.002711515 0.001211730 -0.113712145
v 0.002619454 -0.013030270 -0.095501691
v -0.029428084 -0.043509417 -0.009861644
v 0.014948979 -0.039535415 -0.078876930
v -0.000774605 0.001076971 -0.000490098
v 0.010797835 0.001705004 -0.076487192
v 0.010800000 0.013864213 -0.072150844
v 0.015300000 0.032219509 -0.082007409
v 0.015300000 0.041464681 -0.073195047
v 0.007265348 -0.010326894 -0.003997765
v 0.008783209 -0.033183093 -0.007729359
v 0.010800000 0.045277588 -0.059851177
v 0.004178589 -0.012821248 -0.107610495
v -0.026775039 -0.034631724 -0.029426657
v -0.016813200 -0.008664560 -0.096589472
v 0.006825784 -0.007876029 -0.096599915
v -0.017450848 -0.028172506 -0.094146517
v 0.000014209 0.000851194 -0.105626849
v -0.006387529 -0.004076782 -0.107470838
v -0.008820617 0.005925818 -0.099293148
v 0.000300885 -0.011607007 -0.116499998
v 0.010800000 0.031558190 -0.050028933
v 0.015300000 0.035798528 -0.043891608
v 0.010800000 0.032788025 -0.072117413
v 0.012799510 0.018580335 -0.110536067
v 0.010800000 0.041242424 -0.046904195
v -0.025204446 0.009800000 -0.003310031
v 0.008528480 -0.015034390 -0.116499998
v -0.023725262 -0.051631473 -0.018902003
v -0.028196119 0.044084601 -0.012615900
v -0.025884821 0.018556114 -0.039743832
v -0.020757091 -0.034623023 -0.019934829
v 0.013635725 -0.007512337 -0.079647996
v 0.006463510 -0.014057589 -0.004612781
v 0.007823313 0.033886868 -0.007284756
v 0.013355811 0.032160435 -0.084004237
v 0.015185774 -0.032607046 -0.044707631
v 0.006107465 -0.005266342 -0.101306949
v 0.015300000 0.039815148 -0.062566257
v -0.001988398 0.003885143 -0.101562144
v -0.006867688 -0.009648793 -0.011545015
v 0.015313963 -0.000168114 -0.098854973
v 0.015300000 0.031371918 -0.054956808
v 0.012357558 -0.000065747 -0.102524884
v 0.020386578 0.005121396 -0.106790838
v -0.024610374 -0.042826784 -0.022738500
v 0.010800000 0.025529717 -0.062228393
v 0.008300000 -0.032996236 -0.008144090
v 0.008642548 0.018294622 -0.040113631
v 0.008800000 -0.009338998 -0.003608899
v 0.011508947 0.046802280 -0.054851495
v 0.010800000 0.041157023 -0.070083490
v -0.024106385 0.036243335 -0.002790170
v -0.008926551 -0.009358949 -0.111337921
v -0.023759873 -0.004789034 -0.107057587
v -0.005991333 -0.028000001 -0.087125143
v -0.005170780 -0.007689004 -0.116499998
v -0.003499917 -0.001155882 -0.112001013
v -0.002820327 0.019409751 -0.115989467
v -0.025143108 -0.004988503 -0.027451325
v 0.010970840 0.046038222 -0.051201139
v -0.026894224 -0.032510709 -0.017300467
v 0.008425283 0.010676829 -0.000954650
v 0.008993597 -0.016446811 -0.104676114
v -0.026497844 -0.031960417 -0.013578214
v 0.008930109 -0.009406227 -0.003325893
v 0.008274422 -0.001649317 -0.079608294
v 0.007946132 0.049109055 -0.018358111
v 0.014591053 0.048239391 -0.073543289
v 0.008591461 0.008409881 -0.008586367
v 0.014990869 0.048746309 -0.069172745
v -0.026430760 0.020878842 -0.017025544
v 0.008331250 -0.012842601 -0.042098202
v 0.005693851 -0.039762772 -0.005020008
v 0.015138559 0.024977288 -0.083828281
v 0.015300000 0.040527062 -0.067653374
v -0.009239419 0.004166807 -0.110036674
v -0.005969092 0.010096213 -0.082324409
v 0.012801376 0.029492379 -0.084901651
v 0.015300000 0.032498548 -0.075604110
v 0.015300000 0.043903588 -0.077449536
v -0.014457437 -0.036455070 -0.005318102
v -0.006300304 -0.013621941 -0.105411132
v 0.010800000 0.039267096 -0.080781637
v -0.026905948 -0.010168146 -0.006155854
v -0.027860702 -0.023720367 -0.004117531
v -0.027000001 -0.033195719 -0.005863991
v 0.012920277 0.049967396 -0.041857950
v -0.029429687 -0.010542480 -0.010151513
v 0.005073957 0.000608347 -0.101639626
v 0.008156176 0.038062950 -0.037916729
v -0.019889774 -0.000434330 -0.101207745
v -0.005137879 0.000250095 -0.105327047
v -0.008655422 -0.018000270 -0.090185761
v -0.026946132 0.009800000 -0.006735658
v 0.000941231 -0.005074279 -0.099531449
v -0.009599839 -0.019999815 -0.079691347
v 0.002089880 0.003185343 -0.103409415
v 0.011353403 0.003574081 -0.094499998
v 0.009831478 0.037361744 -0.012147833
v -0.023438033 0.012255940 -0.026080944
v -0.021297204 -0.020339261 -0.089385994
v 0.013814448 -0.044341288 -0.085343137
v 0.011033799 0.023370079 -0.085398819
v -0.025392003 -0.009362120 -0.009594236
v 0.005361310 -0.000014936 -0.107299479
v -0.017046400 -0.005567635 -0.090407913
v -0.017208457 0.009822330 -0.013971373
v -0.007505616 -0.007518136 -0.108289638
v -0.009170164 0.003662341 -0.107190753
v 0.015142215 0.047221793 -0.040086629
v -0.001512191 -0.012951695 -0.107112669
v 0.002585854 -0.018261076 -0.105380337
v 0.010782945 0.007804322 -0.045114932
v -0.026722399 -0.034904188 -0.005558092
v 0.013971834 0.001891652 -0.084883817
v 0.010800000 0.000616234 -0.058634700
v 0.005870843 -0.025922658 -0.103577604
v -0.003734374 -0.015966208 -0.097484339
v 0.007893680 -0.041286375 -0.025754462
v -0.006891631 -0.000926668 -0.109908310
v -0.004777957 -0.001027092 -0.116499998
v -0.007328088 -0.021310458 -0.106955391
v -0.023609422 -0.034767454 -0.021649177
v 0.011074868 -0.000613332 -0.005244922
v 0.010800000 0.027492030 -0.069719999
v 0.015300000 0.024317369 -0.075902006
v -0.003305063 0.000597687 -0.109333666
v -0.001842318 -0.007216870 -0.088879566
v 0.008779675 0.009950000 -0.007521333
v 0.010798076 0.030843701 -0.045987052
v 0.015300000 0.009609744 -0.047471711
v 0.000296944 -0.010308189 -0.097507040
v 0.015300000 0.015767812 -0.063967335
v 0.008274958 -0.028223814 -0.010844559
v 0.011256357 0.031319768 -0.085023144
v 0.015300000 0.029407602 -0.074426711
v -0.018133420 -0.039003683 -0.017556677
v 0.010800000 0.014253354 -0.056461116
v 0.010800000 0.006770889 -0.069609535
v 0.006813169 0.010895344 -0.009237756
v -0.027932600 -0.017151223 -0.113201253
v -0.013550257 -0.029031386 -0.111740798
v -0.002323308 -0.044162705 -0.001960606
v 0.010800000 0.043436685 -0.047049810
v -0.004574723 0.003819817 -0.110853600
v -0.006684057 0.002266506 -0.112500639
v -0.005170139 0.006752539 -0.116499998
v 0.013068999 0.001523989 -0.116499998
v 0.006715190 0.005759781 -0.109651941
v -0.010281993 -0.037446424 -0.066225470
v 0.015300000 0.009335302 -0.054567569
v 0.011701156 0.008278108 -0.092943920
v -0.028245887 -0.001694319 -0.001999169
v -0.019608969 -0.041713079 -0.011265906
v 0.015300000 -0.003069639 -0.072491653
v 0.017615250 0.003279353 -0.096169837
v 0.015300000 0.045881729 -0.054040023
v 0.015300000 0.031991431 -0.064577640
v 0.014086187 0.016598888 -0.084454057
v 0.013867639 -0.018702909 -0.105558430
v 0.012267079 0.049701593 -0.047195772
v 0.015300000 0.025086602 -0.058961711
v 0.010800000 0.009901847 -0.075984121
v -0.007958727 -0.012490955 -0.111220614
v 0.000779569 0.000171185 -0.108894799
v -0.023736221 -0.034119468 -0.004586966
v -0.006219904 0.056569596 0.005941735
v 0.005894393 0.054307133 0.001211531
v 0.000410277 0.056646877 0.012157914
v -0.001989690 0.033419281 0.011578098
v 0.001656309 0.037476269 0.001927973
v 0.008912244 0.059923092 0.057105542
v 0.009141849 0.060434245 0.058500383
v 0.009800000 0.059821583 0.059377346
v 0.010604811 0.037632483 0.061589948
v 0.009645931 0.055042001 0.021750629
v 0.012326026 0.059899140 0.057336211
v 0.012611549 0.037677866 0.059483899
v 0.005174606 0.035653747 0.053770065
v 0.009386843 0.059353026 0.036779716
v -0.004292917 0.048000764 0.032210031
v 0.009228623 0.037822037 0.059485054
v 0.010580001 0.044120115 0.061075368
v 0.009800000 0.052890004 0.022003699
v 0.008900133 0.037545836 0.022417918
v 0.011130423 0.035214467 0.027688853
v 0.000548239 0.049046152 0.063273300
v 0.013146293 0.043575951 0.029824528
v 0.011835463 0.039846441 0.052208008
v 0.011482302 0.033870624 0.027098144
v 0.010246883 0.037602071 0.060352126
v -0.002232736 0.036247735 0.071033036
v 0.009746071 0.041099416 0.098491787
v 0.009960153 0.038900609 0.077175878
v 0.011482048 0.041586823 0.099948229
v 0.010395887 0.061454627 0.074626116
v 0.011731685 0.062325927 0.075242310
v 0.013800000 0.041276103 0.095340507
v 0.011564651 0.048733510 0.082539941
v 0.011116184 0.053202058 0.077092526
v -0.004493194 0.063180659 0.077856755
v 0.013717233 0.045386773 0.078121313
v -0.007653784 0.036883194 0.072559481
v 0.009300000 0.048918246 0.079579796
v 0.009300000 0.045780262 0.077230851
v 0.003661837 0.036763906 0.076932895
v 0.013529885 0.048366049 0.092730165
v 0.010477193 0.043115640 0.076187283
v 0.010500005 0.048129337 0.075748638
v 0.010500007 0.051249449 0.075475662
v 0.010605288 0.058552672 0.075013124
v 0.010500006 0.046303315 0.100000078
v 0.012500191 0.049172222 0.077016315
v 0.013263834 0.052090208 0.075908996
v 0.012437008 0.043097148 0.076188900
v 0.012856067 0.048009210 0.075953822
v 0.009800000 0.057175577 0.099105451
v 0.010175442 0.038737991 0.085785957
v 0.011598566 0.039308033 0.093460880
v 0.009300000 0.053316019 0.081147541
v 0.013800000 0.047462867 0.086376975
v 0.013409301 0.039100973 0.082191219
v 0.010107579 0.045830141 0.076112962
v 0.013580330 0.042625678 0.099543124
v 0.009633053 0.056239111 0.075436580
v 0.009300000 0.054529178 0.076393311
v 0.009300000 0.050701130 0.076795035
v 0.009651472 0.051691687 0.075789791
v 0.009300000 0.046076840 0.081795957
v 0.013800000 0.056049467 0.078301919
v 0.013673629 0.040293932 0.087441710
v 0.013725960 0.060444441 0.082754218
v 0.004506599 0.037501384 0.073908626
v 0.010586030 0.042680839 0.098939830
v 0.013800000 0.054111721 0.082099015
v 0.009500778 0.053675916 0.088792673
v 0.001257704 0.042982976 0.083703132
v 0.009475736 0.043291634 0.076969018
v 0.009300000 0.045782068 0.079435963
v 0.013800000 0.047934368 0.080558858
v 0.013157576 0.041458413 0.077022766
v -0.000851753 0.037991692 0.069848112
v 0.010346760 0.062892287 0.079940926
v 0.011403969 0.063883747 0.093623895
v 0.010842078 0.062181417 0.094902524
v 0.009651472 0.047737743 0.076135716
v 0.013800000 0.052648504 0.084806389
v 0.010061793 0.053502433 0.075488752
v 0.013102271 0.058885352 0.075192860
v 0.012555713 0.050955809 0.075501354
v 0.010500000 0.038395489 0.083534546
v 0.009502901 0.041297094 0.077168706
v 0.009800000 0.048895510 0.099482227
v -0.001467916 0.053414391 0.097569853
v 0.009300000 0.052219112 0.079938398
v 0.009222250 0.042115591 0.081511434
v 0.010695602 0.061879467 0.075916538
v 0.009300000 0.053444744 0.078789580
v 0.009300000 0.057214135 0.077399304
v 0.009800000 0.038451574 0.080883141
v -0.011042988 0.050610501 0.124313748
v -0.010587167 0.056520487 0.122015963
v -0.010797758 0.051523413 0.131582955
v -0.010191170 0.060602110 0.128373038
v -0.005695693 0.060218461 0.141448857
v 0.008647332 0.048279652 0.116023679
v 0.000604982 0.053764069 0.122535579
v 0.009630213 0.042235630 0.111851775
v 0.013800000 0.053006601 0.114742430
v 0.009362132 0.041959956 0.112229176
v 0.009338832 0.042457815 0.116198683
v 0.009627637 0.041417796 0.113386735
v 0.009573410 0.065344323 0.111830150
v 0.010114822 0.041073404 0.112126885
v 0.009939694 0.064515130 0.109730406
v 0.003436107 0.065871819 0.109511095
v 0.009938789 0.052896616 0.111673129
v 0.010163305 0.042295654 0.111261412
v 0.011890214 0.065623338 0.110556807
v 0.013306066 0.065731386 0.119276710
v 0.012783376 0.042119104 0.111336971
v 0.012630908 0.042431027 0.121411466
v 0.013215242 0.060572627 0.110174415
v -0.007241736 0.051915054 0.131442257
v 0.009300000 0.051176345 0.113599579
v 0.004312482 0.065845504 0.130435487
v 0.010442989 0.049561079 0.110800060
v -0.005994126 0.056541643 0.125079018
v 0.010218711 0.063194073 0.119232375
v 0.003883308 0.043077498 0.124102241
v -0.003707214 0.047217204 0.117573857
v -0.003870206 0.062672525 0.136044120
v 0.005276545 0.052980120 0.141892969
v 0.013800000 0.049807553 0.117006698
v 0.013800000 0.056372141 0.115790632
v 0.013287569 0.046824456 0.111014952
v 0.012295335 0.054559486 0.111103239
v -0.005004446 0.064886069 0.126304516
v 0.009800000 0.062153345 0.120807879
v -0.000536110 0.054352115 0.122484132
v -0.003511951 0.051703959 0.125470053
v 0.010168112 0.050431878 0.129818344
v 0.009606018 0.064554220 0.110211385
v 0.013664387 0.059365085 0.119800888
v -0.000453929 0.053705673 0.121678857
v 0.010957767 0.051161172 0.122787500
v -0.009749288 0.050413608 0.122828706
v 0.010580231 0.043461015 0.120987588
v 0.009651472 0.064991277 0.109583512
v 0.011028848 0.064932944 0.119524718
v -0.003336051 0.056102358 0.122331006
v 0.009483181 0.057433633 0.112594339
v 0.000083256 0.055062934 0.122421943
v 0.010500000 0.064348150 0.120906921
v 0.013433804 0.042487192 0.115471138
v 0.009506361 0.064511237 0.109551290
v 0.010055208 0.059541528 0.110050187
v 0.006913933 0.065927218 0.117085239
v 0.009800000 0.044158465 0.121490514
v 0.010092552 0.041508499 0.117095802
v 0.012980149 0.063703437 0.114776579
v 0.009300000 0.053246940 0.113319346
v -0.003439715 0.061570694 0.131647302
v 0.010411416 0.057556846 0.109816466
v -0.011808983 0.053695187 0.125955875
v 0.001816660 0.050968163 0.142476432
v 0.005977013 0.064282851 0.124162676
v 0.001661696 0.049129998 0.127555576
v -0.005356787 0.060707887 0.120818352
v -0.009296154 0.045556787 0.123253622
v -0.005680733 0.044734266 0.127081658
v 0.000570029 0.064543703 0.140093894
v 0.009370020 0.062018751 0.115060298
v -0.002366049 -0.002541834 0.001976273
v -0.000525234 0.011952206 0.010286925
v 0.005605219 0.006380800 0.002147296
v 0.000425811 -0.005536110 0.007885897
v 0.010061928 -0.011437845 0.025614111
v 0.009464121 -0.010962500 0.061351833
v 0.010902708 -0.010527308 0.062641763
v 0.009689560 0.011350011 0.025463395
v 0.010500000 0.011300000 0.025100000
v 0.010502314 0.012148528 0.025451472
v 0.010500000 0.012500000 0.026300000
v 0.001946022 0.012246700 0.062148915
v 0.011333855 0.003160557 0.029550966
v 0.013800000 0.005946025 0.035661593
v 0.010580000 0.000086697 0.025066863
v 0.010580000 0.003150000 0.025066863
v 0.011261567 -0.000181769 0.059700648
v 0.013800000 0.000522574 0.030598793
v 0.013800000 0.000033755 0.036031542
v 0.013448528 -0.000155205 0.025451472
v 0.013591367 0.008589603 0.025862110
v 0.013800000 0.001318329 0.026447752
v 0.013800000 0.003150000 0.026300000
v 0.009724130 0.008754885 0.027317339
v 0.010385000 -0.007413372 0.025172487
v 0.010580000 -0.003250000 0.025100000
v 0.011586364 0.008896875 0.025098494
v 0.013543743 0.003371436 0.040355532
v 0.013800000 -0.003834846 0.028163307
v 0.009800000 -0.002299694 0.024550737
v 0.013800000 -0.002750508 0.036719478
v 0.012025640 -0.000813392 0.026733639
v 0.012418726 0.003187107 0.025100000
v 0.013443732 0.002005701 0.025449485
v 0.012469083 -0.002069751 0.025100000
v 0.012600000 -0.000261233 0.025100000
v 0.012464759 -0.004083150 0.025100000
v 0.013800000 0.002928917 0.032240387
v 0.012298971 -0.011633338 0.031559715
v 0.011649706 0.001673047 0.028884954
v 0.013181251 0.011341736 0.027867061
v -0.004326550 -0.002263243 0.069739813
v 0.006169155 -0.004883629 0.024915155
v 0.010109821 -0.010600805 0.026034186
v 0.011253115 0.011407672 0.059815220
v 0.012929938 -0.006474163 0.025275736
v 0.010192554 0.010569907 0.025941665
v 0.013800000 -0.006281709 0.027876594
v 0.013800000 -0.001279958 0.028330643
v -0.000194062 -0.005826758 0.048178525
v 0.009881969 0.012613058 0.048063486
v 0.009610258 0.011997792 0.027184511
v 0.010330921 0.011498256 0.059766113
v 0.011798496 0.005791410 0.025186362
v 0.013603265 -0.002534082 0.025867038
v 0.013800000 -0.007598716 0.080633005
v 0.009351777 -0.011350000 0.080799997
v 0.009321967 0.010127968 0.081249096
v 0.009800000 -0.012194670 0.080124905
v 0.010165948 0.012149355 0.083431019
v 0.010781690 0.011785868 0.078433056
v 0.012221520 -0.011995106 0.080759338
v 0.012968225 0.011790850 0.080811792
v 0.010705177 -0.001826585 0.080102120
v 0.011153825 0.002085262 0.080185425
v 0.013800000 0.006437172 0.086392308
v 0.013800000 0.004397724 0.081875800
v 0.009300000 0.007068153 0.083945416
v 0.010477849 -0.012490825 0.088303564
v 0.009660082 0.004656450 0.078447904
v 0.009300000 -0.002447626 0.083942169
v 0.013800000 -0.004585908 0.080925001
v 0.013800000 -0.000661882 0.089183273
v 0.011473025 -0.004570633 0.078100003
v 0.010500000 -0.002335714 0.078100003
v 0.010475481 0.002952431 0.078110159
v 0.005742125 0.011464845 0.079148173
v 0.009651472 -0.000642275 0.078451470
v 0.009300000 0.002604999 0.082622529
v 0.013497045 -0.011894906 0.086910056
v 0.009800000 -0.012210051 0.085562389
v 0.012104646 0.010418102 0.079582766
v 0.009300000 0.006567779 0.082202019
v 0.013800000 0.001171756 0.084065218
v 0.010500000 0.000393031 0.078100003
v 0.013523854 0.002583116 0.092583560
v 0.009300000 -0.005067573 0.081819205
v 0.009387868 -0.003132737 0.080271032
v 0.013800000 -0.000931699 0.081331664
v 0.013800000 0.007455278 0.081818787
v 0.013800000 -0.003351587 0.079300001
v 0.013800000 -0.004937296 0.085637200
v 0.009300000 -0.008648884 0.082052596
v 0.011176905 0.000721195 0.083116261
v 0.009910661 -0.003127068 0.092585511
v 0.010625497 -0.010543475 0.097897366
v 0.004930903 -0.011540233 0.078188507
v 0.013800000 -0.002869640 0.082656155
v -0.000426354 -0.007857651 0.092930581
v 0.011229872 -0.002549250 0.082365199
v 0.012600000 -0.001628453 0.078100003
v 0.012454696 0.000396090 0.078100003
v 0.013112132 0.002335423 0.078786983
v 0.013624264 -0.001234281 0.078875735
v 0.013624264 0.004369848 0.078875735
v 0.012975742 0.006448686 0.078275736
v 0.011170695 0.004448961 0.083965700
v 0.012240565 -0.000144894 0.080449449
v 0.009651472 0.002212930 0.078451470
v 0.009475736 -0.006594848 0.078875735
v 0.009300000 0.000093856 0.079300001
v 0.009300000 0.003722553 0.079300001
v 0.012955426 0.008822723 0.078275736
v 0.009807029 0.009154537 0.078621751
v 0.008677090 0.006172863 0.102264743
v 0.009300000 -0.000042253 0.082015235
v 0.009300000 -0.010229903 0.083159061
v 0.011716489 -0.010022458 0.080137333
v 0.010197335 -0.010338028 0.078553769
v 0.013446946 -0.006659810 0.078459596
v 0.010552190 0.007198192 0.078100003
v 0.009843406 0.011424086 0.079135241
v -0.008456504 -0.007089663 0.125953465
v 0.001164161 -0.009981317 0.142608593
v 0.004176241 -0.011010305 0.137361504
v 0.004412780 0.011395287 0.125201742
v 0.005827960 -0.006844741 0.143752875
v 0.009362132 -0.011450000 0.113904014
v 0.008424330 -0.012883195 0.118790894
v 0.009646950 -0.012137611 0.114869780
v 0.009427944 0.011673618 0.114563042
v 0.009956037 0.011224950 0.113105986
v 0.009574500 0.007214536 0.135708930
v 0.010948430 0.002188584 0.124934313
v 0.010500000 -0.011812132 0.124112131
v 0.010310688 -0.005527934 0.136571497
v 0.011631616 0.011876732 0.113469599
v 0.011527029 0.010593445 0.124109167
v 0.009886935 0.005138017 0.114982763
v -0.005439915 0.005830775 0.124122123
v -0.005498598 0.008213638 0.132896534
v 0.009492942 -0.007836902 0.124667789
v 0.011395280 -0.003191296 0.130292142
v 0.006385300 0.008717438 0.141049959
v 0.013293140 -0.000009975 0.123541029
v 0.011138952 0.003361638 0.128329305
v 0.005373778 0.010354750 0.133458705
v 0.013448528 -0.003286085 0.112851471
v 0.013011633 -0.000701000 0.112675734
v 0.012108340 0.008072545 0.113477288
v 0.008341975 -0.006945056 0.140858612
v 0.006029102 -0.011232860 0.118950645
v 0.013112132 -0.005533415 0.112926892
v 0.009300000 0.001286006 0.115974568
v 0.013018484 0.012326166 0.118773757
v 0.013789017 -0.002061973 0.117396612
v 0.013800000 0.011300000 0.120732173
v 0.013276351 -0.011169850 0.123749855
v -0.007063381 0.009694314 0.127700941
v 0.012987861 -0.010852562 0.118356727
v 0.010526808 0.005628016 0.136429566
v 0.010333827 -0.005867391 0.127159828
v 0.009300000 0.001218201 0.118538165
v 0.013396648 -0.010201344 0.113945874
v 0.011350765 -0.003512703 0.133143687
v 0.009800000 0.010639299 0.123993414
v 0.011172333 0.000260667 0.138693005
v 0.010500000 -0.007700678 0.124499999
v 0.000666924 -0.007396416 0.134895377
v 0.002176287 0.010030426 0.118092461
v -0.003232527 0.007664470 0.125930331
v 0.009300000 0.010473159 0.118379404
v -0.005036458 0.010880734 0.127658518
v 0.013800000 0.005159828 0.118077281
v 0.000357516 0.001137294 0.145569776
v 0.010747161 0.004967483 0.132029909
v 0.008014158 0.008819442 0.136559643
v 0.009300000 0.001857971 0.120853708
v 0.009418115 -0.009363590 0.117721493
v 0.009975000 0.012282538 0.119232070
v -0.003475261 -0.007960991 0.120485234
v 0.010108507 -0.002506112 0.113680598
v 0.011550000 -0.005588519 0.124499999
v -0.004232940 -0.054218521 0.002095321
v 0.005943800 -0.056214294 0.003526248
v -0.001393182 -0.057162387 0.013126313
v 0.000396475 -0.055679276 0.005845062
v -0.001711169 -0.040294770 0.001504001
v 0.004726118 -0.042699076 0.060744616
v 0.008002757 -0.033535613 0.027684041
v 0.010389150 -0.056060227 0.059928072
v 0.011821691 -0.053485282 0.055779491
v 0.013168876 -0.049475642 0.052669807
v 0.011498570 -0.034143032 0.031523940
v 0.001828661 -0.048002627 0.027865118
v 0.010796751 -0.059842039 0.054106464
v 0.013544054 -0.038183149 0.028262699
v 0.011547584 -0.058985157 0.059402071
v 0.009858355 -0.039593320 0.021042712
v 0.010482415 -0.051841183 0.075423895
v 0.009987868 -0.061536664 0.074965001
v 0.008724963 -0.039567705 0.080505970
v 0.009948939 -0.041210257 0.100199555
v 0.010500000 -0.062378790 0.074854791
v 0.011169778 -0.040319940 0.098013490
v 0.010449761 -0.039029179 0.076565691
v 0.012600000 -0.061940825 0.074716699
v 0.011603033 -0.038090866 0.077784312
v 0.013624264 -0.059820524 0.075568550
v 0.009235467 -0.051686369 0.081212765
v 0.012022434 -0.055615264 0.075358318
v 0.009645170 -0.052827365 0.075705704
v 0.011952181 -0.050458636 0.079551897
v 0.009300000 -0.047877476 0.079631861
v 0.013800000 -0.043564857 0.079512634
v 0.011728784 -0.042848968 0.100181476
v 0.010220225 -0.062416799 0.096681895
v 0.012000113 -0.056399519 0.098348050
v 0.011744547 -0.053569168 0.075360920
v 0.013485078 -0.049182874 0.076097860
v 0.012306320 -0.038770432 0.082419500
v 0.010163921 -0.044817235 0.076202021
v 0.009300000 -0.054142623 0.076550682
v 0.009300000 -0.050836121 0.076774404
v 0.009299999 -0.048565971 0.076915026
v 0.011982369 -0.063521146 0.088238320
v 0.013800000 -0.049016400 0.080369490
v 0.013459587 -0.041110722 0.088593922
v 0.013800000 -0.052562177 0.093578292
v 0.012587486 -0.050000536 0.075584931
v 0.013017388 -0.046367441 0.076079194
v 0.010499998 -0.049315840 0.075644834
v 0.013799999 -0.054186020 0.078127283
v 0.013800000 -0.050858516 0.076843742
v 0.013814790 -0.046835332 0.077126721
v 0.013787879 -0.044438992 0.091072958
v 0.003492561 -0.054232859 0.103407309
v 0.009300000 -0.046511244 0.077094788
v 0.009695351 -0.062313522 0.077255696
v 0.009588531 -0.040138761 0.095611988
v 0.013292110 -0.043340716 0.076698206
v 0.009300000 -0.051834468 0.079403582
v 0.009300000 -0.043230717 0.078488692
v 0.011273515 -0.062669174 0.076848785
v 0.009800000 -0.049271448 0.099628200
v 0.009321967 -0.056129418 0.078174118
v 0.011641228 -0.050799966 0.076991602
v 0.013800000 -0.047558706 0.083344596
v 0.013678686 -0.056012817 0.085330395
v 0.004877252 -0.062545666 0.076435658
v 0.010313296 -0.061296432 0.076031608
v 0.012586867 -0.047898507 0.075768835
v 0.010634153 -0.041621540 0.099746551
v 0.009720909 -0.050588855 0.075857403
v 0.009300000 -0.060207204 0.080559708
v -0.002492371 -0.040411682 0.082245410
v 0.010407956 -0.039284176 0.077524974
v 0.009300000 -0.041136736 0.077749128
v 0.009649729 -0.040281846 0.076792243
v 0.009651472 -0.047051036 0.076195794
v -0.010659054 -0.056292688 0.122679300
v -0.009949368 -0.053594728 0.139035426
v -0.003772783 -0.047078853 0.141200109
v -0.004222428 -0.058825494 0.142285979
v -0.003737958 -0.049756957 0.143051566
v 0.004255120 -0.052707679 0.143834589
v 0.002006812 -0.065001350 0.135056824
v 0.009551453 -0.064460454 0.110255869
v 0.009264948 -0.061216694 0.113929229
v 0.009310740 -0.042074911 0.112004231
v 0.009708557 -0.065736817 0.113239366
v 0.009619159 -0.041417102 0.113143964
v 0.010659526 -0.065757036 0.111043507
v 0.009867105 -0.042049643 0.111516496
v 0.011760927 -0.066515677 0.119619172
v 0.009354972 -0.065675058 0.120737433
v 0.010500000 -0.042163892 0.122157294
v 0.003896241 -0.046507757 0.133906536
v 0.011464785 -0.056957701 0.122256171
v 0.013412132 -0.065115787 0.109998503
v 0.013002539 -0.064495986 0.109024554
v 0.012600000 -0.041987017 0.110817425
v 0.011352931 -0.040978135 0.112117723
v 0.013429660 -0.042016969 0.111159779
v 0.013448528 -0.041246306 0.112086818
v 0.012819474 -0.063220294 0.120459772
v -0.011479893 -0.057907510 0.127978386
v -0.008407981 -0.056910578 0.136046571
v 0.009887854 -0.056523026 0.121942407
v 0.009249746 -0.062093169 0.125332266
v 0.008879506 -0.047409791 0.127892179
v 0.011429685 -0.053878301 0.113324545
v 0.009362132 -0.064829242 0.110878271
v 0.011146084 -0.050633489 0.110411746
v 0.010122845 -0.045307522 0.111572877
v -0.002944787 -0.040523430 0.109328387
v 0.004494367 -0.058490860 0.126312725
v -0.003024791 -0.066088411 0.125770529
v -0.007986638 -0.063976512 0.130458359
v 0.001667706 -0.066978342 0.119068202
v 0.007982854 -0.042916561 0.122048216
v 0.009943710 -0.052776746 0.112014007
v 0.010500000 -0.041124954 0.114732460
v 0.013800000 -0.055949825 0.114375288
v 0.000837046 -0.051668220 0.140168850
v 0.006169783 -0.065107593 0.127444843
v 0.009323300 -0.064447474 0.116107228
v -0.011295215 -0.057484229 0.130724766
v 0.013162397 -0.047215782 0.111931459
v -0.009499629 -0.062084512 0.126845289
v -0.001249589 -0.051819122 0.120057535
v 0.006174628 -0.064924031 0.125337127
v 0.012977118 -0.051959490 0.121439424
v -0.007142800 -0.050989596 0.141900742
v 0.009299083 -0.051741513 0.118375821
v -0.009001161 -0.062008838 0.124522536
v 0.011673699 -0.055868694 0.126540146
v -0.006869661 -0.046336664 0.131876273
v 0.013800000 -0.053590492 0.118759653
v 0.012401804 -0.064869653 0.119099191
v 0.001744634 -0.066316171 0.125255689
v 0.009800000 -0.041657058 0.117429659
v 0.011087125 -0.054420548 0.109974176
v 0.009557460 -0.042296729 0.113275070
v 0.011643221 -0.058424276 0.110082839
v 0.013800000 -0.060240728 0.111164655
v 0.013375683 -0.042909830 0.118232465
v 0.012716416 -0.065702977 0.115998539
v -0.002851002 -0.055477656 0.132849246
v 0.002083198 -0.066615772 0.129831947
v 0.010257229 -0.063668975 0.109313339
v 0.010666647 -0.063810242 0.110621474
v 0.011783634 -0.041390582 0.111127914
v 0.009188697 -0.062060820 0.129921950
v -0.007115690 -0.048584158 0.140275119
v 0.009310971 -0.050550073 0.114047105
v 0.000655503 -0.063407402 0.114938090
v 0.013624264 -0.052354880 0.110734323
v -0.006279129 -0.064099681 0.122790478
v 0.009365389 -0.044166943 0.114007668
v 0.012970947 -0.057267796 0.121349962
v 0.013773795 -0.061974539 0.114563503
v 0.013024273 -0.061156717 0.109316703
v -0.013438594 0.050821293 -0.064623341
v -0.018676867 0.031894441 -0.060907245
v -0.012223508 0.048374280 -0.071765315
v -0.016683444 0.056600149 -0.074901374
v -0.011631817 0.060837084 -0.076813477
v -0.002761986 0.062178005 -0.070533929
v -0.005836692 0.058039321 -0.084289693
v -0.008485616 0.057240922 -0.074183258
v -0.024808350 0.060236910 -0.081069433
v -0.001145500 0.063612858 -0.082220777
v -0.000429120 0.057155262 -0.073351225
v -0.000456145 0.068201097 -0.079093337
v -0.007090469 0.056785133 -0.078821427
v -0.023173938 0.063353691 -0.072688651
v -0.008428369 0.057812797 -0.067943532
v -0.023296819 0.067222036 -0.077254413
v -0.022080522 0.085890289 -0.082433997
v -0.025524263 0.117339302 -0.071124591
v -0.025379289 0.116929624 -0.071791422
v -0.024650000 0.117258478 -0.072039965
v -0.020405288 0.084150332 -0.066803480
v -0.001395584 0.115889032 -0.071844496
v -0.001051472 0.117761955 -0.071161568
v -0.025699999 0.092418580 -0.068944282
v -0.018279460 0.084892790 -0.067928915
v -0.007036650 0.100988451 -0.070898639
v -0.022231273 0.096916888 -0.066766963
v -0.018311388 0.117839595 -0.069333284
v -0.007505194 0.117379045 -0.071678492
v -0.015736405 0.112555010 -0.071910601
v -0.022947751 0.105444303 -0.067064414
v -0.013150000 0.118112087 -0.071192205
v -0.000176086 0.115674417 -0.084049486
v -0.025606168 0.093839307 -0.069295974
v -0.004717660 0.107431209 -0.071459720
v -0.006535194 0.118152667 -0.068659958
v -0.001825391 0.111492929 -0.081992354
v -0.019850253 0.111835313 -0.071847635
v -0.014495082 0.106385178 -0.066853611
v -0.024641228 0.111059373 -0.071732970
v -0.006449164 0.116690749 -0.067755244
v -0.017591512 0.112747156 -0.067410220
v -0.003624737 0.110532887 -0.067395465
v -0.002018049 0.116871715 -0.068546806
v -0.018354323 0.087971711 -0.068998663
v -0.010092758 0.108361793 -0.067026545
v -0.022887639 0.103425131 -0.071187942
v -0.019419002 0.090254540 -0.065442344
v -0.006690704 0.101148003 -0.067129289
v -0.001868373 0.112398172 -0.071878269
v -0.009329231 0.081231760 -0.070199439
v -0.004796506 0.117441067 -0.072084723
v -0.000700000 0.109140238 -0.070407257
v -0.012177797 0.117950311 -0.068618025
v -0.001941738 0.118112819 -0.071183842
v -0.012285865 0.113304813 -0.067459009
v -0.000989948 0.111425899 -0.071309900
v -0.000618416 0.099681203 -0.074668202
v -0.006591591 0.112793786 -0.071931491
v -0.020053975 0.117681058 -0.071668582
v -0.015264467 0.117250029 -0.072144959
v -0.012476460 0.116812065 -0.072283052
v -0.010078020 0.117347039 -0.071944136
v -0.010600753 0.114735854 -0.072101404
v -0.024814680 0.085631159 -0.068165007
v -0.017170095 0.116812065 -0.072283052
v -0.025410051 0.095852375 -0.069947376
v -0.017869731 0.117687993 -0.072006866
v -0.013415786 0.117687993 -0.072006866
v -0.012501423 0.113303683 -0.071976102
v -0.025553512 0.111976270 -0.070984219
v -0.015370859 0.105058609 -0.071254739
v -0.010431445 0.092098901 -0.065612336
v -0.025558310 0.106624134 -0.073279771
v -0.024065963 0.116295954 -0.069423739
v -0.025795771 0.153797595 -0.076992309
v -0.022998650 0.133664774 -0.071008038
v -0.009895510 0.155297180 -0.095160546
v -0.016968890 0.177446712 -0.091762383
v -0.016011127 0.176451709 -0.093743309
v -0.016418455 0.156950776 -0.096500145
v -0.016766140 0.174038461 -0.080930254
v -0.008052257 0.173017257 -0.094051143
v -0.007847345 0.177548142 -0.084471894
v -0.001319298 0.142413964 -0.073572446
v -0.000965035 0.156943742 -0.082850709
v -0.012745184 0.178967414 -0.089587194
v -0.003668474 0.162055969 -0.078609046
v 0.000350000 0.150853020 -0.089018963
v -0.007315136 0.134234609 -0.069698336
v -0.014241719 0.162314242 -0.097427517
v -0.018481544 0.152821221 -0.072297969
v -0.020558227 0.156021975 -0.075211614
v -0.013635143 0.155297090 -0.084994726
v -0.002448011 0.156969842 -0.076874396
v -0.008090909 0.164648683 -0.096257220
v -0.019367882 0.130460055 -0.072257592
v -0.021946161 0.160851278 -0.093697443
v -0.004231330 0.165254078 -0.079248113
v 0.000094764 0.143689556 -0.086860185
v -0.012124766 0.146697292 -0.075425571
v -0.024604873 0.161268475 -0.087498568
v -0.019893462 0.147455350 -0.093639640
v -0.023496411 0.155747606 -0.092386248
v -0.013058176 0.136355207 -0.074548355
v -0.021195732 0.152920930 -0.093433104
v -0.011850244 0.156797063 -0.075284991
v -0.023577794 0.159873581 -0.081178503
v -0.002513753 0.169609776 -0.087748533
v -0.011979271 0.151200487 -0.093472904
v -0.018440351 0.155470141 -0.094838198
v -0.020309727 0.132215587 -0.072356335
v -0.011353003 0.178266760 -0.091088650
v -0.013021583 0.156790990 -0.084585151
v -0.012593008 0.158562001 -0.074312711
v -0.002132635 0.160270990 -0.089123343
v -0.003332991 0.131824659 -0.072058069
v -0.022373474 0.157457168 -0.077033782
v -0.020581814 0.165689014 -0.077682369
v -0.000154806 0.149238421 -0.075578430
v -0.009214000 0.171877785 -0.081812184
v -0.013649066 0.156683199 -0.085828548
v -0.024962774 0.141184006 -0.073986211
v -0.002174398 0.130534986 -0.072630986
v -0.016946360 0.173869895 -0.094454416
v -0.021355277 0.164534531 -0.093937173
v -0.013928306 0.156748510 -0.084767062
v -0.017995105 0.133574533 -0.085493043
v -0.011240791 0.130617870 -0.071601693
v 0.000350000 0.153557510 -0.081833061
v -0.001526644 0.156485480 -0.088088587
f 165 1 4
f 1 245 4
f 165 5 1
f 1 5 245
f 127 70 2
f 70 274 2
f 221 127 2
f 2 195 221
f 195 2 307
f 2 274 359
f 2 359 307
f 3 123 56
f 56 287 3
f 197 123 3
f 3 219 197
f 219 3 300
f 264 3 287
f 3 264 300
f 155 5 4
f 4 5 264
f 6 77 4
f 223 6 4
f 56 123 4
f 56 4 346
f 77 346 4
f 123 155 4
f 264 165 4
f 223 4 222
f 245 222 4
f 5 165 123
f 5 123 264
f 5 155 245
f 42 6 61
f 6 42 281
f 6 108 61
f 6 281 77
f 108 6 252
f 223 252 6
f 112 9 168
f 355 9 112
f 9 143 168
f 9 355 143
f 29 10 137
f 188 10 29
f 10 114 137
f 276 114 10
f 10 188 116
f 116 276 10
f 11 41 148
f 11 348 41
f 225 11 96
f 324 96 11
f 11 148 344
f 225 348 11
f 324 11 344
f 12 98 84
f 84 335 12
f 98 12 353
f 12 162 172
f 162 12 335
f 12 172 220
f 184 12 220
f 12 184 353
f 158 108 13
f 13 108 174
f 145 127 13
f 127 312 13
f 229 145 13
f 343 158 13
f 229 13 174
f 13 312 182
f 13 182 343
f 38 14 30
f 239 30 14
f 38 139 14
f 139 331 14
f 14 179 239
f 14 331 179
f 15 74 16
f 15 16 187
f 15 317 74
f 15 187 262
f 15 197 255
f 197 15 333
f 15 255 317
f 322 15 262
f 15 322 333
f 16 74 292
f 187 16 123
f 16 227 123
f 227 16 169
f 169 16 292
f 90 17 74
f 260 74 17
f 90 126 17
f 126 109 17
f 17 109 280
f 122 110 17
f 110 283 17
f 17 280 122
f 17 123 165
f 17 187 123
f 260 17 165
f 187 17 227
f 17 292 227
f 17 283 292
f 43 152 18
f 296 43 18
f 328 18 152
f 18 328 296
f 21 19 137
f 19 21 177
f 137 19 106
f 177 106 19
f 174 138 20
f 20 138 295
f 20 164 174
f 164 20 295
f 78 40 21
f 21 40 180
f 78 21 114
f 177 21 106
f 21 180 106
f 21 137 114
f 108 150 22
f 22 343 108
f 209 22 150
f 289 22 209
f 289 343 22
f 23 87 136
f 87 23 295
f 23 136 196
f 164 23 196
f 164 295 23
f 125 25 44
f 44 25 249
f 125 251 25
f 25 314 249
f 25 251 340
f 25 340 314
f 27 270 94
f 94 343 27
f 270 27 95
f 95 27 289
f 289 27 343
f 120 28 48
f 28 128 48
f 120 352 28
f 319 128 28
f 267 319 28
f 352 267 28
f 137 153 29
f 29 153 188
f 38 30 189
f 30 239 146
f 318 30 146
f 318 189 30
f 104 252 31
f 31 277 104
f 31 252 233
f 297 31 233
f 297 277 31
f 32 53 64
f 53 32 204
f 146 32 64
f 86 32 181
f 204 32 86
f 181 32 146
f 33 75 201
f 33 272 75
f 268 190 33
f 33 190 272
f 33 201 268
f 200 34 267
f 200 272 34
f 34 319 267
f 329 34 272
f 329 319 34
f 35 57 105
f 350 57 35
f 83 35 235
f 83 350 35
f 35 105 215
f 143 35 215
f 143 235 35
f 48 128 36
f 48 36 148
f 112 148 36
f 112 36 326
f 326 36 128
f 67 37 111
f 350 37 67
f 37 68 231
f 37 350 68
f 111 37 231
f 139 38 91
f 38 332 91
f 189 199 38
f 199 332 38
f 40 78 63
f 180 40 63
f 120 48 41
f 148 41 48
f 348 120 41
f 42 61 81
f 42 81 278
f 42 278 281
f 170 152 43
f 170 43 356
f 296 356 43
f 125 44 162
f 44 172 162
f 172 44 213
f 44 192 213
f 192 44 249
f 202 182 45
f 182 226 45
f 187 45 233
f 187 265 45
f 197 45 226
f 45 197 233
f 45 242 202
f 45 258 242
f 265 258 45
f 95 134 46
f 46 259 95
f 136 46 134
f 46 136 174
f 182 46 174
f 46 182 265
f 265 187 46
f 46 187 306
f 259 46 198
f 198 46 309
f 306 309 46
f 47 104 197
f 297 104 47
f 346 47 197
f 277 47 281
f 297 47 277
f 281 47 346
f 49 81 61
f 61 195 49
f 81 49 195
f 237 217 50
f 50 217 296
f 237 50 349
f 345 50 296
f 349 50 345
f 73 52 216
f 328 52 73
f 52 152 170
f 52 328 152
f 52 170 189
f 52 189 318
f 318 216 52
f 244 64 53
f 66 65 53
f 53 65 244
f 53 204 66
f 167 237 54
f 54 353 167
f 349 173 54
f 353 54 173
f 54 237 349
f 197 219 56
f 346 197 56
f 287 56 219
f 58 57 350
f 57 58 354
f 110 105 57
f 354 110 57
f 58 67 243
f 350 67 58
f 243 253 58
f 58 253 354
f 90 74 59
f 59 74 96
f 59 215 90
f 324 59 96
f 99 215 59
f 99 59 324
f 61 108 158
f 158 195 61
f 128 319 62
f 326 128 62
f 326 62 160
f 62 355 160
f 62 319 161
f 351 62 161
f 185 62 351
f 62 185 355
f 65 69 63
f 244 65 63
f 69 261 63
f 176 63 78
f 244 63 176
f 261 180 63
f 64 216 146
f 64 171 216
f 171 64 244
f 65 66 79
f 69 65 263
f 263 65 79
f 66 111 79
f 111 66 204
f 204 67 111
f 243 67 204
f 235 68 83
f 68 350 83
f 185 231 68
f 235 185 68
f 263 261 69
f 274 70 127
f 192 249 72
f 72 341 192
f 72 249 314
f 251 72 340
f 341 72 251
f 340 72 314
f 276 116 73
f 116 328 73
f 73 216 171
f 171 276 73
f 74 229 96
f 317 229 74
f 260 292 74
f 75 200 153
f 75 153 201
f 200 75 272
f 233 76 104
f 278 104 76
f 233 197 76
f 76 197 278
f 281 346 77
f 78 114 276
f 176 78 171
f 78 276 171
f 111 231 79
f 231 268 79
f 263 79 268
f 195 278 81
f 173 117 82
f 225 82 117
f 225 173 82
f 173 93 84
f 93 209 84
f 310 84 98
f 173 84 310
f 335 84 209
f 86 181 92
f 243 86 92
f 204 86 243
f 87 174 136
f 174 87 138
f 138 87 295
f 90 215 126
f 91 331 139
f 166 159 91
f 331 91 159
f 166 91 309
f 91 332 309
f 179 92 181
f 92 179 214
f 323 92 214
f 253 92 218
f 323 218 92
f 253 243 92
f 103 209 93
f 248 103 93
f 173 134 93
f 93 134 248
f 125 147 94
f 125 94 251
f 252 94 147
f 296 251 94
f 252 343 94
f 270 296 94
f 124 95 259
f 124 270 95
f 134 95 289
f 225 96 174
f 174 96 229
f 98 353 310
f 143 99 168
f 143 215 99
f 324 168 99
f 100 267 102
f 328 100 102
f 100 188 200
f 188 100 328
f 200 267 100
f 102 267 101
f 102 101 296
f 352 101 267
f 352 296 101
f 296 328 102
f 209 103 248
f 197 104 277
f 233 104 297
f 252 104 278
f 110 215 105
f 273 137 106
f 261 106 180
f 106 261 273
f 261 107 201
f 268 201 107
f 107 261 263
f 107 263 268
f 186 108 147
f 108 252 147
f 150 108 186
f 108 343 174
f 126 303 109
f 109 303 280
f 280 110 122
f 253 178 110
f 283 110 178
f 215 110 303
f 253 110 354
f 303 110 280
f 344 148 112
f 160 112 326
f 355 112 160
f 324 112 168
f 324 344 112
f 116 188 328
f 117 173 349
f 308 225 117
f 291 345 117
f 117 349 291
f 308 117 345
f 159 166 119
f 159 119 331
f 119 166 306
f 214 179 119
f 119 179 331
f 323 214 119
f 119 306 323
f 120 348 308
f 352 120 308
f 155 123 245
f 300 123 197
f 292 123 227
f 123 260 245
f 292 260 123
f 264 123 300
f 296 124 259
f 296 270 124
f 125 186 147
f 335 125 162
f 186 125 334
f 125 335 334
f 126 215 303
f 266 127 145
f 274 127 183
f 127 336 183
f 312 127 221
f 127 266 336
f 173 136 134
f 209 248 134
f 289 209 134
f 196 136 173
f 153 137 273
f 355 235 143
f 274 224 144
f 224 307 144
f 252 144 257
f 278 144 252
f 307 257 144
f 359 274 144
f 359 144 278
f 151 145 229
f 336 145 151
f 145 203 266
f 336 203 145
f 181 146 239
f 318 146 216
f 186 334 150
f 334 209 150
f 151 229 226
f 151 226 336
f 188 153 200
f 273 201 153
f 221 195 158
f 206 224 158
f 206 158 343
f 158 312 221
f 312 158 224
f 190 161 329
f 161 190 351
f 329 161 319
f 174 164 196
f 165 223 260
f 165 283 223
f 165 264 293
f 283 165 293
f 306 166 309
f 184 237 167
f 184 167 353
f 169 187 227
f 187 169 292
f 189 170 199
f 170 356 199
f 171 244 176
f 172 213 192
f 220 172 192
f 174 196 173
f 173 225 174
f 173 310 353
f 182 174 343
f 337 178 253
f 337 283 178
f 181 239 179
f 202 258 182
f 226 182 336
f 265 182 258
f 312 327 182
f 182 327 336
f 274 183 224
f 312 224 183
f 266 312 183
f 266 183 327
f 327 183 336
f 184 220 192
f 341 184 192
f 237 184 341
f 231 185 351
f 185 235 355
f 197 187 300
f 187 197 333
f 252 187 233
f 293 241 187
f 306 187 241
f 187 252 300
f 333 262 187
f 283 187 292
f 283 293 187
f 231 190 268
f 190 231 351
f 329 272 190
f 278 195 307
f 202 197 226
f 197 202 242
f 197 242 258
f 262 255 197
f 317 197 258
f 262 197 317
f 278 197 277
f 296 259 198
f 198 356 296
f 332 198 309
f 198 332 356
f 199 356 332
f 273 261 201
f 258 202 226
f 312 203 240
f 203 336 240
f 266 203 312
f 224 206 254
f 254 206 252
f 206 343 252
f 335 209 334
f 237 341 217
f 251 296 217
f 217 341 251
f 253 218 337
f 218 323 283
f 337 218 283
f 287 219 300
f 223 222 260
f 245 260 222
f 223 283 241
f 293 223 241
f 252 223 293
f 224 254 307
f 308 348 225
f 229 258 226
f 229 317 258
f 240 266 327
f 336 266 240
f 327 312 240
f 241 283 323
f 241 323 306
f 254 252 257
f 293 300 252
f 254 257 279
f 254 279 307
f 255 262 333
f 255 333 317
f 257 359 279
f 359 257 307
f 322 262 317
f 293 264 287
f 278 277 281
f 279 278 307
f 279 359 278
f 287 300 293
f 345 291 349
f 345 296 308
f 296 352 308
f 322 317 333
f 362 361 360
f 360 361 364
f 362 360 364
f 362 363 361
f 361 363 364
f 363 362 364
f 370 365 366
f 366 365 373
f 370 373 365
f 366 367 370
f 367 366 380
f 380 366 373
f 370 367 380
f 368 372 371
f 368 371 380
f 368 375 372
f 380 375 368
f 374 373 369
f 381 369 373
f 378 374 369
f 377 378 369
f 369 381 377
f 381 373 370
f 382 370 380
f 382 381 370
f 371 372 382
f 380 371 376
f 371 382 376
f 378 372 374
f 372 380 374
f 375 380 372
f 372 378 383
f 383 382 372
f 380 373 374
f 382 380 376
f 377 381 378
f 378 381 383
f 383 381 382
f 399 396 385
f 396 435 385
f 399 385 426
f 385 435 426
f 386 388 405
f 386 412 388
f 386 405 447
f 430 412 386
f 430 386 447
f 426 387 399
f 387 453 399
f 387 434 415
f 415 444 387
f 430 387 426
f 430 449 387
f 445 434 387
f 453 387 444
f 387 449 445
f 405 388 400
f 388 417 400
f 417 388 412
f 389 390 404
f 436 390 389
f 404 436 389
f 442 404 390
f 390 436 425
f 390 425 442
f 400 417 391
f 424 400 391
f 391 417 412
f 424 391 412
f 436 430 394
f 430 447 394
f 447 436 394
f 408 409 395
f 395 434 408
f 409 433 395
f 433 414 395
f 434 395 414
f 430 396 399
f 396 430 426
f 435 396 426
f 398 397 420
f 432 397 398
f 422 413 397
f 413 448 397
f 420 397 448
f 422 397 432
f 398 416 431
f 398 439 416
f 420 439 398
f 432 398 431
f 430 399 453
f 446 405 400
f 437 410 400
f 410 446 400
f 400 424 414
f 425 400 414
f 400 425 437
f 409 408 401
f 408 434 401
f 409 401 416
f 401 431 416
f 445 431 401
f 434 445 401
f 409 402 403
f 403 402 421
f 409 416 402
f 416 439 402
f 402 439 421
f 403 441 407
f 407 443 403
f 443 409 403
f 421 441 403
f 407 441 404
f 407 404 442
f 404 441 418
f 452 404 418
f 452 436 404
f 446 447 405
f 409 407 433
f 407 409 443
f 423 428 407
f 423 407 442
f 433 407 428
f 437 447 410
f 447 446 410
f 411 424 412
f 412 430 411
f 411 415 424
f 415 411 444
f 453 411 430
f 453 444 411
f 413 422 430
f 430 436 413
f 452 413 436
f 448 413 451
f 451 413 452
f 414 424 415
f 415 434 414
f 414 440 425
f 440 414 433
f 418 441 419
f 452 418 419
f 441 420 419
f 451 419 420
f 451 452 419
f 421 439 420
f 421 420 441
f 448 451 420
f 449 430 422
f 432 449 422
f 428 423 425
f 425 423 442
f 428 425 440
f 436 437 425
f 428 440 433
f 432 431 445
f 445 449 432
f 436 447 437
f 454 455 500
f 455 454 518
f 518 454 456
f 456 454 524
f 500 523 454
f 523 524 454
f 455 457 491
f 518 457 455
f 500 455 484
f 522 484 455
f 522 455 491
f 457 456 458
f 456 457 518
f 519 458 456
f 456 524 519
f 491 457 458
f 486 458 519
f 486 525 458
f 491 458 525
f 463 459 461
f 459 471 461
f 459 463 464
f 464 484 459
f 459 480 471
f 459 478 480
f 515 478 459
f 459 484 498
f 459 498 522
f 505 515 459
f 526 505 459
f 522 526 459
f 493 460 498
f 506 460 493
f 522 498 460
f 460 506 522
f 463 461 471
f 487 462 488
f 462 487 489
f 488 462 490
f 490 462 489
f 463 484 464
f 463 467 465
f 484 463 465
f 467 463 471
f 513 465 467
f 513 484 465
f 472 468 466
f 468 502 466
f 511 466 469
f 466 526 469
f 466 514 472
f 509 496 466
f 496 526 466
f 502 509 466
f 514 466 511
f 474 467 471
f 467 474 508
f 508 513 467
f 472 476 468
f 476 517 468
f 468 496 509
f 526 496 468
f 502 468 509
f 517 510 468
f 510 526 468
f 526 511 469
f 480 478 470
f 478 515 470
f 470 490 480
f 490 470 517
f 515 505 470
f 517 470 505
f 489 474 471
f 480 489 471
f 476 472 514
f 497 473 507
f 514 473 497
f 507 473 511
f 473 514 511
f 489 508 474
f 508 499 475
f 512 475 499
f 508 475 513
f 513 475 512
f 476 488 490
f 488 476 514
f 490 517 476
f 495 479 486
f 479 525 486
f 479 520 491
f 525 479 491
f 495 520 479
f 490 489 480
f 484 513 483
f 523 484 483
f 495 483 499
f 495 519 483
f 512 499 483
f 483 513 512
f 524 483 519
f 523 483 524
f 498 484 506
f 500 484 523
f 522 506 484
f 486 519 495
f 488 497 487
f 487 508 489
f 497 499 487
f 508 487 499
f 497 488 514
f 491 520 522
f 492 499 507
f 492 520 499
f 492 507 511
f 511 520 492
f 498 506 493
f 520 495 499
f 499 497 507
f 505 510 517
f 505 526 510
f 511 522 520
f 511 526 522
f 529 527 528
f 527 530 528
f 527 529 530
f 530 529 528
f 531 551 565
f 531 569 551
f 565 569 531
f 533 543 532
f 576 533 532
f 568 532 543
f 576 532 568
f 543 533 576
f 536 535 534
f 550 534 535
f 578 536 534
f 550 578 534
f 536 567 535
f 550 535 553
f 535 567 553
f 567 536 537
f 578 537 536
f 537 550 567
f 550 537 578
f 538 568 543
f 538 543 571
f 538 576 568
f 577 538 571
f 538 577 576
f 540 557 545
f 564 540 545
f 557 540 554
f 554 540 567
f 567 540 564
f 542 541 550
f 541 542 562
f 550 541 556
f 556 541 552
f 561 552 541
f 562 561 541
f 580 542 550
f 562 542 559
f 542 580 559
f 565 554 543
f 554 571 543
f 576 565 543
f 544 548 549
f 548 544 575
f 544 549 564
f 564 555 544
f 544 555 575
f 557 564 545
f 560 548 546
f 548 581 546
f 562 560 546
f 561 562 546
f 546 581 561
f 564 549 547
f 547 549 580
f 567 547 553
f 547 580 553
f 564 547 567
f 560 549 548
f 548 575 581
f 580 549 560
f 550 553 580
f 556 569 550
f 550 577 567
f 569 576 550
f 577 550 576
f 556 552 551
f 563 551 552
f 551 569 556
f 572 551 563
f 551 572 565
f 561 563 552
f 557 554 565
f 577 554 567
f 554 577 571
f 564 557 555
f 557 574 555
f 555 574 572
f 572 581 555
f 575 555 581
f 574 557 565
f 562 559 560
f 559 580 560
f 561 581 563
f 581 572 563
f 565 576 569
f 574 565 572
f 582 618 588
f 646 582 588
f 598 582 617
f 618 582 598
f 582 646 617
f 643 619 583
f 583 619 645
f 623 643 583
f 583 645 623
f 603 584 594
f 609 594 584
f 603 640 584
f 640 609 584
f 585 588 607
f 645 588 585
f 607 623 585
f 645 585 623
f 586 589 587
f 587 603 586
f 586 612 589
f 586 603 612
f 589 639 587
f 587 640 603
f 587 639 640
f 588 606 595
f 607 588 595
f 606 588 618
f 646 588 645
f 589 612 592
f 616 589 592
f 639 589 616
f 592 599 610
f 592 612 599
f 616 592 610
f 610 593 616
f 629 593 610
f 631 616 593
f 629 631 593
f 594 605 597
f 597 625 594
f 603 594 625
f 609 605 594
f 606 622 595
f 607 595 625
f 595 622 625
f 596 602 635
f 602 596 647
f 596 635 638
f 640 596 638
f 596 640 647
f 605 642 597
f 597 614 613
f 597 613 643
f 597 642 614
f 625 597 623
f 597 643 623
f 598 617 615
f 598 615 624
f 624 618 598
f 610 599 618
f 618 599 612
f 601 600 614
f 627 600 601
f 614 600 636
f 600 627 646
f 636 600 645
f 645 600 646
f 611 601 604
f 604 601 614
f 627 601 611
f 629 611 602
f 602 611 635
f 602 647 629
f 603 641 612
f 641 603 625
f 604 635 611
f 604 614 637
f 635 604 637
f 638 605 609
f 605 638 637
f 605 637 642
f 618 612 606
f 606 612 622
f 623 607 625
f 638 609 640
f 610 624 615
f 610 615 629
f 624 610 618
f 628 627 611
f 628 611 629
f 622 612 641
f 636 613 614
f 613 636 619
f 619 643 613
f 637 614 642
f 617 630 615
f 629 615 630
f 616 631 632
f 639 616 632
f 617 646 630
f 619 636 645
f 622 641 625
f 630 627 628
f 646 627 630
f 629 630 628
f 632 631 629
f 647 632 629
f 639 632 647
f 638 635 637
f 639 647 640
f 655 668 649
f 707 655 649
f 649 667 666
f 666 707 649
f 667 649 695
f 695 649 668
f 653 650 651
f 650 695 651
f 701 650 653
f 650 701 695
f 677 653 651
f 695 677 651
f 673 660 652
f 692 652 660
f 666 685 652
f 652 696 666
f 652 667 673
f 699 667 652
f 685 699 652
f 652 692 696
f 653 677 701
f 656 654 686
f 656 707 654
f 705 654 678
f 707 678 654
f 654 705 686
f 655 656 686
f 656 655 707
f 655 661 668
f 684 661 655
f 686 684 655
f 657 663 658
f 657 658 665
f 657 706 663
f 665 696 657
f 696 706 657
f 658 663 676
f 665 658 676
f 702 673 659
f 703 659 673
f 687 702 659
f 703 687 659
f 671 664 660
f 692 660 664
f 668 660 688
f 660 668 709
f 671 660 709
f 660 673 672
f 660 672 688
f 661 694 668
f 661 684 694
f 693 677 662
f 662 677 695
f 691 693 662
f 691 662 695
f 700 676 663
f 700 663 681
f 681 663 706
f 683 664 671
f 664 683 681
f 664 681 706
f 664 706 692
f 675 665 682
f 708 665 675
f 665 676 682
f 665 680 689
f 665 708 680
f 704 665 689
f 665 698 696
f 704 698 665
f 685 666 667
f 707 666 696
f 673 667 670
f 701 670 667
f 699 685 667
f 695 701 667
f 695 668 688
f 694 709 668
f 672 669 688
f 669 672 691
f 688 669 695
f 695 669 691
f 703 673 670
f 693 687 670
f 670 687 703
f 701 693 670
f 682 671 686
f 671 682 700
f 700 683 671
f 684 686 671
f 684 671 709
f 673 702 672
f 672 702 691
f 679 675 674
f 674 675 682
f 679 674 682
f 675 679 708
f 676 700 682
f 701 677 693
f 678 707 705
f 682 690 679
f 690 708 679
f 680 708 689
f 681 683 700
f 690 682 686
f 684 709 694
f 690 686 705
f 687 693 702
f 689 708 704
f 690 705 708
f 693 691 702
f 706 696 692
f 696 698 704
f 705 696 704
f 705 707 696
f 708 705 704
f 712 710 711
f 714 711 710
f 710 712 713
f 713 714 710
f 713 712 711
f 711 714 713
f 716 715 720
f 721 715 716
f 719 715 717
f 724 717 715
f 719 723 715
f 715 723 720
f 721 722 715
f 722 724 715
f 720 725 716
f 716 725 721
f 724 719 717
f 722 721 719
f 723 719 721
f 722 719 724
f 725 720 723
f 725 723 721
f 726 745 738
f 780 726 738
f 745 726 756
f 756 726 758
f 758 726 780
f 727 733 730
f 765 727 730
f 737 733 727
f 727 772 737
f 776 727 765
f 727 776 772
f 754 728 731
f 728 766 731
f 732 728 734
f 728 732 785
f 734 728 747
f 736 728 769
f 736 776 728
f 747 728 754
f 728 782 766
f 769 728 784
f 728 776 782
f 728 785 784
f 729 742 731
f 731 766 729
f 729 763 742
f 766 763 729
f 733 770 730
f 770 765 730
f 762 731 742
f 754 731 762
f 747 732 734
f 747 767 732
f 785 732 767
f 733 737 735
f 733 735 770
f 735 737 759
f 770 735 759
f 768 736 740
f 736 769 740
f 736 768 772
f 781 736 772
f 736 781 776
f 737 738 745
f 737 749 738
f 745 759 737
f 772 749 737
f 749 750 738
f 750 780 738
f 740 751 750
f 750 768 740
f 751 740 764
f 769 764 740
f 741 767 747
f 747 774 741
f 761 741 753
f 753 741 774
f 741 761 767
f 744 762 742
f 763 744 742
f 752 744 743
f 743 744 771
f 743 776 752
f 771 763 743
f 763 776 743
f 744 752 755
f 755 762 744
f 744 763 771
f 746 745 756
f 760 745 746
f 760 759 745
f 778 746 756
f 746 757 761
f 746 778 757
f 761 760 746
f 774 747 754
f 757 758 748
f 767 757 748
f 786 748 758
f 748 764 769
f 786 764 748
f 767 748 785
f 748 769 785
f 749 768 750
f 768 749 772
f 750 751 786
f 750 786 780
f 751 764 786
f 775 755 752
f 770 752 765
f 776 765 752
f 752 770 775
f 760 753 759
f 774 759 753
f 760 761 753
f 774 754 762
f 775 762 755
f 758 778 756
f 757 778 758
f 761 757 767
f 758 780 786
f 759 775 770
f 775 759 774
f 775 774 762
f 766 782 763
f 782 776 763
f 769 784 785
f 776 781 772
f 787 842 813
f 844 787 813
f 837 787 844
f 787 837 863
f 842 787 865
f 787 863 865
f 788 834 790
f 790 840 788
f 844 834 788
f 788 840 861
f 861 844 788
f 791 804 789
f 789 861 791
f 804 844 789
f 844 861 789
f 791 790 792
f 840 790 791
f 793 792 790
f 825 793 790
f 825 790 834
f 791 792 804
f 861 840 791
f 804 792 793
f 860 804 793
f 824 793 825
f 793 824 856
f 860 793 856
f 795 794 819
f 794 795 857
f 819 794 799
f 799 794 857
f 833 795 819
f 851 795 828
f 795 862 828
f 795 833 863
f 841 795 837
f 837 795 863
f 862 795 841
f 851 857 795
f 798 809 796
f 822 798 796
f 809 800 796
f 850 796 800
f 850 822 796
f 819 799 797
f 797 799 854
f 802 797 801
f 854 801 797
f 802 826 797
f 797 863 819
f 863 797 826
f 829 809 798
f 848 798 822
f 848 829 798
f 806 799 807
f 868 799 806
f 799 857 807
f 799 868 854
f 800 809 859
f 800 859 821
f 866 800 821
f 866 850 800
f 812 802 801
f 854 812 801
f 805 802 815
f 802 805 816
f 812 815 802
f 802 816 838
f 802 847 826
f 802 838 847
f 803 827 839
f 827 803 848
f 853 803 839
f 803 853 848
f 804 843 817
f 804 817 844
f 804 860 843
f 815 817 805
f 805 843 816
f 817 843 805
f 807 852 806
f 868 806 852
f 852 807 869
f 807 857 869
f 808 810 835
f 859 810 808
f 821 808 835
f 859 808 821
f 811 809 853
f 811 859 809
f 853 809 829
f 810 811 853
f 859 811 810
f 810 853 835
f 867 815 812
f 867 812 845
f 845 812 868
f 854 868 812
f 836 834 813
f 844 813 834
f 842 836 813
f 817 815 827
f 815 839 827
f 839 815 867
f 816 832 838
f 832 816 860
f 860 816 843
f 844 817 827
f 863 833 819
f 835 820 821
f 821 820 862
f 828 820 849
f 820 828 862
f 835 864 820
f 849 820 864
f 866 821 862
f 822 837 827
f 848 822 827
f 837 822 866
f 850 866 822
f 836 824 825
f 826 847 824
f 826 824 865
f 842 824 836
f 824 842 865
f 824 847 856
f 825 834 836
f 863 826 865
f 837 844 827
f 828 849 851
f 829 848 853
f 864 845 830
f 845 868 830
f 830 852 851
f 851 864 830
f 852 830 868
f 838 832 856
f 856 832 860
f 845 835 853
f 845 864 835
f 837 866 841
f 847 838 856
f 845 853 839
f 839 867 845
f 841 866 862
f 849 864 851
f 869 851 852
f 857 851 869
f 870 871 872
f 871 870 873
f 870 872 873
f 872 871 873
f 875 876 874
f 874 884 875
f 883 874 876
f 874 883 878
f 885 874 878
f 885 884 874
f 875 879 876
f 879 875 881
f 875 880 881
f 880 875 884
f 879 880 876
f 880 882 876
f 882 883 876
f 882 877 883
f 877 882 884
f 883 877 884
f 883 885 878
f 880 879 881
f 882 880 884
f 885 883 884
f 886 893 903
f 934 893 886
f 895 886 916
f 895 927 886
f 936 886 903
f 886 943 916
f 927 920 886
f 934 886 920
f 886 936 943
f 888 887 889
f 888 940 887
f 887 944 889
f 940 944 887
f 943 888 889
f 943 940 888
f 889 907 909
f 907 889 944
f 909 943 889
f 917 934 890
f 942 917 890
f 934 920 890
f 942 890 920
f 913 891 892
f 891 924 892
f 902 906 891
f 926 902 891
f 904 891 919
f 928 891 904
f 891 906 919
f 891 913 926
f 921 924 891
f 928 921 891
f 924 913 892
f 893 896 903
f 893 934 896
f 895 904 927
f 904 895 941
f 916 941 895
f 918 900 896
f 896 900 943
f 896 936 903
f 896 934 917
f 896 917 942
f 918 896 942
f 936 896 943
f 923 901 897
f 897 901 938
f 925 897 911
f 944 911 897
f 925 923 897
f 937 929 897
f 944 897 929
f 897 930 937
f 930 897 938
f 901 923 898
f 898 932 901
f 905 898 923
f 898 905 924
f 898 924 921
f 928 898 921
f 928 932 898
f 907 935 899
f 899 941 907
f 935 930 899
f 930 939 899
f 941 899 939
f 900 908 911
f 918 908 900
f 944 900 911
f 940 943 900
f 900 944 940
f 932 938 901
f 906 902 927
f 902 926 927
f 919 906 904
f 906 927 904
f 904 939 928
f 941 939 904
f 910 913 905
f 910 905 923
f 905 913 924
f 916 909 907
f 916 907 941
f 929 935 907
f 907 944 929
f 908 925 911
f 912 915 908
f 918 912 908
f 925 908 915
f 909 916 943
f 910 912 913
f 910 925 912
f 925 910 923
f 912 922 913
f 925 915 912
f 918 922 912
f 922 926 913
f 920 927 918
f 942 920 918
f 927 922 918
f 922 927 926
f 928 933 932
f 928 939 933
f 935 929 937
f 931 930 938
f 930 931 939
f 930 935 937
f 931 932 933
f 931 938 932
f 939 931 933
f 945 961 962
f 961 945 992
f 945 962 987
f 987 973 945
f 945 973 997
f 945 997 992
f 946 959 961
f 946 998 959
f 946 961 992
f 966 946 992
f 998 946 966
f 947 950 960
f 947 980 950
f 969 947 958
f 958 947 1000
f 965 947 960
f 965 1000 947
f 979 947 969
f 947 979 980
f 948 956 949
f 949 994 948
f 951 956 948
f 994 951 948
f 956 982 949
f 994 949 982
f 950 995 960
f 950 973 967
f 967 995 950
f 980 973 950
f 953 956 951
f 968 953 951
f 968 951 988
f 951 971 988
f 995 971 951
f 951 994 995
f 952 953 978
f 952 982 953
f 952 965 960
f 994 952 960
f 978 965 952
f 982 952 994
f 982 956 953
f 968 978 953
f 954 961 959
f 954 959 993
f 961 954 976
f 954 964 976
f 964 954 989
f 969 989 954
f 969 954 997
f 954 993 997
f 955 999 958
f 1000 955 958
f 955 985 964
f 999 955 964
f 955 1000 985
f 957 984 964
f 964 985 957
f 984 957 968
f 985 968 957
f 958 999 969
f 993 959 998
f 995 994 960
f 962 961 976
f 962 976 987
f 991 963 983
f 996 983 963
f 996 963 991
f 984 976 964
f 989 999 964
f 985 965 978
f 965 985 1000
f 966 992 997
f 997 998 966
f 973 971 967
f 995 967 971
f 968 985 978
f 988 984 968
f 997 979 969
f 999 989 969
f 977 971 973
f 971 977 988
f 975 979 972
f 975 972 997
f 972 979 997
f 973 980 975
f 973 975 997
f 977 973 987
f 975 980 979
f 976 984 987
f 987 984 977
f 988 977 984
f 983 996 991
f 997 993 998
