# coarse_shortest_edge_1000.obj  (1000 v, 1738 f)  units: metres
v -0.027333497 0.018667520 -0.115443386
v -0.028081190 0.005696012 -0.083584886
v -0.027624773 -0.000060588 -0.042411750
v -0.026998390 -0.009862500 -0.009059794
v -0.027425466 -0.049575301 -0.044808186
v -0.025461175 0.009207677 -0.011037113
v -0.021353157 -0.009800000 -0.012602750
v -0.024488556 -0.005779615 -0.029772847
v -0.021915118 0.030731806 -0.024530526
v -0.021474310 0.008856517 -0.001265831
v -0.011733506 -0.019419692 -0.105761607
v -0.015926294 0.028829280 -0.097413912
v -0.020357579 -0.056607004 -0.007904011
v -0.015372357 -0.032724694 -0.011502060
v -0.012113862 0.008342668 -0.003994134
v -0.019053019 0.054958236 -0.010952410
v 0.011584044 0.048362356 -0.027809095
v -0.016237798 0.008517347 -0.028138600
v -0.029500000 0.032713789 -0.016339845
v -0.026003689 -0.017291054 -0.075308694
v 0.000786621 -0.032662821 -0.013645440
v -0.008573194 -0.000186613 -0.003796237
v -0.028624009 0.000385086 -0.101640130
v 0.000286837 0.033374058 -0.005660015
v 0.003601833 0.022368461 -0.115706737
v 0.006358977 0.042808044 -0.003292486
v 0.004289367 0.014897997 -0.099378156
v 0.001737277 0.048689926 -0.029605919
v 0.015300000 0.025911744 -0.036235722
v -0.029500000 -0.015899316 -0.079722309
v 0.010800000 0.016481479 -0.063212009
v 0.012156870 -0.031606080 -0.081396053
v 0.009548653 0.004360328 -0.044438811
v 0.008767267 -0.009525748 -0.010000000
v 0.011556224 0.049424216 -0.039468773
v 0.010167946 0.051954516 -0.007720943
v 0.019211297 0.006846740 -0.112999971
v 0.019777279 -0.005364166 -0.113481428
v -0.006010930 0.015851641 -0.015451781
v 0.008300000 -0.027323801 -0.033774292
v 0.008300000 -0.008614382 -0.073303522
v -0.003984662 -0.019759049 -0.116499998
v 0.015300000 0.039533033 -0.024711148
v -0.024639970 0.015102271 -0.008311136
v -0.028312744 -0.018210958 -0.042862918
v 0.015300000 0.042080049 -0.072027348
v 0.008618199 -0.003629820 -0.059713998
v -0.029500000 0.040271921 -0.038929208
v 0.002157424 -0.008425695 -0.080653412
v -0.021432294 -0.016825002 -0.110644406
v -0.004985553 0.032435724 -0.017992862
v 0.015300000 0.024391283 -0.072240378
v 0.015300000 -0.026180313 -0.027562715
v 0.008300000 -0.018688479 -0.065976857
v 0.015300000 0.001356504 -0.071685747
v -0.029500000 -0.018000005 -0.022933258
v 0.004475561 -0.016280616 -0.079822653
v -0.026116653 -0.025634097 -0.078248352
v -0.026875001 -0.010000000 -0.003867721
v -0.016575696 -0.045258543 -0.002965496
v -0.018394412 -0.000174335 0.001694986
v -0.028388233 -0.052761497 -0.014933337
v -0.026585938 -0.030206521 -0.017627912
v -0.027583753 -0.038315245 -0.001448222
v -0.012453763 0.032295324 -0.019597644
v -0.027437500 -0.026031677 -0.001600111
v -0.007768699 -0.029844368 -0.100833874
v -0.029500000 -0.008337844 -0.033612915
v 0.008300000 -0.014801804 -0.041684997
v 0.008298356 -0.016323312 -0.016420797
v 0.014067146 -0.019022532 -0.101266436
v -0.029057608 -0.041478226 -0.061803978
v 0.015300000 -0.022798710 -0.064017057
v -0.025538248 -0.024834393 -0.099613853
v -0.028457031 -0.009516671 -0.052231227
v -0.018447619 0.020666274 -0.103499368
v 0.008534385 -0.034631825 -0.016243170
v 0.008420988 0.023826432 -0.024151020
v 0.011497590 0.021358751 -0.105314638
v 0.015300000 0.013375784 -0.029420293
v -0.000958358 -0.049530035 -0.028556322
v 0.000929905 -0.028114801 -0.103718644
v 0.009503657 -0.026300890 -0.091901737
v 0.008361061 -0.028860759 -0.028399813
v -0.025669534 -0.009804104 -0.019205829
v -0.029500000 0.010831597 -0.023601777
v -0.029500000 -0.041750056 -0.038987951
v -0.029500000 -0.034210519 -0.032731898
v -0.012031479 0.017211126 -0.022559085
v 0.013693866 0.047065307 -0.063853872
v -0.000984884 0.002285929 -0.090039640
v 0.008300000 -0.037839270 -0.056626927
v -0.033092809 0.007399401 -0.115750933
v -0.026500000 -0.037531933 -0.069076445
v 0.008300000 -0.030738485 -0.060803492
v 0.015300000 -0.011081866 -0.047002376
v -0.004824194 0.029491871 -0.106301271
v -0.006451445 -0.028628393 -0.113823130
v 0.007442502 0.004634865 -0.031337386
v -0.001171004 -0.006928351 -0.025057191
v -0.013837828 0.009909375 -0.016499608
v 0.009366947 -0.050632194 -0.007703610
v -0.026249189 -0.015938350 -0.007494402
v 0.008587287 0.019046899 -0.031790593
v -0.026500000 -0.033794171 -0.060126469
v -0.029500000 0.001282292 -0.023358726
v 0.008300000 -0.004965623 -0.038306774
v 0.006966852 0.029490462 -0.015510389
v 0.007239511 0.018333650 -0.011952889
v 0.004131703 0.009657628 -0.116499998
v -0.028140686 0.000265754 -0.000610589
v -0.017607791 -0.028000001 -0.086975400
v -0.025762522 0.019041509 -0.083790411
v 0.007740496 -0.009180523 -0.013543954
v -0.029500000 -0.024276047 -0.030238620
v 0.014111968 0.011608848 -0.094548417
v -0.031271404 -0.014565156 -0.114533495
v -0.026500000 -0.020360111 -0.067034300
v -0.037726618 -0.007370256 -0.107488618
v 0.008136230 -0.039005712 -0.003779143
v -0.026336574 -0.009713079 -0.109391153
v 0.002455902 -0.051770752 -0.055703938
v -0.006195964 -0.052870656 -0.050610678
v 0.011668514 -0.049133299 -0.036680407
v 0.015300000 0.038717173 -0.061779950
v -0.019170178 -0.009800000 -0.022047084
v 0.002853963 -0.025347917 -0.080779824
v 0.008642339 -0.002916906 -0.002118570
v 0.015262568 -0.006612706 -0.011087901
v 0.015300000 -0.030567635 -0.028913301
v -0.018550762 0.026917284 -0.112062609
v 0.008300000 -0.018415645 -0.074249943
v 0.015300000 -0.029486206 -0.018686264
v 0.015300000 -0.021155137 -0.048052338
v 0.011448776 -0.049908654 -0.055424541
v -0.005175769 -0.028283264 -0.091244423
v -0.005763091 0.029376529 -0.017176149
v 0.015300000 0.008732531 -0.052344318
v -0.022465387 0.032138506 -0.012439191
v 0.013265548 0.046227218 -0.079382767
v -0.009105109 -0.002624577 -0.110279628
v 0.009183472 0.014085543 -0.003336009
v -0.028327437 -0.010578471 -0.000356708
v -0.000306215 -0.002842198 -0.011249636
v -0.026500000 -0.026537693 -0.049386758
v 0.015300000 0.011404358 -0.073860198
v -0.015161389 -0.028810129 -0.111595786
v -0.024514874 -0.043644865 -0.031111984
v 0.010483594 0.014261795 -0.049435261
v 0.012375524 0.025116825 -0.081646183
v 0.013807426 -0.005244852 -0.084217666
v -0.029500000 -0.029795667 -0.064042340
v -0.008030545 0.011514229 -0.023165039
v -0.028266380 -0.025727633 -0.091027774
v 0.015300000 -0.017451091 -0.073039769
v 0.011385303 -0.047417974 -0.070375485
v 0.010072510 0.009731934 -0.108824934
v -0.001567052 0.014072154 -0.107244133
v -0.025209613 0.040816489 -0.030929417
v -0.006069837 0.001968690 -0.027690626
v -0.004927716 0.027456366 -0.085877957
v -0.029500000 -0.032678968 -0.020367080
v -0.017662694 0.016599765 -0.040690617
v -0.026751998 -0.009825000 -0.005233456
v -0.026609375 -0.011490707 -0.012639835
v 0.008300000 -0.015589853 -0.032063146
v 0.011234502 -0.043464408 -0.080454502
v -0.029344313 0.039498673 -0.007982432
v -0.012005130 -0.000425565 -0.116499998
v 0.008300000 -0.035110006 -0.048043342
v -0.026500000 -0.037253413 -0.045509244
v -0.029500000 -0.034707481 -0.050034941
v -0.034354761 -0.015917903 -0.104369568
v -0.001094978 -0.011838346 -0.116499998
v -0.031940348 -0.015322897 -0.095513634
v 0.015300000 0.003025416 -0.061888415
v -0.022588264 -0.051517931 -0.024433029
v 0.005751574 0.013590147 -0.038370758
v 0.010722500 0.035721429 -0.054778432
v -0.032890237 0.017818873 -0.105835602
v 0.015300000 -0.033274521 -0.033656393
v -0.026500000 -0.032063708 -0.036190826
v -0.029500000 0.026374139 -0.035989414
v 0.006477944 0.033289098 -0.023133070
v 0.015300000 0.021101640 -0.050973703
v 0.008197166 -0.039108559 -0.034553696
v 0.002759198 0.031845523 -0.012026385
v -0.009634338 0.013907611 -0.083009600
v -0.020944831 0.007340861 -0.116499998
v -0.022823673 0.020541377 -0.017514900
v 0.010800000 0.008965708 -0.070614849
v -0.000446333 -0.004390174 -0.116499998
v -0.034345928 -0.002486300 -0.095146587
v -0.003082440 -0.052417820 -0.017884817
v -0.014677379 0.046740929 -0.004074097
v 0.004738396 0.010833543 -0.007211079
v -0.010583455 -0.009800000 -0.014993425
v -0.029500000 -0.005869765 -0.087126069
v -0.026504606 0.013353866 -0.011095015
v 0.009537623 0.013961176 -0.079865509
v -0.012026428 0.010665436 -0.037360903
v 0.002566996 -0.004103447 -0.019143115
v -0.026500000 -0.021841360 -0.018832052
v 0.010800000 0.040805015 -0.070642651
v -0.027503383 0.038798013 -0.043184756
v 0.002818576 0.004495978 -0.000397047
v -0.026802037 0.028413555 -0.026349469
v 0.015300000 0.018492440 -0.018621416
v -0.026825923 0.052836780 -0.006048199
v 0.010800000 0.031957872 -0.064425618
v 0.008300000 0.039313847 -0.037730349
v -0.026187500 -0.033349124 -0.006261868
v 0.004586597 0.009771566 -0.020056562
v 0.001913031 0.018760687 -0.083082454
v -0.010690238 0.042841158 -0.016389838
v -0.016460963 0.013244033 -0.019374809
v 0.001946909 0.011428759 -0.024141971
v -0.029500000 0.009085059 -0.008557531
v 0.011440014 -0.015464056 -0.089419587
v -0.001399402 0.006986421 -0.026285219
v -0.028281250 -0.040135575 -0.076420435
v -0.019211202 0.008416769 -0.082438664
v 0.008300000 -0.037253861 -0.070782122
v -0.027987982 0.022096333 -0.043375246
v 0.015300000 -0.003599188 -0.038802841
v -0.023414044 0.029714982 -0.020347221
v -0.024735254 0.014116845 -0.104355678
v 0.006643669 0.052394018 -0.018844896
v -0.030276028 0.019565401 -0.092682899
v 0.008300000 -0.028786080 -0.041459062
v 0.014349855 -0.025743570 -0.084313658
v -0.024600801 -0.022336025 -0.116499998
v 0.006499010 -0.033037241 -0.026155239
v -0.028815803 0.046095356 -0.018823531
v 0.008307813 -0.026502429 -0.018386132
v -0.016319612 0.027702732 -0.085541802
v -0.025794859 -0.033038166 -0.019448245
v 0.007908022 -0.050533286 -0.019911470
v -0.016444087 -0.052868689 -0.014930118
v -0.004057166 -0.036956818 -0.004251877
v -0.027437500 -0.008163974 -0.063077263
v -0.001614110 -0.040619457 -0.029268387
v -0.029500000 0.019704465 -0.027301479
v -0.010247451 0.028626458 -0.037428805
v 0.012347521 0.018461347 -0.114715025
v 0.001681152 0.003040320 -0.014437889
v -0.029500000 -0.042331232 -0.013364060
v 0.001481533 0.028027435 -0.100811750
v -0.029500000 -0.008833231 -0.024072257
v 0.013304719 -0.000615404 -0.092926028
v 0.006764614 -0.046198060 -0.048102041
v -0.025493955 -0.045299757 -0.051201037
v -0.029500000 -0.010332141 -0.004693332
v -0.029500000 -0.034207543 -0.009145531
v -0.021054433 0.030898848 -0.030726127
v 0.008232235 0.013200948 -0.025266245
v 0.008659953 -0.033261808 -0.009579796
v -0.020580167 -0.002390863 -0.089635693
v -0.013116333 0.003329159 -0.087800765
v -0.009850816 -0.004472235 -0.093541462
v -0.024147273 -0.002798686 -0.013837654
v -0.005756593 0.009800000 -0.013073851
v 0.014487273 -0.012273406 -0.082667210
v 0.010800000 0.025393933 -0.056025473
v 0.015300000 0.034229759 -0.045835381
v 0.007849987 0.010236292 -0.005405504
v 0.015300000 -0.036654318 -0.012269118
v 0.012864275 0.047131748 -0.050674563
v 0.010263637 -0.011532000 -0.005370311
v 0.015300000 -0.007222689 -0.020893139
v 0.008393677 -0.022069948 -0.112482552
v -0.005750009 -0.002924487 -0.081185215
v 0.008726522 0.008027322 -0.009998713
v -0.026584867 0.033589370 -0.007881035
v -0.001834579 0.034990885 -0.027188540
v -0.029500000 -0.006919184 -0.013658320
v 0.015300000 0.012325309 -0.040612643
v -0.017539331 -0.032317424 -0.019345058
v 0.015300000 0.025986409 -0.061999861
v 0.010175000 0.002477535 -0.064379243
v 0.012918782 -0.048246108 -0.046204172
v 0.009120916 -0.031935026 -0.004073724
v 0.008409375 -0.029372458 -0.010825926
v -0.005867354 -0.049337565 -0.049688719
v -0.029500000 0.002660580 -0.012765633
v 0.008799119 0.009875000 -0.005593793
v 0.008300000 -0.028088651 -0.048785359
v 0.015300000 -0.028970587 -0.042365018
v -0.020385102 -0.041793794 -0.016188296
v -0.005746985 0.030900569 -0.026462946
v 0.015300000 -0.040046452 -0.036063708
v -0.007241330 0.007817228 -0.099458040
v 0.015300000 0.004649563 -0.031315786
v 0.009877505 -0.020312621 -0.002579222
v -0.037149170 0.009024509 -0.102729536
v 0.020470977 -0.004559542 -0.102309076
v -0.026640980 0.009800000 -0.004149290
v 0.012254330 0.035274616 -0.006049549
v 0.014428280 0.046560686 -0.016569127
v 0.015300000 0.001485204 -0.046112124
v 0.008160992 -0.033976083 -0.010714146
v -0.026989997 0.033273610 -0.006694740
v -0.001195762 0.051820869 -0.007412090
v 0.015300000 -0.037098770 -0.024570730
v -0.022872919 -0.026266155 -0.106116725
v 0.007632760 0.011937667 -0.030247185
v -0.024127061 0.036852748 -0.000755650
v 0.008300000 -0.020028865 -0.054704339
v 0.015300000 -0.010399717 -0.064276773
v -0.015485094 -0.028394089 -0.094755475
v -0.028684844 0.013494868 -0.003331851
v -0.007592881 0.029539894 -0.114695430
v -0.027154991 0.027311792 -0.089311523
v 0.012271361 0.034211455 -0.076092238
v -0.009956782 0.019246621 -0.116499998
v -0.007952342 0.048178173 -0.028441490
v -0.029500000 0.014401588 -0.036618089
v 0.015300000 -0.035889935 -0.068291641
v -0.014068871 -0.050408043 -0.057519891
v 0.008517585 -0.009736099 -0.006986562
v -0.026436584 0.010183019 -0.004624141
v 0.015300000 -0.004299772 -0.029743139
v -0.026398838 0.011033460 -0.013569574
v 0.010210772 0.003110319 -0.019085209
v 0.009979950 0.024484302 -0.093785463
v 0.008795718 0.033111106 -0.007261379
v 0.011782117 0.008580824 -0.005729978
v -0.002299709 0.042530573 -0.002333053
v -0.025138483 0.008254621 -0.035441353
v 0.011710405 -0.026660016 -0.028754796
v -0.029500000 -0.027659842 -0.010322050
v 0.007915274 -0.010893985 -0.023966768
v -0.010244585 -0.015159835 -0.080114791
v -0.027000001 -0.032823270 -0.010121094
v -0.018106371 -0.036902481 -0.030567853
v -0.024125042 0.046355797 -0.011175172
v 0.006896216 -0.010732722 -0.007013706
v 0.008008043 -0.005123388 -0.104315028
v 0.004957825 0.006311604 -0.081302743
v -0.026285198 -0.050378013 -0.003743407
v -0.011808450 -0.006601451 -0.028732066
v -0.013443088 0.034107313 -0.029619399
v -0.026919472 -0.033464847 -0.006229942
v -0.029500000 0.037204029 -0.028738837
v -0.027000001 -0.033125198 -0.010112156
v 0.008318765 0.027025398 -0.002944050
v -0.026999207 0.009950000 -0.005974700
v -0.026580222 -0.009996323 -0.005576289
v -0.026521855 -0.009444791 -0.008356804
v -0.000452581 -0.052487943 -0.042355998
v 0.004702877 -0.007923311 -0.090242123
v 0.000064570 0.028869155 -0.093519281
v 0.015300000 0.011815472 -0.062951302
v -0.029500000 -0.044741253 -0.026527336
v -0.025497809 0.024939606 -0.103440153
v -0.006387271 -0.020178797 -0.092253344
v -0.003791605 -0.010959186 -0.086952830
v -0.026637247 -0.010000000 -0.008539157
v -0.012953274 -0.009923393 -0.091615573
v -0.016267188 -0.008842088 -0.103224007
v -0.006867372 -0.015654567 -0.100744431
v 0.000471806 -0.001936753 -0.102436954
v 0.001898497 0.009190877 -0.095025605
v -0.014999348 0.002519927 -0.100486132
v -0.015809158 0.011272479 -0.103059717
v -0.003733802 0.019993024 -0.099110640
v 0.008047619 0.033008793 -0.006636374
v 0.015746346 -0.009983704 -0.095114367
v -0.007570817 0.024659414 -0.021488851
v 0.000424412 -0.011203109 -0.010984682
v 0.005905125 0.040330860 -0.029422253
v 0.003416396 -0.019891277 -0.101673597
v -0.015957173 0.011947967 -0.093488353
v -0.025306130 -0.006755550 -0.078298775
v -0.000710088 -0.015484609 -0.094923577
v -0.015333111 -0.024605738 -0.080170769
v -0.012780803 -0.009592062 -0.116499998
v -0.009357403 0.008656313 -0.108561706
v -0.000738624 -0.006187827 -0.107224788
v -0.027752465 0.050038589 -0.040966372
v 0.007993573 0.035121116 -0.014548972
v 0.005070138 -0.008207423 -0.111811200
v -0.023538041 -0.003239470 -0.116499998
v -0.026937501 -0.033370469 -0.004942247
v 0.008800000 0.009218893 -0.003786532
v -0.018674314 0.019897208 -0.029093527
v 0.014667089 0.025989639 -0.010507706
v 0.003999136 0.028330218 -0.038576566
v -0.003767905 -0.012284846 -0.108351100
v -0.026500000 0.032593535 -0.005862738
v -0.027842252 0.027497891 -0.007767556
v -0.026500000 -0.018523783 -0.055058025
v -0.020807087 -0.013626806 -0.116499998
v -0.029500000 0.016959526 -0.013930529
v 0.015300000 -0.008525590 -0.074261845
v 0.012888189 0.002481752 -0.104260302
v -0.013423275 0.000678336 -0.021706997
v -0.002371432 0.002981791 -0.109943924
v 0.015300000 0.035719996 -0.014290930
v -0.017839912 0.006593489 -0.111424643
v 0.009261249 -0.049811457 -0.028118438
v -0.013777035 -0.019201179 -0.116499998
v -0.017667648 -0.009481708 -0.003548087
v 0.013053351 -0.013409648 -0.115958026
v 0.015300000 -0.041398570 -0.056201855
v 0.010245161 0.000699735 -0.116499998
v 0.015221361 -0.044688363 -0.016923516
v 0.008300000 -0.021689763 -0.025623253
v 0.004280772 -0.010884092 -0.106546413
v -0.018516385 0.051474632 -0.025261940
v 0.015300000 -0.012389217 -0.034958461
v 0.015300000 0.011039040 -0.013977848
v 0.014190922 0.004940147 -0.007818187
v 0.012367470 -0.032217393 -0.024884591
v 0.015300000 -0.021857526 -0.034162296
v 0.004431072 0.022763587 -0.032857211
v -0.014938432 0.027052280 -0.019037495
v 0.008300000 -0.012331016 -0.053357848
v -0.025387726 -0.029064862 -0.011363206
v -0.026949760 -0.007037844 -0.011683194
v 0.015300000 0.035805919 -0.032639641
v -0.011301008 -0.049517275 -0.028133635
v -0.001990671 0.041197547 -0.016097068
v 0.020473349 0.002766502 -0.097163450
v -0.017200212 0.033956941 -0.006127444
v -0.019766957 0.027390688 -0.039736763
v 0.015300000 0.002801830 -0.022381715
v -0.027496026 -0.050620314 -0.056848699
v 0.013748384 0.002713254 -0.084307206
v 0.010507031 0.005294504 -0.053909733
v 0.015300000 -0.007433799 -0.054163958
v -0.015630509 -0.050889968 -0.045855947
v 0.002227110 0.023069862 -0.089289106
v -0.008092033 0.033881703 -0.008671422
v -0.004663734 -0.047639649 -0.004997146
v 0.015300000 -0.033177838 -0.057766881
v 0.008300000 -0.006470717 -0.050013465
v 0.015300000 -0.018626868 -0.024026947
v -0.026500000 -0.023575451 -0.030479264
v -0.029500000 -0.013936926 -0.060920167
v 0.013008136 0.016842364 -0.085998778
v 0.015300000 0.001443392 -0.016269323
v 0.015300000 -0.035873286 -0.044747925
v -0.016131964 0.021039477 -0.090181957
v 0.015300000 0.028845361 -0.023689843
v 0.018336948 0.011920016 -0.104872981
v -0.030118077 0.012293466 -0.090972647
v 0.010800000 0.021556036 -0.070348464
v -0.011051247 0.018984008 -0.108662576
v -0.022397355 -0.014861061 -0.092651419
v -0.029500000 -0.020504172 -0.053950157
v -0.000357608 -0.043450557 -0.017555352
v -0.006694437 -0.009316746 -0.005087752
v -0.027861760 0.011583170 -0.043104719
v 0.005608386 -0.030392415 -0.006342721
v -0.003618877 0.015743958 -0.039754652
v 0.014006830 -0.030115718 -0.008232066
v -0.012197476 0.011908537 -0.116499998
v 0.013175707 -0.004145010 -0.006730571
v 0.017437419 -0.013823172 -0.105474844
v 0.009862500 0.000236332 -0.071245701
v 0.007382532 -0.007871868 -0.010003182
v -0.007671112 0.052068639 -0.018472412
v -0.001838980 0.010805023 -0.031271309
v -0.016100866 -0.052775914 -0.051693583
v -0.029500000 0.005467879 -0.034434643
v -0.035109998 -0.003316891 -0.116289436
v -0.029500000 0.027667563 -0.023570296
v -0.003015019 0.000901215 -0.000756970
v -0.010251633 -0.042429660 -0.014151493
v -0.003726217 -0.032599835 -0.024370745
v -0.016594685 0.047066597 -0.031738308
v 0.004173762 0.056785771 0.008810526
v -0.000707503 0.044357947 -0.001163185
v 0.000395733 0.033516027 0.003847962
v -0.000998621 0.057627182 0.005610982
v -0.005144992 0.055297355 0.002741279
v -0.005955893 0.057124136 0.013474471
v -0.006456676 0.054722693 -0.002049420
v 0.007586529 0.044671485 0.000358450
v 0.002594792 0.051638260 0.001934957
v -0.004655088 0.043096250 0.001953769
v -0.009364607 0.055752199 0.025952604
v 0.010561322 0.040415927 0.020192456
v 0.004638824 0.052385247 0.008488298
v 0.007984330 0.060228079 0.073882187
v 0.000141703 0.048237508 0.018994001
v -0.000438269 0.060932341 0.043389090
v 0.013727275 0.038616368 0.041606388
v 0.010356740 0.043313721 0.063662285
v -0.009800000 0.045161990 0.027832638
v -0.000246203 0.048111807 0.062078038
v 0.013800000 0.045589367 0.053178838
v -0.009465772 0.054355506 0.036678625
v -0.007899298 0.037619220 0.013052518
v 0.000459242 0.033434562 0.022264986
v -0.000482280 0.050337174 0.054668913
v -0.009597437 0.040376960 0.060462075
v -0.000713618 0.060066651 0.066374339
v -0.009652667 0.051276804 0.067012424
v -0.006022441 0.034143591 0.040045829
v 0.010398680 0.058695487 0.036623346
v 0.012054858 0.059014814 0.049383609
v -0.006052737 0.061095092 0.054787304
v 0.006668775 0.040340256 0.076687323
v -0.000767471 0.057637841 0.021412011
v 0.006811615 0.039101857 0.009625363
v 0.003300265 0.061552350 0.054969950
v 0.008920672 0.049980881 0.072748276
v 0.013800000 0.049340297 0.034842695
v -0.006862711 0.041189497 0.071061934
v -0.003163426 0.057203424 0.076121132
v 0.008679588 0.056003336 0.020971062
v 0.005683595 0.053805920 0.050720228
v 0.006465109 0.049640773 0.056687611
v -0.001911904 0.059793024 0.030366651
v 0.010991651 0.036334904 0.032835700
v 0.004192056 0.033820303 0.043073114
v 0.011818904 0.036537079 0.052153287
v 0.010982242 0.055872448 0.060871563
v -0.006912664 0.050594246 0.009846636
v 0.005345202 0.043759373 0.038185116
v 0.004802760 0.044415823 0.027479245
v -0.002317564 0.040542874 0.029988685
v 0.005976549 0.040609978 0.055321794
v -0.000192930 0.040841614 0.049043348
v -0.000840139 0.047700128 0.077516931
v -0.009105522 0.035344297 0.026172800
v -0.009800000 0.052183452 0.051782209
v 0.013800000 0.046643034 0.044731673
v 0.002796310 0.037492746 0.063713754
v 0.001199638 0.034709003 0.053445240
v -0.009605728 0.043606706 0.045375764
v -0.008887483 0.036079062 0.050354841
v -0.002341095 0.038041698 0.069846175
v -0.001508639 0.062880619 0.072706660
v -0.004451353 0.064767212 0.093818731
v -0.004434567 0.062274083 0.110674401
v 0.011305950 0.052890937 0.099240898
v -0.009503793 0.059627976 0.089062009
v 0.000458102 0.053758466 0.102877299
v 0.007452126 0.038637683 0.092898812
v -0.007543972 0.046263610 0.112956520
v -0.008520665 0.056424525 0.080405614
v -0.008924727 0.047523350 0.084942469
v 0.007535113 0.046742968 0.110843822
v 0.012960711 0.043386898 0.098042034
v 0.011854517 0.053710343 0.078768908
v -0.000243134 0.052242766 0.079805569
v 0.001405510 0.040478152 0.079651809
v 0.006315708 0.037402489 0.072041091
v 0.012398393 0.044402539 0.080729391
v -0.003162584 0.064461472 0.083734308
v -0.002952583 0.037337084 0.079075624
v 0.004617163 0.061987844 0.078802178
v 0.002537103 0.040318392 0.100514593
v -0.001587029 0.053452035 0.115617911
v -0.009764846 0.061736722 0.103187376
v 0.013800000 0.045944031 0.090196049
v 0.008145499 0.038038762 0.083904472
v 0.005934348 0.064673926 0.088425435
v -0.006818376 0.039023163 0.092700631
v -0.009655575 0.046946408 0.100232036
v 0.013765010 0.055809953 0.087186431
v 0.007401668 0.062566734 0.098395952
v 0.002671051 0.050908416 0.091936861
v 0.007560276 0.058994766 0.110967899
v -0.000050474 0.064917168 0.107106399
v 0.001273394 0.052634931 0.118601674
v -0.002137013 0.060007430 0.142306721
v -0.000010996 0.045800586 0.137102431
v 0.008954714 0.061348613 0.136453406
v 0.011368442 0.052383425 0.126799750
v 0.000148040 0.041002645 0.110752377
v 0.005543963 0.052927617 0.142900029
v -0.006529314 0.045721392 0.122130643
v 0.000787786 0.043125204 0.126609762
v -0.006695697 0.065157420 0.117602275
v 0.006776803 0.040641280 0.120104071
v -0.010581387 0.058921705 0.131785363
v -0.010191550 0.055710237 0.120358782
v 0.004403298 0.066821406 0.117809484
v 0.011753651 0.060982967 0.122115827
v 0.010818897 0.045037589 0.119937593
v 0.010768630 0.056205638 0.113306909
v 0.008513026 0.064883232 0.113436549
v -0.000245380 0.066120125 0.131004084
v -0.006929442 0.012695001 0.005521154
v -0.002064388 -0.006936257 0.005113058
v -0.002711125 0.012348052 0.016985897
v 0.000374634 -0.000863638 0.001866549
v 0.003727233 0.012487500 0.010611921
v -0.006375330 -0.009887653 0.002462697
v -0.007739997 0.002282156 0.002208777
v 0.005100211 0.009094746 0.001960099
v -0.003496970 -0.012805180 0.015512378
v 0.006090854 -0.010967056 0.007956708
v -0.001404122 0.005510634 0.005164252
v -0.009293130 0.010784237 0.031338558
v 0.004880166 -0.003280572 0.045988641
v -0.002097625 0.005065204 0.009098418
v -0.001769329 0.011731790 0.022592489
v 0.009145171 0.005894045 0.071517341
v 0.012024448 -0.007756293 0.028259075
v 0.012047551 0.010371774 0.029675742
v 0.010183665 -0.000946530 0.020863380
v 0.001769213 -0.012296280 0.024642237
v -0.009800000 -0.000575129 0.029739543
v -0.000870203 0.005042173 0.052561820
v -0.009800000 -0.004392006 0.052781912
v -0.005638860 -0.011515904 0.062881452
v 0.003728557 -0.004974339 0.030139796
v -0.000527409 0.011596375 0.065676346
v 0.013800000 -0.004523286 0.049439240
v -0.006151526 -0.008909628 0.011391189
v -0.004076502 0.003421898 0.079063217
v 0.011552045 -0.012340819 0.045364784
v 0.006018686 -0.002168515 0.009823537
v -0.009537981 -0.010051901 0.034978654
v -0.007560540 0.010675688 0.056964376
v -0.001339877 -0.003487074 0.057452901
v 0.001903396 0.013450000 0.051990918
v -0.009800000 -0.000680409 0.066465823
v 0.012133606 -0.001996329 0.062470715
v 0.011528326 0.010289975 0.045546950
v 0.007067695 -0.008664194 0.073629292
v 0.008931505 0.009390846 0.014850753
v 0.011412912 0.009441991 0.058922631
v 0.009859560 -0.011931334 0.056170383
v 0.006442046 0.003971642 0.036851541
v -0.009346036 -0.001832786 0.042851890
v -0.000802732 -0.002418968 0.022646100
v 0.000406579 -0.013550000 0.035923597
v 0.001673538 0.013450000 0.036684146
v 0.013800000 -0.001879289 0.036946764
v 0.000301038 -0.013550000 0.054435710
v -0.009675163 0.007970607 0.071071735
v -0.009593469 0.006629244 0.017882482
v -0.004605162 -0.009274301 0.075567923
v -0.008060095 0.011039130 0.042910002
v 0.005895827 -0.010637153 0.013327396
v -0.008287696 -0.009809869 0.022867528
v -0.006444601 -0.012524079 0.046092530
v -0.000898897 -0.012568073 0.074572789
v 0.005004373 -0.009687496 0.113878124
v 0.008907969 -0.013031145 0.088755080
v -0.002040019 0.012048394 0.072326644
v -0.004778022 0.006617924 0.082773487
v 0.009029529 0.012670324 0.090690585
v 0.009857968 -0.010748480 0.081052716
v -0.001644247 -0.010991243 0.105908887
v 0.007288526 0.008028141 0.115707389
v -0.005045545 -0.007469452 0.116850881
v -0.001741286 0.012837884 0.097661205
v -0.009448229 0.006498711 0.099568856
v 0.000521959 0.013011562 0.082083091
v -0.000760076 0.000777751 0.100314099
v 0.013800000 0.003181937 0.092585499
v -0.001219551 -0.013381250 0.095202159
v -0.009599071 0.000382700 0.109865023
v 0.009549486 -0.001716983 0.111355492
v 0.002317271 -0.004579635 0.090849178
v 0.011914599 -0.008200374 0.098829755
v -0.001303629 0.004977256 0.090926835
v 0.010522472 0.006223801 0.082281777
v -0.004165037 0.008821301 0.117178165
v 0.002305908 -0.000627168 0.118203704
v -0.009417674 -0.002284157 0.088222365
v -0.009471457 -0.008476323 0.095657993
v 0.001255513 -0.008668934 0.082318949
v 0.010094677 0.008041905 0.102940657
v -0.000591761 0.010686288 0.109331929
v -0.006833857 0.011551954 0.087722435
v -0.008601706 -0.008002182 0.134698954
v -0.008049015 0.012487500 0.106542441
v 0.003903847 -0.000516195 0.120743194
v 0.002707690 -0.011927118 0.109832459
v 0.006711174 0.009221585 0.136608306
v 0.006719482 -0.002657043 0.144596393
v -0.011397694 -0.001374255 0.130395547
v 0.000448842 -0.011010597 0.136837115
v 0.010586862 -0.003345091 0.136633631
v -0.005545882 -0.012133686 0.106377590
v -0.004258466 -0.010919460 0.123325561
v -0.007189975 0.007197262 0.139904696
v 0.000728160 0.005305951 0.145264271
v 0.001115058 0.011973090 0.127933237
v 0.012327972 0.008020423 0.118958337
v 0.000607493 -0.008966049 0.119705667
v -0.003081589 0.011162500 0.114742483
v -0.006882011 -0.004267513 0.143361202
v 0.009649234 -0.009118514 0.124183651
v -0.008752119 0.007678905 0.131580416
v 0.001041582 0.012266853 0.109123668
v -0.001344789 -0.013450000 0.113417029
v -0.007122846 -0.012312500 0.116889371
v -0.005623971 0.005693984 0.121452169
v 0.005032382 0.009888705 0.120207424
v -0.006105189 0.012925163 0.117794078
v 0.011322089 0.003472675 0.127751600
v 0.001854666 -0.032909287 0.002516360
v -0.009545247 -0.034207772 0.001750715
v -0.002419002 -0.033461501 0.009713443
v -0.002418131 -0.056732720 0.001364103
v -0.002480021 -0.056792857 0.010773253
v -0.006068751 -0.049202940 0.001877469
v 0.000482573 -0.046092298 -0.001359525
v 0.005718951 -0.050765527 0.001664232
v -0.009205393 -0.058447789 0.042357886
v 0.001119636 -0.058714669 0.024563509
v 0.003258611 -0.046386994 0.052772760
v -0.002320001 -0.059337986 0.074563472
v 0.006053937 -0.060033363 0.068101413
v 0.005713750 -0.044973637 0.031964186
v 0.010700422 -0.039931350 0.060283548
v -0.002869977 -0.046637283 0.017344232
v 0.004634499 -0.044955465 0.043853363
v -0.009193409 -0.041590523 0.062095009
v 0.001053262 -0.050688853 0.063063256
v 0.013718733 -0.041196783 0.029810040
v -0.008487516 -0.054813963 0.023887636
v -0.001276226 -0.052699439 0.043885838
v -0.000695858 -0.061633940 0.050261043
v 0.001131319 -0.034297528 0.047594676
v 0.007011611 -0.039797872 0.069375787
v 0.008419758 -0.061149499 0.050735014
v -0.006316247 -0.058158903 0.063251960
v -0.006557566 -0.035427403 0.034901026
v -0.009071798 -0.049760991 0.071516542
v 0.007811167 -0.033602862 0.034185608
v -0.009641875 -0.049073351 0.039524278
v -0.008245041 -0.057675624 0.033381132
v -0.007933930 -0.034104969 0.024914174
v 0.003552823 -0.049494671 0.007088197
v 0.013788601 -0.049101087 0.051505011
v 0.008495863 -0.038155834 0.011922608
v -0.009800000 -0.044412748 0.018138839
v -0.006563864 -0.044462806 0.075886506
v -0.006736308 -0.054609324 0.013628871
v -0.000440954 -0.035978518 0.007823871
v -0.009200137 -0.057181041 0.053514995
v 0.002953320 -0.034226066 0.018093606
v 0.004009115 -0.041041134 0.077230181
v -0.009800000 -0.044817051 0.051826484
v 0.011688360 -0.044377313 0.022576890
v 0.010926273 -0.058872476 0.058210488
v -0.008741202 -0.036717858 0.046668745
v 0.005512871 -0.050448695 0.075831906
v -0.000733093 -0.035019119 0.055842485
v 0.002425869 -0.039136776 0.025781469
v 0.006843404 -0.055776949 0.015899657
v -0.001185277 -0.049632467 0.027372374
v 0.013800000 -0.046987166 0.041452823
v 0.012422933 -0.050263619 0.060194439
v -0.009800000 -0.042703915 0.026553656
v 0.010459167 -0.053249918 0.022634229
v 0.011594043 -0.035418415 0.049654401
v -0.007939496 -0.036064016 0.011244549
v 0.009800000 -0.050044870 0.066060885
v -0.000764249 -0.038664797 0.066708337
v 0.013187509 -0.056310716 0.035626772
v 0.008476215 -0.033570724 0.024902029
v 0.012703056 -0.036837276 0.042116487
v -0.006405746 -0.045836786 0.006780843
v 0.004633499 -0.060549715 0.039244032
v -0.001252899 -0.037587329 0.068638053
v 0.012180744 -0.061722779 0.078222517
v -0.007816757 -0.062138128 0.089632090
v -0.000626490 -0.048195048 0.080126237
v -0.003659095 -0.046819683 0.091628104
v 0.002533119 -0.063336207 0.102431457
v 0.013800000 -0.056276342 0.087441309
v 0.005453122 -0.039492253 0.078484112
v -0.009734604 -0.049557648 0.103533851
v -0.007479562 -0.038789692 0.079511400
v -0.007162791 -0.059730069 0.080288429
v 0.000814149 -0.040574586 0.100627930
v 0.011666289 -0.039148413 0.083240282
v 0.002840591 -0.062412365 0.079594100
v 0.001951679 -0.055952675 0.092138415
v -0.008057198 -0.040871781 0.088133867
v 0.004804396 -0.043949354 0.111660719
v 0.013442271 -0.043575793 0.091225878
v -0.006993889 -0.040077969 0.097593599
v 0.011977473 -0.049756856 0.079143606
v -0.007037273 -0.047313241 0.113690001
v 0.012871607 -0.052978195 0.097471721
v 0.007596892 -0.064927461 0.093255571
v -0.008926010 -0.047506134 0.081820878
v -0.008452097 -0.061238678 0.103211616
v 0.002710415 -0.038118504 0.090957342
v 0.000109955 -0.060576127 0.114068103
v -0.002931399 -0.042374988 0.107474686
v 0.009676008 -0.051388095 0.108392721
v -0.009800000 -0.051049902 0.092321671
v 0.007844860 -0.063165961 0.110868030
v 0.000221049 -0.050223875 0.101133628
v -0.000020234 -0.037106080 0.079696562
v 0.009841179 -0.041540511 0.099938423
v -0.003912399 -0.045704774 0.137413563
v 0.004545186 -0.048699475 0.140224176
v 0.003052534 -0.064338869 0.137894215
v 0.010299444 -0.042402075 0.121316653
v -0.009206315 -0.060407317 0.136895001
v -0.007318928 -0.053262600 0.119246793
v 0.000718670 -0.057615139 0.118086415
v -0.006671821 -0.040782775 0.108553982
v 0.010253842 -0.063204505 0.119726283
v 0.010671274 -0.053098386 0.132696163
v -0.009932321 -0.049650057 0.132052406
v -0.010838815 -0.059122297 0.126937896
v 0.003793416 -0.043798318 0.116571176
v -0.003816510 -0.065860193 0.129907254
v -0.004213391 -0.040405353 0.117407415
v -0.006426561 -0.043096967 0.120971007
v 0.003653361 -0.043431515 0.126958916
v 0.012360847 -0.053555598 0.122273094
v -0.000842523 -0.066334122 0.116930730
v 0.012379054 -0.048707726 0.113127819
v -0.003165789 -0.056523758 0.143750138
v -0.000288897 -0.052958414 0.128862871
v -0.022910960 0.012026028 -0.078809244
v -0.010037071 0.021571499 -0.045336342
v -0.007686046 0.059250008 -0.050396751
v 0.007247839 0.030135119 -0.078343130
v 0.006258762 0.034860647 -0.067373501
v 0.006996293 0.031412059 -0.052463880
v -0.024726403 0.028425497 -0.071352042
v -0.012204787 0.048919539 -0.057805481
v -0.005405843 0.026405178 -0.060314261
v -0.019871136 0.048177017 -0.082684495
v -0.004864977 0.055449801 -0.061176173
v -0.002591987 0.043493464 -0.068508661
v -0.002515684 0.032208368 -0.062384571
v -0.016381903 0.009170202 -0.070547457
v -0.019861676 0.035834349 -0.081863432
v 0.003219483 0.037952224 -0.059130420
v -0.014225222 0.038873728 -0.059230937
v 0.000788349 0.035993824 -0.078454614
v -0.004608799 0.023384490 -0.082278218
v -0.013344351 0.027748813 -0.046408923
v -0.008327021 0.011218813 -0.079401935
v 0.004654710 0.010797587 -0.063229157
v -0.021512116 0.055005391 -0.071922206
v -0.006844112 0.048290941 -0.081872758
v -0.023000000 0.044286395 -0.057046791
v 0.007800001 0.019002989 -0.068228158
v 0.007788664 0.026982091 -0.062543774
v -0.019305851 0.051564692 -0.050936282
v -0.003396823 0.044671567 -0.057035018
v 0.007239912 0.019648292 -0.051412240
v -0.003451306 0.027399879 -0.046692771
v -0.024401656 0.013526876 -0.067522951
v -0.024267816 0.015491186 -0.051304635
v -0.017386414 0.024354908 -0.055267125
v -0.011076049 0.036436470 -0.074693155
v -0.003458101 0.013520859 -0.046707098
v 0.004000151 0.011788675 -0.052765538
v -0.016994337 0.055226245 -0.063239613
v 0.004078037 0.011098488 -0.075087113
v -0.000608741 0.032113182 -0.056140262
v -0.005281130 0.048438192 -0.049353947
v -0.021820109 0.032947481 -0.047932736
v 0.003804541 0.020505662 -0.081477368
v -0.020650129 0.021748731 -0.043422255
v -0.015533727 0.035788900 -0.054365331
v -0.014612165 0.048348346 -0.075089924
v -0.023000000 0.042333695 -0.069155762
v -0.008985733 0.033982158 -0.057518420
v -0.012775216 0.047100361 -0.066222269
v -0.016741505 0.021043228 -0.068326590
v -0.013150775 0.029596732 -0.063484049
v -0.012944277 0.010429262 -0.056395349
v -0.010023317 0.019149057 -0.059121585
v -0.004196087 0.024925031 -0.053075207
v -0.004088293 0.023021737 -0.068376343
v -0.011085191 0.038713326 -0.083577565
v 0.000155056 0.037424288 -0.048921042
v -0.025596663 0.027397019 -0.055487364
v -0.025291669 0.023622821 -0.078635705
v -0.018517493 0.017726256 -0.083560293
v -0.006185635 0.009613399 -0.065292554
v -0.013309812 0.028514298 -0.082727026
v -0.012061970 0.039412362 -0.047743742
v -0.008620237 0.055603811 -0.074667937
v -0.014369688 0.012646666 -0.045224419
v -0.006677884 0.057497106 -0.082258188
v -0.015120109 0.056875093 -0.078499090
v -0.000862418 0.059405736 -0.074171100
v -0.025564527 0.070446801 -0.078680216
v -0.000365400 0.069240359 -0.078889006
v -0.005333600 0.061371070 -0.072950841
v -0.023234795 0.062083321 -0.076827097
v -0.024683740 0.059225305 -0.079967152
v -0.015729903 0.058617564 -0.072260612
v -0.022992544 0.059453258 -0.068394553
v -0.015747935 0.059645722 -0.084694292
v -0.025772166 0.125151863 -0.088699525
v -0.015440000 0.101115156 -0.081888451
v -0.002150000 0.074290586 -0.076060077
v -0.008311784 0.105816134 -0.066803826
v -0.019449185 0.066817036 -0.081453005
v -0.021138985 0.071436061 -0.069646414
v -0.005634225 0.066022475 -0.078026218
v -0.007736234 0.069097690 -0.069696001
v -0.005709019 0.071709080 -0.086798363
v -0.000475000 0.127609774 -0.077401724
v -0.021239996 0.083557740 -0.087878104
v 0.000156407 0.089320567 -0.075788268
v -0.000543577 0.127582396 -0.087023446
v -0.001398828 0.118853886 -0.079173434
v -0.025309605 0.093066236 -0.086553675
v -0.024221498 0.076364306 -0.082314059
v -0.013662292 0.115905712 -0.070276193
v -0.005651657 0.105833695 -0.071976876
v -0.011767118 0.081061999 -0.067702761
v -0.002031107 0.113429323 -0.069035464
v -0.025179541 0.115583570 -0.086087885
v 0.000350000 0.116234924 -0.079419702
v -0.026604553 0.097613241 -0.075974234
v -0.023230954 0.088389353 -0.067388756
v -0.018255515 0.107627341 -0.066962288
v -0.025234471 0.101332923 -0.083767654
v -0.015649436 0.106908860 -0.071416617
v -0.003253144 0.085241925 -0.067633658
v -0.022917467 0.105099809 -0.071308767
v -0.001098496 0.086926630 -0.086407468
v -0.000777726 0.114775822 -0.087695588
v -0.022284995 0.102081730 -0.077723913
v -0.012337010 0.095095982 -0.089039495
v -0.015365162 0.098653912 -0.066177204
v -0.025395212 0.082345726 -0.076086646
v -0.001850000 0.124468223 -0.084548436
v -0.025029751 0.104473980 -0.068895329
v -0.000729047 0.100850584 -0.068705715
v -0.026650000 0.106927370 -0.077721829
v -0.007197001 0.092863328 -0.077533116
v -0.008502270 0.093290791 -0.065735076
v -0.013031077 0.082008233 -0.077774437
v -0.019882762 0.074639329 -0.087766318
v -0.016621020 0.101655282 -0.072754847
v -0.012062465 0.079490557 -0.088190753
v -0.024271991 0.112251930 -0.071658118
v -0.025723484 0.124701621 -0.079762152
v -0.026650000 0.116498338 -0.083467002
v -0.001755906 0.106583424 -0.078709996
v -0.023733197 0.153186715 -0.091351077
v -0.013087419 0.117911143 -0.076817148
v -0.017653214 0.170988976 -0.076080472
v -0.009881074 0.169822203 -0.097006233
v -0.017667503 0.164615042 -0.095870511
v -0.005239990 0.173284934 -0.092262845
v -0.005014882 0.122327979 -0.073291530
v -0.002359934 0.167847517 -0.082028582
v -0.023982014 0.124134101 -0.078107073
v -0.026605266 0.141969921 -0.083397969
v -0.012478868 0.140348473 -0.085168117
v -0.009613218 0.141823574 -0.069954115
v -0.013741767 0.144793511 -0.074344197
v 0.000350000 0.142183435 -0.085509195
v -0.013090551 0.178367080 -0.083407274
v -0.002936353 0.119025010 -0.084414499
v -0.011951545 0.116617328 -0.085611265
v -0.005142036 0.175289545 -0.083855633
v -0.015499027 0.135563062 -0.076385187
v -0.001343674 0.143826528 -0.072775998
v -0.008818844 0.154108062 -0.089128210
v -0.002781786 0.148884872 -0.093781554
v -0.025983637 0.155925291 -0.081974013
v -0.013266126 0.156646627 -0.085155691
v -0.014632184 0.162031153 -0.074058338
v -0.016702402 0.146191757 -0.070336287
v -0.001807329 0.129422357 -0.079678768
v -0.008378360 0.171310036 -0.076585799
v -0.015441065 0.129418420 -0.071598057
v -0.024959313 0.132809562 -0.081368138
v -0.013346684 0.154774743 -0.085596564
v -0.023908685 0.128590677 -0.091072050
v -0.003936734 0.134072922 -0.070972166
v -0.023758053 0.138168076 -0.071631113
v -0.011738789 0.147051650 -0.093733942
v -0.000966086 0.158398793 -0.087041485
v -0.022868682 0.162786807 -0.078923668
v -0.010480714 0.126377989 -0.092142258
v -0.010221824 0.158939589 -0.085844867
v -0.020641326 0.119935477 -0.087849504
v -0.003157815 0.158507664 -0.077193942
v -0.016140835 0.176501599 -0.091762068
v -0.012640288 0.165807846 -0.083504737
v -0.003963101 0.164244570 -0.092628749
v 0.000350000 0.148964709 -0.081738397
v -0.021100688 0.138373033 -0.093242835
v -0.024024163 0.168760323 -0.086902577
v -0.012822288 0.146100943 -0.083040893
v -0.006019949 0.134464978 -0.092372102
v -0.019059889 0.154760423 -0.072302999
v -0.015934744 0.150807153 -0.078955991
v -0.013248923 0.155149914 -0.084138335
v -0.025479431 0.151313726 -0.073818966
v -0.012288983 0.155222888 -0.085280532
f 180 1 93
f 1 189 93
f 131 1 180
f 1 131 315
f 458 189 1
f 1 315 458
f 113 2 222
f 2 113 447
f 193 198 2
f 193 2 447
f 374 2 198
f 2 374 222
f 45 3 8
f 329 8 3
f 3 45 68
f 466 3 68
f 454 329 3
f 454 3 466
f 4 348 164
f 358 4 164
f 165 4 358
f 420 4 165
f 349 348 4
f 4 420 349
f 5 172 72
f 72 428 5
f 5 87 172
f 354 87 5
f 5 171 148
f 5 148 177
f 252 171 5
f 354 5 177
f 432 252 5
f 5 428 465
f 465 432 5
f 6 44 101
f 6 199 44
f 6 101 323
f 6 297 199
f 323 297 6
f 7 85 126
f 349 85 7
f 7 103 165
f 403 103 7
f 197 7 126
f 349 7 165
f 7 197 403
f 160 8 18
f 8 329 18
f 439 45 8
f 85 8 126
f 85 203 8
f 8 341 126
f 160 341 8
f 8 203 439
f 207 226 9
f 9 255 207
f 226 417 9
f 255 9 417
f 61 15 10
f 15 101 10
f 44 10 101
f 44 321 10
f 111 61 10
f 111 10 311
f 10 297 311
f 10 321 297
f 12 97 131
f 12 352 97
f 131 355 12
f 161 12 236
f 352 12 161
f 12 313 236
f 12 355 313
f 60 13 239
f 13 60 340
f 239 13 62
f 13 340 62
f 21 14 240
f 471 14 21
f 14 64 60
f 240 14 60
f 14 212 64
f 212 14 66
f 14 419 66
f 14 278 237
f 14 237 419
f 278 14 471
f 15 61 22
f 22 469 15
f 101 15 262
f 262 15 196
f 469 196 15
f 195 16 209
f 16 195 303
f 16 234 209
f 16 410 234
f 303 463 16
f 410 16 463
f 17 28 228
f 371 28 17
f 35 211 17
f 421 35 17
f 17 299 43
f 421 17 43
f 211 371 17
f 228 299 17
f 220 18 101
f 18 323 101
f 18 153 216
f 464 153 18
f 220 160 18
f 201 18 329
f 201 464 18
f 18 216 323
f 168 234 19
f 391 168 19
f 234 344 19
f 468 19 344
f 391 19 394
f 394 19 468
f 118 58 20
f 376 20 58
f 20 241 118
f 241 20 374
f 333 374 20
f 333 20 376
f 233 21 77
f 21 301 77
f 471 21 233
f 455 21 240
f 21 283 301
f 283 21 455
f 403 22 61
f 403 453 22
f 22 453 469
f 298 26 24
f 26 328 24
f 187 346 24
f 187 24 434
f 367 298 24
f 24 328 434
f 24 346 367
f 97 79 25
f 79 245 25
f 312 97 25
f 245 110 25
f 110 458 25
f 315 312 25
f 458 315 25
f 26 298 36
f 26 36 303
f 303 328 26
f 28 316 228
f 275 316 28
f 28 371 275
f 80 277 29
f 29 445 80
f 265 29 185
f 29 277 185
f 29 265 421
f 421 445 29
f 154 58 30
f 58 440 30
f 175 154 30
f 198 175 30
f 374 198 30
f 374 30 440
f 31 149 264
f 430 149 31
f 31 191 280
f 448 191 31
f 448 31 264
f 430 31 280
f 136 83 32
f 32 83 231
f 127 136 32
f 127 32 223
f 231 155 32
f 155 318 32
f 32 167 223
f 167 32 318
f 99 33 107
f 33 99 178
f 430 107 33
f 178 149 33
f 33 149 430
f 320 70 34
f 70 462 34
f 34 114 337
f 114 34 462
f 320 34 269
f 34 337 269
f 35 268 211
f 265 268 35
f 421 265 35
f 299 228 36
f 36 228 303
f 299 36 298
f 296 38 37
f 37 38 406
f 37 110 245
f 406 110 37
f 446 37 245
f 37 424 296
f 37 446 424
f 460 38 296
f 404 406 38
f 404 38 460
f 109 137 39
f 109 39 217
f 39 137 417
f 39 216 153
f 217 39 153
f 216 39 417
f 40 166 69
f 40 69 230
f 84 40 233
f 84 408 40
f 408 166 40
f 40 230 186
f 233 40 186
f 47 41 54
f 461 41 47
f 41 49 57
f 41 339 49
f 132 54 41
f 41 57 132
f 41 461 339
f 271 98 42
f 402 42 98
f 42 174 271
f 42 402 174
f 399 43 299
f 445 43 399
f 445 421 43
f 190 44 199
f 44 190 391
f 321 44 311
f 311 44 391
f 115 68 45
f 75 45 392
f 75 451 45
f 115 45 88
f 45 172 88
f 45 145 392
f 45 439 145
f 451 172 45
f 125 46 90
f 46 140 90
f 125 279 46
f 314 140 46
f 46 279 314
f 47 54 418
f 280 47 430
f 461 47 280
f 47 418 430
f 48 344 159
f 380 48 159
f 48 205 344
f 380 205 48
f 57 49 333
f 272 333 49
f 339 272 49
f 275 51 65
f 51 434 65
f 275 187 51
f 434 51 187
f 146 52 279
f 146 441 52
f 52 150 314
f 52 441 150
f 279 52 314
f 130 53 304
f 130 415 53
f 304 53 133
f 53 438 133
f 438 53 415
f 95 54 223
f 308 54 95
f 54 132 127
f 54 127 223
f 418 54 308
f 353 55 146
f 146 55 429
f 151 55 395
f 55 151 429
f 309 55 176
f 176 55 353
f 395 55 309
f 56 68 115
f 249 68 56
f 103 276 56
f 56 331 103
f 115 162 56
f 162 331 56
f 249 56 276
f 132 57 127
f 127 57 333
f 58 72 152
f 72 58 221
f 94 58 105
f 58 94 221
f 105 58 118
f 154 112 58
f 112 376 58
f 58 152 440
f 103 59 143
f 103 348 59
f 164 143 59
f 349 164 59
f 348 349 59
f 60 64 340
f 239 435 60
f 240 60 435
f 111 403 61
f 62 177 239
f 177 62 247
f 62 340 247
f 63 203 103
f 103 419 63
f 63 439 203
f 63 345 237
f 439 63 237
f 345 63 334
f 334 63 419
f 331 64 66
f 66 64 384
f 212 343 64
f 254 247 64
f 64 247 340
f 254 64 331
f 64 343 384
f 139 226 65
f 425 139 65
f 65 226 342
f 342 275 65
f 425 65 434
f 66 103 331
f 103 66 419
f 384 212 66
f 67 98 82
f 136 67 82
f 98 67 147
f 136 310 67
f 67 310 147
f 466 68 249
f 69 166 107
f 437 69 107
f 69 287 230
f 308 287 69
f 69 418 308
f 69 437 418
f 70 114 332
f 114 70 337
f 235 283 70
f 235 70 408
f 269 70 294
f 70 269 370
f 70 283 455
f 294 70 455
f 70 320 337
f 408 70 332
f 462 70 370
f 71 83 271
f 71 368 83
f 71 271 460
f 71 460 368
f 105 72 94
f 94 72 221
f 105 252 72
f 152 72 172
f 428 72 252
f 134 73 309
f 134 436 73
f 73 155 309
f 318 155 73
f 318 73 436
f 74 175 117
f 117 305 74
f 74 154 175
f 74 310 154
f 305 310 74
f 392 241 75
f 440 75 241
f 440 451 75
f 233 77 235
f 235 77 283
f 77 257 283
f 77 301 257
f 97 248 79
f 79 325 116
f 79 116 446
f 245 79 446
f 79 248 325
f 80 208 427
f 208 80 445
f 293 277 80
f 80 427 293
f 238 194 81
f 194 422 81
f 81 401 238
f 401 81 242
f 81 422 242
f 83 136 82
f 83 82 271
f 82 98 271
f 231 83 219
f 368 219 83
f 408 84 233
f 165 203 85
f 420 165 85
f 85 349 420
f 106 285 86
f 106 86 466
f 317 86 243
f 86 394 243
f 285 394 86
f 317 466 86
f 87 88 172
f 88 87 354
f 162 115 88
f 162 88 354
f 268 125 90
f 140 204 90
f 204 179 90
f 268 90 179
f 92 170 95
f 95 223 92
f 135 92 156
f 135 251 92
f 92 223 156
f 92 251 170
f 295 93 119
f 93 467 119
f 180 93 295
f 189 383 93
f 383 467 93
f 95 170 287
f 287 308 95
f 96 411 134
f 96 134 431
f 300 225 96
f 225 411 96
f 300 96 431
f 97 312 131
f 352 248 97
f 147 402 98
f 160 99 100
f 332 100 99
f 99 107 332
f 160 220 99
f 99 306 178
f 99 220 213
f 213 256 99
f 99 256 306
f 332 114 100
f 370 100 114
f 341 160 100
f 341 100 197
f 197 100 370
f 220 101 262
f 102 267 120
f 435 102 120
f 238 102 194
f 194 102 435
f 407 102 238
f 407 267 102
f 253 103 143
f 103 203 165
f 253 276 103
f 348 103 403
f 118 392 105
f 105 145 171
f 145 105 392
f 105 171 252
f 276 106 249
f 466 249 106
f 285 106 276
f 166 332 107
f 107 430 437
f 108 137 109
f 109 187 108
f 108 184 137
f 381 184 108
f 108 187 326
f 381 108 326
f 196 142 109
f 142 346 109
f 346 187 109
f 266 196 109
f 217 213 109
f 213 273 109
f 109 273 266
f 169 110 192
f 169 458 110
f 406 192 110
f 143 111 253
f 111 143 403
f 285 111 218
f 111 311 218
f 111 276 253
f 111 285 276
f 310 136 112
f 136 376 112
f 310 112 154
f 113 222 188
f 188 236 113
f 313 229 113
f 447 113 229
f 236 313 113
f 370 114 462
f 250 424 116
f 116 429 250
f 116 325 441
f 116 424 446
f 429 116 441
f 119 117 173
f 119 467 117
f 117 175 173
f 117 232 305
f 117 393 232
f 393 117 383
f 117 467 383
f 392 118 241
f 175 119 173
f 193 119 175
f 193 295 119
f 120 240 435
f 120 455 240
f 257 120 282
f 455 120 257
f 267 457 120
f 120 457 282
f 319 122 123
f 122 350 123
f 135 122 251
f 135 281 122
f 251 122 284
f 122 281 350
f 284 122 319
f 319 123 465
f 350 432 123
f 123 432 465
f 251 124 186
f 186 124 401
f 124 251 350
f 124 281 291
f 281 124 350
f 304 124 291
f 124 304 401
f 268 265 125
f 125 265 279
f 197 126 341
f 127 376 136
f 333 376 127
f 266 128 142
f 142 128 327
f 385 206 128
f 206 469 128
f 128 266 385
f 269 128 320
f 128 269 459
f 320 128 337
f 327 128 413
f 337 128 453
f 459 413 128
f 453 128 469
f 438 129 269
f 129 459 269
f 438 270 129
f 270 442 129
f 129 442 459
f 130 304 181
f 181 415 130
f 131 180 355
f 131 312 315
f 133 267 304
f 133 457 267
f 457 133 438
f 415 288 134
f 288 443 134
f 431 134 309
f 415 134 411
f 134 443 436
f 405 135 156
f 405 281 135
f 137 184 290
f 417 137 290
f 138 300 176
f 353 138 176
f 138 185 277
f 185 138 353
f 138 277 300
f 139 274 226
f 274 139 390
f 139 302 390
f 302 139 391
f 139 425 391
f 204 140 314
f 469 142 196
f 266 142 206
f 206 142 469
f 142 208 387
f 208 142 412
f 327 413 142
f 346 142 387
f 413 412 142
f 348 143 164
f 143 348 403
f 145 182 171
f 145 439 182
f 279 353 146
f 441 146 429
f 305 232 147
f 232 402 147
f 310 305 147
f 148 171 335
f 148 422 177
f 335 422 148
f 178 388 149
f 264 149 388
f 161 214 150
f 161 150 352
f 214 200 150
f 150 200 448
f 150 448 314
f 150 325 352
f 150 441 325
f 219 151 263
f 151 219 368
f 250 151 368
f 250 429 151
f 395 263 151
f 451 152 172
f 152 451 440
f 217 153 464
f 231 263 155
f 395 155 263
f 155 395 309
f 156 223 167
f 318 156 167
f 156 318 405
f 255 205 159
f 205 380 159
f 344 234 159
f 159 234 410
f 472 255 159
f 410 472 159
f 188 214 161
f 236 188 161
f 162 247 254
f 162 354 247
f 254 331 162
f 163 201 329
f 163 456 201
f 163 329 224
f 163 224 426
f 163 426 244
f 456 163 244
f 164 349 358
f 358 349 165
f 166 408 332
f 168 209 234
f 307 209 168
f 391 307 168
f 383 189 169
f 169 189 458
f 192 377 169
f 383 169 377
f 170 186 230
f 251 186 170
f 170 230 287
f 171 182 335
f 174 377 192
f 406 174 192
f 404 271 174
f 377 174 402
f 174 406 404
f 198 193 175
f 431 176 300
f 309 176 431
f 177 422 239
f 354 177 247
f 178 306 464
f 456 388 178
f 456 178 464
f 210 179 204
f 179 210 264
f 268 179 211
f 211 179 388
f 264 388 179
f 295 229 180
f 229 355 180
f 181 291 288
f 288 415 181
f 181 304 291
f 335 182 439
f 224 183 205
f 205 183 344
f 183 224 317
f 243 183 317
f 183 243 468
f 183 468 344
f 184 187 275
f 184 381 187
f 184 371 211
f 211 388 184
f 371 184 275
f 290 184 388
f 279 265 185
f 353 279 185
f 242 233 186
f 401 242 186
f 298 367 187
f 381 298 187
f 367 326 187
f 214 188 339
f 272 188 222
f 188 272 339
f 199 323 190
f 216 190 323
f 190 216 417
f 226 391 190
f 417 226 190
f 200 339 191
f 191 448 200
f 191 461 280
f 461 191 339
f 295 193 447
f 194 239 422
f 239 194 435
f 307 195 209
f 195 328 303
f 425 195 307
f 195 434 328
f 425 434 195
f 196 266 206
f 196 206 385
f 262 196 213
f 213 196 273
f 286 273 196
f 286 196 385
f 197 370 453
f 453 403 197
f 199 297 321
f 321 347 199
f 323 199 347
f 200 214 339
f 201 456 464
f 204 314 210
f 224 205 426
f 426 205 255
f 255 226 207
f 445 387 208
f 412 427 208
f 448 264 210
f 448 210 314
f 212 345 343
f 212 419 345
f 212 384 419
f 217 256 213
f 262 213 220
f 306 256 217
f 464 306 217
f 218 394 285
f 394 218 311
f 231 219 263
f 374 272 222
f 454 317 224
f 329 454 224
f 300 293 225
f 225 293 322
f 225 322 411
f 226 255 342
f 391 226 274
f 463 303 228
f 228 316 463
f 447 229 295
f 313 355 229
f 232 393 402
f 233 235 408
f 242 471 233
f 278 335 237
f 335 439 237
f 345 419 237
f 401 407 238
f 440 241 374
f 242 422 335
f 471 242 335
f 468 243 394
f 290 244 255
f 426 255 244
f 290 388 244
f 388 456 244
f 325 248 352
f 368 424 250
f 251 284 350
f 319 428 252
f 432 319 252
f 417 290 255
f 255 472 342
f 257 282 283
f 455 257 301
f 266 273 286
f 266 286 385
f 407 304 267
f 457 269 294
f 269 337 370
f 457 438 269
f 322 427 270
f 270 438 322
f 427 442 270
f 460 271 404
f 272 374 333
f 302 274 307
f 391 274 302
f 425 307 274
f 425 274 390
f 316 275 342
f 277 293 300
f 278 471 335
f 291 281 443
f 405 443 281
f 301 283 282
f 294 455 282
f 457 294 282
f 301 282 455
f 432 284 319
f 284 432 350
f 443 288 291
f 427 322 293
f 368 296 424
f 460 296 368
f 311 297 347
f 297 323 347
f 298 399 299
f 298 326 346
f 298 381 326
f 387 298 346
f 399 298 387
f 390 302 307
f 401 304 407
f 391 390 307
f 347 321 311
f 311 391 394
f 342 472 316
f 316 410 463
f 316 472 410
f 466 317 454
f 436 405 318
f 428 319 465
f 322 438 411
f 346 326 367
f 345 334 384
f 384 334 419
f 337 453 370
f 345 384 343
f 377 393 383
f 393 377 402
f 399 387 445
f 425 390 391
f 405 436 443
f 415 411 438
f 413 442 412
f 427 412 442
f 442 413 459
f 418 437 430
f 473 476 478
f 476 473 481
f 477 473 478
f 473 477 481
f 480 475 474
f 475 482 474
f 481 474 479
f 474 482 479
f 481 480 474
f 482 475 480
f 476 477 478
f 477 476 479
f 476 481 479
f 482 477 479
f 482 481 477
f 480 481 482
f 483 491 494
f 483 521 491
f 516 483 494
f 483 516 506
f 506 521 483
f 484 507 485
f 484 485 513
f 507 484 496
f 484 517 496
f 484 513 510
f 484 510 517
f 513 485 506
f 485 521 506
f 507 521 485
f 486 499 512
f 520 499 486
f 486 512 509
f 520 486 509
f 488 516 494
f 488 494 529
f 503 502 488
f 488 502 516
f 503 488 508
f 504 508 488
f 529 504 488
f 519 489 493
f 489 530 493
f 517 510 489
f 510 530 489
f 517 489 518
f 519 518 489
f 519 493 490
f 493 520 490
f 490 509 505
f 531 490 505
f 490 520 509
f 532 519 490
f 490 531 532
f 494 491 533
f 521 495 491
f 528 491 495
f 528 501 491
f 491 501 533
f 520 493 503
f 530 503 493
f 533 529 494
f 507 496 495
f 496 528 495
f 521 507 495
f 501 496 517
f 496 501 528
f 511 500 498
f 500 529 498
f 531 511 498
f 498 529 533
f 498 532 531
f 498 534 532
f 498 533 534
f 512 499 500
f 529 500 499
f 504 499 508
f 504 529 499
f 520 508 499
f 511 527 500
f 527 512 500
f 517 518 501
f 532 501 518
f 534 501 532
f 533 501 534
f 510 502 503
f 513 502 510
f 513 516 502
f 520 503 508
f 530 510 503
f 509 527 505
f 527 511 505
f 511 531 505
f 516 513 506
f 509 512 527
f 518 519 532
f 550 535 554
f 550 560 535
f 554 535 551
f 535 560 551
f 536 544 540
f 553 536 540
f 544 536 549
f 536 555 549
f 555 536 553
f 537 558 538
f 565 537 538
f 553 540 537
f 540 558 537
f 537 561 553
f 561 537 565
f 557 538 543
f 538 563 543
f 567 538 557
f 563 538 558
f 565 538 567
f 546 547 539
f 546 539 567
f 539 547 559
f 559 564 539
f 564 565 539
f 567 539 565
f 540 544 545
f 563 540 545
f 558 540 563
f 556 542 547
f 542 559 547
f 542 554 560
f 554 542 562
f 542 556 562
f 542 560 559
f 556 546 543
f 543 546 557
f 556 543 563
f 549 545 544
f 550 545 549
f 554 545 550
f 554 562 545
f 545 562 563
f 546 556 547
f 546 567 557
f 548 552 549
f 548 549 555
f 548 564 552
f 548 555 564
f 549 552 550
f 550 552 560
f 560 554 551
f 552 559 560
f 564 559 552
f 561 555 553
f 561 564 555
f 562 556 563
f 561 565 564
f 568 578 582
f 578 568 586
f 568 582 586
f 581 569 576
f 576 569 584
f 578 569 581
f 569 578 585
f 569 585 584
f 571 575 570
f 580 571 570
f 572 570 575
f 572 587 570
f 587 580 570
f 575 571 573
f 573 571 584
f 576 577 571
f 571 580 576
f 571 577 584
f 575 573 572
f 583 572 573
f 583 587 572
f 583 573 585
f 584 585 573
f 579 576 574
f 576 584 574
f 584 579 574
f 576 579 577
f 576 580 581
f 579 584 577
f 578 581 580
f 587 578 580
f 587 582 578
f 578 586 585
f 586 582 583
f 587 583 582
f 585 586 583
f 592 588 590
f 590 588 598
f 595 588 592
f 595 594 588
f 594 598 588
f 597 591 589
f 589 591 598
f 594 593 589
f 589 593 596
f 594 589 598
f 589 596 597
f 592 590 598
f 593 594 591
f 593 591 597
f 595 591 594
f 598 591 595
f 595 592 598
f 596 593 597
f 634 602 599
f 638 599 602
f 638 608 599
f 640 599 608
f 599 640 634
f 627 601 602
f 602 601 638
f 615 601 618
f 638 601 615
f 601 627 618
f 605 627 602
f 602 634 605
f 603 613 616
f 628 613 603
f 626 603 616
f 624 603 626
f 603 624 628
f 604 606 635
f 606 604 641
f 604 633 607
f 604 607 641
f 633 604 617
f 604 635 617
f 606 627 605
f 606 605 635
f 634 625 605
f 605 625 635
f 627 606 618
f 641 618 606
f 607 615 641
f 642 615 607
f 607 633 642
f 631 608 619
f 608 642 619
f 608 631 640
f 638 642 608
f 610 611 623
f 610 643 611
f 620 610 623
f 620 640 610
f 631 610 640
f 631 643 610
f 611 639 623
f 626 611 636
f 611 626 639
f 611 643 636
f 616 613 637
f 622 620 613
f 613 620 637
f 628 622 613
f 614 629 617
f 635 614 617
f 628 624 614
f 629 614 624
f 628 614 625
f 625 614 635
f 615 618 641
f 638 615 642
f 623 616 637
f 639 616 623
f 626 616 639
f 617 629 636
f 636 633 617
f 643 631 619
f 642 633 619
f 633 643 619
f 620 622 640
f 637 620 623
f 625 622 628
f 622 625 634
f 622 634 640
f 629 624 626
f 629 626 636
f 633 636 643
f 646 644 650
f 644 646 670
f 650 644 670
f 653 651 645
f 663 645 651
f 653 645 667
f 663 661 645
f 645 661 667
f 650 663 646
f 646 663 659
f 670 646 659
f 656 648 647
f 648 673 647
f 673 656 647
f 648 656 665
f 665 670 648
f 668 648 670
f 648 668 673
f 671 649 654
f 649 673 654
f 665 656 649
f 656 673 649
f 658 665 649
f 649 671 658
f 650 658 663
f 665 658 650
f 670 665 650
f 660 651 653
f 663 651 659
f 669 659 651
f 669 651 660
f 667 661 652
f 652 661 671
f 667 652 666
f 652 672 666
f 652 671 672
f 660 653 667
f 672 654 655
f 654 673 655
f 654 672 671
f 669 660 655
f 660 672 655
f 669 655 668
f 668 655 673
f 663 658 671
f 670 659 669
f 667 666 660
f 666 672 660
f 663 671 661
f 668 670 669
f 684 674 680
f 674 691 680
f 674 684 681
f 681 691 674
f 694 690 675
f 690 699 675
f 699 694 675
f 692 676 688
f 694 688 676
f 676 692 689
f 689 697 676
f 698 694 676
f 676 697 698
f 683 677 695
f 683 696 677
f 692 677 689
f 677 696 689
f 692 695 677
f 682 678 686
f 678 682 700
f 678 685 686
f 678 687 685
f 687 678 700
f 682 679 681
f 679 691 681
f 686 679 682
f 679 686 691
f 697 684 680
f 691 685 680
f 680 685 693
f 693 697 680
f 681 692 682
f 681 684 692
f 682 692 700
f 696 683 695
f 684 689 696
f 697 689 684
f 692 684 695
f 695 684 696
f 686 685 691
f 687 693 685
f 694 687 688
f 688 687 700
f 697 693 687
f 687 694 699
f 697 687 699
f 700 692 688
f 690 694 698
f 690 698 697
f 690 697 699
f 701 702 703
f 702 701 706
f 701 703 708
f 701 707 706
f 707 701 708
f 702 706 703
f 706 708 703
f 706 704 705
f 705 704 708
f 706 707 704
f 707 708 704
f 706 705 708
f 709 723 741
f 709 765 723
f 732 709 731
f 709 741 731
f 709 732 765
f 721 710 732
f 710 721 739
f 765 732 710
f 739 751 710
f 710 751 756
f 761 710 756
f 710 761 765
f 727 713 712
f 713 748 712
f 712 729 727
f 748 729 712
f 746 713 727
f 759 713 746
f 713 759 748
f 724 749 715
f 724 715 757
f 715 725 759
f 760 725 715
f 735 715 754
f 715 735 757
f 760 715 749
f 715 759 754
f 729 718 727
f 741 727 718
f 729 738 718
f 738 760 718
f 741 718 744
f 744 718 747
f 718 749 747
f 760 749 718
f 730 720 762
f 763 720 730
f 720 756 745
f 745 762 720
f 753 761 720
f 763 753 720
f 756 720 761
f 732 755 721
f 739 721 737
f 755 737 721
f 746 723 726
f 723 765 726
f 727 741 723
f 727 723 746
f 728 724 730
f 747 724 728
f 730 724 763
f 749 724 747
f 763 724 757
f 743 748 725
f 760 743 725
f 725 748 759
f 726 735 746
f 765 735 726
f 730 733 728
f 755 728 733
f 747 728 755
f 748 738 729
f 762 733 730
f 731 755 732
f 731 741 744
f 744 747 731
f 747 755 731
f 733 737 755
f 758 737 733
f 742 758 733
f 733 762 742
f 740 736 734
f 745 734 736
f 734 751 739
f 734 739 764
f 740 734 764
f 734 745 756
f 734 756 751
f 754 746 735
f 753 735 761
f 753 763 735
f 735 763 757
f 735 765 761
f 742 736 740
f 736 742 762
f 736 762 745
f 739 737 764
f 764 737 758
f 738 748 743
f 738 743 760
f 740 758 742
f 740 764 758
f 759 746 754
f 775 766 773
f 766 798 773
f 775 798 766
f 772 767 785
f 772 788 767
f 767 779 785
f 788 779 767
f 768 776 779
f 768 795 776
f 768 779 788
f 768 788 790
f 768 790 795
f 769 775 773
f 769 773 785
f 775 769 789
f 779 776 769
f 769 776 789
f 769 785 779
f 771 788 787
f 787 796 771
f 790 788 771
f 771 792 790
f 771 796 792
f 772 785 783
f 787 772 783
f 772 787 788
f 778 785 773
f 773 798 778
f 793 784 774
f 795 774 784
f 774 790 786
f 774 786 793
f 795 790 774
f 781 775 789
f 781 798 775
f 789 776 795
f 782 777 793
f 782 799 777
f 791 784 777
f 793 777 784
f 777 799 791
f 785 778 783
f 791 783 778
f 798 791 778
f 784 791 781
f 781 795 784
f 795 781 789
f 781 791 798
f 792 782 786
f 786 782 793
f 782 792 794
f 782 794 799
f 799 787 783
f 799 783 791
f 790 792 786
f 796 787 794
f 799 794 787
f 796 794 792
f 816 800 801
f 801 800 820
f 815 810 800
f 800 810 820
f 815 800 816
f 816 801 809
f 820 809 801
f 813 802 804
f 802 820 804
f 809 802 808
f 808 802 818
f 802 809 820
f 802 813 818
f 812 816 803
f 819 812 803
f 816 817 803
f 817 819 803
f 810 811 804
f 804 820 810
f 804 811 813
f 805 812 806
f 818 805 806
f 805 811 810
f 805 810 815
f 811 805 818
f 815 812 805
f 806 812 808
f 818 806 808
f 814 812 807
f 812 815 807
f 815 814 807
f 808 817 809
f 819 808 812
f 819 817 808
f 816 809 817
f 813 811 818
f 812 814 816
f 814 815 816
f 842 835 822
f 822 835 853
f 881 842 822
f 880 822 853
f 822 880 881
f 823 852 841
f 823 841 865
f 857 852 823
f 857 823 886
f 865 886 823
f 832 849 824
f 824 862 832
f 849 862 824
f 826 825 839
f 825 826 848
f 839 825 864
f 825 848 847
f 847 864 825
f 826 833 837
f 826 839 833
f 826 837 848
f 837 827 848
f 837 878 827
f 851 848 827
f 857 851 827
f 857 827 852
f 827 878 852
f 868 836 828
f 828 836 880
f 853 879 828
f 853 828 880
f 868 828 879
f 831 836 868
f 877 836 831
f 831 868 844
f 844 885 831
f 877 831 845
f 885 845 831
f 850 833 832
f 885 832 833
f 849 832 859
f 832 862 850
f 859 832 885
f 833 850 837
f 839 845 833
f 885 833 845
f 842 882 835
f 873 853 835
f 873 835 882
f 877 883 836
f 836 883 880
f 878 837 850
f 839 864 840
f 883 839 840
f 845 839 877
f 883 877 839
f 840 864 842
f 881 840 842
f 881 883 840
f 852 884 841
f 865 841 863
f 884 863 841
f 864 860 842
f 842 860 882
f 847 851 843
f 860 847 843
f 843 851 858
f 882 843 858
f 882 860 843
f 844 868 859
f 859 885 844
f 859 846 849
f 863 849 846
f 868 846 859
f 863 846 879
f 846 868 879
f 847 848 851
f 847 860 864
f 862 849 884
f 849 863 884
f 850 862 878
f 858 851 857
f 852 878 884
f 873 854 853
f 879 853 854
f 879 854 865
f 886 865 854
f 873 886 854
f 873 858 857
f 873 857 886
f 882 858 873
f 862 884 878
f 879 865 863
f 881 880 883
f 888 887 895
f 897 887 888
f 887 891 889
f 895 887 889
f 891 887 892
f 887 897 892
f 895 894 888
f 888 894 897
f 889 891 892
f 892 895 889
f 893 894 890
f 896 893 890
f 894 896 890
f 895 892 897
f 894 893 897
f 893 896 895
f 895 897 893
f 896 894 895
f 918 898 944
f 918 945 898
f 898 945 944
f 915 899 941
f 946 899 915
f 929 899 923
f 899 930 923
f 941 899 929
f 946 930 899
f 900 905 904
f 906 900 904
f 905 900 925
f 900 906 927
f 909 925 900
f 909 900 927
f 917 914 901
f 922 901 914
f 917 901 935
f 922 931 901
f 901 931 938
f 935 901 938
f 905 903 902
f 903 932 902
f 904 905 902
f 906 904 902
f 940 906 902
f 902 932 913
f 902 913 940
f 905 916 903
f 903 916 921
f 932 903 921
f 916 905 925
f 906 942 927
f 942 906 940
f 910 907 911
f 910 933 907
f 907 933 911
f 908 912 930
f 912 908 932
f 932 908 913
f 913 908 940
f 942 908 930
f 908 942 940
f 938 925 909
f 909 927 946
f 938 909 935
f 909 946 935
f 910 911 919
f 910 919 928
f 910 928 933
f 917 911 915
f 915 911 946
f 919 911 917
f 933 928 911
f 946 911 928
f 923 912 920
f 920 912 932
f 930 912 923
f 915 914 917
f 915 924 914
f 914 943 922
f 943 914 924
f 924 915 941
f 916 938 921
f 916 925 938
f 919 917 946
f 935 946 917
f 918 923 936
f 943 923 918
f 918 936 945
f 944 943 918
f 919 946 928
f 921 920 932
f 920 921 934
f 923 920 936
f 936 920 934
f 934 921 931
f 921 938 931
f 931 922 934
f 943 934 922
f 943 929 923
f 926 924 941
f 924 926 943
f 929 926 941
f 926 929 943
f 927 942 930
f 927 930 946
f 936 934 943
f 945 936 943
f 945 943 944
f 981 947 951
f 947 993 951
f 956 969 947
f 947 992 956
f 993 947 969
f 947 981 992
f 953 948 962
f 948 953 975
f 955 948 975
f 955 986 948
f 963 962 948
f 948 986 963
f 961 949 974
f 993 949 961
f 971 974 949
f 971 949 983
f 949 993 983
f 951 988 950
f 951 950 990
f 950 988 952
f 990 950 952
f 968 981 951
f 968 951 990
f 993 988 951
f 964 954 952
f 954 990 952
f 952 961 964
f 961 952 988
f 953 962 973
f 979 953 973
f 975 953 979
f 974 954 964
f 974 987 954
f 954 987 982
f 982 990 954
f 955 975 976
f 955 976 978
f 978 986 955
f 969 956 999
f 956 978 976
f 980 956 976
f 992 978 956
f 980 999 956
f 966 958 979
f 958 966 996
f 980 958 972
f 958 996 972
f 979 958 975
f 958 980 975
f 966 973 960
f 966 960 991
f 960 968 991
f 968 960 995
f 973 995 960
f 961 974 964
f 988 993 961
f 963 984 962
f 962 984 973
f 984 963 986
f 979 973 966
f 991 987 966
f 996 966 987
f 995 981 968
f 990 982 968
f 991 968 982
f 993 969 983
f 969 999 983
f 970 998 977
f 977 1000 970
f 970 1000 998
f 987 974 971
f 996 971 983
f 971 996 987
f 980 972 999
f 999 972 996
f 973 984 995
f 975 980 976
f 977 998 1000
f 986 978 984
f 992 984 978
f 981 995 992
f 987 991 982
f 999 996 983
f 984 992 995
