# coarse_mesh4pde_200.obj  (277 v, 382 f)  units: metres
v -0.026794152 0.034490892 -0.011614650
v -0.020920361 -0.049769534 -0.004961470
v -0.026518430 0.012587140 -0.005148044
v -0.028691434 0.023484914 -0.012545564
v -0.024386058 0.032500343 -0.011119988
v -0.029500000 -0.000479809 -0.029578917
v 0.001856966 -0.017692207 -0.108908316
v 0.001039642 0.001194984 -0.091922915
v 0.003339064 -0.025226207 -0.114312142
v 0.012356569 -0.048685680 -0.037667410
v 0.007960722 0.016315813 -0.007211520
v 0.010428151 0.031375018 -0.004605679
v 0.009763456 0.044965122 -0.029028091
v -0.022464785 -0.027512883 -0.085703341
v -0.005631482 0.005959206 -0.112601131
v -0.011496951 0.000453351 -0.116499998
v -0.004848182 -0.018648661 -0.090094156
v -0.014730705 -0.011170410 -0.080463819
v -0.026595866 -0.009306882 -0.015493364
v 0.005081345 0.000919065 -0.111208861
v -0.029500000 -0.019936059 -0.013894652
v -0.003871562 -0.013284823 -0.116499998
v 0.007752484 -0.006686199 -0.016007161
v -0.026576422 -0.009351319 -0.000884123
v -0.029500000 -0.033996492 -0.021283746
v 0.018531532 0.011668767 -0.100461454
v 0.009525472 -0.007559922 -0.110814338
v 0.020494082 -0.004915725 -0.099635866
v -0.006057722 -0.023468252 -0.109547711
v -0.026678095 0.017125749 -0.002166173
v -0.029500000 -0.028674460 -0.033639219
v 0.009306861 0.029045155 -0.056977750
v -0.012359974 -0.043869655 -0.006077817
v -0.015702133 -0.020826925 -0.097772415
v 0.001535443 -0.001113518 -0.116499998
v 0.015081272 0.021008913 -0.025469599
v -0.025179437 -0.014824985 -0.007923235
v -0.029500000 -0.005561154 -0.013917533
v -0.009692577 -0.005766557 -0.110347177
v -0.029500000 -0.036323560 -0.012099101
v 0.012117853 -0.006273886 -0.094003321
v -0.007805691 -0.029626097 -0.101984839
v -0.004638284 -0.015696487 -0.110649377
v 0.012507227 -0.041024337 -0.081448579
v -0.006666914 -0.007282905 -0.092743023
v -0.000308954 -0.003416179 -0.106428597
v -0.000871506 -0.028017661 -0.090430674
v -0.023043301 0.020432491 -0.095230293
v 0.004915236 -0.010987783 -0.079533923
v -0.005204691 -0.008819272 -0.109470380
v 0.005380837 -0.025820233 -0.109818226
v -0.010906459 -0.028000001 -0.094499998
v -0.023528611 -0.013183061 -0.010315278
v -0.021580752 -0.042317674 -0.062301190
v 0.002204374 -0.009049896 -0.106741394
v 0.003611530 -0.007815315 -0.093847749
v 0.011656841 -0.000875166 -0.090761599
v 0.014951936 0.007851711 -0.057338106
v -0.005147641 -0.003697210 -0.101914663
v -0.000807662 0.041377985 -0.002364321
v -0.021919782 0.000726119 -0.116499998
v -0.001926320 -0.049745241 -0.006092871
v -0.013622142 -0.009320048 -0.106719875
v 0.001829096 0.000657897 -0.099015289
v -0.010471594 -0.000787402 -0.110284912
v -0.013211737 0.005492930 -0.110261138
v 0.000121852 0.000655281 -0.112754798
v -0.001879267 -0.026355137 -0.080763308
v -0.014453835 -0.013583560 -0.086272144
v -0.003515755 0.004128987 -0.107762705
v -0.004486979 -0.019247990 -0.103130079
v -0.008870606 -0.002832026 -0.103444257
v -0.021453844 -0.031807985 -0.011868249
v 0.012540186 -0.036737361 -0.006898820
v -0.036145714 0.000818134 -0.101953113
v -0.010004198 -0.024921065 -0.107009774
v -0.026509598 -0.024251826 -0.095452865
v 0.011314252 -0.022801671 -0.006596789
v -0.000070077 -0.020481524 -0.091642388
v -0.021297759 0.034976576 -0.005444254
v -0.024370023 -0.040617980 -0.016337607
v 0.005693773 -0.001741226 -0.097393402
v -0.027169002 -0.046117660 -0.032674506
v -0.007146483 -0.022264710 -0.116499998
v 0.008702452 -0.004179174 -0.085948750
v -0.018517841 0.032274855 -0.026846037
v 0.020382677 -0.005401402 -0.106420829
v 0.008551377 0.033102720 -0.006926972
v 0.002220041 -0.019627650 -0.116499998
v 0.011854445 -0.018166115 -0.089796895
v -0.018886176 -0.020764240 -0.110949413
v 0.008299184 -0.025281745 -0.051273435
v -0.000803333 -0.035633710 -0.010481400
v 0.016855268 -0.011147925 -0.113638518
v -0.035210864 -0.013537130 -0.105665363
v 0.008474612 0.013766070 -0.023158324
v -0.005451559 0.000652798 -0.108836613
v 0.005532557 -0.006704750 -0.116499998
v 0.002711515 0.001211730 -0.113712145
v -0.029428084 -0.043509417 -0.009861644
v -0.000774605 0.001076971 -0.000490098
v 0.007265348 -0.010326894 -0.003997765
v 0.008783209 -0.033183093 -0.007729359
v 0.004178589 -0.012821248 -0.107610495
v -0.026775039 -0.034631724 -0.029426657
v -0.016813200 -0.008664560 -0.096589472
v 0.006825784 -0.007876029 -0.096599915
v -0.017450848 -0.028172506 -0.094146517
v 0.000014209 0.000851194 -0.105626849
v -0.006387529 -0.004076782 -0.107470838
v -0.008820617 0.005925818 -0.099293148
v 0.000300885 -0.011607007 -0.116499998
v 0.012799510 0.018580335 -0.110536067
v -0.025204446 0.009800000 -0.003310031
v 0.008528480 -0.015034390 -0.116499998
v -0.023725262 -0.051631473 -0.018902003
v -0.028196119 0.044084601 -0.012615900
v -0.025884821 0.018556114 -0.039743832
v -0.020757091 -0.034623023 -0.019934829
v 0.006463510 -0.014057589 -0.004612781
v 0.007823313 0.033886868 -0.007284756
v 0.015185774 -0.032607046 -0.044707631
v 0.006107465 -0.005266342 -0.101306949
v -0.001988398 0.003885143 -0.101562144
v -0.006867688 -0.009648793 -0.011545015
v 0.015313963 -0.000168114 -0.098854973
v 0.012357558 -0.000065747 -0.102524884
v 0.020386578 0.005121396 -0.106790838
v -0.024610374 -0.042826784 -0.022738500
v 0.008300000 -0.032996236 -0.008144090
v 0.008995889 0.002651213 -0.052790398
v 0.008800000 -0.009338998 -0.003608899
v -0.024106385 0.036243335 -0.002790170
v -0.008926551 -0.009358949 -0.111337921
v -0.023759873 -0.004789034 -0.107057587
v -0.005991333 -0.028000001 -0.087125143
v -0.005170780 -0.007689004 -0.116499998
v -0.003499917 -0.001155882 -0.112001013
v -0.002820327 0.019409751 -0.115989467
v -0.025143108 -0.004988503 -0.027451325
v -0.026894224 -0.032510709 -0.017300467
v 0.008425283 0.010676829 -0.000954650
v 0.008993597 -0.016446811 -0.104676114
v -0.026497844 -0.031960417 -0.013578214
v 0.008930109 -0.009406227 -0.003325893
v 0.007946132 0.049109055 -0.018358111
v 0.008591461 0.008409881 -0.008586367
v -0.026430760 0.020878842 -0.017025544
v 0.008331250 -0.012842601 -0.042098202
v 0.005693851 -0.039762772 -0.005020008
v -0.009239419 0.004166807 -0.110036674
v -0.014457437 -0.036455070 -0.005318102
v -0.006300304 -0.013621941 -0.105411132
v -0.026905948 -0.010168146 -0.006155854
v -0.027860702 -0.023720367 -0.004117531
v -0.027000001 -0.033195719 -0.005863991
v -0.029429687 -0.010542480 -0.010151513
v 0.005073957 0.000608347 -0.101639626
v -0.019889774 -0.000434330 -0.101207745
v -0.005137879 0.000250095 -0.105327047
v -0.008655422 -0.018000270 -0.090185761
v -0.026946132 0.009800000 -0.006735658
v 0.000941231 -0.005074279 -0.099531449
v -0.009599839 -0.019999815 -0.079691347
v 0.002089880 0.003185343 -0.103409415
v 0.011353403 0.003574081 -0.094499998
v 0.009831478 0.037361744 -0.012147833
v -0.023438033 0.012255940 -0.026080944
v -0.021297204 -0.020339261 -0.089385994
v -0.025392003 -0.009362120 -0.009594236
v 0.005361310 -0.000014936 -0.107299479
v -0.017046400 -0.005567635 -0.090407913
v -0.017208457 0.009822330 -0.013971373
v -0.007505616 -0.007518136 -0.108289638
v -0.009170164 0.003662341 -0.107190753
v -0.001512191 -0.012951695 -0.107112669
v 0.002585854 -0.018261076 -0.105380337
v -0.026722399 -0.034904188 -0.005558092
v 0.005870843 -0.025922658 -0.103577604
v -0.003734374 -0.015966208 -0.097484339
v 0.007893680 -0.041286375 -0.025754462
v -0.006891631 -0.000926668 -0.109908310
v -0.004777957 -0.001027092 -0.116499998
v -0.007328088 -0.021310458 -0.106955391
v -0.023609422 -0.034767454 -0.021649177
v 0.011074868 -0.000613332 -0.005244922
v -0.003305063 0.000597687 -0.109333666
v 0.008779675 0.009950000 -0.007521333
v 0.001458199 -0.011669230 -0.096504365
v 0.008274958 -0.028223814 -0.010844559
v -0.018133420 -0.039003683 -0.017556677
v 0.006813169 0.010895344 -0.009237756
v -0.027932600 -0.017151223 -0.113201253
v -0.013550257 -0.029031386 -0.111740798
v -0.002323308 -0.044162705 -0.001960606
v -0.004574723 0.003819817 -0.110853600
v -0.006684057 0.002266506 -0.112500639
v -0.005170139 0.006752539 -0.116499998
v 0.013068999 0.001523989 -0.116499998
v 0.006715190 0.005759781 -0.109651941
v -0.010281993 -0.037446424 -0.066225470
v 0.011701156 0.008278108 -0.092943920
v -0.028245887 -0.001694319 -0.001999169
v -0.019608969 -0.041713079 -0.011265906
v 0.017615250 0.003279353 -0.096169837
v 0.013867639 -0.018702909 -0.105558430
v -0.007958727 -0.012490955 -0.111220614
v 0.000779569 0.000171185 -0.108894799
v -0.023736221 -0.034119468 -0.004586966
v 0.005894393 0.054307133 0.001211531
v -0.002904814 0.056608236 0.009049824
v -0.001989690 0.033419281 0.011578098
v 0.001656309 0.037476269 0.001927973
v 0.009141849 0.060434245 0.058500383
v 0.002546963 0.053676895 0.034494873
v 0.009569051 0.055403266 0.041163392
v 0.007770023 0.038795057 0.040842127
v 0.011299889 0.060202660 0.075888454
v 0.005893703 0.052337644 0.077279337
v 0.012013819 0.047045084 0.082352638
v 0.004567034 0.056972026 0.096967263
v 0.008117327 0.056419505 0.118865119
v 0.010340258 0.064218415 0.109781288
v 0.009606018 0.064554220 0.110211385
v 0.008379707 0.050716601 0.113492587
v -0.002366049 -0.002541834 0.001976273
v -0.000525234 0.011952206 0.010286925
v 0.005605219 0.006380800 0.002147296
v 0.000425811 -0.005536110 0.007885897
v 0.010503469 0.003303975 0.025408369
v 0.012789963 -0.000691484 0.026127915
v 0.010580000 -0.003250000 0.025100000
v 0.009694060 -0.000720371 0.041855318
v 0.011347176 -0.009034015 0.079870700
v 0.012377666 0.003716959 0.083670203
v 0.008855266 0.003007218 0.082683505
v 0.007799730 -0.008736688 0.087787267
v 0.009996211 0.011517587 0.118501023
v -0.001715400 0.008785552 0.122648794
v 0.009593468 0.007805588 0.116681084
v 0.010187797 -0.000367450 0.118588509
v -0.004232940 -0.054218521 0.002095321
v 0.005943800 -0.056214294 0.003526248
v -0.001393182 -0.057162387 0.013126313
v -0.000657347 -0.047987023 0.003674532
v 0.004726118 -0.042699076 0.060744616
v 0.010389150 -0.056060227 0.059928072
v 0.008600265 -0.046807125 0.036904130
v 0.011547584 -0.058985157 0.059402071
v 0.011433483 -0.052380229 0.081480804
v 0.011433411 -0.060145581 0.080296724
v 0.010058300 -0.039721146 0.077806480
v -0.002492371 -0.040411682 0.082245410
v 0.008354216 -0.056774928 0.115252100
v 0.009898392 -0.041636265 0.112317538
v 0.009867105 -0.042049643 0.111516496
v 0.001014661 -0.058276543 0.124141256
v -0.013438594 0.050821293 -0.064623341
v -0.018676867 0.031894441 -0.060907245
v -0.012223508 0.048374280 -0.071765315
v -0.016683444 0.056600149 -0.074901374
v -0.020727731 0.062912430 -0.076956493
v -0.002761986 0.062178005 -0.070533929
v -0.003804540 0.060512543 -0.081888169
v -0.004449813 0.060102519 -0.073642838
v -0.023812730 0.093223843 -0.076920379
v -0.024790536 0.114309835 -0.070681567
v -0.024641228 0.111059373 -0.071732970
v -0.013436933 0.111535848 -0.070125218
v -0.013630824 0.163790112 -0.078660261
v -0.016305194 0.146882689 -0.077782837
v -0.013635143 0.155297090 -0.084994726
v -0.003214742 0.151439196 -0.082380843
v -0.016138949 0.156587402 -0.094083393
v -0.013021583 0.156790990 -0.084585151
v -0.013649066 0.156683199 -0.085828548
v -0.013928306 0.156748510 -0.084767062
f 86 1 4
f 1 133 4
f 86 5 1
f 1 5 133
f 62 33 2
f 33 152 2
f 116 62 2
f 2 100 116
f 100 2 178
f 2 152 209
f 2 209 178
f 3 60 30
f 30 162 3
f 101 60 3
f 3 114 101
f 114 3 173
f 148 3 162
f 3 148 173
f 80 5 4
f 4 5 148
f 6 38 4
f 118 6 4
f 30 60 4
f 30 4 203
f 38 203 4
f 60 80 4
f 148 86 4
f 118 4 117
f 133 117 4
f 5 86 60
f 5 60 148
f 5 80 133
f 21 6 31
f 6 21 157
f 6 54 31
f 6 157 38
f 54 6 140
f 118 140 6
f 9 51 42
f 42 194 9
f 51 9 206
f 9 84 89
f 84 9 194
f 9 89 115
f 94 9 115
f 9 94 206
f 10 54 44
f 122 10 44
f 83 54 10
f 74 62 10
f 62 181 10
f 122 74 10
f 201 83 10
f 10 181 92
f 10 92 201
f 11 36 12
f 11 12 96
f 11 186 36
f 11 96 147
f 11 101 142
f 101 11 192
f 11 142 186
f 188 11 147
f 11 188 192
f 12 36 167
f 96 12 60
f 12 121 60
f 121 12 88
f 88 12 167
f 13 36 32
f 13 32 167
f 146 36 13
f 13 60 86
f 13 96 60
f 146 13 86
f 96 13 121
f 13 167 121
f 54 77 14
f 14 201 54
f 108 14 77
f 164 14 108
f 164 201 14
f 61 16 22
f 22 16 137
f 61 139 16
f 16 183 137
f 16 139 198
f 16 198 183
f 32 48 18
f 18 49 32
f 48 201 18
f 49 18 164
f 164 18 201
f 53 140 19
f 19 154 53
f 19 140 125
f 170 19 125
f 170 154 19
f 21 31 40
f 21 40 155
f 21 155 157
f 61 22 84
f 22 89 84
f 89 22 112
f 22 98 112
f 98 22 137
f 102 92 23
f 92 120 23
f 96 23 125
f 96 149 23
f 101 23 120
f 23 101 125
f 23 132 102
f 23 145 132
f 149 145 23
f 24 53 101
f 170 53 24
f 203 24 101
f 154 24 157
f 170 24 154
f 157 24 203
f 25 40 31
f 31 100 25
f 40 25 100
f 26 113 32
f 202 26 32
f 128 113 26
f 128 26 205
f 205 26 202
f 87 128 28
f 28 206 87
f 205 90 28
f 206 28 90
f 28 128 205
f 101 114 30
f 203 101 30
f 162 30 114
f 31 54 83
f 83 100 31
f 32 36 58
f 32 139 48
f 131 32 49
f 58 202 32
f 86 32 118
f 32 86 168
f 32 96 167
f 32 168 96
f 139 32 113
f 118 32 131
f 152 33 62
f 98 137 35
f 35 199 98
f 35 137 183
f 139 35 198
f 199 35 139
f 198 35 183
f 36 122 58
f 186 122 36
f 146 167 36
f 125 37 53
f 155 53 37
f 125 101 37
f 37 101 155
f 157 203 38
f 100 155 40
f 58 41 57
f 90 57 41
f 58 90 41
f 90 47 42
f 47 108 42
f 179 42 51
f 90 42 179
f 194 42 108
f 54 201 44
f 90 58 44
f 44 58 122
f 90 44 68
f 44 131 68
f 92 131 44
f 92 44 201
f 52 108 47
f 136 52 47
f 90 68 47
f 47 68 136
f 61 75 48
f 61 48 139
f 140 48 75
f 140 201 48
f 49 68 131
f 68 49 164
f 51 206 179
f 108 52 136
f 101 53 154
f 125 53 170
f 140 53 155
f 95 54 75
f 54 140 75
f 77 54 95
f 58 57 202
f 57 90 205
f 166 202 57
f 57 205 166
f 80 60 133
f 173 60 101
f 167 60 121
f 60 146 133
f 167 146 60
f 148 60 173
f 61 95 75
f 194 61 84
f 95 61 193
f 61 194 193
f 150 62 74
f 152 62 93
f 62 195 93
f 181 62 116
f 62 150 195
f 108 136 68
f 164 108 68
f 152 119 73
f 119 178 73
f 140 73 144
f 155 73 140
f 178 144 73
f 209 152 73
f 209 73 155
f 78 74 122
f 195 74 78
f 74 103 150
f 195 103 74
f 95 193 77
f 193 108 77
f 78 122 120
f 78 120 195
f 116 100 83
f 105 119 83
f 105 83 201
f 83 181 116
f 181 83 119
f 86 118 146
f 86 148 168
f 94 128 87
f 94 87 206
f 88 96 121
f 96 88 167
f 89 112 98
f 115 89 98
f 90 179 206
f 102 145 92
f 120 92 195
f 131 92 149
f 149 92 145
f 181 190 92
f 92 190 195
f 152 93 119
f 181 119 93
f 150 181 93
f 150 93 190
f 190 93 195
f 94 115 98
f 199 94 98
f 128 94 199
f 101 96 173
f 96 101 192
f 140 96 125
f 149 96 131
f 168 131 96
f 96 140 173
f 192 147 96
f 155 100 178
f 102 101 120
f 101 102 132
f 101 132 145
f 147 142 101
f 186 101 145
f 147 101 186
f 155 101 154
f 145 102 120
f 181 103 130
f 103 195 130
f 150 103 181
f 119 105 141
f 141 105 140
f 105 201 140
f 194 108 193
f 128 199 113
f 113 199 139
f 162 114 173
f 118 117 146
f 133 146 117
f 168 118 131
f 140 118 168
f 119 141 178
f 122 145 120
f 122 186 145
f 130 150 190
f 195 150 130
f 190 181 130
f 141 140 144
f 168 173 140
f 141 144 156
f 141 156 178
f 142 147 192
f 142 192 186
f 144 209 156
f 209 144 178
f 188 147 186
f 168 148 162
f 155 154 157
f 156 155 178
f 156 209 155
f 162 173 168
f 202 166 205
f 188 186 192
f 211 212 210
f 211 210 213
f 210 212 213
f 212 211 213
f 214 216 215
f 217 214 215
f 216 214 217
f 216 217 215
f 218 220 219
f 221 218 219
f 220 218 221
f 220 221 219
f 223 224 222
f 225 223 222
f 224 225 222
f 225 224 223
f 228 226 227
f 226 229 227
f 226 228 229
f 229 228 227
f 232 230 231
f 230 233 231
f 233 230 232
f 233 232 231
f 236 235 234
f 234 235 237
f 236 234 237
f 235 236 237
f 240 239 238
f 238 239 241
f 240 238 241
f 239 240 241
f 244 242 243
f 242 245 243
f 242 244 245
f 245 244 243
f 247 248 246
f 249 247 246
f 248 249 246
f 248 247 249
f 251 252 250
f 251 250 253
f 250 252 253
f 252 251 253
f 255 254 256
f 255 257 254
f 254 257 256
f 257 255 256
f 258 259 260
f 259 258 261
f 258 260 261
f 260 259 261
f 263 264 262
f 265 263 262
f 264 265 262
f 264 263 265
f 267 268 266
f 269 267 266
f 268 269 266
f 267 269 268
f 273 270 271
f 270 274 271
f 273 274 270
f 274 273 271
f 276 272 275
f 277 275 272
f 277 272 276
f 275 277 276
