# coarse_shortest_edge_200.obj  (200 v, 378 f)  units: metres
v -0.026998390 -0.009862500 -0.009059794
v -0.005945500 -0.008037250 -0.008957269
v -0.031914441 -0.014046925 -0.105917748
v 0.010465032 0.035429437 -0.009760416
v -0.007900980 0.021191245 -0.086991670
v -0.015372357 -0.032724694 -0.011502060
v -0.017924209 -0.002733424 -0.022913928
v 0.008074899 -0.008698808 -0.010001591
v -0.001469989 -0.022343824 -0.111426501
v -0.024639970 0.015102271 -0.008311136
v 0.008339775 -0.013869406 -0.049852605
v 0.015300000 -0.026180313 -0.027562715
v -0.026875001 -0.010000000 -0.003867721
v -0.012138045 -0.046788148 -0.006005135
v -0.009746997 0.027477339 -0.017872943
v -0.028944116 -0.047546365 -0.014148698
v -0.026542969 -0.026023941 -0.018229982
v -0.027583753 -0.038315245 -0.001448222
v -0.027437500 -0.026031677 -0.001600111
v -0.029091889 -0.010449375 -0.031698209
v 0.008298356 -0.016323312 -0.016420797
v -0.027350741 -0.032331559 -0.073650370
v -0.023355769 0.013181631 -0.112189999
v 0.008534385 -0.034631825 -0.016243170
v 0.008361061 -0.028860759 -0.028399813
v -0.029500000 -0.036343884 -0.042947433
v 0.006386172 0.031230958 -0.016338371
v -0.026429282 -0.013714529 -0.010067118
v -0.000257974 0.052776257 -0.015701249
v -0.028140686 0.000265754 -0.000610589
v -0.027912693 0.002079421 -0.085585469
v 0.007740496 -0.009180523 -0.013543954
v 0.007146113 0.022207813 -0.100187944
v 0.012487936 -0.006623117 -0.008396734
v 0.015300000 -0.030567635 -0.028913301
v 0.015300000 -0.029486206 -0.018686264
v -0.021134850 0.009613214 -0.012389654
v -0.022465387 0.032138506 -0.012439191
v 0.007459647 0.011876944 -0.002183617
v -0.028327437 -0.010578471 -0.000356708
v -0.026313044 -0.024662930 -0.062760921
v 0.013909473 0.015988666 -0.066809647
v -0.029500000 -0.032678968 -0.020367080
v -0.011403469 0.021286273 -0.036885068
v -0.026751998 -0.009825000 -0.005233456
v 0.007625422 0.011245300 -0.016778552
v -0.026044132 -0.048129592 -0.025480182
v 0.012919902 -0.037604254 -0.034024512
v -0.001858446 -0.050499604 -0.023621561
v -0.017130994 0.040776955 -0.010086730
v 0.001246753 0.011896381 -0.008291186
v -0.024664139 0.016947621 -0.014304958
v -0.026187500 -0.033349124 -0.006261868
v -0.029500000 0.009085059 -0.008557531
v 0.012676476 -0.011867895 -0.084590240
v -0.023886310 0.029643831 -0.022893609
v 0.006499010 -0.033037241 -0.026155239
v 0.008307813 -0.026502429 -0.018386132
v -0.001992159 -0.048155913 -0.047937187
v -0.029500000 -0.010332141 -0.004693332
v -0.029500000 -0.034207543 -0.009145531
v 0.008659953 -0.033261808 -0.009579796
v 0.007849987 0.010236292 -0.005405504
v -0.010698869 -0.018181467 -0.084468260
v 0.008726522 0.008027322 -0.009998713
v -0.006950711 0.013734495 -0.018305896
v -0.026584867 0.033589370 -0.007881035
v -0.016572931 -0.034822759 -0.026652077
v 0.008054163 0.011973846 -0.013754048
v 0.008030265 0.031056364 -0.010191420
v 0.008409375 -0.029372458 -0.010825926
v -0.029500000 0.001963821 -0.018346114
v 0.008799119 0.009875000 -0.005593793
v 0.015300000 -0.026788537 -0.045804405
v -0.026640980 0.009800000 -0.004149290
v 0.013816421 0.041168859 -0.021382654
v 0.008160992 -0.033976083 -0.010714146
v -0.026989997 0.033273610 -0.006694740
v 0.010907296 0.016294141 -0.004488401
v 0.015300000 -0.037098770 -0.024570730
v -0.026735687 0.038175710 -0.004369041
v -0.028684844 0.013494868 -0.003331851
v -0.014068871 -0.050408043 -0.057519891
v -0.026436584 0.010183019 -0.004624141
v -0.026398838 0.011033460 -0.013569574
v 0.008795718 0.033111106 -0.007261379
v 0.011782117 0.008580824 -0.005729978
v 0.008300000 -0.027323801 -0.033774292
v -0.029500000 -0.027659842 -0.010322050
v -0.027000001 -0.032823270 -0.010121094
v 0.009562574 0.022549790 -0.010324318
v 0.004502710 0.044454721 -0.004835624
v 0.006896216 -0.010732722 -0.007013706
v -0.017497733 0.039564145 -0.030653729
v -0.026919472 -0.033464847 -0.006229942
v -0.026397430 -0.033081682 -0.014780201
v -0.005571404 0.032433351 -0.022690567
v -0.026999207 0.009950000 -0.005974700
v -0.026580222 -0.009996323 -0.005576289
v -0.026521855 -0.009444791 -0.008356804
v -0.012543719 -0.051927454 -0.047367111
v -0.026637247 -0.010000000 -0.008539157
v -0.026937501 -0.033370469 -0.004942247
v 0.008800000 0.009218893 -0.003786532
v -0.029500000 0.026614989 -0.025800258
v -0.026500000 0.032593535 -0.005862738
v -0.028671126 0.022228708 -0.010849043
v 0.013444321 0.002309157 -0.112704448
v 0.012617780 -0.045470738 -0.053543031
v 0.012006135 -0.042745147 -0.010168847
v 0.008251909 -0.015797657 -0.028469655
v 0.015300000 0.003068850 -0.028550365
v 0.014190922 0.004940147 -0.007818187
v 0.012367470 -0.032217393 -0.024884591
v 0.012973519 0.025547020 -0.039274771
v -0.025387726 -0.029064862 -0.011363206
v 0.015300000 -0.007588896 -0.049374370
v 0.010426238 -0.034019097 -0.060479926
v 0.015300000 -0.017875120 -0.029293663
v -0.026500000 -0.023575451 -0.030479264
v -0.028684631 -0.014820563 -0.052760754
v 0.005608386 -0.030392415 -0.006342721
v 0.010817222 -0.023473841 -0.005063831
v 0.008230039 0.009770706 -0.006130972
v 0.010175000 0.002978977 -0.069371373
v 0.007581861 0.006192559 -0.039184564
v -0.015318367 -0.042111727 -0.015169895
v -0.000707503 0.044357947 -0.001163185
v -0.002129677 0.038306138 0.002900865
v -0.004219056 0.055715652 0.002804947
v 0.005090660 0.048154873 0.001146703
v -0.006239483 0.056599235 0.042519189
v 0.000753810 0.046274688 0.016591394
v -0.000058149 0.040065537 0.058096289
v 0.011992134 0.052392384 0.047237037
v -0.005832603 0.055931612 0.110609052
v -0.003813172 0.042261283 0.089777517
v 0.006325555 0.054440246 0.084887823
v 0.009426823 0.052879902 0.105073379
v 0.001265431 0.054157341 0.136184334
v 0.005152247 0.047634832 0.120928796
v -0.010581387 0.058921705 0.131785363
v 0.002088592 0.064414924 0.115065484
v -0.002780679 -0.009870718 0.010312718
v -0.006375330 -0.009887653 0.002462697
v -0.000576977 0.006170973 0.004293299
v 0.006090854 -0.010967056 0.007956708
v 0.001742825 0.001439741 0.067987386
v 0.004258700 0.011221840 0.046342155
v 0.002606702 0.003233365 0.020923368
v 0.008878161 -0.010586360 0.051352529
v -0.005960640 -0.009622625 0.038278860
v 0.004495250 -0.010417176 0.090712251
v 0.010531648 0.007558436 0.094950283
v -0.001204002 0.003211890 0.113739507
v -0.006954545 0.003903940 0.087400660
v -0.001181785 0.000000752 0.136741054
v 0.009441852 0.001765210 0.122842224
v -0.003035858 -0.011209419 0.118703382
v -0.004366351 0.011526940 0.112889378
v 0.001854666 -0.032909287 0.002516360
v -0.009545247 -0.034207772 0.001750715
v -0.002419002 -0.033461501 0.009713443
v -0.000579076 -0.050705888 0.002062714
v -0.001398659 -0.056739248 0.041331804
v 0.008239859 -0.035649109 0.026747821
v 0.001224230 -0.047955059 0.020493337
v 0.005501504 -0.041890754 0.052098548
v 0.000704261 -0.061084436 0.086069118
v 0.003017051 -0.040414713 0.079071972
v 0.009020667 -0.047474388 0.102737057
v -0.005304769 -0.054201393 0.102578044
v -0.002817899 -0.055067585 0.135622032
v 0.000702765 -0.060104091 0.118497555
v -0.005934583 -0.041845515 0.116975853
v 0.010199021 -0.049679817 0.122112889
v 0.002545831 0.036507210 -0.072139592
v -0.023252189 0.022303204 -0.074431077
v -0.013714218 0.052637724 -0.054888999
v -0.004353534 0.013398723 -0.067399954
v -0.015649801 0.042418651 -0.078679638
v 0.005375881 0.023781794 -0.051519080
v -0.017274416 0.023711997 -0.048026040
v -0.004266922 0.059926416 -0.078651850
v -0.019901925 0.058050199 -0.079233121
v -0.021880442 0.062650236 -0.074040619
v -0.015747935 0.059645722 -0.084694292
v -0.002742367 0.109691755 -0.075306232
v -0.016476439 0.088975755 -0.067100465
v -0.022024992 0.102783108 -0.080602373
v -0.007270811 0.080921609 -0.080738452
v -0.016016422 0.139487903 -0.074820188
v -0.015112943 0.128326648 -0.088228390
v -0.002155559 0.149392408 -0.085780763
v -0.024858417 0.154556003 -0.086662545
v -0.013266126 0.156646627 -0.085155691
v -0.013346684 0.154774743 -0.085596564
v -0.011756748 0.168132875 -0.088070444
v -0.013248923 0.155149914 -0.084138335
v -0.012288983 0.155222888 -0.085280532
f 7 1 28
f 1 7 100
f 28 1 102
f 1 99 45
f 102 1 45
f 100 99 1
f 7 32 2
f 2 100 7
f 8 21 2
f 2 32 8
f 37 10 2
f 10 84 2
f 21 123 2
f 28 2 99
f 100 2 28
f 30 40 2
f 30 2 82
f 34 2 93
f 104 2 34
f 37 2 126
f 39 51 2
f 63 39 2
f 40 99 2
f 126 2 51
f 124 63 2
f 2 75 82
f 2 84 75
f 123 93 2
f 124 2 104
f 9 3 23
f 3 9 64
f 31 3 22
f 3 64 22
f 23 3 31
f 4 50 27
f 27 86 4
f 4 70 50
f 70 4 92
f 91 76 4
f 76 92 4
f 86 91 4
f 5 23 31
f 33 23 5
f 5 31 64
f 42 33 5
f 5 125 42
f 64 55 5
f 125 5 55
f 6 18 14
f 68 6 14
f 6 53 18
f 53 6 19
f 6 116 19
f 6 68 96
f 6 96 116
f 28 17 7
f 7 17 120
f 44 7 20
f 121 20 7
f 7 111 32
f 7 85 37
f 7 37 126
f 44 66 7
f 7 66 85
f 111 7 126
f 120 121 7
f 21 8 34
f 8 32 93
f 34 8 123
f 8 93 123
f 108 9 23
f 55 64 9
f 55 9 108
f 37 52 10
f 10 52 107
f 84 10 82
f 10 107 82
f 118 11 55
f 125 55 11
f 88 111 11
f 88 11 118
f 11 111 126
f 125 11 126
f 35 12 80
f 35 119 12
f 80 12 36
f 12 119 36
f 28 13 40
f 28 99 13
f 45 40 13
f 100 45 13
f 99 100 13
f 18 16 14
f 14 16 47
f 47 49 14
f 49 110 14
f 122 68 14
f 110 122 14
f 91 27 15
f 27 97 15
f 44 56 15
f 44 15 97
f 15 56 52
f 52 66 15
f 15 66 91
f 61 16 18
f 43 47 16
f 43 16 61
f 28 116 17
f 96 17 90
f 90 17 116
f 120 17 96
f 89 18 19
f 19 18 103
f 53 95 18
f 61 18 89
f 18 95 103
f 19 28 89
f 28 19 116
f 103 53 19
f 43 20 26
f 20 121 26
f 20 28 72
f 20 89 28
f 43 89 20
f 44 20 94
f 72 105 20
f 20 105 94
f 32 21 93
f 21 32 111
f 21 34 93
f 58 71 21
f 58 21 111
f 21 71 122
f 123 21 122
f 101 26 22
f 121 22 26
f 22 121 31
f 22 64 41
f 83 22 41
f 101 22 83
f 108 23 33
f 57 24 58
f 57 68 24
f 58 24 71
f 24 62 71
f 24 77 62
f 68 77 24
f 25 88 57
f 111 25 57
f 88 25 111
f 43 26 47
f 47 26 101
f 97 27 50
f 86 27 70
f 27 91 70
f 60 28 40
f 60 72 28
f 102 100 28
f 29 50 92
f 94 50 29
f 76 29 92
f 94 29 76
f 40 30 60
f 72 30 54
f 30 82 54
f 30 72 60
f 64 31 41
f 121 41 31
f 33 42 55
f 55 108 33
f 63 34 39
f 39 34 87
f 34 63 104
f 87 34 113
f 112 113 34
f 119 112 34
f 123 119 34
f 35 80 48
f 48 119 35
f 36 110 80
f 36 123 110
f 123 36 119
f 37 75 52
f 85 75 37
f 50 38 97
f 38 50 107
f 38 67 56
f 97 38 56
f 67 38 106
f 38 78 106
f 78 38 107
f 51 39 69
f 69 39 79
f 79 39 87
f 99 40 45
f 59 83 41
f 101 59 41
f 101 41 68
f 41 120 68
f 121 120 41
f 55 42 117
f 42 115 112
f 42 112 117
f 115 42 126
f 42 125 126
f 61 89 43
f 94 56 44
f 44 126 66
f 97 115 44
f 44 115 126
f 45 100 102
f 46 51 65
f 126 51 46
f 46 65 69
f 79 46 69
f 46 79 91
f 126 46 91
f 68 49 47
f 47 101 68
f 68 48 49
f 48 110 49
f 48 68 57
f 57 88 48
f 48 59 101
f 48 118 59
f 48 109 74
f 74 119 48
f 48 80 110
f 88 118 48
f 109 48 101
f 50 81 67
f 50 67 106
f 50 70 91
f 81 50 105
f 50 91 92
f 105 50 94
f 50 106 107
f 124 65 51
f 69 124 51
f 56 107 52
f 66 52 85
f 52 75 84
f 84 98 52
f 85 52 98
f 53 96 95
f 53 116 96
f 53 103 116
f 54 107 72
f 107 54 82
f 117 74 55
f 74 118 55
f 107 56 67
f 94 97 56
f 57 58 111
f 59 109 83
f 118 109 59
f 62 123 71
f 122 62 77
f 122 110 62
f 62 110 123
f 69 65 63
f 63 65 73
f 69 63 124
f 63 73 104
f 73 65 124
f 91 66 69
f 66 126 69
f 78 67 81
f 107 67 78
f 68 71 77
f 71 68 122
f 68 120 96
f 126 91 69
f 92 86 70
f 77 71 123
f 72 107 105
f 73 124 104
f 109 118 74
f 117 119 74
f 82 75 98
f 75 85 98
f 91 115 76
f 97 94 76
f 97 76 115
f 77 123 122
f 106 78 81
f 87 113 79
f 91 79 112
f 113 112 79
f 107 81 105
f 107 106 81
f 98 84 82
f 83 109 101
f 91 86 92
f 96 90 103
f 103 90 116
f 112 115 91
f 96 103 95
f 112 119 117
f 128 129 130
f 131 129 128
f 131 128 130
f 129 131 130
f 132 133 134
f 132 135 133
f 135 132 134
f 133 135 134
f 137 136 138
f 136 137 139
f 138 136 139
f 137 138 139
f 141 140 142
f 143 140 141
f 140 143 142
f 143 141 142
f 146 145 144
f 145 147 144
f 147 146 144
f 145 146 147
f 151 149 148
f 148 149 152
f 151 148 152
f 151 150 149
f 150 152 149
f 150 151 152
f 153 154 155
f 154 153 156
f 153 155 156
f 155 154 156
f 157 159 158
f 160 157 158
f 160 159 157
f 159 160 158
f 161 162 163
f 162 161 164
f 164 161 163
f 162 164 163
f 167 166 165
f 166 168 165
f 168 167 165
f 168 166 167
f 170 171 169
f 170 169 172
f 169 171 172
f 171 170 172
f 175 174 173
f 174 176 173
f 176 175 173
f 175 176 174
f 177 181 179
f 177 179 183
f 177 180 181
f 177 182 180
f 177 183 182
f 181 180 178
f 180 183 178
f 183 181 178
f 179 181 183
f 182 183 180
f 184 186 185
f 184 185 187
f 186 184 187
f 185 186 187
f 190 189 188
f 189 191 188
f 191 190 188
f 191 189 190
f 192 193 194
f 195 193 192
f 198 192 194
f 198 195 192
f 195 194 193
f 194 195 198
f 196 199 197
f 197 200 196
f 196 200 199
f 199 200 197
