# cup.obj  (816 v, 1628 f)  units: metres
v 0.033958368 -0.075000003 0.092041634
v 0.035595592 -0.071900003 0.090404406
v 0.025158523 -0.075000003 0.076799847
v 0.024290875 -0.075000003 0.072437890
v 0.031025987 -0.075000003 0.088697888
v 0.028555136 -0.075000003 0.085000001
v 0.026588095 -0.075000003 0.081011236
v 0.030560318 -0.071900003 0.083842307
v 0.028727232 -0.071900003 0.080125175
v 0.032862905 -0.071900003 0.087288372
v 0.027395012 -0.071900003 0.076200582
v 0.026586451 -0.071900003 0.072135672
v 0.037302110 -0.075000003 0.094974011
v 0.041000001 -0.075000003 0.097444862
v 0.038711630 -0.071900003 0.093137093
v 0.042157691 -0.071900003 0.095439680
v 0.044988763 -0.075000003 0.099411905
v 0.045874823 -0.071900003 0.097272769
v 0.049200151 -0.075000003 0.100841478
v 0.053562108 -0.075000003 0.101709127
v 0.049799420 -0.071900003 0.098604985
v 0.053864326 -0.071900003 0.099413551
v 0.024835972 0.051788077 0.093447655
v 0.024436682 0.052124366 0.093754038
v 0.024058333 0.052838098 0.094044358
v 0.023925474 0.053679999 0.094146304
v 0.024058333 0.054521903 0.094044358
v 0.024436682 0.055235635 0.093754038
v 0.025002925 0.055712536 0.093319550
v 0.025670851 0.055879999 0.092807025
v 0.032552347 0.051788077 0.101164028
v 0.032245960 0.052124366 0.101563320
v 0.031955644 0.052838098 0.101941667
v 0.031853698 0.053679999 0.102074526
v 0.031955644 0.054521903 0.101941667
v 0.032245960 0.055235635 0.101563320
v 0.032680452 0.055712536 0.100997075
v 0.033192974 0.055879999 0.100329146
v 0.028441280 0.051788077 0.097558722
v 0.027748179 0.052838098 0.098251820
v 0.027629763 0.053679999 0.098370239
v 0.028085399 0.052124366 0.097914599
v 0.027748179 0.054521903 0.098251820
v 0.028085399 0.055235635 0.097914599
v 0.028590083 0.055712536 0.097409919
v 0.029185399 0.055879999 0.096814603
v 0.029780714 0.055712536 0.096219286
v 0.030285399 0.052124366 0.095714599
v 0.030257002 0.052097533 0.095743001
v 0.030622618 0.052838098 0.095377386
v 0.030741034 0.053679999 0.095258966
v 0.030285399 0.055235635 0.095714599
v 0.030622618 0.054521903 0.095377386
v 0.026338778 0.055712536 0.092294507
v 0.026873158 0.052097533 0.091884464
v 0.026905019 0.052124366 0.091860019
v 0.026905019 0.055235635 0.091860019
v 0.027283370 0.052838098 0.091569699
v 0.027416229 0.053679999 0.091467753
v 0.027283370 0.054521903 0.091569699
v 0.033705492 0.055712536 0.099661224
v 0.034115534 0.052097533 0.099126838
v 0.034139983 0.052124366 0.099094979
v 0.034139983 0.055235635 0.099094979
v 0.034430299 0.052838098 0.098716632
v 0.034532245 0.053679999 0.098583773
v 0.034430299 0.054521903 0.098716632
v 0.018319374 0.053679999 0.084436253
v 0.018914690 0.052124366 0.084189668
v 0.018474091 0.052838098 0.084372170
v 0.018474091 0.054521903 0.084372170
v 0.018914690 0.055235635 0.084189668
v 0.017622037 0.051788077 0.078819245
v 0.016513485 0.053679999 0.079116277
v 0.016675245 0.052838098 0.079072937
v 0.017135894 0.052124366 0.078949504
v 0.016675245 0.054521903 0.079072937
v 0.017135894 0.055235635 0.078949504
v 0.019379672 0.051788077 0.083997063
v 0.019574091 0.055712536 0.083916530
v 0.020351909 0.055879999 0.083594352
v 0.017825305 0.055712536 0.078764774
v 0.021798110 0.051788077 0.088901170
v 0.020949237 0.052838098 0.089391269
v 0.020804210 0.053679999 0.089474998
v 0.021362245 0.052124366 0.089152820
v 0.020949237 0.054521903 0.089391269
v 0.021362245 0.055235635 0.089152820
v 0.021980355 0.055712536 0.088795952
v 0.022709465 0.055879999 0.088375002
v 0.024021905 0.052097533 0.087617263
v 0.024056684 0.052124366 0.087597184
v 0.023438575 0.055712536 0.087954052
v 0.024056684 0.055235635 0.087597184
v 0.024469692 0.052838098 0.087358736
v 0.024614722 0.053679999 0.087274998
v 0.024469692 0.054521903 0.087358736
v 0.021752026 0.052097533 0.083014399
v 0.021129727 0.055712536 0.083272167
v 0.021789128 0.052124366 0.082999036
v 0.022229727 0.052838098 0.082816534
v 0.022229727 0.054521903 0.082816534
v 0.021789128 0.055235635 0.082999036
v 0.022384444 0.053679999 0.082752444
v 0.016555281 0.051788077 0.073456302
v 0.015583475 0.052838098 0.073584244
v 0.015417444 0.053679999 0.073606104
v 0.016056295 0.052124366 0.073521994
v 0.015583475 0.054521903 0.073584244
v 0.016056295 0.055235635 0.073521994
v 0.016763922 0.055712536 0.073428832
v 0.018638523 0.055879999 0.078546874
v 0.020102359 0.052097533 0.078154638
v 0.020141151 0.052124366 0.078144245
v 0.019451739 0.055712536 0.078328975
v 0.020141151 0.055235635 0.078144245
v 0.017598622 0.055879999 0.073318943
v 0.018433323 0.055712536 0.073209055
v 0.019101132 0.052097533 0.073121130
v 0.019140948 0.052124366 0.073115893
v 0.019613769 0.052838098 0.073053643
v 0.019779801 0.053679999 0.073031783
v 0.019613769 0.054521903 0.073053643
v 0.019140948 0.055235635 0.073115893
v 0.020601800 0.052838098 0.078020819
v 0.020763559 0.053679999 0.077977471
v 0.020601800 0.054521903 0.078020819
v 0.041563746 0.053679999 0.107680626
v 0.041810334 0.052124366 0.107085310
v 0.041627832 0.052838098 0.107525907
v 0.041627832 0.054521903 0.107525907
v 0.041810334 0.055235635 0.107085310
v 0.037098829 0.051788077 0.104201891
v 0.036608733 0.052838098 0.105050765
v 0.036525000 0.053679999 0.105195791
v 0.036847182 0.052124366 0.104637757
v 0.036608733 0.054521903 0.105050765
v 0.036847182 0.055235635 0.104637757
v 0.037204050 0.055712536 0.104019642
v 0.037625000 0.055879999 0.103290536
v 0.038382739 0.052097533 0.101978093
v 0.038402818 0.052124366 0.101943314
v 0.038045950 0.055712536 0.102561422
v 0.038402818 0.055235635 0.101943314
v 0.038641267 0.052838098 0.101530306
v 0.038725000 0.053679999 0.101385280
v 0.038641267 0.054521903 0.101530306
v 0.042002935 0.051788077 0.106620327
v 0.042083468 0.055712536 0.106425911
v 0.042405650 0.055879999 0.105648093
v 0.047180757 0.051788077 0.108377963
v 0.046883721 0.053679999 0.109486513
v 0.046927065 0.052838098 0.109324753
v 0.047050495 0.052124366 0.108864106
v 0.046927065 0.054521903 0.109324753
v 0.047050495 0.055235635 0.108864106
v 0.047235224 0.055712536 0.108174697
v 0.042985596 0.052097533 0.104247972
v 0.042727832 0.055712536 0.104870275
v 0.043000966 0.052124366 0.104210868
v 0.043183468 0.052838098 0.103770271
v 0.043183468 0.054521903 0.103770271
v 0.043000966 0.055235635 0.104210868
v 0.043247554 0.053679999 0.103615560
v 0.047453124 0.055879999 0.107361481
v 0.047845356 0.052097533 0.105897643
v 0.047855753 0.052124366 0.105858847
v 0.047671024 0.055712536 0.106548265
v 0.047855753 0.055235635 0.105858847
v 0.052543700 0.051788077 0.109444715
v 0.052415758 0.052838098 0.110416524
v 0.052393898 0.053679999 0.110582560
v 0.052478008 0.052124366 0.109943703
v 0.052415758 0.054521903 0.110416524
v 0.052478008 0.055235635 0.109943703
v 0.052571166 0.055712536 0.109236076
v 0.047979183 0.052838098 0.105398200
v 0.048022527 0.053679999 0.105236441
v 0.047979183 0.054521903 0.105398200
v 0.052681059 0.055879999 0.108401380
v 0.052790947 0.055712536 0.107566677
v 0.052878868 0.052097533 0.106898867
v 0.052884109 0.052124366 0.106859051
v 0.052946355 0.052838098 0.106386229
v 0.052968215 0.053679999 0.106220201
v 0.052946355 0.054521903 0.106386229
v 0.052884109 0.055235635 0.106859051
v 0.024000000 -0.075000003 0.068000004
v 0.024290875 -0.075000003 0.063562110
v 0.025158523 -0.075000003 0.059200153
v 0.026315385 -0.071900003 0.068000004
v 0.026586451 -0.071900003 0.063864328
v 0.027395012 -0.071900003 0.059799418
v 0.026588095 -0.075000003 0.054988764
v 0.028727232 -0.071900003 0.055874821
v 0.030560318 -0.071900003 0.052157693
v 0.028555136 -0.075000003 0.050999999
v 0.031025987 -0.075000003 0.047302112
v 0.032862905 -0.071900003 0.048711628
v 0.033958368 -0.075000003 0.043958370
v 0.035595592 -0.071900003 0.045595594
v 0.038711630 -0.071900003 0.042862903
v 0.037302110 -0.075000003 0.041025985
v 0.041000001 -0.075000003 0.038555138
v 0.042157691 -0.071900003 0.040560320
v 0.045874823 -0.071900003 0.038727231
v 0.044988763 -0.075000003 0.036588095
v 0.049799420 -0.071900003 0.037395012
v 0.053864326 -0.071900003 0.036586452
v 0.049200151 -0.075000003 0.035158522
v 0.053562108 -0.075000003 0.034290876
v 0.016197657 0.051788077 0.068000004
v 0.015694365 0.052124366 0.068000004
v 0.015217465 0.052838098 0.068000004
v 0.015050000 0.053679999 0.068000004
v 0.015217465 0.054521903 0.068000004
v 0.015694365 0.055235635 0.068000004
v 0.016408097 0.055712536 0.068000004
v 0.017250000 0.055879999 0.068000004
v 0.017598622 0.055879999 0.062681057
v 0.018805634 0.052124366 0.068000004
v 0.018765476 0.052097533 0.068000004
v 0.018091904 0.055712536 0.068000004
v 0.018805634 0.055235635 0.068000004
v 0.019282535 0.052838098 0.068000004
v 0.019450000 0.053679999 0.068000004
v 0.019282535 0.054521903 0.068000004
v 0.018433323 0.055712536 0.062790945
v 0.019140948 0.052124366 0.062884107
v 0.019101132 0.052097533 0.062878869
v 0.019613769 0.052838098 0.062946357
v 0.019779801 0.053679999 0.062968217
v 0.019613769 0.054521903 0.062946357
v 0.019140948 0.055235635 0.062884107
v 0.016555281 0.051788077 0.062543698
v 0.015583475 0.052838098 0.062415760
v 0.015417444 0.053679999 0.062393900
v 0.016056295 0.052124366 0.062478006
v 0.015583475 0.054521903 0.062415760
v 0.016056295 0.055235635 0.062478006
v 0.016763922 0.055712536 0.062571168
v 0.018638523 0.055879999 0.057453126
v 0.020141151 0.052124366 0.057855751
v 0.020102359 0.052097533 0.057845358
v 0.019451739 0.055712536 0.057671025
v 0.020141151 0.055235635 0.057855751
v 0.020601800 0.052838098 0.057979181
v 0.020763559 0.053679999 0.058022525
v 0.020601800 0.054521903 0.057979181
v 0.017622037 0.051788077 0.057180759
v 0.016675245 0.052838098 0.056927066
v 0.016513485 0.053679999 0.056883723
v 0.017135894 0.052124366 0.057050496
v 0.016675245 0.054521903 0.056927066
v 0.017135894 0.055235635 0.057050496
v 0.017825305 0.055712536 0.057235222
v 0.019379672 0.051788077 0.052002937
v 0.019574091 0.055712536 0.052083466
v 0.020351909 0.055879999 0.052405652
v 0.018319374 0.053679999 0.051563747
v 0.018914690 0.052124366 0.051810335
v 0.018474091 0.052838098 0.051627833
v 0.018474091 0.054521903 0.051627833
v 0.018914690 0.055235635 0.051810335
v 0.021752026 0.052097533 0.052985597
v 0.021129727 0.055712536 0.052727833
v 0.022384444 0.053679999 0.053247552
v 0.021789128 0.052124366 0.053000964
v 0.022229727 0.052838098 0.053183466
v 0.022229727 0.054521903 0.053183466
v 0.021789128 0.055235635 0.053000964
v 0.021798110 0.051788077 0.047098827
v 0.020949237 0.052838098 0.046608731
v 0.020804210 0.053679999 0.046525002
v 0.021362245 0.052124366 0.046847183
v 0.020949237 0.054521903 0.046608731
v 0.021362245 0.055235635 0.046847183
v 0.021980355 0.055712536 0.047204047
v 0.022709465 0.055879999 0.047625002
v 0.024021905 0.052097533 0.048382737
v 0.024056684 0.052124366 0.048402816
v 0.023438575 0.055712536 0.048045952
v 0.024056684 0.055235635 0.048402816
v 0.024469692 0.052838098 0.048641268
v 0.024614722 0.053679999 0.048725002
v 0.024469692 0.054521903 0.048641268
v 0.024835972 0.051788077 0.042552345
v 0.024436682 0.052124366 0.042245962
v 0.024058333 0.052838098 0.041955642
v 0.023925474 0.053679999 0.041853696
v 0.024058333 0.054521903 0.041955642
v 0.024436682 0.055235635 0.042245962
v 0.025002925 0.055712536 0.042680454
v 0.025670851 0.055879999 0.043192971
v 0.026873158 0.052097533 0.044115536
v 0.026905019 0.052124366 0.044139981
v 0.026905019 0.055235635 0.044139981
v 0.027416229 0.053679999 0.044532247
v 0.027283370 0.052838098 0.044430301
v 0.027283370 0.054521903 0.044430301
v 0.026338778 0.055712536 0.043705489
v 0.028441280 0.051788077 0.038441278
v 0.027748179 0.052838098 0.037748180
v 0.027629763 0.053679999 0.037629765
v 0.028085399 0.052124366 0.038085397
v 0.027748179 0.054521903 0.037748180
v 0.028085399 0.055235635 0.038085397
v 0.028590083 0.055712536 0.038590085
v 0.029185399 0.055879999 0.039185397
v 0.029780714 0.055712536 0.039780714
v 0.030285399 0.052124366 0.040285397
v 0.030257002 0.052097533 0.040257003
v 0.030622618 0.052838098 0.040622618
v 0.030741034 0.053679999 0.040741034
v 0.030285399 0.055235635 0.040285397
v 0.030622618 0.054521903 0.040622618
v 0.033705492 0.055712536 0.036338780
v 0.034430299 0.052838098 0.037283368
v 0.034532245 0.053679999 0.037416227
v 0.034430299 0.054521903 0.037283368
v 0.034139983 0.052124366 0.036905020
v 0.034115534 0.052097533 0.036873158
v 0.034139983 0.055235635 0.036905020
v 0.032552347 0.051788077 0.034835972
v 0.032245960 0.052124366 0.034436684
v 0.031955644 0.052838098 0.034058332
v 0.031853698 0.053679999 0.033925474
v 0.031955644 0.054521903 0.034058332
v 0.032245960 0.055235635 0.034436684
v 0.032680452 0.055712536 0.035002925
v 0.033192974 0.055879999 0.035670850
v 0.038641267 0.052838098 0.034469690
v 0.038725000 0.053679999 0.034614719
v 0.038641267 0.054521903 0.034469690
v 0.038402818 0.052124366 0.034056686
v 0.038382739 0.052097533 0.034021907
v 0.038402818 0.055235635 0.034056686
v 0.038045950 0.055712536 0.033438575
v 0.037098829 0.051788077 0.031798109
v 0.037625000 0.055879999 0.032709464
v 0.037204050 0.055712536 0.031980354
v 0.036847182 0.052124366 0.031362247
v 0.036608733 0.052838098 0.030949239
v 0.036525000 0.053679999 0.030804209
v 0.036847182 0.055235635 0.031362247
v 0.036608733 0.054521903 0.030949239
v 0.041810334 0.052124366 0.028914690
v 0.041627832 0.052838098 0.028474092
v 0.041563746 0.053679999 0.028319374
v 0.041627832 0.054521903 0.028474092
v 0.041810334 0.055235635 0.028914690
v 0.043000966 0.052124366 0.031789128
v 0.043183468 0.052838098 0.032229725
v 0.043183468 0.054521903 0.032229725
v 0.043000966 0.055235635 0.031789128
v 0.042985596 0.052097533 0.031752028
v 0.042727832 0.055712536 0.031129727
v 0.043247554 0.053679999 0.032384444
v 0.042002935 0.051788077 0.029379671
v 0.042405650 0.055879999 0.030351909
v 0.042083468 0.055712536 0.029574092
v 0.047235224 0.055712536 0.027825307
v 0.047180757 0.051788077 0.027622037
v 0.047050495 0.052124366 0.027135896
v 0.046883721 0.053679999 0.026513485
v 0.046927065 0.052838098 0.026675245
v 0.047050495 0.055235635 0.027135896
v 0.046927065 0.054521903 0.026675245
v 0.048022527 0.053679999 0.030763559
v 0.047979183 0.052838098 0.030601801
v 0.047979183 0.054521903 0.030601801
v 0.047845356 0.052097533 0.030102359
v 0.047855753 0.052124366 0.030141151
v 0.047855753 0.055235635 0.030141151
v 0.047671024 0.055712536 0.029451739
v 0.047453124 0.055879999 0.028638523
v 0.052543700 0.051788077 0.026555281
v 0.052571166 0.055712536 0.026763922
v 0.052478008 0.052124366 0.026056295
v 0.052415758 0.052838098 0.025583476
v 0.052393898 0.053679999 0.025417443
v 0.052478008 0.055235635 0.026056295
v 0.052415758 0.054521903 0.025583476
v 0.052968215 0.053679999 0.029779801
v 0.052878868 0.052097533 0.029101133
v 0.052884109 0.052124366 0.029140947
v 0.052946355 0.052838098 0.029613769
v 0.052946355 0.054521903 0.029613769
v 0.052884109 0.055235635 0.029140947
v 0.052790947 0.055712536 0.028433323
v 0.052681059 0.055879999 0.027598621
v 0.057999998 -0.075000003 0.101999998
v 0.062437892 -0.075000003 0.101709127
v 0.066799849 -0.075000003 0.100841478
v 0.057999998 -0.071900003 0.099684618
v 0.062135674 -0.071900003 0.099413551
v 0.066200584 -0.071900003 0.098604985
v 0.071011238 -0.075000003 0.099411905
v 0.070125178 -0.071900003 0.097272769
v 0.073842309 -0.071900003 0.095439680
v 0.075000003 -0.075000003 0.097444862
v 0.078697890 -0.075000003 0.094974011
v 0.077288374 -0.071900003 0.093137093
v 0.080404408 -0.071900003 0.090404406
v 0.082041629 -0.075000003 0.092041634
v 0.083137095 -0.071900003 0.087288372
v 0.084974013 -0.075000003 0.088697888
v 0.087444864 -0.075000003 0.085000001
v 0.085439682 -0.071900003 0.083842307
v 0.087272771 -0.071900003 0.080125175
v 0.089411907 -0.075000003 0.081011236
v 0.088604987 -0.071900003 0.076200582
v 0.089413546 -0.071900003 0.072135672
v 0.090841480 -0.075000003 0.076799847
v 0.091709122 -0.075000003 0.072437890
v 0.057999998 0.051788077 0.109802343
v 0.057999998 0.052124366 0.110305637
v 0.057999998 0.052838098 0.110782534
v 0.057999998 0.053679999 0.110950001
v 0.057999998 0.054521903 0.110782534
v 0.057999998 0.055235635 0.110305637
v 0.057999998 0.055712536 0.109591901
v 0.057999998 0.055879999 0.108750001
v 0.057999998 0.052124366 0.107194364
v 0.057999998 0.052097533 0.107234523
v 0.057999998 0.055712536 0.107908100
v 0.057999998 0.055235635 0.107194364
v 0.057999998 0.052838098 0.106717467
v 0.057999998 0.053679999 0.106550001
v 0.057999998 0.054521903 0.106717467
v 0.063318945 0.055879999 0.108401380
v 0.063209049 0.055712536 0.107566677
v 0.063115895 0.052124366 0.106859051
v 0.063121133 0.052097533 0.106898867
v 0.063053645 0.052838098 0.106386229
v 0.063031785 0.053679999 0.106220201
v 0.063053645 0.054521903 0.106386229
v 0.063115895 0.055235635 0.106859051
v 0.063456304 0.051788077 0.109444715
v 0.063584238 0.052838098 0.110416524
v 0.063606098 0.053679999 0.110582560
v 0.063521996 0.052124366 0.109943703
v 0.063584238 0.054521903 0.110416524
v 0.063521996 0.055235635 0.109943703
v 0.063428834 0.055712536 0.109236076
v 0.068546876 0.055879999 0.107361481
v 0.068144247 0.052124366 0.105858847
v 0.068154640 0.052097533 0.105897643
v 0.068328977 0.055712536 0.106548265
v 0.068144247 0.055235635 0.105858847
v 0.068020821 0.052838098 0.105398200
v 0.067977473 0.053679999 0.105236441
v 0.068020821 0.054521903 0.105398200
v 0.068819240 0.051788077 0.108377963
v 0.069072932 0.052838098 0.109324753
v 0.069116279 0.053679999 0.109486513
v 0.068949506 0.052124366 0.108864106
v 0.069072932 0.054521903 0.109324753
v 0.068949506 0.055235635 0.108864106
v 0.068764776 0.055712536 0.108174697
v 0.073997065 0.051788077 0.106620327
v 0.073916532 0.055712536 0.106425911
v 0.073594347 0.055879999 0.105648093
v 0.072752446 0.053679999 0.103615560
v 0.073014401 0.052097533 0.104247972
v 0.073272169 0.055712536 0.104870275
v 0.072999038 0.052124366 0.104210868
v 0.072816536 0.052838098 0.103770271
v 0.072816536 0.054521903 0.103770271
v 0.072999038 0.055235635 0.104210868
v 0.074436255 0.053679999 0.107680626
v 0.074189663 0.052124366 0.107085310
v 0.074372165 0.052838098 0.107525907
v 0.074372165 0.054521903 0.107525907
v 0.074189663 0.055235635 0.107085310
v 0.078901172 0.051788077 0.104201891
v 0.079391271 0.052838098 0.105050765
v 0.079475001 0.053679999 0.105195791
v 0.079152815 0.052124366 0.104637757
v 0.079391271 0.054521903 0.105050765
v 0.079152815 0.055235635 0.104637757
v 0.078795955 0.055712536 0.104019642
v 0.078374997 0.055879999 0.103290536
v 0.077617265 0.052097533 0.101978093
v 0.077597186 0.052124366 0.101943314
v 0.077954046 0.055712536 0.102561422
v 0.077597186 0.055235635 0.101943314
v 0.077358730 0.052838098 0.101530306
v 0.077275001 0.053679999 0.101385280
v 0.077358730 0.054521903 0.101530306
v 0.083447658 0.051788077 0.101164028
v 0.082807027 0.055879999 0.100329146
v 0.083319545 0.055712536 0.100997075
v 0.083754040 0.052124366 0.101563320
v 0.084044360 0.052838098 0.101941667
v 0.084146306 0.053679999 0.102074526
v 0.084044360 0.054521903 0.101941667
v 0.083754040 0.055235635 0.101563320
v 0.081884466 0.052097533 0.099126838
v 0.081860021 0.052124366 0.099094979
v 0.081860021 0.055235635 0.099094979
v 0.081467755 0.053679999 0.098583773
v 0.081569701 0.052838098 0.098716632
v 0.081569701 0.054521903 0.098716632
v 0.082294509 0.055712536 0.099661224
v 0.085377380 0.052838098 0.095377386
v 0.085258968 0.053679999 0.095258966
v 0.085714601 0.052124366 0.095714599
v 0.085742995 0.052097533 0.095743001
v 0.085377380 0.054521903 0.095377386
v 0.085714601 0.055235635 0.095714599
v 0.086219288 0.055712536 0.096219286
v 0.086814605 0.055879999 0.096814603
v 0.087409914 0.055712536 0.097409919
v 0.087558724 0.051788077 0.097558722
v 0.087914601 0.052124366 0.097914599
v 0.088251822 0.052838098 0.098251820
v 0.088370234 0.053679999 0.098370239
v 0.087914601 0.055235635 0.097914599
v 0.088251822 0.054521903 0.098251820
v 0.089661218 0.055712536 0.092294507
v 0.088716634 0.052838098 0.091569699
v 0.088583775 0.053679999 0.091467753
v 0.088716634 0.054521903 0.091569699
v 0.089094982 0.052124366 0.091860019
v 0.089126840 0.052097533 0.091884464
v 0.089094982 0.055235635 0.091860019
v 0.091164030 0.051788077 0.093447655
v 0.090329148 0.055879999 0.092807025
v 0.090997078 0.055712536 0.093319550
v 0.091563314 0.052124366 0.093754038
v 0.091941670 0.052838098 0.094044358
v 0.092074528 0.053679999 0.094146304
v 0.091941670 0.054521903 0.094044358
v 0.091563314 0.055235635 0.093754038
v 0.091530308 0.052838098 0.087358736
v 0.091385283 0.053679999 0.087274998
v 0.091530308 0.054521903 0.087358736
v 0.091943316 0.052124366 0.087597184
v 0.091978095 0.052097533 0.087617263
v 0.091943316 0.055235635 0.087597184
v 0.092561424 0.055712536 0.087954052
v 0.094201893 0.051788077 0.088901170
v 0.093290538 0.055879999 0.088375002
v 0.094019644 0.055712536 0.088795952
v 0.094637752 0.052124366 0.089152820
v 0.095050760 0.052838098 0.089391269
v 0.095195793 0.053679999 0.089474998
v 0.094637752 0.055235635 0.089152820
v 0.095050760 0.054521903 0.089391269
v 0.094210871 0.052124366 0.082999036
v 0.093770273 0.052838098 0.082816534
v 0.093770273 0.054521903 0.082816534
v 0.094210871 0.055235635 0.082999036
v 0.093615554 0.053679999 0.082752444
v 0.094247974 0.052097533 0.083014399
v 0.094870277 0.055712536 0.083272167
v 0.097085312 0.052124366 0.084189668
v 0.097525910 0.052838098 0.084372170
v 0.097680628 0.053679999 0.084436253
v 0.097525910 0.054521903 0.084372170
v 0.097085312 0.055235635 0.084189668
v 0.096620329 0.051788077 0.083997063
v 0.095648088 0.055879999 0.083594352
v 0.096425906 0.055712536 0.083916530
v 0.098174691 0.055712536 0.078764774
v 0.098377965 0.051788077 0.078819245
v 0.098864108 0.052124366 0.078949504
v 0.099486515 0.053679999 0.079116277
v 0.099324755 0.052838098 0.079072937
v 0.098864108 0.055235635 0.078949504
v 0.099324755 0.054521903 0.079072937
v 0.095236443 0.053679999 0.077977471
v 0.095398203 0.052838098 0.078020819
v 0.095398203 0.054521903 0.078020819
v 0.095897637 0.052097533 0.078154638
v 0.095858850 0.052124366 0.078144245
v 0.095858850 0.055235635 0.078144245
v 0.096548259 0.055712536 0.078328975
v 0.097361475 0.055879999 0.078546874
v 0.099444717 0.051788077 0.073456302
v 0.099236079 0.055712536 0.073428832
v 0.099943705 0.052124366 0.073521994
v 0.100416526 0.052838098 0.073584244
v 0.100582555 0.053679999 0.073606104
v 0.099943705 0.055235635 0.073521994
v 0.100416526 0.054521903 0.073584244
v 0.096220203 0.053679999 0.073031783
v 0.096898869 0.052097533 0.073121130
v 0.096859053 0.052124366 0.073115893
v 0.096386231 0.052838098 0.073053643
v 0.096386231 0.054521903 0.073053643
v 0.096859053 0.055235635 0.073115893
v 0.097566679 0.055712536 0.073209055
v 0.098401375 0.055879999 0.073318943
v 0.057999998 -0.071900003 0.036315385
v 0.062135674 -0.071900003 0.036586452
v 0.066200584 -0.071900003 0.037395012
v 0.057999998 -0.075000003 0.034000002
v 0.062437892 -0.075000003 0.034290876
v 0.066799849 -0.075000003 0.035158522
v 0.070125178 -0.071900003 0.038727231
v 0.071011238 -0.075000003 0.036588095
v 0.073842309 -0.071900003 0.040560320
v 0.077288374 -0.071900003 0.042862903
v 0.075000003 -0.075000003 0.038555138
v 0.078697890 -0.075000003 0.041025985
v 0.089684613 -0.071900003 0.068000004
v 0.089413546 -0.071900003 0.063864328
v 0.088604987 -0.071900003 0.059799418
v 0.083137095 -0.071900003 0.048711628
v 0.087272771 -0.071900003 0.055874821
v 0.085439682 -0.071900003 0.052157693
v 0.089411907 -0.075000003 0.054988764
v 0.087444864 -0.075000003 0.050999999
v 0.084974013 -0.075000003 0.047302112
v 0.092000000 -0.075000003 0.068000004
v 0.091709122 -0.075000003 0.063562110
v 0.090841480 -0.075000003 0.059200153
v 0.080404408 -0.071900003 0.045595594
v 0.082041629 -0.075000003 0.043958370
v 0.057999998 0.053679999 0.029449999
v 0.057999998 0.052838098 0.029282534
v 0.057999998 0.054521903 0.029282534
v 0.057999998 0.052124366 0.028805634
v 0.057999998 0.052097533 0.028765475
v 0.057999998 0.055235635 0.028805634
v 0.057999998 0.055712536 0.028091904
v 0.057999998 0.051788077 0.026197657
v 0.057999998 0.055879999 0.027249999
v 0.057999998 0.055712536 0.026408097
v 0.057999998 0.052124366 0.025694365
v 0.057999998 0.052838098 0.025217464
v 0.057999998 0.053679999 0.025049999
v 0.057999998 0.054521903 0.025217464
v 0.057999998 0.055235635 0.025694365
v 0.063031785 0.053679999 0.029779801
v 0.063115895 0.052124366 0.029140947
v 0.063121133 0.052097533 0.029101133
v 0.063053645 0.052838098 0.029613769
v 0.063053645 0.054521903 0.029613769
v 0.063115895 0.055235635 0.029140947
v 0.063209049 0.055712536 0.028433323
v 0.063318945 0.055879999 0.027598621
v 0.067977473 0.053679999 0.030763559
v 0.068020821 0.052838098 0.030601801
v 0.068020821 0.054521903 0.030601801
v 0.063456304 0.051788077 0.026555281
v 0.063428834 0.055712536 0.026763922
v 0.063521996 0.052124366 0.026056295
v 0.063584238 0.052838098 0.025583476
v 0.063606098 0.053679999 0.025417443
v 0.063521996 0.055235635 0.026056295
v 0.063584238 0.054521903 0.025583476
v 0.068144247 0.052124366 0.030141151
v 0.068154640 0.052097533 0.030102359
v 0.068144247 0.055235635 0.030141151
v 0.068328977 0.055712536 0.029451739
v 0.068546876 0.055879999 0.028638523
v 0.072752446 0.053679999 0.032384444
v 0.072999038 0.052124366 0.031789128
v 0.072816536 0.052838098 0.032229725
v 0.072816536 0.054521903 0.032229725
v 0.072999038 0.055235635 0.031789128
v 0.073014401 0.052097533 0.031752028
v 0.073272169 0.055712536 0.031129727
v 0.068764776 0.055712536 0.027825307
v 0.068819240 0.051788077 0.027622037
v 0.068949506 0.052124366 0.027135896
v 0.069072932 0.052838098 0.026675245
v 0.069116279 0.053679999 0.026513485
v 0.068949506 0.055235635 0.027135896
v 0.069072932 0.054521903 0.026675245
v 0.073997065 0.051788077 0.029379671
v 0.073594347 0.055879999 0.030351909
v 0.073916532 0.055712536 0.029574092
v 0.077358730 0.052838098 0.034469690
v 0.077275001 0.053679999 0.034614719
v 0.077358730 0.054521903 0.034469690
v 0.077597186 0.052124366 0.034056686
v 0.077617265 0.052097533 0.034021907
v 0.077597186 0.055235635 0.034056686
v 0.077954046 0.055712536 0.033438575
v 0.078901172 0.051788077 0.031798109
v 0.078374997 0.055879999 0.032709464
v 0.078795955 0.055712536 0.031980354
v 0.079152815 0.052124366 0.031362247
v 0.079391271 0.052838098 0.030949239
v 0.079475001 0.053679999 0.030804209
v 0.079152815 0.055235635 0.031362247
v 0.079391271 0.054521903 0.030949239
v 0.074189663 0.052124366 0.028914690
v 0.074372165 0.052838098 0.028474092
v 0.074436255 0.053679999 0.028319374
v 0.074372165 0.054521903 0.028474092
v 0.074189663 0.055235635 0.028914690
v 0.095236443 0.053679999 0.058022525
v 0.095398203 0.052838098 0.057979181
v 0.095398203 0.054521903 0.057979181
v 0.096550003 0.053679999 0.068000004
v 0.096717462 0.052838098 0.068000004
v 0.096717462 0.054521903 0.068000004
v 0.097194366 0.052124366 0.068000004
v 0.097234525 0.052097533 0.068000004
v 0.097194366 0.055235635 0.068000004
v 0.097908095 0.055712536 0.068000004
v 0.096220203 0.053679999 0.062968217
v 0.096859053 0.052124366 0.062884107
v 0.096898869 0.052097533 0.062878869
v 0.096386231 0.052838098 0.062946357
v 0.096386231 0.054521903 0.062946357
v 0.096859053 0.055235635 0.062884107
v 0.097566679 0.055712536 0.062790945
v 0.099802345 0.051788077 0.068000004
v 0.098750003 0.055879999 0.068000004
v 0.099591903 0.055712536 0.068000004
v 0.100305632 0.052124366 0.068000004
v 0.100782536 0.052838098 0.068000004
v 0.100950003 0.053679999 0.068000004
v 0.100782536 0.054521903 0.068000004
v 0.100305632 0.055235635 0.068000004
v 0.098401375 0.055879999 0.062681057
v 0.095858850 0.052124366 0.057855751
v 0.095897637 0.052097533 0.057845358
v 0.095858850 0.055235635 0.057855751
v 0.096548259 0.055712536 0.057671025
v 0.097361475 0.055879999 0.057453126
v 0.099444717 0.051788077 0.062543698
v 0.099236079 0.055712536 0.062571168
v 0.099943705 0.052124366 0.062478006
v 0.100416526 0.052838098 0.062415760
v 0.100582555 0.053679999 0.062393900
v 0.099943705 0.055235635 0.062478006
v 0.100416526 0.054521903 0.062415760
v 0.093615554 0.053679999 0.053247552
v 0.094210871 0.052124366 0.053000964
v 0.093770273 0.052838098 0.053183466
v 0.093770273 0.054521903 0.053183466
v 0.094210871 0.055235635 0.053000964
v 0.094247974 0.052097533 0.052985597
v 0.094870277 0.055712536 0.052727833
v 0.091530308 0.052838098 0.048641268
v 0.091385283 0.053679999 0.048725002
v 0.091530308 0.054521903 0.048641268
v 0.091943316 0.052124366 0.048402816
v 0.091978095 0.052097533 0.048382737
v 0.091943316 0.055235635 0.048402816
v 0.092561424 0.055712536 0.048045952
v 0.094201893 0.051788077 0.047098827
v 0.093290538 0.055879999 0.047625002
v 0.094019644 0.055712536 0.047204047
v 0.094637752 0.052124366 0.046847183
v 0.095050760 0.052838098 0.046608731
v 0.095195793 0.053679999 0.046525002
v 0.094637752 0.055235635 0.046847183
v 0.095050760 0.054521903 0.046608731
v 0.098174691 0.055712536 0.057235222
v 0.096620329 0.051788077 0.052002937
v 0.095648088 0.055879999 0.052405652
v 0.096425906 0.055712536 0.052083466
v 0.098377965 0.051788077 0.057180759
v 0.098864108 0.052124366 0.057050496
v 0.099324755 0.052838098 0.056927066
v 0.099486515 0.053679999 0.056883723
v 0.098864108 0.055235635 0.057050496
v 0.099324755 0.054521903 0.056927066
v 0.097085312 0.052124366 0.051810335
v 0.097525910 0.052838098 0.051627833
v 0.097680628 0.053679999 0.051563747
v 0.097525910 0.054521903 0.051627833
v 0.097085312 0.055235635 0.051810335
v 0.081467755 0.053679999 0.037416227
v 0.081569701 0.052838098 0.037283368
v 0.081569701 0.054521903 0.037283368
v 0.081860021 0.052124366 0.036905020
v 0.081884466 0.052097533 0.036873158
v 0.081860021 0.055235635 0.036905020
v 0.082294509 0.055712536 0.036338780
v 0.088583775 0.053679999 0.044532247
v 0.088716634 0.052838098 0.044430301
v 0.088716634 0.054521903 0.044430301
v 0.089094982 0.052124366 0.044139981
v 0.089126840 0.052097533 0.044115536
v 0.089094982 0.055235635 0.044139981
v 0.089661218 0.055712536 0.043705489
v 0.085377380 0.052838098 0.040622618
v 0.085258968 0.053679999 0.040741034
v 0.085714601 0.052124366 0.040285397
v 0.085742995 0.052097533 0.040257003
v 0.085377380 0.054521903 0.040622618
v 0.085714601 0.055235635 0.040285397
v 0.086219288 0.055712536 0.039780714
v 0.086814605 0.055879999 0.039185397
v 0.087409914 0.055712536 0.038590085
v 0.087558724 0.051788077 0.038441278
v 0.087914601 0.052124366 0.038085397
v 0.088251822 0.052838098 0.037748180
v 0.088370234 0.053679999 0.037629765
v 0.087914601 0.055235635 0.038085397
v 0.088251822 0.054521903 0.037748180
v 0.083447658 0.051788077 0.034835972
v 0.082807027 0.055879999 0.035670850
v 0.083319545 0.055712536 0.035002925
v 0.083754040 0.052124366 0.034436684
v 0.084044360 0.052838098 0.034058332
v 0.084146306 0.053679999 0.033925474
v 0.084044360 0.054521903 0.034058332
v 0.083754040 0.055235635 0.034436684
v 0.091164030 0.051788077 0.042552345
v 0.090329148 0.055879999 0.043192971
v 0.090997078 0.055712536 0.042680454
v 0.091563314 0.052124366 0.042245962
v 0.091941670 0.052838098 0.041955642
v 0.092074528 0.053679999 0.041853696
v 0.091941670 0.054521903 0.041955642
v 0.091563314 0.055235635 0.042245962
f 1 39 5
f 1 13 31
f 3 4 190
f 6 198 5
f 3 194 7
f 6 7 197
f 1 5 200
f 1 203 13
f 6 79 7
f 3 7 79
f 3 73 4
f 4 105 188
f 6 5 83
f 14 17 148
f 17 19 151
f 13 14 133
f 19 20 170
f 20 392 416
f 13 204 14
f 14 207 17
f 19 211 20
f 20 599 392
f 17 210 19
f 5 39 23
f 5 23 83
f 1 31 39
f 13 133 31
f 6 83 79
f 3 79 73
f 4 73 105
f 188 105 212
f 14 148 133
f 17 151 148
f 19 170 151
f 20 416 170
f 4 188 189
f 4 189 190
f 3 190 194
f 7 194 197
f 6 197 198
f 5 198 200
f 1 200 203
f 188 212 189
f 189 235 190
f 190 250 194
f 194 257 197
f 197 272 198
f 198 287 200
f 200 324 203
f 13 203 204
f 14 204 207
f 17 207 210
f 19 210 211
f 20 211 599
f 203 339 204
f 204 359 207
f 207 359 210
f 210 363 211
f 211 377 599
f 189 212 235
f 190 235 250
f 194 250 257
f 197 257 272
f 198 272 287
f 200 287 302
f 200 302 324
f 203 324 339
f 204 339 359
f 210 359 363
f 211 363 377
f 599 377 629
f 392 393 439
f 393 394 454
f 394 398 461
f 398 401 461
f 401 402 476
f 392 600 393
f 393 601 394
f 394 603 398
f 398 606 401
f 401 607 402
f 402 405 491
f 405 407 528
f 402 621 405
f 405 616 407
f 407 615 408
f 408 614 411
f 411 619 414
f 414 618 415
f 407 408 543
f 408 411 563
f 411 414 567
f 414 415 581
f 415 617 714
f 392 439 416
f 393 454 439
f 394 461 454
f 401 476 461
f 402 491 476
f 405 515 491
f 405 528 515
f 407 543 528
f 408 563 543
f 411 567 563
f 414 581 567
f 415 714 581
f 394 601 603
f 392 599 600
f 393 600 601
f 398 603 606
f 401 606 607
f 599 629 600
f 600 648 601
f 606 684 607
f 601 668 603
f 603 674 606
f 402 607 621
f 405 621 616
f 408 615 614
f 411 614 619
f 407 616 615
f 414 619 618
f 415 618 617
f 616 749 615
f 617 618 728
f 618 619 761
f 614 758 619
f 614 615 758
f 607 801 621
f 616 621 795
f 600 629 648
f 601 648 668
f 603 668 674
f 606 674 684
f 617 728 714
f 618 761 728
f 619 758 761
f 615 749 758
f 607 684 801
f 621 801 795
f 616 809 749
f 616 795 809
f 2 10 55
f 2 49 15
f 9 195 11
f 11 193 12
f 8 196 9
f 2 201 10
f 8 10 199
f 9 11 113
f 11 12 119
f 12 191 222
f 8 91 10
f 8 9 98
f 16 15 62
f 16 141 18
f 18 158 21
f 21 166 22
f 22 182 395
f 2 15 202
f 16 205 15
f 16 18 206
f 18 21 208
f 21 22 209
f 22 395 596
f 2 55 49
f 15 49 62
f 8 98 91
f 9 113 98
f 11 119 113
f 12 222 119
f 10 91 55
f 18 141 158
f 21 158 166
f 16 62 141
f 22 166 182
f 395 182 425
f 12 192 191
f 12 193 192
f 11 195 193
f 9 196 195
f 8 199 196
f 10 201 199
f 191 192 230
f 192 193 244
f 193 195 265
f 195 196 280
f 196 199 295
f 199 201 312
f 201 202 322
f 2 202 201
f 15 205 202
f 16 206 205
f 18 208 206
f 21 209 208
f 22 596 209
f 202 205 336
f 205 206 356
f 206 208 372
f 208 209 385
f 209 596 626
f 191 230 222
f 192 244 230
f 193 265 244
f 195 280 265
f 196 295 280
f 199 312 295
f 201 322 312
f 202 336 322
f 205 356 336
f 206 372 356
f 208 385 372
f 209 626 385
f 395 425 396
f 396 434 397
f 397 448 399
f 399 465 400
f 400 484 403
f 395 396 597
f 396 397 598
f 397 399 602
f 399 400 604
f 400 403 605
f 403 404 620
f 403 499 404
f 404 509 406
f 404 406 611
f 406 409 613
f 409 410 612
f 410 412 610
f 412 413 609
f 406 526 409
f 409 540 410
f 410 556 412
f 412 576 413
f 413 589 608
f 396 425 434
f 397 434 448
f 399 448 465
f 400 465 484
f 403 484 499
f 404 499 509
f 406 509 526
f 409 526 540
f 410 540 556
f 412 556 576
f 413 576 589
f 608 589 704
f 395 597 596
f 396 598 597
f 397 602 598
f 399 604 602
f 400 605 604
f 403 620 605
f 597 639 596
f 597 598 656
f 598 602 665
f 602 604 681
f 605 776 604
f 406 613 611
f 404 611 620
f 409 612 613
f 413 608 609
f 412 609 610
f 410 610 612
f 612 740 613
f 611 613 746
f 609 608 704
f 609 709 610
f 610 724 612
f 605 620 789
f 611 783 620
f 596 639 626
f 597 656 639
f 604 776 681
f 598 665 656
f 602 681 665
f 611 746 783
f 609 704 709
f 610 709 724
f 612 724 740
f 613 740 746
f 605 789 776
f 620 783 789
f 25 41 26
f 24 40 25
f 26 43 27
f 27 44 28
f 25 26 84
f 26 27 85
f 25 84 86
f 84 26 85
f 27 87 85
f 86 83 23
f 28 88 87
f 29 89 88
f 24 25 86
f 27 28 87
f 24 86 23
f 28 29 88
f 29 30 89
f 30 90 89
f 54 93 90
f 30 54 90
f 57 93 54
f 32 33 42
f 32 42 31
f 33 34 40
f 34 35 41
f 35 36 43
f 33 135 34
f 34 137 35
f 32 134 33
f 35 138 36
f 33 134 135
f 34 135 137
f 35 137 138
f 32 136 134
f 32 133 136
f 36 138 139
f 32 31 133
f 36 139 37
f 37 140 38
f 38 143 61
f 37 139 140
f 38 140 143
f 64 61 144
f 25 40 41
f 24 42 40
f 24 39 42
f 26 41 43
f 27 43 44
f 28 44 45
f 24 23 39
f 29 45 46
f 30 46 47
f 40 34 41
f 42 33 40
f 42 39 31
f 35 43 41
f 43 36 44
f 37 45 44
f 36 37 44
f 38 46 45
f 47 46 61
f 28 45 29
f 29 46 30
f 30 47 54
f 48 55 56
f 48 56 58
f 50 58 59
f 53 60 57
f 52 57 54
f 56 55 91
f 56 95 58
f 58 96 59
f 60 94 57
f 59 97 60
f 48 49 55
f 48 58 50
f 50 59 51
f 52 54 47
f 53 57 52
f 51 60 53
f 51 59 60
f 37 38 45
f 38 61 46
f 63 62 49
f 63 50 65
f 64 47 61
f 67 52 64
f 66 53 67
f 48 63 49
f 48 50 63
f 50 51 65
f 52 47 64
f 53 52 67
f 51 53 66
f 65 51 66
f 63 142 62
f 63 65 142
f 65 66 145
f 67 64 147
f 66 67 146
f 69 86 84
f 70 84 85
f 68 85 87
f 71 87 88
f 69 84 70
f 70 85 68
f 69 79 83
f 68 87 71
f 71 88 72
f 72 89 80
f 76 70 75
f 75 68 74
f 74 71 77
f 77 72 78
f 69 70 76
f 70 68 75
f 69 76 79
f 68 71 74
f 71 72 77
f 72 80 78
f 80 81 82
f 81 99 112
f 76 73 79
f 78 80 82
f 81 112 82
f 99 115 112
f 69 83 86
f 72 88 89
f 80 89 90
f 80 90 81
f 81 93 99
f 81 90 93
f 94 99 93
f 92 98 100
f 92 100 101
f 95 101 104
f 94 103 99
f 96 104 102
f 97 102 103
f 56 91 92
f 56 92 95
f 58 95 96
f 57 94 93
f 60 97 94
f 59 96 97
f 92 91 98
f 92 101 95
f 95 104 96
f 96 102 97
f 97 103 94
f 103 115 99
f 100 98 113
f 100 125 101
f 104 127 102
f 102 116 103
f 100 113 114
f 100 114 125
f 101 125 126
f 102 127 116
f 103 116 115
f 104 126 127
f 101 126 104
f 75 74 106
f 74 77 107
f 76 75 108
f 76 108 73
f 77 78 109
f 78 82 110
f 108 75 106
f 106 74 107
f 77 109 107
f 109 78 110
f 108 105 73
f 82 111 110
f 111 112 117
f 82 112 111
f 115 117 112
f 114 113 119
f 114 121 125
f 125 122 126
f 116 118 115
f 126 123 127
f 127 124 116
f 115 118 117
f 114 119 120
f 114 120 121
f 116 124 118
f 123 124 127
f 121 122 125
f 122 123 126
f 106 107 214
f 108 106 213
f 108 213 105
f 107 109 215
f 109 110 216
f 110 111 217
f 111 117 218
f 106 214 213
f 107 215 214
f 213 212 105
f 109 216 215
f 110 217 216
f 111 218 217
f 117 219 218
f 120 119 222
f 117 118 219
f 124 223 118
f 120 225 121
f 121 226 122
f 122 227 123
f 123 224 124
f 120 222 221
f 120 221 225
f 118 223 219
f 124 224 223
f 121 225 226
f 123 227 224
f 122 226 227
f 136 130 134
f 134 128 135
f 135 131 137
f 137 132 138
f 129 130 136
f 130 128 134
f 129 136 148
f 128 131 135
f 131 132 137
f 132 149 138
f 136 133 148
f 138 149 139
f 139 150 140
f 142 141 62
f 65 145 142
f 145 66 146
f 61 143 144
f 64 144 147
f 67 147 146
f 140 159 143
f 144 143 163
f 139 149 150
f 140 150 159
f 160 158 141
f 160 145 161
f 161 146 164
f 163 143 159
f 164 147 162
f 162 144 163
f 142 160 141
f 142 145 160
f 145 146 161
f 147 144 162
f 146 147 164
f 129 153 130
f 130 152 128
f 129 148 151
f 128 155 131
f 131 156 132
f 132 157 149
f 149 165 150
f 150 168 159
f 130 153 152
f 129 154 153
f 128 152 155
f 131 155 156
f 129 151 154
f 132 156 157
f 149 157 165
f 150 165 168
f 159 168 169
f 163 159 169
f 160 167 158
f 160 161 167
f 161 164 177
f 162 163 179
f 164 162 178
f 167 166 158
f 167 161 177
f 177 164 178
f 179 163 169
f 162 179 178
f 153 172 152
f 152 174 155
f 154 171 153
f 154 151 170
f 155 175 156
f 156 176 157
f 157 180 165
f 168 165 181
f 167 183 166
f 167 177 183
f 177 178 184
f 169 168 187
f 179 169 186
f 178 179 185
f 153 171 172
f 154 173 171
f 152 172 174
f 155 174 175
f 154 170 173
f 156 175 176
f 157 176 180
f 165 180 181
f 187 168 181
f 183 182 166
f 183 177 184
f 186 169 187
f 184 178 185
f 185 179 186
f 173 418 171
f 171 419 172
f 173 170 416
f 172 420 174
f 174 421 175
f 175 422 176
f 176 423 180
f 183 424 182
f 180 426 181
f 187 181 427
f 183 184 424
f 184 185 428
f 186 187 430
f 185 186 429
f 173 417 418
f 171 418 419
f 173 416 417
f 172 419 420
f 174 420 421
f 175 421 422
f 176 422 423
f 180 423 426
f 424 425 182
f 181 426 427
f 187 427 430
f 184 428 424
f 185 429 428
f 186 430 429
f 213 214 238
f 214 215 236
f 213 238 212
f 215 216 237
f 216 217 239
f 217 218 240
f 218 219 241
f 219 223 220
f 238 214 236
f 236 215 237
f 238 235 212
f 237 216 239
f 239 217 240
f 240 218 241
f 219 220 241
f 221 222 230
f 224 228 223
f 227 234 224
f 221 231 225
f 225 232 226
f 226 233 227
f 221 230 229
f 220 223 228
f 224 234 228
f 221 229 231
f 225 231 232
f 227 233 234
f 226 232 233
f 238 236 253
f 236 237 251
f 237 239 252
f 239 240 254
f 238 253 235
f 240 241 255
f 220 256 241
f 251 237 252
f 239 254 252
f 253 236 251
f 253 250 235
f 254 240 255
f 241 256 255
f 220 228 242
f 234 245 228
f 231 248 232
f 232 249 233
f 229 230 244
f 229 247 231
f 233 246 234
f 220 242 256
f 228 245 242
f 229 244 243
f 229 243 247
f 231 247 248
f 234 246 245
f 232 248 249
f 233 249 246
f 253 251 261
f 251 252 262
f 252 254 260
f 254 255 263
f 253 261 250
f 255 256 264
f 242 258 256
f 246 266 245
f 245 259 242
f 261 251 262
f 262 252 260
f 261 257 250
f 260 254 263
f 263 255 264
f 264 256 258
f 242 259 258
f 245 266 259
f 261 262 275
f 262 260 273
f 261 275 257
f 260 263 274
f 263 264 276
f 264 258 277
f 275 262 273
f 273 260 274
f 274 263 276
f 276 264 277
f 243 244 265
f 243 269 247
f 247 267 248
f 249 271 246
f 248 270 249
f 243 265 268
f 243 268 269
f 247 269 267
f 249 270 271
f 248 267 270
f 246 271 266
f 258 259 278
f 259 266 279
f 268 265 280
f 268 284 269
f 269 285 267
f 271 282 266
f 267 286 270
f 270 283 271
f 266 282 279
f 271 283 282
f 275 272 257
f 277 258 278
f 259 279 278
f 268 280 281
f 268 281 284
f 269 284 285
f 270 286 283
f 267 285 286
f 281 280 295
f 284 298 285
f 281 299 284
f 283 301 282
f 285 300 286
f 286 297 283
f 275 273 288
f 275 288 272
f 277 278 292
f 273 274 289
f 274 276 290
f 276 277 291
f 289 274 290
f 276 291 290
f 278 279 293
f 279 282 294
f 288 287 272
f 278 293 292
f 283 297 301
f 279 294 293
f 282 301 294
f 273 289 288
f 277 292 291
f 288 305 287
f 288 289 305
f 289 290 303
f 291 292 306
f 290 291 304
f 284 299 298
f 281 295 296
f 281 296 299
f 285 298 300
f 286 300 297
f 293 294 308
f 294 301 309
f 296 295 312
f 296 313 299
f 297 310 301
f 298 316 300
f 300 315 297
f 299 314 298
f 299 313 314
f 296 312 311
f 296 311 313
f 297 315 310
f 298 314 316
f 300 316 315
f 292 293 307
f 303 290 304
f 305 289 303
f 305 302 287
f 306 292 307
f 291 306 304
f 301 310 309
f 294 309 308
f 293 308 307
f 303 304 326
f 305 303 325
f 305 325 302
f 304 306 327
f 306 307 328
f 307 308 329
f 308 309 330
f 310 331 309
f 325 324 302
f 311 318 313
f 311 312 322
f 313 319 314
f 316 323 315
f 315 317 310
f 314 320 316
f 314 319 320
f 310 317 331
f 309 331 330
f 308 330 329
f 311 321 318
f 311 322 321
f 313 318 319
f 316 320 323
f 315 323 317
f 321 332 318
f 321 322 336
f 318 333 319
f 320 337 323
f 319 334 320
f 326 304 327
f 325 303 326
f 306 328 327
f 328 307 329
f 325 326 342
f 328 329 346
f 326 327 343
f 327 328 344
f 317 340 331
f 325 342 324
f 330 331 341
f 329 330 345
f 323 338 317
f 317 338 340
f 331 340 341
f 326 343 342
f 343 327 344
f 328 346 344
f 342 339 324
f 330 341 345
f 329 345 346
f 321 335 332
f 321 336 335
f 318 332 333
f 320 334 337
f 323 337 338
f 319 333 334
f 342 347 339
f 341 340 361
f 345 341 351
f 332 358 333
f 335 353 332
f 335 336 356
f 333 354 334
f 334 355 337
f 337 357 338
f 338 360 340
f 335 356 352
f 335 352 353
f 332 353 358
f 333 358 354
f 334 354 355
f 337 355 357
f 338 357 360
f 340 360 361
f 342 343 347
f 343 344 348
f 346 345 350
f 344 346 349
f 347 359 339
f 347 343 348
f 348 344 349
f 351 341 361
f 349 346 350
f 350 345 351
f 355 375 357
f 353 369 358
f 352 370 353
f 352 356 372
f 358 371 354
f 354 374 355
f 353 370 369
f 352 372 373
f 352 373 370
f 358 369 371
f 354 371 374
f 355 374 375
f 357 376 360
f 361 360 362
f 347 364 359
f 347 348 364
f 348 349 366
f 351 361 367
f 349 350 365
f 350 351 368
f 364 363 359
f 360 376 362
f 367 361 362
f 357 375 376
f 364 348 366
f 366 349 365
f 365 350 368
f 368 351 367
f 373 387 370
f 373 372 385
f 370 384 369
f 369 388 371
f 371 389 374
f 374 390 375
f 375 391 376
f 362 376 378
f 364 379 363
f 364 366 379
f 368 367 383
f 367 362 382
f 366 365 380
f 365 368 381
f 373 385 386
f 373 386 387
f 371 388 389
f 374 389 390
f 375 390 391
f 370 387 384
f 369 384 388
f 379 377 363
f 376 391 378
f 362 378 382
f 379 366 380
f 380 365 381
f 368 383 381
f 383 367 382
f 386 623 387
f 387 622 384
f 384 624 388
f 388 627 389
f 386 385 626
f 389 628 390
f 390 630 391
f 378 391 631
f 379 380 632
f 379 632 377
f 380 381 633
f 382 378 636
f 383 382 635
f 381 383 634
f 387 623 622
f 388 624 627
f 384 622 624
f 386 626 625
f 386 625 623
f 389 627 628
f 390 628 630
f 391 630 631
f 632 629 377
f 380 633 632
f 381 634 633
f 378 631 636
f 383 635 634
f 382 636 635
f 417 440 418
f 418 441 419
f 417 416 439
f 419 443 420
f 420 444 421
f 421 445 422
f 422 431 423
f 424 433 425
f 424 428 433
f 423 432 426
f 427 426 438
f 428 429 435
f 429 430 436
f 430 427 437
f 418 440 441
f 417 439 442
f 417 442 440
f 419 441 443
f 420 443 444
f 421 444 445
f 422 445 431
f 433 434 425
f 423 431 432
f 438 426 432
f 433 428 435
f 435 429 436
f 436 430 437
f 437 427 438
f 442 455 440
f 440 456 441
f 443 459 444
f 441 458 443
f 442 439 454
f 444 460 445
f 431 445 446
f 435 436 451
f 436 437 452
f 431 449 432
f 433 447 434
f 433 435 447
f 438 432 450
f 437 438 453
f 440 455 456
f 441 456 458
f 442 457 455
f 442 454 457
f 443 458 459
f 444 459 460
f 445 460 446
f 431 446 449
f 447 448 434
f 447 435 451
f 451 436 452
f 450 432 449
f 452 437 453
f 453 438 450
f 457 473 455
f 455 471 456
f 458 475 459
f 456 474 458
f 449 446 466
f 457 454 461
f 459 462 460
f 446 460 463
f 457 472 473
f 455 473 471
f 457 461 472
f 456 471 474
f 458 474 475
f 459 475 462
f 460 462 463
f 446 463 466
f 447 451 467
f 447 467 448
f 451 452 468
f 453 450 469
f 450 449 470
f 452 453 464
f 467 465 448
f 467 451 468
f 453 469 464
f 469 450 470
f 468 452 464
f 449 466 470
f 472 477 473
f 473 478 471
f 472 461 476
f 471 480 474
f 474 481 475
f 475 482 462
f 472 479 477
f 473 477 478
f 471 478 480
f 474 480 481
f 462 483 463
f 463 486 466
f 467 485 465
f 467 468 485
f 468 464 488
f 470 466 487
f 464 469 489
f 469 470 490
f 463 483 486
f 487 466 486
f 485 484 465
f 485 468 488
f 488 464 489
f 489 469 490
f 490 470 487
f 472 476 479
f 475 481 482
f 462 482 483
f 488 489 503
f 485 500 484
f 485 488 500
f 489 490 502
f 487 486 501
f 490 487 504
f 479 476 491
f 480 498 481
f 481 493 482
f 479 495 477
f 477 496 478
f 478 497 480
f 482 492 483
f 483 505 486
f 486 505 501
f 479 491 494
f 481 498 493
f 482 493 492
f 483 492 505
f 477 495 496
f 478 496 497
f 479 494 495
f 480 497 498
f 494 517 495
f 495 518 496
f 496 520 497
f 497 519 498
f 503 489 502
f 500 499 484
f 488 503 500
f 490 504 502
f 487 501 504
f 503 502 506
f 500 508 499
f 500 503 508
f 504 501 510
f 501 505 511
f 498 514 493
f 493 513 492
f 492 512 505
f 502 504 507
f 506 502 507
f 508 509 499
f 508 503 506
f 507 504 510
f 511 505 512
f 510 501 511
f 494 491 515
f 492 513 512
f 493 514 513
f 494 515 516
f 494 516 517
f 495 517 518
f 497 520 519
f 498 519 514
f 496 518 520
f 519 530 514
f 514 529 513
f 512 513 521
f 516 515 528
f 516 532 517
f 517 533 518
f 518 534 520
f 520 535 519
f 519 535 530
f 508 525 509
f 508 506 525
f 506 507 522
f 510 511 524
f 507 510 523
f 511 512 527
f 522 507 523
f 525 506 522
f 525 526 509
f 524 511 527
f 523 510 524
f 527 512 521
f 513 529 521
f 514 530 529
f 525 539 526
f 525 522 539
f 522 523 536
f 524 527 538
f 523 524 537
f 516 531 532
f 516 528 531
f 517 532 533
f 518 533 534
f 520 534 535
f 531 547 532
f 534 549 535
f 521 529 542
f 530 544 529
f 527 521 541
f 531 528 543
f 535 545 530
f 529 544 542
f 530 545 544
f 532 548 533
f 533 550 534
f 532 547 548
f 534 550 549
f 533 548 550
f 531 543 546
f 531 546 547
f 535 549 545
f 522 536 539
f 536 523 537
f 539 540 526
f 527 541 538
f 524 538 537
f 521 542 541
f 539 551 540
f 539 536 551
f 536 537 552
f 537 538 555
f 538 541 553
f 546 543 563
f 545 564 544
f 549 565 545
f 541 542 554
f 542 544 557
f 551 536 552
f 551 556 540
f 552 537 555
f 555 538 553
f 553 541 554
f 554 542 557
f 544 564 557
f 545 565 564
f 554 557 578
f 555 553 573
f 551 577 556
f 551 552 577
f 552 555 574
f 553 554 575
f 574 555 573
f 577 552 574
f 577 576 556
f 553 575 573
f 575 554 578
f 546 559 547
f 547 560 548
f 548 561 550
f 550 562 549
f 546 563 558
f 546 558 559
f 547 559 560
f 549 562 565
f 550 561 562
f 548 560 561
f 557 564 579
f 565 580 564
f 558 563 567
f 558 570 559
f 559 569 560
f 562 566 565
f 560 572 561
f 561 571 562
f 564 580 579
f 557 579 578
f 558 567 568
f 565 566 580
f 562 571 566
f 559 570 569
f 558 568 570
f 561 572 571
f 560 569 572
f 577 590 576
f 577 574 590
f 574 573 591
f 575 578 592
f 573 575 588
f 578 579 593
f 579 580 594
f 566 595 580
f 590 574 591
f 590 589 576
f 592 578 593
f 591 573 588
f 588 575 592
f 593 579 594
f 580 595 594
f 568 567 581
f 568 584 570
f 571 582 566
f 572 586 571
f 570 585 569
f 569 587 572
f 568 581 583
f 566 582 595
f 571 586 582
f 570 584 585
f 568 583 584
f 572 587 586
f 569 585 587
f 590 591 703
f 591 588 701
f 588 592 700
f 592 593 702
f 590 703 589
f 593 594 705
f 594 595 706
f 591 701 703
f 588 700 701
f 592 702 700
f 703 704 589
f 593 705 702
f 594 706 705
f 582 715 595
f 586 716 582
f 583 581 714
f 583 718 584
f 584 719 585
f 587 721 586
f 585 720 587
f 595 715 706
f 582 716 715
f 583 714 717
f 583 717 718
f 584 718 719
f 586 721 716
f 587 720 721
f 585 719 720
f 625 640 623
f 623 637 622
f 622 641 624
f 625 626 639
f 624 642 627
f 627 643 628
f 628 644 630
f 631 630 649
f 632 650 629
f 632 633 650
f 633 634 651
f 636 631 653
f 635 636 654
f 634 635 652
f 625 638 640
f 623 640 637
f 622 637 641
f 624 641 642
f 625 639 638
f 627 642 643
f 628 643 644
f 630 644 649
f 653 631 649
f 650 648 629
f 650 633 651
f 651 634 652
f 654 636 653
f 652 635 654
f 640 645 637
f 637 647 641
f 638 646 640
f 638 639 656
f 641 657 642
f 642 658 643
f 643 659 644
f 650 669 648
f 644 667 649
f 653 649 672
f 650 651 669
f 651 652 670
f 654 653 673
f 652 654 671
f 638 656 655
f 638 655 646
f 640 646 645
f 637 645 647
f 641 647 657
f 642 657 658
f 643 658 659
f 644 659 667
f 669 668 648
f 669 651 670
f 649 667 672
f 673 653 672
f 670 652 671
f 654 673 671
f 646 660 645
f 655 662 646
f 655 656 665
f 645 663 647
f 647 664 657
f 645 660 663
f 655 665 661
f 655 661 662
f 646 662 660
f 647 663 664
f 657 664 666
f 657 666 658
f 658 675 659
f 669 692 668
f 659 676 667
f 672 667 696
f 669 670 692
f 670 671 693
f 673 672 695
f 671 673 694
f 658 666 675
f 659 675 676
f 692 674 668
f 692 670 693
f 693 671 694
f 696 667 676
f 694 673 695
f 695 672 696
f 661 681 680
f 661 680 677
f 662 677 678
f 660 678 679
f 663 679 682
f 661 677 662
f 661 665 681
f 662 678 660
f 660 679 663
f 663 682 664
f 664 683 666
f 666 685 675
f 676 675 686
f 664 682 683
f 666 683 685
f 677 772 678
f 680 773 677
f 680 681 776
f 678 774 679
f 679 777 682
f 682 778 683
f 687 684 674
f 675 685 686
f 690 676 686
f 687 674 692
f 687 692 693
f 688 693 694
f 690 696 676
f 691 695 696
f 689 694 695
f 687 693 688
f 688 694 689
f 689 695 691
f 691 696 690
f 701 700 710
f 700 702 707
f 702 705 711
f 703 708 704
f 703 701 708
f 705 706 712
f 706 715 713
f 708 701 710
f 710 700 707
f 707 702 711
f 711 705 712
f 708 709 704
f 712 706 713
f 713 715 722
f 716 722 715
f 717 714 728
f 717 731 718
f 718 732 719
f 721 729 716
f 719 734 720
f 720 733 721
f 716 729 722
f 717 728 730
f 717 730 731
f 718 731 732
f 721 733 729
f 720 734 733
f 719 732 734
f 698 710 707
f 697 707 711
f 708 723 709
f 708 710 723
f 699 711 712
f 712 713 725
f 713 722 726
f 723 710 698
f 723 724 709
f 698 707 697
f 697 711 699
f 699 712 725
f 725 713 726
f 722 727 726
f 727 729 757
f 730 728 761
f 722 729 727
f 733 757 729
f 730 763 731
f 731 764 732
f 734 765 733
f 732 766 734
f 730 761 762
f 730 762 763
f 734 766 765
f 733 765 757
f 731 763 764
f 732 764 766
f 737 697 735
f 698 697 737
f 723 698 736
f 723 736 724
f 697 699 735
f 699 725 738
f 725 726 739
f 736 698 737
f 736 740 724
f 699 738 735
f 738 725 739
f 726 741 739
f 742 735 743
f 745 737 742
f 745 746 740
f 743 738 744
f 744 739 747
f 742 743 780
f 745 742 782
f 745 782 746
f 743 744 779
f 744 747 781
f 747 748 784
f 736 745 740
f 736 737 745
f 737 735 742
f 735 738 743
f 738 739 744
f 739 741 747
f 747 741 748
f 748 759 750
f 741 759 748
f 750 759 760
f 752 767 749
f 751 750 760
f 755 751 771
f 726 727 741
f 762 761 758
f 727 757 759
f 765 760 757
f 727 759 741
f 757 760 759
f 762 758 767
f 762 767 768
f 763 768 769
f 765 771 760
f 764 769 770
f 766 770 771
f 762 768 763
f 763 769 764
f 766 771 765
f 764 770 766
f 767 758 749
f 767 753 768
f 768 754 769
f 771 751 760
f 769 756 770
f 770 755 771
f 752 753 767
f 753 754 768
f 756 755 770
f 754 756 769
f 677 773 772
f 680 776 775
f 680 775 773
f 678 772 774
f 679 774 777
f 773 787 772
f 773 786 787
f 775 789 788
f 775 788 786
f 772 787 790
f 774 790 791
f 777 791 792
f 775 786 773
f 775 776 789
f 772 790 774
f 774 791 777
f 777 792 778
f 778 793 802
f 794 803 802
f 779 781 787
f 786 779 787
f 788 780 786
f 788 789 783
f 787 781 790
f 790 784 791
f 791 785 792
f 780 743 779
f 742 780 782
f 782 783 746
f 744 781 779
f 747 784 781
f 780 779 786
f 782 780 788
f 782 788 783
f 781 784 790
f 784 785 791
f 785 810 792
f 793 810 811
f 794 811 816
f 778 792 793
f 794 802 793
f 799 808 803
f 799 803 794
f 796 795 801
f 796 805 797
f 797 806 798
f 800 808 799
f 798 807 800
f 792 810 793
f 794 793 811
f 812 809 795
f 796 812 795
f 796 797 812
f 797 798 813
f 800 799 815
f 799 794 816
f 798 800 814
f 682 777 778
f 683 802 685
f 686 685 803
f 683 778 802
f 685 802 803
f 804 801 684
f 686 803 808
f 687 804 684
f 687 688 804
f 690 686 808
f 688 689 805
f 691 690 807
f 689 691 806
f 688 805 804
f 690 808 807
f 805 689 806
f 691 807 806
f 796 801 804
f 796 804 805
f 797 805 806
f 800 807 808
f 798 806 807
f 748 785 784
f 750 810 785
f 748 750 785
f 751 810 750
f 752 809 812
f 751 811 810
f 755 816 811
f 752 812 813
f 756 815 816
f 752 749 809
f 755 811 751
f 756 816 755
f 752 813 753
f 753 814 754
f 754 815 756
f 753 813 814
f 754 814 815
f 812 797 813
f 813 798 814
f 800 815 814
f 815 799 816
