# carriage_left.obj  (25 v, 46 f)  units: metres
v -0.045000002 0.086000003 -0.017999999
v -0.045000002 0.086000003 0.017999999
v -0.045000002 0.097000003 -0.017999999
v -0.045000002 0.097499996 -0.017999999
v -0.045000002 0.097000003 -0.008500000
v -0.045000002 0.097499996 -0.008500000
v -0.045000002 0.103500001 -0.017999999
v -0.045000002 0.103500001 -0.008500000
v -0.045000002 0.097000003 0.008500000
v -0.045000002 0.097499996 0.008500000
v -0.045000002 0.097000003 0.017999999
v -0.045000002 0.103500001 0.008500000
v -0.045000002 0.103500001 0.017999999
v -0.068999998 0.086000003 -0.017999999
v -0.068999998 0.086000003 0.017999999
v -0.068999998 0.097000003 -0.017999999
v -0.068999998 0.097000003 -0.008500000
v -0.068999998 0.097499996 -0.008500000
v -0.068999998 0.103500001 -0.017999999
v -0.068999998 0.103500001 -0.008500000
v -0.068999998 0.097000003 0.008500000
v -0.068999998 0.097499996 0.008500000
v -0.068999998 0.097000003 0.017999999
v -0.068999998 0.103500001 0.008500000
v -0.068999998 0.103500001 0.017999999
f 1 3 5
f 1 5 9
f 1 14 3
f 1 2 14
f 3 14 4
f 1 11 2
f 1 9 11
f 2 11 23
f 9 5 6
f 6 18 10
f 9 6 10
f 4 14 16
f 14 15 16
f 15 17 16
f 2 15 14
f 2 23 15
f 15 21 17
f 15 23 21
f 17 22 18
f 10 18 22
f 21 22 17
f 3 6 5
f 3 4 8
f 3 8 6
f 7 8 4
f 7 4 16
f 7 20 8
f 8 18 6
f 7 16 19
f 7 19 20
f 8 20 18
f 16 17 19
f 17 18 19
f 19 18 20
f 9 10 13
f 9 13 11
f 13 10 12
f 12 10 24
f 11 13 23
f 12 25 13
f 24 10 22
f 12 24 25
f 13 25 23
f 23 22 21
f 22 23 24
f 23 25 24
