# carriage_right.obj  (25 v, 46 f)  units: metres
v 0.045000002 0.086000003 -0.017999999
v 0.045000002 0.086000003 0.017999999
v 0.045000002 0.097000003 -0.017999999
v 0.045000002 0.097499996 -0.017999999
v 0.045000002 0.097000003 -0.008500000
v 0.045000002 0.097499996 -0.008500000
v 0.045000002 0.103500001 -0.017999999
v 0.045000002 0.103500001 -0.008500000
v 0.045000002 0.097000003 0.008500000
v 0.045000002 0.097499996 0.008500000
v 0.045000002 0.097000003 0.017999999
v 0.045000002 0.103500001 0.008500000
v 0.045000002 0.103500001 0.017999999
v 0.068999998 0.086000003 -0.017999999
v 0.068999998 0.086000003 0.017999999
v 0.068999998 0.097000003 -0.017999999
v 0.068999998 0.097000003 -0.008500000
v 0.068999998 0.097499996 -0.008500000
v 0.068999998 0.103500001 -0.017999999
v 0.068999998 0.103500001 -0.008500000
v 0.068999998 0.097000003 0.008500000
v 0.068999998 0.097499996 0.008500000
v 0.068999998 0.097000003 0.017999999
v 0.068999998 0.103500001 0.008500000
v 0.068999998 0.103500001 0.017999999
f 1 5 3
f 1 9 5
f 1 3 14
f 1 14 2
f 3 4 14
f 1 2 11
f 1 11 9
f 2 23 11
f 9 6 5
f 6 10 18
f 9 10 6
f 4 16 14
f 14 16 15
f 15 16 17
f 2 14 15
f 2 15 23
f 15 17 21
f 15 21 23
f 17 18 22
f 10 22 18
f 21 17 22
f 3 5 6
f 3 8 4
f 3 6 8
f 7 4 8
f 7 16 4
f 7 8 20
f 8 6 18
f 7 19 16
f 7 20 19
f 8 18 20
f 16 19 17
f 17 19 18
f 19 20 18
f 9 13 10
f 9 11 13
f 13 12 10
f 12 24 10
f 11 23 13
f 12 13 25
f 24 22 10
f 12 25 24
f 13 23 25
f 23 21 22
f 22 24 23
f 23 24 25
