# finger_right.obj  (23 v, 42 f)  units: metres
v 0.048000000 0.017999999 -0.009600000
v 0.048000000 0.029999999 -0.012000000
v 0.048000000 0.029999999 -0.011904000
v 0.048000000 0.030500000 -0.012000000
v 0.054000001 0.017999999 -0.009600000
v 0.048000000 0.017999999 0.009600000
v 0.048000000 0.029999999 0.012000000
v 0.054000001 0.017999999 0.009600000
v 0.048000000 0.086499996 -0.012000000
v 0.048000000 0.086499996 0.012000000
v 0.057999998 0.029999999 -0.012000000
v 0.057911504 0.030500000 0.012000000
v 0.057999998 0.029999999 0.012000000
v 0.057999998 0.056499999 -0.003000000
v 0.057999998 0.086499996 -0.012000000
v 0.057999998 0.086499996 -0.003000000
v 0.064000003 0.085500002 -0.003000000
v 0.064000003 0.086499996 -0.003000000
v 0.057999998 0.056499999 0.003000000
v 0.057999998 0.086499996 0.003000000
v 0.057999998 0.086499996 0.012000000
v 0.064000003 0.085500002 0.003000000
v 0.064000003 0.086499996 0.003000000
f 4 2 3
f 11 2 4
f 9 11 4
f 10 4 7
f 10 7 12
f 9 4 10
f 9 15 11
f 9 16 15
f 9 20 16
f 9 10 21
f 10 12 21
f 9 21 20
f 11 14 13
f 19 13 14
f 21 12 13
f 16 14 11
f 15 16 11
f 21 13 19
f 21 19 20
f 1 3 2
f 1 2 5
f 1 7 3
f 7 4 3
f 1 5 8
f 2 11 5
f 1 6 7
f 1 8 6
f 6 13 7
f 5 13 8
f 6 8 13
f 7 13 12
f 5 11 13
f 17 14 16
f 18 16 20
f 17 22 14
f 17 16 18
f 17 18 22
f 22 19 14
f 23 20 19
f 22 23 19
f 18 20 23
f 18 23 22
