# finger_left.obj  (23 v, 42 f)  units: metres
v -0.048000000 0.017999999 -0.009600000
v -0.048000000 0.029999999 -0.012000000
v -0.048000000 0.029999999 -0.011904000
v -0.048000000 0.030500000 -0.012000000
v -0.054000001 0.017999999 -0.009600000
v -0.048000000 0.017999999 0.009600000
v -0.048000000 0.029999999 0.012000000
v -0.054000001 0.017999999 0.009600000
v -0.048000000 0.086499996 -0.012000000
v -0.048000000 0.086499996 0.012000000
v -0.057999998 0.029999999 -0.012000000
v -0.057911504 0.030500000 0.012000000
v -0.057999998 0.029999999 0.012000000
v -0.057999998 0.056499999 -0.003000000
v -0.057999998 0.086499996 -0.012000000
v -0.057999998 0.086499996 -0.003000000
v -0.064000003 0.085500002 -0.003000000
v -0.064000003 0.086499996 -0.003000000
v -0.057999998 0.056499999 0.003000000
v -0.057999998 0.086499996 0.003000000
v -0.057999998 0.086499996 0.012000000
v -0.064000003 0.085500002 0.003000000
v -0.064000003 0.086499996 0.003000000
f 4 3 2
f 11 4 2
f 9 4 11
f 10 7 4
f 10 12 7
f 9 10 4
f 9 11 15
f 9 15 16
f 9 16 20
f 9 21 10
f 10 21 12
f 9 20 21
f 11 13 14
f 19 14 13
f 21 13 12
f 16 11 14
f 15 11 16
f 21 19 13
f 21 20 19
f 1 2 3
f 1 5 2
f 1 3 7
f 7 3 4
f 1 8 5
f 2 5 11
f 1 7 6
f 1 6 8
f 6 7 13
f 5 8 13
f 6 13 8
f 7 12 13
f 5 13 11
f 17 16 14
f 18 20 16
f 17 14 22
f 17 18 16
f 17 22 18
f 22 14 19
f 23 19 20
f 22 19 23
f 18 23 20
f 18 22 23
