# housing.obj  (284 v, 564 f)  units: metres
v -0.073732048 0.106267951 -0.023732051
v -0.071999997 0.106500000 -0.024598077
v -0.073500000 0.108000003 -0.024598077
v -0.071999997 0.108000003 -0.025000000
v -0.073500000 0.105401926 -0.022000000
v -0.074598074 0.106500000 -0.022000000
v -0.071999997 0.105401926 -0.023499999
v -0.071999997 0.104999997 -0.022000000
v -0.074598074 0.108000003 -0.023499999
v -0.075000003 0.108000003 -0.022000000
v -0.073500000 0.105401926 0.022000000
v -0.074598074 0.106500000 0.022000000
v -0.071999997 0.104999997 0.022000000
v -0.071999997 0.105401926 0.023499999
v -0.075000003 0.108000003 0.022000000
v -0.074598074 0.108000003 0.023499999
v -0.073732048 0.106267951 0.023732051
v -0.071999997 0.106500000 0.024598077
v -0.073500000 0.108000003 0.024598077
v -0.071999997 0.108000003 0.025000000
v -0.073500000 0.142000005 -0.024598077
v -0.071999997 0.142000005 -0.025000000
v -0.074598074 0.142000005 -0.023499999
v -0.075000003 0.142000005 -0.022000000
v -0.073732048 0.143732056 -0.023732051
v -0.071999997 0.143500000 -0.024598077
v -0.074598074 0.143500000 -0.022000000
v -0.073500000 0.144598082 -0.022000000
v -0.071999997 0.144598082 -0.023499999
v -0.071999997 0.144999996 -0.022000000
v -0.019175986 0.143999994 -0.024990629
v -0.020193748 0.143999994 -0.024098076
v -0.022273863 0.144926623 -0.022273863
v -0.022514036 0.144999996 -0.022000000
v -0.020875722 0.144598082 -0.023499999
v -0.024990629 0.144999996 -0.019175986
v -0.019175986 0.155000001 -0.024990629
v -0.022273863 0.155000001 -0.022273863
v -0.024990629 0.155000001 -0.019175986
v -0.012054528 0.143999994 -0.029102204
v -0.015750000 0.143999994 -0.027279800
v -0.008152800 0.143999994 -0.030426664
v -0.004111575 0.143999994 -0.031230513
v -0.012054528 0.155000001 -0.029102204
v -0.015750000 0.155000001 -0.027279800
v -0.008152800 0.155000001 -0.030426664
v -0.004111575 0.155000001 -0.031230513
v -0.029102204 0.144999996 -0.012054528
v -0.030426664 0.144999996 -0.008152800
v -0.027279800 0.144999996 -0.015750000
v -0.031230513 0.144999996 -0.004111575
v -0.029102204 0.155000001 -0.012054528
v -0.030426664 0.155000001 -0.008152800
v -0.027279800 0.155000001 -0.015750000
v -0.031230513 0.155000001 -0.004111575
v -0.003235238 0.151999995 -0.012074073
v -0.001631577 0.151999995 -0.012393061
v -0.003235238 0.155000001 -0.012074073
v -0.001631577 0.155000001 -0.012393061
v -0.007609518 0.151999995 -0.009916916
v -0.004783543 0.151999995 -0.011548494
v -0.006250000 0.151999995 -0.010825317
v -0.008838835 0.151999995 -0.008838835
v -0.007609518 0.155000001 -0.009916916
v -0.004783543 0.155000001 -0.011548494
v -0.006250000 0.155000001 -0.010825317
v -0.008838835 0.155000001 -0.008838835
v -0.009916916 0.151999995 -0.007609518
v -0.010825317 0.151999995 -0.006250000
v -0.011548494 0.151999995 -0.004783543
v -0.009916916 0.155000001 -0.007609518
v -0.010825317 0.155000001 -0.006250000
v -0.011548494 0.155000001 -0.004783543
v -0.012074073 0.151999995 -0.003235238
v -0.012393061 0.151999995 -0.001631577
v -0.012074073 0.155000001 -0.003235238
v -0.012393061 0.155000001 -0.001631577
v -0.075000003 0.142000005 0.022000000
v -0.074598074 0.142000005 0.023499999
v -0.073500000 0.142000005 0.024598077
v -0.071999997 0.142000005 0.025000000
v -0.074598074 0.143500000 0.022000000
v -0.073500000 0.144598082 0.022000000
v -0.071999997 0.144598082 0.023499999
v -0.071999997 0.144999996 0.022000000
v -0.073732048 0.143732056 0.023732051
v -0.071999997 0.143500000 0.024598077
v -0.031500001 0.144999996 0.000000000
v -0.031230513 0.144999996 0.004111575
v -0.030426664 0.144999996 0.008152800
v -0.029102204 0.144999996 0.012054528
v -0.031500001 0.155000001 0.000000000
v -0.031230513 0.155000001 0.004111575
v -0.030426664 0.155000001 0.008152800
v -0.029102204 0.155000001 0.012054528
v -0.012500000 0.151999995 0.000000000
v -0.012393061 0.151999995 0.001631577
v -0.012074073 0.151999995 0.003235238
v -0.012500000 0.155000001 0.000000000
v -0.012393061 0.155000001 0.001631577
v -0.012074073 0.155000001 0.003235238
v -0.011548494 0.151999995 0.004783543
v -0.010825317 0.151999995 0.006250000
v -0.009916916 0.151999995 0.007609518
v -0.011548494 0.155000001 0.004783543
v -0.010825317 0.155000001 0.006250000
v -0.009916916 0.155000001 0.007609518
v -0.008838835 0.151999995 0.008838835
v -0.007609518 0.151999995 0.009916916
v -0.006250000 0.151999995 0.010825317
v -0.004783543 0.151999995 0.011548494
v -0.008838835 0.155000001 0.008838835
v -0.007609518 0.155000001 0.009916916
v -0.006250000 0.155000001 0.010825317
v -0.004783543 0.155000001 0.011548494
v -0.003235238 0.151999995 0.012074073
v -0.001631577 0.151999995 0.012393061
v -0.003235238 0.155000001 0.012074073
v -0.001631577 0.155000001 0.012393061
v -0.027279800 0.144999996 0.015750000
v -0.024990629 0.144999996 0.019175986
v -0.022514036 0.144999996 0.022000000
v -0.022273863 0.144926623 0.022273863
v -0.020875722 0.144598082 0.023499999
v -0.020193748 0.143999994 0.024098076
v -0.019175986 0.143999994 0.024990629
v -0.027279800 0.155000001 0.015750000
v -0.024990629 0.155000001 0.019175986
v -0.022273863 0.155000001 0.022273863
v -0.019175986 0.155000001 0.024990629
v -0.015750000 0.143999994 0.027279800
v -0.012054528 0.143999994 0.029102204
v -0.008152800 0.143999994 0.030426664
v -0.004111575 0.143999994 0.031230513
v -0.015750000 0.155000001 0.027279800
v -0.012054528 0.155000001 0.029102204
v -0.008152800 0.155000001 0.030426664
v -0.004111575 0.155000001 0.031230513
v 0.071999997 0.106500000 -0.024598077
v 0.073732048 0.106267951 -0.023732051
v 0.071999997 0.108000003 -0.025000000
v 0.073500000 0.108000003 -0.024598077
v 0.071999997 0.105401926 -0.023499999
v 0.071999997 0.104999997 -0.022000000
v 0.073500000 0.105401926 -0.022000000
v 0.074598074 0.106500000 -0.022000000
v 0.074598074 0.108000003 -0.023499999
v 0.075000003 0.108000003 -0.022000000
v 0.071999997 0.104999997 0.022000000
v 0.071999997 0.105401926 0.023499999
v 0.073500000 0.105401926 0.022000000
v 0.074598074 0.106500000 0.022000000
v 0.075000003 0.108000003 0.022000000
v 0.074598074 0.108000003 0.023499999
v 0.071999997 0.106500000 0.024598077
v 0.073732048 0.106267951 0.023732051
v 0.071999997 0.108000003 0.025000000
v 0.073500000 0.108000003 0.024598077
v 0.000000000 0.143999994 -0.031500001
v 0.004111575 0.143999994 -0.031230513
v 0.008152800 0.143999994 -0.030426664
v 0.012054528 0.143999994 -0.029102204
v 0.015750000 0.143999994 -0.027279800
v 0.000000000 0.155000001 -0.031500001
v 0.004111575 0.155000001 -0.031230513
v 0.008152800 0.155000001 -0.030426664
v 0.012054528 0.155000001 -0.029102204
v 0.015750000 0.155000001 -0.027279800
v 0.019175986 0.143999994 -0.024990629
v 0.020193748 0.143999994 -0.024098076
v 0.020875722 0.144598082 -0.023499999
v 0.022273863 0.144926623 -0.022273863
v 0.022514036 0.144999996 -0.022000000
v 0.024990629 0.144999996 -0.019175986
v 0.019175986 0.155000001 -0.024990629
v 0.022273863 0.155000001 -0.022273863
v 0.024990629 0.155000001 -0.019175986
v 0.000000000 0.151999995 -0.012500000
v 0.001631577 0.151999995 -0.012393061
v 0.003235238 0.151999995 -0.012074073
v 0.000000000 0.155000001 -0.012500000
v 0.001631577 0.155000001 -0.012393061
v 0.003235238 0.155000001 -0.012074073
v 0.004783543 0.151999995 -0.011548494
v 0.006250000 0.151999995 -0.010825317
v 0.007609518 0.151999995 -0.009916916
v 0.008838835 0.151999995 -0.008838835
v 0.004783543 0.155000001 -0.011548494
v 0.006250000 0.155000001 -0.010825317
v 0.007609518 0.155000001 -0.009916916
v 0.008838835 0.155000001 -0.008838835
v 0.009916916 0.151999995 -0.007609518
v 0.010825317 0.151999995 -0.006250000
v 0.011548494 0.151999995 -0.004783543
v 0.009916916 0.155000001 -0.007609518
v 0.010825317 0.155000001 -0.006250000
v 0.011548494 0.155000001 -0.004783543
v 0.012074073 0.151999995 -0.003235238
v 0.012393061 0.151999995 -0.001631577
v 0.012074073 0.155000001 -0.003235238
v 0.012393061 0.155000001 -0.001631577
v 0.027279800 0.144999996 -0.015750000
v 0.029102204 0.144999996 -0.012054528
v 0.030426664 0.144999996 -0.008152800
v 0.031230513 0.144999996 -0.004111575
v 0.027279800 0.155000001 -0.015750000
v 0.029102204 0.155000001 -0.012054528
v 0.030426664 0.155000001 -0.008152800
v 0.031230513 0.155000001 -0.004111575
v 0.071999997 0.142000005 -0.025000000
v 0.073500000 0.142000005 -0.024598077
v 0.074598074 0.142000005 -0.023499999
v 0.075000003 0.142000005 -0.022000000
v 0.071999997 0.143500000 -0.024598077
v 0.073732048 0.143732056 -0.023732051
v 0.074598074 0.143500000 -0.022000000
v 0.071999997 0.144598082 -0.023499999
v 0.071999997 0.144999996 -0.022000000
v 0.073500000 0.144598082 -0.022000000
v 0.012500000 0.151999995 0.000000000
v 0.012393061 0.151999995 0.001631577
v 0.012074073 0.151999995 0.003235238
v 0.012500000 0.155000001 0.000000000
v 0.012393061 0.155000001 0.001631577
v 0.012074073 0.155000001 0.003235238
v 0.011548494 0.151999995 0.004783543
v 0.010825317 0.151999995 0.006250000
v 0.009916916 0.151999995 0.007609518
v 0.011548494 0.155000001 0.004783543
v 0.010825317 0.155000001 0.006250000
v 0.009916916 0.155000001 0.007609518
v 0.008838835 0.151999995 0.008838835
v 0.006250000 0.151999995 0.010825317
v 0.004783543 0.151999995 0.011548494
v 0.007609518 0.151999995 0.009916916
v 0.008838835 0.155000001 0.008838835
v 0.006250000 0.155000001 0.010825317
v 0.004783543 0.155000001 0.011548494
v 0.007609518 0.155000001 0.009916916
v 0.000000000 0.151999995 0.012500000
v 0.001631577 0.151999995 0.012393061
v 0.003235238 0.151999995 0.012074073
v 0.000000000 0.155000001 0.012500000
v 0.001631577 0.155000001 0.012393061
v 0.003235238 0.155000001 0.012074073
v 0.031500001 0.144999996 0.000000000
v 0.031230513 0.144999996 0.004111575
v 0.030426664 0.144999996 0.008152800
v 0.029102204 0.144999996 0.012054528
v 0.031500001 0.155000001 0.000000000
v 0.031230513 0.155000001 0.004111575
v 0.030426664 0.155000001 0.008152800
v 0.029102204 0.155000001 0.012054528
v 0.000000000 0.143999994 0.031500001
v 0.004111575 0.143999994 0.031230513
v 0.008152800 0.143999994 0.030426664
v 0.015750000 0.143999994 0.027279800
v 0.012054528 0.143999994 0.029102204
v 0.000000000 0.155000001 0.031500001
v 0.004111575 0.155000001 0.031230513
v 0.008152800 0.155000001 0.030426664
v 0.015750000 0.155000001 0.027279800
v 0.012054528 0.155000001 0.029102204
v 0.027279800 0.144999996 0.015750000
v 0.024990629 0.144999996 0.019175986
v 0.020875722 0.144598082 0.023499999
v 0.022514036 0.144999996 0.022000000
v 0.022273863 0.144926623 0.022273863
v 0.020193748 0.143999994 0.024098076
v 0.019175986 0.143999994 0.024990629
v 0.027279800 0.155000001 0.015750000
v 0.024990629 0.155000001 0.019175986
v 0.022273863 0.155000001 0.022273863
v 0.019175986 0.155000001 0.024990629
v 0.075000003 0.142000005 0.022000000
v 0.074598074 0.142000005 0.023499999
v 0.071999997 0.142000005 0.025000000
v 0.073500000 0.142000005 0.024598077
v 0.074598074 0.143500000 0.022000000
v 0.071999997 0.144598082 0.023499999
v 0.071999997 0.144999996 0.022000000
v 0.073500000 0.144598082 0.022000000
v 0.071999997 0.143500000 0.024598077
v 0.073732048 0.143732056 0.023732051
f 1 2 7
f 1 3 2
f 1 9 3
f 2 3 4
f 1 7 5
f 1 5 6
f 5 7 8
f 1 6 9
f 6 10 9
f 5 12 6
f 5 8 13
f 6 15 10
f 3 21 4
f 3 9 21
f 9 10 24
f 2 139 7
f 2 4 139
f 7 143 8
f 8 144 13
f 5 11 12
f 5 13 11
f 6 12 15
f 11 14 17
f 11 17 12
f 11 13 14
f 12 17 16
f 12 16 15
f 14 18 17
f 17 18 19
f 16 17 19
f 18 20 19
f 10 15 78
f 15 16 79
f 16 19 79
f 19 20 80
f 13 150 14
f 14 150 18
f 18 157 20
f 20 157 81
f 9 23 21
f 4 21 22
f 9 24 23
f 21 26 22
f 23 24 27
f 10 78 24
f 24 78 27
f 21 23 25
f 21 25 26
f 25 29 26
f 23 27 25
f 25 27 28
f 25 28 29
f 28 30 29
f 26 29 35
f 26 35 32
f 29 30 35
f 30 33 35
f 30 34 33
f 30 36 34
f 30 48 50
f 30 50 36
f 27 83 28
f 28 83 30
f 30 85 51
f 30 49 48
f 30 51 49
f 4 22 210
f 22 26 210
f 26 32 170
f 15 79 78
f 19 80 79
f 20 81 80
f 78 79 82
f 80 81 87
f 27 78 82
f 27 82 83
f 30 83 85
f 51 85 88
f 85 89 88
f 85 90 89
f 85 91 90
f 79 86 82
f 82 86 83
f 83 86 84
f 83 84 85
f 79 80 86
f 80 87 86
f 84 86 87
f 84 123 85
f 85 120 91
f 85 121 120
f 85 122 121
f 84 124 123
f 85 123 122
f 84 87 124
f 87 125 124
f 81 283 87
f 87 269 125
f 7 139 143
f 4 141 139
f 8 143 144
f 4 210 141
f 139 140 143
f 139 141 142
f 139 142 140
f 140 142 147
f 143 145 144
f 140 145 143
f 140 146 145
f 140 147 146
f 146 147 148
f 144 145 151
f 145 146 151
f 146 148 153
f 141 211 142
f 142 211 147
f 147 213 148
f 148 213 153
f 13 144 149
f 13 149 150
f 18 150 155
f 18 155 157
f 144 151 149
f 146 152 151
f 146 153 152
f 149 151 150
f 150 151 156
f 151 152 156
f 152 154 156
f 152 153 154
f 150 156 155
f 155 158 157
f 155 156 158
f 154 158 156
f 153 275 154
f 154 278 158
f 157 158 278
f 26 170 214
f 26 214 210
f 141 210 211
f 147 211 212
f 147 212 213
f 210 214 211
f 212 216 213
f 170 171 214
f 171 217 214
f 171 172 217
f 172 173 217
f 173 174 218
f 174 202 218
f 202 203 218
f 173 218 217
f 214 217 215
f 211 214 215
f 211 215 212
f 212 215 216
f 215 219 216
f 217 218 219
f 215 217 219
f 203 204 218
f 204 205 218
f 205 246 218
f 218 246 247
f 213 216 279
f 216 219 279
f 218 281 219
f 81 157 277
f 81 277 283
f 87 283 269
f 153 213 275
f 213 279 275
f 154 275 276
f 157 278 277
f 154 276 278
f 275 279 276
f 277 278 283
f 247 248 281
f 248 249 281
f 218 247 281
f 219 281 282
f 219 282 279
f 264 265 281
f 249 264 281
f 265 267 281
f 267 268 280
f 266 280 268
f 267 280 281
f 266 269 280
f 269 283 280
f 276 279 284
f 279 282 284
f 280 282 281
f 280 284 282
f 280 283 284
f 278 284 283
f 276 284 278
f 31 32 37
f 32 35 37
f 34 36 39
f 33 38 35
f 33 34 38
f 36 50 54
f 35 38 37
f 34 39 38
f 36 54 39
f 40 46 42
f 40 41 44
f 31 45 41
f 40 42 170
f 31 41 170
f 31 170 32
f 40 170 41
f 42 47 43
f 43 164 159
f 41 45 44
f 40 44 46
f 31 37 45
f 42 46 47
f 43 47 164
f 46 65 47
f 47 181 164
f 44 67 46
f 46 64 66
f 46 67 64
f 46 66 65
f 47 65 58
f 47 58 59
f 47 59 181
f 48 52 50
f 48 49 53
f 49 51 55
f 51 88 92
f 48 53 52
f 50 52 54
f 37 38 129
f 49 55 53
f 51 92 55
f 52 95 54
f 52 53 94
f 53 55 93
f 39 54 127
f 38 39 128
f 44 71 67
f 44 72 71
f 44 76 73
f 44 73 72
f 37 130 45
f 44 45 135
f 44 77 76
f 44 135 77
f 88 89 93
f 89 90 94
f 90 91 95
f 91 120 127
f 88 93 92
f 89 94 93
f 55 92 93
f 53 93 94
f 52 94 95
f 54 95 127
f 39 127 128
f 38 128 129
f 37 129 130
f 90 95 94
f 91 127 95
f 45 130 135
f 135 99 77
f 135 100 99
f 135 101 100
f 136 105 101
f 136 106 105
f 136 107 106
f 136 112 107
f 120 121 128
f 121 122 129
f 124 125 129
f 122 123 129
f 123 124 129
f 125 126 129
f 120 128 127
f 121 129 128
f 126 130 129
f 125 131 126
f 125 132 131
f 125 133 132
f 125 134 133
f 126 131 130
f 131 132 135
f 132 133 136
f 125 254 134
f 125 255 254
f 125 256 255
f 133 134 137
f 134 254 138
f 135 136 101
f 136 137 112
f 137 113 112
f 137 114 113
f 137 115 114
f 138 118 115
f 138 119 118
f 138 243 119
f 130 131 135
f 132 136 135
f 133 137 136
f 134 138 137
f 138 254 259
f 137 138 115
f 138 259 243
f 42 43 170
f 43 159 170
f 159 160 170
f 159 165 160
f 160 166 161
f 160 161 170
f 161 162 170
f 162 163 170
f 163 169 170
f 161 167 162
f 162 168 163
f 163 175 169
f 159 164 165
f 160 165 166
f 164 181 165
f 165 188 166
f 161 166 167
f 162 167 168
f 163 168 175
f 165 181 182
f 165 182 183
f 165 183 188
f 166 188 189
f 166 189 190
f 166 190 191
f 166 191 167
f 167 200 168
f 169 176 170
f 170 176 171
f 171 176 172
f 172 176 173
f 173 176 174
f 174 177 202
f 169 175 176
f 174 176 177
f 177 206 202
f 167 191 195
f 167 195 196
f 167 196 197
f 167 197 200
f 168 200 201
f 168 201 223
f 168 223 224
f 168 262 175
f 202 206 203
f 203 207 204
f 204 208 205
f 205 209 246
f 203 206 207
f 204 207 208
f 175 274 176
f 176 273 177
f 177 272 206
f 206 271 207
f 205 208 209
f 209 250 246
f 207 253 208
f 208 252 209
f 168 224 263
f 263 224 225
f 168 263 262
f 175 262 274
f 263 229 230
f 263 225 229
f 263 230 231
f 263 231 236
f 246 250 247
f 247 251 248
f 248 252 249
f 249 253 264
f 177 273 272
f 206 272 271
f 247 250 251
f 248 251 252
f 209 251 250
f 209 252 251
f 208 253 252
f 207 271 253
f 253 271 264
f 176 274 273
f 249 252 253
f 125 257 258
f 125 269 270
f 125 270 257
f 125 258 256
f 254 255 259
f 255 256 260
f 257 270 262
f 257 263 258
f 256 258 261
f 260 244 243
f 260 245 244
f 260 238 245
f 261 237 238
f 261 236 239
f 261 239 237
f 261 263 236
f 255 260 259
f 256 261 260
f 259 260 243
f 260 261 238
f 262 270 274
f 258 263 261
f 257 262 263
f 264 271 265
f 267 273 268
f 266 268 273
f 265 272 267
f 266 274 269
f 269 274 270
f 265 271 272
f 267 272 273
f 266 273 274
f 68 67 71
f 61 56 58
f 56 57 59
f 57 178 181
f 56 59 58
f 57 181 59
f 62 61 65
f 60 62 66
f 63 60 64
f 68 63 67
f 60 66 64
f 62 65 66
f 63 64 67
f 61 58 65
f 69 68 71
f 74 70 73
f 70 69 72
f 69 71 72
f 70 72 73
f 75 74 76
f 102 69 70
f 103 68 69
f 104 63 68
f 98 70 74
f 97 74 75
f 96 75 77
f 74 73 76
f 75 76 77
f 96 77 99
f 111 56 61
f 116 57 56
f 117 178 57
f 108 60 63
f 109 62 60
f 110 61 62
f 97 75 96
f 98 74 97
f 102 70 98
f 97 96 99
f 102 103 69
f 98 97 100
f 102 98 101
f 104 68 103
f 97 99 100
f 98 100 101
f 102 105 103
f 104 103 106
f 102 101 105
f 103 105 106
f 104 106 107
f 104 108 63
f 109 60 108
f 109 110 62
f 111 61 110
f 111 116 56
f 116 117 57
f 117 240 178
f 104 107 108
f 109 108 112
f 109 113 110
f 111 110 114
f 108 107 112
f 109 112 113
f 110 113 114
f 111 114 115
f 111 115 116
f 116 118 117
f 117 119 240
f 116 115 118
f 117 118 119
f 240 119 243
f 178 179 182
f 179 180 183
f 178 182 181
f 179 183 182
f 180 188 183
f 180 184 188
f 185 189 184
f 185 186 190
f 187 191 186
f 184 189 188
f 185 190 189
f 186 191 190
f 187 195 191
f 187 192 195
f 240 179 178
f 241 180 179
f 242 184 180
f 234 185 184
f 233 186 185
f 235 187 186
f 232 192 187
f 193 196 192
f 193 194 197
f 192 196 195
f 193 197 196
f 194 200 197
f 228 193 192
f 198 200 194
f 199 201 198
f 227 194 193
f 226 198 194
f 222 199 198
f 220 223 199
f 198 201 200
f 199 223 201
f 234 233 185
f 233 235 186
f 235 232 187
f 240 241 179
f 241 242 180
f 242 234 184
f 221 220 199
f 222 221 199
f 226 222 198
f 221 224 220
f 232 228 192
f 228 227 193
f 227 226 194
f 222 225 221
f 220 224 223
f 221 225 224
f 222 229 225
f 227 230 226
f 226 229 222
f 228 231 227
f 226 230 229
f 227 231 230
f 234 245 238
f 232 236 228
f 235 239 232
f 233 237 235
f 234 238 233
f 232 239 236
f 233 238 237
f 235 237 239
f 240 243 241
f 241 244 242
f 242 245 234
f 241 243 244
f 242 244 245
f 228 236 231
