# pad_left.obj  (48 v, 92 f)  units: metres
v -0.040439341 0.027500000 -0.010560661
v -0.039999999 0.027500000 -0.009500000
v -0.040439341 0.026439339 -0.009500000
v -0.041499998 0.026439339 -0.010560661
v -0.041499998 0.027500000 -0.011000000
v -0.041499998 0.026000001 -0.009500000
v -0.039999999 0.027500000 0.009500000
v -0.040439341 0.026439339 0.009500000
v -0.040439341 0.027500000 0.010560661
v -0.041499998 0.026000001 0.009500000
v -0.041499998 0.026439339 0.010560661
v -0.041499998 0.027500000 0.011000000
v -0.040439341 0.078500003 -0.010560661
v -0.039999999 0.078500003 -0.009500000
v -0.040439341 0.079560660 -0.009500000
v -0.041499998 0.078500003 -0.011000000
v -0.041499998 0.079560660 -0.010560661
v -0.041499998 0.079999998 -0.009500000
v -0.039999999 0.078500003 0.009500000
v -0.040439341 0.079560660 0.009500000
v -0.040439341 0.078500003 0.010560661
v -0.041499998 0.079999998 0.009500000
v -0.041499998 0.078500003 0.011000000
v -0.041499998 0.079560660 0.010560661
v -0.046999998 0.026439339 -0.010560661
v -0.046999998 0.027500000 -0.011000000
v -0.046999998 0.026000001 -0.009500000
v -0.048060659 0.027500000 -0.010560661
v -0.048060659 0.026439339 -0.009500000
v -0.048500001 0.027500000 -0.009500000
v -0.046999998 0.026000001 0.009500000
v -0.046999998 0.026439339 0.010560661
v -0.046999998 0.027500000 0.011000000
v -0.048060659 0.026439339 0.009500000
v -0.048500001 0.027500000 0.009500000
v -0.048060659 0.027500000 0.010560661
v -0.046999998 0.078500003 -0.011000000
v -0.046999998 0.079560660 -0.010560661
v -0.046999998 0.079999998 -0.009500000
v -0.048060659 0.078500003 -0.010560661
v -0.048060659 0.079560660 -0.009500000
v -0.048500001 0.078500003 -0.009500000
v -0.046999998 0.079999998 0.009500000
v -0.046999998 0.078500003 0.011000000
v -0.046999998 0.079560660 0.010560661
v -0.048060659 0.079560660 0.009500000
v -0.048500001 0.078500003 0.009500000
v -0.048060659 0.078500003 0.010560661
f 1 2 3
f 4 1 3
f 4 5 1
f 3 6 4
f 7 3 2
f 10 6 3
f 14 2 1
f 1 5 13
f 26 5 4
f 6 25 4
f 10 27 6
f 16 5 26
f 7 8 3
f 3 8 10
f 7 9 8
f 8 9 11
f 10 8 11
f 11 9 12
f 2 19 7
f 21 9 7
f 12 9 21
f 11 32 10
f 11 12 32
f 12 23 33
f 13 14 1
f 16 13 5
f 2 14 19
f 15 14 13
f 15 13 17
f 16 17 13
f 18 15 17
f 15 19 14
f 22 15 18
f 38 17 16
f 18 17 38
f 22 18 39
f 19 21 7
f 12 21 23
f 15 20 19
f 22 20 15
f 19 20 21
f 21 20 24
f 20 22 24
f 24 23 21
f 22 43 24
f 23 24 44
f 4 25 26
f 6 27 25
f 26 25 28
f 27 29 25
f 28 25 29
f 29 30 28
f 31 29 27
f 30 29 35
f 26 28 40
f 42 28 30
f 42 30 35
f 10 31 27
f 32 31 10
f 33 32 12
f 31 34 29
f 35 29 34
f 32 34 31
f 36 32 33
f 36 34 32
f 35 34 36
f 33 48 36
f 35 36 47
f 26 37 16
f 16 37 38
f 39 18 38
f 26 40 37
f 42 40 28
f 37 40 38
f 38 41 39
f 38 40 41
f 40 42 41
f 41 43 39
f 47 41 42
f 44 33 23
f 39 43 22
f 24 43 45
f 44 24 45
f 47 42 35
f 44 48 33
f 36 48 47
f 46 43 41
f 47 46 41
f 46 45 43
f 44 45 48
f 48 45 46
f 46 47 48
