# pad_right.obj  (48 v, 92 f)  units: metres
v 0.040439341 0.027500000 -0.010560661
v 0.039999999 0.027500000 -0.009500000
v 0.040439341 0.026439339 -0.009500000
v 0.041499998 0.026439339 -0.010560661
v 0.041499998 0.027500000 -0.011000000
v 0.041499998 0.026000001 -0.009500000
v 0.039999999 0.027500000 0.009500000
v 0.040439341 0.026439339 0.009500000
v 0.040439341 0.027500000 0.010560661
v 0.041499998 0.026000001 0.009500000
v 0.041499998 0.026439339 0.010560661
v 0.041499998 0.027500000 0.011000000
v 0.040439341 0.078500003 -0.010560661
v 0.039999999 0.078500003 -0.009500000
v 0.040439341 0.079560660 -0.009500000
v 0.041499998 0.078500003 -0.011000000
v 0.041499998 0.079560660 -0.010560661
v 0.041499998 0.079999998 -0.009500000
v 0.039999999 0.078500003 0.009500000
v 0.040439341 0.079560660 0.009500000
v 0.040439341 0.078500003 0.010560661
v 0.041499998 0.079999998 0.009500000
v 0.041499998 0.078500003 0.011000000
v 0.041499998 0.079560660 0.010560661
v 0.046999998 0.026439339 -0.010560661
v 0.046999998 0.027500000 -0.011000000
v 0.046999998 0.026000001 -0.009500000
v 0.048060659 0.027500000 -0.010560661
v 0.048060659 0.026439339 -0.009500000
v 0.048500001 0.027500000 -0.009500000
v 0.046999998 0.026000001 0.009500000
v 0.046999998 0.026439339 0.010560661
v 0.046999998 0.027500000 0.011000000
v 0.048060659 0.026439339 0.009500000
v 0.048500001 0.027500000 0.009500000
v 0.048060659 0.027500000 0.010560661
v 0.046999998 0.078500003 -0.011000000
v 0.046999998 0.079560660 -0.010560661
v 0.046999998 0.079999998 -0.009500000
v 0.048060659 0.078500003 -0.010560661
v 0.048060659 0.079560660 -0.009500000
v 0.048500001 0.078500003 -0.009500000
v 0.046999998 0.079999998 0.009500000
v 0.046999998 0.078500003 0.011000000
v 0.046999998 0.079560660 0.010560661
v 0.048060659 0.079560660 0.009500000
v 0.048500001 0.078500003 0.009500000
v 0.048060659 0.078500003 0.010560661
f 1 3 2
f 4 3 1
f 4 1 5
f 3 4 6
f 7 2 3
f 10 3 6
f 14 1 2
f 1 13 5
f 26 4 5
f 6 4 25
f 10 6 27
f 16 26 5
f 7 3 8
f 3 10 8
f 7 8 9
f 8 11 9
f 10 11 8
f 11 12 9
f 2 7 19
f 21 7 9
f 12 21 9
f 11 10 32
f 11 32 12
f 12 33 23
f 13 1 14
f 16 5 13
f 2 19 14
f 15 13 14
f 15 17 13
f 16 13 17
f 18 17 15
f 15 14 19
f 22 18 15
f 38 16 17
f 18 38 17
f 22 39 18
f 19 7 21
f 12 23 21
f 15 19 20
f 22 15 20
f 19 21 20
f 21 24 20
f 20 24 22
f 24 21 23
f 22 24 43
f 23 44 24
f 4 26 25
f 6 25 27
f 26 28 25
f 27 25 29
f 28 29 25
f 29 28 30
f 31 27 29
f 30 35 29
f 26 40 28
f 42 30 28
f 42 35 30
f 10 27 31
f 32 10 31
f 33 12 32
f 31 29 34
f 35 34 29
f 32 31 34
f 36 33 32
f 36 32 34
f 35 36 34
f 33 36 48
f 35 47 36
f 26 16 37
f 16 38 37
f 39 38 18
f 26 37 40
f 42 28 40
f 37 38 40
f 38 39 41
f 38 41 40
f 40 41 42
f 41 39 43
f 47 42 41
f 44 23 33
f 39 22 43
f 24 45 43
f 44 45 24
f 47 35 42
f 44 33 48
f 36 47 48
f 46 41 43
f 47 41 46
f 46 43 45
f 44 48 45
f 48 46 45
f 46 48 47
