# cup.obj  (816 v, 1628 f)  units: metres
v -0.021920310 0.000000000 0.021920310
v -0.024593953 0.000000000 0.018871604
v -0.018871604 0.000000000 0.024593953
v -0.020227414 0.003100000 0.020227414
v -0.026846787 0.000000000 0.015500000
v -0.028640265 0.000000000 0.011863186
v -0.026428388 0.003100000 0.010946997
v -0.030734790 0.000000000 0.004046312
v -0.029943701 0.000000000 0.008023391
v -0.027631160 0.003100000 0.007403747
v -0.028361155 0.003100000 0.003733817
v -0.024773421 0.003100000 0.014302941
v -0.022694573 0.003100000 0.017414158
v -0.015500000 0.000000000 0.026846787
v -0.011863186 0.000000000 0.028640265
v -0.010946997 0.003100000 0.026428388
v -0.017414158 0.003100000 0.022694573
v -0.014302941 0.003100000 0.024773421
v -0.008023391 0.000000000 0.029943701
v -0.007403747 0.003100000 0.027631160
v -0.004046312 0.000000000 0.030734790
v -0.003733817 0.003100000 0.028361155
v -0.027594840 0.082838096 0.021174265
v -0.027216490 0.082124367 0.020883948
v -0.026885692 0.081845760 0.020630118
v -0.027727699 0.083679996 0.021276211
v -0.027594840 0.084521905 0.021174265
v -0.027216490 0.085235633 0.020883948
v -0.026650248 0.085712537 0.020449456
v -0.021174265 0.082838096 0.027594840
v -0.020883948 0.082124367 0.027216490
v -0.020630118 0.081845760 0.026885692
v -0.021276211 0.083679996 0.027727699
v -0.021174265 0.084521905 0.027594840
v -0.020883948 0.085235633 0.027216490
v -0.020449456 0.085712537 0.026650248
v -0.024594966 0.082838096 0.024594966
v -0.024257747 0.082124367 0.024257747
v -0.024713382 0.083679996 0.024713382
v -0.024594966 0.084521905 0.024594966
v -0.024257747 0.085235633 0.024257747
v -0.023962911 0.081845760 0.023962911
v -0.022192562 0.081996970 0.022192562
v -0.022057747 0.082124367 0.022057747
v -0.023753062 0.085712537 0.023753062
v -0.023157747 0.085879996 0.023157747
v -0.022562431 0.085712537 0.022562431
v -0.022057747 0.085235633 0.022057747
v -0.025982322 0.085879996 0.019936936
v -0.024899412 0.081996970 0.019105991
v -0.024748154 0.082124367 0.018989926
v -0.024369804 0.082838096 0.018699609
v -0.025314394 0.085712537 0.019424418
v -0.024236945 0.083679996 0.018597662
v -0.024369804 0.084521905 0.018699609
v -0.024748154 0.085235633 0.018989926
v -0.019936936 0.085879996 0.025982322
v -0.019105991 0.081996970 0.024899412
v -0.018989926 0.082124367 0.024748154
v -0.018699609 0.082838096 0.024369804
v -0.019424418 0.085712537 0.025314394
v -0.018597662 0.083679996 0.024236945
v -0.018699609 0.084521905 0.024369804
v -0.018989926 0.085235633 0.024748154
v -0.021720529 0.082838096 0.021720529
v -0.021602113 0.083679996 0.021602113
v -0.021720529 0.084521905 0.021720529
v -0.031694274 0.082124367 0.013128198
v -0.032134872 0.082838096 0.013310700
v -0.032289591 0.083679996 0.013374786
v -0.032134872 0.084521905 0.013310700
v -0.031694274 0.085235633 0.013128198
v -0.033597350 0.082838096 0.009002383
v -0.033136699 0.082124367 0.008878952
v -0.033759106 0.083679996 0.009045726
v -0.033597350 0.084521905 0.009002383
v -0.033136699 0.085235633 0.008878952
v -0.031309053 0.081845760 0.012968634
v -0.031034872 0.085712537 0.012855065
v -0.032733947 0.081845760 0.008771034
v -0.030122560 0.082838096 0.017391268
v -0.029709551 0.082124367 0.017152818
v -0.029348452 0.081845760 0.016944338
v -0.030267587 0.083679996 0.017475000
v -0.030122560 0.084521905 0.017391268
v -0.029709551 0.085235633 0.017152818
v -0.029091442 0.085712537 0.016795952
v -0.027180227 0.081996970 0.015692512
v -0.027015112 0.082124367 0.015597182
v -0.026602104 0.082838096 0.015358732
v -0.028362332 0.085879996 0.016375000
v -0.027633222 0.085712537 0.015954047
v -0.026602104 0.084521905 0.015358732
v -0.027015112 0.085235633 0.015597182
v -0.026457077 0.083679996 0.015275000
v -0.028995980 0.081996970 0.012010528
v -0.028819835 0.082124367 0.011937567
v -0.030257056 0.085879996 0.012532882
v -0.029479237 0.085712537 0.012210700
v -0.028819835 0.085235633 0.011937567
v -0.028379237 0.082838096 0.011755065
v -0.028224520 0.083679996 0.011690979
v -0.028379237 0.084521905 0.011755065
v -0.034484964 0.082838096 0.004540032
v -0.034012146 0.082124367 0.004477784
v -0.033598751 0.081845760 0.004423359
v -0.034650996 0.083679996 0.004561890
v -0.034484964 0.084521905 0.004540032
v -0.034012146 0.085235633 0.004477784
v -0.033304520 0.085712537 0.004384623
v -0.032447286 0.085712537 0.008694224
v -0.031634070 0.085879996 0.008476323
v -0.030820854 0.085712537 0.008258423
v -0.031116517 0.081996970 0.004096567
v -0.030927492 0.082124367 0.004071682
v -0.032469820 0.085879996 0.004274733
v -0.031635117 0.085712537 0.004164842
v -0.030927492 0.085235633 0.004071682
v -0.030315602 0.081996970 0.008123041
v -0.030131442 0.082124367 0.008073696
v -0.029670794 0.082838096 0.007950265
v -0.029509034 0.083679996 0.007906922
v -0.029670794 0.084521905 0.007950265
v -0.030131442 0.085235633 0.008073696
v -0.030454673 0.082838096 0.004009434
v -0.030288640 0.083679996 0.003987575
v -0.030454673 0.084521905 0.004009434
v -0.013128198 0.082124367 0.031694274
v -0.013310700 0.082838096 0.032134872
v -0.013374786 0.083679996 0.032289591
v -0.013310700 0.084521905 0.032134872
v -0.013128198 0.085235633 0.031694274
v -0.017391268 0.082838096 0.030122560
v -0.017152818 0.082124367 0.029709551
v -0.016944338 0.081845760 0.029348452
v -0.017475000 0.083679996 0.030267587
v -0.017391268 0.084521905 0.030122560
v -0.017152818 0.085235633 0.029709551
v -0.016795952 0.085712537 0.029091442
v -0.015692512 0.081996970 0.027180227
v -0.015597182 0.082124367 0.027015112
v -0.015358732 0.082838096 0.026602104
v -0.016375000 0.085879996 0.028362332
v -0.015954047 0.085712537 0.027633222
v -0.015358732 0.084521905 0.026602104
v -0.015597182 0.085235633 0.027015112
v -0.015275000 0.083679996 0.026457077
v -0.012968634 0.081845760 0.031309053
v -0.012855065 0.085712537 0.031034872
v -0.009002383 0.082838096 0.033597350
v -0.008878952 0.082124367 0.033136699
v -0.009045726 0.083679996 0.033759106
v -0.009002383 0.084521905 0.033597350
v -0.008878952 0.085235633 0.033136699
v -0.008771034 0.081845760 0.032733947
v -0.012010528 0.081996970 0.028995980
v -0.011937567 0.082124367 0.028819835
v -0.012532882 0.085879996 0.030257056
v -0.012210700 0.085712537 0.029479237
v -0.011937567 0.085235633 0.028819835
v -0.011755065 0.082838096 0.028379237
v -0.011690979 0.083679996 0.028224520
v -0.011755065 0.084521905 0.028379237
v -0.008694224 0.085712537 0.032447286
v -0.008476323 0.085879996 0.031634070
v -0.008258423 0.085712537 0.030820854
v -0.004540032 0.082838096 0.034484964
v -0.004477784 0.082124367 0.034012146
v -0.004423359 0.081845760 0.033598751
v -0.004561890 0.083679996 0.034650996
v -0.004540032 0.084521905 0.034484964
v -0.004477784 0.085235633 0.034012146
v -0.004384623 0.085712537 0.033304520
v -0.008123041 0.081996970 0.030315602
v -0.008073696 0.082124367 0.030131442
v -0.007950265 0.082838096 0.029670794
v -0.007906922 0.083679996 0.029509034
v -0.007950265 0.084521905 0.029670794
v -0.008073696 0.085235633 0.030131442
v -0.004096567 0.081996970 0.031116517
v -0.004071682 0.082124367 0.030927492
v -0.004274733 0.085879996 0.032469820
v -0.004164842 0.085712537 0.031635117
v -0.004071682 0.085235633 0.030927492
v -0.004009434 0.082838096 0.030454673
v -0.003987575 0.083679996 0.030288640
v -0.004009434 0.084521905 0.030454673
v -0.030999999 0.000000000 0.000000000
v -0.030734790 0.000000000 -0.004046312
v -0.028605882 0.003100000 0.000000000
v -0.028361155 0.003100000 -0.003733817
v -0.029943701 0.000000000 -0.008023391
v -0.027631160 0.003100000 -0.007403747
v -0.028640265 0.000000000 -0.011863186
v -0.026428388 0.003100000 -0.010946997
v -0.026846787 0.000000000 -0.015500000
v -0.024773421 0.003100000 -0.014302941
v -0.022694573 0.003100000 -0.017414158
v -0.024593953 0.000000000 -0.018871604
v -0.021920310 0.000000000 -0.021920310
v -0.020227414 0.003100000 -0.020227414
v -0.018871604 0.000000000 -0.024593953
v -0.017414158 0.003100000 -0.022694573
v -0.014302941 0.003100000 -0.024773421
v -0.015500000 0.000000000 -0.026846787
v -0.010946997 0.003100000 -0.026428388
v -0.011863186 0.000000000 -0.028640265
v -0.007403747 0.003100000 -0.027631160
v -0.008023391 0.000000000 -0.029943701
v -0.003733817 0.003100000 -0.028361155
v -0.004046312 0.000000000 -0.030734790
v -0.033888675 0.081845760 0.000000000
v -0.034782536 0.082838096 0.000000000
v -0.034305636 0.082124367 0.000000000
v -0.034949999 0.083679996 0.000000000
v -0.034782536 0.084521905 0.000000000
v -0.034305636 0.085235633 0.000000000
v -0.033591904 0.085712537 0.000000000
v -0.031385023 0.081996970 0.000000000
v -0.031194365 0.082124367 0.000000000
v -0.030717464 0.082838096 0.000000000
v -0.032749999 0.085879996 0.000000000
v -0.031908095 0.085712537 0.000000000
v -0.030717464 0.084521905 0.000000000
v -0.031194365 0.085235633 0.000000000
v -0.030927492 0.082124367 -0.004071682
v -0.031116517 0.081996970 -0.004096567
v -0.032469820 0.085879996 -0.004274733
v -0.031635117 0.085712537 -0.004164842
v -0.030927492 0.085235633 -0.004071682
v -0.034484964 0.082838096 -0.004540032
v -0.034012146 0.082124367 -0.004477784
v -0.033598751 0.081845760 -0.004423359
v -0.034650996 0.083679996 -0.004561890
v -0.034484964 0.084521905 -0.004540032
v -0.034012146 0.085235633 -0.004477784
v -0.033304520 0.085712537 -0.004384623
v -0.032447286 0.085712537 -0.008694224
v -0.031634070 0.085879996 -0.008476323
v -0.030820854 0.085712537 -0.008258423
v -0.030549999 0.083679996 0.000000000
v -0.030454673 0.082838096 -0.004009434
v -0.030288640 0.083679996 -0.003987575
v -0.030454673 0.084521905 -0.004009434
v -0.030315602 0.081996970 -0.008123041
v -0.030131442 0.082124367 -0.008073696
v -0.029670794 0.082838096 -0.007950265
v -0.029509034 0.083679996 -0.007906922
v -0.029670794 0.084521905 -0.007950265
v -0.030131442 0.085235633 -0.008073696
v -0.033597350 0.082838096 -0.009002383
v -0.033136699 0.082124367 -0.008878952
v -0.033759106 0.083679996 -0.009045726
v -0.033597350 0.084521905 -0.009002383
v -0.033136699 0.085235633 -0.008878952
v -0.032733947 0.081845760 -0.008771034
v -0.031309053 0.081845760 -0.012968634
v -0.031034872 0.085712537 -0.012855065
v -0.031694274 0.082124367 -0.013128198
v -0.032134872 0.082838096 -0.013310700
v -0.032289591 0.083679996 -0.013374786
v -0.032134872 0.084521905 -0.013310700
v -0.031694274 0.085235633 -0.013128198
v -0.028995980 0.081996970 -0.012010528
v -0.028819835 0.082124367 -0.011937567
v -0.030257056 0.085879996 -0.012532882
v -0.028819835 0.085235633 -0.011937567
v -0.029479237 0.085712537 -0.012210700
v -0.028379237 0.082838096 -0.011755065
v -0.028224520 0.083679996 -0.011690979
v -0.028379237 0.084521905 -0.011755065
v -0.030122560 0.082838096 -0.017391268
v -0.029709551 0.082124367 -0.017152818
v -0.029348452 0.081845760 -0.016944338
v -0.030122560 0.084521905 -0.017391268
v -0.029709551 0.085235633 -0.017152818
v -0.029091442 0.085712537 -0.016795952
v -0.026457077 0.083679996 -0.015275000
v -0.027180227 0.081996970 -0.015692512
v -0.027015112 0.082124367 -0.015597182
v -0.026602104 0.082838096 -0.015358732
v -0.028362332 0.085879996 -0.016375000
v -0.027633222 0.085712537 -0.015954047
v -0.026602104 0.084521905 -0.015358732
v -0.027015112 0.085235633 -0.015597182
v -0.030267587 0.083679996 -0.017475000
v -0.027594840 0.082838096 -0.021174265
v -0.026885692 0.081845760 -0.020630118
v -0.027216490 0.082124367 -0.020883948
v -0.027727699 0.083679996 -0.021276211
v -0.027594840 0.084521905 -0.021174265
v -0.026650248 0.085712537 -0.020449456
v -0.027216490 0.085235633 -0.020883948
v -0.024899412 0.081996970 -0.019105991
v -0.024748154 0.082124367 -0.018989926
v -0.024369804 0.082838096 -0.018699609
v -0.025314394 0.085712537 -0.019424418
v -0.024236945 0.083679996 -0.018597662
v -0.024369804 0.084521905 -0.018699609
v -0.024748154 0.085235633 -0.018989926
v -0.025982322 0.085879996 -0.019936936
v -0.024594966 0.082838096 -0.024594966
v -0.024257747 0.082124367 -0.024257747
v -0.024713382 0.083679996 -0.024713382
v -0.024594966 0.084521905 -0.024594966
v -0.024257747 0.085235633 -0.024257747
v -0.023962911 0.081845760 -0.023962911
v -0.022192562 0.081996970 -0.022192562
v -0.022057747 0.082124367 -0.022057747
v -0.023753062 0.085712537 -0.023753062
v -0.023157747 0.085879996 -0.023157747
v -0.022562431 0.085712537 -0.022562431
v -0.022057747 0.085235633 -0.022057747
v -0.021720529 0.082838096 -0.021720529
v -0.021602113 0.083679996 -0.021602113
v -0.021720529 0.084521905 -0.021720529
v -0.019936936 0.085879996 -0.025982322
v -0.018699609 0.082838096 -0.024369804
v -0.018989926 0.082124367 -0.024748154
v -0.019105991 0.081996970 -0.024899412
v -0.018597662 0.083679996 -0.024236945
v -0.018699609 0.084521905 -0.024369804
v -0.018989926 0.085235633 -0.024748154
v -0.019424418 0.085712537 -0.025314394
v -0.020883948 0.082124367 -0.027216490
v -0.021174265 0.082838096 -0.027594840
v -0.020630118 0.081845760 -0.026885692
v -0.020883948 0.085235633 -0.027216490
v -0.021276211 0.083679996 -0.027727699
v -0.021174265 0.084521905 -0.027594840
v -0.020449456 0.085712537 -0.026650248
v -0.015358732 0.082838096 -0.026602104
v -0.015597182 0.082124367 -0.027015112
v -0.015692512 0.081996970 -0.027180227
v -0.015358732 0.084521905 -0.026602104
v -0.015597182 0.085235633 -0.027015112
v -0.015954047 0.085712537 -0.027633222
v -0.016375000 0.085879996 -0.028362332
v -0.016944338 0.081845760 -0.029348452
v -0.017152818 0.082124367 -0.029709551
v -0.017391268 0.082838096 -0.030122560
v -0.016795952 0.085712537 -0.029091442
v -0.017475000 0.083679996 -0.030267587
v -0.017391268 0.084521905 -0.030122560
v -0.017152818 0.085235633 -0.029709551
v -0.015275000 0.083679996 -0.026457077
v -0.013128198 0.082124367 -0.031694274
v -0.013310700 0.082838096 -0.032134872
v -0.013310700 0.084521905 -0.032134872
v -0.013374786 0.083679996 -0.032289591
v -0.013128198 0.085235633 -0.031694274
v -0.011755065 0.082838096 -0.028379237
v -0.011690979 0.083679996 -0.028224520
v -0.011755065 0.084521905 -0.028379237
v -0.011937567 0.082124367 -0.028819835
v -0.012010528 0.081996970 -0.028995980
v -0.012210700 0.085712537 -0.029479237
v -0.012532882 0.085879996 -0.030257056
v -0.011937567 0.085235633 -0.028819835
v -0.012968634 0.081845760 -0.031309053
v -0.012855065 0.085712537 -0.031034872
v -0.008771034 0.081845760 -0.032733947
v -0.008878952 0.082124367 -0.033136699
v -0.009002383 0.082838096 -0.033597350
v -0.009045726 0.083679996 -0.033759106
v -0.009002383 0.084521905 -0.033597350
v -0.008878952 0.085235633 -0.033136699
v -0.007950265 0.082838096 -0.029670794
v -0.008073696 0.082124367 -0.030131442
v -0.008123041 0.081996970 -0.030315602
v -0.007906922 0.083679996 -0.029509034
v -0.007950265 0.084521905 -0.029670794
v -0.008073696 0.085235633 -0.030131442
v -0.008258423 0.085712537 -0.030820854
v -0.008476323 0.085879996 -0.031634070
v -0.008694224 0.085712537 -0.032447286
v -0.004423359 0.081845760 -0.033598751
v -0.004477784 0.082124367 -0.034012146
v -0.004540032 0.082838096 -0.034484964
v -0.004384623 0.085712537 -0.033304520
v -0.004561890 0.083679996 -0.034650996
v -0.004540032 0.084521905 -0.034484964
v -0.004477784 0.085235633 -0.034012146
v -0.004009434 0.082838096 -0.030454673
v -0.003987575 0.083679996 -0.030288640
v -0.004009434 0.084521905 -0.030454673
v -0.004096567 0.081996970 -0.031116517
v -0.004071682 0.082124367 -0.030927492
v -0.004071682 0.085235633 -0.030927492
v -0.004164842 0.085712537 -0.031635117
v -0.004274733 0.085879996 -0.032469820
v 0.000000000 0.000000000 0.030999999
v 0.004046312 0.000000000 0.030734790
v 0.000000000 0.003100000 0.028605882
v 0.003733817 0.003100000 0.028361155
v 0.008023391 0.000000000 0.029943701
v 0.007403747 0.003100000 0.027631160
v 0.011863186 0.000000000 0.028640265
v 0.010946997 0.003100000 0.026428388
v 0.015500000 0.000000000 0.026846787
v 0.014302941 0.003100000 0.024773421
v 0.017414158 0.003100000 0.022694573
v 0.018871604 0.000000000 0.024593953
v 0.020227414 0.003100000 0.020227414
v 0.021920310 0.000000000 0.021920310
v 0.024593953 0.000000000 0.018871604
v 0.022694573 0.003100000 0.017414158
v 0.024773421 0.003100000 0.014302941
v 0.026846787 0.000000000 0.015500000
v 0.026428388 0.003100000 0.010946997
v 0.028640265 0.000000000 0.011863186
v 0.027631160 0.003100000 0.007403747
v 0.029943701 0.000000000 0.008023391
v 0.028361155 0.003100000 0.003733817
v 0.030734790 0.000000000 0.004046312
v 0.000000000 0.081845760 0.033888675
v 0.000000000 0.082838096 0.034782536
v 0.000000000 0.082124367 0.034305636
v 0.000000000 0.083679996 0.034949999
v 0.000000000 0.084521905 0.034782536
v 0.000000000 0.085235633 0.034305636
v 0.000000000 0.085712537 0.033591904
v 0.000000000 0.081996970 0.031385023
v 0.000000000 0.082124367 0.031194365
v 0.000000000 0.082838096 0.030717464
v 0.000000000 0.085879996 0.032749999
v 0.000000000 0.085712537 0.031908095
v 0.000000000 0.084521905 0.030717464
v 0.000000000 0.085235633 0.031194365
v 0.004071682 0.082124367 0.030927492
v 0.004096567 0.081996970 0.031116517
v 0.004274733 0.085879996 0.032469820
v 0.004164842 0.085712537 0.031635117
v 0.004071682 0.085235633 0.030927492
v 0.000000000 0.083679996 0.030549999
v 0.004009434 0.082838096 0.030454673
v 0.003987575 0.083679996 0.030288640
v 0.004009434 0.084521905 0.030454673
v 0.004540032 0.082838096 0.034484964
v 0.004477784 0.082124367 0.034012146
v 0.004423359 0.081845760 0.033598751
v 0.004561890 0.083679996 0.034650996
v 0.004540032 0.084521905 0.034484964
v 0.004477784 0.085235633 0.034012146
v 0.004384623 0.085712537 0.033304520
v 0.008694224 0.085712537 0.032447286
v 0.008476323 0.085879996 0.031634070
v 0.008258423 0.085712537 0.030820854
v 0.008123041 0.081996970 0.030315602
v 0.008073696 0.082124367 0.030131442
v 0.007950265 0.082838096 0.029670794
v 0.007906922 0.083679996 0.029509034
v 0.007950265 0.084521905 0.029670794
v 0.008073696 0.085235633 0.030131442
v 0.009002383 0.082838096 0.033597350
v 0.008878952 0.082124367 0.033136699
v 0.009045726 0.083679996 0.033759106
v 0.009002383 0.084521905 0.033597350
v 0.008878952 0.085235633 0.033136699
v 0.008771034 0.081845760 0.032733947
v 0.012968634 0.081845760 0.031309053
v 0.012855065 0.085712537 0.031034872
v 0.012010528 0.081996970 0.028995980
v 0.011937567 0.082124367 0.028819835
v 0.011937567 0.085235633 0.028819835
v 0.012532882 0.085879996 0.030257056
v 0.012210700 0.085712537 0.029479237
v 0.011755065 0.082838096 0.028379237
v 0.011690979 0.083679996 0.028224520
v 0.011755065 0.084521905 0.028379237
v 0.013128198 0.082124367 0.031694274
v 0.013310700 0.082838096 0.032134872
v 0.013374786 0.083679996 0.032289591
v 0.013310700 0.084521905 0.032134872
v 0.013128198 0.085235633 0.031694274
v 0.015275000 0.083679996 0.026457077
v 0.017391268 0.082838096 0.030122560
v 0.017152818 0.082124367 0.029709551
v 0.016944338 0.081845760 0.029348452
v 0.017391268 0.084521905 0.030122560
v 0.017152818 0.085235633 0.029709551
v 0.016795952 0.085712537 0.029091442
v 0.015692512 0.081996970 0.027180227
v 0.015597182 0.082124367 0.027015112
v 0.015358732 0.082838096 0.026602104
v 0.016375000 0.085879996 0.028362332
v 0.015954047 0.085712537 0.027633222
v 0.015358732 0.084521905 0.026602104
v 0.015597182 0.085235633 0.027015112
v 0.017475000 0.083679996 0.030267587
v 0.020630118 0.081845760 0.026885692
v 0.021174265 0.082838096 0.027594840
v 0.020883948 0.082124367 0.027216490
v 0.020449456 0.085712537 0.026650248
v 0.021276211 0.083679996 0.027727699
v 0.021174265 0.084521905 0.027594840
v 0.020883948 0.085235633 0.027216490
v 0.019105991 0.081996970 0.024899412
v 0.018989926 0.082124367 0.024748154
v 0.018699609 0.082838096 0.024369804
v 0.019424418 0.085712537 0.025314394
v 0.018597662 0.083679996 0.024236945
v 0.018699609 0.084521905 0.024369804
v 0.018989926 0.085235633 0.024748154
v 0.019936936 0.085879996 0.025982322
v 0.021720529 0.082838096 0.021720529
v 0.021602113 0.083679996 0.021602113
v 0.021720529 0.084521905 0.021720529
v 0.022057747 0.082124367 0.022057747
v 0.022192562 0.081996970 0.022192562
v 0.023962911 0.081845760 0.023962911
v 0.022057747 0.085235633 0.022057747
v 0.022562431 0.085712537 0.022562431
v 0.023157747 0.085879996 0.023157747
v 0.023753062 0.085712537 0.023753062
v 0.024257747 0.082124367 0.024257747
v 0.024594966 0.082838096 0.024594966
v 0.024713382 0.083679996 0.024713382
v 0.024594966 0.084521905 0.024594966
v 0.024257747 0.085235633 0.024257747
v 0.025982322 0.085879996 0.019936936
v 0.024369804 0.082838096 0.018699609
v 0.024748154 0.082124367 0.018989926
v 0.024899412 0.081996970 0.019105991
v 0.024236945 0.083679996 0.018597662
v 0.024369804 0.084521905 0.018699609
v 0.024748154 0.085235633 0.018989926
v 0.025314394 0.085712537 0.019424418
v 0.027216490 0.082124367 0.020883948
v 0.026885692 0.081845760 0.020630118
v 0.027594840 0.082838096 0.021174265
v 0.027216490 0.085235633 0.020883948
v 0.026650248 0.085712537 0.020449456
v 0.027727699 0.083679996 0.021276211
v 0.027594840 0.084521905 0.021174265
v 0.026602104 0.082838096 0.015358732
v 0.027015112 0.082124367 0.015597182
v 0.027180227 0.081996970 0.015692512
v 0.026602104 0.084521905 0.015358732
v 0.027015112 0.085235633 0.015597182
v 0.027633222 0.085712537 0.015954047
v 0.028362332 0.085879996 0.016375000
v 0.026457077 0.083679996 0.015275000
v 0.029348452 0.081845760 0.016944338
v 0.029709551 0.082124367 0.017152818
v 0.030122560 0.082838096 0.017391268
v 0.029091442 0.085712537 0.016795952
v 0.030267587 0.083679996 0.017475000
v 0.030122560 0.084521905 0.017391268
v 0.029709551 0.085235633 0.017152818
v 0.028379237 0.082838096 0.011755065
v 0.028224520 0.083679996 0.011690979
v 0.028379237 0.084521905 0.011755065
v 0.028819835 0.082124367 0.011937567
v 0.028995980 0.081996970 0.012010528
v 0.029479237 0.085712537 0.012210700
v 0.028819835 0.085235633 0.011937567
v 0.030257056 0.085879996 0.012532882
v 0.031694274 0.082124367 0.013128198
v 0.032134872 0.082838096 0.013310700
v 0.032134872 0.084521905 0.013310700
v 0.032289591 0.083679996 0.013374786
v 0.031694274 0.085235633 0.013128198
v 0.031309053 0.081845760 0.012968634
v 0.031034872 0.085712537 0.012855065
v 0.032733947 0.081845760 0.008771034
v 0.033136699 0.082124367 0.008878952
v 0.033597350 0.082838096 0.009002383
v 0.033759106 0.083679996 0.009045726
v 0.033597350 0.084521905 0.009002383
v 0.033136699 0.085235633 0.008878952
v 0.029670794 0.082838096 0.007950265
v 0.030131442 0.082124367 0.008073696
v 0.030315602 0.081996970 0.008123041
v 0.029509034 0.083679996 0.007906922
v 0.029670794 0.084521905 0.007950265
v 0.030131442 0.085235633 0.008073696
v 0.030454673 0.082838096 0.004009434
v 0.030288640 0.083679996 0.003987575
v 0.030454673 0.084521905 0.004009434
v 0.030820854 0.085712537 0.008258423
v 0.031634070 0.085879996 0.008476323
v 0.032447286 0.085712537 0.008694224
v 0.033598751 0.081845760 0.004423359
v 0.034012146 0.082124367 0.004477784
v 0.034484964 0.082838096 0.004540032
v 0.033304520 0.085712537 0.004384623
v 0.034650996 0.083679996 0.004561890
v 0.034484964 0.084521905 0.004540032
v 0.034012146 0.085235633 0.004477784
v 0.031116517 0.081996970 0.004096567
v 0.030927492 0.082124367 0.004071682
v 0.030927492 0.085235633 0.004071682
v 0.031635117 0.085712537 0.004164842
v 0.032469820 0.085879996 0.004274733
v 0.000000000 0.003100000 -0.028605882
v 0.003733817 0.003100000 -0.028361155
v 0.000000000 0.000000000 -0.030999999
v 0.004046312 0.000000000 -0.030734790
v 0.007403747 0.003100000 -0.027631160
v 0.008023391 0.000000000 -0.029943701
v 0.014302941 0.003100000 -0.024773421
v 0.017414158 0.003100000 -0.022694573
v 0.010946997 0.003100000 -0.026428388
v 0.011863186 0.000000000 -0.028640265
v 0.015500000 0.000000000 -0.026846787
v 0.022694573 0.003100000 -0.017414158
v 0.024773421 0.003100000 -0.014302941
v 0.028361155 0.003100000 -0.003733817
v 0.028605882 0.003100000 0.000000000
v 0.027631160 0.003100000 -0.007403747
v 0.029943701 0.000000000 -0.008023391
v 0.030999999 0.000000000 0.000000000
v 0.030734790 0.000000000 -0.004046312
v 0.026428388 0.003100000 -0.010946997
v 0.028640265 0.000000000 -0.011863186
v 0.026846787 0.000000000 -0.015500000
v 0.020227414 0.003100000 -0.020227414
v 0.018871604 0.000000000 -0.024593953
v 0.024593953 0.000000000 -0.018871604
v 0.021920310 0.000000000 -0.021920310
v 0.000000000 0.083679996 -0.030549999
v 0.004009434 0.082838096 -0.030454673
v 0.003987575 0.083679996 -0.030288640
v 0.004009434 0.084521905 -0.030454673
v 0.000000000 0.082838096 -0.030717464
v 0.000000000 0.082124367 -0.031194365
v 0.000000000 0.081996970 -0.031385023
v 0.000000000 0.084521905 -0.030717464
v 0.000000000 0.085235633 -0.031194365
v 0.000000000 0.085712537 -0.031908095
v 0.000000000 0.085879996 -0.032749999
v 0.000000000 0.081845760 -0.033888675
v 0.000000000 0.082124367 -0.034305636
v 0.000000000 0.082838096 -0.034782536
v 0.000000000 0.085712537 -0.033591904
v 0.000000000 0.083679996 -0.034949999
v 0.000000000 0.084521905 -0.034782536
v 0.000000000 0.085235633 -0.034305636
v 0.004071682 0.082124367 -0.030927492
v 0.004096567 0.081996970 -0.031116517
v 0.004071682 0.085235633 -0.030927492
v 0.004164842 0.085712537 -0.031635117
v 0.004274733 0.085879996 -0.032469820
v 0.007950265 0.082838096 -0.029670794
v 0.008073696 0.082124367 -0.030131442
v 0.008123041 0.081996970 -0.030315602
v 0.007906922 0.083679996 -0.029509034
v 0.007950265 0.084521905 -0.029670794
v 0.008073696 0.085235633 -0.030131442
v 0.004423359 0.081845760 -0.033598751
v 0.004477784 0.082124367 -0.034012146
v 0.004540032 0.082838096 -0.034484964
v 0.004384623 0.085712537 -0.033304520
v 0.004561890 0.083679996 -0.034650996
v 0.004540032 0.084521905 -0.034484964
v 0.004477784 0.085235633 -0.034012146
v 0.008258423 0.085712537 -0.030820854
v 0.008476323 0.085879996 -0.031634070
v 0.008694224 0.085712537 -0.032447286
v 0.011755065 0.082838096 -0.028379237
v 0.011690979 0.083679996 -0.028224520
v 0.011755065 0.084521905 -0.028379237
v 0.011937567 0.082124367 -0.028819835
v 0.012010528 0.081996970 -0.028995980
v 0.011937567 0.085235633 -0.028819835
v 0.012210700 0.085712537 -0.029479237
v 0.012532882 0.085879996 -0.030257056
v 0.008771034 0.081845760 -0.032733947
v 0.008878952 0.082124367 -0.033136699
v 0.009002383 0.082838096 -0.033597350
v 0.009045726 0.083679996 -0.033759106
v 0.009002383 0.084521905 -0.033597350
v 0.008878952 0.085235633 -0.033136699
v 0.012968634 0.081845760 -0.031309053
v 0.012855065 0.085712537 -0.031034872
v 0.015275000 0.083679996 -0.026457077
v 0.015358732 0.082838096 -0.026602104
v 0.015597182 0.082124367 -0.027015112
v 0.015692512 0.081996970 -0.027180227
v 0.015358732 0.084521905 -0.026602104
v 0.015597182 0.085235633 -0.027015112
v 0.015954047 0.085712537 -0.027633222
v 0.016375000 0.085879996 -0.028362332
v 0.016944338 0.081845760 -0.029348452
v 0.017152818 0.082124367 -0.029709551
v 0.017391268 0.082838096 -0.030122560
v 0.016795952 0.085712537 -0.029091442
v 0.017391268 0.084521905 -0.030122560
v 0.017152818 0.085235633 -0.029709551
v 0.013128198 0.082124367 -0.031694274
v 0.013310700 0.082838096 -0.032134872
v 0.013310700 0.084521905 -0.032134872
v 0.013374786 0.083679996 -0.032289591
v 0.013128198 0.085235633 -0.031694274
v 0.030549999 0.083679996 0.000000000
v 0.030454673 0.082838096 -0.004009434
v 0.030288640 0.083679996 -0.003987575
v 0.030454673 0.084521905 -0.004009434
v 0.029670794 0.082838096 -0.007950265
v 0.030131442 0.082124367 -0.008073696
v 0.030315602 0.081996970 -0.008123041
v 0.029509034 0.083679996 -0.007906922
v 0.029670794 0.084521905 -0.007950265
v 0.030131442 0.085235633 -0.008073696
v 0.030717464 0.082838096 0.000000000
v 0.031194365 0.082124367 0.000000000
v 0.031385023 0.081996970 0.000000000
v 0.030717464 0.084521905 0.000000000
v 0.031194365 0.085235633 0.000000000
v 0.031908095 0.085712537 0.000000000
v 0.032749999 0.085879996 0.000000000
v 0.030927492 0.082124367 -0.004071682
v 0.031116517 0.081996970 -0.004096567
v 0.030927492 0.085235633 -0.004071682
v 0.031635117 0.085712537 -0.004164842
v 0.032469820 0.085879996 -0.004274733
v 0.033888675 0.081845760 0.000000000
v 0.034305636 0.082124367 0.000000000
v 0.034782536 0.082838096 0.000000000
v 0.033591904 0.085712537 0.000000000
v 0.034949999 0.083679996 0.000000000
v 0.034782536 0.084521905 0.000000000
v 0.034305636 0.085235633 0.000000000
v 0.030820854 0.085712537 -0.008258423
v 0.031634070 0.085879996 -0.008476323
v 0.032447286 0.085712537 -0.008694224
v 0.033598751 0.081845760 -0.004423359
v 0.034012146 0.082124367 -0.004477784
v 0.034484964 0.082838096 -0.004540032
v 0.033304520 0.085712537 -0.004384623
v 0.034650996 0.083679996 -0.004561890
v 0.034484964 0.084521905 -0.004540032
v 0.034012146 0.085235633 -0.004477784
v 0.028379237 0.082838096 -0.011755065
v 0.028224520 0.083679996 -0.011690979
v 0.028379237 0.084521905 -0.011755065
v 0.028819835 0.082124367 -0.011937567
v 0.028995980 0.081996970 -0.012010528
v 0.028819835 0.085235633 -0.011937567
v 0.029479237 0.085712537 -0.012210700
v 0.030257056 0.085879996 -0.012532882
v 0.026457077 0.083679996 -0.015275000
v 0.026602104 0.082838096 -0.015358732
v 0.027015112 0.082124367 -0.015597182
v 0.027180227 0.081996970 -0.015692512
v 0.026602104 0.084521905 -0.015358732
v 0.027015112 0.085235633 -0.015597182
v 0.027633222 0.085712537 -0.015954047
v 0.028362332 0.085879996 -0.016375000
v 0.029348452 0.081845760 -0.016944338
v 0.029709551 0.082124367 -0.017152818
v 0.030122560 0.082838096 -0.017391268
v 0.029091442 0.085712537 -0.016795952
v 0.030122560 0.084521905 -0.017391268
v 0.029709551 0.085235633 -0.017152818
v 0.032733947 0.081845760 -0.008771034
v 0.031309053 0.081845760 -0.012968634
v 0.031034872 0.085712537 -0.012855065
v 0.033136699 0.082124367 -0.008878952
v 0.033597350 0.082838096 -0.009002383
v 0.033759106 0.083679996 -0.009045726
v 0.033597350 0.084521905 -0.009002383
v 0.033136699 0.085235633 -0.008878952
v 0.031694274 0.082124367 -0.013128198
v 0.032134872 0.082838096 -0.013310700
v 0.032134872 0.084521905 -0.013310700
v 0.032289591 0.083679996 -0.013374786
v 0.031694274 0.085235633 -0.013128198
v 0.021720529 0.082838096 -0.021720529
v 0.021602113 0.083679996 -0.021602113
v 0.021720529 0.084521905 -0.021720529
v 0.018699609 0.082838096 -0.024369804
v 0.018989926 0.082124367 -0.024748154
v 0.019105991 0.081996970 -0.024899412
v 0.018597662 0.083679996 -0.024236945
v 0.018699609 0.084521905 -0.024369804
v 0.018989926 0.085235633 -0.024748154
v 0.019424418 0.085712537 -0.025314394
v 0.019936936 0.085879996 -0.025982322
v 0.024369804 0.082838096 -0.018699609
v 0.024748154 0.082124367 -0.018989926
v 0.024899412 0.081996970 -0.019105991
v 0.024236945 0.083679996 -0.018597662
v 0.024369804 0.084521905 -0.018699609
v 0.024748154 0.085235633 -0.018989926
v 0.025314394 0.085712537 -0.019424418
v 0.025982322 0.085879996 -0.019936936
v 0.022057747 0.082124367 -0.022057747
v 0.022192562 0.081996970 -0.022192562
v 0.023962911 0.081845760 -0.023962911
v 0.022057747 0.085235633 -0.022057747
v 0.022562431 0.085712537 -0.022562431
v 0.023157747 0.085879996 -0.023157747
v 0.023753062 0.085712537 -0.023753062
v 0.024257747 0.082124367 -0.024257747
v 0.024594966 0.082838096 -0.024594966
v 0.024713382 0.083679996 -0.024713382
v 0.024594966 0.084521905 -0.024594966
v 0.024257747 0.085235633 -0.024257747
v 0.017475000 0.083679996 -0.030267587
v 0.020630118 0.081845760 -0.026885692
v 0.020883948 0.082124367 -0.027216490
v 0.021174265 0.082838096 -0.027594840
v 0.020449456 0.085712537 -0.026650248
v 0.020883948 0.085235633 -0.027216490
v 0.021276211 0.083679996 -0.027727699
v 0.021174265 0.084521905 -0.027594840
v 0.026885692 0.081845760 -0.020630118
v 0.027216490 0.082124367 -0.020883948
v 0.027594840 0.082838096 -0.021174265
v 0.026650248 0.085712537 -0.020449456
v 0.027216490 0.085235633 -0.020883948
v 0.027727699 0.083679996 -0.021276211
v 0.027594840 0.084521905 -0.021174265
v 0.030267587 0.083679996 -0.017475000
f 2 25 5
f 1 42 2
f 1 3 32
f 6 9 194
f 9 8 192
f 5 6 196
f 2 5 199
f 1 2 200
f 1 202 3
f 5 83 6
f 6 78 9
f 9 80 8
f 8 106 188
f 3 14 135
f 14 15 148
f 15 19 155
f 19 21 169
f 21 392 416
f 14 207 15
f 15 209 19
f 3 205 14
f 19 211 21
f 21 598 392
f 5 25 83
f 3 135 32
f 1 32 42
f 2 42 25
f 9 78 80
f 6 83 78
f 8 80 106
f 188 106 212
f 14 148 135
f 15 155 148
f 19 169 155
f 21 416 169
f 8 188 189
f 8 189 192
f 9 192 194
f 6 194 196
f 5 196 199
f 2 199 200
f 1 200 202
f 3 202 205
f 188 212 189
f 189 233 192
f 192 256 194
f 194 257 196
f 196 274 199
f 199 288 200
f 200 307 202
f 202 327 205
f 14 205 207
f 15 207 209
f 19 209 211
f 21 211 598
f 205 339 207
f 207 360 209
f 209 362 211
f 211 377 598
f 189 212 233
f 192 233 256
f 194 256 257
f 196 257 274
f 199 274 288
f 200 288 307
f 202 307 327
f 205 327 339
f 207 339 360
f 209 360 362
f 211 362 377
f 598 377 633
f 392 393 441
f 393 396 460
f 396 398 461
f 398 400 479
f 392 599 393
f 393 601 396
f 396 605 398
f 398 606 400
f 400 403 491
f 403 405 511
f 405 406 530
f 400 619 403
f 403 621 405
f 405 620 406
f 406 617 409
f 409 616 411
f 411 612 413
f 413 614 415
f 406 409 544
f 409 411 564
f 411 413 566
f 413 415 584
f 415 613 718
f 392 441 416
f 393 460 441
f 396 461 460
f 398 479 461
f 400 491 479
f 403 511 491
f 405 530 511
f 406 544 530
f 409 564 544
f 411 566 564
f 413 584 566
f 415 718 584
f 392 598 599
f 393 599 601
f 400 606 619
f 396 601 605
f 398 605 606
f 598 633 599
f 599 651 601
f 601 669 605
f 605 675 606
f 606 685 619
f 403 619 621
f 405 621 620
f 406 620 617
f 409 617 616
f 413 612 614
f 411 616 612
f 415 614 613
f 613 614 728
f 614 612 757
f 612 616 758
f 616 617 751
f 619 802 621
f 620 621 791
f 617 620 809
f 599 633 651
f 601 651 669
f 605 669 675
f 606 675 685
f 613 728 718
f 614 757 728
f 616 751 758
f 612 758 757
f 620 791 809
f 621 802 791
f 619 685 802
f 617 809 751
f 13 50 4
f 17 4 43
f 7 195 10
f 10 193 11
f 13 198 12
f 7 12 197
f 13 4 201
f 17 203 4
f 7 96 12
f 7 10 119
f 10 11 114
f 11 190 219
f 13 12 88
f 16 156 20
f 17 58 18
f 16 18 140
f 20 174 22
f 22 180 394
f 17 18 204
f 16 206 18
f 16 20 208
f 20 22 210
f 22 394 596
f 4 50 43
f 17 43 58
f 12 96 88
f 7 119 96
f 10 114 119
f 11 219 114
f 13 88 50
f 16 140 156
f 20 156 174
f 18 58 140
f 22 174 180
f 394 180 423
f 11 191 190
f 11 193 191
f 10 195 193
f 7 197 195
f 12 198 197
f 13 201 198
f 4 203 201
f 190 191 227
f 191 193 245
f 193 195 264
f 195 197 279
f 197 198 294
f 198 201 308
f 201 203 320
f 17 204 203
f 18 206 204
f 16 208 206
f 20 210 208
f 22 596 210
f 203 204 334
f 204 206 356
f 206 208 370
f 208 210 387
f 210 596 628
f 190 227 219
f 191 245 227
f 193 264 245
f 195 279 264
f 197 294 279
f 198 308 294
f 201 320 308
f 203 334 320
f 204 356 334
f 206 370 356
f 208 387 370
f 210 628 387
f 394 423 395
f 395 431 397
f 397 449 399
f 399 463 401
f 401 483 402
f 394 395 597
f 395 397 600
f 397 399 604
f 399 401 602
f 401 402 603
f 402 498 404
f 404 510 407
f 402 404 618
f 404 407 607
f 407 408 608
f 408 410 615
f 410 412 611
f 412 414 609
f 407 524 408
f 408 538 410
f 410 555 412
f 412 574 414
f 414 591 610
f 395 423 431
f 397 431 449
f 399 449 463
f 401 463 483
f 402 483 498
f 404 498 510
f 407 510 524
f 408 524 538
f 410 538 555
f 412 555 574
f 414 574 591
f 610 591 708
f 394 597 596
f 395 600 597
f 397 604 600
f 399 602 604
f 401 603 602
f 596 597 641
f 597 600 647
f 602 680 604
f 602 603 775
f 600 604 665
f 402 618 603
f 404 607 618
f 408 615 608
f 407 608 607
f 412 609 611
f 410 611 615
f 414 610 609
f 608 746 607
f 610 708 609
f 609 714 611
f 611 702 615
f 608 615 739
f 618 790 603
f 618 607 783
f 596 641 628
f 597 647 641
f 602 775 680
f 600 665 647
f 604 680 665
f 607 746 783
f 609 708 714
f 611 714 702
f 615 702 739
f 608 739 746
f 603 790 775
f 618 783 790
f 24 37 23
f 23 39 26
f 26 40 27
f 27 41 28
f 23 26 81
f 26 27 84
f 23 81 82
f 82 83 25
f 81 26 84
f 27 85 84
f 28 86 85
f 29 87 86
f 24 23 82
f 27 28 85
f 24 82 25
f 28 29 86
f 49 91 87
f 29 49 87
f 49 53 91
f 31 30 38
f 30 33 37
f 33 34 39
f 34 35 40
f 30 136 33
f 33 137 34
f 31 133 30
f 34 138 35
f 30 133 136
f 31 134 133
f 31 135 134
f 33 136 137
f 34 137 138
f 35 138 139
f 31 32 135
f 35 139 36
f 36 143 57
f 36 139 143
f 57 144 61
f 23 37 39
f 24 38 37
f 24 42 38
f 26 39 40
f 27 40 41
f 28 41 45
f 29 45 46
f 38 30 37
f 38 42 32
f 31 38 32
f 37 33 39
f 34 40 39
f 40 35 41
f 35 36 41
f 36 45 41
f 45 57 46
f 47 49 46
f 24 25 42
f 28 45 29
f 29 46 49
f 47 53 49
f 48 56 53
f 51 50 88
f 51 90 52
f 56 92 53
f 55 94 56
f 52 95 54
f 54 93 55
f 44 43 50
f 44 50 51
f 44 51 52
f 52 54 65
f 44 52 65
f 48 53 47
f 55 56 67
f 67 56 48
f 65 54 66
f 66 55 67
f 54 55 66
f 36 57 45
f 46 57 61
f 64 47 61
f 44 59 43
f 44 65 59
f 59 58 43
f 59 65 60
f 60 65 66
f 47 46 61
f 48 47 64
f 63 67 48
f 62 67 63
f 63 48 64
f 62 66 67
f 59 141 58
f 59 60 141
f 60 62 142
f 64 61 146
f 63 64 145
f 62 63 147
f 60 66 62
f 69 81 84
f 70 84 85
f 71 85 86
f 68 81 69
f 68 78 83
f 69 84 70
f 70 85 71
f 71 86 72
f 72 87 79
f 74 69 73
f 73 70 75
f 75 71 76
f 76 72 77
f 68 69 74
f 69 70 73
f 68 74 78
f 70 71 75
f 71 72 76
f 72 79 77
f 79 98 111
f 74 80 78
f 77 79 111
f 98 112 111
f 99 113 112
f 68 82 81
f 68 83 82
f 72 86 87
f 79 87 91
f 79 91 98
f 92 98 91
f 92 99 98
f 94 100 99
f 51 88 89
f 53 92 91
f 56 94 92
f 89 88 96
f 89 101 90
f 89 96 97
f 94 99 92
f 93 100 94
f 90 102 95
f 95 103 93
f 99 112 98
f 97 119 120
f 97 120 121
f 97 96 119
f 97 121 101
f 101 121 122
f 100 113 99
f 100 124 113
f 101 122 102
f 102 123 103
f 103 124 100
f 102 122 123
f 103 123 124
f 89 97 101
f 90 101 102
f 95 102 103
f 93 103 100
f 73 75 104
f 74 73 105
f 74 105 80
f 75 76 107
f 76 77 108
f 77 111 109
f 105 73 104
f 105 106 80
f 104 75 107
f 76 108 107
f 108 77 109
f 109 111 110
f 110 111 112
f 113 116 112
f 124 117 113
f 115 120 114
f 110 112 116
f 113 117 116
f 118 117 124
f 104 107 213
f 105 104 214
f 105 214 106
f 107 108 215
f 108 109 216
f 109 110 217
f 110 116 218
f 104 213 214
f 214 212 106
f 107 215 213
f 108 216 215
f 109 217 216
f 110 218 217
f 116 222 218
f 115 114 219
f 115 221 125
f 117 222 116
f 118 223 117
f 127 225 118
f 115 219 220
f 115 220 221
f 117 223 222
f 118 225 223
f 127 224 225
f 120 119 114
f 120 125 121
f 121 126 122
f 122 127 123
f 123 118 124
f 115 125 120
f 121 125 126
f 122 126 127
f 123 127 118
f 125 241 126
f 126 224 127
f 125 221 241
f 126 241 224
f 51 89 90
f 52 90 95
f 54 95 93
f 55 93 94
f 134 129 133
f 133 130 136
f 136 131 137
f 128 129 134
f 129 130 133
f 128 134 148
f 130 131 136
f 131 132 137
f 132 149 138
f 134 135 148
f 137 132 138
f 138 149 139
f 141 140 58
f 57 143 144
f 61 144 146
f 139 158 143
f 144 143 159
f 139 149 158
f 143 158 159
f 160 144 159
f 141 157 140
f 141 142 157
f 157 156 140
f 142 147 161
f 145 146 163
f 146 144 160
f 147 145 162
f 128 150 129
f 128 148 155
f 129 152 130
f 130 153 131
f 131 154 132
f 132 164 149
f 149 165 158
f 129 150 152
f 128 151 150
f 130 152 153
f 131 153 154
f 128 155 151
f 132 154 164
f 149 164 165
f 158 165 166
f 159 158 166
f 157 142 161
f 161 147 162
f 162 145 163
f 163 146 160
f 157 175 156
f 157 161 175
f 161 162 176
f 175 174 156
f 175 161 176
f 162 163 177
f 163 160 178
f 160 159 179
f 159 166 179
f 178 160 179
f 176 162 177
f 163 178 177
f 60 142 141
f 142 62 147
f 63 145 147
f 64 146 145
f 151 167 150
f 151 155 169
f 150 170 152
f 152 171 153
f 153 172 154
f 154 173 164
f 164 182 165
f 166 165 183
f 179 166 184
f 150 167 170
f 151 168 167
f 151 169 168
f 152 170 171
f 153 171 172
f 154 172 173
f 181 180 174
f 164 173 182
f 165 182 183
f 184 166 183
f 175 181 174
f 175 176 181
f 176 177 185
f 177 178 186
f 178 179 187
f 181 176 185
f 185 177 186
f 186 178 187
f 187 179 184
f 168 417 167
f 168 169 416
f 167 419 170
f 170 420 171
f 171 421 172
f 172 422 173
f 173 426 182
f 181 424 180
f 181 185 424
f 183 182 427
f 184 183 429
f 187 184 428
f 167 417 419
f 168 418 417
f 168 416 418
f 170 419 420
f 171 420 421
f 172 421 422
f 173 422 426
f 424 423 180
f 185 425 424
f 182 426 427
f 183 427 429
f 184 429 428
f 185 186 425
f 186 187 435
f 186 435 425
f 187 428 435
f 213 215 231
f 214 213 232
f 214 232 212
f 215 216 234
f 216 217 235
f 217 218 236
f 218 222 237
f 232 213 231
f 232 233 212
f 231 215 234
f 234 216 235
f 235 217 236
f 236 218 237
f 222 228 237
f 220 219 227
f 220 242 221
f 223 228 222
f 225 229 223
f 224 230 225
f 220 227 226
f 220 226 242
f 223 229 228
f 225 230 229
f 224 244 230
f 232 231 252
f 231 234 251
f 232 252 233
f 234 235 253
f 235 236 254
f 236 237 255
f 252 231 251
f 252 256 233
f 251 234 253
f 235 254 253
f 254 236 255
f 237 238 255
f 226 227 245
f 228 238 237
f 229 239 228
f 230 240 229
f 228 239 238
f 229 240 239
f 230 250 240
f 221 243 241
f 241 244 224
f 221 242 243
f 241 243 244
f 226 247 242
f 242 248 243
f 243 249 244
f 244 250 230
f 226 245 246
f 226 246 247
f 242 247 248
f 243 248 249
f 244 249 250
f 252 251 259
f 251 253 260
f 253 254 261
f 254 255 262
f 252 259 256
f 238 263 255
f 238 239 258
f 240 266 239
f 259 251 260
f 259 257 256
f 260 253 261
f 261 254 262
f 262 255 263
f 238 258 263
f 239 266 258
f 259 260 273
f 260 261 272
f 259 273 257
f 261 262 286
f 262 263 275
f 263 258 276
f 273 260 272
f 272 261 286
f 262 275 286
f 246 245 264
f 246 269 247
f 246 264 265
f 246 265 269
f 247 269 270
f 250 268 240
f 249 267 250
f 247 270 248
f 248 271 249
f 248 270 271
f 249 271 267
f 250 267 268
f 240 268 266
f 265 281 269
f 269 278 270
f 270 284 271
f 271 285 267
f 258 266 277
f 268 282 266
f 267 283 268
f 266 282 277
f 268 283 282
f 273 274 257
f 275 263 276
f 276 258 277
f 265 264 279
f 265 279 280
f 265 280 281
f 269 281 278
f 271 284 285
f 267 285 283
f 270 278 284
f 280 279 294
f 283 301 282
f 285 297 283
f 280 296 281
f 281 298 278
f 278 299 284
f 284 300 285
f 273 272 289
f 273 289 274
f 272 286 287
f 276 277 293
f 275 290 286
f 275 276 291
f 287 286 290
f 275 291 290
f 289 288 274
f 277 282 292
f 277 292 293
f 283 297 301
f 282 301 292
f 272 287 289
f 276 293 291
f 289 287 303
f 287 290 302
f 290 291 304
f 291 293 305
f 280 294 295
f 280 295 296
f 281 296 298
f 285 300 297
f 284 299 300
f 278 298 299
f 292 301 310
f 300 312 297
f 297 311 301
f 296 315 298
f 295 294 308
f 295 314 296
f 295 308 309
f 296 314 315
f 295 309 314
f 298 316 299
f 299 313 300
f 297 312 311
f 300 313 312
f 298 315 316
f 299 316 313
f 289 303 288
f 303 287 302
f 303 307 288
f 293 292 306
f 302 290 304
f 291 305 304
f 305 293 306
f 292 310 306
f 301 311 310
f 312 317 311
f 302 304 326
f 303 302 325
f 303 325 307
f 306 310 328
f 304 305 329
f 305 306 330
f 310 311 331
f 309 318 314
f 309 308 320
f 314 318 321
f 309 320 319
f 309 319 318
f 316 323 313
f 313 324 312
f 314 321 315
f 315 322 316
f 316 322 323
f 325 327 307
f 310 331 328
f 311 317 331
f 312 324 317
f 313 323 324
f 315 321 322
f 319 320 334
f 319 332 318
f 318 346 321
f 321 335 322
f 323 337 324
f 322 336 323
f 325 302 326
f 326 304 329
f 305 330 329
f 330 306 328
f 325 326 340
f 330 328 344
f 326 329 341
f 329 330 343
f 325 340 327
f 317 324 338
f 317 342 331
f 328 331 345
f 317 338 342
f 326 341 340
f 340 339 327
f 341 329 343
f 330 344 343
f 331 342 345
f 328 345 344
f 319 333 332
f 318 332 346
f 321 346 335
f 322 335 336
f 319 334 333
f 324 337 338
f 323 336 337
f 340 341 347
f 340 347 339
f 338 361 342
f 345 342 351
f 333 334 356
f 333 352 332
f 333 356 355
f 335 359 336
f 336 357 337
f 332 353 346
f 346 354 335
f 337 358 338
f 336 359 357
f 337 357 358
f 338 358 361
f 341 343 348
f 343 344 350
f 344 345 349
f 347 360 339
f 347 341 348
f 348 343 350
f 350 344 349
f 351 342 361
f 349 345 351
f 332 352 353
f 333 355 352
f 346 353 354
f 335 354 359
f 357 375 358
f 355 356 370
f 355 368 352
f 352 368 371
f 355 370 369
f 355 369 368
f 352 371 353
f 353 372 354
f 354 373 359
f 359 374 357
f 353 371 372
f 354 372 373
f 359 373 374
f 347 363 360
f 347 348 363
f 348 350 364
f 358 376 361
f 350 349 365
f 351 361 367
f 349 351 366
f 363 362 360
f 358 375 376
f 367 361 376
f 357 374 375
f 363 348 364
f 364 350 365
f 365 349 366
f 366 351 367
f 369 370 387
f 369 384 368
f 368 385 371
f 371 386 372
f 372 389 373
f 369 388 384
f 368 384 385
f 371 385 386
f 372 386 389
f 373 390 374
f 374 391 375
f 376 375 380
f 363 378 362
f 363 364 378
f 364 365 379
f 367 376 383
f 366 367 382
f 365 366 381
f 369 387 388
f 374 390 391
f 375 391 380
f 373 389 390
f 378 377 362
f 378 364 379
f 383 376 380
f 379 365 381
f 366 382 381
f 382 367 383
f 384 622 385
f 385 629 386
f 384 626 622
f 385 622 629
f 388 626 384
f 388 387 628
f 389 631 390
f 386 630 389
f 390 632 391
f 378 379 634
f 378 634 377
f 379 381 635
f 380 391 636
f 381 382 637
f 383 380 639
f 382 383 638
f 388 627 626
f 388 628 627
f 386 629 630
f 389 630 631
f 390 631 632
f 634 633 377
f 379 635 634
f 391 632 636
f 380 636 639
f 381 637 635
f 382 638 637
f 383 639 638
f 418 439 417
f 418 416 441
f 417 442 419
f 419 443 420
f 420 444 421
f 421 445 422
f 422 432 426
f 424 430 423
f 424 425 430
f 427 426 433
f 429 427 434
f 428 429 438
f 417 439 442
f 418 441 440
f 418 440 439
f 419 442 443
f 420 443 444
f 421 444 445
f 422 445 432
f 430 431 423
f 430 425 436
f 426 432 433
f 438 429 434
f 434 427 433
f 425 435 436
f 435 428 437
f 436 435 437
f 437 428 438
f 440 455 439
f 440 441 460
f 439 457 442
f 442 458 443
f 443 459 444
f 444 446 445
f 430 450 431
f 434 433 454
f 432 445 447
f 433 432 448
f 439 455 457
f 440 456 455
f 440 460 456
f 442 457 458
f 443 458 459
f 444 459 446
f 445 446 447
f 432 447 448
f 454 433 448
f 430 436 450
f 436 437 451
f 437 438 452
f 438 434 453
f 450 449 431
f 450 436 451
f 451 437 452
f 452 438 453
f 453 434 454
f 456 472 455
f 455 473 457
f 457 474 458
f 458 475 459
f 456 460 461
f 448 447 467
f 446 459 462
f 446 466 447
f 456 471 472
f 455 472 473
f 456 461 471
f 457 473 474
f 458 474 475
f 459 475 462
f 446 462 466
f 450 464 449
f 450 451 464
f 451 452 468
f 464 463 449
f 464 451 468
f 454 448 465
f 452 453 469
f 453 454 470
f 448 467 465
f 468 452 469
f 453 470 469
f 470 454 465
f 447 466 467
f 464 468 484
f 468 469 485
f 469 470 476
f 470 465 488
f 471 477 472
f 471 461 479
f 472 490 473
f 473 480 474
f 474 481 475
f 475 482 462
f 472 477 490
f 473 490 480
f 474 480 481
f 462 486 466
f 467 466 487
f 465 467 489
f 466 486 487
f 464 484 463
f 484 483 463
f 484 468 485
f 485 469 476
f 476 470 488
f 489 467 487
f 488 465 489
f 471 479 478
f 471 478 477
f 475 481 482
f 462 482 486
f 484 499 483
f 489 487 504
f 487 486 501
f 484 485 499
f 485 476 500
f 476 488 502
f 488 489 503
f 478 479 491
f 478 492 477
f 480 497 481
f 481 494 482
f 477 495 490
f 480 490 496
f 478 491 493
f 482 505 486
f 481 497 494
f 482 494 505
f 486 505 501
f 477 492 495
f 490 495 496
f 478 493 492
f 480 496 497
f 493 517 492
f 492 518 495
f 495 519 496
f 496 520 497
f 499 498 483
f 485 500 499
f 489 504 503
f 487 501 504
f 500 476 502
f 488 503 502
f 502 503 507
f 493 491 511
f 504 501 512
f 501 505 513
f 494 514 505
f 497 515 494
f 499 500 509
f 499 509 498
f 500 502 506
f 509 510 498
f 509 500 506
f 503 504 508
f 506 502 507
f 507 503 508
f 512 501 513
f 508 504 512
f 493 511 516
f 493 516 517
f 492 517 518
f 494 515 514
f 495 518 519
f 496 519 520
f 497 520 515
f 505 514 513
f 516 511 530
f 516 531 517
f 516 530 529
f 515 521 514
f 520 533 515
f 518 535 519
f 517 534 518
f 519 532 520
f 520 532 533
f 509 506 523
f 506 507 522
f 509 523 510
f 523 524 510
f 523 506 522
f 508 512 526
f 507 508 525
f 512 513 527
f 513 514 528
f 525 508 526
f 526 512 527
f 522 507 525
f 514 521 528
f 527 513 528
f 515 533 521
f 522 525 536
f 523 522 537
f 523 537 524
f 525 526 543
f 526 527 539
f 527 528 540
f 516 529 531
f 517 531 534
f 518 534 535
f 519 535 532
f 529 546 531
f 535 550 532
f 529 530 544
f 521 533 542
f 521 541 528
f 532 547 533
f 533 547 542
f 531 548 534
f 534 549 535
f 531 546 548
f 529 544 545
f 529 545 546
f 534 548 549
f 535 549 550
f 532 550 547
f 522 536 537
f 536 525 543
f 526 539 543
f 527 540 539
f 537 538 524
f 528 541 540
f 521 542 541
f 536 543 551
f 537 536 554
f 537 554 538
f 554 555 538
f 543 539 552
f 539 540 553
f 540 541 557
f 545 544 564
f 550 565 547
f 549 563 550
f 541 542 556
f 542 547 558
f 557 541 556
f 542 558 556
f 547 565 558
f 554 536 551
f 551 543 552
f 552 539 553
f 553 540 557
f 556 558 581
f 551 552 572
f 554 551 573
f 554 573 555
f 573 551 572
f 573 574 555
f 552 553 575
f 553 557 576
f 557 556 577
f 572 552 575
f 553 576 575
f 576 557 577
f 556 581 577
f 545 560 546
f 546 562 548
f 548 561 549
f 545 564 559
f 545 559 560
f 546 560 562
f 548 562 561
f 550 563 565
f 549 561 563
f 559 564 566
f 559 568 560
f 558 565 582
f 560 569 562
f 562 570 561
f 563 583 565
f 561 571 563
f 559 566 567
f 558 582 581
f 565 583 582
f 563 571 583
f 560 568 569
f 559 567 568
f 562 569 570
f 561 570 571
f 572 575 578
f 573 572 592
f 573 592 574
f 575 576 579
f 576 577 580
f 592 572 578
f 578 575 579
f 579 576 580
f 580 577 593
f 578 579 706
f 579 580 696
f 579 696 706
f 580 709 696
f 577 581 593
f 581 582 594
f 583 595 582
f 592 591 574
f 593 581 594
f 582 595 594
f 583 587 595
f 567 566 584
f 567 586 568
f 571 587 583
f 570 590 571
f 568 588 569
f 569 589 570
f 567 584 585
f 568 586 588
f 567 585 586
f 571 590 587
f 569 588 589
f 570 589 590
f 592 707 591
f 592 578 707
f 580 593 709
f 593 594 710
f 594 595 711
f 578 706 707
f 707 708 591
f 593 710 709
f 594 711 710
f 595 712 711
f 585 584 718
f 585 720 586
f 587 712 595
f 590 721 587
f 586 722 588
f 588 723 589
f 589 724 590
f 585 718 719
f 585 719 720
f 586 720 722
f 587 721 712
f 588 722 723
f 590 724 721
f 589 723 724
f 626 624 622
f 622 625 629
f 623 624 626
f 622 624 625
f 627 623 626
f 627 628 641
f 629 642 630
f 630 643 631
f 631 644 632
f 634 652 633
f 634 635 652
f 635 637 653
f 632 654 636
f 637 638 655
f 639 636 657
f 638 639 656
f 627 641 640
f 627 640 623
f 625 642 629
f 630 642 643
f 631 643 644
f 652 651 633
f 652 635 653
f 632 644 654
f 657 636 654
f 653 637 655
f 655 638 656
f 656 639 657
f 640 645 623
f 623 648 624
f 624 649 625
f 625 650 642
f 623 645 648
f 640 646 645
f 640 647 646
f 624 648 649
f 625 649 650
f 640 641 647
f 642 658 643
f 643 659 644
f 644 660 654
f 652 670 651
f 652 653 670
f 653 655 671
f 657 654 674
f 655 656 672
f 656 657 673
f 642 650 658
f 643 658 659
f 644 659 660
f 670 669 651
f 670 653 671
f 654 660 674
f 673 657 674
f 671 655 672
f 656 673 672
f 679 773 678
f 678 776 677
f 677 777 681
f 681 778 682
f 646 661 645
f 646 647 665
f 645 661 662
f 646 664 661
f 646 665 664
f 645 662 648
f 648 663 649
f 649 666 650
f 650 667 658
f 648 662 663
f 649 663 666
f 650 666 667
f 664 678 661
f 661 677 662
f 662 681 663
f 663 682 666
f 658 667 668
f 670 691 669
f 658 668 659
f 660 659 676
f 660 695 674
f 670 671 691
f 671 672 692
f 672 673 694
f 673 674 693
f 691 675 669
f 691 671 692
f 659 668 676
f 692 672 694
f 694 673 693
f 660 676 695
f 693 674 695
f 661 678 677
f 664 665 680
f 664 679 678
f 664 680 679
f 662 677 681
f 663 681 682
f 666 682 683
f 666 683 667
f 667 684 668
f 668 688 676
f 667 683 684
f 668 684 688
f 679 680 775
f 682 779 683
f 683 780 684
f 686 685 675
f 690 676 688
f 689 695 690
f 686 675 691
f 686 691 692
f 687 692 694
f 694 693 801
f 690 695 676
f 689 693 695
f 686 692 687
f 687 694 801
f 689 801 693
f 745 744 782
f 744 743 781
f 743 747 784
f 747 748 785
f 697 706 696
f 696 709 698
f 697 696 698
f 698 709 699
f 701 713 697
f 697 698 700
f 698 699 703
f 699 715 704
f 701 702 714
f 701 697 700
f 700 698 703
f 703 699 704
f 704 715 705
f 707 706 713
f 707 713 708
f 699 709 710
f 710 711 715
f 711 712 716
f 713 706 697
f 713 714 708
f 699 710 715
f 715 711 716
f 712 717 716
f 719 718 728
f 719 730 720
f 712 721 717
f 724 731 721
f 720 732 722
f 722 733 723
f 723 734 724
f 719 728 729
f 719 729 730
f 720 730 732
f 717 721 731
f 722 732 733
f 724 734 731
f 723 733 734
f 701 714 713
f 705 715 716
f 716 717 725
f 717 731 726
f 705 716 725
f 717 726 725
f 727 726 731
f 729 728 757
f 729 761 730
f 734 727 731
f 730 762 732
f 732 763 733
f 733 764 734
f 729 757 760
f 729 760 761
f 730 761 762
f 734 764 727
f 733 763 764
f 732 762 763
f 735 736 744
f 738 735 745
f 736 737 743
f 737 740 747
f 700 703 735
f 738 739 702
f 738 700 735
f 701 738 702
f 701 700 738
f 703 704 736
f 704 705 737
f 735 703 736
f 704 737 736
f 737 705 740
f 705 725 740
f 725 741 740
f 726 742 741
f 738 745 739
f 745 746 739
f 745 735 744
f 744 736 743
f 743 737 747
f 747 740 748
f 748 741 749
f 745 782 746
f 748 749 786
f 749 750 787
f 740 741 748
f 741 742 749
f 742 750 749
f 742 759 750
f 752 765 751
f 752 753 765
f 750 759 754
f 756 754 769
f 760 757 758
f 725 726 741
f 727 742 726
f 727 764 759
f 760 758 765
f 760 765 766
f 761 766 768
f 727 759 742
f 762 768 767
f 764 769 759
f 763 767 769
f 760 766 761
f 761 768 762
f 762 767 763
f 763 769 764
f 765 758 751
f 765 753 766
f 766 816 768
f 768 755 767
f 769 754 759
f 767 756 769
f 753 816 766
f 768 816 755
f 755 756 767
f 773 771 776
f 678 773 776
f 679 774 773
f 679 775 774
f 677 776 777
f 681 777 778
f 682 778 779
f 770 771 773
f 774 775 790
f 774 770 773
f 774 789 770
f 774 790 789
f 771 772 776
f 776 772 777
f 777 792 778
f 772 792 777
f 778 792 793
f 779 793 794
f 778 793 779
f 779 794 780
f 780 795 805
f 771 784 785
f 789 781 770
f 770 781 784
f 782 781 789
f 782 789 783
f 789 790 783
f 770 784 771
f 771 785 772
f 772 786 792
f 772 785 786
f 792 787 793
f 782 783 746
f 744 781 782
f 781 743 784
f 747 785 784
f 748 786 785
f 749 787 786
f 810 809 791
f 786 787 792
f 787 788 793
f 788 812 794
f 795 812 813
f 788 794 793
f 796 802 803
f 796 791 802
f 796 804 797
f 780 794 795
f 800 805 795
f 800 806 805
f 798 808 799
f 797 807 798
f 799 806 800
f 796 810 791
f 796 797 810
f 797 798 811
f 795 794 812
f 800 795 813
f 798 799 814
f 799 800 815
f 803 802 685
f 683 779 780
f 684 805 688
f 684 780 805
f 688 805 806
f 686 803 685
f 686 687 803
f 687 801 804
f 690 688 806
f 689 807 801
f 689 690 808
f 687 804 803
f 690 806 808
f 804 801 807
f 689 808 807
f 796 803 804
f 797 804 807
f 798 807 808
f 799 808 806
f 752 809 810
f 750 788 787
f 754 812 788
f 750 754 788
f 756 813 812
f 752 810 811
f 755 815 813
f 752 751 809
f 752 811 753
f 756 812 754
f 755 813 756
f 753 814 816
f 755 816 815
f 753 811 814
f 814 815 816
f 810 797 811
f 811 798 814
f 799 815 814
f 815 800 813
