# gripper.obj  (474 v, 936 f)  units: metres
v -0.057999998 0.029999999 -0.012000000
v -0.054000001 0.017999999 -0.009600000
v -0.048000000 0.017999999 -0.009600000
v -0.046999998 0.026439339 -0.010560661
v -0.048000000 0.026439339 -0.009560660
v -0.046999998 0.026000001 -0.009500000
v -0.048000000 0.029999999 -0.012000000
v -0.048000000 0.030500000 -0.012000000
v -0.046999998 0.027500000 -0.011000000
v -0.048000000 0.027500000 -0.010585787
v -0.048000000 0.027439339 -0.010560661
v -0.048000000 0.030470537 -0.010585787
v -0.041499998 0.026439339 -0.010560661
v -0.041499998 0.026000001 -0.009500000
v -0.040439341 0.026439339 -0.009500000
v -0.041499998 0.027500000 -0.011000000
v -0.040439341 0.027500000 -0.010560661
v -0.039999999 0.027500000 -0.009500000
v -0.068999998 0.086000003 -0.017999999
v -0.045000002 0.086000003 -0.017999999
v -0.057999998 0.056499999 -0.003000000
v -0.057999998 0.086000003 -0.012000000
v -0.064000003 0.086000003 -0.003000000
v -0.057999998 0.086000003 -0.003000000
v -0.048000000 0.086000003 -0.012000000
v -0.046999998 0.078500003 -0.011000000
v -0.048000000 0.078560658 -0.010560661
v -0.046999998 0.079560660 -0.010560661
v -0.048000000 0.079560660 -0.009560660
v -0.046999998 0.079999998 -0.009500000
v -0.041499998 0.078500003 -0.011000000
v -0.041499998 0.079560660 -0.010560661
v -0.040439341 0.078500003 -0.010560661
v -0.041499998 0.079999998 -0.009500000
v -0.039999999 0.078500003 -0.009500000
v -0.040439341 0.079560660 -0.009500000
v -0.057999998 0.029999999 0.012000000
v -0.057911504 0.030500000 0.012000000
v -0.054000001 0.017999999 0.009600000
v -0.048000000 0.017999999 0.009600000
v -0.048000000 0.026439339 0.009560660
v -0.046999998 0.026000001 0.009500000
v -0.046999998 0.026439339 0.010560661
v -0.048000000 0.027439339 0.010560661
v -0.046999998 0.027500000 0.011000000
v -0.048000000 0.030029463 0.010585787
v -0.048000000 0.029999999 0.012000000
v -0.041499998 0.026000001 0.009500000
v -0.040439341 0.026439339 0.009500000
v -0.041499998 0.026439339 0.010560661
v -0.039999999 0.027500000 0.009500000
v -0.040439341 0.027500000 0.010560661
v -0.041499998 0.027500000 0.011000000
v -0.057999998 0.056499999 0.003000000
v -0.064000003 0.086000003 0.003000000
v -0.057999998 0.086000003 0.003000000
v -0.057999998 0.086000003 0.012000000
v -0.048000000 0.079560660 0.009560660
v -0.046999998 0.079999998 0.009500000
v -0.048000000 0.078560658 0.010560661
v -0.046999998 0.079560660 0.010560661
v -0.046999998 0.078500003 0.011000000
v -0.048000000 0.086000003 0.012000000
v -0.041499998 0.079999998 0.009500000
v -0.039999999 0.078500003 0.009500000
v -0.040439341 0.079560660 0.009500000
v -0.041499998 0.079560660 0.010560661
v -0.040439341 0.078500003 0.010560661
v -0.041499998 0.078500003 0.011000000
v -0.068999998 0.086000003 0.017999999
v -0.045000002 0.086000003 0.017999999
v -0.068999998 0.097000003 -0.017999999
v -0.068999998 0.103500001 -0.017999999
v -0.073732048 0.106267951 -0.023732051
v -0.071999997 0.106500000 -0.024598077
v -0.073500000 0.108000003 -0.024598077
v -0.071999997 0.108000003 -0.025000000
v -0.073500000 0.105401926 -0.022000000
v -0.074598074 0.106500000 -0.022000000
v -0.071999997 0.105401926 -0.023499999
v -0.071999997 0.104999997 -0.022000000
v -0.074598074 0.108000003 -0.023499999
v -0.075000003 0.108000003 -0.022000000
v -0.045000002 0.097000003 -0.017999999
v -0.045000002 0.097499996 -0.017999999
v -0.045000002 0.103500001 -0.017999999
v -0.068999998 0.097000003 -0.008500000
v -0.070000000 0.097999997 -0.008000000
v -0.068999998 0.097499996 -0.008500000
v -0.068999998 0.103500001 -0.008500000
v -0.070000000 0.104999997 -0.008000000
v -0.045000002 0.097000003 -0.008500000
v -0.045000002 0.097499996 -0.008500000
v -0.045000002 0.103500001 -0.008500000
v -0.073500000 0.142000005 -0.024598077
v -0.071999997 0.142000005 -0.025000000
v -0.073732048 0.143732056 -0.023732051
v -0.071999997 0.143500000 -0.024598077
v -0.074598074 0.142000005 -0.023499999
v -0.075000003 0.142000005 -0.022000000
v -0.074598074 0.143500000 -0.022000000
v -0.073500000 0.144598082 -0.022000000
v -0.071999997 0.144598082 -0.023499999
v -0.071999997 0.144999996 -0.022000000
v -0.020193748 0.143999994 -0.024098076
v -0.019175986 0.155000001 -0.024990629
v -0.022273863 0.144926623 -0.022273863
v -0.022514036 0.144999996 -0.022000000
v -0.020875722 0.144598082 -0.023499999
v -0.024990629 0.144999996 -0.019175986
v -0.022273863 0.155000001 -0.022273863
v -0.024990629 0.155000001 -0.019175986
v -0.012054528 0.143999994 -0.029102204
v -0.015750000 0.143999994 -0.027279800
v -0.012054528 0.155000001 -0.029102204
v -0.015750000 0.155000001 -0.027279800
v -0.008152800 0.143999994 -0.030426664
v -0.004111575 0.143999994 -0.031230513
v -0.008152800 0.155000001 -0.030426664
v -0.004111575 0.155000001 -0.031230513
v -0.029102204 0.144999996 -0.012054528
v -0.030426664 0.144999996 -0.008152800
v -0.029102204 0.155000001 -0.012054528
v -0.030426664 0.155000001 -0.008152800
v -0.027279800 0.144999996 -0.015750000
v -0.027279800 0.155000001 -0.015750000
v -0.031230513 0.144999996 -0.004111575
v -0.031230513 0.155000001 -0.004111575
v -0.003235238 0.151999995 -0.012074073
v -0.003235238 0.155000001 -0.012074073
v -0.001631577 0.151999995 -0.012393061
v -0.001631577 0.155000001 -0.012393061
v -0.007609518 0.151999995 -0.009916916
v -0.007609518 0.155000001 -0.009916916
v -0.004783543 0.151999995 -0.011548494
v -0.006250000 0.151999995 -0.010825317
v -0.004783543 0.155000001 -0.011548494
v -0.006250000 0.155000001 -0.010825317
v -0.008838835 0.151999995 -0.008838835
v -0.008838835 0.155000001 -0.008838835
v -0.009916916 0.151999995 -0.007609518
v -0.010825317 0.151999995 -0.006250000
v -0.009916916 0.155000001 -0.007609518
v -0.010825317 0.155000001 -0.006250000
v -0.011548494 0.151999995 -0.004783543
v -0.011548494 0.155000001 -0.004783543
v -0.012074073 0.151999995 -0.003235238
v -0.012074073 0.155000001 -0.003235238
v -0.012393061 0.151999995 -0.001631577
v -0.012393061 0.155000001 -0.001631577
v -0.068999998 0.097000003 0.008500000
v -0.070000000 0.097999997 0.008000000
v -0.068999998 0.097499996 0.008500000
v -0.068999998 0.103500001 0.008500000
v -0.070000000 0.104999997 0.008000000
v -0.045000002 0.097000003 0.008500000
v -0.045000002 0.097499996 0.008500000
v -0.045000002 0.103500001 0.008500000
v -0.068999998 0.097000003 0.017999999
v -0.068999998 0.103500001 0.017999999
v -0.073500000 0.105401926 0.022000000
v -0.074598074 0.106500000 0.022000000
v -0.071999997 0.104999997 0.022000000
v -0.071999997 0.105401926 0.023499999
v -0.075000003 0.108000003 0.022000000
v -0.074598074 0.108000003 0.023499999
v -0.073732048 0.106267951 0.023732051
v -0.071999997 0.106500000 0.024598077
v -0.073500000 0.108000003 0.024598077
v -0.071999997 0.108000003 0.025000000
v -0.045000002 0.097000003 0.017999999
v -0.045000002 0.103500001 0.017999999
v -0.075000003 0.142000005 0.022000000
v -0.074598074 0.142000005 0.023499999
v -0.074598074 0.143500000 0.022000000
v -0.073500000 0.144598082 0.022000000
v -0.071999997 0.144999996 0.022000000
v -0.071999997 0.144598082 0.023499999
v -0.073500000 0.142000005 0.024598077
v -0.071999997 0.142000005 0.025000000
v -0.073732048 0.143732056 0.023732051
v -0.071999997 0.143500000 0.024598077
v -0.031500001 0.144999996 0.000000000
v -0.031230513 0.144999996 0.004111575
v -0.031500001 0.155000001 0.000000000
v -0.031230513 0.155000001 0.004111575
v -0.030426664 0.144999996 0.008152800
v -0.029102204 0.144999996 0.012054528
v -0.030426664 0.155000001 0.008152800
v -0.029102204 0.155000001 0.012054528
v -0.012500000 0.151999995 0.000000000
v -0.012393061 0.151999995 0.001631577
v -0.012500000 0.155000001 0.000000000
v -0.012393061 0.155000001 0.001631577
v -0.012074073 0.151999995 0.003235238
v -0.012074073 0.155000001 0.003235238
v -0.011548494 0.151999995 0.004783543
v -0.011548494 0.155000001 0.004783543
v -0.010825317 0.151999995 0.006250000
v -0.009916916 0.151999995 0.007609518
v -0.010825317 0.155000001 0.006250000
v -0.009916916 0.155000001 0.007609518
v -0.008838835 0.151999995 0.008838835
v -0.008838835 0.155000001 0.008838835
v -0.007609518 0.151999995 0.009916916
v -0.007609518 0.155000001 0.009916916
v -0.006250000 0.151999995 0.010825317
v -0.004783543 0.151999995 0.011548494
v -0.006250000 0.155000001 0.010825317
v -0.004783543 0.155000001 0.011548494
v -0.003235238 0.151999995 0.012074073
v -0.003235238 0.155000001 0.012074073
v -0.001631577 0.151999995 0.012393061
v -0.001631577 0.155000001 0.012393061
v -0.027279800 0.144999996 0.015750000
v -0.024990629 0.144999996 0.019175986
v -0.022514036 0.144999996 0.022000000
v -0.022273863 0.144926623 0.022273863
v -0.020875722 0.144598082 0.023499999
v -0.027279800 0.155000001 0.015750000
v -0.024990629 0.155000001 0.019175986
v -0.022273863 0.155000001 0.022273863
v -0.020193748 0.143999994 0.024098076
v -0.019175986 0.143999994 0.024990629
v -0.019175986 0.155000001 0.024990629
v -0.015750000 0.143999994 0.027279800
v -0.012054528 0.143999994 0.029102204
v -0.015750000 0.155000001 0.027279800
v -0.012054528 0.155000001 0.029102204
v -0.008152800 0.143999994 0.030426664
v -0.004111575 0.143999994 0.031230513
v -0.008152800 0.155000001 0.030426664
v -0.004111575 0.155000001 0.031230513
v 0.041499998 0.026439339 -0.010560661
v 0.040439341 0.026439339 -0.009500000
v 0.041499998 0.026000001 -0.009500000
v 0.041499998 0.027500000 -0.011000000
v 0.040439341 0.027500000 -0.010560661
v 0.039999999 0.027500000 -0.009500000
v 0.048000000 0.017999999 -0.009600000
v 0.046999998 0.026439339 -0.010560661
v 0.046999998 0.026000001 -0.009500000
v 0.048000000 0.026439339 -0.009560660
v 0.054000001 0.017999999 -0.009600000
v 0.048000000 0.029999999 -0.012000000
v 0.048000000 0.030500000 -0.012000000
v 0.046999998 0.027500000 -0.011000000
v 0.048000000 0.027439339 -0.010560661
v 0.048000000 0.030470537 -0.010585787
v 0.057999998 0.029999999 -0.012000000
v 0.045000002 0.086000003 -0.017999999
v 0.068999998 0.086000003 -0.017999999
v 0.041499998 0.078500003 -0.011000000
v 0.040439341 0.078500003 -0.010560661
v 0.041499998 0.079560660 -0.010560661
v 0.039999999 0.078500003 -0.009500000
v 0.040439341 0.079560660 -0.009500000
v 0.041499998 0.079999998 -0.009500000
v 0.048000000 0.086000003 -0.012000000
v 0.046999998 0.078500003 -0.011000000
v 0.048000000 0.078560658 -0.010560661
v 0.046999998 0.079560660 -0.010560661
v 0.046999998 0.079999998 -0.009500000
v 0.048000000 0.079560660 -0.009560660
v 0.057999998 0.056499999 -0.003000000
v 0.057999998 0.086000003 -0.012000000
v 0.057999998 0.086000003 -0.003000000
v 0.064000003 0.086000003 -0.003000000
v 0.040439341 0.026439339 0.009500000
v 0.041499998 0.026000001 0.009500000
v 0.041499998 0.026439339 0.010560661
v 0.039999999 0.027500000 0.009500000
v 0.040439341 0.027500000 0.010560661
v 0.041499998 0.027500000 0.011000000
v 0.048000000 0.017999999 0.009600000
v 0.046999998 0.026000001 0.009500000
v 0.048000000 0.026439339 0.009560660
v 0.046999998 0.026439339 0.010560661
v 0.054000001 0.017999999 0.009600000
v 0.048000000 0.027439339 0.010560661
v 0.048000000 0.027500000 0.010585787
v 0.046999998 0.027500000 0.011000000
v 0.048000000 0.030029463 0.010585787
v 0.048000000 0.029999999 0.012000000
v 0.057999998 0.029999999 0.012000000
v 0.057911504 0.030500000 0.012000000
v 0.039999999 0.078500003 0.009500000
v 0.040439341 0.079560660 0.009500000
v 0.041499998 0.079999998 0.009500000
v 0.040439341 0.078500003 0.010560661
v 0.041499998 0.079560660 0.010560661
v 0.041499998 0.078500003 0.011000000
v 0.046999998 0.079999998 0.009500000
v 0.048000000 0.079560660 0.009560660
v 0.048000000 0.078560658 0.010560661
v 0.046999998 0.079560660 0.010560661
v 0.046999998 0.078500003 0.011000000
v 0.048000000 0.086000003 0.012000000
v 0.057999998 0.056499999 0.003000000
v 0.057999998 0.086000003 0.003000000
v 0.064000003 0.086000003 0.003000000
v 0.057999998 0.086000003 0.012000000
v 0.045000002 0.086000003 0.017999999
v 0.068999998 0.086000003 0.017999999
v 0.000000000 0.143999994 -0.031500001
v 0.004111575 0.143999994 -0.031230513
v 0.008152800 0.143999994 -0.030426664
v 0.000000000 0.155000001 -0.031500001
v 0.004111575 0.155000001 -0.031230513
v 0.008152800 0.155000001 -0.030426664
v 0.012054528 0.143999994 -0.029102204
v 0.015750000 0.143999994 -0.027279800
v 0.012054528 0.155000001 -0.029102204
v 0.015750000 0.155000001 -0.027279800
v 0.019175986 0.143999994 -0.024990629
v 0.020193748 0.143999994 -0.024098076
v 0.019175986 0.155000001 -0.024990629
v 0.020875722 0.144598082 -0.023499999
v 0.022273863 0.144926623 -0.022273863
v 0.022514036 0.144999996 -0.022000000
v 0.024990629 0.144999996 -0.019175986
v 0.022273863 0.155000001 -0.022273863
v 0.024990629 0.155000001 -0.019175986
v 0.000000000 0.151999995 -0.012500000
v 0.001631577 0.151999995 -0.012393061
v 0.000000000 0.155000001 -0.012500000
v 0.001631577 0.155000001 -0.012393061
v 0.003235238 0.151999995 -0.012074073
v 0.003235238 0.155000001 -0.012074073
v 0.004783543 0.151999995 -0.011548494
v 0.006250000 0.151999995 -0.010825317
v 0.004783543 0.155000001 -0.011548494
v 0.006250000 0.155000001 -0.010825317
v 0.007609518 0.151999995 -0.009916916
v 0.007609518 0.155000001 -0.009916916
v 0.008838835 0.151999995 -0.008838835
v 0.008838835 0.155000001 -0.008838835
v 0.009916916 0.151999995 -0.007609518
v 0.010825317 0.151999995 -0.006250000
v 0.009916916 0.155000001 -0.007609518
v 0.010825317 0.155000001 -0.006250000
v 0.011548494 0.151999995 -0.004783543
v 0.011548494 0.155000001 -0.004783543
v 0.012074073 0.151999995 -0.003235238
v 0.012074073 0.155000001 -0.003235238
v 0.012393061 0.151999995 -0.001631577
v 0.012393061 0.155000001 -0.001631577
v 0.027279800 0.144999996 -0.015750000
v 0.027279800 0.155000001 -0.015750000
v 0.029102204 0.144999996 -0.012054528
v 0.030426664 0.144999996 -0.008152800
v 0.029102204 0.155000001 -0.012054528
v 0.030426664 0.155000001 -0.008152800
v 0.031230513 0.144999996 -0.004111575
v 0.031230513 0.155000001 -0.004111575
v 0.045000002 0.097000003 -0.017999999
v 0.045000002 0.097499996 -0.017999999
v 0.045000002 0.103500001 -0.017999999
v 0.068999998 0.097000003 -0.017999999
v 0.068999998 0.103500001 -0.017999999
v 0.071999997 0.106500000 -0.024598077
v 0.073732048 0.106267951 -0.023732051
v 0.071999997 0.108000003 -0.025000000
v 0.073500000 0.108000003 -0.024598077
v 0.071999997 0.105401926 -0.023499999
v 0.071999997 0.104999997 -0.022000000
v 0.073500000 0.105401926 -0.022000000
v 0.074598074 0.106500000 -0.022000000
v 0.074598074 0.108000003 -0.023499999
v 0.075000003 0.108000003 -0.022000000
v 0.045000002 0.097000003 -0.008500000
v 0.045000002 0.097499996 -0.008500000
v 0.045000002 0.103500001 -0.008500000
v 0.068999998 0.097000003 -0.008500000
v 0.068999998 0.097499996 -0.008500000
v 0.070000000 0.097999997 -0.008000000
v 0.068999998 0.103500001 -0.008500000
v 0.070000000 0.104999997 -0.008000000
v 0.071999997 0.142000005 -0.025000000
v 0.073500000 0.142000005 -0.024598077
v 0.071999997 0.143500000 -0.024598077
v 0.073732048 0.143732056 -0.023732051
v 0.074598074 0.142000005 -0.023499999
v 0.075000003 0.142000005 -0.022000000
v 0.071999997 0.144598082 -0.023499999
v 0.071999997 0.144999996 -0.022000000
v 0.074598074 0.143500000 -0.022000000
v 0.073500000 0.144598082 -0.022000000
v 0.012500000 0.151999995 0.000000000
v 0.012393061 0.151999995 0.001631577
v 0.012500000 0.155000001 0.000000000
v 0.012393061 0.155000001 0.001631577
v 0.012074073 0.151999995 0.003235238
v 0.012074073 0.155000001 0.003235238
v 0.011548494 0.151999995 0.004783543
v 0.011548494 0.155000001 0.004783543
v 0.010825317 0.151999995 0.006250000
v 0.009916916 0.151999995 0.007609518
v 0.010825317 0.155000001 0.006250000
v 0.009916916 0.155000001 0.007609518
v 0.008838835 0.151999995 0.008838835
v 0.008838835 0.155000001 0.008838835
v 0.006250000 0.151999995 0.010825317
v 0.004783543 0.151999995 0.011548494
v 0.006250000 0.155000001 0.010825317
v 0.004783543 0.155000001 0.011548494
v 0.007609518 0.151999995 0.009916916
v 0.007609518 0.155000001 0.009916916
v 0.000000000 0.151999995 0.012500000
v 0.001631577 0.151999995 0.012393061
v 0.000000000 0.155000001 0.012500000
v 0.001631577 0.155000001 0.012393061
v 0.003235238 0.151999995 0.012074073
v 0.003235238 0.155000001 0.012074073
v 0.031500001 0.144999996 0.000000000
v 0.031230513 0.144999996 0.004111575
v 0.031500001 0.155000001 0.000000000
v 0.031230513 0.155000001 0.004111575
v 0.030426664 0.144999996 0.008152800
v 0.029102204 0.144999996 0.012054528
v 0.030426664 0.155000001 0.008152800
v 0.029102204 0.155000001 0.012054528
v 0.000000000 0.143999994 0.031500001
v 0.004111575 0.143999994 0.031230513
v 0.008152800 0.143999994 0.030426664
v 0.000000000 0.155000001 0.031500001
v 0.004111575 0.155000001 0.031230513
v 0.008152800 0.155000001 0.030426664
v 0.015750000 0.143999994 0.027279800
v 0.012054528 0.143999994 0.029102204
v 0.015750000 0.155000001 0.027279800
v 0.012054528 0.155000001 0.029102204
v 0.027279800 0.144999996 0.015750000
v 0.024990629 0.144999996 0.019175986
v 0.020875722 0.144598082 0.023499999
v 0.022514036 0.144999996 0.022000000
v 0.022273863 0.144926623 0.022273863
v 0.027279800 0.155000001 0.015750000
v 0.024990629 0.155000001 0.019175986
v 0.022273863 0.155000001 0.022273863
v 0.020193748 0.143999994 0.024098076
v 0.019175986 0.155000001 0.024990629
v 0.045000002 0.097000003 0.008500000
v 0.045000002 0.097499996 0.008500000
v 0.045000002 0.103500001 0.008500000
v 0.068999998 0.097000003 0.008500000
v 0.068999998 0.097499996 0.008500000
v 0.070000000 0.097999997 0.008000000
v 0.068999998 0.103500001 0.008500000
v 0.070000000 0.104999997 0.008000000
v 0.045000002 0.097000003 0.017999999
v 0.045000002 0.103500001 0.017999999
v 0.068999998 0.097000003 0.017999999
v 0.068999998 0.103500001 0.017999999
v 0.071999997 0.104999997 0.022000000
v 0.071999997 0.105401926 0.023499999
v 0.073500000 0.105401926 0.022000000
v 0.074598074 0.106500000 0.022000000
v 0.075000003 0.108000003 0.022000000
v 0.074598074 0.108000003 0.023499999
v 0.071999997 0.106500000 0.024598077
v 0.073732048 0.106267951 0.023732051
v 0.071999997 0.108000003 0.025000000
v 0.073500000 0.108000003 0.024598077
v 0.075000003 0.142000005 0.022000000
v 0.074598074 0.142000005 0.023499999
v 0.071999997 0.144999996 0.022000000
v 0.071999997 0.144598082 0.023499999
v 0.074598074 0.143500000 0.022000000
v 0.073500000 0.144598082 0.022000000
v 0.071999997 0.142000005 0.025000000
v 0.073500000 0.142000005 0.024598077
v 0.071999997 0.143500000 0.024598077
v 0.073732048 0.143732056 0.023732051
f 74 82 76
f 74 76 75
f 75 76 77
f 74 75 80
f 76 95 77
f 76 82 95
f 74 80 78
f 74 79 82
f 74 78 79
f 79 83 82
f 78 80 81
f 82 83 100
f 79 78 162
f 79 165 83
f 78 81 163
f 81 91 155
f 82 99 95
f 77 95 96
f 82 100 99
f 95 99 97
f 95 97 98
f 95 98 96
f 97 103 98
f 97 99 101
f 99 100 101
f 97 101 102
f 97 102 103
f 102 104 103
f 98 103 109
f 98 109 105
f 103 104 109
f 104 108 107
f 104 107 109
f 104 110 108
f 104 121 125
f 104 125 110
f 83 173 100
f 100 173 101
f 101 176 102
f 102 176 104
f 104 177 127
f 104 122 121
f 104 127 122
f 75 77 361
f 75 361 80
f 80 365 81
f 81 366 91
f 77 96 379
f 96 98 379
f 98 105 316
f 81 155 163
f 78 163 161
f 78 161 162
f 79 162 165
f 83 165 173
f 161 164 167
f 162 161 167
f 162 166 165
f 162 167 166
f 161 163 164
f 165 166 174
f 167 169 166
f 167 168 169
f 164 168 167
f 168 170 169
f 166 169 174
f 169 170 179
f 101 173 175
f 101 175 176
f 104 176 177
f 127 177 183
f 177 184 183
f 177 187 184
f 177 188 187
f 165 174 173
f 169 179 174
f 170 180 179
f 173 174 175
f 175 181 176
f 174 181 175
f 176 181 178
f 176 178 177
f 174 179 181
f 179 182 181
f 178 181 182
f 179 180 182
f 178 218 177
f 177 215 188
f 177 216 215
f 177 217 216
f 177 218 217
f 178 219 218
f 178 182 219
f 182 223 219
f 163 155 450
f 163 456 164
f 164 456 168
f 168 463 170
f 170 463 180
f 182 441 223
f 180 473 182
f 77 363 361
f 80 361 365
f 77 379 363
f 81 365 366
f 366 378 91
f 98 316 381
f 98 381 379
f 361 363 364
f 361 362 365
f 361 364 362
f 362 364 369
f 363 380 364
f 364 380 369
f 365 367 366
f 362 367 365
f 362 369 368
f 362 368 367
f 368 369 370
f 369 384 370
f 366 367 457
f 367 368 457
f 368 370 459
f 366 455 378
f 370 384 459
f 316 318 381
f 318 385 381
f 318 319 385
f 319 320 385
f 320 321 386
f 321 348 386
f 348 350 386
f 320 386 385
f 363 379 380
f 369 380 383
f 369 383 384
f 379 381 380
f 381 385 382
f 380 381 382
f 380 382 383
f 385 386 388
f 382 387 383
f 383 387 384
f 382 388 387
f 382 385 388
f 350 351 386
f 351 354 386
f 354 415 386
f 386 415 416
f 386 467 388
f 384 387 469
f 388 469 387
f 163 450 455
f 163 455 456
f 168 456 461
f 168 461 463
f 182 473 441
f 180 463 471
f 180 471 473
f 455 450 378
f 366 457 455
f 368 458 457
f 368 459 458
f 455 457 456
f 456 457 462
f 457 458 462
f 458 459 460
f 458 460 462
f 459 465 460
f 456 462 461
f 461 464 463
f 461 462 464
f 462 460 464
f 460 472 464
f 463 464 472
f 416 419 467
f 419 420 467
f 384 465 459
f 386 416 467
f 384 469 465
f 388 470 469
f 388 467 470
f 433 434 467
f 420 433 467
f 434 436 467
f 436 437 468
f 435 468 437
f 436 468 467
f 435 441 468
f 441 473 468
f 460 465 466
f 463 472 471
f 460 466 472
f 468 470 467
f 465 469 466
f 470 474 469
f 466 469 474
f 468 474 470
f 468 473 474
f 471 472 473
f 472 474 473
f 466 474 472
f 105 109 106
f 108 110 112
f 107 111 109
f 107 108 111
f 106 109 111
f 108 112 111
f 110 125 126
f 110 126 112
f 114 116 115
f 113 119 117
f 113 114 115
f 113 115 119
f 105 116 114
f 105 106 116
f 113 117 316
f 105 114 316
f 113 316 114
f 117 120 118
f 117 119 120
f 118 308 305
f 118 120 308
f 119 137 120
f 120 326 308
f 115 140 119
f 119 134 138
f 119 140 134
f 119 138 137
f 120 137 130
f 120 130 132
f 120 132 326
f 121 123 125
f 121 122 124
f 121 124 123
f 123 126 125
f 106 111 222
f 122 127 128
f 122 128 124
f 123 190 126
f 123 124 189
f 127 183 185
f 127 185 128
f 124 128 186
f 112 126 220
f 111 112 221
f 115 143 140
f 115 144 143
f 115 148 146
f 115 146 144
f 106 225 116
f 115 116 228
f 115 150 148
f 115 228 150
f 183 184 186
f 183 186 185
f 128 185 186
f 124 186 189
f 123 189 190
f 184 187 189
f 184 189 186
f 126 190 220
f 112 220 221
f 111 221 222
f 106 222 225
f 187 188 190
f 187 190 189
f 188 220 190
f 188 215 220
f 116 225 228
f 150 228 193
f 193 228 194
f 194 228 196
f 196 229 198
f 198 229 201
f 201 229 202
f 202 229 204
f 215 216 221
f 215 221 220
f 216 222 221
f 216 217 222
f 217 218 222
f 218 219 222
f 219 223 222
f 222 223 224
f 222 224 225
f 196 228 229
f 204 229 232
f 204 232 206
f 206 232 209
f 209 232 210
f 210 233 212
f 212 233 214
f 214 233 411
f 223 226 224
f 223 227 226
f 223 230 227
f 223 231 230
f 224 226 225
f 225 226 228
f 226 227 228
f 227 230 229
f 227 229 228
f 229 230 232
f 223 423 231
f 223 424 423
f 223 425 424
f 210 232 233
f 233 426 411
f 230 231 232
f 231 233 232
f 231 423 233
f 233 423 426
f 117 118 316
f 118 305 316
f 305 306 316
f 305 309 306
f 305 308 309
f 306 310 307
f 306 309 310
f 308 326 309
f 309 332 310
f 306 307 316
f 307 311 316
f 311 312 316
f 312 315 316
f 307 313 311
f 307 310 313
f 311 313 314
f 311 314 312
f 312 317 315
f 312 314 317
f 309 326 327
f 309 327 329
f 309 329 332
f 310 332 333
f 310 333 335
f 310 335 337
f 310 337 313
f 313 345 314
f 315 322 316
f 315 317 322
f 316 322 318
f 318 322 319
f 319 322 320
f 320 322 321
f 321 322 323
f 321 323 348
f 323 349 348
f 313 337 340
f 313 340 341
f 313 341 343
f 313 343 345
f 314 345 347
f 314 347 391
f 314 391 392
f 314 431 317
f 348 349 350
f 349 352 350
f 350 352 351
f 351 352 353
f 317 442 322
f 322 440 323
f 323 439 349
f 349 438 352
f 351 353 354
f 353 355 354
f 354 355 415
f 352 422 353
f 355 417 415
f 353 421 355
f 314 392 432
f 392 394 432
f 314 432 431
f 317 431 442
f 396 399 432
f 394 396 432
f 399 400 432
f 400 402 432
f 323 440 439
f 349 439 438
f 415 417 416
f 355 418 417
f 416 417 418
f 355 421 418
f 416 418 419
f 353 422 421
f 352 438 422
f 418 421 419
f 322 442 440
f 422 438 433
f 419 421 420
f 420 421 422
f 420 422 433
f 411 427 412
f 412 427 414
f 406 414 427
f 405 406 428
f 402 408 428
f 405 428 408
f 402 428 432
f 223 429 430
f 223 441 429
f 223 430 425
f 411 426 427
f 406 427 428
f 423 424 426
f 424 427 426
f 424 425 427
f 425 428 427
f 441 442 429
f 431 429 442
f 429 432 430
f 425 430 428
f 428 430 432
f 429 431 432
f 433 438 434
f 434 438 439
f 436 440 437
f 435 437 440
f 436 439 440
f 435 440 442
f 434 439 436
f 435 442 441
f 140 143 141
f 129 130 135
f 129 132 130
f 129 131 132
f 131 324 326
f 131 326 132
f 133 138 134
f 135 137 136
f 136 137 138
f 133 136 138
f 134 140 139
f 133 134 139
f 139 140 141
f 130 137 135
f 141 143 142
f 142 143 144
f 145 146 147
f 142 144 145
f 144 146 145
f 146 148 147
f 147 148 149
f 148 150 149
f 142 145 197
f 141 142 199
f 139 141 200
f 145 147 195
f 147 149 192
f 149 150 191
f 150 193 191
f 129 135 208
f 129 211 131
f 131 213 324
f 133 139 203
f 133 205 136
f 135 136 207
f 149 191 192
f 147 192 195
f 145 195 197
f 191 193 192
f 192 193 194
f 142 197 199
f 192 194 195
f 194 196 195
f 195 196 197
f 141 199 200
f 196 198 197
f 197 198 199
f 198 201 199
f 199 201 200
f 200 201 202
f 139 200 203
f 133 203 205
f 136 205 207
f 135 207 208
f 129 208 211
f 131 211 213
f 213 409 324
f 200 202 203
f 202 204 203
f 203 204 205
f 204 206 205
f 205 206 207
f 206 209 207
f 207 209 208
f 208 209 210
f 208 210 211
f 210 212 211
f 211 212 213
f 212 214 213
f 213 214 409
f 214 411 409
f 324 325 327
f 324 327 326
f 325 329 327
f 325 328 329
f 328 332 329
f 328 330 332
f 330 331 333
f 330 333 332
f 331 335 333
f 331 334 335
f 334 337 335
f 334 336 337
f 336 340 337
f 336 338 340
f 324 409 325
f 325 410 328
f 328 413 330
f 330 404 331
f 331 403 334
f 334 407 336
f 336 401 338
f 338 341 340
f 338 339 341
f 339 342 343
f 339 343 341
f 342 345 343
f 338 398 339
f 342 344 345
f 344 346 347
f 344 347 345
f 339 397 342
f 342 395 344
f 344 393 346
f 346 391 347
f 346 389 391
f 331 404 403
f 334 403 407
f 336 407 401
f 325 409 410
f 328 410 413
f 330 413 404
f 346 390 389
f 346 393 390
f 344 395 393
f 389 392 391
f 389 390 392
f 338 401 398
f 339 398 397
f 342 397 395
f 390 393 394
f 390 394 392
f 393 396 394
f 395 397 399
f 395 399 396
f 393 395 396
f 397 400 399
f 397 398 400
f 404 414 406
f 398 401 402
f 401 407 408
f 401 408 402
f 403 405 407
f 403 404 406
f 403 406 405
f 405 408 407
f 409 411 410
f 410 411 412
f 410 412 413
f 412 414 413
f 404 413 414
f 398 402 400
f 88 155 91
f 88 91 376
f 88 376 152
f 88 152 155
f 152 450 155
f 376 91 378
f 376 378 448
f 152 376 448
f 152 448 450
f 448 378 450
f 19 20 22
f 19 22 23
f 19 23 70
f 23 22 24
f 20 25 22
f 20 63 25
f 70 23 55
f 56 57 55
f 70 55 57
f 70 57 63
f 20 71 63
f 70 63 71
f 19 72 85
f 19 84 20
f 19 85 84
f 19 70 72
f 70 87 72
f 87 153 89
f 20 84 92
f 89 157 93
f 20 92 156
f 92 93 156
f 70 151 87
f 87 151 153
f 89 153 157
f 70 159 151
f 20 156 171
f 20 171 71
f 93 157 156
f 70 71 159
f 71 171 159
f 72 73 86
f 72 86 85
f 72 87 73
f 73 87 89
f 73 89 90
f 73 90 86
f 89 94 90
f 86 90 94
f 89 93 94
f 84 85 94
f 85 86 94
f 84 93 92
f 84 94 93
f 151 159 153
f 153 159 154
f 154 159 160
f 153 154 157
f 154 160 158
f 154 158 157
f 158 160 172
f 156 157 172
f 157 158 172
f 156 172 171
f 159 172 160
f 159 171 172
f 1 37 21
f 1 8 7
f 1 22 8
f 8 27 12
f 1 24 22
f 1 21 24
f 8 22 25
f 8 25 27
f 27 25 29
f 29 25 58
f 21 37 54
f 37 38 54
f 47 46 63
f 38 47 63
f 38 57 54
f 54 57 56
f 60 63 46
f 38 63 57
f 58 25 63
f 60 58 63
f 2 37 1
f 2 1 7
f 2 7 3
f 3 10 11
f 3 11 5
f 3 7 10
f 7 12 10
f 7 8 12
f 2 3 39
f 3 5 40
f 3 40 39
f 40 5 41
f 2 39 37
f 39 40 37
f 37 40 47
f 40 41 44
f 40 44 47
f 47 44 46
f 37 47 38
f 21 54 23
f 21 23 24
f 23 54 55
f 54 56 55
f 4 6 5
f 9 11 10
f 9 4 11
f 4 5 11
f 9 10 12
f 4 14 6
f 4 13 14
f 13 15 14
f 9 13 4
f 9 16 13
f 16 17 13
f 13 17 15
f 17 18 15
f 6 42 5
f 6 14 48
f 14 15 48
f 15 18 51
f 9 12 27
f 9 31 16
f 16 33 17
f 17 35 18
f 9 27 26
f 9 26 31
f 16 31 33
f 17 33 35
f 18 35 65
f 26 27 28
f 28 27 29
f 28 29 30
f 26 28 31
f 28 30 34
f 28 32 31
f 28 34 32
f 31 32 33
f 32 34 36
f 33 36 35
f 32 36 33
f 30 29 58
f 30 64 34
f 34 64 36
f 35 36 65
f 42 41 5
f 6 48 42
f 15 49 48
f 15 51 49
f 42 43 41
f 43 44 41
f 43 45 44
f 45 46 44
f 42 48 43
f 43 48 50
f 48 49 50
f 43 53 45
f 43 50 53
f 50 52 53
f 49 52 50
f 49 51 52
f 18 65 51
f 45 62 46
f 45 53 69
f 51 68 52
f 52 68 53
f 62 60 46
f 45 69 62
f 51 65 68
f 53 68 69
f 30 58 59
f 30 59 64
f 36 64 66
f 36 66 65
f 61 60 62
f 61 58 60
f 59 58 61
f 59 61 67
f 61 62 67
f 59 67 64
f 62 69 67
f 67 69 68
f 64 67 66
f 65 66 68
f 66 67 68
f 251 252 266
f 251 266 259
f 251 259 298
f 252 267 266
f 252 268 267
f 252 304 268
f 251 298 303
f 303 298 302
f 304 301 268
f 304 300 301
f 304 302 300
f 303 302 304
f 251 356 252
f 252 356 357
f 252 357 359
f 251 371 356
f 251 443 371
f 371 443 372
f 372 444 375
f 252 359 304
f 304 359 374
f 374 375 447
f 251 451 443
f 251 303 451
f 372 443 444
f 375 444 447
f 304 374 446
f 374 447 446
f 304 446 453
f 303 453 451
f 303 304 453
f 357 358 359
f 358 360 359
f 356 373 357
f 357 373 358
f 356 371 372
f 356 372 373
f 358 373 377
f 372 375 373
f 358 377 360
f 373 375 377
f 359 360 374
f 360 375 374
f 360 377 375
f 443 452 444
f 444 452 445
f 443 451 452
f 444 445 449
f 445 452 454
f 444 449 447
f 445 454 449
f 446 447 453
f 447 449 453
f 449 454 453
f 451 453 452
f 452 453 454
f 245 246 250
f 246 259 250
f 246 249 259
f 250 265 285
f 250 259 266
f 249 261 259
f 261 264 259
f 264 298 259
f 250 266 265
f 265 266 267
f 284 295 283
f 284 286 302
f 265 299 285
f 285 299 286
f 284 298 295
f 284 302 298
f 264 294 298
f 294 295 298
f 299 302 286
f 299 300 302
f 240 245 244
f 240 243 248
f 240 248 245
f 245 250 244
f 248 246 245
f 246 248 249
f 240 277 243
f 240 244 279
f 244 250 285
f 240 275 277
f 240 279 275
f 244 285 279
f 275 280 277
f 275 281 280
f 275 284 281
f 275 285 284
f 275 279 285
f 284 283 281
f 284 285 286
f 265 267 268
f 265 268 301
f 299 265 301
f 299 301 300
f 234 236 235
f 234 241 236
f 236 241 242
f 238 235 239
f 238 234 235
f 237 234 238
f 237 247 234
f 234 247 241
f 241 243 242
f 247 248 241
f 241 248 243
f 247 249 248
f 235 236 270
f 236 242 270
f 235 272 239
f 242 243 277
f 237 238 254
f 238 239 256
f 237 253 247
f 247 260 249
f 237 254 253
f 238 256 254
f 247 253 260
f 260 261 249
f 239 287 256
f 254 256 257
f 254 257 255
f 253 254 255
f 255 257 258
f 253 255 262
f 255 258 262
f 253 262 260
f 258 263 262
f 260 262 261
f 262 263 264
f 262 264 261
f 256 287 257
f 257 289 258
f 258 289 263
f 263 293 264
f 235 270 269
f 242 276 270
f 235 269 272
f 242 277 276
f 269 270 271
f 270 278 271
f 270 276 278
f 269 273 272
f 269 271 273
f 273 271 274
f 271 278 274
f 274 278 282
f 276 277 278
f 278 277 280
f 278 280 282
f 282 280 281
f 282 281 283
f 239 272 287
f 272 273 290
f 273 274 290
f 274 282 292
f 282 283 295
f 272 290 287
f 274 292 290
f 282 297 292
f 282 295 297
f 257 287 288
f 257 288 289
f 263 289 293
f 293 294 264
f 287 290 288
f 288 290 291
f 290 292 291
f 288 291 289
f 289 291 293
f 291 292 297
f 291 296 293
f 291 297 296
f 296 297 295
f 293 296 294
f 296 295 294
